G04 #@! TF.GenerationSoftware,KiCad,Pcbnew,(5.1.4)-1*
G04 #@! TF.CreationDate,2019-11-21T13:54:19-06:00*
G04 #@! TF.ProjectId,SRA_Sensor_Board,5352415f-5365-46e7-936f-725f426f6172,rev?*
G04 #@! TF.SameCoordinates,Original*
G04 #@! TF.FileFunction,Paste,Top*
G04 #@! TF.FilePolarity,Positive*
%FSLAX46Y46*%
G04 Gerber Fmt 4.6, Leading zero omitted, Abs format (unit mm)*
G04 Created by KiCad (PCBNEW (5.1.4)-1) date 2019-11-21 13:54:19*
%MOMM*%
%LPD*%
G04 APERTURE LIST*
%ADD10C,1.520000*%
%ADD11R,1.780000X0.720000*%
%ADD12R,2.184400X0.558800*%
%ADD13R,1.371600X0.457200*%
%ADD14C,0.100000*%
%ADD15C,0.950000*%
%ADD16R,1.550000X1.200000*%
%ADD17R,1.550000X1.600000*%
%ADD18R,0.700000X0.800000*%
%ADD19R,4.000000X4.500000*%
%ADD20R,1.900000X1.500000*%
%ADD21R,1.350000X0.400000*%
%ADD22C,5.080000*%
%ADD23R,2.650000X0.950000*%
%ADD24R,6.100000X6.800000*%
G04 APERTURE END LIST*
D10*
X127000000Y-92456000D03*
X149860000Y-46736000D03*
X147320000Y-46736000D03*
X139700000Y-46736000D03*
X137160000Y-89916000D03*
X142240000Y-46736000D03*
X144780000Y-46736000D03*
X142240000Y-92456000D03*
X147320000Y-89916000D03*
X137160000Y-46736000D03*
X134620000Y-46736000D03*
X147320000Y-92456000D03*
X142240000Y-89916000D03*
X139700000Y-89916000D03*
X127000000Y-89916000D03*
X129540000Y-89916000D03*
X132080000Y-89916000D03*
X134620000Y-89916000D03*
X144780000Y-89916000D03*
X149860000Y-89916000D03*
X129540000Y-92456000D03*
X132080000Y-92456000D03*
X134620000Y-92456000D03*
X137160000Y-92456000D03*
X139700000Y-92456000D03*
X144780000Y-92456000D03*
X149860000Y-92456000D03*
X127000000Y-49276000D03*
X129540000Y-49276000D03*
X132080000Y-49276000D03*
X134620000Y-49276000D03*
X137160000Y-49276000D03*
X139700000Y-49276000D03*
X142240000Y-49276000D03*
X144780000Y-49276000D03*
X147320000Y-49276000D03*
X149860000Y-49276000D03*
X127000000Y-46736000D03*
X129540000Y-46736000D03*
X132080000Y-46736000D03*
X63500000Y-89916000D03*
X66040000Y-89916000D03*
X68580000Y-89916000D03*
X71120000Y-89916000D03*
X73660000Y-89916000D03*
X76200000Y-89916000D03*
X78740000Y-89916000D03*
X81280000Y-89916000D03*
X83820000Y-89916000D03*
X86360000Y-89916000D03*
X63500000Y-92456000D03*
X66040000Y-92456000D03*
X68580000Y-92456000D03*
X71120000Y-92456000D03*
X73660000Y-92456000D03*
X76200000Y-92456000D03*
X78740000Y-92456000D03*
X81280000Y-92456000D03*
X83820000Y-92456000D03*
X86360000Y-92456000D03*
X63500000Y-49276000D03*
X66040000Y-49276000D03*
X68580000Y-49276000D03*
X71120000Y-49276000D03*
X73660000Y-49276000D03*
X76200000Y-49276000D03*
X78740000Y-49276000D03*
X81280000Y-49276000D03*
X83820000Y-49276000D03*
X86360000Y-49276000D03*
X63500000Y-46736000D03*
X66040000Y-46736000D03*
X68580000Y-46736000D03*
X71120000Y-46736000D03*
X73660000Y-46736000D03*
X76200000Y-46736000D03*
X78740000Y-46736000D03*
X81280000Y-46736000D03*
X83820000Y-46736000D03*
X86360000Y-46736000D03*
D11*
X161290000Y-62230000D03*
X161290000Y-60960000D03*
X161290000Y-59690000D03*
X161290000Y-58420000D03*
X165970000Y-62230000D03*
X165970000Y-60960000D03*
X165970000Y-59690000D03*
X165970000Y-58420000D03*
D12*
X104140000Y-81280000D03*
X104140000Y-82550000D03*
X104140000Y-83820000D03*
X104140000Y-85090000D03*
X104140000Y-86360000D03*
X104140000Y-87630000D03*
X104140000Y-88900000D03*
X104140000Y-90170000D03*
X99415600Y-90170000D03*
X99415600Y-88900000D03*
X99415600Y-87630000D03*
X99415600Y-86360000D03*
X99415600Y-85090000D03*
X99415600Y-83820000D03*
X99415600Y-82550000D03*
X99415600Y-81280000D03*
D13*
X154597100Y-59985001D03*
X154597100Y-60634999D03*
X154597100Y-61285001D03*
X154597100Y-61934999D03*
X150202900Y-61934999D03*
X150202900Y-61285001D03*
X150202900Y-60634999D03*
X150202900Y-59985001D03*
D14*
G36*
X83371379Y-58123944D02*
G01*
X83394434Y-58127363D01*
X83417043Y-58133027D01*
X83438987Y-58140879D01*
X83460057Y-58150844D01*
X83480048Y-58162826D01*
X83498768Y-58176710D01*
X83516038Y-58192362D01*
X83531690Y-58209632D01*
X83545574Y-58228352D01*
X83557556Y-58248343D01*
X83567521Y-58269413D01*
X83575373Y-58291357D01*
X83581037Y-58313966D01*
X83584456Y-58337021D01*
X83585600Y-58360300D01*
X83585600Y-58835300D01*
X83584456Y-58858579D01*
X83581037Y-58881634D01*
X83575373Y-58904243D01*
X83567521Y-58926187D01*
X83557556Y-58947257D01*
X83545574Y-58967248D01*
X83531690Y-58985968D01*
X83516038Y-59003238D01*
X83498768Y-59018890D01*
X83480048Y-59032774D01*
X83460057Y-59044756D01*
X83438987Y-59054721D01*
X83417043Y-59062573D01*
X83394434Y-59068237D01*
X83371379Y-59071656D01*
X83348100Y-59072800D01*
X82773100Y-59072800D01*
X82749821Y-59071656D01*
X82726766Y-59068237D01*
X82704157Y-59062573D01*
X82682213Y-59054721D01*
X82661143Y-59044756D01*
X82641152Y-59032774D01*
X82622432Y-59018890D01*
X82605162Y-59003238D01*
X82589510Y-58985968D01*
X82575626Y-58967248D01*
X82563644Y-58947257D01*
X82553679Y-58926187D01*
X82545827Y-58904243D01*
X82540163Y-58881634D01*
X82536744Y-58858579D01*
X82535600Y-58835300D01*
X82535600Y-58360300D01*
X82536744Y-58337021D01*
X82540163Y-58313966D01*
X82545827Y-58291357D01*
X82553679Y-58269413D01*
X82563644Y-58248343D01*
X82575626Y-58228352D01*
X82589510Y-58209632D01*
X82605162Y-58192362D01*
X82622432Y-58176710D01*
X82641152Y-58162826D01*
X82661143Y-58150844D01*
X82682213Y-58140879D01*
X82704157Y-58133027D01*
X82726766Y-58127363D01*
X82749821Y-58123944D01*
X82773100Y-58122800D01*
X83348100Y-58122800D01*
X83371379Y-58123944D01*
X83371379Y-58123944D01*
G37*
D15*
X83060600Y-58597800D03*
D14*
G36*
X85121379Y-58123944D02*
G01*
X85144434Y-58127363D01*
X85167043Y-58133027D01*
X85188987Y-58140879D01*
X85210057Y-58150844D01*
X85230048Y-58162826D01*
X85248768Y-58176710D01*
X85266038Y-58192362D01*
X85281690Y-58209632D01*
X85295574Y-58228352D01*
X85307556Y-58248343D01*
X85317521Y-58269413D01*
X85325373Y-58291357D01*
X85331037Y-58313966D01*
X85334456Y-58337021D01*
X85335600Y-58360300D01*
X85335600Y-58835300D01*
X85334456Y-58858579D01*
X85331037Y-58881634D01*
X85325373Y-58904243D01*
X85317521Y-58926187D01*
X85307556Y-58947257D01*
X85295574Y-58967248D01*
X85281690Y-58985968D01*
X85266038Y-59003238D01*
X85248768Y-59018890D01*
X85230048Y-59032774D01*
X85210057Y-59044756D01*
X85188987Y-59054721D01*
X85167043Y-59062573D01*
X85144434Y-59068237D01*
X85121379Y-59071656D01*
X85098100Y-59072800D01*
X84523100Y-59072800D01*
X84499821Y-59071656D01*
X84476766Y-59068237D01*
X84454157Y-59062573D01*
X84432213Y-59054721D01*
X84411143Y-59044756D01*
X84391152Y-59032774D01*
X84372432Y-59018890D01*
X84355162Y-59003238D01*
X84339510Y-58985968D01*
X84325626Y-58967248D01*
X84313644Y-58947257D01*
X84303679Y-58926187D01*
X84295827Y-58904243D01*
X84290163Y-58881634D01*
X84286744Y-58858579D01*
X84285600Y-58835300D01*
X84285600Y-58360300D01*
X84286744Y-58337021D01*
X84290163Y-58313966D01*
X84295827Y-58291357D01*
X84303679Y-58269413D01*
X84313644Y-58248343D01*
X84325626Y-58228352D01*
X84339510Y-58209632D01*
X84355162Y-58192362D01*
X84372432Y-58176710D01*
X84391152Y-58162826D01*
X84411143Y-58150844D01*
X84432213Y-58140879D01*
X84454157Y-58133027D01*
X84476766Y-58127363D01*
X84499821Y-58123944D01*
X84523100Y-58122800D01*
X85098100Y-58122800D01*
X85121379Y-58123944D01*
X85121379Y-58123944D01*
G37*
D15*
X84810600Y-58597800D03*
D14*
G36*
X83255779Y-55228344D02*
G01*
X83278834Y-55231763D01*
X83301443Y-55237427D01*
X83323387Y-55245279D01*
X83344457Y-55255244D01*
X83364448Y-55267226D01*
X83383168Y-55281110D01*
X83400438Y-55296762D01*
X83416090Y-55314032D01*
X83429974Y-55332752D01*
X83441956Y-55352743D01*
X83451921Y-55373813D01*
X83459773Y-55395757D01*
X83465437Y-55418366D01*
X83468856Y-55441421D01*
X83470000Y-55464700D01*
X83470000Y-55939700D01*
X83468856Y-55962979D01*
X83465437Y-55986034D01*
X83459773Y-56008643D01*
X83451921Y-56030587D01*
X83441956Y-56051657D01*
X83429974Y-56071648D01*
X83416090Y-56090368D01*
X83400438Y-56107638D01*
X83383168Y-56123290D01*
X83364448Y-56137174D01*
X83344457Y-56149156D01*
X83323387Y-56159121D01*
X83301443Y-56166973D01*
X83278834Y-56172637D01*
X83255779Y-56176056D01*
X83232500Y-56177200D01*
X82657500Y-56177200D01*
X82634221Y-56176056D01*
X82611166Y-56172637D01*
X82588557Y-56166973D01*
X82566613Y-56159121D01*
X82545543Y-56149156D01*
X82525552Y-56137174D01*
X82506832Y-56123290D01*
X82489562Y-56107638D01*
X82473910Y-56090368D01*
X82460026Y-56071648D01*
X82448044Y-56051657D01*
X82438079Y-56030587D01*
X82430227Y-56008643D01*
X82424563Y-55986034D01*
X82421144Y-55962979D01*
X82420000Y-55939700D01*
X82420000Y-55464700D01*
X82421144Y-55441421D01*
X82424563Y-55418366D01*
X82430227Y-55395757D01*
X82438079Y-55373813D01*
X82448044Y-55352743D01*
X82460026Y-55332752D01*
X82473910Y-55314032D01*
X82489562Y-55296762D01*
X82506832Y-55281110D01*
X82525552Y-55267226D01*
X82545543Y-55255244D01*
X82566613Y-55245279D01*
X82588557Y-55237427D01*
X82611166Y-55231763D01*
X82634221Y-55228344D01*
X82657500Y-55227200D01*
X83232500Y-55227200D01*
X83255779Y-55228344D01*
X83255779Y-55228344D01*
G37*
D15*
X82945000Y-55702200D03*
D14*
G36*
X85005779Y-55228344D02*
G01*
X85028834Y-55231763D01*
X85051443Y-55237427D01*
X85073387Y-55245279D01*
X85094457Y-55255244D01*
X85114448Y-55267226D01*
X85133168Y-55281110D01*
X85150438Y-55296762D01*
X85166090Y-55314032D01*
X85179974Y-55332752D01*
X85191956Y-55352743D01*
X85201921Y-55373813D01*
X85209773Y-55395757D01*
X85215437Y-55418366D01*
X85218856Y-55441421D01*
X85220000Y-55464700D01*
X85220000Y-55939700D01*
X85218856Y-55962979D01*
X85215437Y-55986034D01*
X85209773Y-56008643D01*
X85201921Y-56030587D01*
X85191956Y-56051657D01*
X85179974Y-56071648D01*
X85166090Y-56090368D01*
X85150438Y-56107638D01*
X85133168Y-56123290D01*
X85114448Y-56137174D01*
X85094457Y-56149156D01*
X85073387Y-56159121D01*
X85051443Y-56166973D01*
X85028834Y-56172637D01*
X85005779Y-56176056D01*
X84982500Y-56177200D01*
X84407500Y-56177200D01*
X84384221Y-56176056D01*
X84361166Y-56172637D01*
X84338557Y-56166973D01*
X84316613Y-56159121D01*
X84295543Y-56149156D01*
X84275552Y-56137174D01*
X84256832Y-56123290D01*
X84239562Y-56107638D01*
X84223910Y-56090368D01*
X84210026Y-56071648D01*
X84198044Y-56051657D01*
X84188079Y-56030587D01*
X84180227Y-56008643D01*
X84174563Y-55986034D01*
X84171144Y-55962979D01*
X84170000Y-55939700D01*
X84170000Y-55464700D01*
X84171144Y-55441421D01*
X84174563Y-55418366D01*
X84180227Y-55395757D01*
X84188079Y-55373813D01*
X84198044Y-55352743D01*
X84210026Y-55332752D01*
X84223910Y-55314032D01*
X84239562Y-55296762D01*
X84256832Y-55281110D01*
X84275552Y-55267226D01*
X84295543Y-55255244D01*
X84316613Y-55245279D01*
X84338557Y-55237427D01*
X84361166Y-55231763D01*
X84384221Y-55228344D01*
X84407500Y-55227200D01*
X84982500Y-55227200D01*
X85005779Y-55228344D01*
X85005779Y-55228344D01*
G37*
D15*
X84695000Y-55702200D03*
D14*
G36*
X69299779Y-55660144D02*
G01*
X69322834Y-55663563D01*
X69345443Y-55669227D01*
X69367387Y-55677079D01*
X69388457Y-55687044D01*
X69408448Y-55699026D01*
X69427168Y-55712910D01*
X69444438Y-55728562D01*
X69460090Y-55745832D01*
X69473974Y-55764552D01*
X69485956Y-55784543D01*
X69495921Y-55805613D01*
X69503773Y-55827557D01*
X69509437Y-55850166D01*
X69512856Y-55873221D01*
X69514000Y-55896500D01*
X69514000Y-56371500D01*
X69512856Y-56394779D01*
X69509437Y-56417834D01*
X69503773Y-56440443D01*
X69495921Y-56462387D01*
X69485956Y-56483457D01*
X69473974Y-56503448D01*
X69460090Y-56522168D01*
X69444438Y-56539438D01*
X69427168Y-56555090D01*
X69408448Y-56568974D01*
X69388457Y-56580956D01*
X69367387Y-56590921D01*
X69345443Y-56598773D01*
X69322834Y-56604437D01*
X69299779Y-56607856D01*
X69276500Y-56609000D01*
X68701500Y-56609000D01*
X68678221Y-56607856D01*
X68655166Y-56604437D01*
X68632557Y-56598773D01*
X68610613Y-56590921D01*
X68589543Y-56580956D01*
X68569552Y-56568974D01*
X68550832Y-56555090D01*
X68533562Y-56539438D01*
X68517910Y-56522168D01*
X68504026Y-56503448D01*
X68492044Y-56483457D01*
X68482079Y-56462387D01*
X68474227Y-56440443D01*
X68468563Y-56417834D01*
X68465144Y-56394779D01*
X68464000Y-56371500D01*
X68464000Y-55896500D01*
X68465144Y-55873221D01*
X68468563Y-55850166D01*
X68474227Y-55827557D01*
X68482079Y-55805613D01*
X68492044Y-55784543D01*
X68504026Y-55764552D01*
X68517910Y-55745832D01*
X68533562Y-55728562D01*
X68550832Y-55712910D01*
X68569552Y-55699026D01*
X68589543Y-55687044D01*
X68610613Y-55677079D01*
X68632557Y-55669227D01*
X68655166Y-55663563D01*
X68678221Y-55660144D01*
X68701500Y-55659000D01*
X69276500Y-55659000D01*
X69299779Y-55660144D01*
X69299779Y-55660144D01*
G37*
D15*
X68989000Y-56134000D03*
D14*
G36*
X71049779Y-55660144D02*
G01*
X71072834Y-55663563D01*
X71095443Y-55669227D01*
X71117387Y-55677079D01*
X71138457Y-55687044D01*
X71158448Y-55699026D01*
X71177168Y-55712910D01*
X71194438Y-55728562D01*
X71210090Y-55745832D01*
X71223974Y-55764552D01*
X71235956Y-55784543D01*
X71245921Y-55805613D01*
X71253773Y-55827557D01*
X71259437Y-55850166D01*
X71262856Y-55873221D01*
X71264000Y-55896500D01*
X71264000Y-56371500D01*
X71262856Y-56394779D01*
X71259437Y-56417834D01*
X71253773Y-56440443D01*
X71245921Y-56462387D01*
X71235956Y-56483457D01*
X71223974Y-56503448D01*
X71210090Y-56522168D01*
X71194438Y-56539438D01*
X71177168Y-56555090D01*
X71158448Y-56568974D01*
X71138457Y-56580956D01*
X71117387Y-56590921D01*
X71095443Y-56598773D01*
X71072834Y-56604437D01*
X71049779Y-56607856D01*
X71026500Y-56609000D01*
X70451500Y-56609000D01*
X70428221Y-56607856D01*
X70405166Y-56604437D01*
X70382557Y-56598773D01*
X70360613Y-56590921D01*
X70339543Y-56580956D01*
X70319552Y-56568974D01*
X70300832Y-56555090D01*
X70283562Y-56539438D01*
X70267910Y-56522168D01*
X70254026Y-56503448D01*
X70242044Y-56483457D01*
X70232079Y-56462387D01*
X70224227Y-56440443D01*
X70218563Y-56417834D01*
X70215144Y-56394779D01*
X70214000Y-56371500D01*
X70214000Y-55896500D01*
X70215144Y-55873221D01*
X70218563Y-55850166D01*
X70224227Y-55827557D01*
X70232079Y-55805613D01*
X70242044Y-55784543D01*
X70254026Y-55764552D01*
X70267910Y-55745832D01*
X70283562Y-55728562D01*
X70300832Y-55712910D01*
X70319552Y-55699026D01*
X70339543Y-55687044D01*
X70360613Y-55677079D01*
X70382557Y-55669227D01*
X70405166Y-55663563D01*
X70428221Y-55660144D01*
X70451500Y-55659000D01*
X71026500Y-55659000D01*
X71049779Y-55660144D01*
X71049779Y-55660144D01*
G37*
D15*
X70739000Y-56134000D03*
D14*
G36*
X152660779Y-67576144D02*
G01*
X152683834Y-67579563D01*
X152706443Y-67585227D01*
X152728387Y-67593079D01*
X152749457Y-67603044D01*
X152769448Y-67615026D01*
X152788168Y-67628910D01*
X152805438Y-67644562D01*
X152821090Y-67661832D01*
X152834974Y-67680552D01*
X152846956Y-67700543D01*
X152856921Y-67721613D01*
X152864773Y-67743557D01*
X152870437Y-67766166D01*
X152873856Y-67789221D01*
X152875000Y-67812500D01*
X152875000Y-68387500D01*
X152873856Y-68410779D01*
X152870437Y-68433834D01*
X152864773Y-68456443D01*
X152856921Y-68478387D01*
X152846956Y-68499457D01*
X152834974Y-68519448D01*
X152821090Y-68538168D01*
X152805438Y-68555438D01*
X152788168Y-68571090D01*
X152769448Y-68584974D01*
X152749457Y-68596956D01*
X152728387Y-68606921D01*
X152706443Y-68614773D01*
X152683834Y-68620437D01*
X152660779Y-68623856D01*
X152637500Y-68625000D01*
X152162500Y-68625000D01*
X152139221Y-68623856D01*
X152116166Y-68620437D01*
X152093557Y-68614773D01*
X152071613Y-68606921D01*
X152050543Y-68596956D01*
X152030552Y-68584974D01*
X152011832Y-68571090D01*
X151994562Y-68555438D01*
X151978910Y-68538168D01*
X151965026Y-68519448D01*
X151953044Y-68499457D01*
X151943079Y-68478387D01*
X151935227Y-68456443D01*
X151929563Y-68433834D01*
X151926144Y-68410779D01*
X151925000Y-68387500D01*
X151925000Y-67812500D01*
X151926144Y-67789221D01*
X151929563Y-67766166D01*
X151935227Y-67743557D01*
X151943079Y-67721613D01*
X151953044Y-67700543D01*
X151965026Y-67680552D01*
X151978910Y-67661832D01*
X151994562Y-67644562D01*
X152011832Y-67628910D01*
X152030552Y-67615026D01*
X152050543Y-67603044D01*
X152071613Y-67593079D01*
X152093557Y-67585227D01*
X152116166Y-67579563D01*
X152139221Y-67576144D01*
X152162500Y-67575000D01*
X152637500Y-67575000D01*
X152660779Y-67576144D01*
X152660779Y-67576144D01*
G37*
D15*
X152400000Y-68100000D03*
D14*
G36*
X152660779Y-69326144D02*
G01*
X152683834Y-69329563D01*
X152706443Y-69335227D01*
X152728387Y-69343079D01*
X152749457Y-69353044D01*
X152769448Y-69365026D01*
X152788168Y-69378910D01*
X152805438Y-69394562D01*
X152821090Y-69411832D01*
X152834974Y-69430552D01*
X152846956Y-69450543D01*
X152856921Y-69471613D01*
X152864773Y-69493557D01*
X152870437Y-69516166D01*
X152873856Y-69539221D01*
X152875000Y-69562500D01*
X152875000Y-70137500D01*
X152873856Y-70160779D01*
X152870437Y-70183834D01*
X152864773Y-70206443D01*
X152856921Y-70228387D01*
X152846956Y-70249457D01*
X152834974Y-70269448D01*
X152821090Y-70288168D01*
X152805438Y-70305438D01*
X152788168Y-70321090D01*
X152769448Y-70334974D01*
X152749457Y-70346956D01*
X152728387Y-70356921D01*
X152706443Y-70364773D01*
X152683834Y-70370437D01*
X152660779Y-70373856D01*
X152637500Y-70375000D01*
X152162500Y-70375000D01*
X152139221Y-70373856D01*
X152116166Y-70370437D01*
X152093557Y-70364773D01*
X152071613Y-70356921D01*
X152050543Y-70346956D01*
X152030552Y-70334974D01*
X152011832Y-70321090D01*
X151994562Y-70305438D01*
X151978910Y-70288168D01*
X151965026Y-70269448D01*
X151953044Y-70249457D01*
X151943079Y-70228387D01*
X151935227Y-70206443D01*
X151929563Y-70183834D01*
X151926144Y-70160779D01*
X151925000Y-70137500D01*
X151925000Y-69562500D01*
X151926144Y-69539221D01*
X151929563Y-69516166D01*
X151935227Y-69493557D01*
X151943079Y-69471613D01*
X151953044Y-69450543D01*
X151965026Y-69430552D01*
X151978910Y-69411832D01*
X151994562Y-69394562D01*
X152011832Y-69378910D01*
X152030552Y-69365026D01*
X152050543Y-69353044D01*
X152071613Y-69343079D01*
X152093557Y-69335227D01*
X152116166Y-69329563D01*
X152139221Y-69326144D01*
X152162500Y-69325000D01*
X152637500Y-69325000D01*
X152660779Y-69326144D01*
X152660779Y-69326144D01*
G37*
D15*
X152400000Y-69850000D03*
D14*
G36*
X99601979Y-64397744D02*
G01*
X99625034Y-64401163D01*
X99647643Y-64406827D01*
X99669587Y-64414679D01*
X99690657Y-64424644D01*
X99710648Y-64436626D01*
X99729368Y-64450510D01*
X99746638Y-64466162D01*
X99762290Y-64483432D01*
X99776174Y-64502152D01*
X99788156Y-64522143D01*
X99798121Y-64543213D01*
X99805973Y-64565157D01*
X99811637Y-64587766D01*
X99815056Y-64610821D01*
X99816200Y-64634100D01*
X99816200Y-65109100D01*
X99815056Y-65132379D01*
X99811637Y-65155434D01*
X99805973Y-65178043D01*
X99798121Y-65199987D01*
X99788156Y-65221057D01*
X99776174Y-65241048D01*
X99762290Y-65259768D01*
X99746638Y-65277038D01*
X99729368Y-65292690D01*
X99710648Y-65306574D01*
X99690657Y-65318556D01*
X99669587Y-65328521D01*
X99647643Y-65336373D01*
X99625034Y-65342037D01*
X99601979Y-65345456D01*
X99578700Y-65346600D01*
X99003700Y-65346600D01*
X98980421Y-65345456D01*
X98957366Y-65342037D01*
X98934757Y-65336373D01*
X98912813Y-65328521D01*
X98891743Y-65318556D01*
X98871752Y-65306574D01*
X98853032Y-65292690D01*
X98835762Y-65277038D01*
X98820110Y-65259768D01*
X98806226Y-65241048D01*
X98794244Y-65221057D01*
X98784279Y-65199987D01*
X98776427Y-65178043D01*
X98770763Y-65155434D01*
X98767344Y-65132379D01*
X98766200Y-65109100D01*
X98766200Y-64634100D01*
X98767344Y-64610821D01*
X98770763Y-64587766D01*
X98776427Y-64565157D01*
X98784279Y-64543213D01*
X98794244Y-64522143D01*
X98806226Y-64502152D01*
X98820110Y-64483432D01*
X98835762Y-64466162D01*
X98853032Y-64450510D01*
X98871752Y-64436626D01*
X98891743Y-64424644D01*
X98912813Y-64414679D01*
X98934757Y-64406827D01*
X98957366Y-64401163D01*
X98980421Y-64397744D01*
X99003700Y-64396600D01*
X99578700Y-64396600D01*
X99601979Y-64397744D01*
X99601979Y-64397744D01*
G37*
D15*
X99291200Y-64871600D03*
D14*
G36*
X101351979Y-64397744D02*
G01*
X101375034Y-64401163D01*
X101397643Y-64406827D01*
X101419587Y-64414679D01*
X101440657Y-64424644D01*
X101460648Y-64436626D01*
X101479368Y-64450510D01*
X101496638Y-64466162D01*
X101512290Y-64483432D01*
X101526174Y-64502152D01*
X101538156Y-64522143D01*
X101548121Y-64543213D01*
X101555973Y-64565157D01*
X101561637Y-64587766D01*
X101565056Y-64610821D01*
X101566200Y-64634100D01*
X101566200Y-65109100D01*
X101565056Y-65132379D01*
X101561637Y-65155434D01*
X101555973Y-65178043D01*
X101548121Y-65199987D01*
X101538156Y-65221057D01*
X101526174Y-65241048D01*
X101512290Y-65259768D01*
X101496638Y-65277038D01*
X101479368Y-65292690D01*
X101460648Y-65306574D01*
X101440657Y-65318556D01*
X101419587Y-65328521D01*
X101397643Y-65336373D01*
X101375034Y-65342037D01*
X101351979Y-65345456D01*
X101328700Y-65346600D01*
X100753700Y-65346600D01*
X100730421Y-65345456D01*
X100707366Y-65342037D01*
X100684757Y-65336373D01*
X100662813Y-65328521D01*
X100641743Y-65318556D01*
X100621752Y-65306574D01*
X100603032Y-65292690D01*
X100585762Y-65277038D01*
X100570110Y-65259768D01*
X100556226Y-65241048D01*
X100544244Y-65221057D01*
X100534279Y-65199987D01*
X100526427Y-65178043D01*
X100520763Y-65155434D01*
X100517344Y-65132379D01*
X100516200Y-65109100D01*
X100516200Y-64634100D01*
X100517344Y-64610821D01*
X100520763Y-64587766D01*
X100526427Y-64565157D01*
X100534279Y-64543213D01*
X100544244Y-64522143D01*
X100556226Y-64502152D01*
X100570110Y-64483432D01*
X100585762Y-64466162D01*
X100603032Y-64450510D01*
X100621752Y-64436626D01*
X100641743Y-64424644D01*
X100662813Y-64414679D01*
X100684757Y-64406827D01*
X100707366Y-64401163D01*
X100730421Y-64397744D01*
X100753700Y-64396600D01*
X101328700Y-64396600D01*
X101351979Y-64397744D01*
X101351979Y-64397744D01*
G37*
D15*
X101041200Y-64871600D03*
D14*
G36*
X99373379Y-61324344D02*
G01*
X99396434Y-61327763D01*
X99419043Y-61333427D01*
X99440987Y-61341279D01*
X99462057Y-61351244D01*
X99482048Y-61363226D01*
X99500768Y-61377110D01*
X99518038Y-61392762D01*
X99533690Y-61410032D01*
X99547574Y-61428752D01*
X99559556Y-61448743D01*
X99569521Y-61469813D01*
X99577373Y-61491757D01*
X99583037Y-61514366D01*
X99586456Y-61537421D01*
X99587600Y-61560700D01*
X99587600Y-62035700D01*
X99586456Y-62058979D01*
X99583037Y-62082034D01*
X99577373Y-62104643D01*
X99569521Y-62126587D01*
X99559556Y-62147657D01*
X99547574Y-62167648D01*
X99533690Y-62186368D01*
X99518038Y-62203638D01*
X99500768Y-62219290D01*
X99482048Y-62233174D01*
X99462057Y-62245156D01*
X99440987Y-62255121D01*
X99419043Y-62262973D01*
X99396434Y-62268637D01*
X99373379Y-62272056D01*
X99350100Y-62273200D01*
X98775100Y-62273200D01*
X98751821Y-62272056D01*
X98728766Y-62268637D01*
X98706157Y-62262973D01*
X98684213Y-62255121D01*
X98663143Y-62245156D01*
X98643152Y-62233174D01*
X98624432Y-62219290D01*
X98607162Y-62203638D01*
X98591510Y-62186368D01*
X98577626Y-62167648D01*
X98565644Y-62147657D01*
X98555679Y-62126587D01*
X98547827Y-62104643D01*
X98542163Y-62082034D01*
X98538744Y-62058979D01*
X98537600Y-62035700D01*
X98537600Y-61560700D01*
X98538744Y-61537421D01*
X98542163Y-61514366D01*
X98547827Y-61491757D01*
X98555679Y-61469813D01*
X98565644Y-61448743D01*
X98577626Y-61428752D01*
X98591510Y-61410032D01*
X98607162Y-61392762D01*
X98624432Y-61377110D01*
X98643152Y-61363226D01*
X98663143Y-61351244D01*
X98684213Y-61341279D01*
X98706157Y-61333427D01*
X98728766Y-61327763D01*
X98751821Y-61324344D01*
X98775100Y-61323200D01*
X99350100Y-61323200D01*
X99373379Y-61324344D01*
X99373379Y-61324344D01*
G37*
D15*
X99062600Y-61798200D03*
D14*
G36*
X101123379Y-61324344D02*
G01*
X101146434Y-61327763D01*
X101169043Y-61333427D01*
X101190987Y-61341279D01*
X101212057Y-61351244D01*
X101232048Y-61363226D01*
X101250768Y-61377110D01*
X101268038Y-61392762D01*
X101283690Y-61410032D01*
X101297574Y-61428752D01*
X101309556Y-61448743D01*
X101319521Y-61469813D01*
X101327373Y-61491757D01*
X101333037Y-61514366D01*
X101336456Y-61537421D01*
X101337600Y-61560700D01*
X101337600Y-62035700D01*
X101336456Y-62058979D01*
X101333037Y-62082034D01*
X101327373Y-62104643D01*
X101319521Y-62126587D01*
X101309556Y-62147657D01*
X101297574Y-62167648D01*
X101283690Y-62186368D01*
X101268038Y-62203638D01*
X101250768Y-62219290D01*
X101232048Y-62233174D01*
X101212057Y-62245156D01*
X101190987Y-62255121D01*
X101169043Y-62262973D01*
X101146434Y-62268637D01*
X101123379Y-62272056D01*
X101100100Y-62273200D01*
X100525100Y-62273200D01*
X100501821Y-62272056D01*
X100478766Y-62268637D01*
X100456157Y-62262973D01*
X100434213Y-62255121D01*
X100413143Y-62245156D01*
X100393152Y-62233174D01*
X100374432Y-62219290D01*
X100357162Y-62203638D01*
X100341510Y-62186368D01*
X100327626Y-62167648D01*
X100315644Y-62147657D01*
X100305679Y-62126587D01*
X100297827Y-62104643D01*
X100292163Y-62082034D01*
X100288744Y-62058979D01*
X100287600Y-62035700D01*
X100287600Y-61560700D01*
X100288744Y-61537421D01*
X100292163Y-61514366D01*
X100297827Y-61491757D01*
X100305679Y-61469813D01*
X100315644Y-61448743D01*
X100327626Y-61428752D01*
X100341510Y-61410032D01*
X100357162Y-61392762D01*
X100374432Y-61377110D01*
X100393152Y-61363226D01*
X100413143Y-61351244D01*
X100434213Y-61341279D01*
X100456157Y-61333427D01*
X100478766Y-61327763D01*
X100501821Y-61324344D01*
X100525100Y-61323200D01*
X101100100Y-61323200D01*
X101123379Y-61324344D01*
X101123379Y-61324344D01*
G37*
D15*
X100812600Y-61798200D03*
D14*
G36*
X99322579Y-58301744D02*
G01*
X99345634Y-58305163D01*
X99368243Y-58310827D01*
X99390187Y-58318679D01*
X99411257Y-58328644D01*
X99431248Y-58340626D01*
X99449968Y-58354510D01*
X99467238Y-58370162D01*
X99482890Y-58387432D01*
X99496774Y-58406152D01*
X99508756Y-58426143D01*
X99518721Y-58447213D01*
X99526573Y-58469157D01*
X99532237Y-58491766D01*
X99535656Y-58514821D01*
X99536800Y-58538100D01*
X99536800Y-59013100D01*
X99535656Y-59036379D01*
X99532237Y-59059434D01*
X99526573Y-59082043D01*
X99518721Y-59103987D01*
X99508756Y-59125057D01*
X99496774Y-59145048D01*
X99482890Y-59163768D01*
X99467238Y-59181038D01*
X99449968Y-59196690D01*
X99431248Y-59210574D01*
X99411257Y-59222556D01*
X99390187Y-59232521D01*
X99368243Y-59240373D01*
X99345634Y-59246037D01*
X99322579Y-59249456D01*
X99299300Y-59250600D01*
X98724300Y-59250600D01*
X98701021Y-59249456D01*
X98677966Y-59246037D01*
X98655357Y-59240373D01*
X98633413Y-59232521D01*
X98612343Y-59222556D01*
X98592352Y-59210574D01*
X98573632Y-59196690D01*
X98556362Y-59181038D01*
X98540710Y-59163768D01*
X98526826Y-59145048D01*
X98514844Y-59125057D01*
X98504879Y-59103987D01*
X98497027Y-59082043D01*
X98491363Y-59059434D01*
X98487944Y-59036379D01*
X98486800Y-59013100D01*
X98486800Y-58538100D01*
X98487944Y-58514821D01*
X98491363Y-58491766D01*
X98497027Y-58469157D01*
X98504879Y-58447213D01*
X98514844Y-58426143D01*
X98526826Y-58406152D01*
X98540710Y-58387432D01*
X98556362Y-58370162D01*
X98573632Y-58354510D01*
X98592352Y-58340626D01*
X98612343Y-58328644D01*
X98633413Y-58318679D01*
X98655357Y-58310827D01*
X98677966Y-58305163D01*
X98701021Y-58301744D01*
X98724300Y-58300600D01*
X99299300Y-58300600D01*
X99322579Y-58301744D01*
X99322579Y-58301744D01*
G37*
D15*
X99011800Y-58775600D03*
D14*
G36*
X101072579Y-58301744D02*
G01*
X101095634Y-58305163D01*
X101118243Y-58310827D01*
X101140187Y-58318679D01*
X101161257Y-58328644D01*
X101181248Y-58340626D01*
X101199968Y-58354510D01*
X101217238Y-58370162D01*
X101232890Y-58387432D01*
X101246774Y-58406152D01*
X101258756Y-58426143D01*
X101268721Y-58447213D01*
X101276573Y-58469157D01*
X101282237Y-58491766D01*
X101285656Y-58514821D01*
X101286800Y-58538100D01*
X101286800Y-59013100D01*
X101285656Y-59036379D01*
X101282237Y-59059434D01*
X101276573Y-59082043D01*
X101268721Y-59103987D01*
X101258756Y-59125057D01*
X101246774Y-59145048D01*
X101232890Y-59163768D01*
X101217238Y-59181038D01*
X101199968Y-59196690D01*
X101181248Y-59210574D01*
X101161257Y-59222556D01*
X101140187Y-59232521D01*
X101118243Y-59240373D01*
X101095634Y-59246037D01*
X101072579Y-59249456D01*
X101049300Y-59250600D01*
X100474300Y-59250600D01*
X100451021Y-59249456D01*
X100427966Y-59246037D01*
X100405357Y-59240373D01*
X100383413Y-59232521D01*
X100362343Y-59222556D01*
X100342352Y-59210574D01*
X100323632Y-59196690D01*
X100306362Y-59181038D01*
X100290710Y-59163768D01*
X100276826Y-59145048D01*
X100264844Y-59125057D01*
X100254879Y-59103987D01*
X100247027Y-59082043D01*
X100241363Y-59059434D01*
X100237944Y-59036379D01*
X100236800Y-59013100D01*
X100236800Y-58538100D01*
X100237944Y-58514821D01*
X100241363Y-58491766D01*
X100247027Y-58469157D01*
X100254879Y-58447213D01*
X100264844Y-58426143D01*
X100276826Y-58406152D01*
X100290710Y-58387432D01*
X100306362Y-58370162D01*
X100323632Y-58354510D01*
X100342352Y-58340626D01*
X100362343Y-58328644D01*
X100383413Y-58318679D01*
X100405357Y-58310827D01*
X100427966Y-58305163D01*
X100451021Y-58301744D01*
X100474300Y-58300600D01*
X101049300Y-58300600D01*
X101072579Y-58301744D01*
X101072579Y-58301744D01*
G37*
D15*
X100761800Y-58775600D03*
D14*
G36*
X83676179Y-70239744D02*
G01*
X83699234Y-70243163D01*
X83721843Y-70248827D01*
X83743787Y-70256679D01*
X83764857Y-70266644D01*
X83784848Y-70278626D01*
X83803568Y-70292510D01*
X83820838Y-70308162D01*
X83836490Y-70325432D01*
X83850374Y-70344152D01*
X83862356Y-70364143D01*
X83872321Y-70385213D01*
X83880173Y-70407157D01*
X83885837Y-70429766D01*
X83889256Y-70452821D01*
X83890400Y-70476100D01*
X83890400Y-70951100D01*
X83889256Y-70974379D01*
X83885837Y-70997434D01*
X83880173Y-71020043D01*
X83872321Y-71041987D01*
X83862356Y-71063057D01*
X83850374Y-71083048D01*
X83836490Y-71101768D01*
X83820838Y-71119038D01*
X83803568Y-71134690D01*
X83784848Y-71148574D01*
X83764857Y-71160556D01*
X83743787Y-71170521D01*
X83721843Y-71178373D01*
X83699234Y-71184037D01*
X83676179Y-71187456D01*
X83652900Y-71188600D01*
X83077900Y-71188600D01*
X83054621Y-71187456D01*
X83031566Y-71184037D01*
X83008957Y-71178373D01*
X82987013Y-71170521D01*
X82965943Y-71160556D01*
X82945952Y-71148574D01*
X82927232Y-71134690D01*
X82909962Y-71119038D01*
X82894310Y-71101768D01*
X82880426Y-71083048D01*
X82868444Y-71063057D01*
X82858479Y-71041987D01*
X82850627Y-71020043D01*
X82844963Y-70997434D01*
X82841544Y-70974379D01*
X82840400Y-70951100D01*
X82840400Y-70476100D01*
X82841544Y-70452821D01*
X82844963Y-70429766D01*
X82850627Y-70407157D01*
X82858479Y-70385213D01*
X82868444Y-70364143D01*
X82880426Y-70344152D01*
X82894310Y-70325432D01*
X82909962Y-70308162D01*
X82927232Y-70292510D01*
X82945952Y-70278626D01*
X82965943Y-70266644D01*
X82987013Y-70256679D01*
X83008957Y-70248827D01*
X83031566Y-70243163D01*
X83054621Y-70239744D01*
X83077900Y-70238600D01*
X83652900Y-70238600D01*
X83676179Y-70239744D01*
X83676179Y-70239744D01*
G37*
D15*
X83365400Y-70713600D03*
D14*
G36*
X85426179Y-70239744D02*
G01*
X85449234Y-70243163D01*
X85471843Y-70248827D01*
X85493787Y-70256679D01*
X85514857Y-70266644D01*
X85534848Y-70278626D01*
X85553568Y-70292510D01*
X85570838Y-70308162D01*
X85586490Y-70325432D01*
X85600374Y-70344152D01*
X85612356Y-70364143D01*
X85622321Y-70385213D01*
X85630173Y-70407157D01*
X85635837Y-70429766D01*
X85639256Y-70452821D01*
X85640400Y-70476100D01*
X85640400Y-70951100D01*
X85639256Y-70974379D01*
X85635837Y-70997434D01*
X85630173Y-71020043D01*
X85622321Y-71041987D01*
X85612356Y-71063057D01*
X85600374Y-71083048D01*
X85586490Y-71101768D01*
X85570838Y-71119038D01*
X85553568Y-71134690D01*
X85534848Y-71148574D01*
X85514857Y-71160556D01*
X85493787Y-71170521D01*
X85471843Y-71178373D01*
X85449234Y-71184037D01*
X85426179Y-71187456D01*
X85402900Y-71188600D01*
X84827900Y-71188600D01*
X84804621Y-71187456D01*
X84781566Y-71184037D01*
X84758957Y-71178373D01*
X84737013Y-71170521D01*
X84715943Y-71160556D01*
X84695952Y-71148574D01*
X84677232Y-71134690D01*
X84659962Y-71119038D01*
X84644310Y-71101768D01*
X84630426Y-71083048D01*
X84618444Y-71063057D01*
X84608479Y-71041987D01*
X84600627Y-71020043D01*
X84594963Y-70997434D01*
X84591544Y-70974379D01*
X84590400Y-70951100D01*
X84590400Y-70476100D01*
X84591544Y-70452821D01*
X84594963Y-70429766D01*
X84600627Y-70407157D01*
X84608479Y-70385213D01*
X84618444Y-70364143D01*
X84630426Y-70344152D01*
X84644310Y-70325432D01*
X84659962Y-70308162D01*
X84677232Y-70292510D01*
X84695952Y-70278626D01*
X84715943Y-70266644D01*
X84737013Y-70256679D01*
X84758957Y-70248827D01*
X84781566Y-70243163D01*
X84804621Y-70239744D01*
X84827900Y-70238600D01*
X85402900Y-70238600D01*
X85426179Y-70239744D01*
X85426179Y-70239744D01*
G37*
D15*
X85115400Y-70713600D03*
D14*
G36*
X83650779Y-67293344D02*
G01*
X83673834Y-67296763D01*
X83696443Y-67302427D01*
X83718387Y-67310279D01*
X83739457Y-67320244D01*
X83759448Y-67332226D01*
X83778168Y-67346110D01*
X83795438Y-67361762D01*
X83811090Y-67379032D01*
X83824974Y-67397752D01*
X83836956Y-67417743D01*
X83846921Y-67438813D01*
X83854773Y-67460757D01*
X83860437Y-67483366D01*
X83863856Y-67506421D01*
X83865000Y-67529700D01*
X83865000Y-68004700D01*
X83863856Y-68027979D01*
X83860437Y-68051034D01*
X83854773Y-68073643D01*
X83846921Y-68095587D01*
X83836956Y-68116657D01*
X83824974Y-68136648D01*
X83811090Y-68155368D01*
X83795438Y-68172638D01*
X83778168Y-68188290D01*
X83759448Y-68202174D01*
X83739457Y-68214156D01*
X83718387Y-68224121D01*
X83696443Y-68231973D01*
X83673834Y-68237637D01*
X83650779Y-68241056D01*
X83627500Y-68242200D01*
X83052500Y-68242200D01*
X83029221Y-68241056D01*
X83006166Y-68237637D01*
X82983557Y-68231973D01*
X82961613Y-68224121D01*
X82940543Y-68214156D01*
X82920552Y-68202174D01*
X82901832Y-68188290D01*
X82884562Y-68172638D01*
X82868910Y-68155368D01*
X82855026Y-68136648D01*
X82843044Y-68116657D01*
X82833079Y-68095587D01*
X82825227Y-68073643D01*
X82819563Y-68051034D01*
X82816144Y-68027979D01*
X82815000Y-68004700D01*
X82815000Y-67529700D01*
X82816144Y-67506421D01*
X82819563Y-67483366D01*
X82825227Y-67460757D01*
X82833079Y-67438813D01*
X82843044Y-67417743D01*
X82855026Y-67397752D01*
X82868910Y-67379032D01*
X82884562Y-67361762D01*
X82901832Y-67346110D01*
X82920552Y-67332226D01*
X82940543Y-67320244D01*
X82961613Y-67310279D01*
X82983557Y-67302427D01*
X83006166Y-67296763D01*
X83029221Y-67293344D01*
X83052500Y-67292200D01*
X83627500Y-67292200D01*
X83650779Y-67293344D01*
X83650779Y-67293344D01*
G37*
D15*
X83340000Y-67767200D03*
D14*
G36*
X85400779Y-67293344D02*
G01*
X85423834Y-67296763D01*
X85446443Y-67302427D01*
X85468387Y-67310279D01*
X85489457Y-67320244D01*
X85509448Y-67332226D01*
X85528168Y-67346110D01*
X85545438Y-67361762D01*
X85561090Y-67379032D01*
X85574974Y-67397752D01*
X85586956Y-67417743D01*
X85596921Y-67438813D01*
X85604773Y-67460757D01*
X85610437Y-67483366D01*
X85613856Y-67506421D01*
X85615000Y-67529700D01*
X85615000Y-68004700D01*
X85613856Y-68027979D01*
X85610437Y-68051034D01*
X85604773Y-68073643D01*
X85596921Y-68095587D01*
X85586956Y-68116657D01*
X85574974Y-68136648D01*
X85561090Y-68155368D01*
X85545438Y-68172638D01*
X85528168Y-68188290D01*
X85509448Y-68202174D01*
X85489457Y-68214156D01*
X85468387Y-68224121D01*
X85446443Y-68231973D01*
X85423834Y-68237637D01*
X85400779Y-68241056D01*
X85377500Y-68242200D01*
X84802500Y-68242200D01*
X84779221Y-68241056D01*
X84756166Y-68237637D01*
X84733557Y-68231973D01*
X84711613Y-68224121D01*
X84690543Y-68214156D01*
X84670552Y-68202174D01*
X84651832Y-68188290D01*
X84634562Y-68172638D01*
X84618910Y-68155368D01*
X84605026Y-68136648D01*
X84593044Y-68116657D01*
X84583079Y-68095587D01*
X84575227Y-68073643D01*
X84569563Y-68051034D01*
X84566144Y-68027979D01*
X84565000Y-68004700D01*
X84565000Y-67529700D01*
X84566144Y-67506421D01*
X84569563Y-67483366D01*
X84575227Y-67460757D01*
X84583079Y-67438813D01*
X84593044Y-67417743D01*
X84605026Y-67397752D01*
X84618910Y-67379032D01*
X84634562Y-67361762D01*
X84651832Y-67346110D01*
X84670552Y-67332226D01*
X84690543Y-67320244D01*
X84711613Y-67310279D01*
X84733557Y-67302427D01*
X84756166Y-67296763D01*
X84779221Y-67293344D01*
X84802500Y-67292200D01*
X85377500Y-67292200D01*
X85400779Y-67293344D01*
X85400779Y-67293344D01*
G37*
D15*
X85090000Y-67767200D03*
D14*
G36*
X83574579Y-64270744D02*
G01*
X83597634Y-64274163D01*
X83620243Y-64279827D01*
X83642187Y-64287679D01*
X83663257Y-64297644D01*
X83683248Y-64309626D01*
X83701968Y-64323510D01*
X83719238Y-64339162D01*
X83734890Y-64356432D01*
X83748774Y-64375152D01*
X83760756Y-64395143D01*
X83770721Y-64416213D01*
X83778573Y-64438157D01*
X83784237Y-64460766D01*
X83787656Y-64483821D01*
X83788800Y-64507100D01*
X83788800Y-64982100D01*
X83787656Y-65005379D01*
X83784237Y-65028434D01*
X83778573Y-65051043D01*
X83770721Y-65072987D01*
X83760756Y-65094057D01*
X83748774Y-65114048D01*
X83734890Y-65132768D01*
X83719238Y-65150038D01*
X83701968Y-65165690D01*
X83683248Y-65179574D01*
X83663257Y-65191556D01*
X83642187Y-65201521D01*
X83620243Y-65209373D01*
X83597634Y-65215037D01*
X83574579Y-65218456D01*
X83551300Y-65219600D01*
X82976300Y-65219600D01*
X82953021Y-65218456D01*
X82929966Y-65215037D01*
X82907357Y-65209373D01*
X82885413Y-65201521D01*
X82864343Y-65191556D01*
X82844352Y-65179574D01*
X82825632Y-65165690D01*
X82808362Y-65150038D01*
X82792710Y-65132768D01*
X82778826Y-65114048D01*
X82766844Y-65094057D01*
X82756879Y-65072987D01*
X82749027Y-65051043D01*
X82743363Y-65028434D01*
X82739944Y-65005379D01*
X82738800Y-64982100D01*
X82738800Y-64507100D01*
X82739944Y-64483821D01*
X82743363Y-64460766D01*
X82749027Y-64438157D01*
X82756879Y-64416213D01*
X82766844Y-64395143D01*
X82778826Y-64375152D01*
X82792710Y-64356432D01*
X82808362Y-64339162D01*
X82825632Y-64323510D01*
X82844352Y-64309626D01*
X82864343Y-64297644D01*
X82885413Y-64287679D01*
X82907357Y-64279827D01*
X82929966Y-64274163D01*
X82953021Y-64270744D01*
X82976300Y-64269600D01*
X83551300Y-64269600D01*
X83574579Y-64270744D01*
X83574579Y-64270744D01*
G37*
D15*
X83263800Y-64744600D03*
D14*
G36*
X85324579Y-64270744D02*
G01*
X85347634Y-64274163D01*
X85370243Y-64279827D01*
X85392187Y-64287679D01*
X85413257Y-64297644D01*
X85433248Y-64309626D01*
X85451968Y-64323510D01*
X85469238Y-64339162D01*
X85484890Y-64356432D01*
X85498774Y-64375152D01*
X85510756Y-64395143D01*
X85520721Y-64416213D01*
X85528573Y-64438157D01*
X85534237Y-64460766D01*
X85537656Y-64483821D01*
X85538800Y-64507100D01*
X85538800Y-64982100D01*
X85537656Y-65005379D01*
X85534237Y-65028434D01*
X85528573Y-65051043D01*
X85520721Y-65072987D01*
X85510756Y-65094057D01*
X85498774Y-65114048D01*
X85484890Y-65132768D01*
X85469238Y-65150038D01*
X85451968Y-65165690D01*
X85433248Y-65179574D01*
X85413257Y-65191556D01*
X85392187Y-65201521D01*
X85370243Y-65209373D01*
X85347634Y-65215037D01*
X85324579Y-65218456D01*
X85301300Y-65219600D01*
X84726300Y-65219600D01*
X84703021Y-65218456D01*
X84679966Y-65215037D01*
X84657357Y-65209373D01*
X84635413Y-65201521D01*
X84614343Y-65191556D01*
X84594352Y-65179574D01*
X84575632Y-65165690D01*
X84558362Y-65150038D01*
X84542710Y-65132768D01*
X84528826Y-65114048D01*
X84516844Y-65094057D01*
X84506879Y-65072987D01*
X84499027Y-65051043D01*
X84493363Y-65028434D01*
X84489944Y-65005379D01*
X84488800Y-64982100D01*
X84488800Y-64507100D01*
X84489944Y-64483821D01*
X84493363Y-64460766D01*
X84499027Y-64438157D01*
X84506879Y-64416213D01*
X84516844Y-64395143D01*
X84528826Y-64375152D01*
X84542710Y-64356432D01*
X84558362Y-64339162D01*
X84575632Y-64323510D01*
X84594352Y-64309626D01*
X84614343Y-64297644D01*
X84635413Y-64287679D01*
X84657357Y-64279827D01*
X84679966Y-64274163D01*
X84703021Y-64270744D01*
X84726300Y-64269600D01*
X85301300Y-64269600D01*
X85324579Y-64270744D01*
X85324579Y-64270744D01*
G37*
D15*
X85013800Y-64744600D03*
D14*
G36*
X83498379Y-61222744D02*
G01*
X83521434Y-61226163D01*
X83544043Y-61231827D01*
X83565987Y-61239679D01*
X83587057Y-61249644D01*
X83607048Y-61261626D01*
X83625768Y-61275510D01*
X83643038Y-61291162D01*
X83658690Y-61308432D01*
X83672574Y-61327152D01*
X83684556Y-61347143D01*
X83694521Y-61368213D01*
X83702373Y-61390157D01*
X83708037Y-61412766D01*
X83711456Y-61435821D01*
X83712600Y-61459100D01*
X83712600Y-61934100D01*
X83711456Y-61957379D01*
X83708037Y-61980434D01*
X83702373Y-62003043D01*
X83694521Y-62024987D01*
X83684556Y-62046057D01*
X83672574Y-62066048D01*
X83658690Y-62084768D01*
X83643038Y-62102038D01*
X83625768Y-62117690D01*
X83607048Y-62131574D01*
X83587057Y-62143556D01*
X83565987Y-62153521D01*
X83544043Y-62161373D01*
X83521434Y-62167037D01*
X83498379Y-62170456D01*
X83475100Y-62171600D01*
X82900100Y-62171600D01*
X82876821Y-62170456D01*
X82853766Y-62167037D01*
X82831157Y-62161373D01*
X82809213Y-62153521D01*
X82788143Y-62143556D01*
X82768152Y-62131574D01*
X82749432Y-62117690D01*
X82732162Y-62102038D01*
X82716510Y-62084768D01*
X82702626Y-62066048D01*
X82690644Y-62046057D01*
X82680679Y-62024987D01*
X82672827Y-62003043D01*
X82667163Y-61980434D01*
X82663744Y-61957379D01*
X82662600Y-61934100D01*
X82662600Y-61459100D01*
X82663744Y-61435821D01*
X82667163Y-61412766D01*
X82672827Y-61390157D01*
X82680679Y-61368213D01*
X82690644Y-61347143D01*
X82702626Y-61327152D01*
X82716510Y-61308432D01*
X82732162Y-61291162D01*
X82749432Y-61275510D01*
X82768152Y-61261626D01*
X82788143Y-61249644D01*
X82809213Y-61239679D01*
X82831157Y-61231827D01*
X82853766Y-61226163D01*
X82876821Y-61222744D01*
X82900100Y-61221600D01*
X83475100Y-61221600D01*
X83498379Y-61222744D01*
X83498379Y-61222744D01*
G37*
D15*
X83187600Y-61696600D03*
D14*
G36*
X85248379Y-61222744D02*
G01*
X85271434Y-61226163D01*
X85294043Y-61231827D01*
X85315987Y-61239679D01*
X85337057Y-61249644D01*
X85357048Y-61261626D01*
X85375768Y-61275510D01*
X85393038Y-61291162D01*
X85408690Y-61308432D01*
X85422574Y-61327152D01*
X85434556Y-61347143D01*
X85444521Y-61368213D01*
X85452373Y-61390157D01*
X85458037Y-61412766D01*
X85461456Y-61435821D01*
X85462600Y-61459100D01*
X85462600Y-61934100D01*
X85461456Y-61957379D01*
X85458037Y-61980434D01*
X85452373Y-62003043D01*
X85444521Y-62024987D01*
X85434556Y-62046057D01*
X85422574Y-62066048D01*
X85408690Y-62084768D01*
X85393038Y-62102038D01*
X85375768Y-62117690D01*
X85357048Y-62131574D01*
X85337057Y-62143556D01*
X85315987Y-62153521D01*
X85294043Y-62161373D01*
X85271434Y-62167037D01*
X85248379Y-62170456D01*
X85225100Y-62171600D01*
X84650100Y-62171600D01*
X84626821Y-62170456D01*
X84603766Y-62167037D01*
X84581157Y-62161373D01*
X84559213Y-62153521D01*
X84538143Y-62143556D01*
X84518152Y-62131574D01*
X84499432Y-62117690D01*
X84482162Y-62102038D01*
X84466510Y-62084768D01*
X84452626Y-62066048D01*
X84440644Y-62046057D01*
X84430679Y-62024987D01*
X84422827Y-62003043D01*
X84417163Y-61980434D01*
X84413744Y-61957379D01*
X84412600Y-61934100D01*
X84412600Y-61459100D01*
X84413744Y-61435821D01*
X84417163Y-61412766D01*
X84422827Y-61390157D01*
X84430679Y-61368213D01*
X84440644Y-61347143D01*
X84452626Y-61327152D01*
X84466510Y-61308432D01*
X84482162Y-61291162D01*
X84499432Y-61275510D01*
X84518152Y-61261626D01*
X84538143Y-61249644D01*
X84559213Y-61239679D01*
X84581157Y-61231827D01*
X84603766Y-61226163D01*
X84626821Y-61222744D01*
X84650100Y-61221600D01*
X85225100Y-61221600D01*
X85248379Y-61222744D01*
X85248379Y-61222744D01*
G37*
D15*
X84937600Y-61696600D03*
D14*
G36*
X69731579Y-67064744D02*
G01*
X69754634Y-67068163D01*
X69777243Y-67073827D01*
X69799187Y-67081679D01*
X69820257Y-67091644D01*
X69840248Y-67103626D01*
X69858968Y-67117510D01*
X69876238Y-67133162D01*
X69891890Y-67150432D01*
X69905774Y-67169152D01*
X69917756Y-67189143D01*
X69927721Y-67210213D01*
X69935573Y-67232157D01*
X69941237Y-67254766D01*
X69944656Y-67277821D01*
X69945800Y-67301100D01*
X69945800Y-67776100D01*
X69944656Y-67799379D01*
X69941237Y-67822434D01*
X69935573Y-67845043D01*
X69927721Y-67866987D01*
X69917756Y-67888057D01*
X69905774Y-67908048D01*
X69891890Y-67926768D01*
X69876238Y-67944038D01*
X69858968Y-67959690D01*
X69840248Y-67973574D01*
X69820257Y-67985556D01*
X69799187Y-67995521D01*
X69777243Y-68003373D01*
X69754634Y-68009037D01*
X69731579Y-68012456D01*
X69708300Y-68013600D01*
X69133300Y-68013600D01*
X69110021Y-68012456D01*
X69086966Y-68009037D01*
X69064357Y-68003373D01*
X69042413Y-67995521D01*
X69021343Y-67985556D01*
X69001352Y-67973574D01*
X68982632Y-67959690D01*
X68965362Y-67944038D01*
X68949710Y-67926768D01*
X68935826Y-67908048D01*
X68923844Y-67888057D01*
X68913879Y-67866987D01*
X68906027Y-67845043D01*
X68900363Y-67822434D01*
X68896944Y-67799379D01*
X68895800Y-67776100D01*
X68895800Y-67301100D01*
X68896944Y-67277821D01*
X68900363Y-67254766D01*
X68906027Y-67232157D01*
X68913879Y-67210213D01*
X68923844Y-67189143D01*
X68935826Y-67169152D01*
X68949710Y-67150432D01*
X68965362Y-67133162D01*
X68982632Y-67117510D01*
X69001352Y-67103626D01*
X69021343Y-67091644D01*
X69042413Y-67081679D01*
X69064357Y-67073827D01*
X69086966Y-67068163D01*
X69110021Y-67064744D01*
X69133300Y-67063600D01*
X69708300Y-67063600D01*
X69731579Y-67064744D01*
X69731579Y-67064744D01*
G37*
D15*
X69420800Y-67538600D03*
D14*
G36*
X71481579Y-67064744D02*
G01*
X71504634Y-67068163D01*
X71527243Y-67073827D01*
X71549187Y-67081679D01*
X71570257Y-67091644D01*
X71590248Y-67103626D01*
X71608968Y-67117510D01*
X71626238Y-67133162D01*
X71641890Y-67150432D01*
X71655774Y-67169152D01*
X71667756Y-67189143D01*
X71677721Y-67210213D01*
X71685573Y-67232157D01*
X71691237Y-67254766D01*
X71694656Y-67277821D01*
X71695800Y-67301100D01*
X71695800Y-67776100D01*
X71694656Y-67799379D01*
X71691237Y-67822434D01*
X71685573Y-67845043D01*
X71677721Y-67866987D01*
X71667756Y-67888057D01*
X71655774Y-67908048D01*
X71641890Y-67926768D01*
X71626238Y-67944038D01*
X71608968Y-67959690D01*
X71590248Y-67973574D01*
X71570257Y-67985556D01*
X71549187Y-67995521D01*
X71527243Y-68003373D01*
X71504634Y-68009037D01*
X71481579Y-68012456D01*
X71458300Y-68013600D01*
X70883300Y-68013600D01*
X70860021Y-68012456D01*
X70836966Y-68009037D01*
X70814357Y-68003373D01*
X70792413Y-67995521D01*
X70771343Y-67985556D01*
X70751352Y-67973574D01*
X70732632Y-67959690D01*
X70715362Y-67944038D01*
X70699710Y-67926768D01*
X70685826Y-67908048D01*
X70673844Y-67888057D01*
X70663879Y-67866987D01*
X70656027Y-67845043D01*
X70650363Y-67822434D01*
X70646944Y-67799379D01*
X70645800Y-67776100D01*
X70645800Y-67301100D01*
X70646944Y-67277821D01*
X70650363Y-67254766D01*
X70656027Y-67232157D01*
X70663879Y-67210213D01*
X70673844Y-67189143D01*
X70685826Y-67169152D01*
X70699710Y-67150432D01*
X70715362Y-67133162D01*
X70732632Y-67117510D01*
X70751352Y-67103626D01*
X70771343Y-67091644D01*
X70792413Y-67081679D01*
X70814357Y-67073827D01*
X70836966Y-67068163D01*
X70860021Y-67064744D01*
X70883300Y-67063600D01*
X71458300Y-67063600D01*
X71481579Y-67064744D01*
X71481579Y-67064744D01*
G37*
D15*
X71170800Y-67538600D03*
D14*
G36*
X69731579Y-73033744D02*
G01*
X69754634Y-73037163D01*
X69777243Y-73042827D01*
X69799187Y-73050679D01*
X69820257Y-73060644D01*
X69840248Y-73072626D01*
X69858968Y-73086510D01*
X69876238Y-73102162D01*
X69891890Y-73119432D01*
X69905774Y-73138152D01*
X69917756Y-73158143D01*
X69927721Y-73179213D01*
X69935573Y-73201157D01*
X69941237Y-73223766D01*
X69944656Y-73246821D01*
X69945800Y-73270100D01*
X69945800Y-73745100D01*
X69944656Y-73768379D01*
X69941237Y-73791434D01*
X69935573Y-73814043D01*
X69927721Y-73835987D01*
X69917756Y-73857057D01*
X69905774Y-73877048D01*
X69891890Y-73895768D01*
X69876238Y-73913038D01*
X69858968Y-73928690D01*
X69840248Y-73942574D01*
X69820257Y-73954556D01*
X69799187Y-73964521D01*
X69777243Y-73972373D01*
X69754634Y-73978037D01*
X69731579Y-73981456D01*
X69708300Y-73982600D01*
X69133300Y-73982600D01*
X69110021Y-73981456D01*
X69086966Y-73978037D01*
X69064357Y-73972373D01*
X69042413Y-73964521D01*
X69021343Y-73954556D01*
X69001352Y-73942574D01*
X68982632Y-73928690D01*
X68965362Y-73913038D01*
X68949710Y-73895768D01*
X68935826Y-73877048D01*
X68923844Y-73857057D01*
X68913879Y-73835987D01*
X68906027Y-73814043D01*
X68900363Y-73791434D01*
X68896944Y-73768379D01*
X68895800Y-73745100D01*
X68895800Y-73270100D01*
X68896944Y-73246821D01*
X68900363Y-73223766D01*
X68906027Y-73201157D01*
X68913879Y-73179213D01*
X68923844Y-73158143D01*
X68935826Y-73138152D01*
X68949710Y-73119432D01*
X68965362Y-73102162D01*
X68982632Y-73086510D01*
X69001352Y-73072626D01*
X69021343Y-73060644D01*
X69042413Y-73050679D01*
X69064357Y-73042827D01*
X69086966Y-73037163D01*
X69110021Y-73033744D01*
X69133300Y-73032600D01*
X69708300Y-73032600D01*
X69731579Y-73033744D01*
X69731579Y-73033744D01*
G37*
D15*
X69420800Y-73507600D03*
D14*
G36*
X71481579Y-73033744D02*
G01*
X71504634Y-73037163D01*
X71527243Y-73042827D01*
X71549187Y-73050679D01*
X71570257Y-73060644D01*
X71590248Y-73072626D01*
X71608968Y-73086510D01*
X71626238Y-73102162D01*
X71641890Y-73119432D01*
X71655774Y-73138152D01*
X71667756Y-73158143D01*
X71677721Y-73179213D01*
X71685573Y-73201157D01*
X71691237Y-73223766D01*
X71694656Y-73246821D01*
X71695800Y-73270100D01*
X71695800Y-73745100D01*
X71694656Y-73768379D01*
X71691237Y-73791434D01*
X71685573Y-73814043D01*
X71677721Y-73835987D01*
X71667756Y-73857057D01*
X71655774Y-73877048D01*
X71641890Y-73895768D01*
X71626238Y-73913038D01*
X71608968Y-73928690D01*
X71590248Y-73942574D01*
X71570257Y-73954556D01*
X71549187Y-73964521D01*
X71527243Y-73972373D01*
X71504634Y-73978037D01*
X71481579Y-73981456D01*
X71458300Y-73982600D01*
X70883300Y-73982600D01*
X70860021Y-73981456D01*
X70836966Y-73978037D01*
X70814357Y-73972373D01*
X70792413Y-73964521D01*
X70771343Y-73954556D01*
X70751352Y-73942574D01*
X70732632Y-73928690D01*
X70715362Y-73913038D01*
X70699710Y-73895768D01*
X70685826Y-73877048D01*
X70673844Y-73857057D01*
X70663879Y-73835987D01*
X70656027Y-73814043D01*
X70650363Y-73791434D01*
X70646944Y-73768379D01*
X70645800Y-73745100D01*
X70645800Y-73270100D01*
X70646944Y-73246821D01*
X70650363Y-73223766D01*
X70656027Y-73201157D01*
X70663879Y-73179213D01*
X70673844Y-73158143D01*
X70685826Y-73138152D01*
X70699710Y-73119432D01*
X70715362Y-73102162D01*
X70732632Y-73086510D01*
X70751352Y-73072626D01*
X70771343Y-73060644D01*
X70792413Y-73050679D01*
X70814357Y-73042827D01*
X70836966Y-73037163D01*
X70860021Y-73033744D01*
X70883300Y-73032600D01*
X71458300Y-73032600D01*
X71481579Y-73033744D01*
X71481579Y-73033744D01*
G37*
D15*
X71170800Y-73507600D03*
D14*
G36*
X69604579Y-69985744D02*
G01*
X69627634Y-69989163D01*
X69650243Y-69994827D01*
X69672187Y-70002679D01*
X69693257Y-70012644D01*
X69713248Y-70024626D01*
X69731968Y-70038510D01*
X69749238Y-70054162D01*
X69764890Y-70071432D01*
X69778774Y-70090152D01*
X69790756Y-70110143D01*
X69800721Y-70131213D01*
X69808573Y-70153157D01*
X69814237Y-70175766D01*
X69817656Y-70198821D01*
X69818800Y-70222100D01*
X69818800Y-70697100D01*
X69817656Y-70720379D01*
X69814237Y-70743434D01*
X69808573Y-70766043D01*
X69800721Y-70787987D01*
X69790756Y-70809057D01*
X69778774Y-70829048D01*
X69764890Y-70847768D01*
X69749238Y-70865038D01*
X69731968Y-70880690D01*
X69713248Y-70894574D01*
X69693257Y-70906556D01*
X69672187Y-70916521D01*
X69650243Y-70924373D01*
X69627634Y-70930037D01*
X69604579Y-70933456D01*
X69581300Y-70934600D01*
X69006300Y-70934600D01*
X68983021Y-70933456D01*
X68959966Y-70930037D01*
X68937357Y-70924373D01*
X68915413Y-70916521D01*
X68894343Y-70906556D01*
X68874352Y-70894574D01*
X68855632Y-70880690D01*
X68838362Y-70865038D01*
X68822710Y-70847768D01*
X68808826Y-70829048D01*
X68796844Y-70809057D01*
X68786879Y-70787987D01*
X68779027Y-70766043D01*
X68773363Y-70743434D01*
X68769944Y-70720379D01*
X68768800Y-70697100D01*
X68768800Y-70222100D01*
X68769944Y-70198821D01*
X68773363Y-70175766D01*
X68779027Y-70153157D01*
X68786879Y-70131213D01*
X68796844Y-70110143D01*
X68808826Y-70090152D01*
X68822710Y-70071432D01*
X68838362Y-70054162D01*
X68855632Y-70038510D01*
X68874352Y-70024626D01*
X68894343Y-70012644D01*
X68915413Y-70002679D01*
X68937357Y-69994827D01*
X68959966Y-69989163D01*
X68983021Y-69985744D01*
X69006300Y-69984600D01*
X69581300Y-69984600D01*
X69604579Y-69985744D01*
X69604579Y-69985744D01*
G37*
D15*
X69293800Y-70459600D03*
D14*
G36*
X71354579Y-69985744D02*
G01*
X71377634Y-69989163D01*
X71400243Y-69994827D01*
X71422187Y-70002679D01*
X71443257Y-70012644D01*
X71463248Y-70024626D01*
X71481968Y-70038510D01*
X71499238Y-70054162D01*
X71514890Y-70071432D01*
X71528774Y-70090152D01*
X71540756Y-70110143D01*
X71550721Y-70131213D01*
X71558573Y-70153157D01*
X71564237Y-70175766D01*
X71567656Y-70198821D01*
X71568800Y-70222100D01*
X71568800Y-70697100D01*
X71567656Y-70720379D01*
X71564237Y-70743434D01*
X71558573Y-70766043D01*
X71550721Y-70787987D01*
X71540756Y-70809057D01*
X71528774Y-70829048D01*
X71514890Y-70847768D01*
X71499238Y-70865038D01*
X71481968Y-70880690D01*
X71463248Y-70894574D01*
X71443257Y-70906556D01*
X71422187Y-70916521D01*
X71400243Y-70924373D01*
X71377634Y-70930037D01*
X71354579Y-70933456D01*
X71331300Y-70934600D01*
X70756300Y-70934600D01*
X70733021Y-70933456D01*
X70709966Y-70930037D01*
X70687357Y-70924373D01*
X70665413Y-70916521D01*
X70644343Y-70906556D01*
X70624352Y-70894574D01*
X70605632Y-70880690D01*
X70588362Y-70865038D01*
X70572710Y-70847768D01*
X70558826Y-70829048D01*
X70546844Y-70809057D01*
X70536879Y-70787987D01*
X70529027Y-70766043D01*
X70523363Y-70743434D01*
X70519944Y-70720379D01*
X70518800Y-70697100D01*
X70518800Y-70222100D01*
X70519944Y-70198821D01*
X70523363Y-70175766D01*
X70529027Y-70153157D01*
X70536879Y-70131213D01*
X70546844Y-70110143D01*
X70558826Y-70090152D01*
X70572710Y-70071432D01*
X70588362Y-70054162D01*
X70605632Y-70038510D01*
X70624352Y-70024626D01*
X70644343Y-70012644D01*
X70665413Y-70002679D01*
X70687357Y-69994827D01*
X70709966Y-69989163D01*
X70733021Y-69985744D01*
X70756300Y-69984600D01*
X71331300Y-69984600D01*
X71354579Y-69985744D01*
X71354579Y-69985744D01*
G37*
D15*
X71043800Y-70459600D03*
D14*
G36*
X69172779Y-61502144D02*
G01*
X69195834Y-61505563D01*
X69218443Y-61511227D01*
X69240387Y-61519079D01*
X69261457Y-61529044D01*
X69281448Y-61541026D01*
X69300168Y-61554910D01*
X69317438Y-61570562D01*
X69333090Y-61587832D01*
X69346974Y-61606552D01*
X69358956Y-61626543D01*
X69368921Y-61647613D01*
X69376773Y-61669557D01*
X69382437Y-61692166D01*
X69385856Y-61715221D01*
X69387000Y-61738500D01*
X69387000Y-62213500D01*
X69385856Y-62236779D01*
X69382437Y-62259834D01*
X69376773Y-62282443D01*
X69368921Y-62304387D01*
X69358956Y-62325457D01*
X69346974Y-62345448D01*
X69333090Y-62364168D01*
X69317438Y-62381438D01*
X69300168Y-62397090D01*
X69281448Y-62410974D01*
X69261457Y-62422956D01*
X69240387Y-62432921D01*
X69218443Y-62440773D01*
X69195834Y-62446437D01*
X69172779Y-62449856D01*
X69149500Y-62451000D01*
X68574500Y-62451000D01*
X68551221Y-62449856D01*
X68528166Y-62446437D01*
X68505557Y-62440773D01*
X68483613Y-62432921D01*
X68462543Y-62422956D01*
X68442552Y-62410974D01*
X68423832Y-62397090D01*
X68406562Y-62381438D01*
X68390910Y-62364168D01*
X68377026Y-62345448D01*
X68365044Y-62325457D01*
X68355079Y-62304387D01*
X68347227Y-62282443D01*
X68341563Y-62259834D01*
X68338144Y-62236779D01*
X68337000Y-62213500D01*
X68337000Y-61738500D01*
X68338144Y-61715221D01*
X68341563Y-61692166D01*
X68347227Y-61669557D01*
X68355079Y-61647613D01*
X68365044Y-61626543D01*
X68377026Y-61606552D01*
X68390910Y-61587832D01*
X68406562Y-61570562D01*
X68423832Y-61554910D01*
X68442552Y-61541026D01*
X68462543Y-61529044D01*
X68483613Y-61519079D01*
X68505557Y-61511227D01*
X68528166Y-61505563D01*
X68551221Y-61502144D01*
X68574500Y-61501000D01*
X69149500Y-61501000D01*
X69172779Y-61502144D01*
X69172779Y-61502144D01*
G37*
D15*
X68862000Y-61976000D03*
D14*
G36*
X70922779Y-61502144D02*
G01*
X70945834Y-61505563D01*
X70968443Y-61511227D01*
X70990387Y-61519079D01*
X71011457Y-61529044D01*
X71031448Y-61541026D01*
X71050168Y-61554910D01*
X71067438Y-61570562D01*
X71083090Y-61587832D01*
X71096974Y-61606552D01*
X71108956Y-61626543D01*
X71118921Y-61647613D01*
X71126773Y-61669557D01*
X71132437Y-61692166D01*
X71135856Y-61715221D01*
X71137000Y-61738500D01*
X71137000Y-62213500D01*
X71135856Y-62236779D01*
X71132437Y-62259834D01*
X71126773Y-62282443D01*
X71118921Y-62304387D01*
X71108956Y-62325457D01*
X71096974Y-62345448D01*
X71083090Y-62364168D01*
X71067438Y-62381438D01*
X71050168Y-62397090D01*
X71031448Y-62410974D01*
X71011457Y-62422956D01*
X70990387Y-62432921D01*
X70968443Y-62440773D01*
X70945834Y-62446437D01*
X70922779Y-62449856D01*
X70899500Y-62451000D01*
X70324500Y-62451000D01*
X70301221Y-62449856D01*
X70278166Y-62446437D01*
X70255557Y-62440773D01*
X70233613Y-62432921D01*
X70212543Y-62422956D01*
X70192552Y-62410974D01*
X70173832Y-62397090D01*
X70156562Y-62381438D01*
X70140910Y-62364168D01*
X70127026Y-62345448D01*
X70115044Y-62325457D01*
X70105079Y-62304387D01*
X70097227Y-62282443D01*
X70091563Y-62259834D01*
X70088144Y-62236779D01*
X70087000Y-62213500D01*
X70087000Y-61738500D01*
X70088144Y-61715221D01*
X70091563Y-61692166D01*
X70097227Y-61669557D01*
X70105079Y-61647613D01*
X70115044Y-61626543D01*
X70127026Y-61606552D01*
X70140910Y-61587832D01*
X70156562Y-61570562D01*
X70173832Y-61554910D01*
X70192552Y-61541026D01*
X70212543Y-61529044D01*
X70233613Y-61519079D01*
X70255557Y-61511227D01*
X70278166Y-61505563D01*
X70301221Y-61502144D01*
X70324500Y-61501000D01*
X70899500Y-61501000D01*
X70922779Y-61502144D01*
X70922779Y-61502144D01*
G37*
D15*
X70612000Y-61976000D03*
D14*
G36*
X69285779Y-58581144D02*
G01*
X69308834Y-58584563D01*
X69331443Y-58590227D01*
X69353387Y-58598079D01*
X69374457Y-58608044D01*
X69394448Y-58620026D01*
X69413168Y-58633910D01*
X69430438Y-58649562D01*
X69446090Y-58666832D01*
X69459974Y-58685552D01*
X69471956Y-58705543D01*
X69481921Y-58726613D01*
X69489773Y-58748557D01*
X69495437Y-58771166D01*
X69498856Y-58794221D01*
X69500000Y-58817500D01*
X69500000Y-59292500D01*
X69498856Y-59315779D01*
X69495437Y-59338834D01*
X69489773Y-59361443D01*
X69481921Y-59383387D01*
X69471956Y-59404457D01*
X69459974Y-59424448D01*
X69446090Y-59443168D01*
X69430438Y-59460438D01*
X69413168Y-59476090D01*
X69394448Y-59489974D01*
X69374457Y-59501956D01*
X69353387Y-59511921D01*
X69331443Y-59519773D01*
X69308834Y-59525437D01*
X69285779Y-59528856D01*
X69262500Y-59530000D01*
X68687500Y-59530000D01*
X68664221Y-59528856D01*
X68641166Y-59525437D01*
X68618557Y-59519773D01*
X68596613Y-59511921D01*
X68575543Y-59501956D01*
X68555552Y-59489974D01*
X68536832Y-59476090D01*
X68519562Y-59460438D01*
X68503910Y-59443168D01*
X68490026Y-59424448D01*
X68478044Y-59404457D01*
X68468079Y-59383387D01*
X68460227Y-59361443D01*
X68454563Y-59338834D01*
X68451144Y-59315779D01*
X68450000Y-59292500D01*
X68450000Y-58817500D01*
X68451144Y-58794221D01*
X68454563Y-58771166D01*
X68460227Y-58748557D01*
X68468079Y-58726613D01*
X68478044Y-58705543D01*
X68490026Y-58685552D01*
X68503910Y-58666832D01*
X68519562Y-58649562D01*
X68536832Y-58633910D01*
X68555552Y-58620026D01*
X68575543Y-58608044D01*
X68596613Y-58598079D01*
X68618557Y-58590227D01*
X68641166Y-58584563D01*
X68664221Y-58581144D01*
X68687500Y-58580000D01*
X69262500Y-58580000D01*
X69285779Y-58581144D01*
X69285779Y-58581144D01*
G37*
D15*
X68975000Y-59055000D03*
D14*
G36*
X71035779Y-58581144D02*
G01*
X71058834Y-58584563D01*
X71081443Y-58590227D01*
X71103387Y-58598079D01*
X71124457Y-58608044D01*
X71144448Y-58620026D01*
X71163168Y-58633910D01*
X71180438Y-58649562D01*
X71196090Y-58666832D01*
X71209974Y-58685552D01*
X71221956Y-58705543D01*
X71231921Y-58726613D01*
X71239773Y-58748557D01*
X71245437Y-58771166D01*
X71248856Y-58794221D01*
X71250000Y-58817500D01*
X71250000Y-59292500D01*
X71248856Y-59315779D01*
X71245437Y-59338834D01*
X71239773Y-59361443D01*
X71231921Y-59383387D01*
X71221956Y-59404457D01*
X71209974Y-59424448D01*
X71196090Y-59443168D01*
X71180438Y-59460438D01*
X71163168Y-59476090D01*
X71144448Y-59489974D01*
X71124457Y-59501956D01*
X71103387Y-59511921D01*
X71081443Y-59519773D01*
X71058834Y-59525437D01*
X71035779Y-59528856D01*
X71012500Y-59530000D01*
X70437500Y-59530000D01*
X70414221Y-59528856D01*
X70391166Y-59525437D01*
X70368557Y-59519773D01*
X70346613Y-59511921D01*
X70325543Y-59501956D01*
X70305552Y-59489974D01*
X70286832Y-59476090D01*
X70269562Y-59460438D01*
X70253910Y-59443168D01*
X70240026Y-59424448D01*
X70228044Y-59404457D01*
X70218079Y-59383387D01*
X70210227Y-59361443D01*
X70204563Y-59338834D01*
X70201144Y-59315779D01*
X70200000Y-59292500D01*
X70200000Y-58817500D01*
X70201144Y-58794221D01*
X70204563Y-58771166D01*
X70210227Y-58748557D01*
X70218079Y-58726613D01*
X70228044Y-58705543D01*
X70240026Y-58685552D01*
X70253910Y-58666832D01*
X70269562Y-58649562D01*
X70286832Y-58633910D01*
X70305552Y-58620026D01*
X70325543Y-58608044D01*
X70346613Y-58598079D01*
X70368557Y-58590227D01*
X70391166Y-58584563D01*
X70414221Y-58581144D01*
X70437500Y-58580000D01*
X71012500Y-58580000D01*
X71035779Y-58581144D01*
X71035779Y-58581144D01*
G37*
D15*
X70725000Y-59055000D03*
D14*
G36*
X69172779Y-52739144D02*
G01*
X69195834Y-52742563D01*
X69218443Y-52748227D01*
X69240387Y-52756079D01*
X69261457Y-52766044D01*
X69281448Y-52778026D01*
X69300168Y-52791910D01*
X69317438Y-52807562D01*
X69333090Y-52824832D01*
X69346974Y-52843552D01*
X69358956Y-52863543D01*
X69368921Y-52884613D01*
X69376773Y-52906557D01*
X69382437Y-52929166D01*
X69385856Y-52952221D01*
X69387000Y-52975500D01*
X69387000Y-53450500D01*
X69385856Y-53473779D01*
X69382437Y-53496834D01*
X69376773Y-53519443D01*
X69368921Y-53541387D01*
X69358956Y-53562457D01*
X69346974Y-53582448D01*
X69333090Y-53601168D01*
X69317438Y-53618438D01*
X69300168Y-53634090D01*
X69281448Y-53647974D01*
X69261457Y-53659956D01*
X69240387Y-53669921D01*
X69218443Y-53677773D01*
X69195834Y-53683437D01*
X69172779Y-53686856D01*
X69149500Y-53688000D01*
X68574500Y-53688000D01*
X68551221Y-53686856D01*
X68528166Y-53683437D01*
X68505557Y-53677773D01*
X68483613Y-53669921D01*
X68462543Y-53659956D01*
X68442552Y-53647974D01*
X68423832Y-53634090D01*
X68406562Y-53618438D01*
X68390910Y-53601168D01*
X68377026Y-53582448D01*
X68365044Y-53562457D01*
X68355079Y-53541387D01*
X68347227Y-53519443D01*
X68341563Y-53496834D01*
X68338144Y-53473779D01*
X68337000Y-53450500D01*
X68337000Y-52975500D01*
X68338144Y-52952221D01*
X68341563Y-52929166D01*
X68347227Y-52906557D01*
X68355079Y-52884613D01*
X68365044Y-52863543D01*
X68377026Y-52843552D01*
X68390910Y-52824832D01*
X68406562Y-52807562D01*
X68423832Y-52791910D01*
X68442552Y-52778026D01*
X68462543Y-52766044D01*
X68483613Y-52756079D01*
X68505557Y-52748227D01*
X68528166Y-52742563D01*
X68551221Y-52739144D01*
X68574500Y-52738000D01*
X69149500Y-52738000D01*
X69172779Y-52739144D01*
X69172779Y-52739144D01*
G37*
D15*
X68862000Y-53213000D03*
D14*
G36*
X70922779Y-52739144D02*
G01*
X70945834Y-52742563D01*
X70968443Y-52748227D01*
X70990387Y-52756079D01*
X71011457Y-52766044D01*
X71031448Y-52778026D01*
X71050168Y-52791910D01*
X71067438Y-52807562D01*
X71083090Y-52824832D01*
X71096974Y-52843552D01*
X71108956Y-52863543D01*
X71118921Y-52884613D01*
X71126773Y-52906557D01*
X71132437Y-52929166D01*
X71135856Y-52952221D01*
X71137000Y-52975500D01*
X71137000Y-53450500D01*
X71135856Y-53473779D01*
X71132437Y-53496834D01*
X71126773Y-53519443D01*
X71118921Y-53541387D01*
X71108956Y-53562457D01*
X71096974Y-53582448D01*
X71083090Y-53601168D01*
X71067438Y-53618438D01*
X71050168Y-53634090D01*
X71031448Y-53647974D01*
X71011457Y-53659956D01*
X70990387Y-53669921D01*
X70968443Y-53677773D01*
X70945834Y-53683437D01*
X70922779Y-53686856D01*
X70899500Y-53688000D01*
X70324500Y-53688000D01*
X70301221Y-53686856D01*
X70278166Y-53683437D01*
X70255557Y-53677773D01*
X70233613Y-53669921D01*
X70212543Y-53659956D01*
X70192552Y-53647974D01*
X70173832Y-53634090D01*
X70156562Y-53618438D01*
X70140910Y-53601168D01*
X70127026Y-53582448D01*
X70115044Y-53562457D01*
X70105079Y-53541387D01*
X70097227Y-53519443D01*
X70091563Y-53496834D01*
X70088144Y-53473779D01*
X70087000Y-53450500D01*
X70087000Y-52975500D01*
X70088144Y-52952221D01*
X70091563Y-52929166D01*
X70097227Y-52906557D01*
X70105079Y-52884613D01*
X70115044Y-52863543D01*
X70127026Y-52843552D01*
X70140910Y-52824832D01*
X70156562Y-52807562D01*
X70173832Y-52791910D01*
X70192552Y-52778026D01*
X70212543Y-52766044D01*
X70233613Y-52756079D01*
X70255557Y-52748227D01*
X70278166Y-52742563D01*
X70301221Y-52739144D01*
X70324500Y-52738000D01*
X70899500Y-52738000D01*
X70922779Y-52739144D01*
X70922779Y-52739144D01*
G37*
D15*
X70612000Y-53213000D03*
D14*
G36*
X83204979Y-52358144D02*
G01*
X83228034Y-52361563D01*
X83250643Y-52367227D01*
X83272587Y-52375079D01*
X83293657Y-52385044D01*
X83313648Y-52397026D01*
X83332368Y-52410910D01*
X83349638Y-52426562D01*
X83365290Y-52443832D01*
X83379174Y-52462552D01*
X83391156Y-52482543D01*
X83401121Y-52503613D01*
X83408973Y-52525557D01*
X83414637Y-52548166D01*
X83418056Y-52571221D01*
X83419200Y-52594500D01*
X83419200Y-53069500D01*
X83418056Y-53092779D01*
X83414637Y-53115834D01*
X83408973Y-53138443D01*
X83401121Y-53160387D01*
X83391156Y-53181457D01*
X83379174Y-53201448D01*
X83365290Y-53220168D01*
X83349638Y-53237438D01*
X83332368Y-53253090D01*
X83313648Y-53266974D01*
X83293657Y-53278956D01*
X83272587Y-53288921D01*
X83250643Y-53296773D01*
X83228034Y-53302437D01*
X83204979Y-53305856D01*
X83181700Y-53307000D01*
X82606700Y-53307000D01*
X82583421Y-53305856D01*
X82560366Y-53302437D01*
X82537757Y-53296773D01*
X82515813Y-53288921D01*
X82494743Y-53278956D01*
X82474752Y-53266974D01*
X82456032Y-53253090D01*
X82438762Y-53237438D01*
X82423110Y-53220168D01*
X82409226Y-53201448D01*
X82397244Y-53181457D01*
X82387279Y-53160387D01*
X82379427Y-53138443D01*
X82373763Y-53115834D01*
X82370344Y-53092779D01*
X82369200Y-53069500D01*
X82369200Y-52594500D01*
X82370344Y-52571221D01*
X82373763Y-52548166D01*
X82379427Y-52525557D01*
X82387279Y-52503613D01*
X82397244Y-52482543D01*
X82409226Y-52462552D01*
X82423110Y-52443832D01*
X82438762Y-52426562D01*
X82456032Y-52410910D01*
X82474752Y-52397026D01*
X82494743Y-52385044D01*
X82515813Y-52375079D01*
X82537757Y-52367227D01*
X82560366Y-52361563D01*
X82583421Y-52358144D01*
X82606700Y-52357000D01*
X83181700Y-52357000D01*
X83204979Y-52358144D01*
X83204979Y-52358144D01*
G37*
D15*
X82894200Y-52832000D03*
D14*
G36*
X84954979Y-52358144D02*
G01*
X84978034Y-52361563D01*
X85000643Y-52367227D01*
X85022587Y-52375079D01*
X85043657Y-52385044D01*
X85063648Y-52397026D01*
X85082368Y-52410910D01*
X85099638Y-52426562D01*
X85115290Y-52443832D01*
X85129174Y-52462552D01*
X85141156Y-52482543D01*
X85151121Y-52503613D01*
X85158973Y-52525557D01*
X85164637Y-52548166D01*
X85168056Y-52571221D01*
X85169200Y-52594500D01*
X85169200Y-53069500D01*
X85168056Y-53092779D01*
X85164637Y-53115834D01*
X85158973Y-53138443D01*
X85151121Y-53160387D01*
X85141156Y-53181457D01*
X85129174Y-53201448D01*
X85115290Y-53220168D01*
X85099638Y-53237438D01*
X85082368Y-53253090D01*
X85063648Y-53266974D01*
X85043657Y-53278956D01*
X85022587Y-53288921D01*
X85000643Y-53296773D01*
X84978034Y-53302437D01*
X84954979Y-53305856D01*
X84931700Y-53307000D01*
X84356700Y-53307000D01*
X84333421Y-53305856D01*
X84310366Y-53302437D01*
X84287757Y-53296773D01*
X84265813Y-53288921D01*
X84244743Y-53278956D01*
X84224752Y-53266974D01*
X84206032Y-53253090D01*
X84188762Y-53237438D01*
X84173110Y-53220168D01*
X84159226Y-53201448D01*
X84147244Y-53181457D01*
X84137279Y-53160387D01*
X84129427Y-53138443D01*
X84123763Y-53115834D01*
X84120344Y-53092779D01*
X84119200Y-53069500D01*
X84119200Y-52594500D01*
X84120344Y-52571221D01*
X84123763Y-52548166D01*
X84129427Y-52525557D01*
X84137279Y-52503613D01*
X84147244Y-52482543D01*
X84159226Y-52462552D01*
X84173110Y-52443832D01*
X84188762Y-52426562D01*
X84206032Y-52410910D01*
X84224752Y-52397026D01*
X84244743Y-52385044D01*
X84265813Y-52375079D01*
X84287757Y-52367227D01*
X84310366Y-52361563D01*
X84333421Y-52358144D01*
X84356700Y-52357000D01*
X84931700Y-52357000D01*
X84954979Y-52358144D01*
X84954979Y-52358144D01*
G37*
D15*
X84644200Y-52832000D03*
D14*
G36*
X130308779Y-66165144D02*
G01*
X130331834Y-66168563D01*
X130354443Y-66174227D01*
X130376387Y-66182079D01*
X130397457Y-66192044D01*
X130417448Y-66204026D01*
X130436168Y-66217910D01*
X130453438Y-66233562D01*
X130469090Y-66250832D01*
X130482974Y-66269552D01*
X130494956Y-66289543D01*
X130504921Y-66310613D01*
X130512773Y-66332557D01*
X130518437Y-66355166D01*
X130521856Y-66378221D01*
X130523000Y-66401500D01*
X130523000Y-66976500D01*
X130521856Y-66999779D01*
X130518437Y-67022834D01*
X130512773Y-67045443D01*
X130504921Y-67067387D01*
X130494956Y-67088457D01*
X130482974Y-67108448D01*
X130469090Y-67127168D01*
X130453438Y-67144438D01*
X130436168Y-67160090D01*
X130417448Y-67173974D01*
X130397457Y-67185956D01*
X130376387Y-67195921D01*
X130354443Y-67203773D01*
X130331834Y-67209437D01*
X130308779Y-67212856D01*
X130285500Y-67214000D01*
X129810500Y-67214000D01*
X129787221Y-67212856D01*
X129764166Y-67209437D01*
X129741557Y-67203773D01*
X129719613Y-67195921D01*
X129698543Y-67185956D01*
X129678552Y-67173974D01*
X129659832Y-67160090D01*
X129642562Y-67144438D01*
X129626910Y-67127168D01*
X129613026Y-67108448D01*
X129601044Y-67088457D01*
X129591079Y-67067387D01*
X129583227Y-67045443D01*
X129577563Y-67022834D01*
X129574144Y-66999779D01*
X129573000Y-66976500D01*
X129573000Y-66401500D01*
X129574144Y-66378221D01*
X129577563Y-66355166D01*
X129583227Y-66332557D01*
X129591079Y-66310613D01*
X129601044Y-66289543D01*
X129613026Y-66269552D01*
X129626910Y-66250832D01*
X129642562Y-66233562D01*
X129659832Y-66217910D01*
X129678552Y-66204026D01*
X129698543Y-66192044D01*
X129719613Y-66182079D01*
X129741557Y-66174227D01*
X129764166Y-66168563D01*
X129787221Y-66165144D01*
X129810500Y-66164000D01*
X130285500Y-66164000D01*
X130308779Y-66165144D01*
X130308779Y-66165144D01*
G37*
D15*
X130048000Y-66689000D03*
D14*
G36*
X130308779Y-67915144D02*
G01*
X130331834Y-67918563D01*
X130354443Y-67924227D01*
X130376387Y-67932079D01*
X130397457Y-67942044D01*
X130417448Y-67954026D01*
X130436168Y-67967910D01*
X130453438Y-67983562D01*
X130469090Y-68000832D01*
X130482974Y-68019552D01*
X130494956Y-68039543D01*
X130504921Y-68060613D01*
X130512773Y-68082557D01*
X130518437Y-68105166D01*
X130521856Y-68128221D01*
X130523000Y-68151500D01*
X130523000Y-68726500D01*
X130521856Y-68749779D01*
X130518437Y-68772834D01*
X130512773Y-68795443D01*
X130504921Y-68817387D01*
X130494956Y-68838457D01*
X130482974Y-68858448D01*
X130469090Y-68877168D01*
X130453438Y-68894438D01*
X130436168Y-68910090D01*
X130417448Y-68923974D01*
X130397457Y-68935956D01*
X130376387Y-68945921D01*
X130354443Y-68953773D01*
X130331834Y-68959437D01*
X130308779Y-68962856D01*
X130285500Y-68964000D01*
X129810500Y-68964000D01*
X129787221Y-68962856D01*
X129764166Y-68959437D01*
X129741557Y-68953773D01*
X129719613Y-68945921D01*
X129698543Y-68935956D01*
X129678552Y-68923974D01*
X129659832Y-68910090D01*
X129642562Y-68894438D01*
X129626910Y-68877168D01*
X129613026Y-68858448D01*
X129601044Y-68838457D01*
X129591079Y-68817387D01*
X129583227Y-68795443D01*
X129577563Y-68772834D01*
X129574144Y-68749779D01*
X129573000Y-68726500D01*
X129573000Y-68151500D01*
X129574144Y-68128221D01*
X129577563Y-68105166D01*
X129583227Y-68082557D01*
X129591079Y-68060613D01*
X129601044Y-68039543D01*
X129613026Y-68019552D01*
X129626910Y-68000832D01*
X129642562Y-67983562D01*
X129659832Y-67967910D01*
X129678552Y-67954026D01*
X129698543Y-67942044D01*
X129719613Y-67932079D01*
X129741557Y-67924227D01*
X129764166Y-67918563D01*
X129787221Y-67915144D01*
X129810500Y-67914000D01*
X130285500Y-67914000D01*
X130308779Y-67915144D01*
X130308779Y-67915144D01*
G37*
D15*
X130048000Y-68439000D03*
D14*
G36*
X153930779Y-55356144D02*
G01*
X153953834Y-55359563D01*
X153976443Y-55365227D01*
X153998387Y-55373079D01*
X154019457Y-55383044D01*
X154039448Y-55395026D01*
X154058168Y-55408910D01*
X154075438Y-55424562D01*
X154091090Y-55441832D01*
X154104974Y-55460552D01*
X154116956Y-55480543D01*
X154126921Y-55501613D01*
X154134773Y-55523557D01*
X154140437Y-55546166D01*
X154143856Y-55569221D01*
X154145000Y-55592500D01*
X154145000Y-56167500D01*
X154143856Y-56190779D01*
X154140437Y-56213834D01*
X154134773Y-56236443D01*
X154126921Y-56258387D01*
X154116956Y-56279457D01*
X154104974Y-56299448D01*
X154091090Y-56318168D01*
X154075438Y-56335438D01*
X154058168Y-56351090D01*
X154039448Y-56364974D01*
X154019457Y-56376956D01*
X153998387Y-56386921D01*
X153976443Y-56394773D01*
X153953834Y-56400437D01*
X153930779Y-56403856D01*
X153907500Y-56405000D01*
X153432500Y-56405000D01*
X153409221Y-56403856D01*
X153386166Y-56400437D01*
X153363557Y-56394773D01*
X153341613Y-56386921D01*
X153320543Y-56376956D01*
X153300552Y-56364974D01*
X153281832Y-56351090D01*
X153264562Y-56335438D01*
X153248910Y-56318168D01*
X153235026Y-56299448D01*
X153223044Y-56279457D01*
X153213079Y-56258387D01*
X153205227Y-56236443D01*
X153199563Y-56213834D01*
X153196144Y-56190779D01*
X153195000Y-56167500D01*
X153195000Y-55592500D01*
X153196144Y-55569221D01*
X153199563Y-55546166D01*
X153205227Y-55523557D01*
X153213079Y-55501613D01*
X153223044Y-55480543D01*
X153235026Y-55460552D01*
X153248910Y-55441832D01*
X153264562Y-55424562D01*
X153281832Y-55408910D01*
X153300552Y-55395026D01*
X153320543Y-55383044D01*
X153341613Y-55373079D01*
X153363557Y-55365227D01*
X153386166Y-55359563D01*
X153409221Y-55356144D01*
X153432500Y-55355000D01*
X153907500Y-55355000D01*
X153930779Y-55356144D01*
X153930779Y-55356144D01*
G37*
D15*
X153670000Y-55880000D03*
D14*
G36*
X153930779Y-57106144D02*
G01*
X153953834Y-57109563D01*
X153976443Y-57115227D01*
X153998387Y-57123079D01*
X154019457Y-57133044D01*
X154039448Y-57145026D01*
X154058168Y-57158910D01*
X154075438Y-57174562D01*
X154091090Y-57191832D01*
X154104974Y-57210552D01*
X154116956Y-57230543D01*
X154126921Y-57251613D01*
X154134773Y-57273557D01*
X154140437Y-57296166D01*
X154143856Y-57319221D01*
X154145000Y-57342500D01*
X154145000Y-57917500D01*
X154143856Y-57940779D01*
X154140437Y-57963834D01*
X154134773Y-57986443D01*
X154126921Y-58008387D01*
X154116956Y-58029457D01*
X154104974Y-58049448D01*
X154091090Y-58068168D01*
X154075438Y-58085438D01*
X154058168Y-58101090D01*
X154039448Y-58114974D01*
X154019457Y-58126956D01*
X153998387Y-58136921D01*
X153976443Y-58144773D01*
X153953834Y-58150437D01*
X153930779Y-58153856D01*
X153907500Y-58155000D01*
X153432500Y-58155000D01*
X153409221Y-58153856D01*
X153386166Y-58150437D01*
X153363557Y-58144773D01*
X153341613Y-58136921D01*
X153320543Y-58126956D01*
X153300552Y-58114974D01*
X153281832Y-58101090D01*
X153264562Y-58085438D01*
X153248910Y-58068168D01*
X153235026Y-58049448D01*
X153223044Y-58029457D01*
X153213079Y-58008387D01*
X153205227Y-57986443D01*
X153199563Y-57963834D01*
X153196144Y-57940779D01*
X153195000Y-57917500D01*
X153195000Y-57342500D01*
X153196144Y-57319221D01*
X153199563Y-57296166D01*
X153205227Y-57273557D01*
X153213079Y-57251613D01*
X153223044Y-57230543D01*
X153235026Y-57210552D01*
X153248910Y-57191832D01*
X153264562Y-57174562D01*
X153281832Y-57158910D01*
X153300552Y-57145026D01*
X153320543Y-57133044D01*
X153341613Y-57123079D01*
X153363557Y-57115227D01*
X153386166Y-57109563D01*
X153409221Y-57106144D01*
X153432500Y-57105000D01*
X153907500Y-57105000D01*
X153930779Y-57106144D01*
X153930779Y-57106144D01*
G37*
D15*
X153670000Y-57630000D03*
D14*
G36*
X152710779Y-64296144D02*
G01*
X152733834Y-64299563D01*
X152756443Y-64305227D01*
X152778387Y-64313079D01*
X152799457Y-64323044D01*
X152819448Y-64335026D01*
X152838168Y-64348910D01*
X152855438Y-64364562D01*
X152871090Y-64381832D01*
X152884974Y-64400552D01*
X152896956Y-64420543D01*
X152906921Y-64441613D01*
X152914773Y-64463557D01*
X152920437Y-64486166D01*
X152923856Y-64509221D01*
X152925000Y-64532500D01*
X152925000Y-65007500D01*
X152923856Y-65030779D01*
X152920437Y-65053834D01*
X152914773Y-65076443D01*
X152906921Y-65098387D01*
X152896956Y-65119457D01*
X152884974Y-65139448D01*
X152871090Y-65158168D01*
X152855438Y-65175438D01*
X152838168Y-65191090D01*
X152819448Y-65204974D01*
X152799457Y-65216956D01*
X152778387Y-65226921D01*
X152756443Y-65234773D01*
X152733834Y-65240437D01*
X152710779Y-65243856D01*
X152687500Y-65245000D01*
X152112500Y-65245000D01*
X152089221Y-65243856D01*
X152066166Y-65240437D01*
X152043557Y-65234773D01*
X152021613Y-65226921D01*
X152000543Y-65216956D01*
X151980552Y-65204974D01*
X151961832Y-65191090D01*
X151944562Y-65175438D01*
X151928910Y-65158168D01*
X151915026Y-65139448D01*
X151903044Y-65119457D01*
X151893079Y-65098387D01*
X151885227Y-65076443D01*
X151879563Y-65053834D01*
X151876144Y-65030779D01*
X151875000Y-65007500D01*
X151875000Y-64532500D01*
X151876144Y-64509221D01*
X151879563Y-64486166D01*
X151885227Y-64463557D01*
X151893079Y-64441613D01*
X151903044Y-64420543D01*
X151915026Y-64400552D01*
X151928910Y-64381832D01*
X151944562Y-64364562D01*
X151961832Y-64348910D01*
X151980552Y-64335026D01*
X152000543Y-64323044D01*
X152021613Y-64313079D01*
X152043557Y-64305227D01*
X152066166Y-64299563D01*
X152089221Y-64296144D01*
X152112500Y-64295000D01*
X152687500Y-64295000D01*
X152710779Y-64296144D01*
X152710779Y-64296144D01*
G37*
D15*
X152400000Y-64770000D03*
D14*
G36*
X150960779Y-64296144D02*
G01*
X150983834Y-64299563D01*
X151006443Y-64305227D01*
X151028387Y-64313079D01*
X151049457Y-64323044D01*
X151069448Y-64335026D01*
X151088168Y-64348910D01*
X151105438Y-64364562D01*
X151121090Y-64381832D01*
X151134974Y-64400552D01*
X151146956Y-64420543D01*
X151156921Y-64441613D01*
X151164773Y-64463557D01*
X151170437Y-64486166D01*
X151173856Y-64509221D01*
X151175000Y-64532500D01*
X151175000Y-65007500D01*
X151173856Y-65030779D01*
X151170437Y-65053834D01*
X151164773Y-65076443D01*
X151156921Y-65098387D01*
X151146956Y-65119457D01*
X151134974Y-65139448D01*
X151121090Y-65158168D01*
X151105438Y-65175438D01*
X151088168Y-65191090D01*
X151069448Y-65204974D01*
X151049457Y-65216956D01*
X151028387Y-65226921D01*
X151006443Y-65234773D01*
X150983834Y-65240437D01*
X150960779Y-65243856D01*
X150937500Y-65245000D01*
X150362500Y-65245000D01*
X150339221Y-65243856D01*
X150316166Y-65240437D01*
X150293557Y-65234773D01*
X150271613Y-65226921D01*
X150250543Y-65216956D01*
X150230552Y-65204974D01*
X150211832Y-65191090D01*
X150194562Y-65175438D01*
X150178910Y-65158168D01*
X150165026Y-65139448D01*
X150153044Y-65119457D01*
X150143079Y-65098387D01*
X150135227Y-65076443D01*
X150129563Y-65053834D01*
X150126144Y-65030779D01*
X150125000Y-65007500D01*
X150125000Y-64532500D01*
X150126144Y-64509221D01*
X150129563Y-64486166D01*
X150135227Y-64463557D01*
X150143079Y-64441613D01*
X150153044Y-64420543D01*
X150165026Y-64400552D01*
X150178910Y-64381832D01*
X150194562Y-64364562D01*
X150211832Y-64348910D01*
X150230552Y-64335026D01*
X150250543Y-64323044D01*
X150271613Y-64313079D01*
X150293557Y-64305227D01*
X150316166Y-64299563D01*
X150339221Y-64296144D01*
X150362500Y-64295000D01*
X150937500Y-64295000D01*
X150960779Y-64296144D01*
X150960779Y-64296144D01*
G37*
D15*
X150650000Y-64770000D03*
D14*
G36*
X142500779Y-64246144D02*
G01*
X142523834Y-64249563D01*
X142546443Y-64255227D01*
X142568387Y-64263079D01*
X142589457Y-64273044D01*
X142609448Y-64285026D01*
X142628168Y-64298910D01*
X142645438Y-64314562D01*
X142661090Y-64331832D01*
X142674974Y-64350552D01*
X142686956Y-64370543D01*
X142696921Y-64391613D01*
X142704773Y-64413557D01*
X142710437Y-64436166D01*
X142713856Y-64459221D01*
X142715000Y-64482500D01*
X142715000Y-65057500D01*
X142713856Y-65080779D01*
X142710437Y-65103834D01*
X142704773Y-65126443D01*
X142696921Y-65148387D01*
X142686956Y-65169457D01*
X142674974Y-65189448D01*
X142661090Y-65208168D01*
X142645438Y-65225438D01*
X142628168Y-65241090D01*
X142609448Y-65254974D01*
X142589457Y-65266956D01*
X142568387Y-65276921D01*
X142546443Y-65284773D01*
X142523834Y-65290437D01*
X142500779Y-65293856D01*
X142477500Y-65295000D01*
X142002500Y-65295000D01*
X141979221Y-65293856D01*
X141956166Y-65290437D01*
X141933557Y-65284773D01*
X141911613Y-65276921D01*
X141890543Y-65266956D01*
X141870552Y-65254974D01*
X141851832Y-65241090D01*
X141834562Y-65225438D01*
X141818910Y-65208168D01*
X141805026Y-65189448D01*
X141793044Y-65169457D01*
X141783079Y-65148387D01*
X141775227Y-65126443D01*
X141769563Y-65103834D01*
X141766144Y-65080779D01*
X141765000Y-65057500D01*
X141765000Y-64482500D01*
X141766144Y-64459221D01*
X141769563Y-64436166D01*
X141775227Y-64413557D01*
X141783079Y-64391613D01*
X141793044Y-64370543D01*
X141805026Y-64350552D01*
X141818910Y-64331832D01*
X141834562Y-64314562D01*
X141851832Y-64298910D01*
X141870552Y-64285026D01*
X141890543Y-64273044D01*
X141911613Y-64263079D01*
X141933557Y-64255227D01*
X141956166Y-64249563D01*
X141979221Y-64246144D01*
X142002500Y-64245000D01*
X142477500Y-64245000D01*
X142500779Y-64246144D01*
X142500779Y-64246144D01*
G37*
D15*
X142240000Y-64770000D03*
D14*
G36*
X142500779Y-62496144D02*
G01*
X142523834Y-62499563D01*
X142546443Y-62505227D01*
X142568387Y-62513079D01*
X142589457Y-62523044D01*
X142609448Y-62535026D01*
X142628168Y-62548910D01*
X142645438Y-62564562D01*
X142661090Y-62581832D01*
X142674974Y-62600552D01*
X142686956Y-62620543D01*
X142696921Y-62641613D01*
X142704773Y-62663557D01*
X142710437Y-62686166D01*
X142713856Y-62709221D01*
X142715000Y-62732500D01*
X142715000Y-63307500D01*
X142713856Y-63330779D01*
X142710437Y-63353834D01*
X142704773Y-63376443D01*
X142696921Y-63398387D01*
X142686956Y-63419457D01*
X142674974Y-63439448D01*
X142661090Y-63458168D01*
X142645438Y-63475438D01*
X142628168Y-63491090D01*
X142609448Y-63504974D01*
X142589457Y-63516956D01*
X142568387Y-63526921D01*
X142546443Y-63534773D01*
X142523834Y-63540437D01*
X142500779Y-63543856D01*
X142477500Y-63545000D01*
X142002500Y-63545000D01*
X141979221Y-63543856D01*
X141956166Y-63540437D01*
X141933557Y-63534773D01*
X141911613Y-63526921D01*
X141890543Y-63516956D01*
X141870552Y-63504974D01*
X141851832Y-63491090D01*
X141834562Y-63475438D01*
X141818910Y-63458168D01*
X141805026Y-63439448D01*
X141793044Y-63419457D01*
X141783079Y-63398387D01*
X141775227Y-63376443D01*
X141769563Y-63353834D01*
X141766144Y-63330779D01*
X141765000Y-63307500D01*
X141765000Y-62732500D01*
X141766144Y-62709221D01*
X141769563Y-62686166D01*
X141775227Y-62663557D01*
X141783079Y-62641613D01*
X141793044Y-62620543D01*
X141805026Y-62600552D01*
X141818910Y-62581832D01*
X141834562Y-62564562D01*
X141851832Y-62548910D01*
X141870552Y-62535026D01*
X141890543Y-62523044D01*
X141911613Y-62513079D01*
X141933557Y-62505227D01*
X141956166Y-62499563D01*
X141979221Y-62496144D01*
X142002500Y-62495000D01*
X142477500Y-62495000D01*
X142500779Y-62496144D01*
X142500779Y-62496144D01*
G37*
D15*
X142240000Y-63020000D03*
D14*
G36*
X141280779Y-59216144D02*
G01*
X141303834Y-59219563D01*
X141326443Y-59225227D01*
X141348387Y-59233079D01*
X141369457Y-59243044D01*
X141389448Y-59255026D01*
X141408168Y-59268910D01*
X141425438Y-59284562D01*
X141441090Y-59301832D01*
X141454974Y-59320552D01*
X141466956Y-59340543D01*
X141476921Y-59361613D01*
X141484773Y-59383557D01*
X141490437Y-59406166D01*
X141493856Y-59429221D01*
X141495000Y-59452500D01*
X141495000Y-59927500D01*
X141493856Y-59950779D01*
X141490437Y-59973834D01*
X141484773Y-59996443D01*
X141476921Y-60018387D01*
X141466956Y-60039457D01*
X141454974Y-60059448D01*
X141441090Y-60078168D01*
X141425438Y-60095438D01*
X141408168Y-60111090D01*
X141389448Y-60124974D01*
X141369457Y-60136956D01*
X141348387Y-60146921D01*
X141326443Y-60154773D01*
X141303834Y-60160437D01*
X141280779Y-60163856D01*
X141257500Y-60165000D01*
X140682500Y-60165000D01*
X140659221Y-60163856D01*
X140636166Y-60160437D01*
X140613557Y-60154773D01*
X140591613Y-60146921D01*
X140570543Y-60136956D01*
X140550552Y-60124974D01*
X140531832Y-60111090D01*
X140514562Y-60095438D01*
X140498910Y-60078168D01*
X140485026Y-60059448D01*
X140473044Y-60039457D01*
X140463079Y-60018387D01*
X140455227Y-59996443D01*
X140449563Y-59973834D01*
X140446144Y-59950779D01*
X140445000Y-59927500D01*
X140445000Y-59452500D01*
X140446144Y-59429221D01*
X140449563Y-59406166D01*
X140455227Y-59383557D01*
X140463079Y-59361613D01*
X140473044Y-59340543D01*
X140485026Y-59320552D01*
X140498910Y-59301832D01*
X140514562Y-59284562D01*
X140531832Y-59268910D01*
X140550552Y-59255026D01*
X140570543Y-59243044D01*
X140591613Y-59233079D01*
X140613557Y-59225227D01*
X140636166Y-59219563D01*
X140659221Y-59216144D01*
X140682500Y-59215000D01*
X141257500Y-59215000D01*
X141280779Y-59216144D01*
X141280779Y-59216144D01*
G37*
D15*
X140970000Y-59690000D03*
D14*
G36*
X143030779Y-59216144D02*
G01*
X143053834Y-59219563D01*
X143076443Y-59225227D01*
X143098387Y-59233079D01*
X143119457Y-59243044D01*
X143139448Y-59255026D01*
X143158168Y-59268910D01*
X143175438Y-59284562D01*
X143191090Y-59301832D01*
X143204974Y-59320552D01*
X143216956Y-59340543D01*
X143226921Y-59361613D01*
X143234773Y-59383557D01*
X143240437Y-59406166D01*
X143243856Y-59429221D01*
X143245000Y-59452500D01*
X143245000Y-59927500D01*
X143243856Y-59950779D01*
X143240437Y-59973834D01*
X143234773Y-59996443D01*
X143226921Y-60018387D01*
X143216956Y-60039457D01*
X143204974Y-60059448D01*
X143191090Y-60078168D01*
X143175438Y-60095438D01*
X143158168Y-60111090D01*
X143139448Y-60124974D01*
X143119457Y-60136956D01*
X143098387Y-60146921D01*
X143076443Y-60154773D01*
X143053834Y-60160437D01*
X143030779Y-60163856D01*
X143007500Y-60165000D01*
X142432500Y-60165000D01*
X142409221Y-60163856D01*
X142386166Y-60160437D01*
X142363557Y-60154773D01*
X142341613Y-60146921D01*
X142320543Y-60136956D01*
X142300552Y-60124974D01*
X142281832Y-60111090D01*
X142264562Y-60095438D01*
X142248910Y-60078168D01*
X142235026Y-60059448D01*
X142223044Y-60039457D01*
X142213079Y-60018387D01*
X142205227Y-59996443D01*
X142199563Y-59973834D01*
X142196144Y-59950779D01*
X142195000Y-59927500D01*
X142195000Y-59452500D01*
X142196144Y-59429221D01*
X142199563Y-59406166D01*
X142205227Y-59383557D01*
X142213079Y-59361613D01*
X142223044Y-59340543D01*
X142235026Y-59320552D01*
X142248910Y-59301832D01*
X142264562Y-59284562D01*
X142281832Y-59268910D01*
X142300552Y-59255026D01*
X142320543Y-59243044D01*
X142341613Y-59233079D01*
X142363557Y-59225227D01*
X142386166Y-59219563D01*
X142409221Y-59216144D01*
X142432500Y-59215000D01*
X143007500Y-59215000D01*
X143030779Y-59216144D01*
X143030779Y-59216144D01*
G37*
D15*
X142720000Y-59690000D03*
D14*
G36*
X147580779Y-64246144D02*
G01*
X147603834Y-64249563D01*
X147626443Y-64255227D01*
X147648387Y-64263079D01*
X147669457Y-64273044D01*
X147689448Y-64285026D01*
X147708168Y-64298910D01*
X147725438Y-64314562D01*
X147741090Y-64331832D01*
X147754974Y-64350552D01*
X147766956Y-64370543D01*
X147776921Y-64391613D01*
X147784773Y-64413557D01*
X147790437Y-64436166D01*
X147793856Y-64459221D01*
X147795000Y-64482500D01*
X147795000Y-65057500D01*
X147793856Y-65080779D01*
X147790437Y-65103834D01*
X147784773Y-65126443D01*
X147776921Y-65148387D01*
X147766956Y-65169457D01*
X147754974Y-65189448D01*
X147741090Y-65208168D01*
X147725438Y-65225438D01*
X147708168Y-65241090D01*
X147689448Y-65254974D01*
X147669457Y-65266956D01*
X147648387Y-65276921D01*
X147626443Y-65284773D01*
X147603834Y-65290437D01*
X147580779Y-65293856D01*
X147557500Y-65295000D01*
X147082500Y-65295000D01*
X147059221Y-65293856D01*
X147036166Y-65290437D01*
X147013557Y-65284773D01*
X146991613Y-65276921D01*
X146970543Y-65266956D01*
X146950552Y-65254974D01*
X146931832Y-65241090D01*
X146914562Y-65225438D01*
X146898910Y-65208168D01*
X146885026Y-65189448D01*
X146873044Y-65169457D01*
X146863079Y-65148387D01*
X146855227Y-65126443D01*
X146849563Y-65103834D01*
X146846144Y-65080779D01*
X146845000Y-65057500D01*
X146845000Y-64482500D01*
X146846144Y-64459221D01*
X146849563Y-64436166D01*
X146855227Y-64413557D01*
X146863079Y-64391613D01*
X146873044Y-64370543D01*
X146885026Y-64350552D01*
X146898910Y-64331832D01*
X146914562Y-64314562D01*
X146931832Y-64298910D01*
X146950552Y-64285026D01*
X146970543Y-64273044D01*
X146991613Y-64263079D01*
X147013557Y-64255227D01*
X147036166Y-64249563D01*
X147059221Y-64246144D01*
X147082500Y-64245000D01*
X147557500Y-64245000D01*
X147580779Y-64246144D01*
X147580779Y-64246144D01*
G37*
D15*
X147320000Y-64770000D03*
D14*
G36*
X147580779Y-62496144D02*
G01*
X147603834Y-62499563D01*
X147626443Y-62505227D01*
X147648387Y-62513079D01*
X147669457Y-62523044D01*
X147689448Y-62535026D01*
X147708168Y-62548910D01*
X147725438Y-62564562D01*
X147741090Y-62581832D01*
X147754974Y-62600552D01*
X147766956Y-62620543D01*
X147776921Y-62641613D01*
X147784773Y-62663557D01*
X147790437Y-62686166D01*
X147793856Y-62709221D01*
X147795000Y-62732500D01*
X147795000Y-63307500D01*
X147793856Y-63330779D01*
X147790437Y-63353834D01*
X147784773Y-63376443D01*
X147776921Y-63398387D01*
X147766956Y-63419457D01*
X147754974Y-63439448D01*
X147741090Y-63458168D01*
X147725438Y-63475438D01*
X147708168Y-63491090D01*
X147689448Y-63504974D01*
X147669457Y-63516956D01*
X147648387Y-63526921D01*
X147626443Y-63534773D01*
X147603834Y-63540437D01*
X147580779Y-63543856D01*
X147557500Y-63545000D01*
X147082500Y-63545000D01*
X147059221Y-63543856D01*
X147036166Y-63540437D01*
X147013557Y-63534773D01*
X146991613Y-63526921D01*
X146970543Y-63516956D01*
X146950552Y-63504974D01*
X146931832Y-63491090D01*
X146914562Y-63475438D01*
X146898910Y-63458168D01*
X146885026Y-63439448D01*
X146873044Y-63419457D01*
X146863079Y-63398387D01*
X146855227Y-63376443D01*
X146849563Y-63353834D01*
X146846144Y-63330779D01*
X146845000Y-63307500D01*
X146845000Y-62732500D01*
X146846144Y-62709221D01*
X146849563Y-62686166D01*
X146855227Y-62663557D01*
X146863079Y-62641613D01*
X146873044Y-62620543D01*
X146885026Y-62600552D01*
X146898910Y-62581832D01*
X146914562Y-62564562D01*
X146931832Y-62548910D01*
X146950552Y-62535026D01*
X146970543Y-62523044D01*
X146991613Y-62513079D01*
X147013557Y-62505227D01*
X147036166Y-62499563D01*
X147059221Y-62496144D01*
X147082500Y-62495000D01*
X147557500Y-62495000D01*
X147580779Y-62496144D01*
X147580779Y-62496144D01*
G37*
D15*
X147320000Y-63020000D03*
D16*
X148770000Y-74180000D03*
X150950000Y-74180000D03*
D17*
X148770000Y-76180000D03*
X150950000Y-76180000D03*
D18*
X151770000Y-77680000D03*
X150500000Y-77680000D03*
X149220000Y-77680000D03*
X147950000Y-77680000D03*
X147950000Y-72180000D03*
X149220000Y-72180000D03*
X150500000Y-72180000D03*
X151770000Y-72180000D03*
D19*
X161290000Y-67930000D03*
X161290000Y-74930000D03*
D20*
X185166000Y-63230000D03*
D21*
X182466000Y-62230000D03*
X182466000Y-61580000D03*
X182466000Y-60930000D03*
X182466000Y-63530000D03*
X182466000Y-62880000D03*
D20*
X185166000Y-61230000D03*
D14*
G36*
X80521379Y-58123944D02*
G01*
X80544434Y-58127363D01*
X80567043Y-58133027D01*
X80588987Y-58140879D01*
X80610057Y-58150844D01*
X80630048Y-58162826D01*
X80648768Y-58176710D01*
X80666038Y-58192362D01*
X80681690Y-58209632D01*
X80695574Y-58228352D01*
X80707556Y-58248343D01*
X80717521Y-58269413D01*
X80725373Y-58291357D01*
X80731037Y-58313966D01*
X80734456Y-58337021D01*
X80735600Y-58360300D01*
X80735600Y-58835300D01*
X80734456Y-58858579D01*
X80731037Y-58881634D01*
X80725373Y-58904243D01*
X80717521Y-58926187D01*
X80707556Y-58947257D01*
X80695574Y-58967248D01*
X80681690Y-58985968D01*
X80666038Y-59003238D01*
X80648768Y-59018890D01*
X80630048Y-59032774D01*
X80610057Y-59044756D01*
X80588987Y-59054721D01*
X80567043Y-59062573D01*
X80544434Y-59068237D01*
X80521379Y-59071656D01*
X80498100Y-59072800D01*
X79923100Y-59072800D01*
X79899821Y-59071656D01*
X79876766Y-59068237D01*
X79854157Y-59062573D01*
X79832213Y-59054721D01*
X79811143Y-59044756D01*
X79791152Y-59032774D01*
X79772432Y-59018890D01*
X79755162Y-59003238D01*
X79739510Y-58985968D01*
X79725626Y-58967248D01*
X79713644Y-58947257D01*
X79703679Y-58926187D01*
X79695827Y-58904243D01*
X79690163Y-58881634D01*
X79686744Y-58858579D01*
X79685600Y-58835300D01*
X79685600Y-58360300D01*
X79686744Y-58337021D01*
X79690163Y-58313966D01*
X79695827Y-58291357D01*
X79703679Y-58269413D01*
X79713644Y-58248343D01*
X79725626Y-58228352D01*
X79739510Y-58209632D01*
X79755162Y-58192362D01*
X79772432Y-58176710D01*
X79791152Y-58162826D01*
X79811143Y-58150844D01*
X79832213Y-58140879D01*
X79854157Y-58133027D01*
X79876766Y-58127363D01*
X79899821Y-58123944D01*
X79923100Y-58122800D01*
X80498100Y-58122800D01*
X80521379Y-58123944D01*
X80521379Y-58123944D01*
G37*
D15*
X80210600Y-58597800D03*
D14*
G36*
X78771379Y-58123944D02*
G01*
X78794434Y-58127363D01*
X78817043Y-58133027D01*
X78838987Y-58140879D01*
X78860057Y-58150844D01*
X78880048Y-58162826D01*
X78898768Y-58176710D01*
X78916038Y-58192362D01*
X78931690Y-58209632D01*
X78945574Y-58228352D01*
X78957556Y-58248343D01*
X78967521Y-58269413D01*
X78975373Y-58291357D01*
X78981037Y-58313966D01*
X78984456Y-58337021D01*
X78985600Y-58360300D01*
X78985600Y-58835300D01*
X78984456Y-58858579D01*
X78981037Y-58881634D01*
X78975373Y-58904243D01*
X78967521Y-58926187D01*
X78957556Y-58947257D01*
X78945574Y-58967248D01*
X78931690Y-58985968D01*
X78916038Y-59003238D01*
X78898768Y-59018890D01*
X78880048Y-59032774D01*
X78860057Y-59044756D01*
X78838987Y-59054721D01*
X78817043Y-59062573D01*
X78794434Y-59068237D01*
X78771379Y-59071656D01*
X78748100Y-59072800D01*
X78173100Y-59072800D01*
X78149821Y-59071656D01*
X78126766Y-59068237D01*
X78104157Y-59062573D01*
X78082213Y-59054721D01*
X78061143Y-59044756D01*
X78041152Y-59032774D01*
X78022432Y-59018890D01*
X78005162Y-59003238D01*
X77989510Y-58985968D01*
X77975626Y-58967248D01*
X77963644Y-58947257D01*
X77953679Y-58926187D01*
X77945827Y-58904243D01*
X77940163Y-58881634D01*
X77936744Y-58858579D01*
X77935600Y-58835300D01*
X77935600Y-58360300D01*
X77936744Y-58337021D01*
X77940163Y-58313966D01*
X77945827Y-58291357D01*
X77953679Y-58269413D01*
X77963644Y-58248343D01*
X77975626Y-58228352D01*
X77989510Y-58209632D01*
X78005162Y-58192362D01*
X78022432Y-58176710D01*
X78041152Y-58162826D01*
X78061143Y-58150844D01*
X78082213Y-58140879D01*
X78104157Y-58133027D01*
X78126766Y-58127363D01*
X78149821Y-58123944D01*
X78173100Y-58122800D01*
X78748100Y-58122800D01*
X78771379Y-58123944D01*
X78771379Y-58123944D01*
G37*
D15*
X78460600Y-58597800D03*
D14*
G36*
X80408379Y-55177544D02*
G01*
X80431434Y-55180963D01*
X80454043Y-55186627D01*
X80475987Y-55194479D01*
X80497057Y-55204444D01*
X80517048Y-55216426D01*
X80535768Y-55230310D01*
X80553038Y-55245962D01*
X80568690Y-55263232D01*
X80582574Y-55281952D01*
X80594556Y-55301943D01*
X80604521Y-55323013D01*
X80612373Y-55344957D01*
X80618037Y-55367566D01*
X80621456Y-55390621D01*
X80622600Y-55413900D01*
X80622600Y-55888900D01*
X80621456Y-55912179D01*
X80618037Y-55935234D01*
X80612373Y-55957843D01*
X80604521Y-55979787D01*
X80594556Y-56000857D01*
X80582574Y-56020848D01*
X80568690Y-56039568D01*
X80553038Y-56056838D01*
X80535768Y-56072490D01*
X80517048Y-56086374D01*
X80497057Y-56098356D01*
X80475987Y-56108321D01*
X80454043Y-56116173D01*
X80431434Y-56121837D01*
X80408379Y-56125256D01*
X80385100Y-56126400D01*
X79810100Y-56126400D01*
X79786821Y-56125256D01*
X79763766Y-56121837D01*
X79741157Y-56116173D01*
X79719213Y-56108321D01*
X79698143Y-56098356D01*
X79678152Y-56086374D01*
X79659432Y-56072490D01*
X79642162Y-56056838D01*
X79626510Y-56039568D01*
X79612626Y-56020848D01*
X79600644Y-56000857D01*
X79590679Y-55979787D01*
X79582827Y-55957843D01*
X79577163Y-55935234D01*
X79573744Y-55912179D01*
X79572600Y-55888900D01*
X79572600Y-55413900D01*
X79573744Y-55390621D01*
X79577163Y-55367566D01*
X79582827Y-55344957D01*
X79590679Y-55323013D01*
X79600644Y-55301943D01*
X79612626Y-55281952D01*
X79626510Y-55263232D01*
X79642162Y-55245962D01*
X79659432Y-55230310D01*
X79678152Y-55216426D01*
X79698143Y-55204444D01*
X79719213Y-55194479D01*
X79741157Y-55186627D01*
X79763766Y-55180963D01*
X79786821Y-55177544D01*
X79810100Y-55176400D01*
X80385100Y-55176400D01*
X80408379Y-55177544D01*
X80408379Y-55177544D01*
G37*
D15*
X80097600Y-55651400D03*
D14*
G36*
X78658379Y-55177544D02*
G01*
X78681434Y-55180963D01*
X78704043Y-55186627D01*
X78725987Y-55194479D01*
X78747057Y-55204444D01*
X78767048Y-55216426D01*
X78785768Y-55230310D01*
X78803038Y-55245962D01*
X78818690Y-55263232D01*
X78832574Y-55281952D01*
X78844556Y-55301943D01*
X78854521Y-55323013D01*
X78862373Y-55344957D01*
X78868037Y-55367566D01*
X78871456Y-55390621D01*
X78872600Y-55413900D01*
X78872600Y-55888900D01*
X78871456Y-55912179D01*
X78868037Y-55935234D01*
X78862373Y-55957843D01*
X78854521Y-55979787D01*
X78844556Y-56000857D01*
X78832574Y-56020848D01*
X78818690Y-56039568D01*
X78803038Y-56056838D01*
X78785768Y-56072490D01*
X78767048Y-56086374D01*
X78747057Y-56098356D01*
X78725987Y-56108321D01*
X78704043Y-56116173D01*
X78681434Y-56121837D01*
X78658379Y-56125256D01*
X78635100Y-56126400D01*
X78060100Y-56126400D01*
X78036821Y-56125256D01*
X78013766Y-56121837D01*
X77991157Y-56116173D01*
X77969213Y-56108321D01*
X77948143Y-56098356D01*
X77928152Y-56086374D01*
X77909432Y-56072490D01*
X77892162Y-56056838D01*
X77876510Y-56039568D01*
X77862626Y-56020848D01*
X77850644Y-56000857D01*
X77840679Y-55979787D01*
X77832827Y-55957843D01*
X77827163Y-55935234D01*
X77823744Y-55912179D01*
X77822600Y-55888900D01*
X77822600Y-55413900D01*
X77823744Y-55390621D01*
X77827163Y-55367566D01*
X77832827Y-55344957D01*
X77840679Y-55323013D01*
X77850644Y-55301943D01*
X77862626Y-55281952D01*
X77876510Y-55263232D01*
X77892162Y-55245962D01*
X77909432Y-55230310D01*
X77928152Y-55216426D01*
X77948143Y-55204444D01*
X77969213Y-55194479D01*
X77991157Y-55186627D01*
X78013766Y-55180963D01*
X78036821Y-55177544D01*
X78060100Y-55176400D01*
X78635100Y-55176400D01*
X78658379Y-55177544D01*
X78658379Y-55177544D01*
G37*
D15*
X78347600Y-55651400D03*
D14*
G36*
X80382979Y-52281944D02*
G01*
X80406034Y-52285363D01*
X80428643Y-52291027D01*
X80450587Y-52298879D01*
X80471657Y-52308844D01*
X80491648Y-52320826D01*
X80510368Y-52334710D01*
X80527638Y-52350362D01*
X80543290Y-52367632D01*
X80557174Y-52386352D01*
X80569156Y-52406343D01*
X80579121Y-52427413D01*
X80586973Y-52449357D01*
X80592637Y-52471966D01*
X80596056Y-52495021D01*
X80597200Y-52518300D01*
X80597200Y-52993300D01*
X80596056Y-53016579D01*
X80592637Y-53039634D01*
X80586973Y-53062243D01*
X80579121Y-53084187D01*
X80569156Y-53105257D01*
X80557174Y-53125248D01*
X80543290Y-53143968D01*
X80527638Y-53161238D01*
X80510368Y-53176890D01*
X80491648Y-53190774D01*
X80471657Y-53202756D01*
X80450587Y-53212721D01*
X80428643Y-53220573D01*
X80406034Y-53226237D01*
X80382979Y-53229656D01*
X80359700Y-53230800D01*
X79784700Y-53230800D01*
X79761421Y-53229656D01*
X79738366Y-53226237D01*
X79715757Y-53220573D01*
X79693813Y-53212721D01*
X79672743Y-53202756D01*
X79652752Y-53190774D01*
X79634032Y-53176890D01*
X79616762Y-53161238D01*
X79601110Y-53143968D01*
X79587226Y-53125248D01*
X79575244Y-53105257D01*
X79565279Y-53084187D01*
X79557427Y-53062243D01*
X79551763Y-53039634D01*
X79548344Y-53016579D01*
X79547200Y-52993300D01*
X79547200Y-52518300D01*
X79548344Y-52495021D01*
X79551763Y-52471966D01*
X79557427Y-52449357D01*
X79565279Y-52427413D01*
X79575244Y-52406343D01*
X79587226Y-52386352D01*
X79601110Y-52367632D01*
X79616762Y-52350362D01*
X79634032Y-52334710D01*
X79652752Y-52320826D01*
X79672743Y-52308844D01*
X79693813Y-52298879D01*
X79715757Y-52291027D01*
X79738366Y-52285363D01*
X79761421Y-52281944D01*
X79784700Y-52280800D01*
X80359700Y-52280800D01*
X80382979Y-52281944D01*
X80382979Y-52281944D01*
G37*
D15*
X80072200Y-52755800D03*
D14*
G36*
X78632979Y-52281944D02*
G01*
X78656034Y-52285363D01*
X78678643Y-52291027D01*
X78700587Y-52298879D01*
X78721657Y-52308844D01*
X78741648Y-52320826D01*
X78760368Y-52334710D01*
X78777638Y-52350362D01*
X78793290Y-52367632D01*
X78807174Y-52386352D01*
X78819156Y-52406343D01*
X78829121Y-52427413D01*
X78836973Y-52449357D01*
X78842637Y-52471966D01*
X78846056Y-52495021D01*
X78847200Y-52518300D01*
X78847200Y-52993300D01*
X78846056Y-53016579D01*
X78842637Y-53039634D01*
X78836973Y-53062243D01*
X78829121Y-53084187D01*
X78819156Y-53105257D01*
X78807174Y-53125248D01*
X78793290Y-53143968D01*
X78777638Y-53161238D01*
X78760368Y-53176890D01*
X78741648Y-53190774D01*
X78721657Y-53202756D01*
X78700587Y-53212721D01*
X78678643Y-53220573D01*
X78656034Y-53226237D01*
X78632979Y-53229656D01*
X78609700Y-53230800D01*
X78034700Y-53230800D01*
X78011421Y-53229656D01*
X77988366Y-53226237D01*
X77965757Y-53220573D01*
X77943813Y-53212721D01*
X77922743Y-53202756D01*
X77902752Y-53190774D01*
X77884032Y-53176890D01*
X77866762Y-53161238D01*
X77851110Y-53143968D01*
X77837226Y-53125248D01*
X77825244Y-53105257D01*
X77815279Y-53084187D01*
X77807427Y-53062243D01*
X77801763Y-53039634D01*
X77798344Y-53016579D01*
X77797200Y-52993300D01*
X77797200Y-52518300D01*
X77798344Y-52495021D01*
X77801763Y-52471966D01*
X77807427Y-52449357D01*
X77815279Y-52427413D01*
X77825244Y-52406343D01*
X77837226Y-52386352D01*
X77851110Y-52367632D01*
X77866762Y-52350362D01*
X77884032Y-52334710D01*
X77902752Y-52320826D01*
X77922743Y-52308844D01*
X77943813Y-52298879D01*
X77965757Y-52291027D01*
X77988366Y-52285363D01*
X78011421Y-52281944D01*
X78034700Y-52280800D01*
X78609700Y-52280800D01*
X78632979Y-52281944D01*
X78632979Y-52281944D01*
G37*
D15*
X78322200Y-52755800D03*
D14*
G36*
X66449779Y-55660144D02*
G01*
X66472834Y-55663563D01*
X66495443Y-55669227D01*
X66517387Y-55677079D01*
X66538457Y-55687044D01*
X66558448Y-55699026D01*
X66577168Y-55712910D01*
X66594438Y-55728562D01*
X66610090Y-55745832D01*
X66623974Y-55764552D01*
X66635956Y-55784543D01*
X66645921Y-55805613D01*
X66653773Y-55827557D01*
X66659437Y-55850166D01*
X66662856Y-55873221D01*
X66664000Y-55896500D01*
X66664000Y-56371500D01*
X66662856Y-56394779D01*
X66659437Y-56417834D01*
X66653773Y-56440443D01*
X66645921Y-56462387D01*
X66635956Y-56483457D01*
X66623974Y-56503448D01*
X66610090Y-56522168D01*
X66594438Y-56539438D01*
X66577168Y-56555090D01*
X66558448Y-56568974D01*
X66538457Y-56580956D01*
X66517387Y-56590921D01*
X66495443Y-56598773D01*
X66472834Y-56604437D01*
X66449779Y-56607856D01*
X66426500Y-56609000D01*
X65851500Y-56609000D01*
X65828221Y-56607856D01*
X65805166Y-56604437D01*
X65782557Y-56598773D01*
X65760613Y-56590921D01*
X65739543Y-56580956D01*
X65719552Y-56568974D01*
X65700832Y-56555090D01*
X65683562Y-56539438D01*
X65667910Y-56522168D01*
X65654026Y-56503448D01*
X65642044Y-56483457D01*
X65632079Y-56462387D01*
X65624227Y-56440443D01*
X65618563Y-56417834D01*
X65615144Y-56394779D01*
X65614000Y-56371500D01*
X65614000Y-55896500D01*
X65615144Y-55873221D01*
X65618563Y-55850166D01*
X65624227Y-55827557D01*
X65632079Y-55805613D01*
X65642044Y-55784543D01*
X65654026Y-55764552D01*
X65667910Y-55745832D01*
X65683562Y-55728562D01*
X65700832Y-55712910D01*
X65719552Y-55699026D01*
X65739543Y-55687044D01*
X65760613Y-55677079D01*
X65782557Y-55669227D01*
X65805166Y-55663563D01*
X65828221Y-55660144D01*
X65851500Y-55659000D01*
X66426500Y-55659000D01*
X66449779Y-55660144D01*
X66449779Y-55660144D01*
G37*
D15*
X66139000Y-56134000D03*
D14*
G36*
X64699779Y-55660144D02*
G01*
X64722834Y-55663563D01*
X64745443Y-55669227D01*
X64767387Y-55677079D01*
X64788457Y-55687044D01*
X64808448Y-55699026D01*
X64827168Y-55712910D01*
X64844438Y-55728562D01*
X64860090Y-55745832D01*
X64873974Y-55764552D01*
X64885956Y-55784543D01*
X64895921Y-55805613D01*
X64903773Y-55827557D01*
X64909437Y-55850166D01*
X64912856Y-55873221D01*
X64914000Y-55896500D01*
X64914000Y-56371500D01*
X64912856Y-56394779D01*
X64909437Y-56417834D01*
X64903773Y-56440443D01*
X64895921Y-56462387D01*
X64885956Y-56483457D01*
X64873974Y-56503448D01*
X64860090Y-56522168D01*
X64844438Y-56539438D01*
X64827168Y-56555090D01*
X64808448Y-56568974D01*
X64788457Y-56580956D01*
X64767387Y-56590921D01*
X64745443Y-56598773D01*
X64722834Y-56604437D01*
X64699779Y-56607856D01*
X64676500Y-56609000D01*
X64101500Y-56609000D01*
X64078221Y-56607856D01*
X64055166Y-56604437D01*
X64032557Y-56598773D01*
X64010613Y-56590921D01*
X63989543Y-56580956D01*
X63969552Y-56568974D01*
X63950832Y-56555090D01*
X63933562Y-56539438D01*
X63917910Y-56522168D01*
X63904026Y-56503448D01*
X63892044Y-56483457D01*
X63882079Y-56462387D01*
X63874227Y-56440443D01*
X63868563Y-56417834D01*
X63865144Y-56394779D01*
X63864000Y-56371500D01*
X63864000Y-55896500D01*
X63865144Y-55873221D01*
X63868563Y-55850166D01*
X63874227Y-55827557D01*
X63882079Y-55805613D01*
X63892044Y-55784543D01*
X63904026Y-55764552D01*
X63917910Y-55745832D01*
X63933562Y-55728562D01*
X63950832Y-55712910D01*
X63969552Y-55699026D01*
X63989543Y-55687044D01*
X64010613Y-55677079D01*
X64032557Y-55669227D01*
X64055166Y-55663563D01*
X64078221Y-55660144D01*
X64101500Y-55659000D01*
X64676500Y-55659000D01*
X64699779Y-55660144D01*
X64699779Y-55660144D01*
G37*
D15*
X64389000Y-56134000D03*
D14*
G36*
X96751979Y-64397744D02*
G01*
X96775034Y-64401163D01*
X96797643Y-64406827D01*
X96819587Y-64414679D01*
X96840657Y-64424644D01*
X96860648Y-64436626D01*
X96879368Y-64450510D01*
X96896638Y-64466162D01*
X96912290Y-64483432D01*
X96926174Y-64502152D01*
X96938156Y-64522143D01*
X96948121Y-64543213D01*
X96955973Y-64565157D01*
X96961637Y-64587766D01*
X96965056Y-64610821D01*
X96966200Y-64634100D01*
X96966200Y-65109100D01*
X96965056Y-65132379D01*
X96961637Y-65155434D01*
X96955973Y-65178043D01*
X96948121Y-65199987D01*
X96938156Y-65221057D01*
X96926174Y-65241048D01*
X96912290Y-65259768D01*
X96896638Y-65277038D01*
X96879368Y-65292690D01*
X96860648Y-65306574D01*
X96840657Y-65318556D01*
X96819587Y-65328521D01*
X96797643Y-65336373D01*
X96775034Y-65342037D01*
X96751979Y-65345456D01*
X96728700Y-65346600D01*
X96153700Y-65346600D01*
X96130421Y-65345456D01*
X96107366Y-65342037D01*
X96084757Y-65336373D01*
X96062813Y-65328521D01*
X96041743Y-65318556D01*
X96021752Y-65306574D01*
X96003032Y-65292690D01*
X95985762Y-65277038D01*
X95970110Y-65259768D01*
X95956226Y-65241048D01*
X95944244Y-65221057D01*
X95934279Y-65199987D01*
X95926427Y-65178043D01*
X95920763Y-65155434D01*
X95917344Y-65132379D01*
X95916200Y-65109100D01*
X95916200Y-64634100D01*
X95917344Y-64610821D01*
X95920763Y-64587766D01*
X95926427Y-64565157D01*
X95934279Y-64543213D01*
X95944244Y-64522143D01*
X95956226Y-64502152D01*
X95970110Y-64483432D01*
X95985762Y-64466162D01*
X96003032Y-64450510D01*
X96021752Y-64436626D01*
X96041743Y-64424644D01*
X96062813Y-64414679D01*
X96084757Y-64406827D01*
X96107366Y-64401163D01*
X96130421Y-64397744D01*
X96153700Y-64396600D01*
X96728700Y-64396600D01*
X96751979Y-64397744D01*
X96751979Y-64397744D01*
G37*
D15*
X96441200Y-64871600D03*
D14*
G36*
X95001979Y-64397744D02*
G01*
X95025034Y-64401163D01*
X95047643Y-64406827D01*
X95069587Y-64414679D01*
X95090657Y-64424644D01*
X95110648Y-64436626D01*
X95129368Y-64450510D01*
X95146638Y-64466162D01*
X95162290Y-64483432D01*
X95176174Y-64502152D01*
X95188156Y-64522143D01*
X95198121Y-64543213D01*
X95205973Y-64565157D01*
X95211637Y-64587766D01*
X95215056Y-64610821D01*
X95216200Y-64634100D01*
X95216200Y-65109100D01*
X95215056Y-65132379D01*
X95211637Y-65155434D01*
X95205973Y-65178043D01*
X95198121Y-65199987D01*
X95188156Y-65221057D01*
X95176174Y-65241048D01*
X95162290Y-65259768D01*
X95146638Y-65277038D01*
X95129368Y-65292690D01*
X95110648Y-65306574D01*
X95090657Y-65318556D01*
X95069587Y-65328521D01*
X95047643Y-65336373D01*
X95025034Y-65342037D01*
X95001979Y-65345456D01*
X94978700Y-65346600D01*
X94403700Y-65346600D01*
X94380421Y-65345456D01*
X94357366Y-65342037D01*
X94334757Y-65336373D01*
X94312813Y-65328521D01*
X94291743Y-65318556D01*
X94271752Y-65306574D01*
X94253032Y-65292690D01*
X94235762Y-65277038D01*
X94220110Y-65259768D01*
X94206226Y-65241048D01*
X94194244Y-65221057D01*
X94184279Y-65199987D01*
X94176427Y-65178043D01*
X94170763Y-65155434D01*
X94167344Y-65132379D01*
X94166200Y-65109100D01*
X94166200Y-64634100D01*
X94167344Y-64610821D01*
X94170763Y-64587766D01*
X94176427Y-64565157D01*
X94184279Y-64543213D01*
X94194244Y-64522143D01*
X94206226Y-64502152D01*
X94220110Y-64483432D01*
X94235762Y-64466162D01*
X94253032Y-64450510D01*
X94271752Y-64436626D01*
X94291743Y-64424644D01*
X94312813Y-64414679D01*
X94334757Y-64406827D01*
X94357366Y-64401163D01*
X94380421Y-64397744D01*
X94403700Y-64396600D01*
X94978700Y-64396600D01*
X95001979Y-64397744D01*
X95001979Y-64397744D01*
G37*
D15*
X94691200Y-64871600D03*
D14*
G36*
X96523379Y-61324344D02*
G01*
X96546434Y-61327763D01*
X96569043Y-61333427D01*
X96590987Y-61341279D01*
X96612057Y-61351244D01*
X96632048Y-61363226D01*
X96650768Y-61377110D01*
X96668038Y-61392762D01*
X96683690Y-61410032D01*
X96697574Y-61428752D01*
X96709556Y-61448743D01*
X96719521Y-61469813D01*
X96727373Y-61491757D01*
X96733037Y-61514366D01*
X96736456Y-61537421D01*
X96737600Y-61560700D01*
X96737600Y-62035700D01*
X96736456Y-62058979D01*
X96733037Y-62082034D01*
X96727373Y-62104643D01*
X96719521Y-62126587D01*
X96709556Y-62147657D01*
X96697574Y-62167648D01*
X96683690Y-62186368D01*
X96668038Y-62203638D01*
X96650768Y-62219290D01*
X96632048Y-62233174D01*
X96612057Y-62245156D01*
X96590987Y-62255121D01*
X96569043Y-62262973D01*
X96546434Y-62268637D01*
X96523379Y-62272056D01*
X96500100Y-62273200D01*
X95925100Y-62273200D01*
X95901821Y-62272056D01*
X95878766Y-62268637D01*
X95856157Y-62262973D01*
X95834213Y-62255121D01*
X95813143Y-62245156D01*
X95793152Y-62233174D01*
X95774432Y-62219290D01*
X95757162Y-62203638D01*
X95741510Y-62186368D01*
X95727626Y-62167648D01*
X95715644Y-62147657D01*
X95705679Y-62126587D01*
X95697827Y-62104643D01*
X95692163Y-62082034D01*
X95688744Y-62058979D01*
X95687600Y-62035700D01*
X95687600Y-61560700D01*
X95688744Y-61537421D01*
X95692163Y-61514366D01*
X95697827Y-61491757D01*
X95705679Y-61469813D01*
X95715644Y-61448743D01*
X95727626Y-61428752D01*
X95741510Y-61410032D01*
X95757162Y-61392762D01*
X95774432Y-61377110D01*
X95793152Y-61363226D01*
X95813143Y-61351244D01*
X95834213Y-61341279D01*
X95856157Y-61333427D01*
X95878766Y-61327763D01*
X95901821Y-61324344D01*
X95925100Y-61323200D01*
X96500100Y-61323200D01*
X96523379Y-61324344D01*
X96523379Y-61324344D01*
G37*
D15*
X96212600Y-61798200D03*
D14*
G36*
X94773379Y-61324344D02*
G01*
X94796434Y-61327763D01*
X94819043Y-61333427D01*
X94840987Y-61341279D01*
X94862057Y-61351244D01*
X94882048Y-61363226D01*
X94900768Y-61377110D01*
X94918038Y-61392762D01*
X94933690Y-61410032D01*
X94947574Y-61428752D01*
X94959556Y-61448743D01*
X94969521Y-61469813D01*
X94977373Y-61491757D01*
X94983037Y-61514366D01*
X94986456Y-61537421D01*
X94987600Y-61560700D01*
X94987600Y-62035700D01*
X94986456Y-62058979D01*
X94983037Y-62082034D01*
X94977373Y-62104643D01*
X94969521Y-62126587D01*
X94959556Y-62147657D01*
X94947574Y-62167648D01*
X94933690Y-62186368D01*
X94918038Y-62203638D01*
X94900768Y-62219290D01*
X94882048Y-62233174D01*
X94862057Y-62245156D01*
X94840987Y-62255121D01*
X94819043Y-62262973D01*
X94796434Y-62268637D01*
X94773379Y-62272056D01*
X94750100Y-62273200D01*
X94175100Y-62273200D01*
X94151821Y-62272056D01*
X94128766Y-62268637D01*
X94106157Y-62262973D01*
X94084213Y-62255121D01*
X94063143Y-62245156D01*
X94043152Y-62233174D01*
X94024432Y-62219290D01*
X94007162Y-62203638D01*
X93991510Y-62186368D01*
X93977626Y-62167648D01*
X93965644Y-62147657D01*
X93955679Y-62126587D01*
X93947827Y-62104643D01*
X93942163Y-62082034D01*
X93938744Y-62058979D01*
X93937600Y-62035700D01*
X93937600Y-61560700D01*
X93938744Y-61537421D01*
X93942163Y-61514366D01*
X93947827Y-61491757D01*
X93955679Y-61469813D01*
X93965644Y-61448743D01*
X93977626Y-61428752D01*
X93991510Y-61410032D01*
X94007162Y-61392762D01*
X94024432Y-61377110D01*
X94043152Y-61363226D01*
X94063143Y-61351244D01*
X94084213Y-61341279D01*
X94106157Y-61333427D01*
X94128766Y-61327763D01*
X94151821Y-61324344D01*
X94175100Y-61323200D01*
X94750100Y-61323200D01*
X94773379Y-61324344D01*
X94773379Y-61324344D01*
G37*
D15*
X94462600Y-61798200D03*
D14*
G36*
X96472579Y-58301744D02*
G01*
X96495634Y-58305163D01*
X96518243Y-58310827D01*
X96540187Y-58318679D01*
X96561257Y-58328644D01*
X96581248Y-58340626D01*
X96599968Y-58354510D01*
X96617238Y-58370162D01*
X96632890Y-58387432D01*
X96646774Y-58406152D01*
X96658756Y-58426143D01*
X96668721Y-58447213D01*
X96676573Y-58469157D01*
X96682237Y-58491766D01*
X96685656Y-58514821D01*
X96686800Y-58538100D01*
X96686800Y-59013100D01*
X96685656Y-59036379D01*
X96682237Y-59059434D01*
X96676573Y-59082043D01*
X96668721Y-59103987D01*
X96658756Y-59125057D01*
X96646774Y-59145048D01*
X96632890Y-59163768D01*
X96617238Y-59181038D01*
X96599968Y-59196690D01*
X96581248Y-59210574D01*
X96561257Y-59222556D01*
X96540187Y-59232521D01*
X96518243Y-59240373D01*
X96495634Y-59246037D01*
X96472579Y-59249456D01*
X96449300Y-59250600D01*
X95874300Y-59250600D01*
X95851021Y-59249456D01*
X95827966Y-59246037D01*
X95805357Y-59240373D01*
X95783413Y-59232521D01*
X95762343Y-59222556D01*
X95742352Y-59210574D01*
X95723632Y-59196690D01*
X95706362Y-59181038D01*
X95690710Y-59163768D01*
X95676826Y-59145048D01*
X95664844Y-59125057D01*
X95654879Y-59103987D01*
X95647027Y-59082043D01*
X95641363Y-59059434D01*
X95637944Y-59036379D01*
X95636800Y-59013100D01*
X95636800Y-58538100D01*
X95637944Y-58514821D01*
X95641363Y-58491766D01*
X95647027Y-58469157D01*
X95654879Y-58447213D01*
X95664844Y-58426143D01*
X95676826Y-58406152D01*
X95690710Y-58387432D01*
X95706362Y-58370162D01*
X95723632Y-58354510D01*
X95742352Y-58340626D01*
X95762343Y-58328644D01*
X95783413Y-58318679D01*
X95805357Y-58310827D01*
X95827966Y-58305163D01*
X95851021Y-58301744D01*
X95874300Y-58300600D01*
X96449300Y-58300600D01*
X96472579Y-58301744D01*
X96472579Y-58301744D01*
G37*
D15*
X96161800Y-58775600D03*
D14*
G36*
X94722579Y-58301744D02*
G01*
X94745634Y-58305163D01*
X94768243Y-58310827D01*
X94790187Y-58318679D01*
X94811257Y-58328644D01*
X94831248Y-58340626D01*
X94849968Y-58354510D01*
X94867238Y-58370162D01*
X94882890Y-58387432D01*
X94896774Y-58406152D01*
X94908756Y-58426143D01*
X94918721Y-58447213D01*
X94926573Y-58469157D01*
X94932237Y-58491766D01*
X94935656Y-58514821D01*
X94936800Y-58538100D01*
X94936800Y-59013100D01*
X94935656Y-59036379D01*
X94932237Y-59059434D01*
X94926573Y-59082043D01*
X94918721Y-59103987D01*
X94908756Y-59125057D01*
X94896774Y-59145048D01*
X94882890Y-59163768D01*
X94867238Y-59181038D01*
X94849968Y-59196690D01*
X94831248Y-59210574D01*
X94811257Y-59222556D01*
X94790187Y-59232521D01*
X94768243Y-59240373D01*
X94745634Y-59246037D01*
X94722579Y-59249456D01*
X94699300Y-59250600D01*
X94124300Y-59250600D01*
X94101021Y-59249456D01*
X94077966Y-59246037D01*
X94055357Y-59240373D01*
X94033413Y-59232521D01*
X94012343Y-59222556D01*
X93992352Y-59210574D01*
X93973632Y-59196690D01*
X93956362Y-59181038D01*
X93940710Y-59163768D01*
X93926826Y-59145048D01*
X93914844Y-59125057D01*
X93904879Y-59103987D01*
X93897027Y-59082043D01*
X93891363Y-59059434D01*
X93887944Y-59036379D01*
X93886800Y-59013100D01*
X93886800Y-58538100D01*
X93887944Y-58514821D01*
X93891363Y-58491766D01*
X93897027Y-58469157D01*
X93904879Y-58447213D01*
X93914844Y-58426143D01*
X93926826Y-58406152D01*
X93940710Y-58387432D01*
X93956362Y-58370162D01*
X93973632Y-58354510D01*
X93992352Y-58340626D01*
X94012343Y-58328644D01*
X94033413Y-58318679D01*
X94055357Y-58310827D01*
X94077966Y-58305163D01*
X94101021Y-58301744D01*
X94124300Y-58300600D01*
X94699300Y-58300600D01*
X94722579Y-58301744D01*
X94722579Y-58301744D01*
G37*
D15*
X94411800Y-58775600D03*
D14*
G36*
X80826179Y-70239744D02*
G01*
X80849234Y-70243163D01*
X80871843Y-70248827D01*
X80893787Y-70256679D01*
X80914857Y-70266644D01*
X80934848Y-70278626D01*
X80953568Y-70292510D01*
X80970838Y-70308162D01*
X80986490Y-70325432D01*
X81000374Y-70344152D01*
X81012356Y-70364143D01*
X81022321Y-70385213D01*
X81030173Y-70407157D01*
X81035837Y-70429766D01*
X81039256Y-70452821D01*
X81040400Y-70476100D01*
X81040400Y-70951100D01*
X81039256Y-70974379D01*
X81035837Y-70997434D01*
X81030173Y-71020043D01*
X81022321Y-71041987D01*
X81012356Y-71063057D01*
X81000374Y-71083048D01*
X80986490Y-71101768D01*
X80970838Y-71119038D01*
X80953568Y-71134690D01*
X80934848Y-71148574D01*
X80914857Y-71160556D01*
X80893787Y-71170521D01*
X80871843Y-71178373D01*
X80849234Y-71184037D01*
X80826179Y-71187456D01*
X80802900Y-71188600D01*
X80227900Y-71188600D01*
X80204621Y-71187456D01*
X80181566Y-71184037D01*
X80158957Y-71178373D01*
X80137013Y-71170521D01*
X80115943Y-71160556D01*
X80095952Y-71148574D01*
X80077232Y-71134690D01*
X80059962Y-71119038D01*
X80044310Y-71101768D01*
X80030426Y-71083048D01*
X80018444Y-71063057D01*
X80008479Y-71041987D01*
X80000627Y-71020043D01*
X79994963Y-70997434D01*
X79991544Y-70974379D01*
X79990400Y-70951100D01*
X79990400Y-70476100D01*
X79991544Y-70452821D01*
X79994963Y-70429766D01*
X80000627Y-70407157D01*
X80008479Y-70385213D01*
X80018444Y-70364143D01*
X80030426Y-70344152D01*
X80044310Y-70325432D01*
X80059962Y-70308162D01*
X80077232Y-70292510D01*
X80095952Y-70278626D01*
X80115943Y-70266644D01*
X80137013Y-70256679D01*
X80158957Y-70248827D01*
X80181566Y-70243163D01*
X80204621Y-70239744D01*
X80227900Y-70238600D01*
X80802900Y-70238600D01*
X80826179Y-70239744D01*
X80826179Y-70239744D01*
G37*
D15*
X80515400Y-70713600D03*
D14*
G36*
X79076179Y-70239744D02*
G01*
X79099234Y-70243163D01*
X79121843Y-70248827D01*
X79143787Y-70256679D01*
X79164857Y-70266644D01*
X79184848Y-70278626D01*
X79203568Y-70292510D01*
X79220838Y-70308162D01*
X79236490Y-70325432D01*
X79250374Y-70344152D01*
X79262356Y-70364143D01*
X79272321Y-70385213D01*
X79280173Y-70407157D01*
X79285837Y-70429766D01*
X79289256Y-70452821D01*
X79290400Y-70476100D01*
X79290400Y-70951100D01*
X79289256Y-70974379D01*
X79285837Y-70997434D01*
X79280173Y-71020043D01*
X79272321Y-71041987D01*
X79262356Y-71063057D01*
X79250374Y-71083048D01*
X79236490Y-71101768D01*
X79220838Y-71119038D01*
X79203568Y-71134690D01*
X79184848Y-71148574D01*
X79164857Y-71160556D01*
X79143787Y-71170521D01*
X79121843Y-71178373D01*
X79099234Y-71184037D01*
X79076179Y-71187456D01*
X79052900Y-71188600D01*
X78477900Y-71188600D01*
X78454621Y-71187456D01*
X78431566Y-71184037D01*
X78408957Y-71178373D01*
X78387013Y-71170521D01*
X78365943Y-71160556D01*
X78345952Y-71148574D01*
X78327232Y-71134690D01*
X78309962Y-71119038D01*
X78294310Y-71101768D01*
X78280426Y-71083048D01*
X78268444Y-71063057D01*
X78258479Y-71041987D01*
X78250627Y-71020043D01*
X78244963Y-70997434D01*
X78241544Y-70974379D01*
X78240400Y-70951100D01*
X78240400Y-70476100D01*
X78241544Y-70452821D01*
X78244963Y-70429766D01*
X78250627Y-70407157D01*
X78258479Y-70385213D01*
X78268444Y-70364143D01*
X78280426Y-70344152D01*
X78294310Y-70325432D01*
X78309962Y-70308162D01*
X78327232Y-70292510D01*
X78345952Y-70278626D01*
X78365943Y-70266644D01*
X78387013Y-70256679D01*
X78408957Y-70248827D01*
X78431566Y-70243163D01*
X78454621Y-70239744D01*
X78477900Y-70238600D01*
X79052900Y-70238600D01*
X79076179Y-70239744D01*
X79076179Y-70239744D01*
G37*
D15*
X78765400Y-70713600D03*
D14*
G36*
X80800779Y-67293344D02*
G01*
X80823834Y-67296763D01*
X80846443Y-67302427D01*
X80868387Y-67310279D01*
X80889457Y-67320244D01*
X80909448Y-67332226D01*
X80928168Y-67346110D01*
X80945438Y-67361762D01*
X80961090Y-67379032D01*
X80974974Y-67397752D01*
X80986956Y-67417743D01*
X80996921Y-67438813D01*
X81004773Y-67460757D01*
X81010437Y-67483366D01*
X81013856Y-67506421D01*
X81015000Y-67529700D01*
X81015000Y-68004700D01*
X81013856Y-68027979D01*
X81010437Y-68051034D01*
X81004773Y-68073643D01*
X80996921Y-68095587D01*
X80986956Y-68116657D01*
X80974974Y-68136648D01*
X80961090Y-68155368D01*
X80945438Y-68172638D01*
X80928168Y-68188290D01*
X80909448Y-68202174D01*
X80889457Y-68214156D01*
X80868387Y-68224121D01*
X80846443Y-68231973D01*
X80823834Y-68237637D01*
X80800779Y-68241056D01*
X80777500Y-68242200D01*
X80202500Y-68242200D01*
X80179221Y-68241056D01*
X80156166Y-68237637D01*
X80133557Y-68231973D01*
X80111613Y-68224121D01*
X80090543Y-68214156D01*
X80070552Y-68202174D01*
X80051832Y-68188290D01*
X80034562Y-68172638D01*
X80018910Y-68155368D01*
X80005026Y-68136648D01*
X79993044Y-68116657D01*
X79983079Y-68095587D01*
X79975227Y-68073643D01*
X79969563Y-68051034D01*
X79966144Y-68027979D01*
X79965000Y-68004700D01*
X79965000Y-67529700D01*
X79966144Y-67506421D01*
X79969563Y-67483366D01*
X79975227Y-67460757D01*
X79983079Y-67438813D01*
X79993044Y-67417743D01*
X80005026Y-67397752D01*
X80018910Y-67379032D01*
X80034562Y-67361762D01*
X80051832Y-67346110D01*
X80070552Y-67332226D01*
X80090543Y-67320244D01*
X80111613Y-67310279D01*
X80133557Y-67302427D01*
X80156166Y-67296763D01*
X80179221Y-67293344D01*
X80202500Y-67292200D01*
X80777500Y-67292200D01*
X80800779Y-67293344D01*
X80800779Y-67293344D01*
G37*
D15*
X80490000Y-67767200D03*
D14*
G36*
X79050779Y-67293344D02*
G01*
X79073834Y-67296763D01*
X79096443Y-67302427D01*
X79118387Y-67310279D01*
X79139457Y-67320244D01*
X79159448Y-67332226D01*
X79178168Y-67346110D01*
X79195438Y-67361762D01*
X79211090Y-67379032D01*
X79224974Y-67397752D01*
X79236956Y-67417743D01*
X79246921Y-67438813D01*
X79254773Y-67460757D01*
X79260437Y-67483366D01*
X79263856Y-67506421D01*
X79265000Y-67529700D01*
X79265000Y-68004700D01*
X79263856Y-68027979D01*
X79260437Y-68051034D01*
X79254773Y-68073643D01*
X79246921Y-68095587D01*
X79236956Y-68116657D01*
X79224974Y-68136648D01*
X79211090Y-68155368D01*
X79195438Y-68172638D01*
X79178168Y-68188290D01*
X79159448Y-68202174D01*
X79139457Y-68214156D01*
X79118387Y-68224121D01*
X79096443Y-68231973D01*
X79073834Y-68237637D01*
X79050779Y-68241056D01*
X79027500Y-68242200D01*
X78452500Y-68242200D01*
X78429221Y-68241056D01*
X78406166Y-68237637D01*
X78383557Y-68231973D01*
X78361613Y-68224121D01*
X78340543Y-68214156D01*
X78320552Y-68202174D01*
X78301832Y-68188290D01*
X78284562Y-68172638D01*
X78268910Y-68155368D01*
X78255026Y-68136648D01*
X78243044Y-68116657D01*
X78233079Y-68095587D01*
X78225227Y-68073643D01*
X78219563Y-68051034D01*
X78216144Y-68027979D01*
X78215000Y-68004700D01*
X78215000Y-67529700D01*
X78216144Y-67506421D01*
X78219563Y-67483366D01*
X78225227Y-67460757D01*
X78233079Y-67438813D01*
X78243044Y-67417743D01*
X78255026Y-67397752D01*
X78268910Y-67379032D01*
X78284562Y-67361762D01*
X78301832Y-67346110D01*
X78320552Y-67332226D01*
X78340543Y-67320244D01*
X78361613Y-67310279D01*
X78383557Y-67302427D01*
X78406166Y-67296763D01*
X78429221Y-67293344D01*
X78452500Y-67292200D01*
X79027500Y-67292200D01*
X79050779Y-67293344D01*
X79050779Y-67293344D01*
G37*
D15*
X78740000Y-67767200D03*
D14*
G36*
X80724579Y-64270744D02*
G01*
X80747634Y-64274163D01*
X80770243Y-64279827D01*
X80792187Y-64287679D01*
X80813257Y-64297644D01*
X80833248Y-64309626D01*
X80851968Y-64323510D01*
X80869238Y-64339162D01*
X80884890Y-64356432D01*
X80898774Y-64375152D01*
X80910756Y-64395143D01*
X80920721Y-64416213D01*
X80928573Y-64438157D01*
X80934237Y-64460766D01*
X80937656Y-64483821D01*
X80938800Y-64507100D01*
X80938800Y-64982100D01*
X80937656Y-65005379D01*
X80934237Y-65028434D01*
X80928573Y-65051043D01*
X80920721Y-65072987D01*
X80910756Y-65094057D01*
X80898774Y-65114048D01*
X80884890Y-65132768D01*
X80869238Y-65150038D01*
X80851968Y-65165690D01*
X80833248Y-65179574D01*
X80813257Y-65191556D01*
X80792187Y-65201521D01*
X80770243Y-65209373D01*
X80747634Y-65215037D01*
X80724579Y-65218456D01*
X80701300Y-65219600D01*
X80126300Y-65219600D01*
X80103021Y-65218456D01*
X80079966Y-65215037D01*
X80057357Y-65209373D01*
X80035413Y-65201521D01*
X80014343Y-65191556D01*
X79994352Y-65179574D01*
X79975632Y-65165690D01*
X79958362Y-65150038D01*
X79942710Y-65132768D01*
X79928826Y-65114048D01*
X79916844Y-65094057D01*
X79906879Y-65072987D01*
X79899027Y-65051043D01*
X79893363Y-65028434D01*
X79889944Y-65005379D01*
X79888800Y-64982100D01*
X79888800Y-64507100D01*
X79889944Y-64483821D01*
X79893363Y-64460766D01*
X79899027Y-64438157D01*
X79906879Y-64416213D01*
X79916844Y-64395143D01*
X79928826Y-64375152D01*
X79942710Y-64356432D01*
X79958362Y-64339162D01*
X79975632Y-64323510D01*
X79994352Y-64309626D01*
X80014343Y-64297644D01*
X80035413Y-64287679D01*
X80057357Y-64279827D01*
X80079966Y-64274163D01*
X80103021Y-64270744D01*
X80126300Y-64269600D01*
X80701300Y-64269600D01*
X80724579Y-64270744D01*
X80724579Y-64270744D01*
G37*
D15*
X80413800Y-64744600D03*
D14*
G36*
X78974579Y-64270744D02*
G01*
X78997634Y-64274163D01*
X79020243Y-64279827D01*
X79042187Y-64287679D01*
X79063257Y-64297644D01*
X79083248Y-64309626D01*
X79101968Y-64323510D01*
X79119238Y-64339162D01*
X79134890Y-64356432D01*
X79148774Y-64375152D01*
X79160756Y-64395143D01*
X79170721Y-64416213D01*
X79178573Y-64438157D01*
X79184237Y-64460766D01*
X79187656Y-64483821D01*
X79188800Y-64507100D01*
X79188800Y-64982100D01*
X79187656Y-65005379D01*
X79184237Y-65028434D01*
X79178573Y-65051043D01*
X79170721Y-65072987D01*
X79160756Y-65094057D01*
X79148774Y-65114048D01*
X79134890Y-65132768D01*
X79119238Y-65150038D01*
X79101968Y-65165690D01*
X79083248Y-65179574D01*
X79063257Y-65191556D01*
X79042187Y-65201521D01*
X79020243Y-65209373D01*
X78997634Y-65215037D01*
X78974579Y-65218456D01*
X78951300Y-65219600D01*
X78376300Y-65219600D01*
X78353021Y-65218456D01*
X78329966Y-65215037D01*
X78307357Y-65209373D01*
X78285413Y-65201521D01*
X78264343Y-65191556D01*
X78244352Y-65179574D01*
X78225632Y-65165690D01*
X78208362Y-65150038D01*
X78192710Y-65132768D01*
X78178826Y-65114048D01*
X78166844Y-65094057D01*
X78156879Y-65072987D01*
X78149027Y-65051043D01*
X78143363Y-65028434D01*
X78139944Y-65005379D01*
X78138800Y-64982100D01*
X78138800Y-64507100D01*
X78139944Y-64483821D01*
X78143363Y-64460766D01*
X78149027Y-64438157D01*
X78156879Y-64416213D01*
X78166844Y-64395143D01*
X78178826Y-64375152D01*
X78192710Y-64356432D01*
X78208362Y-64339162D01*
X78225632Y-64323510D01*
X78244352Y-64309626D01*
X78264343Y-64297644D01*
X78285413Y-64287679D01*
X78307357Y-64279827D01*
X78329966Y-64274163D01*
X78353021Y-64270744D01*
X78376300Y-64269600D01*
X78951300Y-64269600D01*
X78974579Y-64270744D01*
X78974579Y-64270744D01*
G37*
D15*
X78663800Y-64744600D03*
D14*
G36*
X80648379Y-61222744D02*
G01*
X80671434Y-61226163D01*
X80694043Y-61231827D01*
X80715987Y-61239679D01*
X80737057Y-61249644D01*
X80757048Y-61261626D01*
X80775768Y-61275510D01*
X80793038Y-61291162D01*
X80808690Y-61308432D01*
X80822574Y-61327152D01*
X80834556Y-61347143D01*
X80844521Y-61368213D01*
X80852373Y-61390157D01*
X80858037Y-61412766D01*
X80861456Y-61435821D01*
X80862600Y-61459100D01*
X80862600Y-61934100D01*
X80861456Y-61957379D01*
X80858037Y-61980434D01*
X80852373Y-62003043D01*
X80844521Y-62024987D01*
X80834556Y-62046057D01*
X80822574Y-62066048D01*
X80808690Y-62084768D01*
X80793038Y-62102038D01*
X80775768Y-62117690D01*
X80757048Y-62131574D01*
X80737057Y-62143556D01*
X80715987Y-62153521D01*
X80694043Y-62161373D01*
X80671434Y-62167037D01*
X80648379Y-62170456D01*
X80625100Y-62171600D01*
X80050100Y-62171600D01*
X80026821Y-62170456D01*
X80003766Y-62167037D01*
X79981157Y-62161373D01*
X79959213Y-62153521D01*
X79938143Y-62143556D01*
X79918152Y-62131574D01*
X79899432Y-62117690D01*
X79882162Y-62102038D01*
X79866510Y-62084768D01*
X79852626Y-62066048D01*
X79840644Y-62046057D01*
X79830679Y-62024987D01*
X79822827Y-62003043D01*
X79817163Y-61980434D01*
X79813744Y-61957379D01*
X79812600Y-61934100D01*
X79812600Y-61459100D01*
X79813744Y-61435821D01*
X79817163Y-61412766D01*
X79822827Y-61390157D01*
X79830679Y-61368213D01*
X79840644Y-61347143D01*
X79852626Y-61327152D01*
X79866510Y-61308432D01*
X79882162Y-61291162D01*
X79899432Y-61275510D01*
X79918152Y-61261626D01*
X79938143Y-61249644D01*
X79959213Y-61239679D01*
X79981157Y-61231827D01*
X80003766Y-61226163D01*
X80026821Y-61222744D01*
X80050100Y-61221600D01*
X80625100Y-61221600D01*
X80648379Y-61222744D01*
X80648379Y-61222744D01*
G37*
D15*
X80337600Y-61696600D03*
D14*
G36*
X78898379Y-61222744D02*
G01*
X78921434Y-61226163D01*
X78944043Y-61231827D01*
X78965987Y-61239679D01*
X78987057Y-61249644D01*
X79007048Y-61261626D01*
X79025768Y-61275510D01*
X79043038Y-61291162D01*
X79058690Y-61308432D01*
X79072574Y-61327152D01*
X79084556Y-61347143D01*
X79094521Y-61368213D01*
X79102373Y-61390157D01*
X79108037Y-61412766D01*
X79111456Y-61435821D01*
X79112600Y-61459100D01*
X79112600Y-61934100D01*
X79111456Y-61957379D01*
X79108037Y-61980434D01*
X79102373Y-62003043D01*
X79094521Y-62024987D01*
X79084556Y-62046057D01*
X79072574Y-62066048D01*
X79058690Y-62084768D01*
X79043038Y-62102038D01*
X79025768Y-62117690D01*
X79007048Y-62131574D01*
X78987057Y-62143556D01*
X78965987Y-62153521D01*
X78944043Y-62161373D01*
X78921434Y-62167037D01*
X78898379Y-62170456D01*
X78875100Y-62171600D01*
X78300100Y-62171600D01*
X78276821Y-62170456D01*
X78253766Y-62167037D01*
X78231157Y-62161373D01*
X78209213Y-62153521D01*
X78188143Y-62143556D01*
X78168152Y-62131574D01*
X78149432Y-62117690D01*
X78132162Y-62102038D01*
X78116510Y-62084768D01*
X78102626Y-62066048D01*
X78090644Y-62046057D01*
X78080679Y-62024987D01*
X78072827Y-62003043D01*
X78067163Y-61980434D01*
X78063744Y-61957379D01*
X78062600Y-61934100D01*
X78062600Y-61459100D01*
X78063744Y-61435821D01*
X78067163Y-61412766D01*
X78072827Y-61390157D01*
X78080679Y-61368213D01*
X78090644Y-61347143D01*
X78102626Y-61327152D01*
X78116510Y-61308432D01*
X78132162Y-61291162D01*
X78149432Y-61275510D01*
X78168152Y-61261626D01*
X78188143Y-61249644D01*
X78209213Y-61239679D01*
X78231157Y-61231827D01*
X78253766Y-61226163D01*
X78276821Y-61222744D01*
X78300100Y-61221600D01*
X78875100Y-61221600D01*
X78898379Y-61222744D01*
X78898379Y-61222744D01*
G37*
D15*
X78587600Y-61696600D03*
D14*
G36*
X66881579Y-67064744D02*
G01*
X66904634Y-67068163D01*
X66927243Y-67073827D01*
X66949187Y-67081679D01*
X66970257Y-67091644D01*
X66990248Y-67103626D01*
X67008968Y-67117510D01*
X67026238Y-67133162D01*
X67041890Y-67150432D01*
X67055774Y-67169152D01*
X67067756Y-67189143D01*
X67077721Y-67210213D01*
X67085573Y-67232157D01*
X67091237Y-67254766D01*
X67094656Y-67277821D01*
X67095800Y-67301100D01*
X67095800Y-67776100D01*
X67094656Y-67799379D01*
X67091237Y-67822434D01*
X67085573Y-67845043D01*
X67077721Y-67866987D01*
X67067756Y-67888057D01*
X67055774Y-67908048D01*
X67041890Y-67926768D01*
X67026238Y-67944038D01*
X67008968Y-67959690D01*
X66990248Y-67973574D01*
X66970257Y-67985556D01*
X66949187Y-67995521D01*
X66927243Y-68003373D01*
X66904634Y-68009037D01*
X66881579Y-68012456D01*
X66858300Y-68013600D01*
X66283300Y-68013600D01*
X66260021Y-68012456D01*
X66236966Y-68009037D01*
X66214357Y-68003373D01*
X66192413Y-67995521D01*
X66171343Y-67985556D01*
X66151352Y-67973574D01*
X66132632Y-67959690D01*
X66115362Y-67944038D01*
X66099710Y-67926768D01*
X66085826Y-67908048D01*
X66073844Y-67888057D01*
X66063879Y-67866987D01*
X66056027Y-67845043D01*
X66050363Y-67822434D01*
X66046944Y-67799379D01*
X66045800Y-67776100D01*
X66045800Y-67301100D01*
X66046944Y-67277821D01*
X66050363Y-67254766D01*
X66056027Y-67232157D01*
X66063879Y-67210213D01*
X66073844Y-67189143D01*
X66085826Y-67169152D01*
X66099710Y-67150432D01*
X66115362Y-67133162D01*
X66132632Y-67117510D01*
X66151352Y-67103626D01*
X66171343Y-67091644D01*
X66192413Y-67081679D01*
X66214357Y-67073827D01*
X66236966Y-67068163D01*
X66260021Y-67064744D01*
X66283300Y-67063600D01*
X66858300Y-67063600D01*
X66881579Y-67064744D01*
X66881579Y-67064744D01*
G37*
D15*
X66570800Y-67538600D03*
D14*
G36*
X65131579Y-67064744D02*
G01*
X65154634Y-67068163D01*
X65177243Y-67073827D01*
X65199187Y-67081679D01*
X65220257Y-67091644D01*
X65240248Y-67103626D01*
X65258968Y-67117510D01*
X65276238Y-67133162D01*
X65291890Y-67150432D01*
X65305774Y-67169152D01*
X65317756Y-67189143D01*
X65327721Y-67210213D01*
X65335573Y-67232157D01*
X65341237Y-67254766D01*
X65344656Y-67277821D01*
X65345800Y-67301100D01*
X65345800Y-67776100D01*
X65344656Y-67799379D01*
X65341237Y-67822434D01*
X65335573Y-67845043D01*
X65327721Y-67866987D01*
X65317756Y-67888057D01*
X65305774Y-67908048D01*
X65291890Y-67926768D01*
X65276238Y-67944038D01*
X65258968Y-67959690D01*
X65240248Y-67973574D01*
X65220257Y-67985556D01*
X65199187Y-67995521D01*
X65177243Y-68003373D01*
X65154634Y-68009037D01*
X65131579Y-68012456D01*
X65108300Y-68013600D01*
X64533300Y-68013600D01*
X64510021Y-68012456D01*
X64486966Y-68009037D01*
X64464357Y-68003373D01*
X64442413Y-67995521D01*
X64421343Y-67985556D01*
X64401352Y-67973574D01*
X64382632Y-67959690D01*
X64365362Y-67944038D01*
X64349710Y-67926768D01*
X64335826Y-67908048D01*
X64323844Y-67888057D01*
X64313879Y-67866987D01*
X64306027Y-67845043D01*
X64300363Y-67822434D01*
X64296944Y-67799379D01*
X64295800Y-67776100D01*
X64295800Y-67301100D01*
X64296944Y-67277821D01*
X64300363Y-67254766D01*
X64306027Y-67232157D01*
X64313879Y-67210213D01*
X64323844Y-67189143D01*
X64335826Y-67169152D01*
X64349710Y-67150432D01*
X64365362Y-67133162D01*
X64382632Y-67117510D01*
X64401352Y-67103626D01*
X64421343Y-67091644D01*
X64442413Y-67081679D01*
X64464357Y-67073827D01*
X64486966Y-67068163D01*
X64510021Y-67064744D01*
X64533300Y-67063600D01*
X65108300Y-67063600D01*
X65131579Y-67064744D01*
X65131579Y-67064744D01*
G37*
D15*
X64820800Y-67538600D03*
D14*
G36*
X66881579Y-73033744D02*
G01*
X66904634Y-73037163D01*
X66927243Y-73042827D01*
X66949187Y-73050679D01*
X66970257Y-73060644D01*
X66990248Y-73072626D01*
X67008968Y-73086510D01*
X67026238Y-73102162D01*
X67041890Y-73119432D01*
X67055774Y-73138152D01*
X67067756Y-73158143D01*
X67077721Y-73179213D01*
X67085573Y-73201157D01*
X67091237Y-73223766D01*
X67094656Y-73246821D01*
X67095800Y-73270100D01*
X67095800Y-73745100D01*
X67094656Y-73768379D01*
X67091237Y-73791434D01*
X67085573Y-73814043D01*
X67077721Y-73835987D01*
X67067756Y-73857057D01*
X67055774Y-73877048D01*
X67041890Y-73895768D01*
X67026238Y-73913038D01*
X67008968Y-73928690D01*
X66990248Y-73942574D01*
X66970257Y-73954556D01*
X66949187Y-73964521D01*
X66927243Y-73972373D01*
X66904634Y-73978037D01*
X66881579Y-73981456D01*
X66858300Y-73982600D01*
X66283300Y-73982600D01*
X66260021Y-73981456D01*
X66236966Y-73978037D01*
X66214357Y-73972373D01*
X66192413Y-73964521D01*
X66171343Y-73954556D01*
X66151352Y-73942574D01*
X66132632Y-73928690D01*
X66115362Y-73913038D01*
X66099710Y-73895768D01*
X66085826Y-73877048D01*
X66073844Y-73857057D01*
X66063879Y-73835987D01*
X66056027Y-73814043D01*
X66050363Y-73791434D01*
X66046944Y-73768379D01*
X66045800Y-73745100D01*
X66045800Y-73270100D01*
X66046944Y-73246821D01*
X66050363Y-73223766D01*
X66056027Y-73201157D01*
X66063879Y-73179213D01*
X66073844Y-73158143D01*
X66085826Y-73138152D01*
X66099710Y-73119432D01*
X66115362Y-73102162D01*
X66132632Y-73086510D01*
X66151352Y-73072626D01*
X66171343Y-73060644D01*
X66192413Y-73050679D01*
X66214357Y-73042827D01*
X66236966Y-73037163D01*
X66260021Y-73033744D01*
X66283300Y-73032600D01*
X66858300Y-73032600D01*
X66881579Y-73033744D01*
X66881579Y-73033744D01*
G37*
D15*
X66570800Y-73507600D03*
D14*
G36*
X65131579Y-73033744D02*
G01*
X65154634Y-73037163D01*
X65177243Y-73042827D01*
X65199187Y-73050679D01*
X65220257Y-73060644D01*
X65240248Y-73072626D01*
X65258968Y-73086510D01*
X65276238Y-73102162D01*
X65291890Y-73119432D01*
X65305774Y-73138152D01*
X65317756Y-73158143D01*
X65327721Y-73179213D01*
X65335573Y-73201157D01*
X65341237Y-73223766D01*
X65344656Y-73246821D01*
X65345800Y-73270100D01*
X65345800Y-73745100D01*
X65344656Y-73768379D01*
X65341237Y-73791434D01*
X65335573Y-73814043D01*
X65327721Y-73835987D01*
X65317756Y-73857057D01*
X65305774Y-73877048D01*
X65291890Y-73895768D01*
X65276238Y-73913038D01*
X65258968Y-73928690D01*
X65240248Y-73942574D01*
X65220257Y-73954556D01*
X65199187Y-73964521D01*
X65177243Y-73972373D01*
X65154634Y-73978037D01*
X65131579Y-73981456D01*
X65108300Y-73982600D01*
X64533300Y-73982600D01*
X64510021Y-73981456D01*
X64486966Y-73978037D01*
X64464357Y-73972373D01*
X64442413Y-73964521D01*
X64421343Y-73954556D01*
X64401352Y-73942574D01*
X64382632Y-73928690D01*
X64365362Y-73913038D01*
X64349710Y-73895768D01*
X64335826Y-73877048D01*
X64323844Y-73857057D01*
X64313879Y-73835987D01*
X64306027Y-73814043D01*
X64300363Y-73791434D01*
X64296944Y-73768379D01*
X64295800Y-73745100D01*
X64295800Y-73270100D01*
X64296944Y-73246821D01*
X64300363Y-73223766D01*
X64306027Y-73201157D01*
X64313879Y-73179213D01*
X64323844Y-73158143D01*
X64335826Y-73138152D01*
X64349710Y-73119432D01*
X64365362Y-73102162D01*
X64382632Y-73086510D01*
X64401352Y-73072626D01*
X64421343Y-73060644D01*
X64442413Y-73050679D01*
X64464357Y-73042827D01*
X64486966Y-73037163D01*
X64510021Y-73033744D01*
X64533300Y-73032600D01*
X65108300Y-73032600D01*
X65131579Y-73033744D01*
X65131579Y-73033744D01*
G37*
D15*
X64820800Y-73507600D03*
D14*
G36*
X66754579Y-69985744D02*
G01*
X66777634Y-69989163D01*
X66800243Y-69994827D01*
X66822187Y-70002679D01*
X66843257Y-70012644D01*
X66863248Y-70024626D01*
X66881968Y-70038510D01*
X66899238Y-70054162D01*
X66914890Y-70071432D01*
X66928774Y-70090152D01*
X66940756Y-70110143D01*
X66950721Y-70131213D01*
X66958573Y-70153157D01*
X66964237Y-70175766D01*
X66967656Y-70198821D01*
X66968800Y-70222100D01*
X66968800Y-70697100D01*
X66967656Y-70720379D01*
X66964237Y-70743434D01*
X66958573Y-70766043D01*
X66950721Y-70787987D01*
X66940756Y-70809057D01*
X66928774Y-70829048D01*
X66914890Y-70847768D01*
X66899238Y-70865038D01*
X66881968Y-70880690D01*
X66863248Y-70894574D01*
X66843257Y-70906556D01*
X66822187Y-70916521D01*
X66800243Y-70924373D01*
X66777634Y-70930037D01*
X66754579Y-70933456D01*
X66731300Y-70934600D01*
X66156300Y-70934600D01*
X66133021Y-70933456D01*
X66109966Y-70930037D01*
X66087357Y-70924373D01*
X66065413Y-70916521D01*
X66044343Y-70906556D01*
X66024352Y-70894574D01*
X66005632Y-70880690D01*
X65988362Y-70865038D01*
X65972710Y-70847768D01*
X65958826Y-70829048D01*
X65946844Y-70809057D01*
X65936879Y-70787987D01*
X65929027Y-70766043D01*
X65923363Y-70743434D01*
X65919944Y-70720379D01*
X65918800Y-70697100D01*
X65918800Y-70222100D01*
X65919944Y-70198821D01*
X65923363Y-70175766D01*
X65929027Y-70153157D01*
X65936879Y-70131213D01*
X65946844Y-70110143D01*
X65958826Y-70090152D01*
X65972710Y-70071432D01*
X65988362Y-70054162D01*
X66005632Y-70038510D01*
X66024352Y-70024626D01*
X66044343Y-70012644D01*
X66065413Y-70002679D01*
X66087357Y-69994827D01*
X66109966Y-69989163D01*
X66133021Y-69985744D01*
X66156300Y-69984600D01*
X66731300Y-69984600D01*
X66754579Y-69985744D01*
X66754579Y-69985744D01*
G37*
D15*
X66443800Y-70459600D03*
D14*
G36*
X65004579Y-69985744D02*
G01*
X65027634Y-69989163D01*
X65050243Y-69994827D01*
X65072187Y-70002679D01*
X65093257Y-70012644D01*
X65113248Y-70024626D01*
X65131968Y-70038510D01*
X65149238Y-70054162D01*
X65164890Y-70071432D01*
X65178774Y-70090152D01*
X65190756Y-70110143D01*
X65200721Y-70131213D01*
X65208573Y-70153157D01*
X65214237Y-70175766D01*
X65217656Y-70198821D01*
X65218800Y-70222100D01*
X65218800Y-70697100D01*
X65217656Y-70720379D01*
X65214237Y-70743434D01*
X65208573Y-70766043D01*
X65200721Y-70787987D01*
X65190756Y-70809057D01*
X65178774Y-70829048D01*
X65164890Y-70847768D01*
X65149238Y-70865038D01*
X65131968Y-70880690D01*
X65113248Y-70894574D01*
X65093257Y-70906556D01*
X65072187Y-70916521D01*
X65050243Y-70924373D01*
X65027634Y-70930037D01*
X65004579Y-70933456D01*
X64981300Y-70934600D01*
X64406300Y-70934600D01*
X64383021Y-70933456D01*
X64359966Y-70930037D01*
X64337357Y-70924373D01*
X64315413Y-70916521D01*
X64294343Y-70906556D01*
X64274352Y-70894574D01*
X64255632Y-70880690D01*
X64238362Y-70865038D01*
X64222710Y-70847768D01*
X64208826Y-70829048D01*
X64196844Y-70809057D01*
X64186879Y-70787987D01*
X64179027Y-70766043D01*
X64173363Y-70743434D01*
X64169944Y-70720379D01*
X64168800Y-70697100D01*
X64168800Y-70222100D01*
X64169944Y-70198821D01*
X64173363Y-70175766D01*
X64179027Y-70153157D01*
X64186879Y-70131213D01*
X64196844Y-70110143D01*
X64208826Y-70090152D01*
X64222710Y-70071432D01*
X64238362Y-70054162D01*
X64255632Y-70038510D01*
X64274352Y-70024626D01*
X64294343Y-70012644D01*
X64315413Y-70002679D01*
X64337357Y-69994827D01*
X64359966Y-69989163D01*
X64383021Y-69985744D01*
X64406300Y-69984600D01*
X64981300Y-69984600D01*
X65004579Y-69985744D01*
X65004579Y-69985744D01*
G37*
D15*
X64693800Y-70459600D03*
D14*
G36*
X66322779Y-61502144D02*
G01*
X66345834Y-61505563D01*
X66368443Y-61511227D01*
X66390387Y-61519079D01*
X66411457Y-61529044D01*
X66431448Y-61541026D01*
X66450168Y-61554910D01*
X66467438Y-61570562D01*
X66483090Y-61587832D01*
X66496974Y-61606552D01*
X66508956Y-61626543D01*
X66518921Y-61647613D01*
X66526773Y-61669557D01*
X66532437Y-61692166D01*
X66535856Y-61715221D01*
X66537000Y-61738500D01*
X66537000Y-62213500D01*
X66535856Y-62236779D01*
X66532437Y-62259834D01*
X66526773Y-62282443D01*
X66518921Y-62304387D01*
X66508956Y-62325457D01*
X66496974Y-62345448D01*
X66483090Y-62364168D01*
X66467438Y-62381438D01*
X66450168Y-62397090D01*
X66431448Y-62410974D01*
X66411457Y-62422956D01*
X66390387Y-62432921D01*
X66368443Y-62440773D01*
X66345834Y-62446437D01*
X66322779Y-62449856D01*
X66299500Y-62451000D01*
X65724500Y-62451000D01*
X65701221Y-62449856D01*
X65678166Y-62446437D01*
X65655557Y-62440773D01*
X65633613Y-62432921D01*
X65612543Y-62422956D01*
X65592552Y-62410974D01*
X65573832Y-62397090D01*
X65556562Y-62381438D01*
X65540910Y-62364168D01*
X65527026Y-62345448D01*
X65515044Y-62325457D01*
X65505079Y-62304387D01*
X65497227Y-62282443D01*
X65491563Y-62259834D01*
X65488144Y-62236779D01*
X65487000Y-62213500D01*
X65487000Y-61738500D01*
X65488144Y-61715221D01*
X65491563Y-61692166D01*
X65497227Y-61669557D01*
X65505079Y-61647613D01*
X65515044Y-61626543D01*
X65527026Y-61606552D01*
X65540910Y-61587832D01*
X65556562Y-61570562D01*
X65573832Y-61554910D01*
X65592552Y-61541026D01*
X65612543Y-61529044D01*
X65633613Y-61519079D01*
X65655557Y-61511227D01*
X65678166Y-61505563D01*
X65701221Y-61502144D01*
X65724500Y-61501000D01*
X66299500Y-61501000D01*
X66322779Y-61502144D01*
X66322779Y-61502144D01*
G37*
D15*
X66012000Y-61976000D03*
D14*
G36*
X64572779Y-61502144D02*
G01*
X64595834Y-61505563D01*
X64618443Y-61511227D01*
X64640387Y-61519079D01*
X64661457Y-61529044D01*
X64681448Y-61541026D01*
X64700168Y-61554910D01*
X64717438Y-61570562D01*
X64733090Y-61587832D01*
X64746974Y-61606552D01*
X64758956Y-61626543D01*
X64768921Y-61647613D01*
X64776773Y-61669557D01*
X64782437Y-61692166D01*
X64785856Y-61715221D01*
X64787000Y-61738500D01*
X64787000Y-62213500D01*
X64785856Y-62236779D01*
X64782437Y-62259834D01*
X64776773Y-62282443D01*
X64768921Y-62304387D01*
X64758956Y-62325457D01*
X64746974Y-62345448D01*
X64733090Y-62364168D01*
X64717438Y-62381438D01*
X64700168Y-62397090D01*
X64681448Y-62410974D01*
X64661457Y-62422956D01*
X64640387Y-62432921D01*
X64618443Y-62440773D01*
X64595834Y-62446437D01*
X64572779Y-62449856D01*
X64549500Y-62451000D01*
X63974500Y-62451000D01*
X63951221Y-62449856D01*
X63928166Y-62446437D01*
X63905557Y-62440773D01*
X63883613Y-62432921D01*
X63862543Y-62422956D01*
X63842552Y-62410974D01*
X63823832Y-62397090D01*
X63806562Y-62381438D01*
X63790910Y-62364168D01*
X63777026Y-62345448D01*
X63765044Y-62325457D01*
X63755079Y-62304387D01*
X63747227Y-62282443D01*
X63741563Y-62259834D01*
X63738144Y-62236779D01*
X63737000Y-62213500D01*
X63737000Y-61738500D01*
X63738144Y-61715221D01*
X63741563Y-61692166D01*
X63747227Y-61669557D01*
X63755079Y-61647613D01*
X63765044Y-61626543D01*
X63777026Y-61606552D01*
X63790910Y-61587832D01*
X63806562Y-61570562D01*
X63823832Y-61554910D01*
X63842552Y-61541026D01*
X63862543Y-61529044D01*
X63883613Y-61519079D01*
X63905557Y-61511227D01*
X63928166Y-61505563D01*
X63951221Y-61502144D01*
X63974500Y-61501000D01*
X64549500Y-61501000D01*
X64572779Y-61502144D01*
X64572779Y-61502144D01*
G37*
D15*
X64262000Y-61976000D03*
D14*
G36*
X66322779Y-58581144D02*
G01*
X66345834Y-58584563D01*
X66368443Y-58590227D01*
X66390387Y-58598079D01*
X66411457Y-58608044D01*
X66431448Y-58620026D01*
X66450168Y-58633910D01*
X66467438Y-58649562D01*
X66483090Y-58666832D01*
X66496974Y-58685552D01*
X66508956Y-58705543D01*
X66518921Y-58726613D01*
X66526773Y-58748557D01*
X66532437Y-58771166D01*
X66535856Y-58794221D01*
X66537000Y-58817500D01*
X66537000Y-59292500D01*
X66535856Y-59315779D01*
X66532437Y-59338834D01*
X66526773Y-59361443D01*
X66518921Y-59383387D01*
X66508956Y-59404457D01*
X66496974Y-59424448D01*
X66483090Y-59443168D01*
X66467438Y-59460438D01*
X66450168Y-59476090D01*
X66431448Y-59489974D01*
X66411457Y-59501956D01*
X66390387Y-59511921D01*
X66368443Y-59519773D01*
X66345834Y-59525437D01*
X66322779Y-59528856D01*
X66299500Y-59530000D01*
X65724500Y-59530000D01*
X65701221Y-59528856D01*
X65678166Y-59525437D01*
X65655557Y-59519773D01*
X65633613Y-59511921D01*
X65612543Y-59501956D01*
X65592552Y-59489974D01*
X65573832Y-59476090D01*
X65556562Y-59460438D01*
X65540910Y-59443168D01*
X65527026Y-59424448D01*
X65515044Y-59404457D01*
X65505079Y-59383387D01*
X65497227Y-59361443D01*
X65491563Y-59338834D01*
X65488144Y-59315779D01*
X65487000Y-59292500D01*
X65487000Y-58817500D01*
X65488144Y-58794221D01*
X65491563Y-58771166D01*
X65497227Y-58748557D01*
X65505079Y-58726613D01*
X65515044Y-58705543D01*
X65527026Y-58685552D01*
X65540910Y-58666832D01*
X65556562Y-58649562D01*
X65573832Y-58633910D01*
X65592552Y-58620026D01*
X65612543Y-58608044D01*
X65633613Y-58598079D01*
X65655557Y-58590227D01*
X65678166Y-58584563D01*
X65701221Y-58581144D01*
X65724500Y-58580000D01*
X66299500Y-58580000D01*
X66322779Y-58581144D01*
X66322779Y-58581144D01*
G37*
D15*
X66012000Y-59055000D03*
D14*
G36*
X64572779Y-58581144D02*
G01*
X64595834Y-58584563D01*
X64618443Y-58590227D01*
X64640387Y-58598079D01*
X64661457Y-58608044D01*
X64681448Y-58620026D01*
X64700168Y-58633910D01*
X64717438Y-58649562D01*
X64733090Y-58666832D01*
X64746974Y-58685552D01*
X64758956Y-58705543D01*
X64768921Y-58726613D01*
X64776773Y-58748557D01*
X64782437Y-58771166D01*
X64785856Y-58794221D01*
X64787000Y-58817500D01*
X64787000Y-59292500D01*
X64785856Y-59315779D01*
X64782437Y-59338834D01*
X64776773Y-59361443D01*
X64768921Y-59383387D01*
X64758956Y-59404457D01*
X64746974Y-59424448D01*
X64733090Y-59443168D01*
X64717438Y-59460438D01*
X64700168Y-59476090D01*
X64681448Y-59489974D01*
X64661457Y-59501956D01*
X64640387Y-59511921D01*
X64618443Y-59519773D01*
X64595834Y-59525437D01*
X64572779Y-59528856D01*
X64549500Y-59530000D01*
X63974500Y-59530000D01*
X63951221Y-59528856D01*
X63928166Y-59525437D01*
X63905557Y-59519773D01*
X63883613Y-59511921D01*
X63862543Y-59501956D01*
X63842552Y-59489974D01*
X63823832Y-59476090D01*
X63806562Y-59460438D01*
X63790910Y-59443168D01*
X63777026Y-59424448D01*
X63765044Y-59404457D01*
X63755079Y-59383387D01*
X63747227Y-59361443D01*
X63741563Y-59338834D01*
X63738144Y-59315779D01*
X63737000Y-59292500D01*
X63737000Y-58817500D01*
X63738144Y-58794221D01*
X63741563Y-58771166D01*
X63747227Y-58748557D01*
X63755079Y-58726613D01*
X63765044Y-58705543D01*
X63777026Y-58685552D01*
X63790910Y-58666832D01*
X63806562Y-58649562D01*
X63823832Y-58633910D01*
X63842552Y-58620026D01*
X63862543Y-58608044D01*
X63883613Y-58598079D01*
X63905557Y-58590227D01*
X63928166Y-58584563D01*
X63951221Y-58581144D01*
X63974500Y-58580000D01*
X64549500Y-58580000D01*
X64572779Y-58581144D01*
X64572779Y-58581144D01*
G37*
D15*
X64262000Y-59055000D03*
D14*
G36*
X66322779Y-52739144D02*
G01*
X66345834Y-52742563D01*
X66368443Y-52748227D01*
X66390387Y-52756079D01*
X66411457Y-52766044D01*
X66431448Y-52778026D01*
X66450168Y-52791910D01*
X66467438Y-52807562D01*
X66483090Y-52824832D01*
X66496974Y-52843552D01*
X66508956Y-52863543D01*
X66518921Y-52884613D01*
X66526773Y-52906557D01*
X66532437Y-52929166D01*
X66535856Y-52952221D01*
X66537000Y-52975500D01*
X66537000Y-53450500D01*
X66535856Y-53473779D01*
X66532437Y-53496834D01*
X66526773Y-53519443D01*
X66518921Y-53541387D01*
X66508956Y-53562457D01*
X66496974Y-53582448D01*
X66483090Y-53601168D01*
X66467438Y-53618438D01*
X66450168Y-53634090D01*
X66431448Y-53647974D01*
X66411457Y-53659956D01*
X66390387Y-53669921D01*
X66368443Y-53677773D01*
X66345834Y-53683437D01*
X66322779Y-53686856D01*
X66299500Y-53688000D01*
X65724500Y-53688000D01*
X65701221Y-53686856D01*
X65678166Y-53683437D01*
X65655557Y-53677773D01*
X65633613Y-53669921D01*
X65612543Y-53659956D01*
X65592552Y-53647974D01*
X65573832Y-53634090D01*
X65556562Y-53618438D01*
X65540910Y-53601168D01*
X65527026Y-53582448D01*
X65515044Y-53562457D01*
X65505079Y-53541387D01*
X65497227Y-53519443D01*
X65491563Y-53496834D01*
X65488144Y-53473779D01*
X65487000Y-53450500D01*
X65487000Y-52975500D01*
X65488144Y-52952221D01*
X65491563Y-52929166D01*
X65497227Y-52906557D01*
X65505079Y-52884613D01*
X65515044Y-52863543D01*
X65527026Y-52843552D01*
X65540910Y-52824832D01*
X65556562Y-52807562D01*
X65573832Y-52791910D01*
X65592552Y-52778026D01*
X65612543Y-52766044D01*
X65633613Y-52756079D01*
X65655557Y-52748227D01*
X65678166Y-52742563D01*
X65701221Y-52739144D01*
X65724500Y-52738000D01*
X66299500Y-52738000D01*
X66322779Y-52739144D01*
X66322779Y-52739144D01*
G37*
D15*
X66012000Y-53213000D03*
D14*
G36*
X64572779Y-52739144D02*
G01*
X64595834Y-52742563D01*
X64618443Y-52748227D01*
X64640387Y-52756079D01*
X64661457Y-52766044D01*
X64681448Y-52778026D01*
X64700168Y-52791910D01*
X64717438Y-52807562D01*
X64733090Y-52824832D01*
X64746974Y-52843552D01*
X64758956Y-52863543D01*
X64768921Y-52884613D01*
X64776773Y-52906557D01*
X64782437Y-52929166D01*
X64785856Y-52952221D01*
X64787000Y-52975500D01*
X64787000Y-53450500D01*
X64785856Y-53473779D01*
X64782437Y-53496834D01*
X64776773Y-53519443D01*
X64768921Y-53541387D01*
X64758956Y-53562457D01*
X64746974Y-53582448D01*
X64733090Y-53601168D01*
X64717438Y-53618438D01*
X64700168Y-53634090D01*
X64681448Y-53647974D01*
X64661457Y-53659956D01*
X64640387Y-53669921D01*
X64618443Y-53677773D01*
X64595834Y-53683437D01*
X64572779Y-53686856D01*
X64549500Y-53688000D01*
X63974500Y-53688000D01*
X63951221Y-53686856D01*
X63928166Y-53683437D01*
X63905557Y-53677773D01*
X63883613Y-53669921D01*
X63862543Y-53659956D01*
X63842552Y-53647974D01*
X63823832Y-53634090D01*
X63806562Y-53618438D01*
X63790910Y-53601168D01*
X63777026Y-53582448D01*
X63765044Y-53562457D01*
X63755079Y-53541387D01*
X63747227Y-53519443D01*
X63741563Y-53496834D01*
X63738144Y-53473779D01*
X63737000Y-53450500D01*
X63737000Y-52975500D01*
X63738144Y-52952221D01*
X63741563Y-52929166D01*
X63747227Y-52906557D01*
X63755079Y-52884613D01*
X63765044Y-52863543D01*
X63777026Y-52843552D01*
X63790910Y-52824832D01*
X63806562Y-52807562D01*
X63823832Y-52791910D01*
X63842552Y-52778026D01*
X63862543Y-52766044D01*
X63883613Y-52756079D01*
X63905557Y-52748227D01*
X63928166Y-52742563D01*
X63951221Y-52739144D01*
X63974500Y-52738000D01*
X64549500Y-52738000D01*
X64572779Y-52739144D01*
X64572779Y-52739144D01*
G37*
D15*
X64262000Y-53213000D03*
D22*
X167614600Y-50800000D03*
X167614600Y-42926000D03*
D14*
G36*
X95510779Y-87106144D02*
G01*
X95533834Y-87109563D01*
X95556443Y-87115227D01*
X95578387Y-87123079D01*
X95599457Y-87133044D01*
X95619448Y-87145026D01*
X95638168Y-87158910D01*
X95655438Y-87174562D01*
X95671090Y-87191832D01*
X95684974Y-87210552D01*
X95696956Y-87230543D01*
X95706921Y-87251613D01*
X95714773Y-87273557D01*
X95720437Y-87296166D01*
X95723856Y-87319221D01*
X95725000Y-87342500D01*
X95725000Y-87917500D01*
X95723856Y-87940779D01*
X95720437Y-87963834D01*
X95714773Y-87986443D01*
X95706921Y-88008387D01*
X95696956Y-88029457D01*
X95684974Y-88049448D01*
X95671090Y-88068168D01*
X95655438Y-88085438D01*
X95638168Y-88101090D01*
X95619448Y-88114974D01*
X95599457Y-88126956D01*
X95578387Y-88136921D01*
X95556443Y-88144773D01*
X95533834Y-88150437D01*
X95510779Y-88153856D01*
X95487500Y-88155000D01*
X95012500Y-88155000D01*
X94989221Y-88153856D01*
X94966166Y-88150437D01*
X94943557Y-88144773D01*
X94921613Y-88136921D01*
X94900543Y-88126956D01*
X94880552Y-88114974D01*
X94861832Y-88101090D01*
X94844562Y-88085438D01*
X94828910Y-88068168D01*
X94815026Y-88049448D01*
X94803044Y-88029457D01*
X94793079Y-88008387D01*
X94785227Y-87986443D01*
X94779563Y-87963834D01*
X94776144Y-87940779D01*
X94775000Y-87917500D01*
X94775000Y-87342500D01*
X94776144Y-87319221D01*
X94779563Y-87296166D01*
X94785227Y-87273557D01*
X94793079Y-87251613D01*
X94803044Y-87230543D01*
X94815026Y-87210552D01*
X94828910Y-87191832D01*
X94844562Y-87174562D01*
X94861832Y-87158910D01*
X94880552Y-87145026D01*
X94900543Y-87133044D01*
X94921613Y-87123079D01*
X94943557Y-87115227D01*
X94966166Y-87109563D01*
X94989221Y-87106144D01*
X95012500Y-87105000D01*
X95487500Y-87105000D01*
X95510779Y-87106144D01*
X95510779Y-87106144D01*
G37*
D15*
X95250000Y-87630000D03*
D14*
G36*
X95510779Y-85356144D02*
G01*
X95533834Y-85359563D01*
X95556443Y-85365227D01*
X95578387Y-85373079D01*
X95599457Y-85383044D01*
X95619448Y-85395026D01*
X95638168Y-85408910D01*
X95655438Y-85424562D01*
X95671090Y-85441832D01*
X95684974Y-85460552D01*
X95696956Y-85480543D01*
X95706921Y-85501613D01*
X95714773Y-85523557D01*
X95720437Y-85546166D01*
X95723856Y-85569221D01*
X95725000Y-85592500D01*
X95725000Y-86167500D01*
X95723856Y-86190779D01*
X95720437Y-86213834D01*
X95714773Y-86236443D01*
X95706921Y-86258387D01*
X95696956Y-86279457D01*
X95684974Y-86299448D01*
X95671090Y-86318168D01*
X95655438Y-86335438D01*
X95638168Y-86351090D01*
X95619448Y-86364974D01*
X95599457Y-86376956D01*
X95578387Y-86386921D01*
X95556443Y-86394773D01*
X95533834Y-86400437D01*
X95510779Y-86403856D01*
X95487500Y-86405000D01*
X95012500Y-86405000D01*
X94989221Y-86403856D01*
X94966166Y-86400437D01*
X94943557Y-86394773D01*
X94921613Y-86386921D01*
X94900543Y-86376956D01*
X94880552Y-86364974D01*
X94861832Y-86351090D01*
X94844562Y-86335438D01*
X94828910Y-86318168D01*
X94815026Y-86299448D01*
X94803044Y-86279457D01*
X94793079Y-86258387D01*
X94785227Y-86236443D01*
X94779563Y-86213834D01*
X94776144Y-86190779D01*
X94775000Y-86167500D01*
X94775000Y-85592500D01*
X94776144Y-85569221D01*
X94779563Y-85546166D01*
X94785227Y-85523557D01*
X94793079Y-85501613D01*
X94803044Y-85480543D01*
X94815026Y-85460552D01*
X94828910Y-85441832D01*
X94844562Y-85424562D01*
X94861832Y-85408910D01*
X94880552Y-85395026D01*
X94900543Y-85383044D01*
X94921613Y-85373079D01*
X94943557Y-85365227D01*
X94966166Y-85359563D01*
X94989221Y-85356144D01*
X95012500Y-85355000D01*
X95487500Y-85355000D01*
X95510779Y-85356144D01*
X95510779Y-85356144D01*
G37*
D15*
X95250000Y-85880000D03*
D14*
G36*
X95510779Y-82901144D02*
G01*
X95533834Y-82904563D01*
X95556443Y-82910227D01*
X95578387Y-82918079D01*
X95599457Y-82928044D01*
X95619448Y-82940026D01*
X95638168Y-82953910D01*
X95655438Y-82969562D01*
X95671090Y-82986832D01*
X95684974Y-83005552D01*
X95696956Y-83025543D01*
X95706921Y-83046613D01*
X95714773Y-83068557D01*
X95720437Y-83091166D01*
X95723856Y-83114221D01*
X95725000Y-83137500D01*
X95725000Y-83712500D01*
X95723856Y-83735779D01*
X95720437Y-83758834D01*
X95714773Y-83781443D01*
X95706921Y-83803387D01*
X95696956Y-83824457D01*
X95684974Y-83844448D01*
X95671090Y-83863168D01*
X95655438Y-83880438D01*
X95638168Y-83896090D01*
X95619448Y-83909974D01*
X95599457Y-83921956D01*
X95578387Y-83931921D01*
X95556443Y-83939773D01*
X95533834Y-83945437D01*
X95510779Y-83948856D01*
X95487500Y-83950000D01*
X95012500Y-83950000D01*
X94989221Y-83948856D01*
X94966166Y-83945437D01*
X94943557Y-83939773D01*
X94921613Y-83931921D01*
X94900543Y-83921956D01*
X94880552Y-83909974D01*
X94861832Y-83896090D01*
X94844562Y-83880438D01*
X94828910Y-83863168D01*
X94815026Y-83844448D01*
X94803044Y-83824457D01*
X94793079Y-83803387D01*
X94785227Y-83781443D01*
X94779563Y-83758834D01*
X94776144Y-83735779D01*
X94775000Y-83712500D01*
X94775000Y-83137500D01*
X94776144Y-83114221D01*
X94779563Y-83091166D01*
X94785227Y-83068557D01*
X94793079Y-83046613D01*
X94803044Y-83025543D01*
X94815026Y-83005552D01*
X94828910Y-82986832D01*
X94844562Y-82969562D01*
X94861832Y-82953910D01*
X94880552Y-82940026D01*
X94900543Y-82928044D01*
X94921613Y-82918079D01*
X94943557Y-82910227D01*
X94966166Y-82904563D01*
X94989221Y-82901144D01*
X95012500Y-82900000D01*
X95487500Y-82900000D01*
X95510779Y-82901144D01*
X95510779Y-82901144D01*
G37*
D15*
X95250000Y-83425000D03*
D14*
G36*
X95510779Y-81151144D02*
G01*
X95533834Y-81154563D01*
X95556443Y-81160227D01*
X95578387Y-81168079D01*
X95599457Y-81178044D01*
X95619448Y-81190026D01*
X95638168Y-81203910D01*
X95655438Y-81219562D01*
X95671090Y-81236832D01*
X95684974Y-81255552D01*
X95696956Y-81275543D01*
X95706921Y-81296613D01*
X95714773Y-81318557D01*
X95720437Y-81341166D01*
X95723856Y-81364221D01*
X95725000Y-81387500D01*
X95725000Y-81962500D01*
X95723856Y-81985779D01*
X95720437Y-82008834D01*
X95714773Y-82031443D01*
X95706921Y-82053387D01*
X95696956Y-82074457D01*
X95684974Y-82094448D01*
X95671090Y-82113168D01*
X95655438Y-82130438D01*
X95638168Y-82146090D01*
X95619448Y-82159974D01*
X95599457Y-82171956D01*
X95578387Y-82181921D01*
X95556443Y-82189773D01*
X95533834Y-82195437D01*
X95510779Y-82198856D01*
X95487500Y-82200000D01*
X95012500Y-82200000D01*
X94989221Y-82198856D01*
X94966166Y-82195437D01*
X94943557Y-82189773D01*
X94921613Y-82181921D01*
X94900543Y-82171956D01*
X94880552Y-82159974D01*
X94861832Y-82146090D01*
X94844562Y-82130438D01*
X94828910Y-82113168D01*
X94815026Y-82094448D01*
X94803044Y-82074457D01*
X94793079Y-82053387D01*
X94785227Y-82031443D01*
X94779563Y-82008834D01*
X94776144Y-81985779D01*
X94775000Y-81962500D01*
X94775000Y-81387500D01*
X94776144Y-81364221D01*
X94779563Y-81341166D01*
X94785227Y-81318557D01*
X94793079Y-81296613D01*
X94803044Y-81275543D01*
X94815026Y-81255552D01*
X94828910Y-81236832D01*
X94844562Y-81219562D01*
X94861832Y-81203910D01*
X94880552Y-81190026D01*
X94900543Y-81178044D01*
X94921613Y-81168079D01*
X94943557Y-81160227D01*
X94966166Y-81154563D01*
X94989221Y-81151144D01*
X95012500Y-81150000D01*
X95487500Y-81150000D01*
X95510779Y-81151144D01*
X95510779Y-81151144D01*
G37*
D15*
X95250000Y-81675000D03*
D14*
G36*
X75683979Y-42223544D02*
G01*
X75707034Y-42226963D01*
X75729643Y-42232627D01*
X75751587Y-42240479D01*
X75772657Y-42250444D01*
X75792648Y-42262426D01*
X75811368Y-42276310D01*
X75828638Y-42291962D01*
X75844290Y-42309232D01*
X75858174Y-42327952D01*
X75870156Y-42347943D01*
X75880121Y-42369013D01*
X75887973Y-42390957D01*
X75893637Y-42413566D01*
X75897056Y-42436621D01*
X75898200Y-42459900D01*
X75898200Y-42934900D01*
X75897056Y-42958179D01*
X75893637Y-42981234D01*
X75887973Y-43003843D01*
X75880121Y-43025787D01*
X75870156Y-43046857D01*
X75858174Y-43066848D01*
X75844290Y-43085568D01*
X75828638Y-43102838D01*
X75811368Y-43118490D01*
X75792648Y-43132374D01*
X75772657Y-43144356D01*
X75751587Y-43154321D01*
X75729643Y-43162173D01*
X75707034Y-43167837D01*
X75683979Y-43171256D01*
X75660700Y-43172400D01*
X75085700Y-43172400D01*
X75062421Y-43171256D01*
X75039366Y-43167837D01*
X75016757Y-43162173D01*
X74994813Y-43154321D01*
X74973743Y-43144356D01*
X74953752Y-43132374D01*
X74935032Y-43118490D01*
X74917762Y-43102838D01*
X74902110Y-43085568D01*
X74888226Y-43066848D01*
X74876244Y-43046857D01*
X74866279Y-43025787D01*
X74858427Y-43003843D01*
X74852763Y-42981234D01*
X74849344Y-42958179D01*
X74848200Y-42934900D01*
X74848200Y-42459900D01*
X74849344Y-42436621D01*
X74852763Y-42413566D01*
X74858427Y-42390957D01*
X74866279Y-42369013D01*
X74876244Y-42347943D01*
X74888226Y-42327952D01*
X74902110Y-42309232D01*
X74917762Y-42291962D01*
X74935032Y-42276310D01*
X74953752Y-42262426D01*
X74973743Y-42250444D01*
X74994813Y-42240479D01*
X75016757Y-42232627D01*
X75039366Y-42226963D01*
X75062421Y-42223544D01*
X75085700Y-42222400D01*
X75660700Y-42222400D01*
X75683979Y-42223544D01*
X75683979Y-42223544D01*
G37*
D15*
X75373200Y-42697400D03*
D14*
G36*
X73933979Y-42223544D02*
G01*
X73957034Y-42226963D01*
X73979643Y-42232627D01*
X74001587Y-42240479D01*
X74022657Y-42250444D01*
X74042648Y-42262426D01*
X74061368Y-42276310D01*
X74078638Y-42291962D01*
X74094290Y-42309232D01*
X74108174Y-42327952D01*
X74120156Y-42347943D01*
X74130121Y-42369013D01*
X74137973Y-42390957D01*
X74143637Y-42413566D01*
X74147056Y-42436621D01*
X74148200Y-42459900D01*
X74148200Y-42934900D01*
X74147056Y-42958179D01*
X74143637Y-42981234D01*
X74137973Y-43003843D01*
X74130121Y-43025787D01*
X74120156Y-43046857D01*
X74108174Y-43066848D01*
X74094290Y-43085568D01*
X74078638Y-43102838D01*
X74061368Y-43118490D01*
X74042648Y-43132374D01*
X74022657Y-43144356D01*
X74001587Y-43154321D01*
X73979643Y-43162173D01*
X73957034Y-43167837D01*
X73933979Y-43171256D01*
X73910700Y-43172400D01*
X73335700Y-43172400D01*
X73312421Y-43171256D01*
X73289366Y-43167837D01*
X73266757Y-43162173D01*
X73244813Y-43154321D01*
X73223743Y-43144356D01*
X73203752Y-43132374D01*
X73185032Y-43118490D01*
X73167762Y-43102838D01*
X73152110Y-43085568D01*
X73138226Y-43066848D01*
X73126244Y-43046857D01*
X73116279Y-43025787D01*
X73108427Y-43003843D01*
X73102763Y-42981234D01*
X73099344Y-42958179D01*
X73098200Y-42934900D01*
X73098200Y-42459900D01*
X73099344Y-42436621D01*
X73102763Y-42413566D01*
X73108427Y-42390957D01*
X73116279Y-42369013D01*
X73126244Y-42347943D01*
X73138226Y-42327952D01*
X73152110Y-42309232D01*
X73167762Y-42291962D01*
X73185032Y-42276310D01*
X73203752Y-42262426D01*
X73223743Y-42250444D01*
X73244813Y-42240479D01*
X73266757Y-42232627D01*
X73289366Y-42226963D01*
X73312421Y-42223544D01*
X73335700Y-42222400D01*
X73910700Y-42222400D01*
X73933979Y-42223544D01*
X73933979Y-42223544D01*
G37*
D15*
X73623200Y-42697400D03*
D14*
G36*
X136990779Y-65566144D02*
G01*
X137013834Y-65569563D01*
X137036443Y-65575227D01*
X137058387Y-65583079D01*
X137079457Y-65593044D01*
X137099448Y-65605026D01*
X137118168Y-65618910D01*
X137135438Y-65634562D01*
X137151090Y-65651832D01*
X137164974Y-65670552D01*
X137176956Y-65690543D01*
X137186921Y-65711613D01*
X137194773Y-65733557D01*
X137200437Y-65756166D01*
X137203856Y-65779221D01*
X137205000Y-65802500D01*
X137205000Y-66277500D01*
X137203856Y-66300779D01*
X137200437Y-66323834D01*
X137194773Y-66346443D01*
X137186921Y-66368387D01*
X137176956Y-66389457D01*
X137164974Y-66409448D01*
X137151090Y-66428168D01*
X137135438Y-66445438D01*
X137118168Y-66461090D01*
X137099448Y-66474974D01*
X137079457Y-66486956D01*
X137058387Y-66496921D01*
X137036443Y-66504773D01*
X137013834Y-66510437D01*
X136990779Y-66513856D01*
X136967500Y-66515000D01*
X136392500Y-66515000D01*
X136369221Y-66513856D01*
X136346166Y-66510437D01*
X136323557Y-66504773D01*
X136301613Y-66496921D01*
X136280543Y-66486956D01*
X136260552Y-66474974D01*
X136241832Y-66461090D01*
X136224562Y-66445438D01*
X136208910Y-66428168D01*
X136195026Y-66409448D01*
X136183044Y-66389457D01*
X136173079Y-66368387D01*
X136165227Y-66346443D01*
X136159563Y-66323834D01*
X136156144Y-66300779D01*
X136155000Y-66277500D01*
X136155000Y-65802500D01*
X136156144Y-65779221D01*
X136159563Y-65756166D01*
X136165227Y-65733557D01*
X136173079Y-65711613D01*
X136183044Y-65690543D01*
X136195026Y-65670552D01*
X136208910Y-65651832D01*
X136224562Y-65634562D01*
X136241832Y-65618910D01*
X136260552Y-65605026D01*
X136280543Y-65593044D01*
X136301613Y-65583079D01*
X136323557Y-65575227D01*
X136346166Y-65569563D01*
X136369221Y-65566144D01*
X136392500Y-65565000D01*
X136967500Y-65565000D01*
X136990779Y-65566144D01*
X136990779Y-65566144D01*
G37*
D15*
X136680000Y-66040000D03*
D14*
G36*
X138740779Y-65566144D02*
G01*
X138763834Y-65569563D01*
X138786443Y-65575227D01*
X138808387Y-65583079D01*
X138829457Y-65593044D01*
X138849448Y-65605026D01*
X138868168Y-65618910D01*
X138885438Y-65634562D01*
X138901090Y-65651832D01*
X138914974Y-65670552D01*
X138926956Y-65690543D01*
X138936921Y-65711613D01*
X138944773Y-65733557D01*
X138950437Y-65756166D01*
X138953856Y-65779221D01*
X138955000Y-65802500D01*
X138955000Y-66277500D01*
X138953856Y-66300779D01*
X138950437Y-66323834D01*
X138944773Y-66346443D01*
X138936921Y-66368387D01*
X138926956Y-66389457D01*
X138914974Y-66409448D01*
X138901090Y-66428168D01*
X138885438Y-66445438D01*
X138868168Y-66461090D01*
X138849448Y-66474974D01*
X138829457Y-66486956D01*
X138808387Y-66496921D01*
X138786443Y-66504773D01*
X138763834Y-66510437D01*
X138740779Y-66513856D01*
X138717500Y-66515000D01*
X138142500Y-66515000D01*
X138119221Y-66513856D01*
X138096166Y-66510437D01*
X138073557Y-66504773D01*
X138051613Y-66496921D01*
X138030543Y-66486956D01*
X138010552Y-66474974D01*
X137991832Y-66461090D01*
X137974562Y-66445438D01*
X137958910Y-66428168D01*
X137945026Y-66409448D01*
X137933044Y-66389457D01*
X137923079Y-66368387D01*
X137915227Y-66346443D01*
X137909563Y-66323834D01*
X137906144Y-66300779D01*
X137905000Y-66277500D01*
X137905000Y-65802500D01*
X137906144Y-65779221D01*
X137909563Y-65756166D01*
X137915227Y-65733557D01*
X137923079Y-65711613D01*
X137933044Y-65690543D01*
X137945026Y-65670552D01*
X137958910Y-65651832D01*
X137974562Y-65634562D01*
X137991832Y-65618910D01*
X138010552Y-65605026D01*
X138030543Y-65593044D01*
X138051613Y-65583079D01*
X138073557Y-65575227D01*
X138096166Y-65569563D01*
X138119221Y-65566144D01*
X138142500Y-65565000D01*
X138717500Y-65565000D01*
X138740779Y-65566144D01*
X138740779Y-65566144D01*
G37*
D15*
X138430000Y-66040000D03*
D14*
G36*
X136990779Y-70646144D02*
G01*
X137013834Y-70649563D01*
X137036443Y-70655227D01*
X137058387Y-70663079D01*
X137079457Y-70673044D01*
X137099448Y-70685026D01*
X137118168Y-70698910D01*
X137135438Y-70714562D01*
X137151090Y-70731832D01*
X137164974Y-70750552D01*
X137176956Y-70770543D01*
X137186921Y-70791613D01*
X137194773Y-70813557D01*
X137200437Y-70836166D01*
X137203856Y-70859221D01*
X137205000Y-70882500D01*
X137205000Y-71357500D01*
X137203856Y-71380779D01*
X137200437Y-71403834D01*
X137194773Y-71426443D01*
X137186921Y-71448387D01*
X137176956Y-71469457D01*
X137164974Y-71489448D01*
X137151090Y-71508168D01*
X137135438Y-71525438D01*
X137118168Y-71541090D01*
X137099448Y-71554974D01*
X137079457Y-71566956D01*
X137058387Y-71576921D01*
X137036443Y-71584773D01*
X137013834Y-71590437D01*
X136990779Y-71593856D01*
X136967500Y-71595000D01*
X136392500Y-71595000D01*
X136369221Y-71593856D01*
X136346166Y-71590437D01*
X136323557Y-71584773D01*
X136301613Y-71576921D01*
X136280543Y-71566956D01*
X136260552Y-71554974D01*
X136241832Y-71541090D01*
X136224562Y-71525438D01*
X136208910Y-71508168D01*
X136195026Y-71489448D01*
X136183044Y-71469457D01*
X136173079Y-71448387D01*
X136165227Y-71426443D01*
X136159563Y-71403834D01*
X136156144Y-71380779D01*
X136155000Y-71357500D01*
X136155000Y-70882500D01*
X136156144Y-70859221D01*
X136159563Y-70836166D01*
X136165227Y-70813557D01*
X136173079Y-70791613D01*
X136183044Y-70770543D01*
X136195026Y-70750552D01*
X136208910Y-70731832D01*
X136224562Y-70714562D01*
X136241832Y-70698910D01*
X136260552Y-70685026D01*
X136280543Y-70673044D01*
X136301613Y-70663079D01*
X136323557Y-70655227D01*
X136346166Y-70649563D01*
X136369221Y-70646144D01*
X136392500Y-70645000D01*
X136967500Y-70645000D01*
X136990779Y-70646144D01*
X136990779Y-70646144D01*
G37*
D15*
X136680000Y-71120000D03*
D14*
G36*
X138740779Y-70646144D02*
G01*
X138763834Y-70649563D01*
X138786443Y-70655227D01*
X138808387Y-70663079D01*
X138829457Y-70673044D01*
X138849448Y-70685026D01*
X138868168Y-70698910D01*
X138885438Y-70714562D01*
X138901090Y-70731832D01*
X138914974Y-70750552D01*
X138926956Y-70770543D01*
X138936921Y-70791613D01*
X138944773Y-70813557D01*
X138950437Y-70836166D01*
X138953856Y-70859221D01*
X138955000Y-70882500D01*
X138955000Y-71357500D01*
X138953856Y-71380779D01*
X138950437Y-71403834D01*
X138944773Y-71426443D01*
X138936921Y-71448387D01*
X138926956Y-71469457D01*
X138914974Y-71489448D01*
X138901090Y-71508168D01*
X138885438Y-71525438D01*
X138868168Y-71541090D01*
X138849448Y-71554974D01*
X138829457Y-71566956D01*
X138808387Y-71576921D01*
X138786443Y-71584773D01*
X138763834Y-71590437D01*
X138740779Y-71593856D01*
X138717500Y-71595000D01*
X138142500Y-71595000D01*
X138119221Y-71593856D01*
X138096166Y-71590437D01*
X138073557Y-71584773D01*
X138051613Y-71576921D01*
X138030543Y-71566956D01*
X138010552Y-71554974D01*
X137991832Y-71541090D01*
X137974562Y-71525438D01*
X137958910Y-71508168D01*
X137945026Y-71489448D01*
X137933044Y-71469457D01*
X137923079Y-71448387D01*
X137915227Y-71426443D01*
X137909563Y-71403834D01*
X137906144Y-71380779D01*
X137905000Y-71357500D01*
X137905000Y-70882500D01*
X137906144Y-70859221D01*
X137909563Y-70836166D01*
X137915227Y-70813557D01*
X137923079Y-70791613D01*
X137933044Y-70770543D01*
X137945026Y-70750552D01*
X137958910Y-70731832D01*
X137974562Y-70714562D01*
X137991832Y-70698910D01*
X138010552Y-70685026D01*
X138030543Y-70673044D01*
X138051613Y-70663079D01*
X138073557Y-70655227D01*
X138096166Y-70649563D01*
X138119221Y-70646144D01*
X138142500Y-70645000D01*
X138717500Y-70645000D01*
X138740779Y-70646144D01*
X138740779Y-70646144D01*
G37*
D15*
X138430000Y-71120000D03*
D14*
G36*
X145090779Y-59216144D02*
G01*
X145113834Y-59219563D01*
X145136443Y-59225227D01*
X145158387Y-59233079D01*
X145179457Y-59243044D01*
X145199448Y-59255026D01*
X145218168Y-59268910D01*
X145235438Y-59284562D01*
X145251090Y-59301832D01*
X145264974Y-59320552D01*
X145276956Y-59340543D01*
X145286921Y-59361613D01*
X145294773Y-59383557D01*
X145300437Y-59406166D01*
X145303856Y-59429221D01*
X145305000Y-59452500D01*
X145305000Y-59927500D01*
X145303856Y-59950779D01*
X145300437Y-59973834D01*
X145294773Y-59996443D01*
X145286921Y-60018387D01*
X145276956Y-60039457D01*
X145264974Y-60059448D01*
X145251090Y-60078168D01*
X145235438Y-60095438D01*
X145218168Y-60111090D01*
X145199448Y-60124974D01*
X145179457Y-60136956D01*
X145158387Y-60146921D01*
X145136443Y-60154773D01*
X145113834Y-60160437D01*
X145090779Y-60163856D01*
X145067500Y-60165000D01*
X144492500Y-60165000D01*
X144469221Y-60163856D01*
X144446166Y-60160437D01*
X144423557Y-60154773D01*
X144401613Y-60146921D01*
X144380543Y-60136956D01*
X144360552Y-60124974D01*
X144341832Y-60111090D01*
X144324562Y-60095438D01*
X144308910Y-60078168D01*
X144295026Y-60059448D01*
X144283044Y-60039457D01*
X144273079Y-60018387D01*
X144265227Y-59996443D01*
X144259563Y-59973834D01*
X144256144Y-59950779D01*
X144255000Y-59927500D01*
X144255000Y-59452500D01*
X144256144Y-59429221D01*
X144259563Y-59406166D01*
X144265227Y-59383557D01*
X144273079Y-59361613D01*
X144283044Y-59340543D01*
X144295026Y-59320552D01*
X144308910Y-59301832D01*
X144324562Y-59284562D01*
X144341832Y-59268910D01*
X144360552Y-59255026D01*
X144380543Y-59243044D01*
X144401613Y-59233079D01*
X144423557Y-59225227D01*
X144446166Y-59219563D01*
X144469221Y-59216144D01*
X144492500Y-59215000D01*
X145067500Y-59215000D01*
X145090779Y-59216144D01*
X145090779Y-59216144D01*
G37*
D15*
X144780000Y-59690000D03*
D14*
G36*
X146840779Y-59216144D02*
G01*
X146863834Y-59219563D01*
X146886443Y-59225227D01*
X146908387Y-59233079D01*
X146929457Y-59243044D01*
X146949448Y-59255026D01*
X146968168Y-59268910D01*
X146985438Y-59284562D01*
X147001090Y-59301832D01*
X147014974Y-59320552D01*
X147026956Y-59340543D01*
X147036921Y-59361613D01*
X147044773Y-59383557D01*
X147050437Y-59406166D01*
X147053856Y-59429221D01*
X147055000Y-59452500D01*
X147055000Y-59927500D01*
X147053856Y-59950779D01*
X147050437Y-59973834D01*
X147044773Y-59996443D01*
X147036921Y-60018387D01*
X147026956Y-60039457D01*
X147014974Y-60059448D01*
X147001090Y-60078168D01*
X146985438Y-60095438D01*
X146968168Y-60111090D01*
X146949448Y-60124974D01*
X146929457Y-60136956D01*
X146908387Y-60146921D01*
X146886443Y-60154773D01*
X146863834Y-60160437D01*
X146840779Y-60163856D01*
X146817500Y-60165000D01*
X146242500Y-60165000D01*
X146219221Y-60163856D01*
X146196166Y-60160437D01*
X146173557Y-60154773D01*
X146151613Y-60146921D01*
X146130543Y-60136956D01*
X146110552Y-60124974D01*
X146091832Y-60111090D01*
X146074562Y-60095438D01*
X146058910Y-60078168D01*
X146045026Y-60059448D01*
X146033044Y-60039457D01*
X146023079Y-60018387D01*
X146015227Y-59996443D01*
X146009563Y-59973834D01*
X146006144Y-59950779D01*
X146005000Y-59927500D01*
X146005000Y-59452500D01*
X146006144Y-59429221D01*
X146009563Y-59406166D01*
X146015227Y-59383557D01*
X146023079Y-59361613D01*
X146033044Y-59340543D01*
X146045026Y-59320552D01*
X146058910Y-59301832D01*
X146074562Y-59284562D01*
X146091832Y-59268910D01*
X146110552Y-59255026D01*
X146130543Y-59243044D01*
X146151613Y-59233079D01*
X146173557Y-59225227D01*
X146196166Y-59219563D01*
X146219221Y-59216144D01*
X146242500Y-59215000D01*
X146817500Y-59215000D01*
X146840779Y-59216144D01*
X146840779Y-59216144D01*
G37*
D15*
X146530000Y-59690000D03*
D14*
G36*
X145090779Y-56676144D02*
G01*
X145113834Y-56679563D01*
X145136443Y-56685227D01*
X145158387Y-56693079D01*
X145179457Y-56703044D01*
X145199448Y-56715026D01*
X145218168Y-56728910D01*
X145235438Y-56744562D01*
X145251090Y-56761832D01*
X145264974Y-56780552D01*
X145276956Y-56800543D01*
X145286921Y-56821613D01*
X145294773Y-56843557D01*
X145300437Y-56866166D01*
X145303856Y-56889221D01*
X145305000Y-56912500D01*
X145305000Y-57387500D01*
X145303856Y-57410779D01*
X145300437Y-57433834D01*
X145294773Y-57456443D01*
X145286921Y-57478387D01*
X145276956Y-57499457D01*
X145264974Y-57519448D01*
X145251090Y-57538168D01*
X145235438Y-57555438D01*
X145218168Y-57571090D01*
X145199448Y-57584974D01*
X145179457Y-57596956D01*
X145158387Y-57606921D01*
X145136443Y-57614773D01*
X145113834Y-57620437D01*
X145090779Y-57623856D01*
X145067500Y-57625000D01*
X144492500Y-57625000D01*
X144469221Y-57623856D01*
X144446166Y-57620437D01*
X144423557Y-57614773D01*
X144401613Y-57606921D01*
X144380543Y-57596956D01*
X144360552Y-57584974D01*
X144341832Y-57571090D01*
X144324562Y-57555438D01*
X144308910Y-57538168D01*
X144295026Y-57519448D01*
X144283044Y-57499457D01*
X144273079Y-57478387D01*
X144265227Y-57456443D01*
X144259563Y-57433834D01*
X144256144Y-57410779D01*
X144255000Y-57387500D01*
X144255000Y-56912500D01*
X144256144Y-56889221D01*
X144259563Y-56866166D01*
X144265227Y-56843557D01*
X144273079Y-56821613D01*
X144283044Y-56800543D01*
X144295026Y-56780552D01*
X144308910Y-56761832D01*
X144324562Y-56744562D01*
X144341832Y-56728910D01*
X144360552Y-56715026D01*
X144380543Y-56703044D01*
X144401613Y-56693079D01*
X144423557Y-56685227D01*
X144446166Y-56679563D01*
X144469221Y-56676144D01*
X144492500Y-56675000D01*
X145067500Y-56675000D01*
X145090779Y-56676144D01*
X145090779Y-56676144D01*
G37*
D15*
X144780000Y-57150000D03*
D14*
G36*
X146840779Y-56676144D02*
G01*
X146863834Y-56679563D01*
X146886443Y-56685227D01*
X146908387Y-56693079D01*
X146929457Y-56703044D01*
X146949448Y-56715026D01*
X146968168Y-56728910D01*
X146985438Y-56744562D01*
X147001090Y-56761832D01*
X147014974Y-56780552D01*
X147026956Y-56800543D01*
X147036921Y-56821613D01*
X147044773Y-56843557D01*
X147050437Y-56866166D01*
X147053856Y-56889221D01*
X147055000Y-56912500D01*
X147055000Y-57387500D01*
X147053856Y-57410779D01*
X147050437Y-57433834D01*
X147044773Y-57456443D01*
X147036921Y-57478387D01*
X147026956Y-57499457D01*
X147014974Y-57519448D01*
X147001090Y-57538168D01*
X146985438Y-57555438D01*
X146968168Y-57571090D01*
X146949448Y-57584974D01*
X146929457Y-57596956D01*
X146908387Y-57606921D01*
X146886443Y-57614773D01*
X146863834Y-57620437D01*
X146840779Y-57623856D01*
X146817500Y-57625000D01*
X146242500Y-57625000D01*
X146219221Y-57623856D01*
X146196166Y-57620437D01*
X146173557Y-57614773D01*
X146151613Y-57606921D01*
X146130543Y-57596956D01*
X146110552Y-57584974D01*
X146091832Y-57571090D01*
X146074562Y-57555438D01*
X146058910Y-57538168D01*
X146045026Y-57519448D01*
X146033044Y-57499457D01*
X146023079Y-57478387D01*
X146015227Y-57456443D01*
X146009563Y-57433834D01*
X146006144Y-57410779D01*
X146005000Y-57387500D01*
X146005000Y-56912500D01*
X146006144Y-56889221D01*
X146009563Y-56866166D01*
X146015227Y-56843557D01*
X146023079Y-56821613D01*
X146033044Y-56800543D01*
X146045026Y-56780552D01*
X146058910Y-56761832D01*
X146074562Y-56744562D01*
X146091832Y-56728910D01*
X146110552Y-56715026D01*
X146130543Y-56703044D01*
X146151613Y-56693079D01*
X146173557Y-56685227D01*
X146196166Y-56679563D01*
X146219221Y-56676144D01*
X146242500Y-56675000D01*
X146817500Y-56675000D01*
X146840779Y-56676144D01*
X146840779Y-56676144D01*
G37*
D15*
X146530000Y-57150000D03*
D14*
G36*
X110888379Y-58631944D02*
G01*
X110911434Y-58635363D01*
X110934043Y-58641027D01*
X110955987Y-58648879D01*
X110977057Y-58658844D01*
X110997048Y-58670826D01*
X111015768Y-58684710D01*
X111033038Y-58700362D01*
X111048690Y-58717632D01*
X111062574Y-58736352D01*
X111074556Y-58756343D01*
X111084521Y-58777413D01*
X111092373Y-58799357D01*
X111098037Y-58821966D01*
X111101456Y-58845021D01*
X111102600Y-58868300D01*
X111102600Y-59343300D01*
X111101456Y-59366579D01*
X111098037Y-59389634D01*
X111092373Y-59412243D01*
X111084521Y-59434187D01*
X111074556Y-59455257D01*
X111062574Y-59475248D01*
X111048690Y-59493968D01*
X111033038Y-59511238D01*
X111015768Y-59526890D01*
X110997048Y-59540774D01*
X110977057Y-59552756D01*
X110955987Y-59562721D01*
X110934043Y-59570573D01*
X110911434Y-59576237D01*
X110888379Y-59579656D01*
X110865100Y-59580800D01*
X110290100Y-59580800D01*
X110266821Y-59579656D01*
X110243766Y-59576237D01*
X110221157Y-59570573D01*
X110199213Y-59562721D01*
X110178143Y-59552756D01*
X110158152Y-59540774D01*
X110139432Y-59526890D01*
X110122162Y-59511238D01*
X110106510Y-59493968D01*
X110092626Y-59475248D01*
X110080644Y-59455257D01*
X110070679Y-59434187D01*
X110062827Y-59412243D01*
X110057163Y-59389634D01*
X110053744Y-59366579D01*
X110052600Y-59343300D01*
X110052600Y-58868300D01*
X110053744Y-58845021D01*
X110057163Y-58821966D01*
X110062827Y-58799357D01*
X110070679Y-58777413D01*
X110080644Y-58756343D01*
X110092626Y-58736352D01*
X110106510Y-58717632D01*
X110122162Y-58700362D01*
X110139432Y-58684710D01*
X110158152Y-58670826D01*
X110178143Y-58658844D01*
X110199213Y-58648879D01*
X110221157Y-58641027D01*
X110243766Y-58635363D01*
X110266821Y-58631944D01*
X110290100Y-58630800D01*
X110865100Y-58630800D01*
X110888379Y-58631944D01*
X110888379Y-58631944D01*
G37*
D15*
X110577600Y-59105800D03*
D14*
G36*
X109138379Y-58631944D02*
G01*
X109161434Y-58635363D01*
X109184043Y-58641027D01*
X109205987Y-58648879D01*
X109227057Y-58658844D01*
X109247048Y-58670826D01*
X109265768Y-58684710D01*
X109283038Y-58700362D01*
X109298690Y-58717632D01*
X109312574Y-58736352D01*
X109324556Y-58756343D01*
X109334521Y-58777413D01*
X109342373Y-58799357D01*
X109348037Y-58821966D01*
X109351456Y-58845021D01*
X109352600Y-58868300D01*
X109352600Y-59343300D01*
X109351456Y-59366579D01*
X109348037Y-59389634D01*
X109342373Y-59412243D01*
X109334521Y-59434187D01*
X109324556Y-59455257D01*
X109312574Y-59475248D01*
X109298690Y-59493968D01*
X109283038Y-59511238D01*
X109265768Y-59526890D01*
X109247048Y-59540774D01*
X109227057Y-59552756D01*
X109205987Y-59562721D01*
X109184043Y-59570573D01*
X109161434Y-59576237D01*
X109138379Y-59579656D01*
X109115100Y-59580800D01*
X108540100Y-59580800D01*
X108516821Y-59579656D01*
X108493766Y-59576237D01*
X108471157Y-59570573D01*
X108449213Y-59562721D01*
X108428143Y-59552756D01*
X108408152Y-59540774D01*
X108389432Y-59526890D01*
X108372162Y-59511238D01*
X108356510Y-59493968D01*
X108342626Y-59475248D01*
X108330644Y-59455257D01*
X108320679Y-59434187D01*
X108312827Y-59412243D01*
X108307163Y-59389634D01*
X108303744Y-59366579D01*
X108302600Y-59343300D01*
X108302600Y-58868300D01*
X108303744Y-58845021D01*
X108307163Y-58821966D01*
X108312827Y-58799357D01*
X108320679Y-58777413D01*
X108330644Y-58756343D01*
X108342626Y-58736352D01*
X108356510Y-58717632D01*
X108372162Y-58700362D01*
X108389432Y-58684710D01*
X108408152Y-58670826D01*
X108428143Y-58658844D01*
X108449213Y-58648879D01*
X108471157Y-58641027D01*
X108493766Y-58635363D01*
X108516821Y-58631944D01*
X108540100Y-58630800D01*
X109115100Y-58630800D01*
X109138379Y-58631944D01*
X109138379Y-58631944D01*
G37*
D15*
X108827600Y-59105800D03*
D14*
G36*
X75720779Y-40343944D02*
G01*
X75743834Y-40347363D01*
X75766443Y-40353027D01*
X75788387Y-40360879D01*
X75809457Y-40370844D01*
X75829448Y-40382826D01*
X75848168Y-40396710D01*
X75865438Y-40412362D01*
X75881090Y-40429632D01*
X75894974Y-40448352D01*
X75906956Y-40468343D01*
X75916921Y-40489413D01*
X75924773Y-40511357D01*
X75930437Y-40533966D01*
X75933856Y-40557021D01*
X75935000Y-40580300D01*
X75935000Y-41055300D01*
X75933856Y-41078579D01*
X75930437Y-41101634D01*
X75924773Y-41124243D01*
X75916921Y-41146187D01*
X75906956Y-41167257D01*
X75894974Y-41187248D01*
X75881090Y-41205968D01*
X75865438Y-41223238D01*
X75848168Y-41238890D01*
X75829448Y-41252774D01*
X75809457Y-41264756D01*
X75788387Y-41274721D01*
X75766443Y-41282573D01*
X75743834Y-41288237D01*
X75720779Y-41291656D01*
X75697500Y-41292800D01*
X75122500Y-41292800D01*
X75099221Y-41291656D01*
X75076166Y-41288237D01*
X75053557Y-41282573D01*
X75031613Y-41274721D01*
X75010543Y-41264756D01*
X74990552Y-41252774D01*
X74971832Y-41238890D01*
X74954562Y-41223238D01*
X74938910Y-41205968D01*
X74925026Y-41187248D01*
X74913044Y-41167257D01*
X74903079Y-41146187D01*
X74895227Y-41124243D01*
X74889563Y-41101634D01*
X74886144Y-41078579D01*
X74885000Y-41055300D01*
X74885000Y-40580300D01*
X74886144Y-40557021D01*
X74889563Y-40533966D01*
X74895227Y-40511357D01*
X74903079Y-40489413D01*
X74913044Y-40468343D01*
X74925026Y-40448352D01*
X74938910Y-40429632D01*
X74954562Y-40412362D01*
X74971832Y-40396710D01*
X74990552Y-40382826D01*
X75010543Y-40370844D01*
X75031613Y-40360879D01*
X75053557Y-40353027D01*
X75076166Y-40347363D01*
X75099221Y-40343944D01*
X75122500Y-40342800D01*
X75697500Y-40342800D01*
X75720779Y-40343944D01*
X75720779Y-40343944D01*
G37*
D15*
X75410000Y-40817800D03*
D14*
G36*
X73970779Y-40343944D02*
G01*
X73993834Y-40347363D01*
X74016443Y-40353027D01*
X74038387Y-40360879D01*
X74059457Y-40370844D01*
X74079448Y-40382826D01*
X74098168Y-40396710D01*
X74115438Y-40412362D01*
X74131090Y-40429632D01*
X74144974Y-40448352D01*
X74156956Y-40468343D01*
X74166921Y-40489413D01*
X74174773Y-40511357D01*
X74180437Y-40533966D01*
X74183856Y-40557021D01*
X74185000Y-40580300D01*
X74185000Y-41055300D01*
X74183856Y-41078579D01*
X74180437Y-41101634D01*
X74174773Y-41124243D01*
X74166921Y-41146187D01*
X74156956Y-41167257D01*
X74144974Y-41187248D01*
X74131090Y-41205968D01*
X74115438Y-41223238D01*
X74098168Y-41238890D01*
X74079448Y-41252774D01*
X74059457Y-41264756D01*
X74038387Y-41274721D01*
X74016443Y-41282573D01*
X73993834Y-41288237D01*
X73970779Y-41291656D01*
X73947500Y-41292800D01*
X73372500Y-41292800D01*
X73349221Y-41291656D01*
X73326166Y-41288237D01*
X73303557Y-41282573D01*
X73281613Y-41274721D01*
X73260543Y-41264756D01*
X73240552Y-41252774D01*
X73221832Y-41238890D01*
X73204562Y-41223238D01*
X73188910Y-41205968D01*
X73175026Y-41187248D01*
X73163044Y-41167257D01*
X73153079Y-41146187D01*
X73145227Y-41124243D01*
X73139563Y-41101634D01*
X73136144Y-41078579D01*
X73135000Y-41055300D01*
X73135000Y-40580300D01*
X73136144Y-40557021D01*
X73139563Y-40533966D01*
X73145227Y-40511357D01*
X73153079Y-40489413D01*
X73163044Y-40468343D01*
X73175026Y-40448352D01*
X73188910Y-40429632D01*
X73204562Y-40412362D01*
X73221832Y-40396710D01*
X73240552Y-40382826D01*
X73260543Y-40370844D01*
X73281613Y-40360879D01*
X73303557Y-40353027D01*
X73326166Y-40347363D01*
X73349221Y-40343944D01*
X73372500Y-40342800D01*
X73947500Y-40342800D01*
X73970779Y-40343944D01*
X73970779Y-40343944D01*
G37*
D15*
X73660000Y-40817800D03*
D14*
G36*
X112883579Y-58708144D02*
G01*
X112906634Y-58711563D01*
X112929243Y-58717227D01*
X112951187Y-58725079D01*
X112972257Y-58735044D01*
X112992248Y-58747026D01*
X113010968Y-58760910D01*
X113028238Y-58776562D01*
X113043890Y-58793832D01*
X113057774Y-58812552D01*
X113069756Y-58832543D01*
X113079721Y-58853613D01*
X113087573Y-58875557D01*
X113093237Y-58898166D01*
X113096656Y-58921221D01*
X113097800Y-58944500D01*
X113097800Y-59419500D01*
X113096656Y-59442779D01*
X113093237Y-59465834D01*
X113087573Y-59488443D01*
X113079721Y-59510387D01*
X113069756Y-59531457D01*
X113057774Y-59551448D01*
X113043890Y-59570168D01*
X113028238Y-59587438D01*
X113010968Y-59603090D01*
X112992248Y-59616974D01*
X112972257Y-59628956D01*
X112951187Y-59638921D01*
X112929243Y-59646773D01*
X112906634Y-59652437D01*
X112883579Y-59655856D01*
X112860300Y-59657000D01*
X112285300Y-59657000D01*
X112262021Y-59655856D01*
X112238966Y-59652437D01*
X112216357Y-59646773D01*
X112194413Y-59638921D01*
X112173343Y-59628956D01*
X112153352Y-59616974D01*
X112134632Y-59603090D01*
X112117362Y-59587438D01*
X112101710Y-59570168D01*
X112087826Y-59551448D01*
X112075844Y-59531457D01*
X112065879Y-59510387D01*
X112058027Y-59488443D01*
X112052363Y-59465834D01*
X112048944Y-59442779D01*
X112047800Y-59419500D01*
X112047800Y-58944500D01*
X112048944Y-58921221D01*
X112052363Y-58898166D01*
X112058027Y-58875557D01*
X112065879Y-58853613D01*
X112075844Y-58832543D01*
X112087826Y-58812552D01*
X112101710Y-58793832D01*
X112117362Y-58776562D01*
X112134632Y-58760910D01*
X112153352Y-58747026D01*
X112173343Y-58735044D01*
X112194413Y-58725079D01*
X112216357Y-58717227D01*
X112238966Y-58711563D01*
X112262021Y-58708144D01*
X112285300Y-58707000D01*
X112860300Y-58707000D01*
X112883579Y-58708144D01*
X112883579Y-58708144D01*
G37*
D15*
X112572800Y-59182000D03*
D14*
G36*
X114633579Y-58708144D02*
G01*
X114656634Y-58711563D01*
X114679243Y-58717227D01*
X114701187Y-58725079D01*
X114722257Y-58735044D01*
X114742248Y-58747026D01*
X114760968Y-58760910D01*
X114778238Y-58776562D01*
X114793890Y-58793832D01*
X114807774Y-58812552D01*
X114819756Y-58832543D01*
X114829721Y-58853613D01*
X114837573Y-58875557D01*
X114843237Y-58898166D01*
X114846656Y-58921221D01*
X114847800Y-58944500D01*
X114847800Y-59419500D01*
X114846656Y-59442779D01*
X114843237Y-59465834D01*
X114837573Y-59488443D01*
X114829721Y-59510387D01*
X114819756Y-59531457D01*
X114807774Y-59551448D01*
X114793890Y-59570168D01*
X114778238Y-59587438D01*
X114760968Y-59603090D01*
X114742248Y-59616974D01*
X114722257Y-59628956D01*
X114701187Y-59638921D01*
X114679243Y-59646773D01*
X114656634Y-59652437D01*
X114633579Y-59655856D01*
X114610300Y-59657000D01*
X114035300Y-59657000D01*
X114012021Y-59655856D01*
X113988966Y-59652437D01*
X113966357Y-59646773D01*
X113944413Y-59638921D01*
X113923343Y-59628956D01*
X113903352Y-59616974D01*
X113884632Y-59603090D01*
X113867362Y-59587438D01*
X113851710Y-59570168D01*
X113837826Y-59551448D01*
X113825844Y-59531457D01*
X113815879Y-59510387D01*
X113808027Y-59488443D01*
X113802363Y-59465834D01*
X113798944Y-59442779D01*
X113797800Y-59419500D01*
X113797800Y-58944500D01*
X113798944Y-58921221D01*
X113802363Y-58898166D01*
X113808027Y-58875557D01*
X113815879Y-58853613D01*
X113825844Y-58832543D01*
X113837826Y-58812552D01*
X113851710Y-58793832D01*
X113867362Y-58776562D01*
X113884632Y-58760910D01*
X113903352Y-58747026D01*
X113923343Y-58735044D01*
X113944413Y-58725079D01*
X113966357Y-58717227D01*
X113988966Y-58711563D01*
X114012021Y-58708144D01*
X114035300Y-58707000D01*
X114610300Y-58707000D01*
X114633579Y-58708144D01*
X114633579Y-58708144D01*
G37*
D15*
X114322800Y-59182000D03*
D14*
G36*
X112883579Y-56168144D02*
G01*
X112906634Y-56171563D01*
X112929243Y-56177227D01*
X112951187Y-56185079D01*
X112972257Y-56195044D01*
X112992248Y-56207026D01*
X113010968Y-56220910D01*
X113028238Y-56236562D01*
X113043890Y-56253832D01*
X113057774Y-56272552D01*
X113069756Y-56292543D01*
X113079721Y-56313613D01*
X113087573Y-56335557D01*
X113093237Y-56358166D01*
X113096656Y-56381221D01*
X113097800Y-56404500D01*
X113097800Y-56879500D01*
X113096656Y-56902779D01*
X113093237Y-56925834D01*
X113087573Y-56948443D01*
X113079721Y-56970387D01*
X113069756Y-56991457D01*
X113057774Y-57011448D01*
X113043890Y-57030168D01*
X113028238Y-57047438D01*
X113010968Y-57063090D01*
X112992248Y-57076974D01*
X112972257Y-57088956D01*
X112951187Y-57098921D01*
X112929243Y-57106773D01*
X112906634Y-57112437D01*
X112883579Y-57115856D01*
X112860300Y-57117000D01*
X112285300Y-57117000D01*
X112262021Y-57115856D01*
X112238966Y-57112437D01*
X112216357Y-57106773D01*
X112194413Y-57098921D01*
X112173343Y-57088956D01*
X112153352Y-57076974D01*
X112134632Y-57063090D01*
X112117362Y-57047438D01*
X112101710Y-57030168D01*
X112087826Y-57011448D01*
X112075844Y-56991457D01*
X112065879Y-56970387D01*
X112058027Y-56948443D01*
X112052363Y-56925834D01*
X112048944Y-56902779D01*
X112047800Y-56879500D01*
X112047800Y-56404500D01*
X112048944Y-56381221D01*
X112052363Y-56358166D01*
X112058027Y-56335557D01*
X112065879Y-56313613D01*
X112075844Y-56292543D01*
X112087826Y-56272552D01*
X112101710Y-56253832D01*
X112117362Y-56236562D01*
X112134632Y-56220910D01*
X112153352Y-56207026D01*
X112173343Y-56195044D01*
X112194413Y-56185079D01*
X112216357Y-56177227D01*
X112238966Y-56171563D01*
X112262021Y-56168144D01*
X112285300Y-56167000D01*
X112860300Y-56167000D01*
X112883579Y-56168144D01*
X112883579Y-56168144D01*
G37*
D15*
X112572800Y-56642000D03*
D14*
G36*
X114633579Y-56168144D02*
G01*
X114656634Y-56171563D01*
X114679243Y-56177227D01*
X114701187Y-56185079D01*
X114722257Y-56195044D01*
X114742248Y-56207026D01*
X114760968Y-56220910D01*
X114778238Y-56236562D01*
X114793890Y-56253832D01*
X114807774Y-56272552D01*
X114819756Y-56292543D01*
X114829721Y-56313613D01*
X114837573Y-56335557D01*
X114843237Y-56358166D01*
X114846656Y-56381221D01*
X114847800Y-56404500D01*
X114847800Y-56879500D01*
X114846656Y-56902779D01*
X114843237Y-56925834D01*
X114837573Y-56948443D01*
X114829721Y-56970387D01*
X114819756Y-56991457D01*
X114807774Y-57011448D01*
X114793890Y-57030168D01*
X114778238Y-57047438D01*
X114760968Y-57063090D01*
X114742248Y-57076974D01*
X114722257Y-57088956D01*
X114701187Y-57098921D01*
X114679243Y-57106773D01*
X114656634Y-57112437D01*
X114633579Y-57115856D01*
X114610300Y-57117000D01*
X114035300Y-57117000D01*
X114012021Y-57115856D01*
X113988966Y-57112437D01*
X113966357Y-57106773D01*
X113944413Y-57098921D01*
X113923343Y-57088956D01*
X113903352Y-57076974D01*
X113884632Y-57063090D01*
X113867362Y-57047438D01*
X113851710Y-57030168D01*
X113837826Y-57011448D01*
X113825844Y-56991457D01*
X113815879Y-56970387D01*
X113808027Y-56948443D01*
X113802363Y-56925834D01*
X113798944Y-56902779D01*
X113797800Y-56879500D01*
X113797800Y-56404500D01*
X113798944Y-56381221D01*
X113802363Y-56358166D01*
X113808027Y-56335557D01*
X113815879Y-56313613D01*
X113825844Y-56292543D01*
X113837826Y-56272552D01*
X113851710Y-56253832D01*
X113867362Y-56236562D01*
X113884632Y-56220910D01*
X113903352Y-56207026D01*
X113923343Y-56195044D01*
X113944413Y-56185079D01*
X113966357Y-56177227D01*
X113988966Y-56171563D01*
X114012021Y-56168144D01*
X114035300Y-56167000D01*
X114610300Y-56167000D01*
X114633579Y-56168144D01*
X114633579Y-56168144D01*
G37*
D15*
X114322800Y-56642000D03*
D14*
G36*
X148850779Y-55356144D02*
G01*
X148873834Y-55359563D01*
X148896443Y-55365227D01*
X148918387Y-55373079D01*
X148939457Y-55383044D01*
X148959448Y-55395026D01*
X148978168Y-55408910D01*
X148995438Y-55424562D01*
X149011090Y-55441832D01*
X149024974Y-55460552D01*
X149036956Y-55480543D01*
X149046921Y-55501613D01*
X149054773Y-55523557D01*
X149060437Y-55546166D01*
X149063856Y-55569221D01*
X149065000Y-55592500D01*
X149065000Y-56167500D01*
X149063856Y-56190779D01*
X149060437Y-56213834D01*
X149054773Y-56236443D01*
X149046921Y-56258387D01*
X149036956Y-56279457D01*
X149024974Y-56299448D01*
X149011090Y-56318168D01*
X148995438Y-56335438D01*
X148978168Y-56351090D01*
X148959448Y-56364974D01*
X148939457Y-56376956D01*
X148918387Y-56386921D01*
X148896443Y-56394773D01*
X148873834Y-56400437D01*
X148850779Y-56403856D01*
X148827500Y-56405000D01*
X148352500Y-56405000D01*
X148329221Y-56403856D01*
X148306166Y-56400437D01*
X148283557Y-56394773D01*
X148261613Y-56386921D01*
X148240543Y-56376956D01*
X148220552Y-56364974D01*
X148201832Y-56351090D01*
X148184562Y-56335438D01*
X148168910Y-56318168D01*
X148155026Y-56299448D01*
X148143044Y-56279457D01*
X148133079Y-56258387D01*
X148125227Y-56236443D01*
X148119563Y-56213834D01*
X148116144Y-56190779D01*
X148115000Y-56167500D01*
X148115000Y-55592500D01*
X148116144Y-55569221D01*
X148119563Y-55546166D01*
X148125227Y-55523557D01*
X148133079Y-55501613D01*
X148143044Y-55480543D01*
X148155026Y-55460552D01*
X148168910Y-55441832D01*
X148184562Y-55424562D01*
X148201832Y-55408910D01*
X148220552Y-55395026D01*
X148240543Y-55383044D01*
X148261613Y-55373079D01*
X148283557Y-55365227D01*
X148306166Y-55359563D01*
X148329221Y-55356144D01*
X148352500Y-55355000D01*
X148827500Y-55355000D01*
X148850779Y-55356144D01*
X148850779Y-55356144D01*
G37*
D15*
X148590000Y-55880000D03*
D14*
G36*
X148850779Y-57106144D02*
G01*
X148873834Y-57109563D01*
X148896443Y-57115227D01*
X148918387Y-57123079D01*
X148939457Y-57133044D01*
X148959448Y-57145026D01*
X148978168Y-57158910D01*
X148995438Y-57174562D01*
X149011090Y-57191832D01*
X149024974Y-57210552D01*
X149036956Y-57230543D01*
X149046921Y-57251613D01*
X149054773Y-57273557D01*
X149060437Y-57296166D01*
X149063856Y-57319221D01*
X149065000Y-57342500D01*
X149065000Y-57917500D01*
X149063856Y-57940779D01*
X149060437Y-57963834D01*
X149054773Y-57986443D01*
X149046921Y-58008387D01*
X149036956Y-58029457D01*
X149024974Y-58049448D01*
X149011090Y-58068168D01*
X148995438Y-58085438D01*
X148978168Y-58101090D01*
X148959448Y-58114974D01*
X148939457Y-58126956D01*
X148918387Y-58136921D01*
X148896443Y-58144773D01*
X148873834Y-58150437D01*
X148850779Y-58153856D01*
X148827500Y-58155000D01*
X148352500Y-58155000D01*
X148329221Y-58153856D01*
X148306166Y-58150437D01*
X148283557Y-58144773D01*
X148261613Y-58136921D01*
X148240543Y-58126956D01*
X148220552Y-58114974D01*
X148201832Y-58101090D01*
X148184562Y-58085438D01*
X148168910Y-58068168D01*
X148155026Y-58049448D01*
X148143044Y-58029457D01*
X148133079Y-58008387D01*
X148125227Y-57986443D01*
X148119563Y-57963834D01*
X148116144Y-57940779D01*
X148115000Y-57917500D01*
X148115000Y-57342500D01*
X148116144Y-57319221D01*
X148119563Y-57296166D01*
X148125227Y-57273557D01*
X148133079Y-57251613D01*
X148143044Y-57230543D01*
X148155026Y-57210552D01*
X148168910Y-57191832D01*
X148184562Y-57174562D01*
X148201832Y-57158910D01*
X148220552Y-57145026D01*
X148240543Y-57133044D01*
X148261613Y-57123079D01*
X148283557Y-57115227D01*
X148306166Y-57109563D01*
X148329221Y-57106144D01*
X148352500Y-57105000D01*
X148827500Y-57105000D01*
X148850779Y-57106144D01*
X148850779Y-57106144D01*
G37*
D15*
X148590000Y-57630000D03*
D14*
G36*
X159010779Y-54086144D02*
G01*
X159033834Y-54089563D01*
X159056443Y-54095227D01*
X159078387Y-54103079D01*
X159099457Y-54113044D01*
X159119448Y-54125026D01*
X159138168Y-54138910D01*
X159155438Y-54154562D01*
X159171090Y-54171832D01*
X159184974Y-54190552D01*
X159196956Y-54210543D01*
X159206921Y-54231613D01*
X159214773Y-54253557D01*
X159220437Y-54276166D01*
X159223856Y-54299221D01*
X159225000Y-54322500D01*
X159225000Y-54897500D01*
X159223856Y-54920779D01*
X159220437Y-54943834D01*
X159214773Y-54966443D01*
X159206921Y-54988387D01*
X159196956Y-55009457D01*
X159184974Y-55029448D01*
X159171090Y-55048168D01*
X159155438Y-55065438D01*
X159138168Y-55081090D01*
X159119448Y-55094974D01*
X159099457Y-55106956D01*
X159078387Y-55116921D01*
X159056443Y-55124773D01*
X159033834Y-55130437D01*
X159010779Y-55133856D01*
X158987500Y-55135000D01*
X158512500Y-55135000D01*
X158489221Y-55133856D01*
X158466166Y-55130437D01*
X158443557Y-55124773D01*
X158421613Y-55116921D01*
X158400543Y-55106956D01*
X158380552Y-55094974D01*
X158361832Y-55081090D01*
X158344562Y-55065438D01*
X158328910Y-55048168D01*
X158315026Y-55029448D01*
X158303044Y-55009457D01*
X158293079Y-54988387D01*
X158285227Y-54966443D01*
X158279563Y-54943834D01*
X158276144Y-54920779D01*
X158275000Y-54897500D01*
X158275000Y-54322500D01*
X158276144Y-54299221D01*
X158279563Y-54276166D01*
X158285227Y-54253557D01*
X158293079Y-54231613D01*
X158303044Y-54210543D01*
X158315026Y-54190552D01*
X158328910Y-54171832D01*
X158344562Y-54154562D01*
X158361832Y-54138910D01*
X158380552Y-54125026D01*
X158400543Y-54113044D01*
X158421613Y-54103079D01*
X158443557Y-54095227D01*
X158466166Y-54089563D01*
X158489221Y-54086144D01*
X158512500Y-54085000D01*
X158987500Y-54085000D01*
X159010779Y-54086144D01*
X159010779Y-54086144D01*
G37*
D15*
X158750000Y-54610000D03*
D14*
G36*
X159010779Y-55836144D02*
G01*
X159033834Y-55839563D01*
X159056443Y-55845227D01*
X159078387Y-55853079D01*
X159099457Y-55863044D01*
X159119448Y-55875026D01*
X159138168Y-55888910D01*
X159155438Y-55904562D01*
X159171090Y-55921832D01*
X159184974Y-55940552D01*
X159196956Y-55960543D01*
X159206921Y-55981613D01*
X159214773Y-56003557D01*
X159220437Y-56026166D01*
X159223856Y-56049221D01*
X159225000Y-56072500D01*
X159225000Y-56647500D01*
X159223856Y-56670779D01*
X159220437Y-56693834D01*
X159214773Y-56716443D01*
X159206921Y-56738387D01*
X159196956Y-56759457D01*
X159184974Y-56779448D01*
X159171090Y-56798168D01*
X159155438Y-56815438D01*
X159138168Y-56831090D01*
X159119448Y-56844974D01*
X159099457Y-56856956D01*
X159078387Y-56866921D01*
X159056443Y-56874773D01*
X159033834Y-56880437D01*
X159010779Y-56883856D01*
X158987500Y-56885000D01*
X158512500Y-56885000D01*
X158489221Y-56883856D01*
X158466166Y-56880437D01*
X158443557Y-56874773D01*
X158421613Y-56866921D01*
X158400543Y-56856956D01*
X158380552Y-56844974D01*
X158361832Y-56831090D01*
X158344562Y-56815438D01*
X158328910Y-56798168D01*
X158315026Y-56779448D01*
X158303044Y-56759457D01*
X158293079Y-56738387D01*
X158285227Y-56716443D01*
X158279563Y-56693834D01*
X158276144Y-56670779D01*
X158275000Y-56647500D01*
X158275000Y-56072500D01*
X158276144Y-56049221D01*
X158279563Y-56026166D01*
X158285227Y-56003557D01*
X158293079Y-55981613D01*
X158303044Y-55960543D01*
X158315026Y-55940552D01*
X158328910Y-55921832D01*
X158344562Y-55904562D01*
X158361832Y-55888910D01*
X158380552Y-55875026D01*
X158400543Y-55863044D01*
X158421613Y-55853079D01*
X158443557Y-55845227D01*
X158466166Y-55839563D01*
X158489221Y-55836144D01*
X158512500Y-55835000D01*
X158987500Y-55835000D01*
X159010779Y-55836144D01*
X159010779Y-55836144D01*
G37*
D15*
X158750000Y-56360000D03*
D14*
G36*
X164090779Y-52816144D02*
G01*
X164113834Y-52819563D01*
X164136443Y-52825227D01*
X164158387Y-52833079D01*
X164179457Y-52843044D01*
X164199448Y-52855026D01*
X164218168Y-52868910D01*
X164235438Y-52884562D01*
X164251090Y-52901832D01*
X164264974Y-52920552D01*
X164276956Y-52940543D01*
X164286921Y-52961613D01*
X164294773Y-52983557D01*
X164300437Y-53006166D01*
X164303856Y-53029221D01*
X164305000Y-53052500D01*
X164305000Y-53627500D01*
X164303856Y-53650779D01*
X164300437Y-53673834D01*
X164294773Y-53696443D01*
X164286921Y-53718387D01*
X164276956Y-53739457D01*
X164264974Y-53759448D01*
X164251090Y-53778168D01*
X164235438Y-53795438D01*
X164218168Y-53811090D01*
X164199448Y-53824974D01*
X164179457Y-53836956D01*
X164158387Y-53846921D01*
X164136443Y-53854773D01*
X164113834Y-53860437D01*
X164090779Y-53863856D01*
X164067500Y-53865000D01*
X163592500Y-53865000D01*
X163569221Y-53863856D01*
X163546166Y-53860437D01*
X163523557Y-53854773D01*
X163501613Y-53846921D01*
X163480543Y-53836956D01*
X163460552Y-53824974D01*
X163441832Y-53811090D01*
X163424562Y-53795438D01*
X163408910Y-53778168D01*
X163395026Y-53759448D01*
X163383044Y-53739457D01*
X163373079Y-53718387D01*
X163365227Y-53696443D01*
X163359563Y-53673834D01*
X163356144Y-53650779D01*
X163355000Y-53627500D01*
X163355000Y-53052500D01*
X163356144Y-53029221D01*
X163359563Y-53006166D01*
X163365227Y-52983557D01*
X163373079Y-52961613D01*
X163383044Y-52940543D01*
X163395026Y-52920552D01*
X163408910Y-52901832D01*
X163424562Y-52884562D01*
X163441832Y-52868910D01*
X163460552Y-52855026D01*
X163480543Y-52843044D01*
X163501613Y-52833079D01*
X163523557Y-52825227D01*
X163546166Y-52819563D01*
X163569221Y-52816144D01*
X163592500Y-52815000D01*
X164067500Y-52815000D01*
X164090779Y-52816144D01*
X164090779Y-52816144D01*
G37*
D15*
X163830000Y-53340000D03*
D14*
G36*
X164090779Y-54566144D02*
G01*
X164113834Y-54569563D01*
X164136443Y-54575227D01*
X164158387Y-54583079D01*
X164179457Y-54593044D01*
X164199448Y-54605026D01*
X164218168Y-54618910D01*
X164235438Y-54634562D01*
X164251090Y-54651832D01*
X164264974Y-54670552D01*
X164276956Y-54690543D01*
X164286921Y-54711613D01*
X164294773Y-54733557D01*
X164300437Y-54756166D01*
X164303856Y-54779221D01*
X164305000Y-54802500D01*
X164305000Y-55377500D01*
X164303856Y-55400779D01*
X164300437Y-55423834D01*
X164294773Y-55446443D01*
X164286921Y-55468387D01*
X164276956Y-55489457D01*
X164264974Y-55509448D01*
X164251090Y-55528168D01*
X164235438Y-55545438D01*
X164218168Y-55561090D01*
X164199448Y-55574974D01*
X164179457Y-55586956D01*
X164158387Y-55596921D01*
X164136443Y-55604773D01*
X164113834Y-55610437D01*
X164090779Y-55613856D01*
X164067500Y-55615000D01*
X163592500Y-55615000D01*
X163569221Y-55613856D01*
X163546166Y-55610437D01*
X163523557Y-55604773D01*
X163501613Y-55596921D01*
X163480543Y-55586956D01*
X163460552Y-55574974D01*
X163441832Y-55561090D01*
X163424562Y-55545438D01*
X163408910Y-55528168D01*
X163395026Y-55509448D01*
X163383044Y-55489457D01*
X163373079Y-55468387D01*
X163365227Y-55446443D01*
X163359563Y-55423834D01*
X163356144Y-55400779D01*
X163355000Y-55377500D01*
X163355000Y-54802500D01*
X163356144Y-54779221D01*
X163359563Y-54756166D01*
X163365227Y-54733557D01*
X163373079Y-54711613D01*
X163383044Y-54690543D01*
X163395026Y-54670552D01*
X163408910Y-54651832D01*
X163424562Y-54634562D01*
X163441832Y-54618910D01*
X163460552Y-54605026D01*
X163480543Y-54593044D01*
X163501613Y-54583079D01*
X163523557Y-54575227D01*
X163546166Y-54569563D01*
X163569221Y-54566144D01*
X163592500Y-54565000D01*
X164067500Y-54565000D01*
X164090779Y-54566144D01*
X164090779Y-54566144D01*
G37*
D15*
X163830000Y-55090000D03*
D23*
X144453000Y-79756000D03*
X144453000Y-75184000D03*
D24*
X137703000Y-77470000D03*
M02*
