G04 #@! TF.GenerationSoftware,KiCad,Pcbnew,(5.1.4)-1*
G04 #@! TF.CreationDate,2020-02-16T21:06:34-06:00*
G04 #@! TF.ProjectId,SRA_Sensor_Board,5352415f-5365-46e7-936f-725f426f6172,rev?*
G04 #@! TF.SameCoordinates,Original*
G04 #@! TF.FileFunction,Paste,Top*
G04 #@! TF.FilePolarity,Positive*
%FSLAX46Y46*%
G04 Gerber Fmt 4.6, Leading zero omitted, Abs format (unit mm)*
G04 Created by KiCad (PCBNEW (5.1.4)-1) date 2020-02-16 21:06:34*
%MOMM*%
%LPD*%
G04 APERTURE LIST*
%ADD10C,1.520000*%
%ADD11C,5.080000*%
%ADD12R,0.400000X1.200000*%
%ADD13C,0.100000*%
%ADD14C,0.950000*%
%ADD15R,0.900000X0.800000*%
%ADD16R,2.200000X1.200000*%
%ADD17R,3.050000X2.750000*%
G04 APERTURE END LIST*
D10*
X92710000Y-57150000D03*
X90170000Y-57150000D03*
X87630000Y-57150000D03*
X85090000Y-57150000D03*
X82550000Y-57150000D03*
X80010000Y-57150000D03*
X77470000Y-57150000D03*
X74930000Y-57150000D03*
X72390000Y-57150000D03*
X69850000Y-57150000D03*
X92710000Y-59690000D03*
X90170000Y-59690000D03*
X87630000Y-59690000D03*
X85090000Y-59690000D03*
X82550000Y-59690000D03*
X80010000Y-59690000D03*
X77470000Y-59690000D03*
X74930000Y-59690000D03*
X72390000Y-59690000D03*
X69850000Y-59690000D03*
X92710000Y-102870000D03*
X90170000Y-102870000D03*
X87630000Y-102870000D03*
X85090000Y-102870000D03*
X82550000Y-102870000D03*
X80010000Y-102870000D03*
X77470000Y-102870000D03*
X74930000Y-102870000D03*
X72390000Y-102870000D03*
X69850000Y-102870000D03*
X92710000Y-100330000D03*
X90170000Y-100330000D03*
X87630000Y-100330000D03*
X85090000Y-100330000D03*
X82550000Y-100330000D03*
X80010000Y-100330000D03*
X77470000Y-100330000D03*
X74930000Y-100330000D03*
X72390000Y-100330000D03*
X69850000Y-100330000D03*
X138430000Y-57150000D03*
X135890000Y-57150000D03*
X133350000Y-57150000D03*
X156210000Y-59690000D03*
X153670000Y-59690000D03*
X151130000Y-59690000D03*
X148590000Y-59690000D03*
X146050000Y-59690000D03*
X143510000Y-59690000D03*
X140970000Y-59690000D03*
X138430000Y-59690000D03*
X135890000Y-59690000D03*
X133350000Y-59690000D03*
X156210000Y-102870000D03*
X151130000Y-102870000D03*
X146050000Y-102870000D03*
X143510000Y-102870000D03*
X140970000Y-102870000D03*
X138430000Y-102870000D03*
X135890000Y-102870000D03*
X156210000Y-100330000D03*
X151130000Y-100330000D03*
X140970000Y-100330000D03*
X138430000Y-100330000D03*
X135890000Y-100330000D03*
X133350000Y-100330000D03*
X146050000Y-100330000D03*
X148590000Y-100330000D03*
X153670000Y-102870000D03*
X140970000Y-57150000D03*
X143510000Y-57150000D03*
X153670000Y-100330000D03*
X148590000Y-102870000D03*
X151130000Y-57150000D03*
X148590000Y-57150000D03*
X143510000Y-100330000D03*
X146050000Y-57150000D03*
X153670000Y-57150000D03*
X156210000Y-57150000D03*
X133350000Y-102870000D03*
D11*
X121920000Y-62255400D03*
X114046000Y-62255400D03*
D12*
X93980000Y-74034000D03*
X93345000Y-74034000D03*
X92710000Y-74034000D03*
X92075000Y-74034000D03*
X91440000Y-74034000D03*
X90805000Y-74034000D03*
X90170000Y-74034000D03*
X89535000Y-74034000D03*
X89535000Y-68834000D03*
X90170000Y-68834000D03*
X90805000Y-68834000D03*
X91440000Y-68834000D03*
X92075000Y-68834000D03*
X92710000Y-68834000D03*
X93345000Y-68834000D03*
X93980000Y-68834000D03*
D13*
G36*
X98100779Y-73186144D02*
G01*
X98123834Y-73189563D01*
X98146443Y-73195227D01*
X98168387Y-73203079D01*
X98189457Y-73213044D01*
X98209448Y-73225026D01*
X98228168Y-73238910D01*
X98245438Y-73254562D01*
X98261090Y-73271832D01*
X98274974Y-73290552D01*
X98286956Y-73310543D01*
X98296921Y-73331613D01*
X98304773Y-73353557D01*
X98310437Y-73376166D01*
X98313856Y-73399221D01*
X98315000Y-73422500D01*
X98315000Y-73897500D01*
X98313856Y-73920779D01*
X98310437Y-73943834D01*
X98304773Y-73966443D01*
X98296921Y-73988387D01*
X98286956Y-74009457D01*
X98274974Y-74029448D01*
X98261090Y-74048168D01*
X98245438Y-74065438D01*
X98228168Y-74081090D01*
X98209448Y-74094974D01*
X98189457Y-74106956D01*
X98168387Y-74116921D01*
X98146443Y-74124773D01*
X98123834Y-74130437D01*
X98100779Y-74133856D01*
X98077500Y-74135000D01*
X97502500Y-74135000D01*
X97479221Y-74133856D01*
X97456166Y-74130437D01*
X97433557Y-74124773D01*
X97411613Y-74116921D01*
X97390543Y-74106956D01*
X97370552Y-74094974D01*
X97351832Y-74081090D01*
X97334562Y-74065438D01*
X97318910Y-74048168D01*
X97305026Y-74029448D01*
X97293044Y-74009457D01*
X97283079Y-73988387D01*
X97275227Y-73966443D01*
X97269563Y-73943834D01*
X97266144Y-73920779D01*
X97265000Y-73897500D01*
X97265000Y-73422500D01*
X97266144Y-73399221D01*
X97269563Y-73376166D01*
X97275227Y-73353557D01*
X97283079Y-73331613D01*
X97293044Y-73310543D01*
X97305026Y-73290552D01*
X97318910Y-73271832D01*
X97334562Y-73254562D01*
X97351832Y-73238910D01*
X97370552Y-73225026D01*
X97390543Y-73213044D01*
X97411613Y-73203079D01*
X97433557Y-73195227D01*
X97456166Y-73189563D01*
X97479221Y-73186144D01*
X97502500Y-73185000D01*
X98077500Y-73185000D01*
X98100779Y-73186144D01*
X98100779Y-73186144D01*
G37*
D14*
X97790000Y-73660000D03*
D13*
G36*
X96350779Y-73186144D02*
G01*
X96373834Y-73189563D01*
X96396443Y-73195227D01*
X96418387Y-73203079D01*
X96439457Y-73213044D01*
X96459448Y-73225026D01*
X96478168Y-73238910D01*
X96495438Y-73254562D01*
X96511090Y-73271832D01*
X96524974Y-73290552D01*
X96536956Y-73310543D01*
X96546921Y-73331613D01*
X96554773Y-73353557D01*
X96560437Y-73376166D01*
X96563856Y-73399221D01*
X96565000Y-73422500D01*
X96565000Y-73897500D01*
X96563856Y-73920779D01*
X96560437Y-73943834D01*
X96554773Y-73966443D01*
X96546921Y-73988387D01*
X96536956Y-74009457D01*
X96524974Y-74029448D01*
X96511090Y-74048168D01*
X96495438Y-74065438D01*
X96478168Y-74081090D01*
X96459448Y-74094974D01*
X96439457Y-74106956D01*
X96418387Y-74116921D01*
X96396443Y-74124773D01*
X96373834Y-74130437D01*
X96350779Y-74133856D01*
X96327500Y-74135000D01*
X95752500Y-74135000D01*
X95729221Y-74133856D01*
X95706166Y-74130437D01*
X95683557Y-74124773D01*
X95661613Y-74116921D01*
X95640543Y-74106956D01*
X95620552Y-74094974D01*
X95601832Y-74081090D01*
X95584562Y-74065438D01*
X95568910Y-74048168D01*
X95555026Y-74029448D01*
X95543044Y-74009457D01*
X95533079Y-73988387D01*
X95525227Y-73966443D01*
X95519563Y-73943834D01*
X95516144Y-73920779D01*
X95515000Y-73897500D01*
X95515000Y-73422500D01*
X95516144Y-73399221D01*
X95519563Y-73376166D01*
X95525227Y-73353557D01*
X95533079Y-73331613D01*
X95543044Y-73310543D01*
X95555026Y-73290552D01*
X95568910Y-73271832D01*
X95584562Y-73254562D01*
X95601832Y-73238910D01*
X95620552Y-73225026D01*
X95640543Y-73213044D01*
X95661613Y-73203079D01*
X95683557Y-73195227D01*
X95706166Y-73189563D01*
X95729221Y-73186144D01*
X95752500Y-73185000D01*
X96327500Y-73185000D01*
X96350779Y-73186144D01*
X96350779Y-73186144D01*
G37*
D14*
X96040000Y-73660000D03*
D13*
G36*
X98100779Y-68741144D02*
G01*
X98123834Y-68744563D01*
X98146443Y-68750227D01*
X98168387Y-68758079D01*
X98189457Y-68768044D01*
X98209448Y-68780026D01*
X98228168Y-68793910D01*
X98245438Y-68809562D01*
X98261090Y-68826832D01*
X98274974Y-68845552D01*
X98286956Y-68865543D01*
X98296921Y-68886613D01*
X98304773Y-68908557D01*
X98310437Y-68931166D01*
X98313856Y-68954221D01*
X98315000Y-68977500D01*
X98315000Y-69452500D01*
X98313856Y-69475779D01*
X98310437Y-69498834D01*
X98304773Y-69521443D01*
X98296921Y-69543387D01*
X98286956Y-69564457D01*
X98274974Y-69584448D01*
X98261090Y-69603168D01*
X98245438Y-69620438D01*
X98228168Y-69636090D01*
X98209448Y-69649974D01*
X98189457Y-69661956D01*
X98168387Y-69671921D01*
X98146443Y-69679773D01*
X98123834Y-69685437D01*
X98100779Y-69688856D01*
X98077500Y-69690000D01*
X97502500Y-69690000D01*
X97479221Y-69688856D01*
X97456166Y-69685437D01*
X97433557Y-69679773D01*
X97411613Y-69671921D01*
X97390543Y-69661956D01*
X97370552Y-69649974D01*
X97351832Y-69636090D01*
X97334562Y-69620438D01*
X97318910Y-69603168D01*
X97305026Y-69584448D01*
X97293044Y-69564457D01*
X97283079Y-69543387D01*
X97275227Y-69521443D01*
X97269563Y-69498834D01*
X97266144Y-69475779D01*
X97265000Y-69452500D01*
X97265000Y-68977500D01*
X97266144Y-68954221D01*
X97269563Y-68931166D01*
X97275227Y-68908557D01*
X97283079Y-68886613D01*
X97293044Y-68865543D01*
X97305026Y-68845552D01*
X97318910Y-68826832D01*
X97334562Y-68809562D01*
X97351832Y-68793910D01*
X97370552Y-68780026D01*
X97390543Y-68768044D01*
X97411613Y-68758079D01*
X97433557Y-68750227D01*
X97456166Y-68744563D01*
X97479221Y-68741144D01*
X97502500Y-68740000D01*
X98077500Y-68740000D01*
X98100779Y-68741144D01*
X98100779Y-68741144D01*
G37*
D14*
X97790000Y-69215000D03*
D13*
G36*
X96350779Y-68741144D02*
G01*
X96373834Y-68744563D01*
X96396443Y-68750227D01*
X96418387Y-68758079D01*
X96439457Y-68768044D01*
X96459448Y-68780026D01*
X96478168Y-68793910D01*
X96495438Y-68809562D01*
X96511090Y-68826832D01*
X96524974Y-68845552D01*
X96536956Y-68865543D01*
X96546921Y-68886613D01*
X96554773Y-68908557D01*
X96560437Y-68931166D01*
X96563856Y-68954221D01*
X96565000Y-68977500D01*
X96565000Y-69452500D01*
X96563856Y-69475779D01*
X96560437Y-69498834D01*
X96554773Y-69521443D01*
X96546921Y-69543387D01*
X96536956Y-69564457D01*
X96524974Y-69584448D01*
X96511090Y-69603168D01*
X96495438Y-69620438D01*
X96478168Y-69636090D01*
X96459448Y-69649974D01*
X96439457Y-69661956D01*
X96418387Y-69671921D01*
X96396443Y-69679773D01*
X96373834Y-69685437D01*
X96350779Y-69688856D01*
X96327500Y-69690000D01*
X95752500Y-69690000D01*
X95729221Y-69688856D01*
X95706166Y-69685437D01*
X95683557Y-69679773D01*
X95661613Y-69671921D01*
X95640543Y-69661956D01*
X95620552Y-69649974D01*
X95601832Y-69636090D01*
X95584562Y-69620438D01*
X95568910Y-69603168D01*
X95555026Y-69584448D01*
X95543044Y-69564457D01*
X95533079Y-69543387D01*
X95525227Y-69521443D01*
X95519563Y-69498834D01*
X95516144Y-69475779D01*
X95515000Y-69452500D01*
X95515000Y-68977500D01*
X95516144Y-68954221D01*
X95519563Y-68931166D01*
X95525227Y-68908557D01*
X95533079Y-68886613D01*
X95543044Y-68865543D01*
X95555026Y-68845552D01*
X95568910Y-68826832D01*
X95584562Y-68809562D01*
X95601832Y-68793910D01*
X95620552Y-68780026D01*
X95640543Y-68768044D01*
X95661613Y-68758079D01*
X95683557Y-68750227D01*
X95706166Y-68744563D01*
X95729221Y-68741144D01*
X95752500Y-68740000D01*
X96327500Y-68740000D01*
X96350779Y-68741144D01*
X96350779Y-68741144D01*
G37*
D14*
X96040000Y-69215000D03*
D13*
G36*
X86190779Y-68106144D02*
G01*
X86213834Y-68109563D01*
X86236443Y-68115227D01*
X86258387Y-68123079D01*
X86279457Y-68133044D01*
X86299448Y-68145026D01*
X86318168Y-68158910D01*
X86335438Y-68174562D01*
X86351090Y-68191832D01*
X86364974Y-68210552D01*
X86376956Y-68230543D01*
X86386921Y-68251613D01*
X86394773Y-68273557D01*
X86400437Y-68296166D01*
X86403856Y-68319221D01*
X86405000Y-68342500D01*
X86405000Y-68817500D01*
X86403856Y-68840779D01*
X86400437Y-68863834D01*
X86394773Y-68886443D01*
X86386921Y-68908387D01*
X86376956Y-68929457D01*
X86364974Y-68949448D01*
X86351090Y-68968168D01*
X86335438Y-68985438D01*
X86318168Y-69001090D01*
X86299448Y-69014974D01*
X86279457Y-69026956D01*
X86258387Y-69036921D01*
X86236443Y-69044773D01*
X86213834Y-69050437D01*
X86190779Y-69053856D01*
X86167500Y-69055000D01*
X85592500Y-69055000D01*
X85569221Y-69053856D01*
X85546166Y-69050437D01*
X85523557Y-69044773D01*
X85501613Y-69036921D01*
X85480543Y-69026956D01*
X85460552Y-69014974D01*
X85441832Y-69001090D01*
X85424562Y-68985438D01*
X85408910Y-68968168D01*
X85395026Y-68949448D01*
X85383044Y-68929457D01*
X85373079Y-68908387D01*
X85365227Y-68886443D01*
X85359563Y-68863834D01*
X85356144Y-68840779D01*
X85355000Y-68817500D01*
X85355000Y-68342500D01*
X85356144Y-68319221D01*
X85359563Y-68296166D01*
X85365227Y-68273557D01*
X85373079Y-68251613D01*
X85383044Y-68230543D01*
X85395026Y-68210552D01*
X85408910Y-68191832D01*
X85424562Y-68174562D01*
X85441832Y-68158910D01*
X85460552Y-68145026D01*
X85480543Y-68133044D01*
X85501613Y-68123079D01*
X85523557Y-68115227D01*
X85546166Y-68109563D01*
X85569221Y-68106144D01*
X85592500Y-68105000D01*
X86167500Y-68105000D01*
X86190779Y-68106144D01*
X86190779Y-68106144D01*
G37*
D14*
X85880000Y-68580000D03*
D13*
G36*
X87940779Y-68106144D02*
G01*
X87963834Y-68109563D01*
X87986443Y-68115227D01*
X88008387Y-68123079D01*
X88029457Y-68133044D01*
X88049448Y-68145026D01*
X88068168Y-68158910D01*
X88085438Y-68174562D01*
X88101090Y-68191832D01*
X88114974Y-68210552D01*
X88126956Y-68230543D01*
X88136921Y-68251613D01*
X88144773Y-68273557D01*
X88150437Y-68296166D01*
X88153856Y-68319221D01*
X88155000Y-68342500D01*
X88155000Y-68817500D01*
X88153856Y-68840779D01*
X88150437Y-68863834D01*
X88144773Y-68886443D01*
X88136921Y-68908387D01*
X88126956Y-68929457D01*
X88114974Y-68949448D01*
X88101090Y-68968168D01*
X88085438Y-68985438D01*
X88068168Y-69001090D01*
X88049448Y-69014974D01*
X88029457Y-69026956D01*
X88008387Y-69036921D01*
X87986443Y-69044773D01*
X87963834Y-69050437D01*
X87940779Y-69053856D01*
X87917500Y-69055000D01*
X87342500Y-69055000D01*
X87319221Y-69053856D01*
X87296166Y-69050437D01*
X87273557Y-69044773D01*
X87251613Y-69036921D01*
X87230543Y-69026956D01*
X87210552Y-69014974D01*
X87191832Y-69001090D01*
X87174562Y-68985438D01*
X87158910Y-68968168D01*
X87145026Y-68949448D01*
X87133044Y-68929457D01*
X87123079Y-68908387D01*
X87115227Y-68886443D01*
X87109563Y-68863834D01*
X87106144Y-68840779D01*
X87105000Y-68817500D01*
X87105000Y-68342500D01*
X87106144Y-68319221D01*
X87109563Y-68296166D01*
X87115227Y-68273557D01*
X87123079Y-68251613D01*
X87133044Y-68230543D01*
X87145026Y-68210552D01*
X87158910Y-68191832D01*
X87174562Y-68174562D01*
X87191832Y-68158910D01*
X87210552Y-68145026D01*
X87230543Y-68133044D01*
X87251613Y-68123079D01*
X87273557Y-68115227D01*
X87296166Y-68109563D01*
X87319221Y-68106144D01*
X87342500Y-68105000D01*
X87917500Y-68105000D01*
X87940779Y-68106144D01*
X87940779Y-68106144D01*
G37*
D14*
X87630000Y-68580000D03*
D13*
G36*
X86190779Y-73821144D02*
G01*
X86213834Y-73824563D01*
X86236443Y-73830227D01*
X86258387Y-73838079D01*
X86279457Y-73848044D01*
X86299448Y-73860026D01*
X86318168Y-73873910D01*
X86335438Y-73889562D01*
X86351090Y-73906832D01*
X86364974Y-73925552D01*
X86376956Y-73945543D01*
X86386921Y-73966613D01*
X86394773Y-73988557D01*
X86400437Y-74011166D01*
X86403856Y-74034221D01*
X86405000Y-74057500D01*
X86405000Y-74532500D01*
X86403856Y-74555779D01*
X86400437Y-74578834D01*
X86394773Y-74601443D01*
X86386921Y-74623387D01*
X86376956Y-74644457D01*
X86364974Y-74664448D01*
X86351090Y-74683168D01*
X86335438Y-74700438D01*
X86318168Y-74716090D01*
X86299448Y-74729974D01*
X86279457Y-74741956D01*
X86258387Y-74751921D01*
X86236443Y-74759773D01*
X86213834Y-74765437D01*
X86190779Y-74768856D01*
X86167500Y-74770000D01*
X85592500Y-74770000D01*
X85569221Y-74768856D01*
X85546166Y-74765437D01*
X85523557Y-74759773D01*
X85501613Y-74751921D01*
X85480543Y-74741956D01*
X85460552Y-74729974D01*
X85441832Y-74716090D01*
X85424562Y-74700438D01*
X85408910Y-74683168D01*
X85395026Y-74664448D01*
X85383044Y-74644457D01*
X85373079Y-74623387D01*
X85365227Y-74601443D01*
X85359563Y-74578834D01*
X85356144Y-74555779D01*
X85355000Y-74532500D01*
X85355000Y-74057500D01*
X85356144Y-74034221D01*
X85359563Y-74011166D01*
X85365227Y-73988557D01*
X85373079Y-73966613D01*
X85383044Y-73945543D01*
X85395026Y-73925552D01*
X85408910Y-73906832D01*
X85424562Y-73889562D01*
X85441832Y-73873910D01*
X85460552Y-73860026D01*
X85480543Y-73848044D01*
X85501613Y-73838079D01*
X85523557Y-73830227D01*
X85546166Y-73824563D01*
X85569221Y-73821144D01*
X85592500Y-73820000D01*
X86167500Y-73820000D01*
X86190779Y-73821144D01*
X86190779Y-73821144D01*
G37*
D14*
X85880000Y-74295000D03*
D13*
G36*
X87940779Y-73821144D02*
G01*
X87963834Y-73824563D01*
X87986443Y-73830227D01*
X88008387Y-73838079D01*
X88029457Y-73848044D01*
X88049448Y-73860026D01*
X88068168Y-73873910D01*
X88085438Y-73889562D01*
X88101090Y-73906832D01*
X88114974Y-73925552D01*
X88126956Y-73945543D01*
X88136921Y-73966613D01*
X88144773Y-73988557D01*
X88150437Y-74011166D01*
X88153856Y-74034221D01*
X88155000Y-74057500D01*
X88155000Y-74532500D01*
X88153856Y-74555779D01*
X88150437Y-74578834D01*
X88144773Y-74601443D01*
X88136921Y-74623387D01*
X88126956Y-74644457D01*
X88114974Y-74664448D01*
X88101090Y-74683168D01*
X88085438Y-74700438D01*
X88068168Y-74716090D01*
X88049448Y-74729974D01*
X88029457Y-74741956D01*
X88008387Y-74751921D01*
X87986443Y-74759773D01*
X87963834Y-74765437D01*
X87940779Y-74768856D01*
X87917500Y-74770000D01*
X87342500Y-74770000D01*
X87319221Y-74768856D01*
X87296166Y-74765437D01*
X87273557Y-74759773D01*
X87251613Y-74751921D01*
X87230543Y-74741956D01*
X87210552Y-74729974D01*
X87191832Y-74716090D01*
X87174562Y-74700438D01*
X87158910Y-74683168D01*
X87145026Y-74664448D01*
X87133044Y-74644457D01*
X87123079Y-74623387D01*
X87115227Y-74601443D01*
X87109563Y-74578834D01*
X87106144Y-74555779D01*
X87105000Y-74532500D01*
X87105000Y-74057500D01*
X87106144Y-74034221D01*
X87109563Y-74011166D01*
X87115227Y-73988557D01*
X87123079Y-73966613D01*
X87133044Y-73945543D01*
X87145026Y-73925552D01*
X87158910Y-73906832D01*
X87174562Y-73889562D01*
X87191832Y-73873910D01*
X87210552Y-73860026D01*
X87230543Y-73848044D01*
X87251613Y-73838079D01*
X87273557Y-73830227D01*
X87296166Y-73824563D01*
X87319221Y-73821144D01*
X87342500Y-73820000D01*
X87917500Y-73820000D01*
X87940779Y-73821144D01*
X87940779Y-73821144D01*
G37*
D14*
X87630000Y-74295000D03*
D13*
G36*
X91270779Y-66201144D02*
G01*
X91293834Y-66204563D01*
X91316443Y-66210227D01*
X91338387Y-66218079D01*
X91359457Y-66228044D01*
X91379448Y-66240026D01*
X91398168Y-66253910D01*
X91415438Y-66269562D01*
X91431090Y-66286832D01*
X91444974Y-66305552D01*
X91456956Y-66325543D01*
X91466921Y-66346613D01*
X91474773Y-66368557D01*
X91480437Y-66391166D01*
X91483856Y-66414221D01*
X91485000Y-66437500D01*
X91485000Y-66912500D01*
X91483856Y-66935779D01*
X91480437Y-66958834D01*
X91474773Y-66981443D01*
X91466921Y-67003387D01*
X91456956Y-67024457D01*
X91444974Y-67044448D01*
X91431090Y-67063168D01*
X91415438Y-67080438D01*
X91398168Y-67096090D01*
X91379448Y-67109974D01*
X91359457Y-67121956D01*
X91338387Y-67131921D01*
X91316443Y-67139773D01*
X91293834Y-67145437D01*
X91270779Y-67148856D01*
X91247500Y-67150000D01*
X90672500Y-67150000D01*
X90649221Y-67148856D01*
X90626166Y-67145437D01*
X90603557Y-67139773D01*
X90581613Y-67131921D01*
X90560543Y-67121956D01*
X90540552Y-67109974D01*
X90521832Y-67096090D01*
X90504562Y-67080438D01*
X90488910Y-67063168D01*
X90475026Y-67044448D01*
X90463044Y-67024457D01*
X90453079Y-67003387D01*
X90445227Y-66981443D01*
X90439563Y-66958834D01*
X90436144Y-66935779D01*
X90435000Y-66912500D01*
X90435000Y-66437500D01*
X90436144Y-66414221D01*
X90439563Y-66391166D01*
X90445227Y-66368557D01*
X90453079Y-66346613D01*
X90463044Y-66325543D01*
X90475026Y-66305552D01*
X90488910Y-66286832D01*
X90504562Y-66269562D01*
X90521832Y-66253910D01*
X90540552Y-66240026D01*
X90560543Y-66228044D01*
X90581613Y-66218079D01*
X90603557Y-66210227D01*
X90626166Y-66204563D01*
X90649221Y-66201144D01*
X90672500Y-66200000D01*
X91247500Y-66200000D01*
X91270779Y-66201144D01*
X91270779Y-66201144D01*
G37*
D14*
X90960000Y-66675000D03*
D13*
G36*
X93020779Y-66201144D02*
G01*
X93043834Y-66204563D01*
X93066443Y-66210227D01*
X93088387Y-66218079D01*
X93109457Y-66228044D01*
X93129448Y-66240026D01*
X93148168Y-66253910D01*
X93165438Y-66269562D01*
X93181090Y-66286832D01*
X93194974Y-66305552D01*
X93206956Y-66325543D01*
X93216921Y-66346613D01*
X93224773Y-66368557D01*
X93230437Y-66391166D01*
X93233856Y-66414221D01*
X93235000Y-66437500D01*
X93235000Y-66912500D01*
X93233856Y-66935779D01*
X93230437Y-66958834D01*
X93224773Y-66981443D01*
X93216921Y-67003387D01*
X93206956Y-67024457D01*
X93194974Y-67044448D01*
X93181090Y-67063168D01*
X93165438Y-67080438D01*
X93148168Y-67096090D01*
X93129448Y-67109974D01*
X93109457Y-67121956D01*
X93088387Y-67131921D01*
X93066443Y-67139773D01*
X93043834Y-67145437D01*
X93020779Y-67148856D01*
X92997500Y-67150000D01*
X92422500Y-67150000D01*
X92399221Y-67148856D01*
X92376166Y-67145437D01*
X92353557Y-67139773D01*
X92331613Y-67131921D01*
X92310543Y-67121956D01*
X92290552Y-67109974D01*
X92271832Y-67096090D01*
X92254562Y-67080438D01*
X92238910Y-67063168D01*
X92225026Y-67044448D01*
X92213044Y-67024457D01*
X92203079Y-67003387D01*
X92195227Y-66981443D01*
X92189563Y-66958834D01*
X92186144Y-66935779D01*
X92185000Y-66912500D01*
X92185000Y-66437500D01*
X92186144Y-66414221D01*
X92189563Y-66391166D01*
X92195227Y-66368557D01*
X92203079Y-66346613D01*
X92213044Y-66325543D01*
X92225026Y-66305552D01*
X92238910Y-66286832D01*
X92254562Y-66269562D01*
X92271832Y-66253910D01*
X92290552Y-66240026D01*
X92310543Y-66228044D01*
X92331613Y-66218079D01*
X92353557Y-66210227D01*
X92376166Y-66204563D01*
X92399221Y-66201144D01*
X92422500Y-66200000D01*
X92997500Y-66200000D01*
X93020779Y-66201144D01*
X93020779Y-66201144D01*
G37*
D14*
X92710000Y-66675000D03*
D13*
G36*
X84080779Y-69961144D02*
G01*
X84103834Y-69964563D01*
X84126443Y-69970227D01*
X84148387Y-69978079D01*
X84169457Y-69988044D01*
X84189448Y-70000026D01*
X84208168Y-70013910D01*
X84225438Y-70029562D01*
X84241090Y-70046832D01*
X84254974Y-70065552D01*
X84266956Y-70085543D01*
X84276921Y-70106613D01*
X84284773Y-70128557D01*
X84290437Y-70151166D01*
X84293856Y-70174221D01*
X84295000Y-70197500D01*
X84295000Y-70772500D01*
X84293856Y-70795779D01*
X84290437Y-70818834D01*
X84284773Y-70841443D01*
X84276921Y-70863387D01*
X84266956Y-70884457D01*
X84254974Y-70904448D01*
X84241090Y-70923168D01*
X84225438Y-70940438D01*
X84208168Y-70956090D01*
X84189448Y-70969974D01*
X84169457Y-70981956D01*
X84148387Y-70991921D01*
X84126443Y-70999773D01*
X84103834Y-71005437D01*
X84080779Y-71008856D01*
X84057500Y-71010000D01*
X83582500Y-71010000D01*
X83559221Y-71008856D01*
X83536166Y-71005437D01*
X83513557Y-70999773D01*
X83491613Y-70991921D01*
X83470543Y-70981956D01*
X83450552Y-70969974D01*
X83431832Y-70956090D01*
X83414562Y-70940438D01*
X83398910Y-70923168D01*
X83385026Y-70904448D01*
X83373044Y-70884457D01*
X83363079Y-70863387D01*
X83355227Y-70841443D01*
X83349563Y-70818834D01*
X83346144Y-70795779D01*
X83345000Y-70772500D01*
X83345000Y-70197500D01*
X83346144Y-70174221D01*
X83349563Y-70151166D01*
X83355227Y-70128557D01*
X83363079Y-70106613D01*
X83373044Y-70085543D01*
X83385026Y-70065552D01*
X83398910Y-70046832D01*
X83414562Y-70029562D01*
X83431832Y-70013910D01*
X83450552Y-70000026D01*
X83470543Y-69988044D01*
X83491613Y-69978079D01*
X83513557Y-69970227D01*
X83536166Y-69964563D01*
X83559221Y-69961144D01*
X83582500Y-69960000D01*
X84057500Y-69960000D01*
X84080779Y-69961144D01*
X84080779Y-69961144D01*
G37*
D14*
X83820000Y-70485000D03*
D13*
G36*
X84080779Y-68211144D02*
G01*
X84103834Y-68214563D01*
X84126443Y-68220227D01*
X84148387Y-68228079D01*
X84169457Y-68238044D01*
X84189448Y-68250026D01*
X84208168Y-68263910D01*
X84225438Y-68279562D01*
X84241090Y-68296832D01*
X84254974Y-68315552D01*
X84266956Y-68335543D01*
X84276921Y-68356613D01*
X84284773Y-68378557D01*
X84290437Y-68401166D01*
X84293856Y-68424221D01*
X84295000Y-68447500D01*
X84295000Y-69022500D01*
X84293856Y-69045779D01*
X84290437Y-69068834D01*
X84284773Y-69091443D01*
X84276921Y-69113387D01*
X84266956Y-69134457D01*
X84254974Y-69154448D01*
X84241090Y-69173168D01*
X84225438Y-69190438D01*
X84208168Y-69206090D01*
X84189448Y-69219974D01*
X84169457Y-69231956D01*
X84148387Y-69241921D01*
X84126443Y-69249773D01*
X84103834Y-69255437D01*
X84080779Y-69258856D01*
X84057500Y-69260000D01*
X83582500Y-69260000D01*
X83559221Y-69258856D01*
X83536166Y-69255437D01*
X83513557Y-69249773D01*
X83491613Y-69241921D01*
X83470543Y-69231956D01*
X83450552Y-69219974D01*
X83431832Y-69206090D01*
X83414562Y-69190438D01*
X83398910Y-69173168D01*
X83385026Y-69154448D01*
X83373044Y-69134457D01*
X83363079Y-69113387D01*
X83355227Y-69091443D01*
X83349563Y-69068834D01*
X83346144Y-69045779D01*
X83345000Y-69022500D01*
X83345000Y-68447500D01*
X83346144Y-68424221D01*
X83349563Y-68401166D01*
X83355227Y-68378557D01*
X83363079Y-68356613D01*
X83373044Y-68335543D01*
X83385026Y-68315552D01*
X83398910Y-68296832D01*
X83414562Y-68279562D01*
X83431832Y-68263910D01*
X83450552Y-68250026D01*
X83470543Y-68238044D01*
X83491613Y-68228079D01*
X83513557Y-68220227D01*
X83536166Y-68214563D01*
X83559221Y-68211144D01*
X83582500Y-68210000D01*
X84057500Y-68210000D01*
X84080779Y-68211144D01*
X84080779Y-68211144D01*
G37*
D14*
X83820000Y-68735000D03*
D13*
G36*
X84080779Y-72021144D02*
G01*
X84103834Y-72024563D01*
X84126443Y-72030227D01*
X84148387Y-72038079D01*
X84169457Y-72048044D01*
X84189448Y-72060026D01*
X84208168Y-72073910D01*
X84225438Y-72089562D01*
X84241090Y-72106832D01*
X84254974Y-72125552D01*
X84266956Y-72145543D01*
X84276921Y-72166613D01*
X84284773Y-72188557D01*
X84290437Y-72211166D01*
X84293856Y-72234221D01*
X84295000Y-72257500D01*
X84295000Y-72832500D01*
X84293856Y-72855779D01*
X84290437Y-72878834D01*
X84284773Y-72901443D01*
X84276921Y-72923387D01*
X84266956Y-72944457D01*
X84254974Y-72964448D01*
X84241090Y-72983168D01*
X84225438Y-73000438D01*
X84208168Y-73016090D01*
X84189448Y-73029974D01*
X84169457Y-73041956D01*
X84148387Y-73051921D01*
X84126443Y-73059773D01*
X84103834Y-73065437D01*
X84080779Y-73068856D01*
X84057500Y-73070000D01*
X83582500Y-73070000D01*
X83559221Y-73068856D01*
X83536166Y-73065437D01*
X83513557Y-73059773D01*
X83491613Y-73051921D01*
X83470543Y-73041956D01*
X83450552Y-73029974D01*
X83431832Y-73016090D01*
X83414562Y-73000438D01*
X83398910Y-72983168D01*
X83385026Y-72964448D01*
X83373044Y-72944457D01*
X83363079Y-72923387D01*
X83355227Y-72901443D01*
X83349563Y-72878834D01*
X83346144Y-72855779D01*
X83345000Y-72832500D01*
X83345000Y-72257500D01*
X83346144Y-72234221D01*
X83349563Y-72211166D01*
X83355227Y-72188557D01*
X83363079Y-72166613D01*
X83373044Y-72145543D01*
X83385026Y-72125552D01*
X83398910Y-72106832D01*
X83414562Y-72089562D01*
X83431832Y-72073910D01*
X83450552Y-72060026D01*
X83470543Y-72048044D01*
X83491613Y-72038079D01*
X83513557Y-72030227D01*
X83536166Y-72024563D01*
X83559221Y-72021144D01*
X83582500Y-72020000D01*
X84057500Y-72020000D01*
X84080779Y-72021144D01*
X84080779Y-72021144D01*
G37*
D14*
X83820000Y-72545000D03*
D13*
G36*
X84080779Y-73771144D02*
G01*
X84103834Y-73774563D01*
X84126443Y-73780227D01*
X84148387Y-73788079D01*
X84169457Y-73798044D01*
X84189448Y-73810026D01*
X84208168Y-73823910D01*
X84225438Y-73839562D01*
X84241090Y-73856832D01*
X84254974Y-73875552D01*
X84266956Y-73895543D01*
X84276921Y-73916613D01*
X84284773Y-73938557D01*
X84290437Y-73961166D01*
X84293856Y-73984221D01*
X84295000Y-74007500D01*
X84295000Y-74582500D01*
X84293856Y-74605779D01*
X84290437Y-74628834D01*
X84284773Y-74651443D01*
X84276921Y-74673387D01*
X84266956Y-74694457D01*
X84254974Y-74714448D01*
X84241090Y-74733168D01*
X84225438Y-74750438D01*
X84208168Y-74766090D01*
X84189448Y-74779974D01*
X84169457Y-74791956D01*
X84148387Y-74801921D01*
X84126443Y-74809773D01*
X84103834Y-74815437D01*
X84080779Y-74818856D01*
X84057500Y-74820000D01*
X83582500Y-74820000D01*
X83559221Y-74818856D01*
X83536166Y-74815437D01*
X83513557Y-74809773D01*
X83491613Y-74801921D01*
X83470543Y-74791956D01*
X83450552Y-74779974D01*
X83431832Y-74766090D01*
X83414562Y-74750438D01*
X83398910Y-74733168D01*
X83385026Y-74714448D01*
X83373044Y-74694457D01*
X83363079Y-74673387D01*
X83355227Y-74651443D01*
X83349563Y-74628834D01*
X83346144Y-74605779D01*
X83345000Y-74582500D01*
X83345000Y-74007500D01*
X83346144Y-73984221D01*
X83349563Y-73961166D01*
X83355227Y-73938557D01*
X83363079Y-73916613D01*
X83373044Y-73895543D01*
X83385026Y-73875552D01*
X83398910Y-73856832D01*
X83414562Y-73839562D01*
X83431832Y-73823910D01*
X83450552Y-73810026D01*
X83470543Y-73798044D01*
X83491613Y-73788079D01*
X83513557Y-73780227D01*
X83536166Y-73774563D01*
X83559221Y-73771144D01*
X83582500Y-73770000D01*
X84057500Y-73770000D01*
X84080779Y-73771144D01*
X84080779Y-73771144D01*
G37*
D14*
X83820000Y-74295000D03*
D13*
G36*
X127260779Y-81151144D02*
G01*
X127283834Y-81154563D01*
X127306443Y-81160227D01*
X127328387Y-81168079D01*
X127349457Y-81178044D01*
X127369448Y-81190026D01*
X127388168Y-81203910D01*
X127405438Y-81219562D01*
X127421090Y-81236832D01*
X127434974Y-81255552D01*
X127446956Y-81275543D01*
X127456921Y-81296613D01*
X127464773Y-81318557D01*
X127470437Y-81341166D01*
X127473856Y-81364221D01*
X127475000Y-81387500D01*
X127475000Y-81962500D01*
X127473856Y-81985779D01*
X127470437Y-82008834D01*
X127464773Y-82031443D01*
X127456921Y-82053387D01*
X127446956Y-82074457D01*
X127434974Y-82094448D01*
X127421090Y-82113168D01*
X127405438Y-82130438D01*
X127388168Y-82146090D01*
X127369448Y-82159974D01*
X127349457Y-82171956D01*
X127328387Y-82181921D01*
X127306443Y-82189773D01*
X127283834Y-82195437D01*
X127260779Y-82198856D01*
X127237500Y-82200000D01*
X126762500Y-82200000D01*
X126739221Y-82198856D01*
X126716166Y-82195437D01*
X126693557Y-82189773D01*
X126671613Y-82181921D01*
X126650543Y-82171956D01*
X126630552Y-82159974D01*
X126611832Y-82146090D01*
X126594562Y-82130438D01*
X126578910Y-82113168D01*
X126565026Y-82094448D01*
X126553044Y-82074457D01*
X126543079Y-82053387D01*
X126535227Y-82031443D01*
X126529563Y-82008834D01*
X126526144Y-81985779D01*
X126525000Y-81962500D01*
X126525000Y-81387500D01*
X126526144Y-81364221D01*
X126529563Y-81341166D01*
X126535227Y-81318557D01*
X126543079Y-81296613D01*
X126553044Y-81275543D01*
X126565026Y-81255552D01*
X126578910Y-81236832D01*
X126594562Y-81219562D01*
X126611832Y-81203910D01*
X126630552Y-81190026D01*
X126650543Y-81178044D01*
X126671613Y-81168079D01*
X126693557Y-81160227D01*
X126716166Y-81154563D01*
X126739221Y-81151144D01*
X126762500Y-81150000D01*
X127237500Y-81150000D01*
X127260779Y-81151144D01*
X127260779Y-81151144D01*
G37*
D14*
X127000000Y-81675000D03*
D13*
G36*
X127260779Y-82901144D02*
G01*
X127283834Y-82904563D01*
X127306443Y-82910227D01*
X127328387Y-82918079D01*
X127349457Y-82928044D01*
X127369448Y-82940026D01*
X127388168Y-82953910D01*
X127405438Y-82969562D01*
X127421090Y-82986832D01*
X127434974Y-83005552D01*
X127446956Y-83025543D01*
X127456921Y-83046613D01*
X127464773Y-83068557D01*
X127470437Y-83091166D01*
X127473856Y-83114221D01*
X127475000Y-83137500D01*
X127475000Y-83712500D01*
X127473856Y-83735779D01*
X127470437Y-83758834D01*
X127464773Y-83781443D01*
X127456921Y-83803387D01*
X127446956Y-83824457D01*
X127434974Y-83844448D01*
X127421090Y-83863168D01*
X127405438Y-83880438D01*
X127388168Y-83896090D01*
X127369448Y-83909974D01*
X127349457Y-83921956D01*
X127328387Y-83931921D01*
X127306443Y-83939773D01*
X127283834Y-83945437D01*
X127260779Y-83948856D01*
X127237500Y-83950000D01*
X126762500Y-83950000D01*
X126739221Y-83948856D01*
X126716166Y-83945437D01*
X126693557Y-83939773D01*
X126671613Y-83931921D01*
X126650543Y-83921956D01*
X126630552Y-83909974D01*
X126611832Y-83896090D01*
X126594562Y-83880438D01*
X126578910Y-83863168D01*
X126565026Y-83844448D01*
X126553044Y-83824457D01*
X126543079Y-83803387D01*
X126535227Y-83781443D01*
X126529563Y-83758834D01*
X126526144Y-83735779D01*
X126525000Y-83712500D01*
X126525000Y-83137500D01*
X126526144Y-83114221D01*
X126529563Y-83091166D01*
X126535227Y-83068557D01*
X126543079Y-83046613D01*
X126553044Y-83025543D01*
X126565026Y-83005552D01*
X126578910Y-82986832D01*
X126594562Y-82969562D01*
X126611832Y-82953910D01*
X126630552Y-82940026D01*
X126650543Y-82928044D01*
X126671613Y-82918079D01*
X126693557Y-82910227D01*
X126716166Y-82904563D01*
X126739221Y-82901144D01*
X126762500Y-82900000D01*
X127237500Y-82900000D01*
X127260779Y-82901144D01*
X127260779Y-82901144D01*
G37*
D14*
X127000000Y-83425000D03*
D15*
X122190000Y-82550000D03*
X124190000Y-81600000D03*
X124190000Y-83500000D03*
D13*
G36*
X119640779Y-75676144D02*
G01*
X119663834Y-75679563D01*
X119686443Y-75685227D01*
X119708387Y-75693079D01*
X119729457Y-75703044D01*
X119749448Y-75715026D01*
X119768168Y-75728910D01*
X119785438Y-75744562D01*
X119801090Y-75761832D01*
X119814974Y-75780552D01*
X119826956Y-75800543D01*
X119836921Y-75821613D01*
X119844773Y-75843557D01*
X119850437Y-75866166D01*
X119853856Y-75889221D01*
X119855000Y-75912500D01*
X119855000Y-76487500D01*
X119853856Y-76510779D01*
X119850437Y-76533834D01*
X119844773Y-76556443D01*
X119836921Y-76578387D01*
X119826956Y-76599457D01*
X119814974Y-76619448D01*
X119801090Y-76638168D01*
X119785438Y-76655438D01*
X119768168Y-76671090D01*
X119749448Y-76684974D01*
X119729457Y-76696956D01*
X119708387Y-76706921D01*
X119686443Y-76714773D01*
X119663834Y-76720437D01*
X119640779Y-76723856D01*
X119617500Y-76725000D01*
X119142500Y-76725000D01*
X119119221Y-76723856D01*
X119096166Y-76720437D01*
X119073557Y-76714773D01*
X119051613Y-76706921D01*
X119030543Y-76696956D01*
X119010552Y-76684974D01*
X118991832Y-76671090D01*
X118974562Y-76655438D01*
X118958910Y-76638168D01*
X118945026Y-76619448D01*
X118933044Y-76599457D01*
X118923079Y-76578387D01*
X118915227Y-76556443D01*
X118909563Y-76533834D01*
X118906144Y-76510779D01*
X118905000Y-76487500D01*
X118905000Y-75912500D01*
X118906144Y-75889221D01*
X118909563Y-75866166D01*
X118915227Y-75843557D01*
X118923079Y-75821613D01*
X118933044Y-75800543D01*
X118945026Y-75780552D01*
X118958910Y-75761832D01*
X118974562Y-75744562D01*
X118991832Y-75728910D01*
X119010552Y-75715026D01*
X119030543Y-75703044D01*
X119051613Y-75693079D01*
X119073557Y-75685227D01*
X119096166Y-75679563D01*
X119119221Y-75676144D01*
X119142500Y-75675000D01*
X119617500Y-75675000D01*
X119640779Y-75676144D01*
X119640779Y-75676144D01*
G37*
D14*
X119380000Y-76200000D03*
D13*
G36*
X119640779Y-77426144D02*
G01*
X119663834Y-77429563D01*
X119686443Y-77435227D01*
X119708387Y-77443079D01*
X119729457Y-77453044D01*
X119749448Y-77465026D01*
X119768168Y-77478910D01*
X119785438Y-77494562D01*
X119801090Y-77511832D01*
X119814974Y-77530552D01*
X119826956Y-77550543D01*
X119836921Y-77571613D01*
X119844773Y-77593557D01*
X119850437Y-77616166D01*
X119853856Y-77639221D01*
X119855000Y-77662500D01*
X119855000Y-78237500D01*
X119853856Y-78260779D01*
X119850437Y-78283834D01*
X119844773Y-78306443D01*
X119836921Y-78328387D01*
X119826956Y-78349457D01*
X119814974Y-78369448D01*
X119801090Y-78388168D01*
X119785438Y-78405438D01*
X119768168Y-78421090D01*
X119749448Y-78434974D01*
X119729457Y-78446956D01*
X119708387Y-78456921D01*
X119686443Y-78464773D01*
X119663834Y-78470437D01*
X119640779Y-78473856D01*
X119617500Y-78475000D01*
X119142500Y-78475000D01*
X119119221Y-78473856D01*
X119096166Y-78470437D01*
X119073557Y-78464773D01*
X119051613Y-78456921D01*
X119030543Y-78446956D01*
X119010552Y-78434974D01*
X118991832Y-78421090D01*
X118974562Y-78405438D01*
X118958910Y-78388168D01*
X118945026Y-78369448D01*
X118933044Y-78349457D01*
X118923079Y-78328387D01*
X118915227Y-78306443D01*
X118909563Y-78283834D01*
X118906144Y-78260779D01*
X118905000Y-78237500D01*
X118905000Y-77662500D01*
X118906144Y-77639221D01*
X118909563Y-77616166D01*
X118915227Y-77593557D01*
X118923079Y-77571613D01*
X118933044Y-77550543D01*
X118945026Y-77530552D01*
X118958910Y-77511832D01*
X118974562Y-77494562D01*
X118991832Y-77478910D01*
X119010552Y-77465026D01*
X119030543Y-77453044D01*
X119051613Y-77443079D01*
X119073557Y-77435227D01*
X119096166Y-77429563D01*
X119119221Y-77426144D01*
X119142500Y-77425000D01*
X119617500Y-77425000D01*
X119640779Y-77426144D01*
X119640779Y-77426144D01*
G37*
D14*
X119380000Y-77950000D03*
D13*
G36*
X147580779Y-88771144D02*
G01*
X147603834Y-88774563D01*
X147626443Y-88780227D01*
X147648387Y-88788079D01*
X147669457Y-88798044D01*
X147689448Y-88810026D01*
X147708168Y-88823910D01*
X147725438Y-88839562D01*
X147741090Y-88856832D01*
X147754974Y-88875552D01*
X147766956Y-88895543D01*
X147776921Y-88916613D01*
X147784773Y-88938557D01*
X147790437Y-88961166D01*
X147793856Y-88984221D01*
X147795000Y-89007500D01*
X147795000Y-89582500D01*
X147793856Y-89605779D01*
X147790437Y-89628834D01*
X147784773Y-89651443D01*
X147776921Y-89673387D01*
X147766956Y-89694457D01*
X147754974Y-89714448D01*
X147741090Y-89733168D01*
X147725438Y-89750438D01*
X147708168Y-89766090D01*
X147689448Y-89779974D01*
X147669457Y-89791956D01*
X147648387Y-89801921D01*
X147626443Y-89809773D01*
X147603834Y-89815437D01*
X147580779Y-89818856D01*
X147557500Y-89820000D01*
X147082500Y-89820000D01*
X147059221Y-89818856D01*
X147036166Y-89815437D01*
X147013557Y-89809773D01*
X146991613Y-89801921D01*
X146970543Y-89791956D01*
X146950552Y-89779974D01*
X146931832Y-89766090D01*
X146914562Y-89750438D01*
X146898910Y-89733168D01*
X146885026Y-89714448D01*
X146873044Y-89694457D01*
X146863079Y-89673387D01*
X146855227Y-89651443D01*
X146849563Y-89628834D01*
X146846144Y-89605779D01*
X146845000Y-89582500D01*
X146845000Y-89007500D01*
X146846144Y-88984221D01*
X146849563Y-88961166D01*
X146855227Y-88938557D01*
X146863079Y-88916613D01*
X146873044Y-88895543D01*
X146885026Y-88875552D01*
X146898910Y-88856832D01*
X146914562Y-88839562D01*
X146931832Y-88823910D01*
X146950552Y-88810026D01*
X146970543Y-88798044D01*
X146991613Y-88788079D01*
X147013557Y-88780227D01*
X147036166Y-88774563D01*
X147059221Y-88771144D01*
X147082500Y-88770000D01*
X147557500Y-88770000D01*
X147580779Y-88771144D01*
X147580779Y-88771144D01*
G37*
D14*
X147320000Y-89295000D03*
D13*
G36*
X147580779Y-90521144D02*
G01*
X147603834Y-90524563D01*
X147626443Y-90530227D01*
X147648387Y-90538079D01*
X147669457Y-90548044D01*
X147689448Y-90560026D01*
X147708168Y-90573910D01*
X147725438Y-90589562D01*
X147741090Y-90606832D01*
X147754974Y-90625552D01*
X147766956Y-90645543D01*
X147776921Y-90666613D01*
X147784773Y-90688557D01*
X147790437Y-90711166D01*
X147793856Y-90734221D01*
X147795000Y-90757500D01*
X147795000Y-91332500D01*
X147793856Y-91355779D01*
X147790437Y-91378834D01*
X147784773Y-91401443D01*
X147776921Y-91423387D01*
X147766956Y-91444457D01*
X147754974Y-91464448D01*
X147741090Y-91483168D01*
X147725438Y-91500438D01*
X147708168Y-91516090D01*
X147689448Y-91529974D01*
X147669457Y-91541956D01*
X147648387Y-91551921D01*
X147626443Y-91559773D01*
X147603834Y-91565437D01*
X147580779Y-91568856D01*
X147557500Y-91570000D01*
X147082500Y-91570000D01*
X147059221Y-91568856D01*
X147036166Y-91565437D01*
X147013557Y-91559773D01*
X146991613Y-91551921D01*
X146970543Y-91541956D01*
X146950552Y-91529974D01*
X146931832Y-91516090D01*
X146914562Y-91500438D01*
X146898910Y-91483168D01*
X146885026Y-91464448D01*
X146873044Y-91444457D01*
X146863079Y-91423387D01*
X146855227Y-91401443D01*
X146849563Y-91378834D01*
X146846144Y-91355779D01*
X146845000Y-91332500D01*
X146845000Y-90757500D01*
X146846144Y-90734221D01*
X146849563Y-90711166D01*
X146855227Y-90688557D01*
X146863079Y-90666613D01*
X146873044Y-90645543D01*
X146885026Y-90625552D01*
X146898910Y-90606832D01*
X146914562Y-90589562D01*
X146931832Y-90573910D01*
X146950552Y-90560026D01*
X146970543Y-90548044D01*
X146991613Y-90538079D01*
X147013557Y-90530227D01*
X147036166Y-90524563D01*
X147059221Y-90521144D01*
X147082500Y-90520000D01*
X147557500Y-90520000D01*
X147580779Y-90521144D01*
X147580779Y-90521144D01*
G37*
D14*
X147320000Y-91045000D03*
D13*
G36*
X127260779Y-74801144D02*
G01*
X127283834Y-74804563D01*
X127306443Y-74810227D01*
X127328387Y-74818079D01*
X127349457Y-74828044D01*
X127369448Y-74840026D01*
X127388168Y-74853910D01*
X127405438Y-74869562D01*
X127421090Y-74886832D01*
X127434974Y-74905552D01*
X127446956Y-74925543D01*
X127456921Y-74946613D01*
X127464773Y-74968557D01*
X127470437Y-74991166D01*
X127473856Y-75014221D01*
X127475000Y-75037500D01*
X127475000Y-75612500D01*
X127473856Y-75635779D01*
X127470437Y-75658834D01*
X127464773Y-75681443D01*
X127456921Y-75703387D01*
X127446956Y-75724457D01*
X127434974Y-75744448D01*
X127421090Y-75763168D01*
X127405438Y-75780438D01*
X127388168Y-75796090D01*
X127369448Y-75809974D01*
X127349457Y-75821956D01*
X127328387Y-75831921D01*
X127306443Y-75839773D01*
X127283834Y-75845437D01*
X127260779Y-75848856D01*
X127237500Y-75850000D01*
X126762500Y-75850000D01*
X126739221Y-75848856D01*
X126716166Y-75845437D01*
X126693557Y-75839773D01*
X126671613Y-75831921D01*
X126650543Y-75821956D01*
X126630552Y-75809974D01*
X126611832Y-75796090D01*
X126594562Y-75780438D01*
X126578910Y-75763168D01*
X126565026Y-75744448D01*
X126553044Y-75724457D01*
X126543079Y-75703387D01*
X126535227Y-75681443D01*
X126529563Y-75658834D01*
X126526144Y-75635779D01*
X126525000Y-75612500D01*
X126525000Y-75037500D01*
X126526144Y-75014221D01*
X126529563Y-74991166D01*
X126535227Y-74968557D01*
X126543079Y-74946613D01*
X126553044Y-74925543D01*
X126565026Y-74905552D01*
X126578910Y-74886832D01*
X126594562Y-74869562D01*
X126611832Y-74853910D01*
X126630552Y-74840026D01*
X126650543Y-74828044D01*
X126671613Y-74818079D01*
X126693557Y-74810227D01*
X126716166Y-74804563D01*
X126739221Y-74801144D01*
X126762500Y-74800000D01*
X127237500Y-74800000D01*
X127260779Y-74801144D01*
X127260779Y-74801144D01*
G37*
D14*
X127000000Y-75325000D03*
D13*
G36*
X127260779Y-76551144D02*
G01*
X127283834Y-76554563D01*
X127306443Y-76560227D01*
X127328387Y-76568079D01*
X127349457Y-76578044D01*
X127369448Y-76590026D01*
X127388168Y-76603910D01*
X127405438Y-76619562D01*
X127421090Y-76636832D01*
X127434974Y-76655552D01*
X127446956Y-76675543D01*
X127456921Y-76696613D01*
X127464773Y-76718557D01*
X127470437Y-76741166D01*
X127473856Y-76764221D01*
X127475000Y-76787500D01*
X127475000Y-77362500D01*
X127473856Y-77385779D01*
X127470437Y-77408834D01*
X127464773Y-77431443D01*
X127456921Y-77453387D01*
X127446956Y-77474457D01*
X127434974Y-77494448D01*
X127421090Y-77513168D01*
X127405438Y-77530438D01*
X127388168Y-77546090D01*
X127369448Y-77559974D01*
X127349457Y-77571956D01*
X127328387Y-77581921D01*
X127306443Y-77589773D01*
X127283834Y-77595437D01*
X127260779Y-77598856D01*
X127237500Y-77600000D01*
X126762500Y-77600000D01*
X126739221Y-77598856D01*
X126716166Y-77595437D01*
X126693557Y-77589773D01*
X126671613Y-77581921D01*
X126650543Y-77571956D01*
X126630552Y-77559974D01*
X126611832Y-77546090D01*
X126594562Y-77530438D01*
X126578910Y-77513168D01*
X126565026Y-77494448D01*
X126553044Y-77474457D01*
X126543079Y-77453387D01*
X126535227Y-77431443D01*
X126529563Y-77408834D01*
X126526144Y-77385779D01*
X126525000Y-77362500D01*
X126525000Y-76787500D01*
X126526144Y-76764221D01*
X126529563Y-76741166D01*
X126535227Y-76718557D01*
X126543079Y-76696613D01*
X126553044Y-76675543D01*
X126565026Y-76655552D01*
X126578910Y-76636832D01*
X126594562Y-76619562D01*
X126611832Y-76603910D01*
X126630552Y-76590026D01*
X126650543Y-76578044D01*
X126671613Y-76568079D01*
X126693557Y-76560227D01*
X126716166Y-76554563D01*
X126739221Y-76551144D01*
X126762500Y-76550000D01*
X127237500Y-76550000D01*
X127260779Y-76551144D01*
X127260779Y-76551144D01*
G37*
D14*
X127000000Y-77075000D03*
D13*
G36*
X86620779Y-91396144D02*
G01*
X86643834Y-91399563D01*
X86666443Y-91405227D01*
X86688387Y-91413079D01*
X86709457Y-91423044D01*
X86729448Y-91435026D01*
X86748168Y-91448910D01*
X86765438Y-91464562D01*
X86781090Y-91481832D01*
X86794974Y-91500552D01*
X86806956Y-91520543D01*
X86816921Y-91541613D01*
X86824773Y-91563557D01*
X86830437Y-91586166D01*
X86833856Y-91609221D01*
X86835000Y-91632500D01*
X86835000Y-92207500D01*
X86833856Y-92230779D01*
X86830437Y-92253834D01*
X86824773Y-92276443D01*
X86816921Y-92298387D01*
X86806956Y-92319457D01*
X86794974Y-92339448D01*
X86781090Y-92358168D01*
X86765438Y-92375438D01*
X86748168Y-92391090D01*
X86729448Y-92404974D01*
X86709457Y-92416956D01*
X86688387Y-92426921D01*
X86666443Y-92434773D01*
X86643834Y-92440437D01*
X86620779Y-92443856D01*
X86597500Y-92445000D01*
X86122500Y-92445000D01*
X86099221Y-92443856D01*
X86076166Y-92440437D01*
X86053557Y-92434773D01*
X86031613Y-92426921D01*
X86010543Y-92416956D01*
X85990552Y-92404974D01*
X85971832Y-92391090D01*
X85954562Y-92375438D01*
X85938910Y-92358168D01*
X85925026Y-92339448D01*
X85913044Y-92319457D01*
X85903079Y-92298387D01*
X85895227Y-92276443D01*
X85889563Y-92253834D01*
X85886144Y-92230779D01*
X85885000Y-92207500D01*
X85885000Y-91632500D01*
X85886144Y-91609221D01*
X85889563Y-91586166D01*
X85895227Y-91563557D01*
X85903079Y-91541613D01*
X85913044Y-91520543D01*
X85925026Y-91500552D01*
X85938910Y-91481832D01*
X85954562Y-91464562D01*
X85971832Y-91448910D01*
X85990552Y-91435026D01*
X86010543Y-91423044D01*
X86031613Y-91413079D01*
X86053557Y-91405227D01*
X86076166Y-91399563D01*
X86099221Y-91396144D01*
X86122500Y-91395000D01*
X86597500Y-91395000D01*
X86620779Y-91396144D01*
X86620779Y-91396144D01*
G37*
D14*
X86360000Y-91920000D03*
D13*
G36*
X86620779Y-89646144D02*
G01*
X86643834Y-89649563D01*
X86666443Y-89655227D01*
X86688387Y-89663079D01*
X86709457Y-89673044D01*
X86729448Y-89685026D01*
X86748168Y-89698910D01*
X86765438Y-89714562D01*
X86781090Y-89731832D01*
X86794974Y-89750552D01*
X86806956Y-89770543D01*
X86816921Y-89791613D01*
X86824773Y-89813557D01*
X86830437Y-89836166D01*
X86833856Y-89859221D01*
X86835000Y-89882500D01*
X86835000Y-90457500D01*
X86833856Y-90480779D01*
X86830437Y-90503834D01*
X86824773Y-90526443D01*
X86816921Y-90548387D01*
X86806956Y-90569457D01*
X86794974Y-90589448D01*
X86781090Y-90608168D01*
X86765438Y-90625438D01*
X86748168Y-90641090D01*
X86729448Y-90654974D01*
X86709457Y-90666956D01*
X86688387Y-90676921D01*
X86666443Y-90684773D01*
X86643834Y-90690437D01*
X86620779Y-90693856D01*
X86597500Y-90695000D01*
X86122500Y-90695000D01*
X86099221Y-90693856D01*
X86076166Y-90690437D01*
X86053557Y-90684773D01*
X86031613Y-90676921D01*
X86010543Y-90666956D01*
X85990552Y-90654974D01*
X85971832Y-90641090D01*
X85954562Y-90625438D01*
X85938910Y-90608168D01*
X85925026Y-90589448D01*
X85913044Y-90569457D01*
X85903079Y-90548387D01*
X85895227Y-90526443D01*
X85889563Y-90503834D01*
X85886144Y-90480779D01*
X85885000Y-90457500D01*
X85885000Y-89882500D01*
X85886144Y-89859221D01*
X85889563Y-89836166D01*
X85895227Y-89813557D01*
X85903079Y-89791613D01*
X85913044Y-89770543D01*
X85925026Y-89750552D01*
X85938910Y-89731832D01*
X85954562Y-89714562D01*
X85971832Y-89698910D01*
X85990552Y-89685026D01*
X86010543Y-89673044D01*
X86031613Y-89663079D01*
X86053557Y-89655227D01*
X86076166Y-89649563D01*
X86099221Y-89646144D01*
X86122500Y-89645000D01*
X86597500Y-89645000D01*
X86620779Y-89646144D01*
X86620779Y-89646144D01*
G37*
D14*
X86360000Y-90170000D03*
D13*
G36*
X79000779Y-91396144D02*
G01*
X79023834Y-91399563D01*
X79046443Y-91405227D01*
X79068387Y-91413079D01*
X79089457Y-91423044D01*
X79109448Y-91435026D01*
X79128168Y-91448910D01*
X79145438Y-91464562D01*
X79161090Y-91481832D01*
X79174974Y-91500552D01*
X79186956Y-91520543D01*
X79196921Y-91541613D01*
X79204773Y-91563557D01*
X79210437Y-91586166D01*
X79213856Y-91609221D01*
X79215000Y-91632500D01*
X79215000Y-92207500D01*
X79213856Y-92230779D01*
X79210437Y-92253834D01*
X79204773Y-92276443D01*
X79196921Y-92298387D01*
X79186956Y-92319457D01*
X79174974Y-92339448D01*
X79161090Y-92358168D01*
X79145438Y-92375438D01*
X79128168Y-92391090D01*
X79109448Y-92404974D01*
X79089457Y-92416956D01*
X79068387Y-92426921D01*
X79046443Y-92434773D01*
X79023834Y-92440437D01*
X79000779Y-92443856D01*
X78977500Y-92445000D01*
X78502500Y-92445000D01*
X78479221Y-92443856D01*
X78456166Y-92440437D01*
X78433557Y-92434773D01*
X78411613Y-92426921D01*
X78390543Y-92416956D01*
X78370552Y-92404974D01*
X78351832Y-92391090D01*
X78334562Y-92375438D01*
X78318910Y-92358168D01*
X78305026Y-92339448D01*
X78293044Y-92319457D01*
X78283079Y-92298387D01*
X78275227Y-92276443D01*
X78269563Y-92253834D01*
X78266144Y-92230779D01*
X78265000Y-92207500D01*
X78265000Y-91632500D01*
X78266144Y-91609221D01*
X78269563Y-91586166D01*
X78275227Y-91563557D01*
X78283079Y-91541613D01*
X78293044Y-91520543D01*
X78305026Y-91500552D01*
X78318910Y-91481832D01*
X78334562Y-91464562D01*
X78351832Y-91448910D01*
X78370552Y-91435026D01*
X78390543Y-91423044D01*
X78411613Y-91413079D01*
X78433557Y-91405227D01*
X78456166Y-91399563D01*
X78479221Y-91396144D01*
X78502500Y-91395000D01*
X78977500Y-91395000D01*
X79000779Y-91396144D01*
X79000779Y-91396144D01*
G37*
D14*
X78740000Y-91920000D03*
D13*
G36*
X79000779Y-89646144D02*
G01*
X79023834Y-89649563D01*
X79046443Y-89655227D01*
X79068387Y-89663079D01*
X79089457Y-89673044D01*
X79109448Y-89685026D01*
X79128168Y-89698910D01*
X79145438Y-89714562D01*
X79161090Y-89731832D01*
X79174974Y-89750552D01*
X79186956Y-89770543D01*
X79196921Y-89791613D01*
X79204773Y-89813557D01*
X79210437Y-89836166D01*
X79213856Y-89859221D01*
X79215000Y-89882500D01*
X79215000Y-90457500D01*
X79213856Y-90480779D01*
X79210437Y-90503834D01*
X79204773Y-90526443D01*
X79196921Y-90548387D01*
X79186956Y-90569457D01*
X79174974Y-90589448D01*
X79161090Y-90608168D01*
X79145438Y-90625438D01*
X79128168Y-90641090D01*
X79109448Y-90654974D01*
X79089457Y-90666956D01*
X79068387Y-90676921D01*
X79046443Y-90684773D01*
X79023834Y-90690437D01*
X79000779Y-90693856D01*
X78977500Y-90695000D01*
X78502500Y-90695000D01*
X78479221Y-90693856D01*
X78456166Y-90690437D01*
X78433557Y-90684773D01*
X78411613Y-90676921D01*
X78390543Y-90666956D01*
X78370552Y-90654974D01*
X78351832Y-90641090D01*
X78334562Y-90625438D01*
X78318910Y-90608168D01*
X78305026Y-90589448D01*
X78293044Y-90569457D01*
X78283079Y-90548387D01*
X78275227Y-90526443D01*
X78269563Y-90503834D01*
X78266144Y-90480779D01*
X78265000Y-90457500D01*
X78265000Y-89882500D01*
X78266144Y-89859221D01*
X78269563Y-89836166D01*
X78275227Y-89813557D01*
X78283079Y-89791613D01*
X78293044Y-89770543D01*
X78305026Y-89750552D01*
X78318910Y-89731832D01*
X78334562Y-89714562D01*
X78351832Y-89698910D01*
X78370552Y-89685026D01*
X78390543Y-89673044D01*
X78411613Y-89663079D01*
X78433557Y-89655227D01*
X78456166Y-89649563D01*
X78479221Y-89646144D01*
X78502500Y-89645000D01*
X78977500Y-89645000D01*
X79000779Y-89646144D01*
X79000779Y-89646144D01*
G37*
D14*
X78740000Y-90170000D03*
D13*
G36*
X75190779Y-81236144D02*
G01*
X75213834Y-81239563D01*
X75236443Y-81245227D01*
X75258387Y-81253079D01*
X75279457Y-81263044D01*
X75299448Y-81275026D01*
X75318168Y-81288910D01*
X75335438Y-81304562D01*
X75351090Y-81321832D01*
X75364974Y-81340552D01*
X75376956Y-81360543D01*
X75386921Y-81381613D01*
X75394773Y-81403557D01*
X75400437Y-81426166D01*
X75403856Y-81449221D01*
X75405000Y-81472500D01*
X75405000Y-82047500D01*
X75403856Y-82070779D01*
X75400437Y-82093834D01*
X75394773Y-82116443D01*
X75386921Y-82138387D01*
X75376956Y-82159457D01*
X75364974Y-82179448D01*
X75351090Y-82198168D01*
X75335438Y-82215438D01*
X75318168Y-82231090D01*
X75299448Y-82244974D01*
X75279457Y-82256956D01*
X75258387Y-82266921D01*
X75236443Y-82274773D01*
X75213834Y-82280437D01*
X75190779Y-82283856D01*
X75167500Y-82285000D01*
X74692500Y-82285000D01*
X74669221Y-82283856D01*
X74646166Y-82280437D01*
X74623557Y-82274773D01*
X74601613Y-82266921D01*
X74580543Y-82256956D01*
X74560552Y-82244974D01*
X74541832Y-82231090D01*
X74524562Y-82215438D01*
X74508910Y-82198168D01*
X74495026Y-82179448D01*
X74483044Y-82159457D01*
X74473079Y-82138387D01*
X74465227Y-82116443D01*
X74459563Y-82093834D01*
X74456144Y-82070779D01*
X74455000Y-82047500D01*
X74455000Y-81472500D01*
X74456144Y-81449221D01*
X74459563Y-81426166D01*
X74465227Y-81403557D01*
X74473079Y-81381613D01*
X74483044Y-81360543D01*
X74495026Y-81340552D01*
X74508910Y-81321832D01*
X74524562Y-81304562D01*
X74541832Y-81288910D01*
X74560552Y-81275026D01*
X74580543Y-81263044D01*
X74601613Y-81253079D01*
X74623557Y-81245227D01*
X74646166Y-81239563D01*
X74669221Y-81236144D01*
X74692500Y-81235000D01*
X75167500Y-81235000D01*
X75190779Y-81236144D01*
X75190779Y-81236144D01*
G37*
D14*
X74930000Y-81760000D03*
D13*
G36*
X75190779Y-79486144D02*
G01*
X75213834Y-79489563D01*
X75236443Y-79495227D01*
X75258387Y-79503079D01*
X75279457Y-79513044D01*
X75299448Y-79525026D01*
X75318168Y-79538910D01*
X75335438Y-79554562D01*
X75351090Y-79571832D01*
X75364974Y-79590552D01*
X75376956Y-79610543D01*
X75386921Y-79631613D01*
X75394773Y-79653557D01*
X75400437Y-79676166D01*
X75403856Y-79699221D01*
X75405000Y-79722500D01*
X75405000Y-80297500D01*
X75403856Y-80320779D01*
X75400437Y-80343834D01*
X75394773Y-80366443D01*
X75386921Y-80388387D01*
X75376956Y-80409457D01*
X75364974Y-80429448D01*
X75351090Y-80448168D01*
X75335438Y-80465438D01*
X75318168Y-80481090D01*
X75299448Y-80494974D01*
X75279457Y-80506956D01*
X75258387Y-80516921D01*
X75236443Y-80524773D01*
X75213834Y-80530437D01*
X75190779Y-80533856D01*
X75167500Y-80535000D01*
X74692500Y-80535000D01*
X74669221Y-80533856D01*
X74646166Y-80530437D01*
X74623557Y-80524773D01*
X74601613Y-80516921D01*
X74580543Y-80506956D01*
X74560552Y-80494974D01*
X74541832Y-80481090D01*
X74524562Y-80465438D01*
X74508910Y-80448168D01*
X74495026Y-80429448D01*
X74483044Y-80409457D01*
X74473079Y-80388387D01*
X74465227Y-80366443D01*
X74459563Y-80343834D01*
X74456144Y-80320779D01*
X74455000Y-80297500D01*
X74455000Y-79722500D01*
X74456144Y-79699221D01*
X74459563Y-79676166D01*
X74465227Y-79653557D01*
X74473079Y-79631613D01*
X74483044Y-79610543D01*
X74495026Y-79590552D01*
X74508910Y-79571832D01*
X74524562Y-79554562D01*
X74541832Y-79538910D01*
X74560552Y-79525026D01*
X74580543Y-79513044D01*
X74601613Y-79503079D01*
X74623557Y-79495227D01*
X74646166Y-79489563D01*
X74669221Y-79486144D01*
X74692500Y-79485000D01*
X75167500Y-79485000D01*
X75190779Y-79486144D01*
X75190779Y-79486144D01*
G37*
D14*
X74930000Y-80010000D03*
D13*
G36*
X139960779Y-89251144D02*
G01*
X139983834Y-89254563D01*
X140006443Y-89260227D01*
X140028387Y-89268079D01*
X140049457Y-89278044D01*
X140069448Y-89290026D01*
X140088168Y-89303910D01*
X140105438Y-89319562D01*
X140121090Y-89336832D01*
X140134974Y-89355552D01*
X140146956Y-89375543D01*
X140156921Y-89396613D01*
X140164773Y-89418557D01*
X140170437Y-89441166D01*
X140173856Y-89464221D01*
X140175000Y-89487500D01*
X140175000Y-90062500D01*
X140173856Y-90085779D01*
X140170437Y-90108834D01*
X140164773Y-90131443D01*
X140156921Y-90153387D01*
X140146956Y-90174457D01*
X140134974Y-90194448D01*
X140121090Y-90213168D01*
X140105438Y-90230438D01*
X140088168Y-90246090D01*
X140069448Y-90259974D01*
X140049457Y-90271956D01*
X140028387Y-90281921D01*
X140006443Y-90289773D01*
X139983834Y-90295437D01*
X139960779Y-90298856D01*
X139937500Y-90300000D01*
X139462500Y-90300000D01*
X139439221Y-90298856D01*
X139416166Y-90295437D01*
X139393557Y-90289773D01*
X139371613Y-90281921D01*
X139350543Y-90271956D01*
X139330552Y-90259974D01*
X139311832Y-90246090D01*
X139294562Y-90230438D01*
X139278910Y-90213168D01*
X139265026Y-90194448D01*
X139253044Y-90174457D01*
X139243079Y-90153387D01*
X139235227Y-90131443D01*
X139229563Y-90108834D01*
X139226144Y-90085779D01*
X139225000Y-90062500D01*
X139225000Y-89487500D01*
X139226144Y-89464221D01*
X139229563Y-89441166D01*
X139235227Y-89418557D01*
X139243079Y-89396613D01*
X139253044Y-89375543D01*
X139265026Y-89355552D01*
X139278910Y-89336832D01*
X139294562Y-89319562D01*
X139311832Y-89303910D01*
X139330552Y-89290026D01*
X139350543Y-89278044D01*
X139371613Y-89268079D01*
X139393557Y-89260227D01*
X139416166Y-89254563D01*
X139439221Y-89251144D01*
X139462500Y-89250000D01*
X139937500Y-89250000D01*
X139960779Y-89251144D01*
X139960779Y-89251144D01*
G37*
D14*
X139700000Y-89775000D03*
D13*
G36*
X139960779Y-87501144D02*
G01*
X139983834Y-87504563D01*
X140006443Y-87510227D01*
X140028387Y-87518079D01*
X140049457Y-87528044D01*
X140069448Y-87540026D01*
X140088168Y-87553910D01*
X140105438Y-87569562D01*
X140121090Y-87586832D01*
X140134974Y-87605552D01*
X140146956Y-87625543D01*
X140156921Y-87646613D01*
X140164773Y-87668557D01*
X140170437Y-87691166D01*
X140173856Y-87714221D01*
X140175000Y-87737500D01*
X140175000Y-88312500D01*
X140173856Y-88335779D01*
X140170437Y-88358834D01*
X140164773Y-88381443D01*
X140156921Y-88403387D01*
X140146956Y-88424457D01*
X140134974Y-88444448D01*
X140121090Y-88463168D01*
X140105438Y-88480438D01*
X140088168Y-88496090D01*
X140069448Y-88509974D01*
X140049457Y-88521956D01*
X140028387Y-88531921D01*
X140006443Y-88539773D01*
X139983834Y-88545437D01*
X139960779Y-88548856D01*
X139937500Y-88550000D01*
X139462500Y-88550000D01*
X139439221Y-88548856D01*
X139416166Y-88545437D01*
X139393557Y-88539773D01*
X139371613Y-88531921D01*
X139350543Y-88521956D01*
X139330552Y-88509974D01*
X139311832Y-88496090D01*
X139294562Y-88480438D01*
X139278910Y-88463168D01*
X139265026Y-88444448D01*
X139253044Y-88424457D01*
X139243079Y-88403387D01*
X139235227Y-88381443D01*
X139229563Y-88358834D01*
X139226144Y-88335779D01*
X139225000Y-88312500D01*
X139225000Y-87737500D01*
X139226144Y-87714221D01*
X139229563Y-87691166D01*
X139235227Y-87668557D01*
X139243079Y-87646613D01*
X139253044Y-87625543D01*
X139265026Y-87605552D01*
X139278910Y-87586832D01*
X139294562Y-87569562D01*
X139311832Y-87553910D01*
X139330552Y-87540026D01*
X139350543Y-87528044D01*
X139371613Y-87518079D01*
X139393557Y-87510227D01*
X139416166Y-87504563D01*
X139439221Y-87501144D01*
X139462500Y-87500000D01*
X139937500Y-87500000D01*
X139960779Y-87501144D01*
X139960779Y-87501144D01*
G37*
D14*
X139700000Y-88025000D03*
D13*
G36*
X98050779Y-81236144D02*
G01*
X98073834Y-81239563D01*
X98096443Y-81245227D01*
X98118387Y-81253079D01*
X98139457Y-81263044D01*
X98159448Y-81275026D01*
X98178168Y-81288910D01*
X98195438Y-81304562D01*
X98211090Y-81321832D01*
X98224974Y-81340552D01*
X98236956Y-81360543D01*
X98246921Y-81381613D01*
X98254773Y-81403557D01*
X98260437Y-81426166D01*
X98263856Y-81449221D01*
X98265000Y-81472500D01*
X98265000Y-82047500D01*
X98263856Y-82070779D01*
X98260437Y-82093834D01*
X98254773Y-82116443D01*
X98246921Y-82138387D01*
X98236956Y-82159457D01*
X98224974Y-82179448D01*
X98211090Y-82198168D01*
X98195438Y-82215438D01*
X98178168Y-82231090D01*
X98159448Y-82244974D01*
X98139457Y-82256956D01*
X98118387Y-82266921D01*
X98096443Y-82274773D01*
X98073834Y-82280437D01*
X98050779Y-82283856D01*
X98027500Y-82285000D01*
X97552500Y-82285000D01*
X97529221Y-82283856D01*
X97506166Y-82280437D01*
X97483557Y-82274773D01*
X97461613Y-82266921D01*
X97440543Y-82256956D01*
X97420552Y-82244974D01*
X97401832Y-82231090D01*
X97384562Y-82215438D01*
X97368910Y-82198168D01*
X97355026Y-82179448D01*
X97343044Y-82159457D01*
X97333079Y-82138387D01*
X97325227Y-82116443D01*
X97319563Y-82093834D01*
X97316144Y-82070779D01*
X97315000Y-82047500D01*
X97315000Y-81472500D01*
X97316144Y-81449221D01*
X97319563Y-81426166D01*
X97325227Y-81403557D01*
X97333079Y-81381613D01*
X97343044Y-81360543D01*
X97355026Y-81340552D01*
X97368910Y-81321832D01*
X97384562Y-81304562D01*
X97401832Y-81288910D01*
X97420552Y-81275026D01*
X97440543Y-81263044D01*
X97461613Y-81253079D01*
X97483557Y-81245227D01*
X97506166Y-81239563D01*
X97529221Y-81236144D01*
X97552500Y-81235000D01*
X98027500Y-81235000D01*
X98050779Y-81236144D01*
X98050779Y-81236144D01*
G37*
D14*
X97790000Y-81760000D03*
D13*
G36*
X98050779Y-79486144D02*
G01*
X98073834Y-79489563D01*
X98096443Y-79495227D01*
X98118387Y-79503079D01*
X98139457Y-79513044D01*
X98159448Y-79525026D01*
X98178168Y-79538910D01*
X98195438Y-79554562D01*
X98211090Y-79571832D01*
X98224974Y-79590552D01*
X98236956Y-79610543D01*
X98246921Y-79631613D01*
X98254773Y-79653557D01*
X98260437Y-79676166D01*
X98263856Y-79699221D01*
X98265000Y-79722500D01*
X98265000Y-80297500D01*
X98263856Y-80320779D01*
X98260437Y-80343834D01*
X98254773Y-80366443D01*
X98246921Y-80388387D01*
X98236956Y-80409457D01*
X98224974Y-80429448D01*
X98211090Y-80448168D01*
X98195438Y-80465438D01*
X98178168Y-80481090D01*
X98159448Y-80494974D01*
X98139457Y-80506956D01*
X98118387Y-80516921D01*
X98096443Y-80524773D01*
X98073834Y-80530437D01*
X98050779Y-80533856D01*
X98027500Y-80535000D01*
X97552500Y-80535000D01*
X97529221Y-80533856D01*
X97506166Y-80530437D01*
X97483557Y-80524773D01*
X97461613Y-80516921D01*
X97440543Y-80506956D01*
X97420552Y-80494974D01*
X97401832Y-80481090D01*
X97384562Y-80465438D01*
X97368910Y-80448168D01*
X97355026Y-80429448D01*
X97343044Y-80409457D01*
X97333079Y-80388387D01*
X97325227Y-80366443D01*
X97319563Y-80343834D01*
X97316144Y-80320779D01*
X97315000Y-80297500D01*
X97315000Y-79722500D01*
X97316144Y-79699221D01*
X97319563Y-79676166D01*
X97325227Y-79653557D01*
X97333079Y-79631613D01*
X97343044Y-79610543D01*
X97355026Y-79590552D01*
X97368910Y-79571832D01*
X97384562Y-79554562D01*
X97401832Y-79538910D01*
X97420552Y-79525026D01*
X97440543Y-79513044D01*
X97461613Y-79503079D01*
X97483557Y-79495227D01*
X97506166Y-79489563D01*
X97529221Y-79486144D01*
X97552500Y-79485000D01*
X98027500Y-79485000D01*
X98050779Y-79486144D01*
X98050779Y-79486144D01*
G37*
D14*
X97790000Y-80010000D03*
D13*
G36*
X71380779Y-91396144D02*
G01*
X71403834Y-91399563D01*
X71426443Y-91405227D01*
X71448387Y-91413079D01*
X71469457Y-91423044D01*
X71489448Y-91435026D01*
X71508168Y-91448910D01*
X71525438Y-91464562D01*
X71541090Y-91481832D01*
X71554974Y-91500552D01*
X71566956Y-91520543D01*
X71576921Y-91541613D01*
X71584773Y-91563557D01*
X71590437Y-91586166D01*
X71593856Y-91609221D01*
X71595000Y-91632500D01*
X71595000Y-92207500D01*
X71593856Y-92230779D01*
X71590437Y-92253834D01*
X71584773Y-92276443D01*
X71576921Y-92298387D01*
X71566956Y-92319457D01*
X71554974Y-92339448D01*
X71541090Y-92358168D01*
X71525438Y-92375438D01*
X71508168Y-92391090D01*
X71489448Y-92404974D01*
X71469457Y-92416956D01*
X71448387Y-92426921D01*
X71426443Y-92434773D01*
X71403834Y-92440437D01*
X71380779Y-92443856D01*
X71357500Y-92445000D01*
X70882500Y-92445000D01*
X70859221Y-92443856D01*
X70836166Y-92440437D01*
X70813557Y-92434773D01*
X70791613Y-92426921D01*
X70770543Y-92416956D01*
X70750552Y-92404974D01*
X70731832Y-92391090D01*
X70714562Y-92375438D01*
X70698910Y-92358168D01*
X70685026Y-92339448D01*
X70673044Y-92319457D01*
X70663079Y-92298387D01*
X70655227Y-92276443D01*
X70649563Y-92253834D01*
X70646144Y-92230779D01*
X70645000Y-92207500D01*
X70645000Y-91632500D01*
X70646144Y-91609221D01*
X70649563Y-91586166D01*
X70655227Y-91563557D01*
X70663079Y-91541613D01*
X70673044Y-91520543D01*
X70685026Y-91500552D01*
X70698910Y-91481832D01*
X70714562Y-91464562D01*
X70731832Y-91448910D01*
X70750552Y-91435026D01*
X70770543Y-91423044D01*
X70791613Y-91413079D01*
X70813557Y-91405227D01*
X70836166Y-91399563D01*
X70859221Y-91396144D01*
X70882500Y-91395000D01*
X71357500Y-91395000D01*
X71380779Y-91396144D01*
X71380779Y-91396144D01*
G37*
D14*
X71120000Y-91920000D03*
D13*
G36*
X71380779Y-89646144D02*
G01*
X71403834Y-89649563D01*
X71426443Y-89655227D01*
X71448387Y-89663079D01*
X71469457Y-89673044D01*
X71489448Y-89685026D01*
X71508168Y-89698910D01*
X71525438Y-89714562D01*
X71541090Y-89731832D01*
X71554974Y-89750552D01*
X71566956Y-89770543D01*
X71576921Y-89791613D01*
X71584773Y-89813557D01*
X71590437Y-89836166D01*
X71593856Y-89859221D01*
X71595000Y-89882500D01*
X71595000Y-90457500D01*
X71593856Y-90480779D01*
X71590437Y-90503834D01*
X71584773Y-90526443D01*
X71576921Y-90548387D01*
X71566956Y-90569457D01*
X71554974Y-90589448D01*
X71541090Y-90608168D01*
X71525438Y-90625438D01*
X71508168Y-90641090D01*
X71489448Y-90654974D01*
X71469457Y-90666956D01*
X71448387Y-90676921D01*
X71426443Y-90684773D01*
X71403834Y-90690437D01*
X71380779Y-90693856D01*
X71357500Y-90695000D01*
X70882500Y-90695000D01*
X70859221Y-90693856D01*
X70836166Y-90690437D01*
X70813557Y-90684773D01*
X70791613Y-90676921D01*
X70770543Y-90666956D01*
X70750552Y-90654974D01*
X70731832Y-90641090D01*
X70714562Y-90625438D01*
X70698910Y-90608168D01*
X70685026Y-90589448D01*
X70673044Y-90569457D01*
X70663079Y-90548387D01*
X70655227Y-90526443D01*
X70649563Y-90503834D01*
X70646144Y-90480779D01*
X70645000Y-90457500D01*
X70645000Y-89882500D01*
X70646144Y-89859221D01*
X70649563Y-89836166D01*
X70655227Y-89813557D01*
X70663079Y-89791613D01*
X70673044Y-89770543D01*
X70685026Y-89750552D01*
X70698910Y-89731832D01*
X70714562Y-89714562D01*
X70731832Y-89698910D01*
X70750552Y-89685026D01*
X70770543Y-89673044D01*
X70791613Y-89663079D01*
X70813557Y-89655227D01*
X70836166Y-89649563D01*
X70859221Y-89646144D01*
X70882500Y-89645000D01*
X71357500Y-89645000D01*
X71380779Y-89646144D01*
X71380779Y-89646144D01*
G37*
D14*
X71120000Y-90170000D03*
D13*
G36*
X75190779Y-91396144D02*
G01*
X75213834Y-91399563D01*
X75236443Y-91405227D01*
X75258387Y-91413079D01*
X75279457Y-91423044D01*
X75299448Y-91435026D01*
X75318168Y-91448910D01*
X75335438Y-91464562D01*
X75351090Y-91481832D01*
X75364974Y-91500552D01*
X75376956Y-91520543D01*
X75386921Y-91541613D01*
X75394773Y-91563557D01*
X75400437Y-91586166D01*
X75403856Y-91609221D01*
X75405000Y-91632500D01*
X75405000Y-92207500D01*
X75403856Y-92230779D01*
X75400437Y-92253834D01*
X75394773Y-92276443D01*
X75386921Y-92298387D01*
X75376956Y-92319457D01*
X75364974Y-92339448D01*
X75351090Y-92358168D01*
X75335438Y-92375438D01*
X75318168Y-92391090D01*
X75299448Y-92404974D01*
X75279457Y-92416956D01*
X75258387Y-92426921D01*
X75236443Y-92434773D01*
X75213834Y-92440437D01*
X75190779Y-92443856D01*
X75167500Y-92445000D01*
X74692500Y-92445000D01*
X74669221Y-92443856D01*
X74646166Y-92440437D01*
X74623557Y-92434773D01*
X74601613Y-92426921D01*
X74580543Y-92416956D01*
X74560552Y-92404974D01*
X74541832Y-92391090D01*
X74524562Y-92375438D01*
X74508910Y-92358168D01*
X74495026Y-92339448D01*
X74483044Y-92319457D01*
X74473079Y-92298387D01*
X74465227Y-92276443D01*
X74459563Y-92253834D01*
X74456144Y-92230779D01*
X74455000Y-92207500D01*
X74455000Y-91632500D01*
X74456144Y-91609221D01*
X74459563Y-91586166D01*
X74465227Y-91563557D01*
X74473079Y-91541613D01*
X74483044Y-91520543D01*
X74495026Y-91500552D01*
X74508910Y-91481832D01*
X74524562Y-91464562D01*
X74541832Y-91448910D01*
X74560552Y-91435026D01*
X74580543Y-91423044D01*
X74601613Y-91413079D01*
X74623557Y-91405227D01*
X74646166Y-91399563D01*
X74669221Y-91396144D01*
X74692500Y-91395000D01*
X75167500Y-91395000D01*
X75190779Y-91396144D01*
X75190779Y-91396144D01*
G37*
D14*
X74930000Y-91920000D03*
D13*
G36*
X75190779Y-89646144D02*
G01*
X75213834Y-89649563D01*
X75236443Y-89655227D01*
X75258387Y-89663079D01*
X75279457Y-89673044D01*
X75299448Y-89685026D01*
X75318168Y-89698910D01*
X75335438Y-89714562D01*
X75351090Y-89731832D01*
X75364974Y-89750552D01*
X75376956Y-89770543D01*
X75386921Y-89791613D01*
X75394773Y-89813557D01*
X75400437Y-89836166D01*
X75403856Y-89859221D01*
X75405000Y-89882500D01*
X75405000Y-90457500D01*
X75403856Y-90480779D01*
X75400437Y-90503834D01*
X75394773Y-90526443D01*
X75386921Y-90548387D01*
X75376956Y-90569457D01*
X75364974Y-90589448D01*
X75351090Y-90608168D01*
X75335438Y-90625438D01*
X75318168Y-90641090D01*
X75299448Y-90654974D01*
X75279457Y-90666956D01*
X75258387Y-90676921D01*
X75236443Y-90684773D01*
X75213834Y-90690437D01*
X75190779Y-90693856D01*
X75167500Y-90695000D01*
X74692500Y-90695000D01*
X74669221Y-90693856D01*
X74646166Y-90690437D01*
X74623557Y-90684773D01*
X74601613Y-90676921D01*
X74580543Y-90666956D01*
X74560552Y-90654974D01*
X74541832Y-90641090D01*
X74524562Y-90625438D01*
X74508910Y-90608168D01*
X74495026Y-90589448D01*
X74483044Y-90569457D01*
X74473079Y-90548387D01*
X74465227Y-90526443D01*
X74459563Y-90503834D01*
X74456144Y-90480779D01*
X74455000Y-90457500D01*
X74455000Y-89882500D01*
X74456144Y-89859221D01*
X74459563Y-89836166D01*
X74465227Y-89813557D01*
X74473079Y-89791613D01*
X74483044Y-89770543D01*
X74495026Y-89750552D01*
X74508910Y-89731832D01*
X74524562Y-89714562D01*
X74541832Y-89698910D01*
X74560552Y-89685026D01*
X74580543Y-89673044D01*
X74601613Y-89663079D01*
X74623557Y-89655227D01*
X74646166Y-89649563D01*
X74669221Y-89646144D01*
X74692500Y-89645000D01*
X75167500Y-89645000D01*
X75190779Y-89646144D01*
X75190779Y-89646144D01*
G37*
D14*
X74930000Y-90170000D03*
D13*
G36*
X90430779Y-91396144D02*
G01*
X90453834Y-91399563D01*
X90476443Y-91405227D01*
X90498387Y-91413079D01*
X90519457Y-91423044D01*
X90539448Y-91435026D01*
X90558168Y-91448910D01*
X90575438Y-91464562D01*
X90591090Y-91481832D01*
X90604974Y-91500552D01*
X90616956Y-91520543D01*
X90626921Y-91541613D01*
X90634773Y-91563557D01*
X90640437Y-91586166D01*
X90643856Y-91609221D01*
X90645000Y-91632500D01*
X90645000Y-92207500D01*
X90643856Y-92230779D01*
X90640437Y-92253834D01*
X90634773Y-92276443D01*
X90626921Y-92298387D01*
X90616956Y-92319457D01*
X90604974Y-92339448D01*
X90591090Y-92358168D01*
X90575438Y-92375438D01*
X90558168Y-92391090D01*
X90539448Y-92404974D01*
X90519457Y-92416956D01*
X90498387Y-92426921D01*
X90476443Y-92434773D01*
X90453834Y-92440437D01*
X90430779Y-92443856D01*
X90407500Y-92445000D01*
X89932500Y-92445000D01*
X89909221Y-92443856D01*
X89886166Y-92440437D01*
X89863557Y-92434773D01*
X89841613Y-92426921D01*
X89820543Y-92416956D01*
X89800552Y-92404974D01*
X89781832Y-92391090D01*
X89764562Y-92375438D01*
X89748910Y-92358168D01*
X89735026Y-92339448D01*
X89723044Y-92319457D01*
X89713079Y-92298387D01*
X89705227Y-92276443D01*
X89699563Y-92253834D01*
X89696144Y-92230779D01*
X89695000Y-92207500D01*
X89695000Y-91632500D01*
X89696144Y-91609221D01*
X89699563Y-91586166D01*
X89705227Y-91563557D01*
X89713079Y-91541613D01*
X89723044Y-91520543D01*
X89735026Y-91500552D01*
X89748910Y-91481832D01*
X89764562Y-91464562D01*
X89781832Y-91448910D01*
X89800552Y-91435026D01*
X89820543Y-91423044D01*
X89841613Y-91413079D01*
X89863557Y-91405227D01*
X89886166Y-91399563D01*
X89909221Y-91396144D01*
X89932500Y-91395000D01*
X90407500Y-91395000D01*
X90430779Y-91396144D01*
X90430779Y-91396144D01*
G37*
D14*
X90170000Y-91920000D03*
D13*
G36*
X90430779Y-89646144D02*
G01*
X90453834Y-89649563D01*
X90476443Y-89655227D01*
X90498387Y-89663079D01*
X90519457Y-89673044D01*
X90539448Y-89685026D01*
X90558168Y-89698910D01*
X90575438Y-89714562D01*
X90591090Y-89731832D01*
X90604974Y-89750552D01*
X90616956Y-89770543D01*
X90626921Y-89791613D01*
X90634773Y-89813557D01*
X90640437Y-89836166D01*
X90643856Y-89859221D01*
X90645000Y-89882500D01*
X90645000Y-90457500D01*
X90643856Y-90480779D01*
X90640437Y-90503834D01*
X90634773Y-90526443D01*
X90626921Y-90548387D01*
X90616956Y-90569457D01*
X90604974Y-90589448D01*
X90591090Y-90608168D01*
X90575438Y-90625438D01*
X90558168Y-90641090D01*
X90539448Y-90654974D01*
X90519457Y-90666956D01*
X90498387Y-90676921D01*
X90476443Y-90684773D01*
X90453834Y-90690437D01*
X90430779Y-90693856D01*
X90407500Y-90695000D01*
X89932500Y-90695000D01*
X89909221Y-90693856D01*
X89886166Y-90690437D01*
X89863557Y-90684773D01*
X89841613Y-90676921D01*
X89820543Y-90666956D01*
X89800552Y-90654974D01*
X89781832Y-90641090D01*
X89764562Y-90625438D01*
X89748910Y-90608168D01*
X89735026Y-90589448D01*
X89723044Y-90569457D01*
X89713079Y-90548387D01*
X89705227Y-90526443D01*
X89699563Y-90503834D01*
X89696144Y-90480779D01*
X89695000Y-90457500D01*
X89695000Y-89882500D01*
X89696144Y-89859221D01*
X89699563Y-89836166D01*
X89705227Y-89813557D01*
X89713079Y-89791613D01*
X89723044Y-89770543D01*
X89735026Y-89750552D01*
X89748910Y-89731832D01*
X89764562Y-89714562D01*
X89781832Y-89698910D01*
X89800552Y-89685026D01*
X89820543Y-89673044D01*
X89841613Y-89663079D01*
X89863557Y-89655227D01*
X89886166Y-89649563D01*
X89909221Y-89646144D01*
X89932500Y-89645000D01*
X90407500Y-89645000D01*
X90430779Y-89646144D01*
X90430779Y-89646144D01*
G37*
D14*
X90170000Y-90170000D03*
D13*
G36*
X94240779Y-81236144D02*
G01*
X94263834Y-81239563D01*
X94286443Y-81245227D01*
X94308387Y-81253079D01*
X94329457Y-81263044D01*
X94349448Y-81275026D01*
X94368168Y-81288910D01*
X94385438Y-81304562D01*
X94401090Y-81321832D01*
X94414974Y-81340552D01*
X94426956Y-81360543D01*
X94436921Y-81381613D01*
X94444773Y-81403557D01*
X94450437Y-81426166D01*
X94453856Y-81449221D01*
X94455000Y-81472500D01*
X94455000Y-82047500D01*
X94453856Y-82070779D01*
X94450437Y-82093834D01*
X94444773Y-82116443D01*
X94436921Y-82138387D01*
X94426956Y-82159457D01*
X94414974Y-82179448D01*
X94401090Y-82198168D01*
X94385438Y-82215438D01*
X94368168Y-82231090D01*
X94349448Y-82244974D01*
X94329457Y-82256956D01*
X94308387Y-82266921D01*
X94286443Y-82274773D01*
X94263834Y-82280437D01*
X94240779Y-82283856D01*
X94217500Y-82285000D01*
X93742500Y-82285000D01*
X93719221Y-82283856D01*
X93696166Y-82280437D01*
X93673557Y-82274773D01*
X93651613Y-82266921D01*
X93630543Y-82256956D01*
X93610552Y-82244974D01*
X93591832Y-82231090D01*
X93574562Y-82215438D01*
X93558910Y-82198168D01*
X93545026Y-82179448D01*
X93533044Y-82159457D01*
X93523079Y-82138387D01*
X93515227Y-82116443D01*
X93509563Y-82093834D01*
X93506144Y-82070779D01*
X93505000Y-82047500D01*
X93505000Y-81472500D01*
X93506144Y-81449221D01*
X93509563Y-81426166D01*
X93515227Y-81403557D01*
X93523079Y-81381613D01*
X93533044Y-81360543D01*
X93545026Y-81340552D01*
X93558910Y-81321832D01*
X93574562Y-81304562D01*
X93591832Y-81288910D01*
X93610552Y-81275026D01*
X93630543Y-81263044D01*
X93651613Y-81253079D01*
X93673557Y-81245227D01*
X93696166Y-81239563D01*
X93719221Y-81236144D01*
X93742500Y-81235000D01*
X94217500Y-81235000D01*
X94240779Y-81236144D01*
X94240779Y-81236144D01*
G37*
D14*
X93980000Y-81760000D03*
D13*
G36*
X94240779Y-79486144D02*
G01*
X94263834Y-79489563D01*
X94286443Y-79495227D01*
X94308387Y-79503079D01*
X94329457Y-79513044D01*
X94349448Y-79525026D01*
X94368168Y-79538910D01*
X94385438Y-79554562D01*
X94401090Y-79571832D01*
X94414974Y-79590552D01*
X94426956Y-79610543D01*
X94436921Y-79631613D01*
X94444773Y-79653557D01*
X94450437Y-79676166D01*
X94453856Y-79699221D01*
X94455000Y-79722500D01*
X94455000Y-80297500D01*
X94453856Y-80320779D01*
X94450437Y-80343834D01*
X94444773Y-80366443D01*
X94436921Y-80388387D01*
X94426956Y-80409457D01*
X94414974Y-80429448D01*
X94401090Y-80448168D01*
X94385438Y-80465438D01*
X94368168Y-80481090D01*
X94349448Y-80494974D01*
X94329457Y-80506956D01*
X94308387Y-80516921D01*
X94286443Y-80524773D01*
X94263834Y-80530437D01*
X94240779Y-80533856D01*
X94217500Y-80535000D01*
X93742500Y-80535000D01*
X93719221Y-80533856D01*
X93696166Y-80530437D01*
X93673557Y-80524773D01*
X93651613Y-80516921D01*
X93630543Y-80506956D01*
X93610552Y-80494974D01*
X93591832Y-80481090D01*
X93574562Y-80465438D01*
X93558910Y-80448168D01*
X93545026Y-80429448D01*
X93533044Y-80409457D01*
X93523079Y-80388387D01*
X93515227Y-80366443D01*
X93509563Y-80343834D01*
X93506144Y-80320779D01*
X93505000Y-80297500D01*
X93505000Y-79722500D01*
X93506144Y-79699221D01*
X93509563Y-79676166D01*
X93515227Y-79653557D01*
X93523079Y-79631613D01*
X93533044Y-79610543D01*
X93545026Y-79590552D01*
X93558910Y-79571832D01*
X93574562Y-79554562D01*
X93591832Y-79538910D01*
X93610552Y-79525026D01*
X93630543Y-79513044D01*
X93651613Y-79503079D01*
X93673557Y-79495227D01*
X93696166Y-79489563D01*
X93719221Y-79486144D01*
X93742500Y-79485000D01*
X94217500Y-79485000D01*
X94240779Y-79486144D01*
X94240779Y-79486144D01*
G37*
D14*
X93980000Y-80010000D03*
D13*
G36*
X86620779Y-81236144D02*
G01*
X86643834Y-81239563D01*
X86666443Y-81245227D01*
X86688387Y-81253079D01*
X86709457Y-81263044D01*
X86729448Y-81275026D01*
X86748168Y-81288910D01*
X86765438Y-81304562D01*
X86781090Y-81321832D01*
X86794974Y-81340552D01*
X86806956Y-81360543D01*
X86816921Y-81381613D01*
X86824773Y-81403557D01*
X86830437Y-81426166D01*
X86833856Y-81449221D01*
X86835000Y-81472500D01*
X86835000Y-82047500D01*
X86833856Y-82070779D01*
X86830437Y-82093834D01*
X86824773Y-82116443D01*
X86816921Y-82138387D01*
X86806956Y-82159457D01*
X86794974Y-82179448D01*
X86781090Y-82198168D01*
X86765438Y-82215438D01*
X86748168Y-82231090D01*
X86729448Y-82244974D01*
X86709457Y-82256956D01*
X86688387Y-82266921D01*
X86666443Y-82274773D01*
X86643834Y-82280437D01*
X86620779Y-82283856D01*
X86597500Y-82285000D01*
X86122500Y-82285000D01*
X86099221Y-82283856D01*
X86076166Y-82280437D01*
X86053557Y-82274773D01*
X86031613Y-82266921D01*
X86010543Y-82256956D01*
X85990552Y-82244974D01*
X85971832Y-82231090D01*
X85954562Y-82215438D01*
X85938910Y-82198168D01*
X85925026Y-82179448D01*
X85913044Y-82159457D01*
X85903079Y-82138387D01*
X85895227Y-82116443D01*
X85889563Y-82093834D01*
X85886144Y-82070779D01*
X85885000Y-82047500D01*
X85885000Y-81472500D01*
X85886144Y-81449221D01*
X85889563Y-81426166D01*
X85895227Y-81403557D01*
X85903079Y-81381613D01*
X85913044Y-81360543D01*
X85925026Y-81340552D01*
X85938910Y-81321832D01*
X85954562Y-81304562D01*
X85971832Y-81288910D01*
X85990552Y-81275026D01*
X86010543Y-81263044D01*
X86031613Y-81253079D01*
X86053557Y-81245227D01*
X86076166Y-81239563D01*
X86099221Y-81236144D01*
X86122500Y-81235000D01*
X86597500Y-81235000D01*
X86620779Y-81236144D01*
X86620779Y-81236144D01*
G37*
D14*
X86360000Y-81760000D03*
D13*
G36*
X86620779Y-79486144D02*
G01*
X86643834Y-79489563D01*
X86666443Y-79495227D01*
X86688387Y-79503079D01*
X86709457Y-79513044D01*
X86729448Y-79525026D01*
X86748168Y-79538910D01*
X86765438Y-79554562D01*
X86781090Y-79571832D01*
X86794974Y-79590552D01*
X86806956Y-79610543D01*
X86816921Y-79631613D01*
X86824773Y-79653557D01*
X86830437Y-79676166D01*
X86833856Y-79699221D01*
X86835000Y-79722500D01*
X86835000Y-80297500D01*
X86833856Y-80320779D01*
X86830437Y-80343834D01*
X86824773Y-80366443D01*
X86816921Y-80388387D01*
X86806956Y-80409457D01*
X86794974Y-80429448D01*
X86781090Y-80448168D01*
X86765438Y-80465438D01*
X86748168Y-80481090D01*
X86729448Y-80494974D01*
X86709457Y-80506956D01*
X86688387Y-80516921D01*
X86666443Y-80524773D01*
X86643834Y-80530437D01*
X86620779Y-80533856D01*
X86597500Y-80535000D01*
X86122500Y-80535000D01*
X86099221Y-80533856D01*
X86076166Y-80530437D01*
X86053557Y-80524773D01*
X86031613Y-80516921D01*
X86010543Y-80506956D01*
X85990552Y-80494974D01*
X85971832Y-80481090D01*
X85954562Y-80465438D01*
X85938910Y-80448168D01*
X85925026Y-80429448D01*
X85913044Y-80409457D01*
X85903079Y-80388387D01*
X85895227Y-80366443D01*
X85889563Y-80343834D01*
X85886144Y-80320779D01*
X85885000Y-80297500D01*
X85885000Y-79722500D01*
X85886144Y-79699221D01*
X85889563Y-79676166D01*
X85895227Y-79653557D01*
X85903079Y-79631613D01*
X85913044Y-79610543D01*
X85925026Y-79590552D01*
X85938910Y-79571832D01*
X85954562Y-79554562D01*
X85971832Y-79538910D01*
X85990552Y-79525026D01*
X86010543Y-79513044D01*
X86031613Y-79503079D01*
X86053557Y-79495227D01*
X86076166Y-79489563D01*
X86099221Y-79486144D01*
X86122500Y-79485000D01*
X86597500Y-79485000D01*
X86620779Y-79486144D01*
X86620779Y-79486144D01*
G37*
D14*
X86360000Y-80010000D03*
D13*
G36*
X90430779Y-81236144D02*
G01*
X90453834Y-81239563D01*
X90476443Y-81245227D01*
X90498387Y-81253079D01*
X90519457Y-81263044D01*
X90539448Y-81275026D01*
X90558168Y-81288910D01*
X90575438Y-81304562D01*
X90591090Y-81321832D01*
X90604974Y-81340552D01*
X90616956Y-81360543D01*
X90626921Y-81381613D01*
X90634773Y-81403557D01*
X90640437Y-81426166D01*
X90643856Y-81449221D01*
X90645000Y-81472500D01*
X90645000Y-82047500D01*
X90643856Y-82070779D01*
X90640437Y-82093834D01*
X90634773Y-82116443D01*
X90626921Y-82138387D01*
X90616956Y-82159457D01*
X90604974Y-82179448D01*
X90591090Y-82198168D01*
X90575438Y-82215438D01*
X90558168Y-82231090D01*
X90539448Y-82244974D01*
X90519457Y-82256956D01*
X90498387Y-82266921D01*
X90476443Y-82274773D01*
X90453834Y-82280437D01*
X90430779Y-82283856D01*
X90407500Y-82285000D01*
X89932500Y-82285000D01*
X89909221Y-82283856D01*
X89886166Y-82280437D01*
X89863557Y-82274773D01*
X89841613Y-82266921D01*
X89820543Y-82256956D01*
X89800552Y-82244974D01*
X89781832Y-82231090D01*
X89764562Y-82215438D01*
X89748910Y-82198168D01*
X89735026Y-82179448D01*
X89723044Y-82159457D01*
X89713079Y-82138387D01*
X89705227Y-82116443D01*
X89699563Y-82093834D01*
X89696144Y-82070779D01*
X89695000Y-82047500D01*
X89695000Y-81472500D01*
X89696144Y-81449221D01*
X89699563Y-81426166D01*
X89705227Y-81403557D01*
X89713079Y-81381613D01*
X89723044Y-81360543D01*
X89735026Y-81340552D01*
X89748910Y-81321832D01*
X89764562Y-81304562D01*
X89781832Y-81288910D01*
X89800552Y-81275026D01*
X89820543Y-81263044D01*
X89841613Y-81253079D01*
X89863557Y-81245227D01*
X89886166Y-81239563D01*
X89909221Y-81236144D01*
X89932500Y-81235000D01*
X90407500Y-81235000D01*
X90430779Y-81236144D01*
X90430779Y-81236144D01*
G37*
D14*
X90170000Y-81760000D03*
D13*
G36*
X90430779Y-79486144D02*
G01*
X90453834Y-79489563D01*
X90476443Y-79495227D01*
X90498387Y-79503079D01*
X90519457Y-79513044D01*
X90539448Y-79525026D01*
X90558168Y-79538910D01*
X90575438Y-79554562D01*
X90591090Y-79571832D01*
X90604974Y-79590552D01*
X90616956Y-79610543D01*
X90626921Y-79631613D01*
X90634773Y-79653557D01*
X90640437Y-79676166D01*
X90643856Y-79699221D01*
X90645000Y-79722500D01*
X90645000Y-80297500D01*
X90643856Y-80320779D01*
X90640437Y-80343834D01*
X90634773Y-80366443D01*
X90626921Y-80388387D01*
X90616956Y-80409457D01*
X90604974Y-80429448D01*
X90591090Y-80448168D01*
X90575438Y-80465438D01*
X90558168Y-80481090D01*
X90539448Y-80494974D01*
X90519457Y-80506956D01*
X90498387Y-80516921D01*
X90476443Y-80524773D01*
X90453834Y-80530437D01*
X90430779Y-80533856D01*
X90407500Y-80535000D01*
X89932500Y-80535000D01*
X89909221Y-80533856D01*
X89886166Y-80530437D01*
X89863557Y-80524773D01*
X89841613Y-80516921D01*
X89820543Y-80506956D01*
X89800552Y-80494974D01*
X89781832Y-80481090D01*
X89764562Y-80465438D01*
X89748910Y-80448168D01*
X89735026Y-80429448D01*
X89723044Y-80409457D01*
X89713079Y-80388387D01*
X89705227Y-80366443D01*
X89699563Y-80343834D01*
X89696144Y-80320779D01*
X89695000Y-80297500D01*
X89695000Y-79722500D01*
X89696144Y-79699221D01*
X89699563Y-79676166D01*
X89705227Y-79653557D01*
X89713079Y-79631613D01*
X89723044Y-79610543D01*
X89735026Y-79590552D01*
X89748910Y-79571832D01*
X89764562Y-79554562D01*
X89781832Y-79538910D01*
X89800552Y-79525026D01*
X89820543Y-79513044D01*
X89841613Y-79503079D01*
X89863557Y-79495227D01*
X89886166Y-79489563D01*
X89909221Y-79486144D01*
X89932500Y-79485000D01*
X90407500Y-79485000D01*
X90430779Y-79486144D01*
X90430779Y-79486144D01*
G37*
D14*
X90170000Y-80010000D03*
D13*
G36*
X79000779Y-81236144D02*
G01*
X79023834Y-81239563D01*
X79046443Y-81245227D01*
X79068387Y-81253079D01*
X79089457Y-81263044D01*
X79109448Y-81275026D01*
X79128168Y-81288910D01*
X79145438Y-81304562D01*
X79161090Y-81321832D01*
X79174974Y-81340552D01*
X79186956Y-81360543D01*
X79196921Y-81381613D01*
X79204773Y-81403557D01*
X79210437Y-81426166D01*
X79213856Y-81449221D01*
X79215000Y-81472500D01*
X79215000Y-82047500D01*
X79213856Y-82070779D01*
X79210437Y-82093834D01*
X79204773Y-82116443D01*
X79196921Y-82138387D01*
X79186956Y-82159457D01*
X79174974Y-82179448D01*
X79161090Y-82198168D01*
X79145438Y-82215438D01*
X79128168Y-82231090D01*
X79109448Y-82244974D01*
X79089457Y-82256956D01*
X79068387Y-82266921D01*
X79046443Y-82274773D01*
X79023834Y-82280437D01*
X79000779Y-82283856D01*
X78977500Y-82285000D01*
X78502500Y-82285000D01*
X78479221Y-82283856D01*
X78456166Y-82280437D01*
X78433557Y-82274773D01*
X78411613Y-82266921D01*
X78390543Y-82256956D01*
X78370552Y-82244974D01*
X78351832Y-82231090D01*
X78334562Y-82215438D01*
X78318910Y-82198168D01*
X78305026Y-82179448D01*
X78293044Y-82159457D01*
X78283079Y-82138387D01*
X78275227Y-82116443D01*
X78269563Y-82093834D01*
X78266144Y-82070779D01*
X78265000Y-82047500D01*
X78265000Y-81472500D01*
X78266144Y-81449221D01*
X78269563Y-81426166D01*
X78275227Y-81403557D01*
X78283079Y-81381613D01*
X78293044Y-81360543D01*
X78305026Y-81340552D01*
X78318910Y-81321832D01*
X78334562Y-81304562D01*
X78351832Y-81288910D01*
X78370552Y-81275026D01*
X78390543Y-81263044D01*
X78411613Y-81253079D01*
X78433557Y-81245227D01*
X78456166Y-81239563D01*
X78479221Y-81236144D01*
X78502500Y-81235000D01*
X78977500Y-81235000D01*
X79000779Y-81236144D01*
X79000779Y-81236144D01*
G37*
D14*
X78740000Y-81760000D03*
D13*
G36*
X79000779Y-79486144D02*
G01*
X79023834Y-79489563D01*
X79046443Y-79495227D01*
X79068387Y-79503079D01*
X79089457Y-79513044D01*
X79109448Y-79525026D01*
X79128168Y-79538910D01*
X79145438Y-79554562D01*
X79161090Y-79571832D01*
X79174974Y-79590552D01*
X79186956Y-79610543D01*
X79196921Y-79631613D01*
X79204773Y-79653557D01*
X79210437Y-79676166D01*
X79213856Y-79699221D01*
X79215000Y-79722500D01*
X79215000Y-80297500D01*
X79213856Y-80320779D01*
X79210437Y-80343834D01*
X79204773Y-80366443D01*
X79196921Y-80388387D01*
X79186956Y-80409457D01*
X79174974Y-80429448D01*
X79161090Y-80448168D01*
X79145438Y-80465438D01*
X79128168Y-80481090D01*
X79109448Y-80494974D01*
X79089457Y-80506956D01*
X79068387Y-80516921D01*
X79046443Y-80524773D01*
X79023834Y-80530437D01*
X79000779Y-80533856D01*
X78977500Y-80535000D01*
X78502500Y-80535000D01*
X78479221Y-80533856D01*
X78456166Y-80530437D01*
X78433557Y-80524773D01*
X78411613Y-80516921D01*
X78390543Y-80506956D01*
X78370552Y-80494974D01*
X78351832Y-80481090D01*
X78334562Y-80465438D01*
X78318910Y-80448168D01*
X78305026Y-80429448D01*
X78293044Y-80409457D01*
X78283079Y-80388387D01*
X78275227Y-80366443D01*
X78269563Y-80343834D01*
X78266144Y-80320779D01*
X78265000Y-80297500D01*
X78265000Y-79722500D01*
X78266144Y-79699221D01*
X78269563Y-79676166D01*
X78275227Y-79653557D01*
X78283079Y-79631613D01*
X78293044Y-79610543D01*
X78305026Y-79590552D01*
X78318910Y-79571832D01*
X78334562Y-79554562D01*
X78351832Y-79538910D01*
X78370552Y-79525026D01*
X78390543Y-79513044D01*
X78411613Y-79503079D01*
X78433557Y-79495227D01*
X78456166Y-79489563D01*
X78479221Y-79486144D01*
X78502500Y-79485000D01*
X78977500Y-79485000D01*
X79000779Y-79486144D01*
X79000779Y-79486144D01*
G37*
D14*
X78740000Y-80010000D03*
D13*
G36*
X82810779Y-81236144D02*
G01*
X82833834Y-81239563D01*
X82856443Y-81245227D01*
X82878387Y-81253079D01*
X82899457Y-81263044D01*
X82919448Y-81275026D01*
X82938168Y-81288910D01*
X82955438Y-81304562D01*
X82971090Y-81321832D01*
X82984974Y-81340552D01*
X82996956Y-81360543D01*
X83006921Y-81381613D01*
X83014773Y-81403557D01*
X83020437Y-81426166D01*
X83023856Y-81449221D01*
X83025000Y-81472500D01*
X83025000Y-82047500D01*
X83023856Y-82070779D01*
X83020437Y-82093834D01*
X83014773Y-82116443D01*
X83006921Y-82138387D01*
X82996956Y-82159457D01*
X82984974Y-82179448D01*
X82971090Y-82198168D01*
X82955438Y-82215438D01*
X82938168Y-82231090D01*
X82919448Y-82244974D01*
X82899457Y-82256956D01*
X82878387Y-82266921D01*
X82856443Y-82274773D01*
X82833834Y-82280437D01*
X82810779Y-82283856D01*
X82787500Y-82285000D01*
X82312500Y-82285000D01*
X82289221Y-82283856D01*
X82266166Y-82280437D01*
X82243557Y-82274773D01*
X82221613Y-82266921D01*
X82200543Y-82256956D01*
X82180552Y-82244974D01*
X82161832Y-82231090D01*
X82144562Y-82215438D01*
X82128910Y-82198168D01*
X82115026Y-82179448D01*
X82103044Y-82159457D01*
X82093079Y-82138387D01*
X82085227Y-82116443D01*
X82079563Y-82093834D01*
X82076144Y-82070779D01*
X82075000Y-82047500D01*
X82075000Y-81472500D01*
X82076144Y-81449221D01*
X82079563Y-81426166D01*
X82085227Y-81403557D01*
X82093079Y-81381613D01*
X82103044Y-81360543D01*
X82115026Y-81340552D01*
X82128910Y-81321832D01*
X82144562Y-81304562D01*
X82161832Y-81288910D01*
X82180552Y-81275026D01*
X82200543Y-81263044D01*
X82221613Y-81253079D01*
X82243557Y-81245227D01*
X82266166Y-81239563D01*
X82289221Y-81236144D01*
X82312500Y-81235000D01*
X82787500Y-81235000D01*
X82810779Y-81236144D01*
X82810779Y-81236144D01*
G37*
D14*
X82550000Y-81760000D03*
D13*
G36*
X82810779Y-79486144D02*
G01*
X82833834Y-79489563D01*
X82856443Y-79495227D01*
X82878387Y-79503079D01*
X82899457Y-79513044D01*
X82919448Y-79525026D01*
X82938168Y-79538910D01*
X82955438Y-79554562D01*
X82971090Y-79571832D01*
X82984974Y-79590552D01*
X82996956Y-79610543D01*
X83006921Y-79631613D01*
X83014773Y-79653557D01*
X83020437Y-79676166D01*
X83023856Y-79699221D01*
X83025000Y-79722500D01*
X83025000Y-80297500D01*
X83023856Y-80320779D01*
X83020437Y-80343834D01*
X83014773Y-80366443D01*
X83006921Y-80388387D01*
X82996956Y-80409457D01*
X82984974Y-80429448D01*
X82971090Y-80448168D01*
X82955438Y-80465438D01*
X82938168Y-80481090D01*
X82919448Y-80494974D01*
X82899457Y-80506956D01*
X82878387Y-80516921D01*
X82856443Y-80524773D01*
X82833834Y-80530437D01*
X82810779Y-80533856D01*
X82787500Y-80535000D01*
X82312500Y-80535000D01*
X82289221Y-80533856D01*
X82266166Y-80530437D01*
X82243557Y-80524773D01*
X82221613Y-80516921D01*
X82200543Y-80506956D01*
X82180552Y-80494974D01*
X82161832Y-80481090D01*
X82144562Y-80465438D01*
X82128910Y-80448168D01*
X82115026Y-80429448D01*
X82103044Y-80409457D01*
X82093079Y-80388387D01*
X82085227Y-80366443D01*
X82079563Y-80343834D01*
X82076144Y-80320779D01*
X82075000Y-80297500D01*
X82075000Y-79722500D01*
X82076144Y-79699221D01*
X82079563Y-79676166D01*
X82085227Y-79653557D01*
X82093079Y-79631613D01*
X82103044Y-79610543D01*
X82115026Y-79590552D01*
X82128910Y-79571832D01*
X82144562Y-79554562D01*
X82161832Y-79538910D01*
X82180552Y-79525026D01*
X82200543Y-79513044D01*
X82221613Y-79503079D01*
X82243557Y-79495227D01*
X82266166Y-79489563D01*
X82289221Y-79486144D01*
X82312500Y-79485000D01*
X82787500Y-79485000D01*
X82810779Y-79486144D01*
X82810779Y-79486144D01*
G37*
D14*
X82550000Y-80010000D03*
D13*
G36*
X71380779Y-81236144D02*
G01*
X71403834Y-81239563D01*
X71426443Y-81245227D01*
X71448387Y-81253079D01*
X71469457Y-81263044D01*
X71489448Y-81275026D01*
X71508168Y-81288910D01*
X71525438Y-81304562D01*
X71541090Y-81321832D01*
X71554974Y-81340552D01*
X71566956Y-81360543D01*
X71576921Y-81381613D01*
X71584773Y-81403557D01*
X71590437Y-81426166D01*
X71593856Y-81449221D01*
X71595000Y-81472500D01*
X71595000Y-82047500D01*
X71593856Y-82070779D01*
X71590437Y-82093834D01*
X71584773Y-82116443D01*
X71576921Y-82138387D01*
X71566956Y-82159457D01*
X71554974Y-82179448D01*
X71541090Y-82198168D01*
X71525438Y-82215438D01*
X71508168Y-82231090D01*
X71489448Y-82244974D01*
X71469457Y-82256956D01*
X71448387Y-82266921D01*
X71426443Y-82274773D01*
X71403834Y-82280437D01*
X71380779Y-82283856D01*
X71357500Y-82285000D01*
X70882500Y-82285000D01*
X70859221Y-82283856D01*
X70836166Y-82280437D01*
X70813557Y-82274773D01*
X70791613Y-82266921D01*
X70770543Y-82256956D01*
X70750552Y-82244974D01*
X70731832Y-82231090D01*
X70714562Y-82215438D01*
X70698910Y-82198168D01*
X70685026Y-82179448D01*
X70673044Y-82159457D01*
X70663079Y-82138387D01*
X70655227Y-82116443D01*
X70649563Y-82093834D01*
X70646144Y-82070779D01*
X70645000Y-82047500D01*
X70645000Y-81472500D01*
X70646144Y-81449221D01*
X70649563Y-81426166D01*
X70655227Y-81403557D01*
X70663079Y-81381613D01*
X70673044Y-81360543D01*
X70685026Y-81340552D01*
X70698910Y-81321832D01*
X70714562Y-81304562D01*
X70731832Y-81288910D01*
X70750552Y-81275026D01*
X70770543Y-81263044D01*
X70791613Y-81253079D01*
X70813557Y-81245227D01*
X70836166Y-81239563D01*
X70859221Y-81236144D01*
X70882500Y-81235000D01*
X71357500Y-81235000D01*
X71380779Y-81236144D01*
X71380779Y-81236144D01*
G37*
D14*
X71120000Y-81760000D03*
D13*
G36*
X71380779Y-79486144D02*
G01*
X71403834Y-79489563D01*
X71426443Y-79495227D01*
X71448387Y-79503079D01*
X71469457Y-79513044D01*
X71489448Y-79525026D01*
X71508168Y-79538910D01*
X71525438Y-79554562D01*
X71541090Y-79571832D01*
X71554974Y-79590552D01*
X71566956Y-79610543D01*
X71576921Y-79631613D01*
X71584773Y-79653557D01*
X71590437Y-79676166D01*
X71593856Y-79699221D01*
X71595000Y-79722500D01*
X71595000Y-80297500D01*
X71593856Y-80320779D01*
X71590437Y-80343834D01*
X71584773Y-80366443D01*
X71576921Y-80388387D01*
X71566956Y-80409457D01*
X71554974Y-80429448D01*
X71541090Y-80448168D01*
X71525438Y-80465438D01*
X71508168Y-80481090D01*
X71489448Y-80494974D01*
X71469457Y-80506956D01*
X71448387Y-80516921D01*
X71426443Y-80524773D01*
X71403834Y-80530437D01*
X71380779Y-80533856D01*
X71357500Y-80535000D01*
X70882500Y-80535000D01*
X70859221Y-80533856D01*
X70836166Y-80530437D01*
X70813557Y-80524773D01*
X70791613Y-80516921D01*
X70770543Y-80506956D01*
X70750552Y-80494974D01*
X70731832Y-80481090D01*
X70714562Y-80465438D01*
X70698910Y-80448168D01*
X70685026Y-80429448D01*
X70673044Y-80409457D01*
X70663079Y-80388387D01*
X70655227Y-80366443D01*
X70649563Y-80343834D01*
X70646144Y-80320779D01*
X70645000Y-80297500D01*
X70645000Y-79722500D01*
X70646144Y-79699221D01*
X70649563Y-79676166D01*
X70655227Y-79653557D01*
X70663079Y-79631613D01*
X70673044Y-79610543D01*
X70685026Y-79590552D01*
X70698910Y-79571832D01*
X70714562Y-79554562D01*
X70731832Y-79538910D01*
X70750552Y-79525026D01*
X70770543Y-79513044D01*
X70791613Y-79503079D01*
X70813557Y-79495227D01*
X70836166Y-79489563D01*
X70859221Y-79486144D01*
X70882500Y-79485000D01*
X71357500Y-79485000D01*
X71380779Y-79486144D01*
X71380779Y-79486144D01*
G37*
D14*
X71120000Y-80010000D03*
D13*
G36*
X82810779Y-91396144D02*
G01*
X82833834Y-91399563D01*
X82856443Y-91405227D01*
X82878387Y-91413079D01*
X82899457Y-91423044D01*
X82919448Y-91435026D01*
X82938168Y-91448910D01*
X82955438Y-91464562D01*
X82971090Y-91481832D01*
X82984974Y-91500552D01*
X82996956Y-91520543D01*
X83006921Y-91541613D01*
X83014773Y-91563557D01*
X83020437Y-91586166D01*
X83023856Y-91609221D01*
X83025000Y-91632500D01*
X83025000Y-92207500D01*
X83023856Y-92230779D01*
X83020437Y-92253834D01*
X83014773Y-92276443D01*
X83006921Y-92298387D01*
X82996956Y-92319457D01*
X82984974Y-92339448D01*
X82971090Y-92358168D01*
X82955438Y-92375438D01*
X82938168Y-92391090D01*
X82919448Y-92404974D01*
X82899457Y-92416956D01*
X82878387Y-92426921D01*
X82856443Y-92434773D01*
X82833834Y-92440437D01*
X82810779Y-92443856D01*
X82787500Y-92445000D01*
X82312500Y-92445000D01*
X82289221Y-92443856D01*
X82266166Y-92440437D01*
X82243557Y-92434773D01*
X82221613Y-92426921D01*
X82200543Y-92416956D01*
X82180552Y-92404974D01*
X82161832Y-92391090D01*
X82144562Y-92375438D01*
X82128910Y-92358168D01*
X82115026Y-92339448D01*
X82103044Y-92319457D01*
X82093079Y-92298387D01*
X82085227Y-92276443D01*
X82079563Y-92253834D01*
X82076144Y-92230779D01*
X82075000Y-92207500D01*
X82075000Y-91632500D01*
X82076144Y-91609221D01*
X82079563Y-91586166D01*
X82085227Y-91563557D01*
X82093079Y-91541613D01*
X82103044Y-91520543D01*
X82115026Y-91500552D01*
X82128910Y-91481832D01*
X82144562Y-91464562D01*
X82161832Y-91448910D01*
X82180552Y-91435026D01*
X82200543Y-91423044D01*
X82221613Y-91413079D01*
X82243557Y-91405227D01*
X82266166Y-91399563D01*
X82289221Y-91396144D01*
X82312500Y-91395000D01*
X82787500Y-91395000D01*
X82810779Y-91396144D01*
X82810779Y-91396144D01*
G37*
D14*
X82550000Y-91920000D03*
D13*
G36*
X82810779Y-89646144D02*
G01*
X82833834Y-89649563D01*
X82856443Y-89655227D01*
X82878387Y-89663079D01*
X82899457Y-89673044D01*
X82919448Y-89685026D01*
X82938168Y-89698910D01*
X82955438Y-89714562D01*
X82971090Y-89731832D01*
X82984974Y-89750552D01*
X82996956Y-89770543D01*
X83006921Y-89791613D01*
X83014773Y-89813557D01*
X83020437Y-89836166D01*
X83023856Y-89859221D01*
X83025000Y-89882500D01*
X83025000Y-90457500D01*
X83023856Y-90480779D01*
X83020437Y-90503834D01*
X83014773Y-90526443D01*
X83006921Y-90548387D01*
X82996956Y-90569457D01*
X82984974Y-90589448D01*
X82971090Y-90608168D01*
X82955438Y-90625438D01*
X82938168Y-90641090D01*
X82919448Y-90654974D01*
X82899457Y-90666956D01*
X82878387Y-90676921D01*
X82856443Y-90684773D01*
X82833834Y-90690437D01*
X82810779Y-90693856D01*
X82787500Y-90695000D01*
X82312500Y-90695000D01*
X82289221Y-90693856D01*
X82266166Y-90690437D01*
X82243557Y-90684773D01*
X82221613Y-90676921D01*
X82200543Y-90666956D01*
X82180552Y-90654974D01*
X82161832Y-90641090D01*
X82144562Y-90625438D01*
X82128910Y-90608168D01*
X82115026Y-90589448D01*
X82103044Y-90569457D01*
X82093079Y-90548387D01*
X82085227Y-90526443D01*
X82079563Y-90503834D01*
X82076144Y-90480779D01*
X82075000Y-90457500D01*
X82075000Y-89882500D01*
X82076144Y-89859221D01*
X82079563Y-89836166D01*
X82085227Y-89813557D01*
X82093079Y-89791613D01*
X82103044Y-89770543D01*
X82115026Y-89750552D01*
X82128910Y-89731832D01*
X82144562Y-89714562D01*
X82161832Y-89698910D01*
X82180552Y-89685026D01*
X82200543Y-89673044D01*
X82221613Y-89663079D01*
X82243557Y-89655227D01*
X82266166Y-89649563D01*
X82289221Y-89646144D01*
X82312500Y-89645000D01*
X82787500Y-89645000D01*
X82810779Y-89646144D01*
X82810779Y-89646144D01*
G37*
D14*
X82550000Y-90170000D03*
D13*
G36*
X119640779Y-82026144D02*
G01*
X119663834Y-82029563D01*
X119686443Y-82035227D01*
X119708387Y-82043079D01*
X119729457Y-82053044D01*
X119749448Y-82065026D01*
X119768168Y-82078910D01*
X119785438Y-82094562D01*
X119801090Y-82111832D01*
X119814974Y-82130552D01*
X119826956Y-82150543D01*
X119836921Y-82171613D01*
X119844773Y-82193557D01*
X119850437Y-82216166D01*
X119853856Y-82239221D01*
X119855000Y-82262500D01*
X119855000Y-82837500D01*
X119853856Y-82860779D01*
X119850437Y-82883834D01*
X119844773Y-82906443D01*
X119836921Y-82928387D01*
X119826956Y-82949457D01*
X119814974Y-82969448D01*
X119801090Y-82988168D01*
X119785438Y-83005438D01*
X119768168Y-83021090D01*
X119749448Y-83034974D01*
X119729457Y-83046956D01*
X119708387Y-83056921D01*
X119686443Y-83064773D01*
X119663834Y-83070437D01*
X119640779Y-83073856D01*
X119617500Y-83075000D01*
X119142500Y-83075000D01*
X119119221Y-83073856D01*
X119096166Y-83070437D01*
X119073557Y-83064773D01*
X119051613Y-83056921D01*
X119030543Y-83046956D01*
X119010552Y-83034974D01*
X118991832Y-83021090D01*
X118974562Y-83005438D01*
X118958910Y-82988168D01*
X118945026Y-82969448D01*
X118933044Y-82949457D01*
X118923079Y-82928387D01*
X118915227Y-82906443D01*
X118909563Y-82883834D01*
X118906144Y-82860779D01*
X118905000Y-82837500D01*
X118905000Y-82262500D01*
X118906144Y-82239221D01*
X118909563Y-82216166D01*
X118915227Y-82193557D01*
X118923079Y-82171613D01*
X118933044Y-82150543D01*
X118945026Y-82130552D01*
X118958910Y-82111832D01*
X118974562Y-82094562D01*
X118991832Y-82078910D01*
X119010552Y-82065026D01*
X119030543Y-82053044D01*
X119051613Y-82043079D01*
X119073557Y-82035227D01*
X119096166Y-82029563D01*
X119119221Y-82026144D01*
X119142500Y-82025000D01*
X119617500Y-82025000D01*
X119640779Y-82026144D01*
X119640779Y-82026144D01*
G37*
D14*
X119380000Y-82550000D03*
D13*
G36*
X119640779Y-80276144D02*
G01*
X119663834Y-80279563D01*
X119686443Y-80285227D01*
X119708387Y-80293079D01*
X119729457Y-80303044D01*
X119749448Y-80315026D01*
X119768168Y-80328910D01*
X119785438Y-80344562D01*
X119801090Y-80361832D01*
X119814974Y-80380552D01*
X119826956Y-80400543D01*
X119836921Y-80421613D01*
X119844773Y-80443557D01*
X119850437Y-80466166D01*
X119853856Y-80489221D01*
X119855000Y-80512500D01*
X119855000Y-81087500D01*
X119853856Y-81110779D01*
X119850437Y-81133834D01*
X119844773Y-81156443D01*
X119836921Y-81178387D01*
X119826956Y-81199457D01*
X119814974Y-81219448D01*
X119801090Y-81238168D01*
X119785438Y-81255438D01*
X119768168Y-81271090D01*
X119749448Y-81284974D01*
X119729457Y-81296956D01*
X119708387Y-81306921D01*
X119686443Y-81314773D01*
X119663834Y-81320437D01*
X119640779Y-81323856D01*
X119617500Y-81325000D01*
X119142500Y-81325000D01*
X119119221Y-81323856D01*
X119096166Y-81320437D01*
X119073557Y-81314773D01*
X119051613Y-81306921D01*
X119030543Y-81296956D01*
X119010552Y-81284974D01*
X118991832Y-81271090D01*
X118974562Y-81255438D01*
X118958910Y-81238168D01*
X118945026Y-81219448D01*
X118933044Y-81199457D01*
X118923079Y-81178387D01*
X118915227Y-81156443D01*
X118909563Y-81133834D01*
X118906144Y-81110779D01*
X118905000Y-81087500D01*
X118905000Y-80512500D01*
X118906144Y-80489221D01*
X118909563Y-80466166D01*
X118915227Y-80443557D01*
X118923079Y-80421613D01*
X118933044Y-80400543D01*
X118945026Y-80380552D01*
X118958910Y-80361832D01*
X118974562Y-80344562D01*
X118991832Y-80328910D01*
X119010552Y-80315026D01*
X119030543Y-80303044D01*
X119051613Y-80293079D01*
X119073557Y-80285227D01*
X119096166Y-80279563D01*
X119119221Y-80276144D01*
X119142500Y-80275000D01*
X119617500Y-80275000D01*
X119640779Y-80276144D01*
X119640779Y-80276144D01*
G37*
D14*
X119380000Y-80800000D03*
D13*
G36*
X147580779Y-94726144D02*
G01*
X147603834Y-94729563D01*
X147626443Y-94735227D01*
X147648387Y-94743079D01*
X147669457Y-94753044D01*
X147689448Y-94765026D01*
X147708168Y-94778910D01*
X147725438Y-94794562D01*
X147741090Y-94811832D01*
X147754974Y-94830552D01*
X147766956Y-94850543D01*
X147776921Y-94871613D01*
X147784773Y-94893557D01*
X147790437Y-94916166D01*
X147793856Y-94939221D01*
X147795000Y-94962500D01*
X147795000Y-95537500D01*
X147793856Y-95560779D01*
X147790437Y-95583834D01*
X147784773Y-95606443D01*
X147776921Y-95628387D01*
X147766956Y-95649457D01*
X147754974Y-95669448D01*
X147741090Y-95688168D01*
X147725438Y-95705438D01*
X147708168Y-95721090D01*
X147689448Y-95734974D01*
X147669457Y-95746956D01*
X147648387Y-95756921D01*
X147626443Y-95764773D01*
X147603834Y-95770437D01*
X147580779Y-95773856D01*
X147557500Y-95775000D01*
X147082500Y-95775000D01*
X147059221Y-95773856D01*
X147036166Y-95770437D01*
X147013557Y-95764773D01*
X146991613Y-95756921D01*
X146970543Y-95746956D01*
X146950552Y-95734974D01*
X146931832Y-95721090D01*
X146914562Y-95705438D01*
X146898910Y-95688168D01*
X146885026Y-95669448D01*
X146873044Y-95649457D01*
X146863079Y-95628387D01*
X146855227Y-95606443D01*
X146849563Y-95583834D01*
X146846144Y-95560779D01*
X146845000Y-95537500D01*
X146845000Y-94962500D01*
X146846144Y-94939221D01*
X146849563Y-94916166D01*
X146855227Y-94893557D01*
X146863079Y-94871613D01*
X146873044Y-94850543D01*
X146885026Y-94830552D01*
X146898910Y-94811832D01*
X146914562Y-94794562D01*
X146931832Y-94778910D01*
X146950552Y-94765026D01*
X146970543Y-94753044D01*
X146991613Y-94743079D01*
X147013557Y-94735227D01*
X147036166Y-94729563D01*
X147059221Y-94726144D01*
X147082500Y-94725000D01*
X147557500Y-94725000D01*
X147580779Y-94726144D01*
X147580779Y-94726144D01*
G37*
D14*
X147320000Y-95250000D03*
D13*
G36*
X147580779Y-96476144D02*
G01*
X147603834Y-96479563D01*
X147626443Y-96485227D01*
X147648387Y-96493079D01*
X147669457Y-96503044D01*
X147689448Y-96515026D01*
X147708168Y-96528910D01*
X147725438Y-96544562D01*
X147741090Y-96561832D01*
X147754974Y-96580552D01*
X147766956Y-96600543D01*
X147776921Y-96621613D01*
X147784773Y-96643557D01*
X147790437Y-96666166D01*
X147793856Y-96689221D01*
X147795000Y-96712500D01*
X147795000Y-97287500D01*
X147793856Y-97310779D01*
X147790437Y-97333834D01*
X147784773Y-97356443D01*
X147776921Y-97378387D01*
X147766956Y-97399457D01*
X147754974Y-97419448D01*
X147741090Y-97438168D01*
X147725438Y-97455438D01*
X147708168Y-97471090D01*
X147689448Y-97484974D01*
X147669457Y-97496956D01*
X147648387Y-97506921D01*
X147626443Y-97514773D01*
X147603834Y-97520437D01*
X147580779Y-97523856D01*
X147557500Y-97525000D01*
X147082500Y-97525000D01*
X147059221Y-97523856D01*
X147036166Y-97520437D01*
X147013557Y-97514773D01*
X146991613Y-97506921D01*
X146970543Y-97496956D01*
X146950552Y-97484974D01*
X146931832Y-97471090D01*
X146914562Y-97455438D01*
X146898910Y-97438168D01*
X146885026Y-97419448D01*
X146873044Y-97399457D01*
X146863079Y-97378387D01*
X146855227Y-97356443D01*
X146849563Y-97333834D01*
X146846144Y-97310779D01*
X146845000Y-97287500D01*
X146845000Y-96712500D01*
X146846144Y-96689221D01*
X146849563Y-96666166D01*
X146855227Y-96643557D01*
X146863079Y-96621613D01*
X146873044Y-96600543D01*
X146885026Y-96580552D01*
X146898910Y-96561832D01*
X146914562Y-96544562D01*
X146931832Y-96528910D01*
X146950552Y-96515026D01*
X146970543Y-96503044D01*
X146991613Y-96493079D01*
X147013557Y-96485227D01*
X147036166Y-96479563D01*
X147059221Y-96476144D01*
X147082500Y-96475000D01*
X147557500Y-96475000D01*
X147580779Y-96476144D01*
X147580779Y-96476144D01*
G37*
D14*
X147320000Y-97000000D03*
D13*
G36*
X139960779Y-95601144D02*
G01*
X139983834Y-95604563D01*
X140006443Y-95610227D01*
X140028387Y-95618079D01*
X140049457Y-95628044D01*
X140069448Y-95640026D01*
X140088168Y-95653910D01*
X140105438Y-95669562D01*
X140121090Y-95686832D01*
X140134974Y-95705552D01*
X140146956Y-95725543D01*
X140156921Y-95746613D01*
X140164773Y-95768557D01*
X140170437Y-95791166D01*
X140173856Y-95814221D01*
X140175000Y-95837500D01*
X140175000Y-96412500D01*
X140173856Y-96435779D01*
X140170437Y-96458834D01*
X140164773Y-96481443D01*
X140156921Y-96503387D01*
X140146956Y-96524457D01*
X140134974Y-96544448D01*
X140121090Y-96563168D01*
X140105438Y-96580438D01*
X140088168Y-96596090D01*
X140069448Y-96609974D01*
X140049457Y-96621956D01*
X140028387Y-96631921D01*
X140006443Y-96639773D01*
X139983834Y-96645437D01*
X139960779Y-96648856D01*
X139937500Y-96650000D01*
X139462500Y-96650000D01*
X139439221Y-96648856D01*
X139416166Y-96645437D01*
X139393557Y-96639773D01*
X139371613Y-96631921D01*
X139350543Y-96621956D01*
X139330552Y-96609974D01*
X139311832Y-96596090D01*
X139294562Y-96580438D01*
X139278910Y-96563168D01*
X139265026Y-96544448D01*
X139253044Y-96524457D01*
X139243079Y-96503387D01*
X139235227Y-96481443D01*
X139229563Y-96458834D01*
X139226144Y-96435779D01*
X139225000Y-96412500D01*
X139225000Y-95837500D01*
X139226144Y-95814221D01*
X139229563Y-95791166D01*
X139235227Y-95768557D01*
X139243079Y-95746613D01*
X139253044Y-95725543D01*
X139265026Y-95705552D01*
X139278910Y-95686832D01*
X139294562Y-95669562D01*
X139311832Y-95653910D01*
X139330552Y-95640026D01*
X139350543Y-95628044D01*
X139371613Y-95618079D01*
X139393557Y-95610227D01*
X139416166Y-95604563D01*
X139439221Y-95601144D01*
X139462500Y-95600000D01*
X139937500Y-95600000D01*
X139960779Y-95601144D01*
X139960779Y-95601144D01*
G37*
D14*
X139700000Y-96125000D03*
D13*
G36*
X139960779Y-93851144D02*
G01*
X139983834Y-93854563D01*
X140006443Y-93860227D01*
X140028387Y-93868079D01*
X140049457Y-93878044D01*
X140069448Y-93890026D01*
X140088168Y-93903910D01*
X140105438Y-93919562D01*
X140121090Y-93936832D01*
X140134974Y-93955552D01*
X140146956Y-93975543D01*
X140156921Y-93996613D01*
X140164773Y-94018557D01*
X140170437Y-94041166D01*
X140173856Y-94064221D01*
X140175000Y-94087500D01*
X140175000Y-94662500D01*
X140173856Y-94685779D01*
X140170437Y-94708834D01*
X140164773Y-94731443D01*
X140156921Y-94753387D01*
X140146956Y-94774457D01*
X140134974Y-94794448D01*
X140121090Y-94813168D01*
X140105438Y-94830438D01*
X140088168Y-94846090D01*
X140069448Y-94859974D01*
X140049457Y-94871956D01*
X140028387Y-94881921D01*
X140006443Y-94889773D01*
X139983834Y-94895437D01*
X139960779Y-94898856D01*
X139937500Y-94900000D01*
X139462500Y-94900000D01*
X139439221Y-94898856D01*
X139416166Y-94895437D01*
X139393557Y-94889773D01*
X139371613Y-94881921D01*
X139350543Y-94871956D01*
X139330552Y-94859974D01*
X139311832Y-94846090D01*
X139294562Y-94830438D01*
X139278910Y-94813168D01*
X139265026Y-94794448D01*
X139253044Y-94774457D01*
X139243079Y-94753387D01*
X139235227Y-94731443D01*
X139229563Y-94708834D01*
X139226144Y-94685779D01*
X139225000Y-94662500D01*
X139225000Y-94087500D01*
X139226144Y-94064221D01*
X139229563Y-94041166D01*
X139235227Y-94018557D01*
X139243079Y-93996613D01*
X139253044Y-93975543D01*
X139265026Y-93955552D01*
X139278910Y-93936832D01*
X139294562Y-93919562D01*
X139311832Y-93903910D01*
X139330552Y-93890026D01*
X139350543Y-93878044D01*
X139371613Y-93868079D01*
X139393557Y-93860227D01*
X139416166Y-93854563D01*
X139439221Y-93851144D01*
X139462500Y-93850000D01*
X139937500Y-93850000D01*
X139960779Y-93851144D01*
X139960779Y-93851144D01*
G37*
D14*
X139700000Y-94375000D03*
D15*
X122190000Y-76200000D03*
X124190000Y-75250000D03*
X124190000Y-77150000D03*
X144510000Y-88900000D03*
X142510000Y-89850000D03*
X142510000Y-87950000D03*
X144510000Y-95250000D03*
X142510000Y-96200000D03*
X142510000Y-94300000D03*
D13*
G36*
X86620779Y-93456144D02*
G01*
X86643834Y-93459563D01*
X86666443Y-93465227D01*
X86688387Y-93473079D01*
X86709457Y-93483044D01*
X86729448Y-93495026D01*
X86748168Y-93508910D01*
X86765438Y-93524562D01*
X86781090Y-93541832D01*
X86794974Y-93560552D01*
X86806956Y-93580543D01*
X86816921Y-93601613D01*
X86824773Y-93623557D01*
X86830437Y-93646166D01*
X86833856Y-93669221D01*
X86835000Y-93692500D01*
X86835000Y-94267500D01*
X86833856Y-94290779D01*
X86830437Y-94313834D01*
X86824773Y-94336443D01*
X86816921Y-94358387D01*
X86806956Y-94379457D01*
X86794974Y-94399448D01*
X86781090Y-94418168D01*
X86765438Y-94435438D01*
X86748168Y-94451090D01*
X86729448Y-94464974D01*
X86709457Y-94476956D01*
X86688387Y-94486921D01*
X86666443Y-94494773D01*
X86643834Y-94500437D01*
X86620779Y-94503856D01*
X86597500Y-94505000D01*
X86122500Y-94505000D01*
X86099221Y-94503856D01*
X86076166Y-94500437D01*
X86053557Y-94494773D01*
X86031613Y-94486921D01*
X86010543Y-94476956D01*
X85990552Y-94464974D01*
X85971832Y-94451090D01*
X85954562Y-94435438D01*
X85938910Y-94418168D01*
X85925026Y-94399448D01*
X85913044Y-94379457D01*
X85903079Y-94358387D01*
X85895227Y-94336443D01*
X85889563Y-94313834D01*
X85886144Y-94290779D01*
X85885000Y-94267500D01*
X85885000Y-93692500D01*
X85886144Y-93669221D01*
X85889563Y-93646166D01*
X85895227Y-93623557D01*
X85903079Y-93601613D01*
X85913044Y-93580543D01*
X85925026Y-93560552D01*
X85938910Y-93541832D01*
X85954562Y-93524562D01*
X85971832Y-93508910D01*
X85990552Y-93495026D01*
X86010543Y-93483044D01*
X86031613Y-93473079D01*
X86053557Y-93465227D01*
X86076166Y-93459563D01*
X86099221Y-93456144D01*
X86122500Y-93455000D01*
X86597500Y-93455000D01*
X86620779Y-93456144D01*
X86620779Y-93456144D01*
G37*
D14*
X86360000Y-93980000D03*
D13*
G36*
X86620779Y-95206144D02*
G01*
X86643834Y-95209563D01*
X86666443Y-95215227D01*
X86688387Y-95223079D01*
X86709457Y-95233044D01*
X86729448Y-95245026D01*
X86748168Y-95258910D01*
X86765438Y-95274562D01*
X86781090Y-95291832D01*
X86794974Y-95310552D01*
X86806956Y-95330543D01*
X86816921Y-95351613D01*
X86824773Y-95373557D01*
X86830437Y-95396166D01*
X86833856Y-95419221D01*
X86835000Y-95442500D01*
X86835000Y-96017500D01*
X86833856Y-96040779D01*
X86830437Y-96063834D01*
X86824773Y-96086443D01*
X86816921Y-96108387D01*
X86806956Y-96129457D01*
X86794974Y-96149448D01*
X86781090Y-96168168D01*
X86765438Y-96185438D01*
X86748168Y-96201090D01*
X86729448Y-96214974D01*
X86709457Y-96226956D01*
X86688387Y-96236921D01*
X86666443Y-96244773D01*
X86643834Y-96250437D01*
X86620779Y-96253856D01*
X86597500Y-96255000D01*
X86122500Y-96255000D01*
X86099221Y-96253856D01*
X86076166Y-96250437D01*
X86053557Y-96244773D01*
X86031613Y-96236921D01*
X86010543Y-96226956D01*
X85990552Y-96214974D01*
X85971832Y-96201090D01*
X85954562Y-96185438D01*
X85938910Y-96168168D01*
X85925026Y-96149448D01*
X85913044Y-96129457D01*
X85903079Y-96108387D01*
X85895227Y-96086443D01*
X85889563Y-96063834D01*
X85886144Y-96040779D01*
X85885000Y-96017500D01*
X85885000Y-95442500D01*
X85886144Y-95419221D01*
X85889563Y-95396166D01*
X85895227Y-95373557D01*
X85903079Y-95351613D01*
X85913044Y-95330543D01*
X85925026Y-95310552D01*
X85938910Y-95291832D01*
X85954562Y-95274562D01*
X85971832Y-95258910D01*
X85990552Y-95245026D01*
X86010543Y-95233044D01*
X86031613Y-95223079D01*
X86053557Y-95215227D01*
X86076166Y-95209563D01*
X86099221Y-95206144D01*
X86122500Y-95205000D01*
X86597500Y-95205000D01*
X86620779Y-95206144D01*
X86620779Y-95206144D01*
G37*
D14*
X86360000Y-95730000D03*
D13*
G36*
X79000779Y-93456144D02*
G01*
X79023834Y-93459563D01*
X79046443Y-93465227D01*
X79068387Y-93473079D01*
X79089457Y-93483044D01*
X79109448Y-93495026D01*
X79128168Y-93508910D01*
X79145438Y-93524562D01*
X79161090Y-93541832D01*
X79174974Y-93560552D01*
X79186956Y-93580543D01*
X79196921Y-93601613D01*
X79204773Y-93623557D01*
X79210437Y-93646166D01*
X79213856Y-93669221D01*
X79215000Y-93692500D01*
X79215000Y-94267500D01*
X79213856Y-94290779D01*
X79210437Y-94313834D01*
X79204773Y-94336443D01*
X79196921Y-94358387D01*
X79186956Y-94379457D01*
X79174974Y-94399448D01*
X79161090Y-94418168D01*
X79145438Y-94435438D01*
X79128168Y-94451090D01*
X79109448Y-94464974D01*
X79089457Y-94476956D01*
X79068387Y-94486921D01*
X79046443Y-94494773D01*
X79023834Y-94500437D01*
X79000779Y-94503856D01*
X78977500Y-94505000D01*
X78502500Y-94505000D01*
X78479221Y-94503856D01*
X78456166Y-94500437D01*
X78433557Y-94494773D01*
X78411613Y-94486921D01*
X78390543Y-94476956D01*
X78370552Y-94464974D01*
X78351832Y-94451090D01*
X78334562Y-94435438D01*
X78318910Y-94418168D01*
X78305026Y-94399448D01*
X78293044Y-94379457D01*
X78283079Y-94358387D01*
X78275227Y-94336443D01*
X78269563Y-94313834D01*
X78266144Y-94290779D01*
X78265000Y-94267500D01*
X78265000Y-93692500D01*
X78266144Y-93669221D01*
X78269563Y-93646166D01*
X78275227Y-93623557D01*
X78283079Y-93601613D01*
X78293044Y-93580543D01*
X78305026Y-93560552D01*
X78318910Y-93541832D01*
X78334562Y-93524562D01*
X78351832Y-93508910D01*
X78370552Y-93495026D01*
X78390543Y-93483044D01*
X78411613Y-93473079D01*
X78433557Y-93465227D01*
X78456166Y-93459563D01*
X78479221Y-93456144D01*
X78502500Y-93455000D01*
X78977500Y-93455000D01*
X79000779Y-93456144D01*
X79000779Y-93456144D01*
G37*
D14*
X78740000Y-93980000D03*
D13*
G36*
X79000779Y-95206144D02*
G01*
X79023834Y-95209563D01*
X79046443Y-95215227D01*
X79068387Y-95223079D01*
X79089457Y-95233044D01*
X79109448Y-95245026D01*
X79128168Y-95258910D01*
X79145438Y-95274562D01*
X79161090Y-95291832D01*
X79174974Y-95310552D01*
X79186956Y-95330543D01*
X79196921Y-95351613D01*
X79204773Y-95373557D01*
X79210437Y-95396166D01*
X79213856Y-95419221D01*
X79215000Y-95442500D01*
X79215000Y-96017500D01*
X79213856Y-96040779D01*
X79210437Y-96063834D01*
X79204773Y-96086443D01*
X79196921Y-96108387D01*
X79186956Y-96129457D01*
X79174974Y-96149448D01*
X79161090Y-96168168D01*
X79145438Y-96185438D01*
X79128168Y-96201090D01*
X79109448Y-96214974D01*
X79089457Y-96226956D01*
X79068387Y-96236921D01*
X79046443Y-96244773D01*
X79023834Y-96250437D01*
X79000779Y-96253856D01*
X78977500Y-96255000D01*
X78502500Y-96255000D01*
X78479221Y-96253856D01*
X78456166Y-96250437D01*
X78433557Y-96244773D01*
X78411613Y-96236921D01*
X78390543Y-96226956D01*
X78370552Y-96214974D01*
X78351832Y-96201090D01*
X78334562Y-96185438D01*
X78318910Y-96168168D01*
X78305026Y-96149448D01*
X78293044Y-96129457D01*
X78283079Y-96108387D01*
X78275227Y-96086443D01*
X78269563Y-96063834D01*
X78266144Y-96040779D01*
X78265000Y-96017500D01*
X78265000Y-95442500D01*
X78266144Y-95419221D01*
X78269563Y-95396166D01*
X78275227Y-95373557D01*
X78283079Y-95351613D01*
X78293044Y-95330543D01*
X78305026Y-95310552D01*
X78318910Y-95291832D01*
X78334562Y-95274562D01*
X78351832Y-95258910D01*
X78370552Y-95245026D01*
X78390543Y-95233044D01*
X78411613Y-95223079D01*
X78433557Y-95215227D01*
X78456166Y-95209563D01*
X78479221Y-95206144D01*
X78502500Y-95205000D01*
X78977500Y-95205000D01*
X79000779Y-95206144D01*
X79000779Y-95206144D01*
G37*
D14*
X78740000Y-95730000D03*
D13*
G36*
X82810779Y-93456144D02*
G01*
X82833834Y-93459563D01*
X82856443Y-93465227D01*
X82878387Y-93473079D01*
X82899457Y-93483044D01*
X82919448Y-93495026D01*
X82938168Y-93508910D01*
X82955438Y-93524562D01*
X82971090Y-93541832D01*
X82984974Y-93560552D01*
X82996956Y-93580543D01*
X83006921Y-93601613D01*
X83014773Y-93623557D01*
X83020437Y-93646166D01*
X83023856Y-93669221D01*
X83025000Y-93692500D01*
X83025000Y-94267500D01*
X83023856Y-94290779D01*
X83020437Y-94313834D01*
X83014773Y-94336443D01*
X83006921Y-94358387D01*
X82996956Y-94379457D01*
X82984974Y-94399448D01*
X82971090Y-94418168D01*
X82955438Y-94435438D01*
X82938168Y-94451090D01*
X82919448Y-94464974D01*
X82899457Y-94476956D01*
X82878387Y-94486921D01*
X82856443Y-94494773D01*
X82833834Y-94500437D01*
X82810779Y-94503856D01*
X82787500Y-94505000D01*
X82312500Y-94505000D01*
X82289221Y-94503856D01*
X82266166Y-94500437D01*
X82243557Y-94494773D01*
X82221613Y-94486921D01*
X82200543Y-94476956D01*
X82180552Y-94464974D01*
X82161832Y-94451090D01*
X82144562Y-94435438D01*
X82128910Y-94418168D01*
X82115026Y-94399448D01*
X82103044Y-94379457D01*
X82093079Y-94358387D01*
X82085227Y-94336443D01*
X82079563Y-94313834D01*
X82076144Y-94290779D01*
X82075000Y-94267500D01*
X82075000Y-93692500D01*
X82076144Y-93669221D01*
X82079563Y-93646166D01*
X82085227Y-93623557D01*
X82093079Y-93601613D01*
X82103044Y-93580543D01*
X82115026Y-93560552D01*
X82128910Y-93541832D01*
X82144562Y-93524562D01*
X82161832Y-93508910D01*
X82180552Y-93495026D01*
X82200543Y-93483044D01*
X82221613Y-93473079D01*
X82243557Y-93465227D01*
X82266166Y-93459563D01*
X82289221Y-93456144D01*
X82312500Y-93455000D01*
X82787500Y-93455000D01*
X82810779Y-93456144D01*
X82810779Y-93456144D01*
G37*
D14*
X82550000Y-93980000D03*
D13*
G36*
X82810779Y-95206144D02*
G01*
X82833834Y-95209563D01*
X82856443Y-95215227D01*
X82878387Y-95223079D01*
X82899457Y-95233044D01*
X82919448Y-95245026D01*
X82938168Y-95258910D01*
X82955438Y-95274562D01*
X82971090Y-95291832D01*
X82984974Y-95310552D01*
X82996956Y-95330543D01*
X83006921Y-95351613D01*
X83014773Y-95373557D01*
X83020437Y-95396166D01*
X83023856Y-95419221D01*
X83025000Y-95442500D01*
X83025000Y-96017500D01*
X83023856Y-96040779D01*
X83020437Y-96063834D01*
X83014773Y-96086443D01*
X83006921Y-96108387D01*
X82996956Y-96129457D01*
X82984974Y-96149448D01*
X82971090Y-96168168D01*
X82955438Y-96185438D01*
X82938168Y-96201090D01*
X82919448Y-96214974D01*
X82899457Y-96226956D01*
X82878387Y-96236921D01*
X82856443Y-96244773D01*
X82833834Y-96250437D01*
X82810779Y-96253856D01*
X82787500Y-96255000D01*
X82312500Y-96255000D01*
X82289221Y-96253856D01*
X82266166Y-96250437D01*
X82243557Y-96244773D01*
X82221613Y-96236921D01*
X82200543Y-96226956D01*
X82180552Y-96214974D01*
X82161832Y-96201090D01*
X82144562Y-96185438D01*
X82128910Y-96168168D01*
X82115026Y-96149448D01*
X82103044Y-96129457D01*
X82093079Y-96108387D01*
X82085227Y-96086443D01*
X82079563Y-96063834D01*
X82076144Y-96040779D01*
X82075000Y-96017500D01*
X82075000Y-95442500D01*
X82076144Y-95419221D01*
X82079563Y-95396166D01*
X82085227Y-95373557D01*
X82093079Y-95351613D01*
X82103044Y-95330543D01*
X82115026Y-95310552D01*
X82128910Y-95291832D01*
X82144562Y-95274562D01*
X82161832Y-95258910D01*
X82180552Y-95245026D01*
X82200543Y-95233044D01*
X82221613Y-95223079D01*
X82243557Y-95215227D01*
X82266166Y-95209563D01*
X82289221Y-95206144D01*
X82312500Y-95205000D01*
X82787500Y-95205000D01*
X82810779Y-95206144D01*
X82810779Y-95206144D01*
G37*
D14*
X82550000Y-95730000D03*
D13*
G36*
X75190779Y-83296144D02*
G01*
X75213834Y-83299563D01*
X75236443Y-83305227D01*
X75258387Y-83313079D01*
X75279457Y-83323044D01*
X75299448Y-83335026D01*
X75318168Y-83348910D01*
X75335438Y-83364562D01*
X75351090Y-83381832D01*
X75364974Y-83400552D01*
X75376956Y-83420543D01*
X75386921Y-83441613D01*
X75394773Y-83463557D01*
X75400437Y-83486166D01*
X75403856Y-83509221D01*
X75405000Y-83532500D01*
X75405000Y-84107500D01*
X75403856Y-84130779D01*
X75400437Y-84153834D01*
X75394773Y-84176443D01*
X75386921Y-84198387D01*
X75376956Y-84219457D01*
X75364974Y-84239448D01*
X75351090Y-84258168D01*
X75335438Y-84275438D01*
X75318168Y-84291090D01*
X75299448Y-84304974D01*
X75279457Y-84316956D01*
X75258387Y-84326921D01*
X75236443Y-84334773D01*
X75213834Y-84340437D01*
X75190779Y-84343856D01*
X75167500Y-84345000D01*
X74692500Y-84345000D01*
X74669221Y-84343856D01*
X74646166Y-84340437D01*
X74623557Y-84334773D01*
X74601613Y-84326921D01*
X74580543Y-84316956D01*
X74560552Y-84304974D01*
X74541832Y-84291090D01*
X74524562Y-84275438D01*
X74508910Y-84258168D01*
X74495026Y-84239448D01*
X74483044Y-84219457D01*
X74473079Y-84198387D01*
X74465227Y-84176443D01*
X74459563Y-84153834D01*
X74456144Y-84130779D01*
X74455000Y-84107500D01*
X74455000Y-83532500D01*
X74456144Y-83509221D01*
X74459563Y-83486166D01*
X74465227Y-83463557D01*
X74473079Y-83441613D01*
X74483044Y-83420543D01*
X74495026Y-83400552D01*
X74508910Y-83381832D01*
X74524562Y-83364562D01*
X74541832Y-83348910D01*
X74560552Y-83335026D01*
X74580543Y-83323044D01*
X74601613Y-83313079D01*
X74623557Y-83305227D01*
X74646166Y-83299563D01*
X74669221Y-83296144D01*
X74692500Y-83295000D01*
X75167500Y-83295000D01*
X75190779Y-83296144D01*
X75190779Y-83296144D01*
G37*
D14*
X74930000Y-83820000D03*
D13*
G36*
X75190779Y-85046144D02*
G01*
X75213834Y-85049563D01*
X75236443Y-85055227D01*
X75258387Y-85063079D01*
X75279457Y-85073044D01*
X75299448Y-85085026D01*
X75318168Y-85098910D01*
X75335438Y-85114562D01*
X75351090Y-85131832D01*
X75364974Y-85150552D01*
X75376956Y-85170543D01*
X75386921Y-85191613D01*
X75394773Y-85213557D01*
X75400437Y-85236166D01*
X75403856Y-85259221D01*
X75405000Y-85282500D01*
X75405000Y-85857500D01*
X75403856Y-85880779D01*
X75400437Y-85903834D01*
X75394773Y-85926443D01*
X75386921Y-85948387D01*
X75376956Y-85969457D01*
X75364974Y-85989448D01*
X75351090Y-86008168D01*
X75335438Y-86025438D01*
X75318168Y-86041090D01*
X75299448Y-86054974D01*
X75279457Y-86066956D01*
X75258387Y-86076921D01*
X75236443Y-86084773D01*
X75213834Y-86090437D01*
X75190779Y-86093856D01*
X75167500Y-86095000D01*
X74692500Y-86095000D01*
X74669221Y-86093856D01*
X74646166Y-86090437D01*
X74623557Y-86084773D01*
X74601613Y-86076921D01*
X74580543Y-86066956D01*
X74560552Y-86054974D01*
X74541832Y-86041090D01*
X74524562Y-86025438D01*
X74508910Y-86008168D01*
X74495026Y-85989448D01*
X74483044Y-85969457D01*
X74473079Y-85948387D01*
X74465227Y-85926443D01*
X74459563Y-85903834D01*
X74456144Y-85880779D01*
X74455000Y-85857500D01*
X74455000Y-85282500D01*
X74456144Y-85259221D01*
X74459563Y-85236166D01*
X74465227Y-85213557D01*
X74473079Y-85191613D01*
X74483044Y-85170543D01*
X74495026Y-85150552D01*
X74508910Y-85131832D01*
X74524562Y-85114562D01*
X74541832Y-85098910D01*
X74560552Y-85085026D01*
X74580543Y-85073044D01*
X74601613Y-85063079D01*
X74623557Y-85055227D01*
X74646166Y-85049563D01*
X74669221Y-85046144D01*
X74692500Y-85045000D01*
X75167500Y-85045000D01*
X75190779Y-85046144D01*
X75190779Y-85046144D01*
G37*
D14*
X74930000Y-85570000D03*
D13*
G36*
X98050779Y-83296144D02*
G01*
X98073834Y-83299563D01*
X98096443Y-83305227D01*
X98118387Y-83313079D01*
X98139457Y-83323044D01*
X98159448Y-83335026D01*
X98178168Y-83348910D01*
X98195438Y-83364562D01*
X98211090Y-83381832D01*
X98224974Y-83400552D01*
X98236956Y-83420543D01*
X98246921Y-83441613D01*
X98254773Y-83463557D01*
X98260437Y-83486166D01*
X98263856Y-83509221D01*
X98265000Y-83532500D01*
X98265000Y-84107500D01*
X98263856Y-84130779D01*
X98260437Y-84153834D01*
X98254773Y-84176443D01*
X98246921Y-84198387D01*
X98236956Y-84219457D01*
X98224974Y-84239448D01*
X98211090Y-84258168D01*
X98195438Y-84275438D01*
X98178168Y-84291090D01*
X98159448Y-84304974D01*
X98139457Y-84316956D01*
X98118387Y-84326921D01*
X98096443Y-84334773D01*
X98073834Y-84340437D01*
X98050779Y-84343856D01*
X98027500Y-84345000D01*
X97552500Y-84345000D01*
X97529221Y-84343856D01*
X97506166Y-84340437D01*
X97483557Y-84334773D01*
X97461613Y-84326921D01*
X97440543Y-84316956D01*
X97420552Y-84304974D01*
X97401832Y-84291090D01*
X97384562Y-84275438D01*
X97368910Y-84258168D01*
X97355026Y-84239448D01*
X97343044Y-84219457D01*
X97333079Y-84198387D01*
X97325227Y-84176443D01*
X97319563Y-84153834D01*
X97316144Y-84130779D01*
X97315000Y-84107500D01*
X97315000Y-83532500D01*
X97316144Y-83509221D01*
X97319563Y-83486166D01*
X97325227Y-83463557D01*
X97333079Y-83441613D01*
X97343044Y-83420543D01*
X97355026Y-83400552D01*
X97368910Y-83381832D01*
X97384562Y-83364562D01*
X97401832Y-83348910D01*
X97420552Y-83335026D01*
X97440543Y-83323044D01*
X97461613Y-83313079D01*
X97483557Y-83305227D01*
X97506166Y-83299563D01*
X97529221Y-83296144D01*
X97552500Y-83295000D01*
X98027500Y-83295000D01*
X98050779Y-83296144D01*
X98050779Y-83296144D01*
G37*
D14*
X97790000Y-83820000D03*
D13*
G36*
X98050779Y-85046144D02*
G01*
X98073834Y-85049563D01*
X98096443Y-85055227D01*
X98118387Y-85063079D01*
X98139457Y-85073044D01*
X98159448Y-85085026D01*
X98178168Y-85098910D01*
X98195438Y-85114562D01*
X98211090Y-85131832D01*
X98224974Y-85150552D01*
X98236956Y-85170543D01*
X98246921Y-85191613D01*
X98254773Y-85213557D01*
X98260437Y-85236166D01*
X98263856Y-85259221D01*
X98265000Y-85282500D01*
X98265000Y-85857500D01*
X98263856Y-85880779D01*
X98260437Y-85903834D01*
X98254773Y-85926443D01*
X98246921Y-85948387D01*
X98236956Y-85969457D01*
X98224974Y-85989448D01*
X98211090Y-86008168D01*
X98195438Y-86025438D01*
X98178168Y-86041090D01*
X98159448Y-86054974D01*
X98139457Y-86066956D01*
X98118387Y-86076921D01*
X98096443Y-86084773D01*
X98073834Y-86090437D01*
X98050779Y-86093856D01*
X98027500Y-86095000D01*
X97552500Y-86095000D01*
X97529221Y-86093856D01*
X97506166Y-86090437D01*
X97483557Y-86084773D01*
X97461613Y-86076921D01*
X97440543Y-86066956D01*
X97420552Y-86054974D01*
X97401832Y-86041090D01*
X97384562Y-86025438D01*
X97368910Y-86008168D01*
X97355026Y-85989448D01*
X97343044Y-85969457D01*
X97333079Y-85948387D01*
X97325227Y-85926443D01*
X97319563Y-85903834D01*
X97316144Y-85880779D01*
X97315000Y-85857500D01*
X97315000Y-85282500D01*
X97316144Y-85259221D01*
X97319563Y-85236166D01*
X97325227Y-85213557D01*
X97333079Y-85191613D01*
X97343044Y-85170543D01*
X97355026Y-85150552D01*
X97368910Y-85131832D01*
X97384562Y-85114562D01*
X97401832Y-85098910D01*
X97420552Y-85085026D01*
X97440543Y-85073044D01*
X97461613Y-85063079D01*
X97483557Y-85055227D01*
X97506166Y-85049563D01*
X97529221Y-85046144D01*
X97552500Y-85045000D01*
X98027500Y-85045000D01*
X98050779Y-85046144D01*
X98050779Y-85046144D01*
G37*
D14*
X97790000Y-85570000D03*
D13*
G36*
X71380779Y-93456144D02*
G01*
X71403834Y-93459563D01*
X71426443Y-93465227D01*
X71448387Y-93473079D01*
X71469457Y-93483044D01*
X71489448Y-93495026D01*
X71508168Y-93508910D01*
X71525438Y-93524562D01*
X71541090Y-93541832D01*
X71554974Y-93560552D01*
X71566956Y-93580543D01*
X71576921Y-93601613D01*
X71584773Y-93623557D01*
X71590437Y-93646166D01*
X71593856Y-93669221D01*
X71595000Y-93692500D01*
X71595000Y-94267500D01*
X71593856Y-94290779D01*
X71590437Y-94313834D01*
X71584773Y-94336443D01*
X71576921Y-94358387D01*
X71566956Y-94379457D01*
X71554974Y-94399448D01*
X71541090Y-94418168D01*
X71525438Y-94435438D01*
X71508168Y-94451090D01*
X71489448Y-94464974D01*
X71469457Y-94476956D01*
X71448387Y-94486921D01*
X71426443Y-94494773D01*
X71403834Y-94500437D01*
X71380779Y-94503856D01*
X71357500Y-94505000D01*
X70882500Y-94505000D01*
X70859221Y-94503856D01*
X70836166Y-94500437D01*
X70813557Y-94494773D01*
X70791613Y-94486921D01*
X70770543Y-94476956D01*
X70750552Y-94464974D01*
X70731832Y-94451090D01*
X70714562Y-94435438D01*
X70698910Y-94418168D01*
X70685026Y-94399448D01*
X70673044Y-94379457D01*
X70663079Y-94358387D01*
X70655227Y-94336443D01*
X70649563Y-94313834D01*
X70646144Y-94290779D01*
X70645000Y-94267500D01*
X70645000Y-93692500D01*
X70646144Y-93669221D01*
X70649563Y-93646166D01*
X70655227Y-93623557D01*
X70663079Y-93601613D01*
X70673044Y-93580543D01*
X70685026Y-93560552D01*
X70698910Y-93541832D01*
X70714562Y-93524562D01*
X70731832Y-93508910D01*
X70750552Y-93495026D01*
X70770543Y-93483044D01*
X70791613Y-93473079D01*
X70813557Y-93465227D01*
X70836166Y-93459563D01*
X70859221Y-93456144D01*
X70882500Y-93455000D01*
X71357500Y-93455000D01*
X71380779Y-93456144D01*
X71380779Y-93456144D01*
G37*
D14*
X71120000Y-93980000D03*
D13*
G36*
X71380779Y-95206144D02*
G01*
X71403834Y-95209563D01*
X71426443Y-95215227D01*
X71448387Y-95223079D01*
X71469457Y-95233044D01*
X71489448Y-95245026D01*
X71508168Y-95258910D01*
X71525438Y-95274562D01*
X71541090Y-95291832D01*
X71554974Y-95310552D01*
X71566956Y-95330543D01*
X71576921Y-95351613D01*
X71584773Y-95373557D01*
X71590437Y-95396166D01*
X71593856Y-95419221D01*
X71595000Y-95442500D01*
X71595000Y-96017500D01*
X71593856Y-96040779D01*
X71590437Y-96063834D01*
X71584773Y-96086443D01*
X71576921Y-96108387D01*
X71566956Y-96129457D01*
X71554974Y-96149448D01*
X71541090Y-96168168D01*
X71525438Y-96185438D01*
X71508168Y-96201090D01*
X71489448Y-96214974D01*
X71469457Y-96226956D01*
X71448387Y-96236921D01*
X71426443Y-96244773D01*
X71403834Y-96250437D01*
X71380779Y-96253856D01*
X71357500Y-96255000D01*
X70882500Y-96255000D01*
X70859221Y-96253856D01*
X70836166Y-96250437D01*
X70813557Y-96244773D01*
X70791613Y-96236921D01*
X70770543Y-96226956D01*
X70750552Y-96214974D01*
X70731832Y-96201090D01*
X70714562Y-96185438D01*
X70698910Y-96168168D01*
X70685026Y-96149448D01*
X70673044Y-96129457D01*
X70663079Y-96108387D01*
X70655227Y-96086443D01*
X70649563Y-96063834D01*
X70646144Y-96040779D01*
X70645000Y-96017500D01*
X70645000Y-95442500D01*
X70646144Y-95419221D01*
X70649563Y-95396166D01*
X70655227Y-95373557D01*
X70663079Y-95351613D01*
X70673044Y-95330543D01*
X70685026Y-95310552D01*
X70698910Y-95291832D01*
X70714562Y-95274562D01*
X70731832Y-95258910D01*
X70750552Y-95245026D01*
X70770543Y-95233044D01*
X70791613Y-95223079D01*
X70813557Y-95215227D01*
X70836166Y-95209563D01*
X70859221Y-95206144D01*
X70882500Y-95205000D01*
X71357500Y-95205000D01*
X71380779Y-95206144D01*
X71380779Y-95206144D01*
G37*
D14*
X71120000Y-95730000D03*
D13*
G36*
X75190779Y-93456144D02*
G01*
X75213834Y-93459563D01*
X75236443Y-93465227D01*
X75258387Y-93473079D01*
X75279457Y-93483044D01*
X75299448Y-93495026D01*
X75318168Y-93508910D01*
X75335438Y-93524562D01*
X75351090Y-93541832D01*
X75364974Y-93560552D01*
X75376956Y-93580543D01*
X75386921Y-93601613D01*
X75394773Y-93623557D01*
X75400437Y-93646166D01*
X75403856Y-93669221D01*
X75405000Y-93692500D01*
X75405000Y-94267500D01*
X75403856Y-94290779D01*
X75400437Y-94313834D01*
X75394773Y-94336443D01*
X75386921Y-94358387D01*
X75376956Y-94379457D01*
X75364974Y-94399448D01*
X75351090Y-94418168D01*
X75335438Y-94435438D01*
X75318168Y-94451090D01*
X75299448Y-94464974D01*
X75279457Y-94476956D01*
X75258387Y-94486921D01*
X75236443Y-94494773D01*
X75213834Y-94500437D01*
X75190779Y-94503856D01*
X75167500Y-94505000D01*
X74692500Y-94505000D01*
X74669221Y-94503856D01*
X74646166Y-94500437D01*
X74623557Y-94494773D01*
X74601613Y-94486921D01*
X74580543Y-94476956D01*
X74560552Y-94464974D01*
X74541832Y-94451090D01*
X74524562Y-94435438D01*
X74508910Y-94418168D01*
X74495026Y-94399448D01*
X74483044Y-94379457D01*
X74473079Y-94358387D01*
X74465227Y-94336443D01*
X74459563Y-94313834D01*
X74456144Y-94290779D01*
X74455000Y-94267500D01*
X74455000Y-93692500D01*
X74456144Y-93669221D01*
X74459563Y-93646166D01*
X74465227Y-93623557D01*
X74473079Y-93601613D01*
X74483044Y-93580543D01*
X74495026Y-93560552D01*
X74508910Y-93541832D01*
X74524562Y-93524562D01*
X74541832Y-93508910D01*
X74560552Y-93495026D01*
X74580543Y-93483044D01*
X74601613Y-93473079D01*
X74623557Y-93465227D01*
X74646166Y-93459563D01*
X74669221Y-93456144D01*
X74692500Y-93455000D01*
X75167500Y-93455000D01*
X75190779Y-93456144D01*
X75190779Y-93456144D01*
G37*
D14*
X74930000Y-93980000D03*
D13*
G36*
X75190779Y-95206144D02*
G01*
X75213834Y-95209563D01*
X75236443Y-95215227D01*
X75258387Y-95223079D01*
X75279457Y-95233044D01*
X75299448Y-95245026D01*
X75318168Y-95258910D01*
X75335438Y-95274562D01*
X75351090Y-95291832D01*
X75364974Y-95310552D01*
X75376956Y-95330543D01*
X75386921Y-95351613D01*
X75394773Y-95373557D01*
X75400437Y-95396166D01*
X75403856Y-95419221D01*
X75405000Y-95442500D01*
X75405000Y-96017500D01*
X75403856Y-96040779D01*
X75400437Y-96063834D01*
X75394773Y-96086443D01*
X75386921Y-96108387D01*
X75376956Y-96129457D01*
X75364974Y-96149448D01*
X75351090Y-96168168D01*
X75335438Y-96185438D01*
X75318168Y-96201090D01*
X75299448Y-96214974D01*
X75279457Y-96226956D01*
X75258387Y-96236921D01*
X75236443Y-96244773D01*
X75213834Y-96250437D01*
X75190779Y-96253856D01*
X75167500Y-96255000D01*
X74692500Y-96255000D01*
X74669221Y-96253856D01*
X74646166Y-96250437D01*
X74623557Y-96244773D01*
X74601613Y-96236921D01*
X74580543Y-96226956D01*
X74560552Y-96214974D01*
X74541832Y-96201090D01*
X74524562Y-96185438D01*
X74508910Y-96168168D01*
X74495026Y-96149448D01*
X74483044Y-96129457D01*
X74473079Y-96108387D01*
X74465227Y-96086443D01*
X74459563Y-96063834D01*
X74456144Y-96040779D01*
X74455000Y-96017500D01*
X74455000Y-95442500D01*
X74456144Y-95419221D01*
X74459563Y-95396166D01*
X74465227Y-95373557D01*
X74473079Y-95351613D01*
X74483044Y-95330543D01*
X74495026Y-95310552D01*
X74508910Y-95291832D01*
X74524562Y-95274562D01*
X74541832Y-95258910D01*
X74560552Y-95245026D01*
X74580543Y-95233044D01*
X74601613Y-95223079D01*
X74623557Y-95215227D01*
X74646166Y-95209563D01*
X74669221Y-95206144D01*
X74692500Y-95205000D01*
X75167500Y-95205000D01*
X75190779Y-95206144D01*
X75190779Y-95206144D01*
G37*
D14*
X74930000Y-95730000D03*
D13*
G36*
X90430779Y-93456144D02*
G01*
X90453834Y-93459563D01*
X90476443Y-93465227D01*
X90498387Y-93473079D01*
X90519457Y-93483044D01*
X90539448Y-93495026D01*
X90558168Y-93508910D01*
X90575438Y-93524562D01*
X90591090Y-93541832D01*
X90604974Y-93560552D01*
X90616956Y-93580543D01*
X90626921Y-93601613D01*
X90634773Y-93623557D01*
X90640437Y-93646166D01*
X90643856Y-93669221D01*
X90645000Y-93692500D01*
X90645000Y-94267500D01*
X90643856Y-94290779D01*
X90640437Y-94313834D01*
X90634773Y-94336443D01*
X90626921Y-94358387D01*
X90616956Y-94379457D01*
X90604974Y-94399448D01*
X90591090Y-94418168D01*
X90575438Y-94435438D01*
X90558168Y-94451090D01*
X90539448Y-94464974D01*
X90519457Y-94476956D01*
X90498387Y-94486921D01*
X90476443Y-94494773D01*
X90453834Y-94500437D01*
X90430779Y-94503856D01*
X90407500Y-94505000D01*
X89932500Y-94505000D01*
X89909221Y-94503856D01*
X89886166Y-94500437D01*
X89863557Y-94494773D01*
X89841613Y-94486921D01*
X89820543Y-94476956D01*
X89800552Y-94464974D01*
X89781832Y-94451090D01*
X89764562Y-94435438D01*
X89748910Y-94418168D01*
X89735026Y-94399448D01*
X89723044Y-94379457D01*
X89713079Y-94358387D01*
X89705227Y-94336443D01*
X89699563Y-94313834D01*
X89696144Y-94290779D01*
X89695000Y-94267500D01*
X89695000Y-93692500D01*
X89696144Y-93669221D01*
X89699563Y-93646166D01*
X89705227Y-93623557D01*
X89713079Y-93601613D01*
X89723044Y-93580543D01*
X89735026Y-93560552D01*
X89748910Y-93541832D01*
X89764562Y-93524562D01*
X89781832Y-93508910D01*
X89800552Y-93495026D01*
X89820543Y-93483044D01*
X89841613Y-93473079D01*
X89863557Y-93465227D01*
X89886166Y-93459563D01*
X89909221Y-93456144D01*
X89932500Y-93455000D01*
X90407500Y-93455000D01*
X90430779Y-93456144D01*
X90430779Y-93456144D01*
G37*
D14*
X90170000Y-93980000D03*
D13*
G36*
X90430779Y-95206144D02*
G01*
X90453834Y-95209563D01*
X90476443Y-95215227D01*
X90498387Y-95223079D01*
X90519457Y-95233044D01*
X90539448Y-95245026D01*
X90558168Y-95258910D01*
X90575438Y-95274562D01*
X90591090Y-95291832D01*
X90604974Y-95310552D01*
X90616956Y-95330543D01*
X90626921Y-95351613D01*
X90634773Y-95373557D01*
X90640437Y-95396166D01*
X90643856Y-95419221D01*
X90645000Y-95442500D01*
X90645000Y-96017500D01*
X90643856Y-96040779D01*
X90640437Y-96063834D01*
X90634773Y-96086443D01*
X90626921Y-96108387D01*
X90616956Y-96129457D01*
X90604974Y-96149448D01*
X90591090Y-96168168D01*
X90575438Y-96185438D01*
X90558168Y-96201090D01*
X90539448Y-96214974D01*
X90519457Y-96226956D01*
X90498387Y-96236921D01*
X90476443Y-96244773D01*
X90453834Y-96250437D01*
X90430779Y-96253856D01*
X90407500Y-96255000D01*
X89932500Y-96255000D01*
X89909221Y-96253856D01*
X89886166Y-96250437D01*
X89863557Y-96244773D01*
X89841613Y-96236921D01*
X89820543Y-96226956D01*
X89800552Y-96214974D01*
X89781832Y-96201090D01*
X89764562Y-96185438D01*
X89748910Y-96168168D01*
X89735026Y-96149448D01*
X89723044Y-96129457D01*
X89713079Y-96108387D01*
X89705227Y-96086443D01*
X89699563Y-96063834D01*
X89696144Y-96040779D01*
X89695000Y-96017500D01*
X89695000Y-95442500D01*
X89696144Y-95419221D01*
X89699563Y-95396166D01*
X89705227Y-95373557D01*
X89713079Y-95351613D01*
X89723044Y-95330543D01*
X89735026Y-95310552D01*
X89748910Y-95291832D01*
X89764562Y-95274562D01*
X89781832Y-95258910D01*
X89800552Y-95245026D01*
X89820543Y-95233044D01*
X89841613Y-95223079D01*
X89863557Y-95215227D01*
X89886166Y-95209563D01*
X89909221Y-95206144D01*
X89932500Y-95205000D01*
X90407500Y-95205000D01*
X90430779Y-95206144D01*
X90430779Y-95206144D01*
G37*
D14*
X90170000Y-95730000D03*
D13*
G36*
X94240779Y-83296144D02*
G01*
X94263834Y-83299563D01*
X94286443Y-83305227D01*
X94308387Y-83313079D01*
X94329457Y-83323044D01*
X94349448Y-83335026D01*
X94368168Y-83348910D01*
X94385438Y-83364562D01*
X94401090Y-83381832D01*
X94414974Y-83400552D01*
X94426956Y-83420543D01*
X94436921Y-83441613D01*
X94444773Y-83463557D01*
X94450437Y-83486166D01*
X94453856Y-83509221D01*
X94455000Y-83532500D01*
X94455000Y-84107500D01*
X94453856Y-84130779D01*
X94450437Y-84153834D01*
X94444773Y-84176443D01*
X94436921Y-84198387D01*
X94426956Y-84219457D01*
X94414974Y-84239448D01*
X94401090Y-84258168D01*
X94385438Y-84275438D01*
X94368168Y-84291090D01*
X94349448Y-84304974D01*
X94329457Y-84316956D01*
X94308387Y-84326921D01*
X94286443Y-84334773D01*
X94263834Y-84340437D01*
X94240779Y-84343856D01*
X94217500Y-84345000D01*
X93742500Y-84345000D01*
X93719221Y-84343856D01*
X93696166Y-84340437D01*
X93673557Y-84334773D01*
X93651613Y-84326921D01*
X93630543Y-84316956D01*
X93610552Y-84304974D01*
X93591832Y-84291090D01*
X93574562Y-84275438D01*
X93558910Y-84258168D01*
X93545026Y-84239448D01*
X93533044Y-84219457D01*
X93523079Y-84198387D01*
X93515227Y-84176443D01*
X93509563Y-84153834D01*
X93506144Y-84130779D01*
X93505000Y-84107500D01*
X93505000Y-83532500D01*
X93506144Y-83509221D01*
X93509563Y-83486166D01*
X93515227Y-83463557D01*
X93523079Y-83441613D01*
X93533044Y-83420543D01*
X93545026Y-83400552D01*
X93558910Y-83381832D01*
X93574562Y-83364562D01*
X93591832Y-83348910D01*
X93610552Y-83335026D01*
X93630543Y-83323044D01*
X93651613Y-83313079D01*
X93673557Y-83305227D01*
X93696166Y-83299563D01*
X93719221Y-83296144D01*
X93742500Y-83295000D01*
X94217500Y-83295000D01*
X94240779Y-83296144D01*
X94240779Y-83296144D01*
G37*
D14*
X93980000Y-83820000D03*
D13*
G36*
X94240779Y-85046144D02*
G01*
X94263834Y-85049563D01*
X94286443Y-85055227D01*
X94308387Y-85063079D01*
X94329457Y-85073044D01*
X94349448Y-85085026D01*
X94368168Y-85098910D01*
X94385438Y-85114562D01*
X94401090Y-85131832D01*
X94414974Y-85150552D01*
X94426956Y-85170543D01*
X94436921Y-85191613D01*
X94444773Y-85213557D01*
X94450437Y-85236166D01*
X94453856Y-85259221D01*
X94455000Y-85282500D01*
X94455000Y-85857500D01*
X94453856Y-85880779D01*
X94450437Y-85903834D01*
X94444773Y-85926443D01*
X94436921Y-85948387D01*
X94426956Y-85969457D01*
X94414974Y-85989448D01*
X94401090Y-86008168D01*
X94385438Y-86025438D01*
X94368168Y-86041090D01*
X94349448Y-86054974D01*
X94329457Y-86066956D01*
X94308387Y-86076921D01*
X94286443Y-86084773D01*
X94263834Y-86090437D01*
X94240779Y-86093856D01*
X94217500Y-86095000D01*
X93742500Y-86095000D01*
X93719221Y-86093856D01*
X93696166Y-86090437D01*
X93673557Y-86084773D01*
X93651613Y-86076921D01*
X93630543Y-86066956D01*
X93610552Y-86054974D01*
X93591832Y-86041090D01*
X93574562Y-86025438D01*
X93558910Y-86008168D01*
X93545026Y-85989448D01*
X93533044Y-85969457D01*
X93523079Y-85948387D01*
X93515227Y-85926443D01*
X93509563Y-85903834D01*
X93506144Y-85880779D01*
X93505000Y-85857500D01*
X93505000Y-85282500D01*
X93506144Y-85259221D01*
X93509563Y-85236166D01*
X93515227Y-85213557D01*
X93523079Y-85191613D01*
X93533044Y-85170543D01*
X93545026Y-85150552D01*
X93558910Y-85131832D01*
X93574562Y-85114562D01*
X93591832Y-85098910D01*
X93610552Y-85085026D01*
X93630543Y-85073044D01*
X93651613Y-85063079D01*
X93673557Y-85055227D01*
X93696166Y-85049563D01*
X93719221Y-85046144D01*
X93742500Y-85045000D01*
X94217500Y-85045000D01*
X94240779Y-85046144D01*
X94240779Y-85046144D01*
G37*
D14*
X93980000Y-85570000D03*
D13*
G36*
X86620779Y-83296144D02*
G01*
X86643834Y-83299563D01*
X86666443Y-83305227D01*
X86688387Y-83313079D01*
X86709457Y-83323044D01*
X86729448Y-83335026D01*
X86748168Y-83348910D01*
X86765438Y-83364562D01*
X86781090Y-83381832D01*
X86794974Y-83400552D01*
X86806956Y-83420543D01*
X86816921Y-83441613D01*
X86824773Y-83463557D01*
X86830437Y-83486166D01*
X86833856Y-83509221D01*
X86835000Y-83532500D01*
X86835000Y-84107500D01*
X86833856Y-84130779D01*
X86830437Y-84153834D01*
X86824773Y-84176443D01*
X86816921Y-84198387D01*
X86806956Y-84219457D01*
X86794974Y-84239448D01*
X86781090Y-84258168D01*
X86765438Y-84275438D01*
X86748168Y-84291090D01*
X86729448Y-84304974D01*
X86709457Y-84316956D01*
X86688387Y-84326921D01*
X86666443Y-84334773D01*
X86643834Y-84340437D01*
X86620779Y-84343856D01*
X86597500Y-84345000D01*
X86122500Y-84345000D01*
X86099221Y-84343856D01*
X86076166Y-84340437D01*
X86053557Y-84334773D01*
X86031613Y-84326921D01*
X86010543Y-84316956D01*
X85990552Y-84304974D01*
X85971832Y-84291090D01*
X85954562Y-84275438D01*
X85938910Y-84258168D01*
X85925026Y-84239448D01*
X85913044Y-84219457D01*
X85903079Y-84198387D01*
X85895227Y-84176443D01*
X85889563Y-84153834D01*
X85886144Y-84130779D01*
X85885000Y-84107500D01*
X85885000Y-83532500D01*
X85886144Y-83509221D01*
X85889563Y-83486166D01*
X85895227Y-83463557D01*
X85903079Y-83441613D01*
X85913044Y-83420543D01*
X85925026Y-83400552D01*
X85938910Y-83381832D01*
X85954562Y-83364562D01*
X85971832Y-83348910D01*
X85990552Y-83335026D01*
X86010543Y-83323044D01*
X86031613Y-83313079D01*
X86053557Y-83305227D01*
X86076166Y-83299563D01*
X86099221Y-83296144D01*
X86122500Y-83295000D01*
X86597500Y-83295000D01*
X86620779Y-83296144D01*
X86620779Y-83296144D01*
G37*
D14*
X86360000Y-83820000D03*
D13*
G36*
X86620779Y-85046144D02*
G01*
X86643834Y-85049563D01*
X86666443Y-85055227D01*
X86688387Y-85063079D01*
X86709457Y-85073044D01*
X86729448Y-85085026D01*
X86748168Y-85098910D01*
X86765438Y-85114562D01*
X86781090Y-85131832D01*
X86794974Y-85150552D01*
X86806956Y-85170543D01*
X86816921Y-85191613D01*
X86824773Y-85213557D01*
X86830437Y-85236166D01*
X86833856Y-85259221D01*
X86835000Y-85282500D01*
X86835000Y-85857500D01*
X86833856Y-85880779D01*
X86830437Y-85903834D01*
X86824773Y-85926443D01*
X86816921Y-85948387D01*
X86806956Y-85969457D01*
X86794974Y-85989448D01*
X86781090Y-86008168D01*
X86765438Y-86025438D01*
X86748168Y-86041090D01*
X86729448Y-86054974D01*
X86709457Y-86066956D01*
X86688387Y-86076921D01*
X86666443Y-86084773D01*
X86643834Y-86090437D01*
X86620779Y-86093856D01*
X86597500Y-86095000D01*
X86122500Y-86095000D01*
X86099221Y-86093856D01*
X86076166Y-86090437D01*
X86053557Y-86084773D01*
X86031613Y-86076921D01*
X86010543Y-86066956D01*
X85990552Y-86054974D01*
X85971832Y-86041090D01*
X85954562Y-86025438D01*
X85938910Y-86008168D01*
X85925026Y-85989448D01*
X85913044Y-85969457D01*
X85903079Y-85948387D01*
X85895227Y-85926443D01*
X85889563Y-85903834D01*
X85886144Y-85880779D01*
X85885000Y-85857500D01*
X85885000Y-85282500D01*
X85886144Y-85259221D01*
X85889563Y-85236166D01*
X85895227Y-85213557D01*
X85903079Y-85191613D01*
X85913044Y-85170543D01*
X85925026Y-85150552D01*
X85938910Y-85131832D01*
X85954562Y-85114562D01*
X85971832Y-85098910D01*
X85990552Y-85085026D01*
X86010543Y-85073044D01*
X86031613Y-85063079D01*
X86053557Y-85055227D01*
X86076166Y-85049563D01*
X86099221Y-85046144D01*
X86122500Y-85045000D01*
X86597500Y-85045000D01*
X86620779Y-85046144D01*
X86620779Y-85046144D01*
G37*
D14*
X86360000Y-85570000D03*
D13*
G36*
X90430779Y-83296144D02*
G01*
X90453834Y-83299563D01*
X90476443Y-83305227D01*
X90498387Y-83313079D01*
X90519457Y-83323044D01*
X90539448Y-83335026D01*
X90558168Y-83348910D01*
X90575438Y-83364562D01*
X90591090Y-83381832D01*
X90604974Y-83400552D01*
X90616956Y-83420543D01*
X90626921Y-83441613D01*
X90634773Y-83463557D01*
X90640437Y-83486166D01*
X90643856Y-83509221D01*
X90645000Y-83532500D01*
X90645000Y-84107500D01*
X90643856Y-84130779D01*
X90640437Y-84153834D01*
X90634773Y-84176443D01*
X90626921Y-84198387D01*
X90616956Y-84219457D01*
X90604974Y-84239448D01*
X90591090Y-84258168D01*
X90575438Y-84275438D01*
X90558168Y-84291090D01*
X90539448Y-84304974D01*
X90519457Y-84316956D01*
X90498387Y-84326921D01*
X90476443Y-84334773D01*
X90453834Y-84340437D01*
X90430779Y-84343856D01*
X90407500Y-84345000D01*
X89932500Y-84345000D01*
X89909221Y-84343856D01*
X89886166Y-84340437D01*
X89863557Y-84334773D01*
X89841613Y-84326921D01*
X89820543Y-84316956D01*
X89800552Y-84304974D01*
X89781832Y-84291090D01*
X89764562Y-84275438D01*
X89748910Y-84258168D01*
X89735026Y-84239448D01*
X89723044Y-84219457D01*
X89713079Y-84198387D01*
X89705227Y-84176443D01*
X89699563Y-84153834D01*
X89696144Y-84130779D01*
X89695000Y-84107500D01*
X89695000Y-83532500D01*
X89696144Y-83509221D01*
X89699563Y-83486166D01*
X89705227Y-83463557D01*
X89713079Y-83441613D01*
X89723044Y-83420543D01*
X89735026Y-83400552D01*
X89748910Y-83381832D01*
X89764562Y-83364562D01*
X89781832Y-83348910D01*
X89800552Y-83335026D01*
X89820543Y-83323044D01*
X89841613Y-83313079D01*
X89863557Y-83305227D01*
X89886166Y-83299563D01*
X89909221Y-83296144D01*
X89932500Y-83295000D01*
X90407500Y-83295000D01*
X90430779Y-83296144D01*
X90430779Y-83296144D01*
G37*
D14*
X90170000Y-83820000D03*
D13*
G36*
X90430779Y-85046144D02*
G01*
X90453834Y-85049563D01*
X90476443Y-85055227D01*
X90498387Y-85063079D01*
X90519457Y-85073044D01*
X90539448Y-85085026D01*
X90558168Y-85098910D01*
X90575438Y-85114562D01*
X90591090Y-85131832D01*
X90604974Y-85150552D01*
X90616956Y-85170543D01*
X90626921Y-85191613D01*
X90634773Y-85213557D01*
X90640437Y-85236166D01*
X90643856Y-85259221D01*
X90645000Y-85282500D01*
X90645000Y-85857500D01*
X90643856Y-85880779D01*
X90640437Y-85903834D01*
X90634773Y-85926443D01*
X90626921Y-85948387D01*
X90616956Y-85969457D01*
X90604974Y-85989448D01*
X90591090Y-86008168D01*
X90575438Y-86025438D01*
X90558168Y-86041090D01*
X90539448Y-86054974D01*
X90519457Y-86066956D01*
X90498387Y-86076921D01*
X90476443Y-86084773D01*
X90453834Y-86090437D01*
X90430779Y-86093856D01*
X90407500Y-86095000D01*
X89932500Y-86095000D01*
X89909221Y-86093856D01*
X89886166Y-86090437D01*
X89863557Y-86084773D01*
X89841613Y-86076921D01*
X89820543Y-86066956D01*
X89800552Y-86054974D01*
X89781832Y-86041090D01*
X89764562Y-86025438D01*
X89748910Y-86008168D01*
X89735026Y-85989448D01*
X89723044Y-85969457D01*
X89713079Y-85948387D01*
X89705227Y-85926443D01*
X89699563Y-85903834D01*
X89696144Y-85880779D01*
X89695000Y-85857500D01*
X89695000Y-85282500D01*
X89696144Y-85259221D01*
X89699563Y-85236166D01*
X89705227Y-85213557D01*
X89713079Y-85191613D01*
X89723044Y-85170543D01*
X89735026Y-85150552D01*
X89748910Y-85131832D01*
X89764562Y-85114562D01*
X89781832Y-85098910D01*
X89800552Y-85085026D01*
X89820543Y-85073044D01*
X89841613Y-85063079D01*
X89863557Y-85055227D01*
X89886166Y-85049563D01*
X89909221Y-85046144D01*
X89932500Y-85045000D01*
X90407500Y-85045000D01*
X90430779Y-85046144D01*
X90430779Y-85046144D01*
G37*
D14*
X90170000Y-85570000D03*
D13*
G36*
X79000779Y-83296144D02*
G01*
X79023834Y-83299563D01*
X79046443Y-83305227D01*
X79068387Y-83313079D01*
X79089457Y-83323044D01*
X79109448Y-83335026D01*
X79128168Y-83348910D01*
X79145438Y-83364562D01*
X79161090Y-83381832D01*
X79174974Y-83400552D01*
X79186956Y-83420543D01*
X79196921Y-83441613D01*
X79204773Y-83463557D01*
X79210437Y-83486166D01*
X79213856Y-83509221D01*
X79215000Y-83532500D01*
X79215000Y-84107500D01*
X79213856Y-84130779D01*
X79210437Y-84153834D01*
X79204773Y-84176443D01*
X79196921Y-84198387D01*
X79186956Y-84219457D01*
X79174974Y-84239448D01*
X79161090Y-84258168D01*
X79145438Y-84275438D01*
X79128168Y-84291090D01*
X79109448Y-84304974D01*
X79089457Y-84316956D01*
X79068387Y-84326921D01*
X79046443Y-84334773D01*
X79023834Y-84340437D01*
X79000779Y-84343856D01*
X78977500Y-84345000D01*
X78502500Y-84345000D01*
X78479221Y-84343856D01*
X78456166Y-84340437D01*
X78433557Y-84334773D01*
X78411613Y-84326921D01*
X78390543Y-84316956D01*
X78370552Y-84304974D01*
X78351832Y-84291090D01*
X78334562Y-84275438D01*
X78318910Y-84258168D01*
X78305026Y-84239448D01*
X78293044Y-84219457D01*
X78283079Y-84198387D01*
X78275227Y-84176443D01*
X78269563Y-84153834D01*
X78266144Y-84130779D01*
X78265000Y-84107500D01*
X78265000Y-83532500D01*
X78266144Y-83509221D01*
X78269563Y-83486166D01*
X78275227Y-83463557D01*
X78283079Y-83441613D01*
X78293044Y-83420543D01*
X78305026Y-83400552D01*
X78318910Y-83381832D01*
X78334562Y-83364562D01*
X78351832Y-83348910D01*
X78370552Y-83335026D01*
X78390543Y-83323044D01*
X78411613Y-83313079D01*
X78433557Y-83305227D01*
X78456166Y-83299563D01*
X78479221Y-83296144D01*
X78502500Y-83295000D01*
X78977500Y-83295000D01*
X79000779Y-83296144D01*
X79000779Y-83296144D01*
G37*
D14*
X78740000Y-83820000D03*
D13*
G36*
X79000779Y-85046144D02*
G01*
X79023834Y-85049563D01*
X79046443Y-85055227D01*
X79068387Y-85063079D01*
X79089457Y-85073044D01*
X79109448Y-85085026D01*
X79128168Y-85098910D01*
X79145438Y-85114562D01*
X79161090Y-85131832D01*
X79174974Y-85150552D01*
X79186956Y-85170543D01*
X79196921Y-85191613D01*
X79204773Y-85213557D01*
X79210437Y-85236166D01*
X79213856Y-85259221D01*
X79215000Y-85282500D01*
X79215000Y-85857500D01*
X79213856Y-85880779D01*
X79210437Y-85903834D01*
X79204773Y-85926443D01*
X79196921Y-85948387D01*
X79186956Y-85969457D01*
X79174974Y-85989448D01*
X79161090Y-86008168D01*
X79145438Y-86025438D01*
X79128168Y-86041090D01*
X79109448Y-86054974D01*
X79089457Y-86066956D01*
X79068387Y-86076921D01*
X79046443Y-86084773D01*
X79023834Y-86090437D01*
X79000779Y-86093856D01*
X78977500Y-86095000D01*
X78502500Y-86095000D01*
X78479221Y-86093856D01*
X78456166Y-86090437D01*
X78433557Y-86084773D01*
X78411613Y-86076921D01*
X78390543Y-86066956D01*
X78370552Y-86054974D01*
X78351832Y-86041090D01*
X78334562Y-86025438D01*
X78318910Y-86008168D01*
X78305026Y-85989448D01*
X78293044Y-85969457D01*
X78283079Y-85948387D01*
X78275227Y-85926443D01*
X78269563Y-85903834D01*
X78266144Y-85880779D01*
X78265000Y-85857500D01*
X78265000Y-85282500D01*
X78266144Y-85259221D01*
X78269563Y-85236166D01*
X78275227Y-85213557D01*
X78283079Y-85191613D01*
X78293044Y-85170543D01*
X78305026Y-85150552D01*
X78318910Y-85131832D01*
X78334562Y-85114562D01*
X78351832Y-85098910D01*
X78370552Y-85085026D01*
X78390543Y-85073044D01*
X78411613Y-85063079D01*
X78433557Y-85055227D01*
X78456166Y-85049563D01*
X78479221Y-85046144D01*
X78502500Y-85045000D01*
X78977500Y-85045000D01*
X79000779Y-85046144D01*
X79000779Y-85046144D01*
G37*
D14*
X78740000Y-85570000D03*
D13*
G36*
X82810779Y-83296144D02*
G01*
X82833834Y-83299563D01*
X82856443Y-83305227D01*
X82878387Y-83313079D01*
X82899457Y-83323044D01*
X82919448Y-83335026D01*
X82938168Y-83348910D01*
X82955438Y-83364562D01*
X82971090Y-83381832D01*
X82984974Y-83400552D01*
X82996956Y-83420543D01*
X83006921Y-83441613D01*
X83014773Y-83463557D01*
X83020437Y-83486166D01*
X83023856Y-83509221D01*
X83025000Y-83532500D01*
X83025000Y-84107500D01*
X83023856Y-84130779D01*
X83020437Y-84153834D01*
X83014773Y-84176443D01*
X83006921Y-84198387D01*
X82996956Y-84219457D01*
X82984974Y-84239448D01*
X82971090Y-84258168D01*
X82955438Y-84275438D01*
X82938168Y-84291090D01*
X82919448Y-84304974D01*
X82899457Y-84316956D01*
X82878387Y-84326921D01*
X82856443Y-84334773D01*
X82833834Y-84340437D01*
X82810779Y-84343856D01*
X82787500Y-84345000D01*
X82312500Y-84345000D01*
X82289221Y-84343856D01*
X82266166Y-84340437D01*
X82243557Y-84334773D01*
X82221613Y-84326921D01*
X82200543Y-84316956D01*
X82180552Y-84304974D01*
X82161832Y-84291090D01*
X82144562Y-84275438D01*
X82128910Y-84258168D01*
X82115026Y-84239448D01*
X82103044Y-84219457D01*
X82093079Y-84198387D01*
X82085227Y-84176443D01*
X82079563Y-84153834D01*
X82076144Y-84130779D01*
X82075000Y-84107500D01*
X82075000Y-83532500D01*
X82076144Y-83509221D01*
X82079563Y-83486166D01*
X82085227Y-83463557D01*
X82093079Y-83441613D01*
X82103044Y-83420543D01*
X82115026Y-83400552D01*
X82128910Y-83381832D01*
X82144562Y-83364562D01*
X82161832Y-83348910D01*
X82180552Y-83335026D01*
X82200543Y-83323044D01*
X82221613Y-83313079D01*
X82243557Y-83305227D01*
X82266166Y-83299563D01*
X82289221Y-83296144D01*
X82312500Y-83295000D01*
X82787500Y-83295000D01*
X82810779Y-83296144D01*
X82810779Y-83296144D01*
G37*
D14*
X82550000Y-83820000D03*
D13*
G36*
X82810779Y-85046144D02*
G01*
X82833834Y-85049563D01*
X82856443Y-85055227D01*
X82878387Y-85063079D01*
X82899457Y-85073044D01*
X82919448Y-85085026D01*
X82938168Y-85098910D01*
X82955438Y-85114562D01*
X82971090Y-85131832D01*
X82984974Y-85150552D01*
X82996956Y-85170543D01*
X83006921Y-85191613D01*
X83014773Y-85213557D01*
X83020437Y-85236166D01*
X83023856Y-85259221D01*
X83025000Y-85282500D01*
X83025000Y-85857500D01*
X83023856Y-85880779D01*
X83020437Y-85903834D01*
X83014773Y-85926443D01*
X83006921Y-85948387D01*
X82996956Y-85969457D01*
X82984974Y-85989448D01*
X82971090Y-86008168D01*
X82955438Y-86025438D01*
X82938168Y-86041090D01*
X82919448Y-86054974D01*
X82899457Y-86066956D01*
X82878387Y-86076921D01*
X82856443Y-86084773D01*
X82833834Y-86090437D01*
X82810779Y-86093856D01*
X82787500Y-86095000D01*
X82312500Y-86095000D01*
X82289221Y-86093856D01*
X82266166Y-86090437D01*
X82243557Y-86084773D01*
X82221613Y-86076921D01*
X82200543Y-86066956D01*
X82180552Y-86054974D01*
X82161832Y-86041090D01*
X82144562Y-86025438D01*
X82128910Y-86008168D01*
X82115026Y-85989448D01*
X82103044Y-85969457D01*
X82093079Y-85948387D01*
X82085227Y-85926443D01*
X82079563Y-85903834D01*
X82076144Y-85880779D01*
X82075000Y-85857500D01*
X82075000Y-85282500D01*
X82076144Y-85259221D01*
X82079563Y-85236166D01*
X82085227Y-85213557D01*
X82093079Y-85191613D01*
X82103044Y-85170543D01*
X82115026Y-85150552D01*
X82128910Y-85131832D01*
X82144562Y-85114562D01*
X82161832Y-85098910D01*
X82180552Y-85085026D01*
X82200543Y-85073044D01*
X82221613Y-85063079D01*
X82243557Y-85055227D01*
X82266166Y-85049563D01*
X82289221Y-85046144D01*
X82312500Y-85045000D01*
X82787500Y-85045000D01*
X82810779Y-85046144D01*
X82810779Y-85046144D01*
G37*
D14*
X82550000Y-85570000D03*
D13*
G36*
X71380779Y-83296144D02*
G01*
X71403834Y-83299563D01*
X71426443Y-83305227D01*
X71448387Y-83313079D01*
X71469457Y-83323044D01*
X71489448Y-83335026D01*
X71508168Y-83348910D01*
X71525438Y-83364562D01*
X71541090Y-83381832D01*
X71554974Y-83400552D01*
X71566956Y-83420543D01*
X71576921Y-83441613D01*
X71584773Y-83463557D01*
X71590437Y-83486166D01*
X71593856Y-83509221D01*
X71595000Y-83532500D01*
X71595000Y-84107500D01*
X71593856Y-84130779D01*
X71590437Y-84153834D01*
X71584773Y-84176443D01*
X71576921Y-84198387D01*
X71566956Y-84219457D01*
X71554974Y-84239448D01*
X71541090Y-84258168D01*
X71525438Y-84275438D01*
X71508168Y-84291090D01*
X71489448Y-84304974D01*
X71469457Y-84316956D01*
X71448387Y-84326921D01*
X71426443Y-84334773D01*
X71403834Y-84340437D01*
X71380779Y-84343856D01*
X71357500Y-84345000D01*
X70882500Y-84345000D01*
X70859221Y-84343856D01*
X70836166Y-84340437D01*
X70813557Y-84334773D01*
X70791613Y-84326921D01*
X70770543Y-84316956D01*
X70750552Y-84304974D01*
X70731832Y-84291090D01*
X70714562Y-84275438D01*
X70698910Y-84258168D01*
X70685026Y-84239448D01*
X70673044Y-84219457D01*
X70663079Y-84198387D01*
X70655227Y-84176443D01*
X70649563Y-84153834D01*
X70646144Y-84130779D01*
X70645000Y-84107500D01*
X70645000Y-83532500D01*
X70646144Y-83509221D01*
X70649563Y-83486166D01*
X70655227Y-83463557D01*
X70663079Y-83441613D01*
X70673044Y-83420543D01*
X70685026Y-83400552D01*
X70698910Y-83381832D01*
X70714562Y-83364562D01*
X70731832Y-83348910D01*
X70750552Y-83335026D01*
X70770543Y-83323044D01*
X70791613Y-83313079D01*
X70813557Y-83305227D01*
X70836166Y-83299563D01*
X70859221Y-83296144D01*
X70882500Y-83295000D01*
X71357500Y-83295000D01*
X71380779Y-83296144D01*
X71380779Y-83296144D01*
G37*
D14*
X71120000Y-83820000D03*
D13*
G36*
X71380779Y-85046144D02*
G01*
X71403834Y-85049563D01*
X71426443Y-85055227D01*
X71448387Y-85063079D01*
X71469457Y-85073044D01*
X71489448Y-85085026D01*
X71508168Y-85098910D01*
X71525438Y-85114562D01*
X71541090Y-85131832D01*
X71554974Y-85150552D01*
X71566956Y-85170543D01*
X71576921Y-85191613D01*
X71584773Y-85213557D01*
X71590437Y-85236166D01*
X71593856Y-85259221D01*
X71595000Y-85282500D01*
X71595000Y-85857500D01*
X71593856Y-85880779D01*
X71590437Y-85903834D01*
X71584773Y-85926443D01*
X71576921Y-85948387D01*
X71566956Y-85969457D01*
X71554974Y-85989448D01*
X71541090Y-86008168D01*
X71525438Y-86025438D01*
X71508168Y-86041090D01*
X71489448Y-86054974D01*
X71469457Y-86066956D01*
X71448387Y-86076921D01*
X71426443Y-86084773D01*
X71403834Y-86090437D01*
X71380779Y-86093856D01*
X71357500Y-86095000D01*
X70882500Y-86095000D01*
X70859221Y-86093856D01*
X70836166Y-86090437D01*
X70813557Y-86084773D01*
X70791613Y-86076921D01*
X70770543Y-86066956D01*
X70750552Y-86054974D01*
X70731832Y-86041090D01*
X70714562Y-86025438D01*
X70698910Y-86008168D01*
X70685026Y-85989448D01*
X70673044Y-85969457D01*
X70663079Y-85948387D01*
X70655227Y-85926443D01*
X70649563Y-85903834D01*
X70646144Y-85880779D01*
X70645000Y-85857500D01*
X70645000Y-85282500D01*
X70646144Y-85259221D01*
X70649563Y-85236166D01*
X70655227Y-85213557D01*
X70663079Y-85191613D01*
X70673044Y-85170543D01*
X70685026Y-85150552D01*
X70698910Y-85131832D01*
X70714562Y-85114562D01*
X70731832Y-85098910D01*
X70750552Y-85085026D01*
X70770543Y-85073044D01*
X70791613Y-85063079D01*
X70813557Y-85055227D01*
X70836166Y-85049563D01*
X70859221Y-85046144D01*
X70882500Y-85045000D01*
X71357500Y-85045000D01*
X71380779Y-85046144D01*
X71380779Y-85046144D01*
G37*
D14*
X71120000Y-85570000D03*
D11*
X172720000Y-62255400D03*
X164846000Y-62255400D03*
X189230000Y-62230000D03*
X181356000Y-62230000D03*
X175234600Y-78740000D03*
X175234600Y-70866000D03*
D13*
G36*
X156470779Y-76946144D02*
G01*
X156493834Y-76949563D01*
X156516443Y-76955227D01*
X156538387Y-76963079D01*
X156559457Y-76973044D01*
X156579448Y-76985026D01*
X156598168Y-76998910D01*
X156615438Y-77014562D01*
X156631090Y-77031832D01*
X156644974Y-77050552D01*
X156656956Y-77070543D01*
X156666921Y-77091613D01*
X156674773Y-77113557D01*
X156680437Y-77136166D01*
X156683856Y-77159221D01*
X156685000Y-77182500D01*
X156685000Y-77757500D01*
X156683856Y-77780779D01*
X156680437Y-77803834D01*
X156674773Y-77826443D01*
X156666921Y-77848387D01*
X156656956Y-77869457D01*
X156644974Y-77889448D01*
X156631090Y-77908168D01*
X156615438Y-77925438D01*
X156598168Y-77941090D01*
X156579448Y-77954974D01*
X156559457Y-77966956D01*
X156538387Y-77976921D01*
X156516443Y-77984773D01*
X156493834Y-77990437D01*
X156470779Y-77993856D01*
X156447500Y-77995000D01*
X155972500Y-77995000D01*
X155949221Y-77993856D01*
X155926166Y-77990437D01*
X155903557Y-77984773D01*
X155881613Y-77976921D01*
X155860543Y-77966956D01*
X155840552Y-77954974D01*
X155821832Y-77941090D01*
X155804562Y-77925438D01*
X155788910Y-77908168D01*
X155775026Y-77889448D01*
X155763044Y-77869457D01*
X155753079Y-77848387D01*
X155745227Y-77826443D01*
X155739563Y-77803834D01*
X155736144Y-77780779D01*
X155735000Y-77757500D01*
X155735000Y-77182500D01*
X155736144Y-77159221D01*
X155739563Y-77136166D01*
X155745227Y-77113557D01*
X155753079Y-77091613D01*
X155763044Y-77070543D01*
X155775026Y-77050552D01*
X155788910Y-77031832D01*
X155804562Y-77014562D01*
X155821832Y-76998910D01*
X155840552Y-76985026D01*
X155860543Y-76973044D01*
X155881613Y-76963079D01*
X155903557Y-76955227D01*
X155926166Y-76949563D01*
X155949221Y-76946144D01*
X155972500Y-76945000D01*
X156447500Y-76945000D01*
X156470779Y-76946144D01*
X156470779Y-76946144D01*
G37*
D14*
X156210000Y-77470000D03*
D13*
G36*
X156470779Y-78696144D02*
G01*
X156493834Y-78699563D01*
X156516443Y-78705227D01*
X156538387Y-78713079D01*
X156559457Y-78723044D01*
X156579448Y-78735026D01*
X156598168Y-78748910D01*
X156615438Y-78764562D01*
X156631090Y-78781832D01*
X156644974Y-78800552D01*
X156656956Y-78820543D01*
X156666921Y-78841613D01*
X156674773Y-78863557D01*
X156680437Y-78886166D01*
X156683856Y-78909221D01*
X156685000Y-78932500D01*
X156685000Y-79507500D01*
X156683856Y-79530779D01*
X156680437Y-79553834D01*
X156674773Y-79576443D01*
X156666921Y-79598387D01*
X156656956Y-79619457D01*
X156644974Y-79639448D01*
X156631090Y-79658168D01*
X156615438Y-79675438D01*
X156598168Y-79691090D01*
X156579448Y-79704974D01*
X156559457Y-79716956D01*
X156538387Y-79726921D01*
X156516443Y-79734773D01*
X156493834Y-79740437D01*
X156470779Y-79743856D01*
X156447500Y-79745000D01*
X155972500Y-79745000D01*
X155949221Y-79743856D01*
X155926166Y-79740437D01*
X155903557Y-79734773D01*
X155881613Y-79726921D01*
X155860543Y-79716956D01*
X155840552Y-79704974D01*
X155821832Y-79691090D01*
X155804562Y-79675438D01*
X155788910Y-79658168D01*
X155775026Y-79639448D01*
X155763044Y-79619457D01*
X155753079Y-79598387D01*
X155745227Y-79576443D01*
X155739563Y-79553834D01*
X155736144Y-79530779D01*
X155735000Y-79507500D01*
X155735000Y-78932500D01*
X155736144Y-78909221D01*
X155739563Y-78886166D01*
X155745227Y-78863557D01*
X155753079Y-78841613D01*
X155763044Y-78820543D01*
X155775026Y-78800552D01*
X155788910Y-78781832D01*
X155804562Y-78764562D01*
X155821832Y-78748910D01*
X155840552Y-78735026D01*
X155860543Y-78723044D01*
X155881613Y-78713079D01*
X155903557Y-78705227D01*
X155926166Y-78699563D01*
X155949221Y-78696144D01*
X155972500Y-78695000D01*
X156447500Y-78695000D01*
X156470779Y-78696144D01*
X156470779Y-78696144D01*
G37*
D14*
X156210000Y-79220000D03*
D13*
G36*
X174300779Y-83346144D02*
G01*
X174323834Y-83349563D01*
X174346443Y-83355227D01*
X174368387Y-83363079D01*
X174389457Y-83373044D01*
X174409448Y-83385026D01*
X174428168Y-83398910D01*
X174445438Y-83414562D01*
X174461090Y-83431832D01*
X174474974Y-83450552D01*
X174486956Y-83470543D01*
X174496921Y-83491613D01*
X174504773Y-83513557D01*
X174510437Y-83536166D01*
X174513856Y-83559221D01*
X174515000Y-83582500D01*
X174515000Y-84057500D01*
X174513856Y-84080779D01*
X174510437Y-84103834D01*
X174504773Y-84126443D01*
X174496921Y-84148387D01*
X174486956Y-84169457D01*
X174474974Y-84189448D01*
X174461090Y-84208168D01*
X174445438Y-84225438D01*
X174428168Y-84241090D01*
X174409448Y-84254974D01*
X174389457Y-84266956D01*
X174368387Y-84276921D01*
X174346443Y-84284773D01*
X174323834Y-84290437D01*
X174300779Y-84293856D01*
X174277500Y-84295000D01*
X173702500Y-84295000D01*
X173679221Y-84293856D01*
X173656166Y-84290437D01*
X173633557Y-84284773D01*
X173611613Y-84276921D01*
X173590543Y-84266956D01*
X173570552Y-84254974D01*
X173551832Y-84241090D01*
X173534562Y-84225438D01*
X173518910Y-84208168D01*
X173505026Y-84189448D01*
X173493044Y-84169457D01*
X173483079Y-84148387D01*
X173475227Y-84126443D01*
X173469563Y-84103834D01*
X173466144Y-84080779D01*
X173465000Y-84057500D01*
X173465000Y-83582500D01*
X173466144Y-83559221D01*
X173469563Y-83536166D01*
X173475227Y-83513557D01*
X173483079Y-83491613D01*
X173493044Y-83470543D01*
X173505026Y-83450552D01*
X173518910Y-83431832D01*
X173534562Y-83414562D01*
X173551832Y-83398910D01*
X173570552Y-83385026D01*
X173590543Y-83373044D01*
X173611613Y-83363079D01*
X173633557Y-83355227D01*
X173656166Y-83349563D01*
X173679221Y-83346144D01*
X173702500Y-83345000D01*
X174277500Y-83345000D01*
X174300779Y-83346144D01*
X174300779Y-83346144D01*
G37*
D14*
X173990000Y-83820000D03*
D13*
G36*
X172550779Y-83346144D02*
G01*
X172573834Y-83349563D01*
X172596443Y-83355227D01*
X172618387Y-83363079D01*
X172639457Y-83373044D01*
X172659448Y-83385026D01*
X172678168Y-83398910D01*
X172695438Y-83414562D01*
X172711090Y-83431832D01*
X172724974Y-83450552D01*
X172736956Y-83470543D01*
X172746921Y-83491613D01*
X172754773Y-83513557D01*
X172760437Y-83536166D01*
X172763856Y-83559221D01*
X172765000Y-83582500D01*
X172765000Y-84057500D01*
X172763856Y-84080779D01*
X172760437Y-84103834D01*
X172754773Y-84126443D01*
X172746921Y-84148387D01*
X172736956Y-84169457D01*
X172724974Y-84189448D01*
X172711090Y-84208168D01*
X172695438Y-84225438D01*
X172678168Y-84241090D01*
X172659448Y-84254974D01*
X172639457Y-84266956D01*
X172618387Y-84276921D01*
X172596443Y-84284773D01*
X172573834Y-84290437D01*
X172550779Y-84293856D01*
X172527500Y-84295000D01*
X171952500Y-84295000D01*
X171929221Y-84293856D01*
X171906166Y-84290437D01*
X171883557Y-84284773D01*
X171861613Y-84276921D01*
X171840543Y-84266956D01*
X171820552Y-84254974D01*
X171801832Y-84241090D01*
X171784562Y-84225438D01*
X171768910Y-84208168D01*
X171755026Y-84189448D01*
X171743044Y-84169457D01*
X171733079Y-84148387D01*
X171725227Y-84126443D01*
X171719563Y-84103834D01*
X171716144Y-84080779D01*
X171715000Y-84057500D01*
X171715000Y-83582500D01*
X171716144Y-83559221D01*
X171719563Y-83536166D01*
X171725227Y-83513557D01*
X171733079Y-83491613D01*
X171743044Y-83470543D01*
X171755026Y-83450552D01*
X171768910Y-83431832D01*
X171784562Y-83414562D01*
X171801832Y-83398910D01*
X171820552Y-83385026D01*
X171840543Y-83373044D01*
X171861613Y-83363079D01*
X171883557Y-83355227D01*
X171906166Y-83349563D01*
X171929221Y-83346144D01*
X171952500Y-83345000D01*
X172527500Y-83345000D01*
X172550779Y-83346144D01*
X172550779Y-83346144D01*
G37*
D14*
X172240000Y-83820000D03*
D13*
G36*
X147150779Y-79536144D02*
G01*
X147173834Y-79539563D01*
X147196443Y-79545227D01*
X147218387Y-79553079D01*
X147239457Y-79563044D01*
X147259448Y-79575026D01*
X147278168Y-79588910D01*
X147295438Y-79604562D01*
X147311090Y-79621832D01*
X147324974Y-79640552D01*
X147336956Y-79660543D01*
X147346921Y-79681613D01*
X147354773Y-79703557D01*
X147360437Y-79726166D01*
X147363856Y-79749221D01*
X147365000Y-79772500D01*
X147365000Y-80247500D01*
X147363856Y-80270779D01*
X147360437Y-80293834D01*
X147354773Y-80316443D01*
X147346921Y-80338387D01*
X147336956Y-80359457D01*
X147324974Y-80379448D01*
X147311090Y-80398168D01*
X147295438Y-80415438D01*
X147278168Y-80431090D01*
X147259448Y-80444974D01*
X147239457Y-80456956D01*
X147218387Y-80466921D01*
X147196443Y-80474773D01*
X147173834Y-80480437D01*
X147150779Y-80483856D01*
X147127500Y-80485000D01*
X146552500Y-80485000D01*
X146529221Y-80483856D01*
X146506166Y-80480437D01*
X146483557Y-80474773D01*
X146461613Y-80466921D01*
X146440543Y-80456956D01*
X146420552Y-80444974D01*
X146401832Y-80431090D01*
X146384562Y-80415438D01*
X146368910Y-80398168D01*
X146355026Y-80379448D01*
X146343044Y-80359457D01*
X146333079Y-80338387D01*
X146325227Y-80316443D01*
X146319563Y-80293834D01*
X146316144Y-80270779D01*
X146315000Y-80247500D01*
X146315000Y-79772500D01*
X146316144Y-79749221D01*
X146319563Y-79726166D01*
X146325227Y-79703557D01*
X146333079Y-79681613D01*
X146343044Y-79660543D01*
X146355026Y-79640552D01*
X146368910Y-79621832D01*
X146384562Y-79604562D01*
X146401832Y-79588910D01*
X146420552Y-79575026D01*
X146440543Y-79563044D01*
X146461613Y-79553079D01*
X146483557Y-79545227D01*
X146506166Y-79539563D01*
X146529221Y-79536144D01*
X146552500Y-79535000D01*
X147127500Y-79535000D01*
X147150779Y-79536144D01*
X147150779Y-79536144D01*
G37*
D14*
X146840000Y-80010000D03*
D13*
G36*
X148900779Y-79536144D02*
G01*
X148923834Y-79539563D01*
X148946443Y-79545227D01*
X148968387Y-79553079D01*
X148989457Y-79563044D01*
X149009448Y-79575026D01*
X149028168Y-79588910D01*
X149045438Y-79604562D01*
X149061090Y-79621832D01*
X149074974Y-79640552D01*
X149086956Y-79660543D01*
X149096921Y-79681613D01*
X149104773Y-79703557D01*
X149110437Y-79726166D01*
X149113856Y-79749221D01*
X149115000Y-79772500D01*
X149115000Y-80247500D01*
X149113856Y-80270779D01*
X149110437Y-80293834D01*
X149104773Y-80316443D01*
X149096921Y-80338387D01*
X149086956Y-80359457D01*
X149074974Y-80379448D01*
X149061090Y-80398168D01*
X149045438Y-80415438D01*
X149028168Y-80431090D01*
X149009448Y-80444974D01*
X148989457Y-80456956D01*
X148968387Y-80466921D01*
X148946443Y-80474773D01*
X148923834Y-80480437D01*
X148900779Y-80483856D01*
X148877500Y-80485000D01*
X148302500Y-80485000D01*
X148279221Y-80483856D01*
X148256166Y-80480437D01*
X148233557Y-80474773D01*
X148211613Y-80466921D01*
X148190543Y-80456956D01*
X148170552Y-80444974D01*
X148151832Y-80431090D01*
X148134562Y-80415438D01*
X148118910Y-80398168D01*
X148105026Y-80379448D01*
X148093044Y-80359457D01*
X148083079Y-80338387D01*
X148075227Y-80316443D01*
X148069563Y-80293834D01*
X148066144Y-80270779D01*
X148065000Y-80247500D01*
X148065000Y-79772500D01*
X148066144Y-79749221D01*
X148069563Y-79726166D01*
X148075227Y-79703557D01*
X148083079Y-79681613D01*
X148093044Y-79660543D01*
X148105026Y-79640552D01*
X148118910Y-79621832D01*
X148134562Y-79604562D01*
X148151832Y-79588910D01*
X148170552Y-79575026D01*
X148190543Y-79563044D01*
X148211613Y-79553079D01*
X148233557Y-79545227D01*
X148256166Y-79539563D01*
X148279221Y-79536144D01*
X148302500Y-79535000D01*
X148877500Y-79535000D01*
X148900779Y-79536144D01*
X148900779Y-79536144D01*
G37*
D14*
X148590000Y-80010000D03*
D13*
G36*
X167950779Y-79536144D02*
G01*
X167973834Y-79539563D01*
X167996443Y-79545227D01*
X168018387Y-79553079D01*
X168039457Y-79563044D01*
X168059448Y-79575026D01*
X168078168Y-79588910D01*
X168095438Y-79604562D01*
X168111090Y-79621832D01*
X168124974Y-79640552D01*
X168136956Y-79660543D01*
X168146921Y-79681613D01*
X168154773Y-79703557D01*
X168160437Y-79726166D01*
X168163856Y-79749221D01*
X168165000Y-79772500D01*
X168165000Y-80247500D01*
X168163856Y-80270779D01*
X168160437Y-80293834D01*
X168154773Y-80316443D01*
X168146921Y-80338387D01*
X168136956Y-80359457D01*
X168124974Y-80379448D01*
X168111090Y-80398168D01*
X168095438Y-80415438D01*
X168078168Y-80431090D01*
X168059448Y-80444974D01*
X168039457Y-80456956D01*
X168018387Y-80466921D01*
X167996443Y-80474773D01*
X167973834Y-80480437D01*
X167950779Y-80483856D01*
X167927500Y-80485000D01*
X167352500Y-80485000D01*
X167329221Y-80483856D01*
X167306166Y-80480437D01*
X167283557Y-80474773D01*
X167261613Y-80466921D01*
X167240543Y-80456956D01*
X167220552Y-80444974D01*
X167201832Y-80431090D01*
X167184562Y-80415438D01*
X167168910Y-80398168D01*
X167155026Y-80379448D01*
X167143044Y-80359457D01*
X167133079Y-80338387D01*
X167125227Y-80316443D01*
X167119563Y-80293834D01*
X167116144Y-80270779D01*
X167115000Y-80247500D01*
X167115000Y-79772500D01*
X167116144Y-79749221D01*
X167119563Y-79726166D01*
X167125227Y-79703557D01*
X167133079Y-79681613D01*
X167143044Y-79660543D01*
X167155026Y-79640552D01*
X167168910Y-79621832D01*
X167184562Y-79604562D01*
X167201832Y-79588910D01*
X167220552Y-79575026D01*
X167240543Y-79563044D01*
X167261613Y-79553079D01*
X167283557Y-79545227D01*
X167306166Y-79539563D01*
X167329221Y-79536144D01*
X167352500Y-79535000D01*
X167927500Y-79535000D01*
X167950779Y-79536144D01*
X167950779Y-79536144D01*
G37*
D14*
X167640000Y-80010000D03*
D13*
G36*
X166200779Y-79536144D02*
G01*
X166223834Y-79539563D01*
X166246443Y-79545227D01*
X166268387Y-79553079D01*
X166289457Y-79563044D01*
X166309448Y-79575026D01*
X166328168Y-79588910D01*
X166345438Y-79604562D01*
X166361090Y-79621832D01*
X166374974Y-79640552D01*
X166386956Y-79660543D01*
X166396921Y-79681613D01*
X166404773Y-79703557D01*
X166410437Y-79726166D01*
X166413856Y-79749221D01*
X166415000Y-79772500D01*
X166415000Y-80247500D01*
X166413856Y-80270779D01*
X166410437Y-80293834D01*
X166404773Y-80316443D01*
X166396921Y-80338387D01*
X166386956Y-80359457D01*
X166374974Y-80379448D01*
X166361090Y-80398168D01*
X166345438Y-80415438D01*
X166328168Y-80431090D01*
X166309448Y-80444974D01*
X166289457Y-80456956D01*
X166268387Y-80466921D01*
X166246443Y-80474773D01*
X166223834Y-80480437D01*
X166200779Y-80483856D01*
X166177500Y-80485000D01*
X165602500Y-80485000D01*
X165579221Y-80483856D01*
X165556166Y-80480437D01*
X165533557Y-80474773D01*
X165511613Y-80466921D01*
X165490543Y-80456956D01*
X165470552Y-80444974D01*
X165451832Y-80431090D01*
X165434562Y-80415438D01*
X165418910Y-80398168D01*
X165405026Y-80379448D01*
X165393044Y-80359457D01*
X165383079Y-80338387D01*
X165375227Y-80316443D01*
X165369563Y-80293834D01*
X165366144Y-80270779D01*
X165365000Y-80247500D01*
X165365000Y-79772500D01*
X165366144Y-79749221D01*
X165369563Y-79726166D01*
X165375227Y-79703557D01*
X165383079Y-79681613D01*
X165393044Y-79660543D01*
X165405026Y-79640552D01*
X165418910Y-79621832D01*
X165434562Y-79604562D01*
X165451832Y-79588910D01*
X165470552Y-79575026D01*
X165490543Y-79563044D01*
X165511613Y-79553079D01*
X165533557Y-79545227D01*
X165556166Y-79539563D01*
X165579221Y-79536144D01*
X165602500Y-79535000D01*
X166177500Y-79535000D01*
X166200779Y-79536144D01*
X166200779Y-79536144D01*
G37*
D14*
X165890000Y-80010000D03*
D16*
X159394000Y-67812000D03*
X159394000Y-63252000D03*
D17*
X151419000Y-64007000D03*
X154769000Y-67057000D03*
X151419000Y-67057000D03*
X154769000Y-64007000D03*
D15*
X143510000Y-62235000D03*
X143510000Y-64135000D03*
X145510000Y-63185000D03*
D13*
G36*
X163074779Y-66560144D02*
G01*
X163097834Y-66563563D01*
X163120443Y-66569227D01*
X163142387Y-66577079D01*
X163163457Y-66587044D01*
X163183448Y-66599026D01*
X163202168Y-66612910D01*
X163219438Y-66628562D01*
X163235090Y-66645832D01*
X163248974Y-66664552D01*
X163260956Y-66684543D01*
X163270921Y-66705613D01*
X163278773Y-66727557D01*
X163284437Y-66750166D01*
X163287856Y-66773221D01*
X163289000Y-66796500D01*
X163289000Y-67371500D01*
X163287856Y-67394779D01*
X163284437Y-67417834D01*
X163278773Y-67440443D01*
X163270921Y-67462387D01*
X163260956Y-67483457D01*
X163248974Y-67503448D01*
X163235090Y-67522168D01*
X163219438Y-67539438D01*
X163202168Y-67555090D01*
X163183448Y-67568974D01*
X163163457Y-67580956D01*
X163142387Y-67590921D01*
X163120443Y-67598773D01*
X163097834Y-67604437D01*
X163074779Y-67607856D01*
X163051500Y-67609000D01*
X162576500Y-67609000D01*
X162553221Y-67607856D01*
X162530166Y-67604437D01*
X162507557Y-67598773D01*
X162485613Y-67590921D01*
X162464543Y-67580956D01*
X162444552Y-67568974D01*
X162425832Y-67555090D01*
X162408562Y-67539438D01*
X162392910Y-67522168D01*
X162379026Y-67503448D01*
X162367044Y-67483457D01*
X162357079Y-67462387D01*
X162349227Y-67440443D01*
X162343563Y-67417834D01*
X162340144Y-67394779D01*
X162339000Y-67371500D01*
X162339000Y-66796500D01*
X162340144Y-66773221D01*
X162343563Y-66750166D01*
X162349227Y-66727557D01*
X162357079Y-66705613D01*
X162367044Y-66684543D01*
X162379026Y-66664552D01*
X162392910Y-66645832D01*
X162408562Y-66628562D01*
X162425832Y-66612910D01*
X162444552Y-66599026D01*
X162464543Y-66587044D01*
X162485613Y-66577079D01*
X162507557Y-66569227D01*
X162530166Y-66563563D01*
X162553221Y-66560144D01*
X162576500Y-66559000D01*
X163051500Y-66559000D01*
X163074779Y-66560144D01*
X163074779Y-66560144D01*
G37*
D14*
X162814000Y-67084000D03*
D13*
G36*
X163074779Y-68310144D02*
G01*
X163097834Y-68313563D01*
X163120443Y-68319227D01*
X163142387Y-68327079D01*
X163163457Y-68337044D01*
X163183448Y-68349026D01*
X163202168Y-68362910D01*
X163219438Y-68378562D01*
X163235090Y-68395832D01*
X163248974Y-68414552D01*
X163260956Y-68434543D01*
X163270921Y-68455613D01*
X163278773Y-68477557D01*
X163284437Y-68500166D01*
X163287856Y-68523221D01*
X163289000Y-68546500D01*
X163289000Y-69121500D01*
X163287856Y-69144779D01*
X163284437Y-69167834D01*
X163278773Y-69190443D01*
X163270921Y-69212387D01*
X163260956Y-69233457D01*
X163248974Y-69253448D01*
X163235090Y-69272168D01*
X163219438Y-69289438D01*
X163202168Y-69305090D01*
X163183448Y-69318974D01*
X163163457Y-69330956D01*
X163142387Y-69340921D01*
X163120443Y-69348773D01*
X163097834Y-69354437D01*
X163074779Y-69357856D01*
X163051500Y-69359000D01*
X162576500Y-69359000D01*
X162553221Y-69357856D01*
X162530166Y-69354437D01*
X162507557Y-69348773D01*
X162485613Y-69340921D01*
X162464543Y-69330956D01*
X162444552Y-69318974D01*
X162425832Y-69305090D01*
X162408562Y-69289438D01*
X162392910Y-69272168D01*
X162379026Y-69253448D01*
X162367044Y-69233457D01*
X162357079Y-69212387D01*
X162349227Y-69190443D01*
X162343563Y-69167834D01*
X162340144Y-69144779D01*
X162339000Y-69121500D01*
X162339000Y-68546500D01*
X162340144Y-68523221D01*
X162343563Y-68500166D01*
X162349227Y-68477557D01*
X162357079Y-68455613D01*
X162367044Y-68434543D01*
X162379026Y-68414552D01*
X162392910Y-68395832D01*
X162408562Y-68378562D01*
X162425832Y-68362910D01*
X162444552Y-68349026D01*
X162464543Y-68337044D01*
X162485613Y-68327079D01*
X162507557Y-68319227D01*
X162530166Y-68313563D01*
X162553221Y-68310144D01*
X162576500Y-68309000D01*
X163051500Y-68309000D01*
X163074779Y-68310144D01*
X163074779Y-68310144D01*
G37*
D14*
X162814000Y-68834000D03*
D13*
G36*
X147975779Y-63611144D02*
G01*
X147998834Y-63614563D01*
X148021443Y-63620227D01*
X148043387Y-63628079D01*
X148064457Y-63638044D01*
X148084448Y-63650026D01*
X148103168Y-63663910D01*
X148120438Y-63679562D01*
X148136090Y-63696832D01*
X148149974Y-63715552D01*
X148161956Y-63735543D01*
X148171921Y-63756613D01*
X148179773Y-63778557D01*
X148185437Y-63801166D01*
X148188856Y-63824221D01*
X148190000Y-63847500D01*
X148190000Y-64422500D01*
X148188856Y-64445779D01*
X148185437Y-64468834D01*
X148179773Y-64491443D01*
X148171921Y-64513387D01*
X148161956Y-64534457D01*
X148149974Y-64554448D01*
X148136090Y-64573168D01*
X148120438Y-64590438D01*
X148103168Y-64606090D01*
X148084448Y-64619974D01*
X148064457Y-64631956D01*
X148043387Y-64641921D01*
X148021443Y-64649773D01*
X147998834Y-64655437D01*
X147975779Y-64658856D01*
X147952500Y-64660000D01*
X147477500Y-64660000D01*
X147454221Y-64658856D01*
X147431166Y-64655437D01*
X147408557Y-64649773D01*
X147386613Y-64641921D01*
X147365543Y-64631956D01*
X147345552Y-64619974D01*
X147326832Y-64606090D01*
X147309562Y-64590438D01*
X147293910Y-64573168D01*
X147280026Y-64554448D01*
X147268044Y-64534457D01*
X147258079Y-64513387D01*
X147250227Y-64491443D01*
X147244563Y-64468834D01*
X147241144Y-64445779D01*
X147240000Y-64422500D01*
X147240000Y-63847500D01*
X147241144Y-63824221D01*
X147244563Y-63801166D01*
X147250227Y-63778557D01*
X147258079Y-63756613D01*
X147268044Y-63735543D01*
X147280026Y-63715552D01*
X147293910Y-63696832D01*
X147309562Y-63679562D01*
X147326832Y-63663910D01*
X147345552Y-63650026D01*
X147365543Y-63638044D01*
X147386613Y-63628079D01*
X147408557Y-63620227D01*
X147431166Y-63614563D01*
X147454221Y-63611144D01*
X147477500Y-63610000D01*
X147952500Y-63610000D01*
X147975779Y-63611144D01*
X147975779Y-63611144D01*
G37*
D14*
X147715000Y-64135000D03*
D13*
G36*
X147975779Y-61861144D02*
G01*
X147998834Y-61864563D01*
X148021443Y-61870227D01*
X148043387Y-61878079D01*
X148064457Y-61888044D01*
X148084448Y-61900026D01*
X148103168Y-61913910D01*
X148120438Y-61929562D01*
X148136090Y-61946832D01*
X148149974Y-61965552D01*
X148161956Y-61985543D01*
X148171921Y-62006613D01*
X148179773Y-62028557D01*
X148185437Y-62051166D01*
X148188856Y-62074221D01*
X148190000Y-62097500D01*
X148190000Y-62672500D01*
X148188856Y-62695779D01*
X148185437Y-62718834D01*
X148179773Y-62741443D01*
X148171921Y-62763387D01*
X148161956Y-62784457D01*
X148149974Y-62804448D01*
X148136090Y-62823168D01*
X148120438Y-62840438D01*
X148103168Y-62856090D01*
X148084448Y-62869974D01*
X148064457Y-62881956D01*
X148043387Y-62891921D01*
X148021443Y-62899773D01*
X147998834Y-62905437D01*
X147975779Y-62908856D01*
X147952500Y-62910000D01*
X147477500Y-62910000D01*
X147454221Y-62908856D01*
X147431166Y-62905437D01*
X147408557Y-62899773D01*
X147386613Y-62891921D01*
X147365543Y-62881956D01*
X147345552Y-62869974D01*
X147326832Y-62856090D01*
X147309562Y-62840438D01*
X147293910Y-62823168D01*
X147280026Y-62804448D01*
X147268044Y-62784457D01*
X147258079Y-62763387D01*
X147250227Y-62741443D01*
X147244563Y-62718834D01*
X147241144Y-62695779D01*
X147240000Y-62672500D01*
X147240000Y-62097500D01*
X147241144Y-62074221D01*
X147244563Y-62051166D01*
X147250227Y-62028557D01*
X147258079Y-62006613D01*
X147268044Y-61985543D01*
X147280026Y-61965552D01*
X147293910Y-61946832D01*
X147309562Y-61929562D01*
X147326832Y-61913910D01*
X147345552Y-61900026D01*
X147365543Y-61888044D01*
X147386613Y-61878079D01*
X147408557Y-61870227D01*
X147431166Y-61864563D01*
X147454221Y-61861144D01*
X147477500Y-61860000D01*
X147952500Y-61860000D01*
X147975779Y-61861144D01*
X147975779Y-61861144D01*
G37*
D14*
X147715000Y-62385000D03*
D13*
G36*
X141230779Y-63611144D02*
G01*
X141253834Y-63614563D01*
X141276443Y-63620227D01*
X141298387Y-63628079D01*
X141319457Y-63638044D01*
X141339448Y-63650026D01*
X141358168Y-63663910D01*
X141375438Y-63679562D01*
X141391090Y-63696832D01*
X141404974Y-63715552D01*
X141416956Y-63735543D01*
X141426921Y-63756613D01*
X141434773Y-63778557D01*
X141440437Y-63801166D01*
X141443856Y-63824221D01*
X141445000Y-63847500D01*
X141445000Y-64422500D01*
X141443856Y-64445779D01*
X141440437Y-64468834D01*
X141434773Y-64491443D01*
X141426921Y-64513387D01*
X141416956Y-64534457D01*
X141404974Y-64554448D01*
X141391090Y-64573168D01*
X141375438Y-64590438D01*
X141358168Y-64606090D01*
X141339448Y-64619974D01*
X141319457Y-64631956D01*
X141298387Y-64641921D01*
X141276443Y-64649773D01*
X141253834Y-64655437D01*
X141230779Y-64658856D01*
X141207500Y-64660000D01*
X140732500Y-64660000D01*
X140709221Y-64658856D01*
X140686166Y-64655437D01*
X140663557Y-64649773D01*
X140641613Y-64641921D01*
X140620543Y-64631956D01*
X140600552Y-64619974D01*
X140581832Y-64606090D01*
X140564562Y-64590438D01*
X140548910Y-64573168D01*
X140535026Y-64554448D01*
X140523044Y-64534457D01*
X140513079Y-64513387D01*
X140505227Y-64491443D01*
X140499563Y-64468834D01*
X140496144Y-64445779D01*
X140495000Y-64422500D01*
X140495000Y-63847500D01*
X140496144Y-63824221D01*
X140499563Y-63801166D01*
X140505227Y-63778557D01*
X140513079Y-63756613D01*
X140523044Y-63735543D01*
X140535026Y-63715552D01*
X140548910Y-63696832D01*
X140564562Y-63679562D01*
X140581832Y-63663910D01*
X140600552Y-63650026D01*
X140620543Y-63638044D01*
X140641613Y-63628079D01*
X140663557Y-63620227D01*
X140686166Y-63614563D01*
X140709221Y-63611144D01*
X140732500Y-63610000D01*
X141207500Y-63610000D01*
X141230779Y-63611144D01*
X141230779Y-63611144D01*
G37*
D14*
X140970000Y-64135000D03*
D13*
G36*
X141230779Y-61861144D02*
G01*
X141253834Y-61864563D01*
X141276443Y-61870227D01*
X141298387Y-61878079D01*
X141319457Y-61888044D01*
X141339448Y-61900026D01*
X141358168Y-61913910D01*
X141375438Y-61929562D01*
X141391090Y-61946832D01*
X141404974Y-61965552D01*
X141416956Y-61985543D01*
X141426921Y-62006613D01*
X141434773Y-62028557D01*
X141440437Y-62051166D01*
X141443856Y-62074221D01*
X141445000Y-62097500D01*
X141445000Y-62672500D01*
X141443856Y-62695779D01*
X141440437Y-62718834D01*
X141434773Y-62741443D01*
X141426921Y-62763387D01*
X141416956Y-62784457D01*
X141404974Y-62804448D01*
X141391090Y-62823168D01*
X141375438Y-62840438D01*
X141358168Y-62856090D01*
X141339448Y-62869974D01*
X141319457Y-62881956D01*
X141298387Y-62891921D01*
X141276443Y-62899773D01*
X141253834Y-62905437D01*
X141230779Y-62908856D01*
X141207500Y-62910000D01*
X140732500Y-62910000D01*
X140709221Y-62908856D01*
X140686166Y-62905437D01*
X140663557Y-62899773D01*
X140641613Y-62891921D01*
X140620543Y-62881956D01*
X140600552Y-62869974D01*
X140581832Y-62856090D01*
X140564562Y-62840438D01*
X140548910Y-62823168D01*
X140535026Y-62804448D01*
X140523044Y-62784457D01*
X140513079Y-62763387D01*
X140505227Y-62741443D01*
X140499563Y-62718834D01*
X140496144Y-62695779D01*
X140495000Y-62672500D01*
X140495000Y-62097500D01*
X140496144Y-62074221D01*
X140499563Y-62051166D01*
X140505227Y-62028557D01*
X140513079Y-62006613D01*
X140523044Y-61985543D01*
X140535026Y-61965552D01*
X140548910Y-61946832D01*
X140564562Y-61929562D01*
X140581832Y-61913910D01*
X140600552Y-61900026D01*
X140620543Y-61888044D01*
X140641613Y-61878079D01*
X140663557Y-61870227D01*
X140686166Y-61864563D01*
X140709221Y-61861144D01*
X140732500Y-61860000D01*
X141207500Y-61860000D01*
X141230779Y-61861144D01*
X141230779Y-61861144D01*
G37*
D14*
X140970000Y-62385000D03*
M02*
