G04 #@! TF.GenerationSoftware,KiCad,Pcbnew,(5.1.4)-1*
G04 #@! TF.CreationDate,2020-02-16T15:15:17-06:00*
G04 #@! TF.ProjectId,SRA_Sensor_Board,5352415f-5365-46e7-936f-725f426f6172,rev?*
G04 #@! TF.SameCoordinates,Original*
G04 #@! TF.FileFunction,Soldermask,Bot*
G04 #@! TF.FilePolarity,Negative*
%FSLAX46Y46*%
G04 Gerber Fmt 4.6, Leading zero omitted, Abs format (unit mm)*
G04 Created by KiCad (PCBNEW (5.1.4)-1) date 2020-02-16 15:15:17*
%MOMM*%
%LPD*%
G04 APERTURE LIST*
%ADD10C,0.100000*%
G04 APERTURE END LIST*
D10*
G36*
X133586560Y-102090166D02*
G01*
X133734153Y-102151301D01*
X133866982Y-102240055D01*
X133979945Y-102353018D01*
X134068699Y-102485847D01*
X134129834Y-102633440D01*
X134161000Y-102790123D01*
X134161000Y-102949877D01*
X134129834Y-103106560D01*
X134068699Y-103254153D01*
X133979945Y-103386982D01*
X133866982Y-103499945D01*
X133734153Y-103588699D01*
X133734152Y-103588700D01*
X133734151Y-103588700D01*
X133586560Y-103649834D01*
X133429878Y-103681000D01*
X133270122Y-103681000D01*
X133113440Y-103649834D01*
X132965849Y-103588700D01*
X132965848Y-103588700D01*
X132965847Y-103588699D01*
X132833018Y-103499945D01*
X132720055Y-103386982D01*
X132631301Y-103254153D01*
X132570166Y-103106560D01*
X132539000Y-102949877D01*
X132539000Y-102790123D01*
X132570166Y-102633440D01*
X132631301Y-102485847D01*
X132720055Y-102353018D01*
X132833018Y-102240055D01*
X132965847Y-102151301D01*
X133113440Y-102090166D01*
X133270122Y-102059000D01*
X133429878Y-102059000D01*
X133586560Y-102090166D01*
X133586560Y-102090166D01*
G37*
G36*
X156446560Y-102090166D02*
G01*
X156594153Y-102151301D01*
X156726982Y-102240055D01*
X156839945Y-102353018D01*
X156928699Y-102485847D01*
X156989834Y-102633440D01*
X157021000Y-102790123D01*
X157021000Y-102949877D01*
X156989834Y-103106560D01*
X156928699Y-103254153D01*
X156839945Y-103386982D01*
X156726982Y-103499945D01*
X156594153Y-103588699D01*
X156594152Y-103588700D01*
X156594151Y-103588700D01*
X156446560Y-103649834D01*
X156289878Y-103681000D01*
X156130122Y-103681000D01*
X155973440Y-103649834D01*
X155825849Y-103588700D01*
X155825848Y-103588700D01*
X155825847Y-103588699D01*
X155693018Y-103499945D01*
X155580055Y-103386982D01*
X155491301Y-103254153D01*
X155430166Y-103106560D01*
X155399000Y-102949877D01*
X155399000Y-102790123D01*
X155430166Y-102633440D01*
X155491301Y-102485847D01*
X155580055Y-102353018D01*
X155693018Y-102240055D01*
X155825847Y-102151301D01*
X155973440Y-102090166D01*
X156130122Y-102059000D01*
X156289878Y-102059000D01*
X156446560Y-102090166D01*
X156446560Y-102090166D01*
G37*
G36*
X92946560Y-102090166D02*
G01*
X93094153Y-102151301D01*
X93226982Y-102240055D01*
X93339945Y-102353018D01*
X93428699Y-102485847D01*
X93489834Y-102633440D01*
X93521000Y-102790123D01*
X93521000Y-102949877D01*
X93489834Y-103106560D01*
X93428699Y-103254153D01*
X93339945Y-103386982D01*
X93226982Y-103499945D01*
X93094153Y-103588699D01*
X93094152Y-103588700D01*
X93094151Y-103588700D01*
X92946560Y-103649834D01*
X92789878Y-103681000D01*
X92630122Y-103681000D01*
X92473440Y-103649834D01*
X92325849Y-103588700D01*
X92325848Y-103588700D01*
X92325847Y-103588699D01*
X92193018Y-103499945D01*
X92080055Y-103386982D01*
X91991301Y-103254153D01*
X91930166Y-103106560D01*
X91899000Y-102949877D01*
X91899000Y-102790123D01*
X91930166Y-102633440D01*
X91991301Y-102485847D01*
X92080055Y-102353018D01*
X92193018Y-102240055D01*
X92325847Y-102151301D01*
X92473440Y-102090166D01*
X92630122Y-102059000D01*
X92789878Y-102059000D01*
X92946560Y-102090166D01*
X92946560Y-102090166D01*
G37*
G36*
X90406560Y-102090166D02*
G01*
X90554153Y-102151301D01*
X90686982Y-102240055D01*
X90799945Y-102353018D01*
X90888699Y-102485847D01*
X90949834Y-102633440D01*
X90981000Y-102790123D01*
X90981000Y-102949877D01*
X90949834Y-103106560D01*
X90888699Y-103254153D01*
X90799945Y-103386982D01*
X90686982Y-103499945D01*
X90554153Y-103588699D01*
X90554152Y-103588700D01*
X90554151Y-103588700D01*
X90406560Y-103649834D01*
X90249878Y-103681000D01*
X90090122Y-103681000D01*
X89933440Y-103649834D01*
X89785849Y-103588700D01*
X89785848Y-103588700D01*
X89785847Y-103588699D01*
X89653018Y-103499945D01*
X89540055Y-103386982D01*
X89451301Y-103254153D01*
X89390166Y-103106560D01*
X89359000Y-102949877D01*
X89359000Y-102790123D01*
X89390166Y-102633440D01*
X89451301Y-102485847D01*
X89540055Y-102353018D01*
X89653018Y-102240055D01*
X89785847Y-102151301D01*
X89933440Y-102090166D01*
X90090122Y-102059000D01*
X90249878Y-102059000D01*
X90406560Y-102090166D01*
X90406560Y-102090166D01*
G37*
G36*
X87866560Y-102090166D02*
G01*
X88014153Y-102151301D01*
X88146982Y-102240055D01*
X88259945Y-102353018D01*
X88348699Y-102485847D01*
X88409834Y-102633440D01*
X88441000Y-102790123D01*
X88441000Y-102949877D01*
X88409834Y-103106560D01*
X88348699Y-103254153D01*
X88259945Y-103386982D01*
X88146982Y-103499945D01*
X88014153Y-103588699D01*
X88014152Y-103588700D01*
X88014151Y-103588700D01*
X87866560Y-103649834D01*
X87709878Y-103681000D01*
X87550122Y-103681000D01*
X87393440Y-103649834D01*
X87245849Y-103588700D01*
X87245848Y-103588700D01*
X87245847Y-103588699D01*
X87113018Y-103499945D01*
X87000055Y-103386982D01*
X86911301Y-103254153D01*
X86850166Y-103106560D01*
X86819000Y-102949877D01*
X86819000Y-102790123D01*
X86850166Y-102633440D01*
X86911301Y-102485847D01*
X87000055Y-102353018D01*
X87113018Y-102240055D01*
X87245847Y-102151301D01*
X87393440Y-102090166D01*
X87550122Y-102059000D01*
X87709878Y-102059000D01*
X87866560Y-102090166D01*
X87866560Y-102090166D01*
G37*
G36*
X85326560Y-102090166D02*
G01*
X85474153Y-102151301D01*
X85606982Y-102240055D01*
X85719945Y-102353018D01*
X85808699Y-102485847D01*
X85869834Y-102633440D01*
X85901000Y-102790123D01*
X85901000Y-102949877D01*
X85869834Y-103106560D01*
X85808699Y-103254153D01*
X85719945Y-103386982D01*
X85606982Y-103499945D01*
X85474153Y-103588699D01*
X85474152Y-103588700D01*
X85474151Y-103588700D01*
X85326560Y-103649834D01*
X85169878Y-103681000D01*
X85010122Y-103681000D01*
X84853440Y-103649834D01*
X84705849Y-103588700D01*
X84705848Y-103588700D01*
X84705847Y-103588699D01*
X84573018Y-103499945D01*
X84460055Y-103386982D01*
X84371301Y-103254153D01*
X84310166Y-103106560D01*
X84279000Y-102949877D01*
X84279000Y-102790123D01*
X84310166Y-102633440D01*
X84371301Y-102485847D01*
X84460055Y-102353018D01*
X84573018Y-102240055D01*
X84705847Y-102151301D01*
X84853440Y-102090166D01*
X85010122Y-102059000D01*
X85169878Y-102059000D01*
X85326560Y-102090166D01*
X85326560Y-102090166D01*
G37*
G36*
X82786560Y-102090166D02*
G01*
X82934153Y-102151301D01*
X83066982Y-102240055D01*
X83179945Y-102353018D01*
X83268699Y-102485847D01*
X83329834Y-102633440D01*
X83361000Y-102790123D01*
X83361000Y-102949877D01*
X83329834Y-103106560D01*
X83268699Y-103254153D01*
X83179945Y-103386982D01*
X83066982Y-103499945D01*
X82934153Y-103588699D01*
X82934152Y-103588700D01*
X82934151Y-103588700D01*
X82786560Y-103649834D01*
X82629878Y-103681000D01*
X82470122Y-103681000D01*
X82313440Y-103649834D01*
X82165849Y-103588700D01*
X82165848Y-103588700D01*
X82165847Y-103588699D01*
X82033018Y-103499945D01*
X81920055Y-103386982D01*
X81831301Y-103254153D01*
X81770166Y-103106560D01*
X81739000Y-102949877D01*
X81739000Y-102790123D01*
X81770166Y-102633440D01*
X81831301Y-102485847D01*
X81920055Y-102353018D01*
X82033018Y-102240055D01*
X82165847Y-102151301D01*
X82313440Y-102090166D01*
X82470122Y-102059000D01*
X82629878Y-102059000D01*
X82786560Y-102090166D01*
X82786560Y-102090166D01*
G37*
G36*
X80246560Y-102090166D02*
G01*
X80394153Y-102151301D01*
X80526982Y-102240055D01*
X80639945Y-102353018D01*
X80728699Y-102485847D01*
X80789834Y-102633440D01*
X80821000Y-102790123D01*
X80821000Y-102949877D01*
X80789834Y-103106560D01*
X80728699Y-103254153D01*
X80639945Y-103386982D01*
X80526982Y-103499945D01*
X80394153Y-103588699D01*
X80394152Y-103588700D01*
X80394151Y-103588700D01*
X80246560Y-103649834D01*
X80089878Y-103681000D01*
X79930122Y-103681000D01*
X79773440Y-103649834D01*
X79625849Y-103588700D01*
X79625848Y-103588700D01*
X79625847Y-103588699D01*
X79493018Y-103499945D01*
X79380055Y-103386982D01*
X79291301Y-103254153D01*
X79230166Y-103106560D01*
X79199000Y-102949877D01*
X79199000Y-102790123D01*
X79230166Y-102633440D01*
X79291301Y-102485847D01*
X79380055Y-102353018D01*
X79493018Y-102240055D01*
X79625847Y-102151301D01*
X79773440Y-102090166D01*
X79930122Y-102059000D01*
X80089878Y-102059000D01*
X80246560Y-102090166D01*
X80246560Y-102090166D01*
G37*
G36*
X77706560Y-102090166D02*
G01*
X77854153Y-102151301D01*
X77986982Y-102240055D01*
X78099945Y-102353018D01*
X78188699Y-102485847D01*
X78249834Y-102633440D01*
X78281000Y-102790123D01*
X78281000Y-102949877D01*
X78249834Y-103106560D01*
X78188699Y-103254153D01*
X78099945Y-103386982D01*
X77986982Y-103499945D01*
X77854153Y-103588699D01*
X77854152Y-103588700D01*
X77854151Y-103588700D01*
X77706560Y-103649834D01*
X77549878Y-103681000D01*
X77390122Y-103681000D01*
X77233440Y-103649834D01*
X77085849Y-103588700D01*
X77085848Y-103588700D01*
X77085847Y-103588699D01*
X76953018Y-103499945D01*
X76840055Y-103386982D01*
X76751301Y-103254153D01*
X76690166Y-103106560D01*
X76659000Y-102949877D01*
X76659000Y-102790123D01*
X76690166Y-102633440D01*
X76751301Y-102485847D01*
X76840055Y-102353018D01*
X76953018Y-102240055D01*
X77085847Y-102151301D01*
X77233440Y-102090166D01*
X77390122Y-102059000D01*
X77549878Y-102059000D01*
X77706560Y-102090166D01*
X77706560Y-102090166D01*
G37*
G36*
X75166560Y-102090166D02*
G01*
X75314153Y-102151301D01*
X75446982Y-102240055D01*
X75559945Y-102353018D01*
X75648699Y-102485847D01*
X75709834Y-102633440D01*
X75741000Y-102790123D01*
X75741000Y-102949877D01*
X75709834Y-103106560D01*
X75648699Y-103254153D01*
X75559945Y-103386982D01*
X75446982Y-103499945D01*
X75314153Y-103588699D01*
X75314152Y-103588700D01*
X75314151Y-103588700D01*
X75166560Y-103649834D01*
X75009878Y-103681000D01*
X74850122Y-103681000D01*
X74693440Y-103649834D01*
X74545849Y-103588700D01*
X74545848Y-103588700D01*
X74545847Y-103588699D01*
X74413018Y-103499945D01*
X74300055Y-103386982D01*
X74211301Y-103254153D01*
X74150166Y-103106560D01*
X74119000Y-102949877D01*
X74119000Y-102790123D01*
X74150166Y-102633440D01*
X74211301Y-102485847D01*
X74300055Y-102353018D01*
X74413018Y-102240055D01*
X74545847Y-102151301D01*
X74693440Y-102090166D01*
X74850122Y-102059000D01*
X75009878Y-102059000D01*
X75166560Y-102090166D01*
X75166560Y-102090166D01*
G37*
G36*
X72626560Y-102090166D02*
G01*
X72774153Y-102151301D01*
X72906982Y-102240055D01*
X73019945Y-102353018D01*
X73108699Y-102485847D01*
X73169834Y-102633440D01*
X73201000Y-102790123D01*
X73201000Y-102949877D01*
X73169834Y-103106560D01*
X73108699Y-103254153D01*
X73019945Y-103386982D01*
X72906982Y-103499945D01*
X72774153Y-103588699D01*
X72774152Y-103588700D01*
X72774151Y-103588700D01*
X72626560Y-103649834D01*
X72469878Y-103681000D01*
X72310122Y-103681000D01*
X72153440Y-103649834D01*
X72005849Y-103588700D01*
X72005848Y-103588700D01*
X72005847Y-103588699D01*
X71873018Y-103499945D01*
X71760055Y-103386982D01*
X71671301Y-103254153D01*
X71610166Y-103106560D01*
X71579000Y-102949877D01*
X71579000Y-102790123D01*
X71610166Y-102633440D01*
X71671301Y-102485847D01*
X71760055Y-102353018D01*
X71873018Y-102240055D01*
X72005847Y-102151301D01*
X72153440Y-102090166D01*
X72310122Y-102059000D01*
X72469878Y-102059000D01*
X72626560Y-102090166D01*
X72626560Y-102090166D01*
G37*
G36*
X151366560Y-102090166D02*
G01*
X151514153Y-102151301D01*
X151646982Y-102240055D01*
X151759945Y-102353018D01*
X151848699Y-102485847D01*
X151909834Y-102633440D01*
X151941000Y-102790123D01*
X151941000Y-102949877D01*
X151909834Y-103106560D01*
X151848699Y-103254153D01*
X151759945Y-103386982D01*
X151646982Y-103499945D01*
X151514153Y-103588699D01*
X151514152Y-103588700D01*
X151514151Y-103588700D01*
X151366560Y-103649834D01*
X151209878Y-103681000D01*
X151050122Y-103681000D01*
X150893440Y-103649834D01*
X150745849Y-103588700D01*
X150745848Y-103588700D01*
X150745847Y-103588699D01*
X150613018Y-103499945D01*
X150500055Y-103386982D01*
X150411301Y-103254153D01*
X150350166Y-103106560D01*
X150319000Y-102949877D01*
X150319000Y-102790123D01*
X150350166Y-102633440D01*
X150411301Y-102485847D01*
X150500055Y-102353018D01*
X150613018Y-102240055D01*
X150745847Y-102151301D01*
X150893440Y-102090166D01*
X151050122Y-102059000D01*
X151209878Y-102059000D01*
X151366560Y-102090166D01*
X151366560Y-102090166D01*
G37*
G36*
X146286560Y-102090166D02*
G01*
X146434153Y-102151301D01*
X146566982Y-102240055D01*
X146679945Y-102353018D01*
X146768699Y-102485847D01*
X146829834Y-102633440D01*
X146861000Y-102790123D01*
X146861000Y-102949877D01*
X146829834Y-103106560D01*
X146768699Y-103254153D01*
X146679945Y-103386982D01*
X146566982Y-103499945D01*
X146434153Y-103588699D01*
X146434152Y-103588700D01*
X146434151Y-103588700D01*
X146286560Y-103649834D01*
X146129878Y-103681000D01*
X145970122Y-103681000D01*
X145813440Y-103649834D01*
X145665849Y-103588700D01*
X145665848Y-103588700D01*
X145665847Y-103588699D01*
X145533018Y-103499945D01*
X145420055Y-103386982D01*
X145331301Y-103254153D01*
X145270166Y-103106560D01*
X145239000Y-102949877D01*
X145239000Y-102790123D01*
X145270166Y-102633440D01*
X145331301Y-102485847D01*
X145420055Y-102353018D01*
X145533018Y-102240055D01*
X145665847Y-102151301D01*
X145813440Y-102090166D01*
X145970122Y-102059000D01*
X146129878Y-102059000D01*
X146286560Y-102090166D01*
X146286560Y-102090166D01*
G37*
G36*
X143746560Y-102090166D02*
G01*
X143894153Y-102151301D01*
X144026982Y-102240055D01*
X144139945Y-102353018D01*
X144228699Y-102485847D01*
X144289834Y-102633440D01*
X144321000Y-102790123D01*
X144321000Y-102949877D01*
X144289834Y-103106560D01*
X144228699Y-103254153D01*
X144139945Y-103386982D01*
X144026982Y-103499945D01*
X143894153Y-103588699D01*
X143894152Y-103588700D01*
X143894151Y-103588700D01*
X143746560Y-103649834D01*
X143589878Y-103681000D01*
X143430122Y-103681000D01*
X143273440Y-103649834D01*
X143125849Y-103588700D01*
X143125848Y-103588700D01*
X143125847Y-103588699D01*
X142993018Y-103499945D01*
X142880055Y-103386982D01*
X142791301Y-103254153D01*
X142730166Y-103106560D01*
X142699000Y-102949877D01*
X142699000Y-102790123D01*
X142730166Y-102633440D01*
X142791301Y-102485847D01*
X142880055Y-102353018D01*
X142993018Y-102240055D01*
X143125847Y-102151301D01*
X143273440Y-102090166D01*
X143430122Y-102059000D01*
X143589878Y-102059000D01*
X143746560Y-102090166D01*
X143746560Y-102090166D01*
G37*
G36*
X141206560Y-102090166D02*
G01*
X141354153Y-102151301D01*
X141486982Y-102240055D01*
X141599945Y-102353018D01*
X141688699Y-102485847D01*
X141749834Y-102633440D01*
X141781000Y-102790123D01*
X141781000Y-102949877D01*
X141749834Y-103106560D01*
X141688699Y-103254153D01*
X141599945Y-103386982D01*
X141486982Y-103499945D01*
X141354153Y-103588699D01*
X141354152Y-103588700D01*
X141354151Y-103588700D01*
X141206560Y-103649834D01*
X141049878Y-103681000D01*
X140890122Y-103681000D01*
X140733440Y-103649834D01*
X140585849Y-103588700D01*
X140585848Y-103588700D01*
X140585847Y-103588699D01*
X140453018Y-103499945D01*
X140340055Y-103386982D01*
X140251301Y-103254153D01*
X140190166Y-103106560D01*
X140159000Y-102949877D01*
X140159000Y-102790123D01*
X140190166Y-102633440D01*
X140251301Y-102485847D01*
X140340055Y-102353018D01*
X140453018Y-102240055D01*
X140585847Y-102151301D01*
X140733440Y-102090166D01*
X140890122Y-102059000D01*
X141049878Y-102059000D01*
X141206560Y-102090166D01*
X141206560Y-102090166D01*
G37*
G36*
X138666560Y-102090166D02*
G01*
X138814153Y-102151301D01*
X138946982Y-102240055D01*
X139059945Y-102353018D01*
X139148699Y-102485847D01*
X139209834Y-102633440D01*
X139241000Y-102790123D01*
X139241000Y-102949877D01*
X139209834Y-103106560D01*
X139148699Y-103254153D01*
X139059945Y-103386982D01*
X138946982Y-103499945D01*
X138814153Y-103588699D01*
X138814152Y-103588700D01*
X138814151Y-103588700D01*
X138666560Y-103649834D01*
X138509878Y-103681000D01*
X138350122Y-103681000D01*
X138193440Y-103649834D01*
X138045849Y-103588700D01*
X138045848Y-103588700D01*
X138045847Y-103588699D01*
X137913018Y-103499945D01*
X137800055Y-103386982D01*
X137711301Y-103254153D01*
X137650166Y-103106560D01*
X137619000Y-102949877D01*
X137619000Y-102790123D01*
X137650166Y-102633440D01*
X137711301Y-102485847D01*
X137800055Y-102353018D01*
X137913018Y-102240055D01*
X138045847Y-102151301D01*
X138193440Y-102090166D01*
X138350122Y-102059000D01*
X138509878Y-102059000D01*
X138666560Y-102090166D01*
X138666560Y-102090166D01*
G37*
G36*
X136126560Y-102090166D02*
G01*
X136274153Y-102151301D01*
X136406982Y-102240055D01*
X136519945Y-102353018D01*
X136608699Y-102485847D01*
X136669834Y-102633440D01*
X136701000Y-102790123D01*
X136701000Y-102949877D01*
X136669834Y-103106560D01*
X136608699Y-103254153D01*
X136519945Y-103386982D01*
X136406982Y-103499945D01*
X136274153Y-103588699D01*
X136274152Y-103588700D01*
X136274151Y-103588700D01*
X136126560Y-103649834D01*
X135969878Y-103681000D01*
X135810122Y-103681000D01*
X135653440Y-103649834D01*
X135505849Y-103588700D01*
X135505848Y-103588700D01*
X135505847Y-103588699D01*
X135373018Y-103499945D01*
X135260055Y-103386982D01*
X135171301Y-103254153D01*
X135110166Y-103106560D01*
X135079000Y-102949877D01*
X135079000Y-102790123D01*
X135110166Y-102633440D01*
X135171301Y-102485847D01*
X135260055Y-102353018D01*
X135373018Y-102240055D01*
X135505847Y-102151301D01*
X135653440Y-102090166D01*
X135810122Y-102059000D01*
X135969878Y-102059000D01*
X136126560Y-102090166D01*
X136126560Y-102090166D01*
G37*
G36*
X153906560Y-102090166D02*
G01*
X154054153Y-102151301D01*
X154186982Y-102240055D01*
X154299945Y-102353018D01*
X154388699Y-102485847D01*
X154449834Y-102633440D01*
X154481000Y-102790123D01*
X154481000Y-102949877D01*
X154449834Y-103106560D01*
X154388699Y-103254153D01*
X154299945Y-103386982D01*
X154186982Y-103499945D01*
X154054153Y-103588699D01*
X154054152Y-103588700D01*
X154054151Y-103588700D01*
X153906560Y-103649834D01*
X153749878Y-103681000D01*
X153590122Y-103681000D01*
X153433440Y-103649834D01*
X153285849Y-103588700D01*
X153285848Y-103588700D01*
X153285847Y-103588699D01*
X153153018Y-103499945D01*
X153040055Y-103386982D01*
X152951301Y-103254153D01*
X152890166Y-103106560D01*
X152859000Y-102949877D01*
X152859000Y-102790123D01*
X152890166Y-102633440D01*
X152951301Y-102485847D01*
X153040055Y-102353018D01*
X153153018Y-102240055D01*
X153285847Y-102151301D01*
X153433440Y-102090166D01*
X153590122Y-102059000D01*
X153749878Y-102059000D01*
X153906560Y-102090166D01*
X153906560Y-102090166D01*
G37*
G36*
X148826560Y-102090166D02*
G01*
X148974153Y-102151301D01*
X149106982Y-102240055D01*
X149219945Y-102353018D01*
X149308699Y-102485847D01*
X149369834Y-102633440D01*
X149401000Y-102790123D01*
X149401000Y-102949877D01*
X149369834Y-103106560D01*
X149308699Y-103254153D01*
X149219945Y-103386982D01*
X149106982Y-103499945D01*
X148974153Y-103588699D01*
X148974152Y-103588700D01*
X148974151Y-103588700D01*
X148826560Y-103649834D01*
X148669878Y-103681000D01*
X148510122Y-103681000D01*
X148353440Y-103649834D01*
X148205849Y-103588700D01*
X148205848Y-103588700D01*
X148205847Y-103588699D01*
X148073018Y-103499945D01*
X147960055Y-103386982D01*
X147871301Y-103254153D01*
X147810166Y-103106560D01*
X147779000Y-102949877D01*
X147779000Y-102790123D01*
X147810166Y-102633440D01*
X147871301Y-102485847D01*
X147960055Y-102353018D01*
X148073018Y-102240055D01*
X148205847Y-102151301D01*
X148353440Y-102090166D01*
X148510122Y-102059000D01*
X148669878Y-102059000D01*
X148826560Y-102090166D01*
X148826560Y-102090166D01*
G37*
G36*
X70086560Y-102090166D02*
G01*
X70234153Y-102151301D01*
X70366982Y-102240055D01*
X70479945Y-102353018D01*
X70568699Y-102485847D01*
X70629834Y-102633440D01*
X70661000Y-102790123D01*
X70661000Y-102949877D01*
X70629834Y-103106560D01*
X70568699Y-103254153D01*
X70479945Y-103386982D01*
X70366982Y-103499945D01*
X70234153Y-103588699D01*
X70234152Y-103588700D01*
X70234151Y-103588700D01*
X70086560Y-103649834D01*
X69929878Y-103681000D01*
X69770122Y-103681000D01*
X69613440Y-103649834D01*
X69465849Y-103588700D01*
X69465848Y-103588700D01*
X69465847Y-103588699D01*
X69333018Y-103499945D01*
X69220055Y-103386982D01*
X69131301Y-103254153D01*
X69070166Y-103106560D01*
X69039000Y-102949877D01*
X69039000Y-102790123D01*
X69070166Y-102633440D01*
X69131301Y-102485847D01*
X69220055Y-102353018D01*
X69333018Y-102240055D01*
X69465847Y-102151301D01*
X69613440Y-102090166D01*
X69770122Y-102059000D01*
X69929878Y-102059000D01*
X70086560Y-102090166D01*
X70086560Y-102090166D01*
G37*
G36*
X85326560Y-99550166D02*
G01*
X85474153Y-99611301D01*
X85606982Y-99700055D01*
X85719945Y-99813018D01*
X85808699Y-99945847D01*
X85869834Y-100093440D01*
X85901000Y-100250123D01*
X85901000Y-100409877D01*
X85869834Y-100566560D01*
X85808699Y-100714153D01*
X85719945Y-100846982D01*
X85606982Y-100959945D01*
X85474153Y-101048699D01*
X85474152Y-101048700D01*
X85474151Y-101048700D01*
X85326560Y-101109834D01*
X85169878Y-101141000D01*
X85010122Y-101141000D01*
X84853440Y-101109834D01*
X84705849Y-101048700D01*
X84705848Y-101048700D01*
X84705847Y-101048699D01*
X84573018Y-100959945D01*
X84460055Y-100846982D01*
X84371301Y-100714153D01*
X84310166Y-100566560D01*
X84279000Y-100409877D01*
X84279000Y-100250123D01*
X84310166Y-100093440D01*
X84371301Y-99945847D01*
X84460055Y-99813018D01*
X84573018Y-99700055D01*
X84705847Y-99611301D01*
X84853440Y-99550166D01*
X85010122Y-99519000D01*
X85169878Y-99519000D01*
X85326560Y-99550166D01*
X85326560Y-99550166D01*
G37*
G36*
X92946560Y-99550166D02*
G01*
X93094153Y-99611301D01*
X93226982Y-99700055D01*
X93339945Y-99813018D01*
X93428699Y-99945847D01*
X93489834Y-100093440D01*
X93521000Y-100250123D01*
X93521000Y-100409877D01*
X93489834Y-100566560D01*
X93428699Y-100714153D01*
X93339945Y-100846982D01*
X93226982Y-100959945D01*
X93094153Y-101048699D01*
X93094152Y-101048700D01*
X93094151Y-101048700D01*
X92946560Y-101109834D01*
X92789878Y-101141000D01*
X92630122Y-101141000D01*
X92473440Y-101109834D01*
X92325849Y-101048700D01*
X92325848Y-101048700D01*
X92325847Y-101048699D01*
X92193018Y-100959945D01*
X92080055Y-100846982D01*
X91991301Y-100714153D01*
X91930166Y-100566560D01*
X91899000Y-100409877D01*
X91899000Y-100250123D01*
X91930166Y-100093440D01*
X91991301Y-99945847D01*
X92080055Y-99813018D01*
X92193018Y-99700055D01*
X92325847Y-99611301D01*
X92473440Y-99550166D01*
X92630122Y-99519000D01*
X92789878Y-99519000D01*
X92946560Y-99550166D01*
X92946560Y-99550166D01*
G37*
G36*
X87866560Y-99550166D02*
G01*
X88014153Y-99611301D01*
X88146982Y-99700055D01*
X88259945Y-99813018D01*
X88348699Y-99945847D01*
X88409834Y-100093440D01*
X88441000Y-100250123D01*
X88441000Y-100409877D01*
X88409834Y-100566560D01*
X88348699Y-100714153D01*
X88259945Y-100846982D01*
X88146982Y-100959945D01*
X88014153Y-101048699D01*
X88014152Y-101048700D01*
X88014151Y-101048700D01*
X87866560Y-101109834D01*
X87709878Y-101141000D01*
X87550122Y-101141000D01*
X87393440Y-101109834D01*
X87245849Y-101048700D01*
X87245848Y-101048700D01*
X87245847Y-101048699D01*
X87113018Y-100959945D01*
X87000055Y-100846982D01*
X86911301Y-100714153D01*
X86850166Y-100566560D01*
X86819000Y-100409877D01*
X86819000Y-100250123D01*
X86850166Y-100093440D01*
X86911301Y-99945847D01*
X87000055Y-99813018D01*
X87113018Y-99700055D01*
X87245847Y-99611301D01*
X87393440Y-99550166D01*
X87550122Y-99519000D01*
X87709878Y-99519000D01*
X87866560Y-99550166D01*
X87866560Y-99550166D01*
G37*
G36*
X90406560Y-99550166D02*
G01*
X90554153Y-99611301D01*
X90686982Y-99700055D01*
X90799945Y-99813018D01*
X90888699Y-99945847D01*
X90949834Y-100093440D01*
X90981000Y-100250123D01*
X90981000Y-100409877D01*
X90949834Y-100566560D01*
X90888699Y-100714153D01*
X90799945Y-100846982D01*
X90686982Y-100959945D01*
X90554153Y-101048699D01*
X90554152Y-101048700D01*
X90554151Y-101048700D01*
X90406560Y-101109834D01*
X90249878Y-101141000D01*
X90090122Y-101141000D01*
X89933440Y-101109834D01*
X89785849Y-101048700D01*
X89785848Y-101048700D01*
X89785847Y-101048699D01*
X89653018Y-100959945D01*
X89540055Y-100846982D01*
X89451301Y-100714153D01*
X89390166Y-100566560D01*
X89359000Y-100409877D01*
X89359000Y-100250123D01*
X89390166Y-100093440D01*
X89451301Y-99945847D01*
X89540055Y-99813018D01*
X89653018Y-99700055D01*
X89785847Y-99611301D01*
X89933440Y-99550166D01*
X90090122Y-99519000D01*
X90249878Y-99519000D01*
X90406560Y-99550166D01*
X90406560Y-99550166D01*
G37*
G36*
X136126560Y-99550166D02*
G01*
X136274153Y-99611301D01*
X136406982Y-99700055D01*
X136519945Y-99813018D01*
X136608699Y-99945847D01*
X136669834Y-100093440D01*
X136701000Y-100250123D01*
X136701000Y-100409877D01*
X136669834Y-100566560D01*
X136608699Y-100714153D01*
X136519945Y-100846982D01*
X136406982Y-100959945D01*
X136274153Y-101048699D01*
X136274152Y-101048700D01*
X136274151Y-101048700D01*
X136126560Y-101109834D01*
X135969878Y-101141000D01*
X135810122Y-101141000D01*
X135653440Y-101109834D01*
X135505849Y-101048700D01*
X135505848Y-101048700D01*
X135505847Y-101048699D01*
X135373018Y-100959945D01*
X135260055Y-100846982D01*
X135171301Y-100714153D01*
X135110166Y-100566560D01*
X135079000Y-100409877D01*
X135079000Y-100250123D01*
X135110166Y-100093440D01*
X135171301Y-99945847D01*
X135260055Y-99813018D01*
X135373018Y-99700055D01*
X135505847Y-99611301D01*
X135653440Y-99550166D01*
X135810122Y-99519000D01*
X135969878Y-99519000D01*
X136126560Y-99550166D01*
X136126560Y-99550166D01*
G37*
G36*
X146286560Y-99550166D02*
G01*
X146434153Y-99611301D01*
X146566982Y-99700055D01*
X146679945Y-99813018D01*
X146768699Y-99945847D01*
X146829834Y-100093440D01*
X146861000Y-100250123D01*
X146861000Y-100409877D01*
X146829834Y-100566560D01*
X146768699Y-100714153D01*
X146679945Y-100846982D01*
X146566982Y-100959945D01*
X146434153Y-101048699D01*
X146434152Y-101048700D01*
X146434151Y-101048700D01*
X146286560Y-101109834D01*
X146129878Y-101141000D01*
X145970122Y-101141000D01*
X145813440Y-101109834D01*
X145665849Y-101048700D01*
X145665848Y-101048700D01*
X145665847Y-101048699D01*
X145533018Y-100959945D01*
X145420055Y-100846982D01*
X145331301Y-100714153D01*
X145270166Y-100566560D01*
X145239000Y-100409877D01*
X145239000Y-100250123D01*
X145270166Y-100093440D01*
X145331301Y-99945847D01*
X145420055Y-99813018D01*
X145533018Y-99700055D01*
X145665847Y-99611301D01*
X145813440Y-99550166D01*
X145970122Y-99519000D01*
X146129878Y-99519000D01*
X146286560Y-99550166D01*
X146286560Y-99550166D01*
G37*
G36*
X143746560Y-99550166D02*
G01*
X143894153Y-99611301D01*
X144026982Y-99700055D01*
X144139945Y-99813018D01*
X144228699Y-99945847D01*
X144289834Y-100093440D01*
X144321000Y-100250123D01*
X144321000Y-100409877D01*
X144289834Y-100566560D01*
X144228699Y-100714153D01*
X144139945Y-100846982D01*
X144026982Y-100959945D01*
X143894153Y-101048699D01*
X143894152Y-101048700D01*
X143894151Y-101048700D01*
X143746560Y-101109834D01*
X143589878Y-101141000D01*
X143430122Y-101141000D01*
X143273440Y-101109834D01*
X143125849Y-101048700D01*
X143125848Y-101048700D01*
X143125847Y-101048699D01*
X142993018Y-100959945D01*
X142880055Y-100846982D01*
X142791301Y-100714153D01*
X142730166Y-100566560D01*
X142699000Y-100409877D01*
X142699000Y-100250123D01*
X142730166Y-100093440D01*
X142791301Y-99945847D01*
X142880055Y-99813018D01*
X142993018Y-99700055D01*
X143125847Y-99611301D01*
X143273440Y-99550166D01*
X143430122Y-99519000D01*
X143589878Y-99519000D01*
X143746560Y-99550166D01*
X143746560Y-99550166D01*
G37*
G36*
X138666560Y-99550166D02*
G01*
X138814153Y-99611301D01*
X138946982Y-99700055D01*
X139059945Y-99813018D01*
X139148699Y-99945847D01*
X139209834Y-100093440D01*
X139241000Y-100250123D01*
X139241000Y-100409877D01*
X139209834Y-100566560D01*
X139148699Y-100714153D01*
X139059945Y-100846982D01*
X138946982Y-100959945D01*
X138814153Y-101048699D01*
X138814152Y-101048700D01*
X138814151Y-101048700D01*
X138666560Y-101109834D01*
X138509878Y-101141000D01*
X138350122Y-101141000D01*
X138193440Y-101109834D01*
X138045849Y-101048700D01*
X138045848Y-101048700D01*
X138045847Y-101048699D01*
X137913018Y-100959945D01*
X137800055Y-100846982D01*
X137711301Y-100714153D01*
X137650166Y-100566560D01*
X137619000Y-100409877D01*
X137619000Y-100250123D01*
X137650166Y-100093440D01*
X137711301Y-99945847D01*
X137800055Y-99813018D01*
X137913018Y-99700055D01*
X138045847Y-99611301D01*
X138193440Y-99550166D01*
X138350122Y-99519000D01*
X138509878Y-99519000D01*
X138666560Y-99550166D01*
X138666560Y-99550166D01*
G37*
G36*
X133586560Y-99550166D02*
G01*
X133734153Y-99611301D01*
X133866982Y-99700055D01*
X133979945Y-99813018D01*
X134068699Y-99945847D01*
X134129834Y-100093440D01*
X134161000Y-100250123D01*
X134161000Y-100409877D01*
X134129834Y-100566560D01*
X134068699Y-100714153D01*
X133979945Y-100846982D01*
X133866982Y-100959945D01*
X133734153Y-101048699D01*
X133734152Y-101048700D01*
X133734151Y-101048700D01*
X133586560Y-101109834D01*
X133429878Y-101141000D01*
X133270122Y-101141000D01*
X133113440Y-101109834D01*
X132965849Y-101048700D01*
X132965848Y-101048700D01*
X132965847Y-101048699D01*
X132833018Y-100959945D01*
X132720055Y-100846982D01*
X132631301Y-100714153D01*
X132570166Y-100566560D01*
X132539000Y-100409877D01*
X132539000Y-100250123D01*
X132570166Y-100093440D01*
X132631301Y-99945847D01*
X132720055Y-99813018D01*
X132833018Y-99700055D01*
X132965847Y-99611301D01*
X133113440Y-99550166D01*
X133270122Y-99519000D01*
X133429878Y-99519000D01*
X133586560Y-99550166D01*
X133586560Y-99550166D01*
G37*
G36*
X153906560Y-99550166D02*
G01*
X154054153Y-99611301D01*
X154186982Y-99700055D01*
X154299945Y-99813018D01*
X154388699Y-99945847D01*
X154449834Y-100093440D01*
X154481000Y-100250123D01*
X154481000Y-100409877D01*
X154449834Y-100566560D01*
X154388699Y-100714153D01*
X154299945Y-100846982D01*
X154186982Y-100959945D01*
X154054153Y-101048699D01*
X154054152Y-101048700D01*
X154054151Y-101048700D01*
X153906560Y-101109834D01*
X153749878Y-101141000D01*
X153590122Y-101141000D01*
X153433440Y-101109834D01*
X153285849Y-101048700D01*
X153285848Y-101048700D01*
X153285847Y-101048699D01*
X153153018Y-100959945D01*
X153040055Y-100846982D01*
X152951301Y-100714153D01*
X152890166Y-100566560D01*
X152859000Y-100409877D01*
X152859000Y-100250123D01*
X152890166Y-100093440D01*
X152951301Y-99945847D01*
X153040055Y-99813018D01*
X153153018Y-99700055D01*
X153285847Y-99611301D01*
X153433440Y-99550166D01*
X153590122Y-99519000D01*
X153749878Y-99519000D01*
X153906560Y-99550166D01*
X153906560Y-99550166D01*
G37*
G36*
X80246560Y-99550166D02*
G01*
X80394153Y-99611301D01*
X80526982Y-99700055D01*
X80639945Y-99813018D01*
X80728699Y-99945847D01*
X80789834Y-100093440D01*
X80821000Y-100250123D01*
X80821000Y-100409877D01*
X80789834Y-100566560D01*
X80728699Y-100714153D01*
X80639945Y-100846982D01*
X80526982Y-100959945D01*
X80394153Y-101048699D01*
X80394152Y-101048700D01*
X80394151Y-101048700D01*
X80246560Y-101109834D01*
X80089878Y-101141000D01*
X79930122Y-101141000D01*
X79773440Y-101109834D01*
X79625849Y-101048700D01*
X79625848Y-101048700D01*
X79625847Y-101048699D01*
X79493018Y-100959945D01*
X79380055Y-100846982D01*
X79291301Y-100714153D01*
X79230166Y-100566560D01*
X79199000Y-100409877D01*
X79199000Y-100250123D01*
X79230166Y-100093440D01*
X79291301Y-99945847D01*
X79380055Y-99813018D01*
X79493018Y-99700055D01*
X79625847Y-99611301D01*
X79773440Y-99550166D01*
X79930122Y-99519000D01*
X80089878Y-99519000D01*
X80246560Y-99550166D01*
X80246560Y-99550166D01*
G37*
G36*
X77706560Y-99550166D02*
G01*
X77854153Y-99611301D01*
X77986982Y-99700055D01*
X78099945Y-99813018D01*
X78188699Y-99945847D01*
X78249834Y-100093440D01*
X78281000Y-100250123D01*
X78281000Y-100409877D01*
X78249834Y-100566560D01*
X78188699Y-100714153D01*
X78099945Y-100846982D01*
X77986982Y-100959945D01*
X77854153Y-101048699D01*
X77854152Y-101048700D01*
X77854151Y-101048700D01*
X77706560Y-101109834D01*
X77549878Y-101141000D01*
X77390122Y-101141000D01*
X77233440Y-101109834D01*
X77085849Y-101048700D01*
X77085848Y-101048700D01*
X77085847Y-101048699D01*
X76953018Y-100959945D01*
X76840055Y-100846982D01*
X76751301Y-100714153D01*
X76690166Y-100566560D01*
X76659000Y-100409877D01*
X76659000Y-100250123D01*
X76690166Y-100093440D01*
X76751301Y-99945847D01*
X76840055Y-99813018D01*
X76953018Y-99700055D01*
X77085847Y-99611301D01*
X77233440Y-99550166D01*
X77390122Y-99519000D01*
X77549878Y-99519000D01*
X77706560Y-99550166D01*
X77706560Y-99550166D01*
G37*
G36*
X75166560Y-99550166D02*
G01*
X75314153Y-99611301D01*
X75446982Y-99700055D01*
X75559945Y-99813018D01*
X75648699Y-99945847D01*
X75709834Y-100093440D01*
X75741000Y-100250123D01*
X75741000Y-100409877D01*
X75709834Y-100566560D01*
X75648699Y-100714153D01*
X75559945Y-100846982D01*
X75446982Y-100959945D01*
X75314153Y-101048699D01*
X75314152Y-101048700D01*
X75314151Y-101048700D01*
X75166560Y-101109834D01*
X75009878Y-101141000D01*
X74850122Y-101141000D01*
X74693440Y-101109834D01*
X74545849Y-101048700D01*
X74545848Y-101048700D01*
X74545847Y-101048699D01*
X74413018Y-100959945D01*
X74300055Y-100846982D01*
X74211301Y-100714153D01*
X74150166Y-100566560D01*
X74119000Y-100409877D01*
X74119000Y-100250123D01*
X74150166Y-100093440D01*
X74211301Y-99945847D01*
X74300055Y-99813018D01*
X74413018Y-99700055D01*
X74545847Y-99611301D01*
X74693440Y-99550166D01*
X74850122Y-99519000D01*
X75009878Y-99519000D01*
X75166560Y-99550166D01*
X75166560Y-99550166D01*
G37*
G36*
X72626560Y-99550166D02*
G01*
X72774153Y-99611301D01*
X72906982Y-99700055D01*
X73019945Y-99813018D01*
X73108699Y-99945847D01*
X73169834Y-100093440D01*
X73201000Y-100250123D01*
X73201000Y-100409877D01*
X73169834Y-100566560D01*
X73108699Y-100714153D01*
X73019945Y-100846982D01*
X72906982Y-100959945D01*
X72774153Y-101048699D01*
X72774152Y-101048700D01*
X72774151Y-101048700D01*
X72626560Y-101109834D01*
X72469878Y-101141000D01*
X72310122Y-101141000D01*
X72153440Y-101109834D01*
X72005849Y-101048700D01*
X72005848Y-101048700D01*
X72005847Y-101048699D01*
X71873018Y-100959945D01*
X71760055Y-100846982D01*
X71671301Y-100714153D01*
X71610166Y-100566560D01*
X71579000Y-100409877D01*
X71579000Y-100250123D01*
X71610166Y-100093440D01*
X71671301Y-99945847D01*
X71760055Y-99813018D01*
X71873018Y-99700055D01*
X72005847Y-99611301D01*
X72153440Y-99550166D01*
X72310122Y-99519000D01*
X72469878Y-99519000D01*
X72626560Y-99550166D01*
X72626560Y-99550166D01*
G37*
G36*
X70086560Y-99550166D02*
G01*
X70234153Y-99611301D01*
X70366982Y-99700055D01*
X70479945Y-99813018D01*
X70568699Y-99945847D01*
X70629834Y-100093440D01*
X70661000Y-100250123D01*
X70661000Y-100409877D01*
X70629834Y-100566560D01*
X70568699Y-100714153D01*
X70479945Y-100846982D01*
X70366982Y-100959945D01*
X70234153Y-101048699D01*
X70234152Y-101048700D01*
X70234151Y-101048700D01*
X70086560Y-101109834D01*
X69929878Y-101141000D01*
X69770122Y-101141000D01*
X69613440Y-101109834D01*
X69465849Y-101048700D01*
X69465848Y-101048700D01*
X69465847Y-101048699D01*
X69333018Y-100959945D01*
X69220055Y-100846982D01*
X69131301Y-100714153D01*
X69070166Y-100566560D01*
X69039000Y-100409877D01*
X69039000Y-100250123D01*
X69070166Y-100093440D01*
X69131301Y-99945847D01*
X69220055Y-99813018D01*
X69333018Y-99700055D01*
X69465847Y-99611301D01*
X69613440Y-99550166D01*
X69770122Y-99519000D01*
X69929878Y-99519000D01*
X70086560Y-99550166D01*
X70086560Y-99550166D01*
G37*
G36*
X141206560Y-99550166D02*
G01*
X141354153Y-99611301D01*
X141486982Y-99700055D01*
X141599945Y-99813018D01*
X141688699Y-99945847D01*
X141749834Y-100093440D01*
X141781000Y-100250123D01*
X141781000Y-100409877D01*
X141749834Y-100566560D01*
X141688699Y-100714153D01*
X141599945Y-100846982D01*
X141486982Y-100959945D01*
X141354153Y-101048699D01*
X141354152Y-101048700D01*
X141354151Y-101048700D01*
X141206560Y-101109834D01*
X141049878Y-101141000D01*
X140890122Y-101141000D01*
X140733440Y-101109834D01*
X140585849Y-101048700D01*
X140585848Y-101048700D01*
X140585847Y-101048699D01*
X140453018Y-100959945D01*
X140340055Y-100846982D01*
X140251301Y-100714153D01*
X140190166Y-100566560D01*
X140159000Y-100409877D01*
X140159000Y-100250123D01*
X140190166Y-100093440D01*
X140251301Y-99945847D01*
X140340055Y-99813018D01*
X140453018Y-99700055D01*
X140585847Y-99611301D01*
X140733440Y-99550166D01*
X140890122Y-99519000D01*
X141049878Y-99519000D01*
X141206560Y-99550166D01*
X141206560Y-99550166D01*
G37*
G36*
X156446560Y-99550166D02*
G01*
X156594153Y-99611301D01*
X156726982Y-99700055D01*
X156839945Y-99813018D01*
X156928699Y-99945847D01*
X156989834Y-100093440D01*
X157021000Y-100250123D01*
X157021000Y-100409877D01*
X156989834Y-100566560D01*
X156928699Y-100714153D01*
X156839945Y-100846982D01*
X156726982Y-100959945D01*
X156594153Y-101048699D01*
X156594152Y-101048700D01*
X156594151Y-101048700D01*
X156446560Y-101109834D01*
X156289878Y-101141000D01*
X156130122Y-101141000D01*
X155973440Y-101109834D01*
X155825849Y-101048700D01*
X155825848Y-101048700D01*
X155825847Y-101048699D01*
X155693018Y-100959945D01*
X155580055Y-100846982D01*
X155491301Y-100714153D01*
X155430166Y-100566560D01*
X155399000Y-100409877D01*
X155399000Y-100250123D01*
X155430166Y-100093440D01*
X155491301Y-99945847D01*
X155580055Y-99813018D01*
X155693018Y-99700055D01*
X155825847Y-99611301D01*
X155973440Y-99550166D01*
X156130122Y-99519000D01*
X156289878Y-99519000D01*
X156446560Y-99550166D01*
X156446560Y-99550166D01*
G37*
G36*
X151366560Y-99550166D02*
G01*
X151514153Y-99611301D01*
X151646982Y-99700055D01*
X151759945Y-99813018D01*
X151848699Y-99945847D01*
X151909834Y-100093440D01*
X151941000Y-100250123D01*
X151941000Y-100409877D01*
X151909834Y-100566560D01*
X151848699Y-100714153D01*
X151759945Y-100846982D01*
X151646982Y-100959945D01*
X151514153Y-101048699D01*
X151514152Y-101048700D01*
X151514151Y-101048700D01*
X151366560Y-101109834D01*
X151209878Y-101141000D01*
X151050122Y-101141000D01*
X150893440Y-101109834D01*
X150745849Y-101048700D01*
X150745848Y-101048700D01*
X150745847Y-101048699D01*
X150613018Y-100959945D01*
X150500055Y-100846982D01*
X150411301Y-100714153D01*
X150350166Y-100566560D01*
X150319000Y-100409877D01*
X150319000Y-100250123D01*
X150350166Y-100093440D01*
X150411301Y-99945847D01*
X150500055Y-99813018D01*
X150613018Y-99700055D01*
X150745847Y-99611301D01*
X150893440Y-99550166D01*
X151050122Y-99519000D01*
X151209878Y-99519000D01*
X151366560Y-99550166D01*
X151366560Y-99550166D01*
G37*
G36*
X148826560Y-99550166D02*
G01*
X148974153Y-99611301D01*
X149106982Y-99700055D01*
X149219945Y-99813018D01*
X149308699Y-99945847D01*
X149369834Y-100093440D01*
X149401000Y-100250123D01*
X149401000Y-100409877D01*
X149369834Y-100566560D01*
X149308699Y-100714153D01*
X149219945Y-100846982D01*
X149106982Y-100959945D01*
X148974153Y-101048699D01*
X148974152Y-101048700D01*
X148974151Y-101048700D01*
X148826560Y-101109834D01*
X148669878Y-101141000D01*
X148510122Y-101141000D01*
X148353440Y-101109834D01*
X148205849Y-101048700D01*
X148205848Y-101048700D01*
X148205847Y-101048699D01*
X148073018Y-100959945D01*
X147960055Y-100846982D01*
X147871301Y-100714153D01*
X147810166Y-100566560D01*
X147779000Y-100409877D01*
X147779000Y-100250123D01*
X147810166Y-100093440D01*
X147871301Y-99945847D01*
X147960055Y-99813018D01*
X148073018Y-99700055D01*
X148205847Y-99611301D01*
X148353440Y-99550166D01*
X148510122Y-99519000D01*
X148669878Y-99519000D01*
X148826560Y-99550166D01*
X148826560Y-99550166D01*
G37*
G36*
X82786560Y-99550166D02*
G01*
X82934153Y-99611301D01*
X83066982Y-99700055D01*
X83179945Y-99813018D01*
X83268699Y-99945847D01*
X83329834Y-100093440D01*
X83361000Y-100250123D01*
X83361000Y-100409877D01*
X83329834Y-100566560D01*
X83268699Y-100714153D01*
X83179945Y-100846982D01*
X83066982Y-100959945D01*
X82934153Y-101048699D01*
X82934152Y-101048700D01*
X82934151Y-101048700D01*
X82786560Y-101109834D01*
X82629878Y-101141000D01*
X82470122Y-101141000D01*
X82313440Y-101109834D01*
X82165849Y-101048700D01*
X82165848Y-101048700D01*
X82165847Y-101048699D01*
X82033018Y-100959945D01*
X81920055Y-100846982D01*
X81831301Y-100714153D01*
X81770166Y-100566560D01*
X81739000Y-100409877D01*
X81739000Y-100250123D01*
X81770166Y-100093440D01*
X81831301Y-99945847D01*
X81920055Y-99813018D01*
X82033018Y-99700055D01*
X82165847Y-99611301D01*
X82313440Y-99550166D01*
X82470122Y-99519000D01*
X82629878Y-99519000D01*
X82786560Y-99550166D01*
X82786560Y-99550166D01*
G37*
G36*
X125967142Y-91928242D02*
G01*
X126115101Y-91989529D01*
X126248255Y-92078499D01*
X126361501Y-92191745D01*
X126450471Y-92324899D01*
X126511758Y-92472858D01*
X126543000Y-92629925D01*
X126543000Y-92790075D01*
X126511758Y-92947142D01*
X126450471Y-93095101D01*
X126361501Y-93228255D01*
X126248255Y-93341501D01*
X126115101Y-93430471D01*
X125967142Y-93491758D01*
X125810075Y-93523000D01*
X125649925Y-93523000D01*
X125492858Y-93491758D01*
X125344899Y-93430471D01*
X125211745Y-93341501D01*
X125098499Y-93228255D01*
X125009529Y-93095101D01*
X124948242Y-92947142D01*
X124917000Y-92790075D01*
X124917000Y-92629925D01*
X124948242Y-92472858D01*
X125009529Y-92324899D01*
X125098499Y-92191745D01*
X125211745Y-92078499D01*
X125344899Y-91989529D01*
X125492858Y-91928242D01*
X125649925Y-91897000D01*
X125810075Y-91897000D01*
X125967142Y-91928242D01*
X125967142Y-91928242D01*
G37*
G36*
X133587142Y-91928242D02*
G01*
X133735101Y-91989529D01*
X133868255Y-92078499D01*
X133981501Y-92191745D01*
X134070471Y-92324899D01*
X134131758Y-92472858D01*
X134163000Y-92629925D01*
X134163000Y-92790075D01*
X134131758Y-92947142D01*
X134070471Y-93095101D01*
X133981501Y-93228255D01*
X133868255Y-93341501D01*
X133735101Y-93430471D01*
X133587142Y-93491758D01*
X133430075Y-93523000D01*
X133269925Y-93523000D01*
X133112858Y-93491758D01*
X132964899Y-93430471D01*
X132831745Y-93341501D01*
X132718499Y-93228255D01*
X132629529Y-93095101D01*
X132568242Y-92947142D01*
X132537000Y-92790075D01*
X132537000Y-92629925D01*
X132568242Y-92472858D01*
X132629529Y-92324899D01*
X132718499Y-92191745D01*
X132831745Y-92078499D01*
X132964899Y-91989529D01*
X133112858Y-91928242D01*
X133269925Y-91897000D01*
X133430075Y-91897000D01*
X133587142Y-91928242D01*
X133587142Y-91928242D01*
G37*
G36*
X131047142Y-91928242D02*
G01*
X131195101Y-91989529D01*
X131328255Y-92078499D01*
X131441501Y-92191745D01*
X131530471Y-92324899D01*
X131591758Y-92472858D01*
X131623000Y-92629925D01*
X131623000Y-92790075D01*
X131591758Y-92947142D01*
X131530471Y-93095101D01*
X131441501Y-93228255D01*
X131328255Y-93341501D01*
X131195101Y-93430471D01*
X131047142Y-93491758D01*
X130890075Y-93523000D01*
X130729925Y-93523000D01*
X130572858Y-93491758D01*
X130424899Y-93430471D01*
X130291745Y-93341501D01*
X130178499Y-93228255D01*
X130089529Y-93095101D01*
X130028242Y-92947142D01*
X129997000Y-92790075D01*
X129997000Y-92629925D01*
X130028242Y-92472858D01*
X130089529Y-92324899D01*
X130178499Y-92191745D01*
X130291745Y-92078499D01*
X130424899Y-91989529D01*
X130572858Y-91928242D01*
X130729925Y-91897000D01*
X130890075Y-91897000D01*
X131047142Y-91928242D01*
X131047142Y-91928242D01*
G37*
G36*
X128507142Y-91928242D02*
G01*
X128655101Y-91989529D01*
X128788255Y-92078499D01*
X128901501Y-92191745D01*
X128990471Y-92324899D01*
X129051758Y-92472858D01*
X129083000Y-92629925D01*
X129083000Y-92790075D01*
X129051758Y-92947142D01*
X128990471Y-93095101D01*
X128901501Y-93228255D01*
X128788255Y-93341501D01*
X128655101Y-93430471D01*
X128507142Y-93491758D01*
X128350075Y-93523000D01*
X128189925Y-93523000D01*
X128032858Y-93491758D01*
X127884899Y-93430471D01*
X127751745Y-93341501D01*
X127638499Y-93228255D01*
X127549529Y-93095101D01*
X127488242Y-92947142D01*
X127457000Y-92790075D01*
X127457000Y-92629925D01*
X127488242Y-92472858D01*
X127549529Y-92324899D01*
X127638499Y-92191745D01*
X127751745Y-92078499D01*
X127884899Y-91989529D01*
X128032858Y-91928242D01*
X128189925Y-91897000D01*
X128350075Y-91897000D01*
X128507142Y-91928242D01*
X128507142Y-91928242D01*
G37*
G36*
X165337142Y-81768242D02*
G01*
X165485101Y-81829529D01*
X165618255Y-81918499D01*
X165731501Y-82031745D01*
X165820471Y-82164899D01*
X165881758Y-82312858D01*
X165913000Y-82469925D01*
X165913000Y-82630075D01*
X165881758Y-82787142D01*
X165820471Y-82935101D01*
X165731501Y-83068255D01*
X165618255Y-83181501D01*
X165485101Y-83270471D01*
X165337142Y-83331758D01*
X165180075Y-83363000D01*
X165019925Y-83363000D01*
X164862858Y-83331758D01*
X164714899Y-83270471D01*
X164581745Y-83181501D01*
X164468499Y-83068255D01*
X164379529Y-82935101D01*
X164318242Y-82787142D01*
X164287000Y-82630075D01*
X164287000Y-82469925D01*
X164318242Y-82312858D01*
X164379529Y-82164899D01*
X164468499Y-82031745D01*
X164581745Y-81918499D01*
X164714899Y-81829529D01*
X164862858Y-81768242D01*
X165019925Y-81737000D01*
X165180075Y-81737000D01*
X165337142Y-81768242D01*
X165337142Y-81768242D01*
G37*
G36*
X162797142Y-81768242D02*
G01*
X162945101Y-81829529D01*
X163078255Y-81918499D01*
X163191501Y-82031745D01*
X163280471Y-82164899D01*
X163341758Y-82312858D01*
X163373000Y-82469925D01*
X163373000Y-82630075D01*
X163341758Y-82787142D01*
X163280471Y-82935101D01*
X163191501Y-83068255D01*
X163078255Y-83181501D01*
X162945101Y-83270471D01*
X162797142Y-83331758D01*
X162640075Y-83363000D01*
X162479925Y-83363000D01*
X162322858Y-83331758D01*
X162174899Y-83270471D01*
X162041745Y-83181501D01*
X161928499Y-83068255D01*
X161839529Y-82935101D01*
X161778242Y-82787142D01*
X161747000Y-82630075D01*
X161747000Y-82469925D01*
X161778242Y-82312858D01*
X161839529Y-82164899D01*
X161928499Y-82031745D01*
X162041745Y-81918499D01*
X162174899Y-81829529D01*
X162322858Y-81768242D01*
X162479925Y-81737000D01*
X162640075Y-81737000D01*
X162797142Y-81768242D01*
X162797142Y-81768242D01*
G37*
G36*
X167877142Y-81768242D02*
G01*
X168025101Y-81829529D01*
X168158255Y-81918499D01*
X168271501Y-82031745D01*
X168360471Y-82164899D01*
X168421758Y-82312858D01*
X168453000Y-82469925D01*
X168453000Y-82630075D01*
X168421758Y-82787142D01*
X168360471Y-82935101D01*
X168271501Y-83068255D01*
X168158255Y-83181501D01*
X168025101Y-83270471D01*
X167877142Y-83331758D01*
X167720075Y-83363000D01*
X167559925Y-83363000D01*
X167402858Y-83331758D01*
X167254899Y-83270471D01*
X167121745Y-83181501D01*
X167008499Y-83068255D01*
X166919529Y-82935101D01*
X166858242Y-82787142D01*
X166827000Y-82630075D01*
X166827000Y-82469925D01*
X166858242Y-82312858D01*
X166919529Y-82164899D01*
X167008499Y-82031745D01*
X167121745Y-81918499D01*
X167254899Y-81829529D01*
X167402858Y-81768242D01*
X167559925Y-81737000D01*
X167720075Y-81737000D01*
X167877142Y-81768242D01*
X167877142Y-81768242D01*
G37*
G36*
X151367142Y-81768242D02*
G01*
X151515101Y-81829529D01*
X151648255Y-81918499D01*
X151761501Y-82031745D01*
X151850471Y-82164899D01*
X151911758Y-82312858D01*
X151943000Y-82469925D01*
X151943000Y-82630075D01*
X151911758Y-82787142D01*
X151850471Y-82935101D01*
X151761501Y-83068255D01*
X151648255Y-83181501D01*
X151515101Y-83270471D01*
X151367142Y-83331758D01*
X151210075Y-83363000D01*
X151049925Y-83363000D01*
X150892858Y-83331758D01*
X150744899Y-83270471D01*
X150611745Y-83181501D01*
X150498499Y-83068255D01*
X150409529Y-82935101D01*
X150348242Y-82787142D01*
X150317000Y-82630075D01*
X150317000Y-82469925D01*
X150348242Y-82312858D01*
X150409529Y-82164899D01*
X150498499Y-82031745D01*
X150611745Y-81918499D01*
X150744899Y-81829529D01*
X150892858Y-81768242D01*
X151049925Y-81737000D01*
X151210075Y-81737000D01*
X151367142Y-81768242D01*
X151367142Y-81768242D01*
G37*
G36*
X153907142Y-81768242D02*
G01*
X154055101Y-81829529D01*
X154188255Y-81918499D01*
X154301501Y-82031745D01*
X154390471Y-82164899D01*
X154451758Y-82312858D01*
X154483000Y-82469925D01*
X154483000Y-82630075D01*
X154451758Y-82787142D01*
X154390471Y-82935101D01*
X154301501Y-83068255D01*
X154188255Y-83181501D01*
X154055101Y-83270471D01*
X153907142Y-83331758D01*
X153750075Y-83363000D01*
X153589925Y-83363000D01*
X153432858Y-83331758D01*
X153284899Y-83270471D01*
X153151745Y-83181501D01*
X153038499Y-83068255D01*
X152949529Y-82935101D01*
X152888242Y-82787142D01*
X152857000Y-82630075D01*
X152857000Y-82469925D01*
X152888242Y-82312858D01*
X152949529Y-82164899D01*
X153038499Y-82031745D01*
X153151745Y-81918499D01*
X153284899Y-81829529D01*
X153432858Y-81768242D01*
X153589925Y-81737000D01*
X153750075Y-81737000D01*
X153907142Y-81768242D01*
X153907142Y-81768242D01*
G37*
G36*
X156447142Y-81768242D02*
G01*
X156595101Y-81829529D01*
X156728255Y-81918499D01*
X156841501Y-82031745D01*
X156930471Y-82164899D01*
X156991758Y-82312858D01*
X157023000Y-82469925D01*
X157023000Y-82630075D01*
X156991758Y-82787142D01*
X156930471Y-82935101D01*
X156841501Y-83068255D01*
X156728255Y-83181501D01*
X156595101Y-83270471D01*
X156447142Y-83331758D01*
X156290075Y-83363000D01*
X156129925Y-83363000D01*
X155972858Y-83331758D01*
X155824899Y-83270471D01*
X155691745Y-83181501D01*
X155578499Y-83068255D01*
X155489529Y-82935101D01*
X155428242Y-82787142D01*
X155397000Y-82630075D01*
X155397000Y-82469925D01*
X155428242Y-82312858D01*
X155489529Y-82164899D01*
X155578499Y-82031745D01*
X155691745Y-81918499D01*
X155824899Y-81829529D01*
X155972858Y-81768242D01*
X156129925Y-81737000D01*
X156290075Y-81737000D01*
X156447142Y-81768242D01*
X156447142Y-81768242D01*
G37*
G36*
X115807142Y-81768242D02*
G01*
X115955101Y-81829529D01*
X116088255Y-81918499D01*
X116201501Y-82031745D01*
X116290471Y-82164899D01*
X116351758Y-82312858D01*
X116383000Y-82469925D01*
X116383000Y-82630075D01*
X116351758Y-82787142D01*
X116290471Y-82935101D01*
X116201501Y-83068255D01*
X116088255Y-83181501D01*
X115955101Y-83270471D01*
X115807142Y-83331758D01*
X115650075Y-83363000D01*
X115489925Y-83363000D01*
X115332858Y-83331758D01*
X115184899Y-83270471D01*
X115051745Y-83181501D01*
X114938499Y-83068255D01*
X114849529Y-82935101D01*
X114788242Y-82787142D01*
X114757000Y-82630075D01*
X114757000Y-82469925D01*
X114788242Y-82312858D01*
X114849529Y-82164899D01*
X114938499Y-82031745D01*
X115051745Y-81918499D01*
X115184899Y-81829529D01*
X115332858Y-81768242D01*
X115489925Y-81737000D01*
X115650075Y-81737000D01*
X115807142Y-81768242D01*
X115807142Y-81768242D01*
G37*
G36*
X113267142Y-81768242D02*
G01*
X113415101Y-81829529D01*
X113548255Y-81918499D01*
X113661501Y-82031745D01*
X113750471Y-82164899D01*
X113811758Y-82312858D01*
X113843000Y-82469925D01*
X113843000Y-82630075D01*
X113811758Y-82787142D01*
X113750471Y-82935101D01*
X113661501Y-83068255D01*
X113548255Y-83181501D01*
X113415101Y-83270471D01*
X113267142Y-83331758D01*
X113110075Y-83363000D01*
X112949925Y-83363000D01*
X112792858Y-83331758D01*
X112644899Y-83270471D01*
X112511745Y-83181501D01*
X112398499Y-83068255D01*
X112309529Y-82935101D01*
X112248242Y-82787142D01*
X112217000Y-82630075D01*
X112217000Y-82469925D01*
X112248242Y-82312858D01*
X112309529Y-82164899D01*
X112398499Y-82031745D01*
X112511745Y-81918499D01*
X112644899Y-81829529D01*
X112792858Y-81768242D01*
X112949925Y-81737000D01*
X113110075Y-81737000D01*
X113267142Y-81768242D01*
X113267142Y-81768242D01*
G37*
G36*
X110727142Y-81768242D02*
G01*
X110875101Y-81829529D01*
X111008255Y-81918499D01*
X111121501Y-82031745D01*
X111210471Y-82164899D01*
X111271758Y-82312858D01*
X111303000Y-82469925D01*
X111303000Y-82630075D01*
X111271758Y-82787142D01*
X111210471Y-82935101D01*
X111121501Y-83068255D01*
X111008255Y-83181501D01*
X110875101Y-83270471D01*
X110727142Y-83331758D01*
X110570075Y-83363000D01*
X110409925Y-83363000D01*
X110252858Y-83331758D01*
X110104899Y-83270471D01*
X109971745Y-83181501D01*
X109858499Y-83068255D01*
X109769529Y-82935101D01*
X109708242Y-82787142D01*
X109677000Y-82630075D01*
X109677000Y-82469925D01*
X109708242Y-82312858D01*
X109769529Y-82164899D01*
X109858499Y-82031745D01*
X109971745Y-81918499D01*
X110104899Y-81829529D01*
X110252858Y-81768242D01*
X110409925Y-81737000D01*
X110570075Y-81737000D01*
X110727142Y-81768242D01*
X110727142Y-81768242D01*
G37*
G36*
X108187142Y-81768242D02*
G01*
X108335101Y-81829529D01*
X108468255Y-81918499D01*
X108581501Y-82031745D01*
X108670471Y-82164899D01*
X108731758Y-82312858D01*
X108763000Y-82469925D01*
X108763000Y-82630075D01*
X108731758Y-82787142D01*
X108670471Y-82935101D01*
X108581501Y-83068255D01*
X108468255Y-83181501D01*
X108335101Y-83270471D01*
X108187142Y-83331758D01*
X108030075Y-83363000D01*
X107869925Y-83363000D01*
X107712858Y-83331758D01*
X107564899Y-83270471D01*
X107431745Y-83181501D01*
X107318499Y-83068255D01*
X107229529Y-82935101D01*
X107168242Y-82787142D01*
X107137000Y-82630075D01*
X107137000Y-82469925D01*
X107168242Y-82312858D01*
X107229529Y-82164899D01*
X107318499Y-82031745D01*
X107431745Y-81918499D01*
X107564899Y-81829529D01*
X107712858Y-81768242D01*
X107869925Y-81737000D01*
X108030075Y-81737000D01*
X108187142Y-81768242D01*
X108187142Y-81768242D01*
G37*
G36*
X175823508Y-76215380D02*
G01*
X175990367Y-76248570D01*
X176461899Y-76443885D01*
X176704629Y-76606073D01*
X176886266Y-76727438D01*
X177247162Y-77088334D01*
X177333860Y-77218088D01*
X177530715Y-77512701D01*
X177726030Y-77984233D01*
X177825600Y-78484809D01*
X177825600Y-78995191D01*
X177726030Y-79495767D01*
X177530715Y-79967299D01*
X177368527Y-80210029D01*
X177247162Y-80391666D01*
X176886266Y-80752562D01*
X176704629Y-80873927D01*
X176461899Y-81036115D01*
X175990367Y-81231430D01*
X175823508Y-81264620D01*
X175489793Y-81331000D01*
X174979407Y-81331000D01*
X174645692Y-81264620D01*
X174478833Y-81231430D01*
X174007301Y-81036115D01*
X173764571Y-80873927D01*
X173582934Y-80752562D01*
X173222038Y-80391666D01*
X173100673Y-80210029D01*
X172938485Y-79967299D01*
X172743170Y-79495767D01*
X172643600Y-78995191D01*
X172643600Y-78484809D01*
X172743170Y-77984233D01*
X172938485Y-77512701D01*
X173135340Y-77218088D01*
X173222038Y-77088334D01*
X173582934Y-76727438D01*
X173764571Y-76606073D01*
X174007301Y-76443885D01*
X174478833Y-76248570D01*
X174645692Y-76215380D01*
X174979407Y-76149000D01*
X175489793Y-76149000D01*
X175823508Y-76215380D01*
X175823508Y-76215380D01*
G37*
G36*
X77788123Y-74902890D02*
G01*
X77960090Y-74974121D01*
X78081689Y-75024489D01*
X78345891Y-75201023D01*
X78570577Y-75425709D01*
X78747111Y-75689911D01*
X78747111Y-75689912D01*
X78868710Y-75983477D01*
X78930700Y-76295122D01*
X78930700Y-76612878D01*
X78868710Y-76924523D01*
X78800857Y-77088334D01*
X78747111Y-77218089D01*
X78570577Y-77482291D01*
X78345891Y-77706977D01*
X78081689Y-77883511D01*
X77960090Y-77933879D01*
X77788123Y-78005110D01*
X77476478Y-78067100D01*
X77158722Y-78067100D01*
X76847077Y-78005110D01*
X76675110Y-77933879D01*
X76553511Y-77883511D01*
X76289309Y-77706977D01*
X76064623Y-77482291D01*
X75888089Y-77218089D01*
X75834343Y-77088334D01*
X75766490Y-76924523D01*
X75704500Y-76612878D01*
X75704500Y-76295122D01*
X75766490Y-75983477D01*
X75888089Y-75689912D01*
X75888089Y-75689911D01*
X76064623Y-75425709D01*
X76289309Y-75201023D01*
X76553511Y-75024489D01*
X76675110Y-74974121D01*
X76847077Y-74902890D01*
X77158722Y-74840900D01*
X77476478Y-74840900D01*
X77788123Y-74902890D01*
X77788123Y-74902890D01*
G37*
G36*
X80166131Y-72849077D02*
G01*
X80243439Y-72864455D01*
X80316261Y-72894619D01*
X80389085Y-72924784D01*
X80520159Y-73012364D01*
X80631636Y-73123841D01*
X80719216Y-73254915D01*
X80779545Y-73400562D01*
X80810300Y-73555176D01*
X80810300Y-73712824D01*
X80779545Y-73867438D01*
X80719216Y-74013085D01*
X80631636Y-74144159D01*
X80520159Y-74255636D01*
X80389085Y-74343216D01*
X80316262Y-74373380D01*
X80243439Y-74403545D01*
X80166131Y-74418923D01*
X80088824Y-74434300D01*
X79931176Y-74434300D01*
X79853869Y-74418923D01*
X79776561Y-74403545D01*
X79703738Y-74373380D01*
X79630915Y-74343216D01*
X79499841Y-74255636D01*
X79388364Y-74144159D01*
X79300784Y-74013085D01*
X79240455Y-73867438D01*
X79209700Y-73712824D01*
X79209700Y-73555176D01*
X79240455Y-73400562D01*
X79300784Y-73254915D01*
X79388364Y-73123841D01*
X79499841Y-73012364D01*
X79630915Y-72924784D01*
X79703739Y-72894619D01*
X79776561Y-72864455D01*
X79853869Y-72849077D01*
X79931176Y-72833700D01*
X80088824Y-72833700D01*
X80166131Y-72849077D01*
X80166131Y-72849077D01*
G37*
G36*
X175790232Y-68334761D02*
G01*
X175990367Y-68374570D01*
X176461899Y-68569885D01*
X176704629Y-68732073D01*
X176886266Y-68853438D01*
X177247162Y-69214334D01*
X177333278Y-69343216D01*
X177530715Y-69638701D01*
X177726030Y-70110233D01*
X177726030Y-70110234D01*
X177825600Y-70610807D01*
X177825600Y-71121193D01*
X177807373Y-71212824D01*
X177726030Y-71621767D01*
X177530715Y-72093299D01*
X177368527Y-72336029D01*
X177247162Y-72517666D01*
X176886266Y-72878562D01*
X176704629Y-72999927D01*
X176461899Y-73162115D01*
X175990367Y-73357430D01*
X175823508Y-73390620D01*
X175489793Y-73457000D01*
X174979407Y-73457000D01*
X174645692Y-73390620D01*
X174478833Y-73357430D01*
X174007301Y-73162115D01*
X173764571Y-72999927D01*
X173582934Y-72878562D01*
X173222038Y-72517666D01*
X173100673Y-72336029D01*
X172938485Y-72093299D01*
X172743170Y-71621767D01*
X172661827Y-71212824D01*
X172643600Y-71121193D01*
X172643600Y-70610807D01*
X172743170Y-70110234D01*
X172743170Y-70110233D01*
X172938485Y-69638701D01*
X173135922Y-69343216D01*
X173222038Y-69214334D01*
X173582934Y-68853438D01*
X173764571Y-68732073D01*
X174007301Y-68569885D01*
X174478833Y-68374570D01*
X174678968Y-68334761D01*
X174979407Y-68275000D01*
X175489793Y-68275000D01*
X175790232Y-68334761D01*
X175790232Y-68334761D01*
G37*
G36*
X80166131Y-70349077D02*
G01*
X80243439Y-70364455D01*
X80316261Y-70394619D01*
X80389085Y-70424784D01*
X80520159Y-70512364D01*
X80631636Y-70623841D01*
X80719216Y-70754915D01*
X80779545Y-70900562D01*
X80810300Y-71055176D01*
X80810300Y-71212824D01*
X80779545Y-71367438D01*
X80719216Y-71513085D01*
X80631636Y-71644159D01*
X80520159Y-71755636D01*
X80389085Y-71843216D01*
X80316262Y-71873380D01*
X80243439Y-71903545D01*
X80166131Y-71918923D01*
X80088824Y-71934300D01*
X79931176Y-71934300D01*
X79853869Y-71918923D01*
X79776561Y-71903545D01*
X79703738Y-71873380D01*
X79630915Y-71843216D01*
X79499841Y-71755636D01*
X79388364Y-71644159D01*
X79300784Y-71513085D01*
X79240455Y-71367438D01*
X79209700Y-71212824D01*
X79209700Y-71055176D01*
X79240455Y-70900562D01*
X79300784Y-70754915D01*
X79388364Y-70623841D01*
X79499841Y-70512364D01*
X79630915Y-70424784D01*
X79703739Y-70394619D01*
X79776561Y-70364455D01*
X79853869Y-70349077D01*
X79931176Y-70333700D01*
X80088824Y-70333700D01*
X80166131Y-70349077D01*
X80166131Y-70349077D01*
G37*
G36*
X140064903Y-67377075D02*
G01*
X140165236Y-67418634D01*
X140292571Y-67471378D01*
X140497466Y-67608285D01*
X140671715Y-67782534D01*
X140808622Y-67987429D01*
X140808623Y-67987431D01*
X140902925Y-68215097D01*
X140951000Y-68456786D01*
X140951000Y-68703214D01*
X140921118Y-68853439D01*
X140902925Y-68944903D01*
X140808622Y-69172571D01*
X140671715Y-69377466D01*
X140497466Y-69551715D01*
X140292571Y-69688622D01*
X140292570Y-69688623D01*
X140292569Y-69688623D01*
X140064903Y-69782925D01*
X139823214Y-69831000D01*
X139576786Y-69831000D01*
X139335097Y-69782925D01*
X139107431Y-69688623D01*
X139107430Y-69688623D01*
X139107429Y-69688622D01*
X138902534Y-69551715D01*
X138728285Y-69377466D01*
X138591378Y-69172571D01*
X138497075Y-68944903D01*
X138478882Y-68853439D01*
X138449000Y-68703214D01*
X138449000Y-68456786D01*
X138497075Y-68215097D01*
X138591377Y-67987431D01*
X138591378Y-67987429D01*
X138728285Y-67782534D01*
X138902534Y-67608285D01*
X139107429Y-67471378D01*
X139234765Y-67418634D01*
X139335097Y-67377075D01*
X139576786Y-67329000D01*
X139823214Y-67329000D01*
X140064903Y-67377075D01*
X140064903Y-67377075D01*
G37*
G36*
X124705239Y-67347101D02*
G01*
X124941053Y-67418634D01*
X125158381Y-67534799D01*
X125348871Y-67691129D01*
X125505201Y-67881619D01*
X125621366Y-68098947D01*
X125692899Y-68334761D01*
X125717053Y-68580000D01*
X125692899Y-68825239D01*
X125621366Y-69061053D01*
X125505201Y-69278381D01*
X125348871Y-69468871D01*
X125158381Y-69625201D01*
X124941053Y-69741366D01*
X124705239Y-69812899D01*
X124521457Y-69831000D01*
X124398543Y-69831000D01*
X124214761Y-69812899D01*
X123978947Y-69741366D01*
X123761619Y-69625201D01*
X123571129Y-69468871D01*
X123414799Y-69278381D01*
X123298634Y-69061053D01*
X123227101Y-68825239D01*
X123202947Y-68580000D01*
X123227101Y-68334761D01*
X123298634Y-68098947D01*
X123414799Y-67881619D01*
X123571129Y-67691129D01*
X123761619Y-67534799D01*
X123978947Y-67418634D01*
X124214761Y-67347101D01*
X124398543Y-67329000D01*
X124521457Y-67329000D01*
X124705239Y-67347101D01*
X124705239Y-67347101D01*
G37*
G36*
X80166131Y-67849078D02*
G01*
X80243439Y-67864455D01*
X80284876Y-67881619D01*
X80389085Y-67924784D01*
X80520159Y-68012364D01*
X80631636Y-68123841D01*
X80719216Y-68254915D01*
X80779545Y-68400562D01*
X80810300Y-68555176D01*
X80810300Y-68712824D01*
X80779545Y-68867438D01*
X80719216Y-69013085D01*
X80631636Y-69144159D01*
X80520159Y-69255636D01*
X80389085Y-69343216D01*
X80316261Y-69373381D01*
X80243439Y-69403545D01*
X80166131Y-69418923D01*
X80088824Y-69434300D01*
X79931176Y-69434300D01*
X79853869Y-69418923D01*
X79776561Y-69403545D01*
X79703739Y-69373381D01*
X79630915Y-69343216D01*
X79499841Y-69255636D01*
X79388364Y-69144159D01*
X79300784Y-69013085D01*
X79240455Y-68867438D01*
X79209700Y-68712824D01*
X79209700Y-68555176D01*
X79240455Y-68400562D01*
X79300784Y-68254915D01*
X79388364Y-68123841D01*
X79499841Y-68012364D01*
X79630915Y-67924784D01*
X79735124Y-67881619D01*
X79776561Y-67864455D01*
X79853869Y-67849078D01*
X79931176Y-67833700D01*
X80088824Y-67833700D01*
X80166131Y-67849078D01*
X80166131Y-67849078D01*
G37*
G36*
X80166131Y-65349078D02*
G01*
X80243439Y-65364455D01*
X80316262Y-65394620D01*
X80389085Y-65424784D01*
X80520159Y-65512364D01*
X80631636Y-65623841D01*
X80719216Y-65754915D01*
X80779545Y-65900562D01*
X80810300Y-66055176D01*
X80810300Y-66212824D01*
X80779545Y-66367438D01*
X80719216Y-66513085D01*
X80631636Y-66644159D01*
X80520159Y-66755636D01*
X80389085Y-66843216D01*
X80316262Y-66873380D01*
X80243439Y-66903545D01*
X80166131Y-66918923D01*
X80088824Y-66934300D01*
X79931176Y-66934300D01*
X79853869Y-66918923D01*
X79776561Y-66903545D01*
X79703738Y-66873380D01*
X79630915Y-66843216D01*
X79499841Y-66755636D01*
X79388364Y-66644159D01*
X79300784Y-66513085D01*
X79240455Y-66367438D01*
X79209700Y-66212824D01*
X79209700Y-66055176D01*
X79240455Y-65900562D01*
X79300784Y-65754915D01*
X79388364Y-65623841D01*
X79499841Y-65512364D01*
X79630915Y-65424784D01*
X79703738Y-65394620D01*
X79776561Y-65364455D01*
X79853869Y-65349078D01*
X79931176Y-65333700D01*
X80088824Y-65333700D01*
X80166131Y-65349078D01*
X80166131Y-65349078D01*
G37*
G36*
X77788123Y-61762890D02*
G01*
X77960090Y-61834121D01*
X78081689Y-61884489D01*
X78345891Y-62061023D01*
X78570577Y-62285709D01*
X78747111Y-62549911D01*
X78747111Y-62549912D01*
X78868710Y-62843477D01*
X78930700Y-63155122D01*
X78930700Y-63472878D01*
X78868710Y-63784523D01*
X78828472Y-63881666D01*
X78747111Y-64078089D01*
X78570577Y-64342291D01*
X78345891Y-64566977D01*
X78081689Y-64743511D01*
X77960090Y-64793879D01*
X77788123Y-64865110D01*
X77476478Y-64927100D01*
X77158722Y-64927100D01*
X76847077Y-64865110D01*
X76675110Y-64793879D01*
X76553511Y-64743511D01*
X76289309Y-64566977D01*
X76064623Y-64342291D01*
X75888089Y-64078089D01*
X75806728Y-63881666D01*
X75766490Y-63784523D01*
X75704500Y-63472878D01*
X75704500Y-63155122D01*
X75766490Y-62843477D01*
X75888089Y-62549912D01*
X75888089Y-62549911D01*
X76064623Y-62285709D01*
X76289309Y-62061023D01*
X76553511Y-61884489D01*
X76675110Y-61834121D01*
X76847077Y-61762890D01*
X77158722Y-61700900D01*
X77476478Y-61700900D01*
X77788123Y-61762890D01*
X77788123Y-61762890D01*
G37*
G36*
X173308908Y-59730780D02*
G01*
X173475767Y-59763970D01*
X173947299Y-59959285D01*
X174119207Y-60074151D01*
X174371666Y-60242838D01*
X174732562Y-60603734D01*
X174853927Y-60785371D01*
X175016115Y-61028101D01*
X175200909Y-61474233D01*
X175211430Y-61499634D01*
X175305948Y-61974807D01*
X175311000Y-62000209D01*
X175311000Y-62510591D01*
X175211430Y-63011167D01*
X175016115Y-63482699D01*
X174853927Y-63725429D01*
X174732562Y-63907066D01*
X174371666Y-64267962D01*
X174260424Y-64342291D01*
X173947299Y-64551515D01*
X173475767Y-64746830D01*
X173308908Y-64780020D01*
X172975193Y-64846400D01*
X172464807Y-64846400D01*
X172131092Y-64780020D01*
X171964233Y-64746830D01*
X171492701Y-64551515D01*
X171179576Y-64342291D01*
X171068334Y-64267962D01*
X170707438Y-63907066D01*
X170586073Y-63725429D01*
X170423885Y-63482699D01*
X170228570Y-63011167D01*
X170129000Y-62510591D01*
X170129000Y-62000209D01*
X170134053Y-61974807D01*
X170228570Y-61499634D01*
X170239091Y-61474233D01*
X170423885Y-61028101D01*
X170586073Y-60785371D01*
X170707438Y-60603734D01*
X171068334Y-60242838D01*
X171320793Y-60074151D01*
X171492701Y-59959285D01*
X171964233Y-59763970D01*
X172131092Y-59730780D01*
X172464807Y-59664400D01*
X172975193Y-59664400D01*
X173308908Y-59730780D01*
X173308908Y-59730780D01*
G37*
G36*
X114634908Y-59730780D02*
G01*
X114801767Y-59763970D01*
X115273299Y-59959285D01*
X115445207Y-60074151D01*
X115697666Y-60242838D01*
X116058562Y-60603734D01*
X116179927Y-60785371D01*
X116342115Y-61028101D01*
X116526909Y-61474233D01*
X116537430Y-61499634D01*
X116631948Y-61974807D01*
X116637000Y-62000209D01*
X116637000Y-62510591D01*
X116537430Y-63011167D01*
X116342115Y-63482699D01*
X116179927Y-63725429D01*
X116058562Y-63907066D01*
X115697666Y-64267962D01*
X115586424Y-64342291D01*
X115273299Y-64551515D01*
X114801767Y-64746830D01*
X114634908Y-64780020D01*
X114301193Y-64846400D01*
X113790807Y-64846400D01*
X113457092Y-64780020D01*
X113290233Y-64746830D01*
X112818701Y-64551515D01*
X112505576Y-64342291D01*
X112394334Y-64267962D01*
X112033438Y-63907066D01*
X111912073Y-63725429D01*
X111749885Y-63482699D01*
X111554570Y-63011167D01*
X111455000Y-62510591D01*
X111455000Y-62000209D01*
X111460053Y-61974807D01*
X111554570Y-61499634D01*
X111565091Y-61474233D01*
X111749885Y-61028101D01*
X111912073Y-60785371D01*
X112033438Y-60603734D01*
X112394334Y-60242838D01*
X112646793Y-60074151D01*
X112818701Y-59959285D01*
X113290233Y-59763970D01*
X113457092Y-59730780D01*
X113790807Y-59664400D01*
X114301193Y-59664400D01*
X114634908Y-59730780D01*
X114634908Y-59730780D01*
G37*
G36*
X122508908Y-59730780D02*
G01*
X122675767Y-59763970D01*
X123147299Y-59959285D01*
X123319207Y-60074151D01*
X123571666Y-60242838D01*
X123932562Y-60603734D01*
X124053927Y-60785371D01*
X124216115Y-61028101D01*
X124400909Y-61474233D01*
X124411430Y-61499634D01*
X124505948Y-61974807D01*
X124511000Y-62000209D01*
X124511000Y-62510591D01*
X124411430Y-63011167D01*
X124216115Y-63482699D01*
X124053927Y-63725429D01*
X123932562Y-63907066D01*
X123571666Y-64267962D01*
X123460424Y-64342291D01*
X123147299Y-64551515D01*
X122675767Y-64746830D01*
X122508908Y-64780020D01*
X122175193Y-64846400D01*
X121664807Y-64846400D01*
X121331092Y-64780020D01*
X121164233Y-64746830D01*
X120692701Y-64551515D01*
X120379576Y-64342291D01*
X120268334Y-64267962D01*
X119907438Y-63907066D01*
X119786073Y-63725429D01*
X119623885Y-63482699D01*
X119428570Y-63011167D01*
X119329000Y-62510591D01*
X119329000Y-62000209D01*
X119334053Y-61974807D01*
X119428570Y-61499634D01*
X119439091Y-61474233D01*
X119623885Y-61028101D01*
X119786073Y-60785371D01*
X119907438Y-60603734D01*
X120268334Y-60242838D01*
X120520793Y-60074151D01*
X120692701Y-59959285D01*
X121164233Y-59763970D01*
X121331092Y-59730780D01*
X121664807Y-59664400D01*
X122175193Y-59664400D01*
X122508908Y-59730780D01*
X122508908Y-59730780D01*
G37*
G36*
X165434908Y-59730780D02*
G01*
X165601767Y-59763970D01*
X166073299Y-59959285D01*
X166245207Y-60074151D01*
X166497666Y-60242838D01*
X166858562Y-60603734D01*
X166979927Y-60785371D01*
X167142115Y-61028101D01*
X167326909Y-61474233D01*
X167337430Y-61499634D01*
X167431948Y-61974807D01*
X167437000Y-62000209D01*
X167437000Y-62510591D01*
X167337430Y-63011167D01*
X167142115Y-63482699D01*
X166979927Y-63725429D01*
X166858562Y-63907066D01*
X166497666Y-64267962D01*
X166386424Y-64342291D01*
X166073299Y-64551515D01*
X165601767Y-64746830D01*
X165434908Y-64780020D01*
X165101193Y-64846400D01*
X164590807Y-64846400D01*
X164257092Y-64780020D01*
X164090233Y-64746830D01*
X163618701Y-64551515D01*
X163305576Y-64342291D01*
X163194334Y-64267962D01*
X162833438Y-63907066D01*
X162712073Y-63725429D01*
X162549885Y-63482699D01*
X162354570Y-63011167D01*
X162255000Y-62510591D01*
X162255000Y-62000209D01*
X162260053Y-61974807D01*
X162354570Y-61499634D01*
X162365091Y-61474233D01*
X162549885Y-61028101D01*
X162712073Y-60785371D01*
X162833438Y-60603734D01*
X163194334Y-60242838D01*
X163446793Y-60074151D01*
X163618701Y-59959285D01*
X164090233Y-59763970D01*
X164257092Y-59730780D01*
X164590807Y-59664400D01*
X165101193Y-59664400D01*
X165434908Y-59730780D01*
X165434908Y-59730780D01*
G37*
G36*
X189818908Y-59705380D02*
G01*
X189985767Y-59738570D01*
X190457299Y-59933885D01*
X190667221Y-60074151D01*
X190881666Y-60217438D01*
X191242562Y-60578334D01*
X191363927Y-60759971D01*
X191526115Y-61002701D01*
X191721430Y-61474233D01*
X191754620Y-61641092D01*
X191821000Y-61974807D01*
X191821000Y-62485193D01*
X191754620Y-62818908D01*
X191721430Y-62985767D01*
X191526115Y-63457299D01*
X191363927Y-63700029D01*
X191242562Y-63881666D01*
X190881666Y-64242562D01*
X190732410Y-64342291D01*
X190457299Y-64526115D01*
X189985767Y-64721430D01*
X189818908Y-64754620D01*
X189485193Y-64821000D01*
X188974807Y-64821000D01*
X188641092Y-64754620D01*
X188474233Y-64721430D01*
X188002701Y-64526115D01*
X187727590Y-64342291D01*
X187578334Y-64242562D01*
X187217438Y-63881666D01*
X187096073Y-63700029D01*
X186933885Y-63457299D01*
X186738570Y-62985767D01*
X186705380Y-62818908D01*
X186639000Y-62485193D01*
X186639000Y-61974807D01*
X186705380Y-61641092D01*
X186738570Y-61474233D01*
X186933885Y-61002701D01*
X187096073Y-60759971D01*
X187217438Y-60578334D01*
X187578334Y-60217438D01*
X187792779Y-60074151D01*
X188002701Y-59933885D01*
X188474233Y-59738570D01*
X188641092Y-59705380D01*
X188974807Y-59639000D01*
X189485193Y-59639000D01*
X189818908Y-59705380D01*
X189818908Y-59705380D01*
G37*
G36*
X181944908Y-59705380D02*
G01*
X182111767Y-59738570D01*
X182583299Y-59933885D01*
X182793221Y-60074151D01*
X183007666Y-60217438D01*
X183368562Y-60578334D01*
X183489927Y-60759971D01*
X183652115Y-61002701D01*
X183847430Y-61474233D01*
X183880620Y-61641092D01*
X183947000Y-61974807D01*
X183947000Y-62485193D01*
X183880620Y-62818908D01*
X183847430Y-62985767D01*
X183652115Y-63457299D01*
X183489927Y-63700029D01*
X183368562Y-63881666D01*
X183007666Y-64242562D01*
X182858410Y-64342291D01*
X182583299Y-64526115D01*
X182111767Y-64721430D01*
X181944908Y-64754620D01*
X181611193Y-64821000D01*
X181100807Y-64821000D01*
X180767092Y-64754620D01*
X180600233Y-64721430D01*
X180128701Y-64526115D01*
X179853590Y-64342291D01*
X179704334Y-64242562D01*
X179343438Y-63881666D01*
X179222073Y-63700029D01*
X179059885Y-63457299D01*
X178864570Y-62985767D01*
X178831380Y-62818908D01*
X178765000Y-62485193D01*
X178765000Y-61974807D01*
X178831380Y-61641092D01*
X178864570Y-61474233D01*
X179059885Y-61002701D01*
X179222073Y-60759971D01*
X179343438Y-60578334D01*
X179704334Y-60217438D01*
X179918779Y-60074151D01*
X180128701Y-59933885D01*
X180600233Y-59738570D01*
X180767092Y-59705380D01*
X181100807Y-59639000D01*
X181611193Y-59639000D01*
X181944908Y-59705380D01*
X181944908Y-59705380D01*
G37*
G36*
X75166560Y-58910166D02*
G01*
X75314153Y-58971301D01*
X75446982Y-59060055D01*
X75559945Y-59173018D01*
X75648699Y-59305847D01*
X75709834Y-59453440D01*
X75741000Y-59610123D01*
X75741000Y-59769877D01*
X75709834Y-59926560D01*
X75648699Y-60074153D01*
X75559945Y-60206982D01*
X75446982Y-60319945D01*
X75314153Y-60408699D01*
X75314152Y-60408700D01*
X75314151Y-60408700D01*
X75166560Y-60469834D01*
X75009878Y-60501000D01*
X74850122Y-60501000D01*
X74693440Y-60469834D01*
X74545849Y-60408700D01*
X74545848Y-60408700D01*
X74545847Y-60408699D01*
X74413018Y-60319945D01*
X74300055Y-60206982D01*
X74211301Y-60074153D01*
X74150166Y-59926560D01*
X74119000Y-59769877D01*
X74119000Y-59610123D01*
X74150166Y-59453440D01*
X74211301Y-59305847D01*
X74300055Y-59173018D01*
X74413018Y-59060055D01*
X74545847Y-58971301D01*
X74693440Y-58910166D01*
X74850122Y-58879000D01*
X75009878Y-58879000D01*
X75166560Y-58910166D01*
X75166560Y-58910166D01*
G37*
G36*
X82786560Y-58910166D02*
G01*
X82934153Y-58971301D01*
X83066982Y-59060055D01*
X83179945Y-59173018D01*
X83268699Y-59305847D01*
X83329834Y-59453440D01*
X83361000Y-59610123D01*
X83361000Y-59769877D01*
X83329834Y-59926560D01*
X83268699Y-60074153D01*
X83179945Y-60206982D01*
X83066982Y-60319945D01*
X82934153Y-60408699D01*
X82934152Y-60408700D01*
X82934151Y-60408700D01*
X82786560Y-60469834D01*
X82629878Y-60501000D01*
X82470122Y-60501000D01*
X82313440Y-60469834D01*
X82165849Y-60408700D01*
X82165848Y-60408700D01*
X82165847Y-60408699D01*
X82033018Y-60319945D01*
X81920055Y-60206982D01*
X81831301Y-60074153D01*
X81770166Y-59926560D01*
X81739000Y-59769877D01*
X81739000Y-59610123D01*
X81770166Y-59453440D01*
X81831301Y-59305847D01*
X81920055Y-59173018D01*
X82033018Y-59060055D01*
X82165847Y-58971301D01*
X82313440Y-58910166D01*
X82470122Y-58879000D01*
X82629878Y-58879000D01*
X82786560Y-58910166D01*
X82786560Y-58910166D01*
G37*
G36*
X85326560Y-58910166D02*
G01*
X85474153Y-58971301D01*
X85606982Y-59060055D01*
X85719945Y-59173018D01*
X85808699Y-59305847D01*
X85869834Y-59453440D01*
X85901000Y-59610123D01*
X85901000Y-59769877D01*
X85869834Y-59926560D01*
X85808699Y-60074153D01*
X85719945Y-60206982D01*
X85606982Y-60319945D01*
X85474153Y-60408699D01*
X85474152Y-60408700D01*
X85474151Y-60408700D01*
X85326560Y-60469834D01*
X85169878Y-60501000D01*
X85010122Y-60501000D01*
X84853440Y-60469834D01*
X84705849Y-60408700D01*
X84705848Y-60408700D01*
X84705847Y-60408699D01*
X84573018Y-60319945D01*
X84460055Y-60206982D01*
X84371301Y-60074153D01*
X84310166Y-59926560D01*
X84279000Y-59769877D01*
X84279000Y-59610123D01*
X84310166Y-59453440D01*
X84371301Y-59305847D01*
X84460055Y-59173018D01*
X84573018Y-59060055D01*
X84705847Y-58971301D01*
X84853440Y-58910166D01*
X85010122Y-58879000D01*
X85169878Y-58879000D01*
X85326560Y-58910166D01*
X85326560Y-58910166D01*
G37*
G36*
X87866560Y-58910166D02*
G01*
X88014153Y-58971301D01*
X88146982Y-59060055D01*
X88259945Y-59173018D01*
X88348699Y-59305847D01*
X88409834Y-59453440D01*
X88441000Y-59610123D01*
X88441000Y-59769877D01*
X88409834Y-59926560D01*
X88348699Y-60074153D01*
X88259945Y-60206982D01*
X88146982Y-60319945D01*
X88014153Y-60408699D01*
X88014152Y-60408700D01*
X88014151Y-60408700D01*
X87866560Y-60469834D01*
X87709878Y-60501000D01*
X87550122Y-60501000D01*
X87393440Y-60469834D01*
X87245849Y-60408700D01*
X87245848Y-60408700D01*
X87245847Y-60408699D01*
X87113018Y-60319945D01*
X87000055Y-60206982D01*
X86911301Y-60074153D01*
X86850166Y-59926560D01*
X86819000Y-59769877D01*
X86819000Y-59610123D01*
X86850166Y-59453440D01*
X86911301Y-59305847D01*
X87000055Y-59173018D01*
X87113018Y-59060055D01*
X87245847Y-58971301D01*
X87393440Y-58910166D01*
X87550122Y-58879000D01*
X87709878Y-58879000D01*
X87866560Y-58910166D01*
X87866560Y-58910166D01*
G37*
G36*
X72626560Y-58910166D02*
G01*
X72774153Y-58971301D01*
X72906982Y-59060055D01*
X73019945Y-59173018D01*
X73108699Y-59305847D01*
X73169834Y-59453440D01*
X73201000Y-59610123D01*
X73201000Y-59769877D01*
X73169834Y-59926560D01*
X73108699Y-60074153D01*
X73019945Y-60206982D01*
X72906982Y-60319945D01*
X72774153Y-60408699D01*
X72774152Y-60408700D01*
X72774151Y-60408700D01*
X72626560Y-60469834D01*
X72469878Y-60501000D01*
X72310122Y-60501000D01*
X72153440Y-60469834D01*
X72005849Y-60408700D01*
X72005848Y-60408700D01*
X72005847Y-60408699D01*
X71873018Y-60319945D01*
X71760055Y-60206982D01*
X71671301Y-60074153D01*
X71610166Y-59926560D01*
X71579000Y-59769877D01*
X71579000Y-59610123D01*
X71610166Y-59453440D01*
X71671301Y-59305847D01*
X71760055Y-59173018D01*
X71873018Y-59060055D01*
X72005847Y-58971301D01*
X72153440Y-58910166D01*
X72310122Y-58879000D01*
X72469878Y-58879000D01*
X72626560Y-58910166D01*
X72626560Y-58910166D01*
G37*
G36*
X70086560Y-58910166D02*
G01*
X70234153Y-58971301D01*
X70366982Y-59060055D01*
X70479945Y-59173018D01*
X70568699Y-59305847D01*
X70629834Y-59453440D01*
X70661000Y-59610123D01*
X70661000Y-59769877D01*
X70629834Y-59926560D01*
X70568699Y-60074153D01*
X70479945Y-60206982D01*
X70366982Y-60319945D01*
X70234153Y-60408699D01*
X70234152Y-60408700D01*
X70234151Y-60408700D01*
X70086560Y-60469834D01*
X69929878Y-60501000D01*
X69770122Y-60501000D01*
X69613440Y-60469834D01*
X69465849Y-60408700D01*
X69465848Y-60408700D01*
X69465847Y-60408699D01*
X69333018Y-60319945D01*
X69220055Y-60206982D01*
X69131301Y-60074153D01*
X69070166Y-59926560D01*
X69039000Y-59769877D01*
X69039000Y-59610123D01*
X69070166Y-59453440D01*
X69131301Y-59305847D01*
X69220055Y-59173018D01*
X69333018Y-59060055D01*
X69465847Y-58971301D01*
X69613440Y-58910166D01*
X69770122Y-58879000D01*
X69929878Y-58879000D01*
X70086560Y-58910166D01*
X70086560Y-58910166D01*
G37*
G36*
X90406560Y-58910166D02*
G01*
X90554153Y-58971301D01*
X90686982Y-59060055D01*
X90799945Y-59173018D01*
X90888699Y-59305847D01*
X90949834Y-59453440D01*
X90981000Y-59610123D01*
X90981000Y-59769877D01*
X90949834Y-59926560D01*
X90888699Y-60074153D01*
X90799945Y-60206982D01*
X90686982Y-60319945D01*
X90554153Y-60408699D01*
X90554152Y-60408700D01*
X90554151Y-60408700D01*
X90406560Y-60469834D01*
X90249878Y-60501000D01*
X90090122Y-60501000D01*
X89933440Y-60469834D01*
X89785849Y-60408700D01*
X89785848Y-60408700D01*
X89785847Y-60408699D01*
X89653018Y-60319945D01*
X89540055Y-60206982D01*
X89451301Y-60074153D01*
X89390166Y-59926560D01*
X89359000Y-59769877D01*
X89359000Y-59610123D01*
X89390166Y-59453440D01*
X89451301Y-59305847D01*
X89540055Y-59173018D01*
X89653018Y-59060055D01*
X89785847Y-58971301D01*
X89933440Y-58910166D01*
X90090122Y-58879000D01*
X90249878Y-58879000D01*
X90406560Y-58910166D01*
X90406560Y-58910166D01*
G37*
G36*
X92946560Y-58910166D02*
G01*
X93094153Y-58971301D01*
X93226982Y-59060055D01*
X93339945Y-59173018D01*
X93428699Y-59305847D01*
X93489834Y-59453440D01*
X93521000Y-59610123D01*
X93521000Y-59769877D01*
X93489834Y-59926560D01*
X93428699Y-60074153D01*
X93339945Y-60206982D01*
X93226982Y-60319945D01*
X93094153Y-60408699D01*
X93094152Y-60408700D01*
X93094151Y-60408700D01*
X92946560Y-60469834D01*
X92789878Y-60501000D01*
X92630122Y-60501000D01*
X92473440Y-60469834D01*
X92325849Y-60408700D01*
X92325848Y-60408700D01*
X92325847Y-60408699D01*
X92193018Y-60319945D01*
X92080055Y-60206982D01*
X91991301Y-60074153D01*
X91930166Y-59926560D01*
X91899000Y-59769877D01*
X91899000Y-59610123D01*
X91930166Y-59453440D01*
X91991301Y-59305847D01*
X92080055Y-59173018D01*
X92193018Y-59060055D01*
X92325847Y-58971301D01*
X92473440Y-58910166D01*
X92630122Y-58879000D01*
X92789878Y-58879000D01*
X92946560Y-58910166D01*
X92946560Y-58910166D01*
G37*
G36*
X77706560Y-58910166D02*
G01*
X77854153Y-58971301D01*
X77986982Y-59060055D01*
X78099945Y-59173018D01*
X78188699Y-59305847D01*
X78249834Y-59453440D01*
X78281000Y-59610123D01*
X78281000Y-59769877D01*
X78249834Y-59926560D01*
X78188699Y-60074153D01*
X78099945Y-60206982D01*
X77986982Y-60319945D01*
X77854153Y-60408699D01*
X77854152Y-60408700D01*
X77854151Y-60408700D01*
X77706560Y-60469834D01*
X77549878Y-60501000D01*
X77390122Y-60501000D01*
X77233440Y-60469834D01*
X77085849Y-60408700D01*
X77085848Y-60408700D01*
X77085847Y-60408699D01*
X76953018Y-60319945D01*
X76840055Y-60206982D01*
X76751301Y-60074153D01*
X76690166Y-59926560D01*
X76659000Y-59769877D01*
X76659000Y-59610123D01*
X76690166Y-59453440D01*
X76751301Y-59305847D01*
X76840055Y-59173018D01*
X76953018Y-59060055D01*
X77085847Y-58971301D01*
X77233440Y-58910166D01*
X77390122Y-58879000D01*
X77549878Y-58879000D01*
X77706560Y-58910166D01*
X77706560Y-58910166D01*
G37*
G36*
X133586560Y-58910166D02*
G01*
X133734153Y-58971301D01*
X133866982Y-59060055D01*
X133979945Y-59173018D01*
X134068699Y-59305847D01*
X134129834Y-59453440D01*
X134161000Y-59610123D01*
X134161000Y-59769877D01*
X134129834Y-59926560D01*
X134068699Y-60074153D01*
X133979945Y-60206982D01*
X133866982Y-60319945D01*
X133734153Y-60408699D01*
X133734152Y-60408700D01*
X133734151Y-60408700D01*
X133586560Y-60469834D01*
X133429878Y-60501000D01*
X133270122Y-60501000D01*
X133113440Y-60469834D01*
X132965849Y-60408700D01*
X132965848Y-60408700D01*
X132965847Y-60408699D01*
X132833018Y-60319945D01*
X132720055Y-60206982D01*
X132631301Y-60074153D01*
X132570166Y-59926560D01*
X132539000Y-59769877D01*
X132539000Y-59610123D01*
X132570166Y-59453440D01*
X132631301Y-59305847D01*
X132720055Y-59173018D01*
X132833018Y-59060055D01*
X132965847Y-58971301D01*
X133113440Y-58910166D01*
X133270122Y-58879000D01*
X133429878Y-58879000D01*
X133586560Y-58910166D01*
X133586560Y-58910166D01*
G37*
G36*
X138666560Y-58910166D02*
G01*
X138814153Y-58971301D01*
X138946982Y-59060055D01*
X139059945Y-59173018D01*
X139148699Y-59305847D01*
X139209834Y-59453440D01*
X139241000Y-59610123D01*
X139241000Y-59769877D01*
X139209834Y-59926560D01*
X139148699Y-60074153D01*
X139059945Y-60206982D01*
X138946982Y-60319945D01*
X138814153Y-60408699D01*
X138814152Y-60408700D01*
X138814151Y-60408700D01*
X138666560Y-60469834D01*
X138509878Y-60501000D01*
X138350122Y-60501000D01*
X138193440Y-60469834D01*
X138045849Y-60408700D01*
X138045848Y-60408700D01*
X138045847Y-60408699D01*
X137913018Y-60319945D01*
X137800055Y-60206982D01*
X137711301Y-60074153D01*
X137650166Y-59926560D01*
X137619000Y-59769877D01*
X137619000Y-59610123D01*
X137650166Y-59453440D01*
X137711301Y-59305847D01*
X137800055Y-59173018D01*
X137913018Y-59060055D01*
X138045847Y-58971301D01*
X138193440Y-58910166D01*
X138350122Y-58879000D01*
X138509878Y-58879000D01*
X138666560Y-58910166D01*
X138666560Y-58910166D01*
G37*
G36*
X136126560Y-58910166D02*
G01*
X136274153Y-58971301D01*
X136406982Y-59060055D01*
X136519945Y-59173018D01*
X136608699Y-59305847D01*
X136669834Y-59453440D01*
X136701000Y-59610123D01*
X136701000Y-59769877D01*
X136669834Y-59926560D01*
X136608699Y-60074153D01*
X136519945Y-60206982D01*
X136406982Y-60319945D01*
X136274153Y-60408699D01*
X136274152Y-60408700D01*
X136274151Y-60408700D01*
X136126560Y-60469834D01*
X135969878Y-60501000D01*
X135810122Y-60501000D01*
X135653440Y-60469834D01*
X135505849Y-60408700D01*
X135505848Y-60408700D01*
X135505847Y-60408699D01*
X135373018Y-60319945D01*
X135260055Y-60206982D01*
X135171301Y-60074153D01*
X135110166Y-59926560D01*
X135079000Y-59769877D01*
X135079000Y-59610123D01*
X135110166Y-59453440D01*
X135171301Y-59305847D01*
X135260055Y-59173018D01*
X135373018Y-59060055D01*
X135505847Y-58971301D01*
X135653440Y-58910166D01*
X135810122Y-58879000D01*
X135969878Y-58879000D01*
X136126560Y-58910166D01*
X136126560Y-58910166D01*
G37*
G36*
X80246560Y-58910166D02*
G01*
X80394153Y-58971301D01*
X80526982Y-59060055D01*
X80639945Y-59173018D01*
X80728699Y-59305847D01*
X80789834Y-59453440D01*
X80821000Y-59610123D01*
X80821000Y-59769877D01*
X80789834Y-59926560D01*
X80728699Y-60074153D01*
X80639945Y-60206982D01*
X80526982Y-60319945D01*
X80394153Y-60408699D01*
X80394152Y-60408700D01*
X80394151Y-60408700D01*
X80246560Y-60469834D01*
X80089878Y-60501000D01*
X79930122Y-60501000D01*
X79773440Y-60469834D01*
X79625849Y-60408700D01*
X79625848Y-60408700D01*
X79625847Y-60408699D01*
X79493018Y-60319945D01*
X79380055Y-60206982D01*
X79291301Y-60074153D01*
X79230166Y-59926560D01*
X79199000Y-59769877D01*
X79199000Y-59610123D01*
X79230166Y-59453440D01*
X79291301Y-59305847D01*
X79380055Y-59173018D01*
X79493018Y-59060055D01*
X79625847Y-58971301D01*
X79773440Y-58910166D01*
X79930122Y-58879000D01*
X80089878Y-58879000D01*
X80246560Y-58910166D01*
X80246560Y-58910166D01*
G37*
G36*
X156446560Y-58910166D02*
G01*
X156594153Y-58971301D01*
X156726982Y-59060055D01*
X156839945Y-59173018D01*
X156928699Y-59305847D01*
X156989834Y-59453440D01*
X157021000Y-59610123D01*
X157021000Y-59769877D01*
X156989834Y-59926560D01*
X156928699Y-60074153D01*
X156839945Y-60206982D01*
X156726982Y-60319945D01*
X156594153Y-60408699D01*
X156594152Y-60408700D01*
X156594151Y-60408700D01*
X156446560Y-60469834D01*
X156289878Y-60501000D01*
X156130122Y-60501000D01*
X155973440Y-60469834D01*
X155825849Y-60408700D01*
X155825848Y-60408700D01*
X155825847Y-60408699D01*
X155693018Y-60319945D01*
X155580055Y-60206982D01*
X155491301Y-60074153D01*
X155430166Y-59926560D01*
X155399000Y-59769877D01*
X155399000Y-59610123D01*
X155430166Y-59453440D01*
X155491301Y-59305847D01*
X155580055Y-59173018D01*
X155693018Y-59060055D01*
X155825847Y-58971301D01*
X155973440Y-58910166D01*
X156130122Y-58879000D01*
X156289878Y-58879000D01*
X156446560Y-58910166D01*
X156446560Y-58910166D01*
G37*
G36*
X153906560Y-58910166D02*
G01*
X154054153Y-58971301D01*
X154186982Y-59060055D01*
X154299945Y-59173018D01*
X154388699Y-59305847D01*
X154449834Y-59453440D01*
X154481000Y-59610123D01*
X154481000Y-59769877D01*
X154449834Y-59926560D01*
X154388699Y-60074153D01*
X154299945Y-60206982D01*
X154186982Y-60319945D01*
X154054153Y-60408699D01*
X154054152Y-60408700D01*
X154054151Y-60408700D01*
X153906560Y-60469834D01*
X153749878Y-60501000D01*
X153590122Y-60501000D01*
X153433440Y-60469834D01*
X153285849Y-60408700D01*
X153285848Y-60408700D01*
X153285847Y-60408699D01*
X153153018Y-60319945D01*
X153040055Y-60206982D01*
X152951301Y-60074153D01*
X152890166Y-59926560D01*
X152859000Y-59769877D01*
X152859000Y-59610123D01*
X152890166Y-59453440D01*
X152951301Y-59305847D01*
X153040055Y-59173018D01*
X153153018Y-59060055D01*
X153285847Y-58971301D01*
X153433440Y-58910166D01*
X153590122Y-58879000D01*
X153749878Y-58879000D01*
X153906560Y-58910166D01*
X153906560Y-58910166D01*
G37*
G36*
X151366560Y-58910166D02*
G01*
X151514153Y-58971301D01*
X151646982Y-59060055D01*
X151759945Y-59173018D01*
X151848699Y-59305847D01*
X151909834Y-59453440D01*
X151941000Y-59610123D01*
X151941000Y-59769877D01*
X151909834Y-59926560D01*
X151848699Y-60074153D01*
X151759945Y-60206982D01*
X151646982Y-60319945D01*
X151514153Y-60408699D01*
X151514152Y-60408700D01*
X151514151Y-60408700D01*
X151366560Y-60469834D01*
X151209878Y-60501000D01*
X151050122Y-60501000D01*
X150893440Y-60469834D01*
X150745849Y-60408700D01*
X150745848Y-60408700D01*
X150745847Y-60408699D01*
X150613018Y-60319945D01*
X150500055Y-60206982D01*
X150411301Y-60074153D01*
X150350166Y-59926560D01*
X150319000Y-59769877D01*
X150319000Y-59610123D01*
X150350166Y-59453440D01*
X150411301Y-59305847D01*
X150500055Y-59173018D01*
X150613018Y-59060055D01*
X150745847Y-58971301D01*
X150893440Y-58910166D01*
X151050122Y-58879000D01*
X151209878Y-58879000D01*
X151366560Y-58910166D01*
X151366560Y-58910166D01*
G37*
G36*
X148826560Y-58910166D02*
G01*
X148974153Y-58971301D01*
X149106982Y-59060055D01*
X149219945Y-59173018D01*
X149308699Y-59305847D01*
X149369834Y-59453440D01*
X149401000Y-59610123D01*
X149401000Y-59769877D01*
X149369834Y-59926560D01*
X149308699Y-60074153D01*
X149219945Y-60206982D01*
X149106982Y-60319945D01*
X148974153Y-60408699D01*
X148974152Y-60408700D01*
X148974151Y-60408700D01*
X148826560Y-60469834D01*
X148669878Y-60501000D01*
X148510122Y-60501000D01*
X148353440Y-60469834D01*
X148205849Y-60408700D01*
X148205848Y-60408700D01*
X148205847Y-60408699D01*
X148073018Y-60319945D01*
X147960055Y-60206982D01*
X147871301Y-60074153D01*
X147810166Y-59926560D01*
X147779000Y-59769877D01*
X147779000Y-59610123D01*
X147810166Y-59453440D01*
X147871301Y-59305847D01*
X147960055Y-59173018D01*
X148073018Y-59060055D01*
X148205847Y-58971301D01*
X148353440Y-58910166D01*
X148510122Y-58879000D01*
X148669878Y-58879000D01*
X148826560Y-58910166D01*
X148826560Y-58910166D01*
G37*
G36*
X146286560Y-58910166D02*
G01*
X146434153Y-58971301D01*
X146566982Y-59060055D01*
X146679945Y-59173018D01*
X146768699Y-59305847D01*
X146829834Y-59453440D01*
X146861000Y-59610123D01*
X146861000Y-59769877D01*
X146829834Y-59926560D01*
X146768699Y-60074153D01*
X146679945Y-60206982D01*
X146566982Y-60319945D01*
X146434153Y-60408699D01*
X146434152Y-60408700D01*
X146434151Y-60408700D01*
X146286560Y-60469834D01*
X146129878Y-60501000D01*
X145970122Y-60501000D01*
X145813440Y-60469834D01*
X145665849Y-60408700D01*
X145665848Y-60408700D01*
X145665847Y-60408699D01*
X145533018Y-60319945D01*
X145420055Y-60206982D01*
X145331301Y-60074153D01*
X145270166Y-59926560D01*
X145239000Y-59769877D01*
X145239000Y-59610123D01*
X145270166Y-59453440D01*
X145331301Y-59305847D01*
X145420055Y-59173018D01*
X145533018Y-59060055D01*
X145665847Y-58971301D01*
X145813440Y-58910166D01*
X145970122Y-58879000D01*
X146129878Y-58879000D01*
X146286560Y-58910166D01*
X146286560Y-58910166D01*
G37*
G36*
X143746560Y-58910166D02*
G01*
X143894153Y-58971301D01*
X144026982Y-59060055D01*
X144139945Y-59173018D01*
X144228699Y-59305847D01*
X144289834Y-59453440D01*
X144321000Y-59610123D01*
X144321000Y-59769877D01*
X144289834Y-59926560D01*
X144228699Y-60074153D01*
X144139945Y-60206982D01*
X144026982Y-60319945D01*
X143894153Y-60408699D01*
X143894152Y-60408700D01*
X143894151Y-60408700D01*
X143746560Y-60469834D01*
X143589878Y-60501000D01*
X143430122Y-60501000D01*
X143273440Y-60469834D01*
X143125849Y-60408700D01*
X143125848Y-60408700D01*
X143125847Y-60408699D01*
X142993018Y-60319945D01*
X142880055Y-60206982D01*
X142791301Y-60074153D01*
X142730166Y-59926560D01*
X142699000Y-59769877D01*
X142699000Y-59610123D01*
X142730166Y-59453440D01*
X142791301Y-59305847D01*
X142880055Y-59173018D01*
X142993018Y-59060055D01*
X143125847Y-58971301D01*
X143273440Y-58910166D01*
X143430122Y-58879000D01*
X143589878Y-58879000D01*
X143746560Y-58910166D01*
X143746560Y-58910166D01*
G37*
G36*
X141206560Y-58910166D02*
G01*
X141354153Y-58971301D01*
X141486982Y-59060055D01*
X141599945Y-59173018D01*
X141688699Y-59305847D01*
X141749834Y-59453440D01*
X141781000Y-59610123D01*
X141781000Y-59769877D01*
X141749834Y-59926560D01*
X141688699Y-60074153D01*
X141599945Y-60206982D01*
X141486982Y-60319945D01*
X141354153Y-60408699D01*
X141354152Y-60408700D01*
X141354151Y-60408700D01*
X141206560Y-60469834D01*
X141049878Y-60501000D01*
X140890122Y-60501000D01*
X140733440Y-60469834D01*
X140585849Y-60408700D01*
X140585848Y-60408700D01*
X140585847Y-60408699D01*
X140453018Y-60319945D01*
X140340055Y-60206982D01*
X140251301Y-60074153D01*
X140190166Y-59926560D01*
X140159000Y-59769877D01*
X140159000Y-59610123D01*
X140190166Y-59453440D01*
X140251301Y-59305847D01*
X140340055Y-59173018D01*
X140453018Y-59060055D01*
X140585847Y-58971301D01*
X140733440Y-58910166D01*
X140890122Y-58879000D01*
X141049878Y-58879000D01*
X141206560Y-58910166D01*
X141206560Y-58910166D01*
G37*
G36*
X75166560Y-56370166D02*
G01*
X75314153Y-56431301D01*
X75446982Y-56520055D01*
X75559945Y-56633018D01*
X75648699Y-56765847D01*
X75709834Y-56913440D01*
X75741000Y-57070123D01*
X75741000Y-57229877D01*
X75709834Y-57386560D01*
X75648699Y-57534153D01*
X75559945Y-57666982D01*
X75446982Y-57779945D01*
X75314153Y-57868699D01*
X75314152Y-57868700D01*
X75314151Y-57868700D01*
X75166560Y-57929834D01*
X75009878Y-57961000D01*
X74850122Y-57961000D01*
X74693440Y-57929834D01*
X74545849Y-57868700D01*
X74545848Y-57868700D01*
X74545847Y-57868699D01*
X74413018Y-57779945D01*
X74300055Y-57666982D01*
X74211301Y-57534153D01*
X74150166Y-57386560D01*
X74119000Y-57229877D01*
X74119000Y-57070123D01*
X74150166Y-56913440D01*
X74211301Y-56765847D01*
X74300055Y-56633018D01*
X74413018Y-56520055D01*
X74545847Y-56431301D01*
X74693440Y-56370166D01*
X74850122Y-56339000D01*
X75009878Y-56339000D01*
X75166560Y-56370166D01*
X75166560Y-56370166D01*
G37*
G36*
X70086560Y-56370166D02*
G01*
X70234153Y-56431301D01*
X70366982Y-56520055D01*
X70479945Y-56633018D01*
X70568699Y-56765847D01*
X70629834Y-56913440D01*
X70661000Y-57070123D01*
X70661000Y-57229877D01*
X70629834Y-57386560D01*
X70568699Y-57534153D01*
X70479945Y-57666982D01*
X70366982Y-57779945D01*
X70234153Y-57868699D01*
X70234152Y-57868700D01*
X70234151Y-57868700D01*
X70086560Y-57929834D01*
X69929878Y-57961000D01*
X69770122Y-57961000D01*
X69613440Y-57929834D01*
X69465849Y-57868700D01*
X69465848Y-57868700D01*
X69465847Y-57868699D01*
X69333018Y-57779945D01*
X69220055Y-57666982D01*
X69131301Y-57534153D01*
X69070166Y-57386560D01*
X69039000Y-57229877D01*
X69039000Y-57070123D01*
X69070166Y-56913440D01*
X69131301Y-56765847D01*
X69220055Y-56633018D01*
X69333018Y-56520055D01*
X69465847Y-56431301D01*
X69613440Y-56370166D01*
X69770122Y-56339000D01*
X69929878Y-56339000D01*
X70086560Y-56370166D01*
X70086560Y-56370166D01*
G37*
G36*
X72626560Y-56370166D02*
G01*
X72774153Y-56431301D01*
X72906982Y-56520055D01*
X73019945Y-56633018D01*
X73108699Y-56765847D01*
X73169834Y-56913440D01*
X73201000Y-57070123D01*
X73201000Y-57229877D01*
X73169834Y-57386560D01*
X73108699Y-57534153D01*
X73019945Y-57666982D01*
X72906982Y-57779945D01*
X72774153Y-57868699D01*
X72774152Y-57868700D01*
X72774151Y-57868700D01*
X72626560Y-57929834D01*
X72469878Y-57961000D01*
X72310122Y-57961000D01*
X72153440Y-57929834D01*
X72005849Y-57868700D01*
X72005848Y-57868700D01*
X72005847Y-57868699D01*
X71873018Y-57779945D01*
X71760055Y-57666982D01*
X71671301Y-57534153D01*
X71610166Y-57386560D01*
X71579000Y-57229877D01*
X71579000Y-57070123D01*
X71610166Y-56913440D01*
X71671301Y-56765847D01*
X71760055Y-56633018D01*
X71873018Y-56520055D01*
X72005847Y-56431301D01*
X72153440Y-56370166D01*
X72310122Y-56339000D01*
X72469878Y-56339000D01*
X72626560Y-56370166D01*
X72626560Y-56370166D01*
G37*
G36*
X156446560Y-56370166D02*
G01*
X156594153Y-56431301D01*
X156726982Y-56520055D01*
X156839945Y-56633018D01*
X156928699Y-56765847D01*
X156989834Y-56913440D01*
X157021000Y-57070123D01*
X157021000Y-57229877D01*
X156989834Y-57386560D01*
X156928699Y-57534153D01*
X156839945Y-57666982D01*
X156726982Y-57779945D01*
X156594153Y-57868699D01*
X156594152Y-57868700D01*
X156594151Y-57868700D01*
X156446560Y-57929834D01*
X156289878Y-57961000D01*
X156130122Y-57961000D01*
X155973440Y-57929834D01*
X155825849Y-57868700D01*
X155825848Y-57868700D01*
X155825847Y-57868699D01*
X155693018Y-57779945D01*
X155580055Y-57666982D01*
X155491301Y-57534153D01*
X155430166Y-57386560D01*
X155399000Y-57229877D01*
X155399000Y-57070123D01*
X155430166Y-56913440D01*
X155491301Y-56765847D01*
X155580055Y-56633018D01*
X155693018Y-56520055D01*
X155825847Y-56431301D01*
X155973440Y-56370166D01*
X156130122Y-56339000D01*
X156289878Y-56339000D01*
X156446560Y-56370166D01*
X156446560Y-56370166D01*
G37*
G36*
X153906560Y-56370166D02*
G01*
X154054153Y-56431301D01*
X154186982Y-56520055D01*
X154299945Y-56633018D01*
X154388699Y-56765847D01*
X154449834Y-56913440D01*
X154481000Y-57070123D01*
X154481000Y-57229877D01*
X154449834Y-57386560D01*
X154388699Y-57534153D01*
X154299945Y-57666982D01*
X154186982Y-57779945D01*
X154054153Y-57868699D01*
X154054152Y-57868700D01*
X154054151Y-57868700D01*
X153906560Y-57929834D01*
X153749878Y-57961000D01*
X153590122Y-57961000D01*
X153433440Y-57929834D01*
X153285849Y-57868700D01*
X153285848Y-57868700D01*
X153285847Y-57868699D01*
X153153018Y-57779945D01*
X153040055Y-57666982D01*
X152951301Y-57534153D01*
X152890166Y-57386560D01*
X152859000Y-57229877D01*
X152859000Y-57070123D01*
X152890166Y-56913440D01*
X152951301Y-56765847D01*
X153040055Y-56633018D01*
X153153018Y-56520055D01*
X153285847Y-56431301D01*
X153433440Y-56370166D01*
X153590122Y-56339000D01*
X153749878Y-56339000D01*
X153906560Y-56370166D01*
X153906560Y-56370166D01*
G37*
G36*
X151366560Y-56370166D02*
G01*
X151514153Y-56431301D01*
X151646982Y-56520055D01*
X151759945Y-56633018D01*
X151848699Y-56765847D01*
X151909834Y-56913440D01*
X151941000Y-57070123D01*
X151941000Y-57229877D01*
X151909834Y-57386560D01*
X151848699Y-57534153D01*
X151759945Y-57666982D01*
X151646982Y-57779945D01*
X151514153Y-57868699D01*
X151514152Y-57868700D01*
X151514151Y-57868700D01*
X151366560Y-57929834D01*
X151209878Y-57961000D01*
X151050122Y-57961000D01*
X150893440Y-57929834D01*
X150745849Y-57868700D01*
X150745848Y-57868700D01*
X150745847Y-57868699D01*
X150613018Y-57779945D01*
X150500055Y-57666982D01*
X150411301Y-57534153D01*
X150350166Y-57386560D01*
X150319000Y-57229877D01*
X150319000Y-57070123D01*
X150350166Y-56913440D01*
X150411301Y-56765847D01*
X150500055Y-56633018D01*
X150613018Y-56520055D01*
X150745847Y-56431301D01*
X150893440Y-56370166D01*
X151050122Y-56339000D01*
X151209878Y-56339000D01*
X151366560Y-56370166D01*
X151366560Y-56370166D01*
G37*
G36*
X148826560Y-56370166D02*
G01*
X148974153Y-56431301D01*
X149106982Y-56520055D01*
X149219945Y-56633018D01*
X149308699Y-56765847D01*
X149369834Y-56913440D01*
X149401000Y-57070123D01*
X149401000Y-57229877D01*
X149369834Y-57386560D01*
X149308699Y-57534153D01*
X149219945Y-57666982D01*
X149106982Y-57779945D01*
X148974153Y-57868699D01*
X148974152Y-57868700D01*
X148974151Y-57868700D01*
X148826560Y-57929834D01*
X148669878Y-57961000D01*
X148510122Y-57961000D01*
X148353440Y-57929834D01*
X148205849Y-57868700D01*
X148205848Y-57868700D01*
X148205847Y-57868699D01*
X148073018Y-57779945D01*
X147960055Y-57666982D01*
X147871301Y-57534153D01*
X147810166Y-57386560D01*
X147779000Y-57229877D01*
X147779000Y-57070123D01*
X147810166Y-56913440D01*
X147871301Y-56765847D01*
X147960055Y-56633018D01*
X148073018Y-56520055D01*
X148205847Y-56431301D01*
X148353440Y-56370166D01*
X148510122Y-56339000D01*
X148669878Y-56339000D01*
X148826560Y-56370166D01*
X148826560Y-56370166D01*
G37*
G36*
X146286560Y-56370166D02*
G01*
X146434153Y-56431301D01*
X146566982Y-56520055D01*
X146679945Y-56633018D01*
X146768699Y-56765847D01*
X146829834Y-56913440D01*
X146861000Y-57070123D01*
X146861000Y-57229877D01*
X146829834Y-57386560D01*
X146768699Y-57534153D01*
X146679945Y-57666982D01*
X146566982Y-57779945D01*
X146434153Y-57868699D01*
X146434152Y-57868700D01*
X146434151Y-57868700D01*
X146286560Y-57929834D01*
X146129878Y-57961000D01*
X145970122Y-57961000D01*
X145813440Y-57929834D01*
X145665849Y-57868700D01*
X145665848Y-57868700D01*
X145665847Y-57868699D01*
X145533018Y-57779945D01*
X145420055Y-57666982D01*
X145331301Y-57534153D01*
X145270166Y-57386560D01*
X145239000Y-57229877D01*
X145239000Y-57070123D01*
X145270166Y-56913440D01*
X145331301Y-56765847D01*
X145420055Y-56633018D01*
X145533018Y-56520055D01*
X145665847Y-56431301D01*
X145813440Y-56370166D01*
X145970122Y-56339000D01*
X146129878Y-56339000D01*
X146286560Y-56370166D01*
X146286560Y-56370166D01*
G37*
G36*
X143746560Y-56370166D02*
G01*
X143894153Y-56431301D01*
X144026982Y-56520055D01*
X144139945Y-56633018D01*
X144228699Y-56765847D01*
X144289834Y-56913440D01*
X144321000Y-57070123D01*
X144321000Y-57229877D01*
X144289834Y-57386560D01*
X144228699Y-57534153D01*
X144139945Y-57666982D01*
X144026982Y-57779945D01*
X143894153Y-57868699D01*
X143894152Y-57868700D01*
X143894151Y-57868700D01*
X143746560Y-57929834D01*
X143589878Y-57961000D01*
X143430122Y-57961000D01*
X143273440Y-57929834D01*
X143125849Y-57868700D01*
X143125848Y-57868700D01*
X143125847Y-57868699D01*
X142993018Y-57779945D01*
X142880055Y-57666982D01*
X142791301Y-57534153D01*
X142730166Y-57386560D01*
X142699000Y-57229877D01*
X142699000Y-57070123D01*
X142730166Y-56913440D01*
X142791301Y-56765847D01*
X142880055Y-56633018D01*
X142993018Y-56520055D01*
X143125847Y-56431301D01*
X143273440Y-56370166D01*
X143430122Y-56339000D01*
X143589878Y-56339000D01*
X143746560Y-56370166D01*
X143746560Y-56370166D01*
G37*
G36*
X141206560Y-56370166D02*
G01*
X141354153Y-56431301D01*
X141486982Y-56520055D01*
X141599945Y-56633018D01*
X141688699Y-56765847D01*
X141749834Y-56913440D01*
X141781000Y-57070123D01*
X141781000Y-57229877D01*
X141749834Y-57386560D01*
X141688699Y-57534153D01*
X141599945Y-57666982D01*
X141486982Y-57779945D01*
X141354153Y-57868699D01*
X141354152Y-57868700D01*
X141354151Y-57868700D01*
X141206560Y-57929834D01*
X141049878Y-57961000D01*
X140890122Y-57961000D01*
X140733440Y-57929834D01*
X140585849Y-57868700D01*
X140585848Y-57868700D01*
X140585847Y-57868699D01*
X140453018Y-57779945D01*
X140340055Y-57666982D01*
X140251301Y-57534153D01*
X140190166Y-57386560D01*
X140159000Y-57229877D01*
X140159000Y-57070123D01*
X140190166Y-56913440D01*
X140251301Y-56765847D01*
X140340055Y-56633018D01*
X140453018Y-56520055D01*
X140585847Y-56431301D01*
X140733440Y-56370166D01*
X140890122Y-56339000D01*
X141049878Y-56339000D01*
X141206560Y-56370166D01*
X141206560Y-56370166D01*
G37*
G36*
X138666560Y-56370166D02*
G01*
X138814153Y-56431301D01*
X138946982Y-56520055D01*
X139059945Y-56633018D01*
X139148699Y-56765847D01*
X139209834Y-56913440D01*
X139241000Y-57070123D01*
X139241000Y-57229877D01*
X139209834Y-57386560D01*
X139148699Y-57534153D01*
X139059945Y-57666982D01*
X138946982Y-57779945D01*
X138814153Y-57868699D01*
X138814152Y-57868700D01*
X138814151Y-57868700D01*
X138666560Y-57929834D01*
X138509878Y-57961000D01*
X138350122Y-57961000D01*
X138193440Y-57929834D01*
X138045849Y-57868700D01*
X138045848Y-57868700D01*
X138045847Y-57868699D01*
X137913018Y-57779945D01*
X137800055Y-57666982D01*
X137711301Y-57534153D01*
X137650166Y-57386560D01*
X137619000Y-57229877D01*
X137619000Y-57070123D01*
X137650166Y-56913440D01*
X137711301Y-56765847D01*
X137800055Y-56633018D01*
X137913018Y-56520055D01*
X138045847Y-56431301D01*
X138193440Y-56370166D01*
X138350122Y-56339000D01*
X138509878Y-56339000D01*
X138666560Y-56370166D01*
X138666560Y-56370166D01*
G37*
G36*
X136126560Y-56370166D02*
G01*
X136274153Y-56431301D01*
X136406982Y-56520055D01*
X136519945Y-56633018D01*
X136608699Y-56765847D01*
X136669834Y-56913440D01*
X136701000Y-57070123D01*
X136701000Y-57229877D01*
X136669834Y-57386560D01*
X136608699Y-57534153D01*
X136519945Y-57666982D01*
X136406982Y-57779945D01*
X136274153Y-57868699D01*
X136274152Y-57868700D01*
X136274151Y-57868700D01*
X136126560Y-57929834D01*
X135969878Y-57961000D01*
X135810122Y-57961000D01*
X135653440Y-57929834D01*
X135505849Y-57868700D01*
X135505848Y-57868700D01*
X135505847Y-57868699D01*
X135373018Y-57779945D01*
X135260055Y-57666982D01*
X135171301Y-57534153D01*
X135110166Y-57386560D01*
X135079000Y-57229877D01*
X135079000Y-57070123D01*
X135110166Y-56913440D01*
X135171301Y-56765847D01*
X135260055Y-56633018D01*
X135373018Y-56520055D01*
X135505847Y-56431301D01*
X135653440Y-56370166D01*
X135810122Y-56339000D01*
X135969878Y-56339000D01*
X136126560Y-56370166D01*
X136126560Y-56370166D01*
G37*
G36*
X133586560Y-56370166D02*
G01*
X133734153Y-56431301D01*
X133866982Y-56520055D01*
X133979945Y-56633018D01*
X134068699Y-56765847D01*
X134129834Y-56913440D01*
X134161000Y-57070123D01*
X134161000Y-57229877D01*
X134129834Y-57386560D01*
X134068699Y-57534153D01*
X133979945Y-57666982D01*
X133866982Y-57779945D01*
X133734153Y-57868699D01*
X133734152Y-57868700D01*
X133734151Y-57868700D01*
X133586560Y-57929834D01*
X133429878Y-57961000D01*
X133270122Y-57961000D01*
X133113440Y-57929834D01*
X132965849Y-57868700D01*
X132965848Y-57868700D01*
X132965847Y-57868699D01*
X132833018Y-57779945D01*
X132720055Y-57666982D01*
X132631301Y-57534153D01*
X132570166Y-57386560D01*
X132539000Y-57229877D01*
X132539000Y-57070123D01*
X132570166Y-56913440D01*
X132631301Y-56765847D01*
X132720055Y-56633018D01*
X132833018Y-56520055D01*
X132965847Y-56431301D01*
X133113440Y-56370166D01*
X133270122Y-56339000D01*
X133429878Y-56339000D01*
X133586560Y-56370166D01*
X133586560Y-56370166D01*
G37*
G36*
X92946560Y-56370166D02*
G01*
X93094153Y-56431301D01*
X93226982Y-56520055D01*
X93339945Y-56633018D01*
X93428699Y-56765847D01*
X93489834Y-56913440D01*
X93521000Y-57070123D01*
X93521000Y-57229877D01*
X93489834Y-57386560D01*
X93428699Y-57534153D01*
X93339945Y-57666982D01*
X93226982Y-57779945D01*
X93094153Y-57868699D01*
X93094152Y-57868700D01*
X93094151Y-57868700D01*
X92946560Y-57929834D01*
X92789878Y-57961000D01*
X92630122Y-57961000D01*
X92473440Y-57929834D01*
X92325849Y-57868700D01*
X92325848Y-57868700D01*
X92325847Y-57868699D01*
X92193018Y-57779945D01*
X92080055Y-57666982D01*
X91991301Y-57534153D01*
X91930166Y-57386560D01*
X91899000Y-57229877D01*
X91899000Y-57070123D01*
X91930166Y-56913440D01*
X91991301Y-56765847D01*
X92080055Y-56633018D01*
X92193018Y-56520055D01*
X92325847Y-56431301D01*
X92473440Y-56370166D01*
X92630122Y-56339000D01*
X92789878Y-56339000D01*
X92946560Y-56370166D01*
X92946560Y-56370166D01*
G37*
G36*
X90406560Y-56370166D02*
G01*
X90554153Y-56431301D01*
X90686982Y-56520055D01*
X90799945Y-56633018D01*
X90888699Y-56765847D01*
X90949834Y-56913440D01*
X90981000Y-57070123D01*
X90981000Y-57229877D01*
X90949834Y-57386560D01*
X90888699Y-57534153D01*
X90799945Y-57666982D01*
X90686982Y-57779945D01*
X90554153Y-57868699D01*
X90554152Y-57868700D01*
X90554151Y-57868700D01*
X90406560Y-57929834D01*
X90249878Y-57961000D01*
X90090122Y-57961000D01*
X89933440Y-57929834D01*
X89785849Y-57868700D01*
X89785848Y-57868700D01*
X89785847Y-57868699D01*
X89653018Y-57779945D01*
X89540055Y-57666982D01*
X89451301Y-57534153D01*
X89390166Y-57386560D01*
X89359000Y-57229877D01*
X89359000Y-57070123D01*
X89390166Y-56913440D01*
X89451301Y-56765847D01*
X89540055Y-56633018D01*
X89653018Y-56520055D01*
X89785847Y-56431301D01*
X89933440Y-56370166D01*
X90090122Y-56339000D01*
X90249878Y-56339000D01*
X90406560Y-56370166D01*
X90406560Y-56370166D01*
G37*
G36*
X87866560Y-56370166D02*
G01*
X88014153Y-56431301D01*
X88146982Y-56520055D01*
X88259945Y-56633018D01*
X88348699Y-56765847D01*
X88409834Y-56913440D01*
X88441000Y-57070123D01*
X88441000Y-57229877D01*
X88409834Y-57386560D01*
X88348699Y-57534153D01*
X88259945Y-57666982D01*
X88146982Y-57779945D01*
X88014153Y-57868699D01*
X88014152Y-57868700D01*
X88014151Y-57868700D01*
X87866560Y-57929834D01*
X87709878Y-57961000D01*
X87550122Y-57961000D01*
X87393440Y-57929834D01*
X87245849Y-57868700D01*
X87245848Y-57868700D01*
X87245847Y-57868699D01*
X87113018Y-57779945D01*
X87000055Y-57666982D01*
X86911301Y-57534153D01*
X86850166Y-57386560D01*
X86819000Y-57229877D01*
X86819000Y-57070123D01*
X86850166Y-56913440D01*
X86911301Y-56765847D01*
X87000055Y-56633018D01*
X87113018Y-56520055D01*
X87245847Y-56431301D01*
X87393440Y-56370166D01*
X87550122Y-56339000D01*
X87709878Y-56339000D01*
X87866560Y-56370166D01*
X87866560Y-56370166D01*
G37*
G36*
X85326560Y-56370166D02*
G01*
X85474153Y-56431301D01*
X85606982Y-56520055D01*
X85719945Y-56633018D01*
X85808699Y-56765847D01*
X85869834Y-56913440D01*
X85901000Y-57070123D01*
X85901000Y-57229877D01*
X85869834Y-57386560D01*
X85808699Y-57534153D01*
X85719945Y-57666982D01*
X85606982Y-57779945D01*
X85474153Y-57868699D01*
X85474152Y-57868700D01*
X85474151Y-57868700D01*
X85326560Y-57929834D01*
X85169878Y-57961000D01*
X85010122Y-57961000D01*
X84853440Y-57929834D01*
X84705849Y-57868700D01*
X84705848Y-57868700D01*
X84705847Y-57868699D01*
X84573018Y-57779945D01*
X84460055Y-57666982D01*
X84371301Y-57534153D01*
X84310166Y-57386560D01*
X84279000Y-57229877D01*
X84279000Y-57070123D01*
X84310166Y-56913440D01*
X84371301Y-56765847D01*
X84460055Y-56633018D01*
X84573018Y-56520055D01*
X84705847Y-56431301D01*
X84853440Y-56370166D01*
X85010122Y-56339000D01*
X85169878Y-56339000D01*
X85326560Y-56370166D01*
X85326560Y-56370166D01*
G37*
G36*
X82786560Y-56370166D02*
G01*
X82934153Y-56431301D01*
X83066982Y-56520055D01*
X83179945Y-56633018D01*
X83268699Y-56765847D01*
X83329834Y-56913440D01*
X83361000Y-57070123D01*
X83361000Y-57229877D01*
X83329834Y-57386560D01*
X83268699Y-57534153D01*
X83179945Y-57666982D01*
X83066982Y-57779945D01*
X82934153Y-57868699D01*
X82934152Y-57868700D01*
X82934151Y-57868700D01*
X82786560Y-57929834D01*
X82629878Y-57961000D01*
X82470122Y-57961000D01*
X82313440Y-57929834D01*
X82165849Y-57868700D01*
X82165848Y-57868700D01*
X82165847Y-57868699D01*
X82033018Y-57779945D01*
X81920055Y-57666982D01*
X81831301Y-57534153D01*
X81770166Y-57386560D01*
X81739000Y-57229877D01*
X81739000Y-57070123D01*
X81770166Y-56913440D01*
X81831301Y-56765847D01*
X81920055Y-56633018D01*
X82033018Y-56520055D01*
X82165847Y-56431301D01*
X82313440Y-56370166D01*
X82470122Y-56339000D01*
X82629878Y-56339000D01*
X82786560Y-56370166D01*
X82786560Y-56370166D01*
G37*
G36*
X80246560Y-56370166D02*
G01*
X80394153Y-56431301D01*
X80526982Y-56520055D01*
X80639945Y-56633018D01*
X80728699Y-56765847D01*
X80789834Y-56913440D01*
X80821000Y-57070123D01*
X80821000Y-57229877D01*
X80789834Y-57386560D01*
X80728699Y-57534153D01*
X80639945Y-57666982D01*
X80526982Y-57779945D01*
X80394153Y-57868699D01*
X80394152Y-57868700D01*
X80394151Y-57868700D01*
X80246560Y-57929834D01*
X80089878Y-57961000D01*
X79930122Y-57961000D01*
X79773440Y-57929834D01*
X79625849Y-57868700D01*
X79625848Y-57868700D01*
X79625847Y-57868699D01*
X79493018Y-57779945D01*
X79380055Y-57666982D01*
X79291301Y-57534153D01*
X79230166Y-57386560D01*
X79199000Y-57229877D01*
X79199000Y-57070123D01*
X79230166Y-56913440D01*
X79291301Y-56765847D01*
X79380055Y-56633018D01*
X79493018Y-56520055D01*
X79625847Y-56431301D01*
X79773440Y-56370166D01*
X79930122Y-56339000D01*
X80089878Y-56339000D01*
X80246560Y-56370166D01*
X80246560Y-56370166D01*
G37*
G36*
X77706560Y-56370166D02*
G01*
X77854153Y-56431301D01*
X77986982Y-56520055D01*
X78099945Y-56633018D01*
X78188699Y-56765847D01*
X78249834Y-56913440D01*
X78281000Y-57070123D01*
X78281000Y-57229877D01*
X78249834Y-57386560D01*
X78188699Y-57534153D01*
X78099945Y-57666982D01*
X77986982Y-57779945D01*
X77854153Y-57868699D01*
X77854152Y-57868700D01*
X77854151Y-57868700D01*
X77706560Y-57929834D01*
X77549878Y-57961000D01*
X77390122Y-57961000D01*
X77233440Y-57929834D01*
X77085849Y-57868700D01*
X77085848Y-57868700D01*
X77085847Y-57868699D01*
X76953018Y-57779945D01*
X76840055Y-57666982D01*
X76751301Y-57534153D01*
X76690166Y-57386560D01*
X76659000Y-57229877D01*
X76659000Y-57070123D01*
X76690166Y-56913440D01*
X76751301Y-56765847D01*
X76840055Y-56633018D01*
X76953018Y-56520055D01*
X77085847Y-56431301D01*
X77233440Y-56370166D01*
X77390122Y-56339000D01*
X77549878Y-56339000D01*
X77706560Y-56370166D01*
X77706560Y-56370166D01*
G37*
M02*
