G04 #@! TF.GenerationSoftware,KiCad,Pcbnew,(5.1.4)-1*
G04 #@! TF.CreationDate,2020-02-16T15:15:17-06:00*
G04 #@! TF.ProjectId,SRA_Sensor_Board,5352415f-5365-46e7-936f-725f426f6172,rev?*
G04 #@! TF.SameCoordinates,Original*
G04 #@! TF.FileFunction,Legend,Bot*
G04 #@! TF.FilePolarity,Positive*
%FSLAX46Y46*%
G04 Gerber Fmt 4.6, Leading zero omitted, Abs format (unit mm)*
G04 Created by KiCad (PCBNEW (5.1.4)-1) date 2020-02-16 15:15:17*
%MOMM*%
%LPD*%
G04 APERTURE LIST*
%ADD10C,0.150000*%
G04 APERTURE END LIST*
D10*
X132080000Y-55880000D02*
X132080000Y-60960000D01*
X157480000Y-55880000D02*
X132080000Y-55880000D01*
X157480000Y-60960000D02*
X157480000Y-55880000D01*
X132080000Y-104140000D02*
X157480000Y-104140000D01*
X132080000Y-99060000D02*
X132080000Y-104140000D01*
X157480000Y-104140000D02*
X157480000Y-99060000D01*
X132080000Y-60960000D02*
X157480000Y-60960000D01*
X157480000Y-99060000D02*
X132080000Y-99060000D01*
X68580000Y-60960000D02*
X93980000Y-60960000D01*
X68580000Y-55880000D02*
X68580000Y-60960000D01*
X93980000Y-55880000D02*
X68580000Y-55880000D01*
X93980000Y-60960000D02*
X93980000Y-55880000D01*
X68580000Y-104140000D02*
X93980000Y-104140000D01*
X68580000Y-99060000D02*
X68580000Y-104140000D01*
X93980000Y-99060000D02*
X68580000Y-99060000D01*
X93980000Y-104140000D02*
X93980000Y-99060000D01*
X159210285Y-103036666D02*
X158734095Y-103036666D01*
X159305523Y-103322380D02*
X158972190Y-102322380D01*
X158638857Y-103322380D01*
X158353142Y-102417619D02*
X158305523Y-102370000D01*
X158210285Y-102322380D01*
X157972190Y-102322380D01*
X157876952Y-102370000D01*
X157829333Y-102417619D01*
X157781714Y-102512857D01*
X157781714Y-102608095D01*
X157829333Y-102750952D01*
X158400761Y-103322380D01*
X157781714Y-103322380D01*
X158900761Y-100258571D02*
X158757904Y-100306190D01*
X158710285Y-100353809D01*
X158662666Y-100449047D01*
X158662666Y-100591904D01*
X158710285Y-100687142D01*
X158757904Y-100734761D01*
X158853142Y-100782380D01*
X159234095Y-100782380D01*
X159234095Y-99782380D01*
X158900761Y-99782380D01*
X158805523Y-99830000D01*
X158757904Y-99877619D01*
X158710285Y-99972857D01*
X158710285Y-100068095D01*
X158757904Y-100163333D01*
X158805523Y-100210952D01*
X158900761Y-100258571D01*
X159234095Y-100258571D01*
X158281714Y-99877619D02*
X158234095Y-99830000D01*
X158138857Y-99782380D01*
X157900761Y-99782380D01*
X157805523Y-99830000D01*
X157757904Y-99877619D01*
X157710285Y-99972857D01*
X157710285Y-100068095D01*
X157757904Y-100210952D01*
X158329333Y-100782380D01*
X157710285Y-100782380D01*
X95710285Y-103036666D02*
X95234095Y-103036666D01*
X95805523Y-103322380D02*
X95472190Y-102322380D01*
X95138857Y-103322380D01*
X94281714Y-103322380D02*
X94853142Y-103322380D01*
X94567428Y-103322380D02*
X94567428Y-102322380D01*
X94662666Y-102465238D01*
X94757904Y-102560476D01*
X94853142Y-102608095D01*
X95400761Y-100258571D02*
X95257904Y-100306190D01*
X95210285Y-100353809D01*
X95162666Y-100449047D01*
X95162666Y-100591904D01*
X95210285Y-100687142D01*
X95257904Y-100734761D01*
X95353142Y-100782380D01*
X95734095Y-100782380D01*
X95734095Y-99782380D01*
X95400761Y-99782380D01*
X95305523Y-99830000D01*
X95257904Y-99877619D01*
X95210285Y-99972857D01*
X95210285Y-100068095D01*
X95257904Y-100163333D01*
X95305523Y-100210952D01*
X95400761Y-100258571D01*
X95734095Y-100258571D01*
X94210285Y-100782380D02*
X94781714Y-100782380D01*
X94496000Y-100782380D02*
X94496000Y-99782380D01*
X94591238Y-99925238D01*
X94686476Y-100020476D01*
X94781714Y-100068095D01*
X159234095Y-57348380D02*
X159234095Y-56348380D01*
X158996000Y-56348380D01*
X158853142Y-56396000D01*
X158757904Y-56491238D01*
X158710285Y-56586476D01*
X158662666Y-56776952D01*
X158662666Y-56919809D01*
X158710285Y-57110285D01*
X158757904Y-57205523D01*
X158853142Y-57300761D01*
X158996000Y-57348380D01*
X159234095Y-57348380D01*
X158281714Y-56443619D02*
X158234095Y-56396000D01*
X158138857Y-56348380D01*
X157900761Y-56348380D01*
X157805523Y-56396000D01*
X157757904Y-56443619D01*
X157710285Y-56538857D01*
X157710285Y-56634095D01*
X157757904Y-56776952D01*
X158329333Y-57348380D01*
X157710285Y-57348380D01*
X158662666Y-60047142D02*
X158710285Y-60094761D01*
X158853142Y-60142380D01*
X158948380Y-60142380D01*
X159091238Y-60094761D01*
X159186476Y-59999523D01*
X159234095Y-59904285D01*
X159281714Y-59713809D01*
X159281714Y-59570952D01*
X159234095Y-59380476D01*
X159186476Y-59285238D01*
X159091238Y-59190000D01*
X158948380Y-59142380D01*
X158853142Y-59142380D01*
X158710285Y-59190000D01*
X158662666Y-59237619D01*
X158281714Y-59237619D02*
X158234095Y-59190000D01*
X158138857Y-59142380D01*
X157900761Y-59142380D01*
X157805523Y-59190000D01*
X157757904Y-59237619D01*
X157710285Y-59332857D01*
X157710285Y-59428095D01*
X157757904Y-59570952D01*
X158329333Y-60142380D01*
X157710285Y-60142380D01*
X95734095Y-57856380D02*
X95734095Y-56856380D01*
X95496000Y-56856380D01*
X95353142Y-56904000D01*
X95257904Y-56999238D01*
X95210285Y-57094476D01*
X95162666Y-57284952D01*
X95162666Y-57427809D01*
X95210285Y-57618285D01*
X95257904Y-57713523D01*
X95353142Y-57808761D01*
X95496000Y-57856380D01*
X95734095Y-57856380D01*
X94210285Y-57856380D02*
X94781714Y-57856380D01*
X94496000Y-57856380D02*
X94496000Y-56856380D01*
X94591238Y-56999238D01*
X94686476Y-57094476D01*
X94781714Y-57142095D01*
X95162666Y-60047142D02*
X95210285Y-60094761D01*
X95353142Y-60142380D01*
X95448380Y-60142380D01*
X95591238Y-60094761D01*
X95686476Y-59999523D01*
X95734095Y-59904285D01*
X95781714Y-59713809D01*
X95781714Y-59570952D01*
X95734095Y-59380476D01*
X95686476Y-59285238D01*
X95591238Y-59190000D01*
X95448380Y-59142380D01*
X95353142Y-59142380D01*
X95210285Y-59190000D01*
X95162666Y-59237619D01*
X94210285Y-60142380D02*
X94781714Y-60142380D01*
X94496000Y-60142380D02*
X94496000Y-59142380D01*
X94591238Y-59285238D01*
X94686476Y-59380476D01*
X94781714Y-59428095D01*
X157019523Y-62444380D02*
X156352857Y-63444380D01*
X156352857Y-62444380D02*
X157019523Y-63444380D01*
X156067142Y-62444380D02*
X155400476Y-62444380D01*
X155829047Y-63444380D01*
X93773523Y-96480380D02*
X93106857Y-97480380D01*
X93106857Y-96480380D02*
X93773523Y-97480380D01*
X92583047Y-96908952D02*
X92678285Y-96861333D01*
X92725904Y-96813714D01*
X92773523Y-96718476D01*
X92773523Y-96670857D01*
X92725904Y-96575619D01*
X92678285Y-96528000D01*
X92583047Y-96480380D01*
X92392571Y-96480380D01*
X92297333Y-96528000D01*
X92249714Y-96575619D01*
X92202095Y-96670857D01*
X92202095Y-96718476D01*
X92249714Y-96813714D01*
X92297333Y-96861333D01*
X92392571Y-96908952D01*
X92583047Y-96908952D01*
X92678285Y-96956571D01*
X92725904Y-97004190D01*
X92773523Y-97099428D01*
X92773523Y-97289904D01*
X92725904Y-97385142D01*
X92678285Y-97432761D01*
X92583047Y-97480380D01*
X92392571Y-97480380D01*
X92297333Y-97432761D01*
X92249714Y-97385142D01*
X92202095Y-97289904D01*
X92202095Y-97099428D01*
X92249714Y-97004190D01*
X92297333Y-96956571D01*
X92392571Y-96908952D01*
X93773523Y-62444380D02*
X93106857Y-63444380D01*
X93106857Y-62444380D02*
X93773523Y-63444380D01*
X92678285Y-63444380D02*
X92487809Y-63444380D01*
X92392571Y-63396761D01*
X92344952Y-63349142D01*
X92249714Y-63206285D01*
X92202095Y-63015809D01*
X92202095Y-62634857D01*
X92249714Y-62539619D01*
X92297333Y-62492000D01*
X92392571Y-62444380D01*
X92583047Y-62444380D01*
X92678285Y-62492000D01*
X92725904Y-62539619D01*
X92773523Y-62634857D01*
X92773523Y-62872952D01*
X92725904Y-62968190D01*
X92678285Y-63015809D01*
X92583047Y-63063428D01*
X92392571Y-63063428D01*
X92297333Y-63015809D01*
X92249714Y-62968190D01*
X92202095Y-62872952D01*
X133064285Y-98750380D02*
X133635714Y-98750380D01*
X133350000Y-98750380D02*
X133350000Y-97750380D01*
X133445238Y-97893238D01*
X133540476Y-97988476D01*
X133635714Y-98036095D01*
X156400476Y-98750380D02*
X156971904Y-98750380D01*
X156686190Y-98750380D02*
X156686190Y-97750380D01*
X156781428Y-97893238D01*
X156876666Y-97988476D01*
X156971904Y-98036095D01*
X155781428Y-97750380D02*
X155686190Y-97750380D01*
X155590952Y-97798000D01*
X155543333Y-97845619D01*
X155495714Y-97940857D01*
X155448095Y-98131333D01*
X155448095Y-98369428D01*
X155495714Y-98559904D01*
X155543333Y-98655142D01*
X155590952Y-98702761D01*
X155686190Y-98750380D01*
X155781428Y-98750380D01*
X155876666Y-98702761D01*
X155924285Y-98655142D01*
X155971904Y-98559904D01*
X156019523Y-98369428D01*
X156019523Y-98131333D01*
X155971904Y-97940857D01*
X155924285Y-97845619D01*
X155876666Y-97798000D01*
X155781428Y-97750380D01*
X156400476Y-62174380D02*
X156971904Y-62174380D01*
X156686190Y-62174380D02*
X156686190Y-61174380D01*
X156781428Y-61317238D01*
X156876666Y-61412476D01*
X156971904Y-61460095D01*
X155781428Y-61174380D02*
X155686190Y-61174380D01*
X155590952Y-61222000D01*
X155543333Y-61269619D01*
X155495714Y-61364857D01*
X155448095Y-61555333D01*
X155448095Y-61793428D01*
X155495714Y-61983904D01*
X155543333Y-62079142D01*
X155590952Y-62126761D01*
X155686190Y-62174380D01*
X155781428Y-62174380D01*
X155876666Y-62126761D01*
X155924285Y-62079142D01*
X155971904Y-61983904D01*
X156019523Y-61793428D01*
X156019523Y-61555333D01*
X155971904Y-61364857D01*
X155924285Y-61269619D01*
X155876666Y-61222000D01*
X155781428Y-61174380D01*
X133064285Y-62174380D02*
X133635714Y-62174380D01*
X133350000Y-62174380D02*
X133350000Y-61174380D01*
X133445238Y-61317238D01*
X133540476Y-61412476D01*
X133635714Y-61460095D01*
X93154476Y-98750380D02*
X93725904Y-98750380D01*
X93440190Y-98750380D02*
X93440190Y-97750380D01*
X93535428Y-97893238D01*
X93630666Y-97988476D01*
X93725904Y-98036095D01*
X92535428Y-97750380D02*
X92440190Y-97750380D01*
X92344952Y-97798000D01*
X92297333Y-97845619D01*
X92249714Y-97940857D01*
X92202095Y-98131333D01*
X92202095Y-98369428D01*
X92249714Y-98559904D01*
X92297333Y-98655142D01*
X92344952Y-98702761D01*
X92440190Y-98750380D01*
X92535428Y-98750380D01*
X92630666Y-98702761D01*
X92678285Y-98655142D01*
X92725904Y-98559904D01*
X92773523Y-98369428D01*
X92773523Y-98131333D01*
X92725904Y-97940857D01*
X92678285Y-97845619D01*
X92630666Y-97798000D01*
X92535428Y-97750380D01*
X69564285Y-98750380D02*
X70135714Y-98750380D01*
X69850000Y-98750380D02*
X69850000Y-97750380D01*
X69945238Y-97893238D01*
X70040476Y-97988476D01*
X70135714Y-98036095D01*
X93154476Y-62174380D02*
X93725904Y-62174380D01*
X93440190Y-62174380D02*
X93440190Y-61174380D01*
X93535428Y-61317238D01*
X93630666Y-61412476D01*
X93725904Y-61460095D01*
X92535428Y-61174380D02*
X92440190Y-61174380D01*
X92344952Y-61222000D01*
X92297333Y-61269619D01*
X92249714Y-61364857D01*
X92202095Y-61555333D01*
X92202095Y-61793428D01*
X92249714Y-61983904D01*
X92297333Y-62079142D01*
X92344952Y-62126761D01*
X92440190Y-62174380D01*
X92535428Y-62174380D01*
X92630666Y-62126761D01*
X92678285Y-62079142D01*
X92725904Y-61983904D01*
X92773523Y-61793428D01*
X92773523Y-61555333D01*
X92725904Y-61364857D01*
X92678285Y-61269619D01*
X92630666Y-61222000D01*
X92535428Y-61174380D01*
M02*
