G04 #@! TF.GenerationSoftware,KiCad,Pcbnew,(5.1.4)-1*
G04 #@! TF.CreationDate,2020-02-16T15:15:17-06:00*
G04 #@! TF.ProjectId,SRA_Sensor_Board,5352415f-5365-46e7-936f-725f426f6172,rev?*
G04 #@! TF.SameCoordinates,Original*
G04 #@! TF.FileFunction,Legend,Top*
G04 #@! TF.FilePolarity,Positive*
%FSLAX46Y46*%
G04 Gerber Fmt 4.6, Leading zero omitted, Abs format (unit mm)*
G04 Created by KiCad (PCBNEW (5.1.4)-1) date 2020-02-16 15:15:17*
%MOMM*%
%LPD*%
G04 APERTURE LIST*
%ADD10C,0.150000*%
%ADD11C,0.120000*%
%ADD12C,0.200000*%
%ADD13C,0.300000*%
%ADD14C,0.100000*%
%ADD15C,0.152400*%
G04 APERTURE END LIST*
D10*
X152479523Y-76922380D02*
X153098571Y-76922380D01*
X152765238Y-77303333D01*
X152908095Y-77303333D01*
X153003333Y-77350952D01*
X153050952Y-77398571D01*
X153098571Y-77493809D01*
X153098571Y-77731904D01*
X153050952Y-77827142D01*
X153003333Y-77874761D01*
X152908095Y-77922380D01*
X152622380Y-77922380D01*
X152527142Y-77874761D01*
X152479523Y-77827142D01*
X153431904Y-77255714D02*
X153670000Y-77922380D01*
X153908095Y-77255714D01*
X154193809Y-76922380D02*
X154812857Y-76922380D01*
X154479523Y-77303333D01*
X154622380Y-77303333D01*
X154717619Y-77350952D01*
X154765238Y-77398571D01*
X154812857Y-77493809D01*
X154812857Y-77731904D01*
X154765238Y-77827142D01*
X154717619Y-77874761D01*
X154622380Y-77922380D01*
X154336666Y-77922380D01*
X154241428Y-77874761D01*
X154193809Y-77827142D01*
X164909523Y-76922380D02*
X164433333Y-76922380D01*
X164385714Y-77398571D01*
X164433333Y-77350952D01*
X164528571Y-77303333D01*
X164766666Y-77303333D01*
X164861904Y-77350952D01*
X164909523Y-77398571D01*
X164957142Y-77493809D01*
X164957142Y-77731904D01*
X164909523Y-77827142D01*
X164861904Y-77874761D01*
X164766666Y-77922380D01*
X164528571Y-77922380D01*
X164433333Y-77874761D01*
X164385714Y-77827142D01*
X165242857Y-76922380D02*
X165576190Y-77922380D01*
X165909523Y-76922380D01*
X96464523Y-98147142D02*
X96416904Y-98194761D01*
X96274047Y-98242380D01*
X96178809Y-98242380D01*
X96035952Y-98194761D01*
X95940714Y-98099523D01*
X95893095Y-98004285D01*
X95845476Y-97813809D01*
X95845476Y-97670952D01*
X95893095Y-97480476D01*
X95940714Y-97385238D01*
X96035952Y-97290000D01*
X96178809Y-97242380D01*
X96274047Y-97242380D01*
X96416904Y-97290000D01*
X96464523Y-97337619D01*
X97464523Y-98147142D02*
X97416904Y-98194761D01*
X97274047Y-98242380D01*
X97178809Y-98242380D01*
X97035952Y-98194761D01*
X96940714Y-98099523D01*
X96893095Y-98004285D01*
X96845476Y-97813809D01*
X96845476Y-97670952D01*
X96893095Y-97480476D01*
X96940714Y-97385238D01*
X97035952Y-97290000D01*
X97178809Y-97242380D01*
X97274047Y-97242380D01*
X97416904Y-97290000D01*
X97464523Y-97337619D01*
X97893095Y-98242380D02*
X97893095Y-97242380D01*
X98131190Y-97242380D01*
X98274047Y-97290000D01*
X98369285Y-97385238D01*
X98416904Y-97480476D01*
X98464523Y-97670952D01*
X98464523Y-97813809D01*
X98416904Y-98004285D01*
X98369285Y-98099523D01*
X98274047Y-98194761D01*
X98131190Y-98242380D01*
X97893095Y-98242380D01*
X86939523Y-98147142D02*
X86891904Y-98194761D01*
X86749047Y-98242380D01*
X86653809Y-98242380D01*
X86510952Y-98194761D01*
X86415714Y-98099523D01*
X86368095Y-98004285D01*
X86320476Y-97813809D01*
X86320476Y-97670952D01*
X86368095Y-97480476D01*
X86415714Y-97385238D01*
X86510952Y-97290000D01*
X86653809Y-97242380D01*
X86749047Y-97242380D01*
X86891904Y-97290000D01*
X86939523Y-97337619D01*
X87558571Y-97242380D02*
X87749047Y-97242380D01*
X87844285Y-97290000D01*
X87939523Y-97385238D01*
X87987142Y-97575714D01*
X87987142Y-97909047D01*
X87939523Y-98099523D01*
X87844285Y-98194761D01*
X87749047Y-98242380D01*
X87558571Y-98242380D01*
X87463333Y-98194761D01*
X87368095Y-98099523D01*
X87320476Y-97909047D01*
X87320476Y-97575714D01*
X87368095Y-97385238D01*
X87463333Y-97290000D01*
X87558571Y-97242380D01*
X88368095Y-97337619D02*
X88415714Y-97290000D01*
X88510952Y-97242380D01*
X88749047Y-97242380D01*
X88844285Y-97290000D01*
X88891904Y-97337619D01*
X88939523Y-97432857D01*
X88939523Y-97528095D01*
X88891904Y-97670952D01*
X88320476Y-98242380D01*
X88939523Y-98242380D01*
D11*
X91440000Y-88900000D02*
X91440000Y-99060000D01*
D10*
X79438571Y-97242380D02*
X79629047Y-97242380D01*
X79724285Y-97290000D01*
X79819523Y-97385238D01*
X79867142Y-97575714D01*
X79867142Y-97909047D01*
X79819523Y-98099523D01*
X79724285Y-98194761D01*
X79629047Y-98242380D01*
X79438571Y-98242380D01*
X79343333Y-98194761D01*
X79248095Y-98099523D01*
X79200476Y-97909047D01*
X79200476Y-97575714D01*
X79248095Y-97385238D01*
X79343333Y-97290000D01*
X79438571Y-97242380D01*
X80248095Y-97337619D02*
X80295714Y-97290000D01*
X80390952Y-97242380D01*
X80629047Y-97242380D01*
X80724285Y-97290000D01*
X80771904Y-97337619D01*
X80819523Y-97432857D01*
X80819523Y-97528095D01*
X80771904Y-97670952D01*
X80200476Y-98242380D01*
X80819523Y-98242380D01*
D11*
X83820000Y-88900000D02*
X83820000Y-99060000D01*
D10*
X69556666Y-98242380D02*
X69556666Y-97242380D01*
X69890000Y-97956666D01*
X70223333Y-97242380D01*
X70223333Y-98242380D01*
X71080476Y-98194761D02*
X70985238Y-98242380D01*
X70794761Y-98242380D01*
X70699523Y-98194761D01*
X70651904Y-98099523D01*
X70651904Y-97718571D01*
X70699523Y-97623333D01*
X70794761Y-97575714D01*
X70985238Y-97575714D01*
X71080476Y-97623333D01*
X71128095Y-97718571D01*
X71128095Y-97813809D01*
X70651904Y-97909047D01*
X71413809Y-97575714D02*
X71794761Y-97575714D01*
X71556666Y-97242380D02*
X71556666Y-98099523D01*
X71604285Y-98194761D01*
X71699523Y-98242380D01*
X71794761Y-98242380D01*
X72128095Y-98242380D02*
X72128095Y-97242380D01*
X72556666Y-98242380D02*
X72556666Y-97718571D01*
X72509047Y-97623333D01*
X72413809Y-97575714D01*
X72270952Y-97575714D01*
X72175714Y-97623333D01*
X72128095Y-97670952D01*
X73461428Y-98242380D02*
X73461428Y-97718571D01*
X73413809Y-97623333D01*
X73318571Y-97575714D01*
X73128095Y-97575714D01*
X73032857Y-97623333D01*
X73461428Y-98194761D02*
X73366190Y-98242380D01*
X73128095Y-98242380D01*
X73032857Y-98194761D01*
X72985238Y-98099523D01*
X72985238Y-98004285D01*
X73032857Y-97909047D01*
X73128095Y-97861428D01*
X73366190Y-97861428D01*
X73461428Y-97813809D01*
X73937619Y-97575714D02*
X73937619Y-98242380D01*
X73937619Y-97670952D02*
X73985238Y-97623333D01*
X74080476Y-97575714D01*
X74223333Y-97575714D01*
X74318571Y-97623333D01*
X74366190Y-97718571D01*
X74366190Y-98242380D01*
X75223333Y-98194761D02*
X75128095Y-98242380D01*
X74937619Y-98242380D01*
X74842380Y-98194761D01*
X74794761Y-98099523D01*
X74794761Y-97718571D01*
X74842380Y-97623333D01*
X74937619Y-97575714D01*
X75128095Y-97575714D01*
X75223333Y-97623333D01*
X75270952Y-97718571D01*
X75270952Y-97813809D01*
X74794761Y-97909047D01*
D11*
X76835000Y-88900000D02*
X76835000Y-99060000D01*
D10*
X98345714Y-87082380D02*
X98345714Y-87891904D01*
X98393333Y-87987142D01*
X98440952Y-88034761D01*
X98536190Y-88082380D01*
X98726666Y-88082380D01*
X98821904Y-88034761D01*
X98869523Y-87987142D01*
X98917142Y-87891904D01*
X98917142Y-87082380D01*
X99250476Y-87082380D02*
X99583809Y-88082380D01*
X99917142Y-87082380D01*
D11*
X95250000Y-88900000D02*
X102870000Y-88900000D01*
X95250000Y-78740000D02*
X95250000Y-88900000D01*
D10*
X85876190Y-88034761D02*
X86019047Y-88082380D01*
X86257142Y-88082380D01*
X86352380Y-88034761D01*
X86400000Y-87987142D01*
X86447619Y-87891904D01*
X86447619Y-87796666D01*
X86400000Y-87701428D01*
X86352380Y-87653809D01*
X86257142Y-87606190D01*
X86066666Y-87558571D01*
X85971428Y-87510952D01*
X85923809Y-87463333D01*
X85876190Y-87368095D01*
X85876190Y-87272857D01*
X85923809Y-87177619D01*
X85971428Y-87130000D01*
X86066666Y-87082380D01*
X86304761Y-87082380D01*
X86447619Y-87130000D01*
X87019047Y-88082380D02*
X86923809Y-88034761D01*
X86876190Y-87987142D01*
X86828571Y-87891904D01*
X86828571Y-87606190D01*
X86876190Y-87510952D01*
X86923809Y-87463333D01*
X87019047Y-87415714D01*
X87161904Y-87415714D01*
X87257142Y-87463333D01*
X87304761Y-87510952D01*
X87352380Y-87606190D01*
X87352380Y-87891904D01*
X87304761Y-87987142D01*
X87257142Y-88034761D01*
X87161904Y-88082380D01*
X87019047Y-88082380D01*
X87638095Y-87415714D02*
X88019047Y-87415714D01*
X87780952Y-88082380D02*
X87780952Y-87225238D01*
X87828571Y-87130000D01*
X87923809Y-87082380D01*
X88019047Y-87082380D01*
X88209523Y-87415714D02*
X88590476Y-87415714D01*
X88352380Y-87082380D02*
X88352380Y-87939523D01*
X88400000Y-88034761D01*
X88495238Y-88082380D01*
X88590476Y-88082380D01*
X88828571Y-87415714D02*
X89019047Y-88082380D01*
X89209523Y-87606190D01*
X89400000Y-88082380D01*
X89590476Y-87415714D01*
X90400000Y-88082380D02*
X90400000Y-87558571D01*
X90352380Y-87463333D01*
X90257142Y-87415714D01*
X90066666Y-87415714D01*
X89971428Y-87463333D01*
X90400000Y-88034761D02*
X90304761Y-88082380D01*
X90066666Y-88082380D01*
X89971428Y-88034761D01*
X89923809Y-87939523D01*
X89923809Y-87844285D01*
X89971428Y-87749047D01*
X90066666Y-87701428D01*
X90304761Y-87701428D01*
X90400000Y-87653809D01*
X90876190Y-88082380D02*
X90876190Y-87415714D01*
X90876190Y-87606190D02*
X90923809Y-87510952D01*
X90971428Y-87463333D01*
X91066666Y-87415714D01*
X91161904Y-87415714D01*
X91876190Y-88034761D02*
X91780952Y-88082380D01*
X91590476Y-88082380D01*
X91495238Y-88034761D01*
X91447619Y-87939523D01*
X91447619Y-87558571D01*
X91495238Y-87463333D01*
X91590476Y-87415714D01*
X91780952Y-87415714D01*
X91876190Y-87463333D01*
X91923809Y-87558571D01*
X91923809Y-87653809D01*
X91447619Y-87749047D01*
D11*
X83820000Y-88900000D02*
X95250000Y-88900000D01*
D10*
X74858809Y-88082380D02*
X74858809Y-87082380D01*
X75239761Y-87082380D01*
X75335000Y-87130000D01*
X75382619Y-87177619D01*
X75430238Y-87272857D01*
X75430238Y-87415714D01*
X75382619Y-87510952D01*
X75335000Y-87558571D01*
X75239761Y-87606190D01*
X74858809Y-87606190D01*
X76001666Y-88082380D02*
X75906428Y-88034761D01*
X75858809Y-87987142D01*
X75811190Y-87891904D01*
X75811190Y-87606190D01*
X75858809Y-87510952D01*
X75906428Y-87463333D01*
X76001666Y-87415714D01*
X76144523Y-87415714D01*
X76239761Y-87463333D01*
X76287380Y-87510952D01*
X76335000Y-87606190D01*
X76335000Y-87891904D01*
X76287380Y-87987142D01*
X76239761Y-88034761D01*
X76144523Y-88082380D01*
X76001666Y-88082380D01*
X76668333Y-87415714D02*
X76858809Y-88082380D01*
X77049285Y-87606190D01*
X77239761Y-88082380D01*
X77430238Y-87415714D01*
X78192142Y-88034761D02*
X78096904Y-88082380D01*
X77906428Y-88082380D01*
X77811190Y-88034761D01*
X77763571Y-87939523D01*
X77763571Y-87558571D01*
X77811190Y-87463333D01*
X77906428Y-87415714D01*
X78096904Y-87415714D01*
X78192142Y-87463333D01*
X78239761Y-87558571D01*
X78239761Y-87653809D01*
X77763571Y-87749047D01*
X78668333Y-88082380D02*
X78668333Y-87415714D01*
X78668333Y-87606190D02*
X78715952Y-87510952D01*
X78763571Y-87463333D01*
X78858809Y-87415714D01*
X78954047Y-87415714D01*
D11*
X68580000Y-88900000D02*
X68580000Y-87630000D01*
X83820000Y-88900000D02*
X68580000Y-88900000D01*
X83820000Y-87630000D02*
X83820000Y-88900000D01*
X68580000Y-87630000D02*
X68580000Y-78740000D01*
X83820000Y-78740000D02*
X83820000Y-87630000D01*
X102870000Y-78740000D02*
X68580000Y-78740000D01*
X102870000Y-99060000D02*
X102870000Y-78740000D01*
X68580000Y-99060000D02*
X102870000Y-99060000D01*
D12*
X163783333Y-109614761D02*
X163926190Y-109662380D01*
X164164285Y-109662380D01*
X164259523Y-109614761D01*
X164307142Y-109567142D01*
X164354761Y-109471904D01*
X164354761Y-109376666D01*
X164307142Y-109281428D01*
X164259523Y-109233809D01*
X164164285Y-109186190D01*
X163973809Y-109138571D01*
X163878571Y-109090952D01*
X163830952Y-109043333D01*
X163783333Y-108948095D01*
X163783333Y-108852857D01*
X163830952Y-108757619D01*
X163878571Y-108710000D01*
X163973809Y-108662380D01*
X164211904Y-108662380D01*
X164354761Y-108710000D01*
X165164285Y-109614761D02*
X165069047Y-109662380D01*
X164878571Y-109662380D01*
X164783333Y-109614761D01*
X164735714Y-109519523D01*
X164735714Y-109138571D01*
X164783333Y-109043333D01*
X164878571Y-108995714D01*
X165069047Y-108995714D01*
X165164285Y-109043333D01*
X165211904Y-109138571D01*
X165211904Y-109233809D01*
X164735714Y-109329047D01*
X165640476Y-108995714D02*
X165640476Y-109662380D01*
X165640476Y-109090952D02*
X165688095Y-109043333D01*
X165783333Y-108995714D01*
X165926190Y-108995714D01*
X166021428Y-109043333D01*
X166069047Y-109138571D01*
X166069047Y-109662380D01*
X166497619Y-109614761D02*
X166592857Y-109662380D01*
X166783333Y-109662380D01*
X166878571Y-109614761D01*
X166926190Y-109519523D01*
X166926190Y-109471904D01*
X166878571Y-109376666D01*
X166783333Y-109329047D01*
X166640476Y-109329047D01*
X166545238Y-109281428D01*
X166497619Y-109186190D01*
X166497619Y-109138571D01*
X166545238Y-109043333D01*
X166640476Y-108995714D01*
X166783333Y-108995714D01*
X166878571Y-109043333D01*
X167497619Y-109662380D02*
X167402380Y-109614761D01*
X167354761Y-109567142D01*
X167307142Y-109471904D01*
X167307142Y-109186190D01*
X167354761Y-109090952D01*
X167402380Y-109043333D01*
X167497619Y-108995714D01*
X167640476Y-108995714D01*
X167735714Y-109043333D01*
X167783333Y-109090952D01*
X167830952Y-109186190D01*
X167830952Y-109471904D01*
X167783333Y-109567142D01*
X167735714Y-109614761D01*
X167640476Y-109662380D01*
X167497619Y-109662380D01*
X168259523Y-109662380D02*
X168259523Y-108995714D01*
X168259523Y-109186190D02*
X168307142Y-109090952D01*
X168354761Y-109043333D01*
X168450000Y-108995714D01*
X168545238Y-108995714D01*
X169973809Y-109138571D02*
X170116666Y-109186190D01*
X170164285Y-109233809D01*
X170211904Y-109329047D01*
X170211904Y-109471904D01*
X170164285Y-109567142D01*
X170116666Y-109614761D01*
X170021428Y-109662380D01*
X169640476Y-109662380D01*
X169640476Y-108662380D01*
X169973809Y-108662380D01*
X170069047Y-108710000D01*
X170116666Y-108757619D01*
X170164285Y-108852857D01*
X170164285Y-108948095D01*
X170116666Y-109043333D01*
X170069047Y-109090952D01*
X169973809Y-109138571D01*
X169640476Y-109138571D01*
X170783333Y-109662380D02*
X170688095Y-109614761D01*
X170640476Y-109567142D01*
X170592857Y-109471904D01*
X170592857Y-109186190D01*
X170640476Y-109090952D01*
X170688095Y-109043333D01*
X170783333Y-108995714D01*
X170926190Y-108995714D01*
X171021428Y-109043333D01*
X171069047Y-109090952D01*
X171116666Y-109186190D01*
X171116666Y-109471904D01*
X171069047Y-109567142D01*
X171021428Y-109614761D01*
X170926190Y-109662380D01*
X170783333Y-109662380D01*
X171973809Y-109662380D02*
X171973809Y-109138571D01*
X171926190Y-109043333D01*
X171830952Y-108995714D01*
X171640476Y-108995714D01*
X171545238Y-109043333D01*
X171973809Y-109614761D02*
X171878571Y-109662380D01*
X171640476Y-109662380D01*
X171545238Y-109614761D01*
X171497619Y-109519523D01*
X171497619Y-109424285D01*
X171545238Y-109329047D01*
X171640476Y-109281428D01*
X171878571Y-109281428D01*
X171973809Y-109233809D01*
X172450000Y-109662380D02*
X172450000Y-108995714D01*
X172450000Y-109186190D02*
X172497619Y-109090952D01*
X172545238Y-109043333D01*
X172640476Y-108995714D01*
X172735714Y-108995714D01*
X173497619Y-109662380D02*
X173497619Y-108662380D01*
X173497619Y-109614761D02*
X173402380Y-109662380D01*
X173211904Y-109662380D01*
X173116666Y-109614761D01*
X173069047Y-109567142D01*
X173021428Y-109471904D01*
X173021428Y-109186190D01*
X173069047Y-109090952D01*
X173116666Y-109043333D01*
X173211904Y-108995714D01*
X173402380Y-108995714D01*
X173497619Y-109043333D01*
X174021428Y-109614761D02*
X174021428Y-109662380D01*
X173973809Y-109757619D01*
X173926190Y-109805238D01*
X175783333Y-109662380D02*
X175450000Y-109186190D01*
X175211904Y-109662380D02*
X175211904Y-108662380D01*
X175592857Y-108662380D01*
X175688095Y-108710000D01*
X175735714Y-108757619D01*
X175783333Y-108852857D01*
X175783333Y-108995714D01*
X175735714Y-109090952D01*
X175688095Y-109138571D01*
X175592857Y-109186190D01*
X175211904Y-109186190D01*
X176592857Y-109614761D02*
X176497619Y-109662380D01*
X176307142Y-109662380D01*
X176211904Y-109614761D01*
X176164285Y-109519523D01*
X176164285Y-109138571D01*
X176211904Y-109043333D01*
X176307142Y-108995714D01*
X176497619Y-108995714D01*
X176592857Y-109043333D01*
X176640476Y-109138571D01*
X176640476Y-109233809D01*
X176164285Y-109329047D01*
X176973809Y-108995714D02*
X177211904Y-109662380D01*
X177450000Y-108995714D01*
X178545238Y-108757619D02*
X178592857Y-108710000D01*
X178688095Y-108662380D01*
X178926190Y-108662380D01*
X179021428Y-108710000D01*
X179069047Y-108757619D01*
X179116666Y-108852857D01*
X179116666Y-108948095D01*
X179069047Y-109090952D01*
X178497619Y-109662380D01*
X179116666Y-109662380D01*
X164973809Y-111362380D02*
X164973809Y-110362380D01*
X165307142Y-111076666D01*
X165640476Y-110362380D01*
X165640476Y-111362380D01*
X166545238Y-111362380D02*
X166545238Y-110838571D01*
X166497619Y-110743333D01*
X166402380Y-110695714D01*
X166211904Y-110695714D01*
X166116666Y-110743333D01*
X166545238Y-111314761D02*
X166450000Y-111362380D01*
X166211904Y-111362380D01*
X166116666Y-111314761D01*
X166069047Y-111219523D01*
X166069047Y-111124285D01*
X166116666Y-111029047D01*
X166211904Y-110981428D01*
X166450000Y-110981428D01*
X166545238Y-110933809D01*
X167021428Y-111362380D02*
X167021428Y-110695714D01*
X167021428Y-110886190D02*
X167069047Y-110790952D01*
X167116666Y-110743333D01*
X167211904Y-110695714D01*
X167307142Y-110695714D01*
X167592857Y-111314761D02*
X167688095Y-111362380D01*
X167878571Y-111362380D01*
X167973809Y-111314761D01*
X168021428Y-111219523D01*
X168021428Y-111171904D01*
X167973809Y-111076666D01*
X167878571Y-111029047D01*
X167735714Y-111029047D01*
X167640476Y-110981428D01*
X167592857Y-110886190D01*
X167592857Y-110838571D01*
X167640476Y-110743333D01*
X167735714Y-110695714D01*
X167878571Y-110695714D01*
X167973809Y-110743333D01*
X169783333Y-111362380D02*
X169450000Y-110886190D01*
X169211904Y-111362380D02*
X169211904Y-110362380D01*
X169592857Y-110362380D01*
X169688095Y-110410000D01*
X169735714Y-110457619D01*
X169783333Y-110552857D01*
X169783333Y-110695714D01*
X169735714Y-110790952D01*
X169688095Y-110838571D01*
X169592857Y-110886190D01*
X169211904Y-110886190D01*
X170354761Y-111362380D02*
X170259523Y-111314761D01*
X170211904Y-111267142D01*
X170164285Y-111171904D01*
X170164285Y-110886190D01*
X170211904Y-110790952D01*
X170259523Y-110743333D01*
X170354761Y-110695714D01*
X170497619Y-110695714D01*
X170592857Y-110743333D01*
X170640476Y-110790952D01*
X170688095Y-110886190D01*
X170688095Y-111171904D01*
X170640476Y-111267142D01*
X170592857Y-111314761D01*
X170497619Y-111362380D01*
X170354761Y-111362380D01*
X171021428Y-110695714D02*
X171259523Y-111362380D01*
X171497619Y-110695714D01*
X172259523Y-111314761D02*
X172164285Y-111362380D01*
X171973809Y-111362380D01*
X171878571Y-111314761D01*
X171830952Y-111219523D01*
X171830952Y-110838571D01*
X171878571Y-110743333D01*
X171973809Y-110695714D01*
X172164285Y-110695714D01*
X172259523Y-110743333D01*
X172307142Y-110838571D01*
X172307142Y-110933809D01*
X171830952Y-111029047D01*
X172735714Y-111362380D02*
X172735714Y-110695714D01*
X172735714Y-110886190D02*
X172783333Y-110790952D01*
X172830952Y-110743333D01*
X172926190Y-110695714D01*
X173021428Y-110695714D01*
X173402380Y-111314761D02*
X173402380Y-111362380D01*
X173354761Y-111457619D01*
X173307142Y-111505238D01*
X174545238Y-110457619D02*
X174592857Y-110410000D01*
X174688095Y-110362380D01*
X174926190Y-110362380D01*
X175021428Y-110410000D01*
X175069047Y-110457619D01*
X175116666Y-110552857D01*
X175116666Y-110648095D01*
X175069047Y-110790952D01*
X174497619Y-111362380D01*
X175116666Y-111362380D01*
X175735714Y-110362380D02*
X175830952Y-110362380D01*
X175926190Y-110410000D01*
X175973809Y-110457619D01*
X176021428Y-110552857D01*
X176069047Y-110743333D01*
X176069047Y-110981428D01*
X176021428Y-111171904D01*
X175973809Y-111267142D01*
X175926190Y-111314761D01*
X175830952Y-111362380D01*
X175735714Y-111362380D01*
X175640476Y-111314761D01*
X175592857Y-111267142D01*
X175545238Y-111171904D01*
X175497619Y-110981428D01*
X175497619Y-110743333D01*
X175545238Y-110552857D01*
X175592857Y-110457619D01*
X175640476Y-110410000D01*
X175735714Y-110362380D01*
X176450000Y-110457619D02*
X176497619Y-110410000D01*
X176592857Y-110362380D01*
X176830952Y-110362380D01*
X176926190Y-110410000D01*
X176973809Y-110457619D01*
X177021428Y-110552857D01*
X177021428Y-110648095D01*
X176973809Y-110790952D01*
X176402380Y-111362380D01*
X177021428Y-111362380D01*
X177640476Y-110362380D02*
X177735714Y-110362380D01*
X177830952Y-110410000D01*
X177878571Y-110457619D01*
X177926190Y-110552857D01*
X177973809Y-110743333D01*
X177973809Y-110981428D01*
X177926190Y-111171904D01*
X177878571Y-111267142D01*
X177830952Y-111314761D01*
X177735714Y-111362380D01*
X177640476Y-111362380D01*
X177545238Y-111314761D01*
X177497619Y-111267142D01*
X177450000Y-111171904D01*
X177402380Y-110981428D01*
X177402380Y-110743333D01*
X177450000Y-110552857D01*
X177497619Y-110457619D01*
X177545238Y-110410000D01*
X177640476Y-110362380D01*
X166759523Y-113062380D02*
X166759523Y-112062380D01*
X167092857Y-112776666D01*
X167426190Y-112062380D01*
X167426190Y-113062380D01*
X167902380Y-113062380D02*
X167902380Y-112395714D01*
X167902380Y-112062380D02*
X167854761Y-112110000D01*
X167902380Y-112157619D01*
X167950000Y-112110000D01*
X167902380Y-112062380D01*
X167902380Y-112157619D01*
X168330952Y-113014761D02*
X168426190Y-113062380D01*
X168616666Y-113062380D01*
X168711904Y-113014761D01*
X168759523Y-112919523D01*
X168759523Y-112871904D01*
X168711904Y-112776666D01*
X168616666Y-112729047D01*
X168473809Y-112729047D01*
X168378571Y-112681428D01*
X168330952Y-112586190D01*
X168330952Y-112538571D01*
X168378571Y-112443333D01*
X168473809Y-112395714D01*
X168616666Y-112395714D01*
X168711904Y-112443333D01*
X169140476Y-113014761D02*
X169235714Y-113062380D01*
X169426190Y-113062380D01*
X169521428Y-113014761D01*
X169569047Y-112919523D01*
X169569047Y-112871904D01*
X169521428Y-112776666D01*
X169426190Y-112729047D01*
X169283333Y-112729047D01*
X169188095Y-112681428D01*
X169140476Y-112586190D01*
X169140476Y-112538571D01*
X169188095Y-112443333D01*
X169283333Y-112395714D01*
X169426190Y-112395714D01*
X169521428Y-112443333D01*
X170140476Y-113062380D02*
X170045238Y-113014761D01*
X169997619Y-112967142D01*
X169950000Y-112871904D01*
X169950000Y-112586190D01*
X169997619Y-112490952D01*
X170045238Y-112443333D01*
X170140476Y-112395714D01*
X170283333Y-112395714D01*
X170378571Y-112443333D01*
X170426190Y-112490952D01*
X170473809Y-112586190D01*
X170473809Y-112871904D01*
X170426190Y-112967142D01*
X170378571Y-113014761D01*
X170283333Y-113062380D01*
X170140476Y-113062380D01*
X171330952Y-112395714D02*
X171330952Y-113062380D01*
X170902380Y-112395714D02*
X170902380Y-112919523D01*
X170950000Y-113014761D01*
X171045238Y-113062380D01*
X171188095Y-113062380D01*
X171283333Y-113014761D01*
X171330952Y-112967142D01*
X171807142Y-113062380D02*
X171807142Y-112395714D01*
X171807142Y-112586190D02*
X171854761Y-112490952D01*
X171902380Y-112443333D01*
X171997619Y-112395714D01*
X172092857Y-112395714D01*
X172426190Y-113062380D02*
X172426190Y-112395714D01*
X172426190Y-112062380D02*
X172378571Y-112110000D01*
X172426190Y-112157619D01*
X172473809Y-112110000D01*
X172426190Y-112062380D01*
X172426190Y-112157619D01*
X173616666Y-113014761D02*
X173759523Y-113062380D01*
X173997619Y-113062380D01*
X174092857Y-113014761D01*
X174140476Y-112967142D01*
X174188095Y-112871904D01*
X174188095Y-112776666D01*
X174140476Y-112681428D01*
X174092857Y-112633809D01*
X173997619Y-112586190D01*
X173807142Y-112538571D01*
X173711904Y-112490952D01*
X173664285Y-112443333D01*
X173616666Y-112348095D01*
X173616666Y-112252857D01*
X173664285Y-112157619D01*
X173711904Y-112110000D01*
X173807142Y-112062380D01*
X174045238Y-112062380D01*
X174188095Y-112110000D01*
X175426190Y-113062380D02*
X175378571Y-113062380D01*
X175283333Y-113014761D01*
X175140476Y-112871904D01*
X174902380Y-112586190D01*
X174807142Y-112443333D01*
X174759523Y-112300476D01*
X174759523Y-112205238D01*
X174807142Y-112110000D01*
X174902380Y-112062380D01*
X174950000Y-112062380D01*
X175045238Y-112110000D01*
X175092857Y-112205238D01*
X175092857Y-112252857D01*
X175045238Y-112348095D01*
X174997619Y-112395714D01*
X174711904Y-112586190D01*
X174664285Y-112633809D01*
X174616666Y-112729047D01*
X174616666Y-112871904D01*
X174664285Y-112967142D01*
X174711904Y-113014761D01*
X174807142Y-113062380D01*
X174950000Y-113062380D01*
X175045238Y-113014761D01*
X175092857Y-112967142D01*
X175235714Y-112776666D01*
X175283333Y-112633809D01*
X175283333Y-112538571D01*
X175711904Y-112062380D02*
X176283333Y-112062380D01*
X175997619Y-113062380D02*
X175997619Y-112062380D01*
X162497619Y-114762380D02*
X162497619Y-113762380D01*
X162735714Y-113762380D01*
X162878571Y-113810000D01*
X162973809Y-113905238D01*
X163021428Y-114000476D01*
X163069047Y-114190952D01*
X163069047Y-114333809D01*
X163021428Y-114524285D01*
X162973809Y-114619523D01*
X162878571Y-114714761D01*
X162735714Y-114762380D01*
X162497619Y-114762380D01*
X163640476Y-114762380D02*
X163545238Y-114714761D01*
X163497619Y-114667142D01*
X163450000Y-114571904D01*
X163450000Y-114286190D01*
X163497619Y-114190952D01*
X163545238Y-114143333D01*
X163640476Y-114095714D01*
X163783333Y-114095714D01*
X163878571Y-114143333D01*
X163926190Y-114190952D01*
X163973809Y-114286190D01*
X163973809Y-114571904D01*
X163926190Y-114667142D01*
X163878571Y-114714761D01*
X163783333Y-114762380D01*
X163640476Y-114762380D01*
X164402380Y-114095714D02*
X164402380Y-114762380D01*
X164402380Y-114190952D02*
X164450000Y-114143333D01*
X164545238Y-114095714D01*
X164688095Y-114095714D01*
X164783333Y-114143333D01*
X164830952Y-114238571D01*
X164830952Y-114762380D01*
X166021428Y-114714761D02*
X166164285Y-114762380D01*
X166402380Y-114762380D01*
X166497619Y-114714761D01*
X166545238Y-114667142D01*
X166592857Y-114571904D01*
X166592857Y-114476666D01*
X166545238Y-114381428D01*
X166497619Y-114333809D01*
X166402380Y-114286190D01*
X166211904Y-114238571D01*
X166116666Y-114190952D01*
X166069047Y-114143333D01*
X166021428Y-114048095D01*
X166021428Y-113952857D01*
X166069047Y-113857619D01*
X166116666Y-113810000D01*
X166211904Y-113762380D01*
X166450000Y-113762380D01*
X166592857Y-113810000D01*
X167021428Y-114762380D02*
X167021428Y-113762380D01*
X167450000Y-114762380D02*
X167450000Y-114238571D01*
X167402380Y-114143333D01*
X167307142Y-114095714D01*
X167164285Y-114095714D01*
X167069047Y-114143333D01*
X167021428Y-114190952D01*
X168354761Y-114762380D02*
X168354761Y-114238571D01*
X168307142Y-114143333D01*
X168211904Y-114095714D01*
X168021428Y-114095714D01*
X167926190Y-114143333D01*
X168354761Y-114714761D02*
X168259523Y-114762380D01*
X168021428Y-114762380D01*
X167926190Y-114714761D01*
X167878571Y-114619523D01*
X167878571Y-114524285D01*
X167926190Y-114429047D01*
X168021428Y-114381428D01*
X168259523Y-114381428D01*
X168354761Y-114333809D01*
X168735714Y-114095714D02*
X168926190Y-114762380D01*
X169116666Y-114286190D01*
X169307142Y-114762380D01*
X169497619Y-114095714D01*
X169926190Y-114714761D02*
X169926190Y-114762380D01*
X169878571Y-114857619D01*
X169830952Y-114905238D01*
X170973809Y-113762380D02*
X171545238Y-113762380D01*
X171259523Y-114762380D02*
X171259523Y-113762380D01*
X172021428Y-114762380D02*
X171926190Y-114714761D01*
X171878571Y-114667142D01*
X171830952Y-114571904D01*
X171830952Y-114286190D01*
X171878571Y-114190952D01*
X171926190Y-114143333D01*
X172021428Y-114095714D01*
X172164285Y-114095714D01*
X172259523Y-114143333D01*
X172307142Y-114190952D01*
X172354761Y-114286190D01*
X172354761Y-114571904D01*
X172307142Y-114667142D01*
X172259523Y-114714761D01*
X172164285Y-114762380D01*
X172021428Y-114762380D01*
X172783333Y-114095714D02*
X172783333Y-114762380D01*
X172783333Y-114190952D02*
X172830952Y-114143333D01*
X172926190Y-114095714D01*
X173069047Y-114095714D01*
X173164285Y-114143333D01*
X173211904Y-114238571D01*
X173211904Y-114762380D01*
X173688095Y-114762380D02*
X173688095Y-114095714D01*
X173688095Y-113762380D02*
X173640476Y-113810000D01*
X173688095Y-113857619D01*
X173735714Y-113810000D01*
X173688095Y-113762380D01*
X173688095Y-113857619D01*
X175497619Y-114762380D02*
X175164285Y-114286190D01*
X174926190Y-114762380D02*
X174926190Y-113762380D01*
X175307142Y-113762380D01*
X175402380Y-113810000D01*
X175450000Y-113857619D01*
X175497619Y-113952857D01*
X175497619Y-114095714D01*
X175450000Y-114190952D01*
X175402380Y-114238571D01*
X175307142Y-114286190D01*
X174926190Y-114286190D01*
X176354761Y-114762380D02*
X176354761Y-114238571D01*
X176307142Y-114143333D01*
X176211904Y-114095714D01*
X176021428Y-114095714D01*
X175926190Y-114143333D01*
X176354761Y-114714761D02*
X176259523Y-114762380D01*
X176021428Y-114762380D01*
X175926190Y-114714761D01*
X175878571Y-114619523D01*
X175878571Y-114524285D01*
X175926190Y-114429047D01*
X176021428Y-114381428D01*
X176259523Y-114381428D01*
X176354761Y-114333809D01*
X176830952Y-114762380D02*
X176830952Y-114095714D01*
X176830952Y-114190952D02*
X176878571Y-114143333D01*
X176973809Y-114095714D01*
X177116666Y-114095714D01*
X177211904Y-114143333D01*
X177259523Y-114238571D01*
X177259523Y-114762380D01*
X177259523Y-114238571D02*
X177307142Y-114143333D01*
X177402380Y-114095714D01*
X177545238Y-114095714D01*
X177640476Y-114143333D01*
X177688095Y-114238571D01*
X177688095Y-114762380D01*
X178307142Y-114762380D02*
X178211904Y-114714761D01*
X178164285Y-114619523D01*
X178164285Y-113762380D01*
X178688095Y-114095714D02*
X178688095Y-114952857D01*
X178640476Y-115048095D01*
X178545238Y-115095714D01*
X178497619Y-115095714D01*
X178688095Y-113762380D02*
X178640476Y-113810000D01*
X178688095Y-113857619D01*
X178735714Y-113810000D01*
X178688095Y-113762380D01*
X178688095Y-113857619D01*
X179592857Y-114762380D02*
X179592857Y-114238571D01*
X179545238Y-114143333D01*
X179450000Y-114095714D01*
X179259523Y-114095714D01*
X179164285Y-114143333D01*
X179592857Y-114714761D02*
X179497619Y-114762380D01*
X179259523Y-114762380D01*
X179164285Y-114714761D01*
X179116666Y-114619523D01*
X179116666Y-114524285D01*
X179164285Y-114429047D01*
X179259523Y-114381428D01*
X179497619Y-114381428D01*
X179592857Y-114333809D01*
X180069047Y-114762380D02*
X180069047Y-113762380D01*
X180164285Y-114381428D02*
X180450000Y-114762380D01*
X180450000Y-114095714D02*
X180069047Y-114476666D01*
D13*
X167577142Y-75608571D02*
X167577142Y-74108571D01*
X168077142Y-75180000D01*
X168577142Y-74108571D01*
X168577142Y-75608571D01*
X169934285Y-75608571D02*
X169934285Y-74822857D01*
X169862857Y-74680000D01*
X169720000Y-74608571D01*
X169434285Y-74608571D01*
X169291428Y-74680000D01*
X169934285Y-75537142D02*
X169791428Y-75608571D01*
X169434285Y-75608571D01*
X169291428Y-75537142D01*
X169220000Y-75394285D01*
X169220000Y-75251428D01*
X169291428Y-75108571D01*
X169434285Y-75037142D01*
X169791428Y-75037142D01*
X169934285Y-74965714D01*
X170648571Y-75608571D02*
X170648571Y-74608571D01*
X170648571Y-74108571D02*
X170577142Y-74180000D01*
X170648571Y-74251428D01*
X170720000Y-74180000D01*
X170648571Y-74108571D01*
X170648571Y-74251428D01*
X171362857Y-74608571D02*
X171362857Y-75608571D01*
X171362857Y-74751428D02*
X171434285Y-74680000D01*
X171577142Y-74608571D01*
X171791428Y-74608571D01*
X171934285Y-74680000D01*
X172005714Y-74822857D01*
X172005714Y-75608571D01*
X173862857Y-75608571D02*
X173862857Y-74108571D01*
X174434285Y-74108571D01*
X174577142Y-74180000D01*
X174648571Y-74251428D01*
X174720000Y-74394285D01*
X174720000Y-74608571D01*
X174648571Y-74751428D01*
X174577142Y-74822857D01*
X174434285Y-74894285D01*
X173862857Y-74894285D01*
X175220000Y-74108571D02*
X175577142Y-75608571D01*
X175862857Y-74537142D01*
X176148571Y-75608571D01*
X176505714Y-74108571D01*
X177934285Y-75608571D02*
X177434285Y-74894285D01*
X177077142Y-75608571D02*
X177077142Y-74108571D01*
X177648571Y-74108571D01*
X177791428Y-74180000D01*
X177862857Y-74251428D01*
X177934285Y-74394285D01*
X177934285Y-74608571D01*
X177862857Y-74751428D01*
X177791428Y-74822857D01*
X177648571Y-74894285D01*
X177077142Y-74894285D01*
X148134285Y-50692857D02*
X148348571Y-50764285D01*
X148420000Y-50835714D01*
X148491428Y-50978571D01*
X148491428Y-51192857D01*
X148420000Y-51335714D01*
X148348571Y-51407142D01*
X148205714Y-51478571D01*
X147634285Y-51478571D01*
X147634285Y-49978571D01*
X148134285Y-49978571D01*
X148277142Y-50050000D01*
X148348571Y-50121428D01*
X148420000Y-50264285D01*
X148420000Y-50407142D01*
X148348571Y-50550000D01*
X148277142Y-50621428D01*
X148134285Y-50692857D01*
X147634285Y-50692857D01*
X149777142Y-50478571D02*
X149777142Y-51478571D01*
X149134285Y-50478571D02*
X149134285Y-51264285D01*
X149205714Y-51407142D01*
X149348571Y-51478571D01*
X149562857Y-51478571D01*
X149705714Y-51407142D01*
X149777142Y-51335714D01*
X151134285Y-51407142D02*
X150991428Y-51478571D01*
X150705714Y-51478571D01*
X150562857Y-51407142D01*
X150491428Y-51335714D01*
X150420000Y-51192857D01*
X150420000Y-50764285D01*
X150491428Y-50621428D01*
X150562857Y-50550000D01*
X150705714Y-50478571D01*
X150991428Y-50478571D01*
X151134285Y-50550000D01*
X151777142Y-51478571D02*
X151777142Y-49978571D01*
X151920000Y-50907142D02*
X152348571Y-51478571D01*
X152348571Y-50478571D02*
X151777142Y-51050000D01*
X154634285Y-50692857D02*
X154848571Y-50764285D01*
X154920000Y-50835714D01*
X154991428Y-50978571D01*
X154991428Y-51192857D01*
X154920000Y-51335714D01*
X154848571Y-51407142D01*
X154705714Y-51478571D01*
X154134285Y-51478571D01*
X154134285Y-49978571D01*
X154634285Y-49978571D01*
X154777142Y-50050000D01*
X154848571Y-50121428D01*
X154920000Y-50264285D01*
X154920000Y-50407142D01*
X154848571Y-50550000D01*
X154777142Y-50621428D01*
X154634285Y-50692857D01*
X154134285Y-50692857D01*
X155848571Y-51478571D02*
X155705714Y-51407142D01*
X155634285Y-51335714D01*
X155562857Y-51192857D01*
X155562857Y-50764285D01*
X155634285Y-50621428D01*
X155705714Y-50550000D01*
X155848571Y-50478571D01*
X156062857Y-50478571D01*
X156205714Y-50550000D01*
X156277142Y-50621428D01*
X156348571Y-50764285D01*
X156348571Y-51192857D01*
X156277142Y-51335714D01*
X156205714Y-51407142D01*
X156062857Y-51478571D01*
X155848571Y-51478571D01*
X157205714Y-51478571D02*
X157062857Y-51407142D01*
X156991428Y-51335714D01*
X156920000Y-51192857D01*
X156920000Y-50764285D01*
X156991428Y-50621428D01*
X157062857Y-50550000D01*
X157205714Y-50478571D01*
X157420000Y-50478571D01*
X157562857Y-50550000D01*
X157634285Y-50621428D01*
X157705714Y-50764285D01*
X157705714Y-51192857D01*
X157634285Y-51335714D01*
X157562857Y-51407142D01*
X157420000Y-51478571D01*
X157205714Y-51478571D01*
X158277142Y-51407142D02*
X158420000Y-51478571D01*
X158705714Y-51478571D01*
X158848571Y-51407142D01*
X158920000Y-51264285D01*
X158920000Y-51192857D01*
X158848571Y-51050000D01*
X158705714Y-50978571D01*
X158491428Y-50978571D01*
X158348571Y-50907142D01*
X158277142Y-50764285D01*
X158277142Y-50692857D01*
X158348571Y-50550000D01*
X158491428Y-50478571D01*
X158705714Y-50478571D01*
X158848571Y-50550000D01*
X159348571Y-50478571D02*
X159920000Y-50478571D01*
X159562857Y-49978571D02*
X159562857Y-51264285D01*
X159634285Y-51407142D01*
X159777142Y-51478571D01*
X159920000Y-51478571D01*
X96651428Y-49978571D02*
X96651428Y-51192857D01*
X96722857Y-51335714D01*
X96794285Y-51407142D01*
X96937142Y-51478571D01*
X97222857Y-51478571D01*
X97365714Y-51407142D01*
X97437142Y-51335714D01*
X97508571Y-51192857D01*
X97508571Y-49978571D01*
X98008571Y-49978571D02*
X98508571Y-51478571D01*
X99008571Y-49978571D01*
X101365714Y-51478571D02*
X100651428Y-51478571D01*
X100651428Y-49978571D01*
X101865714Y-50692857D02*
X102365714Y-50692857D01*
X102580000Y-51478571D02*
X101865714Y-51478571D01*
X101865714Y-49978571D01*
X102580000Y-49978571D01*
X103222857Y-51478571D02*
X103222857Y-49978571D01*
X103580000Y-49978571D01*
X103794285Y-50050000D01*
X103937142Y-50192857D01*
X104008571Y-50335714D01*
X104080000Y-50621428D01*
X104080000Y-50835714D01*
X104008571Y-51121428D01*
X103937142Y-51264285D01*
X103794285Y-51407142D01*
X103580000Y-51478571D01*
X103222857Y-51478571D01*
D14*
X169646666Y-78390000D02*
X169580000Y-78356666D01*
X169480000Y-78356666D01*
X169380000Y-78390000D01*
X169313333Y-78456666D01*
X169280000Y-78523333D01*
X169246666Y-78656666D01*
X169246666Y-78756666D01*
X169280000Y-78890000D01*
X169313333Y-78956666D01*
X169380000Y-79023333D01*
X169480000Y-79056666D01*
X169546666Y-79056666D01*
X169646666Y-79023333D01*
X169680000Y-78990000D01*
X169680000Y-78756666D01*
X169546666Y-78756666D01*
X169980000Y-79056666D02*
X169980000Y-78356666D01*
X170380000Y-79056666D01*
X170380000Y-78356666D01*
X170713333Y-79056666D02*
X170713333Y-78356666D01*
X170880000Y-78356666D01*
X170980000Y-78390000D01*
X171046666Y-78456666D01*
X171080000Y-78523333D01*
X171113333Y-78656666D01*
X171113333Y-78756666D01*
X171080000Y-78890000D01*
X171046666Y-78956666D01*
X170980000Y-79023333D01*
X170880000Y-79056666D01*
X170713333Y-79056666D01*
X169746666Y-71436666D02*
X169346666Y-71436666D01*
X169546666Y-71436666D02*
X169546666Y-70736666D01*
X169480000Y-70836666D01*
X169413333Y-70903333D01*
X169346666Y-70936666D01*
X170013333Y-70803333D02*
X170046666Y-70770000D01*
X170113333Y-70736666D01*
X170280000Y-70736666D01*
X170346666Y-70770000D01*
X170380000Y-70803333D01*
X170413333Y-70870000D01*
X170413333Y-70936666D01*
X170380000Y-71036666D01*
X169980000Y-71436666D01*
X170413333Y-71436666D01*
X170613333Y-70736666D02*
X170846666Y-71436666D01*
X171080000Y-70736666D01*
X164266666Y-65723333D02*
X164300000Y-65690000D01*
X164366666Y-65656666D01*
X164533333Y-65656666D01*
X164600000Y-65690000D01*
X164633333Y-65723333D01*
X164666666Y-65790000D01*
X164666666Y-65856666D01*
X164633333Y-65956666D01*
X164233333Y-66356666D01*
X164666666Y-66356666D01*
X165266666Y-65890000D02*
X165266666Y-66356666D01*
X165100000Y-65623333D02*
X164933333Y-66123333D01*
X165366666Y-66123333D01*
X165533333Y-65656666D02*
X165766666Y-66356666D01*
X166000000Y-65656666D01*
X172186666Y-65690000D02*
X172120000Y-65656666D01*
X172020000Y-65656666D01*
X171920000Y-65690000D01*
X171853333Y-65756666D01*
X171820000Y-65823333D01*
X171786666Y-65956666D01*
X171786666Y-66056666D01*
X171820000Y-66190000D01*
X171853333Y-66256666D01*
X171920000Y-66323333D01*
X172020000Y-66356666D01*
X172086666Y-66356666D01*
X172186666Y-66323333D01*
X172220000Y-66290000D01*
X172220000Y-66056666D01*
X172086666Y-66056666D01*
X172520000Y-66356666D02*
X172520000Y-65656666D01*
X172920000Y-66356666D01*
X172920000Y-65656666D01*
X173253333Y-66356666D02*
X173253333Y-65656666D01*
X173420000Y-65656666D01*
X173520000Y-65690000D01*
X173586666Y-65756666D01*
X173620000Y-65823333D01*
X173653333Y-65956666D01*
X173653333Y-66056666D01*
X173620000Y-66190000D01*
X173586666Y-66256666D01*
X173520000Y-66323333D01*
X173420000Y-66356666D01*
X173253333Y-66356666D01*
X181176666Y-66356666D02*
X180776666Y-66356666D01*
X180976666Y-66356666D02*
X180976666Y-65656666D01*
X180910000Y-65756666D01*
X180843333Y-65823333D01*
X180776666Y-65856666D01*
X181443333Y-65723333D02*
X181476666Y-65690000D01*
X181543333Y-65656666D01*
X181710000Y-65656666D01*
X181776666Y-65690000D01*
X181810000Y-65723333D01*
X181843333Y-65790000D01*
X181843333Y-65856666D01*
X181810000Y-65956666D01*
X181410000Y-66356666D01*
X181843333Y-66356666D01*
X182043333Y-65656666D02*
X182276666Y-66356666D01*
X182510000Y-65656666D01*
X188696666Y-65690000D02*
X188630000Y-65656666D01*
X188530000Y-65656666D01*
X188430000Y-65690000D01*
X188363333Y-65756666D01*
X188330000Y-65823333D01*
X188296666Y-65956666D01*
X188296666Y-66056666D01*
X188330000Y-66190000D01*
X188363333Y-66256666D01*
X188430000Y-66323333D01*
X188530000Y-66356666D01*
X188596666Y-66356666D01*
X188696666Y-66323333D01*
X188730000Y-66290000D01*
X188730000Y-66056666D01*
X188596666Y-66056666D01*
X189030000Y-66356666D02*
X189030000Y-65656666D01*
X189430000Y-66356666D01*
X189430000Y-65656666D01*
X189763333Y-66356666D02*
X189763333Y-65656666D01*
X189930000Y-65656666D01*
X190030000Y-65690000D01*
X190096666Y-65756666D01*
X190130000Y-65823333D01*
X190163333Y-65956666D01*
X190163333Y-66056666D01*
X190130000Y-66190000D01*
X190096666Y-66256666D01*
X190030000Y-66323333D01*
X189930000Y-66356666D01*
X189763333Y-66356666D01*
X107720000Y-61846666D02*
X107720000Y-62413333D01*
X107753333Y-62480000D01*
X107786666Y-62513333D01*
X107853333Y-62546666D01*
X107986666Y-62546666D01*
X108053333Y-62513333D01*
X108086666Y-62480000D01*
X108120000Y-62413333D01*
X108120000Y-61846666D01*
X108353333Y-61846666D02*
X108586666Y-62546666D01*
X108820000Y-61846666D01*
X109486666Y-61846666D02*
X109720000Y-62546666D01*
X109953333Y-61846666D01*
X110186666Y-62280000D02*
X110720000Y-62280000D01*
X110453333Y-62546666D02*
X110453333Y-62013333D01*
X125196666Y-61880000D02*
X125130000Y-61846666D01*
X125030000Y-61846666D01*
X124930000Y-61880000D01*
X124863333Y-61946666D01*
X124830000Y-62013333D01*
X124796666Y-62146666D01*
X124796666Y-62246666D01*
X124830000Y-62380000D01*
X124863333Y-62446666D01*
X124930000Y-62513333D01*
X125030000Y-62546666D01*
X125096666Y-62546666D01*
X125196666Y-62513333D01*
X125230000Y-62480000D01*
X125230000Y-62246666D01*
X125096666Y-62246666D01*
X125530000Y-62546666D02*
X125530000Y-61846666D01*
X125930000Y-62546666D01*
X125930000Y-61846666D01*
X126263333Y-62546666D02*
X126263333Y-61846666D01*
X126430000Y-61846666D01*
X126530000Y-61880000D01*
X126596666Y-61946666D01*
X126630000Y-62013333D01*
X126663333Y-62146666D01*
X126663333Y-62246666D01*
X126630000Y-62380000D01*
X126596666Y-62446666D01*
X126530000Y-62513333D01*
X126430000Y-62546666D01*
X126263333Y-62546666D01*
X133233333Y-96836666D02*
X133000000Y-96503333D01*
X132833333Y-96836666D02*
X132833333Y-96136666D01*
X133100000Y-96136666D01*
X133166666Y-96170000D01*
X133200000Y-96203333D01*
X133233333Y-96270000D01*
X133233333Y-96370000D01*
X133200000Y-96436666D01*
X133166666Y-96470000D01*
X133100000Y-96503333D01*
X132833333Y-96503333D01*
X133466666Y-96136666D02*
X133933333Y-96836666D01*
X133933333Y-96136666D02*
X133466666Y-96836666D01*
X130276666Y-96136666D02*
X130676666Y-96136666D01*
X130476666Y-96836666D02*
X130476666Y-96136666D01*
X130843333Y-96136666D02*
X131310000Y-96836666D01*
X131310000Y-96136666D02*
X130843333Y-96836666D01*
X127736666Y-96170000D02*
X127670000Y-96136666D01*
X127570000Y-96136666D01*
X127470000Y-96170000D01*
X127403333Y-96236666D01*
X127370000Y-96303333D01*
X127336666Y-96436666D01*
X127336666Y-96536666D01*
X127370000Y-96670000D01*
X127403333Y-96736666D01*
X127470000Y-96803333D01*
X127570000Y-96836666D01*
X127636666Y-96836666D01*
X127736666Y-96803333D01*
X127770000Y-96770000D01*
X127770000Y-96536666D01*
X127636666Y-96536666D01*
X128070000Y-96836666D02*
X128070000Y-96136666D01*
X128470000Y-96836666D01*
X128470000Y-96136666D01*
X128803333Y-96836666D02*
X128803333Y-96136666D01*
X128970000Y-96136666D01*
X129070000Y-96170000D01*
X129136666Y-96236666D01*
X129170000Y-96303333D01*
X129203333Y-96436666D01*
X129203333Y-96536666D01*
X129170000Y-96670000D01*
X129136666Y-96736666D01*
X129070000Y-96803333D01*
X128970000Y-96836666D01*
X128803333Y-96836666D01*
X125596666Y-96136666D02*
X125263333Y-96136666D01*
X125230000Y-96470000D01*
X125263333Y-96436666D01*
X125330000Y-96403333D01*
X125496666Y-96403333D01*
X125563333Y-96436666D01*
X125596666Y-96470000D01*
X125630000Y-96536666D01*
X125630000Y-96703333D01*
X125596666Y-96770000D01*
X125563333Y-96803333D01*
X125496666Y-96836666D01*
X125330000Y-96836666D01*
X125263333Y-96803333D01*
X125230000Y-96770000D01*
X125830000Y-96136666D02*
X126063333Y-96836666D01*
X126296666Y-96136666D01*
X115834333Y-86676666D02*
X115601000Y-86343333D01*
X115434333Y-86676666D02*
X115434333Y-85976666D01*
X115701000Y-85976666D01*
X115767666Y-86010000D01*
X115801000Y-86043333D01*
X115834333Y-86110000D01*
X115834333Y-86210000D01*
X115801000Y-86276666D01*
X115767666Y-86310000D01*
X115701000Y-86343333D01*
X115434333Y-86343333D01*
X116067666Y-85976666D02*
X116534333Y-86676666D01*
X116534333Y-85976666D02*
X116067666Y-86676666D01*
X112750666Y-85976666D02*
X113150666Y-85976666D01*
X112950666Y-86676666D02*
X112950666Y-85976666D01*
X113317333Y-85976666D02*
X113784000Y-86676666D01*
X113784000Y-85976666D02*
X113317333Y-86676666D01*
X109956666Y-86010000D02*
X109890000Y-85976666D01*
X109790000Y-85976666D01*
X109690000Y-86010000D01*
X109623333Y-86076666D01*
X109590000Y-86143333D01*
X109556666Y-86276666D01*
X109556666Y-86376666D01*
X109590000Y-86510000D01*
X109623333Y-86576666D01*
X109690000Y-86643333D01*
X109790000Y-86676666D01*
X109856666Y-86676666D01*
X109956666Y-86643333D01*
X109990000Y-86610000D01*
X109990000Y-86376666D01*
X109856666Y-86376666D01*
X110290000Y-86676666D02*
X110290000Y-85976666D01*
X110690000Y-86676666D01*
X110690000Y-85976666D01*
X111023333Y-86676666D02*
X111023333Y-85976666D01*
X111190000Y-85976666D01*
X111290000Y-86010000D01*
X111356666Y-86076666D01*
X111390000Y-86143333D01*
X111423333Y-86276666D01*
X111423333Y-86376666D01*
X111390000Y-86510000D01*
X111356666Y-86576666D01*
X111290000Y-86643333D01*
X111190000Y-86676666D01*
X111023333Y-86676666D01*
X107435666Y-85976666D02*
X107102333Y-85976666D01*
X107069000Y-86310000D01*
X107102333Y-86276666D01*
X107169000Y-86243333D01*
X107335666Y-86243333D01*
X107402333Y-86276666D01*
X107435666Y-86310000D01*
X107469000Y-86376666D01*
X107469000Y-86543333D01*
X107435666Y-86610000D01*
X107402333Y-86643333D01*
X107335666Y-86676666D01*
X107169000Y-86676666D01*
X107102333Y-86643333D01*
X107069000Y-86610000D01*
X107669000Y-85976666D02*
X107902333Y-86676666D01*
X108135666Y-85976666D01*
D10*
X125857000Y-46380400D02*
X125857000Y-58674000D01*
X125857000Y-34061400D02*
X125857000Y-41808400D01*
X110109000Y-41808400D02*
X110109000Y-34061400D01*
X110109000Y-46380400D02*
X110109000Y-58674000D01*
X119126000Y-44094400D02*
G75*
G03X119126000Y-44094400I-1143000J0D01*
G01*
X120269000Y-44094400D02*
X123545600Y-44094400D01*
X117983000Y-46380400D02*
X117983000Y-58674000D01*
X115697000Y-44094400D02*
X112395000Y-44094400D01*
X117983000Y-46380400D02*
X117983000Y-45237400D01*
X120269000Y-44094400D02*
X119126000Y-44094400D01*
X118008400Y-34061400D02*
X118008400Y-42951400D01*
X115697000Y-44094400D02*
X116840000Y-44094400D01*
X124714000Y-44094400D02*
X123545600Y-44094400D01*
X125857000Y-46355000D02*
X125857000Y-45262800D01*
X110109000Y-41783000D02*
X110109000Y-42951400D01*
X112420400Y-44094400D02*
X111252000Y-44094400D01*
X110109000Y-46405800D02*
X110109000Y-45212000D01*
X125857000Y-42951400D02*
G75*
G03X124714000Y-44094400I0J-1143000D01*
G01*
X124714000Y-44094400D02*
G75*
G03X125857000Y-45237400I1143000J0D01*
G01*
X125857000Y-42951400D02*
X125857000Y-41732200D01*
X125857000Y-58674000D02*
X110109000Y-58674000D01*
X125857000Y-34036000D02*
X110109000Y-34036000D01*
X111226600Y-44094400D02*
G75*
G03X110109000Y-42976800I-1117600J0D01*
G01*
X110109000Y-45212000D02*
G75*
G03X111226600Y-44094400I0J1117600D01*
G01*
D11*
X125900000Y-68580000D02*
X126010000Y-68580000D01*
X138260000Y-68580000D02*
X138150000Y-68580000D01*
X126010000Y-70950000D02*
X138150000Y-70950000D01*
X126010000Y-66210000D02*
X126010000Y-70950000D01*
X138150000Y-66210000D02*
X126010000Y-66210000D01*
X138150000Y-70950000D02*
X138150000Y-66210000D01*
D15*
X78911530Y-77478600D02*
X81153000Y-77478600D01*
X75723670Y-62289400D02*
X66903600Y-62289400D01*
X81153000Y-62289400D02*
X78911530Y-62289400D01*
X81153000Y-77478600D02*
X81153000Y-62289400D01*
X66903600Y-77478600D02*
X75723670Y-77478600D01*
X66903600Y-62289400D02*
X66903600Y-77478600D01*
D10*
X94482500Y-68159000D02*
X94482500Y-73434000D01*
X89082500Y-69434000D02*
X89082500Y-73434000D01*
D11*
X96743733Y-74170000D02*
X97086267Y-74170000D01*
X96743733Y-73150000D02*
X97086267Y-73150000D01*
X96743733Y-69725000D02*
X97086267Y-69725000D01*
X96743733Y-68705000D02*
X97086267Y-68705000D01*
X86926267Y-68070000D02*
X86583733Y-68070000D01*
X86926267Y-69090000D02*
X86583733Y-69090000D01*
X86926267Y-73785000D02*
X86583733Y-73785000D01*
X86926267Y-74805000D02*
X86583733Y-74805000D01*
X92006267Y-66165000D02*
X91663733Y-66165000D01*
X92006267Y-67185000D02*
X91663733Y-67185000D01*
X83310000Y-69438733D02*
X83310000Y-69781267D01*
X84330000Y-69438733D02*
X84330000Y-69781267D01*
X84330000Y-73591267D02*
X84330000Y-73248733D01*
X83310000Y-73591267D02*
X83310000Y-73248733D01*
D10*
X148590000Y-97790000D02*
X148590000Y-81280000D01*
X158750000Y-81280000D02*
X158750000Y-97790000D01*
X148590000Y-81280000D02*
X158750000Y-81280000D01*
X148590000Y-97790000D02*
X158750000Y-97790000D01*
X151130000Y-85090000D02*
X156210000Y-85090000D01*
X148590000Y-87630000D02*
X151130000Y-85090000D01*
X148590000Y-92710000D02*
X148590000Y-87630000D01*
X151130000Y-95250000D02*
X148590000Y-92710000D01*
X156210000Y-95250000D02*
X151130000Y-95250000D01*
X158750000Y-92710000D02*
X156210000Y-95250000D01*
X158750000Y-87630000D02*
X158750000Y-92710000D01*
X156210000Y-85090000D02*
X158750000Y-87630000D01*
D11*
X127510000Y-82721267D02*
X127510000Y-82378733D01*
X126490000Y-82721267D02*
X126490000Y-82378733D01*
X122430000Y-80970000D02*
X123890000Y-80970000D01*
X122430000Y-84130000D02*
X124590000Y-84130000D01*
X122430000Y-84130000D02*
X122430000Y-83200000D01*
X122430000Y-80970000D02*
X122430000Y-81900000D01*
D10*
X160020000Y-97790000D02*
X160020000Y-81280000D01*
X170180000Y-81280000D02*
X170180000Y-97790000D01*
X160020000Y-81280000D02*
X170180000Y-81280000D01*
X160020000Y-97790000D02*
X170180000Y-97790000D01*
X162560000Y-85090000D02*
X167640000Y-85090000D01*
X160020000Y-87630000D02*
X162560000Y-85090000D01*
X160020000Y-92710000D02*
X160020000Y-87630000D01*
X162560000Y-95250000D02*
X160020000Y-92710000D01*
X167640000Y-95250000D02*
X162560000Y-95250000D01*
X170180000Y-92710000D02*
X167640000Y-95250000D01*
X170180000Y-87630000D02*
X170180000Y-92710000D01*
X167640000Y-85090000D02*
X170180000Y-87630000D01*
D11*
X119890000Y-77246267D02*
X119890000Y-76903733D01*
X118870000Y-77246267D02*
X118870000Y-76903733D01*
X147830000Y-90341267D02*
X147830000Y-89998733D01*
X146810000Y-90341267D02*
X146810000Y-89998733D01*
X127510000Y-76371267D02*
X127510000Y-76028733D01*
X126490000Y-76371267D02*
X126490000Y-76028733D01*
X85850000Y-90873733D02*
X85850000Y-91216267D01*
X86870000Y-90873733D02*
X86870000Y-91216267D01*
X78230000Y-90873733D02*
X78230000Y-91216267D01*
X79250000Y-90873733D02*
X79250000Y-91216267D01*
X74420000Y-80713733D02*
X74420000Y-81056267D01*
X75440000Y-80713733D02*
X75440000Y-81056267D01*
X139190000Y-88728733D02*
X139190000Y-89071267D01*
X140210000Y-88728733D02*
X140210000Y-89071267D01*
X97280000Y-80713733D02*
X97280000Y-81056267D01*
X98300000Y-80713733D02*
X98300000Y-81056267D01*
X70610000Y-90873733D02*
X70610000Y-91216267D01*
X71630000Y-90873733D02*
X71630000Y-91216267D01*
X74420000Y-90873733D02*
X74420000Y-91216267D01*
X75440000Y-90873733D02*
X75440000Y-91216267D01*
X89660000Y-90873733D02*
X89660000Y-91216267D01*
X90680000Y-90873733D02*
X90680000Y-91216267D01*
X93470000Y-80713733D02*
X93470000Y-81056267D01*
X94490000Y-80713733D02*
X94490000Y-81056267D01*
X85850000Y-80713733D02*
X85850000Y-81056267D01*
X86870000Y-80713733D02*
X86870000Y-81056267D01*
X89660000Y-80713733D02*
X89660000Y-81056267D01*
X90680000Y-80713733D02*
X90680000Y-81056267D01*
X78230000Y-80713733D02*
X78230000Y-81056267D01*
X79250000Y-80713733D02*
X79250000Y-81056267D01*
X82040000Y-80713733D02*
X82040000Y-81056267D01*
X83060000Y-80713733D02*
X83060000Y-81056267D01*
X70610000Y-80713733D02*
X70610000Y-81056267D01*
X71630000Y-80713733D02*
X71630000Y-81056267D01*
X82040000Y-90873733D02*
X82040000Y-91216267D01*
X83060000Y-90873733D02*
X83060000Y-91216267D01*
X118870000Y-81503733D02*
X118870000Y-81846267D01*
X119890000Y-81503733D02*
X119890000Y-81846267D01*
X147830000Y-96296267D02*
X147830000Y-95953733D01*
X146810000Y-96296267D02*
X146810000Y-95953733D01*
X139190000Y-95078733D02*
X139190000Y-95421267D01*
X140210000Y-95078733D02*
X140210000Y-95421267D01*
X122430000Y-74620000D02*
X123890000Y-74620000D01*
X122430000Y-77780000D02*
X124590000Y-77780000D01*
X122430000Y-77780000D02*
X122430000Y-76850000D01*
X122430000Y-74620000D02*
X122430000Y-75550000D01*
X144270000Y-90480000D02*
X142810000Y-90480000D01*
X144270000Y-87320000D02*
X142110000Y-87320000D01*
X144270000Y-87320000D02*
X144270000Y-88250000D01*
X144270000Y-90480000D02*
X144270000Y-89550000D01*
X144270000Y-96830000D02*
X142810000Y-96830000D01*
X144270000Y-93670000D02*
X142110000Y-93670000D01*
X144270000Y-93670000D02*
X144270000Y-94600000D01*
X144270000Y-96830000D02*
X144270000Y-95900000D01*
X87095000Y-96515000D02*
X87095000Y-94055000D01*
X85625000Y-96515000D02*
X87095000Y-96515000D01*
X85625000Y-94055000D02*
X85625000Y-96515000D01*
X79475000Y-96515000D02*
X79475000Y-94055000D01*
X78005000Y-96515000D02*
X79475000Y-96515000D01*
X78005000Y-94055000D02*
X78005000Y-96515000D01*
X83285000Y-96515000D02*
X83285000Y-94055000D01*
X81815000Y-96515000D02*
X83285000Y-96515000D01*
X81815000Y-94055000D02*
X81815000Y-96515000D01*
X75665000Y-86355000D02*
X75665000Y-83895000D01*
X74195000Y-86355000D02*
X75665000Y-86355000D01*
X74195000Y-83895000D02*
X74195000Y-86355000D01*
X98525000Y-86355000D02*
X98525000Y-83895000D01*
X97055000Y-86355000D02*
X98525000Y-86355000D01*
X97055000Y-83895000D02*
X97055000Y-86355000D01*
X71855000Y-96515000D02*
X71855000Y-94055000D01*
X70385000Y-96515000D02*
X71855000Y-96515000D01*
X70385000Y-94055000D02*
X70385000Y-96515000D01*
X75665000Y-96515000D02*
X75665000Y-94055000D01*
X74195000Y-96515000D02*
X75665000Y-96515000D01*
X74195000Y-94055000D02*
X74195000Y-96515000D01*
X90905000Y-96515000D02*
X90905000Y-94055000D01*
X89435000Y-96515000D02*
X90905000Y-96515000D01*
X89435000Y-94055000D02*
X89435000Y-96515000D01*
X94715000Y-86355000D02*
X94715000Y-83895000D01*
X93245000Y-86355000D02*
X94715000Y-86355000D01*
X93245000Y-83895000D02*
X93245000Y-86355000D01*
X87095000Y-86355000D02*
X87095000Y-83895000D01*
X85625000Y-86355000D02*
X87095000Y-86355000D01*
X85625000Y-83895000D02*
X85625000Y-86355000D01*
X90905000Y-86355000D02*
X90905000Y-83895000D01*
X89435000Y-86355000D02*
X90905000Y-86355000D01*
X89435000Y-83895000D02*
X89435000Y-86355000D01*
X79475000Y-86355000D02*
X79475000Y-83895000D01*
X78005000Y-86355000D02*
X79475000Y-86355000D01*
X78005000Y-83895000D02*
X78005000Y-86355000D01*
X83285000Y-86355000D02*
X83285000Y-83895000D01*
X81815000Y-86355000D02*
X83285000Y-86355000D01*
X81815000Y-83895000D02*
X81815000Y-86355000D01*
X71855000Y-86355000D02*
X71855000Y-83895000D01*
X70385000Y-86355000D02*
X71855000Y-86355000D01*
X70385000Y-83895000D02*
X70385000Y-86355000D01*
D10*
X176657000Y-46380400D02*
X176657000Y-58674000D01*
X176657000Y-34061400D02*
X176657000Y-41808400D01*
X160909000Y-41808400D02*
X160909000Y-34061400D01*
X160909000Y-46380400D02*
X160909000Y-58674000D01*
X169926000Y-44094400D02*
G75*
G03X169926000Y-44094400I-1143000J0D01*
G01*
X171069000Y-44094400D02*
X174345600Y-44094400D01*
X168783000Y-46380400D02*
X168783000Y-58674000D01*
X166497000Y-44094400D02*
X163195000Y-44094400D01*
X168783000Y-46380400D02*
X168783000Y-45237400D01*
X171069000Y-44094400D02*
X169926000Y-44094400D01*
X168808400Y-34061400D02*
X168808400Y-42951400D01*
X166497000Y-44094400D02*
X167640000Y-44094400D01*
X175514000Y-44094400D02*
X174345600Y-44094400D01*
X176657000Y-46355000D02*
X176657000Y-45262800D01*
X160909000Y-41783000D02*
X160909000Y-42951400D01*
X163220400Y-44094400D02*
X162052000Y-44094400D01*
X160909000Y-46405800D02*
X160909000Y-45212000D01*
X176657000Y-42951400D02*
G75*
G03X175514000Y-44094400I0J-1143000D01*
G01*
X175514000Y-44094400D02*
G75*
G03X176657000Y-45237400I1143000J0D01*
G01*
X176657000Y-42951400D02*
X176657000Y-41732200D01*
X176657000Y-58674000D02*
X160909000Y-58674000D01*
X176657000Y-34036000D02*
X160909000Y-34036000D01*
X162026600Y-44094400D02*
G75*
G03X160909000Y-42976800I-1117600J0D01*
G01*
X160909000Y-45212000D02*
G75*
G03X162026600Y-44094400I0J1117600D01*
G01*
X193167000Y-46355000D02*
X193167000Y-58648600D01*
X193167000Y-34036000D02*
X193167000Y-41783000D01*
X177419000Y-41783000D02*
X177419000Y-34036000D01*
X177419000Y-46355000D02*
X177419000Y-58648600D01*
X186436000Y-44069000D02*
G75*
G03X186436000Y-44069000I-1143000J0D01*
G01*
X187579000Y-44069000D02*
X190855600Y-44069000D01*
X185293000Y-46355000D02*
X185293000Y-58648600D01*
X183007000Y-44069000D02*
X179705000Y-44069000D01*
X185293000Y-46355000D02*
X185293000Y-45212000D01*
X187579000Y-44069000D02*
X186436000Y-44069000D01*
X185318400Y-34036000D02*
X185318400Y-42926000D01*
X183007000Y-44069000D02*
X184150000Y-44069000D01*
X192024000Y-44069000D02*
X190855600Y-44069000D01*
X193167000Y-46329600D02*
X193167000Y-45237400D01*
X177419000Y-41757600D02*
X177419000Y-42926000D01*
X179730400Y-44069000D02*
X178562000Y-44069000D01*
X177419000Y-46380400D02*
X177419000Y-45186600D01*
X193167000Y-42926000D02*
G75*
G03X192024000Y-44069000I0J-1143000D01*
G01*
X192024000Y-44069000D02*
G75*
G03X193167000Y-45212000I1143000J0D01*
G01*
X193167000Y-42926000D02*
X193167000Y-41706800D01*
X193167000Y-58648600D02*
X177419000Y-58648600D01*
X193167000Y-34010600D02*
X177419000Y-34010600D01*
X178536600Y-44069000D02*
G75*
G03X177419000Y-42951400I-1117600J0D01*
G01*
X177419000Y-45186600D02*
G75*
G03X178536600Y-44069000I0J1117600D01*
G01*
X105410000Y-85090000D02*
X105410000Y-80010000D01*
X118110000Y-85090000D02*
X118110000Y-80010000D01*
X105410000Y-80010000D02*
X118110000Y-80010000D01*
X118110000Y-85090000D02*
X105410000Y-85090000D01*
X105410000Y-78486000D02*
X105410000Y-80010000D01*
X118110000Y-80010000D02*
X118110000Y-78486000D01*
X118110000Y-78486000D02*
X105410000Y-78486000D01*
X191109600Y-82677000D02*
X178816000Y-82677000D01*
X203428600Y-82677000D02*
X195681600Y-82677000D01*
X195681600Y-66929000D02*
X203428600Y-66929000D01*
X191109600Y-66929000D02*
X178816000Y-66929000D01*
X194538600Y-74803000D02*
G75*
G03X194538600Y-74803000I-1143000J0D01*
G01*
X193395600Y-77089000D02*
X193395600Y-80365600D01*
X191109600Y-74803000D02*
X178816000Y-74803000D01*
X193395600Y-72517000D02*
X193395600Y-69215000D01*
X191109600Y-74803000D02*
X192252600Y-74803000D01*
X193395600Y-77089000D02*
X193395600Y-75946000D01*
X203428600Y-74828400D02*
X194538600Y-74828400D01*
X193395600Y-72517000D02*
X193395600Y-73660000D01*
X193395600Y-81534000D02*
X193395600Y-80365600D01*
X191135000Y-82677000D02*
X192227200Y-82677000D01*
X195707000Y-66929000D02*
X194538600Y-66929000D01*
X193395600Y-69240400D02*
X193395600Y-68072000D01*
X191084200Y-66929000D02*
X192278000Y-66929000D01*
X194538600Y-82677000D02*
G75*
G03X193395600Y-81534000I-1143000J0D01*
G01*
X193395600Y-81534000D02*
G75*
G03X192252600Y-82677000I0J-1143000D01*
G01*
X194538600Y-82677000D02*
X195757800Y-82677000D01*
X178816000Y-82677000D02*
X178816000Y-66929000D01*
X203454000Y-82677000D02*
X203454000Y-66929000D01*
X193395600Y-68046600D02*
G75*
G03X194513200Y-66929000I0J1117600D01*
G01*
X192278000Y-66929000D02*
G75*
G03X193395600Y-68046600I1117600J0D01*
G01*
X123190000Y-95250000D02*
X123190000Y-90170000D01*
X135890000Y-95250000D02*
X135890000Y-90170000D01*
X123190000Y-90170000D02*
X135890000Y-90170000D01*
X135890000Y-95250000D02*
X123190000Y-95250000D01*
X123190000Y-88646000D02*
X123190000Y-90170000D01*
X135890000Y-90170000D02*
X135890000Y-88646000D01*
X135890000Y-88646000D02*
X123190000Y-88646000D01*
D11*
X156720000Y-78516267D02*
X156720000Y-78173733D01*
X155700000Y-78516267D02*
X155700000Y-78173733D01*
X172943733Y-84330000D02*
X173286267Y-84330000D01*
X172943733Y-83310000D02*
X173286267Y-83310000D01*
X147886267Y-79500000D02*
X147543733Y-79500000D01*
X147886267Y-80520000D02*
X147543733Y-80520000D01*
X166593733Y-80520000D02*
X166936267Y-80520000D01*
X166593733Y-79500000D02*
X166936267Y-79500000D01*
X156164000Y-68982000D02*
X157664000Y-68982000D01*
X157664000Y-68982000D02*
X157664000Y-68712000D01*
X157664000Y-68712000D02*
X160494000Y-68712000D01*
X156164000Y-62082000D02*
X157664000Y-62082000D01*
X157664000Y-62082000D02*
X157664000Y-62352000D01*
X157664000Y-62352000D02*
X158764000Y-62352000D01*
X145270000Y-64765000D02*
X145270000Y-63835000D01*
X145270000Y-61605000D02*
X145270000Y-62535000D01*
X145270000Y-61605000D02*
X143110000Y-61605000D01*
X145270000Y-64765000D02*
X143810000Y-64765000D01*
X163324000Y-67787733D02*
X163324000Y-68130267D01*
X162304000Y-67787733D02*
X162304000Y-68130267D01*
X147205000Y-63088733D02*
X147205000Y-63431267D01*
X148225000Y-63088733D02*
X148225000Y-63431267D01*
X140460000Y-63431267D02*
X140460000Y-63088733D01*
X141480000Y-63431267D02*
X141480000Y-63088733D01*
D10*
X70135714Y-62174380D02*
X69564285Y-62174380D01*
X69850000Y-62174380D02*
X69850000Y-61174380D01*
X69754761Y-61317238D01*
X69659523Y-61412476D01*
X69564285Y-61460095D01*
X131913333Y-72402380D02*
X131580000Y-71926190D01*
X131341904Y-72402380D02*
X131341904Y-71402380D01*
X131722857Y-71402380D01*
X131818095Y-71450000D01*
X131865714Y-71497619D01*
X131913333Y-71592857D01*
X131913333Y-71735714D01*
X131865714Y-71830952D01*
X131818095Y-71878571D01*
X131722857Y-71926190D01*
X131341904Y-71926190D01*
X132246666Y-71402380D02*
X132865714Y-71402380D01*
X132532380Y-71783333D01*
X132675238Y-71783333D01*
X132770476Y-71830952D01*
X132818095Y-71878571D01*
X132865714Y-71973809D01*
X132865714Y-72211904D01*
X132818095Y-72307142D01*
X132770476Y-72354761D01*
X132675238Y-72402380D01*
X132389523Y-72402380D01*
X132294285Y-72354761D01*
X132246666Y-72307142D01*
X81595980Y-71453333D02*
X82310266Y-71453333D01*
X82453123Y-71500952D01*
X82548361Y-71596190D01*
X82595980Y-71739047D01*
X82595980Y-71834285D01*
X82595980Y-70453333D02*
X82595980Y-71024761D01*
X82595980Y-70739047D02*
X81595980Y-70739047D01*
X81738838Y-70834285D01*
X81834076Y-70929523D01*
X81881695Y-71024761D01*
X76769980Y-72175428D02*
X77579504Y-72175428D01*
X77674742Y-72127809D01*
X77722361Y-72080190D01*
X77769980Y-71984952D01*
X77769980Y-71794476D01*
X77722361Y-71699238D01*
X77674742Y-71651619D01*
X77579504Y-71604000D01*
X76769980Y-71604000D01*
X77722361Y-71175428D02*
X77769980Y-71032571D01*
X77769980Y-70794476D01*
X77722361Y-70699238D01*
X77674742Y-70651619D01*
X77579504Y-70604000D01*
X77484266Y-70604000D01*
X77389028Y-70651619D01*
X77341409Y-70699238D01*
X77293790Y-70794476D01*
X77246171Y-70984952D01*
X77198552Y-71080190D01*
X77150933Y-71127809D01*
X77055695Y-71175428D01*
X76960457Y-71175428D01*
X76865219Y-71127809D01*
X76817600Y-71080190D01*
X76769980Y-70984952D01*
X76769980Y-70746857D01*
X76817600Y-70604000D01*
X77246171Y-69842095D02*
X77293790Y-69699238D01*
X77341409Y-69651619D01*
X77436647Y-69604000D01*
X77579504Y-69604000D01*
X77674742Y-69651619D01*
X77722361Y-69699238D01*
X77769980Y-69794476D01*
X77769980Y-70175428D01*
X76769980Y-70175428D01*
X76769980Y-69842095D01*
X76817600Y-69746857D01*
X76865219Y-69699238D01*
X76960457Y-69651619D01*
X77055695Y-69651619D01*
X77150933Y-69699238D01*
X77198552Y-69746857D01*
X77246171Y-69842095D01*
X77246171Y-70175428D01*
X77865219Y-69413523D02*
X77865219Y-68651619D01*
X77484266Y-68461142D02*
X77484266Y-67984952D01*
X77769980Y-68556380D02*
X76769980Y-68223047D01*
X77769980Y-67889714D01*
X81494380Y-73634000D02*
X81732476Y-73634000D01*
X81637238Y-73872095D02*
X81732476Y-73634000D01*
X81637238Y-73395904D01*
X81922952Y-73776857D02*
X81732476Y-73634000D01*
X81922952Y-73491142D01*
X94709880Y-72195904D02*
X95519404Y-72195904D01*
X95614642Y-72148285D01*
X95662261Y-72100666D01*
X95709880Y-72005428D01*
X95709880Y-71814952D01*
X95662261Y-71719714D01*
X95614642Y-71672095D01*
X95519404Y-71624476D01*
X94709880Y-71624476D01*
X95709880Y-70624476D02*
X95709880Y-71195904D01*
X95709880Y-70910190D02*
X94709880Y-70910190D01*
X94852738Y-71005428D01*
X94947976Y-71100666D01*
X94995595Y-71195904D01*
X97147142Y-72682380D02*
X96813809Y-72206190D01*
X96575714Y-72682380D02*
X96575714Y-71682380D01*
X96956666Y-71682380D01*
X97051904Y-71730000D01*
X97099523Y-71777619D01*
X97147142Y-71872857D01*
X97147142Y-72015714D01*
X97099523Y-72110952D01*
X97051904Y-72158571D01*
X96956666Y-72206190D01*
X96575714Y-72206190D01*
X97480476Y-71682380D02*
X98099523Y-71682380D01*
X97766190Y-72063333D01*
X97909047Y-72063333D01*
X98004285Y-72110952D01*
X98051904Y-72158571D01*
X98099523Y-72253809D01*
X98099523Y-72491904D01*
X98051904Y-72587142D01*
X98004285Y-72634761D01*
X97909047Y-72682380D01*
X97623333Y-72682380D01*
X97528095Y-72634761D01*
X97480476Y-72587142D01*
X98956666Y-72015714D02*
X98956666Y-72682380D01*
X98718571Y-71634761D02*
X98480476Y-72349047D01*
X99099523Y-72349047D01*
X96272142Y-68237380D02*
X95938809Y-67761190D01*
X95700714Y-68237380D02*
X95700714Y-67237380D01*
X96081666Y-67237380D01*
X96176904Y-67285000D01*
X96224523Y-67332619D01*
X96272142Y-67427857D01*
X96272142Y-67570714D01*
X96224523Y-67665952D01*
X96176904Y-67713571D01*
X96081666Y-67761190D01*
X95700714Y-67761190D01*
X96605476Y-67237380D02*
X97224523Y-67237380D01*
X96891190Y-67618333D01*
X97034047Y-67618333D01*
X97129285Y-67665952D01*
X97176904Y-67713571D01*
X97224523Y-67808809D01*
X97224523Y-68046904D01*
X97176904Y-68142142D01*
X97129285Y-68189761D01*
X97034047Y-68237380D01*
X96748333Y-68237380D01*
X96653095Y-68189761D01*
X96605476Y-68142142D01*
X97557857Y-67237380D02*
X98176904Y-67237380D01*
X97843571Y-67618333D01*
X97986428Y-67618333D01*
X98081666Y-67665952D01*
X98129285Y-67713571D01*
X98176904Y-67808809D01*
X98176904Y-68046904D01*
X98129285Y-68142142D01*
X98081666Y-68189761D01*
X97986428Y-68237380D01*
X97700714Y-68237380D01*
X97605476Y-68189761D01*
X97557857Y-68142142D01*
X86112142Y-67762380D02*
X85778809Y-67286190D01*
X85540714Y-67762380D02*
X85540714Y-66762380D01*
X85921666Y-66762380D01*
X86016904Y-66810000D01*
X86064523Y-66857619D01*
X86112142Y-66952857D01*
X86112142Y-67095714D01*
X86064523Y-67190952D01*
X86016904Y-67238571D01*
X85921666Y-67286190D01*
X85540714Y-67286190D01*
X86445476Y-66762380D02*
X87064523Y-66762380D01*
X86731190Y-67143333D01*
X86874047Y-67143333D01*
X86969285Y-67190952D01*
X87016904Y-67238571D01*
X87064523Y-67333809D01*
X87064523Y-67571904D01*
X87016904Y-67667142D01*
X86969285Y-67714761D01*
X86874047Y-67762380D01*
X86588333Y-67762380D01*
X86493095Y-67714761D01*
X86445476Y-67667142D01*
X87445476Y-66857619D02*
X87493095Y-66810000D01*
X87588333Y-66762380D01*
X87826428Y-66762380D01*
X87921666Y-66810000D01*
X87969285Y-66857619D01*
X88016904Y-66952857D01*
X88016904Y-67048095D01*
X87969285Y-67190952D01*
X87397857Y-67762380D01*
X88016904Y-67762380D01*
X86112142Y-76177380D02*
X85778809Y-75701190D01*
X85540714Y-76177380D02*
X85540714Y-75177380D01*
X85921666Y-75177380D01*
X86016904Y-75225000D01*
X86064523Y-75272619D01*
X86112142Y-75367857D01*
X86112142Y-75510714D01*
X86064523Y-75605952D01*
X86016904Y-75653571D01*
X85921666Y-75701190D01*
X85540714Y-75701190D01*
X86445476Y-75177380D02*
X87064523Y-75177380D01*
X86731190Y-75558333D01*
X86874047Y-75558333D01*
X86969285Y-75605952D01*
X87016904Y-75653571D01*
X87064523Y-75748809D01*
X87064523Y-75986904D01*
X87016904Y-76082142D01*
X86969285Y-76129761D01*
X86874047Y-76177380D01*
X86588333Y-76177380D01*
X86493095Y-76129761D01*
X86445476Y-76082142D01*
X88016904Y-76177380D02*
X87445476Y-76177380D01*
X87731190Y-76177380D02*
X87731190Y-75177380D01*
X87635952Y-75320238D01*
X87540714Y-75415476D01*
X87445476Y-75463095D01*
X91668333Y-65762142D02*
X91620714Y-65809761D01*
X91477857Y-65857380D01*
X91382619Y-65857380D01*
X91239761Y-65809761D01*
X91144523Y-65714523D01*
X91096904Y-65619285D01*
X91049285Y-65428809D01*
X91049285Y-65285952D01*
X91096904Y-65095476D01*
X91144523Y-65000238D01*
X91239761Y-64905000D01*
X91382619Y-64857380D01*
X91477857Y-64857380D01*
X91620714Y-64905000D01*
X91668333Y-64952619D01*
X92001666Y-64857380D02*
X92620714Y-64857380D01*
X92287380Y-65238333D01*
X92430238Y-65238333D01*
X92525476Y-65285952D01*
X92573095Y-65333571D01*
X92620714Y-65428809D01*
X92620714Y-65666904D01*
X92573095Y-65762142D01*
X92525476Y-65809761D01*
X92430238Y-65857380D01*
X92144523Y-65857380D01*
X92049285Y-65809761D01*
X92001666Y-65762142D01*
X82907142Y-68901666D02*
X82954761Y-68949285D01*
X83002380Y-69092142D01*
X83002380Y-69187380D01*
X82954761Y-69330238D01*
X82859523Y-69425476D01*
X82764285Y-69473095D01*
X82573809Y-69520714D01*
X82430952Y-69520714D01*
X82240476Y-69473095D01*
X82145238Y-69425476D01*
X82050000Y-69330238D01*
X82002380Y-69187380D01*
X82002380Y-69092142D01*
X82050000Y-68949285D01*
X82097619Y-68901666D01*
X82097619Y-68520714D02*
X82050000Y-68473095D01*
X82002380Y-68377857D01*
X82002380Y-68139761D01*
X82050000Y-68044523D01*
X82097619Y-67996904D01*
X82192857Y-67949285D01*
X82288095Y-67949285D01*
X82430952Y-67996904D01*
X83002380Y-68568333D01*
X83002380Y-67949285D01*
X82907142Y-73826666D02*
X82954761Y-73874285D01*
X83002380Y-74017142D01*
X83002380Y-74112380D01*
X82954761Y-74255238D01*
X82859523Y-74350476D01*
X82764285Y-74398095D01*
X82573809Y-74445714D01*
X82430952Y-74445714D01*
X82240476Y-74398095D01*
X82145238Y-74350476D01*
X82050000Y-74255238D01*
X82002380Y-74112380D01*
X82002380Y-74017142D01*
X82050000Y-73874285D01*
X82097619Y-73826666D01*
X83002380Y-72874285D02*
X83002380Y-73445714D01*
X83002380Y-73160000D02*
X82002380Y-73160000D01*
X82145238Y-73255238D01*
X82240476Y-73350476D01*
X82288095Y-73445714D01*
X152273095Y-79462380D02*
X152273095Y-80271904D01*
X152320714Y-80367142D01*
X152368333Y-80414761D01*
X152463571Y-80462380D01*
X152654047Y-80462380D01*
X152749285Y-80414761D01*
X152796904Y-80367142D01*
X152844523Y-80271904D01*
X152844523Y-79462380D01*
X153225476Y-79462380D02*
X153844523Y-79462380D01*
X153511190Y-79843333D01*
X153654047Y-79843333D01*
X153749285Y-79890952D01*
X153796904Y-79938571D01*
X153844523Y-80033809D01*
X153844523Y-80271904D01*
X153796904Y-80367142D01*
X153749285Y-80414761D01*
X153654047Y-80462380D01*
X153368333Y-80462380D01*
X153273095Y-80414761D01*
X153225476Y-80367142D01*
X152836666Y-89622380D02*
X153027142Y-89622380D01*
X153122380Y-89670000D01*
X153217619Y-89765238D01*
X153265238Y-89955714D01*
X153265238Y-90289047D01*
X153217619Y-90479523D01*
X153122380Y-90574761D01*
X153027142Y-90622380D01*
X152836666Y-90622380D01*
X152741428Y-90574761D01*
X152646190Y-90479523D01*
X152598571Y-90289047D01*
X152598571Y-89955714D01*
X152646190Y-89765238D01*
X152741428Y-89670000D01*
X152836666Y-89622380D01*
X153693809Y-90622380D02*
X153693809Y-89622380D01*
X154265238Y-90622380D02*
X153836666Y-90050952D01*
X154265238Y-89622380D02*
X153693809Y-90193809D01*
X154693809Y-90622380D02*
X154693809Y-89622380D01*
X128722380Y-82716666D02*
X128246190Y-83050000D01*
X128722380Y-83288095D02*
X127722380Y-83288095D01*
X127722380Y-82907142D01*
X127770000Y-82811904D01*
X127817619Y-82764285D01*
X127912857Y-82716666D01*
X128055714Y-82716666D01*
X128150952Y-82764285D01*
X128198571Y-82811904D01*
X128246190Y-82907142D01*
X128246190Y-83288095D01*
X127817619Y-82335714D02*
X127770000Y-82288095D01*
X127722380Y-82192857D01*
X127722380Y-81954761D01*
X127770000Y-81859523D01*
X127817619Y-81811904D01*
X127912857Y-81764285D01*
X128008095Y-81764285D01*
X128150952Y-81811904D01*
X128722380Y-82383333D01*
X128722380Y-81764285D01*
X123094761Y-80557619D02*
X122999523Y-80510000D01*
X122904285Y-80414761D01*
X122761428Y-80271904D01*
X122666190Y-80224285D01*
X122570952Y-80224285D01*
X122618571Y-80462380D02*
X122523333Y-80414761D01*
X122428095Y-80319523D01*
X122380476Y-80129047D01*
X122380476Y-79795714D01*
X122428095Y-79605238D01*
X122523333Y-79510000D01*
X122618571Y-79462380D01*
X122809047Y-79462380D01*
X122904285Y-79510000D01*
X122999523Y-79605238D01*
X123047142Y-79795714D01*
X123047142Y-80129047D01*
X122999523Y-80319523D01*
X122904285Y-80414761D01*
X122809047Y-80462380D01*
X122618571Y-80462380D01*
X123428095Y-79557619D02*
X123475714Y-79510000D01*
X123570952Y-79462380D01*
X123809047Y-79462380D01*
X123904285Y-79510000D01*
X123951904Y-79557619D01*
X123999523Y-79652857D01*
X123999523Y-79748095D01*
X123951904Y-79890952D01*
X123380476Y-80462380D01*
X123999523Y-80462380D01*
X161798095Y-79462380D02*
X161798095Y-80271904D01*
X161845714Y-80367142D01*
X161893333Y-80414761D01*
X161988571Y-80462380D01*
X162179047Y-80462380D01*
X162274285Y-80414761D01*
X162321904Y-80367142D01*
X162369523Y-80271904D01*
X162369523Y-79462380D01*
X162798095Y-79557619D02*
X162845714Y-79510000D01*
X162940952Y-79462380D01*
X163179047Y-79462380D01*
X163274285Y-79510000D01*
X163321904Y-79557619D01*
X163369523Y-79652857D01*
X163369523Y-79748095D01*
X163321904Y-79890952D01*
X162750476Y-80462380D01*
X163369523Y-80462380D01*
X164266666Y-89622380D02*
X164457142Y-89622380D01*
X164552380Y-89670000D01*
X164647619Y-89765238D01*
X164695238Y-89955714D01*
X164695238Y-90289047D01*
X164647619Y-90479523D01*
X164552380Y-90574761D01*
X164457142Y-90622380D01*
X164266666Y-90622380D01*
X164171428Y-90574761D01*
X164076190Y-90479523D01*
X164028571Y-90289047D01*
X164028571Y-89955714D01*
X164076190Y-89765238D01*
X164171428Y-89670000D01*
X164266666Y-89622380D01*
X165123809Y-90622380D02*
X165123809Y-89622380D01*
X165695238Y-90622380D02*
X165266666Y-90050952D01*
X165695238Y-89622380D02*
X165123809Y-90193809D01*
X166123809Y-90622380D02*
X166123809Y-89622380D01*
X121102380Y-77717857D02*
X120626190Y-78051190D01*
X121102380Y-78289285D02*
X120102380Y-78289285D01*
X120102380Y-77908333D01*
X120150000Y-77813095D01*
X120197619Y-77765476D01*
X120292857Y-77717857D01*
X120435714Y-77717857D01*
X120530952Y-77765476D01*
X120578571Y-77813095D01*
X120626190Y-77908333D01*
X120626190Y-78289285D01*
X120197619Y-77336904D02*
X120150000Y-77289285D01*
X120102380Y-77194047D01*
X120102380Y-76955952D01*
X120150000Y-76860714D01*
X120197619Y-76813095D01*
X120292857Y-76765476D01*
X120388095Y-76765476D01*
X120530952Y-76813095D01*
X121102380Y-77384523D01*
X121102380Y-76765476D01*
X120102380Y-76432142D02*
X120102380Y-75765476D01*
X121102380Y-76194047D01*
X146502380Y-92082857D02*
X146026190Y-92416190D01*
X146502380Y-92654285D02*
X145502380Y-92654285D01*
X145502380Y-92273333D01*
X145550000Y-92178095D01*
X145597619Y-92130476D01*
X145692857Y-92082857D01*
X145835714Y-92082857D01*
X145930952Y-92130476D01*
X145978571Y-92178095D01*
X146026190Y-92273333D01*
X146026190Y-92654285D01*
X145597619Y-91701904D02*
X145550000Y-91654285D01*
X145502380Y-91559047D01*
X145502380Y-91320952D01*
X145550000Y-91225714D01*
X145597619Y-91178095D01*
X145692857Y-91130476D01*
X145788095Y-91130476D01*
X145930952Y-91178095D01*
X146502380Y-91749523D01*
X146502380Y-91130476D01*
X145502380Y-90273333D02*
X145502380Y-90463809D01*
X145550000Y-90559047D01*
X145597619Y-90606666D01*
X145740476Y-90701904D01*
X145930952Y-90749523D01*
X146311904Y-90749523D01*
X146407142Y-90701904D01*
X146454761Y-90654285D01*
X146502380Y-90559047D01*
X146502380Y-90368571D01*
X146454761Y-90273333D01*
X146407142Y-90225714D01*
X146311904Y-90178095D01*
X146073809Y-90178095D01*
X145978571Y-90225714D01*
X145930952Y-90273333D01*
X145883333Y-90368571D01*
X145883333Y-90559047D01*
X145930952Y-90654285D01*
X145978571Y-90701904D01*
X146073809Y-90749523D01*
X128722380Y-76842857D02*
X128246190Y-77176190D01*
X128722380Y-77414285D02*
X127722380Y-77414285D01*
X127722380Y-77033333D01*
X127770000Y-76938095D01*
X127817619Y-76890476D01*
X127912857Y-76842857D01*
X128055714Y-76842857D01*
X128150952Y-76890476D01*
X128198571Y-76938095D01*
X128246190Y-77033333D01*
X128246190Y-77414285D01*
X127817619Y-76461904D02*
X127770000Y-76414285D01*
X127722380Y-76319047D01*
X127722380Y-76080952D01*
X127770000Y-75985714D01*
X127817619Y-75938095D01*
X127912857Y-75890476D01*
X128008095Y-75890476D01*
X128150952Y-75938095D01*
X128722380Y-76509523D01*
X128722380Y-75890476D01*
X127722380Y-74985714D02*
X127722380Y-75461904D01*
X128198571Y-75509523D01*
X128150952Y-75461904D01*
X128103333Y-75366666D01*
X128103333Y-75128571D01*
X128150952Y-75033333D01*
X128198571Y-74985714D01*
X128293809Y-74938095D01*
X128531904Y-74938095D01*
X128627142Y-74985714D01*
X128674761Y-75033333D01*
X128722380Y-75128571D01*
X128722380Y-75366666D01*
X128674761Y-75461904D01*
X128627142Y-75509523D01*
X85542380Y-91687857D02*
X85066190Y-92021190D01*
X85542380Y-92259285D02*
X84542380Y-92259285D01*
X84542380Y-91878333D01*
X84590000Y-91783095D01*
X84637619Y-91735476D01*
X84732857Y-91687857D01*
X84875714Y-91687857D01*
X84970952Y-91735476D01*
X85018571Y-91783095D01*
X85066190Y-91878333D01*
X85066190Y-92259285D01*
X84637619Y-91306904D02*
X84590000Y-91259285D01*
X84542380Y-91164047D01*
X84542380Y-90925952D01*
X84590000Y-90830714D01*
X84637619Y-90783095D01*
X84732857Y-90735476D01*
X84828095Y-90735476D01*
X84970952Y-90783095D01*
X85542380Y-91354523D01*
X85542380Y-90735476D01*
X84875714Y-89878333D02*
X85542380Y-89878333D01*
X84494761Y-90116428D02*
X85209047Y-90354523D01*
X85209047Y-89735476D01*
X77922380Y-91687857D02*
X77446190Y-92021190D01*
X77922380Y-92259285D02*
X76922380Y-92259285D01*
X76922380Y-91878333D01*
X76970000Y-91783095D01*
X77017619Y-91735476D01*
X77112857Y-91687857D01*
X77255714Y-91687857D01*
X77350952Y-91735476D01*
X77398571Y-91783095D01*
X77446190Y-91878333D01*
X77446190Y-92259285D01*
X77017619Y-91306904D02*
X76970000Y-91259285D01*
X76922380Y-91164047D01*
X76922380Y-90925952D01*
X76970000Y-90830714D01*
X77017619Y-90783095D01*
X77112857Y-90735476D01*
X77208095Y-90735476D01*
X77350952Y-90783095D01*
X77922380Y-91354523D01*
X77922380Y-90735476D01*
X76922380Y-90402142D02*
X76922380Y-89783095D01*
X77303333Y-90116428D01*
X77303333Y-89973571D01*
X77350952Y-89878333D01*
X77398571Y-89830714D01*
X77493809Y-89783095D01*
X77731904Y-89783095D01*
X77827142Y-89830714D01*
X77874761Y-89878333D01*
X77922380Y-89973571D01*
X77922380Y-90259285D01*
X77874761Y-90354523D01*
X77827142Y-90402142D01*
X74112380Y-81527857D02*
X73636190Y-81861190D01*
X74112380Y-82099285D02*
X73112380Y-82099285D01*
X73112380Y-81718333D01*
X73160000Y-81623095D01*
X73207619Y-81575476D01*
X73302857Y-81527857D01*
X73445714Y-81527857D01*
X73540952Y-81575476D01*
X73588571Y-81623095D01*
X73636190Y-81718333D01*
X73636190Y-82099285D01*
X73207619Y-81146904D02*
X73160000Y-81099285D01*
X73112380Y-81004047D01*
X73112380Y-80765952D01*
X73160000Y-80670714D01*
X73207619Y-80623095D01*
X73302857Y-80575476D01*
X73398095Y-80575476D01*
X73540952Y-80623095D01*
X74112380Y-81194523D01*
X74112380Y-80575476D01*
X73207619Y-80194523D02*
X73160000Y-80146904D01*
X73112380Y-80051666D01*
X73112380Y-79813571D01*
X73160000Y-79718333D01*
X73207619Y-79670714D01*
X73302857Y-79623095D01*
X73398095Y-79623095D01*
X73540952Y-79670714D01*
X74112380Y-80242142D01*
X74112380Y-79623095D01*
X138882380Y-89542857D02*
X138406190Y-89876190D01*
X138882380Y-90114285D02*
X137882380Y-90114285D01*
X137882380Y-89733333D01*
X137930000Y-89638095D01*
X137977619Y-89590476D01*
X138072857Y-89542857D01*
X138215714Y-89542857D01*
X138310952Y-89590476D01*
X138358571Y-89638095D01*
X138406190Y-89733333D01*
X138406190Y-90114285D01*
X137977619Y-89161904D02*
X137930000Y-89114285D01*
X137882380Y-89019047D01*
X137882380Y-88780952D01*
X137930000Y-88685714D01*
X137977619Y-88638095D01*
X138072857Y-88590476D01*
X138168095Y-88590476D01*
X138310952Y-88638095D01*
X138882380Y-89209523D01*
X138882380Y-88590476D01*
X138882380Y-87638095D02*
X138882380Y-88209523D01*
X138882380Y-87923809D02*
X137882380Y-87923809D01*
X138025238Y-88019047D01*
X138120476Y-88114285D01*
X138168095Y-88209523D01*
X96972380Y-81527857D02*
X96496190Y-81861190D01*
X96972380Y-82099285D02*
X95972380Y-82099285D01*
X95972380Y-81718333D01*
X96020000Y-81623095D01*
X96067619Y-81575476D01*
X96162857Y-81527857D01*
X96305714Y-81527857D01*
X96400952Y-81575476D01*
X96448571Y-81623095D01*
X96496190Y-81718333D01*
X96496190Y-82099285D01*
X96972380Y-80575476D02*
X96972380Y-81146904D01*
X96972380Y-80861190D02*
X95972380Y-80861190D01*
X96115238Y-80956428D01*
X96210476Y-81051666D01*
X96258095Y-81146904D01*
X95972380Y-80242142D02*
X95972380Y-79575476D01*
X96972380Y-80004047D01*
X70302380Y-91687857D02*
X69826190Y-92021190D01*
X70302380Y-92259285D02*
X69302380Y-92259285D01*
X69302380Y-91878333D01*
X69350000Y-91783095D01*
X69397619Y-91735476D01*
X69492857Y-91687857D01*
X69635714Y-91687857D01*
X69730952Y-91735476D01*
X69778571Y-91783095D01*
X69826190Y-91878333D01*
X69826190Y-92259285D01*
X70302380Y-90735476D02*
X70302380Y-91306904D01*
X70302380Y-91021190D02*
X69302380Y-91021190D01*
X69445238Y-91116428D01*
X69540476Y-91211666D01*
X69588095Y-91306904D01*
X69302380Y-89878333D02*
X69302380Y-90068809D01*
X69350000Y-90164047D01*
X69397619Y-90211666D01*
X69540476Y-90306904D01*
X69730952Y-90354523D01*
X70111904Y-90354523D01*
X70207142Y-90306904D01*
X70254761Y-90259285D01*
X70302380Y-90164047D01*
X70302380Y-89973571D01*
X70254761Y-89878333D01*
X70207142Y-89830714D01*
X70111904Y-89783095D01*
X69873809Y-89783095D01*
X69778571Y-89830714D01*
X69730952Y-89878333D01*
X69683333Y-89973571D01*
X69683333Y-90164047D01*
X69730952Y-90259285D01*
X69778571Y-90306904D01*
X69873809Y-90354523D01*
X74112380Y-91687857D02*
X73636190Y-92021190D01*
X74112380Y-92259285D02*
X73112380Y-92259285D01*
X73112380Y-91878333D01*
X73160000Y-91783095D01*
X73207619Y-91735476D01*
X73302857Y-91687857D01*
X73445714Y-91687857D01*
X73540952Y-91735476D01*
X73588571Y-91783095D01*
X73636190Y-91878333D01*
X73636190Y-92259285D01*
X74112380Y-90735476D02*
X74112380Y-91306904D01*
X74112380Y-91021190D02*
X73112380Y-91021190D01*
X73255238Y-91116428D01*
X73350476Y-91211666D01*
X73398095Y-91306904D01*
X73112380Y-89830714D02*
X73112380Y-90306904D01*
X73588571Y-90354523D01*
X73540952Y-90306904D01*
X73493333Y-90211666D01*
X73493333Y-89973571D01*
X73540952Y-89878333D01*
X73588571Y-89830714D01*
X73683809Y-89783095D01*
X73921904Y-89783095D01*
X74017142Y-89830714D01*
X74064761Y-89878333D01*
X74112380Y-89973571D01*
X74112380Y-90211666D01*
X74064761Y-90306904D01*
X74017142Y-90354523D01*
X89352380Y-91687857D02*
X88876190Y-92021190D01*
X89352380Y-92259285D02*
X88352380Y-92259285D01*
X88352380Y-91878333D01*
X88400000Y-91783095D01*
X88447619Y-91735476D01*
X88542857Y-91687857D01*
X88685714Y-91687857D01*
X88780952Y-91735476D01*
X88828571Y-91783095D01*
X88876190Y-91878333D01*
X88876190Y-92259285D01*
X89352380Y-90735476D02*
X89352380Y-91306904D01*
X89352380Y-91021190D02*
X88352380Y-91021190D01*
X88495238Y-91116428D01*
X88590476Y-91211666D01*
X88638095Y-91306904D01*
X88685714Y-89878333D02*
X89352380Y-89878333D01*
X88304761Y-90116428D02*
X89019047Y-90354523D01*
X89019047Y-89735476D01*
X93162380Y-81527857D02*
X92686190Y-81861190D01*
X93162380Y-82099285D02*
X92162380Y-82099285D01*
X92162380Y-81718333D01*
X92210000Y-81623095D01*
X92257619Y-81575476D01*
X92352857Y-81527857D01*
X92495714Y-81527857D01*
X92590952Y-81575476D01*
X92638571Y-81623095D01*
X92686190Y-81718333D01*
X92686190Y-82099285D01*
X93162380Y-80575476D02*
X93162380Y-81146904D01*
X93162380Y-80861190D02*
X92162380Y-80861190D01*
X92305238Y-80956428D01*
X92400476Y-81051666D01*
X92448095Y-81146904D01*
X92162380Y-80242142D02*
X92162380Y-79623095D01*
X92543333Y-79956428D01*
X92543333Y-79813571D01*
X92590952Y-79718333D01*
X92638571Y-79670714D01*
X92733809Y-79623095D01*
X92971904Y-79623095D01*
X93067142Y-79670714D01*
X93114761Y-79718333D01*
X93162380Y-79813571D01*
X93162380Y-80099285D01*
X93114761Y-80194523D01*
X93067142Y-80242142D01*
X85542380Y-81527857D02*
X85066190Y-81861190D01*
X85542380Y-82099285D02*
X84542380Y-82099285D01*
X84542380Y-81718333D01*
X84590000Y-81623095D01*
X84637619Y-81575476D01*
X84732857Y-81527857D01*
X84875714Y-81527857D01*
X84970952Y-81575476D01*
X85018571Y-81623095D01*
X85066190Y-81718333D01*
X85066190Y-82099285D01*
X85542380Y-80575476D02*
X85542380Y-81146904D01*
X85542380Y-80861190D02*
X84542380Y-80861190D01*
X84685238Y-80956428D01*
X84780476Y-81051666D01*
X84828095Y-81146904D01*
X84637619Y-80194523D02*
X84590000Y-80146904D01*
X84542380Y-80051666D01*
X84542380Y-79813571D01*
X84590000Y-79718333D01*
X84637619Y-79670714D01*
X84732857Y-79623095D01*
X84828095Y-79623095D01*
X84970952Y-79670714D01*
X85542380Y-80242142D01*
X85542380Y-79623095D01*
X89352380Y-81527857D02*
X88876190Y-81861190D01*
X89352380Y-82099285D02*
X88352380Y-82099285D01*
X88352380Y-81718333D01*
X88400000Y-81623095D01*
X88447619Y-81575476D01*
X88542857Y-81527857D01*
X88685714Y-81527857D01*
X88780952Y-81575476D01*
X88828571Y-81623095D01*
X88876190Y-81718333D01*
X88876190Y-82099285D01*
X89352380Y-80575476D02*
X89352380Y-81146904D01*
X89352380Y-80861190D02*
X88352380Y-80861190D01*
X88495238Y-80956428D01*
X88590476Y-81051666D01*
X88638095Y-81146904D01*
X89352380Y-79623095D02*
X89352380Y-80194523D01*
X89352380Y-79908809D02*
X88352380Y-79908809D01*
X88495238Y-80004047D01*
X88590476Y-80099285D01*
X88638095Y-80194523D01*
X77922380Y-81527857D02*
X77446190Y-81861190D01*
X77922380Y-82099285D02*
X76922380Y-82099285D01*
X76922380Y-81718333D01*
X76970000Y-81623095D01*
X77017619Y-81575476D01*
X77112857Y-81527857D01*
X77255714Y-81527857D01*
X77350952Y-81575476D01*
X77398571Y-81623095D01*
X77446190Y-81718333D01*
X77446190Y-82099285D01*
X77922380Y-80575476D02*
X77922380Y-81146904D01*
X77922380Y-80861190D02*
X76922380Y-80861190D01*
X77065238Y-80956428D01*
X77160476Y-81051666D01*
X77208095Y-81146904D01*
X76922380Y-79956428D02*
X76922380Y-79861190D01*
X76970000Y-79765952D01*
X77017619Y-79718333D01*
X77112857Y-79670714D01*
X77303333Y-79623095D01*
X77541428Y-79623095D01*
X77731904Y-79670714D01*
X77827142Y-79718333D01*
X77874761Y-79765952D01*
X77922380Y-79861190D01*
X77922380Y-79956428D01*
X77874761Y-80051666D01*
X77827142Y-80099285D01*
X77731904Y-80146904D01*
X77541428Y-80194523D01*
X77303333Y-80194523D01*
X77112857Y-80146904D01*
X77017619Y-80099285D01*
X76970000Y-80051666D01*
X76922380Y-79956428D01*
X81732380Y-81051666D02*
X81256190Y-81385000D01*
X81732380Y-81623095D02*
X80732380Y-81623095D01*
X80732380Y-81242142D01*
X80780000Y-81146904D01*
X80827619Y-81099285D01*
X80922857Y-81051666D01*
X81065714Y-81051666D01*
X81160952Y-81099285D01*
X81208571Y-81146904D01*
X81256190Y-81242142D01*
X81256190Y-81623095D01*
X81732380Y-80575476D02*
X81732380Y-80385000D01*
X81684761Y-80289761D01*
X81637142Y-80242142D01*
X81494285Y-80146904D01*
X81303809Y-80099285D01*
X80922857Y-80099285D01*
X80827619Y-80146904D01*
X80780000Y-80194523D01*
X80732380Y-80289761D01*
X80732380Y-80480238D01*
X80780000Y-80575476D01*
X80827619Y-80623095D01*
X80922857Y-80670714D01*
X81160952Y-80670714D01*
X81256190Y-80623095D01*
X81303809Y-80575476D01*
X81351428Y-80480238D01*
X81351428Y-80289761D01*
X81303809Y-80194523D01*
X81256190Y-80146904D01*
X81160952Y-80099285D01*
X70302380Y-81051666D02*
X69826190Y-81385000D01*
X70302380Y-81623095D02*
X69302380Y-81623095D01*
X69302380Y-81242142D01*
X69350000Y-81146904D01*
X69397619Y-81099285D01*
X69492857Y-81051666D01*
X69635714Y-81051666D01*
X69730952Y-81099285D01*
X69778571Y-81146904D01*
X69826190Y-81242142D01*
X69826190Y-81623095D01*
X69730952Y-80480238D02*
X69683333Y-80575476D01*
X69635714Y-80623095D01*
X69540476Y-80670714D01*
X69492857Y-80670714D01*
X69397619Y-80623095D01*
X69350000Y-80575476D01*
X69302380Y-80480238D01*
X69302380Y-80289761D01*
X69350000Y-80194523D01*
X69397619Y-80146904D01*
X69492857Y-80099285D01*
X69540476Y-80099285D01*
X69635714Y-80146904D01*
X69683333Y-80194523D01*
X69730952Y-80289761D01*
X69730952Y-80480238D01*
X69778571Y-80575476D01*
X69826190Y-80623095D01*
X69921428Y-80670714D01*
X70111904Y-80670714D01*
X70207142Y-80623095D01*
X70254761Y-80575476D01*
X70302380Y-80480238D01*
X70302380Y-80289761D01*
X70254761Y-80194523D01*
X70207142Y-80146904D01*
X70111904Y-80099285D01*
X69921428Y-80099285D01*
X69826190Y-80146904D01*
X69778571Y-80194523D01*
X69730952Y-80289761D01*
X81732380Y-91211666D02*
X81256190Y-91545000D01*
X81732380Y-91783095D02*
X80732380Y-91783095D01*
X80732380Y-91402142D01*
X80780000Y-91306904D01*
X80827619Y-91259285D01*
X80922857Y-91211666D01*
X81065714Y-91211666D01*
X81160952Y-91259285D01*
X81208571Y-91306904D01*
X81256190Y-91402142D01*
X81256190Y-91783095D01*
X80732380Y-90878333D02*
X80732380Y-90211666D01*
X81732380Y-90640238D01*
X121102380Y-81841666D02*
X120626190Y-82175000D01*
X121102380Y-82413095D02*
X120102380Y-82413095D01*
X120102380Y-82032142D01*
X120150000Y-81936904D01*
X120197619Y-81889285D01*
X120292857Y-81841666D01*
X120435714Y-81841666D01*
X120530952Y-81889285D01*
X120578571Y-81936904D01*
X120626190Y-82032142D01*
X120626190Y-82413095D01*
X120102380Y-80984523D02*
X120102380Y-81175000D01*
X120150000Y-81270238D01*
X120197619Y-81317857D01*
X120340476Y-81413095D01*
X120530952Y-81460714D01*
X120911904Y-81460714D01*
X121007142Y-81413095D01*
X121054761Y-81365476D01*
X121102380Y-81270238D01*
X121102380Y-81079761D01*
X121054761Y-80984523D01*
X121007142Y-80936904D01*
X120911904Y-80889285D01*
X120673809Y-80889285D01*
X120578571Y-80936904D01*
X120530952Y-80984523D01*
X120483333Y-81079761D01*
X120483333Y-81270238D01*
X120530952Y-81365476D01*
X120578571Y-81413095D01*
X120673809Y-81460714D01*
X146502380Y-96686666D02*
X146026190Y-97020000D01*
X146502380Y-97258095D02*
X145502380Y-97258095D01*
X145502380Y-96877142D01*
X145550000Y-96781904D01*
X145597619Y-96734285D01*
X145692857Y-96686666D01*
X145835714Y-96686666D01*
X145930952Y-96734285D01*
X145978571Y-96781904D01*
X146026190Y-96877142D01*
X146026190Y-97258095D01*
X145502380Y-95781904D02*
X145502380Y-96258095D01*
X145978571Y-96305714D01*
X145930952Y-96258095D01*
X145883333Y-96162857D01*
X145883333Y-95924761D01*
X145930952Y-95829523D01*
X145978571Y-95781904D01*
X146073809Y-95734285D01*
X146311904Y-95734285D01*
X146407142Y-95781904D01*
X146454761Y-95829523D01*
X146502380Y-95924761D01*
X146502380Y-96162857D01*
X146454761Y-96258095D01*
X146407142Y-96305714D01*
X138882380Y-95416666D02*
X138406190Y-95750000D01*
X138882380Y-95988095D02*
X137882380Y-95988095D01*
X137882380Y-95607142D01*
X137930000Y-95511904D01*
X137977619Y-95464285D01*
X138072857Y-95416666D01*
X138215714Y-95416666D01*
X138310952Y-95464285D01*
X138358571Y-95511904D01*
X138406190Y-95607142D01*
X138406190Y-95988095D01*
X138882380Y-94464285D02*
X138882380Y-95035714D01*
X138882380Y-94750000D02*
X137882380Y-94750000D01*
X138025238Y-94845238D01*
X138120476Y-94940476D01*
X138168095Y-95035714D01*
X123094761Y-74207619D02*
X122999523Y-74160000D01*
X122904285Y-74064761D01*
X122761428Y-73921904D01*
X122666190Y-73874285D01*
X122570952Y-73874285D01*
X122618571Y-74112380D02*
X122523333Y-74064761D01*
X122428095Y-73969523D01*
X122380476Y-73779047D01*
X122380476Y-73445714D01*
X122428095Y-73255238D01*
X122523333Y-73160000D01*
X122618571Y-73112380D01*
X122809047Y-73112380D01*
X122904285Y-73160000D01*
X122999523Y-73255238D01*
X123047142Y-73445714D01*
X123047142Y-73779047D01*
X122999523Y-73969523D01*
X122904285Y-74064761D01*
X122809047Y-74112380D01*
X122618571Y-74112380D01*
X123904285Y-73445714D02*
X123904285Y-74112380D01*
X123666190Y-73064761D02*
X123428095Y-73779047D01*
X124047142Y-73779047D01*
X143414761Y-86907619D02*
X143319523Y-86860000D01*
X143224285Y-86764761D01*
X143081428Y-86621904D01*
X142986190Y-86574285D01*
X142890952Y-86574285D01*
X142938571Y-86812380D02*
X142843333Y-86764761D01*
X142748095Y-86669523D01*
X142700476Y-86479047D01*
X142700476Y-86145714D01*
X142748095Y-85955238D01*
X142843333Y-85860000D01*
X142938571Y-85812380D01*
X143129047Y-85812380D01*
X143224285Y-85860000D01*
X143319523Y-85955238D01*
X143367142Y-86145714D01*
X143367142Y-86479047D01*
X143319523Y-86669523D01*
X143224285Y-86764761D01*
X143129047Y-86812380D01*
X142938571Y-86812380D01*
X143700476Y-85812380D02*
X144319523Y-85812380D01*
X143986190Y-86193333D01*
X144129047Y-86193333D01*
X144224285Y-86240952D01*
X144271904Y-86288571D01*
X144319523Y-86383809D01*
X144319523Y-86621904D01*
X144271904Y-86717142D01*
X144224285Y-86764761D01*
X144129047Y-86812380D01*
X143843333Y-86812380D01*
X143748095Y-86764761D01*
X143700476Y-86717142D01*
X143414761Y-93297619D02*
X143319523Y-93250000D01*
X143224285Y-93154761D01*
X143081428Y-93011904D01*
X142986190Y-92964285D01*
X142890952Y-92964285D01*
X142938571Y-93202380D02*
X142843333Y-93154761D01*
X142748095Y-93059523D01*
X142700476Y-92869047D01*
X142700476Y-92535714D01*
X142748095Y-92345238D01*
X142843333Y-92250000D01*
X142938571Y-92202380D01*
X143129047Y-92202380D01*
X143224285Y-92250000D01*
X143319523Y-92345238D01*
X143367142Y-92535714D01*
X143367142Y-92869047D01*
X143319523Y-93059523D01*
X143224285Y-93154761D01*
X143129047Y-93202380D01*
X142938571Y-93202380D01*
X144319523Y-93202380D02*
X143748095Y-93202380D01*
X144033809Y-93202380D02*
X144033809Y-92202380D01*
X143938571Y-92345238D01*
X143843333Y-92440476D01*
X143748095Y-92488095D01*
X88082380Y-96069285D02*
X87082380Y-96069285D01*
X87082380Y-95831190D01*
X87130000Y-95688333D01*
X87225238Y-95593095D01*
X87320476Y-95545476D01*
X87510952Y-95497857D01*
X87653809Y-95497857D01*
X87844285Y-95545476D01*
X87939523Y-95593095D01*
X88034761Y-95688333D01*
X88082380Y-95831190D01*
X88082380Y-96069285D01*
X88082380Y-94545476D02*
X88082380Y-95116904D01*
X88082380Y-94831190D02*
X87082380Y-94831190D01*
X87225238Y-94926428D01*
X87320476Y-95021666D01*
X87368095Y-95116904D01*
X87510952Y-93974047D02*
X87463333Y-94069285D01*
X87415714Y-94116904D01*
X87320476Y-94164523D01*
X87272857Y-94164523D01*
X87177619Y-94116904D01*
X87130000Y-94069285D01*
X87082380Y-93974047D01*
X87082380Y-93783571D01*
X87130000Y-93688333D01*
X87177619Y-93640714D01*
X87272857Y-93593095D01*
X87320476Y-93593095D01*
X87415714Y-93640714D01*
X87463333Y-93688333D01*
X87510952Y-93783571D01*
X87510952Y-93974047D01*
X87558571Y-94069285D01*
X87606190Y-94116904D01*
X87701428Y-94164523D01*
X87891904Y-94164523D01*
X87987142Y-94116904D01*
X88034761Y-94069285D01*
X88082380Y-93974047D01*
X88082380Y-93783571D01*
X88034761Y-93688333D01*
X87987142Y-93640714D01*
X87891904Y-93593095D01*
X87701428Y-93593095D01*
X87606190Y-93640714D01*
X87558571Y-93688333D01*
X87510952Y-93783571D01*
D14*
X85406666Y-95065000D02*
X85406666Y-95398333D01*
X84706666Y-95398333D01*
X85040000Y-94831666D02*
X85040000Y-94598333D01*
X85406666Y-94498333D02*
X85406666Y-94831666D01*
X84706666Y-94831666D01*
X84706666Y-94498333D01*
X85406666Y-94198333D02*
X84706666Y-94198333D01*
X84706666Y-94031666D01*
X84740000Y-93931666D01*
X84806666Y-93865000D01*
X84873333Y-93831666D01*
X85006666Y-93798333D01*
X85106666Y-93798333D01*
X85240000Y-93831666D01*
X85306666Y-93865000D01*
X85373333Y-93931666D01*
X85406666Y-94031666D01*
X85406666Y-94198333D01*
D10*
X80462380Y-96069285D02*
X79462380Y-96069285D01*
X79462380Y-95831190D01*
X79510000Y-95688333D01*
X79605238Y-95593095D01*
X79700476Y-95545476D01*
X79890952Y-95497857D01*
X80033809Y-95497857D01*
X80224285Y-95545476D01*
X80319523Y-95593095D01*
X80414761Y-95688333D01*
X80462380Y-95831190D01*
X80462380Y-96069285D01*
X80462380Y-94545476D02*
X80462380Y-95116904D01*
X80462380Y-94831190D02*
X79462380Y-94831190D01*
X79605238Y-94926428D01*
X79700476Y-95021666D01*
X79748095Y-95116904D01*
X79462380Y-94212142D02*
X79462380Y-93545476D01*
X80462380Y-93974047D01*
D14*
X77786666Y-95700000D02*
X77786666Y-96033333D01*
X77086666Y-96033333D01*
X77420000Y-95466666D02*
X77420000Y-95233333D01*
X77786666Y-95133333D02*
X77786666Y-95466666D01*
X77086666Y-95466666D01*
X77086666Y-95133333D01*
X77786666Y-94833333D02*
X77086666Y-94833333D01*
X77086666Y-94666666D01*
X77120000Y-94566666D01*
X77186666Y-94500000D01*
X77253333Y-94466666D01*
X77386666Y-94433333D01*
X77486666Y-94433333D01*
X77620000Y-94466666D01*
X77686666Y-94500000D01*
X77753333Y-94566666D01*
X77786666Y-94666666D01*
X77786666Y-94833333D01*
D10*
X84272380Y-96069285D02*
X83272380Y-96069285D01*
X83272380Y-95831190D01*
X83320000Y-95688333D01*
X83415238Y-95593095D01*
X83510476Y-95545476D01*
X83700952Y-95497857D01*
X83843809Y-95497857D01*
X84034285Y-95545476D01*
X84129523Y-95593095D01*
X84224761Y-95688333D01*
X84272380Y-95831190D01*
X84272380Y-96069285D01*
X84272380Y-94545476D02*
X84272380Y-95116904D01*
X84272380Y-94831190D02*
X83272380Y-94831190D01*
X83415238Y-94926428D01*
X83510476Y-95021666D01*
X83558095Y-95116904D01*
X83272380Y-93688333D02*
X83272380Y-93878809D01*
X83320000Y-93974047D01*
X83367619Y-94021666D01*
X83510476Y-94116904D01*
X83700952Y-94164523D01*
X84081904Y-94164523D01*
X84177142Y-94116904D01*
X84224761Y-94069285D01*
X84272380Y-93974047D01*
X84272380Y-93783571D01*
X84224761Y-93688333D01*
X84177142Y-93640714D01*
X84081904Y-93593095D01*
X83843809Y-93593095D01*
X83748571Y-93640714D01*
X83700952Y-93688333D01*
X83653333Y-93783571D01*
X83653333Y-93974047D01*
X83700952Y-94069285D01*
X83748571Y-94116904D01*
X83843809Y-94164523D01*
D14*
X81596666Y-95700000D02*
X81596666Y-96033333D01*
X80896666Y-96033333D01*
X81230000Y-95466666D02*
X81230000Y-95233333D01*
X81596666Y-95133333D02*
X81596666Y-95466666D01*
X80896666Y-95466666D01*
X80896666Y-95133333D01*
X81596666Y-94833333D02*
X80896666Y-94833333D01*
X80896666Y-94666666D01*
X80930000Y-94566666D01*
X80996666Y-94500000D01*
X81063333Y-94466666D01*
X81196666Y-94433333D01*
X81296666Y-94433333D01*
X81430000Y-94466666D01*
X81496666Y-94500000D01*
X81563333Y-94566666D01*
X81596666Y-94666666D01*
X81596666Y-94833333D01*
D10*
X76652380Y-85909285D02*
X75652380Y-85909285D01*
X75652380Y-85671190D01*
X75700000Y-85528333D01*
X75795238Y-85433095D01*
X75890476Y-85385476D01*
X76080952Y-85337857D01*
X76223809Y-85337857D01*
X76414285Y-85385476D01*
X76509523Y-85433095D01*
X76604761Y-85528333D01*
X76652380Y-85671190D01*
X76652380Y-85909285D01*
X76652380Y-84385476D02*
X76652380Y-84956904D01*
X76652380Y-84671190D02*
X75652380Y-84671190D01*
X75795238Y-84766428D01*
X75890476Y-84861666D01*
X75938095Y-84956904D01*
X75652380Y-83480714D02*
X75652380Y-83956904D01*
X76128571Y-84004523D01*
X76080952Y-83956904D01*
X76033333Y-83861666D01*
X76033333Y-83623571D01*
X76080952Y-83528333D01*
X76128571Y-83480714D01*
X76223809Y-83433095D01*
X76461904Y-83433095D01*
X76557142Y-83480714D01*
X76604761Y-83528333D01*
X76652380Y-83623571D01*
X76652380Y-83861666D01*
X76604761Y-83956904D01*
X76557142Y-84004523D01*
D14*
X73976666Y-85145000D02*
X73976666Y-85478333D01*
X73276666Y-85478333D01*
X73610000Y-84911666D02*
X73610000Y-84678333D01*
X73976666Y-84578333D02*
X73976666Y-84911666D01*
X73276666Y-84911666D01*
X73276666Y-84578333D01*
X73976666Y-84278333D02*
X73276666Y-84278333D01*
X73276666Y-84111666D01*
X73310000Y-84011666D01*
X73376666Y-83945000D01*
X73443333Y-83911666D01*
X73576666Y-83878333D01*
X73676666Y-83878333D01*
X73810000Y-83911666D01*
X73876666Y-83945000D01*
X73943333Y-84011666D01*
X73976666Y-84111666D01*
X73976666Y-84278333D01*
D10*
X99512380Y-85909285D02*
X98512380Y-85909285D01*
X98512380Y-85671190D01*
X98560000Y-85528333D01*
X98655238Y-85433095D01*
X98750476Y-85385476D01*
X98940952Y-85337857D01*
X99083809Y-85337857D01*
X99274285Y-85385476D01*
X99369523Y-85433095D01*
X99464761Y-85528333D01*
X99512380Y-85671190D01*
X99512380Y-85909285D01*
X99512380Y-84385476D02*
X99512380Y-84956904D01*
X99512380Y-84671190D02*
X98512380Y-84671190D01*
X98655238Y-84766428D01*
X98750476Y-84861666D01*
X98798095Y-84956904D01*
X99512380Y-83433095D02*
X99512380Y-84004523D01*
X99512380Y-83718809D02*
X98512380Y-83718809D01*
X98655238Y-83814047D01*
X98750476Y-83909285D01*
X98798095Y-84004523D01*
D14*
X96836666Y-84905000D02*
X96836666Y-85238333D01*
X96136666Y-85238333D01*
X96470000Y-84671666D02*
X96470000Y-84438333D01*
X96836666Y-84338333D02*
X96836666Y-84671666D01*
X96136666Y-84671666D01*
X96136666Y-84338333D01*
X96836666Y-84038333D02*
X96136666Y-84038333D01*
X96136666Y-83871666D01*
X96170000Y-83771666D01*
X96236666Y-83705000D01*
X96303333Y-83671666D01*
X96436666Y-83638333D01*
X96536666Y-83638333D01*
X96670000Y-83671666D01*
X96736666Y-83705000D01*
X96803333Y-83771666D01*
X96836666Y-83871666D01*
X96836666Y-84038333D01*
D10*
X72842380Y-96069285D02*
X71842380Y-96069285D01*
X71842380Y-95831190D01*
X71890000Y-95688333D01*
X71985238Y-95593095D01*
X72080476Y-95545476D01*
X72270952Y-95497857D01*
X72413809Y-95497857D01*
X72604285Y-95545476D01*
X72699523Y-95593095D01*
X72794761Y-95688333D01*
X72842380Y-95831190D01*
X72842380Y-96069285D01*
X72842380Y-94545476D02*
X72842380Y-95116904D01*
X72842380Y-94831190D02*
X71842380Y-94831190D01*
X71985238Y-94926428D01*
X72080476Y-95021666D01*
X72128095Y-95116904D01*
X71842380Y-93926428D02*
X71842380Y-93831190D01*
X71890000Y-93735952D01*
X71937619Y-93688333D01*
X72032857Y-93640714D01*
X72223333Y-93593095D01*
X72461428Y-93593095D01*
X72651904Y-93640714D01*
X72747142Y-93688333D01*
X72794761Y-93735952D01*
X72842380Y-93831190D01*
X72842380Y-93926428D01*
X72794761Y-94021666D01*
X72747142Y-94069285D01*
X72651904Y-94116904D01*
X72461428Y-94164523D01*
X72223333Y-94164523D01*
X72032857Y-94116904D01*
X71937619Y-94069285D01*
X71890000Y-94021666D01*
X71842380Y-93926428D01*
D14*
X70166666Y-95065000D02*
X70166666Y-95398333D01*
X69466666Y-95398333D01*
X69800000Y-94831666D02*
X69800000Y-94598333D01*
X70166666Y-94498333D02*
X70166666Y-94831666D01*
X69466666Y-94831666D01*
X69466666Y-94498333D01*
X70166666Y-94198333D02*
X69466666Y-94198333D01*
X69466666Y-94031666D01*
X69500000Y-93931666D01*
X69566666Y-93865000D01*
X69633333Y-93831666D01*
X69766666Y-93798333D01*
X69866666Y-93798333D01*
X70000000Y-93831666D01*
X70066666Y-93865000D01*
X70133333Y-93931666D01*
X70166666Y-94031666D01*
X70166666Y-94198333D01*
D10*
X76652380Y-95593095D02*
X75652380Y-95593095D01*
X75652380Y-95355000D01*
X75700000Y-95212142D01*
X75795238Y-95116904D01*
X75890476Y-95069285D01*
X76080952Y-95021666D01*
X76223809Y-95021666D01*
X76414285Y-95069285D01*
X76509523Y-95116904D01*
X76604761Y-95212142D01*
X76652380Y-95355000D01*
X76652380Y-95593095D01*
X76652380Y-94545476D02*
X76652380Y-94355000D01*
X76604761Y-94259761D01*
X76557142Y-94212142D01*
X76414285Y-94116904D01*
X76223809Y-94069285D01*
X75842857Y-94069285D01*
X75747619Y-94116904D01*
X75700000Y-94164523D01*
X75652380Y-94259761D01*
X75652380Y-94450238D01*
X75700000Y-94545476D01*
X75747619Y-94593095D01*
X75842857Y-94640714D01*
X76080952Y-94640714D01*
X76176190Y-94593095D01*
X76223809Y-94545476D01*
X76271428Y-94450238D01*
X76271428Y-94259761D01*
X76223809Y-94164523D01*
X76176190Y-94116904D01*
X76080952Y-94069285D01*
D14*
X73976666Y-95065000D02*
X73976666Y-95398333D01*
X73276666Y-95398333D01*
X73610000Y-94831666D02*
X73610000Y-94598333D01*
X73976666Y-94498333D02*
X73976666Y-94831666D01*
X73276666Y-94831666D01*
X73276666Y-94498333D01*
X73976666Y-94198333D02*
X73276666Y-94198333D01*
X73276666Y-94031666D01*
X73310000Y-93931666D01*
X73376666Y-93865000D01*
X73443333Y-93831666D01*
X73576666Y-93798333D01*
X73676666Y-93798333D01*
X73810000Y-93831666D01*
X73876666Y-93865000D01*
X73943333Y-93931666D01*
X73976666Y-94031666D01*
X73976666Y-94198333D01*
D10*
X91892380Y-95593095D02*
X90892380Y-95593095D01*
X90892380Y-95355000D01*
X90940000Y-95212142D01*
X91035238Y-95116904D01*
X91130476Y-95069285D01*
X91320952Y-95021666D01*
X91463809Y-95021666D01*
X91654285Y-95069285D01*
X91749523Y-95116904D01*
X91844761Y-95212142D01*
X91892380Y-95355000D01*
X91892380Y-95593095D01*
X91320952Y-94450238D02*
X91273333Y-94545476D01*
X91225714Y-94593095D01*
X91130476Y-94640714D01*
X91082857Y-94640714D01*
X90987619Y-94593095D01*
X90940000Y-94545476D01*
X90892380Y-94450238D01*
X90892380Y-94259761D01*
X90940000Y-94164523D01*
X90987619Y-94116904D01*
X91082857Y-94069285D01*
X91130476Y-94069285D01*
X91225714Y-94116904D01*
X91273333Y-94164523D01*
X91320952Y-94259761D01*
X91320952Y-94450238D01*
X91368571Y-94545476D01*
X91416190Y-94593095D01*
X91511428Y-94640714D01*
X91701904Y-94640714D01*
X91797142Y-94593095D01*
X91844761Y-94545476D01*
X91892380Y-94450238D01*
X91892380Y-94259761D01*
X91844761Y-94164523D01*
X91797142Y-94116904D01*
X91701904Y-94069285D01*
X91511428Y-94069285D01*
X91416190Y-94116904D01*
X91368571Y-94164523D01*
X91320952Y-94259761D01*
D14*
X89216666Y-95065000D02*
X89216666Y-95398333D01*
X88516666Y-95398333D01*
X88850000Y-94831666D02*
X88850000Y-94598333D01*
X89216666Y-94498333D02*
X89216666Y-94831666D01*
X88516666Y-94831666D01*
X88516666Y-94498333D01*
X89216666Y-94198333D02*
X88516666Y-94198333D01*
X88516666Y-94031666D01*
X88550000Y-93931666D01*
X88616666Y-93865000D01*
X88683333Y-93831666D01*
X88816666Y-93798333D01*
X88916666Y-93798333D01*
X89050000Y-93831666D01*
X89116666Y-93865000D01*
X89183333Y-93931666D01*
X89216666Y-94031666D01*
X89216666Y-94198333D01*
D10*
X95702380Y-85433095D02*
X94702380Y-85433095D01*
X94702380Y-85195000D01*
X94750000Y-85052142D01*
X94845238Y-84956904D01*
X94940476Y-84909285D01*
X95130952Y-84861666D01*
X95273809Y-84861666D01*
X95464285Y-84909285D01*
X95559523Y-84956904D01*
X95654761Y-85052142D01*
X95702380Y-85195000D01*
X95702380Y-85433095D01*
X94702380Y-84528333D02*
X94702380Y-83861666D01*
X95702380Y-84290238D01*
D14*
X93026666Y-85145000D02*
X93026666Y-85478333D01*
X92326666Y-85478333D01*
X92660000Y-84911666D02*
X92660000Y-84678333D01*
X93026666Y-84578333D02*
X93026666Y-84911666D01*
X92326666Y-84911666D01*
X92326666Y-84578333D01*
X93026666Y-84278333D02*
X92326666Y-84278333D01*
X92326666Y-84111666D01*
X92360000Y-84011666D01*
X92426666Y-83945000D01*
X92493333Y-83911666D01*
X92626666Y-83878333D01*
X92726666Y-83878333D01*
X92860000Y-83911666D01*
X92926666Y-83945000D01*
X92993333Y-84011666D01*
X93026666Y-84111666D01*
X93026666Y-84278333D01*
D10*
X88082380Y-85433095D02*
X87082380Y-85433095D01*
X87082380Y-85195000D01*
X87130000Y-85052142D01*
X87225238Y-84956904D01*
X87320476Y-84909285D01*
X87510952Y-84861666D01*
X87653809Y-84861666D01*
X87844285Y-84909285D01*
X87939523Y-84956904D01*
X88034761Y-85052142D01*
X88082380Y-85195000D01*
X88082380Y-85433095D01*
X87082380Y-84004523D02*
X87082380Y-84195000D01*
X87130000Y-84290238D01*
X87177619Y-84337857D01*
X87320476Y-84433095D01*
X87510952Y-84480714D01*
X87891904Y-84480714D01*
X87987142Y-84433095D01*
X88034761Y-84385476D01*
X88082380Y-84290238D01*
X88082380Y-84099761D01*
X88034761Y-84004523D01*
X87987142Y-83956904D01*
X87891904Y-83909285D01*
X87653809Y-83909285D01*
X87558571Y-83956904D01*
X87510952Y-84004523D01*
X87463333Y-84099761D01*
X87463333Y-84290238D01*
X87510952Y-84385476D01*
X87558571Y-84433095D01*
X87653809Y-84480714D01*
D14*
X85406666Y-84905000D02*
X85406666Y-85238333D01*
X84706666Y-85238333D01*
X85040000Y-84671666D02*
X85040000Y-84438333D01*
X85406666Y-84338333D02*
X85406666Y-84671666D01*
X84706666Y-84671666D01*
X84706666Y-84338333D01*
X85406666Y-84038333D02*
X84706666Y-84038333D01*
X84706666Y-83871666D01*
X84740000Y-83771666D01*
X84806666Y-83705000D01*
X84873333Y-83671666D01*
X85006666Y-83638333D01*
X85106666Y-83638333D01*
X85240000Y-83671666D01*
X85306666Y-83705000D01*
X85373333Y-83771666D01*
X85406666Y-83871666D01*
X85406666Y-84038333D01*
D10*
X91892380Y-85433095D02*
X90892380Y-85433095D01*
X90892380Y-85195000D01*
X90940000Y-85052142D01*
X91035238Y-84956904D01*
X91130476Y-84909285D01*
X91320952Y-84861666D01*
X91463809Y-84861666D01*
X91654285Y-84909285D01*
X91749523Y-84956904D01*
X91844761Y-85052142D01*
X91892380Y-85195000D01*
X91892380Y-85433095D01*
X90892380Y-83956904D02*
X90892380Y-84433095D01*
X91368571Y-84480714D01*
X91320952Y-84433095D01*
X91273333Y-84337857D01*
X91273333Y-84099761D01*
X91320952Y-84004523D01*
X91368571Y-83956904D01*
X91463809Y-83909285D01*
X91701904Y-83909285D01*
X91797142Y-83956904D01*
X91844761Y-84004523D01*
X91892380Y-84099761D01*
X91892380Y-84337857D01*
X91844761Y-84433095D01*
X91797142Y-84480714D01*
D14*
X89216666Y-84905000D02*
X89216666Y-85238333D01*
X88516666Y-85238333D01*
X88850000Y-84671666D02*
X88850000Y-84438333D01*
X89216666Y-84338333D02*
X89216666Y-84671666D01*
X88516666Y-84671666D01*
X88516666Y-84338333D01*
X89216666Y-84038333D02*
X88516666Y-84038333D01*
X88516666Y-83871666D01*
X88550000Y-83771666D01*
X88616666Y-83705000D01*
X88683333Y-83671666D01*
X88816666Y-83638333D01*
X88916666Y-83638333D01*
X89050000Y-83671666D01*
X89116666Y-83705000D01*
X89183333Y-83771666D01*
X89216666Y-83871666D01*
X89216666Y-84038333D01*
D10*
X80462380Y-85433095D02*
X79462380Y-85433095D01*
X79462380Y-85195000D01*
X79510000Y-85052142D01*
X79605238Y-84956904D01*
X79700476Y-84909285D01*
X79890952Y-84861666D01*
X80033809Y-84861666D01*
X80224285Y-84909285D01*
X80319523Y-84956904D01*
X80414761Y-85052142D01*
X80462380Y-85195000D01*
X80462380Y-85433095D01*
X79795714Y-84004523D02*
X80462380Y-84004523D01*
X79414761Y-84242619D02*
X80129047Y-84480714D01*
X80129047Y-83861666D01*
D14*
X77786666Y-85145000D02*
X77786666Y-85478333D01*
X77086666Y-85478333D01*
X77420000Y-84911666D02*
X77420000Y-84678333D01*
X77786666Y-84578333D02*
X77786666Y-84911666D01*
X77086666Y-84911666D01*
X77086666Y-84578333D01*
X77786666Y-84278333D02*
X77086666Y-84278333D01*
X77086666Y-84111666D01*
X77120000Y-84011666D01*
X77186666Y-83945000D01*
X77253333Y-83911666D01*
X77386666Y-83878333D01*
X77486666Y-83878333D01*
X77620000Y-83911666D01*
X77686666Y-83945000D01*
X77753333Y-84011666D01*
X77786666Y-84111666D01*
X77786666Y-84278333D01*
D10*
X84272380Y-85433095D02*
X83272380Y-85433095D01*
X83272380Y-85195000D01*
X83320000Y-85052142D01*
X83415238Y-84956904D01*
X83510476Y-84909285D01*
X83700952Y-84861666D01*
X83843809Y-84861666D01*
X84034285Y-84909285D01*
X84129523Y-84956904D01*
X84224761Y-85052142D01*
X84272380Y-85195000D01*
X84272380Y-85433095D01*
X83272380Y-84528333D02*
X83272380Y-83909285D01*
X83653333Y-84242619D01*
X83653333Y-84099761D01*
X83700952Y-84004523D01*
X83748571Y-83956904D01*
X83843809Y-83909285D01*
X84081904Y-83909285D01*
X84177142Y-83956904D01*
X84224761Y-84004523D01*
X84272380Y-84099761D01*
X84272380Y-84385476D01*
X84224761Y-84480714D01*
X84177142Y-84528333D01*
D14*
X81596666Y-85145000D02*
X81596666Y-85478333D01*
X80896666Y-85478333D01*
X81230000Y-84911666D02*
X81230000Y-84678333D01*
X81596666Y-84578333D02*
X81596666Y-84911666D01*
X80896666Y-84911666D01*
X80896666Y-84578333D01*
X81596666Y-84278333D02*
X80896666Y-84278333D01*
X80896666Y-84111666D01*
X80930000Y-84011666D01*
X80996666Y-83945000D01*
X81063333Y-83911666D01*
X81196666Y-83878333D01*
X81296666Y-83878333D01*
X81430000Y-83911666D01*
X81496666Y-83945000D01*
X81563333Y-84011666D01*
X81596666Y-84111666D01*
X81596666Y-84278333D01*
D10*
X72842380Y-85433095D02*
X71842380Y-85433095D01*
X71842380Y-85195000D01*
X71890000Y-85052142D01*
X71985238Y-84956904D01*
X72080476Y-84909285D01*
X72270952Y-84861666D01*
X72413809Y-84861666D01*
X72604285Y-84909285D01*
X72699523Y-84956904D01*
X72794761Y-85052142D01*
X72842380Y-85195000D01*
X72842380Y-85433095D01*
X71937619Y-84480714D02*
X71890000Y-84433095D01*
X71842380Y-84337857D01*
X71842380Y-84099761D01*
X71890000Y-84004523D01*
X71937619Y-83956904D01*
X72032857Y-83909285D01*
X72128095Y-83909285D01*
X72270952Y-83956904D01*
X72842380Y-84528333D01*
X72842380Y-83909285D01*
D14*
X70166666Y-85145000D02*
X70166666Y-85478333D01*
X69466666Y-85478333D01*
X69800000Y-84911666D02*
X69800000Y-84678333D01*
X70166666Y-84578333D02*
X70166666Y-84911666D01*
X69466666Y-84911666D01*
X69466666Y-84578333D01*
X70166666Y-84278333D02*
X69466666Y-84278333D01*
X69466666Y-84111666D01*
X69500000Y-84011666D01*
X69566666Y-83945000D01*
X69633333Y-83911666D01*
X69766666Y-83878333D01*
X69866666Y-83878333D01*
X70000000Y-83911666D01*
X70066666Y-83945000D01*
X70133333Y-84011666D01*
X70166666Y-84111666D01*
X70166666Y-84278333D01*
D10*
X107283809Y-77922380D02*
X107283809Y-76922380D01*
X107617142Y-77636666D01*
X107950476Y-76922380D01*
X107950476Y-77922380D01*
X108569523Y-77922380D02*
X108474285Y-77874761D01*
X108426666Y-77827142D01*
X108379047Y-77731904D01*
X108379047Y-77446190D01*
X108426666Y-77350952D01*
X108474285Y-77303333D01*
X108569523Y-77255714D01*
X108712380Y-77255714D01*
X108807619Y-77303333D01*
X108855238Y-77350952D01*
X108902857Y-77446190D01*
X108902857Y-77731904D01*
X108855238Y-77827142D01*
X108807619Y-77874761D01*
X108712380Y-77922380D01*
X108569523Y-77922380D01*
X109474285Y-77922380D02*
X109379047Y-77874761D01*
X109331428Y-77779523D01*
X109331428Y-76922380D01*
X110236190Y-77874761D02*
X110140952Y-77922380D01*
X109950476Y-77922380D01*
X109855238Y-77874761D01*
X109807619Y-77779523D01*
X109807619Y-77398571D01*
X109855238Y-77303333D01*
X109950476Y-77255714D01*
X110140952Y-77255714D01*
X110236190Y-77303333D01*
X110283809Y-77398571D01*
X110283809Y-77493809D01*
X109807619Y-77589047D01*
X110617142Y-77922380D02*
X111140952Y-77255714D01*
X110617142Y-77255714D02*
X111140952Y-77922380D01*
X111283809Y-78017619D02*
X112045714Y-78017619D01*
X112236190Y-77874761D02*
X112379047Y-77922380D01*
X112617142Y-77922380D01*
X112712380Y-77874761D01*
X112760000Y-77827142D01*
X112807619Y-77731904D01*
X112807619Y-77636666D01*
X112760000Y-77541428D01*
X112712380Y-77493809D01*
X112617142Y-77446190D01*
X112426666Y-77398571D01*
X112331428Y-77350952D01*
X112283809Y-77303333D01*
X112236190Y-77208095D01*
X112236190Y-77112857D01*
X112283809Y-77017619D01*
X112331428Y-76970000D01*
X112426666Y-76922380D01*
X112664761Y-76922380D01*
X112807619Y-76970000D01*
X113712380Y-77922380D02*
X113236190Y-77922380D01*
X113236190Y-76922380D01*
X113807619Y-78017619D02*
X114569523Y-78017619D01*
X114998095Y-76922380D02*
X115093333Y-76922380D01*
X115188571Y-76970000D01*
X115236190Y-77017619D01*
X115283809Y-77112857D01*
X115331428Y-77303333D01*
X115331428Y-77541428D01*
X115283809Y-77731904D01*
X115236190Y-77827142D01*
X115188571Y-77874761D01*
X115093333Y-77922380D01*
X114998095Y-77922380D01*
X114902857Y-77874761D01*
X114855238Y-77827142D01*
X114807619Y-77731904D01*
X114760000Y-77541428D01*
X114760000Y-77303333D01*
X114807619Y-77112857D01*
X114855238Y-77017619D01*
X114902857Y-76970000D01*
X114998095Y-76922380D01*
X116188571Y-77255714D02*
X116188571Y-77922380D01*
X115950476Y-76874761D02*
X115712380Y-77589047D01*
X116331428Y-77589047D01*
X124809809Y-88082380D02*
X124809809Y-87082380D01*
X125143142Y-87796666D01*
X125476476Y-87082380D01*
X125476476Y-88082380D01*
X126095523Y-88082380D02*
X126000285Y-88034761D01*
X125952666Y-87987142D01*
X125905047Y-87891904D01*
X125905047Y-87606190D01*
X125952666Y-87510952D01*
X126000285Y-87463333D01*
X126095523Y-87415714D01*
X126238380Y-87415714D01*
X126333619Y-87463333D01*
X126381238Y-87510952D01*
X126428857Y-87606190D01*
X126428857Y-87891904D01*
X126381238Y-87987142D01*
X126333619Y-88034761D01*
X126238380Y-88082380D01*
X126095523Y-88082380D01*
X127000285Y-88082380D02*
X126905047Y-88034761D01*
X126857428Y-87939523D01*
X126857428Y-87082380D01*
X127762190Y-88034761D02*
X127666952Y-88082380D01*
X127476476Y-88082380D01*
X127381238Y-88034761D01*
X127333619Y-87939523D01*
X127333619Y-87558571D01*
X127381238Y-87463333D01*
X127476476Y-87415714D01*
X127666952Y-87415714D01*
X127762190Y-87463333D01*
X127809809Y-87558571D01*
X127809809Y-87653809D01*
X127333619Y-87749047D01*
X128143142Y-88082380D02*
X128666952Y-87415714D01*
X128143142Y-87415714D02*
X128666952Y-88082380D01*
X128809809Y-88177619D02*
X129571714Y-88177619D01*
X129762190Y-88034761D02*
X129905047Y-88082380D01*
X130143142Y-88082380D01*
X130238380Y-88034761D01*
X130286000Y-87987142D01*
X130333619Y-87891904D01*
X130333619Y-87796666D01*
X130286000Y-87701428D01*
X130238380Y-87653809D01*
X130143142Y-87606190D01*
X129952666Y-87558571D01*
X129857428Y-87510952D01*
X129809809Y-87463333D01*
X129762190Y-87368095D01*
X129762190Y-87272857D01*
X129809809Y-87177619D01*
X129857428Y-87130000D01*
X129952666Y-87082380D01*
X130190761Y-87082380D01*
X130333619Y-87130000D01*
X131238380Y-88082380D02*
X130762190Y-88082380D01*
X130762190Y-87082380D01*
X131333619Y-88177619D02*
X132095523Y-88177619D01*
X132524095Y-87082380D02*
X132619333Y-87082380D01*
X132714571Y-87130000D01*
X132762190Y-87177619D01*
X132809809Y-87272857D01*
X132857428Y-87463333D01*
X132857428Y-87701428D01*
X132809809Y-87891904D01*
X132762190Y-87987142D01*
X132714571Y-88034761D01*
X132619333Y-88082380D01*
X132524095Y-88082380D01*
X132428857Y-88034761D01*
X132381238Y-87987142D01*
X132333619Y-87891904D01*
X132286000Y-87701428D01*
X132286000Y-87463333D01*
X132333619Y-87272857D01*
X132381238Y-87177619D01*
X132428857Y-87130000D01*
X132524095Y-87082380D01*
X133714571Y-87415714D02*
X133714571Y-88082380D01*
X133476476Y-87034761D02*
X133238380Y-87749047D01*
X133857428Y-87749047D01*
X147548333Y-79097142D02*
X147500714Y-79144761D01*
X147357857Y-79192380D01*
X147262619Y-79192380D01*
X147119761Y-79144761D01*
X147024523Y-79049523D01*
X146976904Y-78954285D01*
X146929285Y-78763809D01*
X146929285Y-78620952D01*
X146976904Y-78430476D01*
X147024523Y-78335238D01*
X147119761Y-78240000D01*
X147262619Y-78192380D01*
X147357857Y-78192380D01*
X147500714Y-78240000D01*
X147548333Y-78287619D01*
X148453095Y-78192380D02*
X147976904Y-78192380D01*
X147929285Y-78668571D01*
X147976904Y-78620952D01*
X148072142Y-78573333D01*
X148310238Y-78573333D01*
X148405476Y-78620952D01*
X148453095Y-78668571D01*
X148500714Y-78763809D01*
X148500714Y-79001904D01*
X148453095Y-79097142D01*
X148405476Y-79144761D01*
X148310238Y-79192380D01*
X148072142Y-79192380D01*
X147976904Y-79144761D01*
X147929285Y-79097142D01*
X155098761Y-70579619D02*
X155003523Y-70532000D01*
X154908285Y-70436761D01*
X154765428Y-70293904D01*
X154670190Y-70246285D01*
X154574952Y-70246285D01*
X154622571Y-70484380D02*
X154527333Y-70436761D01*
X154432095Y-70341523D01*
X154384476Y-70151047D01*
X154384476Y-69817714D01*
X154432095Y-69627238D01*
X154527333Y-69532000D01*
X154622571Y-69484380D01*
X154813047Y-69484380D01*
X154908285Y-69532000D01*
X155003523Y-69627238D01*
X155051142Y-69817714D01*
X155051142Y-70151047D01*
X155003523Y-70341523D01*
X154908285Y-70436761D01*
X154813047Y-70484380D01*
X154622571Y-70484380D01*
X155955904Y-69484380D02*
X155479714Y-69484380D01*
X155432095Y-69960571D01*
X155479714Y-69912952D01*
X155574952Y-69865333D01*
X155813047Y-69865333D01*
X155908285Y-69912952D01*
X155955904Y-69960571D01*
X156003523Y-70055809D01*
X156003523Y-70293904D01*
X155955904Y-70389142D01*
X155908285Y-70436761D01*
X155813047Y-70484380D01*
X155574952Y-70484380D01*
X155479714Y-70436761D01*
X155432095Y-70389142D01*
X144414761Y-61232619D02*
X144319523Y-61185000D01*
X144224285Y-61089761D01*
X144081428Y-60946904D01*
X143986190Y-60899285D01*
X143890952Y-60899285D01*
X143938571Y-61137380D02*
X143843333Y-61089761D01*
X143748095Y-60994523D01*
X143700476Y-60804047D01*
X143700476Y-60470714D01*
X143748095Y-60280238D01*
X143843333Y-60185000D01*
X143938571Y-60137380D01*
X144129047Y-60137380D01*
X144224285Y-60185000D01*
X144319523Y-60280238D01*
X144367142Y-60470714D01*
X144367142Y-60804047D01*
X144319523Y-60994523D01*
X144224285Y-61089761D01*
X144129047Y-61137380D01*
X143938571Y-61137380D01*
X145224285Y-60137380D02*
X145033809Y-60137380D01*
X144938571Y-60185000D01*
X144890952Y-60232619D01*
X144795714Y-60375476D01*
X144748095Y-60565952D01*
X144748095Y-60946904D01*
X144795714Y-61042142D01*
X144843333Y-61089761D01*
X144938571Y-61137380D01*
X145129047Y-61137380D01*
X145224285Y-61089761D01*
X145271904Y-61042142D01*
X145319523Y-60946904D01*
X145319523Y-60708809D01*
X145271904Y-60613571D01*
X145224285Y-60565952D01*
X145129047Y-60518333D01*
X144938571Y-60518333D01*
X144843333Y-60565952D01*
X144795714Y-60613571D01*
X144748095Y-60708809D01*
X164696380Y-68601857D02*
X164220190Y-68935190D01*
X164696380Y-69173285D02*
X163696380Y-69173285D01*
X163696380Y-68792333D01*
X163744000Y-68697095D01*
X163791619Y-68649476D01*
X163886857Y-68601857D01*
X164029714Y-68601857D01*
X164124952Y-68649476D01*
X164172571Y-68697095D01*
X164220190Y-68792333D01*
X164220190Y-69173285D01*
X163791619Y-68220904D02*
X163744000Y-68173285D01*
X163696380Y-68078047D01*
X163696380Y-67839952D01*
X163744000Y-67744714D01*
X163791619Y-67697095D01*
X163886857Y-67649476D01*
X163982095Y-67649476D01*
X164124952Y-67697095D01*
X164696380Y-68268523D01*
X164696380Y-67649476D01*
X164124952Y-67078047D02*
X164077333Y-67173285D01*
X164029714Y-67220904D01*
X163934476Y-67268523D01*
X163886857Y-67268523D01*
X163791619Y-67220904D01*
X163744000Y-67173285D01*
X163696380Y-67078047D01*
X163696380Y-66887571D01*
X163744000Y-66792333D01*
X163791619Y-66744714D01*
X163886857Y-66697095D01*
X163934476Y-66697095D01*
X164029714Y-66744714D01*
X164077333Y-66792333D01*
X164124952Y-66887571D01*
X164124952Y-67078047D01*
X164172571Y-67173285D01*
X164220190Y-67220904D01*
X164315428Y-67268523D01*
X164505904Y-67268523D01*
X164601142Y-67220904D01*
X164648761Y-67173285D01*
X164696380Y-67078047D01*
X164696380Y-66887571D01*
X164648761Y-66792333D01*
X164601142Y-66744714D01*
X164505904Y-66697095D01*
X164315428Y-66697095D01*
X164220190Y-66744714D01*
X164172571Y-66792333D01*
X164124952Y-66887571D01*
X149597380Y-63902857D02*
X149121190Y-64236190D01*
X149597380Y-64474285D02*
X148597380Y-64474285D01*
X148597380Y-64093333D01*
X148645000Y-63998095D01*
X148692619Y-63950476D01*
X148787857Y-63902857D01*
X148930714Y-63902857D01*
X149025952Y-63950476D01*
X149073571Y-63998095D01*
X149121190Y-64093333D01*
X149121190Y-64474285D01*
X148692619Y-63521904D02*
X148645000Y-63474285D01*
X148597380Y-63379047D01*
X148597380Y-63140952D01*
X148645000Y-63045714D01*
X148692619Y-62998095D01*
X148787857Y-62950476D01*
X148883095Y-62950476D01*
X149025952Y-62998095D01*
X149597380Y-63569523D01*
X149597380Y-62950476D01*
X149597380Y-62474285D02*
X149597380Y-62283809D01*
X149549761Y-62188571D01*
X149502142Y-62140952D01*
X149359285Y-62045714D01*
X149168809Y-61998095D01*
X148787857Y-61998095D01*
X148692619Y-62045714D01*
X148645000Y-62093333D01*
X148597380Y-62188571D01*
X148597380Y-62379047D01*
X148645000Y-62474285D01*
X148692619Y-62521904D01*
X148787857Y-62569523D01*
X149025952Y-62569523D01*
X149121190Y-62521904D01*
X149168809Y-62474285D01*
X149216428Y-62379047D01*
X149216428Y-62188571D01*
X149168809Y-62093333D01*
X149121190Y-62045714D01*
X149025952Y-61998095D01*
X142692380Y-64297857D02*
X142216190Y-64631190D01*
X142692380Y-64869285D02*
X141692380Y-64869285D01*
X141692380Y-64488333D01*
X141740000Y-64393095D01*
X141787619Y-64345476D01*
X141882857Y-64297857D01*
X142025714Y-64297857D01*
X142120952Y-64345476D01*
X142168571Y-64393095D01*
X142216190Y-64488333D01*
X142216190Y-64869285D01*
X141692380Y-63964523D02*
X141692380Y-63345476D01*
X142073333Y-63678809D01*
X142073333Y-63535952D01*
X142120952Y-63440714D01*
X142168571Y-63393095D01*
X142263809Y-63345476D01*
X142501904Y-63345476D01*
X142597142Y-63393095D01*
X142644761Y-63440714D01*
X142692380Y-63535952D01*
X142692380Y-63821666D01*
X142644761Y-63916904D01*
X142597142Y-63964523D01*
X141692380Y-62726428D02*
X141692380Y-62631190D01*
X141740000Y-62535952D01*
X141787619Y-62488333D01*
X141882857Y-62440714D01*
X142073333Y-62393095D01*
X142311428Y-62393095D01*
X142501904Y-62440714D01*
X142597142Y-62488333D01*
X142644761Y-62535952D01*
X142692380Y-62631190D01*
X142692380Y-62726428D01*
X142644761Y-62821666D01*
X142597142Y-62869285D01*
X142501904Y-62916904D01*
X142311428Y-62964523D01*
X142073333Y-62964523D01*
X141882857Y-62916904D01*
X141787619Y-62869285D01*
X141740000Y-62821666D01*
X141692380Y-62726428D01*
M02*
