G04 #@! TF.GenerationSoftware,KiCad,Pcbnew,(5.1.4)-1*
G04 #@! TF.CreationDate,2019-11-21T13:54:19-06:00*
G04 #@! TF.ProjectId,SRA_Sensor_Board,5352415f-5365-46e7-936f-725f426f6172,rev?*
G04 #@! TF.SameCoordinates,Original*
G04 #@! TF.FileFunction,Soldermask,Bot*
G04 #@! TF.FilePolarity,Negative*
%FSLAX46Y46*%
G04 Gerber Fmt 4.6, Leading zero omitted, Abs format (unit mm)*
G04 Created by KiCad (PCBNEW (5.1.4)-1) date 2019-11-21 13:54:19*
%MOMM*%
%LPD*%
G04 APERTURE LIST*
%ADD10C,0.100000*%
G04 APERTURE END LIST*
D10*
G36*
X150096560Y-91676166D02*
G01*
X150244153Y-91737301D01*
X150376982Y-91826055D01*
X150489945Y-91939018D01*
X150578699Y-92071847D01*
X150639834Y-92219440D01*
X150671000Y-92376123D01*
X150671000Y-92535877D01*
X150639834Y-92692560D01*
X150578699Y-92840153D01*
X150489945Y-92972982D01*
X150376982Y-93085945D01*
X150244153Y-93174699D01*
X150244152Y-93174700D01*
X150244151Y-93174700D01*
X150096560Y-93235834D01*
X149939878Y-93267000D01*
X149780122Y-93267000D01*
X149623440Y-93235834D01*
X149475849Y-93174700D01*
X149475848Y-93174700D01*
X149475847Y-93174699D01*
X149343018Y-93085945D01*
X149230055Y-92972982D01*
X149141301Y-92840153D01*
X149080166Y-92692560D01*
X149049000Y-92535877D01*
X149049000Y-92376123D01*
X149080166Y-92219440D01*
X149141301Y-92071847D01*
X149230055Y-91939018D01*
X149343018Y-91826055D01*
X149475847Y-91737301D01*
X149623440Y-91676166D01*
X149780122Y-91645000D01*
X149939878Y-91645000D01*
X150096560Y-91676166D01*
X150096560Y-91676166D01*
G37*
G36*
X63736560Y-91676166D02*
G01*
X63884153Y-91737301D01*
X64016982Y-91826055D01*
X64129945Y-91939018D01*
X64218699Y-92071847D01*
X64279834Y-92219440D01*
X64311000Y-92376123D01*
X64311000Y-92535877D01*
X64279834Y-92692560D01*
X64218699Y-92840153D01*
X64129945Y-92972982D01*
X64016982Y-93085945D01*
X63884153Y-93174699D01*
X63884152Y-93174700D01*
X63884151Y-93174700D01*
X63736560Y-93235834D01*
X63579878Y-93267000D01*
X63420122Y-93267000D01*
X63263440Y-93235834D01*
X63115849Y-93174700D01*
X63115848Y-93174700D01*
X63115847Y-93174699D01*
X62983018Y-93085945D01*
X62870055Y-92972982D01*
X62781301Y-92840153D01*
X62720166Y-92692560D01*
X62689000Y-92535877D01*
X62689000Y-92376123D01*
X62720166Y-92219440D01*
X62781301Y-92071847D01*
X62870055Y-91939018D01*
X62983018Y-91826055D01*
X63115847Y-91737301D01*
X63263440Y-91676166D01*
X63420122Y-91645000D01*
X63579878Y-91645000D01*
X63736560Y-91676166D01*
X63736560Y-91676166D01*
G37*
G36*
X127236560Y-91676166D02*
G01*
X127384153Y-91737301D01*
X127516982Y-91826055D01*
X127629945Y-91939018D01*
X127718699Y-92071847D01*
X127779834Y-92219440D01*
X127811000Y-92376123D01*
X127811000Y-92535877D01*
X127779834Y-92692560D01*
X127718699Y-92840153D01*
X127629945Y-92972982D01*
X127516982Y-93085945D01*
X127384153Y-93174699D01*
X127384152Y-93174700D01*
X127384151Y-93174700D01*
X127236560Y-93235834D01*
X127079878Y-93267000D01*
X126920122Y-93267000D01*
X126763440Y-93235834D01*
X126615849Y-93174700D01*
X126615848Y-93174700D01*
X126615847Y-93174699D01*
X126483018Y-93085945D01*
X126370055Y-92972982D01*
X126281301Y-92840153D01*
X126220166Y-92692560D01*
X126189000Y-92535877D01*
X126189000Y-92376123D01*
X126220166Y-92219440D01*
X126281301Y-92071847D01*
X126370055Y-91939018D01*
X126483018Y-91826055D01*
X126615847Y-91737301D01*
X126763440Y-91676166D01*
X126920122Y-91645000D01*
X127079878Y-91645000D01*
X127236560Y-91676166D01*
X127236560Y-91676166D01*
G37*
G36*
X142476560Y-91676166D02*
G01*
X142624153Y-91737301D01*
X142756982Y-91826055D01*
X142869945Y-91939018D01*
X142958699Y-92071847D01*
X143019834Y-92219440D01*
X143051000Y-92376123D01*
X143051000Y-92535877D01*
X143019834Y-92692560D01*
X142958699Y-92840153D01*
X142869945Y-92972982D01*
X142756982Y-93085945D01*
X142624153Y-93174699D01*
X142624152Y-93174700D01*
X142624151Y-93174700D01*
X142476560Y-93235834D01*
X142319878Y-93267000D01*
X142160122Y-93267000D01*
X142003440Y-93235834D01*
X141855849Y-93174700D01*
X141855848Y-93174700D01*
X141855847Y-93174699D01*
X141723018Y-93085945D01*
X141610055Y-92972982D01*
X141521301Y-92840153D01*
X141460166Y-92692560D01*
X141429000Y-92535877D01*
X141429000Y-92376123D01*
X141460166Y-92219440D01*
X141521301Y-92071847D01*
X141610055Y-91939018D01*
X141723018Y-91826055D01*
X141855847Y-91737301D01*
X142003440Y-91676166D01*
X142160122Y-91645000D01*
X142319878Y-91645000D01*
X142476560Y-91676166D01*
X142476560Y-91676166D01*
G37*
G36*
X129776560Y-91676166D02*
G01*
X129924153Y-91737301D01*
X130056982Y-91826055D01*
X130169945Y-91939018D01*
X130258699Y-92071847D01*
X130319834Y-92219440D01*
X130351000Y-92376123D01*
X130351000Y-92535877D01*
X130319834Y-92692560D01*
X130258699Y-92840153D01*
X130169945Y-92972982D01*
X130056982Y-93085945D01*
X129924153Y-93174699D01*
X129924152Y-93174700D01*
X129924151Y-93174700D01*
X129776560Y-93235834D01*
X129619878Y-93267000D01*
X129460122Y-93267000D01*
X129303440Y-93235834D01*
X129155849Y-93174700D01*
X129155848Y-93174700D01*
X129155847Y-93174699D01*
X129023018Y-93085945D01*
X128910055Y-92972982D01*
X128821301Y-92840153D01*
X128760166Y-92692560D01*
X128729000Y-92535877D01*
X128729000Y-92376123D01*
X128760166Y-92219440D01*
X128821301Y-92071847D01*
X128910055Y-91939018D01*
X129023018Y-91826055D01*
X129155847Y-91737301D01*
X129303440Y-91676166D01*
X129460122Y-91645000D01*
X129619878Y-91645000D01*
X129776560Y-91676166D01*
X129776560Y-91676166D01*
G37*
G36*
X132316560Y-91676166D02*
G01*
X132464153Y-91737301D01*
X132596982Y-91826055D01*
X132709945Y-91939018D01*
X132798699Y-92071847D01*
X132859834Y-92219440D01*
X132891000Y-92376123D01*
X132891000Y-92535877D01*
X132859834Y-92692560D01*
X132798699Y-92840153D01*
X132709945Y-92972982D01*
X132596982Y-93085945D01*
X132464153Y-93174699D01*
X132464152Y-93174700D01*
X132464151Y-93174700D01*
X132316560Y-93235834D01*
X132159878Y-93267000D01*
X132000122Y-93267000D01*
X131843440Y-93235834D01*
X131695849Y-93174700D01*
X131695848Y-93174700D01*
X131695847Y-93174699D01*
X131563018Y-93085945D01*
X131450055Y-92972982D01*
X131361301Y-92840153D01*
X131300166Y-92692560D01*
X131269000Y-92535877D01*
X131269000Y-92376123D01*
X131300166Y-92219440D01*
X131361301Y-92071847D01*
X131450055Y-91939018D01*
X131563018Y-91826055D01*
X131695847Y-91737301D01*
X131843440Y-91676166D01*
X132000122Y-91645000D01*
X132159878Y-91645000D01*
X132316560Y-91676166D01*
X132316560Y-91676166D01*
G37*
G36*
X134856560Y-91676166D02*
G01*
X135004153Y-91737301D01*
X135136982Y-91826055D01*
X135249945Y-91939018D01*
X135338699Y-92071847D01*
X135399834Y-92219440D01*
X135431000Y-92376123D01*
X135431000Y-92535877D01*
X135399834Y-92692560D01*
X135338699Y-92840153D01*
X135249945Y-92972982D01*
X135136982Y-93085945D01*
X135004153Y-93174699D01*
X135004152Y-93174700D01*
X135004151Y-93174700D01*
X134856560Y-93235834D01*
X134699878Y-93267000D01*
X134540122Y-93267000D01*
X134383440Y-93235834D01*
X134235849Y-93174700D01*
X134235848Y-93174700D01*
X134235847Y-93174699D01*
X134103018Y-93085945D01*
X133990055Y-92972982D01*
X133901301Y-92840153D01*
X133840166Y-92692560D01*
X133809000Y-92535877D01*
X133809000Y-92376123D01*
X133840166Y-92219440D01*
X133901301Y-92071847D01*
X133990055Y-91939018D01*
X134103018Y-91826055D01*
X134235847Y-91737301D01*
X134383440Y-91676166D01*
X134540122Y-91645000D01*
X134699878Y-91645000D01*
X134856560Y-91676166D01*
X134856560Y-91676166D01*
G37*
G36*
X137396560Y-91676166D02*
G01*
X137544153Y-91737301D01*
X137676982Y-91826055D01*
X137789945Y-91939018D01*
X137878699Y-92071847D01*
X137939834Y-92219440D01*
X137971000Y-92376123D01*
X137971000Y-92535877D01*
X137939834Y-92692560D01*
X137878699Y-92840153D01*
X137789945Y-92972982D01*
X137676982Y-93085945D01*
X137544153Y-93174699D01*
X137544152Y-93174700D01*
X137544151Y-93174700D01*
X137396560Y-93235834D01*
X137239878Y-93267000D01*
X137080122Y-93267000D01*
X136923440Y-93235834D01*
X136775849Y-93174700D01*
X136775848Y-93174700D01*
X136775847Y-93174699D01*
X136643018Y-93085945D01*
X136530055Y-92972982D01*
X136441301Y-92840153D01*
X136380166Y-92692560D01*
X136349000Y-92535877D01*
X136349000Y-92376123D01*
X136380166Y-92219440D01*
X136441301Y-92071847D01*
X136530055Y-91939018D01*
X136643018Y-91826055D01*
X136775847Y-91737301D01*
X136923440Y-91676166D01*
X137080122Y-91645000D01*
X137239878Y-91645000D01*
X137396560Y-91676166D01*
X137396560Y-91676166D01*
G37*
G36*
X139936560Y-91676166D02*
G01*
X140084153Y-91737301D01*
X140216982Y-91826055D01*
X140329945Y-91939018D01*
X140418699Y-92071847D01*
X140479834Y-92219440D01*
X140511000Y-92376123D01*
X140511000Y-92535877D01*
X140479834Y-92692560D01*
X140418699Y-92840153D01*
X140329945Y-92972982D01*
X140216982Y-93085945D01*
X140084153Y-93174699D01*
X140084152Y-93174700D01*
X140084151Y-93174700D01*
X139936560Y-93235834D01*
X139779878Y-93267000D01*
X139620122Y-93267000D01*
X139463440Y-93235834D01*
X139315849Y-93174700D01*
X139315848Y-93174700D01*
X139315847Y-93174699D01*
X139183018Y-93085945D01*
X139070055Y-92972982D01*
X138981301Y-92840153D01*
X138920166Y-92692560D01*
X138889000Y-92535877D01*
X138889000Y-92376123D01*
X138920166Y-92219440D01*
X138981301Y-92071847D01*
X139070055Y-91939018D01*
X139183018Y-91826055D01*
X139315847Y-91737301D01*
X139463440Y-91676166D01*
X139620122Y-91645000D01*
X139779878Y-91645000D01*
X139936560Y-91676166D01*
X139936560Y-91676166D01*
G37*
G36*
X145016560Y-91676166D02*
G01*
X145164153Y-91737301D01*
X145296982Y-91826055D01*
X145409945Y-91939018D01*
X145498699Y-92071847D01*
X145559834Y-92219440D01*
X145591000Y-92376123D01*
X145591000Y-92535877D01*
X145559834Y-92692560D01*
X145498699Y-92840153D01*
X145409945Y-92972982D01*
X145296982Y-93085945D01*
X145164153Y-93174699D01*
X145164152Y-93174700D01*
X145164151Y-93174700D01*
X145016560Y-93235834D01*
X144859878Y-93267000D01*
X144700122Y-93267000D01*
X144543440Y-93235834D01*
X144395849Y-93174700D01*
X144395848Y-93174700D01*
X144395847Y-93174699D01*
X144263018Y-93085945D01*
X144150055Y-92972982D01*
X144061301Y-92840153D01*
X144000166Y-92692560D01*
X143969000Y-92535877D01*
X143969000Y-92376123D01*
X144000166Y-92219440D01*
X144061301Y-92071847D01*
X144150055Y-91939018D01*
X144263018Y-91826055D01*
X144395847Y-91737301D01*
X144543440Y-91676166D01*
X144700122Y-91645000D01*
X144859878Y-91645000D01*
X145016560Y-91676166D01*
X145016560Y-91676166D01*
G37*
G36*
X147556560Y-91676166D02*
G01*
X147704153Y-91737301D01*
X147836982Y-91826055D01*
X147949945Y-91939018D01*
X148038699Y-92071847D01*
X148099834Y-92219440D01*
X148131000Y-92376123D01*
X148131000Y-92535877D01*
X148099834Y-92692560D01*
X148038699Y-92840153D01*
X147949945Y-92972982D01*
X147836982Y-93085945D01*
X147704153Y-93174699D01*
X147704152Y-93174700D01*
X147704151Y-93174700D01*
X147556560Y-93235834D01*
X147399878Y-93267000D01*
X147240122Y-93267000D01*
X147083440Y-93235834D01*
X146935849Y-93174700D01*
X146935848Y-93174700D01*
X146935847Y-93174699D01*
X146803018Y-93085945D01*
X146690055Y-92972982D01*
X146601301Y-92840153D01*
X146540166Y-92692560D01*
X146509000Y-92535877D01*
X146509000Y-92376123D01*
X146540166Y-92219440D01*
X146601301Y-92071847D01*
X146690055Y-91939018D01*
X146803018Y-91826055D01*
X146935847Y-91737301D01*
X147083440Y-91676166D01*
X147240122Y-91645000D01*
X147399878Y-91645000D01*
X147556560Y-91676166D01*
X147556560Y-91676166D01*
G37*
G36*
X68816560Y-91676166D02*
G01*
X68964153Y-91737301D01*
X69096982Y-91826055D01*
X69209945Y-91939018D01*
X69298699Y-92071847D01*
X69359834Y-92219440D01*
X69391000Y-92376123D01*
X69391000Y-92535877D01*
X69359834Y-92692560D01*
X69298699Y-92840153D01*
X69209945Y-92972982D01*
X69096982Y-93085945D01*
X68964153Y-93174699D01*
X68964152Y-93174700D01*
X68964151Y-93174700D01*
X68816560Y-93235834D01*
X68659878Y-93267000D01*
X68500122Y-93267000D01*
X68343440Y-93235834D01*
X68195849Y-93174700D01*
X68195848Y-93174700D01*
X68195847Y-93174699D01*
X68063018Y-93085945D01*
X67950055Y-92972982D01*
X67861301Y-92840153D01*
X67800166Y-92692560D01*
X67769000Y-92535877D01*
X67769000Y-92376123D01*
X67800166Y-92219440D01*
X67861301Y-92071847D01*
X67950055Y-91939018D01*
X68063018Y-91826055D01*
X68195847Y-91737301D01*
X68343440Y-91676166D01*
X68500122Y-91645000D01*
X68659878Y-91645000D01*
X68816560Y-91676166D01*
X68816560Y-91676166D01*
G37*
G36*
X71356560Y-91676166D02*
G01*
X71504153Y-91737301D01*
X71636982Y-91826055D01*
X71749945Y-91939018D01*
X71838699Y-92071847D01*
X71899834Y-92219440D01*
X71931000Y-92376123D01*
X71931000Y-92535877D01*
X71899834Y-92692560D01*
X71838699Y-92840153D01*
X71749945Y-92972982D01*
X71636982Y-93085945D01*
X71504153Y-93174699D01*
X71504152Y-93174700D01*
X71504151Y-93174700D01*
X71356560Y-93235834D01*
X71199878Y-93267000D01*
X71040122Y-93267000D01*
X70883440Y-93235834D01*
X70735849Y-93174700D01*
X70735848Y-93174700D01*
X70735847Y-93174699D01*
X70603018Y-93085945D01*
X70490055Y-92972982D01*
X70401301Y-92840153D01*
X70340166Y-92692560D01*
X70309000Y-92535877D01*
X70309000Y-92376123D01*
X70340166Y-92219440D01*
X70401301Y-92071847D01*
X70490055Y-91939018D01*
X70603018Y-91826055D01*
X70735847Y-91737301D01*
X70883440Y-91676166D01*
X71040122Y-91645000D01*
X71199878Y-91645000D01*
X71356560Y-91676166D01*
X71356560Y-91676166D01*
G37*
G36*
X73896560Y-91676166D02*
G01*
X74044153Y-91737301D01*
X74176982Y-91826055D01*
X74289945Y-91939018D01*
X74378699Y-92071847D01*
X74439834Y-92219440D01*
X74471000Y-92376123D01*
X74471000Y-92535877D01*
X74439834Y-92692560D01*
X74378699Y-92840153D01*
X74289945Y-92972982D01*
X74176982Y-93085945D01*
X74044153Y-93174699D01*
X74044152Y-93174700D01*
X74044151Y-93174700D01*
X73896560Y-93235834D01*
X73739878Y-93267000D01*
X73580122Y-93267000D01*
X73423440Y-93235834D01*
X73275849Y-93174700D01*
X73275848Y-93174700D01*
X73275847Y-93174699D01*
X73143018Y-93085945D01*
X73030055Y-92972982D01*
X72941301Y-92840153D01*
X72880166Y-92692560D01*
X72849000Y-92535877D01*
X72849000Y-92376123D01*
X72880166Y-92219440D01*
X72941301Y-92071847D01*
X73030055Y-91939018D01*
X73143018Y-91826055D01*
X73275847Y-91737301D01*
X73423440Y-91676166D01*
X73580122Y-91645000D01*
X73739878Y-91645000D01*
X73896560Y-91676166D01*
X73896560Y-91676166D01*
G37*
G36*
X76436560Y-91676166D02*
G01*
X76584153Y-91737301D01*
X76716982Y-91826055D01*
X76829945Y-91939018D01*
X76918699Y-92071847D01*
X76979834Y-92219440D01*
X77011000Y-92376123D01*
X77011000Y-92535877D01*
X76979834Y-92692560D01*
X76918699Y-92840153D01*
X76829945Y-92972982D01*
X76716982Y-93085945D01*
X76584153Y-93174699D01*
X76584152Y-93174700D01*
X76584151Y-93174700D01*
X76436560Y-93235834D01*
X76279878Y-93267000D01*
X76120122Y-93267000D01*
X75963440Y-93235834D01*
X75815849Y-93174700D01*
X75815848Y-93174700D01*
X75815847Y-93174699D01*
X75683018Y-93085945D01*
X75570055Y-92972982D01*
X75481301Y-92840153D01*
X75420166Y-92692560D01*
X75389000Y-92535877D01*
X75389000Y-92376123D01*
X75420166Y-92219440D01*
X75481301Y-92071847D01*
X75570055Y-91939018D01*
X75683018Y-91826055D01*
X75815847Y-91737301D01*
X75963440Y-91676166D01*
X76120122Y-91645000D01*
X76279878Y-91645000D01*
X76436560Y-91676166D01*
X76436560Y-91676166D01*
G37*
G36*
X78976560Y-91676166D02*
G01*
X79124153Y-91737301D01*
X79256982Y-91826055D01*
X79369945Y-91939018D01*
X79458699Y-92071847D01*
X79519834Y-92219440D01*
X79551000Y-92376123D01*
X79551000Y-92535877D01*
X79519834Y-92692560D01*
X79458699Y-92840153D01*
X79369945Y-92972982D01*
X79256982Y-93085945D01*
X79124153Y-93174699D01*
X79124152Y-93174700D01*
X79124151Y-93174700D01*
X78976560Y-93235834D01*
X78819878Y-93267000D01*
X78660122Y-93267000D01*
X78503440Y-93235834D01*
X78355849Y-93174700D01*
X78355848Y-93174700D01*
X78355847Y-93174699D01*
X78223018Y-93085945D01*
X78110055Y-92972982D01*
X78021301Y-92840153D01*
X77960166Y-92692560D01*
X77929000Y-92535877D01*
X77929000Y-92376123D01*
X77960166Y-92219440D01*
X78021301Y-92071847D01*
X78110055Y-91939018D01*
X78223018Y-91826055D01*
X78355847Y-91737301D01*
X78503440Y-91676166D01*
X78660122Y-91645000D01*
X78819878Y-91645000D01*
X78976560Y-91676166D01*
X78976560Y-91676166D01*
G37*
G36*
X81516560Y-91676166D02*
G01*
X81664153Y-91737301D01*
X81796982Y-91826055D01*
X81909945Y-91939018D01*
X81998699Y-92071847D01*
X82059834Y-92219440D01*
X82091000Y-92376123D01*
X82091000Y-92535877D01*
X82059834Y-92692560D01*
X81998699Y-92840153D01*
X81909945Y-92972982D01*
X81796982Y-93085945D01*
X81664153Y-93174699D01*
X81664152Y-93174700D01*
X81664151Y-93174700D01*
X81516560Y-93235834D01*
X81359878Y-93267000D01*
X81200122Y-93267000D01*
X81043440Y-93235834D01*
X80895849Y-93174700D01*
X80895848Y-93174700D01*
X80895847Y-93174699D01*
X80763018Y-93085945D01*
X80650055Y-92972982D01*
X80561301Y-92840153D01*
X80500166Y-92692560D01*
X80469000Y-92535877D01*
X80469000Y-92376123D01*
X80500166Y-92219440D01*
X80561301Y-92071847D01*
X80650055Y-91939018D01*
X80763018Y-91826055D01*
X80895847Y-91737301D01*
X81043440Y-91676166D01*
X81200122Y-91645000D01*
X81359878Y-91645000D01*
X81516560Y-91676166D01*
X81516560Y-91676166D01*
G37*
G36*
X84056560Y-91676166D02*
G01*
X84204153Y-91737301D01*
X84336982Y-91826055D01*
X84449945Y-91939018D01*
X84538699Y-92071847D01*
X84599834Y-92219440D01*
X84631000Y-92376123D01*
X84631000Y-92535877D01*
X84599834Y-92692560D01*
X84538699Y-92840153D01*
X84449945Y-92972982D01*
X84336982Y-93085945D01*
X84204153Y-93174699D01*
X84204152Y-93174700D01*
X84204151Y-93174700D01*
X84056560Y-93235834D01*
X83899878Y-93267000D01*
X83740122Y-93267000D01*
X83583440Y-93235834D01*
X83435849Y-93174700D01*
X83435848Y-93174700D01*
X83435847Y-93174699D01*
X83303018Y-93085945D01*
X83190055Y-92972982D01*
X83101301Y-92840153D01*
X83040166Y-92692560D01*
X83009000Y-92535877D01*
X83009000Y-92376123D01*
X83040166Y-92219440D01*
X83101301Y-92071847D01*
X83190055Y-91939018D01*
X83303018Y-91826055D01*
X83435847Y-91737301D01*
X83583440Y-91676166D01*
X83740122Y-91645000D01*
X83899878Y-91645000D01*
X84056560Y-91676166D01*
X84056560Y-91676166D01*
G37*
G36*
X86596560Y-91676166D02*
G01*
X86744153Y-91737301D01*
X86876982Y-91826055D01*
X86989945Y-91939018D01*
X87078699Y-92071847D01*
X87139834Y-92219440D01*
X87171000Y-92376123D01*
X87171000Y-92535877D01*
X87139834Y-92692560D01*
X87078699Y-92840153D01*
X86989945Y-92972982D01*
X86876982Y-93085945D01*
X86744153Y-93174699D01*
X86744152Y-93174700D01*
X86744151Y-93174700D01*
X86596560Y-93235834D01*
X86439878Y-93267000D01*
X86280122Y-93267000D01*
X86123440Y-93235834D01*
X85975849Y-93174700D01*
X85975848Y-93174700D01*
X85975847Y-93174699D01*
X85843018Y-93085945D01*
X85730055Y-92972982D01*
X85641301Y-92840153D01*
X85580166Y-92692560D01*
X85549000Y-92535877D01*
X85549000Y-92376123D01*
X85580166Y-92219440D01*
X85641301Y-92071847D01*
X85730055Y-91939018D01*
X85843018Y-91826055D01*
X85975847Y-91737301D01*
X86123440Y-91676166D01*
X86280122Y-91645000D01*
X86439878Y-91645000D01*
X86596560Y-91676166D01*
X86596560Y-91676166D01*
G37*
G36*
X66276560Y-91676166D02*
G01*
X66424153Y-91737301D01*
X66556982Y-91826055D01*
X66669945Y-91939018D01*
X66758699Y-92071847D01*
X66819834Y-92219440D01*
X66851000Y-92376123D01*
X66851000Y-92535877D01*
X66819834Y-92692560D01*
X66758699Y-92840153D01*
X66669945Y-92972982D01*
X66556982Y-93085945D01*
X66424153Y-93174699D01*
X66424152Y-93174700D01*
X66424151Y-93174700D01*
X66276560Y-93235834D01*
X66119878Y-93267000D01*
X65960122Y-93267000D01*
X65803440Y-93235834D01*
X65655849Y-93174700D01*
X65655848Y-93174700D01*
X65655847Y-93174699D01*
X65523018Y-93085945D01*
X65410055Y-92972982D01*
X65321301Y-92840153D01*
X65260166Y-92692560D01*
X65229000Y-92535877D01*
X65229000Y-92376123D01*
X65260166Y-92219440D01*
X65321301Y-92071847D01*
X65410055Y-91939018D01*
X65523018Y-91826055D01*
X65655847Y-91737301D01*
X65803440Y-91676166D01*
X65960122Y-91645000D01*
X66119878Y-91645000D01*
X66276560Y-91676166D01*
X66276560Y-91676166D01*
G37*
G36*
X78976560Y-89136166D02*
G01*
X79124153Y-89197301D01*
X79256982Y-89286055D01*
X79369945Y-89399018D01*
X79458699Y-89531847D01*
X79519834Y-89679440D01*
X79551000Y-89836123D01*
X79551000Y-89995877D01*
X79519834Y-90152560D01*
X79458699Y-90300153D01*
X79369945Y-90432982D01*
X79256982Y-90545945D01*
X79124153Y-90634699D01*
X79124152Y-90634700D01*
X79124151Y-90634700D01*
X78976560Y-90695834D01*
X78819878Y-90727000D01*
X78660122Y-90727000D01*
X78503440Y-90695834D01*
X78355849Y-90634700D01*
X78355848Y-90634700D01*
X78355847Y-90634699D01*
X78223018Y-90545945D01*
X78110055Y-90432982D01*
X78021301Y-90300153D01*
X77960166Y-90152560D01*
X77929000Y-89995877D01*
X77929000Y-89836123D01*
X77960166Y-89679440D01*
X78021301Y-89531847D01*
X78110055Y-89399018D01*
X78223018Y-89286055D01*
X78355847Y-89197301D01*
X78503440Y-89136166D01*
X78660122Y-89105000D01*
X78819878Y-89105000D01*
X78976560Y-89136166D01*
X78976560Y-89136166D01*
G37*
G36*
X73896560Y-89136166D02*
G01*
X74044153Y-89197301D01*
X74176982Y-89286055D01*
X74289945Y-89399018D01*
X74378699Y-89531847D01*
X74439834Y-89679440D01*
X74471000Y-89836123D01*
X74471000Y-89995877D01*
X74439834Y-90152560D01*
X74378699Y-90300153D01*
X74289945Y-90432982D01*
X74176982Y-90545945D01*
X74044153Y-90634699D01*
X74044152Y-90634700D01*
X74044151Y-90634700D01*
X73896560Y-90695834D01*
X73739878Y-90727000D01*
X73580122Y-90727000D01*
X73423440Y-90695834D01*
X73275849Y-90634700D01*
X73275848Y-90634700D01*
X73275847Y-90634699D01*
X73143018Y-90545945D01*
X73030055Y-90432982D01*
X72941301Y-90300153D01*
X72880166Y-90152560D01*
X72849000Y-89995877D01*
X72849000Y-89836123D01*
X72880166Y-89679440D01*
X72941301Y-89531847D01*
X73030055Y-89399018D01*
X73143018Y-89286055D01*
X73275847Y-89197301D01*
X73423440Y-89136166D01*
X73580122Y-89105000D01*
X73739878Y-89105000D01*
X73896560Y-89136166D01*
X73896560Y-89136166D01*
G37*
G36*
X76436560Y-89136166D02*
G01*
X76584153Y-89197301D01*
X76716982Y-89286055D01*
X76829945Y-89399018D01*
X76918699Y-89531847D01*
X76979834Y-89679440D01*
X77011000Y-89836123D01*
X77011000Y-89995877D01*
X76979834Y-90152560D01*
X76918699Y-90300153D01*
X76829945Y-90432982D01*
X76716982Y-90545945D01*
X76584153Y-90634699D01*
X76584152Y-90634700D01*
X76584151Y-90634700D01*
X76436560Y-90695834D01*
X76279878Y-90727000D01*
X76120122Y-90727000D01*
X75963440Y-90695834D01*
X75815849Y-90634700D01*
X75815848Y-90634700D01*
X75815847Y-90634699D01*
X75683018Y-90545945D01*
X75570055Y-90432982D01*
X75481301Y-90300153D01*
X75420166Y-90152560D01*
X75389000Y-89995877D01*
X75389000Y-89836123D01*
X75420166Y-89679440D01*
X75481301Y-89531847D01*
X75570055Y-89399018D01*
X75683018Y-89286055D01*
X75815847Y-89197301D01*
X75963440Y-89136166D01*
X76120122Y-89105000D01*
X76279878Y-89105000D01*
X76436560Y-89136166D01*
X76436560Y-89136166D01*
G37*
G36*
X71356560Y-89136166D02*
G01*
X71504153Y-89197301D01*
X71636982Y-89286055D01*
X71749945Y-89399018D01*
X71838699Y-89531847D01*
X71899834Y-89679440D01*
X71931000Y-89836123D01*
X71931000Y-89995877D01*
X71899834Y-90152560D01*
X71838699Y-90300153D01*
X71749945Y-90432982D01*
X71636982Y-90545945D01*
X71504153Y-90634699D01*
X71504152Y-90634700D01*
X71504151Y-90634700D01*
X71356560Y-90695834D01*
X71199878Y-90727000D01*
X71040122Y-90727000D01*
X70883440Y-90695834D01*
X70735849Y-90634700D01*
X70735848Y-90634700D01*
X70735847Y-90634699D01*
X70603018Y-90545945D01*
X70490055Y-90432982D01*
X70401301Y-90300153D01*
X70340166Y-90152560D01*
X70309000Y-89995877D01*
X70309000Y-89836123D01*
X70340166Y-89679440D01*
X70401301Y-89531847D01*
X70490055Y-89399018D01*
X70603018Y-89286055D01*
X70735847Y-89197301D01*
X70883440Y-89136166D01*
X71040122Y-89105000D01*
X71199878Y-89105000D01*
X71356560Y-89136166D01*
X71356560Y-89136166D01*
G37*
G36*
X68816560Y-89136166D02*
G01*
X68964153Y-89197301D01*
X69096982Y-89286055D01*
X69209945Y-89399018D01*
X69298699Y-89531847D01*
X69359834Y-89679440D01*
X69391000Y-89836123D01*
X69391000Y-89995877D01*
X69359834Y-90152560D01*
X69298699Y-90300153D01*
X69209945Y-90432982D01*
X69096982Y-90545945D01*
X68964153Y-90634699D01*
X68964152Y-90634700D01*
X68964151Y-90634700D01*
X68816560Y-90695834D01*
X68659878Y-90727000D01*
X68500122Y-90727000D01*
X68343440Y-90695834D01*
X68195849Y-90634700D01*
X68195848Y-90634700D01*
X68195847Y-90634699D01*
X68063018Y-90545945D01*
X67950055Y-90432982D01*
X67861301Y-90300153D01*
X67800166Y-90152560D01*
X67769000Y-89995877D01*
X67769000Y-89836123D01*
X67800166Y-89679440D01*
X67861301Y-89531847D01*
X67950055Y-89399018D01*
X68063018Y-89286055D01*
X68195847Y-89197301D01*
X68343440Y-89136166D01*
X68500122Y-89105000D01*
X68659878Y-89105000D01*
X68816560Y-89136166D01*
X68816560Y-89136166D01*
G37*
G36*
X66276560Y-89136166D02*
G01*
X66424153Y-89197301D01*
X66556982Y-89286055D01*
X66669945Y-89399018D01*
X66758699Y-89531847D01*
X66819834Y-89679440D01*
X66851000Y-89836123D01*
X66851000Y-89995877D01*
X66819834Y-90152560D01*
X66758699Y-90300153D01*
X66669945Y-90432982D01*
X66556982Y-90545945D01*
X66424153Y-90634699D01*
X66424152Y-90634700D01*
X66424151Y-90634700D01*
X66276560Y-90695834D01*
X66119878Y-90727000D01*
X65960122Y-90727000D01*
X65803440Y-90695834D01*
X65655849Y-90634700D01*
X65655848Y-90634700D01*
X65655847Y-90634699D01*
X65523018Y-90545945D01*
X65410055Y-90432982D01*
X65321301Y-90300153D01*
X65260166Y-90152560D01*
X65229000Y-89995877D01*
X65229000Y-89836123D01*
X65260166Y-89679440D01*
X65321301Y-89531847D01*
X65410055Y-89399018D01*
X65523018Y-89286055D01*
X65655847Y-89197301D01*
X65803440Y-89136166D01*
X65960122Y-89105000D01*
X66119878Y-89105000D01*
X66276560Y-89136166D01*
X66276560Y-89136166D01*
G37*
G36*
X63736560Y-89136166D02*
G01*
X63884153Y-89197301D01*
X64016982Y-89286055D01*
X64129945Y-89399018D01*
X64218699Y-89531847D01*
X64279834Y-89679440D01*
X64311000Y-89836123D01*
X64311000Y-89995877D01*
X64279834Y-90152560D01*
X64218699Y-90300153D01*
X64129945Y-90432982D01*
X64016982Y-90545945D01*
X63884153Y-90634699D01*
X63884152Y-90634700D01*
X63884151Y-90634700D01*
X63736560Y-90695834D01*
X63579878Y-90727000D01*
X63420122Y-90727000D01*
X63263440Y-90695834D01*
X63115849Y-90634700D01*
X63115848Y-90634700D01*
X63115847Y-90634699D01*
X62983018Y-90545945D01*
X62870055Y-90432982D01*
X62781301Y-90300153D01*
X62720166Y-90152560D01*
X62689000Y-89995877D01*
X62689000Y-89836123D01*
X62720166Y-89679440D01*
X62781301Y-89531847D01*
X62870055Y-89399018D01*
X62983018Y-89286055D01*
X63115847Y-89197301D01*
X63263440Y-89136166D01*
X63420122Y-89105000D01*
X63579878Y-89105000D01*
X63736560Y-89136166D01*
X63736560Y-89136166D01*
G37*
G36*
X134856560Y-89136166D02*
G01*
X135004153Y-89197301D01*
X135136982Y-89286055D01*
X135249945Y-89399018D01*
X135338699Y-89531847D01*
X135399834Y-89679440D01*
X135431000Y-89836123D01*
X135431000Y-89995877D01*
X135399834Y-90152560D01*
X135338699Y-90300153D01*
X135249945Y-90432982D01*
X135136982Y-90545945D01*
X135004153Y-90634699D01*
X135004152Y-90634700D01*
X135004151Y-90634700D01*
X134856560Y-90695834D01*
X134699878Y-90727000D01*
X134540122Y-90727000D01*
X134383440Y-90695834D01*
X134235849Y-90634700D01*
X134235848Y-90634700D01*
X134235847Y-90634699D01*
X134103018Y-90545945D01*
X133990055Y-90432982D01*
X133901301Y-90300153D01*
X133840166Y-90152560D01*
X133809000Y-89995877D01*
X133809000Y-89836123D01*
X133840166Y-89679440D01*
X133901301Y-89531847D01*
X133990055Y-89399018D01*
X134103018Y-89286055D01*
X134235847Y-89197301D01*
X134383440Y-89136166D01*
X134540122Y-89105000D01*
X134699878Y-89105000D01*
X134856560Y-89136166D01*
X134856560Y-89136166D01*
G37*
G36*
X145016560Y-89136166D02*
G01*
X145164153Y-89197301D01*
X145296982Y-89286055D01*
X145409945Y-89399018D01*
X145498699Y-89531847D01*
X145559834Y-89679440D01*
X145591000Y-89836123D01*
X145591000Y-89995877D01*
X145559834Y-90152560D01*
X145498699Y-90300153D01*
X145409945Y-90432982D01*
X145296982Y-90545945D01*
X145164153Y-90634699D01*
X145164152Y-90634700D01*
X145164151Y-90634700D01*
X145016560Y-90695834D01*
X144859878Y-90727000D01*
X144700122Y-90727000D01*
X144543440Y-90695834D01*
X144395849Y-90634700D01*
X144395848Y-90634700D01*
X144395847Y-90634699D01*
X144263018Y-90545945D01*
X144150055Y-90432982D01*
X144061301Y-90300153D01*
X144000166Y-90152560D01*
X143969000Y-89995877D01*
X143969000Y-89836123D01*
X144000166Y-89679440D01*
X144061301Y-89531847D01*
X144150055Y-89399018D01*
X144263018Y-89286055D01*
X144395847Y-89197301D01*
X144543440Y-89136166D01*
X144700122Y-89105000D01*
X144859878Y-89105000D01*
X145016560Y-89136166D01*
X145016560Y-89136166D01*
G37*
G36*
X150096560Y-89136166D02*
G01*
X150244153Y-89197301D01*
X150376982Y-89286055D01*
X150489945Y-89399018D01*
X150578699Y-89531847D01*
X150639834Y-89679440D01*
X150671000Y-89836123D01*
X150671000Y-89995877D01*
X150639834Y-90152560D01*
X150578699Y-90300153D01*
X150489945Y-90432982D01*
X150376982Y-90545945D01*
X150244153Y-90634699D01*
X150244152Y-90634700D01*
X150244151Y-90634700D01*
X150096560Y-90695834D01*
X149939878Y-90727000D01*
X149780122Y-90727000D01*
X149623440Y-90695834D01*
X149475849Y-90634700D01*
X149475848Y-90634700D01*
X149475847Y-90634699D01*
X149343018Y-90545945D01*
X149230055Y-90432982D01*
X149141301Y-90300153D01*
X149080166Y-90152560D01*
X149049000Y-89995877D01*
X149049000Y-89836123D01*
X149080166Y-89679440D01*
X149141301Y-89531847D01*
X149230055Y-89399018D01*
X149343018Y-89286055D01*
X149475847Y-89197301D01*
X149623440Y-89136166D01*
X149780122Y-89105000D01*
X149939878Y-89105000D01*
X150096560Y-89136166D01*
X150096560Y-89136166D01*
G37*
G36*
X84056560Y-89136166D02*
G01*
X84204153Y-89197301D01*
X84336982Y-89286055D01*
X84449945Y-89399018D01*
X84538699Y-89531847D01*
X84599834Y-89679440D01*
X84631000Y-89836123D01*
X84631000Y-89995877D01*
X84599834Y-90152560D01*
X84538699Y-90300153D01*
X84449945Y-90432982D01*
X84336982Y-90545945D01*
X84204153Y-90634699D01*
X84204152Y-90634700D01*
X84204151Y-90634700D01*
X84056560Y-90695834D01*
X83899878Y-90727000D01*
X83740122Y-90727000D01*
X83583440Y-90695834D01*
X83435849Y-90634700D01*
X83435848Y-90634700D01*
X83435847Y-90634699D01*
X83303018Y-90545945D01*
X83190055Y-90432982D01*
X83101301Y-90300153D01*
X83040166Y-90152560D01*
X83009000Y-89995877D01*
X83009000Y-89836123D01*
X83040166Y-89679440D01*
X83101301Y-89531847D01*
X83190055Y-89399018D01*
X83303018Y-89286055D01*
X83435847Y-89197301D01*
X83583440Y-89136166D01*
X83740122Y-89105000D01*
X83899878Y-89105000D01*
X84056560Y-89136166D01*
X84056560Y-89136166D01*
G37*
G36*
X86596560Y-89136166D02*
G01*
X86744153Y-89197301D01*
X86876982Y-89286055D01*
X86989945Y-89399018D01*
X87078699Y-89531847D01*
X87139834Y-89679440D01*
X87171000Y-89836123D01*
X87171000Y-89995877D01*
X87139834Y-90152560D01*
X87078699Y-90300153D01*
X86989945Y-90432982D01*
X86876982Y-90545945D01*
X86744153Y-90634699D01*
X86744152Y-90634700D01*
X86744151Y-90634700D01*
X86596560Y-90695834D01*
X86439878Y-90727000D01*
X86280122Y-90727000D01*
X86123440Y-90695834D01*
X85975849Y-90634700D01*
X85975848Y-90634700D01*
X85975847Y-90634699D01*
X85843018Y-90545945D01*
X85730055Y-90432982D01*
X85641301Y-90300153D01*
X85580166Y-90152560D01*
X85549000Y-89995877D01*
X85549000Y-89836123D01*
X85580166Y-89679440D01*
X85641301Y-89531847D01*
X85730055Y-89399018D01*
X85843018Y-89286055D01*
X85975847Y-89197301D01*
X86123440Y-89136166D01*
X86280122Y-89105000D01*
X86439878Y-89105000D01*
X86596560Y-89136166D01*
X86596560Y-89136166D01*
G37*
G36*
X132316560Y-89136166D02*
G01*
X132464153Y-89197301D01*
X132596982Y-89286055D01*
X132709945Y-89399018D01*
X132798699Y-89531847D01*
X132859834Y-89679440D01*
X132891000Y-89836123D01*
X132891000Y-89995877D01*
X132859834Y-90152560D01*
X132798699Y-90300153D01*
X132709945Y-90432982D01*
X132596982Y-90545945D01*
X132464153Y-90634699D01*
X132464152Y-90634700D01*
X132464151Y-90634700D01*
X132316560Y-90695834D01*
X132159878Y-90727000D01*
X132000122Y-90727000D01*
X131843440Y-90695834D01*
X131695849Y-90634700D01*
X131695848Y-90634700D01*
X131695847Y-90634699D01*
X131563018Y-90545945D01*
X131450055Y-90432982D01*
X131361301Y-90300153D01*
X131300166Y-90152560D01*
X131269000Y-89995877D01*
X131269000Y-89836123D01*
X131300166Y-89679440D01*
X131361301Y-89531847D01*
X131450055Y-89399018D01*
X131563018Y-89286055D01*
X131695847Y-89197301D01*
X131843440Y-89136166D01*
X132000122Y-89105000D01*
X132159878Y-89105000D01*
X132316560Y-89136166D01*
X132316560Y-89136166D01*
G37*
G36*
X129776560Y-89136166D02*
G01*
X129924153Y-89197301D01*
X130056982Y-89286055D01*
X130169945Y-89399018D01*
X130258699Y-89531847D01*
X130319834Y-89679440D01*
X130351000Y-89836123D01*
X130351000Y-89995877D01*
X130319834Y-90152560D01*
X130258699Y-90300153D01*
X130169945Y-90432982D01*
X130056982Y-90545945D01*
X129924153Y-90634699D01*
X129924152Y-90634700D01*
X129924151Y-90634700D01*
X129776560Y-90695834D01*
X129619878Y-90727000D01*
X129460122Y-90727000D01*
X129303440Y-90695834D01*
X129155849Y-90634700D01*
X129155848Y-90634700D01*
X129155847Y-90634699D01*
X129023018Y-90545945D01*
X128910055Y-90432982D01*
X128821301Y-90300153D01*
X128760166Y-90152560D01*
X128729000Y-89995877D01*
X128729000Y-89836123D01*
X128760166Y-89679440D01*
X128821301Y-89531847D01*
X128910055Y-89399018D01*
X129023018Y-89286055D01*
X129155847Y-89197301D01*
X129303440Y-89136166D01*
X129460122Y-89105000D01*
X129619878Y-89105000D01*
X129776560Y-89136166D01*
X129776560Y-89136166D01*
G37*
G36*
X127236560Y-89136166D02*
G01*
X127384153Y-89197301D01*
X127516982Y-89286055D01*
X127629945Y-89399018D01*
X127718699Y-89531847D01*
X127779834Y-89679440D01*
X127811000Y-89836123D01*
X127811000Y-89995877D01*
X127779834Y-90152560D01*
X127718699Y-90300153D01*
X127629945Y-90432982D01*
X127516982Y-90545945D01*
X127384153Y-90634699D01*
X127384152Y-90634700D01*
X127384151Y-90634700D01*
X127236560Y-90695834D01*
X127079878Y-90727000D01*
X126920122Y-90727000D01*
X126763440Y-90695834D01*
X126615849Y-90634700D01*
X126615848Y-90634700D01*
X126615847Y-90634699D01*
X126483018Y-90545945D01*
X126370055Y-90432982D01*
X126281301Y-90300153D01*
X126220166Y-90152560D01*
X126189000Y-89995877D01*
X126189000Y-89836123D01*
X126220166Y-89679440D01*
X126281301Y-89531847D01*
X126370055Y-89399018D01*
X126483018Y-89286055D01*
X126615847Y-89197301D01*
X126763440Y-89136166D01*
X126920122Y-89105000D01*
X127079878Y-89105000D01*
X127236560Y-89136166D01*
X127236560Y-89136166D01*
G37*
G36*
X139936560Y-89136166D02*
G01*
X140084153Y-89197301D01*
X140216982Y-89286055D01*
X140329945Y-89399018D01*
X140418699Y-89531847D01*
X140479834Y-89679440D01*
X140511000Y-89836123D01*
X140511000Y-89995877D01*
X140479834Y-90152560D01*
X140418699Y-90300153D01*
X140329945Y-90432982D01*
X140216982Y-90545945D01*
X140084153Y-90634699D01*
X140084152Y-90634700D01*
X140084151Y-90634700D01*
X139936560Y-90695834D01*
X139779878Y-90727000D01*
X139620122Y-90727000D01*
X139463440Y-90695834D01*
X139315849Y-90634700D01*
X139315848Y-90634700D01*
X139315847Y-90634699D01*
X139183018Y-90545945D01*
X139070055Y-90432982D01*
X138981301Y-90300153D01*
X138920166Y-90152560D01*
X138889000Y-89995877D01*
X138889000Y-89836123D01*
X138920166Y-89679440D01*
X138981301Y-89531847D01*
X139070055Y-89399018D01*
X139183018Y-89286055D01*
X139315847Y-89197301D01*
X139463440Y-89136166D01*
X139620122Y-89105000D01*
X139779878Y-89105000D01*
X139936560Y-89136166D01*
X139936560Y-89136166D01*
G37*
G36*
X142476560Y-89136166D02*
G01*
X142624153Y-89197301D01*
X142756982Y-89286055D01*
X142869945Y-89399018D01*
X142958699Y-89531847D01*
X143019834Y-89679440D01*
X143051000Y-89836123D01*
X143051000Y-89995877D01*
X143019834Y-90152560D01*
X142958699Y-90300153D01*
X142869945Y-90432982D01*
X142756982Y-90545945D01*
X142624153Y-90634699D01*
X142624152Y-90634700D01*
X142624151Y-90634700D01*
X142476560Y-90695834D01*
X142319878Y-90727000D01*
X142160122Y-90727000D01*
X142003440Y-90695834D01*
X141855849Y-90634700D01*
X141855848Y-90634700D01*
X141855847Y-90634699D01*
X141723018Y-90545945D01*
X141610055Y-90432982D01*
X141521301Y-90300153D01*
X141460166Y-90152560D01*
X141429000Y-89995877D01*
X141429000Y-89836123D01*
X141460166Y-89679440D01*
X141521301Y-89531847D01*
X141610055Y-89399018D01*
X141723018Y-89286055D01*
X141855847Y-89197301D01*
X142003440Y-89136166D01*
X142160122Y-89105000D01*
X142319878Y-89105000D01*
X142476560Y-89136166D01*
X142476560Y-89136166D01*
G37*
G36*
X147556560Y-89136166D02*
G01*
X147704153Y-89197301D01*
X147836982Y-89286055D01*
X147949945Y-89399018D01*
X148038699Y-89531847D01*
X148099834Y-89679440D01*
X148131000Y-89836123D01*
X148131000Y-89995877D01*
X148099834Y-90152560D01*
X148038699Y-90300153D01*
X147949945Y-90432982D01*
X147836982Y-90545945D01*
X147704153Y-90634699D01*
X147704152Y-90634700D01*
X147704151Y-90634700D01*
X147556560Y-90695834D01*
X147399878Y-90727000D01*
X147240122Y-90727000D01*
X147083440Y-90695834D01*
X146935849Y-90634700D01*
X146935848Y-90634700D01*
X146935847Y-90634699D01*
X146803018Y-90545945D01*
X146690055Y-90432982D01*
X146601301Y-90300153D01*
X146540166Y-90152560D01*
X146509000Y-89995877D01*
X146509000Y-89836123D01*
X146540166Y-89679440D01*
X146601301Y-89531847D01*
X146690055Y-89399018D01*
X146803018Y-89286055D01*
X146935847Y-89197301D01*
X147083440Y-89136166D01*
X147240122Y-89105000D01*
X147399878Y-89105000D01*
X147556560Y-89136166D01*
X147556560Y-89136166D01*
G37*
G36*
X137396560Y-89136166D02*
G01*
X137544153Y-89197301D01*
X137676982Y-89286055D01*
X137789945Y-89399018D01*
X137878699Y-89531847D01*
X137939834Y-89679440D01*
X137971000Y-89836123D01*
X137971000Y-89995877D01*
X137939834Y-90152560D01*
X137878699Y-90300153D01*
X137789945Y-90432982D01*
X137676982Y-90545945D01*
X137544153Y-90634699D01*
X137544152Y-90634700D01*
X137544151Y-90634700D01*
X137396560Y-90695834D01*
X137239878Y-90727000D01*
X137080122Y-90727000D01*
X136923440Y-90695834D01*
X136775849Y-90634700D01*
X136775848Y-90634700D01*
X136775847Y-90634699D01*
X136643018Y-90545945D01*
X136530055Y-90432982D01*
X136441301Y-90300153D01*
X136380166Y-90152560D01*
X136349000Y-89995877D01*
X136349000Y-89836123D01*
X136380166Y-89679440D01*
X136441301Y-89531847D01*
X136530055Y-89399018D01*
X136643018Y-89286055D01*
X136775847Y-89197301D01*
X136923440Y-89136166D01*
X137080122Y-89105000D01*
X137239878Y-89105000D01*
X137396560Y-89136166D01*
X137396560Y-89136166D01*
G37*
G36*
X81516560Y-89136166D02*
G01*
X81664153Y-89197301D01*
X81796982Y-89286055D01*
X81909945Y-89399018D01*
X81998699Y-89531847D01*
X82059834Y-89679440D01*
X82091000Y-89836123D01*
X82091000Y-89995877D01*
X82059834Y-90152560D01*
X81998699Y-90300153D01*
X81909945Y-90432982D01*
X81796982Y-90545945D01*
X81664153Y-90634699D01*
X81664152Y-90634700D01*
X81664151Y-90634700D01*
X81516560Y-90695834D01*
X81359878Y-90727000D01*
X81200122Y-90727000D01*
X81043440Y-90695834D01*
X80895849Y-90634700D01*
X80895848Y-90634700D01*
X80895847Y-90634699D01*
X80763018Y-90545945D01*
X80650055Y-90432982D01*
X80561301Y-90300153D01*
X80500166Y-90152560D01*
X80469000Y-89995877D01*
X80469000Y-89836123D01*
X80500166Y-89679440D01*
X80561301Y-89531847D01*
X80650055Y-89399018D01*
X80763018Y-89286055D01*
X80895847Y-89197301D01*
X81043440Y-89136166D01*
X81200122Y-89105000D01*
X81359878Y-89105000D01*
X81516560Y-89136166D01*
X81516560Y-89136166D01*
G37*
G36*
X73897142Y-79228242D02*
G01*
X74045101Y-79289529D01*
X74178255Y-79378499D01*
X74291501Y-79491745D01*
X74380471Y-79624899D01*
X74441758Y-79772858D01*
X74473000Y-79929925D01*
X74473000Y-80090075D01*
X74441758Y-80247142D01*
X74380471Y-80395101D01*
X74291501Y-80528255D01*
X74178255Y-80641501D01*
X74045101Y-80730471D01*
X73897142Y-80791758D01*
X73740075Y-80823000D01*
X73579925Y-80823000D01*
X73422858Y-80791758D01*
X73274899Y-80730471D01*
X73141745Y-80641501D01*
X73028499Y-80528255D01*
X72939529Y-80395101D01*
X72878242Y-80247142D01*
X72847000Y-80090075D01*
X72847000Y-79929925D01*
X72878242Y-79772858D01*
X72939529Y-79624899D01*
X73028499Y-79491745D01*
X73141745Y-79378499D01*
X73274899Y-79289529D01*
X73422858Y-79228242D01*
X73579925Y-79197000D01*
X73740075Y-79197000D01*
X73897142Y-79228242D01*
X73897142Y-79228242D01*
G37*
G36*
X68817142Y-79228242D02*
G01*
X68965101Y-79289529D01*
X69098255Y-79378499D01*
X69211501Y-79491745D01*
X69300471Y-79624899D01*
X69361758Y-79772858D01*
X69393000Y-79929925D01*
X69393000Y-80090075D01*
X69361758Y-80247142D01*
X69300471Y-80395101D01*
X69211501Y-80528255D01*
X69098255Y-80641501D01*
X68965101Y-80730471D01*
X68817142Y-80791758D01*
X68660075Y-80823000D01*
X68499925Y-80823000D01*
X68342858Y-80791758D01*
X68194899Y-80730471D01*
X68061745Y-80641501D01*
X67948499Y-80528255D01*
X67859529Y-80395101D01*
X67798242Y-80247142D01*
X67767000Y-80090075D01*
X67767000Y-79929925D01*
X67798242Y-79772858D01*
X67859529Y-79624899D01*
X67948499Y-79491745D01*
X68061745Y-79378499D01*
X68194899Y-79289529D01*
X68342858Y-79228242D01*
X68499925Y-79197000D01*
X68660075Y-79197000D01*
X68817142Y-79228242D01*
X68817142Y-79228242D01*
G37*
G36*
X71357142Y-79228242D02*
G01*
X71505101Y-79289529D01*
X71638255Y-79378499D01*
X71751501Y-79491745D01*
X71840471Y-79624899D01*
X71901758Y-79772858D01*
X71933000Y-79929925D01*
X71933000Y-80090075D01*
X71901758Y-80247142D01*
X71840471Y-80395101D01*
X71751501Y-80528255D01*
X71638255Y-80641501D01*
X71505101Y-80730471D01*
X71357142Y-80791758D01*
X71200075Y-80823000D01*
X71039925Y-80823000D01*
X70882858Y-80791758D01*
X70734899Y-80730471D01*
X70601745Y-80641501D01*
X70488499Y-80528255D01*
X70399529Y-80395101D01*
X70338242Y-80247142D01*
X70307000Y-80090075D01*
X70307000Y-79929925D01*
X70338242Y-79772858D01*
X70399529Y-79624899D01*
X70488499Y-79491745D01*
X70601745Y-79378499D01*
X70734899Y-79289529D01*
X70882858Y-79228242D01*
X71039925Y-79197000D01*
X71200075Y-79197000D01*
X71357142Y-79228242D01*
X71357142Y-79228242D01*
G37*
G36*
X76437142Y-79228242D02*
G01*
X76585101Y-79289529D01*
X76718255Y-79378499D01*
X76831501Y-79491745D01*
X76920471Y-79624899D01*
X76981758Y-79772858D01*
X77013000Y-79929925D01*
X77013000Y-80090075D01*
X76981758Y-80247142D01*
X76920471Y-80395101D01*
X76831501Y-80528255D01*
X76718255Y-80641501D01*
X76585101Y-80730471D01*
X76437142Y-80791758D01*
X76280075Y-80823000D01*
X76119925Y-80823000D01*
X75962858Y-80791758D01*
X75814899Y-80730471D01*
X75681745Y-80641501D01*
X75568499Y-80528255D01*
X75479529Y-80395101D01*
X75418242Y-80247142D01*
X75387000Y-80090075D01*
X75387000Y-79929925D01*
X75418242Y-79772858D01*
X75479529Y-79624899D01*
X75568499Y-79491745D01*
X75681745Y-79378499D01*
X75814899Y-79289529D01*
X75962858Y-79228242D01*
X76119925Y-79197000D01*
X76280075Y-79197000D01*
X76437142Y-79228242D01*
X76437142Y-79228242D01*
G37*
G36*
X66277142Y-79228242D02*
G01*
X66425101Y-79289529D01*
X66558255Y-79378499D01*
X66671501Y-79491745D01*
X66760471Y-79624899D01*
X66821758Y-79772858D01*
X66853000Y-79929925D01*
X66853000Y-80090075D01*
X66821758Y-80247142D01*
X66760471Y-80395101D01*
X66671501Y-80528255D01*
X66558255Y-80641501D01*
X66425101Y-80730471D01*
X66277142Y-80791758D01*
X66120075Y-80823000D01*
X65959925Y-80823000D01*
X65802858Y-80791758D01*
X65654899Y-80730471D01*
X65521745Y-80641501D01*
X65408499Y-80528255D01*
X65319529Y-80395101D01*
X65258242Y-80247142D01*
X65227000Y-80090075D01*
X65227000Y-79929925D01*
X65258242Y-79772858D01*
X65319529Y-79624899D01*
X65408499Y-79491745D01*
X65521745Y-79378499D01*
X65654899Y-79289529D01*
X65802858Y-79228242D01*
X65959925Y-79197000D01*
X66120075Y-79197000D01*
X66277142Y-79228242D01*
X66277142Y-79228242D01*
G37*
G36*
X121395142Y-76942242D02*
G01*
X121543101Y-77003529D01*
X121676255Y-77092499D01*
X121789501Y-77205745D01*
X121878471Y-77338899D01*
X121939758Y-77486858D01*
X121971000Y-77643925D01*
X121971000Y-77804075D01*
X121939758Y-77961142D01*
X121878471Y-78109101D01*
X121789501Y-78242255D01*
X121676255Y-78355501D01*
X121543101Y-78444471D01*
X121395142Y-78505758D01*
X121238075Y-78537000D01*
X121077925Y-78537000D01*
X120920858Y-78505758D01*
X120772899Y-78444471D01*
X120639745Y-78355501D01*
X120526499Y-78242255D01*
X120437529Y-78109101D01*
X120376242Y-77961142D01*
X120345000Y-77804075D01*
X120345000Y-77643925D01*
X120376242Y-77486858D01*
X120437529Y-77338899D01*
X120526499Y-77205745D01*
X120639745Y-77092499D01*
X120772899Y-77003529D01*
X120920858Y-76942242D01*
X121077925Y-76911000D01*
X121238075Y-76911000D01*
X121395142Y-76942242D01*
X121395142Y-76942242D01*
G37*
G36*
X118855142Y-76942242D02*
G01*
X119003101Y-77003529D01*
X119136255Y-77092499D01*
X119249501Y-77205745D01*
X119338471Y-77338899D01*
X119399758Y-77486858D01*
X119431000Y-77643925D01*
X119431000Y-77804075D01*
X119399758Y-77961142D01*
X119338471Y-78109101D01*
X119249501Y-78242255D01*
X119136255Y-78355501D01*
X119003101Y-78444471D01*
X118855142Y-78505758D01*
X118698075Y-78537000D01*
X118537925Y-78537000D01*
X118380858Y-78505758D01*
X118232899Y-78444471D01*
X118099745Y-78355501D01*
X117986499Y-78242255D01*
X117897529Y-78109101D01*
X117836242Y-77961142D01*
X117805000Y-77804075D01*
X117805000Y-77643925D01*
X117836242Y-77486858D01*
X117897529Y-77338899D01*
X117986499Y-77205745D01*
X118099745Y-77092499D01*
X118232899Y-77003529D01*
X118380858Y-76942242D01*
X118537925Y-76911000D01*
X118698075Y-76911000D01*
X118855142Y-76942242D01*
X118855142Y-76942242D01*
G37*
G36*
X116315142Y-76942242D02*
G01*
X116463101Y-77003529D01*
X116596255Y-77092499D01*
X116709501Y-77205745D01*
X116798471Y-77338899D01*
X116859758Y-77486858D01*
X116891000Y-77643925D01*
X116891000Y-77804075D01*
X116859758Y-77961142D01*
X116798471Y-78109101D01*
X116709501Y-78242255D01*
X116596255Y-78355501D01*
X116463101Y-78444471D01*
X116315142Y-78505758D01*
X116158075Y-78537000D01*
X115997925Y-78537000D01*
X115840858Y-78505758D01*
X115692899Y-78444471D01*
X115559745Y-78355501D01*
X115446499Y-78242255D01*
X115357529Y-78109101D01*
X115296242Y-77961142D01*
X115265000Y-77804075D01*
X115265000Y-77643925D01*
X115296242Y-77486858D01*
X115357529Y-77338899D01*
X115446499Y-77205745D01*
X115559745Y-77092499D01*
X115692899Y-77003529D01*
X115840858Y-76942242D01*
X115997925Y-76911000D01*
X116158075Y-76911000D01*
X116315142Y-76942242D01*
X116315142Y-76942242D01*
G37*
G36*
X123935142Y-76942242D02*
G01*
X124083101Y-77003529D01*
X124216255Y-77092499D01*
X124329501Y-77205745D01*
X124418471Y-77338899D01*
X124479758Y-77486858D01*
X124511000Y-77643925D01*
X124511000Y-77804075D01*
X124479758Y-77961142D01*
X124418471Y-78109101D01*
X124329501Y-78242255D01*
X124216255Y-78355501D01*
X124083101Y-78444471D01*
X123935142Y-78505758D01*
X123778075Y-78537000D01*
X123617925Y-78537000D01*
X123460858Y-78505758D01*
X123312899Y-78444471D01*
X123179745Y-78355501D01*
X123066499Y-78242255D01*
X122977529Y-78109101D01*
X122916242Y-77961142D01*
X122885000Y-77804075D01*
X122885000Y-77643925D01*
X122916242Y-77486858D01*
X122977529Y-77338899D01*
X123066499Y-77205745D01*
X123179745Y-77092499D01*
X123312899Y-77003529D01*
X123460858Y-76942242D01*
X123617925Y-76911000D01*
X123778075Y-76911000D01*
X123935142Y-76942242D01*
X123935142Y-76942242D01*
G37*
G36*
X123935142Y-68052242D02*
G01*
X124083101Y-68113529D01*
X124216255Y-68202499D01*
X124329501Y-68315745D01*
X124418471Y-68448899D01*
X124479758Y-68596858D01*
X124511000Y-68753925D01*
X124511000Y-68914075D01*
X124479758Y-69071142D01*
X124418471Y-69219101D01*
X124329501Y-69352255D01*
X124216255Y-69465501D01*
X124083101Y-69554471D01*
X123935142Y-69615758D01*
X123778075Y-69647000D01*
X123617925Y-69647000D01*
X123460858Y-69615758D01*
X123312899Y-69554471D01*
X123179745Y-69465501D01*
X123066499Y-69352255D01*
X122977529Y-69219101D01*
X122916242Y-69071142D01*
X122885000Y-68914075D01*
X122885000Y-68753925D01*
X122916242Y-68596858D01*
X122977529Y-68448899D01*
X123066499Y-68315745D01*
X123179745Y-68202499D01*
X123312899Y-68113529D01*
X123460858Y-68052242D01*
X123617925Y-68021000D01*
X123778075Y-68021000D01*
X123935142Y-68052242D01*
X123935142Y-68052242D01*
G37*
G36*
X116315142Y-68052242D02*
G01*
X116463101Y-68113529D01*
X116596255Y-68202499D01*
X116709501Y-68315745D01*
X116798471Y-68448899D01*
X116859758Y-68596858D01*
X116891000Y-68753925D01*
X116891000Y-68914075D01*
X116859758Y-69071142D01*
X116798471Y-69219101D01*
X116709501Y-69352255D01*
X116596255Y-69465501D01*
X116463101Y-69554471D01*
X116315142Y-69615758D01*
X116158075Y-69647000D01*
X115997925Y-69647000D01*
X115840858Y-69615758D01*
X115692899Y-69554471D01*
X115559745Y-69465501D01*
X115446499Y-69352255D01*
X115357529Y-69219101D01*
X115296242Y-69071142D01*
X115265000Y-68914075D01*
X115265000Y-68753925D01*
X115296242Y-68596858D01*
X115357529Y-68448899D01*
X115446499Y-68315745D01*
X115559745Y-68202499D01*
X115692899Y-68113529D01*
X115840858Y-68052242D01*
X115997925Y-68021000D01*
X116158075Y-68021000D01*
X116315142Y-68052242D01*
X116315142Y-68052242D01*
G37*
G36*
X121395142Y-68052242D02*
G01*
X121543101Y-68113529D01*
X121676255Y-68202499D01*
X121789501Y-68315745D01*
X121878471Y-68448899D01*
X121939758Y-68596858D01*
X121971000Y-68753925D01*
X121971000Y-68914075D01*
X121939758Y-69071142D01*
X121878471Y-69219101D01*
X121789501Y-69352255D01*
X121676255Y-69465501D01*
X121543101Y-69554471D01*
X121395142Y-69615758D01*
X121238075Y-69647000D01*
X121077925Y-69647000D01*
X120920858Y-69615758D01*
X120772899Y-69554471D01*
X120639745Y-69465501D01*
X120526499Y-69352255D01*
X120437529Y-69219101D01*
X120376242Y-69071142D01*
X120345000Y-68914075D01*
X120345000Y-68753925D01*
X120376242Y-68596858D01*
X120437529Y-68448899D01*
X120526499Y-68315745D01*
X120639745Y-68202499D01*
X120772899Y-68113529D01*
X120920858Y-68052242D01*
X121077925Y-68021000D01*
X121238075Y-68021000D01*
X121395142Y-68052242D01*
X121395142Y-68052242D01*
G37*
G36*
X118855142Y-68052242D02*
G01*
X119003101Y-68113529D01*
X119136255Y-68202499D01*
X119249501Y-68315745D01*
X119338471Y-68448899D01*
X119399758Y-68596858D01*
X119431000Y-68753925D01*
X119431000Y-68914075D01*
X119399758Y-69071142D01*
X119338471Y-69219101D01*
X119249501Y-69352255D01*
X119136255Y-69465501D01*
X119003101Y-69554471D01*
X118855142Y-69615758D01*
X118698075Y-69647000D01*
X118537925Y-69647000D01*
X118380858Y-69615758D01*
X118232899Y-69554471D01*
X118099745Y-69465501D01*
X117986499Y-69352255D01*
X117897529Y-69219101D01*
X117836242Y-69071142D01*
X117805000Y-68914075D01*
X117805000Y-68753925D01*
X117836242Y-68596858D01*
X117897529Y-68448899D01*
X117986499Y-68315745D01*
X118099745Y-68202499D01*
X118232899Y-68113529D01*
X118380858Y-68052242D01*
X118537925Y-68021000D01*
X118698075Y-68021000D01*
X118855142Y-68052242D01*
X118855142Y-68052242D01*
G37*
G36*
X185579855Y-65082140D02*
G01*
X185643618Y-65088420D01*
X185734404Y-65115960D01*
X185766336Y-65125646D01*
X185879425Y-65186094D01*
X185978554Y-65267446D01*
X186059906Y-65366575D01*
X186120354Y-65479664D01*
X186120355Y-65479668D01*
X186157580Y-65602382D01*
X186170149Y-65730000D01*
X186157580Y-65857618D01*
X186130040Y-65948404D01*
X186120354Y-65980336D01*
X186059906Y-66093425D01*
X185978554Y-66192554D01*
X185879425Y-66273906D01*
X185766336Y-66334354D01*
X185734404Y-66344040D01*
X185643618Y-66371580D01*
X185579855Y-66377860D01*
X185547974Y-66381000D01*
X184784026Y-66381000D01*
X184752145Y-66377860D01*
X184688382Y-66371580D01*
X184597596Y-66344040D01*
X184565664Y-66334354D01*
X184452575Y-66273906D01*
X184353446Y-66192554D01*
X184272094Y-66093425D01*
X184211646Y-65980336D01*
X184201960Y-65948404D01*
X184174420Y-65857618D01*
X184161851Y-65730000D01*
X184174420Y-65602382D01*
X184211645Y-65479668D01*
X184211646Y-65479664D01*
X184272094Y-65366575D01*
X184353446Y-65267446D01*
X184452575Y-65186094D01*
X184565664Y-65125646D01*
X184597596Y-65115960D01*
X184688382Y-65088420D01*
X184752145Y-65082140D01*
X184784026Y-65079000D01*
X185547974Y-65079000D01*
X185579855Y-65082140D01*
X185579855Y-65082140D01*
G37*
G36*
X182692348Y-63983820D02*
G01*
X182692350Y-63983821D01*
X182692351Y-63983821D01*
X182833574Y-64042317D01*
X182833577Y-64042319D01*
X182960669Y-64127239D01*
X183068761Y-64235331D01*
X183153681Y-64362423D01*
X183153683Y-64362426D01*
X183212179Y-64503649D01*
X183242000Y-64653571D01*
X183242000Y-64806429D01*
X183212179Y-64956351D01*
X183153683Y-65097574D01*
X183153681Y-65097577D01*
X183068761Y-65224669D01*
X182960669Y-65332761D01*
X182833577Y-65417681D01*
X182833574Y-65417683D01*
X182692351Y-65476179D01*
X182692350Y-65476179D01*
X182692348Y-65476180D01*
X182542431Y-65506000D01*
X182389569Y-65506000D01*
X182239652Y-65476180D01*
X182239650Y-65476179D01*
X182239649Y-65476179D01*
X182098426Y-65417683D01*
X182098423Y-65417681D01*
X181971331Y-65332761D01*
X181863239Y-65224669D01*
X181778319Y-65097577D01*
X181778317Y-65097574D01*
X181719821Y-64956351D01*
X181690000Y-64806429D01*
X181690000Y-64653571D01*
X181719821Y-64503649D01*
X181778317Y-64362426D01*
X181778319Y-64362423D01*
X181863239Y-64235331D01*
X181971331Y-64127239D01*
X182098423Y-64042319D01*
X182098426Y-64042317D01*
X182239649Y-63983821D01*
X182239650Y-63983821D01*
X182239652Y-63983820D01*
X182389569Y-63954000D01*
X182542431Y-63954000D01*
X182692348Y-63983820D01*
X182692348Y-63983820D01*
G37*
G36*
X130285142Y-60178242D02*
G01*
X130433101Y-60239529D01*
X130566255Y-60328499D01*
X130679501Y-60441745D01*
X130768471Y-60574899D01*
X130829758Y-60722858D01*
X130861000Y-60879925D01*
X130861000Y-61040075D01*
X130829758Y-61197142D01*
X130768471Y-61345101D01*
X130679501Y-61478255D01*
X130566255Y-61591501D01*
X130433101Y-61680471D01*
X130285142Y-61741758D01*
X130128075Y-61773000D01*
X129967925Y-61773000D01*
X129810858Y-61741758D01*
X129662899Y-61680471D01*
X129529745Y-61591501D01*
X129416499Y-61478255D01*
X129327529Y-61345101D01*
X129266242Y-61197142D01*
X129235000Y-61040075D01*
X129235000Y-60879925D01*
X129266242Y-60722858D01*
X129327529Y-60574899D01*
X129416499Y-60441745D01*
X129529745Y-60328499D01*
X129662899Y-60239529D01*
X129810858Y-60178242D01*
X129967925Y-60147000D01*
X130128075Y-60147000D01*
X130285142Y-60178242D01*
X130285142Y-60178242D01*
G37*
G36*
X182692348Y-58983820D02*
G01*
X182692350Y-58983821D01*
X182692351Y-58983821D01*
X182833574Y-59042317D01*
X182833577Y-59042319D01*
X182960669Y-59127239D01*
X183068761Y-59235331D01*
X183153681Y-59362423D01*
X183153683Y-59362426D01*
X183212179Y-59503649D01*
X183242000Y-59653571D01*
X183242000Y-59806429D01*
X183212179Y-59956351D01*
X183153683Y-60097574D01*
X183153681Y-60097577D01*
X183068761Y-60224669D01*
X182960669Y-60332761D01*
X182833577Y-60417681D01*
X182833574Y-60417683D01*
X182692351Y-60476179D01*
X182692350Y-60476179D01*
X182692348Y-60476180D01*
X182542431Y-60506000D01*
X182389569Y-60506000D01*
X182239652Y-60476180D01*
X182239650Y-60476179D01*
X182239649Y-60476179D01*
X182098426Y-60417683D01*
X182098423Y-60417681D01*
X181971331Y-60332761D01*
X181863239Y-60224669D01*
X181778319Y-60097577D01*
X181778317Y-60097574D01*
X181719821Y-59956351D01*
X181690000Y-59806429D01*
X181690000Y-59653571D01*
X181719821Y-59503649D01*
X181778317Y-59362426D01*
X181778319Y-59362423D01*
X181863239Y-59235331D01*
X181971331Y-59127239D01*
X182098423Y-59042319D01*
X182098426Y-59042317D01*
X182239649Y-58983821D01*
X182239650Y-58983821D01*
X182239652Y-58983820D01*
X182389569Y-58954000D01*
X182542431Y-58954000D01*
X182692348Y-58983820D01*
X182692348Y-58983820D01*
G37*
G36*
X185579855Y-58082140D02*
G01*
X185643618Y-58088420D01*
X185734404Y-58115960D01*
X185766336Y-58125646D01*
X185879425Y-58186094D01*
X185978554Y-58267446D01*
X186059906Y-58366575D01*
X186120354Y-58479664D01*
X186120355Y-58479668D01*
X186157580Y-58602382D01*
X186170149Y-58730000D01*
X186157580Y-58857618D01*
X186133119Y-58938255D01*
X186120354Y-58980336D01*
X186059906Y-59093425D01*
X185978554Y-59192554D01*
X185879425Y-59273906D01*
X185766336Y-59334354D01*
X185734404Y-59344040D01*
X185643618Y-59371580D01*
X185579855Y-59377860D01*
X185547974Y-59381000D01*
X184784026Y-59381000D01*
X184752145Y-59377860D01*
X184688382Y-59371580D01*
X184597596Y-59344040D01*
X184565664Y-59334354D01*
X184452575Y-59273906D01*
X184353446Y-59192554D01*
X184272094Y-59093425D01*
X184211646Y-58980336D01*
X184198881Y-58938255D01*
X184174420Y-58857618D01*
X184161851Y-58730000D01*
X184174420Y-58602382D01*
X184211645Y-58479668D01*
X184211646Y-58479664D01*
X184272094Y-58366575D01*
X184353446Y-58267446D01*
X184452575Y-58186094D01*
X184565664Y-58125646D01*
X184597596Y-58115960D01*
X184688382Y-58088420D01*
X184752145Y-58082140D01*
X184784026Y-58079000D01*
X185547974Y-58079000D01*
X185579855Y-58082140D01*
X185579855Y-58082140D01*
G37*
G36*
X130285142Y-57638242D02*
G01*
X130433101Y-57699529D01*
X130566255Y-57788499D01*
X130679501Y-57901745D01*
X130768471Y-58034899D01*
X130829758Y-58182858D01*
X130861000Y-58339925D01*
X130861000Y-58500075D01*
X130829758Y-58657142D01*
X130768471Y-58805101D01*
X130679501Y-58938255D01*
X130566255Y-59051501D01*
X130433101Y-59140471D01*
X130285142Y-59201758D01*
X130128075Y-59233000D01*
X129967925Y-59233000D01*
X129810858Y-59201758D01*
X129662899Y-59140471D01*
X129529745Y-59051501D01*
X129416499Y-58938255D01*
X129327529Y-58805101D01*
X129266242Y-58657142D01*
X129235000Y-58500075D01*
X129235000Y-58339925D01*
X129266242Y-58182858D01*
X129327529Y-58034899D01*
X129416499Y-57901745D01*
X129529745Y-57788499D01*
X129662899Y-57699529D01*
X129810858Y-57638242D01*
X129967925Y-57607000D01*
X130128075Y-57607000D01*
X130285142Y-57638242D01*
X130285142Y-57638242D01*
G37*
G36*
X113267142Y-52558242D02*
G01*
X113415101Y-52619529D01*
X113548255Y-52708499D01*
X113661501Y-52821745D01*
X113750471Y-52954899D01*
X113811758Y-53102858D01*
X113843000Y-53259925D01*
X113843000Y-53420075D01*
X113811758Y-53577142D01*
X113750471Y-53725101D01*
X113661501Y-53858255D01*
X113548255Y-53971501D01*
X113415101Y-54060471D01*
X113267142Y-54121758D01*
X113110075Y-54153000D01*
X112949925Y-54153000D01*
X112792858Y-54121758D01*
X112644899Y-54060471D01*
X112511745Y-53971501D01*
X112398499Y-53858255D01*
X112309529Y-53725101D01*
X112248242Y-53577142D01*
X112217000Y-53420075D01*
X112217000Y-53259925D01*
X112248242Y-53102858D01*
X112309529Y-52954899D01*
X112398499Y-52821745D01*
X112511745Y-52708499D01*
X112644899Y-52619529D01*
X112792858Y-52558242D01*
X112949925Y-52527000D01*
X113110075Y-52527000D01*
X113267142Y-52558242D01*
X113267142Y-52558242D01*
G37*
G36*
X110727142Y-52558242D02*
G01*
X110875101Y-52619529D01*
X111008255Y-52708499D01*
X111121501Y-52821745D01*
X111210471Y-52954899D01*
X111271758Y-53102858D01*
X111303000Y-53259925D01*
X111303000Y-53420075D01*
X111271758Y-53577142D01*
X111210471Y-53725101D01*
X111121501Y-53858255D01*
X111008255Y-53971501D01*
X110875101Y-54060471D01*
X110727142Y-54121758D01*
X110570075Y-54153000D01*
X110409925Y-54153000D01*
X110252858Y-54121758D01*
X110104899Y-54060471D01*
X109971745Y-53971501D01*
X109858499Y-53858255D01*
X109769529Y-53725101D01*
X109708242Y-53577142D01*
X109677000Y-53420075D01*
X109677000Y-53259925D01*
X109708242Y-53102858D01*
X109769529Y-52954899D01*
X109858499Y-52821745D01*
X109971745Y-52708499D01*
X110104899Y-52619529D01*
X110252858Y-52558242D01*
X110409925Y-52527000D01*
X110570075Y-52527000D01*
X110727142Y-52558242D01*
X110727142Y-52558242D01*
G37*
G36*
X108187142Y-52558242D02*
G01*
X108335101Y-52619529D01*
X108468255Y-52708499D01*
X108581501Y-52821745D01*
X108670471Y-52954899D01*
X108731758Y-53102858D01*
X108763000Y-53259925D01*
X108763000Y-53420075D01*
X108731758Y-53577142D01*
X108670471Y-53725101D01*
X108581501Y-53858255D01*
X108468255Y-53971501D01*
X108335101Y-54060471D01*
X108187142Y-54121758D01*
X108030075Y-54153000D01*
X107869925Y-54153000D01*
X107712858Y-54121758D01*
X107564899Y-54060471D01*
X107431745Y-53971501D01*
X107318499Y-53858255D01*
X107229529Y-53725101D01*
X107168242Y-53577142D01*
X107137000Y-53420075D01*
X107137000Y-53259925D01*
X107168242Y-53102858D01*
X107229529Y-52954899D01*
X107318499Y-52821745D01*
X107431745Y-52708499D01*
X107564899Y-52619529D01*
X107712858Y-52558242D01*
X107869925Y-52527000D01*
X108030075Y-52527000D01*
X108187142Y-52558242D01*
X108187142Y-52558242D01*
G37*
G36*
X100567142Y-52558242D02*
G01*
X100715101Y-52619529D01*
X100848255Y-52708499D01*
X100961501Y-52821745D01*
X101050471Y-52954899D01*
X101111758Y-53102858D01*
X101143000Y-53259925D01*
X101143000Y-53420075D01*
X101111758Y-53577142D01*
X101050471Y-53725101D01*
X100961501Y-53858255D01*
X100848255Y-53971501D01*
X100715101Y-54060471D01*
X100567142Y-54121758D01*
X100410075Y-54153000D01*
X100249925Y-54153000D01*
X100092858Y-54121758D01*
X99944899Y-54060471D01*
X99811745Y-53971501D01*
X99698499Y-53858255D01*
X99609529Y-53725101D01*
X99548242Y-53577142D01*
X99517000Y-53420075D01*
X99517000Y-53259925D01*
X99548242Y-53102858D01*
X99609529Y-52954899D01*
X99698499Y-52821745D01*
X99811745Y-52708499D01*
X99944899Y-52619529D01*
X100092858Y-52558242D01*
X100249925Y-52527000D01*
X100410075Y-52527000D01*
X100567142Y-52558242D01*
X100567142Y-52558242D01*
G37*
G36*
X98027142Y-52558242D02*
G01*
X98175101Y-52619529D01*
X98308255Y-52708499D01*
X98421501Y-52821745D01*
X98510471Y-52954899D01*
X98571758Y-53102858D01*
X98603000Y-53259925D01*
X98603000Y-53420075D01*
X98571758Y-53577142D01*
X98510471Y-53725101D01*
X98421501Y-53858255D01*
X98308255Y-53971501D01*
X98175101Y-54060471D01*
X98027142Y-54121758D01*
X97870075Y-54153000D01*
X97709925Y-54153000D01*
X97552858Y-54121758D01*
X97404899Y-54060471D01*
X97271745Y-53971501D01*
X97158499Y-53858255D01*
X97069529Y-53725101D01*
X97008242Y-53577142D01*
X96977000Y-53420075D01*
X96977000Y-53259925D01*
X97008242Y-53102858D01*
X97069529Y-52954899D01*
X97158499Y-52821745D01*
X97271745Y-52708499D01*
X97404899Y-52619529D01*
X97552858Y-52558242D01*
X97709925Y-52527000D01*
X97870075Y-52527000D01*
X98027142Y-52558242D01*
X98027142Y-52558242D01*
G37*
G36*
X95487142Y-52558242D02*
G01*
X95635101Y-52619529D01*
X95768255Y-52708499D01*
X95881501Y-52821745D01*
X95970471Y-52954899D01*
X96031758Y-53102858D01*
X96063000Y-53259925D01*
X96063000Y-53420075D01*
X96031758Y-53577142D01*
X95970471Y-53725101D01*
X95881501Y-53858255D01*
X95768255Y-53971501D01*
X95635101Y-54060471D01*
X95487142Y-54121758D01*
X95330075Y-54153000D01*
X95169925Y-54153000D01*
X95012858Y-54121758D01*
X94864899Y-54060471D01*
X94731745Y-53971501D01*
X94618499Y-53858255D01*
X94529529Y-53725101D01*
X94468242Y-53577142D01*
X94437000Y-53420075D01*
X94437000Y-53259925D01*
X94468242Y-53102858D01*
X94529529Y-52954899D01*
X94618499Y-52821745D01*
X94731745Y-52708499D01*
X94864899Y-52619529D01*
X95012858Y-52558242D01*
X95169925Y-52527000D01*
X95330075Y-52527000D01*
X95487142Y-52558242D01*
X95487142Y-52558242D01*
G37*
G36*
X168203508Y-48275380D02*
G01*
X168370367Y-48308570D01*
X168841899Y-48503885D01*
X169084629Y-48666073D01*
X169266266Y-48787438D01*
X169627162Y-49148334D01*
X169659093Y-49196123D01*
X169910715Y-49572701D01*
X170106030Y-50044233D01*
X170205600Y-50544809D01*
X170205600Y-51055191D01*
X170106030Y-51555767D01*
X169910715Y-52027299D01*
X169748527Y-52270029D01*
X169627162Y-52451666D01*
X169266266Y-52812562D01*
X169084629Y-52933927D01*
X168841899Y-53096115D01*
X168370367Y-53291430D01*
X168203508Y-53324620D01*
X167869793Y-53391000D01*
X167359407Y-53391000D01*
X167025692Y-53324620D01*
X166858833Y-53291430D01*
X166387301Y-53096115D01*
X166144571Y-52933927D01*
X165962934Y-52812562D01*
X165602038Y-52451666D01*
X165480673Y-52270029D01*
X165318485Y-52027299D01*
X165123170Y-51555767D01*
X165023600Y-51055191D01*
X165023600Y-50544809D01*
X165123170Y-50044233D01*
X165318485Y-49572701D01*
X165570107Y-49196123D01*
X165602038Y-49148334D01*
X165962934Y-48787438D01*
X166144571Y-48666073D01*
X166387301Y-48503885D01*
X166858833Y-48308570D01*
X167025692Y-48275380D01*
X167359407Y-48209000D01*
X167869793Y-48209000D01*
X168203508Y-48275380D01*
X168203508Y-48275380D01*
G37*
G36*
X134856560Y-48496166D02*
G01*
X135004153Y-48557301D01*
X135136982Y-48646055D01*
X135249945Y-48759018D01*
X135338699Y-48891847D01*
X135399834Y-49039440D01*
X135431000Y-49196123D01*
X135431000Y-49355877D01*
X135399834Y-49512560D01*
X135338699Y-49660153D01*
X135249945Y-49792982D01*
X135136982Y-49905945D01*
X135004153Y-49994699D01*
X135004152Y-49994700D01*
X135004151Y-49994700D01*
X134856560Y-50055834D01*
X134699878Y-50087000D01*
X134540122Y-50087000D01*
X134383440Y-50055834D01*
X134235849Y-49994700D01*
X134235848Y-49994700D01*
X134235847Y-49994699D01*
X134103018Y-49905945D01*
X133990055Y-49792982D01*
X133901301Y-49660153D01*
X133840166Y-49512560D01*
X133809000Y-49355877D01*
X133809000Y-49196123D01*
X133840166Y-49039440D01*
X133901301Y-48891847D01*
X133990055Y-48759018D01*
X134103018Y-48646055D01*
X134235847Y-48557301D01*
X134383440Y-48496166D01*
X134540122Y-48465000D01*
X134699878Y-48465000D01*
X134856560Y-48496166D01*
X134856560Y-48496166D01*
G37*
G36*
X129776560Y-48496166D02*
G01*
X129924153Y-48557301D01*
X130056982Y-48646055D01*
X130169945Y-48759018D01*
X130258699Y-48891847D01*
X130319834Y-49039440D01*
X130351000Y-49196123D01*
X130351000Y-49355877D01*
X130319834Y-49512560D01*
X130258699Y-49660153D01*
X130169945Y-49792982D01*
X130056982Y-49905945D01*
X129924153Y-49994699D01*
X129924152Y-49994700D01*
X129924151Y-49994700D01*
X129776560Y-50055834D01*
X129619878Y-50087000D01*
X129460122Y-50087000D01*
X129303440Y-50055834D01*
X129155849Y-49994700D01*
X129155848Y-49994700D01*
X129155847Y-49994699D01*
X129023018Y-49905945D01*
X128910055Y-49792982D01*
X128821301Y-49660153D01*
X128760166Y-49512560D01*
X128729000Y-49355877D01*
X128729000Y-49196123D01*
X128760166Y-49039440D01*
X128821301Y-48891847D01*
X128910055Y-48759018D01*
X129023018Y-48646055D01*
X129155847Y-48557301D01*
X129303440Y-48496166D01*
X129460122Y-48465000D01*
X129619878Y-48465000D01*
X129776560Y-48496166D01*
X129776560Y-48496166D01*
G37*
G36*
X127236560Y-48496166D02*
G01*
X127384153Y-48557301D01*
X127516982Y-48646055D01*
X127629945Y-48759018D01*
X127718699Y-48891847D01*
X127779834Y-49039440D01*
X127811000Y-49196123D01*
X127811000Y-49355877D01*
X127779834Y-49512560D01*
X127718699Y-49660153D01*
X127629945Y-49792982D01*
X127516982Y-49905945D01*
X127384153Y-49994699D01*
X127384152Y-49994700D01*
X127384151Y-49994700D01*
X127236560Y-50055834D01*
X127079878Y-50087000D01*
X126920122Y-50087000D01*
X126763440Y-50055834D01*
X126615849Y-49994700D01*
X126615848Y-49994700D01*
X126615847Y-49994699D01*
X126483018Y-49905945D01*
X126370055Y-49792982D01*
X126281301Y-49660153D01*
X126220166Y-49512560D01*
X126189000Y-49355877D01*
X126189000Y-49196123D01*
X126220166Y-49039440D01*
X126281301Y-48891847D01*
X126370055Y-48759018D01*
X126483018Y-48646055D01*
X126615847Y-48557301D01*
X126763440Y-48496166D01*
X126920122Y-48465000D01*
X127079878Y-48465000D01*
X127236560Y-48496166D01*
X127236560Y-48496166D01*
G37*
G36*
X132316560Y-48496166D02*
G01*
X132464153Y-48557301D01*
X132596982Y-48646055D01*
X132709945Y-48759018D01*
X132798699Y-48891847D01*
X132859834Y-49039440D01*
X132891000Y-49196123D01*
X132891000Y-49355877D01*
X132859834Y-49512560D01*
X132798699Y-49660153D01*
X132709945Y-49792982D01*
X132596982Y-49905945D01*
X132464153Y-49994699D01*
X132464152Y-49994700D01*
X132464151Y-49994700D01*
X132316560Y-50055834D01*
X132159878Y-50087000D01*
X132000122Y-50087000D01*
X131843440Y-50055834D01*
X131695849Y-49994700D01*
X131695848Y-49994700D01*
X131695847Y-49994699D01*
X131563018Y-49905945D01*
X131450055Y-49792982D01*
X131361301Y-49660153D01*
X131300166Y-49512560D01*
X131269000Y-49355877D01*
X131269000Y-49196123D01*
X131300166Y-49039440D01*
X131361301Y-48891847D01*
X131450055Y-48759018D01*
X131563018Y-48646055D01*
X131695847Y-48557301D01*
X131843440Y-48496166D01*
X132000122Y-48465000D01*
X132159878Y-48465000D01*
X132316560Y-48496166D01*
X132316560Y-48496166D01*
G37*
G36*
X150096560Y-48496166D02*
G01*
X150244153Y-48557301D01*
X150376982Y-48646055D01*
X150489945Y-48759018D01*
X150578699Y-48891847D01*
X150639834Y-49039440D01*
X150671000Y-49196123D01*
X150671000Y-49355877D01*
X150639834Y-49512560D01*
X150578699Y-49660153D01*
X150489945Y-49792982D01*
X150376982Y-49905945D01*
X150244153Y-49994699D01*
X150244152Y-49994700D01*
X150244151Y-49994700D01*
X150096560Y-50055834D01*
X149939878Y-50087000D01*
X149780122Y-50087000D01*
X149623440Y-50055834D01*
X149475849Y-49994700D01*
X149475848Y-49994700D01*
X149475847Y-49994699D01*
X149343018Y-49905945D01*
X149230055Y-49792982D01*
X149141301Y-49660153D01*
X149080166Y-49512560D01*
X149049000Y-49355877D01*
X149049000Y-49196123D01*
X149080166Y-49039440D01*
X149141301Y-48891847D01*
X149230055Y-48759018D01*
X149343018Y-48646055D01*
X149475847Y-48557301D01*
X149623440Y-48496166D01*
X149780122Y-48465000D01*
X149939878Y-48465000D01*
X150096560Y-48496166D01*
X150096560Y-48496166D01*
G37*
G36*
X86596560Y-48496166D02*
G01*
X86744153Y-48557301D01*
X86876982Y-48646055D01*
X86989945Y-48759018D01*
X87078699Y-48891847D01*
X87139834Y-49039440D01*
X87171000Y-49196123D01*
X87171000Y-49355877D01*
X87139834Y-49512560D01*
X87078699Y-49660153D01*
X86989945Y-49792982D01*
X86876982Y-49905945D01*
X86744153Y-49994699D01*
X86744152Y-49994700D01*
X86744151Y-49994700D01*
X86596560Y-50055834D01*
X86439878Y-50087000D01*
X86280122Y-50087000D01*
X86123440Y-50055834D01*
X85975849Y-49994700D01*
X85975848Y-49994700D01*
X85975847Y-49994699D01*
X85843018Y-49905945D01*
X85730055Y-49792982D01*
X85641301Y-49660153D01*
X85580166Y-49512560D01*
X85549000Y-49355877D01*
X85549000Y-49196123D01*
X85580166Y-49039440D01*
X85641301Y-48891847D01*
X85730055Y-48759018D01*
X85843018Y-48646055D01*
X85975847Y-48557301D01*
X86123440Y-48496166D01*
X86280122Y-48465000D01*
X86439878Y-48465000D01*
X86596560Y-48496166D01*
X86596560Y-48496166D01*
G37*
G36*
X84056560Y-48496166D02*
G01*
X84204153Y-48557301D01*
X84336982Y-48646055D01*
X84449945Y-48759018D01*
X84538699Y-48891847D01*
X84599834Y-49039440D01*
X84631000Y-49196123D01*
X84631000Y-49355877D01*
X84599834Y-49512560D01*
X84538699Y-49660153D01*
X84449945Y-49792982D01*
X84336982Y-49905945D01*
X84204153Y-49994699D01*
X84204152Y-49994700D01*
X84204151Y-49994700D01*
X84056560Y-50055834D01*
X83899878Y-50087000D01*
X83740122Y-50087000D01*
X83583440Y-50055834D01*
X83435849Y-49994700D01*
X83435848Y-49994700D01*
X83435847Y-49994699D01*
X83303018Y-49905945D01*
X83190055Y-49792982D01*
X83101301Y-49660153D01*
X83040166Y-49512560D01*
X83009000Y-49355877D01*
X83009000Y-49196123D01*
X83040166Y-49039440D01*
X83101301Y-48891847D01*
X83190055Y-48759018D01*
X83303018Y-48646055D01*
X83435847Y-48557301D01*
X83583440Y-48496166D01*
X83740122Y-48465000D01*
X83899878Y-48465000D01*
X84056560Y-48496166D01*
X84056560Y-48496166D01*
G37*
G36*
X81516560Y-48496166D02*
G01*
X81664153Y-48557301D01*
X81796982Y-48646055D01*
X81909945Y-48759018D01*
X81998699Y-48891847D01*
X82059834Y-49039440D01*
X82091000Y-49196123D01*
X82091000Y-49355877D01*
X82059834Y-49512560D01*
X81998699Y-49660153D01*
X81909945Y-49792982D01*
X81796982Y-49905945D01*
X81664153Y-49994699D01*
X81664152Y-49994700D01*
X81664151Y-49994700D01*
X81516560Y-50055834D01*
X81359878Y-50087000D01*
X81200122Y-50087000D01*
X81043440Y-50055834D01*
X80895849Y-49994700D01*
X80895848Y-49994700D01*
X80895847Y-49994699D01*
X80763018Y-49905945D01*
X80650055Y-49792982D01*
X80561301Y-49660153D01*
X80500166Y-49512560D01*
X80469000Y-49355877D01*
X80469000Y-49196123D01*
X80500166Y-49039440D01*
X80561301Y-48891847D01*
X80650055Y-48759018D01*
X80763018Y-48646055D01*
X80895847Y-48557301D01*
X81043440Y-48496166D01*
X81200122Y-48465000D01*
X81359878Y-48465000D01*
X81516560Y-48496166D01*
X81516560Y-48496166D01*
G37*
G36*
X78976560Y-48496166D02*
G01*
X79124153Y-48557301D01*
X79256982Y-48646055D01*
X79369945Y-48759018D01*
X79458699Y-48891847D01*
X79519834Y-49039440D01*
X79551000Y-49196123D01*
X79551000Y-49355877D01*
X79519834Y-49512560D01*
X79458699Y-49660153D01*
X79369945Y-49792982D01*
X79256982Y-49905945D01*
X79124153Y-49994699D01*
X79124152Y-49994700D01*
X79124151Y-49994700D01*
X78976560Y-50055834D01*
X78819878Y-50087000D01*
X78660122Y-50087000D01*
X78503440Y-50055834D01*
X78355849Y-49994700D01*
X78355848Y-49994700D01*
X78355847Y-49994699D01*
X78223018Y-49905945D01*
X78110055Y-49792982D01*
X78021301Y-49660153D01*
X77960166Y-49512560D01*
X77929000Y-49355877D01*
X77929000Y-49196123D01*
X77960166Y-49039440D01*
X78021301Y-48891847D01*
X78110055Y-48759018D01*
X78223018Y-48646055D01*
X78355847Y-48557301D01*
X78503440Y-48496166D01*
X78660122Y-48465000D01*
X78819878Y-48465000D01*
X78976560Y-48496166D01*
X78976560Y-48496166D01*
G37*
G36*
X76436560Y-48496166D02*
G01*
X76584153Y-48557301D01*
X76716982Y-48646055D01*
X76829945Y-48759018D01*
X76918699Y-48891847D01*
X76979834Y-49039440D01*
X77011000Y-49196123D01*
X77011000Y-49355877D01*
X76979834Y-49512560D01*
X76918699Y-49660153D01*
X76829945Y-49792982D01*
X76716982Y-49905945D01*
X76584153Y-49994699D01*
X76584152Y-49994700D01*
X76584151Y-49994700D01*
X76436560Y-50055834D01*
X76279878Y-50087000D01*
X76120122Y-50087000D01*
X75963440Y-50055834D01*
X75815849Y-49994700D01*
X75815848Y-49994700D01*
X75815847Y-49994699D01*
X75683018Y-49905945D01*
X75570055Y-49792982D01*
X75481301Y-49660153D01*
X75420166Y-49512560D01*
X75389000Y-49355877D01*
X75389000Y-49196123D01*
X75420166Y-49039440D01*
X75481301Y-48891847D01*
X75570055Y-48759018D01*
X75683018Y-48646055D01*
X75815847Y-48557301D01*
X75963440Y-48496166D01*
X76120122Y-48465000D01*
X76279878Y-48465000D01*
X76436560Y-48496166D01*
X76436560Y-48496166D01*
G37*
G36*
X71356560Y-48496166D02*
G01*
X71504153Y-48557301D01*
X71636982Y-48646055D01*
X71749945Y-48759018D01*
X71838699Y-48891847D01*
X71899834Y-49039440D01*
X71931000Y-49196123D01*
X71931000Y-49355877D01*
X71899834Y-49512560D01*
X71838699Y-49660153D01*
X71749945Y-49792982D01*
X71636982Y-49905945D01*
X71504153Y-49994699D01*
X71504152Y-49994700D01*
X71504151Y-49994700D01*
X71356560Y-50055834D01*
X71199878Y-50087000D01*
X71040122Y-50087000D01*
X70883440Y-50055834D01*
X70735849Y-49994700D01*
X70735848Y-49994700D01*
X70735847Y-49994699D01*
X70603018Y-49905945D01*
X70490055Y-49792982D01*
X70401301Y-49660153D01*
X70340166Y-49512560D01*
X70309000Y-49355877D01*
X70309000Y-49196123D01*
X70340166Y-49039440D01*
X70401301Y-48891847D01*
X70490055Y-48759018D01*
X70603018Y-48646055D01*
X70735847Y-48557301D01*
X70883440Y-48496166D01*
X71040122Y-48465000D01*
X71199878Y-48465000D01*
X71356560Y-48496166D01*
X71356560Y-48496166D01*
G37*
G36*
X68816560Y-48496166D02*
G01*
X68964153Y-48557301D01*
X69096982Y-48646055D01*
X69209945Y-48759018D01*
X69298699Y-48891847D01*
X69359834Y-49039440D01*
X69391000Y-49196123D01*
X69391000Y-49355877D01*
X69359834Y-49512560D01*
X69298699Y-49660153D01*
X69209945Y-49792982D01*
X69096982Y-49905945D01*
X68964153Y-49994699D01*
X68964152Y-49994700D01*
X68964151Y-49994700D01*
X68816560Y-50055834D01*
X68659878Y-50087000D01*
X68500122Y-50087000D01*
X68343440Y-50055834D01*
X68195849Y-49994700D01*
X68195848Y-49994700D01*
X68195847Y-49994699D01*
X68063018Y-49905945D01*
X67950055Y-49792982D01*
X67861301Y-49660153D01*
X67800166Y-49512560D01*
X67769000Y-49355877D01*
X67769000Y-49196123D01*
X67800166Y-49039440D01*
X67861301Y-48891847D01*
X67950055Y-48759018D01*
X68063018Y-48646055D01*
X68195847Y-48557301D01*
X68343440Y-48496166D01*
X68500122Y-48465000D01*
X68659878Y-48465000D01*
X68816560Y-48496166D01*
X68816560Y-48496166D01*
G37*
G36*
X66276560Y-48496166D02*
G01*
X66424153Y-48557301D01*
X66556982Y-48646055D01*
X66669945Y-48759018D01*
X66758699Y-48891847D01*
X66819834Y-49039440D01*
X66851000Y-49196123D01*
X66851000Y-49355877D01*
X66819834Y-49512560D01*
X66758699Y-49660153D01*
X66669945Y-49792982D01*
X66556982Y-49905945D01*
X66424153Y-49994699D01*
X66424152Y-49994700D01*
X66424151Y-49994700D01*
X66276560Y-50055834D01*
X66119878Y-50087000D01*
X65960122Y-50087000D01*
X65803440Y-50055834D01*
X65655849Y-49994700D01*
X65655848Y-49994700D01*
X65655847Y-49994699D01*
X65523018Y-49905945D01*
X65410055Y-49792982D01*
X65321301Y-49660153D01*
X65260166Y-49512560D01*
X65229000Y-49355877D01*
X65229000Y-49196123D01*
X65260166Y-49039440D01*
X65321301Y-48891847D01*
X65410055Y-48759018D01*
X65523018Y-48646055D01*
X65655847Y-48557301D01*
X65803440Y-48496166D01*
X65960122Y-48465000D01*
X66119878Y-48465000D01*
X66276560Y-48496166D01*
X66276560Y-48496166D01*
G37*
G36*
X63736560Y-48496166D02*
G01*
X63884153Y-48557301D01*
X64016982Y-48646055D01*
X64129945Y-48759018D01*
X64218699Y-48891847D01*
X64279834Y-49039440D01*
X64311000Y-49196123D01*
X64311000Y-49355877D01*
X64279834Y-49512560D01*
X64218699Y-49660153D01*
X64129945Y-49792982D01*
X64016982Y-49905945D01*
X63884153Y-49994699D01*
X63884152Y-49994700D01*
X63884151Y-49994700D01*
X63736560Y-50055834D01*
X63579878Y-50087000D01*
X63420122Y-50087000D01*
X63263440Y-50055834D01*
X63115849Y-49994700D01*
X63115848Y-49994700D01*
X63115847Y-49994699D01*
X62983018Y-49905945D01*
X62870055Y-49792982D01*
X62781301Y-49660153D01*
X62720166Y-49512560D01*
X62689000Y-49355877D01*
X62689000Y-49196123D01*
X62720166Y-49039440D01*
X62781301Y-48891847D01*
X62870055Y-48759018D01*
X62983018Y-48646055D01*
X63115847Y-48557301D01*
X63263440Y-48496166D01*
X63420122Y-48465000D01*
X63579878Y-48465000D01*
X63736560Y-48496166D01*
X63736560Y-48496166D01*
G37*
G36*
X137396560Y-48496166D02*
G01*
X137544153Y-48557301D01*
X137676982Y-48646055D01*
X137789945Y-48759018D01*
X137878699Y-48891847D01*
X137939834Y-49039440D01*
X137971000Y-49196123D01*
X137971000Y-49355877D01*
X137939834Y-49512560D01*
X137878699Y-49660153D01*
X137789945Y-49792982D01*
X137676982Y-49905945D01*
X137544153Y-49994699D01*
X137544152Y-49994700D01*
X137544151Y-49994700D01*
X137396560Y-50055834D01*
X137239878Y-50087000D01*
X137080122Y-50087000D01*
X136923440Y-50055834D01*
X136775849Y-49994700D01*
X136775848Y-49994700D01*
X136775847Y-49994699D01*
X136643018Y-49905945D01*
X136530055Y-49792982D01*
X136441301Y-49660153D01*
X136380166Y-49512560D01*
X136349000Y-49355877D01*
X136349000Y-49196123D01*
X136380166Y-49039440D01*
X136441301Y-48891847D01*
X136530055Y-48759018D01*
X136643018Y-48646055D01*
X136775847Y-48557301D01*
X136923440Y-48496166D01*
X137080122Y-48465000D01*
X137239878Y-48465000D01*
X137396560Y-48496166D01*
X137396560Y-48496166D01*
G37*
G36*
X139936560Y-48496166D02*
G01*
X140084153Y-48557301D01*
X140216982Y-48646055D01*
X140329945Y-48759018D01*
X140418699Y-48891847D01*
X140479834Y-49039440D01*
X140511000Y-49196123D01*
X140511000Y-49355877D01*
X140479834Y-49512560D01*
X140418699Y-49660153D01*
X140329945Y-49792982D01*
X140216982Y-49905945D01*
X140084153Y-49994699D01*
X140084152Y-49994700D01*
X140084151Y-49994700D01*
X139936560Y-50055834D01*
X139779878Y-50087000D01*
X139620122Y-50087000D01*
X139463440Y-50055834D01*
X139315849Y-49994700D01*
X139315848Y-49994700D01*
X139315847Y-49994699D01*
X139183018Y-49905945D01*
X139070055Y-49792982D01*
X138981301Y-49660153D01*
X138920166Y-49512560D01*
X138889000Y-49355877D01*
X138889000Y-49196123D01*
X138920166Y-49039440D01*
X138981301Y-48891847D01*
X139070055Y-48759018D01*
X139183018Y-48646055D01*
X139315847Y-48557301D01*
X139463440Y-48496166D01*
X139620122Y-48465000D01*
X139779878Y-48465000D01*
X139936560Y-48496166D01*
X139936560Y-48496166D01*
G37*
G36*
X142476560Y-48496166D02*
G01*
X142624153Y-48557301D01*
X142756982Y-48646055D01*
X142869945Y-48759018D01*
X142958699Y-48891847D01*
X143019834Y-49039440D01*
X143051000Y-49196123D01*
X143051000Y-49355877D01*
X143019834Y-49512560D01*
X142958699Y-49660153D01*
X142869945Y-49792982D01*
X142756982Y-49905945D01*
X142624153Y-49994699D01*
X142624152Y-49994700D01*
X142624151Y-49994700D01*
X142476560Y-50055834D01*
X142319878Y-50087000D01*
X142160122Y-50087000D01*
X142003440Y-50055834D01*
X141855849Y-49994700D01*
X141855848Y-49994700D01*
X141855847Y-49994699D01*
X141723018Y-49905945D01*
X141610055Y-49792982D01*
X141521301Y-49660153D01*
X141460166Y-49512560D01*
X141429000Y-49355877D01*
X141429000Y-49196123D01*
X141460166Y-49039440D01*
X141521301Y-48891847D01*
X141610055Y-48759018D01*
X141723018Y-48646055D01*
X141855847Y-48557301D01*
X142003440Y-48496166D01*
X142160122Y-48465000D01*
X142319878Y-48465000D01*
X142476560Y-48496166D01*
X142476560Y-48496166D01*
G37*
G36*
X147556560Y-48496166D02*
G01*
X147704153Y-48557301D01*
X147836982Y-48646055D01*
X147949945Y-48759018D01*
X148038699Y-48891847D01*
X148099834Y-49039440D01*
X148131000Y-49196123D01*
X148131000Y-49355877D01*
X148099834Y-49512560D01*
X148038699Y-49660153D01*
X147949945Y-49792982D01*
X147836982Y-49905945D01*
X147704153Y-49994699D01*
X147704152Y-49994700D01*
X147704151Y-49994700D01*
X147556560Y-50055834D01*
X147399878Y-50087000D01*
X147240122Y-50087000D01*
X147083440Y-50055834D01*
X146935849Y-49994700D01*
X146935848Y-49994700D01*
X146935847Y-49994699D01*
X146803018Y-49905945D01*
X146690055Y-49792982D01*
X146601301Y-49660153D01*
X146540166Y-49512560D01*
X146509000Y-49355877D01*
X146509000Y-49196123D01*
X146540166Y-49039440D01*
X146601301Y-48891847D01*
X146690055Y-48759018D01*
X146803018Y-48646055D01*
X146935847Y-48557301D01*
X147083440Y-48496166D01*
X147240122Y-48465000D01*
X147399878Y-48465000D01*
X147556560Y-48496166D01*
X147556560Y-48496166D01*
G37*
G36*
X145016560Y-48496166D02*
G01*
X145164153Y-48557301D01*
X145296982Y-48646055D01*
X145409945Y-48759018D01*
X145498699Y-48891847D01*
X145559834Y-49039440D01*
X145591000Y-49196123D01*
X145591000Y-49355877D01*
X145559834Y-49512560D01*
X145498699Y-49660153D01*
X145409945Y-49792982D01*
X145296982Y-49905945D01*
X145164153Y-49994699D01*
X145164152Y-49994700D01*
X145164151Y-49994700D01*
X145016560Y-50055834D01*
X144859878Y-50087000D01*
X144700122Y-50087000D01*
X144543440Y-50055834D01*
X144395849Y-49994700D01*
X144395848Y-49994700D01*
X144395847Y-49994699D01*
X144263018Y-49905945D01*
X144150055Y-49792982D01*
X144061301Y-49660153D01*
X144000166Y-49512560D01*
X143969000Y-49355877D01*
X143969000Y-49196123D01*
X144000166Y-49039440D01*
X144061301Y-48891847D01*
X144150055Y-48759018D01*
X144263018Y-48646055D01*
X144395847Y-48557301D01*
X144543440Y-48496166D01*
X144700122Y-48465000D01*
X144859878Y-48465000D01*
X145016560Y-48496166D01*
X145016560Y-48496166D01*
G37*
G36*
X73896560Y-48496166D02*
G01*
X74044153Y-48557301D01*
X74176982Y-48646055D01*
X74289945Y-48759018D01*
X74378699Y-48891847D01*
X74439834Y-49039440D01*
X74471000Y-49196123D01*
X74471000Y-49355877D01*
X74439834Y-49512560D01*
X74378699Y-49660153D01*
X74289945Y-49792982D01*
X74176982Y-49905945D01*
X74044153Y-49994699D01*
X74044152Y-49994700D01*
X74044151Y-49994700D01*
X73896560Y-50055834D01*
X73739878Y-50087000D01*
X73580122Y-50087000D01*
X73423440Y-50055834D01*
X73275849Y-49994700D01*
X73275848Y-49994700D01*
X73275847Y-49994699D01*
X73143018Y-49905945D01*
X73030055Y-49792982D01*
X72941301Y-49660153D01*
X72880166Y-49512560D01*
X72849000Y-49355877D01*
X72849000Y-49196123D01*
X72880166Y-49039440D01*
X72941301Y-48891847D01*
X73030055Y-48759018D01*
X73143018Y-48646055D01*
X73275847Y-48557301D01*
X73423440Y-48496166D01*
X73580122Y-48465000D01*
X73739878Y-48465000D01*
X73896560Y-48496166D01*
X73896560Y-48496166D01*
G37*
G36*
X66276560Y-45956166D02*
G01*
X66424153Y-46017301D01*
X66556982Y-46106055D01*
X66669945Y-46219018D01*
X66758699Y-46351847D01*
X66819834Y-46499440D01*
X66851000Y-46656123D01*
X66851000Y-46815877D01*
X66819834Y-46972560D01*
X66758699Y-47120153D01*
X66669945Y-47252982D01*
X66556982Y-47365945D01*
X66424153Y-47454699D01*
X66424152Y-47454700D01*
X66424151Y-47454700D01*
X66276560Y-47515834D01*
X66119878Y-47547000D01*
X65960122Y-47547000D01*
X65803440Y-47515834D01*
X65655849Y-47454700D01*
X65655848Y-47454700D01*
X65655847Y-47454699D01*
X65523018Y-47365945D01*
X65410055Y-47252982D01*
X65321301Y-47120153D01*
X65260166Y-46972560D01*
X65229000Y-46815877D01*
X65229000Y-46656123D01*
X65260166Y-46499440D01*
X65321301Y-46351847D01*
X65410055Y-46219018D01*
X65523018Y-46106055D01*
X65655847Y-46017301D01*
X65803440Y-45956166D01*
X65960122Y-45925000D01*
X66119878Y-45925000D01*
X66276560Y-45956166D01*
X66276560Y-45956166D01*
G37*
G36*
X132316560Y-45956166D02*
G01*
X132464153Y-46017301D01*
X132596982Y-46106055D01*
X132709945Y-46219018D01*
X132798699Y-46351847D01*
X132859834Y-46499440D01*
X132891000Y-46656123D01*
X132891000Y-46815877D01*
X132859834Y-46972560D01*
X132798699Y-47120153D01*
X132709945Y-47252982D01*
X132596982Y-47365945D01*
X132464153Y-47454699D01*
X132464152Y-47454700D01*
X132464151Y-47454700D01*
X132316560Y-47515834D01*
X132159878Y-47547000D01*
X132000122Y-47547000D01*
X131843440Y-47515834D01*
X131695849Y-47454700D01*
X131695848Y-47454700D01*
X131695847Y-47454699D01*
X131563018Y-47365945D01*
X131450055Y-47252982D01*
X131361301Y-47120153D01*
X131300166Y-46972560D01*
X131269000Y-46815877D01*
X131269000Y-46656123D01*
X131300166Y-46499440D01*
X131361301Y-46351847D01*
X131450055Y-46219018D01*
X131563018Y-46106055D01*
X131695847Y-46017301D01*
X131843440Y-45956166D01*
X132000122Y-45925000D01*
X132159878Y-45925000D01*
X132316560Y-45956166D01*
X132316560Y-45956166D01*
G37*
G36*
X68816560Y-45956166D02*
G01*
X68964153Y-46017301D01*
X69096982Y-46106055D01*
X69209945Y-46219018D01*
X69298699Y-46351847D01*
X69359834Y-46499440D01*
X69391000Y-46656123D01*
X69391000Y-46815877D01*
X69359834Y-46972560D01*
X69298699Y-47120153D01*
X69209945Y-47252982D01*
X69096982Y-47365945D01*
X68964153Y-47454699D01*
X68964152Y-47454700D01*
X68964151Y-47454700D01*
X68816560Y-47515834D01*
X68659878Y-47547000D01*
X68500122Y-47547000D01*
X68343440Y-47515834D01*
X68195849Y-47454700D01*
X68195848Y-47454700D01*
X68195847Y-47454699D01*
X68063018Y-47365945D01*
X67950055Y-47252982D01*
X67861301Y-47120153D01*
X67800166Y-46972560D01*
X67769000Y-46815877D01*
X67769000Y-46656123D01*
X67800166Y-46499440D01*
X67861301Y-46351847D01*
X67950055Y-46219018D01*
X68063018Y-46106055D01*
X68195847Y-46017301D01*
X68343440Y-45956166D01*
X68500122Y-45925000D01*
X68659878Y-45925000D01*
X68816560Y-45956166D01*
X68816560Y-45956166D01*
G37*
G36*
X71356560Y-45956166D02*
G01*
X71504153Y-46017301D01*
X71636982Y-46106055D01*
X71749945Y-46219018D01*
X71838699Y-46351847D01*
X71899834Y-46499440D01*
X71931000Y-46656123D01*
X71931000Y-46815877D01*
X71899834Y-46972560D01*
X71838699Y-47120153D01*
X71749945Y-47252982D01*
X71636982Y-47365945D01*
X71504153Y-47454699D01*
X71504152Y-47454700D01*
X71504151Y-47454700D01*
X71356560Y-47515834D01*
X71199878Y-47547000D01*
X71040122Y-47547000D01*
X70883440Y-47515834D01*
X70735849Y-47454700D01*
X70735848Y-47454700D01*
X70735847Y-47454699D01*
X70603018Y-47365945D01*
X70490055Y-47252982D01*
X70401301Y-47120153D01*
X70340166Y-46972560D01*
X70309000Y-46815877D01*
X70309000Y-46656123D01*
X70340166Y-46499440D01*
X70401301Y-46351847D01*
X70490055Y-46219018D01*
X70603018Y-46106055D01*
X70735847Y-46017301D01*
X70883440Y-45956166D01*
X71040122Y-45925000D01*
X71199878Y-45925000D01*
X71356560Y-45956166D01*
X71356560Y-45956166D01*
G37*
G36*
X73896560Y-45956166D02*
G01*
X74044153Y-46017301D01*
X74176982Y-46106055D01*
X74289945Y-46219018D01*
X74378699Y-46351847D01*
X74439834Y-46499440D01*
X74471000Y-46656123D01*
X74471000Y-46815877D01*
X74439834Y-46972560D01*
X74378699Y-47120153D01*
X74289945Y-47252982D01*
X74176982Y-47365945D01*
X74044153Y-47454699D01*
X74044152Y-47454700D01*
X74044151Y-47454700D01*
X73896560Y-47515834D01*
X73739878Y-47547000D01*
X73580122Y-47547000D01*
X73423440Y-47515834D01*
X73275849Y-47454700D01*
X73275848Y-47454700D01*
X73275847Y-47454699D01*
X73143018Y-47365945D01*
X73030055Y-47252982D01*
X72941301Y-47120153D01*
X72880166Y-46972560D01*
X72849000Y-46815877D01*
X72849000Y-46656123D01*
X72880166Y-46499440D01*
X72941301Y-46351847D01*
X73030055Y-46219018D01*
X73143018Y-46106055D01*
X73275847Y-46017301D01*
X73423440Y-45956166D01*
X73580122Y-45925000D01*
X73739878Y-45925000D01*
X73896560Y-45956166D01*
X73896560Y-45956166D01*
G37*
G36*
X76436560Y-45956166D02*
G01*
X76584153Y-46017301D01*
X76716982Y-46106055D01*
X76829945Y-46219018D01*
X76918699Y-46351847D01*
X76979834Y-46499440D01*
X77011000Y-46656123D01*
X77011000Y-46815877D01*
X76979834Y-46972560D01*
X76918699Y-47120153D01*
X76829945Y-47252982D01*
X76716982Y-47365945D01*
X76584153Y-47454699D01*
X76584152Y-47454700D01*
X76584151Y-47454700D01*
X76436560Y-47515834D01*
X76279878Y-47547000D01*
X76120122Y-47547000D01*
X75963440Y-47515834D01*
X75815849Y-47454700D01*
X75815848Y-47454700D01*
X75815847Y-47454699D01*
X75683018Y-47365945D01*
X75570055Y-47252982D01*
X75481301Y-47120153D01*
X75420166Y-46972560D01*
X75389000Y-46815877D01*
X75389000Y-46656123D01*
X75420166Y-46499440D01*
X75481301Y-46351847D01*
X75570055Y-46219018D01*
X75683018Y-46106055D01*
X75815847Y-46017301D01*
X75963440Y-45956166D01*
X76120122Y-45925000D01*
X76279878Y-45925000D01*
X76436560Y-45956166D01*
X76436560Y-45956166D01*
G37*
G36*
X84056560Y-45956166D02*
G01*
X84204153Y-46017301D01*
X84336982Y-46106055D01*
X84449945Y-46219018D01*
X84538699Y-46351847D01*
X84599834Y-46499440D01*
X84631000Y-46656123D01*
X84631000Y-46815877D01*
X84599834Y-46972560D01*
X84538699Y-47120153D01*
X84449945Y-47252982D01*
X84336982Y-47365945D01*
X84204153Y-47454699D01*
X84204152Y-47454700D01*
X84204151Y-47454700D01*
X84056560Y-47515834D01*
X83899878Y-47547000D01*
X83740122Y-47547000D01*
X83583440Y-47515834D01*
X83435849Y-47454700D01*
X83435848Y-47454700D01*
X83435847Y-47454699D01*
X83303018Y-47365945D01*
X83190055Y-47252982D01*
X83101301Y-47120153D01*
X83040166Y-46972560D01*
X83009000Y-46815877D01*
X83009000Y-46656123D01*
X83040166Y-46499440D01*
X83101301Y-46351847D01*
X83190055Y-46219018D01*
X83303018Y-46106055D01*
X83435847Y-46017301D01*
X83583440Y-45956166D01*
X83740122Y-45925000D01*
X83899878Y-45925000D01*
X84056560Y-45956166D01*
X84056560Y-45956166D01*
G37*
G36*
X81516560Y-45956166D02*
G01*
X81664153Y-46017301D01*
X81796982Y-46106055D01*
X81909945Y-46219018D01*
X81998699Y-46351847D01*
X82059834Y-46499440D01*
X82091000Y-46656123D01*
X82091000Y-46815877D01*
X82059834Y-46972560D01*
X81998699Y-47120153D01*
X81909945Y-47252982D01*
X81796982Y-47365945D01*
X81664153Y-47454699D01*
X81664152Y-47454700D01*
X81664151Y-47454700D01*
X81516560Y-47515834D01*
X81359878Y-47547000D01*
X81200122Y-47547000D01*
X81043440Y-47515834D01*
X80895849Y-47454700D01*
X80895848Y-47454700D01*
X80895847Y-47454699D01*
X80763018Y-47365945D01*
X80650055Y-47252982D01*
X80561301Y-47120153D01*
X80500166Y-46972560D01*
X80469000Y-46815877D01*
X80469000Y-46656123D01*
X80500166Y-46499440D01*
X80561301Y-46351847D01*
X80650055Y-46219018D01*
X80763018Y-46106055D01*
X80895847Y-46017301D01*
X81043440Y-45956166D01*
X81200122Y-45925000D01*
X81359878Y-45925000D01*
X81516560Y-45956166D01*
X81516560Y-45956166D01*
G37*
G36*
X78976560Y-45956166D02*
G01*
X79124153Y-46017301D01*
X79256982Y-46106055D01*
X79369945Y-46219018D01*
X79458699Y-46351847D01*
X79519834Y-46499440D01*
X79551000Y-46656123D01*
X79551000Y-46815877D01*
X79519834Y-46972560D01*
X79458699Y-47120153D01*
X79369945Y-47252982D01*
X79256982Y-47365945D01*
X79124153Y-47454699D01*
X79124152Y-47454700D01*
X79124151Y-47454700D01*
X78976560Y-47515834D01*
X78819878Y-47547000D01*
X78660122Y-47547000D01*
X78503440Y-47515834D01*
X78355849Y-47454700D01*
X78355848Y-47454700D01*
X78355847Y-47454699D01*
X78223018Y-47365945D01*
X78110055Y-47252982D01*
X78021301Y-47120153D01*
X77960166Y-46972560D01*
X77929000Y-46815877D01*
X77929000Y-46656123D01*
X77960166Y-46499440D01*
X78021301Y-46351847D01*
X78110055Y-46219018D01*
X78223018Y-46106055D01*
X78355847Y-46017301D01*
X78503440Y-45956166D01*
X78660122Y-45925000D01*
X78819878Y-45925000D01*
X78976560Y-45956166D01*
X78976560Y-45956166D01*
G37*
G36*
X127236560Y-45956166D02*
G01*
X127384153Y-46017301D01*
X127516982Y-46106055D01*
X127629945Y-46219018D01*
X127718699Y-46351847D01*
X127779834Y-46499440D01*
X127811000Y-46656123D01*
X127811000Y-46815877D01*
X127779834Y-46972560D01*
X127718699Y-47120153D01*
X127629945Y-47252982D01*
X127516982Y-47365945D01*
X127384153Y-47454699D01*
X127384152Y-47454700D01*
X127384151Y-47454700D01*
X127236560Y-47515834D01*
X127079878Y-47547000D01*
X126920122Y-47547000D01*
X126763440Y-47515834D01*
X126615849Y-47454700D01*
X126615848Y-47454700D01*
X126615847Y-47454699D01*
X126483018Y-47365945D01*
X126370055Y-47252982D01*
X126281301Y-47120153D01*
X126220166Y-46972560D01*
X126189000Y-46815877D01*
X126189000Y-46656123D01*
X126220166Y-46499440D01*
X126281301Y-46351847D01*
X126370055Y-46219018D01*
X126483018Y-46106055D01*
X126615847Y-46017301D01*
X126763440Y-45956166D01*
X126920122Y-45925000D01*
X127079878Y-45925000D01*
X127236560Y-45956166D01*
X127236560Y-45956166D01*
G37*
G36*
X63736560Y-45956166D02*
G01*
X63884153Y-46017301D01*
X64016982Y-46106055D01*
X64129945Y-46219018D01*
X64218699Y-46351847D01*
X64279834Y-46499440D01*
X64311000Y-46656123D01*
X64311000Y-46815877D01*
X64279834Y-46972560D01*
X64218699Y-47120153D01*
X64129945Y-47252982D01*
X64016982Y-47365945D01*
X63884153Y-47454699D01*
X63884152Y-47454700D01*
X63884151Y-47454700D01*
X63736560Y-47515834D01*
X63579878Y-47547000D01*
X63420122Y-47547000D01*
X63263440Y-47515834D01*
X63115849Y-47454700D01*
X63115848Y-47454700D01*
X63115847Y-47454699D01*
X62983018Y-47365945D01*
X62870055Y-47252982D01*
X62781301Y-47120153D01*
X62720166Y-46972560D01*
X62689000Y-46815877D01*
X62689000Y-46656123D01*
X62720166Y-46499440D01*
X62781301Y-46351847D01*
X62870055Y-46219018D01*
X62983018Y-46106055D01*
X63115847Y-46017301D01*
X63263440Y-45956166D01*
X63420122Y-45925000D01*
X63579878Y-45925000D01*
X63736560Y-45956166D01*
X63736560Y-45956166D01*
G37*
G36*
X129776560Y-45956166D02*
G01*
X129924153Y-46017301D01*
X130056982Y-46106055D01*
X130169945Y-46219018D01*
X130258699Y-46351847D01*
X130319834Y-46499440D01*
X130351000Y-46656123D01*
X130351000Y-46815877D01*
X130319834Y-46972560D01*
X130258699Y-47120153D01*
X130169945Y-47252982D01*
X130056982Y-47365945D01*
X129924153Y-47454699D01*
X129924152Y-47454700D01*
X129924151Y-47454700D01*
X129776560Y-47515834D01*
X129619878Y-47547000D01*
X129460122Y-47547000D01*
X129303440Y-47515834D01*
X129155849Y-47454700D01*
X129155848Y-47454700D01*
X129155847Y-47454699D01*
X129023018Y-47365945D01*
X128910055Y-47252982D01*
X128821301Y-47120153D01*
X128760166Y-46972560D01*
X128729000Y-46815877D01*
X128729000Y-46656123D01*
X128760166Y-46499440D01*
X128821301Y-46351847D01*
X128910055Y-46219018D01*
X129023018Y-46106055D01*
X129155847Y-46017301D01*
X129303440Y-45956166D01*
X129460122Y-45925000D01*
X129619878Y-45925000D01*
X129776560Y-45956166D01*
X129776560Y-45956166D01*
G37*
G36*
X134856560Y-45956166D02*
G01*
X135004153Y-46017301D01*
X135136982Y-46106055D01*
X135249945Y-46219018D01*
X135338699Y-46351847D01*
X135399834Y-46499440D01*
X135431000Y-46656123D01*
X135431000Y-46815877D01*
X135399834Y-46972560D01*
X135338699Y-47120153D01*
X135249945Y-47252982D01*
X135136982Y-47365945D01*
X135004153Y-47454699D01*
X135004152Y-47454700D01*
X135004151Y-47454700D01*
X134856560Y-47515834D01*
X134699878Y-47547000D01*
X134540122Y-47547000D01*
X134383440Y-47515834D01*
X134235849Y-47454700D01*
X134235848Y-47454700D01*
X134235847Y-47454699D01*
X134103018Y-47365945D01*
X133990055Y-47252982D01*
X133901301Y-47120153D01*
X133840166Y-46972560D01*
X133809000Y-46815877D01*
X133809000Y-46656123D01*
X133840166Y-46499440D01*
X133901301Y-46351847D01*
X133990055Y-46219018D01*
X134103018Y-46106055D01*
X134235847Y-46017301D01*
X134383440Y-45956166D01*
X134540122Y-45925000D01*
X134699878Y-45925000D01*
X134856560Y-45956166D01*
X134856560Y-45956166D01*
G37*
G36*
X145016560Y-45956166D02*
G01*
X145164153Y-46017301D01*
X145296982Y-46106055D01*
X145409945Y-46219018D01*
X145498699Y-46351847D01*
X145559834Y-46499440D01*
X145591000Y-46656123D01*
X145591000Y-46815877D01*
X145559834Y-46972560D01*
X145498699Y-47120153D01*
X145409945Y-47252982D01*
X145296982Y-47365945D01*
X145164153Y-47454699D01*
X145164152Y-47454700D01*
X145164151Y-47454700D01*
X145016560Y-47515834D01*
X144859878Y-47547000D01*
X144700122Y-47547000D01*
X144543440Y-47515834D01*
X144395849Y-47454700D01*
X144395848Y-47454700D01*
X144395847Y-47454699D01*
X144263018Y-47365945D01*
X144150055Y-47252982D01*
X144061301Y-47120153D01*
X144000166Y-46972560D01*
X143969000Y-46815877D01*
X143969000Y-46656123D01*
X144000166Y-46499440D01*
X144061301Y-46351847D01*
X144150055Y-46219018D01*
X144263018Y-46106055D01*
X144395847Y-46017301D01*
X144543440Y-45956166D01*
X144700122Y-45925000D01*
X144859878Y-45925000D01*
X145016560Y-45956166D01*
X145016560Y-45956166D01*
G37*
G36*
X142476560Y-45956166D02*
G01*
X142624153Y-46017301D01*
X142756982Y-46106055D01*
X142869945Y-46219018D01*
X142958699Y-46351847D01*
X143019834Y-46499440D01*
X143051000Y-46656123D01*
X143051000Y-46815877D01*
X143019834Y-46972560D01*
X142958699Y-47120153D01*
X142869945Y-47252982D01*
X142756982Y-47365945D01*
X142624153Y-47454699D01*
X142624152Y-47454700D01*
X142624151Y-47454700D01*
X142476560Y-47515834D01*
X142319878Y-47547000D01*
X142160122Y-47547000D01*
X142003440Y-47515834D01*
X141855849Y-47454700D01*
X141855848Y-47454700D01*
X141855847Y-47454699D01*
X141723018Y-47365945D01*
X141610055Y-47252982D01*
X141521301Y-47120153D01*
X141460166Y-46972560D01*
X141429000Y-46815877D01*
X141429000Y-46656123D01*
X141460166Y-46499440D01*
X141521301Y-46351847D01*
X141610055Y-46219018D01*
X141723018Y-46106055D01*
X141855847Y-46017301D01*
X142003440Y-45956166D01*
X142160122Y-45925000D01*
X142319878Y-45925000D01*
X142476560Y-45956166D01*
X142476560Y-45956166D01*
G37*
G36*
X86596560Y-45956166D02*
G01*
X86744153Y-46017301D01*
X86876982Y-46106055D01*
X86989945Y-46219018D01*
X87078699Y-46351847D01*
X87139834Y-46499440D01*
X87171000Y-46656123D01*
X87171000Y-46815877D01*
X87139834Y-46972560D01*
X87078699Y-47120153D01*
X86989945Y-47252982D01*
X86876982Y-47365945D01*
X86744153Y-47454699D01*
X86744152Y-47454700D01*
X86744151Y-47454700D01*
X86596560Y-47515834D01*
X86439878Y-47547000D01*
X86280122Y-47547000D01*
X86123440Y-47515834D01*
X85975849Y-47454700D01*
X85975848Y-47454700D01*
X85975847Y-47454699D01*
X85843018Y-47365945D01*
X85730055Y-47252982D01*
X85641301Y-47120153D01*
X85580166Y-46972560D01*
X85549000Y-46815877D01*
X85549000Y-46656123D01*
X85580166Y-46499440D01*
X85641301Y-46351847D01*
X85730055Y-46219018D01*
X85843018Y-46106055D01*
X85975847Y-46017301D01*
X86123440Y-45956166D01*
X86280122Y-45925000D01*
X86439878Y-45925000D01*
X86596560Y-45956166D01*
X86596560Y-45956166D01*
G37*
G36*
X139936560Y-45956166D02*
G01*
X140084153Y-46017301D01*
X140216982Y-46106055D01*
X140329945Y-46219018D01*
X140418699Y-46351847D01*
X140479834Y-46499440D01*
X140511000Y-46656123D01*
X140511000Y-46815877D01*
X140479834Y-46972560D01*
X140418699Y-47120153D01*
X140329945Y-47252982D01*
X140216982Y-47365945D01*
X140084153Y-47454699D01*
X140084152Y-47454700D01*
X140084151Y-47454700D01*
X139936560Y-47515834D01*
X139779878Y-47547000D01*
X139620122Y-47547000D01*
X139463440Y-47515834D01*
X139315849Y-47454700D01*
X139315848Y-47454700D01*
X139315847Y-47454699D01*
X139183018Y-47365945D01*
X139070055Y-47252982D01*
X138981301Y-47120153D01*
X138920166Y-46972560D01*
X138889000Y-46815877D01*
X138889000Y-46656123D01*
X138920166Y-46499440D01*
X138981301Y-46351847D01*
X139070055Y-46219018D01*
X139183018Y-46106055D01*
X139315847Y-46017301D01*
X139463440Y-45956166D01*
X139620122Y-45925000D01*
X139779878Y-45925000D01*
X139936560Y-45956166D01*
X139936560Y-45956166D01*
G37*
G36*
X147556560Y-45956166D02*
G01*
X147704153Y-46017301D01*
X147836982Y-46106055D01*
X147949945Y-46219018D01*
X148038699Y-46351847D01*
X148099834Y-46499440D01*
X148131000Y-46656123D01*
X148131000Y-46815877D01*
X148099834Y-46972560D01*
X148038699Y-47120153D01*
X147949945Y-47252982D01*
X147836982Y-47365945D01*
X147704153Y-47454699D01*
X147704152Y-47454700D01*
X147704151Y-47454700D01*
X147556560Y-47515834D01*
X147399878Y-47547000D01*
X147240122Y-47547000D01*
X147083440Y-47515834D01*
X146935849Y-47454700D01*
X146935848Y-47454700D01*
X146935847Y-47454699D01*
X146803018Y-47365945D01*
X146690055Y-47252982D01*
X146601301Y-47120153D01*
X146540166Y-46972560D01*
X146509000Y-46815877D01*
X146509000Y-46656123D01*
X146540166Y-46499440D01*
X146601301Y-46351847D01*
X146690055Y-46219018D01*
X146803018Y-46106055D01*
X146935847Y-46017301D01*
X147083440Y-45956166D01*
X147240122Y-45925000D01*
X147399878Y-45925000D01*
X147556560Y-45956166D01*
X147556560Y-45956166D01*
G37*
G36*
X137396560Y-45956166D02*
G01*
X137544153Y-46017301D01*
X137676982Y-46106055D01*
X137789945Y-46219018D01*
X137878699Y-46351847D01*
X137939834Y-46499440D01*
X137971000Y-46656123D01*
X137971000Y-46815877D01*
X137939834Y-46972560D01*
X137878699Y-47120153D01*
X137789945Y-47252982D01*
X137676982Y-47365945D01*
X137544153Y-47454699D01*
X137544152Y-47454700D01*
X137544151Y-47454700D01*
X137396560Y-47515834D01*
X137239878Y-47547000D01*
X137080122Y-47547000D01*
X136923440Y-47515834D01*
X136775849Y-47454700D01*
X136775848Y-47454700D01*
X136775847Y-47454699D01*
X136643018Y-47365945D01*
X136530055Y-47252982D01*
X136441301Y-47120153D01*
X136380166Y-46972560D01*
X136349000Y-46815877D01*
X136349000Y-46656123D01*
X136380166Y-46499440D01*
X136441301Y-46351847D01*
X136530055Y-46219018D01*
X136643018Y-46106055D01*
X136775847Y-46017301D01*
X136923440Y-45956166D01*
X137080122Y-45925000D01*
X137239878Y-45925000D01*
X137396560Y-45956166D01*
X137396560Y-45956166D01*
G37*
G36*
X150096560Y-45956166D02*
G01*
X150244153Y-46017301D01*
X150376982Y-46106055D01*
X150489945Y-46219018D01*
X150578699Y-46351847D01*
X150639834Y-46499440D01*
X150671000Y-46656123D01*
X150671000Y-46815877D01*
X150639834Y-46972560D01*
X150578699Y-47120153D01*
X150489945Y-47252982D01*
X150376982Y-47365945D01*
X150244153Y-47454699D01*
X150244152Y-47454700D01*
X150244151Y-47454700D01*
X150096560Y-47515834D01*
X149939878Y-47547000D01*
X149780122Y-47547000D01*
X149623440Y-47515834D01*
X149475849Y-47454700D01*
X149475848Y-47454700D01*
X149475847Y-47454699D01*
X149343018Y-47365945D01*
X149230055Y-47252982D01*
X149141301Y-47120153D01*
X149080166Y-46972560D01*
X149049000Y-46815877D01*
X149049000Y-46656123D01*
X149080166Y-46499440D01*
X149141301Y-46351847D01*
X149230055Y-46219018D01*
X149343018Y-46106055D01*
X149475847Y-46017301D01*
X149623440Y-45956166D01*
X149780122Y-45925000D01*
X149939878Y-45925000D01*
X150096560Y-45956166D01*
X150096560Y-45956166D01*
G37*
G36*
X168203508Y-40401380D02*
G01*
X168370367Y-40434570D01*
X168841899Y-40629885D01*
X169084629Y-40792073D01*
X169266266Y-40913438D01*
X169627162Y-41274334D01*
X169748527Y-41455971D01*
X169910715Y-41698701D01*
X170106030Y-42170233D01*
X170205600Y-42670809D01*
X170205600Y-43181191D01*
X170106030Y-43681767D01*
X169910715Y-44153299D01*
X169748527Y-44396029D01*
X169627162Y-44577666D01*
X169266266Y-44938562D01*
X169084629Y-45059927D01*
X168841899Y-45222115D01*
X168370367Y-45417430D01*
X168203508Y-45450620D01*
X167869793Y-45517000D01*
X167359407Y-45517000D01*
X167025692Y-45450620D01*
X166858833Y-45417430D01*
X166387301Y-45222115D01*
X166144571Y-45059927D01*
X165962934Y-44938562D01*
X165602038Y-44577666D01*
X165480673Y-44396029D01*
X165318485Y-44153299D01*
X165123170Y-43681767D01*
X165023600Y-43181191D01*
X165023600Y-42670809D01*
X165123170Y-42170233D01*
X165318485Y-41698701D01*
X165480673Y-41455971D01*
X165602038Y-41274334D01*
X165962934Y-40913438D01*
X166144571Y-40792073D01*
X166387301Y-40629885D01*
X166858833Y-40434570D01*
X167025692Y-40401380D01*
X167359407Y-40335000D01*
X167869793Y-40335000D01*
X168203508Y-40401380D01*
X168203508Y-40401380D01*
G37*
M02*
