M48
; DRILL file {KiCad (5.1.4)-1} date 2/16/2020 3:15:15 PM
; FORMAT={-:-/ absolute / inch / decimal}
; #@! TF.CreationDate,2020-02-16T15:15:15-06:00
; #@! TF.GenerationSoftware,Kicad,Pcbnew,(5.1.4)-1
; #@! TF.FileFunction,Plated,1,2,PTH
FMAT,2
INCH
T1C0.0157
T2C0.0350
T3C0.0354
T4C0.0390
T5C0.0394
T6C0.0472
T7C0.1230
T8C0.1598
%
G90
G05
T1
X2.8561Y-3.7689
X2.9Y-2.65
X2.95Y-2.85
X3.0Y-3.55
X3.1234Y-3.0766
X3.275Y-2.65
X3.275Y-3.025
X3.375Y-2.45
X3.375Y-2.8
X3.45Y-2.85
X3.4811Y-3.7689
X3.525Y-2.625
X3.536Y-3.414
X3.6Y-3.15
X3.6Y-3.875
X3.625Y-2.8
X3.6381Y-2.8631
X3.66Y-3.06
X3.7Y-3.65
X3.8Y-2.6
X3.85Y-2.4
X3.85Y-2.85
X3.85Y-4.05
X3.95Y-2.2
X3.95Y-2.55
X3.95Y-2.775
X3.95Y-2.9
X3.95Y-3.2
X3.95Y-4.0
X4.0Y-2.45
X4.0Y-3.05
X4.0Y-3.3
X4.075Y-2.125
X4.075Y-3.15
X4.1Y-3.75
X4.15Y-3.4
X4.175Y-4.025
X4.2Y-2.35
X4.2Y-2.65
X4.2Y-2.8
X4.2Y-2.95
X4.2Y-3.4
X4.2Y-3.7
X4.3Y-2.55
X4.3Y-3.025
X4.3Y-4.05
X4.4Y-2.7
X4.4Y-2.95
X4.4Y-3.31
X4.4Y-3.51
X4.4Y-3.6
X4.45Y-3.05
X4.45Y-3.5
X4.45Y-3.75
X4.55Y-3.65
X4.55Y-3.95
X4.6Y-2.8
X4.7Y-3.55
X4.7Y-3.7
X4.8Y-3.2
X5.05Y-2.5
X5.05Y-4.1
X5.1Y-2.3
X5.1Y-3.35
X5.16Y-2.94
X5.16Y-3.2
X5.25Y-2.55
X5.3Y-3.5
X5.35Y-3.05
X5.35Y-3.8
X5.3656Y-3.2844
X5.425Y-3.45
X5.425Y-3.55
X5.45Y-2.9
X5.48Y-3.3
X5.5Y-2.6
X5.55Y-3.05
X5.6Y-3.875
X5.65Y-2.6
X5.65Y-3.55
X5.6936Y-3.6564
X5.6936Y-3.8
X5.7Y-2.95
X5.7344Y-3.5156
X5.74Y-2.16
X5.8Y-2.8
X5.8Y-3.25
X6.0Y-2.175
X6.06Y-2.12
X6.15Y-3.425
X6.15Y-3.65
X6.2Y-2.85
X6.45Y-2.85
X6.45Y-3.95
X6.6Y-2.7
X6.6Y-3.55
X6.6Y-3.8
T2
X5.95Y-3.25
X6.05Y-3.25
X6.15Y-3.25
X6.4Y-3.25
X6.5Y-3.25
X6.6Y-3.25
T3
X4.95Y-3.65
X5.05Y-3.65
X5.15Y-3.65
X5.25Y-3.65
X5.25Y-3.65
X4.25Y-3.25
X4.35Y-3.25
X4.45Y-3.25
X4.55Y-3.25
X4.55Y-3.25
T4
X3.15Y-2.6037
X3.15Y-2.7021
X3.15Y-2.8006
X3.15Y-2.899
T5
X2.75Y-2.25
X2.75Y-2.35
X2.75Y-3.95
X2.75Y-4.05
X2.85Y-2.25
X2.85Y-2.35
X2.85Y-3.95
X2.85Y-4.05
X2.95Y-2.25
X2.95Y-2.35
X2.95Y-3.95
X2.95Y-4.05
X3.05Y-2.25
X3.05Y-2.35
X3.05Y-3.95
X3.05Y-4.05
X3.15Y-2.25
X3.15Y-2.35
X3.15Y-3.95
X3.15Y-4.05
X3.25Y-2.25
X3.25Y-2.35
X3.25Y-3.95
X3.25Y-4.05
X3.35Y-2.25
X3.35Y-2.35
X3.35Y-3.95
X3.35Y-4.05
X3.45Y-2.25
X3.45Y-2.35
X3.45Y-3.95
X3.45Y-4.05
X3.55Y-2.25
X3.55Y-2.35
X3.55Y-3.95
X3.55Y-4.05
X3.65Y-2.25
X3.65Y-2.35
X3.65Y-3.95
X3.65Y-4.05
X5.25Y-2.25
X5.25Y-2.35
X5.25Y-3.95
X5.25Y-4.05
X5.35Y-2.25
X5.35Y-2.35
X5.35Y-3.95
X5.35Y-4.05
X5.45Y-2.25
X5.45Y-2.35
X5.45Y-3.95
X5.45Y-4.05
X5.55Y-2.25
X5.55Y-2.35
X5.55Y-3.95
X5.55Y-4.05
X5.65Y-2.25
X5.65Y-2.35
X5.65Y-3.95
X5.65Y-4.05
X5.75Y-2.25
X5.75Y-2.35
X5.75Y-3.95
X5.75Y-4.05
X5.85Y-2.25
X5.85Y-2.35
X5.85Y-3.95
X5.85Y-4.05
X5.95Y-2.25
X5.95Y-2.35
X5.95Y-3.95
X5.95Y-4.05
X6.05Y-2.25
X6.05Y-2.35
X6.05Y-3.95
X6.05Y-4.05
X6.15Y-2.25
X6.15Y-2.35
X6.15Y-3.95
X6.15Y-4.05
T6
X4.9Y-2.7
X5.5Y-2.7
T7
X3.044Y-2.4927
X3.044Y-3.01
T8
X6.49Y-2.451
X6.8Y-2.451
X7.14Y-2.45
X7.45Y-2.45
X4.49Y-2.451
X4.8Y-2.451
X6.899Y-2.79
X6.899Y-3.1
T0
M30
