M48
; DRILL file {KiCad 5.1.4-e60b266~84~ubuntu16.04.1} date Thu 12 Dec 2019 07:25:07 PM CST
; FORMAT={-:-/ absolute / inch / decimal}
; #@! TF.CreationDate,2019-12-12T19:25:07-06:00
; #@! TF.GenerationSoftware,Kicad,Pcbnew,5.1.4-e60b266~84~ubuntu16.04.1
; #@! TF.FileFunction,Plated,1,2,PTH
FMAT,2
INCH
T1C0.0157
T2C0.0236
T3C0.0276
T4C0.0350
T5C0.0354
T6C0.0394
T7C0.0472
T8C0.1598
%
G90
G05
T1
X2.85Y-2.9
X2.8561Y-3.7689
X2.9Y-2.65
X3.0Y-3.55
X3.05Y-3.0
X3.28Y-2.94
X3.3Y-2.55
X3.3Y-2.74
X3.35Y-3.15
X3.4837Y-2.6337
X3.536Y-2.736
X3.536Y-3.414
X3.58Y-2.7
X3.58Y-2.85
X3.6Y-3.15
X3.6Y-3.875
X3.6561Y-3.7689
X3.66Y-3.06
X3.68Y-2.56
X3.75Y-3.55
X3.75Y-3.975
X3.8Y-2.7
X3.8Y-2.95
X3.84Y-2.64
X3.85Y-4.05
X3.9Y-2.35
X3.9Y-3.55
X3.9Y-3.85
X3.92Y-2.66
X3.92Y-2.78
X3.95Y-2.55
X3.95Y-2.9
X4.0Y-3.05
X4.0Y-3.3
X4.05Y-3.6
X4.05Y-3.9
X4.075Y-2.125
X4.075Y-3.15
X4.1Y-3.55
X4.1Y-3.75
X4.15Y-3.4
X4.175Y-4.025
X4.3Y-3.025
X4.3Y-4.05
X4.4Y-3.31
X4.4Y-3.51
X4.45Y-3.05
X4.45Y-3.5
X4.625Y-3.975
X4.8Y-3.2
X4.875Y-3.375
X4.875Y-3.75
X4.95Y-3.9
X5.05Y-4.1
X5.1Y-3.35
X5.15Y-3.95
X5.16Y-2.94
X5.16Y-3.2
X5.3Y-3.5
X5.35Y-3.05
X5.35Y-3.55
X5.35Y-3.8
X5.3656Y-3.2844
X5.425Y-3.45
X5.425Y-3.55
X5.48Y-3.3
X5.5Y-2.6
X5.6Y-3.875
X5.65Y-2.6
X5.65Y-3.55
X5.6936Y-3.6564
X5.6936Y-3.8
X5.7Y-2.95
X5.7344Y-3.5156
X5.74Y-2.16
X5.8Y-3.25
X6.0Y-2.175
X6.06Y-2.12
X6.15Y-3.425
X6.15Y-3.65
X6.45Y-2.85
X6.45Y-3.95
X6.6Y-3.55
X6.6Y-3.8
T3
X3.1Y-2.65
X3.1Y-2.7484
X3.1Y-2.8272
X3.1Y-2.9256
X3.1591Y-2.6303
X3.1591Y-2.7091
X3.1591Y-2.7878
X3.1591Y-2.8665
X3.1591Y-2.9453
T4
X6.4Y-3.25
X6.5Y-3.25
X6.6Y-3.25
X5.95Y-3.25
X6.05Y-3.25
X6.15Y-3.25
T5
X4.25Y-3.65
X4.35Y-3.65
X4.45Y-3.65
X4.55Y-3.65
X4.65Y-3.65
X4.95Y-3.65
X5.05Y-3.65
X5.15Y-3.65
X5.25Y-3.65
X5.25Y-3.65
X4.25Y-3.25
X4.35Y-3.25
X4.45Y-3.25
X4.55Y-3.25
X4.55Y-3.25
T6
X2.75Y-2.25
X2.75Y-2.35
X2.75Y-3.95
X2.75Y-4.05
X2.85Y-2.25
X2.85Y-2.35
X2.85Y-3.95
X2.85Y-4.05
X2.95Y-2.25
X2.95Y-2.35
X2.95Y-3.95
X2.95Y-4.05
X3.05Y-2.25
X3.05Y-2.35
X3.05Y-3.95
X3.05Y-4.05
X3.15Y-2.25
X3.15Y-2.35
X3.15Y-3.95
X3.15Y-4.05
X3.25Y-2.25
X3.25Y-2.35
X3.25Y-3.95
X3.25Y-4.05
X3.35Y-2.25
X3.35Y-2.35
X3.35Y-3.95
X3.35Y-4.05
X3.45Y-2.25
X3.45Y-2.35
X3.45Y-3.95
X3.45Y-4.05
X3.55Y-2.25
X3.55Y-2.35
X3.55Y-3.95
X3.55Y-4.05
X3.65Y-2.25
X3.65Y-2.35
X3.65Y-3.95
X3.65Y-4.05
X5.25Y-2.25
X5.25Y-2.35
X5.25Y-3.95
X5.25Y-4.05
X5.35Y-2.25
X5.35Y-2.35
X5.35Y-3.95
X5.35Y-4.05
X5.45Y-2.25
X5.45Y-2.35
X5.45Y-3.95
X5.45Y-4.05
X5.55Y-2.25
X5.55Y-2.35
X5.55Y-3.95
X5.55Y-4.05
X5.65Y-2.25
X5.65Y-2.35
X5.65Y-3.95
X5.65Y-4.05
X5.75Y-2.25
X5.75Y-2.35
X5.75Y-3.95
X5.75Y-4.05
X5.85Y-2.25
X5.85Y-2.35
X5.85Y-3.95
X5.85Y-4.05
X5.95Y-2.25
X5.95Y-2.35
X5.95Y-3.95
X5.95Y-4.05
X6.05Y-2.25
X6.05Y-2.35
X6.05Y-3.95
X6.05Y-4.05
X6.15Y-2.25
X6.15Y-2.35
X6.15Y-3.95
X6.15Y-4.05
T7
X4.9Y-2.75
X5.5Y-2.75
X4.15Y-2.75
X4.75Y-2.75
T8
X7.14Y-2.45
X7.45Y-2.45
X4.28Y-2.45
X4.59Y-2.45
X4.9Y-2.45
X6.899Y-2.79
X6.899Y-3.1
X6.49Y-2.451
X6.8Y-2.451
T2
G00X2.8106Y-2.5358
M15
G01X2.7791Y-2.5358
M16
G05
G00X2.8106Y-3.0398
M15
G01X2.7791Y-3.0398
M16
G05
G00X3.1512Y-2.5358
M15
G01X3.1079Y-2.5358
M16
G05
G00X3.1512Y-3.0398
M15
G01X3.1079Y-3.0398
M16
G05
T0
M30
