M48
;DRILL file {KiCad (5.0.0)} date 12/18/18 15:11:23
;FORMAT={-:-/ absolute / inch / decimal}
FMAT,2
INCH,TZ
T1C0.0157
T2C0.0300
T3C0.0350
T4C0.0394
T5C0.1598
%
G90
G05
M72
T1
X3.497Y-2.687
X4.27Y-3.26
X4.27Y-3.38
X4.27Y-3.5
X4.42Y-2.755
X4.58Y-3.26
X4.58Y-3.38
X4.58Y-3.5
X4.785Y-2.4689
X4.96Y-4.14
X5.01Y-2.755
X5.01Y-2.96
X5.15Y-2.4689
X5.62Y-4.3
X7.01Y-4.35
X7.0494Y-4.38
X7.1844Y-3.0156
T2
X3.915Y-2.87
X3.915Y-2.97
X3.915Y-3.07
X3.915Y-3.17
X4.95Y-2.295
X5.05Y-2.295
X5.15Y-2.295
X7.1Y-2.3
X7.2Y-2.3
X7.3Y-2.3
X3.81Y-2.295
X3.91Y-2.295
X4.01Y-2.295
X4.11Y-2.295
X6.39Y-2.295
X6.49Y-2.295
T3
X7.67Y-2.59
X7.67Y-2.69
X7.67Y-2.79
X7.67Y-3.08
X7.67Y-3.18
X7.67Y-3.28
T4
X3.4468Y-2.5183
X3.4468Y-2.6183
X3.4468Y-4.2183
X3.4468Y-4.3183
X3.5468Y-2.5183
X3.5468Y-2.6183
X3.5468Y-4.2183
X3.5468Y-4.3183
X3.6468Y-2.5183
X3.6468Y-2.6183
X3.6468Y-4.2183
X3.6468Y-4.3183
X3.7468Y-2.5183
X3.7468Y-2.6183
X3.7468Y-4.2183
X3.7468Y-4.3183
X3.8468Y-2.5183
X3.8468Y-2.6183
X3.8468Y-4.2183
X3.8468Y-4.3183
X3.9468Y-2.5183
X3.9468Y-2.6183
X3.9468Y-4.2183
X3.9468Y-4.3183
X4.0468Y-2.5183
X4.0468Y-2.6183
X4.0468Y-4.2183
X4.0468Y-4.3183
X4.1468Y-2.5183
X4.1468Y-2.6183
X4.1468Y-4.2183
X4.1468Y-4.3183
X4.2468Y-2.5183
X4.2468Y-2.6183
X4.2468Y-4.2183
X4.2468Y-4.3183
X4.3468Y-2.5183
X4.3468Y-2.6183
X4.3468Y-4.2183
X4.3468Y-4.3183
X5.9468Y-2.5183
X5.9468Y-2.6183
X5.9468Y-4.2183
X5.9468Y-4.3183
X6.0468Y-2.5183
X6.0468Y-2.6183
X6.0468Y-4.2183
X6.0468Y-4.3183
X6.1468Y-2.5183
X6.1468Y-2.6183
X6.1468Y-4.2183
X6.1468Y-4.3183
X6.2468Y-2.5183
X6.2468Y-2.6183
X6.2468Y-4.2183
X6.2468Y-4.3183
X6.3468Y-2.5183
X6.3468Y-2.6183
X6.3468Y-4.2183
X6.3468Y-4.3183
X6.4468Y-2.5183
X6.4468Y-2.6183
X6.4468Y-4.2183
X6.4468Y-4.3183
X6.5468Y-2.5183
X6.5468Y-2.6183
X6.5468Y-4.2183
X6.5468Y-4.3183
X6.6468Y-2.5183
X6.6468Y-2.6183
X6.6468Y-4.2183
X6.6468Y-4.3183
X6.7468Y-2.5183
X6.7468Y-2.6183
X6.7468Y-4.2183
X6.7468Y-4.3183
X6.8468Y-2.5183
X6.8468Y-2.6183
X6.8468Y-4.2183
X6.8468Y-4.3183
T5
X7.219Y-3.83
X7.219Y-4.145
T0
M30
