G04 #@! TF.GenerationSoftware,KiCad,Pcbnew,(5.0.2)-1*
G04 #@! TF.CreationDate,2019-03-17T15:31:57-05:00*
G04 #@! TF.ProjectId,SRASensorBoard_Hardware,53524153-656e-4736-9f72-426f6172645f,rev?*
G04 #@! TF.SameCoordinates,Original*
G04 #@! TF.FileFunction,Paste,Top*
G04 #@! TF.FilePolarity,Positive*
%FSLAX46Y46*%
G04 Gerber Fmt 4.6, Leading zero omitted, Abs format (unit mm)*
G04 Created by KiCad (PCBNEW (5.0.2)-1) date 3/17/2019 3:31:57 PM*
%MOMM*%
%LPD*%
G01*
G04 APERTURE LIST*
%ADD10C,0.100000*%
%ADD11C,0.950000*%
%ADD12C,5.080000*%
%ADD13C,1.520000*%
G04 APERTURE END LIST*
D10*
G04 #@! TO.C,D1*
G36*
X92894579Y-95770144D02*
X92917634Y-95773563D01*
X92940243Y-95779227D01*
X92962187Y-95787079D01*
X92983257Y-95797044D01*
X93003248Y-95809026D01*
X93021968Y-95822910D01*
X93039238Y-95838562D01*
X93054890Y-95855832D01*
X93068774Y-95874552D01*
X93080756Y-95894543D01*
X93090721Y-95915613D01*
X93098573Y-95937557D01*
X93104237Y-95960166D01*
X93107656Y-95983221D01*
X93108800Y-96006500D01*
X93108800Y-96581500D01*
X93107656Y-96604779D01*
X93104237Y-96627834D01*
X93098573Y-96650443D01*
X93090721Y-96672387D01*
X93080756Y-96693457D01*
X93068774Y-96713448D01*
X93054890Y-96732168D01*
X93039238Y-96749438D01*
X93021968Y-96765090D01*
X93003248Y-96778974D01*
X92983257Y-96790956D01*
X92962187Y-96800921D01*
X92940243Y-96808773D01*
X92917634Y-96814437D01*
X92894579Y-96817856D01*
X92871300Y-96819000D01*
X92396300Y-96819000D01*
X92373021Y-96817856D01*
X92349966Y-96814437D01*
X92327357Y-96808773D01*
X92305413Y-96800921D01*
X92284343Y-96790956D01*
X92264352Y-96778974D01*
X92245632Y-96765090D01*
X92228362Y-96749438D01*
X92212710Y-96732168D01*
X92198826Y-96713448D01*
X92186844Y-96693457D01*
X92176879Y-96672387D01*
X92169027Y-96650443D01*
X92163363Y-96627834D01*
X92159944Y-96604779D01*
X92158800Y-96581500D01*
X92158800Y-96006500D01*
X92159944Y-95983221D01*
X92163363Y-95960166D01*
X92169027Y-95937557D01*
X92176879Y-95915613D01*
X92186844Y-95894543D01*
X92198826Y-95874552D01*
X92212710Y-95855832D01*
X92228362Y-95838562D01*
X92245632Y-95822910D01*
X92264352Y-95809026D01*
X92284343Y-95797044D01*
X92305413Y-95787079D01*
X92327357Y-95779227D01*
X92349966Y-95773563D01*
X92373021Y-95770144D01*
X92396300Y-95769000D01*
X92871300Y-95769000D01*
X92894579Y-95770144D01*
X92894579Y-95770144D01*
G37*
D11*
X92633800Y-96294000D03*
D10*
G36*
X92894579Y-97520144D02*
X92917634Y-97523563D01*
X92940243Y-97529227D01*
X92962187Y-97537079D01*
X92983257Y-97547044D01*
X93003248Y-97559026D01*
X93021968Y-97572910D01*
X93039238Y-97588562D01*
X93054890Y-97605832D01*
X93068774Y-97624552D01*
X93080756Y-97644543D01*
X93090721Y-97665613D01*
X93098573Y-97687557D01*
X93104237Y-97710166D01*
X93107656Y-97733221D01*
X93108800Y-97756500D01*
X93108800Y-98331500D01*
X93107656Y-98354779D01*
X93104237Y-98377834D01*
X93098573Y-98400443D01*
X93090721Y-98422387D01*
X93080756Y-98443457D01*
X93068774Y-98463448D01*
X93054890Y-98482168D01*
X93039238Y-98499438D01*
X93021968Y-98515090D01*
X93003248Y-98528974D01*
X92983257Y-98540956D01*
X92962187Y-98550921D01*
X92940243Y-98558773D01*
X92917634Y-98564437D01*
X92894579Y-98567856D01*
X92871300Y-98569000D01*
X92396300Y-98569000D01*
X92373021Y-98567856D01*
X92349966Y-98564437D01*
X92327357Y-98558773D01*
X92305413Y-98550921D01*
X92284343Y-98540956D01*
X92264352Y-98528974D01*
X92245632Y-98515090D01*
X92228362Y-98499438D01*
X92212710Y-98482168D01*
X92198826Y-98463448D01*
X92186844Y-98443457D01*
X92176879Y-98422387D01*
X92169027Y-98400443D01*
X92163363Y-98377834D01*
X92159944Y-98354779D01*
X92158800Y-98331500D01*
X92158800Y-97756500D01*
X92159944Y-97733221D01*
X92163363Y-97710166D01*
X92169027Y-97687557D01*
X92176879Y-97665613D01*
X92186844Y-97644543D01*
X92198826Y-97624552D01*
X92212710Y-97605832D01*
X92228362Y-97588562D01*
X92245632Y-97572910D01*
X92264352Y-97559026D01*
X92284343Y-97547044D01*
X92305413Y-97537079D01*
X92327357Y-97529227D01*
X92349966Y-97523563D01*
X92373021Y-97520144D01*
X92396300Y-97519000D01*
X92871300Y-97519000D01*
X92894579Y-97520144D01*
X92894579Y-97520144D01*
G37*
D11*
X92633800Y-98044000D03*
G04 #@! TD*
D10*
G04 #@! TO.C,R14*
G36*
X92894579Y-102346144D02*
X92917634Y-102349563D01*
X92940243Y-102355227D01*
X92962187Y-102363079D01*
X92983257Y-102373044D01*
X93003248Y-102385026D01*
X93021968Y-102398910D01*
X93039238Y-102414562D01*
X93054890Y-102431832D01*
X93068774Y-102450552D01*
X93080756Y-102470543D01*
X93090721Y-102491613D01*
X93098573Y-102513557D01*
X93104237Y-102536166D01*
X93107656Y-102559221D01*
X93108800Y-102582500D01*
X93108800Y-103157500D01*
X93107656Y-103180779D01*
X93104237Y-103203834D01*
X93098573Y-103226443D01*
X93090721Y-103248387D01*
X93080756Y-103269457D01*
X93068774Y-103289448D01*
X93054890Y-103308168D01*
X93039238Y-103325438D01*
X93021968Y-103341090D01*
X93003248Y-103354974D01*
X92983257Y-103366956D01*
X92962187Y-103376921D01*
X92940243Y-103384773D01*
X92917634Y-103390437D01*
X92894579Y-103393856D01*
X92871300Y-103395000D01*
X92396300Y-103395000D01*
X92373021Y-103393856D01*
X92349966Y-103390437D01*
X92327357Y-103384773D01*
X92305413Y-103376921D01*
X92284343Y-103366956D01*
X92264352Y-103354974D01*
X92245632Y-103341090D01*
X92228362Y-103325438D01*
X92212710Y-103308168D01*
X92198826Y-103289448D01*
X92186844Y-103269457D01*
X92176879Y-103248387D01*
X92169027Y-103226443D01*
X92163363Y-103203834D01*
X92159944Y-103180779D01*
X92158800Y-103157500D01*
X92158800Y-102582500D01*
X92159944Y-102559221D01*
X92163363Y-102536166D01*
X92169027Y-102513557D01*
X92176879Y-102491613D01*
X92186844Y-102470543D01*
X92198826Y-102450552D01*
X92212710Y-102431832D01*
X92228362Y-102414562D01*
X92245632Y-102398910D01*
X92264352Y-102385026D01*
X92284343Y-102373044D01*
X92305413Y-102363079D01*
X92327357Y-102355227D01*
X92349966Y-102349563D01*
X92373021Y-102346144D01*
X92396300Y-102345000D01*
X92871300Y-102345000D01*
X92894579Y-102346144D01*
X92894579Y-102346144D01*
G37*
D11*
X92633800Y-102870000D03*
D10*
G36*
X92894579Y-100596144D02*
X92917634Y-100599563D01*
X92940243Y-100605227D01*
X92962187Y-100613079D01*
X92983257Y-100623044D01*
X93003248Y-100635026D01*
X93021968Y-100648910D01*
X93039238Y-100664562D01*
X93054890Y-100681832D01*
X93068774Y-100700552D01*
X93080756Y-100720543D01*
X93090721Y-100741613D01*
X93098573Y-100763557D01*
X93104237Y-100786166D01*
X93107656Y-100809221D01*
X93108800Y-100832500D01*
X93108800Y-101407500D01*
X93107656Y-101430779D01*
X93104237Y-101453834D01*
X93098573Y-101476443D01*
X93090721Y-101498387D01*
X93080756Y-101519457D01*
X93068774Y-101539448D01*
X93054890Y-101558168D01*
X93039238Y-101575438D01*
X93021968Y-101591090D01*
X93003248Y-101604974D01*
X92983257Y-101616956D01*
X92962187Y-101626921D01*
X92940243Y-101634773D01*
X92917634Y-101640437D01*
X92894579Y-101643856D01*
X92871300Y-101645000D01*
X92396300Y-101645000D01*
X92373021Y-101643856D01*
X92349966Y-101640437D01*
X92327357Y-101634773D01*
X92305413Y-101626921D01*
X92284343Y-101616956D01*
X92264352Y-101604974D01*
X92245632Y-101591090D01*
X92228362Y-101575438D01*
X92212710Y-101558168D01*
X92198826Y-101539448D01*
X92186844Y-101519457D01*
X92176879Y-101498387D01*
X92169027Y-101476443D01*
X92163363Y-101453834D01*
X92159944Y-101430779D01*
X92158800Y-101407500D01*
X92158800Y-100832500D01*
X92159944Y-100809221D01*
X92163363Y-100786166D01*
X92169027Y-100763557D01*
X92176879Y-100741613D01*
X92186844Y-100720543D01*
X92198826Y-100700552D01*
X92212710Y-100681832D01*
X92228362Y-100664562D01*
X92245632Y-100648910D01*
X92264352Y-100635026D01*
X92284343Y-100623044D01*
X92305413Y-100613079D01*
X92327357Y-100605227D01*
X92349966Y-100599563D01*
X92373021Y-100596144D01*
X92396300Y-100595000D01*
X92871300Y-100595000D01*
X92894579Y-100596144D01*
X92894579Y-100596144D01*
G37*
D11*
X92633800Y-101120000D03*
G04 #@! TD*
D12*
G04 #@! TO.C,Conn1*
X183362600Y-97281000D03*
X183362600Y-105282000D03*
G04 #@! TD*
D10*
G04 #@! TO.C,R1*
G36*
X182745574Y-77736144D02*
X182768629Y-77739563D01*
X182791238Y-77745227D01*
X182813182Y-77753079D01*
X182834252Y-77763044D01*
X182854243Y-77775026D01*
X182872963Y-77788910D01*
X182890233Y-77804562D01*
X182905885Y-77821832D01*
X182919769Y-77840552D01*
X182931751Y-77860543D01*
X182941716Y-77881613D01*
X182949568Y-77903557D01*
X182955232Y-77926166D01*
X182958651Y-77949221D01*
X182959795Y-77972500D01*
X182959795Y-78547500D01*
X182958651Y-78570779D01*
X182955232Y-78593834D01*
X182949568Y-78616443D01*
X182941716Y-78638387D01*
X182931751Y-78659457D01*
X182919769Y-78679448D01*
X182905885Y-78698168D01*
X182890233Y-78715438D01*
X182872963Y-78731090D01*
X182854243Y-78744974D01*
X182834252Y-78756956D01*
X182813182Y-78766921D01*
X182791238Y-78774773D01*
X182768629Y-78780437D01*
X182745574Y-78783856D01*
X182722295Y-78785000D01*
X182247295Y-78785000D01*
X182224016Y-78783856D01*
X182200961Y-78780437D01*
X182178352Y-78774773D01*
X182156408Y-78766921D01*
X182135338Y-78756956D01*
X182115347Y-78744974D01*
X182096627Y-78731090D01*
X182079357Y-78715438D01*
X182063705Y-78698168D01*
X182049821Y-78679448D01*
X182037839Y-78659457D01*
X182027874Y-78638387D01*
X182020022Y-78616443D01*
X182014358Y-78593834D01*
X182010939Y-78570779D01*
X182009795Y-78547500D01*
X182009795Y-77972500D01*
X182010939Y-77949221D01*
X182014358Y-77926166D01*
X182020022Y-77903557D01*
X182027874Y-77881613D01*
X182037839Y-77860543D01*
X182049821Y-77840552D01*
X182063705Y-77821832D01*
X182079357Y-77804562D01*
X182096627Y-77788910D01*
X182115347Y-77775026D01*
X182135338Y-77763044D01*
X182156408Y-77753079D01*
X182178352Y-77745227D01*
X182200961Y-77739563D01*
X182224016Y-77736144D01*
X182247295Y-77735000D01*
X182722295Y-77735000D01*
X182745574Y-77736144D01*
X182745574Y-77736144D01*
G37*
D11*
X182484795Y-78260000D03*
D10*
G36*
X182745574Y-79486144D02*
X182768629Y-79489563D01*
X182791238Y-79495227D01*
X182813182Y-79503079D01*
X182834252Y-79513044D01*
X182854243Y-79525026D01*
X182872963Y-79538910D01*
X182890233Y-79554562D01*
X182905885Y-79571832D01*
X182919769Y-79590552D01*
X182931751Y-79610543D01*
X182941716Y-79631613D01*
X182949568Y-79653557D01*
X182955232Y-79676166D01*
X182958651Y-79699221D01*
X182959795Y-79722500D01*
X182959795Y-80297500D01*
X182958651Y-80320779D01*
X182955232Y-80343834D01*
X182949568Y-80366443D01*
X182941716Y-80388387D01*
X182931751Y-80409457D01*
X182919769Y-80429448D01*
X182905885Y-80448168D01*
X182890233Y-80465438D01*
X182872963Y-80481090D01*
X182854243Y-80494974D01*
X182834252Y-80506956D01*
X182813182Y-80516921D01*
X182791238Y-80524773D01*
X182768629Y-80530437D01*
X182745574Y-80533856D01*
X182722295Y-80535000D01*
X182247295Y-80535000D01*
X182224016Y-80533856D01*
X182200961Y-80530437D01*
X182178352Y-80524773D01*
X182156408Y-80516921D01*
X182135338Y-80506956D01*
X182115347Y-80494974D01*
X182096627Y-80481090D01*
X182079357Y-80465438D01*
X182063705Y-80448168D01*
X182049821Y-80429448D01*
X182037839Y-80409457D01*
X182027874Y-80388387D01*
X182020022Y-80366443D01*
X182014358Y-80343834D01*
X182010939Y-80320779D01*
X182009795Y-80297500D01*
X182009795Y-79722500D01*
X182010939Y-79699221D01*
X182014358Y-79676166D01*
X182020022Y-79653557D01*
X182027874Y-79631613D01*
X182037839Y-79610543D01*
X182049821Y-79590552D01*
X182063705Y-79571832D01*
X182079357Y-79554562D01*
X182096627Y-79538910D01*
X182115347Y-79525026D01*
X182135338Y-79513044D01*
X182156408Y-79503079D01*
X182178352Y-79495227D01*
X182200961Y-79489563D01*
X182224016Y-79486144D01*
X182247295Y-79485000D01*
X182722295Y-79485000D01*
X182745574Y-79486144D01*
X182745574Y-79486144D01*
G37*
D11*
X182484795Y-80010000D03*
G04 #@! TD*
D13*
G04 #@! TO.C,U1*
X151049001Y-109685001D03*
X173909001Y-63965001D03*
X171369001Y-63965001D03*
X163749001Y-63965001D03*
X161209001Y-107145001D03*
X166289001Y-63965001D03*
X168829001Y-63965001D03*
X166289001Y-109685001D03*
X171369001Y-107145001D03*
X161209001Y-63965001D03*
X158669001Y-63965001D03*
X171369001Y-109685001D03*
X166289001Y-107145001D03*
X163749001Y-107145001D03*
X151049001Y-107145001D03*
X153589001Y-107145001D03*
X156129001Y-107145001D03*
X158669001Y-107145001D03*
X168829001Y-107145001D03*
X173909001Y-107145001D03*
X153589001Y-109685001D03*
X156129001Y-109685001D03*
X158669001Y-109685001D03*
X161209001Y-109685001D03*
X163749001Y-109685001D03*
X168829001Y-109685001D03*
X173909001Y-109685001D03*
X151049001Y-66505001D03*
X153589001Y-66505001D03*
X156129001Y-66505001D03*
X158669001Y-66505001D03*
X161209001Y-66505001D03*
X163749001Y-66505001D03*
X166289001Y-66505001D03*
X168829001Y-66505001D03*
X171369001Y-66505001D03*
X173909001Y-66505001D03*
X151049001Y-63965001D03*
X153589001Y-63965001D03*
X156129001Y-63965001D03*
X87549001Y-107145001D03*
X90089001Y-107145001D03*
X92629001Y-107145001D03*
X95169001Y-107145001D03*
X97709001Y-107145001D03*
X100249001Y-107145001D03*
X102789001Y-107145001D03*
X105329001Y-107145001D03*
X107869001Y-107145001D03*
X110409001Y-107145001D03*
X87549001Y-109685001D03*
X90089001Y-109685001D03*
X92629001Y-109685001D03*
X95169001Y-109685001D03*
X97709001Y-109685001D03*
X100249001Y-109685001D03*
X102789001Y-109685001D03*
X105329001Y-109685001D03*
X107869001Y-109685001D03*
X110409001Y-109685001D03*
X87549001Y-66505001D03*
X90089001Y-66505001D03*
X92629001Y-66505001D03*
X95169001Y-66505001D03*
X97709001Y-66505001D03*
X100249001Y-66505001D03*
X102789001Y-66505001D03*
X105329001Y-66505001D03*
X107869001Y-66505001D03*
X110409001Y-66505001D03*
X87549001Y-63965001D03*
X90089001Y-63965001D03*
X92629001Y-63965001D03*
X95169001Y-63965001D03*
X97709001Y-63965001D03*
X100249001Y-63965001D03*
X102789001Y-63965001D03*
X105329001Y-63965001D03*
X107869001Y-63965001D03*
X110409001Y-63965001D03*
G04 #@! TD*
D10*
G04 #@! TO.C,C2*
G36*
X191014779Y-77581144D02*
X191037834Y-77584563D01*
X191060443Y-77590227D01*
X191082387Y-77598079D01*
X191103457Y-77608044D01*
X191123448Y-77620026D01*
X191142168Y-77633910D01*
X191159438Y-77649562D01*
X191175090Y-77666832D01*
X191188974Y-77685552D01*
X191200956Y-77705543D01*
X191210921Y-77726613D01*
X191218773Y-77748557D01*
X191224437Y-77771166D01*
X191227856Y-77794221D01*
X191229000Y-77817500D01*
X191229000Y-78392500D01*
X191227856Y-78415779D01*
X191224437Y-78438834D01*
X191218773Y-78461443D01*
X191210921Y-78483387D01*
X191200956Y-78504457D01*
X191188974Y-78524448D01*
X191175090Y-78543168D01*
X191159438Y-78560438D01*
X191142168Y-78576090D01*
X191123448Y-78589974D01*
X191103457Y-78601956D01*
X191082387Y-78611921D01*
X191060443Y-78619773D01*
X191037834Y-78625437D01*
X191014779Y-78628856D01*
X190991500Y-78630000D01*
X190516500Y-78630000D01*
X190493221Y-78628856D01*
X190470166Y-78625437D01*
X190447557Y-78619773D01*
X190425613Y-78611921D01*
X190404543Y-78601956D01*
X190384552Y-78589974D01*
X190365832Y-78576090D01*
X190348562Y-78560438D01*
X190332910Y-78543168D01*
X190319026Y-78524448D01*
X190307044Y-78504457D01*
X190297079Y-78483387D01*
X190289227Y-78461443D01*
X190283563Y-78438834D01*
X190280144Y-78415779D01*
X190279000Y-78392500D01*
X190279000Y-77817500D01*
X190280144Y-77794221D01*
X190283563Y-77771166D01*
X190289227Y-77748557D01*
X190297079Y-77726613D01*
X190307044Y-77705543D01*
X190319026Y-77685552D01*
X190332910Y-77666832D01*
X190348562Y-77649562D01*
X190365832Y-77633910D01*
X190384552Y-77620026D01*
X190404543Y-77608044D01*
X190425613Y-77598079D01*
X190447557Y-77590227D01*
X190470166Y-77584563D01*
X190493221Y-77581144D01*
X190516500Y-77580000D01*
X190991500Y-77580000D01*
X191014779Y-77581144D01*
X191014779Y-77581144D01*
G37*
D11*
X190754000Y-78105000D03*
D10*
G36*
X191014779Y-79331144D02*
X191037834Y-79334563D01*
X191060443Y-79340227D01*
X191082387Y-79348079D01*
X191103457Y-79358044D01*
X191123448Y-79370026D01*
X191142168Y-79383910D01*
X191159438Y-79399562D01*
X191175090Y-79416832D01*
X191188974Y-79435552D01*
X191200956Y-79455543D01*
X191210921Y-79476613D01*
X191218773Y-79498557D01*
X191224437Y-79521166D01*
X191227856Y-79544221D01*
X191229000Y-79567500D01*
X191229000Y-80142500D01*
X191227856Y-80165779D01*
X191224437Y-80188834D01*
X191218773Y-80211443D01*
X191210921Y-80233387D01*
X191200956Y-80254457D01*
X191188974Y-80274448D01*
X191175090Y-80293168D01*
X191159438Y-80310438D01*
X191142168Y-80326090D01*
X191123448Y-80339974D01*
X191103457Y-80351956D01*
X191082387Y-80361921D01*
X191060443Y-80369773D01*
X191037834Y-80375437D01*
X191014779Y-80378856D01*
X190991500Y-80380000D01*
X190516500Y-80380000D01*
X190493221Y-80378856D01*
X190470166Y-80375437D01*
X190447557Y-80369773D01*
X190425613Y-80361921D01*
X190404543Y-80351956D01*
X190384552Y-80339974D01*
X190365832Y-80326090D01*
X190348562Y-80310438D01*
X190332910Y-80293168D01*
X190319026Y-80274448D01*
X190307044Y-80254457D01*
X190297079Y-80233387D01*
X190289227Y-80211443D01*
X190283563Y-80188834D01*
X190280144Y-80165779D01*
X190279000Y-80142500D01*
X190279000Y-79567500D01*
X190280144Y-79544221D01*
X190283563Y-79521166D01*
X190289227Y-79498557D01*
X190297079Y-79476613D01*
X190307044Y-79455543D01*
X190319026Y-79435552D01*
X190332910Y-79416832D01*
X190348562Y-79399562D01*
X190365832Y-79383910D01*
X190384552Y-79370026D01*
X190404543Y-79358044D01*
X190425613Y-79348079D01*
X190447557Y-79340227D01*
X190470166Y-79334563D01*
X190493221Y-79331144D01*
X190516500Y-79330000D01*
X190991500Y-79330000D01*
X191014779Y-79331144D01*
X191014779Y-79331144D01*
G37*
D11*
X190754000Y-79855000D03*
G04 #@! TD*
D10*
G04 #@! TO.C,C1*
G36*
X191141779Y-70568144D02*
X191164834Y-70571563D01*
X191187443Y-70577227D01*
X191209387Y-70585079D01*
X191230457Y-70595044D01*
X191250448Y-70607026D01*
X191269168Y-70620910D01*
X191286438Y-70636562D01*
X191302090Y-70653832D01*
X191315974Y-70672552D01*
X191327956Y-70692543D01*
X191337921Y-70713613D01*
X191345773Y-70735557D01*
X191351437Y-70758166D01*
X191354856Y-70781221D01*
X191356000Y-70804500D01*
X191356000Y-71379500D01*
X191354856Y-71402779D01*
X191351437Y-71425834D01*
X191345773Y-71448443D01*
X191337921Y-71470387D01*
X191327956Y-71491457D01*
X191315974Y-71511448D01*
X191302090Y-71530168D01*
X191286438Y-71547438D01*
X191269168Y-71563090D01*
X191250448Y-71576974D01*
X191230457Y-71588956D01*
X191209387Y-71598921D01*
X191187443Y-71606773D01*
X191164834Y-71612437D01*
X191141779Y-71615856D01*
X191118500Y-71617000D01*
X190643500Y-71617000D01*
X190620221Y-71615856D01*
X190597166Y-71612437D01*
X190574557Y-71606773D01*
X190552613Y-71598921D01*
X190531543Y-71588956D01*
X190511552Y-71576974D01*
X190492832Y-71563090D01*
X190475562Y-71547438D01*
X190459910Y-71530168D01*
X190446026Y-71511448D01*
X190434044Y-71491457D01*
X190424079Y-71470387D01*
X190416227Y-71448443D01*
X190410563Y-71425834D01*
X190407144Y-71402779D01*
X190406000Y-71379500D01*
X190406000Y-70804500D01*
X190407144Y-70781221D01*
X190410563Y-70758166D01*
X190416227Y-70735557D01*
X190424079Y-70713613D01*
X190434044Y-70692543D01*
X190446026Y-70672552D01*
X190459910Y-70653832D01*
X190475562Y-70636562D01*
X190492832Y-70620910D01*
X190511552Y-70607026D01*
X190531543Y-70595044D01*
X190552613Y-70585079D01*
X190574557Y-70577227D01*
X190597166Y-70571563D01*
X190620221Y-70568144D01*
X190643500Y-70567000D01*
X191118500Y-70567000D01*
X191141779Y-70568144D01*
X191141779Y-70568144D01*
G37*
D11*
X190881000Y-71092000D03*
D10*
G36*
X191141779Y-68818144D02*
X191164834Y-68821563D01*
X191187443Y-68827227D01*
X191209387Y-68835079D01*
X191230457Y-68845044D01*
X191250448Y-68857026D01*
X191269168Y-68870910D01*
X191286438Y-68886562D01*
X191302090Y-68903832D01*
X191315974Y-68922552D01*
X191327956Y-68942543D01*
X191337921Y-68963613D01*
X191345773Y-68985557D01*
X191351437Y-69008166D01*
X191354856Y-69031221D01*
X191356000Y-69054500D01*
X191356000Y-69629500D01*
X191354856Y-69652779D01*
X191351437Y-69675834D01*
X191345773Y-69698443D01*
X191337921Y-69720387D01*
X191327956Y-69741457D01*
X191315974Y-69761448D01*
X191302090Y-69780168D01*
X191286438Y-69797438D01*
X191269168Y-69813090D01*
X191250448Y-69826974D01*
X191230457Y-69838956D01*
X191209387Y-69848921D01*
X191187443Y-69856773D01*
X191164834Y-69862437D01*
X191141779Y-69865856D01*
X191118500Y-69867000D01*
X190643500Y-69867000D01*
X190620221Y-69865856D01*
X190597166Y-69862437D01*
X190574557Y-69856773D01*
X190552613Y-69848921D01*
X190531543Y-69838956D01*
X190511552Y-69826974D01*
X190492832Y-69813090D01*
X190475562Y-69797438D01*
X190459910Y-69780168D01*
X190446026Y-69761448D01*
X190434044Y-69741457D01*
X190424079Y-69720387D01*
X190416227Y-69698443D01*
X190410563Y-69675834D01*
X190407144Y-69652779D01*
X190406000Y-69629500D01*
X190406000Y-69054500D01*
X190407144Y-69031221D01*
X190410563Y-69008166D01*
X190416227Y-68985557D01*
X190424079Y-68963613D01*
X190434044Y-68942543D01*
X190446026Y-68922552D01*
X190459910Y-68903832D01*
X190475562Y-68886562D01*
X190492832Y-68870910D01*
X190511552Y-68857026D01*
X190531543Y-68845044D01*
X190552613Y-68835079D01*
X190574557Y-68827227D01*
X190597166Y-68821563D01*
X190620221Y-68818144D01*
X190643500Y-68817000D01*
X191118500Y-68817000D01*
X191141779Y-68818144D01*
X191141779Y-68818144D01*
G37*
D11*
X190881000Y-69342000D03*
G04 #@! TD*
D10*
G04 #@! TO.C,C3*
G36*
X191014779Y-83169144D02*
X191037834Y-83172563D01*
X191060443Y-83178227D01*
X191082387Y-83186079D01*
X191103457Y-83196044D01*
X191123448Y-83208026D01*
X191142168Y-83221910D01*
X191159438Y-83237562D01*
X191175090Y-83254832D01*
X191188974Y-83273552D01*
X191200956Y-83293543D01*
X191210921Y-83314613D01*
X191218773Y-83336557D01*
X191224437Y-83359166D01*
X191227856Y-83382221D01*
X191229000Y-83405500D01*
X191229000Y-83980500D01*
X191227856Y-84003779D01*
X191224437Y-84026834D01*
X191218773Y-84049443D01*
X191210921Y-84071387D01*
X191200956Y-84092457D01*
X191188974Y-84112448D01*
X191175090Y-84131168D01*
X191159438Y-84148438D01*
X191142168Y-84164090D01*
X191123448Y-84177974D01*
X191103457Y-84189956D01*
X191082387Y-84199921D01*
X191060443Y-84207773D01*
X191037834Y-84213437D01*
X191014779Y-84216856D01*
X190991500Y-84218000D01*
X190516500Y-84218000D01*
X190493221Y-84216856D01*
X190470166Y-84213437D01*
X190447557Y-84207773D01*
X190425613Y-84199921D01*
X190404543Y-84189956D01*
X190384552Y-84177974D01*
X190365832Y-84164090D01*
X190348562Y-84148438D01*
X190332910Y-84131168D01*
X190319026Y-84112448D01*
X190307044Y-84092457D01*
X190297079Y-84071387D01*
X190289227Y-84049443D01*
X190283563Y-84026834D01*
X190280144Y-84003779D01*
X190279000Y-83980500D01*
X190279000Y-83405500D01*
X190280144Y-83382221D01*
X190283563Y-83359166D01*
X190289227Y-83336557D01*
X190297079Y-83314613D01*
X190307044Y-83293543D01*
X190319026Y-83273552D01*
X190332910Y-83254832D01*
X190348562Y-83237562D01*
X190365832Y-83221910D01*
X190384552Y-83208026D01*
X190404543Y-83196044D01*
X190425613Y-83186079D01*
X190447557Y-83178227D01*
X190470166Y-83172563D01*
X190493221Y-83169144D01*
X190516500Y-83168000D01*
X190991500Y-83168000D01*
X191014779Y-83169144D01*
X191014779Y-83169144D01*
G37*
D11*
X190754000Y-83693000D03*
D10*
G36*
X191014779Y-81419144D02*
X191037834Y-81422563D01*
X191060443Y-81428227D01*
X191082387Y-81436079D01*
X191103457Y-81446044D01*
X191123448Y-81458026D01*
X191142168Y-81471910D01*
X191159438Y-81487562D01*
X191175090Y-81504832D01*
X191188974Y-81523552D01*
X191200956Y-81543543D01*
X191210921Y-81564613D01*
X191218773Y-81586557D01*
X191224437Y-81609166D01*
X191227856Y-81632221D01*
X191229000Y-81655500D01*
X191229000Y-82230500D01*
X191227856Y-82253779D01*
X191224437Y-82276834D01*
X191218773Y-82299443D01*
X191210921Y-82321387D01*
X191200956Y-82342457D01*
X191188974Y-82362448D01*
X191175090Y-82381168D01*
X191159438Y-82398438D01*
X191142168Y-82414090D01*
X191123448Y-82427974D01*
X191103457Y-82439956D01*
X191082387Y-82449921D01*
X191060443Y-82457773D01*
X191037834Y-82463437D01*
X191014779Y-82466856D01*
X190991500Y-82468000D01*
X190516500Y-82468000D01*
X190493221Y-82466856D01*
X190470166Y-82463437D01*
X190447557Y-82457773D01*
X190425613Y-82449921D01*
X190404543Y-82439956D01*
X190384552Y-82427974D01*
X190365832Y-82414090D01*
X190348562Y-82398438D01*
X190332910Y-82381168D01*
X190319026Y-82362448D01*
X190307044Y-82342457D01*
X190297079Y-82321387D01*
X190289227Y-82299443D01*
X190283563Y-82276834D01*
X190280144Y-82253779D01*
X190279000Y-82230500D01*
X190279000Y-81655500D01*
X190280144Y-81632221D01*
X190283563Y-81609166D01*
X190289227Y-81586557D01*
X190297079Y-81564613D01*
X190307044Y-81543543D01*
X190319026Y-81523552D01*
X190332910Y-81504832D01*
X190348562Y-81487562D01*
X190365832Y-81471910D01*
X190384552Y-81458026D01*
X190404543Y-81446044D01*
X190425613Y-81436079D01*
X190447557Y-81428227D01*
X190470166Y-81422563D01*
X190493221Y-81419144D01*
X190516500Y-81418000D01*
X190991500Y-81418000D01*
X191014779Y-81419144D01*
X191014779Y-81419144D01*
G37*
D11*
X190754000Y-81943000D03*
G04 #@! TD*
D10*
G04 #@! TO.C,C4*
G36*
X191141779Y-64909144D02*
X191164834Y-64912563D01*
X191187443Y-64918227D01*
X191209387Y-64926079D01*
X191230457Y-64936044D01*
X191250448Y-64948026D01*
X191269168Y-64961910D01*
X191286438Y-64977562D01*
X191302090Y-64994832D01*
X191315974Y-65013552D01*
X191327956Y-65033543D01*
X191337921Y-65054613D01*
X191345773Y-65076557D01*
X191351437Y-65099166D01*
X191354856Y-65122221D01*
X191356000Y-65145500D01*
X191356000Y-65720500D01*
X191354856Y-65743779D01*
X191351437Y-65766834D01*
X191345773Y-65789443D01*
X191337921Y-65811387D01*
X191327956Y-65832457D01*
X191315974Y-65852448D01*
X191302090Y-65871168D01*
X191286438Y-65888438D01*
X191269168Y-65904090D01*
X191250448Y-65917974D01*
X191230457Y-65929956D01*
X191209387Y-65939921D01*
X191187443Y-65947773D01*
X191164834Y-65953437D01*
X191141779Y-65956856D01*
X191118500Y-65958000D01*
X190643500Y-65958000D01*
X190620221Y-65956856D01*
X190597166Y-65953437D01*
X190574557Y-65947773D01*
X190552613Y-65939921D01*
X190531543Y-65929956D01*
X190511552Y-65917974D01*
X190492832Y-65904090D01*
X190475562Y-65888438D01*
X190459910Y-65871168D01*
X190446026Y-65852448D01*
X190434044Y-65832457D01*
X190424079Y-65811387D01*
X190416227Y-65789443D01*
X190410563Y-65766834D01*
X190407144Y-65743779D01*
X190406000Y-65720500D01*
X190406000Y-65145500D01*
X190407144Y-65122221D01*
X190410563Y-65099166D01*
X190416227Y-65076557D01*
X190424079Y-65054613D01*
X190434044Y-65033543D01*
X190446026Y-65013552D01*
X190459910Y-64994832D01*
X190475562Y-64977562D01*
X190492832Y-64961910D01*
X190511552Y-64948026D01*
X190531543Y-64936044D01*
X190552613Y-64926079D01*
X190574557Y-64918227D01*
X190597166Y-64912563D01*
X190620221Y-64909144D01*
X190643500Y-64908000D01*
X191118500Y-64908000D01*
X191141779Y-64909144D01*
X191141779Y-64909144D01*
G37*
D11*
X190881000Y-65433000D03*
D10*
G36*
X191141779Y-66659144D02*
X191164834Y-66662563D01*
X191187443Y-66668227D01*
X191209387Y-66676079D01*
X191230457Y-66686044D01*
X191250448Y-66698026D01*
X191269168Y-66711910D01*
X191286438Y-66727562D01*
X191302090Y-66744832D01*
X191315974Y-66763552D01*
X191327956Y-66783543D01*
X191337921Y-66804613D01*
X191345773Y-66826557D01*
X191351437Y-66849166D01*
X191354856Y-66872221D01*
X191356000Y-66895500D01*
X191356000Y-67470500D01*
X191354856Y-67493779D01*
X191351437Y-67516834D01*
X191345773Y-67539443D01*
X191337921Y-67561387D01*
X191327956Y-67582457D01*
X191315974Y-67602448D01*
X191302090Y-67621168D01*
X191286438Y-67638438D01*
X191269168Y-67654090D01*
X191250448Y-67667974D01*
X191230457Y-67679956D01*
X191209387Y-67689921D01*
X191187443Y-67697773D01*
X191164834Y-67703437D01*
X191141779Y-67706856D01*
X191118500Y-67708000D01*
X190643500Y-67708000D01*
X190620221Y-67706856D01*
X190597166Y-67703437D01*
X190574557Y-67697773D01*
X190552613Y-67689921D01*
X190531543Y-67679956D01*
X190511552Y-67667974D01*
X190492832Y-67654090D01*
X190475562Y-67638438D01*
X190459910Y-67621168D01*
X190446026Y-67602448D01*
X190434044Y-67582457D01*
X190424079Y-67561387D01*
X190416227Y-67539443D01*
X190410563Y-67516834D01*
X190407144Y-67493779D01*
X190406000Y-67470500D01*
X190406000Y-66895500D01*
X190407144Y-66872221D01*
X190410563Y-66849166D01*
X190416227Y-66826557D01*
X190424079Y-66804613D01*
X190434044Y-66783543D01*
X190446026Y-66763552D01*
X190459910Y-66744832D01*
X190475562Y-66727562D01*
X190492832Y-66711910D01*
X190511552Y-66698026D01*
X190531543Y-66686044D01*
X190552613Y-66676079D01*
X190574557Y-66668227D01*
X190597166Y-66662563D01*
X190620221Y-66659144D01*
X190643500Y-66658000D01*
X191118500Y-66658000D01*
X191141779Y-66659144D01*
X191141779Y-66659144D01*
G37*
D11*
X190881000Y-67183000D03*
G04 #@! TD*
D10*
G04 #@! TO.C,D3*
G36*
X182809074Y-83296144D02*
X182832129Y-83299563D01*
X182854738Y-83305227D01*
X182876682Y-83313079D01*
X182897752Y-83323044D01*
X182917743Y-83335026D01*
X182936463Y-83348910D01*
X182953733Y-83364562D01*
X182969385Y-83381832D01*
X182983269Y-83400552D01*
X182995251Y-83420543D01*
X183005216Y-83441613D01*
X183013068Y-83463557D01*
X183018732Y-83486166D01*
X183022151Y-83509221D01*
X183023295Y-83532500D01*
X183023295Y-84107500D01*
X183022151Y-84130779D01*
X183018732Y-84153834D01*
X183013068Y-84176443D01*
X183005216Y-84198387D01*
X182995251Y-84219457D01*
X182983269Y-84239448D01*
X182969385Y-84258168D01*
X182953733Y-84275438D01*
X182936463Y-84291090D01*
X182917743Y-84304974D01*
X182897752Y-84316956D01*
X182876682Y-84326921D01*
X182854738Y-84334773D01*
X182832129Y-84340437D01*
X182809074Y-84343856D01*
X182785795Y-84345000D01*
X182310795Y-84345000D01*
X182287516Y-84343856D01*
X182264461Y-84340437D01*
X182241852Y-84334773D01*
X182219908Y-84326921D01*
X182198838Y-84316956D01*
X182178847Y-84304974D01*
X182160127Y-84291090D01*
X182142857Y-84275438D01*
X182127205Y-84258168D01*
X182113321Y-84239448D01*
X182101339Y-84219457D01*
X182091374Y-84198387D01*
X182083522Y-84176443D01*
X182077858Y-84153834D01*
X182074439Y-84130779D01*
X182073295Y-84107500D01*
X182073295Y-83532500D01*
X182074439Y-83509221D01*
X182077858Y-83486166D01*
X182083522Y-83463557D01*
X182091374Y-83441613D01*
X182101339Y-83420543D01*
X182113321Y-83400552D01*
X182127205Y-83381832D01*
X182142857Y-83364562D01*
X182160127Y-83348910D01*
X182178847Y-83335026D01*
X182198838Y-83323044D01*
X182219908Y-83313079D01*
X182241852Y-83305227D01*
X182264461Y-83299563D01*
X182287516Y-83296144D01*
X182310795Y-83295000D01*
X182785795Y-83295000D01*
X182809074Y-83296144D01*
X182809074Y-83296144D01*
G37*
D11*
X182548295Y-83820000D03*
D10*
G36*
X182809074Y-81546144D02*
X182832129Y-81549563D01*
X182854738Y-81555227D01*
X182876682Y-81563079D01*
X182897752Y-81573044D01*
X182917743Y-81585026D01*
X182936463Y-81598910D01*
X182953733Y-81614562D01*
X182969385Y-81631832D01*
X182983269Y-81650552D01*
X182995251Y-81670543D01*
X183005216Y-81691613D01*
X183013068Y-81713557D01*
X183018732Y-81736166D01*
X183022151Y-81759221D01*
X183023295Y-81782500D01*
X183023295Y-82357500D01*
X183022151Y-82380779D01*
X183018732Y-82403834D01*
X183013068Y-82426443D01*
X183005216Y-82448387D01*
X182995251Y-82469457D01*
X182983269Y-82489448D01*
X182969385Y-82508168D01*
X182953733Y-82525438D01*
X182936463Y-82541090D01*
X182917743Y-82554974D01*
X182897752Y-82566956D01*
X182876682Y-82576921D01*
X182854738Y-82584773D01*
X182832129Y-82590437D01*
X182809074Y-82593856D01*
X182785795Y-82595000D01*
X182310795Y-82595000D01*
X182287516Y-82593856D01*
X182264461Y-82590437D01*
X182241852Y-82584773D01*
X182219908Y-82576921D01*
X182198838Y-82566956D01*
X182178847Y-82554974D01*
X182160127Y-82541090D01*
X182142857Y-82525438D01*
X182127205Y-82508168D01*
X182113321Y-82489448D01*
X182101339Y-82469457D01*
X182091374Y-82448387D01*
X182083522Y-82426443D01*
X182077858Y-82403834D01*
X182074439Y-82380779D01*
X182073295Y-82357500D01*
X182073295Y-81782500D01*
X182074439Y-81759221D01*
X182077858Y-81736166D01*
X182083522Y-81713557D01*
X182091374Y-81691613D01*
X182101339Y-81670543D01*
X182113321Y-81650552D01*
X182127205Y-81631832D01*
X182142857Y-81614562D01*
X182160127Y-81598910D01*
X182178847Y-81585026D01*
X182198838Y-81573044D01*
X182219908Y-81563079D01*
X182241852Y-81555227D01*
X182264461Y-81549563D01*
X182287516Y-81546144D01*
X182310795Y-81545000D01*
X182785795Y-81545000D01*
X182809074Y-81546144D01*
X182809074Y-81546144D01*
G37*
D11*
X182548295Y-82070000D03*
G04 #@! TD*
D10*
G04 #@! TO.C,D4*
G36*
X185147379Y-83296144D02*
X185170434Y-83299563D01*
X185193043Y-83305227D01*
X185214987Y-83313079D01*
X185236057Y-83323044D01*
X185256048Y-83335026D01*
X185274768Y-83348910D01*
X185292038Y-83364562D01*
X185307690Y-83381832D01*
X185321574Y-83400552D01*
X185333556Y-83420543D01*
X185343521Y-83441613D01*
X185351373Y-83463557D01*
X185357037Y-83486166D01*
X185360456Y-83509221D01*
X185361600Y-83532500D01*
X185361600Y-84107500D01*
X185360456Y-84130779D01*
X185357037Y-84153834D01*
X185351373Y-84176443D01*
X185343521Y-84198387D01*
X185333556Y-84219457D01*
X185321574Y-84239448D01*
X185307690Y-84258168D01*
X185292038Y-84275438D01*
X185274768Y-84291090D01*
X185256048Y-84304974D01*
X185236057Y-84316956D01*
X185214987Y-84326921D01*
X185193043Y-84334773D01*
X185170434Y-84340437D01*
X185147379Y-84343856D01*
X185124100Y-84345000D01*
X184649100Y-84345000D01*
X184625821Y-84343856D01*
X184602766Y-84340437D01*
X184580157Y-84334773D01*
X184558213Y-84326921D01*
X184537143Y-84316956D01*
X184517152Y-84304974D01*
X184498432Y-84291090D01*
X184481162Y-84275438D01*
X184465510Y-84258168D01*
X184451626Y-84239448D01*
X184439644Y-84219457D01*
X184429679Y-84198387D01*
X184421827Y-84176443D01*
X184416163Y-84153834D01*
X184412744Y-84130779D01*
X184411600Y-84107500D01*
X184411600Y-83532500D01*
X184412744Y-83509221D01*
X184416163Y-83486166D01*
X184421827Y-83463557D01*
X184429679Y-83441613D01*
X184439644Y-83420543D01*
X184451626Y-83400552D01*
X184465510Y-83381832D01*
X184481162Y-83364562D01*
X184498432Y-83348910D01*
X184517152Y-83335026D01*
X184537143Y-83323044D01*
X184558213Y-83313079D01*
X184580157Y-83305227D01*
X184602766Y-83299563D01*
X184625821Y-83296144D01*
X184649100Y-83295000D01*
X185124100Y-83295000D01*
X185147379Y-83296144D01*
X185147379Y-83296144D01*
G37*
D11*
X184886600Y-83820000D03*
D10*
G36*
X185147379Y-81546144D02*
X185170434Y-81549563D01*
X185193043Y-81555227D01*
X185214987Y-81563079D01*
X185236057Y-81573044D01*
X185256048Y-81585026D01*
X185274768Y-81598910D01*
X185292038Y-81614562D01*
X185307690Y-81631832D01*
X185321574Y-81650552D01*
X185333556Y-81670543D01*
X185343521Y-81691613D01*
X185351373Y-81713557D01*
X185357037Y-81736166D01*
X185360456Y-81759221D01*
X185361600Y-81782500D01*
X185361600Y-82357500D01*
X185360456Y-82380779D01*
X185357037Y-82403834D01*
X185351373Y-82426443D01*
X185343521Y-82448387D01*
X185333556Y-82469457D01*
X185321574Y-82489448D01*
X185307690Y-82508168D01*
X185292038Y-82525438D01*
X185274768Y-82541090D01*
X185256048Y-82554974D01*
X185236057Y-82566956D01*
X185214987Y-82576921D01*
X185193043Y-82584773D01*
X185170434Y-82590437D01*
X185147379Y-82593856D01*
X185124100Y-82595000D01*
X184649100Y-82595000D01*
X184625821Y-82593856D01*
X184602766Y-82590437D01*
X184580157Y-82584773D01*
X184558213Y-82576921D01*
X184537143Y-82566956D01*
X184517152Y-82554974D01*
X184498432Y-82541090D01*
X184481162Y-82525438D01*
X184465510Y-82508168D01*
X184451626Y-82489448D01*
X184439644Y-82469457D01*
X184429679Y-82448387D01*
X184421827Y-82426443D01*
X184416163Y-82403834D01*
X184412744Y-82380779D01*
X184411600Y-82357500D01*
X184411600Y-81782500D01*
X184412744Y-81759221D01*
X184416163Y-81736166D01*
X184421827Y-81713557D01*
X184429679Y-81691613D01*
X184439644Y-81670543D01*
X184451626Y-81650552D01*
X184465510Y-81631832D01*
X184481162Y-81614562D01*
X184498432Y-81598910D01*
X184517152Y-81585026D01*
X184537143Y-81573044D01*
X184558213Y-81563079D01*
X184580157Y-81555227D01*
X184602766Y-81549563D01*
X184625821Y-81546144D01*
X184649100Y-81545000D01*
X185124100Y-81545000D01*
X185147379Y-81546144D01*
X185147379Y-81546144D01*
G37*
D11*
X184886600Y-82070000D03*
G04 #@! TD*
D10*
G04 #@! TO.C,D5*
G36*
X152456779Y-76361144D02*
X152479834Y-76364563D01*
X152502443Y-76370227D01*
X152524387Y-76378079D01*
X152545457Y-76388044D01*
X152565448Y-76400026D01*
X152584168Y-76413910D01*
X152601438Y-76429562D01*
X152617090Y-76446832D01*
X152630974Y-76465552D01*
X152642956Y-76485543D01*
X152652921Y-76506613D01*
X152660773Y-76528557D01*
X152666437Y-76551166D01*
X152669856Y-76574221D01*
X152671000Y-76597500D01*
X152671000Y-77072500D01*
X152669856Y-77095779D01*
X152666437Y-77118834D01*
X152660773Y-77141443D01*
X152652921Y-77163387D01*
X152642956Y-77184457D01*
X152630974Y-77204448D01*
X152617090Y-77223168D01*
X152601438Y-77240438D01*
X152584168Y-77256090D01*
X152565448Y-77269974D01*
X152545457Y-77281956D01*
X152524387Y-77291921D01*
X152502443Y-77299773D01*
X152479834Y-77305437D01*
X152456779Y-77308856D01*
X152433500Y-77310000D01*
X151858500Y-77310000D01*
X151835221Y-77308856D01*
X151812166Y-77305437D01*
X151789557Y-77299773D01*
X151767613Y-77291921D01*
X151746543Y-77281956D01*
X151726552Y-77269974D01*
X151707832Y-77256090D01*
X151690562Y-77240438D01*
X151674910Y-77223168D01*
X151661026Y-77204448D01*
X151649044Y-77184457D01*
X151639079Y-77163387D01*
X151631227Y-77141443D01*
X151625563Y-77118834D01*
X151622144Y-77095779D01*
X151621000Y-77072500D01*
X151621000Y-76597500D01*
X151622144Y-76574221D01*
X151625563Y-76551166D01*
X151631227Y-76528557D01*
X151639079Y-76506613D01*
X151649044Y-76485543D01*
X151661026Y-76465552D01*
X151674910Y-76446832D01*
X151690562Y-76429562D01*
X151707832Y-76413910D01*
X151726552Y-76400026D01*
X151746543Y-76388044D01*
X151767613Y-76378079D01*
X151789557Y-76370227D01*
X151812166Y-76364563D01*
X151835221Y-76361144D01*
X151858500Y-76360000D01*
X152433500Y-76360000D01*
X152456779Y-76361144D01*
X152456779Y-76361144D01*
G37*
D11*
X152146000Y-76835000D03*
D10*
G36*
X154206779Y-76361144D02*
X154229834Y-76364563D01*
X154252443Y-76370227D01*
X154274387Y-76378079D01*
X154295457Y-76388044D01*
X154315448Y-76400026D01*
X154334168Y-76413910D01*
X154351438Y-76429562D01*
X154367090Y-76446832D01*
X154380974Y-76465552D01*
X154392956Y-76485543D01*
X154402921Y-76506613D01*
X154410773Y-76528557D01*
X154416437Y-76551166D01*
X154419856Y-76574221D01*
X154421000Y-76597500D01*
X154421000Y-77072500D01*
X154419856Y-77095779D01*
X154416437Y-77118834D01*
X154410773Y-77141443D01*
X154402921Y-77163387D01*
X154392956Y-77184457D01*
X154380974Y-77204448D01*
X154367090Y-77223168D01*
X154351438Y-77240438D01*
X154334168Y-77256090D01*
X154315448Y-77269974D01*
X154295457Y-77281956D01*
X154274387Y-77291921D01*
X154252443Y-77299773D01*
X154229834Y-77305437D01*
X154206779Y-77308856D01*
X154183500Y-77310000D01*
X153608500Y-77310000D01*
X153585221Y-77308856D01*
X153562166Y-77305437D01*
X153539557Y-77299773D01*
X153517613Y-77291921D01*
X153496543Y-77281956D01*
X153476552Y-77269974D01*
X153457832Y-77256090D01*
X153440562Y-77240438D01*
X153424910Y-77223168D01*
X153411026Y-77204448D01*
X153399044Y-77184457D01*
X153389079Y-77163387D01*
X153381227Y-77141443D01*
X153375563Y-77118834D01*
X153372144Y-77095779D01*
X153371000Y-77072500D01*
X153371000Y-76597500D01*
X153372144Y-76574221D01*
X153375563Y-76551166D01*
X153381227Y-76528557D01*
X153389079Y-76506613D01*
X153399044Y-76485543D01*
X153411026Y-76465552D01*
X153424910Y-76446832D01*
X153440562Y-76429562D01*
X153457832Y-76413910D01*
X153476552Y-76400026D01*
X153496543Y-76388044D01*
X153517613Y-76378079D01*
X153539557Y-76370227D01*
X153562166Y-76364563D01*
X153585221Y-76361144D01*
X153608500Y-76360000D01*
X154183500Y-76360000D01*
X154206779Y-76361144D01*
X154206779Y-76361144D01*
G37*
D11*
X153896000Y-76835000D03*
G04 #@! TD*
D10*
G04 #@! TO.C,D6*
G36*
X154220779Y-82203144D02*
X154243834Y-82206563D01*
X154266443Y-82212227D01*
X154288387Y-82220079D01*
X154309457Y-82230044D01*
X154329448Y-82242026D01*
X154348168Y-82255910D01*
X154365438Y-82271562D01*
X154381090Y-82288832D01*
X154394974Y-82307552D01*
X154406956Y-82327543D01*
X154416921Y-82348613D01*
X154424773Y-82370557D01*
X154430437Y-82393166D01*
X154433856Y-82416221D01*
X154435000Y-82439500D01*
X154435000Y-82914500D01*
X154433856Y-82937779D01*
X154430437Y-82960834D01*
X154424773Y-82983443D01*
X154416921Y-83005387D01*
X154406956Y-83026457D01*
X154394974Y-83046448D01*
X154381090Y-83065168D01*
X154365438Y-83082438D01*
X154348168Y-83098090D01*
X154329448Y-83111974D01*
X154309457Y-83123956D01*
X154288387Y-83133921D01*
X154266443Y-83141773D01*
X154243834Y-83147437D01*
X154220779Y-83150856D01*
X154197500Y-83152000D01*
X153622500Y-83152000D01*
X153599221Y-83150856D01*
X153576166Y-83147437D01*
X153553557Y-83141773D01*
X153531613Y-83133921D01*
X153510543Y-83123956D01*
X153490552Y-83111974D01*
X153471832Y-83098090D01*
X153454562Y-83082438D01*
X153438910Y-83065168D01*
X153425026Y-83046448D01*
X153413044Y-83026457D01*
X153403079Y-83005387D01*
X153395227Y-82983443D01*
X153389563Y-82960834D01*
X153386144Y-82937779D01*
X153385000Y-82914500D01*
X153385000Y-82439500D01*
X153386144Y-82416221D01*
X153389563Y-82393166D01*
X153395227Y-82370557D01*
X153403079Y-82348613D01*
X153413044Y-82327543D01*
X153425026Y-82307552D01*
X153438910Y-82288832D01*
X153454562Y-82271562D01*
X153471832Y-82255910D01*
X153490552Y-82242026D01*
X153510543Y-82230044D01*
X153531613Y-82220079D01*
X153553557Y-82212227D01*
X153576166Y-82206563D01*
X153599221Y-82203144D01*
X153622500Y-82202000D01*
X154197500Y-82202000D01*
X154220779Y-82203144D01*
X154220779Y-82203144D01*
G37*
D11*
X153910000Y-82677000D03*
D10*
G36*
X152470779Y-82203144D02*
X152493834Y-82206563D01*
X152516443Y-82212227D01*
X152538387Y-82220079D01*
X152559457Y-82230044D01*
X152579448Y-82242026D01*
X152598168Y-82255910D01*
X152615438Y-82271562D01*
X152631090Y-82288832D01*
X152644974Y-82307552D01*
X152656956Y-82327543D01*
X152666921Y-82348613D01*
X152674773Y-82370557D01*
X152680437Y-82393166D01*
X152683856Y-82416221D01*
X152685000Y-82439500D01*
X152685000Y-82914500D01*
X152683856Y-82937779D01*
X152680437Y-82960834D01*
X152674773Y-82983443D01*
X152666921Y-83005387D01*
X152656956Y-83026457D01*
X152644974Y-83046448D01*
X152631090Y-83065168D01*
X152615438Y-83082438D01*
X152598168Y-83098090D01*
X152579448Y-83111974D01*
X152559457Y-83123956D01*
X152538387Y-83133921D01*
X152516443Y-83141773D01*
X152493834Y-83147437D01*
X152470779Y-83150856D01*
X152447500Y-83152000D01*
X151872500Y-83152000D01*
X151849221Y-83150856D01*
X151826166Y-83147437D01*
X151803557Y-83141773D01*
X151781613Y-83133921D01*
X151760543Y-83123956D01*
X151740552Y-83111974D01*
X151721832Y-83098090D01*
X151704562Y-83082438D01*
X151688910Y-83065168D01*
X151675026Y-83046448D01*
X151663044Y-83026457D01*
X151653079Y-83005387D01*
X151645227Y-82983443D01*
X151639563Y-82960834D01*
X151636144Y-82937779D01*
X151635000Y-82914500D01*
X151635000Y-82439500D01*
X151636144Y-82416221D01*
X151639563Y-82393166D01*
X151645227Y-82370557D01*
X151653079Y-82348613D01*
X151663044Y-82327543D01*
X151675026Y-82307552D01*
X151688910Y-82288832D01*
X151704562Y-82271562D01*
X151721832Y-82255910D01*
X151740552Y-82242026D01*
X151760543Y-82230044D01*
X151781613Y-82220079D01*
X151803557Y-82212227D01*
X151826166Y-82206563D01*
X151849221Y-82203144D01*
X151872500Y-82202000D01*
X152447500Y-82202000D01*
X152470779Y-82203144D01*
X152470779Y-82203144D01*
G37*
D11*
X152160000Y-82677000D03*
G04 #@! TD*
D10*
G04 #@! TO.C,D7*
G36*
X154234779Y-79282144D02*
X154257834Y-79285563D01*
X154280443Y-79291227D01*
X154302387Y-79299079D01*
X154323457Y-79309044D01*
X154343448Y-79321026D01*
X154362168Y-79334910D01*
X154379438Y-79350562D01*
X154395090Y-79367832D01*
X154408974Y-79386552D01*
X154420956Y-79406543D01*
X154430921Y-79427613D01*
X154438773Y-79449557D01*
X154444437Y-79472166D01*
X154447856Y-79495221D01*
X154449000Y-79518500D01*
X154449000Y-79993500D01*
X154447856Y-80016779D01*
X154444437Y-80039834D01*
X154438773Y-80062443D01*
X154430921Y-80084387D01*
X154420956Y-80105457D01*
X154408974Y-80125448D01*
X154395090Y-80144168D01*
X154379438Y-80161438D01*
X154362168Y-80177090D01*
X154343448Y-80190974D01*
X154323457Y-80202956D01*
X154302387Y-80212921D01*
X154280443Y-80220773D01*
X154257834Y-80226437D01*
X154234779Y-80229856D01*
X154211500Y-80231000D01*
X153636500Y-80231000D01*
X153613221Y-80229856D01*
X153590166Y-80226437D01*
X153567557Y-80220773D01*
X153545613Y-80212921D01*
X153524543Y-80202956D01*
X153504552Y-80190974D01*
X153485832Y-80177090D01*
X153468562Y-80161438D01*
X153452910Y-80144168D01*
X153439026Y-80125448D01*
X153427044Y-80105457D01*
X153417079Y-80084387D01*
X153409227Y-80062443D01*
X153403563Y-80039834D01*
X153400144Y-80016779D01*
X153399000Y-79993500D01*
X153399000Y-79518500D01*
X153400144Y-79495221D01*
X153403563Y-79472166D01*
X153409227Y-79449557D01*
X153417079Y-79427613D01*
X153427044Y-79406543D01*
X153439026Y-79386552D01*
X153452910Y-79367832D01*
X153468562Y-79350562D01*
X153485832Y-79334910D01*
X153504552Y-79321026D01*
X153524543Y-79309044D01*
X153545613Y-79299079D01*
X153567557Y-79291227D01*
X153590166Y-79285563D01*
X153613221Y-79282144D01*
X153636500Y-79281000D01*
X154211500Y-79281000D01*
X154234779Y-79282144D01*
X154234779Y-79282144D01*
G37*
D11*
X153924000Y-79756000D03*
D10*
G36*
X152484779Y-79282144D02*
X152507834Y-79285563D01*
X152530443Y-79291227D01*
X152552387Y-79299079D01*
X152573457Y-79309044D01*
X152593448Y-79321026D01*
X152612168Y-79334910D01*
X152629438Y-79350562D01*
X152645090Y-79367832D01*
X152658974Y-79386552D01*
X152670956Y-79406543D01*
X152680921Y-79427613D01*
X152688773Y-79449557D01*
X152694437Y-79472166D01*
X152697856Y-79495221D01*
X152699000Y-79518500D01*
X152699000Y-79993500D01*
X152697856Y-80016779D01*
X152694437Y-80039834D01*
X152688773Y-80062443D01*
X152680921Y-80084387D01*
X152670956Y-80105457D01*
X152658974Y-80125448D01*
X152645090Y-80144168D01*
X152629438Y-80161438D01*
X152612168Y-80177090D01*
X152593448Y-80190974D01*
X152573457Y-80202956D01*
X152552387Y-80212921D01*
X152530443Y-80220773D01*
X152507834Y-80226437D01*
X152484779Y-80229856D01*
X152461500Y-80231000D01*
X151886500Y-80231000D01*
X151863221Y-80229856D01*
X151840166Y-80226437D01*
X151817557Y-80220773D01*
X151795613Y-80212921D01*
X151774543Y-80202956D01*
X151754552Y-80190974D01*
X151735832Y-80177090D01*
X151718562Y-80161438D01*
X151702910Y-80144168D01*
X151689026Y-80125448D01*
X151677044Y-80105457D01*
X151667079Y-80084387D01*
X151659227Y-80062443D01*
X151653563Y-80039834D01*
X151650144Y-80016779D01*
X151649000Y-79993500D01*
X151649000Y-79518500D01*
X151650144Y-79495221D01*
X151653563Y-79472166D01*
X151659227Y-79449557D01*
X151667079Y-79427613D01*
X151677044Y-79406543D01*
X151689026Y-79386552D01*
X151702910Y-79367832D01*
X151718562Y-79350562D01*
X151735832Y-79334910D01*
X151754552Y-79321026D01*
X151774543Y-79309044D01*
X151795613Y-79299079D01*
X151817557Y-79291227D01*
X151840166Y-79285563D01*
X151863221Y-79282144D01*
X151886500Y-79281000D01*
X152461500Y-79281000D01*
X152484779Y-79282144D01*
X152484779Y-79282144D01*
G37*
D11*
X152174000Y-79756000D03*
G04 #@! TD*
D10*
G04 #@! TO.C,D8*
G36*
X152583779Y-85124144D02*
X152606834Y-85127563D01*
X152629443Y-85133227D01*
X152651387Y-85141079D01*
X152672457Y-85151044D01*
X152692448Y-85163026D01*
X152711168Y-85176910D01*
X152728438Y-85192562D01*
X152744090Y-85209832D01*
X152757974Y-85228552D01*
X152769956Y-85248543D01*
X152779921Y-85269613D01*
X152787773Y-85291557D01*
X152793437Y-85314166D01*
X152796856Y-85337221D01*
X152798000Y-85360500D01*
X152798000Y-85835500D01*
X152796856Y-85858779D01*
X152793437Y-85881834D01*
X152787773Y-85904443D01*
X152779921Y-85926387D01*
X152769956Y-85947457D01*
X152757974Y-85967448D01*
X152744090Y-85986168D01*
X152728438Y-86003438D01*
X152711168Y-86019090D01*
X152692448Y-86032974D01*
X152672457Y-86044956D01*
X152651387Y-86054921D01*
X152629443Y-86062773D01*
X152606834Y-86068437D01*
X152583779Y-86071856D01*
X152560500Y-86073000D01*
X151985500Y-86073000D01*
X151962221Y-86071856D01*
X151939166Y-86068437D01*
X151916557Y-86062773D01*
X151894613Y-86054921D01*
X151873543Y-86044956D01*
X151853552Y-86032974D01*
X151834832Y-86019090D01*
X151817562Y-86003438D01*
X151801910Y-85986168D01*
X151788026Y-85967448D01*
X151776044Y-85947457D01*
X151766079Y-85926387D01*
X151758227Y-85904443D01*
X151752563Y-85881834D01*
X151749144Y-85858779D01*
X151748000Y-85835500D01*
X151748000Y-85360500D01*
X151749144Y-85337221D01*
X151752563Y-85314166D01*
X151758227Y-85291557D01*
X151766079Y-85269613D01*
X151776044Y-85248543D01*
X151788026Y-85228552D01*
X151801910Y-85209832D01*
X151817562Y-85192562D01*
X151834832Y-85176910D01*
X151853552Y-85163026D01*
X151873543Y-85151044D01*
X151894613Y-85141079D01*
X151916557Y-85133227D01*
X151939166Y-85127563D01*
X151962221Y-85124144D01*
X151985500Y-85123000D01*
X152560500Y-85123000D01*
X152583779Y-85124144D01*
X152583779Y-85124144D01*
G37*
D11*
X152273000Y-85598000D03*
D10*
G36*
X154333779Y-85124144D02*
X154356834Y-85127563D01*
X154379443Y-85133227D01*
X154401387Y-85141079D01*
X154422457Y-85151044D01*
X154442448Y-85163026D01*
X154461168Y-85176910D01*
X154478438Y-85192562D01*
X154494090Y-85209832D01*
X154507974Y-85228552D01*
X154519956Y-85248543D01*
X154529921Y-85269613D01*
X154537773Y-85291557D01*
X154543437Y-85314166D01*
X154546856Y-85337221D01*
X154548000Y-85360500D01*
X154548000Y-85835500D01*
X154546856Y-85858779D01*
X154543437Y-85881834D01*
X154537773Y-85904443D01*
X154529921Y-85926387D01*
X154519956Y-85947457D01*
X154507974Y-85967448D01*
X154494090Y-85986168D01*
X154478438Y-86003438D01*
X154461168Y-86019090D01*
X154442448Y-86032974D01*
X154422457Y-86044956D01*
X154401387Y-86054921D01*
X154379443Y-86062773D01*
X154356834Y-86068437D01*
X154333779Y-86071856D01*
X154310500Y-86073000D01*
X153735500Y-86073000D01*
X153712221Y-86071856D01*
X153689166Y-86068437D01*
X153666557Y-86062773D01*
X153644613Y-86054921D01*
X153623543Y-86044956D01*
X153603552Y-86032974D01*
X153584832Y-86019090D01*
X153567562Y-86003438D01*
X153551910Y-85986168D01*
X153538026Y-85967448D01*
X153526044Y-85947457D01*
X153516079Y-85926387D01*
X153508227Y-85904443D01*
X153502563Y-85881834D01*
X153499144Y-85858779D01*
X153498000Y-85835500D01*
X153498000Y-85360500D01*
X153499144Y-85337221D01*
X153502563Y-85314166D01*
X153508227Y-85291557D01*
X153516079Y-85269613D01*
X153526044Y-85248543D01*
X153538026Y-85228552D01*
X153551910Y-85209832D01*
X153567562Y-85192562D01*
X153584832Y-85176910D01*
X153603552Y-85163026D01*
X153623543Y-85151044D01*
X153644613Y-85141079D01*
X153666557Y-85133227D01*
X153689166Y-85127563D01*
X153712221Y-85124144D01*
X153735500Y-85123000D01*
X154310500Y-85123000D01*
X154333779Y-85124144D01*
X154333779Y-85124144D01*
G37*
D11*
X154023000Y-85598000D03*
G04 #@! TD*
D10*
G04 #@! TO.C,D9*
G36*
X163773779Y-76234144D02*
X163796834Y-76237563D01*
X163819443Y-76243227D01*
X163841387Y-76251079D01*
X163862457Y-76261044D01*
X163882448Y-76273026D01*
X163901168Y-76286910D01*
X163918438Y-76302562D01*
X163934090Y-76319832D01*
X163947974Y-76338552D01*
X163959956Y-76358543D01*
X163969921Y-76379613D01*
X163977773Y-76401557D01*
X163983437Y-76424166D01*
X163986856Y-76447221D01*
X163988000Y-76470500D01*
X163988000Y-76945500D01*
X163986856Y-76968779D01*
X163983437Y-76991834D01*
X163977773Y-77014443D01*
X163969921Y-77036387D01*
X163959956Y-77057457D01*
X163947974Y-77077448D01*
X163934090Y-77096168D01*
X163918438Y-77113438D01*
X163901168Y-77129090D01*
X163882448Y-77142974D01*
X163862457Y-77154956D01*
X163841387Y-77164921D01*
X163819443Y-77172773D01*
X163796834Y-77178437D01*
X163773779Y-77181856D01*
X163750500Y-77183000D01*
X163175500Y-77183000D01*
X163152221Y-77181856D01*
X163129166Y-77178437D01*
X163106557Y-77172773D01*
X163084613Y-77164921D01*
X163063543Y-77154956D01*
X163043552Y-77142974D01*
X163024832Y-77129090D01*
X163007562Y-77113438D01*
X162991910Y-77096168D01*
X162978026Y-77077448D01*
X162966044Y-77057457D01*
X162956079Y-77036387D01*
X162948227Y-77014443D01*
X162942563Y-76991834D01*
X162939144Y-76968779D01*
X162938000Y-76945500D01*
X162938000Y-76470500D01*
X162939144Y-76447221D01*
X162942563Y-76424166D01*
X162948227Y-76401557D01*
X162956079Y-76379613D01*
X162966044Y-76358543D01*
X162978026Y-76338552D01*
X162991910Y-76319832D01*
X163007562Y-76302562D01*
X163024832Y-76286910D01*
X163043552Y-76273026D01*
X163063543Y-76261044D01*
X163084613Y-76251079D01*
X163106557Y-76243227D01*
X163129166Y-76237563D01*
X163152221Y-76234144D01*
X163175500Y-76233000D01*
X163750500Y-76233000D01*
X163773779Y-76234144D01*
X163773779Y-76234144D01*
G37*
D11*
X163463000Y-76708000D03*
D10*
G36*
X165523779Y-76234144D02*
X165546834Y-76237563D01*
X165569443Y-76243227D01*
X165591387Y-76251079D01*
X165612457Y-76261044D01*
X165632448Y-76273026D01*
X165651168Y-76286910D01*
X165668438Y-76302562D01*
X165684090Y-76319832D01*
X165697974Y-76338552D01*
X165709956Y-76358543D01*
X165719921Y-76379613D01*
X165727773Y-76401557D01*
X165733437Y-76424166D01*
X165736856Y-76447221D01*
X165738000Y-76470500D01*
X165738000Y-76945500D01*
X165736856Y-76968779D01*
X165733437Y-76991834D01*
X165727773Y-77014443D01*
X165719921Y-77036387D01*
X165709956Y-77057457D01*
X165697974Y-77077448D01*
X165684090Y-77096168D01*
X165668438Y-77113438D01*
X165651168Y-77129090D01*
X165632448Y-77142974D01*
X165612457Y-77154956D01*
X165591387Y-77164921D01*
X165569443Y-77172773D01*
X165546834Y-77178437D01*
X165523779Y-77181856D01*
X165500500Y-77183000D01*
X164925500Y-77183000D01*
X164902221Y-77181856D01*
X164879166Y-77178437D01*
X164856557Y-77172773D01*
X164834613Y-77164921D01*
X164813543Y-77154956D01*
X164793552Y-77142974D01*
X164774832Y-77129090D01*
X164757562Y-77113438D01*
X164741910Y-77096168D01*
X164728026Y-77077448D01*
X164716044Y-77057457D01*
X164706079Y-77036387D01*
X164698227Y-77014443D01*
X164692563Y-76991834D01*
X164689144Y-76968779D01*
X164688000Y-76945500D01*
X164688000Y-76470500D01*
X164689144Y-76447221D01*
X164692563Y-76424166D01*
X164698227Y-76401557D01*
X164706079Y-76379613D01*
X164716044Y-76358543D01*
X164728026Y-76338552D01*
X164741910Y-76319832D01*
X164757562Y-76302562D01*
X164774832Y-76286910D01*
X164793552Y-76273026D01*
X164813543Y-76261044D01*
X164834613Y-76251079D01*
X164856557Y-76243227D01*
X164879166Y-76237563D01*
X164902221Y-76234144D01*
X164925500Y-76233000D01*
X165500500Y-76233000D01*
X165523779Y-76234144D01*
X165523779Y-76234144D01*
G37*
D11*
X165213000Y-76708000D03*
G04 #@! TD*
D10*
G04 #@! TO.C,D10*
G36*
X165498379Y-79409144D02*
X165521434Y-79412563D01*
X165544043Y-79418227D01*
X165565987Y-79426079D01*
X165587057Y-79436044D01*
X165607048Y-79448026D01*
X165625768Y-79461910D01*
X165643038Y-79477562D01*
X165658690Y-79494832D01*
X165672574Y-79513552D01*
X165684556Y-79533543D01*
X165694521Y-79554613D01*
X165702373Y-79576557D01*
X165708037Y-79599166D01*
X165711456Y-79622221D01*
X165712600Y-79645500D01*
X165712600Y-80120500D01*
X165711456Y-80143779D01*
X165708037Y-80166834D01*
X165702373Y-80189443D01*
X165694521Y-80211387D01*
X165684556Y-80232457D01*
X165672574Y-80252448D01*
X165658690Y-80271168D01*
X165643038Y-80288438D01*
X165625768Y-80304090D01*
X165607048Y-80317974D01*
X165587057Y-80329956D01*
X165565987Y-80339921D01*
X165544043Y-80347773D01*
X165521434Y-80353437D01*
X165498379Y-80356856D01*
X165475100Y-80358000D01*
X164900100Y-80358000D01*
X164876821Y-80356856D01*
X164853766Y-80353437D01*
X164831157Y-80347773D01*
X164809213Y-80339921D01*
X164788143Y-80329956D01*
X164768152Y-80317974D01*
X164749432Y-80304090D01*
X164732162Y-80288438D01*
X164716510Y-80271168D01*
X164702626Y-80252448D01*
X164690644Y-80232457D01*
X164680679Y-80211387D01*
X164672827Y-80189443D01*
X164667163Y-80166834D01*
X164663744Y-80143779D01*
X164662600Y-80120500D01*
X164662600Y-79645500D01*
X164663744Y-79622221D01*
X164667163Y-79599166D01*
X164672827Y-79576557D01*
X164680679Y-79554613D01*
X164690644Y-79533543D01*
X164702626Y-79513552D01*
X164716510Y-79494832D01*
X164732162Y-79477562D01*
X164749432Y-79461910D01*
X164768152Y-79448026D01*
X164788143Y-79436044D01*
X164809213Y-79426079D01*
X164831157Y-79418227D01*
X164853766Y-79412563D01*
X164876821Y-79409144D01*
X164900100Y-79408000D01*
X165475100Y-79408000D01*
X165498379Y-79409144D01*
X165498379Y-79409144D01*
G37*
D11*
X165187600Y-79883000D03*
D10*
G36*
X163748379Y-79409144D02*
X163771434Y-79412563D01*
X163794043Y-79418227D01*
X163815987Y-79426079D01*
X163837057Y-79436044D01*
X163857048Y-79448026D01*
X163875768Y-79461910D01*
X163893038Y-79477562D01*
X163908690Y-79494832D01*
X163922574Y-79513552D01*
X163934556Y-79533543D01*
X163944521Y-79554613D01*
X163952373Y-79576557D01*
X163958037Y-79599166D01*
X163961456Y-79622221D01*
X163962600Y-79645500D01*
X163962600Y-80120500D01*
X163961456Y-80143779D01*
X163958037Y-80166834D01*
X163952373Y-80189443D01*
X163944521Y-80211387D01*
X163934556Y-80232457D01*
X163922574Y-80252448D01*
X163908690Y-80271168D01*
X163893038Y-80288438D01*
X163875768Y-80304090D01*
X163857048Y-80317974D01*
X163837057Y-80329956D01*
X163815987Y-80339921D01*
X163794043Y-80347773D01*
X163771434Y-80353437D01*
X163748379Y-80356856D01*
X163725100Y-80358000D01*
X163150100Y-80358000D01*
X163126821Y-80356856D01*
X163103766Y-80353437D01*
X163081157Y-80347773D01*
X163059213Y-80339921D01*
X163038143Y-80329956D01*
X163018152Y-80317974D01*
X162999432Y-80304090D01*
X162982162Y-80288438D01*
X162966510Y-80271168D01*
X162952626Y-80252448D01*
X162940644Y-80232457D01*
X162930679Y-80211387D01*
X162922827Y-80189443D01*
X162917163Y-80166834D01*
X162913744Y-80143779D01*
X162912600Y-80120500D01*
X162912600Y-79645500D01*
X162913744Y-79622221D01*
X162917163Y-79599166D01*
X162922827Y-79576557D01*
X162930679Y-79554613D01*
X162940644Y-79533543D01*
X162952626Y-79513552D01*
X162966510Y-79494832D01*
X162982162Y-79477562D01*
X162999432Y-79461910D01*
X163018152Y-79448026D01*
X163038143Y-79436044D01*
X163059213Y-79426079D01*
X163081157Y-79418227D01*
X163103766Y-79412563D01*
X163126821Y-79409144D01*
X163150100Y-79408000D01*
X163725100Y-79408000D01*
X163748379Y-79409144D01*
X163748379Y-79409144D01*
G37*
D11*
X163437600Y-79883000D03*
G04 #@! TD*
D10*
G04 #@! TO.C,D11*
G36*
X163799179Y-82711144D02*
X163822234Y-82714563D01*
X163844843Y-82720227D01*
X163866787Y-82728079D01*
X163887857Y-82738044D01*
X163907848Y-82750026D01*
X163926568Y-82763910D01*
X163943838Y-82779562D01*
X163959490Y-82796832D01*
X163973374Y-82815552D01*
X163985356Y-82835543D01*
X163995321Y-82856613D01*
X164003173Y-82878557D01*
X164008837Y-82901166D01*
X164012256Y-82924221D01*
X164013400Y-82947500D01*
X164013400Y-83422500D01*
X164012256Y-83445779D01*
X164008837Y-83468834D01*
X164003173Y-83491443D01*
X163995321Y-83513387D01*
X163985356Y-83534457D01*
X163973374Y-83554448D01*
X163959490Y-83573168D01*
X163943838Y-83590438D01*
X163926568Y-83606090D01*
X163907848Y-83619974D01*
X163887857Y-83631956D01*
X163866787Y-83641921D01*
X163844843Y-83649773D01*
X163822234Y-83655437D01*
X163799179Y-83658856D01*
X163775900Y-83660000D01*
X163200900Y-83660000D01*
X163177621Y-83658856D01*
X163154566Y-83655437D01*
X163131957Y-83649773D01*
X163110013Y-83641921D01*
X163088943Y-83631956D01*
X163068952Y-83619974D01*
X163050232Y-83606090D01*
X163032962Y-83590438D01*
X163017310Y-83573168D01*
X163003426Y-83554448D01*
X162991444Y-83534457D01*
X162981479Y-83513387D01*
X162973627Y-83491443D01*
X162967963Y-83468834D01*
X162964544Y-83445779D01*
X162963400Y-83422500D01*
X162963400Y-82947500D01*
X162964544Y-82924221D01*
X162967963Y-82901166D01*
X162973627Y-82878557D01*
X162981479Y-82856613D01*
X162991444Y-82835543D01*
X163003426Y-82815552D01*
X163017310Y-82796832D01*
X163032962Y-82779562D01*
X163050232Y-82763910D01*
X163068952Y-82750026D01*
X163088943Y-82738044D01*
X163110013Y-82728079D01*
X163131957Y-82720227D01*
X163154566Y-82714563D01*
X163177621Y-82711144D01*
X163200900Y-82710000D01*
X163775900Y-82710000D01*
X163799179Y-82711144D01*
X163799179Y-82711144D01*
G37*
D11*
X163488400Y-83185000D03*
D10*
G36*
X165549179Y-82711144D02*
X165572234Y-82714563D01*
X165594843Y-82720227D01*
X165616787Y-82728079D01*
X165637857Y-82738044D01*
X165657848Y-82750026D01*
X165676568Y-82763910D01*
X165693838Y-82779562D01*
X165709490Y-82796832D01*
X165723374Y-82815552D01*
X165735356Y-82835543D01*
X165745321Y-82856613D01*
X165753173Y-82878557D01*
X165758837Y-82901166D01*
X165762256Y-82924221D01*
X165763400Y-82947500D01*
X165763400Y-83422500D01*
X165762256Y-83445779D01*
X165758837Y-83468834D01*
X165753173Y-83491443D01*
X165745321Y-83513387D01*
X165735356Y-83534457D01*
X165723374Y-83554448D01*
X165709490Y-83573168D01*
X165693838Y-83590438D01*
X165676568Y-83606090D01*
X165657848Y-83619974D01*
X165637857Y-83631956D01*
X165616787Y-83641921D01*
X165594843Y-83649773D01*
X165572234Y-83655437D01*
X165549179Y-83658856D01*
X165525900Y-83660000D01*
X164950900Y-83660000D01*
X164927621Y-83658856D01*
X164904566Y-83655437D01*
X164881957Y-83649773D01*
X164860013Y-83641921D01*
X164838943Y-83631956D01*
X164818952Y-83619974D01*
X164800232Y-83606090D01*
X164782962Y-83590438D01*
X164767310Y-83573168D01*
X164753426Y-83554448D01*
X164741444Y-83534457D01*
X164731479Y-83513387D01*
X164723627Y-83491443D01*
X164717963Y-83468834D01*
X164714544Y-83445779D01*
X164713400Y-83422500D01*
X164713400Y-82947500D01*
X164714544Y-82924221D01*
X164717963Y-82901166D01*
X164723627Y-82878557D01*
X164731479Y-82856613D01*
X164741444Y-82835543D01*
X164753426Y-82815552D01*
X164767310Y-82796832D01*
X164782962Y-82779562D01*
X164800232Y-82763910D01*
X164818952Y-82750026D01*
X164838943Y-82738044D01*
X164860013Y-82728079D01*
X164881957Y-82720227D01*
X164904566Y-82714563D01*
X164927621Y-82711144D01*
X164950900Y-82710000D01*
X165525900Y-82710000D01*
X165549179Y-82711144D01*
X165549179Y-82711144D01*
G37*
D11*
X165238400Y-83185000D03*
G04 #@! TD*
D10*
G04 #@! TO.C,R5*
G36*
X185109279Y-77736144D02*
X185132334Y-77739563D01*
X185154943Y-77745227D01*
X185176887Y-77753079D01*
X185197957Y-77763044D01*
X185217948Y-77775026D01*
X185236668Y-77788910D01*
X185253938Y-77804562D01*
X185269590Y-77821832D01*
X185283474Y-77840552D01*
X185295456Y-77860543D01*
X185305421Y-77881613D01*
X185313273Y-77903557D01*
X185318937Y-77926166D01*
X185322356Y-77949221D01*
X185323500Y-77972500D01*
X185323500Y-78547500D01*
X185322356Y-78570779D01*
X185318937Y-78593834D01*
X185313273Y-78616443D01*
X185305421Y-78638387D01*
X185295456Y-78659457D01*
X185283474Y-78679448D01*
X185269590Y-78698168D01*
X185253938Y-78715438D01*
X185236668Y-78731090D01*
X185217948Y-78744974D01*
X185197957Y-78756956D01*
X185176887Y-78766921D01*
X185154943Y-78774773D01*
X185132334Y-78780437D01*
X185109279Y-78783856D01*
X185086000Y-78785000D01*
X184611000Y-78785000D01*
X184587721Y-78783856D01*
X184564666Y-78780437D01*
X184542057Y-78774773D01*
X184520113Y-78766921D01*
X184499043Y-78756956D01*
X184479052Y-78744974D01*
X184460332Y-78731090D01*
X184443062Y-78715438D01*
X184427410Y-78698168D01*
X184413526Y-78679448D01*
X184401544Y-78659457D01*
X184391579Y-78638387D01*
X184383727Y-78616443D01*
X184378063Y-78593834D01*
X184374644Y-78570779D01*
X184373500Y-78547500D01*
X184373500Y-77972500D01*
X184374644Y-77949221D01*
X184378063Y-77926166D01*
X184383727Y-77903557D01*
X184391579Y-77881613D01*
X184401544Y-77860543D01*
X184413526Y-77840552D01*
X184427410Y-77821832D01*
X184443062Y-77804562D01*
X184460332Y-77788910D01*
X184479052Y-77775026D01*
X184499043Y-77763044D01*
X184520113Y-77753079D01*
X184542057Y-77745227D01*
X184564666Y-77739563D01*
X184587721Y-77736144D01*
X184611000Y-77735000D01*
X185086000Y-77735000D01*
X185109279Y-77736144D01*
X185109279Y-77736144D01*
G37*
D11*
X184848500Y-78260000D03*
D10*
G36*
X185109279Y-79486144D02*
X185132334Y-79489563D01*
X185154943Y-79495227D01*
X185176887Y-79503079D01*
X185197957Y-79513044D01*
X185217948Y-79525026D01*
X185236668Y-79538910D01*
X185253938Y-79554562D01*
X185269590Y-79571832D01*
X185283474Y-79590552D01*
X185295456Y-79610543D01*
X185305421Y-79631613D01*
X185313273Y-79653557D01*
X185318937Y-79676166D01*
X185322356Y-79699221D01*
X185323500Y-79722500D01*
X185323500Y-80297500D01*
X185322356Y-80320779D01*
X185318937Y-80343834D01*
X185313273Y-80366443D01*
X185305421Y-80388387D01*
X185295456Y-80409457D01*
X185283474Y-80429448D01*
X185269590Y-80448168D01*
X185253938Y-80465438D01*
X185236668Y-80481090D01*
X185217948Y-80494974D01*
X185197957Y-80506956D01*
X185176887Y-80516921D01*
X185154943Y-80524773D01*
X185132334Y-80530437D01*
X185109279Y-80533856D01*
X185086000Y-80535000D01*
X184611000Y-80535000D01*
X184587721Y-80533856D01*
X184564666Y-80530437D01*
X184542057Y-80524773D01*
X184520113Y-80516921D01*
X184499043Y-80506956D01*
X184479052Y-80494974D01*
X184460332Y-80481090D01*
X184443062Y-80465438D01*
X184427410Y-80448168D01*
X184413526Y-80429448D01*
X184401544Y-80409457D01*
X184391579Y-80388387D01*
X184383727Y-80366443D01*
X184378063Y-80343834D01*
X184374644Y-80320779D01*
X184373500Y-80297500D01*
X184373500Y-79722500D01*
X184374644Y-79699221D01*
X184378063Y-79676166D01*
X184383727Y-79653557D01*
X184391579Y-79631613D01*
X184401544Y-79610543D01*
X184413526Y-79590552D01*
X184427410Y-79571832D01*
X184443062Y-79554562D01*
X184460332Y-79538910D01*
X184479052Y-79525026D01*
X184499043Y-79513044D01*
X184520113Y-79503079D01*
X184542057Y-79495227D01*
X184564666Y-79489563D01*
X184587721Y-79486144D01*
X184611000Y-79485000D01*
X185086000Y-79485000D01*
X185109279Y-79486144D01*
X185109279Y-79486144D01*
G37*
D11*
X184848500Y-80010000D03*
G04 #@! TD*
D10*
G04 #@! TO.C,R6*
G36*
X150330193Y-76363248D02*
X150353248Y-76366667D01*
X150375857Y-76372331D01*
X150397801Y-76380183D01*
X150418871Y-76390148D01*
X150438862Y-76402130D01*
X150457582Y-76416014D01*
X150474852Y-76431666D01*
X150490504Y-76448936D01*
X150504388Y-76467656D01*
X150516370Y-76487647D01*
X150526335Y-76508717D01*
X150534187Y-76530661D01*
X150539851Y-76553270D01*
X150543270Y-76576325D01*
X150544414Y-76599604D01*
X150544414Y-77074604D01*
X150543270Y-77097883D01*
X150539851Y-77120938D01*
X150534187Y-77143547D01*
X150526335Y-77165491D01*
X150516370Y-77186561D01*
X150504388Y-77206552D01*
X150490504Y-77225272D01*
X150474852Y-77242542D01*
X150457582Y-77258194D01*
X150438862Y-77272078D01*
X150418871Y-77284060D01*
X150397801Y-77294025D01*
X150375857Y-77301877D01*
X150353248Y-77307541D01*
X150330193Y-77310960D01*
X150306914Y-77312104D01*
X149731914Y-77312104D01*
X149708635Y-77310960D01*
X149685580Y-77307541D01*
X149662971Y-77301877D01*
X149641027Y-77294025D01*
X149619957Y-77284060D01*
X149599966Y-77272078D01*
X149581246Y-77258194D01*
X149563976Y-77242542D01*
X149548324Y-77225272D01*
X149534440Y-77206552D01*
X149522458Y-77186561D01*
X149512493Y-77165491D01*
X149504641Y-77143547D01*
X149498977Y-77120938D01*
X149495558Y-77097883D01*
X149494414Y-77074604D01*
X149494414Y-76599604D01*
X149495558Y-76576325D01*
X149498977Y-76553270D01*
X149504641Y-76530661D01*
X149512493Y-76508717D01*
X149522458Y-76487647D01*
X149534440Y-76467656D01*
X149548324Y-76448936D01*
X149563976Y-76431666D01*
X149581246Y-76416014D01*
X149599966Y-76402130D01*
X149619957Y-76390148D01*
X149641027Y-76380183D01*
X149662971Y-76372331D01*
X149685580Y-76366667D01*
X149708635Y-76363248D01*
X149731914Y-76362104D01*
X150306914Y-76362104D01*
X150330193Y-76363248D01*
X150330193Y-76363248D01*
G37*
D11*
X150019414Y-76837104D03*
D10*
G36*
X148580193Y-76363248D02*
X148603248Y-76366667D01*
X148625857Y-76372331D01*
X148647801Y-76380183D01*
X148668871Y-76390148D01*
X148688862Y-76402130D01*
X148707582Y-76416014D01*
X148724852Y-76431666D01*
X148740504Y-76448936D01*
X148754388Y-76467656D01*
X148766370Y-76487647D01*
X148776335Y-76508717D01*
X148784187Y-76530661D01*
X148789851Y-76553270D01*
X148793270Y-76576325D01*
X148794414Y-76599604D01*
X148794414Y-77074604D01*
X148793270Y-77097883D01*
X148789851Y-77120938D01*
X148784187Y-77143547D01*
X148776335Y-77165491D01*
X148766370Y-77186561D01*
X148754388Y-77206552D01*
X148740504Y-77225272D01*
X148724852Y-77242542D01*
X148707582Y-77258194D01*
X148688862Y-77272078D01*
X148668871Y-77284060D01*
X148647801Y-77294025D01*
X148625857Y-77301877D01*
X148603248Y-77307541D01*
X148580193Y-77310960D01*
X148556914Y-77312104D01*
X147981914Y-77312104D01*
X147958635Y-77310960D01*
X147935580Y-77307541D01*
X147912971Y-77301877D01*
X147891027Y-77294025D01*
X147869957Y-77284060D01*
X147849966Y-77272078D01*
X147831246Y-77258194D01*
X147813976Y-77242542D01*
X147798324Y-77225272D01*
X147784440Y-77206552D01*
X147772458Y-77186561D01*
X147762493Y-77165491D01*
X147754641Y-77143547D01*
X147748977Y-77120938D01*
X147745558Y-77097883D01*
X147744414Y-77074604D01*
X147744414Y-76599604D01*
X147745558Y-76576325D01*
X147748977Y-76553270D01*
X147754641Y-76530661D01*
X147762493Y-76508717D01*
X147772458Y-76487647D01*
X147784440Y-76467656D01*
X147798324Y-76448936D01*
X147813976Y-76431666D01*
X147831246Y-76416014D01*
X147849966Y-76402130D01*
X147869957Y-76390148D01*
X147891027Y-76380183D01*
X147912971Y-76372331D01*
X147935580Y-76366667D01*
X147958635Y-76363248D01*
X147981914Y-76362104D01*
X148556914Y-76362104D01*
X148580193Y-76363248D01*
X148580193Y-76363248D01*
G37*
D11*
X148269414Y-76837104D03*
G04 #@! TD*
D10*
G04 #@! TO.C,R7*
G36*
X148533779Y-82203144D02*
X148556834Y-82206563D01*
X148579443Y-82212227D01*
X148601387Y-82220079D01*
X148622457Y-82230044D01*
X148642448Y-82242026D01*
X148661168Y-82255910D01*
X148678438Y-82271562D01*
X148694090Y-82288832D01*
X148707974Y-82307552D01*
X148719956Y-82327543D01*
X148729921Y-82348613D01*
X148737773Y-82370557D01*
X148743437Y-82393166D01*
X148746856Y-82416221D01*
X148748000Y-82439500D01*
X148748000Y-82914500D01*
X148746856Y-82937779D01*
X148743437Y-82960834D01*
X148737773Y-82983443D01*
X148729921Y-83005387D01*
X148719956Y-83026457D01*
X148707974Y-83046448D01*
X148694090Y-83065168D01*
X148678438Y-83082438D01*
X148661168Y-83098090D01*
X148642448Y-83111974D01*
X148622457Y-83123956D01*
X148601387Y-83133921D01*
X148579443Y-83141773D01*
X148556834Y-83147437D01*
X148533779Y-83150856D01*
X148510500Y-83152000D01*
X147935500Y-83152000D01*
X147912221Y-83150856D01*
X147889166Y-83147437D01*
X147866557Y-83141773D01*
X147844613Y-83133921D01*
X147823543Y-83123956D01*
X147803552Y-83111974D01*
X147784832Y-83098090D01*
X147767562Y-83082438D01*
X147751910Y-83065168D01*
X147738026Y-83046448D01*
X147726044Y-83026457D01*
X147716079Y-83005387D01*
X147708227Y-82983443D01*
X147702563Y-82960834D01*
X147699144Y-82937779D01*
X147698000Y-82914500D01*
X147698000Y-82439500D01*
X147699144Y-82416221D01*
X147702563Y-82393166D01*
X147708227Y-82370557D01*
X147716079Y-82348613D01*
X147726044Y-82327543D01*
X147738026Y-82307552D01*
X147751910Y-82288832D01*
X147767562Y-82271562D01*
X147784832Y-82255910D01*
X147803552Y-82242026D01*
X147823543Y-82230044D01*
X147844613Y-82220079D01*
X147866557Y-82212227D01*
X147889166Y-82206563D01*
X147912221Y-82203144D01*
X147935500Y-82202000D01*
X148510500Y-82202000D01*
X148533779Y-82203144D01*
X148533779Y-82203144D01*
G37*
D11*
X148223000Y-82677000D03*
D10*
G36*
X150283779Y-82203144D02*
X150306834Y-82206563D01*
X150329443Y-82212227D01*
X150351387Y-82220079D01*
X150372457Y-82230044D01*
X150392448Y-82242026D01*
X150411168Y-82255910D01*
X150428438Y-82271562D01*
X150444090Y-82288832D01*
X150457974Y-82307552D01*
X150469956Y-82327543D01*
X150479921Y-82348613D01*
X150487773Y-82370557D01*
X150493437Y-82393166D01*
X150496856Y-82416221D01*
X150498000Y-82439500D01*
X150498000Y-82914500D01*
X150496856Y-82937779D01*
X150493437Y-82960834D01*
X150487773Y-82983443D01*
X150479921Y-83005387D01*
X150469956Y-83026457D01*
X150457974Y-83046448D01*
X150444090Y-83065168D01*
X150428438Y-83082438D01*
X150411168Y-83098090D01*
X150392448Y-83111974D01*
X150372457Y-83123956D01*
X150351387Y-83133921D01*
X150329443Y-83141773D01*
X150306834Y-83147437D01*
X150283779Y-83150856D01*
X150260500Y-83152000D01*
X149685500Y-83152000D01*
X149662221Y-83150856D01*
X149639166Y-83147437D01*
X149616557Y-83141773D01*
X149594613Y-83133921D01*
X149573543Y-83123956D01*
X149553552Y-83111974D01*
X149534832Y-83098090D01*
X149517562Y-83082438D01*
X149501910Y-83065168D01*
X149488026Y-83046448D01*
X149476044Y-83026457D01*
X149466079Y-83005387D01*
X149458227Y-82983443D01*
X149452563Y-82960834D01*
X149449144Y-82937779D01*
X149448000Y-82914500D01*
X149448000Y-82439500D01*
X149449144Y-82416221D01*
X149452563Y-82393166D01*
X149458227Y-82370557D01*
X149466079Y-82348613D01*
X149476044Y-82327543D01*
X149488026Y-82307552D01*
X149501910Y-82288832D01*
X149517562Y-82271562D01*
X149534832Y-82255910D01*
X149553552Y-82242026D01*
X149573543Y-82230044D01*
X149594613Y-82220079D01*
X149616557Y-82212227D01*
X149639166Y-82206563D01*
X149662221Y-82203144D01*
X149685500Y-82202000D01*
X150260500Y-82202000D01*
X150283779Y-82203144D01*
X150283779Y-82203144D01*
G37*
D11*
X149973000Y-82677000D03*
G04 #@! TD*
D10*
G04 #@! TO.C,R8*
G36*
X150283779Y-79282144D02*
X150306834Y-79285563D01*
X150329443Y-79291227D01*
X150351387Y-79299079D01*
X150372457Y-79309044D01*
X150392448Y-79321026D01*
X150411168Y-79334910D01*
X150428438Y-79350562D01*
X150444090Y-79367832D01*
X150457974Y-79386552D01*
X150469956Y-79406543D01*
X150479921Y-79427613D01*
X150487773Y-79449557D01*
X150493437Y-79472166D01*
X150496856Y-79495221D01*
X150498000Y-79518500D01*
X150498000Y-79993500D01*
X150496856Y-80016779D01*
X150493437Y-80039834D01*
X150487773Y-80062443D01*
X150479921Y-80084387D01*
X150469956Y-80105457D01*
X150457974Y-80125448D01*
X150444090Y-80144168D01*
X150428438Y-80161438D01*
X150411168Y-80177090D01*
X150392448Y-80190974D01*
X150372457Y-80202956D01*
X150351387Y-80212921D01*
X150329443Y-80220773D01*
X150306834Y-80226437D01*
X150283779Y-80229856D01*
X150260500Y-80231000D01*
X149685500Y-80231000D01*
X149662221Y-80229856D01*
X149639166Y-80226437D01*
X149616557Y-80220773D01*
X149594613Y-80212921D01*
X149573543Y-80202956D01*
X149553552Y-80190974D01*
X149534832Y-80177090D01*
X149517562Y-80161438D01*
X149501910Y-80144168D01*
X149488026Y-80125448D01*
X149476044Y-80105457D01*
X149466079Y-80084387D01*
X149458227Y-80062443D01*
X149452563Y-80039834D01*
X149449144Y-80016779D01*
X149448000Y-79993500D01*
X149448000Y-79518500D01*
X149449144Y-79495221D01*
X149452563Y-79472166D01*
X149458227Y-79449557D01*
X149466079Y-79427613D01*
X149476044Y-79406543D01*
X149488026Y-79386552D01*
X149501910Y-79367832D01*
X149517562Y-79350562D01*
X149534832Y-79334910D01*
X149553552Y-79321026D01*
X149573543Y-79309044D01*
X149594613Y-79299079D01*
X149616557Y-79291227D01*
X149639166Y-79285563D01*
X149662221Y-79282144D01*
X149685500Y-79281000D01*
X150260500Y-79281000D01*
X150283779Y-79282144D01*
X150283779Y-79282144D01*
G37*
D11*
X149973000Y-79756000D03*
D10*
G36*
X148533779Y-79282144D02*
X148556834Y-79285563D01*
X148579443Y-79291227D01*
X148601387Y-79299079D01*
X148622457Y-79309044D01*
X148642448Y-79321026D01*
X148661168Y-79334910D01*
X148678438Y-79350562D01*
X148694090Y-79367832D01*
X148707974Y-79386552D01*
X148719956Y-79406543D01*
X148729921Y-79427613D01*
X148737773Y-79449557D01*
X148743437Y-79472166D01*
X148746856Y-79495221D01*
X148748000Y-79518500D01*
X148748000Y-79993500D01*
X148746856Y-80016779D01*
X148743437Y-80039834D01*
X148737773Y-80062443D01*
X148729921Y-80084387D01*
X148719956Y-80105457D01*
X148707974Y-80125448D01*
X148694090Y-80144168D01*
X148678438Y-80161438D01*
X148661168Y-80177090D01*
X148642448Y-80190974D01*
X148622457Y-80202956D01*
X148601387Y-80212921D01*
X148579443Y-80220773D01*
X148556834Y-80226437D01*
X148533779Y-80229856D01*
X148510500Y-80231000D01*
X147935500Y-80231000D01*
X147912221Y-80229856D01*
X147889166Y-80226437D01*
X147866557Y-80220773D01*
X147844613Y-80212921D01*
X147823543Y-80202956D01*
X147803552Y-80190974D01*
X147784832Y-80177090D01*
X147767562Y-80161438D01*
X147751910Y-80144168D01*
X147738026Y-80125448D01*
X147726044Y-80105457D01*
X147716079Y-80084387D01*
X147708227Y-80062443D01*
X147702563Y-80039834D01*
X147699144Y-80016779D01*
X147698000Y-79993500D01*
X147698000Y-79518500D01*
X147699144Y-79495221D01*
X147702563Y-79472166D01*
X147708227Y-79449557D01*
X147716079Y-79427613D01*
X147726044Y-79406543D01*
X147738026Y-79386552D01*
X147751910Y-79367832D01*
X147767562Y-79350562D01*
X147784832Y-79334910D01*
X147803552Y-79321026D01*
X147823543Y-79309044D01*
X147844613Y-79299079D01*
X147866557Y-79291227D01*
X147889166Y-79285563D01*
X147912221Y-79282144D01*
X147935500Y-79281000D01*
X148510500Y-79281000D01*
X148533779Y-79282144D01*
X148533779Y-79282144D01*
G37*
D11*
X148223000Y-79756000D03*
G04 #@! TD*
D10*
G04 #@! TO.C,R9*
G36*
X148660779Y-85124144D02*
X148683834Y-85127563D01*
X148706443Y-85133227D01*
X148728387Y-85141079D01*
X148749457Y-85151044D01*
X148769448Y-85163026D01*
X148788168Y-85176910D01*
X148805438Y-85192562D01*
X148821090Y-85209832D01*
X148834974Y-85228552D01*
X148846956Y-85248543D01*
X148856921Y-85269613D01*
X148864773Y-85291557D01*
X148870437Y-85314166D01*
X148873856Y-85337221D01*
X148875000Y-85360500D01*
X148875000Y-85835500D01*
X148873856Y-85858779D01*
X148870437Y-85881834D01*
X148864773Y-85904443D01*
X148856921Y-85926387D01*
X148846956Y-85947457D01*
X148834974Y-85967448D01*
X148821090Y-85986168D01*
X148805438Y-86003438D01*
X148788168Y-86019090D01*
X148769448Y-86032974D01*
X148749457Y-86044956D01*
X148728387Y-86054921D01*
X148706443Y-86062773D01*
X148683834Y-86068437D01*
X148660779Y-86071856D01*
X148637500Y-86073000D01*
X148062500Y-86073000D01*
X148039221Y-86071856D01*
X148016166Y-86068437D01*
X147993557Y-86062773D01*
X147971613Y-86054921D01*
X147950543Y-86044956D01*
X147930552Y-86032974D01*
X147911832Y-86019090D01*
X147894562Y-86003438D01*
X147878910Y-85986168D01*
X147865026Y-85967448D01*
X147853044Y-85947457D01*
X147843079Y-85926387D01*
X147835227Y-85904443D01*
X147829563Y-85881834D01*
X147826144Y-85858779D01*
X147825000Y-85835500D01*
X147825000Y-85360500D01*
X147826144Y-85337221D01*
X147829563Y-85314166D01*
X147835227Y-85291557D01*
X147843079Y-85269613D01*
X147853044Y-85248543D01*
X147865026Y-85228552D01*
X147878910Y-85209832D01*
X147894562Y-85192562D01*
X147911832Y-85176910D01*
X147930552Y-85163026D01*
X147950543Y-85151044D01*
X147971613Y-85141079D01*
X147993557Y-85133227D01*
X148016166Y-85127563D01*
X148039221Y-85124144D01*
X148062500Y-85123000D01*
X148637500Y-85123000D01*
X148660779Y-85124144D01*
X148660779Y-85124144D01*
G37*
D11*
X148350000Y-85598000D03*
D10*
G36*
X150410779Y-85124144D02*
X150433834Y-85127563D01*
X150456443Y-85133227D01*
X150478387Y-85141079D01*
X150499457Y-85151044D01*
X150519448Y-85163026D01*
X150538168Y-85176910D01*
X150555438Y-85192562D01*
X150571090Y-85209832D01*
X150584974Y-85228552D01*
X150596956Y-85248543D01*
X150606921Y-85269613D01*
X150614773Y-85291557D01*
X150620437Y-85314166D01*
X150623856Y-85337221D01*
X150625000Y-85360500D01*
X150625000Y-85835500D01*
X150623856Y-85858779D01*
X150620437Y-85881834D01*
X150614773Y-85904443D01*
X150606921Y-85926387D01*
X150596956Y-85947457D01*
X150584974Y-85967448D01*
X150571090Y-85986168D01*
X150555438Y-86003438D01*
X150538168Y-86019090D01*
X150519448Y-86032974D01*
X150499457Y-86044956D01*
X150478387Y-86054921D01*
X150456443Y-86062773D01*
X150433834Y-86068437D01*
X150410779Y-86071856D01*
X150387500Y-86073000D01*
X149812500Y-86073000D01*
X149789221Y-86071856D01*
X149766166Y-86068437D01*
X149743557Y-86062773D01*
X149721613Y-86054921D01*
X149700543Y-86044956D01*
X149680552Y-86032974D01*
X149661832Y-86019090D01*
X149644562Y-86003438D01*
X149628910Y-85986168D01*
X149615026Y-85967448D01*
X149603044Y-85947457D01*
X149593079Y-85926387D01*
X149585227Y-85904443D01*
X149579563Y-85881834D01*
X149576144Y-85858779D01*
X149575000Y-85835500D01*
X149575000Y-85360500D01*
X149576144Y-85337221D01*
X149579563Y-85314166D01*
X149585227Y-85291557D01*
X149593079Y-85269613D01*
X149603044Y-85248543D01*
X149615026Y-85228552D01*
X149628910Y-85209832D01*
X149644562Y-85192562D01*
X149661832Y-85176910D01*
X149680552Y-85163026D01*
X149700543Y-85151044D01*
X149721613Y-85141079D01*
X149743557Y-85133227D01*
X149766166Y-85127563D01*
X149789221Y-85124144D01*
X149812500Y-85123000D01*
X150387500Y-85123000D01*
X150410779Y-85124144D01*
X150410779Y-85124144D01*
G37*
D11*
X150100000Y-85598000D03*
G04 #@! TD*
D10*
G04 #@! TO.C,R10*
G36*
X167470779Y-76234144D02*
X167493834Y-76237563D01*
X167516443Y-76243227D01*
X167538387Y-76251079D01*
X167559457Y-76261044D01*
X167579448Y-76273026D01*
X167598168Y-76286910D01*
X167615438Y-76302562D01*
X167631090Y-76319832D01*
X167644974Y-76338552D01*
X167656956Y-76358543D01*
X167666921Y-76379613D01*
X167674773Y-76401557D01*
X167680437Y-76424166D01*
X167683856Y-76447221D01*
X167685000Y-76470500D01*
X167685000Y-76945500D01*
X167683856Y-76968779D01*
X167680437Y-76991834D01*
X167674773Y-77014443D01*
X167666921Y-77036387D01*
X167656956Y-77057457D01*
X167644974Y-77077448D01*
X167631090Y-77096168D01*
X167615438Y-77113438D01*
X167598168Y-77129090D01*
X167579448Y-77142974D01*
X167559457Y-77154956D01*
X167538387Y-77164921D01*
X167516443Y-77172773D01*
X167493834Y-77178437D01*
X167470779Y-77181856D01*
X167447500Y-77183000D01*
X166872500Y-77183000D01*
X166849221Y-77181856D01*
X166826166Y-77178437D01*
X166803557Y-77172773D01*
X166781613Y-77164921D01*
X166760543Y-77154956D01*
X166740552Y-77142974D01*
X166721832Y-77129090D01*
X166704562Y-77113438D01*
X166688910Y-77096168D01*
X166675026Y-77077448D01*
X166663044Y-77057457D01*
X166653079Y-77036387D01*
X166645227Y-77014443D01*
X166639563Y-76991834D01*
X166636144Y-76968779D01*
X166635000Y-76945500D01*
X166635000Y-76470500D01*
X166636144Y-76447221D01*
X166639563Y-76424166D01*
X166645227Y-76401557D01*
X166653079Y-76379613D01*
X166663044Y-76358543D01*
X166675026Y-76338552D01*
X166688910Y-76319832D01*
X166704562Y-76302562D01*
X166721832Y-76286910D01*
X166740552Y-76273026D01*
X166760543Y-76261044D01*
X166781613Y-76251079D01*
X166803557Y-76243227D01*
X166826166Y-76237563D01*
X166849221Y-76234144D01*
X166872500Y-76233000D01*
X167447500Y-76233000D01*
X167470779Y-76234144D01*
X167470779Y-76234144D01*
G37*
D11*
X167160000Y-76708000D03*
D10*
G36*
X169220779Y-76234144D02*
X169243834Y-76237563D01*
X169266443Y-76243227D01*
X169288387Y-76251079D01*
X169309457Y-76261044D01*
X169329448Y-76273026D01*
X169348168Y-76286910D01*
X169365438Y-76302562D01*
X169381090Y-76319832D01*
X169394974Y-76338552D01*
X169406956Y-76358543D01*
X169416921Y-76379613D01*
X169424773Y-76401557D01*
X169430437Y-76424166D01*
X169433856Y-76447221D01*
X169435000Y-76470500D01*
X169435000Y-76945500D01*
X169433856Y-76968779D01*
X169430437Y-76991834D01*
X169424773Y-77014443D01*
X169416921Y-77036387D01*
X169406956Y-77057457D01*
X169394974Y-77077448D01*
X169381090Y-77096168D01*
X169365438Y-77113438D01*
X169348168Y-77129090D01*
X169329448Y-77142974D01*
X169309457Y-77154956D01*
X169288387Y-77164921D01*
X169266443Y-77172773D01*
X169243834Y-77178437D01*
X169220779Y-77181856D01*
X169197500Y-77183000D01*
X168622500Y-77183000D01*
X168599221Y-77181856D01*
X168576166Y-77178437D01*
X168553557Y-77172773D01*
X168531613Y-77164921D01*
X168510543Y-77154956D01*
X168490552Y-77142974D01*
X168471832Y-77129090D01*
X168454562Y-77113438D01*
X168438910Y-77096168D01*
X168425026Y-77077448D01*
X168413044Y-77057457D01*
X168403079Y-77036387D01*
X168395227Y-77014443D01*
X168389563Y-76991834D01*
X168386144Y-76968779D01*
X168385000Y-76945500D01*
X168385000Y-76470500D01*
X168386144Y-76447221D01*
X168389563Y-76424166D01*
X168395227Y-76401557D01*
X168403079Y-76379613D01*
X168413044Y-76358543D01*
X168425026Y-76338552D01*
X168438910Y-76319832D01*
X168454562Y-76302562D01*
X168471832Y-76286910D01*
X168490552Y-76273026D01*
X168510543Y-76261044D01*
X168531613Y-76251079D01*
X168553557Y-76243227D01*
X168576166Y-76237563D01*
X168599221Y-76234144D01*
X168622500Y-76233000D01*
X169197500Y-76233000D01*
X169220779Y-76234144D01*
X169220779Y-76234144D01*
G37*
D11*
X168910000Y-76708000D03*
G04 #@! TD*
D10*
G04 #@! TO.C,R11*
G36*
X169220779Y-79409144D02*
X169243834Y-79412563D01*
X169266443Y-79418227D01*
X169288387Y-79426079D01*
X169309457Y-79436044D01*
X169329448Y-79448026D01*
X169348168Y-79461910D01*
X169365438Y-79477562D01*
X169381090Y-79494832D01*
X169394974Y-79513552D01*
X169406956Y-79533543D01*
X169416921Y-79554613D01*
X169424773Y-79576557D01*
X169430437Y-79599166D01*
X169433856Y-79622221D01*
X169435000Y-79645500D01*
X169435000Y-80120500D01*
X169433856Y-80143779D01*
X169430437Y-80166834D01*
X169424773Y-80189443D01*
X169416921Y-80211387D01*
X169406956Y-80232457D01*
X169394974Y-80252448D01*
X169381090Y-80271168D01*
X169365438Y-80288438D01*
X169348168Y-80304090D01*
X169329448Y-80317974D01*
X169309457Y-80329956D01*
X169288387Y-80339921D01*
X169266443Y-80347773D01*
X169243834Y-80353437D01*
X169220779Y-80356856D01*
X169197500Y-80358000D01*
X168622500Y-80358000D01*
X168599221Y-80356856D01*
X168576166Y-80353437D01*
X168553557Y-80347773D01*
X168531613Y-80339921D01*
X168510543Y-80329956D01*
X168490552Y-80317974D01*
X168471832Y-80304090D01*
X168454562Y-80288438D01*
X168438910Y-80271168D01*
X168425026Y-80252448D01*
X168413044Y-80232457D01*
X168403079Y-80211387D01*
X168395227Y-80189443D01*
X168389563Y-80166834D01*
X168386144Y-80143779D01*
X168385000Y-80120500D01*
X168385000Y-79645500D01*
X168386144Y-79622221D01*
X168389563Y-79599166D01*
X168395227Y-79576557D01*
X168403079Y-79554613D01*
X168413044Y-79533543D01*
X168425026Y-79513552D01*
X168438910Y-79494832D01*
X168454562Y-79477562D01*
X168471832Y-79461910D01*
X168490552Y-79448026D01*
X168510543Y-79436044D01*
X168531613Y-79426079D01*
X168553557Y-79418227D01*
X168576166Y-79412563D01*
X168599221Y-79409144D01*
X168622500Y-79408000D01*
X169197500Y-79408000D01*
X169220779Y-79409144D01*
X169220779Y-79409144D01*
G37*
D11*
X168910000Y-79883000D03*
D10*
G36*
X167470779Y-79409144D02*
X167493834Y-79412563D01*
X167516443Y-79418227D01*
X167538387Y-79426079D01*
X167559457Y-79436044D01*
X167579448Y-79448026D01*
X167598168Y-79461910D01*
X167615438Y-79477562D01*
X167631090Y-79494832D01*
X167644974Y-79513552D01*
X167656956Y-79533543D01*
X167666921Y-79554613D01*
X167674773Y-79576557D01*
X167680437Y-79599166D01*
X167683856Y-79622221D01*
X167685000Y-79645500D01*
X167685000Y-80120500D01*
X167683856Y-80143779D01*
X167680437Y-80166834D01*
X167674773Y-80189443D01*
X167666921Y-80211387D01*
X167656956Y-80232457D01*
X167644974Y-80252448D01*
X167631090Y-80271168D01*
X167615438Y-80288438D01*
X167598168Y-80304090D01*
X167579448Y-80317974D01*
X167559457Y-80329956D01*
X167538387Y-80339921D01*
X167516443Y-80347773D01*
X167493834Y-80353437D01*
X167470779Y-80356856D01*
X167447500Y-80358000D01*
X166872500Y-80358000D01*
X166849221Y-80356856D01*
X166826166Y-80353437D01*
X166803557Y-80347773D01*
X166781613Y-80339921D01*
X166760543Y-80329956D01*
X166740552Y-80317974D01*
X166721832Y-80304090D01*
X166704562Y-80288438D01*
X166688910Y-80271168D01*
X166675026Y-80252448D01*
X166663044Y-80232457D01*
X166653079Y-80211387D01*
X166645227Y-80189443D01*
X166639563Y-80166834D01*
X166636144Y-80143779D01*
X166635000Y-80120500D01*
X166635000Y-79645500D01*
X166636144Y-79622221D01*
X166639563Y-79599166D01*
X166645227Y-79576557D01*
X166653079Y-79554613D01*
X166663044Y-79533543D01*
X166675026Y-79513552D01*
X166688910Y-79494832D01*
X166704562Y-79477562D01*
X166721832Y-79461910D01*
X166740552Y-79448026D01*
X166760543Y-79436044D01*
X166781613Y-79426079D01*
X166803557Y-79418227D01*
X166826166Y-79412563D01*
X166849221Y-79409144D01*
X166872500Y-79408000D01*
X167447500Y-79408000D01*
X167470779Y-79409144D01*
X167470779Y-79409144D01*
G37*
D11*
X167160000Y-79883000D03*
G04 #@! TD*
D10*
G04 #@! TO.C,R12*
G36*
X167470779Y-82711144D02*
X167493834Y-82714563D01*
X167516443Y-82720227D01*
X167538387Y-82728079D01*
X167559457Y-82738044D01*
X167579448Y-82750026D01*
X167598168Y-82763910D01*
X167615438Y-82779562D01*
X167631090Y-82796832D01*
X167644974Y-82815552D01*
X167656956Y-82835543D01*
X167666921Y-82856613D01*
X167674773Y-82878557D01*
X167680437Y-82901166D01*
X167683856Y-82924221D01*
X167685000Y-82947500D01*
X167685000Y-83422500D01*
X167683856Y-83445779D01*
X167680437Y-83468834D01*
X167674773Y-83491443D01*
X167666921Y-83513387D01*
X167656956Y-83534457D01*
X167644974Y-83554448D01*
X167631090Y-83573168D01*
X167615438Y-83590438D01*
X167598168Y-83606090D01*
X167579448Y-83619974D01*
X167559457Y-83631956D01*
X167538387Y-83641921D01*
X167516443Y-83649773D01*
X167493834Y-83655437D01*
X167470779Y-83658856D01*
X167447500Y-83660000D01*
X166872500Y-83660000D01*
X166849221Y-83658856D01*
X166826166Y-83655437D01*
X166803557Y-83649773D01*
X166781613Y-83641921D01*
X166760543Y-83631956D01*
X166740552Y-83619974D01*
X166721832Y-83606090D01*
X166704562Y-83590438D01*
X166688910Y-83573168D01*
X166675026Y-83554448D01*
X166663044Y-83534457D01*
X166653079Y-83513387D01*
X166645227Y-83491443D01*
X166639563Y-83468834D01*
X166636144Y-83445779D01*
X166635000Y-83422500D01*
X166635000Y-82947500D01*
X166636144Y-82924221D01*
X166639563Y-82901166D01*
X166645227Y-82878557D01*
X166653079Y-82856613D01*
X166663044Y-82835543D01*
X166675026Y-82815552D01*
X166688910Y-82796832D01*
X166704562Y-82779562D01*
X166721832Y-82763910D01*
X166740552Y-82750026D01*
X166760543Y-82738044D01*
X166781613Y-82728079D01*
X166803557Y-82720227D01*
X166826166Y-82714563D01*
X166849221Y-82711144D01*
X166872500Y-82710000D01*
X167447500Y-82710000D01*
X167470779Y-82711144D01*
X167470779Y-82711144D01*
G37*
D11*
X167160000Y-83185000D03*
D10*
G36*
X169220779Y-82711144D02*
X169243834Y-82714563D01*
X169266443Y-82720227D01*
X169288387Y-82728079D01*
X169309457Y-82738044D01*
X169329448Y-82750026D01*
X169348168Y-82763910D01*
X169365438Y-82779562D01*
X169381090Y-82796832D01*
X169394974Y-82815552D01*
X169406956Y-82835543D01*
X169416921Y-82856613D01*
X169424773Y-82878557D01*
X169430437Y-82901166D01*
X169433856Y-82924221D01*
X169435000Y-82947500D01*
X169435000Y-83422500D01*
X169433856Y-83445779D01*
X169430437Y-83468834D01*
X169424773Y-83491443D01*
X169416921Y-83513387D01*
X169406956Y-83534457D01*
X169394974Y-83554448D01*
X169381090Y-83573168D01*
X169365438Y-83590438D01*
X169348168Y-83606090D01*
X169329448Y-83619974D01*
X169309457Y-83631956D01*
X169288387Y-83641921D01*
X169266443Y-83649773D01*
X169243834Y-83655437D01*
X169220779Y-83658856D01*
X169197500Y-83660000D01*
X168622500Y-83660000D01*
X168599221Y-83658856D01*
X168576166Y-83655437D01*
X168553557Y-83649773D01*
X168531613Y-83641921D01*
X168510543Y-83631956D01*
X168490552Y-83619974D01*
X168471832Y-83606090D01*
X168454562Y-83590438D01*
X168438910Y-83573168D01*
X168425026Y-83554448D01*
X168413044Y-83534457D01*
X168403079Y-83513387D01*
X168395227Y-83491443D01*
X168389563Y-83468834D01*
X168386144Y-83445779D01*
X168385000Y-83422500D01*
X168385000Y-82947500D01*
X168386144Y-82924221D01*
X168389563Y-82901166D01*
X168395227Y-82878557D01*
X168403079Y-82856613D01*
X168413044Y-82835543D01*
X168425026Y-82815552D01*
X168438910Y-82796832D01*
X168454562Y-82779562D01*
X168471832Y-82763910D01*
X168490552Y-82750026D01*
X168510543Y-82738044D01*
X168531613Y-82728079D01*
X168553557Y-82720227D01*
X168576166Y-82714563D01*
X168599221Y-82711144D01*
X168622500Y-82710000D01*
X169197500Y-82710000D01*
X169220779Y-82711144D01*
X169220779Y-82711144D01*
G37*
D11*
X168910000Y-83185000D03*
G04 #@! TD*
D10*
G04 #@! TO.C,D2*
G36*
X95434579Y-95756144D02*
X95457634Y-95759563D01*
X95480243Y-95765227D01*
X95502187Y-95773079D01*
X95523257Y-95783044D01*
X95543248Y-95795026D01*
X95561968Y-95808910D01*
X95579238Y-95824562D01*
X95594890Y-95841832D01*
X95608774Y-95860552D01*
X95620756Y-95880543D01*
X95630721Y-95901613D01*
X95638573Y-95923557D01*
X95644237Y-95946166D01*
X95647656Y-95969221D01*
X95648800Y-95992500D01*
X95648800Y-96567500D01*
X95647656Y-96590779D01*
X95644237Y-96613834D01*
X95638573Y-96636443D01*
X95630721Y-96658387D01*
X95620756Y-96679457D01*
X95608774Y-96699448D01*
X95594890Y-96718168D01*
X95579238Y-96735438D01*
X95561968Y-96751090D01*
X95543248Y-96764974D01*
X95523257Y-96776956D01*
X95502187Y-96786921D01*
X95480243Y-96794773D01*
X95457634Y-96800437D01*
X95434579Y-96803856D01*
X95411300Y-96805000D01*
X94936300Y-96805000D01*
X94913021Y-96803856D01*
X94889966Y-96800437D01*
X94867357Y-96794773D01*
X94845413Y-96786921D01*
X94824343Y-96776956D01*
X94804352Y-96764974D01*
X94785632Y-96751090D01*
X94768362Y-96735438D01*
X94752710Y-96718168D01*
X94738826Y-96699448D01*
X94726844Y-96679457D01*
X94716879Y-96658387D01*
X94709027Y-96636443D01*
X94703363Y-96613834D01*
X94699944Y-96590779D01*
X94698800Y-96567500D01*
X94698800Y-95992500D01*
X94699944Y-95969221D01*
X94703363Y-95946166D01*
X94709027Y-95923557D01*
X94716879Y-95901613D01*
X94726844Y-95880543D01*
X94738826Y-95860552D01*
X94752710Y-95841832D01*
X94768362Y-95824562D01*
X94785632Y-95808910D01*
X94804352Y-95795026D01*
X94824343Y-95783044D01*
X94845413Y-95773079D01*
X94867357Y-95765227D01*
X94889966Y-95759563D01*
X94913021Y-95756144D01*
X94936300Y-95755000D01*
X95411300Y-95755000D01*
X95434579Y-95756144D01*
X95434579Y-95756144D01*
G37*
D11*
X95173800Y-96280000D03*
D10*
G36*
X95434579Y-97506144D02*
X95457634Y-97509563D01*
X95480243Y-97515227D01*
X95502187Y-97523079D01*
X95523257Y-97533044D01*
X95543248Y-97545026D01*
X95561968Y-97558910D01*
X95579238Y-97574562D01*
X95594890Y-97591832D01*
X95608774Y-97610552D01*
X95620756Y-97630543D01*
X95630721Y-97651613D01*
X95638573Y-97673557D01*
X95644237Y-97696166D01*
X95647656Y-97719221D01*
X95648800Y-97742500D01*
X95648800Y-98317500D01*
X95647656Y-98340779D01*
X95644237Y-98363834D01*
X95638573Y-98386443D01*
X95630721Y-98408387D01*
X95620756Y-98429457D01*
X95608774Y-98449448D01*
X95594890Y-98468168D01*
X95579238Y-98485438D01*
X95561968Y-98501090D01*
X95543248Y-98514974D01*
X95523257Y-98526956D01*
X95502187Y-98536921D01*
X95480243Y-98544773D01*
X95457634Y-98550437D01*
X95434579Y-98553856D01*
X95411300Y-98555000D01*
X94936300Y-98555000D01*
X94913021Y-98553856D01*
X94889966Y-98550437D01*
X94867357Y-98544773D01*
X94845413Y-98536921D01*
X94824343Y-98526956D01*
X94804352Y-98514974D01*
X94785632Y-98501090D01*
X94768362Y-98485438D01*
X94752710Y-98468168D01*
X94738826Y-98449448D01*
X94726844Y-98429457D01*
X94716879Y-98408387D01*
X94709027Y-98386443D01*
X94703363Y-98363834D01*
X94699944Y-98340779D01*
X94698800Y-98317500D01*
X94698800Y-97742500D01*
X94699944Y-97719221D01*
X94703363Y-97696166D01*
X94709027Y-97673557D01*
X94716879Y-97651613D01*
X94726844Y-97630543D01*
X94738826Y-97610552D01*
X94752710Y-97591832D01*
X94768362Y-97574562D01*
X94785632Y-97558910D01*
X94804352Y-97545026D01*
X94824343Y-97533044D01*
X94845413Y-97523079D01*
X94867357Y-97515227D01*
X94889966Y-97509563D01*
X94913021Y-97506144D01*
X94936300Y-97505000D01*
X95411300Y-97505000D01*
X95434579Y-97506144D01*
X95434579Y-97506144D01*
G37*
D11*
X95173800Y-98030000D03*
G04 #@! TD*
D10*
G04 #@! TO.C,R15*
G36*
X95434579Y-102332144D02*
X95457634Y-102335563D01*
X95480243Y-102341227D01*
X95502187Y-102349079D01*
X95523257Y-102359044D01*
X95543248Y-102371026D01*
X95561968Y-102384910D01*
X95579238Y-102400562D01*
X95594890Y-102417832D01*
X95608774Y-102436552D01*
X95620756Y-102456543D01*
X95630721Y-102477613D01*
X95638573Y-102499557D01*
X95644237Y-102522166D01*
X95647656Y-102545221D01*
X95648800Y-102568500D01*
X95648800Y-103143500D01*
X95647656Y-103166779D01*
X95644237Y-103189834D01*
X95638573Y-103212443D01*
X95630721Y-103234387D01*
X95620756Y-103255457D01*
X95608774Y-103275448D01*
X95594890Y-103294168D01*
X95579238Y-103311438D01*
X95561968Y-103327090D01*
X95543248Y-103340974D01*
X95523257Y-103352956D01*
X95502187Y-103362921D01*
X95480243Y-103370773D01*
X95457634Y-103376437D01*
X95434579Y-103379856D01*
X95411300Y-103381000D01*
X94936300Y-103381000D01*
X94913021Y-103379856D01*
X94889966Y-103376437D01*
X94867357Y-103370773D01*
X94845413Y-103362921D01*
X94824343Y-103352956D01*
X94804352Y-103340974D01*
X94785632Y-103327090D01*
X94768362Y-103311438D01*
X94752710Y-103294168D01*
X94738826Y-103275448D01*
X94726844Y-103255457D01*
X94716879Y-103234387D01*
X94709027Y-103212443D01*
X94703363Y-103189834D01*
X94699944Y-103166779D01*
X94698800Y-103143500D01*
X94698800Y-102568500D01*
X94699944Y-102545221D01*
X94703363Y-102522166D01*
X94709027Y-102499557D01*
X94716879Y-102477613D01*
X94726844Y-102456543D01*
X94738826Y-102436552D01*
X94752710Y-102417832D01*
X94768362Y-102400562D01*
X94785632Y-102384910D01*
X94804352Y-102371026D01*
X94824343Y-102359044D01*
X94845413Y-102349079D01*
X94867357Y-102341227D01*
X94889966Y-102335563D01*
X94913021Y-102332144D01*
X94936300Y-102331000D01*
X95411300Y-102331000D01*
X95434579Y-102332144D01*
X95434579Y-102332144D01*
G37*
D11*
X95173800Y-102856000D03*
D10*
G36*
X95434579Y-100582144D02*
X95457634Y-100585563D01*
X95480243Y-100591227D01*
X95502187Y-100599079D01*
X95523257Y-100609044D01*
X95543248Y-100621026D01*
X95561968Y-100634910D01*
X95579238Y-100650562D01*
X95594890Y-100667832D01*
X95608774Y-100686552D01*
X95620756Y-100706543D01*
X95630721Y-100727613D01*
X95638573Y-100749557D01*
X95644237Y-100772166D01*
X95647656Y-100795221D01*
X95648800Y-100818500D01*
X95648800Y-101393500D01*
X95647656Y-101416779D01*
X95644237Y-101439834D01*
X95638573Y-101462443D01*
X95630721Y-101484387D01*
X95620756Y-101505457D01*
X95608774Y-101525448D01*
X95594890Y-101544168D01*
X95579238Y-101561438D01*
X95561968Y-101577090D01*
X95543248Y-101590974D01*
X95523257Y-101602956D01*
X95502187Y-101612921D01*
X95480243Y-101620773D01*
X95457634Y-101626437D01*
X95434579Y-101629856D01*
X95411300Y-101631000D01*
X94936300Y-101631000D01*
X94913021Y-101629856D01*
X94889966Y-101626437D01*
X94867357Y-101620773D01*
X94845413Y-101612921D01*
X94824343Y-101602956D01*
X94804352Y-101590974D01*
X94785632Y-101577090D01*
X94768362Y-101561438D01*
X94752710Y-101544168D01*
X94738826Y-101525448D01*
X94726844Y-101505457D01*
X94716879Y-101484387D01*
X94709027Y-101462443D01*
X94703363Y-101439834D01*
X94699944Y-101416779D01*
X94698800Y-101393500D01*
X94698800Y-100818500D01*
X94699944Y-100795221D01*
X94703363Y-100772166D01*
X94709027Y-100749557D01*
X94716879Y-100727613D01*
X94726844Y-100706543D01*
X94738826Y-100686552D01*
X94752710Y-100667832D01*
X94768362Y-100650562D01*
X94785632Y-100634910D01*
X94804352Y-100621026D01*
X94824343Y-100609044D01*
X94845413Y-100599079D01*
X94867357Y-100591227D01*
X94889966Y-100585563D01*
X94913021Y-100582144D01*
X94936300Y-100581000D01*
X95411300Y-100581000D01*
X95434579Y-100582144D01*
X95434579Y-100582144D01*
G37*
D11*
X95173800Y-101106000D03*
G04 #@! TD*
M02*
