G04 #@! TF.GenerationSoftware,KiCad,Pcbnew,(5.0.0)*
G04 #@! TF.CreationDate,2018-12-18T15:11:22-06:00*
G04 #@! TF.ProjectId,SRASensorBoard_Hardware,53524153656E736F72426F6172645F48,rev?*
G04 #@! TF.SameCoordinates,Original*
G04 #@! TF.FileFunction,Legend,Bot*
G04 #@! TF.FilePolarity,Positive*
%FSLAX46Y46*%
G04 Gerber Fmt 4.6, Leading zero omitted, Abs format (unit mm)*
G04 Created by KiCad (PCBNEW (5.0.0)) date 12/18/18 15:11:22*
%MOMM*%
%LPD*%
G01*
G04 APERTURE LIST*
%ADD10C,0.248000*%
%ADD11C,0.300000*%
%ADD12C,0.200000*%
%ADD13C,0.120000*%
%ADD14C,0.150000*%
G04 APERTURE END LIST*
D10*
X179902857Y-53116190D02*
X179902857Y-53872000D01*
X180280761Y-53494095D02*
X179524952Y-53494095D01*
X179288761Y-54249904D02*
X179288761Y-54864000D01*
X179666666Y-54533333D01*
X179666666Y-54675047D01*
X179713904Y-54769523D01*
X179761142Y-54816761D01*
X179855619Y-54864000D01*
X180091809Y-54864000D01*
X180186285Y-54816761D01*
X180233523Y-54769523D01*
X180280761Y-54675047D01*
X180280761Y-54391619D01*
X180233523Y-54297142D01*
X180186285Y-54249904D01*
X179288761Y-55147428D02*
X180280761Y-55478095D01*
X179288761Y-55808761D01*
X179288761Y-56044952D02*
X179288761Y-56659047D01*
X179666666Y-56328380D01*
X179666666Y-56470095D01*
X179713904Y-56564571D01*
X179761142Y-56611809D01*
X179855619Y-56659047D01*
X180091809Y-56659047D01*
X180186285Y-56611809D01*
X180233523Y-56564571D01*
X180280761Y-56470095D01*
X180280761Y-56186666D01*
X180233523Y-56092190D01*
X180186285Y-56044952D01*
X182980285Y-51143428D02*
X183027523Y-51096190D01*
X183074761Y-50954476D01*
X183074761Y-50860000D01*
X183027523Y-50718285D01*
X182933047Y-50623809D01*
X182838571Y-50576571D01*
X182649619Y-50529333D01*
X182507904Y-50529333D01*
X182318952Y-50576571D01*
X182224476Y-50623809D01*
X182130000Y-50718285D01*
X182082761Y-50860000D01*
X182082761Y-50954476D01*
X182130000Y-51096190D01*
X182177238Y-51143428D01*
X182980285Y-52135428D02*
X183027523Y-52088190D01*
X183074761Y-51946476D01*
X183074761Y-51852000D01*
X183027523Y-51710285D01*
X182933047Y-51615809D01*
X182838571Y-51568571D01*
X182649619Y-51521333D01*
X182507904Y-51521333D01*
X182318952Y-51568571D01*
X182224476Y-51615809D01*
X182130000Y-51710285D01*
X182082761Y-51852000D01*
X182082761Y-51946476D01*
X182130000Y-52088190D01*
X182177238Y-52135428D01*
X183074761Y-52560571D02*
X182082761Y-52560571D01*
X182082761Y-52796761D01*
X182130000Y-52938476D01*
X182224476Y-53032952D01*
X182318952Y-53080190D01*
X182507904Y-53127428D01*
X182649619Y-53127428D01*
X182838571Y-53080190D01*
X182933047Y-53032952D01*
X183027523Y-52938476D01*
X183074761Y-52796761D01*
X183074761Y-52560571D01*
X183169238Y-53316380D02*
X183169238Y-54072190D01*
X183074761Y-54308380D02*
X182082761Y-54308380D01*
X183074761Y-54780761D02*
X182082761Y-54780761D01*
X183074761Y-55347619D01*
X182082761Y-55347619D01*
X182082761Y-55678285D02*
X182082761Y-56245142D01*
X183074761Y-55961714D02*
X182082761Y-55961714D01*
X184924000Y-54616190D02*
X184876761Y-54521714D01*
X184876761Y-54380000D01*
X184924000Y-54238285D01*
X185018476Y-54143809D01*
X185112952Y-54096571D01*
X185301904Y-54049333D01*
X185443619Y-54049333D01*
X185632571Y-54096571D01*
X185727047Y-54143809D01*
X185821523Y-54238285D01*
X185868761Y-54380000D01*
X185868761Y-54474476D01*
X185821523Y-54616190D01*
X185774285Y-54663428D01*
X185443619Y-54663428D01*
X185443619Y-54474476D01*
X185868761Y-55088571D02*
X184876761Y-55088571D01*
X185868761Y-55655428D01*
X184876761Y-55655428D01*
X185868761Y-56127809D02*
X184876761Y-56127809D01*
X184876761Y-56364000D01*
X184924000Y-56505714D01*
X185018476Y-56600190D01*
X185112952Y-56647428D01*
X185301904Y-56694666D01*
X185443619Y-56694666D01*
X185632571Y-56647428D01*
X185727047Y-56600190D01*
X185821523Y-56505714D01*
X185868761Y-56364000D01*
X185868761Y-56127809D01*
D11*
X186840285Y-45406571D02*
X185911714Y-45406571D01*
X186411714Y-45978000D01*
X186197428Y-45978000D01*
X186054571Y-46049428D01*
X185983142Y-46120857D01*
X185911714Y-46263714D01*
X185911714Y-46620857D01*
X185983142Y-46763714D01*
X186054571Y-46835142D01*
X186197428Y-46906571D01*
X186626000Y-46906571D01*
X186768857Y-46835142D01*
X186840285Y-46763714D01*
X183054571Y-45549428D02*
X182983142Y-45478000D01*
X182840285Y-45406571D01*
X182483142Y-45406571D01*
X182340285Y-45478000D01*
X182268857Y-45549428D01*
X182197428Y-45692285D01*
X182197428Y-45835142D01*
X182268857Y-46049428D01*
X183126000Y-46906571D01*
X182197428Y-46906571D01*
X178483142Y-46906571D02*
X179340285Y-46906571D01*
X178911714Y-46906571D02*
X178911714Y-45406571D01*
X179054571Y-45620857D01*
X179197428Y-45763714D01*
X179340285Y-45835142D01*
D12*
X178054000Y-45212000D02*
X178054000Y-47244000D01*
X187452000Y-47244000D02*
X187452000Y-45212000D01*
X178054000Y-47244000D02*
X187452000Y-47244000D01*
X88646000Y-81407000D02*
X88646000Y-72136000D01*
X86360000Y-81407000D02*
X88646000Y-81407000D01*
X166624000Y-47498000D02*
X166624000Y-45212000D01*
X160528000Y-47498000D02*
X166624000Y-47498000D01*
X160528000Y-45212000D02*
X160528000Y-47498000D01*
X133096000Y-47244000D02*
X133096000Y-45212000D01*
X123698000Y-47244000D02*
X133096000Y-47244000D01*
X123698000Y-45212000D02*
X123698000Y-47244000D01*
X107188000Y-47244000D02*
X107188000Y-45212000D01*
X93980000Y-47244000D02*
X107188000Y-47244000D01*
X93980000Y-45212000D02*
X93980000Y-47244000D01*
X86360000Y-72136000D02*
X88646000Y-72136000D01*
D10*
X130568000Y-54616190D02*
X130520761Y-54521714D01*
X130520761Y-54380000D01*
X130568000Y-54238285D01*
X130662476Y-54143809D01*
X130756952Y-54096571D01*
X130945904Y-54049333D01*
X131087619Y-54049333D01*
X131276571Y-54096571D01*
X131371047Y-54143809D01*
X131465523Y-54238285D01*
X131512761Y-54380000D01*
X131512761Y-54474476D01*
X131465523Y-54616190D01*
X131418285Y-54663428D01*
X131087619Y-54663428D01*
X131087619Y-54474476D01*
X131512761Y-55088571D02*
X130520761Y-55088571D01*
X131512761Y-55655428D01*
X130520761Y-55655428D01*
X131512761Y-56127809D02*
X130520761Y-56127809D01*
X130520761Y-56364000D01*
X130568000Y-56505714D01*
X130662476Y-56600190D01*
X130756952Y-56647428D01*
X130945904Y-56694666D01*
X131087619Y-56694666D01*
X131276571Y-56647428D01*
X131371047Y-56600190D01*
X131465523Y-56505714D01*
X131512761Y-56364000D01*
X131512761Y-56127809D01*
X128435333Y-50104190D02*
X128435333Y-50576571D01*
X128718761Y-50009714D02*
X127726761Y-50340380D01*
X128718761Y-50671047D01*
X128057428Y-50860000D02*
X128057428Y-51237904D01*
X127726761Y-51001714D02*
X128577047Y-51001714D01*
X128671523Y-51048952D01*
X128718761Y-51143428D01*
X128718761Y-51237904D01*
X128718761Y-51568571D02*
X128057428Y-51568571D01*
X128151904Y-51568571D02*
X128104666Y-51615809D01*
X128057428Y-51710285D01*
X128057428Y-51852000D01*
X128104666Y-51946476D01*
X128199142Y-51993714D01*
X128718761Y-51993714D01*
X128199142Y-51993714D02*
X128104666Y-52040952D01*
X128057428Y-52135428D01*
X128057428Y-52277142D01*
X128104666Y-52371619D01*
X128199142Y-52418857D01*
X128718761Y-52418857D01*
X128813238Y-52655047D02*
X128813238Y-53410857D01*
X128718761Y-53647047D02*
X127726761Y-53647047D01*
X127726761Y-53883238D01*
X127774000Y-54024952D01*
X127868476Y-54119428D01*
X127962952Y-54166666D01*
X128151904Y-54213904D01*
X128293619Y-54213904D01*
X128482571Y-54166666D01*
X128577047Y-54119428D01*
X128671523Y-54024952D01*
X128718761Y-53883238D01*
X128718761Y-53647047D01*
X128718761Y-54780761D02*
X128671523Y-54686285D01*
X128624285Y-54639047D01*
X128529809Y-54591809D01*
X128246380Y-54591809D01*
X128151904Y-54639047D01*
X128104666Y-54686285D01*
X128057428Y-54780761D01*
X128057428Y-54922476D01*
X128104666Y-55016952D01*
X128151904Y-55064190D01*
X128246380Y-55111428D01*
X128529809Y-55111428D01*
X128624285Y-55064190D01*
X128671523Y-55016952D01*
X128718761Y-54922476D01*
X128718761Y-54780761D01*
X128057428Y-55961714D02*
X128718761Y-55961714D01*
X128057428Y-55536571D02*
X128577047Y-55536571D01*
X128671523Y-55583809D01*
X128718761Y-55678285D01*
X128718761Y-55820000D01*
X128671523Y-55914476D01*
X128624285Y-55961714D01*
X128057428Y-56292380D02*
X128057428Y-56670285D01*
X127726761Y-56434095D02*
X128577047Y-56434095D01*
X128671523Y-56481333D01*
X128718761Y-56575809D01*
X128718761Y-56670285D01*
X125546857Y-53116190D02*
X125546857Y-53872000D01*
X125924761Y-53494095D02*
X125168952Y-53494095D01*
X124932761Y-54249904D02*
X124932761Y-54864000D01*
X125310666Y-54533333D01*
X125310666Y-54675047D01*
X125357904Y-54769523D01*
X125405142Y-54816761D01*
X125499619Y-54864000D01*
X125735809Y-54864000D01*
X125830285Y-54816761D01*
X125877523Y-54769523D01*
X125924761Y-54675047D01*
X125924761Y-54391619D01*
X125877523Y-54297142D01*
X125830285Y-54249904D01*
X124932761Y-55147428D02*
X125924761Y-55478095D01*
X124932761Y-55808761D01*
X124932761Y-56044952D02*
X124932761Y-56659047D01*
X125310666Y-56328380D01*
X125310666Y-56470095D01*
X125357904Y-56564571D01*
X125405142Y-56611809D01*
X125499619Y-56659047D01*
X125735809Y-56659047D01*
X125830285Y-56611809D01*
X125877523Y-56564571D01*
X125924761Y-56470095D01*
X125924761Y-56186666D01*
X125877523Y-56092190D01*
X125830285Y-56044952D01*
D11*
X105869714Y-45906571D02*
X105869714Y-46906571D01*
X106226857Y-45335142D02*
X106584000Y-46406571D01*
X105655428Y-46406571D01*
X102941142Y-45406571D02*
X102012571Y-45406571D01*
X102512571Y-45978000D01*
X102298285Y-45978000D01*
X102155428Y-46049428D01*
X102084000Y-46120857D01*
X102012571Y-46263714D01*
X102012571Y-46620857D01*
X102084000Y-46763714D01*
X102155428Y-46835142D01*
X102298285Y-46906571D01*
X102726857Y-46906571D01*
X102869714Y-46835142D01*
X102941142Y-46763714D01*
X99155428Y-45549428D02*
X99084000Y-45478000D01*
X98941142Y-45406571D01*
X98584000Y-45406571D01*
X98441142Y-45478000D01*
X98369714Y-45549428D01*
X98298285Y-45692285D01*
X98298285Y-45835142D01*
X98369714Y-46049428D01*
X99226857Y-46906571D01*
X98298285Y-46906571D01*
X94584000Y-46906571D02*
X95441142Y-46906571D01*
X95012571Y-46906571D02*
X95012571Y-45406571D01*
X95155428Y-45620857D01*
X95298285Y-45763714D01*
X95441142Y-45835142D01*
X132484285Y-45406571D02*
X131555714Y-45406571D01*
X132055714Y-45978000D01*
X131841428Y-45978000D01*
X131698571Y-46049428D01*
X131627142Y-46120857D01*
X131555714Y-46263714D01*
X131555714Y-46620857D01*
X131627142Y-46763714D01*
X131698571Y-46835142D01*
X131841428Y-46906571D01*
X132270000Y-46906571D01*
X132412857Y-46835142D01*
X132484285Y-46763714D01*
X128698571Y-45549428D02*
X128627142Y-45478000D01*
X128484285Y-45406571D01*
X128127142Y-45406571D01*
X127984285Y-45478000D01*
X127912857Y-45549428D01*
X127841428Y-45692285D01*
X127841428Y-45835142D01*
X127912857Y-46049428D01*
X128770000Y-46906571D01*
X127841428Y-46906571D01*
X124127142Y-46906571D02*
X124984285Y-46906571D01*
X124555714Y-46906571D02*
X124555714Y-45406571D01*
X124698571Y-45620857D01*
X124841428Y-45763714D01*
X124984285Y-45835142D01*
X165861714Y-45803428D02*
X165790285Y-45732000D01*
X165647428Y-45660571D01*
X165290285Y-45660571D01*
X165147428Y-45732000D01*
X165076000Y-45803428D01*
X165004571Y-45946285D01*
X165004571Y-46089142D01*
X165076000Y-46303428D01*
X165933142Y-47160571D01*
X165004571Y-47160571D01*
X161290285Y-47160571D02*
X162147428Y-47160571D01*
X161718857Y-47160571D02*
X161718857Y-45660571D01*
X161861714Y-45874857D01*
X162004571Y-46017714D01*
X162147428Y-46089142D01*
D10*
X97275809Y-72656000D02*
X97370285Y-72608761D01*
X97512000Y-72608761D01*
X97653714Y-72656000D01*
X97748190Y-72750476D01*
X97795428Y-72844952D01*
X97842666Y-73033904D01*
X97842666Y-73175619D01*
X97795428Y-73364571D01*
X97748190Y-73459047D01*
X97653714Y-73553523D01*
X97512000Y-73600761D01*
X97417523Y-73600761D01*
X97275809Y-73553523D01*
X97228571Y-73506285D01*
X97228571Y-73175619D01*
X97417523Y-73175619D01*
X96803428Y-73600761D02*
X96803428Y-72608761D01*
X96236571Y-73600761D01*
X96236571Y-72608761D01*
X95764190Y-73600761D02*
X95764190Y-72608761D01*
X95528000Y-72608761D01*
X95386285Y-72656000D01*
X95291809Y-72750476D01*
X95244571Y-72844952D01*
X95197333Y-73033904D01*
X95197333Y-73175619D01*
X95244571Y-73364571D01*
X95291809Y-73459047D01*
X95386285Y-73553523D01*
X95528000Y-73600761D01*
X95764190Y-73600761D01*
X97983619Y-76140761D02*
X97983619Y-75148761D01*
X97652952Y-75857333D01*
X97322285Y-75148761D01*
X97322285Y-76140761D01*
X96991619Y-75479428D02*
X96613714Y-75479428D01*
X96849904Y-75148761D02*
X96849904Y-75999047D01*
X96802666Y-76093523D01*
X96708190Y-76140761D01*
X96613714Y-76140761D01*
X96283047Y-76140761D02*
X96283047Y-75148761D01*
X95857904Y-76140761D02*
X95857904Y-75621142D01*
X95905142Y-75526666D01*
X95999619Y-75479428D01*
X96141333Y-75479428D01*
X96235809Y-75526666D01*
X96283047Y-75573904D01*
X95385523Y-75479428D02*
X95385523Y-76140761D01*
X95385523Y-75573904D02*
X95338285Y-75526666D01*
X95243809Y-75479428D01*
X95102095Y-75479428D01*
X95007619Y-75526666D01*
X94960380Y-75621142D01*
X94960380Y-76140761D01*
X93873904Y-75148761D02*
X93543238Y-76140761D01*
X93212571Y-75148761D01*
X92740190Y-76140761D02*
X92834666Y-76093523D01*
X92881904Y-76046285D01*
X92929142Y-75951809D01*
X92929142Y-75668380D01*
X92881904Y-75573904D01*
X92834666Y-75526666D01*
X92740190Y-75479428D01*
X92598476Y-75479428D01*
X92504000Y-75526666D01*
X92456761Y-75573904D01*
X92409523Y-75668380D01*
X92409523Y-75951809D01*
X92456761Y-76046285D01*
X92504000Y-76093523D01*
X92598476Y-76140761D01*
X92740190Y-76140761D01*
X91559238Y-75479428D02*
X91559238Y-76140761D01*
X91984380Y-75479428D02*
X91984380Y-75999047D01*
X91937142Y-76093523D01*
X91842666Y-76140761D01*
X91700952Y-76140761D01*
X91606476Y-76093523D01*
X91559238Y-76046285D01*
X91228571Y-75479428D02*
X90850666Y-75479428D01*
X91086857Y-75148761D02*
X91086857Y-75999047D01*
X91039619Y-76093523D01*
X90945142Y-76140761D01*
X90850666Y-76140761D01*
X98013809Y-78302857D02*
X97258000Y-78302857D01*
X97635904Y-78680761D02*
X97635904Y-77924952D01*
X96880095Y-77688761D02*
X96266000Y-77688761D01*
X96596666Y-78066666D01*
X96454952Y-78066666D01*
X96360476Y-78113904D01*
X96313238Y-78161142D01*
X96266000Y-78255619D01*
X96266000Y-78491809D01*
X96313238Y-78586285D01*
X96360476Y-78633523D01*
X96454952Y-78680761D01*
X96738380Y-78680761D01*
X96832857Y-78633523D01*
X96880095Y-78586285D01*
X95982571Y-77688761D02*
X95651904Y-78680761D01*
X95321238Y-77688761D01*
X95085047Y-77688761D02*
X94470952Y-77688761D01*
X94801619Y-78066666D01*
X94659904Y-78066666D01*
X94565428Y-78113904D01*
X94518190Y-78161142D01*
X94470952Y-78255619D01*
X94470952Y-78491809D01*
X94518190Y-78586285D01*
X94565428Y-78633523D01*
X94659904Y-78680761D01*
X94943333Y-78680761D01*
X95037809Y-78633523D01*
X95085047Y-78586285D01*
X97795428Y-80842857D02*
X97039619Y-80842857D01*
X97417523Y-81220761D02*
X97417523Y-80464952D01*
X96094857Y-80228761D02*
X96567238Y-80228761D01*
X96614476Y-80701142D01*
X96567238Y-80653904D01*
X96472761Y-80606666D01*
X96236571Y-80606666D01*
X96142095Y-80653904D01*
X96094857Y-80701142D01*
X96047619Y-80795619D01*
X96047619Y-81031809D01*
X96094857Y-81126285D01*
X96142095Y-81173523D01*
X96236571Y-81220761D01*
X96472761Y-81220761D01*
X96567238Y-81173523D01*
X96614476Y-81126285D01*
X95764190Y-80228761D02*
X95433523Y-81220761D01*
X95102857Y-80228761D01*
D11*
X87308571Y-73136571D02*
X88308571Y-73136571D01*
X86737142Y-72779428D02*
X87808571Y-72422285D01*
X87808571Y-73350857D01*
X86808571Y-74922285D02*
X86808571Y-75850857D01*
X87380000Y-75350857D01*
X87380000Y-75565142D01*
X87451428Y-75708000D01*
X87522857Y-75779428D01*
X87665714Y-75850857D01*
X88022857Y-75850857D01*
X88165714Y-75779428D01*
X88237142Y-75708000D01*
X88308571Y-75565142D01*
X88308571Y-75136571D01*
X88237142Y-74993714D01*
X88165714Y-74922285D01*
X86951428Y-77565142D02*
X86880000Y-77636571D01*
X86808571Y-77779428D01*
X86808571Y-78136571D01*
X86880000Y-78279428D01*
X86951428Y-78350857D01*
X87094285Y-78422285D01*
X87237142Y-78422285D01*
X87451428Y-78350857D01*
X88308571Y-77493714D01*
X88308571Y-78422285D01*
X88308571Y-80993714D02*
X88308571Y-80136571D01*
X88308571Y-80565142D02*
X86808571Y-80565142D01*
X87022857Y-80422285D01*
X87165714Y-80279428D01*
X87237142Y-80136571D01*
D10*
X161762761Y-52253904D02*
X162565809Y-52253904D01*
X162660285Y-52301142D01*
X162707523Y-52348380D01*
X162754761Y-52442857D01*
X162754761Y-52631809D01*
X162707523Y-52726285D01*
X162660285Y-52773523D01*
X162565809Y-52820761D01*
X161762761Y-52820761D01*
X161762761Y-53151428D02*
X162754761Y-53482095D01*
X161762761Y-53812761D01*
X161762761Y-54001714D02*
X161762761Y-54568571D01*
X162754761Y-54285142D02*
X161762761Y-54285142D01*
X161762761Y-55088190D02*
X161762761Y-55277142D01*
X161810000Y-55371619D01*
X161904476Y-55466095D01*
X162093428Y-55513333D01*
X162424095Y-55513333D01*
X162613047Y-55466095D01*
X162707523Y-55371619D01*
X162754761Y-55277142D01*
X162754761Y-55088190D01*
X162707523Y-54993714D01*
X162613047Y-54899238D01*
X162424095Y-54852000D01*
X162093428Y-54852000D01*
X161904476Y-54899238D01*
X161810000Y-54993714D01*
X161762761Y-55088190D01*
X161810000Y-56458095D02*
X161762761Y-56363619D01*
X161762761Y-56221904D01*
X161810000Y-56080190D01*
X161904476Y-55985714D01*
X161998952Y-55938476D01*
X162187904Y-55891238D01*
X162329619Y-55891238D01*
X162518571Y-55938476D01*
X162613047Y-55985714D01*
X162707523Y-56080190D01*
X162754761Y-56221904D01*
X162754761Y-56316380D01*
X162707523Y-56458095D01*
X162660285Y-56505333D01*
X162329619Y-56505333D01*
X162329619Y-56316380D01*
X164350000Y-54362190D02*
X164302761Y-54267714D01*
X164302761Y-54126000D01*
X164350000Y-53984285D01*
X164444476Y-53889809D01*
X164538952Y-53842571D01*
X164727904Y-53795333D01*
X164869619Y-53795333D01*
X165058571Y-53842571D01*
X165153047Y-53889809D01*
X165247523Y-53984285D01*
X165294761Y-54126000D01*
X165294761Y-54220476D01*
X165247523Y-54362190D01*
X165200285Y-54409428D01*
X164869619Y-54409428D01*
X164869619Y-54220476D01*
X165294761Y-54834571D02*
X164302761Y-54834571D01*
X165294761Y-55401428D01*
X164302761Y-55401428D01*
X165294761Y-55873809D02*
X164302761Y-55873809D01*
X164302761Y-56110000D01*
X164350000Y-56251714D01*
X164444476Y-56346190D01*
X164538952Y-56393428D01*
X164727904Y-56440666D01*
X164869619Y-56440666D01*
X165058571Y-56393428D01*
X165153047Y-56346190D01*
X165247523Y-56251714D01*
X165294761Y-56110000D01*
X165294761Y-55873809D01*
X104152000Y-54616190D02*
X104104761Y-54521714D01*
X104104761Y-54380000D01*
X104152000Y-54238285D01*
X104246476Y-54143809D01*
X104340952Y-54096571D01*
X104529904Y-54049333D01*
X104671619Y-54049333D01*
X104860571Y-54096571D01*
X104955047Y-54143809D01*
X105049523Y-54238285D01*
X105096761Y-54380000D01*
X105096761Y-54474476D01*
X105049523Y-54616190D01*
X105002285Y-54663428D01*
X104671619Y-54663428D01*
X104671619Y-54474476D01*
X105096761Y-55088571D02*
X104104761Y-55088571D01*
X105096761Y-55655428D01*
X104104761Y-55655428D01*
X105096761Y-56127809D02*
X104104761Y-56127809D01*
X104104761Y-56364000D01*
X104152000Y-56505714D01*
X104246476Y-56600190D01*
X104340952Y-56647428D01*
X104529904Y-56694666D01*
X104671619Y-56694666D01*
X104860571Y-56647428D01*
X104955047Y-56600190D01*
X105049523Y-56505714D01*
X105096761Y-56364000D01*
X105096761Y-56127809D01*
X102403523Y-50942857D02*
X102450761Y-51084571D01*
X102450761Y-51320761D01*
X102403523Y-51415238D01*
X102356285Y-51462476D01*
X102261809Y-51509714D01*
X102167333Y-51509714D01*
X102072857Y-51462476D01*
X102025619Y-51415238D01*
X101978380Y-51320761D01*
X101931142Y-51131809D01*
X101883904Y-51037333D01*
X101836666Y-50990095D01*
X101742190Y-50942857D01*
X101647714Y-50942857D01*
X101553238Y-50990095D01*
X101506000Y-51037333D01*
X101458761Y-51131809D01*
X101458761Y-51368000D01*
X101506000Y-51509714D01*
X102450761Y-52076571D02*
X102403523Y-51982095D01*
X102356285Y-51934857D01*
X102261809Y-51887619D01*
X101978380Y-51887619D01*
X101883904Y-51934857D01*
X101836666Y-51982095D01*
X101789428Y-52076571D01*
X101789428Y-52218285D01*
X101836666Y-52312761D01*
X101883904Y-52360000D01*
X101978380Y-52407238D01*
X102261809Y-52407238D01*
X102356285Y-52360000D01*
X102403523Y-52312761D01*
X102450761Y-52218285D01*
X102450761Y-52076571D01*
X102450761Y-52832380D02*
X101789428Y-52832380D01*
X101458761Y-52832380D02*
X101506000Y-52785142D01*
X101553238Y-52832380D01*
X101506000Y-52879619D01*
X101458761Y-52832380D01*
X101553238Y-52832380D01*
X102450761Y-53446476D02*
X102403523Y-53352000D01*
X102309047Y-53304761D01*
X101458761Y-53304761D01*
X102545238Y-53588190D02*
X102545238Y-54344000D01*
X102403523Y-54532952D02*
X102450761Y-54674666D01*
X102450761Y-54910857D01*
X102403523Y-55005333D01*
X102356285Y-55052571D01*
X102261809Y-55099809D01*
X102167333Y-55099809D01*
X102072857Y-55052571D01*
X102025619Y-55005333D01*
X101978380Y-54910857D01*
X101931142Y-54721904D01*
X101883904Y-54627428D01*
X101836666Y-54580190D01*
X101742190Y-54532952D01*
X101647714Y-54532952D01*
X101553238Y-54580190D01*
X101506000Y-54627428D01*
X101458761Y-54721904D01*
X101458761Y-54958095D01*
X101506000Y-55099809D01*
X102403523Y-55950095D02*
X102450761Y-55855619D01*
X102450761Y-55666666D01*
X102403523Y-55572190D01*
X102356285Y-55524952D01*
X102261809Y-55477714D01*
X101978380Y-55477714D01*
X101883904Y-55524952D01*
X101836666Y-55572190D01*
X101789428Y-55666666D01*
X101789428Y-55855619D01*
X101836666Y-55950095D01*
X102450761Y-56375238D02*
X101458761Y-56375238D01*
X102072857Y-56469714D02*
X102450761Y-56753142D01*
X101789428Y-56753142D02*
X102167333Y-56375238D01*
X99461523Y-50310952D02*
X99508761Y-50452666D01*
X99508761Y-50688857D01*
X99461523Y-50783333D01*
X99414285Y-50830571D01*
X99319809Y-50877809D01*
X99225333Y-50877809D01*
X99130857Y-50830571D01*
X99083619Y-50783333D01*
X99036380Y-50688857D01*
X98989142Y-50499904D01*
X98941904Y-50405428D01*
X98894666Y-50358190D01*
X98800190Y-50310952D01*
X98705714Y-50310952D01*
X98611238Y-50358190D01*
X98564000Y-50405428D01*
X98516761Y-50499904D01*
X98516761Y-50736095D01*
X98564000Y-50877809D01*
X99508761Y-51444666D02*
X99461523Y-51350190D01*
X99414285Y-51302952D01*
X99319809Y-51255714D01*
X99036380Y-51255714D01*
X98941904Y-51302952D01*
X98894666Y-51350190D01*
X98847428Y-51444666D01*
X98847428Y-51586380D01*
X98894666Y-51680857D01*
X98941904Y-51728095D01*
X99036380Y-51775333D01*
X99319809Y-51775333D01*
X99414285Y-51728095D01*
X99461523Y-51680857D01*
X99508761Y-51586380D01*
X99508761Y-51444666D01*
X99508761Y-52200476D02*
X98847428Y-52200476D01*
X98516761Y-52200476D02*
X98564000Y-52153238D01*
X98611238Y-52200476D01*
X98564000Y-52247714D01*
X98516761Y-52200476D01*
X98611238Y-52200476D01*
X99508761Y-52814571D02*
X99461523Y-52720095D01*
X99367047Y-52672857D01*
X98516761Y-52672857D01*
X99603238Y-52956285D02*
X99603238Y-53712095D01*
X99508761Y-53948285D02*
X98516761Y-53948285D01*
X98516761Y-54184476D01*
X98564000Y-54326190D01*
X98658476Y-54420666D01*
X98752952Y-54467904D01*
X98941904Y-54515142D01*
X99083619Y-54515142D01*
X99272571Y-54467904D01*
X99367047Y-54420666D01*
X99461523Y-54326190D01*
X99508761Y-54184476D01*
X99508761Y-53948285D01*
X99508761Y-55365428D02*
X98989142Y-55365428D01*
X98894666Y-55318190D01*
X98847428Y-55223714D01*
X98847428Y-55034761D01*
X98894666Y-54940285D01*
X99461523Y-55365428D02*
X99508761Y-55270952D01*
X99508761Y-55034761D01*
X99461523Y-54940285D01*
X99367047Y-54893047D01*
X99272571Y-54893047D01*
X99178095Y-54940285D01*
X99130857Y-55034761D01*
X99130857Y-55270952D01*
X99083619Y-55365428D01*
X98847428Y-55696095D02*
X98847428Y-56074000D01*
X98516761Y-55837809D02*
X99367047Y-55837809D01*
X99461523Y-55885047D01*
X99508761Y-55979523D01*
X99508761Y-56074000D01*
X99508761Y-56829809D02*
X98989142Y-56829809D01*
X98894666Y-56782571D01*
X98847428Y-56688095D01*
X98847428Y-56499142D01*
X98894666Y-56404666D01*
X99461523Y-56829809D02*
X99508761Y-56735333D01*
X99508761Y-56499142D01*
X99461523Y-56404666D01*
X99367047Y-56357428D01*
X99272571Y-56357428D01*
X99178095Y-56404666D01*
X99130857Y-56499142D01*
X99130857Y-56735333D01*
X99083619Y-56829809D01*
X96844857Y-53116190D02*
X96844857Y-53872000D01*
X97222761Y-53494095D02*
X96466952Y-53494095D01*
X96230761Y-54249904D02*
X96230761Y-54864000D01*
X96608666Y-54533333D01*
X96608666Y-54675047D01*
X96655904Y-54769523D01*
X96703142Y-54816761D01*
X96797619Y-54864000D01*
X97033809Y-54864000D01*
X97128285Y-54816761D01*
X97175523Y-54769523D01*
X97222761Y-54675047D01*
X97222761Y-54391619D01*
X97175523Y-54297142D01*
X97128285Y-54249904D01*
X96230761Y-55147428D02*
X97222761Y-55478095D01*
X96230761Y-55808761D01*
X96230761Y-56044952D02*
X96230761Y-56659047D01*
X96608666Y-56328380D01*
X96608666Y-56470095D01*
X96655904Y-56564571D01*
X96703142Y-56611809D01*
X96797619Y-56659047D01*
X97033809Y-56659047D01*
X97128285Y-56611809D01*
X97175523Y-56564571D01*
X97222761Y-56470095D01*
X97222761Y-56186666D01*
X97175523Y-56092190D01*
X97128285Y-56044952D01*
D13*
G04 #@! TO.C,R4*
X104396000Y-74720267D02*
X104396000Y-74377733D01*
X103376000Y-74720267D02*
X103376000Y-74377733D01*
G04 #@! TO.C,R2*
X98239733Y-60450000D02*
X98582267Y-60450000D01*
X98239733Y-61470000D02*
X98582267Y-61470000D01*
G04 #@! TO.C,R3*
X127223733Y-61978000D02*
X127566267Y-61978000D01*
X127223733Y-60958000D02*
X127566267Y-60958000D01*
G04 #@! TO.C,R13*
X158691733Y-58803000D02*
X159034267Y-58803000D01*
X158691733Y-57783000D02*
X159034267Y-57783000D01*
G04 #@! TO.C,R4*
D14*
X104338380Y-71715333D02*
X103862190Y-71382000D01*
X104338380Y-71143904D02*
X103338380Y-71143904D01*
X103338380Y-71524857D01*
X103386000Y-71620095D01*
X103433619Y-71667714D01*
X103528857Y-71715333D01*
X103671714Y-71715333D01*
X103766952Y-71667714D01*
X103814571Y-71620095D01*
X103862190Y-71524857D01*
X103862190Y-71143904D01*
X103671714Y-72572476D02*
X104338380Y-72572476D01*
X103290761Y-72334380D02*
X104005047Y-72096285D01*
X104005047Y-72715333D01*
G04 #@! TO.C,R2*
X95924666Y-61412380D02*
X96258000Y-60936190D01*
X96496095Y-61412380D02*
X96496095Y-60412380D01*
X96115142Y-60412380D01*
X96019904Y-60460000D01*
X95972285Y-60507619D01*
X95924666Y-60602857D01*
X95924666Y-60745714D01*
X95972285Y-60840952D01*
X96019904Y-60888571D01*
X96115142Y-60936190D01*
X96496095Y-60936190D01*
X95543714Y-60507619D02*
X95496095Y-60460000D01*
X95400857Y-60412380D01*
X95162761Y-60412380D01*
X95067523Y-60460000D01*
X95019904Y-60507619D01*
X94972285Y-60602857D01*
X94972285Y-60698095D01*
X95019904Y-60840952D01*
X95591333Y-61412380D01*
X94972285Y-61412380D01*
G04 #@! TO.C,R3*
X124880666Y-61920380D02*
X125214000Y-61444190D01*
X125452095Y-61920380D02*
X125452095Y-60920380D01*
X125071142Y-60920380D01*
X124975904Y-60968000D01*
X124928285Y-61015619D01*
X124880666Y-61110857D01*
X124880666Y-61253714D01*
X124928285Y-61348952D01*
X124975904Y-61396571D01*
X125071142Y-61444190D01*
X125452095Y-61444190D01*
X124547333Y-60920380D02*
X123928285Y-60920380D01*
X124261619Y-61301333D01*
X124118761Y-61301333D01*
X124023523Y-61348952D01*
X123975904Y-61396571D01*
X123928285Y-61491809D01*
X123928285Y-61729904D01*
X123975904Y-61825142D01*
X124023523Y-61872761D01*
X124118761Y-61920380D01*
X124404476Y-61920380D01*
X124499714Y-61872761D01*
X124547333Y-61825142D01*
G04 #@! TO.C,R13*
X159505857Y-60175380D02*
X159839190Y-59699190D01*
X160077285Y-60175380D02*
X160077285Y-59175380D01*
X159696333Y-59175380D01*
X159601095Y-59223000D01*
X159553476Y-59270619D01*
X159505857Y-59365857D01*
X159505857Y-59508714D01*
X159553476Y-59603952D01*
X159601095Y-59651571D01*
X159696333Y-59699190D01*
X160077285Y-59699190D01*
X158553476Y-60175380D02*
X159124904Y-60175380D01*
X158839190Y-60175380D02*
X158839190Y-59175380D01*
X158934428Y-59318238D01*
X159029666Y-59413476D01*
X159124904Y-59461095D01*
X158220142Y-59175380D02*
X157601095Y-59175380D01*
X157934428Y-59556333D01*
X157791571Y-59556333D01*
X157696333Y-59603952D01*
X157648714Y-59651571D01*
X157601095Y-59746809D01*
X157601095Y-59984904D01*
X157648714Y-60080142D01*
X157696333Y-60127761D01*
X157791571Y-60175380D01*
X158077285Y-60175380D01*
X158172523Y-60127761D01*
X158220142Y-60080142D01*
G04 #@! TD*
M02*
