G04 #@! TF.GenerationSoftware,KiCad,Pcbnew,(5.0.2)-1*
G04 #@! TF.CreationDate,2019-03-17T15:31:57-05:00*
G04 #@! TF.ProjectId,SRASensorBoard_Hardware,53524153-656e-4736-9f72-426f6172645f,rev?*
G04 #@! TF.SameCoordinates,Original*
G04 #@! TF.FileFunction,Soldermask,Top*
G04 #@! TF.FilePolarity,Negative*
%FSLAX46Y46*%
G04 Gerber Fmt 4.6, Leading zero omitted, Abs format (unit mm)*
G04 Created by KiCad (PCBNEW (5.0.2)-1) date 3/17/2019 3:31:57 PM*
%MOMM*%
%LPD*%
G01*
G04 APERTURE LIST*
%ADD10C,0.100000*%
G04 APERTURE END LIST*
D10*
G36*
X174096288Y-108743447D02*
X174189023Y-108761893D01*
X174363732Y-108834260D01*
X174518873Y-108937922D01*
X174520968Y-108939322D01*
X174654680Y-109073034D01*
X174759743Y-109230272D01*
X174832109Y-109404980D01*
X174869001Y-109590448D01*
X174869001Y-109779554D01*
X174832109Y-109965022D01*
X174759743Y-110139730D01*
X174654680Y-110296968D01*
X174520968Y-110430680D01*
X174520965Y-110430682D01*
X174363732Y-110535742D01*
X174189023Y-110608109D01*
X174096288Y-110626555D01*
X174003554Y-110645001D01*
X173814448Y-110645001D01*
X173721714Y-110626555D01*
X173628979Y-110608109D01*
X173454270Y-110535742D01*
X173297037Y-110430682D01*
X173297034Y-110430680D01*
X173163322Y-110296968D01*
X173058259Y-110139730D01*
X172985893Y-109965022D01*
X172949001Y-109779554D01*
X172949001Y-109590448D01*
X172985893Y-109404980D01*
X173058259Y-109230272D01*
X173163322Y-109073034D01*
X173297034Y-108939322D01*
X173299129Y-108937922D01*
X173454270Y-108834260D01*
X173628979Y-108761893D01*
X173721714Y-108743447D01*
X173814448Y-108725001D01*
X174003554Y-108725001D01*
X174096288Y-108743447D01*
X174096288Y-108743447D01*
G37*
G36*
X87736288Y-108743447D02*
X87829023Y-108761893D01*
X88003732Y-108834260D01*
X88158873Y-108937922D01*
X88160968Y-108939322D01*
X88294680Y-109073034D01*
X88399743Y-109230272D01*
X88472109Y-109404980D01*
X88509001Y-109590448D01*
X88509001Y-109779554D01*
X88472109Y-109965022D01*
X88399743Y-110139730D01*
X88294680Y-110296968D01*
X88160968Y-110430680D01*
X88160965Y-110430682D01*
X88003732Y-110535742D01*
X87829023Y-110608109D01*
X87736288Y-110626555D01*
X87643554Y-110645001D01*
X87454448Y-110645001D01*
X87361714Y-110626555D01*
X87268979Y-110608109D01*
X87094270Y-110535742D01*
X86937037Y-110430682D01*
X86937034Y-110430680D01*
X86803322Y-110296968D01*
X86698259Y-110139730D01*
X86625893Y-109965022D01*
X86589001Y-109779554D01*
X86589001Y-109590448D01*
X86625893Y-109404980D01*
X86698259Y-109230272D01*
X86803322Y-109073034D01*
X86937034Y-108939322D01*
X86939129Y-108937922D01*
X87094270Y-108834260D01*
X87268979Y-108761893D01*
X87361714Y-108743447D01*
X87454448Y-108725001D01*
X87643554Y-108725001D01*
X87736288Y-108743447D01*
X87736288Y-108743447D01*
G37*
G36*
X151236288Y-108743447D02*
X151329023Y-108761893D01*
X151503732Y-108834260D01*
X151658873Y-108937922D01*
X151660968Y-108939322D01*
X151794680Y-109073034D01*
X151899743Y-109230272D01*
X151972109Y-109404980D01*
X152009001Y-109590448D01*
X152009001Y-109779554D01*
X151972109Y-109965022D01*
X151899743Y-110139730D01*
X151794680Y-110296968D01*
X151660968Y-110430680D01*
X151660965Y-110430682D01*
X151503732Y-110535742D01*
X151329023Y-110608109D01*
X151236288Y-110626555D01*
X151143554Y-110645001D01*
X150954448Y-110645001D01*
X150861714Y-110626555D01*
X150768979Y-110608109D01*
X150594270Y-110535742D01*
X150437037Y-110430682D01*
X150437034Y-110430680D01*
X150303322Y-110296968D01*
X150198259Y-110139730D01*
X150125893Y-109965022D01*
X150089001Y-109779554D01*
X150089001Y-109590448D01*
X150125893Y-109404980D01*
X150198259Y-109230272D01*
X150303322Y-109073034D01*
X150437034Y-108939322D01*
X150439129Y-108937922D01*
X150594270Y-108834260D01*
X150768979Y-108761893D01*
X150861714Y-108743447D01*
X150954448Y-108725001D01*
X151143554Y-108725001D01*
X151236288Y-108743447D01*
X151236288Y-108743447D01*
G37*
G36*
X166476288Y-108743447D02*
X166569023Y-108761893D01*
X166743732Y-108834260D01*
X166898873Y-108937922D01*
X166900968Y-108939322D01*
X167034680Y-109073034D01*
X167139743Y-109230272D01*
X167212109Y-109404980D01*
X167249001Y-109590448D01*
X167249001Y-109779554D01*
X167212109Y-109965022D01*
X167139743Y-110139730D01*
X167034680Y-110296968D01*
X166900968Y-110430680D01*
X166900965Y-110430682D01*
X166743732Y-110535742D01*
X166569023Y-110608109D01*
X166476288Y-110626555D01*
X166383554Y-110645001D01*
X166194448Y-110645001D01*
X166101714Y-110626555D01*
X166008979Y-110608109D01*
X165834270Y-110535742D01*
X165677037Y-110430682D01*
X165677034Y-110430680D01*
X165543322Y-110296968D01*
X165438259Y-110139730D01*
X165365893Y-109965022D01*
X165329001Y-109779554D01*
X165329001Y-109590448D01*
X165365893Y-109404980D01*
X165438259Y-109230272D01*
X165543322Y-109073034D01*
X165677034Y-108939322D01*
X165679129Y-108937922D01*
X165834270Y-108834260D01*
X166008979Y-108761893D01*
X166101714Y-108743447D01*
X166194448Y-108725001D01*
X166383554Y-108725001D01*
X166476288Y-108743447D01*
X166476288Y-108743447D01*
G37*
G36*
X153776288Y-108743447D02*
X153869023Y-108761893D01*
X154043732Y-108834260D01*
X154198873Y-108937922D01*
X154200968Y-108939322D01*
X154334680Y-109073034D01*
X154439743Y-109230272D01*
X154512109Y-109404980D01*
X154549001Y-109590448D01*
X154549001Y-109779554D01*
X154512109Y-109965022D01*
X154439743Y-110139730D01*
X154334680Y-110296968D01*
X154200968Y-110430680D01*
X154200965Y-110430682D01*
X154043732Y-110535742D01*
X153869023Y-110608109D01*
X153776288Y-110626555D01*
X153683554Y-110645001D01*
X153494448Y-110645001D01*
X153401714Y-110626555D01*
X153308979Y-110608109D01*
X153134270Y-110535742D01*
X152977037Y-110430682D01*
X152977034Y-110430680D01*
X152843322Y-110296968D01*
X152738259Y-110139730D01*
X152665893Y-109965022D01*
X152629001Y-109779554D01*
X152629001Y-109590448D01*
X152665893Y-109404980D01*
X152738259Y-109230272D01*
X152843322Y-109073034D01*
X152977034Y-108939322D01*
X152979129Y-108937922D01*
X153134270Y-108834260D01*
X153308979Y-108761893D01*
X153401714Y-108743447D01*
X153494448Y-108725001D01*
X153683554Y-108725001D01*
X153776288Y-108743447D01*
X153776288Y-108743447D01*
G37*
G36*
X156316288Y-108743447D02*
X156409023Y-108761893D01*
X156583732Y-108834260D01*
X156738873Y-108937922D01*
X156740968Y-108939322D01*
X156874680Y-109073034D01*
X156979743Y-109230272D01*
X157052109Y-109404980D01*
X157089001Y-109590448D01*
X157089001Y-109779554D01*
X157052109Y-109965022D01*
X156979743Y-110139730D01*
X156874680Y-110296968D01*
X156740968Y-110430680D01*
X156740965Y-110430682D01*
X156583732Y-110535742D01*
X156409023Y-110608109D01*
X156316288Y-110626555D01*
X156223554Y-110645001D01*
X156034448Y-110645001D01*
X155941714Y-110626555D01*
X155848979Y-110608109D01*
X155674270Y-110535742D01*
X155517037Y-110430682D01*
X155517034Y-110430680D01*
X155383322Y-110296968D01*
X155278259Y-110139730D01*
X155205893Y-109965022D01*
X155169001Y-109779554D01*
X155169001Y-109590448D01*
X155205893Y-109404980D01*
X155278259Y-109230272D01*
X155383322Y-109073034D01*
X155517034Y-108939322D01*
X155519129Y-108937922D01*
X155674270Y-108834260D01*
X155848979Y-108761893D01*
X155941714Y-108743447D01*
X156034448Y-108725001D01*
X156223554Y-108725001D01*
X156316288Y-108743447D01*
X156316288Y-108743447D01*
G37*
G36*
X158856288Y-108743447D02*
X158949023Y-108761893D01*
X159123732Y-108834260D01*
X159278873Y-108937922D01*
X159280968Y-108939322D01*
X159414680Y-109073034D01*
X159519743Y-109230272D01*
X159592109Y-109404980D01*
X159629001Y-109590448D01*
X159629001Y-109779554D01*
X159592109Y-109965022D01*
X159519743Y-110139730D01*
X159414680Y-110296968D01*
X159280968Y-110430680D01*
X159280965Y-110430682D01*
X159123732Y-110535742D01*
X158949023Y-110608109D01*
X158856288Y-110626555D01*
X158763554Y-110645001D01*
X158574448Y-110645001D01*
X158481714Y-110626555D01*
X158388979Y-110608109D01*
X158214270Y-110535742D01*
X158057037Y-110430682D01*
X158057034Y-110430680D01*
X157923322Y-110296968D01*
X157818259Y-110139730D01*
X157745893Y-109965022D01*
X157709001Y-109779554D01*
X157709001Y-109590448D01*
X157745893Y-109404980D01*
X157818259Y-109230272D01*
X157923322Y-109073034D01*
X158057034Y-108939322D01*
X158059129Y-108937922D01*
X158214270Y-108834260D01*
X158388979Y-108761893D01*
X158481714Y-108743447D01*
X158574448Y-108725001D01*
X158763554Y-108725001D01*
X158856288Y-108743447D01*
X158856288Y-108743447D01*
G37*
G36*
X161396288Y-108743447D02*
X161489023Y-108761893D01*
X161663732Y-108834260D01*
X161818873Y-108937922D01*
X161820968Y-108939322D01*
X161954680Y-109073034D01*
X162059743Y-109230272D01*
X162132109Y-109404980D01*
X162169001Y-109590448D01*
X162169001Y-109779554D01*
X162132109Y-109965022D01*
X162059743Y-110139730D01*
X161954680Y-110296968D01*
X161820968Y-110430680D01*
X161820965Y-110430682D01*
X161663732Y-110535742D01*
X161489023Y-110608109D01*
X161396288Y-110626555D01*
X161303554Y-110645001D01*
X161114448Y-110645001D01*
X161021714Y-110626555D01*
X160928979Y-110608109D01*
X160754270Y-110535742D01*
X160597037Y-110430682D01*
X160597034Y-110430680D01*
X160463322Y-110296968D01*
X160358259Y-110139730D01*
X160285893Y-109965022D01*
X160249001Y-109779554D01*
X160249001Y-109590448D01*
X160285893Y-109404980D01*
X160358259Y-109230272D01*
X160463322Y-109073034D01*
X160597034Y-108939322D01*
X160599129Y-108937922D01*
X160754270Y-108834260D01*
X160928979Y-108761893D01*
X161021714Y-108743447D01*
X161114448Y-108725001D01*
X161303554Y-108725001D01*
X161396288Y-108743447D01*
X161396288Y-108743447D01*
G37*
G36*
X163936288Y-108743447D02*
X164029023Y-108761893D01*
X164203732Y-108834260D01*
X164358873Y-108937922D01*
X164360968Y-108939322D01*
X164494680Y-109073034D01*
X164599743Y-109230272D01*
X164672109Y-109404980D01*
X164709001Y-109590448D01*
X164709001Y-109779554D01*
X164672109Y-109965022D01*
X164599743Y-110139730D01*
X164494680Y-110296968D01*
X164360968Y-110430680D01*
X164360965Y-110430682D01*
X164203732Y-110535742D01*
X164029023Y-110608109D01*
X163936288Y-110626555D01*
X163843554Y-110645001D01*
X163654448Y-110645001D01*
X163561714Y-110626555D01*
X163468979Y-110608109D01*
X163294270Y-110535742D01*
X163137037Y-110430682D01*
X163137034Y-110430680D01*
X163003322Y-110296968D01*
X162898259Y-110139730D01*
X162825893Y-109965022D01*
X162789001Y-109779554D01*
X162789001Y-109590448D01*
X162825893Y-109404980D01*
X162898259Y-109230272D01*
X163003322Y-109073034D01*
X163137034Y-108939322D01*
X163139129Y-108937922D01*
X163294270Y-108834260D01*
X163468979Y-108761893D01*
X163561714Y-108743447D01*
X163654448Y-108725001D01*
X163843554Y-108725001D01*
X163936288Y-108743447D01*
X163936288Y-108743447D01*
G37*
G36*
X169016288Y-108743447D02*
X169109023Y-108761893D01*
X169283732Y-108834260D01*
X169438873Y-108937922D01*
X169440968Y-108939322D01*
X169574680Y-109073034D01*
X169679743Y-109230272D01*
X169752109Y-109404980D01*
X169789001Y-109590448D01*
X169789001Y-109779554D01*
X169752109Y-109965022D01*
X169679743Y-110139730D01*
X169574680Y-110296968D01*
X169440968Y-110430680D01*
X169440965Y-110430682D01*
X169283732Y-110535742D01*
X169109023Y-110608109D01*
X169016288Y-110626555D01*
X168923554Y-110645001D01*
X168734448Y-110645001D01*
X168641714Y-110626555D01*
X168548979Y-110608109D01*
X168374270Y-110535742D01*
X168217037Y-110430682D01*
X168217034Y-110430680D01*
X168083322Y-110296968D01*
X167978259Y-110139730D01*
X167905893Y-109965022D01*
X167869001Y-109779554D01*
X167869001Y-109590448D01*
X167905893Y-109404980D01*
X167978259Y-109230272D01*
X168083322Y-109073034D01*
X168217034Y-108939322D01*
X168219129Y-108937922D01*
X168374270Y-108834260D01*
X168548979Y-108761893D01*
X168641714Y-108743447D01*
X168734448Y-108725001D01*
X168923554Y-108725001D01*
X169016288Y-108743447D01*
X169016288Y-108743447D01*
G37*
G36*
X171556288Y-108743447D02*
X171649023Y-108761893D01*
X171823732Y-108834260D01*
X171978873Y-108937922D01*
X171980968Y-108939322D01*
X172114680Y-109073034D01*
X172219743Y-109230272D01*
X172292109Y-109404980D01*
X172329001Y-109590448D01*
X172329001Y-109779554D01*
X172292109Y-109965022D01*
X172219743Y-110139730D01*
X172114680Y-110296968D01*
X171980968Y-110430680D01*
X171980965Y-110430682D01*
X171823732Y-110535742D01*
X171649023Y-110608109D01*
X171556288Y-110626555D01*
X171463554Y-110645001D01*
X171274448Y-110645001D01*
X171181714Y-110626555D01*
X171088979Y-110608109D01*
X170914270Y-110535742D01*
X170757037Y-110430682D01*
X170757034Y-110430680D01*
X170623322Y-110296968D01*
X170518259Y-110139730D01*
X170445893Y-109965022D01*
X170409001Y-109779554D01*
X170409001Y-109590448D01*
X170445893Y-109404980D01*
X170518259Y-109230272D01*
X170623322Y-109073034D01*
X170757034Y-108939322D01*
X170759129Y-108937922D01*
X170914270Y-108834260D01*
X171088979Y-108761893D01*
X171181714Y-108743447D01*
X171274448Y-108725001D01*
X171463554Y-108725001D01*
X171556288Y-108743447D01*
X171556288Y-108743447D01*
G37*
G36*
X92816288Y-108743447D02*
X92909023Y-108761893D01*
X93083732Y-108834260D01*
X93238873Y-108937922D01*
X93240968Y-108939322D01*
X93374680Y-109073034D01*
X93479743Y-109230272D01*
X93552109Y-109404980D01*
X93589001Y-109590448D01*
X93589001Y-109779554D01*
X93552109Y-109965022D01*
X93479743Y-110139730D01*
X93374680Y-110296968D01*
X93240968Y-110430680D01*
X93240965Y-110430682D01*
X93083732Y-110535742D01*
X92909023Y-110608109D01*
X92816288Y-110626555D01*
X92723554Y-110645001D01*
X92534448Y-110645001D01*
X92441714Y-110626555D01*
X92348979Y-110608109D01*
X92174270Y-110535742D01*
X92017037Y-110430682D01*
X92017034Y-110430680D01*
X91883322Y-110296968D01*
X91778259Y-110139730D01*
X91705893Y-109965022D01*
X91669001Y-109779554D01*
X91669001Y-109590448D01*
X91705893Y-109404980D01*
X91778259Y-109230272D01*
X91883322Y-109073034D01*
X92017034Y-108939322D01*
X92019129Y-108937922D01*
X92174270Y-108834260D01*
X92348979Y-108761893D01*
X92441714Y-108743447D01*
X92534448Y-108725001D01*
X92723554Y-108725001D01*
X92816288Y-108743447D01*
X92816288Y-108743447D01*
G37*
G36*
X90276288Y-108743447D02*
X90369023Y-108761893D01*
X90543732Y-108834260D01*
X90698873Y-108937922D01*
X90700968Y-108939322D01*
X90834680Y-109073034D01*
X90939743Y-109230272D01*
X91012109Y-109404980D01*
X91049001Y-109590448D01*
X91049001Y-109779554D01*
X91012109Y-109965022D01*
X90939743Y-110139730D01*
X90834680Y-110296968D01*
X90700968Y-110430680D01*
X90700965Y-110430682D01*
X90543732Y-110535742D01*
X90369023Y-110608109D01*
X90276288Y-110626555D01*
X90183554Y-110645001D01*
X89994448Y-110645001D01*
X89901714Y-110626555D01*
X89808979Y-110608109D01*
X89634270Y-110535742D01*
X89477037Y-110430682D01*
X89477034Y-110430680D01*
X89343322Y-110296968D01*
X89238259Y-110139730D01*
X89165893Y-109965022D01*
X89129001Y-109779554D01*
X89129001Y-109590448D01*
X89165893Y-109404980D01*
X89238259Y-109230272D01*
X89343322Y-109073034D01*
X89477034Y-108939322D01*
X89479129Y-108937922D01*
X89634270Y-108834260D01*
X89808979Y-108761893D01*
X89901714Y-108743447D01*
X89994448Y-108725001D01*
X90183554Y-108725001D01*
X90276288Y-108743447D01*
X90276288Y-108743447D01*
G37*
G36*
X110596288Y-108743447D02*
X110689023Y-108761893D01*
X110863732Y-108834260D01*
X111018873Y-108937922D01*
X111020968Y-108939322D01*
X111154680Y-109073034D01*
X111259743Y-109230272D01*
X111332109Y-109404980D01*
X111369001Y-109590448D01*
X111369001Y-109779554D01*
X111332109Y-109965022D01*
X111259743Y-110139730D01*
X111154680Y-110296968D01*
X111020968Y-110430680D01*
X111020965Y-110430682D01*
X110863732Y-110535742D01*
X110689023Y-110608109D01*
X110596288Y-110626555D01*
X110503554Y-110645001D01*
X110314448Y-110645001D01*
X110221714Y-110626555D01*
X110128979Y-110608109D01*
X109954270Y-110535742D01*
X109797037Y-110430682D01*
X109797034Y-110430680D01*
X109663322Y-110296968D01*
X109558259Y-110139730D01*
X109485893Y-109965022D01*
X109449001Y-109779554D01*
X109449001Y-109590448D01*
X109485893Y-109404980D01*
X109558259Y-109230272D01*
X109663322Y-109073034D01*
X109797034Y-108939322D01*
X109799129Y-108937922D01*
X109954270Y-108834260D01*
X110128979Y-108761893D01*
X110221714Y-108743447D01*
X110314448Y-108725001D01*
X110503554Y-108725001D01*
X110596288Y-108743447D01*
X110596288Y-108743447D01*
G37*
G36*
X108056288Y-108743447D02*
X108149023Y-108761893D01*
X108323732Y-108834260D01*
X108478873Y-108937922D01*
X108480968Y-108939322D01*
X108614680Y-109073034D01*
X108719743Y-109230272D01*
X108792109Y-109404980D01*
X108829001Y-109590448D01*
X108829001Y-109779554D01*
X108792109Y-109965022D01*
X108719743Y-110139730D01*
X108614680Y-110296968D01*
X108480968Y-110430680D01*
X108480965Y-110430682D01*
X108323732Y-110535742D01*
X108149023Y-110608109D01*
X108056288Y-110626555D01*
X107963554Y-110645001D01*
X107774448Y-110645001D01*
X107681714Y-110626555D01*
X107588979Y-110608109D01*
X107414270Y-110535742D01*
X107257037Y-110430682D01*
X107257034Y-110430680D01*
X107123322Y-110296968D01*
X107018259Y-110139730D01*
X106945893Y-109965022D01*
X106909001Y-109779554D01*
X106909001Y-109590448D01*
X106945893Y-109404980D01*
X107018259Y-109230272D01*
X107123322Y-109073034D01*
X107257034Y-108939322D01*
X107259129Y-108937922D01*
X107414270Y-108834260D01*
X107588979Y-108761893D01*
X107681714Y-108743447D01*
X107774448Y-108725001D01*
X107963554Y-108725001D01*
X108056288Y-108743447D01*
X108056288Y-108743447D01*
G37*
G36*
X105516288Y-108743447D02*
X105609023Y-108761893D01*
X105783732Y-108834260D01*
X105938873Y-108937922D01*
X105940968Y-108939322D01*
X106074680Y-109073034D01*
X106179743Y-109230272D01*
X106252109Y-109404980D01*
X106289001Y-109590448D01*
X106289001Y-109779554D01*
X106252109Y-109965022D01*
X106179743Y-110139730D01*
X106074680Y-110296968D01*
X105940968Y-110430680D01*
X105940965Y-110430682D01*
X105783732Y-110535742D01*
X105609023Y-110608109D01*
X105516288Y-110626555D01*
X105423554Y-110645001D01*
X105234448Y-110645001D01*
X105141714Y-110626555D01*
X105048979Y-110608109D01*
X104874270Y-110535742D01*
X104717037Y-110430682D01*
X104717034Y-110430680D01*
X104583322Y-110296968D01*
X104478259Y-110139730D01*
X104405893Y-109965022D01*
X104369001Y-109779554D01*
X104369001Y-109590448D01*
X104405893Y-109404980D01*
X104478259Y-109230272D01*
X104583322Y-109073034D01*
X104717034Y-108939322D01*
X104719129Y-108937922D01*
X104874270Y-108834260D01*
X105048979Y-108761893D01*
X105141714Y-108743447D01*
X105234448Y-108725001D01*
X105423554Y-108725001D01*
X105516288Y-108743447D01*
X105516288Y-108743447D01*
G37*
G36*
X100436288Y-108743447D02*
X100529023Y-108761893D01*
X100703732Y-108834260D01*
X100858873Y-108937922D01*
X100860968Y-108939322D01*
X100994680Y-109073034D01*
X101099743Y-109230272D01*
X101172109Y-109404980D01*
X101209001Y-109590448D01*
X101209001Y-109779554D01*
X101172109Y-109965022D01*
X101099743Y-110139730D01*
X100994680Y-110296968D01*
X100860968Y-110430680D01*
X100860965Y-110430682D01*
X100703732Y-110535742D01*
X100529023Y-110608109D01*
X100436288Y-110626555D01*
X100343554Y-110645001D01*
X100154448Y-110645001D01*
X100061714Y-110626555D01*
X99968979Y-110608109D01*
X99794270Y-110535742D01*
X99637037Y-110430682D01*
X99637034Y-110430680D01*
X99503322Y-110296968D01*
X99398259Y-110139730D01*
X99325893Y-109965022D01*
X99289001Y-109779554D01*
X99289001Y-109590448D01*
X99325893Y-109404980D01*
X99398259Y-109230272D01*
X99503322Y-109073034D01*
X99637034Y-108939322D01*
X99639129Y-108937922D01*
X99794270Y-108834260D01*
X99968979Y-108761893D01*
X100061714Y-108743447D01*
X100154448Y-108725001D01*
X100343554Y-108725001D01*
X100436288Y-108743447D01*
X100436288Y-108743447D01*
G37*
G36*
X97896288Y-108743447D02*
X97989023Y-108761893D01*
X98163732Y-108834260D01*
X98318873Y-108937922D01*
X98320968Y-108939322D01*
X98454680Y-109073034D01*
X98559743Y-109230272D01*
X98632109Y-109404980D01*
X98669001Y-109590448D01*
X98669001Y-109779554D01*
X98632109Y-109965022D01*
X98559743Y-110139730D01*
X98454680Y-110296968D01*
X98320968Y-110430680D01*
X98320965Y-110430682D01*
X98163732Y-110535742D01*
X97989023Y-110608109D01*
X97896288Y-110626555D01*
X97803554Y-110645001D01*
X97614448Y-110645001D01*
X97521714Y-110626555D01*
X97428979Y-110608109D01*
X97254270Y-110535742D01*
X97097037Y-110430682D01*
X97097034Y-110430680D01*
X96963322Y-110296968D01*
X96858259Y-110139730D01*
X96785893Y-109965022D01*
X96749001Y-109779554D01*
X96749001Y-109590448D01*
X96785893Y-109404980D01*
X96858259Y-109230272D01*
X96963322Y-109073034D01*
X97097034Y-108939322D01*
X97099129Y-108937922D01*
X97254270Y-108834260D01*
X97428979Y-108761893D01*
X97521714Y-108743447D01*
X97614448Y-108725001D01*
X97803554Y-108725001D01*
X97896288Y-108743447D01*
X97896288Y-108743447D01*
G37*
G36*
X95356288Y-108743447D02*
X95449023Y-108761893D01*
X95623732Y-108834260D01*
X95778873Y-108937922D01*
X95780968Y-108939322D01*
X95914680Y-109073034D01*
X96019743Y-109230272D01*
X96092109Y-109404980D01*
X96129001Y-109590448D01*
X96129001Y-109779554D01*
X96092109Y-109965022D01*
X96019743Y-110139730D01*
X95914680Y-110296968D01*
X95780968Y-110430680D01*
X95780965Y-110430682D01*
X95623732Y-110535742D01*
X95449023Y-110608109D01*
X95356288Y-110626555D01*
X95263554Y-110645001D01*
X95074448Y-110645001D01*
X94981714Y-110626555D01*
X94888979Y-110608109D01*
X94714270Y-110535742D01*
X94557037Y-110430682D01*
X94557034Y-110430680D01*
X94423322Y-110296968D01*
X94318259Y-110139730D01*
X94245893Y-109965022D01*
X94209001Y-109779554D01*
X94209001Y-109590448D01*
X94245893Y-109404980D01*
X94318259Y-109230272D01*
X94423322Y-109073034D01*
X94557034Y-108939322D01*
X94559129Y-108937922D01*
X94714270Y-108834260D01*
X94888979Y-108761893D01*
X94981714Y-108743447D01*
X95074448Y-108725001D01*
X95263554Y-108725001D01*
X95356288Y-108743447D01*
X95356288Y-108743447D01*
G37*
G36*
X102976288Y-108743447D02*
X103069023Y-108761893D01*
X103243732Y-108834260D01*
X103398873Y-108937922D01*
X103400968Y-108939322D01*
X103534680Y-109073034D01*
X103639743Y-109230272D01*
X103712109Y-109404980D01*
X103749001Y-109590448D01*
X103749001Y-109779554D01*
X103712109Y-109965022D01*
X103639743Y-110139730D01*
X103534680Y-110296968D01*
X103400968Y-110430680D01*
X103400965Y-110430682D01*
X103243732Y-110535742D01*
X103069023Y-110608109D01*
X102976288Y-110626555D01*
X102883554Y-110645001D01*
X102694448Y-110645001D01*
X102601714Y-110626555D01*
X102508979Y-110608109D01*
X102334270Y-110535742D01*
X102177037Y-110430682D01*
X102177034Y-110430680D01*
X102043322Y-110296968D01*
X101938259Y-110139730D01*
X101865893Y-109965022D01*
X101829001Y-109779554D01*
X101829001Y-109590448D01*
X101865893Y-109404980D01*
X101938259Y-109230272D01*
X102043322Y-109073034D01*
X102177034Y-108939322D01*
X102179129Y-108937922D01*
X102334270Y-108834260D01*
X102508979Y-108761893D01*
X102601714Y-108743447D01*
X102694448Y-108725001D01*
X102883554Y-108725001D01*
X102976288Y-108743447D01*
X102976288Y-108743447D01*
G37*
G36*
X153776288Y-106203447D02*
X153869023Y-106221893D01*
X154043732Y-106294260D01*
X154198873Y-106397922D01*
X154200968Y-106399322D01*
X154334680Y-106533034D01*
X154334682Y-106533037D01*
X154439742Y-106690270D01*
X154512109Y-106864979D01*
X154549001Y-107050449D01*
X154549001Y-107239553D01*
X154515039Y-107410295D01*
X154512109Y-107425022D01*
X154439743Y-107599730D01*
X154334680Y-107756968D01*
X154200968Y-107890680D01*
X154200965Y-107890682D01*
X154043732Y-107995742D01*
X153869023Y-108068109D01*
X153776288Y-108086555D01*
X153683554Y-108105001D01*
X153494448Y-108105001D01*
X153401714Y-108086555D01*
X153308979Y-108068109D01*
X153134270Y-107995742D01*
X152977037Y-107890682D01*
X152977034Y-107890680D01*
X152843322Y-107756968D01*
X152738259Y-107599730D01*
X152665893Y-107425022D01*
X152662964Y-107410295D01*
X152629001Y-107239553D01*
X152629001Y-107050449D01*
X152665893Y-106864979D01*
X152738260Y-106690270D01*
X152843320Y-106533037D01*
X152843322Y-106533034D01*
X152977034Y-106399322D01*
X152979129Y-106397922D01*
X153134270Y-106294260D01*
X153308979Y-106221893D01*
X153401714Y-106203447D01*
X153494448Y-106185001D01*
X153683554Y-106185001D01*
X153776288Y-106203447D01*
X153776288Y-106203447D01*
G37*
G36*
X105516288Y-106203447D02*
X105609023Y-106221893D01*
X105783732Y-106294260D01*
X105938873Y-106397922D01*
X105940968Y-106399322D01*
X106074680Y-106533034D01*
X106074682Y-106533037D01*
X106179742Y-106690270D01*
X106252109Y-106864979D01*
X106289001Y-107050449D01*
X106289001Y-107239553D01*
X106255039Y-107410295D01*
X106252109Y-107425022D01*
X106179743Y-107599730D01*
X106074680Y-107756968D01*
X105940968Y-107890680D01*
X105940965Y-107890682D01*
X105783732Y-107995742D01*
X105609023Y-108068109D01*
X105516288Y-108086555D01*
X105423554Y-108105001D01*
X105234448Y-108105001D01*
X105141714Y-108086555D01*
X105048979Y-108068109D01*
X104874270Y-107995742D01*
X104717037Y-107890682D01*
X104717034Y-107890680D01*
X104583322Y-107756968D01*
X104478259Y-107599730D01*
X104405893Y-107425022D01*
X104402964Y-107410295D01*
X104369001Y-107239553D01*
X104369001Y-107050449D01*
X104405893Y-106864979D01*
X104478260Y-106690270D01*
X104583320Y-106533037D01*
X104583322Y-106533034D01*
X104717034Y-106399322D01*
X104719129Y-106397922D01*
X104874270Y-106294260D01*
X105048979Y-106221893D01*
X105141714Y-106203447D01*
X105234448Y-106185001D01*
X105423554Y-106185001D01*
X105516288Y-106203447D01*
X105516288Y-106203447D01*
G37*
G36*
X110596288Y-106203447D02*
X110689023Y-106221893D01*
X110863732Y-106294260D01*
X111018873Y-106397922D01*
X111020968Y-106399322D01*
X111154680Y-106533034D01*
X111154682Y-106533037D01*
X111259742Y-106690270D01*
X111332109Y-106864979D01*
X111369001Y-107050449D01*
X111369001Y-107239553D01*
X111335039Y-107410295D01*
X111332109Y-107425022D01*
X111259743Y-107599730D01*
X111154680Y-107756968D01*
X111020968Y-107890680D01*
X111020965Y-107890682D01*
X110863732Y-107995742D01*
X110689023Y-108068109D01*
X110596288Y-108086555D01*
X110503554Y-108105001D01*
X110314448Y-108105001D01*
X110221714Y-108086555D01*
X110128979Y-108068109D01*
X109954270Y-107995742D01*
X109797037Y-107890682D01*
X109797034Y-107890680D01*
X109663322Y-107756968D01*
X109558259Y-107599730D01*
X109485893Y-107425022D01*
X109482964Y-107410295D01*
X109449001Y-107239553D01*
X109449001Y-107050449D01*
X109485893Y-106864979D01*
X109558260Y-106690270D01*
X109663320Y-106533037D01*
X109663322Y-106533034D01*
X109797034Y-106399322D01*
X109799129Y-106397922D01*
X109954270Y-106294260D01*
X110128979Y-106221893D01*
X110221714Y-106203447D01*
X110314448Y-106185001D01*
X110503554Y-106185001D01*
X110596288Y-106203447D01*
X110596288Y-106203447D01*
G37*
G36*
X108056288Y-106203447D02*
X108149023Y-106221893D01*
X108323732Y-106294260D01*
X108478873Y-106397922D01*
X108480968Y-106399322D01*
X108614680Y-106533034D01*
X108614682Y-106533037D01*
X108719742Y-106690270D01*
X108792109Y-106864979D01*
X108829001Y-107050449D01*
X108829001Y-107239553D01*
X108795039Y-107410295D01*
X108792109Y-107425022D01*
X108719743Y-107599730D01*
X108614680Y-107756968D01*
X108480968Y-107890680D01*
X108480965Y-107890682D01*
X108323732Y-107995742D01*
X108149023Y-108068109D01*
X108056288Y-108086555D01*
X107963554Y-108105001D01*
X107774448Y-108105001D01*
X107681714Y-108086555D01*
X107588979Y-108068109D01*
X107414270Y-107995742D01*
X107257037Y-107890682D01*
X107257034Y-107890680D01*
X107123322Y-107756968D01*
X107018259Y-107599730D01*
X106945893Y-107425022D01*
X106942964Y-107410295D01*
X106909001Y-107239553D01*
X106909001Y-107050449D01*
X106945893Y-106864979D01*
X107018260Y-106690270D01*
X107123320Y-106533037D01*
X107123322Y-106533034D01*
X107257034Y-106399322D01*
X107259129Y-106397922D01*
X107414270Y-106294260D01*
X107588979Y-106221893D01*
X107681714Y-106203447D01*
X107774448Y-106185001D01*
X107963554Y-106185001D01*
X108056288Y-106203447D01*
X108056288Y-106203447D01*
G37*
G36*
X161396288Y-106203447D02*
X161489023Y-106221893D01*
X161663732Y-106294260D01*
X161818873Y-106397922D01*
X161820968Y-106399322D01*
X161954680Y-106533034D01*
X161954682Y-106533037D01*
X162059742Y-106690270D01*
X162132109Y-106864979D01*
X162169001Y-107050449D01*
X162169001Y-107239553D01*
X162135039Y-107410295D01*
X162132109Y-107425022D01*
X162059743Y-107599730D01*
X161954680Y-107756968D01*
X161820968Y-107890680D01*
X161820965Y-107890682D01*
X161663732Y-107995742D01*
X161489023Y-108068109D01*
X161396288Y-108086555D01*
X161303554Y-108105001D01*
X161114448Y-108105001D01*
X161021714Y-108086555D01*
X160928979Y-108068109D01*
X160754270Y-107995742D01*
X160597037Y-107890682D01*
X160597034Y-107890680D01*
X160463322Y-107756968D01*
X160358259Y-107599730D01*
X160285893Y-107425022D01*
X160282964Y-107410295D01*
X160249001Y-107239553D01*
X160249001Y-107050449D01*
X160285893Y-106864979D01*
X160358260Y-106690270D01*
X160463320Y-106533037D01*
X160463322Y-106533034D01*
X160597034Y-106399322D01*
X160599129Y-106397922D01*
X160754270Y-106294260D01*
X160928979Y-106221893D01*
X161021714Y-106203447D01*
X161114448Y-106185001D01*
X161303554Y-106185001D01*
X161396288Y-106203447D01*
X161396288Y-106203447D01*
G37*
G36*
X171556288Y-106203447D02*
X171649023Y-106221893D01*
X171823732Y-106294260D01*
X171978873Y-106397922D01*
X171980968Y-106399322D01*
X172114680Y-106533034D01*
X172114682Y-106533037D01*
X172219742Y-106690270D01*
X172292109Y-106864979D01*
X172329001Y-107050449D01*
X172329001Y-107239553D01*
X172295039Y-107410295D01*
X172292109Y-107425022D01*
X172219743Y-107599730D01*
X172114680Y-107756968D01*
X171980968Y-107890680D01*
X171980965Y-107890682D01*
X171823732Y-107995742D01*
X171649023Y-108068109D01*
X171556288Y-108086555D01*
X171463554Y-108105001D01*
X171274448Y-108105001D01*
X171181714Y-108086555D01*
X171088979Y-108068109D01*
X170914270Y-107995742D01*
X170757037Y-107890682D01*
X170757034Y-107890680D01*
X170623322Y-107756968D01*
X170518259Y-107599730D01*
X170445893Y-107425022D01*
X170442964Y-107410295D01*
X170409001Y-107239553D01*
X170409001Y-107050449D01*
X170445893Y-106864979D01*
X170518260Y-106690270D01*
X170623320Y-106533037D01*
X170623322Y-106533034D01*
X170757034Y-106399322D01*
X170759129Y-106397922D01*
X170914270Y-106294260D01*
X171088979Y-106221893D01*
X171181714Y-106203447D01*
X171274448Y-106185001D01*
X171463554Y-106185001D01*
X171556288Y-106203447D01*
X171556288Y-106203447D01*
G37*
G36*
X163936288Y-106203447D02*
X164029023Y-106221893D01*
X164203732Y-106294260D01*
X164358873Y-106397922D01*
X164360968Y-106399322D01*
X164494680Y-106533034D01*
X164494682Y-106533037D01*
X164599742Y-106690270D01*
X164672109Y-106864979D01*
X164709001Y-107050449D01*
X164709001Y-107239553D01*
X164675039Y-107410295D01*
X164672109Y-107425022D01*
X164599743Y-107599730D01*
X164494680Y-107756968D01*
X164360968Y-107890680D01*
X164360965Y-107890682D01*
X164203732Y-107995742D01*
X164029023Y-108068109D01*
X163936288Y-108086555D01*
X163843554Y-108105001D01*
X163654448Y-108105001D01*
X163561714Y-108086555D01*
X163468979Y-108068109D01*
X163294270Y-107995742D01*
X163137037Y-107890682D01*
X163137034Y-107890680D01*
X163003322Y-107756968D01*
X162898259Y-107599730D01*
X162825893Y-107425022D01*
X162822964Y-107410295D01*
X162789001Y-107239553D01*
X162789001Y-107050449D01*
X162825893Y-106864979D01*
X162898260Y-106690270D01*
X163003320Y-106533037D01*
X163003322Y-106533034D01*
X163137034Y-106399322D01*
X163139129Y-106397922D01*
X163294270Y-106294260D01*
X163468979Y-106221893D01*
X163561714Y-106203447D01*
X163654448Y-106185001D01*
X163843554Y-106185001D01*
X163936288Y-106203447D01*
X163936288Y-106203447D01*
G37*
G36*
X151236288Y-106203447D02*
X151329023Y-106221893D01*
X151503732Y-106294260D01*
X151658873Y-106397922D01*
X151660968Y-106399322D01*
X151794680Y-106533034D01*
X151794682Y-106533037D01*
X151899742Y-106690270D01*
X151972109Y-106864979D01*
X152009001Y-107050449D01*
X152009001Y-107239553D01*
X151975039Y-107410295D01*
X151972109Y-107425022D01*
X151899743Y-107599730D01*
X151794680Y-107756968D01*
X151660968Y-107890680D01*
X151660965Y-107890682D01*
X151503732Y-107995742D01*
X151329023Y-108068109D01*
X151236288Y-108086555D01*
X151143554Y-108105001D01*
X150954448Y-108105001D01*
X150861714Y-108086555D01*
X150768979Y-108068109D01*
X150594270Y-107995742D01*
X150437037Y-107890682D01*
X150437034Y-107890680D01*
X150303322Y-107756968D01*
X150198259Y-107599730D01*
X150125893Y-107425022D01*
X150122964Y-107410295D01*
X150089001Y-107239553D01*
X150089001Y-107050449D01*
X150125893Y-106864979D01*
X150198260Y-106690270D01*
X150303320Y-106533037D01*
X150303322Y-106533034D01*
X150437034Y-106399322D01*
X150439129Y-106397922D01*
X150594270Y-106294260D01*
X150768979Y-106221893D01*
X150861714Y-106203447D01*
X150954448Y-106185001D01*
X151143554Y-106185001D01*
X151236288Y-106203447D01*
X151236288Y-106203447D01*
G37*
G36*
X156316288Y-106203447D02*
X156409023Y-106221893D01*
X156583732Y-106294260D01*
X156738873Y-106397922D01*
X156740968Y-106399322D01*
X156874680Y-106533034D01*
X156874682Y-106533037D01*
X156979742Y-106690270D01*
X157052109Y-106864979D01*
X157089001Y-107050449D01*
X157089001Y-107239553D01*
X157055039Y-107410295D01*
X157052109Y-107425022D01*
X156979743Y-107599730D01*
X156874680Y-107756968D01*
X156740968Y-107890680D01*
X156740965Y-107890682D01*
X156583732Y-107995742D01*
X156409023Y-108068109D01*
X156316288Y-108086555D01*
X156223554Y-108105001D01*
X156034448Y-108105001D01*
X155941714Y-108086555D01*
X155848979Y-108068109D01*
X155674270Y-107995742D01*
X155517037Y-107890682D01*
X155517034Y-107890680D01*
X155383322Y-107756968D01*
X155278259Y-107599730D01*
X155205893Y-107425022D01*
X155202964Y-107410295D01*
X155169001Y-107239553D01*
X155169001Y-107050449D01*
X155205893Y-106864979D01*
X155278260Y-106690270D01*
X155383320Y-106533037D01*
X155383322Y-106533034D01*
X155517034Y-106399322D01*
X155519129Y-106397922D01*
X155674270Y-106294260D01*
X155848979Y-106221893D01*
X155941714Y-106203447D01*
X156034448Y-106185001D01*
X156223554Y-106185001D01*
X156316288Y-106203447D01*
X156316288Y-106203447D01*
G37*
G36*
X158856288Y-106203447D02*
X158949023Y-106221893D01*
X159123732Y-106294260D01*
X159278873Y-106397922D01*
X159280968Y-106399322D01*
X159414680Y-106533034D01*
X159414682Y-106533037D01*
X159519742Y-106690270D01*
X159592109Y-106864979D01*
X159629001Y-107050449D01*
X159629001Y-107239553D01*
X159595039Y-107410295D01*
X159592109Y-107425022D01*
X159519743Y-107599730D01*
X159414680Y-107756968D01*
X159280968Y-107890680D01*
X159280965Y-107890682D01*
X159123732Y-107995742D01*
X158949023Y-108068109D01*
X158856288Y-108086555D01*
X158763554Y-108105001D01*
X158574448Y-108105001D01*
X158481714Y-108086555D01*
X158388979Y-108068109D01*
X158214270Y-107995742D01*
X158057037Y-107890682D01*
X158057034Y-107890680D01*
X157923322Y-107756968D01*
X157818259Y-107599730D01*
X157745893Y-107425022D01*
X157742964Y-107410295D01*
X157709001Y-107239553D01*
X157709001Y-107050449D01*
X157745893Y-106864979D01*
X157818260Y-106690270D01*
X157923320Y-106533037D01*
X157923322Y-106533034D01*
X158057034Y-106399322D01*
X158059129Y-106397922D01*
X158214270Y-106294260D01*
X158388979Y-106221893D01*
X158481714Y-106203447D01*
X158574448Y-106185001D01*
X158763554Y-106185001D01*
X158856288Y-106203447D01*
X158856288Y-106203447D01*
G37*
G36*
X174096288Y-106203447D02*
X174189023Y-106221893D01*
X174363732Y-106294260D01*
X174518873Y-106397922D01*
X174520968Y-106399322D01*
X174654680Y-106533034D01*
X174654682Y-106533037D01*
X174759742Y-106690270D01*
X174832109Y-106864979D01*
X174869001Y-107050449D01*
X174869001Y-107239553D01*
X174835039Y-107410295D01*
X174832109Y-107425022D01*
X174759743Y-107599730D01*
X174654680Y-107756968D01*
X174520968Y-107890680D01*
X174520965Y-107890682D01*
X174363732Y-107995742D01*
X174189023Y-108068109D01*
X174096288Y-108086555D01*
X174003554Y-108105001D01*
X173814448Y-108105001D01*
X173721714Y-108086555D01*
X173628979Y-108068109D01*
X173454270Y-107995742D01*
X173297037Y-107890682D01*
X173297034Y-107890680D01*
X173163322Y-107756968D01*
X173058259Y-107599730D01*
X172985893Y-107425022D01*
X172982964Y-107410295D01*
X172949001Y-107239553D01*
X172949001Y-107050449D01*
X172985893Y-106864979D01*
X173058260Y-106690270D01*
X173163320Y-106533037D01*
X173163322Y-106533034D01*
X173297034Y-106399322D01*
X173299129Y-106397922D01*
X173454270Y-106294260D01*
X173628979Y-106221893D01*
X173721714Y-106203447D01*
X173814448Y-106185001D01*
X174003554Y-106185001D01*
X174096288Y-106203447D01*
X174096288Y-106203447D01*
G37*
G36*
X95356288Y-106203447D02*
X95449023Y-106221893D01*
X95623732Y-106294260D01*
X95778873Y-106397922D01*
X95780968Y-106399322D01*
X95914680Y-106533034D01*
X95914682Y-106533037D01*
X96019742Y-106690270D01*
X96092109Y-106864979D01*
X96129001Y-107050449D01*
X96129001Y-107239553D01*
X96095039Y-107410295D01*
X96092109Y-107425022D01*
X96019743Y-107599730D01*
X95914680Y-107756968D01*
X95780968Y-107890680D01*
X95780965Y-107890682D01*
X95623732Y-107995742D01*
X95449023Y-108068109D01*
X95356288Y-108086555D01*
X95263554Y-108105001D01*
X95074448Y-108105001D01*
X94981714Y-108086555D01*
X94888979Y-108068109D01*
X94714270Y-107995742D01*
X94557037Y-107890682D01*
X94557034Y-107890680D01*
X94423322Y-107756968D01*
X94318259Y-107599730D01*
X94245893Y-107425022D01*
X94242964Y-107410295D01*
X94209001Y-107239553D01*
X94209001Y-107050449D01*
X94245893Y-106864979D01*
X94318260Y-106690270D01*
X94423320Y-106533037D01*
X94423322Y-106533034D01*
X94557034Y-106399322D01*
X94559129Y-106397922D01*
X94714270Y-106294260D01*
X94888979Y-106221893D01*
X94981714Y-106203447D01*
X95074448Y-106185001D01*
X95263554Y-106185001D01*
X95356288Y-106203447D01*
X95356288Y-106203447D01*
G37*
G36*
X97896288Y-106203447D02*
X97989023Y-106221893D01*
X98163732Y-106294260D01*
X98318873Y-106397922D01*
X98320968Y-106399322D01*
X98454680Y-106533034D01*
X98454682Y-106533037D01*
X98559742Y-106690270D01*
X98632109Y-106864979D01*
X98669001Y-107050449D01*
X98669001Y-107239553D01*
X98635039Y-107410295D01*
X98632109Y-107425022D01*
X98559743Y-107599730D01*
X98454680Y-107756968D01*
X98320968Y-107890680D01*
X98320965Y-107890682D01*
X98163732Y-107995742D01*
X97989023Y-108068109D01*
X97896288Y-108086555D01*
X97803554Y-108105001D01*
X97614448Y-108105001D01*
X97521714Y-108086555D01*
X97428979Y-108068109D01*
X97254270Y-107995742D01*
X97097037Y-107890682D01*
X97097034Y-107890680D01*
X96963322Y-107756968D01*
X96858259Y-107599730D01*
X96785893Y-107425022D01*
X96782964Y-107410295D01*
X96749001Y-107239553D01*
X96749001Y-107050449D01*
X96785893Y-106864979D01*
X96858260Y-106690270D01*
X96963320Y-106533037D01*
X96963322Y-106533034D01*
X97097034Y-106399322D01*
X97099129Y-106397922D01*
X97254270Y-106294260D01*
X97428979Y-106221893D01*
X97521714Y-106203447D01*
X97614448Y-106185001D01*
X97803554Y-106185001D01*
X97896288Y-106203447D01*
X97896288Y-106203447D01*
G37*
G36*
X102976288Y-106203447D02*
X103069023Y-106221893D01*
X103243732Y-106294260D01*
X103398873Y-106397922D01*
X103400968Y-106399322D01*
X103534680Y-106533034D01*
X103534682Y-106533037D01*
X103639742Y-106690270D01*
X103712109Y-106864979D01*
X103749001Y-107050449D01*
X103749001Y-107239553D01*
X103715039Y-107410295D01*
X103712109Y-107425022D01*
X103639743Y-107599730D01*
X103534680Y-107756968D01*
X103400968Y-107890680D01*
X103400965Y-107890682D01*
X103243732Y-107995742D01*
X103069023Y-108068109D01*
X102976288Y-108086555D01*
X102883554Y-108105001D01*
X102694448Y-108105001D01*
X102601714Y-108086555D01*
X102508979Y-108068109D01*
X102334270Y-107995742D01*
X102177037Y-107890682D01*
X102177034Y-107890680D01*
X102043322Y-107756968D01*
X101938259Y-107599730D01*
X101865893Y-107425022D01*
X101862964Y-107410295D01*
X101829001Y-107239553D01*
X101829001Y-107050449D01*
X101865893Y-106864979D01*
X101938260Y-106690270D01*
X102043320Y-106533037D01*
X102043322Y-106533034D01*
X102177034Y-106399322D01*
X102179129Y-106397922D01*
X102334270Y-106294260D01*
X102508979Y-106221893D01*
X102601714Y-106203447D01*
X102694448Y-106185001D01*
X102883554Y-106185001D01*
X102976288Y-106203447D01*
X102976288Y-106203447D01*
G37*
G36*
X100436288Y-106203447D02*
X100529023Y-106221893D01*
X100703732Y-106294260D01*
X100858873Y-106397922D01*
X100860968Y-106399322D01*
X100994680Y-106533034D01*
X100994682Y-106533037D01*
X101099742Y-106690270D01*
X101172109Y-106864979D01*
X101209001Y-107050449D01*
X101209001Y-107239553D01*
X101175039Y-107410295D01*
X101172109Y-107425022D01*
X101099743Y-107599730D01*
X100994680Y-107756968D01*
X100860968Y-107890680D01*
X100860965Y-107890682D01*
X100703732Y-107995742D01*
X100529023Y-108068109D01*
X100436288Y-108086555D01*
X100343554Y-108105001D01*
X100154448Y-108105001D01*
X100061714Y-108086555D01*
X99968979Y-108068109D01*
X99794270Y-107995742D01*
X99637037Y-107890682D01*
X99637034Y-107890680D01*
X99503322Y-107756968D01*
X99398259Y-107599730D01*
X99325893Y-107425022D01*
X99322964Y-107410295D01*
X99289001Y-107239553D01*
X99289001Y-107050449D01*
X99325893Y-106864979D01*
X99398260Y-106690270D01*
X99503320Y-106533037D01*
X99503322Y-106533034D01*
X99637034Y-106399322D01*
X99639129Y-106397922D01*
X99794270Y-106294260D01*
X99968979Y-106221893D01*
X100061714Y-106203447D01*
X100154448Y-106185001D01*
X100343554Y-106185001D01*
X100436288Y-106203447D01*
X100436288Y-106203447D01*
G37*
G36*
X166476288Y-106203447D02*
X166569023Y-106221893D01*
X166743732Y-106294260D01*
X166898873Y-106397922D01*
X166900968Y-106399322D01*
X167034680Y-106533034D01*
X167034682Y-106533037D01*
X167139742Y-106690270D01*
X167212109Y-106864979D01*
X167249001Y-107050449D01*
X167249001Y-107239553D01*
X167215039Y-107410295D01*
X167212109Y-107425022D01*
X167139743Y-107599730D01*
X167034680Y-107756968D01*
X166900968Y-107890680D01*
X166900965Y-107890682D01*
X166743732Y-107995742D01*
X166569023Y-108068109D01*
X166476288Y-108086555D01*
X166383554Y-108105001D01*
X166194448Y-108105001D01*
X166101714Y-108086555D01*
X166008979Y-108068109D01*
X165834270Y-107995742D01*
X165677037Y-107890682D01*
X165677034Y-107890680D01*
X165543322Y-107756968D01*
X165438259Y-107599730D01*
X165365893Y-107425022D01*
X165362964Y-107410295D01*
X165329001Y-107239553D01*
X165329001Y-107050449D01*
X165365893Y-106864979D01*
X165438260Y-106690270D01*
X165543320Y-106533037D01*
X165543322Y-106533034D01*
X165677034Y-106399322D01*
X165679129Y-106397922D01*
X165834270Y-106294260D01*
X166008979Y-106221893D01*
X166101714Y-106203447D01*
X166194448Y-106185001D01*
X166383554Y-106185001D01*
X166476288Y-106203447D01*
X166476288Y-106203447D01*
G37*
G36*
X92816288Y-106203447D02*
X92909023Y-106221893D01*
X93083732Y-106294260D01*
X93238873Y-106397922D01*
X93240968Y-106399322D01*
X93374680Y-106533034D01*
X93374682Y-106533037D01*
X93479742Y-106690270D01*
X93552109Y-106864979D01*
X93589001Y-107050449D01*
X93589001Y-107239553D01*
X93555039Y-107410295D01*
X93552109Y-107425022D01*
X93479743Y-107599730D01*
X93374680Y-107756968D01*
X93240968Y-107890680D01*
X93240965Y-107890682D01*
X93083732Y-107995742D01*
X92909023Y-108068109D01*
X92816288Y-108086555D01*
X92723554Y-108105001D01*
X92534448Y-108105001D01*
X92441714Y-108086555D01*
X92348979Y-108068109D01*
X92174270Y-107995742D01*
X92017037Y-107890682D01*
X92017034Y-107890680D01*
X91883322Y-107756968D01*
X91778259Y-107599730D01*
X91705893Y-107425022D01*
X91702964Y-107410295D01*
X91669001Y-107239553D01*
X91669001Y-107050449D01*
X91705893Y-106864979D01*
X91778260Y-106690270D01*
X91883320Y-106533037D01*
X91883322Y-106533034D01*
X92017034Y-106399322D01*
X92019129Y-106397922D01*
X92174270Y-106294260D01*
X92348979Y-106221893D01*
X92441714Y-106203447D01*
X92534448Y-106185001D01*
X92723554Y-106185001D01*
X92816288Y-106203447D01*
X92816288Y-106203447D01*
G37*
G36*
X90276288Y-106203447D02*
X90369023Y-106221893D01*
X90543732Y-106294260D01*
X90698873Y-106397922D01*
X90700968Y-106399322D01*
X90834680Y-106533034D01*
X90834682Y-106533037D01*
X90939742Y-106690270D01*
X91012109Y-106864979D01*
X91049001Y-107050449D01*
X91049001Y-107239553D01*
X91015039Y-107410295D01*
X91012109Y-107425022D01*
X90939743Y-107599730D01*
X90834680Y-107756968D01*
X90700968Y-107890680D01*
X90700965Y-107890682D01*
X90543732Y-107995742D01*
X90369023Y-108068109D01*
X90276288Y-108086555D01*
X90183554Y-108105001D01*
X89994448Y-108105001D01*
X89901714Y-108086555D01*
X89808979Y-108068109D01*
X89634270Y-107995742D01*
X89477037Y-107890682D01*
X89477034Y-107890680D01*
X89343322Y-107756968D01*
X89238259Y-107599730D01*
X89165893Y-107425022D01*
X89162964Y-107410295D01*
X89129001Y-107239553D01*
X89129001Y-107050449D01*
X89165893Y-106864979D01*
X89238260Y-106690270D01*
X89343320Y-106533037D01*
X89343322Y-106533034D01*
X89477034Y-106399322D01*
X89479129Y-106397922D01*
X89634270Y-106294260D01*
X89808979Y-106221893D01*
X89901714Y-106203447D01*
X89994448Y-106185001D01*
X90183554Y-106185001D01*
X90276288Y-106203447D01*
X90276288Y-106203447D01*
G37*
G36*
X87736288Y-106203447D02*
X87829023Y-106221893D01*
X88003732Y-106294260D01*
X88158873Y-106397922D01*
X88160968Y-106399322D01*
X88294680Y-106533034D01*
X88294682Y-106533037D01*
X88399742Y-106690270D01*
X88472109Y-106864979D01*
X88509001Y-107050449D01*
X88509001Y-107239553D01*
X88475039Y-107410295D01*
X88472109Y-107425022D01*
X88399743Y-107599730D01*
X88294680Y-107756968D01*
X88160968Y-107890680D01*
X88160965Y-107890682D01*
X88003732Y-107995742D01*
X87829023Y-108068109D01*
X87736288Y-108086555D01*
X87643554Y-108105001D01*
X87454448Y-108105001D01*
X87361714Y-108086555D01*
X87268979Y-108068109D01*
X87094270Y-107995742D01*
X86937037Y-107890682D01*
X86937034Y-107890680D01*
X86803322Y-107756968D01*
X86698259Y-107599730D01*
X86625893Y-107425022D01*
X86622964Y-107410295D01*
X86589001Y-107239553D01*
X86589001Y-107050449D01*
X86625893Y-106864979D01*
X86698260Y-106690270D01*
X86803320Y-106533037D01*
X86803322Y-106533034D01*
X86937034Y-106399322D01*
X86939129Y-106397922D01*
X87094270Y-106294260D01*
X87268979Y-106221893D01*
X87361714Y-106203447D01*
X87454448Y-106185001D01*
X87643554Y-106185001D01*
X87736288Y-106203447D01*
X87736288Y-106203447D01*
G37*
G36*
X169016288Y-106203447D02*
X169109023Y-106221893D01*
X169283732Y-106294260D01*
X169438873Y-106397922D01*
X169440968Y-106399322D01*
X169574680Y-106533034D01*
X169574682Y-106533037D01*
X169679742Y-106690270D01*
X169752109Y-106864979D01*
X169789001Y-107050449D01*
X169789001Y-107239553D01*
X169755039Y-107410295D01*
X169752109Y-107425022D01*
X169679743Y-107599730D01*
X169574680Y-107756968D01*
X169440968Y-107890680D01*
X169440965Y-107890682D01*
X169283732Y-107995742D01*
X169109023Y-108068109D01*
X169016288Y-108086555D01*
X168923554Y-108105001D01*
X168734448Y-108105001D01*
X168641714Y-108086555D01*
X168548979Y-108068109D01*
X168374270Y-107995742D01*
X168217037Y-107890682D01*
X168217034Y-107890680D01*
X168083322Y-107756968D01*
X167978259Y-107599730D01*
X167905893Y-107425022D01*
X167902964Y-107410295D01*
X167869001Y-107239553D01*
X167869001Y-107050449D01*
X167905893Y-106864979D01*
X167978260Y-106690270D01*
X168083320Y-106533037D01*
X168083322Y-106533034D01*
X168217034Y-106399322D01*
X168219129Y-106397922D01*
X168374270Y-106294260D01*
X168548979Y-106221893D01*
X168641714Y-106203447D01*
X168734448Y-106185001D01*
X168923554Y-106185001D01*
X169016288Y-106203447D01*
X169016288Y-106203447D01*
G37*
G36*
X183985375Y-102612197D02*
X184161829Y-102647296D01*
X184660477Y-102853843D01*
X185106221Y-103151681D01*
X185109251Y-103153705D01*
X185490895Y-103535349D01*
X185490897Y-103535352D01*
X185790757Y-103984123D01*
X185997304Y-104482771D01*
X186102600Y-105012134D01*
X186102600Y-105551866D01*
X185997304Y-106081229D01*
X185790757Y-106579877D01*
X185716993Y-106690272D01*
X185490895Y-107028651D01*
X185109251Y-107410295D01*
X185109248Y-107410297D01*
X184660477Y-107710157D01*
X184161829Y-107916704D01*
X183985375Y-107951803D01*
X183632468Y-108022000D01*
X183092732Y-108022000D01*
X182739825Y-107951803D01*
X182563371Y-107916704D01*
X182064723Y-107710157D01*
X181615952Y-107410297D01*
X181615949Y-107410295D01*
X181234305Y-107028651D01*
X181008207Y-106690272D01*
X180934443Y-106579877D01*
X180727896Y-106081229D01*
X180622600Y-105551866D01*
X180622600Y-105012134D01*
X180727896Y-104482771D01*
X180934443Y-103984123D01*
X181234303Y-103535352D01*
X181234305Y-103535349D01*
X181615949Y-103153705D01*
X181618979Y-103151681D01*
X182064723Y-102853843D01*
X182563371Y-102647296D01*
X182739825Y-102612197D01*
X183092732Y-102542000D01*
X183632468Y-102542000D01*
X183985375Y-102612197D01*
X183985375Y-102612197D01*
G37*
G36*
X93087330Y-102150877D02*
X93138810Y-102166493D01*
X93186242Y-102191846D01*
X93227827Y-102225973D01*
X93261954Y-102267558D01*
X93287307Y-102314990D01*
X93302923Y-102366470D01*
X93308800Y-102426140D01*
X93308800Y-103313860D01*
X93302923Y-103373530D01*
X93287307Y-103425010D01*
X93261954Y-103472442D01*
X93227827Y-103514027D01*
X93186242Y-103548154D01*
X93138810Y-103573507D01*
X93087330Y-103589123D01*
X93027660Y-103595000D01*
X92239940Y-103595000D01*
X92180270Y-103589123D01*
X92128790Y-103573507D01*
X92081358Y-103548154D01*
X92039773Y-103514027D01*
X92005646Y-103472442D01*
X91980293Y-103425010D01*
X91964677Y-103373530D01*
X91958800Y-103313860D01*
X91958800Y-102426140D01*
X91964677Y-102366470D01*
X91980293Y-102314990D01*
X92005646Y-102267558D01*
X92039773Y-102225973D01*
X92081358Y-102191846D01*
X92128790Y-102166493D01*
X92180270Y-102150877D01*
X92239940Y-102145000D01*
X93027660Y-102145000D01*
X93087330Y-102150877D01*
X93087330Y-102150877D01*
G37*
G36*
X95627330Y-102136877D02*
X95678810Y-102152493D01*
X95726242Y-102177846D01*
X95767827Y-102211973D01*
X95801954Y-102253558D01*
X95827307Y-102300990D01*
X95842923Y-102352470D01*
X95848800Y-102412140D01*
X95848800Y-103299860D01*
X95842923Y-103359530D01*
X95827307Y-103411010D01*
X95801954Y-103458442D01*
X95767827Y-103500027D01*
X95726242Y-103534154D01*
X95678810Y-103559507D01*
X95627330Y-103575123D01*
X95567660Y-103581000D01*
X94779940Y-103581000D01*
X94720270Y-103575123D01*
X94668790Y-103559507D01*
X94621358Y-103534154D01*
X94579773Y-103500027D01*
X94545646Y-103458442D01*
X94520293Y-103411010D01*
X94504677Y-103359530D01*
X94498800Y-103299860D01*
X94498800Y-102412140D01*
X94504677Y-102352470D01*
X94520293Y-102300990D01*
X94545646Y-102253558D01*
X94579773Y-102211973D01*
X94621358Y-102177846D01*
X94668790Y-102152493D01*
X94720270Y-102136877D01*
X94779940Y-102131000D01*
X95567660Y-102131000D01*
X95627330Y-102136877D01*
X95627330Y-102136877D01*
G37*
G36*
X93087330Y-100400877D02*
X93138810Y-100416493D01*
X93186242Y-100441846D01*
X93227827Y-100475973D01*
X93261954Y-100517558D01*
X93287307Y-100564990D01*
X93302923Y-100616470D01*
X93308800Y-100676140D01*
X93308800Y-101563860D01*
X93302923Y-101623530D01*
X93287307Y-101675010D01*
X93261954Y-101722442D01*
X93227827Y-101764027D01*
X93186242Y-101798154D01*
X93138810Y-101823507D01*
X93087330Y-101839123D01*
X93027660Y-101845000D01*
X92239940Y-101845000D01*
X92180270Y-101839123D01*
X92128790Y-101823507D01*
X92081358Y-101798154D01*
X92039773Y-101764027D01*
X92005646Y-101722442D01*
X91980293Y-101675010D01*
X91964677Y-101623530D01*
X91958800Y-101563860D01*
X91958800Y-100676140D01*
X91964677Y-100616470D01*
X91980293Y-100564990D01*
X92005646Y-100517558D01*
X92039773Y-100475973D01*
X92081358Y-100441846D01*
X92128790Y-100416493D01*
X92180270Y-100400877D01*
X92239940Y-100395000D01*
X93027660Y-100395000D01*
X93087330Y-100400877D01*
X93087330Y-100400877D01*
G37*
G36*
X95627330Y-100386877D02*
X95678810Y-100402493D01*
X95726242Y-100427846D01*
X95767827Y-100461973D01*
X95801954Y-100503558D01*
X95827307Y-100550990D01*
X95842923Y-100602470D01*
X95848800Y-100662140D01*
X95848800Y-101549860D01*
X95842923Y-101609530D01*
X95827307Y-101661010D01*
X95801954Y-101708442D01*
X95767827Y-101750027D01*
X95726242Y-101784154D01*
X95678810Y-101809507D01*
X95627330Y-101825123D01*
X95567660Y-101831000D01*
X94779940Y-101831000D01*
X94720270Y-101825123D01*
X94668790Y-101809507D01*
X94621358Y-101784154D01*
X94579773Y-101750027D01*
X94545646Y-101708442D01*
X94520293Y-101661010D01*
X94504677Y-101609530D01*
X94498800Y-101549860D01*
X94498800Y-100662140D01*
X94504677Y-100602470D01*
X94520293Y-100550990D01*
X94545646Y-100503558D01*
X94579773Y-100461973D01*
X94621358Y-100427846D01*
X94668790Y-100402493D01*
X94720270Y-100386877D01*
X94779940Y-100381000D01*
X95567660Y-100381000D01*
X95627330Y-100386877D01*
X95627330Y-100386877D01*
G37*
G36*
X183985375Y-94611197D02*
X184161829Y-94646296D01*
X184660477Y-94852843D01*
X185106221Y-95150681D01*
X185109251Y-95152705D01*
X185490895Y-95534349D01*
X185490897Y-95534352D01*
X185790757Y-95983123D01*
X185790757Y-95983124D01*
X185997304Y-96481772D01*
X186102600Y-97011132D01*
X186102600Y-97550868D01*
X186032403Y-97903775D01*
X185997304Y-98080229D01*
X185790757Y-98578877D01*
X185492919Y-99024622D01*
X185490895Y-99027651D01*
X185109251Y-99409295D01*
X185109248Y-99409297D01*
X184660477Y-99709157D01*
X184161829Y-99915704D01*
X183985375Y-99950803D01*
X183632468Y-100021000D01*
X183092732Y-100021000D01*
X182739825Y-99950803D01*
X182563371Y-99915704D01*
X182064723Y-99709157D01*
X181615952Y-99409297D01*
X181615949Y-99409295D01*
X181234305Y-99027651D01*
X181232281Y-99024621D01*
X180934443Y-98578877D01*
X180727896Y-98080229D01*
X180692797Y-97903775D01*
X180622600Y-97550868D01*
X180622600Y-97011132D01*
X180727896Y-96481772D01*
X180934443Y-95983124D01*
X180934443Y-95983123D01*
X181234303Y-95534352D01*
X181234305Y-95534349D01*
X181615949Y-95152705D01*
X181618979Y-95150681D01*
X182064723Y-94852843D01*
X182563371Y-94646296D01*
X182739825Y-94611197D01*
X183092732Y-94541000D01*
X183632468Y-94541000D01*
X183985375Y-94611197D01*
X183985375Y-94611197D01*
G37*
G36*
X93087330Y-97324877D02*
X93138810Y-97340493D01*
X93186242Y-97365846D01*
X93227827Y-97399973D01*
X93261954Y-97441558D01*
X93287307Y-97488990D01*
X93302923Y-97540470D01*
X93308800Y-97600140D01*
X93308800Y-98487860D01*
X93302923Y-98547530D01*
X93287307Y-98599010D01*
X93261954Y-98646442D01*
X93227827Y-98688027D01*
X93186242Y-98722154D01*
X93138810Y-98747507D01*
X93087330Y-98763123D01*
X93027660Y-98769000D01*
X92239940Y-98769000D01*
X92180270Y-98763123D01*
X92128790Y-98747507D01*
X92081358Y-98722154D01*
X92039773Y-98688027D01*
X92005646Y-98646442D01*
X91980293Y-98599010D01*
X91964677Y-98547530D01*
X91958800Y-98487860D01*
X91958800Y-97600140D01*
X91964677Y-97540470D01*
X91980293Y-97488990D01*
X92005646Y-97441558D01*
X92039773Y-97399973D01*
X92081358Y-97365846D01*
X92128790Y-97340493D01*
X92180270Y-97324877D01*
X92239940Y-97319000D01*
X93027660Y-97319000D01*
X93087330Y-97324877D01*
X93087330Y-97324877D01*
G37*
G36*
X95627330Y-97310877D02*
X95678810Y-97326493D01*
X95726242Y-97351846D01*
X95767827Y-97385973D01*
X95801954Y-97427558D01*
X95827307Y-97474990D01*
X95842923Y-97526470D01*
X95848800Y-97586140D01*
X95848800Y-98473860D01*
X95842923Y-98533530D01*
X95827307Y-98585010D01*
X95801954Y-98632442D01*
X95767827Y-98674027D01*
X95726242Y-98708154D01*
X95678810Y-98733507D01*
X95627330Y-98749123D01*
X95567660Y-98755000D01*
X94779940Y-98755000D01*
X94720270Y-98749123D01*
X94668790Y-98733507D01*
X94621358Y-98708154D01*
X94579773Y-98674027D01*
X94545646Y-98632442D01*
X94520293Y-98585010D01*
X94504677Y-98533530D01*
X94498800Y-98473860D01*
X94498800Y-97586140D01*
X94504677Y-97526470D01*
X94520293Y-97474990D01*
X94545646Y-97427558D01*
X94579773Y-97385973D01*
X94621358Y-97351846D01*
X94668790Y-97326493D01*
X94720270Y-97310877D01*
X94779940Y-97305000D01*
X95567660Y-97305000D01*
X95627330Y-97310877D01*
X95627330Y-97310877D01*
G37*
G36*
X93087330Y-95574877D02*
X93138810Y-95590493D01*
X93186242Y-95615846D01*
X93227827Y-95649973D01*
X93261954Y-95691558D01*
X93287307Y-95738990D01*
X93302923Y-95790470D01*
X93308800Y-95850140D01*
X93308800Y-96737860D01*
X93302923Y-96797530D01*
X93287307Y-96849010D01*
X93261954Y-96896442D01*
X93227827Y-96938027D01*
X93186242Y-96972154D01*
X93138810Y-96997507D01*
X93087330Y-97013123D01*
X93027660Y-97019000D01*
X92239940Y-97019000D01*
X92180270Y-97013123D01*
X92128790Y-96997507D01*
X92081358Y-96972154D01*
X92039773Y-96938027D01*
X92005646Y-96896442D01*
X91980293Y-96849010D01*
X91964677Y-96797530D01*
X91958800Y-96737860D01*
X91958800Y-95850140D01*
X91964677Y-95790470D01*
X91980293Y-95738990D01*
X92005646Y-95691558D01*
X92039773Y-95649973D01*
X92081358Y-95615846D01*
X92128790Y-95590493D01*
X92180270Y-95574877D01*
X92239940Y-95569000D01*
X93027660Y-95569000D01*
X93087330Y-95574877D01*
X93087330Y-95574877D01*
G37*
G36*
X95627330Y-95560877D02*
X95678810Y-95576493D01*
X95726242Y-95601846D01*
X95767827Y-95635973D01*
X95801954Y-95677558D01*
X95827307Y-95724990D01*
X95842923Y-95776470D01*
X95848800Y-95836140D01*
X95848800Y-96723860D01*
X95842923Y-96783530D01*
X95827307Y-96835010D01*
X95801954Y-96882442D01*
X95767827Y-96924027D01*
X95726242Y-96958154D01*
X95678810Y-96983507D01*
X95627330Y-96999123D01*
X95567660Y-97005000D01*
X94779940Y-97005000D01*
X94720270Y-96999123D01*
X94668790Y-96983507D01*
X94621358Y-96958154D01*
X94579773Y-96924027D01*
X94545646Y-96882442D01*
X94520293Y-96835010D01*
X94504677Y-96783530D01*
X94498800Y-96723860D01*
X94498800Y-95836140D01*
X94504677Y-95776470D01*
X94520293Y-95724990D01*
X94545646Y-95677558D01*
X94579773Y-95635973D01*
X94621358Y-95601846D01*
X94668790Y-95576493D01*
X94720270Y-95560877D01*
X94779940Y-95555000D01*
X95567660Y-95555000D01*
X95627330Y-95560877D01*
X95627330Y-95560877D01*
G37*
G36*
X152776530Y-84928877D02*
X152828010Y-84944493D01*
X152875442Y-84969846D01*
X152917027Y-85003973D01*
X152951154Y-85045558D01*
X152976507Y-85092990D01*
X152992123Y-85144470D01*
X152998000Y-85204140D01*
X152998000Y-85991860D01*
X152992123Y-86051530D01*
X152976507Y-86103010D01*
X152951154Y-86150442D01*
X152917027Y-86192027D01*
X152875442Y-86226154D01*
X152828010Y-86251507D01*
X152776530Y-86267123D01*
X152716860Y-86273000D01*
X151829140Y-86273000D01*
X151769470Y-86267123D01*
X151717990Y-86251507D01*
X151670558Y-86226154D01*
X151628973Y-86192027D01*
X151594846Y-86150442D01*
X151569493Y-86103010D01*
X151553877Y-86051530D01*
X151548000Y-85991860D01*
X151548000Y-85204140D01*
X151553877Y-85144470D01*
X151569493Y-85092990D01*
X151594846Y-85045558D01*
X151628973Y-85003973D01*
X151670558Y-84969846D01*
X151717990Y-84944493D01*
X151769470Y-84928877D01*
X151829140Y-84923000D01*
X152716860Y-84923000D01*
X152776530Y-84928877D01*
X152776530Y-84928877D01*
G37*
G36*
X154526530Y-84928877D02*
X154578010Y-84944493D01*
X154625442Y-84969846D01*
X154667027Y-85003973D01*
X154701154Y-85045558D01*
X154726507Y-85092990D01*
X154742123Y-85144470D01*
X154748000Y-85204140D01*
X154748000Y-85991860D01*
X154742123Y-86051530D01*
X154726507Y-86103010D01*
X154701154Y-86150442D01*
X154667027Y-86192027D01*
X154625442Y-86226154D01*
X154578010Y-86251507D01*
X154526530Y-86267123D01*
X154466860Y-86273000D01*
X153579140Y-86273000D01*
X153519470Y-86267123D01*
X153467990Y-86251507D01*
X153420558Y-86226154D01*
X153378973Y-86192027D01*
X153344846Y-86150442D01*
X153319493Y-86103010D01*
X153303877Y-86051530D01*
X153298000Y-85991860D01*
X153298000Y-85204140D01*
X153303877Y-85144470D01*
X153319493Y-85092990D01*
X153344846Y-85045558D01*
X153378973Y-85003973D01*
X153420558Y-84969846D01*
X153467990Y-84944493D01*
X153519470Y-84928877D01*
X153579140Y-84923000D01*
X154466860Y-84923000D01*
X154526530Y-84928877D01*
X154526530Y-84928877D01*
G37*
G36*
X148853530Y-84928877D02*
X148905010Y-84944493D01*
X148952442Y-84969846D01*
X148994027Y-85003973D01*
X149028154Y-85045558D01*
X149053507Y-85092990D01*
X149069123Y-85144470D01*
X149075000Y-85204140D01*
X149075000Y-85991860D01*
X149069123Y-86051530D01*
X149053507Y-86103010D01*
X149028154Y-86150442D01*
X148994027Y-86192027D01*
X148952442Y-86226154D01*
X148905010Y-86251507D01*
X148853530Y-86267123D01*
X148793860Y-86273000D01*
X147906140Y-86273000D01*
X147846470Y-86267123D01*
X147794990Y-86251507D01*
X147747558Y-86226154D01*
X147705973Y-86192027D01*
X147671846Y-86150442D01*
X147646493Y-86103010D01*
X147630877Y-86051530D01*
X147625000Y-85991860D01*
X147625000Y-85204140D01*
X147630877Y-85144470D01*
X147646493Y-85092990D01*
X147671846Y-85045558D01*
X147705973Y-85003973D01*
X147747558Y-84969846D01*
X147794990Y-84944493D01*
X147846470Y-84928877D01*
X147906140Y-84923000D01*
X148793860Y-84923000D01*
X148853530Y-84928877D01*
X148853530Y-84928877D01*
G37*
G36*
X150603530Y-84928877D02*
X150655010Y-84944493D01*
X150702442Y-84969846D01*
X150744027Y-85003973D01*
X150778154Y-85045558D01*
X150803507Y-85092990D01*
X150819123Y-85144470D01*
X150825000Y-85204140D01*
X150825000Y-85991860D01*
X150819123Y-86051530D01*
X150803507Y-86103010D01*
X150778154Y-86150442D01*
X150744027Y-86192027D01*
X150702442Y-86226154D01*
X150655010Y-86251507D01*
X150603530Y-86267123D01*
X150543860Y-86273000D01*
X149656140Y-86273000D01*
X149596470Y-86267123D01*
X149544990Y-86251507D01*
X149497558Y-86226154D01*
X149455973Y-86192027D01*
X149421846Y-86150442D01*
X149396493Y-86103010D01*
X149380877Y-86051530D01*
X149375000Y-85991860D01*
X149375000Y-85204140D01*
X149380877Y-85144470D01*
X149396493Y-85092990D01*
X149421846Y-85045558D01*
X149455973Y-85003973D01*
X149497558Y-84969846D01*
X149544990Y-84944493D01*
X149596470Y-84928877D01*
X149656140Y-84923000D01*
X150543860Y-84923000D01*
X150603530Y-84928877D01*
X150603530Y-84928877D01*
G37*
G36*
X183001825Y-83100877D02*
X183053305Y-83116493D01*
X183100737Y-83141846D01*
X183142322Y-83175973D01*
X183176449Y-83217558D01*
X183201802Y-83264990D01*
X183217418Y-83316470D01*
X183223295Y-83376140D01*
X183223295Y-84263860D01*
X183217418Y-84323530D01*
X183201802Y-84375010D01*
X183176449Y-84422442D01*
X183142322Y-84464027D01*
X183100737Y-84498154D01*
X183053305Y-84523507D01*
X183001825Y-84539123D01*
X182942155Y-84545000D01*
X182154435Y-84545000D01*
X182094765Y-84539123D01*
X182043285Y-84523507D01*
X181995853Y-84498154D01*
X181954268Y-84464027D01*
X181920141Y-84422442D01*
X181894788Y-84375010D01*
X181879172Y-84323530D01*
X181873295Y-84263860D01*
X181873295Y-83376140D01*
X181879172Y-83316470D01*
X181894788Y-83264990D01*
X181920141Y-83217558D01*
X181954268Y-83175973D01*
X181995853Y-83141846D01*
X182043285Y-83116493D01*
X182094765Y-83100877D01*
X182154435Y-83095000D01*
X182942155Y-83095000D01*
X183001825Y-83100877D01*
X183001825Y-83100877D01*
G37*
G36*
X185340130Y-83100877D02*
X185391610Y-83116493D01*
X185439042Y-83141846D01*
X185480627Y-83175973D01*
X185514754Y-83217558D01*
X185540107Y-83264990D01*
X185555723Y-83316470D01*
X185561600Y-83376140D01*
X185561600Y-84263860D01*
X185555723Y-84323530D01*
X185540107Y-84375010D01*
X185514754Y-84422442D01*
X185480627Y-84464027D01*
X185439042Y-84498154D01*
X185391610Y-84523507D01*
X185340130Y-84539123D01*
X185280460Y-84545000D01*
X184492740Y-84545000D01*
X184433070Y-84539123D01*
X184381590Y-84523507D01*
X184334158Y-84498154D01*
X184292573Y-84464027D01*
X184258446Y-84422442D01*
X184233093Y-84375010D01*
X184217477Y-84323530D01*
X184211600Y-84263860D01*
X184211600Y-83376140D01*
X184217477Y-83316470D01*
X184233093Y-83264990D01*
X184258446Y-83217558D01*
X184292573Y-83175973D01*
X184334158Y-83141846D01*
X184381590Y-83116493D01*
X184433070Y-83100877D01*
X184492740Y-83095000D01*
X185280460Y-83095000D01*
X185340130Y-83100877D01*
X185340130Y-83100877D01*
G37*
G36*
X191207530Y-82973877D02*
X191259010Y-82989493D01*
X191306442Y-83014846D01*
X191348027Y-83048973D01*
X191382154Y-83090558D01*
X191407507Y-83137990D01*
X191423123Y-83189470D01*
X191429000Y-83249140D01*
X191429000Y-84136860D01*
X191423123Y-84196530D01*
X191407507Y-84248010D01*
X191382154Y-84295442D01*
X191348027Y-84337027D01*
X191306442Y-84371154D01*
X191259010Y-84396507D01*
X191207530Y-84412123D01*
X191147860Y-84418000D01*
X190360140Y-84418000D01*
X190300470Y-84412123D01*
X190248990Y-84396507D01*
X190201558Y-84371154D01*
X190159973Y-84337027D01*
X190125846Y-84295442D01*
X190100493Y-84248010D01*
X190084877Y-84196530D01*
X190079000Y-84136860D01*
X190079000Y-83249140D01*
X190084877Y-83189470D01*
X190100493Y-83137990D01*
X190125846Y-83090558D01*
X190159973Y-83048973D01*
X190201558Y-83014846D01*
X190248990Y-82989493D01*
X190300470Y-82973877D01*
X190360140Y-82968000D01*
X191147860Y-82968000D01*
X191207530Y-82973877D01*
X191207530Y-82973877D01*
G37*
G36*
X195098603Y-82386968D02*
X195098606Y-82386969D01*
X195098605Y-82386969D01*
X195273678Y-82459486D01*
X195273679Y-82459487D01*
X195431241Y-82564767D01*
X195565233Y-82698759D01*
X195575435Y-82714027D01*
X195670514Y-82856322D01*
X195716772Y-82968000D01*
X195743032Y-83031397D01*
X195780000Y-83217250D01*
X195780000Y-83406750D01*
X195743032Y-83592603D01*
X195743031Y-83592605D01*
X195670514Y-83767678D01*
X195625992Y-83834309D01*
X195565233Y-83925241D01*
X195431241Y-84059233D01*
X195399413Y-84080500D01*
X195273678Y-84164514D01*
X195138266Y-84220603D01*
X195098603Y-84237032D01*
X194912750Y-84274000D01*
X194723250Y-84274000D01*
X194537397Y-84237032D01*
X194497734Y-84220603D01*
X194362322Y-84164514D01*
X194236587Y-84080500D01*
X194204759Y-84059233D01*
X194070767Y-83925241D01*
X194010008Y-83834309D01*
X193965486Y-83767678D01*
X193892969Y-83592605D01*
X193892968Y-83592603D01*
X193856000Y-83406750D01*
X193856000Y-83217250D01*
X193892968Y-83031397D01*
X193919228Y-82968000D01*
X193965486Y-82856322D01*
X194060565Y-82714027D01*
X194070767Y-82698759D01*
X194204759Y-82564767D01*
X194362321Y-82459487D01*
X194362322Y-82459486D01*
X194537395Y-82386969D01*
X194537394Y-82386969D01*
X194537397Y-82386968D01*
X194723250Y-82350000D01*
X194912750Y-82350000D01*
X195098603Y-82386968D01*
X195098603Y-82386968D01*
G37*
G36*
X169413530Y-82515877D02*
X169465010Y-82531493D01*
X169512442Y-82556846D01*
X169554027Y-82590973D01*
X169588154Y-82632558D01*
X169613507Y-82679990D01*
X169629123Y-82731470D01*
X169635000Y-82791140D01*
X169635000Y-83578860D01*
X169629123Y-83638530D01*
X169613507Y-83690010D01*
X169588154Y-83737442D01*
X169554027Y-83779027D01*
X169512442Y-83813154D01*
X169465010Y-83838507D01*
X169413530Y-83854123D01*
X169353860Y-83860000D01*
X168466140Y-83860000D01*
X168406470Y-83854123D01*
X168354990Y-83838507D01*
X168307558Y-83813154D01*
X168265973Y-83779027D01*
X168231846Y-83737442D01*
X168206493Y-83690010D01*
X168190877Y-83638530D01*
X168185000Y-83578860D01*
X168185000Y-82791140D01*
X168190877Y-82731470D01*
X168206493Y-82679990D01*
X168231846Y-82632558D01*
X168265973Y-82590973D01*
X168307558Y-82556846D01*
X168354990Y-82531493D01*
X168406470Y-82515877D01*
X168466140Y-82510000D01*
X169353860Y-82510000D01*
X169413530Y-82515877D01*
X169413530Y-82515877D01*
G37*
G36*
X163991930Y-82515877D02*
X164043410Y-82531493D01*
X164090842Y-82556846D01*
X164132427Y-82590973D01*
X164166554Y-82632558D01*
X164191907Y-82679990D01*
X164207523Y-82731470D01*
X164213400Y-82791140D01*
X164213400Y-83578860D01*
X164207523Y-83638530D01*
X164191907Y-83690010D01*
X164166554Y-83737442D01*
X164132427Y-83779027D01*
X164090842Y-83813154D01*
X164043410Y-83838507D01*
X163991930Y-83854123D01*
X163932260Y-83860000D01*
X163044540Y-83860000D01*
X162984870Y-83854123D01*
X162933390Y-83838507D01*
X162885958Y-83813154D01*
X162844373Y-83779027D01*
X162810246Y-83737442D01*
X162784893Y-83690010D01*
X162769277Y-83638530D01*
X162763400Y-83578860D01*
X162763400Y-82791140D01*
X162769277Y-82731470D01*
X162784893Y-82679990D01*
X162810246Y-82632558D01*
X162844373Y-82590973D01*
X162885958Y-82556846D01*
X162933390Y-82531493D01*
X162984870Y-82515877D01*
X163044540Y-82510000D01*
X163932260Y-82510000D01*
X163991930Y-82515877D01*
X163991930Y-82515877D01*
G37*
G36*
X165741930Y-82515877D02*
X165793410Y-82531493D01*
X165840842Y-82556846D01*
X165882427Y-82590973D01*
X165916554Y-82632558D01*
X165941907Y-82679990D01*
X165957523Y-82731470D01*
X165963400Y-82791140D01*
X165963400Y-83578860D01*
X165957523Y-83638530D01*
X165941907Y-83690010D01*
X165916554Y-83737442D01*
X165882427Y-83779027D01*
X165840842Y-83813154D01*
X165793410Y-83838507D01*
X165741930Y-83854123D01*
X165682260Y-83860000D01*
X164794540Y-83860000D01*
X164734870Y-83854123D01*
X164683390Y-83838507D01*
X164635958Y-83813154D01*
X164594373Y-83779027D01*
X164560246Y-83737442D01*
X164534893Y-83690010D01*
X164519277Y-83638530D01*
X164513400Y-83578860D01*
X164513400Y-82791140D01*
X164519277Y-82731470D01*
X164534893Y-82679990D01*
X164560246Y-82632558D01*
X164594373Y-82590973D01*
X164635958Y-82556846D01*
X164683390Y-82531493D01*
X164734870Y-82515877D01*
X164794540Y-82510000D01*
X165682260Y-82510000D01*
X165741930Y-82515877D01*
X165741930Y-82515877D01*
G37*
G36*
X167663530Y-82515877D02*
X167715010Y-82531493D01*
X167762442Y-82556846D01*
X167804027Y-82590973D01*
X167838154Y-82632558D01*
X167863507Y-82679990D01*
X167879123Y-82731470D01*
X167885000Y-82791140D01*
X167885000Y-83578860D01*
X167879123Y-83638530D01*
X167863507Y-83690010D01*
X167838154Y-83737442D01*
X167804027Y-83779027D01*
X167762442Y-83813154D01*
X167715010Y-83838507D01*
X167663530Y-83854123D01*
X167603860Y-83860000D01*
X166716140Y-83860000D01*
X166656470Y-83854123D01*
X166604990Y-83838507D01*
X166557558Y-83813154D01*
X166515973Y-83779027D01*
X166481846Y-83737442D01*
X166456493Y-83690010D01*
X166440877Y-83638530D01*
X166435000Y-83578860D01*
X166435000Y-82791140D01*
X166440877Y-82731470D01*
X166456493Y-82679990D01*
X166481846Y-82632558D01*
X166515973Y-82590973D01*
X166557558Y-82556846D01*
X166604990Y-82531493D01*
X166656470Y-82515877D01*
X166716140Y-82510000D01*
X167603860Y-82510000D01*
X167663530Y-82515877D01*
X167663530Y-82515877D01*
G37*
G36*
X91366499Y-79936976D02*
X91366501Y-79936977D01*
X91366502Y-79936977D01*
X91716829Y-80082087D01*
X91907561Y-80209530D01*
X92032119Y-80292757D01*
X92300243Y-80560881D01*
X92300245Y-80560884D01*
X92510913Y-80876171D01*
X92551302Y-80973679D01*
X92656024Y-81226501D01*
X92730000Y-81598403D01*
X92730000Y-81977597D01*
X92669224Y-82283140D01*
X92656023Y-82349502D01*
X92510913Y-82699829D01*
X92449901Y-82791140D01*
X92300243Y-83015119D01*
X92032119Y-83283243D01*
X92032116Y-83283245D01*
X91716829Y-83493913D01*
X91366502Y-83639023D01*
X91366501Y-83639023D01*
X91366499Y-83639024D01*
X90994597Y-83713000D01*
X90615403Y-83713000D01*
X90243501Y-83639024D01*
X90243499Y-83639023D01*
X90243498Y-83639023D01*
X89893171Y-83493913D01*
X89577884Y-83283245D01*
X89577881Y-83283243D01*
X89309757Y-83015119D01*
X89160099Y-82791140D01*
X89099087Y-82699829D01*
X88953977Y-82349502D01*
X88940777Y-82283140D01*
X88880000Y-81977597D01*
X88880000Y-81598403D01*
X88953976Y-81226501D01*
X89058698Y-80973679D01*
X89099087Y-80876171D01*
X89309755Y-80560884D01*
X89309757Y-80560881D01*
X89577881Y-80292757D01*
X89702439Y-80209530D01*
X89893171Y-80082087D01*
X90243498Y-79936977D01*
X90243499Y-79936977D01*
X90243501Y-79936976D01*
X90615403Y-79863000D01*
X90994597Y-79863000D01*
X91366499Y-79936976D01*
X91366499Y-79936976D01*
G37*
G36*
X154413530Y-82007877D02*
X154465010Y-82023493D01*
X154512442Y-82048846D01*
X154554027Y-82082973D01*
X154588154Y-82124558D01*
X154613507Y-82171990D01*
X154629123Y-82223470D01*
X154635000Y-82283140D01*
X154635000Y-83070860D01*
X154629123Y-83130530D01*
X154613507Y-83182010D01*
X154588154Y-83229442D01*
X154554027Y-83271027D01*
X154512442Y-83305154D01*
X154465010Y-83330507D01*
X154413530Y-83346123D01*
X154353860Y-83352000D01*
X153466140Y-83352000D01*
X153406470Y-83346123D01*
X153354990Y-83330507D01*
X153307558Y-83305154D01*
X153265973Y-83271027D01*
X153231846Y-83229442D01*
X153206493Y-83182010D01*
X153190877Y-83130530D01*
X153185000Y-83070860D01*
X153185000Y-82283140D01*
X153190877Y-82223470D01*
X153206493Y-82171990D01*
X153231846Y-82124558D01*
X153265973Y-82082973D01*
X153307558Y-82048846D01*
X153354990Y-82023493D01*
X153406470Y-82007877D01*
X153466140Y-82002000D01*
X154353860Y-82002000D01*
X154413530Y-82007877D01*
X154413530Y-82007877D01*
G37*
G36*
X152663530Y-82007877D02*
X152715010Y-82023493D01*
X152762442Y-82048846D01*
X152804027Y-82082973D01*
X152838154Y-82124558D01*
X152863507Y-82171990D01*
X152879123Y-82223470D01*
X152885000Y-82283140D01*
X152885000Y-83070860D01*
X152879123Y-83130530D01*
X152863507Y-83182010D01*
X152838154Y-83229442D01*
X152804027Y-83271027D01*
X152762442Y-83305154D01*
X152715010Y-83330507D01*
X152663530Y-83346123D01*
X152603860Y-83352000D01*
X151716140Y-83352000D01*
X151656470Y-83346123D01*
X151604990Y-83330507D01*
X151557558Y-83305154D01*
X151515973Y-83271027D01*
X151481846Y-83229442D01*
X151456493Y-83182010D01*
X151440877Y-83130530D01*
X151435000Y-83070860D01*
X151435000Y-82283140D01*
X151440877Y-82223470D01*
X151456493Y-82171990D01*
X151481846Y-82124558D01*
X151515973Y-82082973D01*
X151557558Y-82048846D01*
X151604990Y-82023493D01*
X151656470Y-82007877D01*
X151716140Y-82002000D01*
X152603860Y-82002000D01*
X152663530Y-82007877D01*
X152663530Y-82007877D01*
G37*
G36*
X148726530Y-82007877D02*
X148778010Y-82023493D01*
X148825442Y-82048846D01*
X148867027Y-82082973D01*
X148901154Y-82124558D01*
X148926507Y-82171990D01*
X148942123Y-82223470D01*
X148948000Y-82283140D01*
X148948000Y-83070860D01*
X148942123Y-83130530D01*
X148926507Y-83182010D01*
X148901154Y-83229442D01*
X148867027Y-83271027D01*
X148825442Y-83305154D01*
X148778010Y-83330507D01*
X148726530Y-83346123D01*
X148666860Y-83352000D01*
X147779140Y-83352000D01*
X147719470Y-83346123D01*
X147667990Y-83330507D01*
X147620558Y-83305154D01*
X147578973Y-83271027D01*
X147544846Y-83229442D01*
X147519493Y-83182010D01*
X147503877Y-83130530D01*
X147498000Y-83070860D01*
X147498000Y-82283140D01*
X147503877Y-82223470D01*
X147519493Y-82171990D01*
X147544846Y-82124558D01*
X147578973Y-82082973D01*
X147620558Y-82048846D01*
X147667990Y-82023493D01*
X147719470Y-82007877D01*
X147779140Y-82002000D01*
X148666860Y-82002000D01*
X148726530Y-82007877D01*
X148726530Y-82007877D01*
G37*
G36*
X150476530Y-82007877D02*
X150528010Y-82023493D01*
X150575442Y-82048846D01*
X150617027Y-82082973D01*
X150651154Y-82124558D01*
X150676507Y-82171990D01*
X150692123Y-82223470D01*
X150698000Y-82283140D01*
X150698000Y-83070860D01*
X150692123Y-83130530D01*
X150676507Y-83182010D01*
X150651154Y-83229442D01*
X150617027Y-83271027D01*
X150575442Y-83305154D01*
X150528010Y-83330507D01*
X150476530Y-83346123D01*
X150416860Y-83352000D01*
X149529140Y-83352000D01*
X149469470Y-83346123D01*
X149417990Y-83330507D01*
X149370558Y-83305154D01*
X149328973Y-83271027D01*
X149294846Y-83229442D01*
X149269493Y-83182010D01*
X149253877Y-83130530D01*
X149248000Y-83070860D01*
X149248000Y-82283140D01*
X149253877Y-82223470D01*
X149269493Y-82171990D01*
X149294846Y-82124558D01*
X149328973Y-82082973D01*
X149370558Y-82048846D01*
X149417990Y-82023493D01*
X149469470Y-82007877D01*
X149529140Y-82002000D01*
X150416860Y-82002000D01*
X150476530Y-82007877D01*
X150476530Y-82007877D01*
G37*
G36*
X183001825Y-81350877D02*
X183053305Y-81366493D01*
X183100737Y-81391846D01*
X183142322Y-81425973D01*
X183176449Y-81467558D01*
X183201802Y-81514990D01*
X183217418Y-81566470D01*
X183223295Y-81626140D01*
X183223295Y-82513860D01*
X183217418Y-82573530D01*
X183201802Y-82625010D01*
X183176449Y-82672442D01*
X183142322Y-82714027D01*
X183100737Y-82748154D01*
X183053305Y-82773507D01*
X183001825Y-82789123D01*
X182942155Y-82795000D01*
X182154435Y-82795000D01*
X182094765Y-82789123D01*
X182043285Y-82773507D01*
X181995853Y-82748154D01*
X181954268Y-82714027D01*
X181920141Y-82672442D01*
X181894788Y-82625010D01*
X181879172Y-82573530D01*
X181873295Y-82513860D01*
X181873295Y-81626140D01*
X181879172Y-81566470D01*
X181894788Y-81514990D01*
X181920141Y-81467558D01*
X181954268Y-81425973D01*
X181995853Y-81391846D01*
X182043285Y-81366493D01*
X182094765Y-81350877D01*
X182154435Y-81345000D01*
X182942155Y-81345000D01*
X183001825Y-81350877D01*
X183001825Y-81350877D01*
G37*
G36*
X185340130Y-81350877D02*
X185391610Y-81366493D01*
X185439042Y-81391846D01*
X185480627Y-81425973D01*
X185514754Y-81467558D01*
X185540107Y-81514990D01*
X185555723Y-81566470D01*
X185561600Y-81626140D01*
X185561600Y-82513860D01*
X185555723Y-82573530D01*
X185540107Y-82625010D01*
X185514754Y-82672442D01*
X185480627Y-82714027D01*
X185439042Y-82748154D01*
X185391610Y-82773507D01*
X185340130Y-82789123D01*
X185280460Y-82795000D01*
X184492740Y-82795000D01*
X184433070Y-82789123D01*
X184381590Y-82773507D01*
X184334158Y-82748154D01*
X184292573Y-82714027D01*
X184258446Y-82672442D01*
X184233093Y-82625010D01*
X184217477Y-82573530D01*
X184211600Y-82513860D01*
X184211600Y-81626140D01*
X184217477Y-81566470D01*
X184233093Y-81514990D01*
X184258446Y-81467558D01*
X184292573Y-81425973D01*
X184334158Y-81391846D01*
X184381590Y-81366493D01*
X184433070Y-81350877D01*
X184492740Y-81345000D01*
X185280460Y-81345000D01*
X185340130Y-81350877D01*
X185340130Y-81350877D01*
G37*
G36*
X191207530Y-81223877D02*
X191259010Y-81239493D01*
X191306442Y-81264846D01*
X191348027Y-81298973D01*
X191382154Y-81340558D01*
X191407507Y-81387990D01*
X191423123Y-81439470D01*
X191429000Y-81499140D01*
X191429000Y-82386860D01*
X191423123Y-82446530D01*
X191407507Y-82498010D01*
X191382154Y-82545442D01*
X191348027Y-82587027D01*
X191306442Y-82621154D01*
X191259010Y-82646507D01*
X191207530Y-82662123D01*
X191147860Y-82668000D01*
X190360140Y-82668000D01*
X190300470Y-82662123D01*
X190248990Y-82646507D01*
X190201558Y-82621154D01*
X190159973Y-82587027D01*
X190125846Y-82545442D01*
X190100493Y-82498010D01*
X190084877Y-82446530D01*
X190079000Y-82386860D01*
X190079000Y-81499140D01*
X190084877Y-81439470D01*
X190100493Y-81387990D01*
X190125846Y-81340558D01*
X190159973Y-81298973D01*
X190201558Y-81264846D01*
X190248990Y-81239493D01*
X190300470Y-81223877D01*
X190360140Y-81218000D01*
X191147860Y-81218000D01*
X191207530Y-81223877D01*
X191207530Y-81223877D01*
G37*
G36*
X195098603Y-79846968D02*
X195098606Y-79846969D01*
X195098605Y-79846969D01*
X195273678Y-79919486D01*
X195273679Y-79919487D01*
X195431241Y-80024767D01*
X195565233Y-80158759D01*
X195565234Y-80158761D01*
X195670514Y-80316322D01*
X195714805Y-80423250D01*
X195743032Y-80491397D01*
X195780000Y-80677250D01*
X195780000Y-80866750D01*
X195743032Y-81052603D01*
X195743031Y-81052605D01*
X195670514Y-81227678D01*
X195638975Y-81274879D01*
X195565233Y-81385241D01*
X195431241Y-81519233D01*
X195380190Y-81553344D01*
X195273678Y-81624514D01*
X195138266Y-81680603D01*
X195098603Y-81697032D01*
X194912750Y-81734000D01*
X194723250Y-81734000D01*
X194537397Y-81697032D01*
X194497734Y-81680603D01*
X194362322Y-81624514D01*
X194255810Y-81553344D01*
X194204759Y-81519233D01*
X194070767Y-81385241D01*
X193997025Y-81274879D01*
X193965486Y-81227678D01*
X193892969Y-81052605D01*
X193892968Y-81052603D01*
X193856000Y-80866750D01*
X193856000Y-80677250D01*
X193892968Y-80491397D01*
X193921195Y-80423250D01*
X193965486Y-80316322D01*
X194070766Y-80158761D01*
X194070767Y-80158759D01*
X194204759Y-80024767D01*
X194362321Y-79919487D01*
X194362322Y-79919486D01*
X194537395Y-79846969D01*
X194537394Y-79846969D01*
X194537397Y-79846968D01*
X194723250Y-79810000D01*
X194912750Y-79810000D01*
X195098603Y-79846968D01*
X195098603Y-79846968D01*
G37*
G36*
X99721603Y-79592968D02*
X99721606Y-79592969D01*
X99721605Y-79592969D01*
X99896678Y-79665486D01*
X99896679Y-79665487D01*
X100054241Y-79770767D01*
X100188233Y-79904759D01*
X100188234Y-79904761D01*
X100293514Y-80062322D01*
X100301701Y-80082088D01*
X100366032Y-80237397D01*
X100403000Y-80423250D01*
X100403000Y-80612750D01*
X100366032Y-80798603D01*
X100366031Y-80798605D01*
X100293514Y-80973678D01*
X100293513Y-80973679D01*
X100188233Y-81131241D01*
X100054241Y-81265233D01*
X100003746Y-81298973D01*
X99896678Y-81370514D01*
X99762787Y-81425973D01*
X99721603Y-81443032D01*
X99535750Y-81480000D01*
X99346250Y-81480000D01*
X99160397Y-81443032D01*
X99119213Y-81425973D01*
X98985322Y-81370514D01*
X98878254Y-81298973D01*
X98827759Y-81265233D01*
X98693767Y-81131241D01*
X98588487Y-80973679D01*
X98588486Y-80973678D01*
X98515969Y-80798605D01*
X98515968Y-80798603D01*
X98479000Y-80612750D01*
X98479000Y-80423250D01*
X98515968Y-80237397D01*
X98580299Y-80082088D01*
X98588486Y-80062322D01*
X98693766Y-79904761D01*
X98693767Y-79904759D01*
X98827759Y-79770767D01*
X98985321Y-79665487D01*
X98985322Y-79665486D01*
X99160395Y-79592969D01*
X99160394Y-79592969D01*
X99160397Y-79592968D01*
X99346250Y-79556000D01*
X99535750Y-79556000D01*
X99721603Y-79592968D01*
X99721603Y-79592968D01*
G37*
G36*
X185302030Y-79290877D02*
X185353510Y-79306493D01*
X185400942Y-79331846D01*
X185442527Y-79365973D01*
X185476654Y-79407558D01*
X185502007Y-79454990D01*
X185517623Y-79506470D01*
X185523500Y-79566140D01*
X185523500Y-80453860D01*
X185517623Y-80513530D01*
X185502007Y-80565010D01*
X185476654Y-80612442D01*
X185442527Y-80654027D01*
X185400942Y-80688154D01*
X185353510Y-80713507D01*
X185302030Y-80729123D01*
X185242360Y-80735000D01*
X184454640Y-80735000D01*
X184394970Y-80729123D01*
X184343490Y-80713507D01*
X184296058Y-80688154D01*
X184254473Y-80654027D01*
X184220346Y-80612442D01*
X184194993Y-80565010D01*
X184179377Y-80513530D01*
X184173500Y-80453860D01*
X184173500Y-79566140D01*
X184179377Y-79506470D01*
X184194993Y-79454990D01*
X184220346Y-79407558D01*
X184254473Y-79365973D01*
X184296058Y-79331846D01*
X184343490Y-79306493D01*
X184394970Y-79290877D01*
X184454640Y-79285000D01*
X185242360Y-79285000D01*
X185302030Y-79290877D01*
X185302030Y-79290877D01*
G37*
G36*
X182938325Y-79290877D02*
X182989805Y-79306493D01*
X183037237Y-79331846D01*
X183078822Y-79365973D01*
X183112949Y-79407558D01*
X183138302Y-79454990D01*
X183153918Y-79506470D01*
X183159795Y-79566140D01*
X183159795Y-80453860D01*
X183153918Y-80513530D01*
X183138302Y-80565010D01*
X183112949Y-80612442D01*
X183078822Y-80654027D01*
X183037237Y-80688154D01*
X182989805Y-80713507D01*
X182938325Y-80729123D01*
X182878655Y-80735000D01*
X182090935Y-80735000D01*
X182031265Y-80729123D01*
X181979785Y-80713507D01*
X181932353Y-80688154D01*
X181890768Y-80654027D01*
X181856641Y-80612442D01*
X181831288Y-80565010D01*
X181815672Y-80513530D01*
X181809795Y-80453860D01*
X181809795Y-79566140D01*
X181815672Y-79506470D01*
X181831288Y-79454990D01*
X181856641Y-79407558D01*
X181890768Y-79365973D01*
X181932353Y-79331846D01*
X181979785Y-79306493D01*
X182031265Y-79290877D01*
X182090935Y-79285000D01*
X182878655Y-79285000D01*
X182938325Y-79290877D01*
X182938325Y-79290877D01*
G37*
G36*
X191207530Y-79135877D02*
X191259010Y-79151493D01*
X191306442Y-79176846D01*
X191348027Y-79210973D01*
X191382154Y-79252558D01*
X191407507Y-79299990D01*
X191423123Y-79351470D01*
X191429000Y-79411140D01*
X191429000Y-80298860D01*
X191423123Y-80358530D01*
X191407507Y-80410010D01*
X191382154Y-80457442D01*
X191348027Y-80499027D01*
X191306442Y-80533154D01*
X191259010Y-80558507D01*
X191207530Y-80574123D01*
X191147860Y-80580000D01*
X190360140Y-80580000D01*
X190300470Y-80574123D01*
X190248990Y-80558507D01*
X190201558Y-80533154D01*
X190159973Y-80499027D01*
X190125846Y-80457442D01*
X190100493Y-80410010D01*
X190084877Y-80358530D01*
X190079000Y-80298860D01*
X190079000Y-79411140D01*
X190084877Y-79351470D01*
X190100493Y-79299990D01*
X190125846Y-79252558D01*
X190159973Y-79210973D01*
X190201558Y-79176846D01*
X190248990Y-79151493D01*
X190300470Y-79135877D01*
X190360140Y-79130000D01*
X191147860Y-79130000D01*
X191207530Y-79135877D01*
X191207530Y-79135877D01*
G37*
G36*
X165691130Y-79213877D02*
X165742610Y-79229493D01*
X165790042Y-79254846D01*
X165831627Y-79288973D01*
X165865754Y-79330558D01*
X165891107Y-79377990D01*
X165906723Y-79429470D01*
X165912600Y-79489140D01*
X165912600Y-80276860D01*
X165906723Y-80336530D01*
X165891107Y-80388010D01*
X165865754Y-80435442D01*
X165831627Y-80477027D01*
X165790042Y-80511154D01*
X165742610Y-80536507D01*
X165691130Y-80552123D01*
X165631460Y-80558000D01*
X164743740Y-80558000D01*
X164684070Y-80552123D01*
X164632590Y-80536507D01*
X164585158Y-80511154D01*
X164543573Y-80477027D01*
X164509446Y-80435442D01*
X164484093Y-80388010D01*
X164468477Y-80336530D01*
X164462600Y-80276860D01*
X164462600Y-79489140D01*
X164468477Y-79429470D01*
X164484093Y-79377990D01*
X164509446Y-79330558D01*
X164543573Y-79288973D01*
X164585158Y-79254846D01*
X164632590Y-79229493D01*
X164684070Y-79213877D01*
X164743740Y-79208000D01*
X165631460Y-79208000D01*
X165691130Y-79213877D01*
X165691130Y-79213877D01*
G37*
G36*
X169413530Y-79213877D02*
X169465010Y-79229493D01*
X169512442Y-79254846D01*
X169554027Y-79288973D01*
X169588154Y-79330558D01*
X169613507Y-79377990D01*
X169629123Y-79429470D01*
X169635000Y-79489140D01*
X169635000Y-80276860D01*
X169629123Y-80336530D01*
X169613507Y-80388010D01*
X169588154Y-80435442D01*
X169554027Y-80477027D01*
X169512442Y-80511154D01*
X169465010Y-80536507D01*
X169413530Y-80552123D01*
X169353860Y-80558000D01*
X168466140Y-80558000D01*
X168406470Y-80552123D01*
X168354990Y-80536507D01*
X168307558Y-80511154D01*
X168265973Y-80477027D01*
X168231846Y-80435442D01*
X168206493Y-80388010D01*
X168190877Y-80336530D01*
X168185000Y-80276860D01*
X168185000Y-79489140D01*
X168190877Y-79429470D01*
X168206493Y-79377990D01*
X168231846Y-79330558D01*
X168265973Y-79288973D01*
X168307558Y-79254846D01*
X168354990Y-79229493D01*
X168406470Y-79213877D01*
X168466140Y-79208000D01*
X169353860Y-79208000D01*
X169413530Y-79213877D01*
X169413530Y-79213877D01*
G37*
G36*
X163941130Y-79213877D02*
X163992610Y-79229493D01*
X164040042Y-79254846D01*
X164081627Y-79288973D01*
X164115754Y-79330558D01*
X164141107Y-79377990D01*
X164156723Y-79429470D01*
X164162600Y-79489140D01*
X164162600Y-80276860D01*
X164156723Y-80336530D01*
X164141107Y-80388010D01*
X164115754Y-80435442D01*
X164081627Y-80477027D01*
X164040042Y-80511154D01*
X163992610Y-80536507D01*
X163941130Y-80552123D01*
X163881460Y-80558000D01*
X162993740Y-80558000D01*
X162934070Y-80552123D01*
X162882590Y-80536507D01*
X162835158Y-80511154D01*
X162793573Y-80477027D01*
X162759446Y-80435442D01*
X162734093Y-80388010D01*
X162718477Y-80336530D01*
X162712600Y-80276860D01*
X162712600Y-79489140D01*
X162718477Y-79429470D01*
X162734093Y-79377990D01*
X162759446Y-79330558D01*
X162793573Y-79288973D01*
X162835158Y-79254846D01*
X162882590Y-79229493D01*
X162934070Y-79213877D01*
X162993740Y-79208000D01*
X163881460Y-79208000D01*
X163941130Y-79213877D01*
X163941130Y-79213877D01*
G37*
G36*
X167663530Y-79213877D02*
X167715010Y-79229493D01*
X167762442Y-79254846D01*
X167804027Y-79288973D01*
X167838154Y-79330558D01*
X167863507Y-79377990D01*
X167879123Y-79429470D01*
X167885000Y-79489140D01*
X167885000Y-80276860D01*
X167879123Y-80336530D01*
X167863507Y-80388010D01*
X167838154Y-80435442D01*
X167804027Y-80477027D01*
X167762442Y-80511154D01*
X167715010Y-80536507D01*
X167663530Y-80552123D01*
X167603860Y-80558000D01*
X166716140Y-80558000D01*
X166656470Y-80552123D01*
X166604990Y-80536507D01*
X166557558Y-80511154D01*
X166515973Y-80477027D01*
X166481846Y-80435442D01*
X166456493Y-80388010D01*
X166440877Y-80336530D01*
X166435000Y-80276860D01*
X166435000Y-79489140D01*
X166440877Y-79429470D01*
X166456493Y-79377990D01*
X166481846Y-79330558D01*
X166515973Y-79288973D01*
X166557558Y-79254846D01*
X166604990Y-79229493D01*
X166656470Y-79213877D01*
X166716140Y-79208000D01*
X167603860Y-79208000D01*
X167663530Y-79213877D01*
X167663530Y-79213877D01*
G37*
G36*
X150476530Y-79086877D02*
X150528010Y-79102493D01*
X150575442Y-79127846D01*
X150617027Y-79161973D01*
X150651154Y-79203558D01*
X150676507Y-79250990D01*
X150692123Y-79302470D01*
X150698000Y-79362140D01*
X150698000Y-80149860D01*
X150692123Y-80209530D01*
X150676507Y-80261010D01*
X150651154Y-80308442D01*
X150617027Y-80350027D01*
X150575442Y-80384154D01*
X150528010Y-80409507D01*
X150476530Y-80425123D01*
X150416860Y-80431000D01*
X149529140Y-80431000D01*
X149469470Y-80425123D01*
X149417990Y-80409507D01*
X149370558Y-80384154D01*
X149328973Y-80350027D01*
X149294846Y-80308442D01*
X149269493Y-80261010D01*
X149253877Y-80209530D01*
X149248000Y-80149860D01*
X149248000Y-79362140D01*
X149253877Y-79302470D01*
X149269493Y-79250990D01*
X149294846Y-79203558D01*
X149328973Y-79161973D01*
X149370558Y-79127846D01*
X149417990Y-79102493D01*
X149469470Y-79086877D01*
X149529140Y-79081000D01*
X150416860Y-79081000D01*
X150476530Y-79086877D01*
X150476530Y-79086877D01*
G37*
G36*
X152677530Y-79086877D02*
X152729010Y-79102493D01*
X152776442Y-79127846D01*
X152818027Y-79161973D01*
X152852154Y-79203558D01*
X152877507Y-79250990D01*
X152893123Y-79302470D01*
X152899000Y-79362140D01*
X152899000Y-80149860D01*
X152893123Y-80209530D01*
X152877507Y-80261010D01*
X152852154Y-80308442D01*
X152818027Y-80350027D01*
X152776442Y-80384154D01*
X152729010Y-80409507D01*
X152677530Y-80425123D01*
X152617860Y-80431000D01*
X151730140Y-80431000D01*
X151670470Y-80425123D01*
X151618990Y-80409507D01*
X151571558Y-80384154D01*
X151529973Y-80350027D01*
X151495846Y-80308442D01*
X151470493Y-80261010D01*
X151454877Y-80209530D01*
X151449000Y-80149860D01*
X151449000Y-79362140D01*
X151454877Y-79302470D01*
X151470493Y-79250990D01*
X151495846Y-79203558D01*
X151529973Y-79161973D01*
X151571558Y-79127846D01*
X151618990Y-79102493D01*
X151670470Y-79086877D01*
X151730140Y-79081000D01*
X152617860Y-79081000D01*
X152677530Y-79086877D01*
X152677530Y-79086877D01*
G37*
G36*
X148726530Y-79086877D02*
X148778010Y-79102493D01*
X148825442Y-79127846D01*
X148867027Y-79161973D01*
X148901154Y-79203558D01*
X148926507Y-79250990D01*
X148942123Y-79302470D01*
X148948000Y-79362140D01*
X148948000Y-80149860D01*
X148942123Y-80209530D01*
X148926507Y-80261010D01*
X148901154Y-80308442D01*
X148867027Y-80350027D01*
X148825442Y-80384154D01*
X148778010Y-80409507D01*
X148726530Y-80425123D01*
X148666860Y-80431000D01*
X147779140Y-80431000D01*
X147719470Y-80425123D01*
X147667990Y-80409507D01*
X147620558Y-80384154D01*
X147578973Y-80350027D01*
X147544846Y-80308442D01*
X147519493Y-80261010D01*
X147503877Y-80209530D01*
X147498000Y-80149860D01*
X147498000Y-79362140D01*
X147503877Y-79302470D01*
X147519493Y-79250990D01*
X147544846Y-79203558D01*
X147578973Y-79161973D01*
X147620558Y-79127846D01*
X147667990Y-79102493D01*
X147719470Y-79086877D01*
X147779140Y-79081000D01*
X148666860Y-79081000D01*
X148726530Y-79086877D01*
X148726530Y-79086877D01*
G37*
G36*
X154427530Y-79086877D02*
X154479010Y-79102493D01*
X154526442Y-79127846D01*
X154568027Y-79161973D01*
X154602154Y-79203558D01*
X154627507Y-79250990D01*
X154643123Y-79302470D01*
X154649000Y-79362140D01*
X154649000Y-80149860D01*
X154643123Y-80209530D01*
X154627507Y-80261010D01*
X154602154Y-80308442D01*
X154568027Y-80350027D01*
X154526442Y-80384154D01*
X154479010Y-80409507D01*
X154427530Y-80425123D01*
X154367860Y-80431000D01*
X153480140Y-80431000D01*
X153420470Y-80425123D01*
X153368990Y-80409507D01*
X153321558Y-80384154D01*
X153279973Y-80350027D01*
X153245846Y-80308442D01*
X153220493Y-80261010D01*
X153204877Y-80209530D01*
X153199000Y-80149860D01*
X153199000Y-79362140D01*
X153204877Y-79302470D01*
X153220493Y-79250990D01*
X153245846Y-79203558D01*
X153279973Y-79161973D01*
X153321558Y-79127846D01*
X153368990Y-79102493D01*
X153420470Y-79086877D01*
X153480140Y-79081000D01*
X154367860Y-79081000D01*
X154427530Y-79086877D01*
X154427530Y-79086877D01*
G37*
G36*
X195098603Y-77306968D02*
X195098606Y-77306969D01*
X195098605Y-77306969D01*
X195273678Y-77379486D01*
X195347821Y-77429027D01*
X195431241Y-77484767D01*
X195565233Y-77618759D01*
X195565234Y-77618761D01*
X195670514Y-77776322D01*
X195683079Y-77806657D01*
X195743032Y-77951397D01*
X195780000Y-78137250D01*
X195780000Y-78326750D01*
X195743032Y-78512603D01*
X195743031Y-78512605D01*
X195670514Y-78687678D01*
X195641467Y-78731149D01*
X195565233Y-78845241D01*
X195431241Y-78979233D01*
X195422610Y-78985000D01*
X195273678Y-79084514D01*
X195169064Y-79127846D01*
X195098603Y-79157032D01*
X194912750Y-79194000D01*
X194723250Y-79194000D01*
X194537397Y-79157032D01*
X194466936Y-79127846D01*
X194362322Y-79084514D01*
X194213390Y-78985000D01*
X194204759Y-78979233D01*
X194070767Y-78845241D01*
X193994533Y-78731149D01*
X193965486Y-78687678D01*
X193892969Y-78512605D01*
X193892968Y-78512603D01*
X193856000Y-78326750D01*
X193856000Y-78137250D01*
X193892968Y-77951397D01*
X193952921Y-77806657D01*
X193965486Y-77776322D01*
X194070766Y-77618761D01*
X194070767Y-77618759D01*
X194204759Y-77484767D01*
X194288179Y-77429027D01*
X194362322Y-77379486D01*
X194537395Y-77306969D01*
X194537394Y-77306969D01*
X194537397Y-77306968D01*
X194723250Y-77270000D01*
X194912750Y-77270000D01*
X195098603Y-77306968D01*
X195098603Y-77306968D01*
G37*
G36*
X185302030Y-77540877D02*
X185353510Y-77556493D01*
X185400942Y-77581846D01*
X185442527Y-77615973D01*
X185476654Y-77657558D01*
X185502007Y-77704990D01*
X185517623Y-77756470D01*
X185523500Y-77816140D01*
X185523500Y-78703860D01*
X185517623Y-78763530D01*
X185502007Y-78815010D01*
X185476654Y-78862442D01*
X185442527Y-78904027D01*
X185400942Y-78938154D01*
X185353510Y-78963507D01*
X185302030Y-78979123D01*
X185242360Y-78985000D01*
X184454640Y-78985000D01*
X184394970Y-78979123D01*
X184343490Y-78963507D01*
X184296058Y-78938154D01*
X184254473Y-78904027D01*
X184220346Y-78862442D01*
X184194993Y-78815010D01*
X184179377Y-78763530D01*
X184173500Y-78703860D01*
X184173500Y-77816140D01*
X184179377Y-77756470D01*
X184194993Y-77704990D01*
X184220346Y-77657558D01*
X184254473Y-77615973D01*
X184296058Y-77581846D01*
X184343490Y-77556493D01*
X184394970Y-77540877D01*
X184454640Y-77535000D01*
X185242360Y-77535000D01*
X185302030Y-77540877D01*
X185302030Y-77540877D01*
G37*
G36*
X182938325Y-77540877D02*
X182989805Y-77556493D01*
X183037237Y-77581846D01*
X183078822Y-77615973D01*
X183112949Y-77657558D01*
X183138302Y-77704990D01*
X183153918Y-77756470D01*
X183159795Y-77816140D01*
X183159795Y-78703860D01*
X183153918Y-78763530D01*
X183138302Y-78815010D01*
X183112949Y-78862442D01*
X183078822Y-78904027D01*
X183037237Y-78938154D01*
X182989805Y-78963507D01*
X182938325Y-78979123D01*
X182878655Y-78985000D01*
X182090935Y-78985000D01*
X182031265Y-78979123D01*
X181979785Y-78963507D01*
X181932353Y-78938154D01*
X181890768Y-78904027D01*
X181856641Y-78862442D01*
X181831288Y-78815010D01*
X181815672Y-78763530D01*
X181809795Y-78703860D01*
X181809795Y-77816140D01*
X181815672Y-77756470D01*
X181831288Y-77704990D01*
X181856641Y-77657558D01*
X181890768Y-77615973D01*
X181932353Y-77581846D01*
X181979785Y-77556493D01*
X182031265Y-77540877D01*
X182090935Y-77535000D01*
X182878655Y-77535000D01*
X182938325Y-77540877D01*
X182938325Y-77540877D01*
G37*
G36*
X99721603Y-77052968D02*
X99721606Y-77052969D01*
X99721605Y-77052969D01*
X99896678Y-77125486D01*
X99970265Y-77174656D01*
X100054241Y-77230767D01*
X100188233Y-77364759D01*
X100236422Y-77436879D01*
X100293514Y-77522322D01*
X100318169Y-77581846D01*
X100366032Y-77697397D01*
X100403000Y-77883250D01*
X100403000Y-78072750D01*
X100366032Y-78258603D01*
X100366031Y-78258605D01*
X100293514Y-78433678D01*
X100293513Y-78433679D01*
X100188233Y-78591241D01*
X100054241Y-78725233D01*
X100045387Y-78731149D01*
X99896678Y-78830514D01*
X99819596Y-78862442D01*
X99721603Y-78903032D01*
X99535750Y-78940000D01*
X99346250Y-78940000D01*
X99160397Y-78903032D01*
X99062404Y-78862442D01*
X98985322Y-78830514D01*
X98836613Y-78731149D01*
X98827759Y-78725233D01*
X98693767Y-78591241D01*
X98588487Y-78433679D01*
X98588486Y-78433678D01*
X98515969Y-78258605D01*
X98515968Y-78258603D01*
X98479000Y-78072750D01*
X98479000Y-77883250D01*
X98515968Y-77697397D01*
X98563831Y-77581846D01*
X98588486Y-77522322D01*
X98645578Y-77436879D01*
X98693767Y-77364759D01*
X98827759Y-77230767D01*
X98911735Y-77174656D01*
X98985322Y-77125486D01*
X99160395Y-77052969D01*
X99160394Y-77052969D01*
X99160397Y-77052968D01*
X99346250Y-77016000D01*
X99535750Y-77016000D01*
X99721603Y-77052968D01*
X99721603Y-77052968D01*
G37*
G36*
X191207530Y-77385877D02*
X191259010Y-77401493D01*
X191306442Y-77426846D01*
X191348027Y-77460973D01*
X191382154Y-77502558D01*
X191407507Y-77549990D01*
X191423123Y-77601470D01*
X191429000Y-77661140D01*
X191429000Y-78548860D01*
X191423123Y-78608530D01*
X191407507Y-78660010D01*
X191382154Y-78707442D01*
X191348027Y-78749027D01*
X191306442Y-78783154D01*
X191259010Y-78808507D01*
X191207530Y-78824123D01*
X191147860Y-78830000D01*
X190360140Y-78830000D01*
X190300470Y-78824123D01*
X190248990Y-78808507D01*
X190201558Y-78783154D01*
X190159973Y-78749027D01*
X190125846Y-78707442D01*
X190100493Y-78660010D01*
X190084877Y-78608530D01*
X190079000Y-78548860D01*
X190079000Y-77661140D01*
X190084877Y-77601470D01*
X190100493Y-77549990D01*
X190125846Y-77502558D01*
X190159973Y-77460973D01*
X190201558Y-77426846D01*
X190248990Y-77401493D01*
X190300470Y-77385877D01*
X190360140Y-77380000D01*
X191147860Y-77380000D01*
X191207530Y-77385877D01*
X191207530Y-77385877D01*
G37*
G36*
X150522944Y-76167981D02*
X150574424Y-76183597D01*
X150621856Y-76208950D01*
X150663441Y-76243077D01*
X150697568Y-76284662D01*
X150722921Y-76332094D01*
X150738537Y-76383574D01*
X150744414Y-76443244D01*
X150744414Y-77230964D01*
X150738537Y-77290634D01*
X150722921Y-77342114D01*
X150697568Y-77389546D01*
X150663441Y-77431131D01*
X150621856Y-77465258D01*
X150574424Y-77490611D01*
X150522944Y-77506227D01*
X150463274Y-77512104D01*
X149575554Y-77512104D01*
X149515884Y-77506227D01*
X149464404Y-77490611D01*
X149416972Y-77465258D01*
X149375387Y-77431131D01*
X149341260Y-77389546D01*
X149315907Y-77342114D01*
X149300291Y-77290634D01*
X149294414Y-77230964D01*
X149294414Y-76443244D01*
X149300291Y-76383574D01*
X149315907Y-76332094D01*
X149341260Y-76284662D01*
X149375387Y-76243077D01*
X149416972Y-76208950D01*
X149464404Y-76183597D01*
X149515884Y-76167981D01*
X149575554Y-76162104D01*
X150463274Y-76162104D01*
X150522944Y-76167981D01*
X150522944Y-76167981D01*
G37*
G36*
X148772944Y-76167981D02*
X148824424Y-76183597D01*
X148871856Y-76208950D01*
X148913441Y-76243077D01*
X148947568Y-76284662D01*
X148972921Y-76332094D01*
X148988537Y-76383574D01*
X148994414Y-76443244D01*
X148994414Y-77230964D01*
X148988537Y-77290634D01*
X148972921Y-77342114D01*
X148947568Y-77389546D01*
X148913441Y-77431131D01*
X148871856Y-77465258D01*
X148824424Y-77490611D01*
X148772944Y-77506227D01*
X148713274Y-77512104D01*
X147825554Y-77512104D01*
X147765884Y-77506227D01*
X147714404Y-77490611D01*
X147666972Y-77465258D01*
X147625387Y-77431131D01*
X147591260Y-77389546D01*
X147565907Y-77342114D01*
X147550291Y-77290634D01*
X147544414Y-77230964D01*
X147544414Y-76443244D01*
X147550291Y-76383574D01*
X147565907Y-76332094D01*
X147591260Y-76284662D01*
X147625387Y-76243077D01*
X147666972Y-76208950D01*
X147714404Y-76183597D01*
X147765884Y-76167981D01*
X147825554Y-76162104D01*
X148713274Y-76162104D01*
X148772944Y-76167981D01*
X148772944Y-76167981D01*
G37*
G36*
X154399530Y-76165877D02*
X154451010Y-76181493D01*
X154498442Y-76206846D01*
X154540027Y-76240973D01*
X154574154Y-76282558D01*
X154599507Y-76329990D01*
X154615123Y-76381470D01*
X154621000Y-76441140D01*
X154621000Y-77228860D01*
X154615123Y-77288530D01*
X154599507Y-77340010D01*
X154574154Y-77387442D01*
X154540027Y-77429027D01*
X154498442Y-77463154D01*
X154451010Y-77488507D01*
X154399530Y-77504123D01*
X154339860Y-77510000D01*
X153452140Y-77510000D01*
X153392470Y-77504123D01*
X153340990Y-77488507D01*
X153293558Y-77463154D01*
X153251973Y-77429027D01*
X153217846Y-77387442D01*
X153192493Y-77340010D01*
X153176877Y-77288530D01*
X153171000Y-77228860D01*
X153171000Y-76441140D01*
X153176877Y-76381470D01*
X153192493Y-76329990D01*
X153217846Y-76282558D01*
X153251973Y-76240973D01*
X153293558Y-76206846D01*
X153340990Y-76181493D01*
X153392470Y-76165877D01*
X153452140Y-76160000D01*
X154339860Y-76160000D01*
X154399530Y-76165877D01*
X154399530Y-76165877D01*
G37*
G36*
X152649530Y-76165877D02*
X152701010Y-76181493D01*
X152748442Y-76206846D01*
X152790027Y-76240973D01*
X152824154Y-76282558D01*
X152849507Y-76329990D01*
X152865123Y-76381470D01*
X152871000Y-76441140D01*
X152871000Y-77228860D01*
X152865123Y-77288530D01*
X152849507Y-77340010D01*
X152824154Y-77387442D01*
X152790027Y-77429027D01*
X152748442Y-77463154D01*
X152701010Y-77488507D01*
X152649530Y-77504123D01*
X152589860Y-77510000D01*
X151702140Y-77510000D01*
X151642470Y-77504123D01*
X151590990Y-77488507D01*
X151543558Y-77463154D01*
X151501973Y-77429027D01*
X151467846Y-77387442D01*
X151442493Y-77340010D01*
X151426877Y-77288530D01*
X151421000Y-77228860D01*
X151421000Y-76441140D01*
X151426877Y-76381470D01*
X151442493Y-76329990D01*
X151467846Y-76282558D01*
X151501973Y-76240973D01*
X151543558Y-76206846D01*
X151590990Y-76181493D01*
X151642470Y-76165877D01*
X151702140Y-76160000D01*
X152589860Y-76160000D01*
X152649530Y-76165877D01*
X152649530Y-76165877D01*
G37*
G36*
X163966530Y-76038877D02*
X164018010Y-76054493D01*
X164065442Y-76079846D01*
X164107027Y-76113973D01*
X164141154Y-76155558D01*
X164166507Y-76202990D01*
X164182123Y-76254470D01*
X164188000Y-76314140D01*
X164188000Y-77101860D01*
X164182123Y-77161530D01*
X164166507Y-77213010D01*
X164141154Y-77260442D01*
X164107027Y-77302027D01*
X164065442Y-77336154D01*
X164018010Y-77361507D01*
X163966530Y-77377123D01*
X163906860Y-77383000D01*
X163019140Y-77383000D01*
X162959470Y-77377123D01*
X162907990Y-77361507D01*
X162860558Y-77336154D01*
X162818973Y-77302027D01*
X162784846Y-77260442D01*
X162759493Y-77213010D01*
X162743877Y-77161530D01*
X162738000Y-77101860D01*
X162738000Y-76314140D01*
X162743877Y-76254470D01*
X162759493Y-76202990D01*
X162784846Y-76155558D01*
X162818973Y-76113973D01*
X162860558Y-76079846D01*
X162907990Y-76054493D01*
X162959470Y-76038877D01*
X163019140Y-76033000D01*
X163906860Y-76033000D01*
X163966530Y-76038877D01*
X163966530Y-76038877D01*
G37*
G36*
X165716530Y-76038877D02*
X165768010Y-76054493D01*
X165815442Y-76079846D01*
X165857027Y-76113973D01*
X165891154Y-76155558D01*
X165916507Y-76202990D01*
X165932123Y-76254470D01*
X165938000Y-76314140D01*
X165938000Y-77101860D01*
X165932123Y-77161530D01*
X165916507Y-77213010D01*
X165891154Y-77260442D01*
X165857027Y-77302027D01*
X165815442Y-77336154D01*
X165768010Y-77361507D01*
X165716530Y-77377123D01*
X165656860Y-77383000D01*
X164769140Y-77383000D01*
X164709470Y-77377123D01*
X164657990Y-77361507D01*
X164610558Y-77336154D01*
X164568973Y-77302027D01*
X164534846Y-77260442D01*
X164509493Y-77213010D01*
X164493877Y-77161530D01*
X164488000Y-77101860D01*
X164488000Y-76314140D01*
X164493877Y-76254470D01*
X164509493Y-76202990D01*
X164534846Y-76155558D01*
X164568973Y-76113973D01*
X164610558Y-76079846D01*
X164657990Y-76054493D01*
X164709470Y-76038877D01*
X164769140Y-76033000D01*
X165656860Y-76033000D01*
X165716530Y-76038877D01*
X165716530Y-76038877D01*
G37*
G36*
X167663530Y-76038877D02*
X167715010Y-76054493D01*
X167762442Y-76079846D01*
X167804027Y-76113973D01*
X167838154Y-76155558D01*
X167863507Y-76202990D01*
X167879123Y-76254470D01*
X167885000Y-76314140D01*
X167885000Y-77101860D01*
X167879123Y-77161530D01*
X167863507Y-77213010D01*
X167838154Y-77260442D01*
X167804027Y-77302027D01*
X167762442Y-77336154D01*
X167715010Y-77361507D01*
X167663530Y-77377123D01*
X167603860Y-77383000D01*
X166716140Y-77383000D01*
X166656470Y-77377123D01*
X166604990Y-77361507D01*
X166557558Y-77336154D01*
X166515973Y-77302027D01*
X166481846Y-77260442D01*
X166456493Y-77213010D01*
X166440877Y-77161530D01*
X166435000Y-77101860D01*
X166435000Y-76314140D01*
X166440877Y-76254470D01*
X166456493Y-76202990D01*
X166481846Y-76155558D01*
X166515973Y-76113973D01*
X166557558Y-76079846D01*
X166604990Y-76054493D01*
X166656470Y-76038877D01*
X166716140Y-76033000D01*
X167603860Y-76033000D01*
X167663530Y-76038877D01*
X167663530Y-76038877D01*
G37*
G36*
X169413530Y-76038877D02*
X169465010Y-76054493D01*
X169512442Y-76079846D01*
X169554027Y-76113973D01*
X169588154Y-76155558D01*
X169613507Y-76202990D01*
X169629123Y-76254470D01*
X169635000Y-76314140D01*
X169635000Y-77101860D01*
X169629123Y-77161530D01*
X169613507Y-77213010D01*
X169588154Y-77260442D01*
X169554027Y-77302027D01*
X169512442Y-77336154D01*
X169465010Y-77361507D01*
X169413530Y-77377123D01*
X169353860Y-77383000D01*
X168466140Y-77383000D01*
X168406470Y-77377123D01*
X168354990Y-77361507D01*
X168307558Y-77336154D01*
X168265973Y-77302027D01*
X168231846Y-77260442D01*
X168206493Y-77213010D01*
X168190877Y-77161530D01*
X168185000Y-77101860D01*
X168185000Y-76314140D01*
X168190877Y-76254470D01*
X168206493Y-76202990D01*
X168231846Y-76155558D01*
X168265973Y-76113973D01*
X168307558Y-76079846D01*
X168354990Y-76054493D01*
X168406470Y-76038877D01*
X168466140Y-76033000D01*
X169353860Y-76033000D01*
X169413530Y-76038877D01*
X169413530Y-76038877D01*
G37*
G36*
X99721603Y-74512968D02*
X99721606Y-74512969D01*
X99721605Y-74512969D01*
X99896678Y-74585486D01*
X99896679Y-74585487D01*
X100054241Y-74690767D01*
X100188233Y-74824759D01*
X100188234Y-74824761D01*
X100293514Y-74982322D01*
X100349603Y-75117734D01*
X100366032Y-75157397D01*
X100403000Y-75343250D01*
X100403000Y-75532750D01*
X100366032Y-75718603D01*
X100366031Y-75718605D01*
X100293514Y-75893678D01*
X100293513Y-75893679D01*
X100188233Y-76051241D01*
X100054241Y-76185233D01*
X100003731Y-76218983D01*
X99896678Y-76290514D01*
X99796294Y-76332094D01*
X99721603Y-76363032D01*
X99535750Y-76400000D01*
X99346250Y-76400000D01*
X99160397Y-76363032D01*
X99085706Y-76332094D01*
X98985322Y-76290514D01*
X98878269Y-76218983D01*
X98827759Y-76185233D01*
X98693767Y-76051241D01*
X98588487Y-75893679D01*
X98588486Y-75893678D01*
X98515969Y-75718605D01*
X98515968Y-75718603D01*
X98479000Y-75532750D01*
X98479000Y-75343250D01*
X98515968Y-75157397D01*
X98532397Y-75117734D01*
X98588486Y-74982322D01*
X98693766Y-74824761D01*
X98693767Y-74824759D01*
X98827759Y-74690767D01*
X98985321Y-74585487D01*
X98985322Y-74585486D01*
X99160395Y-74512969D01*
X99160394Y-74512969D01*
X99160397Y-74512968D01*
X99346250Y-74476000D01*
X99535750Y-74476000D01*
X99721603Y-74512968D01*
X99721603Y-74512968D01*
G37*
G36*
X99721603Y-71972968D02*
X99721606Y-71972969D01*
X99721605Y-71972969D01*
X99896678Y-72045486D01*
X99896679Y-72045487D01*
X100054241Y-72150767D01*
X100188233Y-72284759D01*
X100188234Y-72284761D01*
X100293514Y-72442322D01*
X100333902Y-72539829D01*
X100366032Y-72617397D01*
X100403000Y-72803250D01*
X100403000Y-72992750D01*
X100366032Y-73178603D01*
X100366031Y-73178605D01*
X100293514Y-73353678D01*
X100293513Y-73353679D01*
X100188233Y-73511241D01*
X100054241Y-73645233D01*
X99974923Y-73698232D01*
X99896678Y-73750514D01*
X99761266Y-73806603D01*
X99721603Y-73823032D01*
X99535750Y-73860000D01*
X99346250Y-73860000D01*
X99160397Y-73823032D01*
X99120734Y-73806603D01*
X98985322Y-73750514D01*
X98907077Y-73698232D01*
X98827759Y-73645233D01*
X98693767Y-73511241D01*
X98588487Y-73353679D01*
X98588486Y-73353678D01*
X98515969Y-73178605D01*
X98515968Y-73178603D01*
X98479000Y-72992750D01*
X98479000Y-72803250D01*
X98515968Y-72617397D01*
X98548098Y-72539829D01*
X98588486Y-72442322D01*
X98693766Y-72284761D01*
X98693767Y-72284759D01*
X98827759Y-72150767D01*
X98985321Y-72045487D01*
X98985322Y-72045486D01*
X99160395Y-71972969D01*
X99160394Y-71972969D01*
X99160397Y-71972968D01*
X99346250Y-71936000D01*
X99535750Y-71936000D01*
X99721603Y-71972968D01*
X99721603Y-71972968D01*
G37*
G36*
X91366499Y-69776976D02*
X91366501Y-69776977D01*
X91366502Y-69776977D01*
X91716829Y-69922087D01*
X91895257Y-70041309D01*
X92032119Y-70132757D01*
X92300243Y-70400881D01*
X92300245Y-70400884D01*
X92510913Y-70716171D01*
X92656023Y-71066498D01*
X92656024Y-71066501D01*
X92730000Y-71438403D01*
X92730000Y-71817597D01*
X92684670Y-72045487D01*
X92656023Y-72189502D01*
X92510913Y-72539829D01*
X92334901Y-72803250D01*
X92300243Y-72855119D01*
X92032119Y-73123243D01*
X92032116Y-73123245D01*
X91716829Y-73333913D01*
X91366502Y-73479023D01*
X91366501Y-73479023D01*
X91366499Y-73479024D01*
X90994597Y-73553000D01*
X90615403Y-73553000D01*
X90243501Y-73479024D01*
X90243499Y-73479023D01*
X90243498Y-73479023D01*
X89893171Y-73333913D01*
X89577884Y-73123245D01*
X89577881Y-73123243D01*
X89309757Y-72855119D01*
X89275099Y-72803250D01*
X89099087Y-72539829D01*
X88953977Y-72189502D01*
X88925331Y-72045487D01*
X88880000Y-71817597D01*
X88880000Y-71438403D01*
X88953976Y-71066501D01*
X88953977Y-71066498D01*
X89099087Y-70716171D01*
X89309755Y-70400884D01*
X89309757Y-70400881D01*
X89577881Y-70132757D01*
X89714743Y-70041309D01*
X89893171Y-69922087D01*
X90243498Y-69776977D01*
X90243499Y-69776977D01*
X90243501Y-69776976D01*
X90615403Y-69703000D01*
X90994597Y-69703000D01*
X91366499Y-69776976D01*
X91366499Y-69776976D01*
G37*
G36*
X195098603Y-69940968D02*
X195098606Y-69940969D01*
X195098605Y-69940969D01*
X195273678Y-70013486D01*
X195321600Y-70045507D01*
X195431241Y-70118767D01*
X195565233Y-70252759D01*
X195565234Y-70252761D01*
X195670514Y-70410322D01*
X195703334Y-70489558D01*
X195743032Y-70585397D01*
X195780000Y-70771250D01*
X195780000Y-70960750D01*
X195743032Y-71146603D01*
X195743031Y-71146605D01*
X195670514Y-71321678D01*
X195670513Y-71321679D01*
X195565233Y-71479241D01*
X195431241Y-71613233D01*
X195380690Y-71647010D01*
X195273678Y-71718514D01*
X195173229Y-71760121D01*
X195098603Y-71791032D01*
X194912750Y-71828000D01*
X194723250Y-71828000D01*
X194537397Y-71791032D01*
X194462771Y-71760121D01*
X194362322Y-71718514D01*
X194255310Y-71647010D01*
X194204759Y-71613233D01*
X194070767Y-71479241D01*
X193965487Y-71321679D01*
X193965486Y-71321678D01*
X193892969Y-71146605D01*
X193892968Y-71146603D01*
X193856000Y-70960750D01*
X193856000Y-70771250D01*
X193892968Y-70585397D01*
X193932666Y-70489558D01*
X193965486Y-70410322D01*
X194070766Y-70252761D01*
X194070767Y-70252759D01*
X194204759Y-70118767D01*
X194314400Y-70045507D01*
X194362322Y-70013486D01*
X194537395Y-69940969D01*
X194537394Y-69940969D01*
X194537397Y-69940968D01*
X194723250Y-69904000D01*
X194912750Y-69904000D01*
X195098603Y-69940968D01*
X195098603Y-69940968D01*
G37*
G36*
X191334530Y-70372877D02*
X191386010Y-70388493D01*
X191433442Y-70413846D01*
X191475027Y-70447973D01*
X191509154Y-70489558D01*
X191534507Y-70536990D01*
X191550123Y-70588470D01*
X191556000Y-70648140D01*
X191556000Y-71535860D01*
X191550123Y-71595530D01*
X191534507Y-71647010D01*
X191509154Y-71694442D01*
X191475027Y-71736027D01*
X191433442Y-71770154D01*
X191386010Y-71795507D01*
X191334530Y-71811123D01*
X191274860Y-71817000D01*
X190487140Y-71817000D01*
X190427470Y-71811123D01*
X190375990Y-71795507D01*
X190328558Y-71770154D01*
X190286973Y-71736027D01*
X190252846Y-71694442D01*
X190227493Y-71647010D01*
X190211877Y-71595530D01*
X190206000Y-71535860D01*
X190206000Y-70648140D01*
X190211877Y-70588470D01*
X190227493Y-70536990D01*
X190252846Y-70489558D01*
X190286973Y-70447973D01*
X190328558Y-70413846D01*
X190375990Y-70388493D01*
X190427470Y-70372877D01*
X190487140Y-70367000D01*
X191274860Y-70367000D01*
X191334530Y-70372877D01*
X191334530Y-70372877D01*
G37*
G36*
X191334530Y-68622877D02*
X191386010Y-68638493D01*
X191433442Y-68663846D01*
X191475027Y-68697973D01*
X191509154Y-68739558D01*
X191534507Y-68786990D01*
X191550123Y-68838470D01*
X191556000Y-68898140D01*
X191556000Y-69785860D01*
X191550123Y-69845530D01*
X191534507Y-69897010D01*
X191509154Y-69944442D01*
X191475027Y-69986027D01*
X191433442Y-70020154D01*
X191386010Y-70045507D01*
X191334530Y-70061123D01*
X191274860Y-70067000D01*
X190487140Y-70067000D01*
X190427470Y-70061123D01*
X190375990Y-70045507D01*
X190328558Y-70020154D01*
X190286973Y-69986027D01*
X190252846Y-69944442D01*
X190227493Y-69897010D01*
X190211877Y-69845530D01*
X190206000Y-69785860D01*
X190206000Y-68898140D01*
X190211877Y-68838470D01*
X190227493Y-68786990D01*
X190252846Y-68739558D01*
X190286973Y-68697973D01*
X190328558Y-68663846D01*
X190375990Y-68638493D01*
X190427470Y-68622877D01*
X190487140Y-68617000D01*
X191274860Y-68617000D01*
X191334530Y-68622877D01*
X191334530Y-68622877D01*
G37*
G36*
X195098603Y-67400968D02*
X195098606Y-67400969D01*
X195098605Y-67400969D01*
X195273678Y-67473486D01*
X195273679Y-67473487D01*
X195431241Y-67578767D01*
X195565233Y-67712759D01*
X195613798Y-67785442D01*
X195670514Y-67870322D01*
X195726603Y-68005734D01*
X195743032Y-68045397D01*
X195780000Y-68231250D01*
X195780000Y-68420750D01*
X195743032Y-68606603D01*
X195743031Y-68606605D01*
X195670514Y-68781678D01*
X195641337Y-68825344D01*
X195565233Y-68939241D01*
X195431241Y-69073233D01*
X195351923Y-69126232D01*
X195273678Y-69178514D01*
X195138266Y-69234603D01*
X195098603Y-69251032D01*
X194912750Y-69288000D01*
X194723250Y-69288000D01*
X194537397Y-69251032D01*
X194497734Y-69234603D01*
X194362322Y-69178514D01*
X194284077Y-69126232D01*
X194204759Y-69073233D01*
X194070767Y-68939241D01*
X193994663Y-68825344D01*
X193965486Y-68781678D01*
X193892969Y-68606605D01*
X193892968Y-68606603D01*
X193856000Y-68420750D01*
X193856000Y-68231250D01*
X193892968Y-68045397D01*
X193909397Y-68005734D01*
X193965486Y-67870322D01*
X194022202Y-67785442D01*
X194070767Y-67712759D01*
X194204759Y-67578767D01*
X194362321Y-67473487D01*
X194362322Y-67473486D01*
X194537395Y-67400969D01*
X194537394Y-67400969D01*
X194537397Y-67400968D01*
X194723250Y-67364000D01*
X194912750Y-67364000D01*
X195098603Y-67400968D01*
X195098603Y-67400968D01*
G37*
G36*
X191334530Y-66463877D02*
X191386010Y-66479493D01*
X191433442Y-66504846D01*
X191475027Y-66538973D01*
X191509154Y-66580558D01*
X191534507Y-66627990D01*
X191550123Y-66679470D01*
X191556000Y-66739140D01*
X191556000Y-67626860D01*
X191550123Y-67686530D01*
X191534507Y-67738010D01*
X191509154Y-67785442D01*
X191475027Y-67827027D01*
X191433442Y-67861154D01*
X191386010Y-67886507D01*
X191334530Y-67902123D01*
X191274860Y-67908000D01*
X190487140Y-67908000D01*
X190427470Y-67902123D01*
X190375990Y-67886507D01*
X190328558Y-67861154D01*
X190286973Y-67827027D01*
X190252846Y-67785442D01*
X190227493Y-67738010D01*
X190211877Y-67686530D01*
X190206000Y-67626860D01*
X190206000Y-66739140D01*
X190211877Y-66679470D01*
X190227493Y-66627990D01*
X190252846Y-66580558D01*
X190286973Y-66538973D01*
X190328558Y-66504846D01*
X190375990Y-66479493D01*
X190427470Y-66463877D01*
X190487140Y-66458000D01*
X191274860Y-66458000D01*
X191334530Y-66463877D01*
X191334530Y-66463877D01*
G37*
G36*
X110596288Y-65563447D02*
X110689023Y-65581893D01*
X110863732Y-65654260D01*
X111018873Y-65757922D01*
X111020968Y-65759322D01*
X111154680Y-65893034D01*
X111154682Y-65893037D01*
X111259742Y-66050270D01*
X111332109Y-66224979D01*
X111335431Y-66241679D01*
X111369001Y-66410448D01*
X111369001Y-66599554D01*
X111332109Y-66785022D01*
X111259743Y-66959730D01*
X111154680Y-67116968D01*
X111020968Y-67250680D01*
X111020965Y-67250682D01*
X110863732Y-67355742D01*
X110863731Y-67355743D01*
X110863730Y-67355743D01*
X110812560Y-67376938D01*
X110689023Y-67428109D01*
X110596288Y-67446555D01*
X110503554Y-67465001D01*
X110314448Y-67465001D01*
X110221714Y-67446555D01*
X110128979Y-67428109D01*
X110005442Y-67376938D01*
X109954272Y-67355743D01*
X109954271Y-67355743D01*
X109954270Y-67355742D01*
X109797037Y-67250682D01*
X109797034Y-67250680D01*
X109663322Y-67116968D01*
X109558259Y-66959730D01*
X109485893Y-66785022D01*
X109449001Y-66599554D01*
X109449001Y-66410448D01*
X109482571Y-66241679D01*
X109485893Y-66224979D01*
X109558260Y-66050270D01*
X109663320Y-65893037D01*
X109663322Y-65893034D01*
X109797034Y-65759322D01*
X109799129Y-65757922D01*
X109954270Y-65654260D01*
X110128979Y-65581893D01*
X110221714Y-65563447D01*
X110314448Y-65545001D01*
X110503554Y-65545001D01*
X110596288Y-65563447D01*
X110596288Y-65563447D01*
G37*
G36*
X151236288Y-65563447D02*
X151329023Y-65581893D01*
X151503732Y-65654260D01*
X151658873Y-65757922D01*
X151660968Y-65759322D01*
X151794680Y-65893034D01*
X151794682Y-65893037D01*
X151899742Y-66050270D01*
X151972109Y-66224979D01*
X151975431Y-66241679D01*
X152009001Y-66410448D01*
X152009001Y-66599554D01*
X151972109Y-66785022D01*
X151899743Y-66959730D01*
X151794680Y-67116968D01*
X151660968Y-67250680D01*
X151660965Y-67250682D01*
X151503732Y-67355742D01*
X151503731Y-67355743D01*
X151503730Y-67355743D01*
X151452560Y-67376938D01*
X151329023Y-67428109D01*
X151236288Y-67446555D01*
X151143554Y-67465001D01*
X150954448Y-67465001D01*
X150861714Y-67446555D01*
X150768979Y-67428109D01*
X150645442Y-67376938D01*
X150594272Y-67355743D01*
X150594271Y-67355743D01*
X150594270Y-67355742D01*
X150437037Y-67250682D01*
X150437034Y-67250680D01*
X150303322Y-67116968D01*
X150198259Y-66959730D01*
X150125893Y-66785022D01*
X150089001Y-66599554D01*
X150089001Y-66410448D01*
X150122571Y-66241679D01*
X150125893Y-66224979D01*
X150198260Y-66050270D01*
X150303320Y-65893037D01*
X150303322Y-65893034D01*
X150437034Y-65759322D01*
X150439129Y-65757922D01*
X150594270Y-65654260D01*
X150768979Y-65581893D01*
X150861714Y-65563447D01*
X150954448Y-65545001D01*
X151143554Y-65545001D01*
X151236288Y-65563447D01*
X151236288Y-65563447D01*
G37*
G36*
X161396288Y-65563447D02*
X161489023Y-65581893D01*
X161663732Y-65654260D01*
X161818873Y-65757922D01*
X161820968Y-65759322D01*
X161954680Y-65893034D01*
X161954682Y-65893037D01*
X162059742Y-66050270D01*
X162132109Y-66224979D01*
X162135431Y-66241679D01*
X162169001Y-66410448D01*
X162169001Y-66599554D01*
X162132109Y-66785022D01*
X162059743Y-66959730D01*
X161954680Y-67116968D01*
X161820968Y-67250680D01*
X161820965Y-67250682D01*
X161663732Y-67355742D01*
X161663731Y-67355743D01*
X161663730Y-67355743D01*
X161612560Y-67376938D01*
X161489023Y-67428109D01*
X161396288Y-67446555D01*
X161303554Y-67465001D01*
X161114448Y-67465001D01*
X161021714Y-67446555D01*
X160928979Y-67428109D01*
X160805442Y-67376938D01*
X160754272Y-67355743D01*
X160754271Y-67355743D01*
X160754270Y-67355742D01*
X160597037Y-67250682D01*
X160597034Y-67250680D01*
X160463322Y-67116968D01*
X160358259Y-66959730D01*
X160285893Y-66785022D01*
X160249001Y-66599554D01*
X160249001Y-66410448D01*
X160282571Y-66241679D01*
X160285893Y-66224979D01*
X160358260Y-66050270D01*
X160463320Y-65893037D01*
X160463322Y-65893034D01*
X160597034Y-65759322D01*
X160599129Y-65757922D01*
X160754270Y-65654260D01*
X160928979Y-65581893D01*
X161021714Y-65563447D01*
X161114448Y-65545001D01*
X161303554Y-65545001D01*
X161396288Y-65563447D01*
X161396288Y-65563447D01*
G37*
G36*
X153776288Y-65563447D02*
X153869023Y-65581893D01*
X154043732Y-65654260D01*
X154198873Y-65757922D01*
X154200968Y-65759322D01*
X154334680Y-65893034D01*
X154334682Y-65893037D01*
X154439742Y-66050270D01*
X154512109Y-66224979D01*
X154515431Y-66241679D01*
X154549001Y-66410448D01*
X154549001Y-66599554D01*
X154512109Y-66785022D01*
X154439743Y-66959730D01*
X154334680Y-67116968D01*
X154200968Y-67250680D01*
X154200965Y-67250682D01*
X154043732Y-67355742D01*
X154043731Y-67355743D01*
X154043730Y-67355743D01*
X153992560Y-67376938D01*
X153869023Y-67428109D01*
X153776288Y-67446555D01*
X153683554Y-67465001D01*
X153494448Y-67465001D01*
X153401714Y-67446555D01*
X153308979Y-67428109D01*
X153185442Y-67376938D01*
X153134272Y-67355743D01*
X153134271Y-67355743D01*
X153134270Y-67355742D01*
X152977037Y-67250682D01*
X152977034Y-67250680D01*
X152843322Y-67116968D01*
X152738259Y-66959730D01*
X152665893Y-66785022D01*
X152629001Y-66599554D01*
X152629001Y-66410448D01*
X152662571Y-66241679D01*
X152665893Y-66224979D01*
X152738260Y-66050270D01*
X152843320Y-65893037D01*
X152843322Y-65893034D01*
X152977034Y-65759322D01*
X152979129Y-65757922D01*
X153134270Y-65654260D01*
X153308979Y-65581893D01*
X153401714Y-65563447D01*
X153494448Y-65545001D01*
X153683554Y-65545001D01*
X153776288Y-65563447D01*
X153776288Y-65563447D01*
G37*
G36*
X156316288Y-65563447D02*
X156409023Y-65581893D01*
X156583732Y-65654260D01*
X156738873Y-65757922D01*
X156740968Y-65759322D01*
X156874680Y-65893034D01*
X156874682Y-65893037D01*
X156979742Y-66050270D01*
X157052109Y-66224979D01*
X157055431Y-66241679D01*
X157089001Y-66410448D01*
X157089001Y-66599554D01*
X157052109Y-66785022D01*
X156979743Y-66959730D01*
X156874680Y-67116968D01*
X156740968Y-67250680D01*
X156740965Y-67250682D01*
X156583732Y-67355742D01*
X156583731Y-67355743D01*
X156583730Y-67355743D01*
X156532560Y-67376938D01*
X156409023Y-67428109D01*
X156316288Y-67446555D01*
X156223554Y-67465001D01*
X156034448Y-67465001D01*
X155941714Y-67446555D01*
X155848979Y-67428109D01*
X155725442Y-67376938D01*
X155674272Y-67355743D01*
X155674271Y-67355743D01*
X155674270Y-67355742D01*
X155517037Y-67250682D01*
X155517034Y-67250680D01*
X155383322Y-67116968D01*
X155278259Y-66959730D01*
X155205893Y-66785022D01*
X155169001Y-66599554D01*
X155169001Y-66410448D01*
X155202571Y-66241679D01*
X155205893Y-66224979D01*
X155278260Y-66050270D01*
X155383320Y-65893037D01*
X155383322Y-65893034D01*
X155517034Y-65759322D01*
X155519129Y-65757922D01*
X155674270Y-65654260D01*
X155848979Y-65581893D01*
X155941714Y-65563447D01*
X156034448Y-65545001D01*
X156223554Y-65545001D01*
X156316288Y-65563447D01*
X156316288Y-65563447D01*
G37*
G36*
X158856288Y-65563447D02*
X158949023Y-65581893D01*
X159123732Y-65654260D01*
X159278873Y-65757922D01*
X159280968Y-65759322D01*
X159414680Y-65893034D01*
X159414682Y-65893037D01*
X159519742Y-66050270D01*
X159592109Y-66224979D01*
X159595431Y-66241679D01*
X159629001Y-66410448D01*
X159629001Y-66599554D01*
X159592109Y-66785022D01*
X159519743Y-66959730D01*
X159414680Y-67116968D01*
X159280968Y-67250680D01*
X159280965Y-67250682D01*
X159123732Y-67355742D01*
X159123731Y-67355743D01*
X159123730Y-67355743D01*
X159072560Y-67376938D01*
X158949023Y-67428109D01*
X158856288Y-67446555D01*
X158763554Y-67465001D01*
X158574448Y-67465001D01*
X158481714Y-67446555D01*
X158388979Y-67428109D01*
X158265442Y-67376938D01*
X158214272Y-67355743D01*
X158214271Y-67355743D01*
X158214270Y-67355742D01*
X158057037Y-67250682D01*
X158057034Y-67250680D01*
X157923322Y-67116968D01*
X157818259Y-66959730D01*
X157745893Y-66785022D01*
X157709001Y-66599554D01*
X157709001Y-66410448D01*
X157742571Y-66241679D01*
X157745893Y-66224979D01*
X157818260Y-66050270D01*
X157923320Y-65893037D01*
X157923322Y-65893034D01*
X158057034Y-65759322D01*
X158059129Y-65757922D01*
X158214270Y-65654260D01*
X158388979Y-65581893D01*
X158481714Y-65563447D01*
X158574448Y-65545001D01*
X158763554Y-65545001D01*
X158856288Y-65563447D01*
X158856288Y-65563447D01*
G37*
G36*
X100436288Y-65563447D02*
X100529023Y-65581893D01*
X100703732Y-65654260D01*
X100858873Y-65757922D01*
X100860968Y-65759322D01*
X100994680Y-65893034D01*
X100994682Y-65893037D01*
X101099742Y-66050270D01*
X101172109Y-66224979D01*
X101175431Y-66241679D01*
X101209001Y-66410448D01*
X101209001Y-66599554D01*
X101172109Y-66785022D01*
X101099743Y-66959730D01*
X100994680Y-67116968D01*
X100860968Y-67250680D01*
X100860965Y-67250682D01*
X100703732Y-67355742D01*
X100703731Y-67355743D01*
X100703730Y-67355743D01*
X100652560Y-67376938D01*
X100529023Y-67428109D01*
X100436288Y-67446555D01*
X100343554Y-67465001D01*
X100154448Y-67465001D01*
X100061714Y-67446555D01*
X99968979Y-67428109D01*
X99845442Y-67376938D01*
X99794272Y-67355743D01*
X99794271Y-67355743D01*
X99794270Y-67355742D01*
X99637037Y-67250682D01*
X99637034Y-67250680D01*
X99503322Y-67116968D01*
X99398259Y-66959730D01*
X99325893Y-66785022D01*
X99289001Y-66599554D01*
X99289001Y-66410448D01*
X99322571Y-66241679D01*
X99325893Y-66224979D01*
X99398260Y-66050270D01*
X99503320Y-65893037D01*
X99503322Y-65893034D01*
X99637034Y-65759322D01*
X99639129Y-65757922D01*
X99794270Y-65654260D01*
X99968979Y-65581893D01*
X100061714Y-65563447D01*
X100154448Y-65545001D01*
X100343554Y-65545001D01*
X100436288Y-65563447D01*
X100436288Y-65563447D01*
G37*
G36*
X95356288Y-65563447D02*
X95449023Y-65581893D01*
X95623732Y-65654260D01*
X95778873Y-65757922D01*
X95780968Y-65759322D01*
X95914680Y-65893034D01*
X95914682Y-65893037D01*
X96019742Y-66050270D01*
X96092109Y-66224979D01*
X96095431Y-66241679D01*
X96129001Y-66410448D01*
X96129001Y-66599554D01*
X96092109Y-66785022D01*
X96019743Y-66959730D01*
X95914680Y-67116968D01*
X95780968Y-67250680D01*
X95780965Y-67250682D01*
X95623732Y-67355742D01*
X95623731Y-67355743D01*
X95623730Y-67355743D01*
X95572560Y-67376938D01*
X95449023Y-67428109D01*
X95356288Y-67446555D01*
X95263554Y-67465001D01*
X95074448Y-67465001D01*
X94981714Y-67446555D01*
X94888979Y-67428109D01*
X94765442Y-67376938D01*
X94714272Y-67355743D01*
X94714271Y-67355743D01*
X94714270Y-67355742D01*
X94557037Y-67250682D01*
X94557034Y-67250680D01*
X94423322Y-67116968D01*
X94318259Y-66959730D01*
X94245893Y-66785022D01*
X94209001Y-66599554D01*
X94209001Y-66410448D01*
X94242571Y-66241679D01*
X94245893Y-66224979D01*
X94318260Y-66050270D01*
X94423320Y-65893037D01*
X94423322Y-65893034D01*
X94557034Y-65759322D01*
X94559129Y-65757922D01*
X94714270Y-65654260D01*
X94888979Y-65581893D01*
X94981714Y-65563447D01*
X95074448Y-65545001D01*
X95263554Y-65545001D01*
X95356288Y-65563447D01*
X95356288Y-65563447D01*
G37*
G36*
X92816288Y-65563447D02*
X92909023Y-65581893D01*
X93083732Y-65654260D01*
X93238873Y-65757922D01*
X93240968Y-65759322D01*
X93374680Y-65893034D01*
X93374682Y-65893037D01*
X93479742Y-66050270D01*
X93552109Y-66224979D01*
X93555431Y-66241679D01*
X93589001Y-66410448D01*
X93589001Y-66599554D01*
X93552109Y-66785022D01*
X93479743Y-66959730D01*
X93374680Y-67116968D01*
X93240968Y-67250680D01*
X93240965Y-67250682D01*
X93083732Y-67355742D01*
X93083731Y-67355743D01*
X93083730Y-67355743D01*
X93032560Y-67376938D01*
X92909023Y-67428109D01*
X92816288Y-67446555D01*
X92723554Y-67465001D01*
X92534448Y-67465001D01*
X92441714Y-67446555D01*
X92348979Y-67428109D01*
X92225442Y-67376938D01*
X92174272Y-67355743D01*
X92174271Y-67355743D01*
X92174270Y-67355742D01*
X92017037Y-67250682D01*
X92017034Y-67250680D01*
X91883322Y-67116968D01*
X91778259Y-66959730D01*
X91705893Y-66785022D01*
X91669001Y-66599554D01*
X91669001Y-66410448D01*
X91702571Y-66241679D01*
X91705893Y-66224979D01*
X91778260Y-66050270D01*
X91883320Y-65893037D01*
X91883322Y-65893034D01*
X92017034Y-65759322D01*
X92019129Y-65757922D01*
X92174270Y-65654260D01*
X92348979Y-65581893D01*
X92441714Y-65563447D01*
X92534448Y-65545001D01*
X92723554Y-65545001D01*
X92816288Y-65563447D01*
X92816288Y-65563447D01*
G37*
G36*
X90276288Y-65563447D02*
X90369023Y-65581893D01*
X90543732Y-65654260D01*
X90698873Y-65757922D01*
X90700968Y-65759322D01*
X90834680Y-65893034D01*
X90834682Y-65893037D01*
X90939742Y-66050270D01*
X91012109Y-66224979D01*
X91015431Y-66241679D01*
X91049001Y-66410448D01*
X91049001Y-66599554D01*
X91012109Y-66785022D01*
X90939743Y-66959730D01*
X90834680Y-67116968D01*
X90700968Y-67250680D01*
X90700965Y-67250682D01*
X90543732Y-67355742D01*
X90543731Y-67355743D01*
X90543730Y-67355743D01*
X90492560Y-67376938D01*
X90369023Y-67428109D01*
X90276288Y-67446555D01*
X90183554Y-67465001D01*
X89994448Y-67465001D01*
X89901714Y-67446555D01*
X89808979Y-67428109D01*
X89685442Y-67376938D01*
X89634272Y-67355743D01*
X89634271Y-67355743D01*
X89634270Y-67355742D01*
X89477037Y-67250682D01*
X89477034Y-67250680D01*
X89343322Y-67116968D01*
X89238259Y-66959730D01*
X89165893Y-66785022D01*
X89129001Y-66599554D01*
X89129001Y-66410448D01*
X89162571Y-66241679D01*
X89165893Y-66224979D01*
X89238260Y-66050270D01*
X89343320Y-65893037D01*
X89343322Y-65893034D01*
X89477034Y-65759322D01*
X89479129Y-65757922D01*
X89634270Y-65654260D01*
X89808979Y-65581893D01*
X89901714Y-65563447D01*
X89994448Y-65545001D01*
X90183554Y-65545001D01*
X90276288Y-65563447D01*
X90276288Y-65563447D01*
G37*
G36*
X102976288Y-65563447D02*
X103069023Y-65581893D01*
X103243732Y-65654260D01*
X103398873Y-65757922D01*
X103400968Y-65759322D01*
X103534680Y-65893034D01*
X103534682Y-65893037D01*
X103639742Y-66050270D01*
X103712109Y-66224979D01*
X103715431Y-66241679D01*
X103749001Y-66410448D01*
X103749001Y-66599554D01*
X103712109Y-66785022D01*
X103639743Y-66959730D01*
X103534680Y-67116968D01*
X103400968Y-67250680D01*
X103400965Y-67250682D01*
X103243732Y-67355742D01*
X103243731Y-67355743D01*
X103243730Y-67355743D01*
X103192560Y-67376938D01*
X103069023Y-67428109D01*
X102976288Y-67446555D01*
X102883554Y-67465001D01*
X102694448Y-67465001D01*
X102601714Y-67446555D01*
X102508979Y-67428109D01*
X102385442Y-67376938D01*
X102334272Y-67355743D01*
X102334271Y-67355743D01*
X102334270Y-67355742D01*
X102177037Y-67250682D01*
X102177034Y-67250680D01*
X102043322Y-67116968D01*
X101938259Y-66959730D01*
X101865893Y-66785022D01*
X101829001Y-66599554D01*
X101829001Y-66410448D01*
X101862571Y-66241679D01*
X101865893Y-66224979D01*
X101938260Y-66050270D01*
X102043320Y-65893037D01*
X102043322Y-65893034D01*
X102177034Y-65759322D01*
X102179129Y-65757922D01*
X102334270Y-65654260D01*
X102508979Y-65581893D01*
X102601714Y-65563447D01*
X102694448Y-65545001D01*
X102883554Y-65545001D01*
X102976288Y-65563447D01*
X102976288Y-65563447D01*
G37*
G36*
X105516288Y-65563447D02*
X105609023Y-65581893D01*
X105783732Y-65654260D01*
X105938873Y-65757922D01*
X105940968Y-65759322D01*
X106074680Y-65893034D01*
X106074682Y-65893037D01*
X106179742Y-66050270D01*
X106252109Y-66224979D01*
X106255431Y-66241679D01*
X106289001Y-66410448D01*
X106289001Y-66599554D01*
X106252109Y-66785022D01*
X106179743Y-66959730D01*
X106074680Y-67116968D01*
X105940968Y-67250680D01*
X105940965Y-67250682D01*
X105783732Y-67355742D01*
X105783731Y-67355743D01*
X105783730Y-67355743D01*
X105732560Y-67376938D01*
X105609023Y-67428109D01*
X105516288Y-67446555D01*
X105423554Y-67465001D01*
X105234448Y-67465001D01*
X105141714Y-67446555D01*
X105048979Y-67428109D01*
X104925442Y-67376938D01*
X104874272Y-67355743D01*
X104874271Y-67355743D01*
X104874270Y-67355742D01*
X104717037Y-67250682D01*
X104717034Y-67250680D01*
X104583322Y-67116968D01*
X104478259Y-66959730D01*
X104405893Y-66785022D01*
X104369001Y-66599554D01*
X104369001Y-66410448D01*
X104402571Y-66241679D01*
X104405893Y-66224979D01*
X104478260Y-66050270D01*
X104583320Y-65893037D01*
X104583322Y-65893034D01*
X104717034Y-65759322D01*
X104719129Y-65757922D01*
X104874270Y-65654260D01*
X105048979Y-65581893D01*
X105141714Y-65563447D01*
X105234448Y-65545001D01*
X105423554Y-65545001D01*
X105516288Y-65563447D01*
X105516288Y-65563447D01*
G37*
G36*
X108056288Y-65563447D02*
X108149023Y-65581893D01*
X108323732Y-65654260D01*
X108478873Y-65757922D01*
X108480968Y-65759322D01*
X108614680Y-65893034D01*
X108614682Y-65893037D01*
X108719742Y-66050270D01*
X108792109Y-66224979D01*
X108795431Y-66241679D01*
X108829001Y-66410448D01*
X108829001Y-66599554D01*
X108792109Y-66785022D01*
X108719743Y-66959730D01*
X108614680Y-67116968D01*
X108480968Y-67250680D01*
X108480965Y-67250682D01*
X108323732Y-67355742D01*
X108323731Y-67355743D01*
X108323730Y-67355743D01*
X108272560Y-67376938D01*
X108149023Y-67428109D01*
X108056288Y-67446555D01*
X107963554Y-67465001D01*
X107774448Y-67465001D01*
X107681714Y-67446555D01*
X107588979Y-67428109D01*
X107465442Y-67376938D01*
X107414272Y-67355743D01*
X107414271Y-67355743D01*
X107414270Y-67355742D01*
X107257037Y-67250682D01*
X107257034Y-67250680D01*
X107123322Y-67116968D01*
X107018259Y-66959730D01*
X106945893Y-66785022D01*
X106909001Y-66599554D01*
X106909001Y-66410448D01*
X106942571Y-66241679D01*
X106945893Y-66224979D01*
X107018260Y-66050270D01*
X107123320Y-65893037D01*
X107123322Y-65893034D01*
X107257034Y-65759322D01*
X107259129Y-65757922D01*
X107414270Y-65654260D01*
X107588979Y-65581893D01*
X107681714Y-65563447D01*
X107774448Y-65545001D01*
X107963554Y-65545001D01*
X108056288Y-65563447D01*
X108056288Y-65563447D01*
G37*
G36*
X87736288Y-65563447D02*
X87829023Y-65581893D01*
X88003732Y-65654260D01*
X88158873Y-65757922D01*
X88160968Y-65759322D01*
X88294680Y-65893034D01*
X88294682Y-65893037D01*
X88399742Y-66050270D01*
X88472109Y-66224979D01*
X88475431Y-66241679D01*
X88509001Y-66410448D01*
X88509001Y-66599554D01*
X88472109Y-66785022D01*
X88399743Y-66959730D01*
X88294680Y-67116968D01*
X88160968Y-67250680D01*
X88160965Y-67250682D01*
X88003732Y-67355742D01*
X88003731Y-67355743D01*
X88003730Y-67355743D01*
X87952560Y-67376938D01*
X87829023Y-67428109D01*
X87736288Y-67446555D01*
X87643554Y-67465001D01*
X87454448Y-67465001D01*
X87361714Y-67446555D01*
X87268979Y-67428109D01*
X87145442Y-67376938D01*
X87094272Y-67355743D01*
X87094271Y-67355743D01*
X87094270Y-67355742D01*
X86937037Y-67250682D01*
X86937034Y-67250680D01*
X86803322Y-67116968D01*
X86698259Y-66959730D01*
X86625893Y-66785022D01*
X86589001Y-66599554D01*
X86589001Y-66410448D01*
X86622571Y-66241679D01*
X86625893Y-66224979D01*
X86698260Y-66050270D01*
X86803320Y-65893037D01*
X86803322Y-65893034D01*
X86937034Y-65759322D01*
X86939129Y-65757922D01*
X87094270Y-65654260D01*
X87268979Y-65581893D01*
X87361714Y-65563447D01*
X87454448Y-65545001D01*
X87643554Y-65545001D01*
X87736288Y-65563447D01*
X87736288Y-65563447D01*
G37*
G36*
X174096288Y-65563447D02*
X174189023Y-65581893D01*
X174363732Y-65654260D01*
X174518873Y-65757922D01*
X174520968Y-65759322D01*
X174654680Y-65893034D01*
X174654682Y-65893037D01*
X174759742Y-66050270D01*
X174832109Y-66224979D01*
X174835431Y-66241679D01*
X174869001Y-66410448D01*
X174869001Y-66599554D01*
X174832109Y-66785022D01*
X174759743Y-66959730D01*
X174654680Y-67116968D01*
X174520968Y-67250680D01*
X174520965Y-67250682D01*
X174363732Y-67355742D01*
X174363731Y-67355743D01*
X174363730Y-67355743D01*
X174312560Y-67376938D01*
X174189023Y-67428109D01*
X174096288Y-67446555D01*
X174003554Y-67465001D01*
X173814448Y-67465001D01*
X173721714Y-67446555D01*
X173628979Y-67428109D01*
X173505442Y-67376938D01*
X173454272Y-67355743D01*
X173454271Y-67355743D01*
X173454270Y-67355742D01*
X173297037Y-67250682D01*
X173297034Y-67250680D01*
X173163322Y-67116968D01*
X173058259Y-66959730D01*
X172985893Y-66785022D01*
X172949001Y-66599554D01*
X172949001Y-66410448D01*
X172982571Y-66241679D01*
X172985893Y-66224979D01*
X173058260Y-66050270D01*
X173163320Y-65893037D01*
X173163322Y-65893034D01*
X173297034Y-65759322D01*
X173299129Y-65757922D01*
X173454270Y-65654260D01*
X173628979Y-65581893D01*
X173721714Y-65563447D01*
X173814448Y-65545001D01*
X174003554Y-65545001D01*
X174096288Y-65563447D01*
X174096288Y-65563447D01*
G37*
G36*
X171556288Y-65563447D02*
X171649023Y-65581893D01*
X171823732Y-65654260D01*
X171978873Y-65757922D01*
X171980968Y-65759322D01*
X172114680Y-65893034D01*
X172114682Y-65893037D01*
X172219742Y-66050270D01*
X172292109Y-66224979D01*
X172295431Y-66241679D01*
X172329001Y-66410448D01*
X172329001Y-66599554D01*
X172292109Y-66785022D01*
X172219743Y-66959730D01*
X172114680Y-67116968D01*
X171980968Y-67250680D01*
X171980965Y-67250682D01*
X171823732Y-67355742D01*
X171823731Y-67355743D01*
X171823730Y-67355743D01*
X171772560Y-67376938D01*
X171649023Y-67428109D01*
X171556288Y-67446555D01*
X171463554Y-67465001D01*
X171274448Y-67465001D01*
X171181714Y-67446555D01*
X171088979Y-67428109D01*
X170965442Y-67376938D01*
X170914272Y-67355743D01*
X170914271Y-67355743D01*
X170914270Y-67355742D01*
X170757037Y-67250682D01*
X170757034Y-67250680D01*
X170623322Y-67116968D01*
X170518259Y-66959730D01*
X170445893Y-66785022D01*
X170409001Y-66599554D01*
X170409001Y-66410448D01*
X170442571Y-66241679D01*
X170445893Y-66224979D01*
X170518260Y-66050270D01*
X170623320Y-65893037D01*
X170623322Y-65893034D01*
X170757034Y-65759322D01*
X170759129Y-65757922D01*
X170914270Y-65654260D01*
X171088979Y-65581893D01*
X171181714Y-65563447D01*
X171274448Y-65545001D01*
X171463554Y-65545001D01*
X171556288Y-65563447D01*
X171556288Y-65563447D01*
G37*
G36*
X169016288Y-65563447D02*
X169109023Y-65581893D01*
X169283732Y-65654260D01*
X169438873Y-65757922D01*
X169440968Y-65759322D01*
X169574680Y-65893034D01*
X169574682Y-65893037D01*
X169679742Y-66050270D01*
X169752109Y-66224979D01*
X169755431Y-66241679D01*
X169789001Y-66410448D01*
X169789001Y-66599554D01*
X169752109Y-66785022D01*
X169679743Y-66959730D01*
X169574680Y-67116968D01*
X169440968Y-67250680D01*
X169440965Y-67250682D01*
X169283732Y-67355742D01*
X169283731Y-67355743D01*
X169283730Y-67355743D01*
X169232560Y-67376938D01*
X169109023Y-67428109D01*
X169016288Y-67446555D01*
X168923554Y-67465001D01*
X168734448Y-67465001D01*
X168641714Y-67446555D01*
X168548979Y-67428109D01*
X168425442Y-67376938D01*
X168374272Y-67355743D01*
X168374271Y-67355743D01*
X168374270Y-67355742D01*
X168217037Y-67250682D01*
X168217034Y-67250680D01*
X168083322Y-67116968D01*
X167978259Y-66959730D01*
X167905893Y-66785022D01*
X167869001Y-66599554D01*
X167869001Y-66410448D01*
X167902571Y-66241679D01*
X167905893Y-66224979D01*
X167978260Y-66050270D01*
X168083320Y-65893037D01*
X168083322Y-65893034D01*
X168217034Y-65759322D01*
X168219129Y-65757922D01*
X168374270Y-65654260D01*
X168548979Y-65581893D01*
X168641714Y-65563447D01*
X168734448Y-65545001D01*
X168923554Y-65545001D01*
X169016288Y-65563447D01*
X169016288Y-65563447D01*
G37*
G36*
X166476288Y-65563447D02*
X166569023Y-65581893D01*
X166743732Y-65654260D01*
X166898873Y-65757922D01*
X166900968Y-65759322D01*
X167034680Y-65893034D01*
X167034682Y-65893037D01*
X167139742Y-66050270D01*
X167212109Y-66224979D01*
X167215431Y-66241679D01*
X167249001Y-66410448D01*
X167249001Y-66599554D01*
X167212109Y-66785022D01*
X167139743Y-66959730D01*
X167034680Y-67116968D01*
X166900968Y-67250680D01*
X166900965Y-67250682D01*
X166743732Y-67355742D01*
X166743731Y-67355743D01*
X166743730Y-67355743D01*
X166692560Y-67376938D01*
X166569023Y-67428109D01*
X166476288Y-67446555D01*
X166383554Y-67465001D01*
X166194448Y-67465001D01*
X166101714Y-67446555D01*
X166008979Y-67428109D01*
X165885442Y-67376938D01*
X165834272Y-67355743D01*
X165834271Y-67355743D01*
X165834270Y-67355742D01*
X165677037Y-67250682D01*
X165677034Y-67250680D01*
X165543322Y-67116968D01*
X165438259Y-66959730D01*
X165365893Y-66785022D01*
X165329001Y-66599554D01*
X165329001Y-66410448D01*
X165362571Y-66241679D01*
X165365893Y-66224979D01*
X165438260Y-66050270D01*
X165543320Y-65893037D01*
X165543322Y-65893034D01*
X165677034Y-65759322D01*
X165679129Y-65757922D01*
X165834270Y-65654260D01*
X166008979Y-65581893D01*
X166101714Y-65563447D01*
X166194448Y-65545001D01*
X166383554Y-65545001D01*
X166476288Y-65563447D01*
X166476288Y-65563447D01*
G37*
G36*
X163936288Y-65563447D02*
X164029023Y-65581893D01*
X164203732Y-65654260D01*
X164358873Y-65757922D01*
X164360968Y-65759322D01*
X164494680Y-65893034D01*
X164494682Y-65893037D01*
X164599742Y-66050270D01*
X164672109Y-66224979D01*
X164675431Y-66241679D01*
X164709001Y-66410448D01*
X164709001Y-66599554D01*
X164672109Y-66785022D01*
X164599743Y-66959730D01*
X164494680Y-67116968D01*
X164360968Y-67250680D01*
X164360965Y-67250682D01*
X164203732Y-67355742D01*
X164203731Y-67355743D01*
X164203730Y-67355743D01*
X164152560Y-67376938D01*
X164029023Y-67428109D01*
X163936288Y-67446555D01*
X163843554Y-67465001D01*
X163654448Y-67465001D01*
X163561714Y-67446555D01*
X163468979Y-67428109D01*
X163345442Y-67376938D01*
X163294272Y-67355743D01*
X163294271Y-67355743D01*
X163294270Y-67355742D01*
X163137037Y-67250682D01*
X163137034Y-67250680D01*
X163003322Y-67116968D01*
X162898259Y-66959730D01*
X162825893Y-66785022D01*
X162789001Y-66599554D01*
X162789001Y-66410448D01*
X162822571Y-66241679D01*
X162825893Y-66224979D01*
X162898260Y-66050270D01*
X163003320Y-65893037D01*
X163003322Y-65893034D01*
X163137034Y-65759322D01*
X163139129Y-65757922D01*
X163294270Y-65654260D01*
X163468979Y-65581893D01*
X163561714Y-65563447D01*
X163654448Y-65545001D01*
X163843554Y-65545001D01*
X163936288Y-65563447D01*
X163936288Y-65563447D01*
G37*
G36*
X97896288Y-65563447D02*
X97989023Y-65581893D01*
X98163732Y-65654260D01*
X98318873Y-65757922D01*
X98320968Y-65759322D01*
X98454680Y-65893034D01*
X98454682Y-65893037D01*
X98559742Y-66050270D01*
X98632109Y-66224979D01*
X98635431Y-66241679D01*
X98669001Y-66410448D01*
X98669001Y-66599554D01*
X98632109Y-66785022D01*
X98559743Y-66959730D01*
X98454680Y-67116968D01*
X98320968Y-67250680D01*
X98320965Y-67250682D01*
X98163732Y-67355742D01*
X98163731Y-67355743D01*
X98163730Y-67355743D01*
X98112560Y-67376938D01*
X97989023Y-67428109D01*
X97896288Y-67446555D01*
X97803554Y-67465001D01*
X97614448Y-67465001D01*
X97521714Y-67446555D01*
X97428979Y-67428109D01*
X97305442Y-67376938D01*
X97254272Y-67355743D01*
X97254271Y-67355743D01*
X97254270Y-67355742D01*
X97097037Y-67250682D01*
X97097034Y-67250680D01*
X96963322Y-67116968D01*
X96858259Y-66959730D01*
X96785893Y-66785022D01*
X96749001Y-66599554D01*
X96749001Y-66410448D01*
X96782571Y-66241679D01*
X96785893Y-66224979D01*
X96858260Y-66050270D01*
X96963320Y-65893037D01*
X96963322Y-65893034D01*
X97097034Y-65759322D01*
X97099129Y-65757922D01*
X97254270Y-65654260D01*
X97428979Y-65581893D01*
X97521714Y-65563447D01*
X97614448Y-65545001D01*
X97803554Y-65545001D01*
X97896288Y-65563447D01*
X97896288Y-65563447D01*
G37*
G36*
X195098603Y-64860968D02*
X195098606Y-64860969D01*
X195098605Y-64860969D01*
X195273678Y-64933486D01*
X195273679Y-64933487D01*
X195431241Y-65038767D01*
X195565233Y-65172759D01*
X195565234Y-65172761D01*
X195670514Y-65330322D01*
X195726603Y-65465734D01*
X195743032Y-65505397D01*
X195780000Y-65691250D01*
X195780000Y-65880750D01*
X195743032Y-66066603D01*
X195743031Y-66066605D01*
X195670514Y-66241678D01*
X195670513Y-66241679D01*
X195565233Y-66399241D01*
X195431241Y-66533233D01*
X195395894Y-66556851D01*
X195273678Y-66638514D01*
X195138266Y-66694603D01*
X195098603Y-66711032D01*
X194912750Y-66748000D01*
X194723250Y-66748000D01*
X194537397Y-66711032D01*
X194497734Y-66694603D01*
X194362322Y-66638514D01*
X194240106Y-66556851D01*
X194204759Y-66533233D01*
X194070767Y-66399241D01*
X193965487Y-66241679D01*
X193965486Y-66241678D01*
X193892969Y-66066605D01*
X193892968Y-66066603D01*
X193856000Y-65880750D01*
X193856000Y-65691250D01*
X193892968Y-65505397D01*
X193909397Y-65465734D01*
X193965486Y-65330322D01*
X194070766Y-65172761D01*
X194070767Y-65172759D01*
X194204759Y-65038767D01*
X194362321Y-64933487D01*
X194362322Y-64933486D01*
X194537395Y-64860969D01*
X194537394Y-64860969D01*
X194537397Y-64860968D01*
X194723250Y-64824000D01*
X194912750Y-64824000D01*
X195098603Y-64860968D01*
X195098603Y-64860968D01*
G37*
G36*
X191334530Y-64713877D02*
X191386010Y-64729493D01*
X191433442Y-64754846D01*
X191475027Y-64788973D01*
X191509154Y-64830558D01*
X191534507Y-64877990D01*
X191550123Y-64929470D01*
X191556000Y-64989140D01*
X191556000Y-65876860D01*
X191550123Y-65936530D01*
X191534507Y-65988010D01*
X191509154Y-66035442D01*
X191475027Y-66077027D01*
X191433442Y-66111154D01*
X191386010Y-66136507D01*
X191334530Y-66152123D01*
X191274860Y-66158000D01*
X190487140Y-66158000D01*
X190427470Y-66152123D01*
X190375990Y-66136507D01*
X190328558Y-66111154D01*
X190286973Y-66077027D01*
X190252846Y-66035442D01*
X190227493Y-65988010D01*
X190211877Y-65936530D01*
X190206000Y-65876860D01*
X190206000Y-64989140D01*
X190211877Y-64929470D01*
X190227493Y-64877990D01*
X190252846Y-64830558D01*
X190286973Y-64788973D01*
X190328558Y-64754846D01*
X190375990Y-64729493D01*
X190427470Y-64713877D01*
X190487140Y-64708000D01*
X191274860Y-64708000D01*
X191334530Y-64713877D01*
X191334530Y-64713877D01*
G37*
G36*
X105516288Y-63023447D02*
X105609023Y-63041893D01*
X105783732Y-63114260D01*
X105938873Y-63217922D01*
X105940968Y-63219322D01*
X106074680Y-63353034D01*
X106179743Y-63510272D01*
X106252109Y-63684980D01*
X106289001Y-63870448D01*
X106289001Y-64059554D01*
X106252109Y-64245022D01*
X106179743Y-64419730D01*
X106074680Y-64576968D01*
X105940968Y-64710680D01*
X105940965Y-64710682D01*
X105783732Y-64815742D01*
X105783731Y-64815743D01*
X105783730Y-64815743D01*
X105747963Y-64830558D01*
X105609023Y-64888109D01*
X105516288Y-64906555D01*
X105423554Y-64925001D01*
X105234448Y-64925001D01*
X105141714Y-64906555D01*
X105048979Y-64888109D01*
X104910039Y-64830558D01*
X104874272Y-64815743D01*
X104874271Y-64815743D01*
X104874270Y-64815742D01*
X104717037Y-64710682D01*
X104717034Y-64710680D01*
X104583322Y-64576968D01*
X104478259Y-64419730D01*
X104405893Y-64245022D01*
X104369001Y-64059554D01*
X104369001Y-63870448D01*
X104405893Y-63684980D01*
X104478259Y-63510272D01*
X104583322Y-63353034D01*
X104717034Y-63219322D01*
X104719129Y-63217922D01*
X104874270Y-63114260D01*
X105048979Y-63041893D01*
X105141714Y-63023447D01*
X105234448Y-63005001D01*
X105423554Y-63005001D01*
X105516288Y-63023447D01*
X105516288Y-63023447D01*
G37*
G36*
X156316288Y-63023447D02*
X156409023Y-63041893D01*
X156583732Y-63114260D01*
X156738873Y-63217922D01*
X156740968Y-63219322D01*
X156874680Y-63353034D01*
X156979743Y-63510272D01*
X157052109Y-63684980D01*
X157089001Y-63870448D01*
X157089001Y-64059554D01*
X157052109Y-64245022D01*
X156979743Y-64419730D01*
X156874680Y-64576968D01*
X156740968Y-64710680D01*
X156740965Y-64710682D01*
X156583732Y-64815742D01*
X156583731Y-64815743D01*
X156583730Y-64815743D01*
X156547963Y-64830558D01*
X156409023Y-64888109D01*
X156316288Y-64906555D01*
X156223554Y-64925001D01*
X156034448Y-64925001D01*
X155941714Y-64906555D01*
X155848979Y-64888109D01*
X155710039Y-64830558D01*
X155674272Y-64815743D01*
X155674271Y-64815743D01*
X155674270Y-64815742D01*
X155517037Y-64710682D01*
X155517034Y-64710680D01*
X155383322Y-64576968D01*
X155278259Y-64419730D01*
X155205893Y-64245022D01*
X155169001Y-64059554D01*
X155169001Y-63870448D01*
X155205893Y-63684980D01*
X155278259Y-63510272D01*
X155383322Y-63353034D01*
X155517034Y-63219322D01*
X155519129Y-63217922D01*
X155674270Y-63114260D01*
X155848979Y-63041893D01*
X155941714Y-63023447D01*
X156034448Y-63005001D01*
X156223554Y-63005001D01*
X156316288Y-63023447D01*
X156316288Y-63023447D01*
G37*
G36*
X153776288Y-63023447D02*
X153869023Y-63041893D01*
X154043732Y-63114260D01*
X154198873Y-63217922D01*
X154200968Y-63219322D01*
X154334680Y-63353034D01*
X154439743Y-63510272D01*
X154512109Y-63684980D01*
X154549001Y-63870448D01*
X154549001Y-64059554D01*
X154512109Y-64245022D01*
X154439743Y-64419730D01*
X154334680Y-64576968D01*
X154200968Y-64710680D01*
X154200965Y-64710682D01*
X154043732Y-64815742D01*
X154043731Y-64815743D01*
X154043730Y-64815743D01*
X154007963Y-64830558D01*
X153869023Y-64888109D01*
X153776288Y-64906555D01*
X153683554Y-64925001D01*
X153494448Y-64925001D01*
X153401714Y-64906555D01*
X153308979Y-64888109D01*
X153170039Y-64830558D01*
X153134272Y-64815743D01*
X153134271Y-64815743D01*
X153134270Y-64815742D01*
X152977037Y-64710682D01*
X152977034Y-64710680D01*
X152843322Y-64576968D01*
X152738259Y-64419730D01*
X152665893Y-64245022D01*
X152629001Y-64059554D01*
X152629001Y-63870448D01*
X152665893Y-63684980D01*
X152738259Y-63510272D01*
X152843322Y-63353034D01*
X152977034Y-63219322D01*
X152979129Y-63217922D01*
X153134270Y-63114260D01*
X153308979Y-63041893D01*
X153401714Y-63023447D01*
X153494448Y-63005001D01*
X153683554Y-63005001D01*
X153776288Y-63023447D01*
X153776288Y-63023447D01*
G37*
G36*
X151236288Y-63023447D02*
X151329023Y-63041893D01*
X151503732Y-63114260D01*
X151658873Y-63217922D01*
X151660968Y-63219322D01*
X151794680Y-63353034D01*
X151899743Y-63510272D01*
X151972109Y-63684980D01*
X152009001Y-63870448D01*
X152009001Y-64059554D01*
X151972109Y-64245022D01*
X151899743Y-64419730D01*
X151794680Y-64576968D01*
X151660968Y-64710680D01*
X151660965Y-64710682D01*
X151503732Y-64815742D01*
X151503731Y-64815743D01*
X151503730Y-64815743D01*
X151467963Y-64830558D01*
X151329023Y-64888109D01*
X151236288Y-64906555D01*
X151143554Y-64925001D01*
X150954448Y-64925001D01*
X150861714Y-64906555D01*
X150768979Y-64888109D01*
X150630039Y-64830558D01*
X150594272Y-64815743D01*
X150594271Y-64815743D01*
X150594270Y-64815742D01*
X150437037Y-64710682D01*
X150437034Y-64710680D01*
X150303322Y-64576968D01*
X150198259Y-64419730D01*
X150125893Y-64245022D01*
X150089001Y-64059554D01*
X150089001Y-63870448D01*
X150125893Y-63684980D01*
X150198259Y-63510272D01*
X150303322Y-63353034D01*
X150437034Y-63219322D01*
X150439129Y-63217922D01*
X150594270Y-63114260D01*
X150768979Y-63041893D01*
X150861714Y-63023447D01*
X150954448Y-63005001D01*
X151143554Y-63005001D01*
X151236288Y-63023447D01*
X151236288Y-63023447D01*
G37*
G36*
X174096288Y-63023447D02*
X174189023Y-63041893D01*
X174363732Y-63114260D01*
X174518873Y-63217922D01*
X174520968Y-63219322D01*
X174654680Y-63353034D01*
X174759743Y-63510272D01*
X174832109Y-63684980D01*
X174869001Y-63870448D01*
X174869001Y-64059554D01*
X174832109Y-64245022D01*
X174759743Y-64419730D01*
X174654680Y-64576968D01*
X174520968Y-64710680D01*
X174520965Y-64710682D01*
X174363732Y-64815742D01*
X174363731Y-64815743D01*
X174363730Y-64815743D01*
X174327963Y-64830558D01*
X174189023Y-64888109D01*
X174096288Y-64906555D01*
X174003554Y-64925001D01*
X173814448Y-64925001D01*
X173721714Y-64906555D01*
X173628979Y-64888109D01*
X173490039Y-64830558D01*
X173454272Y-64815743D01*
X173454271Y-64815743D01*
X173454270Y-64815742D01*
X173297037Y-64710682D01*
X173297034Y-64710680D01*
X173163322Y-64576968D01*
X173058259Y-64419730D01*
X172985893Y-64245022D01*
X172949001Y-64059554D01*
X172949001Y-63870448D01*
X172985893Y-63684980D01*
X173058259Y-63510272D01*
X173163322Y-63353034D01*
X173297034Y-63219322D01*
X173299129Y-63217922D01*
X173454270Y-63114260D01*
X173628979Y-63041893D01*
X173721714Y-63023447D01*
X173814448Y-63005001D01*
X174003554Y-63005001D01*
X174096288Y-63023447D01*
X174096288Y-63023447D01*
G37*
G36*
X171556288Y-63023447D02*
X171649023Y-63041893D01*
X171823732Y-63114260D01*
X171978873Y-63217922D01*
X171980968Y-63219322D01*
X172114680Y-63353034D01*
X172219743Y-63510272D01*
X172292109Y-63684980D01*
X172329001Y-63870448D01*
X172329001Y-64059554D01*
X172292109Y-64245022D01*
X172219743Y-64419730D01*
X172114680Y-64576968D01*
X171980968Y-64710680D01*
X171980965Y-64710682D01*
X171823732Y-64815742D01*
X171823731Y-64815743D01*
X171823730Y-64815743D01*
X171787963Y-64830558D01*
X171649023Y-64888109D01*
X171556288Y-64906555D01*
X171463554Y-64925001D01*
X171274448Y-64925001D01*
X171181714Y-64906555D01*
X171088979Y-64888109D01*
X170950039Y-64830558D01*
X170914272Y-64815743D01*
X170914271Y-64815743D01*
X170914270Y-64815742D01*
X170757037Y-64710682D01*
X170757034Y-64710680D01*
X170623322Y-64576968D01*
X170518259Y-64419730D01*
X170445893Y-64245022D01*
X170409001Y-64059554D01*
X170409001Y-63870448D01*
X170445893Y-63684980D01*
X170518259Y-63510272D01*
X170623322Y-63353034D01*
X170757034Y-63219322D01*
X170759129Y-63217922D01*
X170914270Y-63114260D01*
X171088979Y-63041893D01*
X171181714Y-63023447D01*
X171274448Y-63005001D01*
X171463554Y-63005001D01*
X171556288Y-63023447D01*
X171556288Y-63023447D01*
G37*
G36*
X158856288Y-63023447D02*
X158949023Y-63041893D01*
X159123732Y-63114260D01*
X159278873Y-63217922D01*
X159280968Y-63219322D01*
X159414680Y-63353034D01*
X159519743Y-63510272D01*
X159592109Y-63684980D01*
X159629001Y-63870448D01*
X159629001Y-64059554D01*
X159592109Y-64245022D01*
X159519743Y-64419730D01*
X159414680Y-64576968D01*
X159280968Y-64710680D01*
X159280965Y-64710682D01*
X159123732Y-64815742D01*
X159123731Y-64815743D01*
X159123730Y-64815743D01*
X159087963Y-64830558D01*
X158949023Y-64888109D01*
X158856288Y-64906555D01*
X158763554Y-64925001D01*
X158574448Y-64925001D01*
X158481714Y-64906555D01*
X158388979Y-64888109D01*
X158250039Y-64830558D01*
X158214272Y-64815743D01*
X158214271Y-64815743D01*
X158214270Y-64815742D01*
X158057037Y-64710682D01*
X158057034Y-64710680D01*
X157923322Y-64576968D01*
X157818259Y-64419730D01*
X157745893Y-64245022D01*
X157709001Y-64059554D01*
X157709001Y-63870448D01*
X157745893Y-63684980D01*
X157818259Y-63510272D01*
X157923322Y-63353034D01*
X158057034Y-63219322D01*
X158059129Y-63217922D01*
X158214270Y-63114260D01*
X158388979Y-63041893D01*
X158481714Y-63023447D01*
X158574448Y-63005001D01*
X158763554Y-63005001D01*
X158856288Y-63023447D01*
X158856288Y-63023447D01*
G37*
G36*
X161396288Y-63023447D02*
X161489023Y-63041893D01*
X161663732Y-63114260D01*
X161818873Y-63217922D01*
X161820968Y-63219322D01*
X161954680Y-63353034D01*
X162059743Y-63510272D01*
X162132109Y-63684980D01*
X162169001Y-63870448D01*
X162169001Y-64059554D01*
X162132109Y-64245022D01*
X162059743Y-64419730D01*
X161954680Y-64576968D01*
X161820968Y-64710680D01*
X161820965Y-64710682D01*
X161663732Y-64815742D01*
X161663731Y-64815743D01*
X161663730Y-64815743D01*
X161627963Y-64830558D01*
X161489023Y-64888109D01*
X161396288Y-64906555D01*
X161303554Y-64925001D01*
X161114448Y-64925001D01*
X161021714Y-64906555D01*
X160928979Y-64888109D01*
X160790039Y-64830558D01*
X160754272Y-64815743D01*
X160754271Y-64815743D01*
X160754270Y-64815742D01*
X160597037Y-64710682D01*
X160597034Y-64710680D01*
X160463322Y-64576968D01*
X160358259Y-64419730D01*
X160285893Y-64245022D01*
X160249001Y-64059554D01*
X160249001Y-63870448D01*
X160285893Y-63684980D01*
X160358259Y-63510272D01*
X160463322Y-63353034D01*
X160597034Y-63219322D01*
X160599129Y-63217922D01*
X160754270Y-63114260D01*
X160928979Y-63041893D01*
X161021714Y-63023447D01*
X161114448Y-63005001D01*
X161303554Y-63005001D01*
X161396288Y-63023447D01*
X161396288Y-63023447D01*
G37*
G36*
X169016288Y-63023447D02*
X169109023Y-63041893D01*
X169283732Y-63114260D01*
X169438873Y-63217922D01*
X169440968Y-63219322D01*
X169574680Y-63353034D01*
X169679743Y-63510272D01*
X169752109Y-63684980D01*
X169789001Y-63870448D01*
X169789001Y-64059554D01*
X169752109Y-64245022D01*
X169679743Y-64419730D01*
X169574680Y-64576968D01*
X169440968Y-64710680D01*
X169440965Y-64710682D01*
X169283732Y-64815742D01*
X169283731Y-64815743D01*
X169283730Y-64815743D01*
X169247963Y-64830558D01*
X169109023Y-64888109D01*
X169016288Y-64906555D01*
X168923554Y-64925001D01*
X168734448Y-64925001D01*
X168641714Y-64906555D01*
X168548979Y-64888109D01*
X168410039Y-64830558D01*
X168374272Y-64815743D01*
X168374271Y-64815743D01*
X168374270Y-64815742D01*
X168217037Y-64710682D01*
X168217034Y-64710680D01*
X168083322Y-64576968D01*
X167978259Y-64419730D01*
X167905893Y-64245022D01*
X167869001Y-64059554D01*
X167869001Y-63870448D01*
X167905893Y-63684980D01*
X167978259Y-63510272D01*
X168083322Y-63353034D01*
X168217034Y-63219322D01*
X168219129Y-63217922D01*
X168374270Y-63114260D01*
X168548979Y-63041893D01*
X168641714Y-63023447D01*
X168734448Y-63005001D01*
X168923554Y-63005001D01*
X169016288Y-63023447D01*
X169016288Y-63023447D01*
G37*
G36*
X163936288Y-63023447D02*
X164029023Y-63041893D01*
X164203732Y-63114260D01*
X164358873Y-63217922D01*
X164360968Y-63219322D01*
X164494680Y-63353034D01*
X164599743Y-63510272D01*
X164672109Y-63684980D01*
X164709001Y-63870448D01*
X164709001Y-64059554D01*
X164672109Y-64245022D01*
X164599743Y-64419730D01*
X164494680Y-64576968D01*
X164360968Y-64710680D01*
X164360965Y-64710682D01*
X164203732Y-64815742D01*
X164203731Y-64815743D01*
X164203730Y-64815743D01*
X164167963Y-64830558D01*
X164029023Y-64888109D01*
X163936288Y-64906555D01*
X163843554Y-64925001D01*
X163654448Y-64925001D01*
X163561714Y-64906555D01*
X163468979Y-64888109D01*
X163330039Y-64830558D01*
X163294272Y-64815743D01*
X163294271Y-64815743D01*
X163294270Y-64815742D01*
X163137037Y-64710682D01*
X163137034Y-64710680D01*
X163003322Y-64576968D01*
X162898259Y-64419730D01*
X162825893Y-64245022D01*
X162789001Y-64059554D01*
X162789001Y-63870448D01*
X162825893Y-63684980D01*
X162898259Y-63510272D01*
X163003322Y-63353034D01*
X163137034Y-63219322D01*
X163139129Y-63217922D01*
X163294270Y-63114260D01*
X163468979Y-63041893D01*
X163561714Y-63023447D01*
X163654448Y-63005001D01*
X163843554Y-63005001D01*
X163936288Y-63023447D01*
X163936288Y-63023447D01*
G37*
G36*
X90276288Y-63023447D02*
X90369023Y-63041893D01*
X90543732Y-63114260D01*
X90698873Y-63217922D01*
X90700968Y-63219322D01*
X90834680Y-63353034D01*
X90939743Y-63510272D01*
X91012109Y-63684980D01*
X91049001Y-63870448D01*
X91049001Y-64059554D01*
X91012109Y-64245022D01*
X90939743Y-64419730D01*
X90834680Y-64576968D01*
X90700968Y-64710680D01*
X90700965Y-64710682D01*
X90543732Y-64815742D01*
X90543731Y-64815743D01*
X90543730Y-64815743D01*
X90507963Y-64830558D01*
X90369023Y-64888109D01*
X90276288Y-64906555D01*
X90183554Y-64925001D01*
X89994448Y-64925001D01*
X89901714Y-64906555D01*
X89808979Y-64888109D01*
X89670039Y-64830558D01*
X89634272Y-64815743D01*
X89634271Y-64815743D01*
X89634270Y-64815742D01*
X89477037Y-64710682D01*
X89477034Y-64710680D01*
X89343322Y-64576968D01*
X89238259Y-64419730D01*
X89165893Y-64245022D01*
X89129001Y-64059554D01*
X89129001Y-63870448D01*
X89165893Y-63684980D01*
X89238259Y-63510272D01*
X89343322Y-63353034D01*
X89477034Y-63219322D01*
X89479129Y-63217922D01*
X89634270Y-63114260D01*
X89808979Y-63041893D01*
X89901714Y-63023447D01*
X89994448Y-63005001D01*
X90183554Y-63005001D01*
X90276288Y-63023447D01*
X90276288Y-63023447D01*
G37*
G36*
X87736288Y-63023447D02*
X87829023Y-63041893D01*
X88003732Y-63114260D01*
X88158873Y-63217922D01*
X88160968Y-63219322D01*
X88294680Y-63353034D01*
X88399743Y-63510272D01*
X88472109Y-63684980D01*
X88509001Y-63870448D01*
X88509001Y-64059554D01*
X88472109Y-64245022D01*
X88399743Y-64419730D01*
X88294680Y-64576968D01*
X88160968Y-64710680D01*
X88160965Y-64710682D01*
X88003732Y-64815742D01*
X88003731Y-64815743D01*
X88003730Y-64815743D01*
X87967963Y-64830558D01*
X87829023Y-64888109D01*
X87736288Y-64906555D01*
X87643554Y-64925001D01*
X87454448Y-64925001D01*
X87361714Y-64906555D01*
X87268979Y-64888109D01*
X87130039Y-64830558D01*
X87094272Y-64815743D01*
X87094271Y-64815743D01*
X87094270Y-64815742D01*
X86937037Y-64710682D01*
X86937034Y-64710680D01*
X86803322Y-64576968D01*
X86698259Y-64419730D01*
X86625893Y-64245022D01*
X86589001Y-64059554D01*
X86589001Y-63870448D01*
X86625893Y-63684980D01*
X86698259Y-63510272D01*
X86803322Y-63353034D01*
X86937034Y-63219322D01*
X86939129Y-63217922D01*
X87094270Y-63114260D01*
X87268979Y-63041893D01*
X87361714Y-63023447D01*
X87454448Y-63005001D01*
X87643554Y-63005001D01*
X87736288Y-63023447D01*
X87736288Y-63023447D01*
G37*
G36*
X97896288Y-63023447D02*
X97989023Y-63041893D01*
X98163732Y-63114260D01*
X98318873Y-63217922D01*
X98320968Y-63219322D01*
X98454680Y-63353034D01*
X98559743Y-63510272D01*
X98632109Y-63684980D01*
X98669001Y-63870448D01*
X98669001Y-64059554D01*
X98632109Y-64245022D01*
X98559743Y-64419730D01*
X98454680Y-64576968D01*
X98320968Y-64710680D01*
X98320965Y-64710682D01*
X98163732Y-64815742D01*
X98163731Y-64815743D01*
X98163730Y-64815743D01*
X98127963Y-64830558D01*
X97989023Y-64888109D01*
X97896288Y-64906555D01*
X97803554Y-64925001D01*
X97614448Y-64925001D01*
X97521714Y-64906555D01*
X97428979Y-64888109D01*
X97290039Y-64830558D01*
X97254272Y-64815743D01*
X97254271Y-64815743D01*
X97254270Y-64815742D01*
X97097037Y-64710682D01*
X97097034Y-64710680D01*
X96963322Y-64576968D01*
X96858259Y-64419730D01*
X96785893Y-64245022D01*
X96749001Y-64059554D01*
X96749001Y-63870448D01*
X96785893Y-63684980D01*
X96858259Y-63510272D01*
X96963322Y-63353034D01*
X97097034Y-63219322D01*
X97099129Y-63217922D01*
X97254270Y-63114260D01*
X97428979Y-63041893D01*
X97521714Y-63023447D01*
X97614448Y-63005001D01*
X97803554Y-63005001D01*
X97896288Y-63023447D01*
X97896288Y-63023447D01*
G37*
G36*
X100436288Y-63023447D02*
X100529023Y-63041893D01*
X100703732Y-63114260D01*
X100858873Y-63217922D01*
X100860968Y-63219322D01*
X100994680Y-63353034D01*
X101099743Y-63510272D01*
X101172109Y-63684980D01*
X101209001Y-63870448D01*
X101209001Y-64059554D01*
X101172109Y-64245022D01*
X101099743Y-64419730D01*
X100994680Y-64576968D01*
X100860968Y-64710680D01*
X100860965Y-64710682D01*
X100703732Y-64815742D01*
X100703731Y-64815743D01*
X100703730Y-64815743D01*
X100667963Y-64830558D01*
X100529023Y-64888109D01*
X100436288Y-64906555D01*
X100343554Y-64925001D01*
X100154448Y-64925001D01*
X100061714Y-64906555D01*
X99968979Y-64888109D01*
X99830039Y-64830558D01*
X99794272Y-64815743D01*
X99794271Y-64815743D01*
X99794270Y-64815742D01*
X99637037Y-64710682D01*
X99637034Y-64710680D01*
X99503322Y-64576968D01*
X99398259Y-64419730D01*
X99325893Y-64245022D01*
X99289001Y-64059554D01*
X99289001Y-63870448D01*
X99325893Y-63684980D01*
X99398259Y-63510272D01*
X99503322Y-63353034D01*
X99637034Y-63219322D01*
X99639129Y-63217922D01*
X99794270Y-63114260D01*
X99968979Y-63041893D01*
X100061714Y-63023447D01*
X100154448Y-63005001D01*
X100343554Y-63005001D01*
X100436288Y-63023447D01*
X100436288Y-63023447D01*
G37*
G36*
X102976288Y-63023447D02*
X103069023Y-63041893D01*
X103243732Y-63114260D01*
X103398873Y-63217922D01*
X103400968Y-63219322D01*
X103534680Y-63353034D01*
X103639743Y-63510272D01*
X103712109Y-63684980D01*
X103749001Y-63870448D01*
X103749001Y-64059554D01*
X103712109Y-64245022D01*
X103639743Y-64419730D01*
X103534680Y-64576968D01*
X103400968Y-64710680D01*
X103400965Y-64710682D01*
X103243732Y-64815742D01*
X103243731Y-64815743D01*
X103243730Y-64815743D01*
X103207963Y-64830558D01*
X103069023Y-64888109D01*
X102976288Y-64906555D01*
X102883554Y-64925001D01*
X102694448Y-64925001D01*
X102601714Y-64906555D01*
X102508979Y-64888109D01*
X102370039Y-64830558D01*
X102334272Y-64815743D01*
X102334271Y-64815743D01*
X102334270Y-64815742D01*
X102177037Y-64710682D01*
X102177034Y-64710680D01*
X102043322Y-64576968D01*
X101938259Y-64419730D01*
X101865893Y-64245022D01*
X101829001Y-64059554D01*
X101829001Y-63870448D01*
X101865893Y-63684980D01*
X101938259Y-63510272D01*
X102043322Y-63353034D01*
X102177034Y-63219322D01*
X102179129Y-63217922D01*
X102334270Y-63114260D01*
X102508979Y-63041893D01*
X102601714Y-63023447D01*
X102694448Y-63005001D01*
X102883554Y-63005001D01*
X102976288Y-63023447D01*
X102976288Y-63023447D01*
G37*
G36*
X95356288Y-63023447D02*
X95449023Y-63041893D01*
X95623732Y-63114260D01*
X95778873Y-63217922D01*
X95780968Y-63219322D01*
X95914680Y-63353034D01*
X96019743Y-63510272D01*
X96092109Y-63684980D01*
X96129001Y-63870448D01*
X96129001Y-64059554D01*
X96092109Y-64245022D01*
X96019743Y-64419730D01*
X95914680Y-64576968D01*
X95780968Y-64710680D01*
X95780965Y-64710682D01*
X95623732Y-64815742D01*
X95623731Y-64815743D01*
X95623730Y-64815743D01*
X95587963Y-64830558D01*
X95449023Y-64888109D01*
X95356288Y-64906555D01*
X95263554Y-64925001D01*
X95074448Y-64925001D01*
X94981714Y-64906555D01*
X94888979Y-64888109D01*
X94750039Y-64830558D01*
X94714272Y-64815743D01*
X94714271Y-64815743D01*
X94714270Y-64815742D01*
X94557037Y-64710682D01*
X94557034Y-64710680D01*
X94423322Y-64576968D01*
X94318259Y-64419730D01*
X94245893Y-64245022D01*
X94209001Y-64059554D01*
X94209001Y-63870448D01*
X94245893Y-63684980D01*
X94318259Y-63510272D01*
X94423322Y-63353034D01*
X94557034Y-63219322D01*
X94559129Y-63217922D01*
X94714270Y-63114260D01*
X94888979Y-63041893D01*
X94981714Y-63023447D01*
X95074448Y-63005001D01*
X95263554Y-63005001D01*
X95356288Y-63023447D01*
X95356288Y-63023447D01*
G37*
G36*
X108056288Y-63023447D02*
X108149023Y-63041893D01*
X108323732Y-63114260D01*
X108478873Y-63217922D01*
X108480968Y-63219322D01*
X108614680Y-63353034D01*
X108719743Y-63510272D01*
X108792109Y-63684980D01*
X108829001Y-63870448D01*
X108829001Y-64059554D01*
X108792109Y-64245022D01*
X108719743Y-64419730D01*
X108614680Y-64576968D01*
X108480968Y-64710680D01*
X108480965Y-64710682D01*
X108323732Y-64815742D01*
X108323731Y-64815743D01*
X108323730Y-64815743D01*
X108287963Y-64830558D01*
X108149023Y-64888109D01*
X108056288Y-64906555D01*
X107963554Y-64925001D01*
X107774448Y-64925001D01*
X107681714Y-64906555D01*
X107588979Y-64888109D01*
X107450039Y-64830558D01*
X107414272Y-64815743D01*
X107414271Y-64815743D01*
X107414270Y-64815742D01*
X107257037Y-64710682D01*
X107257034Y-64710680D01*
X107123322Y-64576968D01*
X107018259Y-64419730D01*
X106945893Y-64245022D01*
X106909001Y-64059554D01*
X106909001Y-63870448D01*
X106945893Y-63684980D01*
X107018259Y-63510272D01*
X107123322Y-63353034D01*
X107257034Y-63219322D01*
X107259129Y-63217922D01*
X107414270Y-63114260D01*
X107588979Y-63041893D01*
X107681714Y-63023447D01*
X107774448Y-63005001D01*
X107963554Y-63005001D01*
X108056288Y-63023447D01*
X108056288Y-63023447D01*
G37*
G36*
X110596288Y-63023447D02*
X110689023Y-63041893D01*
X110863732Y-63114260D01*
X111018873Y-63217922D01*
X111020968Y-63219322D01*
X111154680Y-63353034D01*
X111259743Y-63510272D01*
X111332109Y-63684980D01*
X111369001Y-63870448D01*
X111369001Y-64059554D01*
X111332109Y-64245022D01*
X111259743Y-64419730D01*
X111154680Y-64576968D01*
X111020968Y-64710680D01*
X111020965Y-64710682D01*
X110863732Y-64815742D01*
X110863731Y-64815743D01*
X110863730Y-64815743D01*
X110827963Y-64830558D01*
X110689023Y-64888109D01*
X110596288Y-64906555D01*
X110503554Y-64925001D01*
X110314448Y-64925001D01*
X110221714Y-64906555D01*
X110128979Y-64888109D01*
X109990039Y-64830558D01*
X109954272Y-64815743D01*
X109954271Y-64815743D01*
X109954270Y-64815742D01*
X109797037Y-64710682D01*
X109797034Y-64710680D01*
X109663322Y-64576968D01*
X109558259Y-64419730D01*
X109485893Y-64245022D01*
X109449001Y-64059554D01*
X109449001Y-63870448D01*
X109485893Y-63684980D01*
X109558259Y-63510272D01*
X109663322Y-63353034D01*
X109797034Y-63219322D01*
X109799129Y-63217922D01*
X109954270Y-63114260D01*
X110128979Y-63041893D01*
X110221714Y-63023447D01*
X110314448Y-63005001D01*
X110503554Y-63005001D01*
X110596288Y-63023447D01*
X110596288Y-63023447D01*
G37*
G36*
X166476288Y-63023447D02*
X166569023Y-63041893D01*
X166743732Y-63114260D01*
X166898873Y-63217922D01*
X166900968Y-63219322D01*
X167034680Y-63353034D01*
X167139743Y-63510272D01*
X167212109Y-63684980D01*
X167249001Y-63870448D01*
X167249001Y-64059554D01*
X167212109Y-64245022D01*
X167139743Y-64419730D01*
X167034680Y-64576968D01*
X166900968Y-64710680D01*
X166900965Y-64710682D01*
X166743732Y-64815742D01*
X166743731Y-64815743D01*
X166743730Y-64815743D01*
X166707963Y-64830558D01*
X166569023Y-64888109D01*
X166476288Y-64906555D01*
X166383554Y-64925001D01*
X166194448Y-64925001D01*
X166101714Y-64906555D01*
X166008979Y-64888109D01*
X165870039Y-64830558D01*
X165834272Y-64815743D01*
X165834271Y-64815743D01*
X165834270Y-64815742D01*
X165677037Y-64710682D01*
X165677034Y-64710680D01*
X165543322Y-64576968D01*
X165438259Y-64419730D01*
X165365893Y-64245022D01*
X165329001Y-64059554D01*
X165329001Y-63870448D01*
X165365893Y-63684980D01*
X165438259Y-63510272D01*
X165543322Y-63353034D01*
X165677034Y-63219322D01*
X165679129Y-63217922D01*
X165834270Y-63114260D01*
X166008979Y-63041893D01*
X166101714Y-63023447D01*
X166194448Y-63005001D01*
X166383554Y-63005001D01*
X166476288Y-63023447D01*
X166476288Y-63023447D01*
G37*
G36*
X92816288Y-63023447D02*
X92909023Y-63041893D01*
X93083732Y-63114260D01*
X93238873Y-63217922D01*
X93240968Y-63219322D01*
X93374680Y-63353034D01*
X93479743Y-63510272D01*
X93552109Y-63684980D01*
X93589001Y-63870448D01*
X93589001Y-64059554D01*
X93552109Y-64245022D01*
X93479743Y-64419730D01*
X93374680Y-64576968D01*
X93240968Y-64710680D01*
X93240965Y-64710682D01*
X93083732Y-64815742D01*
X93083731Y-64815743D01*
X93083730Y-64815743D01*
X93047963Y-64830558D01*
X92909023Y-64888109D01*
X92816288Y-64906555D01*
X92723554Y-64925001D01*
X92534448Y-64925001D01*
X92441714Y-64906555D01*
X92348979Y-64888109D01*
X92210039Y-64830558D01*
X92174272Y-64815743D01*
X92174271Y-64815743D01*
X92174270Y-64815742D01*
X92017037Y-64710682D01*
X92017034Y-64710680D01*
X91883322Y-64576968D01*
X91778259Y-64419730D01*
X91705893Y-64245022D01*
X91669001Y-64059554D01*
X91669001Y-63870448D01*
X91705893Y-63684980D01*
X91778259Y-63510272D01*
X91883322Y-63353034D01*
X92017034Y-63219322D01*
X92019129Y-63217922D01*
X92174270Y-63114260D01*
X92348979Y-63041893D01*
X92441714Y-63023447D01*
X92534448Y-63005001D01*
X92723554Y-63005001D01*
X92816288Y-63023447D01*
X92816288Y-63023447D01*
G37*
G36*
X176810603Y-57494968D02*
X176810606Y-57494969D01*
X176810605Y-57494969D01*
X176985678Y-57567486D01*
X176985679Y-57567487D01*
X177143241Y-57672767D01*
X177277233Y-57806759D01*
X177330232Y-57886077D01*
X177382514Y-57964322D01*
X177402426Y-58012395D01*
X177455032Y-58139397D01*
X177492000Y-58325250D01*
X177492000Y-58514750D01*
X177455032Y-58700603D01*
X177455031Y-58700605D01*
X177382514Y-58875678D01*
X177362092Y-58906241D01*
X177277233Y-59033241D01*
X177143241Y-59167233D01*
X177067217Y-59218031D01*
X176985678Y-59272514D01*
X176850266Y-59328603D01*
X176810603Y-59345032D01*
X176624750Y-59382000D01*
X176435250Y-59382000D01*
X176249397Y-59345032D01*
X176209734Y-59328603D01*
X176074322Y-59272514D01*
X175992783Y-59218031D01*
X175916759Y-59167233D01*
X175782767Y-59033241D01*
X175697908Y-58906241D01*
X175677486Y-58875678D01*
X175604969Y-58700605D01*
X175604968Y-58700603D01*
X175568000Y-58514750D01*
X175568000Y-58325250D01*
X175604968Y-58139397D01*
X175657574Y-58012395D01*
X175677486Y-57964322D01*
X175729768Y-57886077D01*
X175782767Y-57806759D01*
X175916759Y-57672767D01*
X176074321Y-57567487D01*
X176074322Y-57567486D01*
X176249395Y-57494969D01*
X176249394Y-57494969D01*
X176249397Y-57494968D01*
X176435250Y-57458000D01*
X176624750Y-57458000D01*
X176810603Y-57494968D01*
X176810603Y-57494968D01*
G37*
G36*
X186970603Y-57494968D02*
X186970606Y-57494969D01*
X186970605Y-57494969D01*
X187145678Y-57567486D01*
X187145679Y-57567487D01*
X187303241Y-57672767D01*
X187437233Y-57806759D01*
X187490232Y-57886077D01*
X187542514Y-57964322D01*
X187562426Y-58012395D01*
X187615032Y-58139397D01*
X187652000Y-58325250D01*
X187652000Y-58514750D01*
X187615032Y-58700603D01*
X187615031Y-58700605D01*
X187542514Y-58875678D01*
X187522092Y-58906241D01*
X187437233Y-59033241D01*
X187303241Y-59167233D01*
X187227217Y-59218031D01*
X187145678Y-59272514D01*
X187010266Y-59328603D01*
X186970603Y-59345032D01*
X186784750Y-59382000D01*
X186595250Y-59382000D01*
X186409397Y-59345032D01*
X186369734Y-59328603D01*
X186234322Y-59272514D01*
X186152783Y-59218031D01*
X186076759Y-59167233D01*
X185942767Y-59033241D01*
X185857908Y-58906241D01*
X185837486Y-58875678D01*
X185764969Y-58700605D01*
X185764968Y-58700603D01*
X185728000Y-58514750D01*
X185728000Y-58325250D01*
X185764968Y-58139397D01*
X185817574Y-58012395D01*
X185837486Y-57964322D01*
X185889768Y-57886077D01*
X185942767Y-57806759D01*
X186076759Y-57672767D01*
X186234321Y-57567487D01*
X186234322Y-57567486D01*
X186409395Y-57494969D01*
X186409394Y-57494969D01*
X186409397Y-57494968D01*
X186595250Y-57458000D01*
X186784750Y-57458000D01*
X186970603Y-57494968D01*
X186970603Y-57494968D01*
G37*
G36*
X184430603Y-57494968D02*
X184430606Y-57494969D01*
X184430605Y-57494969D01*
X184605678Y-57567486D01*
X184605679Y-57567487D01*
X184763241Y-57672767D01*
X184897233Y-57806759D01*
X184950232Y-57886077D01*
X185002514Y-57964322D01*
X185022426Y-58012395D01*
X185075032Y-58139397D01*
X185112000Y-58325250D01*
X185112000Y-58514750D01*
X185075032Y-58700603D01*
X185075031Y-58700605D01*
X185002514Y-58875678D01*
X184982092Y-58906241D01*
X184897233Y-59033241D01*
X184763241Y-59167233D01*
X184687217Y-59218031D01*
X184605678Y-59272514D01*
X184470266Y-59328603D01*
X184430603Y-59345032D01*
X184244750Y-59382000D01*
X184055250Y-59382000D01*
X183869397Y-59345032D01*
X183829734Y-59328603D01*
X183694322Y-59272514D01*
X183612783Y-59218031D01*
X183536759Y-59167233D01*
X183402767Y-59033241D01*
X183317908Y-58906241D01*
X183297486Y-58875678D01*
X183224969Y-58700605D01*
X183224968Y-58700603D01*
X183188000Y-58514750D01*
X183188000Y-58325250D01*
X183224968Y-58139397D01*
X183277574Y-58012395D01*
X183297486Y-57964322D01*
X183349768Y-57886077D01*
X183402767Y-57806759D01*
X183536759Y-57672767D01*
X183694321Y-57567487D01*
X183694322Y-57567486D01*
X183869395Y-57494969D01*
X183869394Y-57494969D01*
X183869397Y-57494968D01*
X184055250Y-57458000D01*
X184244750Y-57458000D01*
X184430603Y-57494968D01*
X184430603Y-57494968D01*
G37*
G36*
X181890603Y-57494968D02*
X181890606Y-57494969D01*
X181890605Y-57494969D01*
X182065678Y-57567486D01*
X182065679Y-57567487D01*
X182223241Y-57672767D01*
X182357233Y-57806759D01*
X182410232Y-57886077D01*
X182462514Y-57964322D01*
X182482426Y-58012395D01*
X182535032Y-58139397D01*
X182572000Y-58325250D01*
X182572000Y-58514750D01*
X182535032Y-58700603D01*
X182535031Y-58700605D01*
X182462514Y-58875678D01*
X182442092Y-58906241D01*
X182357233Y-59033241D01*
X182223241Y-59167233D01*
X182147217Y-59218031D01*
X182065678Y-59272514D01*
X181930266Y-59328603D01*
X181890603Y-59345032D01*
X181704750Y-59382000D01*
X181515250Y-59382000D01*
X181329397Y-59345032D01*
X181289734Y-59328603D01*
X181154322Y-59272514D01*
X181072783Y-59218031D01*
X180996759Y-59167233D01*
X180862767Y-59033241D01*
X180777908Y-58906241D01*
X180757486Y-58875678D01*
X180684969Y-58700605D01*
X180684968Y-58700603D01*
X180648000Y-58514750D01*
X180648000Y-58325250D01*
X180684968Y-58139397D01*
X180737574Y-58012395D01*
X180757486Y-57964322D01*
X180809768Y-57886077D01*
X180862767Y-57806759D01*
X180996759Y-57672767D01*
X181154321Y-57567487D01*
X181154322Y-57567486D01*
X181329395Y-57494969D01*
X181329394Y-57494969D01*
X181329397Y-57494968D01*
X181515250Y-57458000D01*
X181704750Y-57458000D01*
X181890603Y-57494968D01*
X181890603Y-57494968D01*
G37*
G36*
X179350603Y-57494968D02*
X179350606Y-57494969D01*
X179350605Y-57494969D01*
X179525678Y-57567486D01*
X179525679Y-57567487D01*
X179683241Y-57672767D01*
X179817233Y-57806759D01*
X179870232Y-57886077D01*
X179922514Y-57964322D01*
X179942426Y-58012395D01*
X179995032Y-58139397D01*
X180032000Y-58325250D01*
X180032000Y-58514750D01*
X179995032Y-58700603D01*
X179995031Y-58700605D01*
X179922514Y-58875678D01*
X179902092Y-58906241D01*
X179817233Y-59033241D01*
X179683241Y-59167233D01*
X179607217Y-59218031D01*
X179525678Y-59272514D01*
X179390266Y-59328603D01*
X179350603Y-59345032D01*
X179164750Y-59382000D01*
X178975250Y-59382000D01*
X178789397Y-59345032D01*
X178749734Y-59328603D01*
X178614322Y-59272514D01*
X178532783Y-59218031D01*
X178456759Y-59167233D01*
X178322767Y-59033241D01*
X178237908Y-58906241D01*
X178217486Y-58875678D01*
X178144969Y-58700605D01*
X178144968Y-58700603D01*
X178108000Y-58514750D01*
X178108000Y-58325250D01*
X178144968Y-58139397D01*
X178197574Y-58012395D01*
X178217486Y-57964322D01*
X178269768Y-57886077D01*
X178322767Y-57806759D01*
X178456759Y-57672767D01*
X178614321Y-57567487D01*
X178614322Y-57567486D01*
X178789395Y-57494969D01*
X178789394Y-57494969D01*
X178789397Y-57494968D01*
X178975250Y-57458000D01*
X179164750Y-57458000D01*
X179350603Y-57494968D01*
X179350603Y-57494968D01*
G37*
G36*
X165126603Y-57367968D02*
X165126606Y-57367969D01*
X165126605Y-57367969D01*
X165301678Y-57440486D01*
X165301679Y-57440487D01*
X165459241Y-57545767D01*
X165593233Y-57679759D01*
X165593234Y-57679761D01*
X165698514Y-57837322D01*
X165751118Y-57964321D01*
X165771032Y-58012397D01*
X165808000Y-58198250D01*
X165808000Y-58387750D01*
X165771032Y-58573603D01*
X165771031Y-58573605D01*
X165698514Y-58748678D01*
X165698513Y-58748679D01*
X165593233Y-58906241D01*
X165459241Y-59040233D01*
X165379923Y-59093232D01*
X165301678Y-59145514D01*
X165166266Y-59201603D01*
X165126603Y-59218032D01*
X164940750Y-59255000D01*
X164751250Y-59255000D01*
X164565397Y-59218032D01*
X164525734Y-59201603D01*
X164390322Y-59145514D01*
X164312077Y-59093232D01*
X164232759Y-59040233D01*
X164098767Y-58906241D01*
X163993487Y-58748679D01*
X163993486Y-58748678D01*
X163920969Y-58573605D01*
X163920968Y-58573603D01*
X163884000Y-58387750D01*
X163884000Y-58198250D01*
X163920968Y-58012397D01*
X163940882Y-57964321D01*
X163993486Y-57837322D01*
X164098766Y-57679761D01*
X164098767Y-57679759D01*
X164232759Y-57545767D01*
X164390321Y-57440487D01*
X164390322Y-57440486D01*
X164565395Y-57367969D01*
X164565394Y-57367969D01*
X164565397Y-57367968D01*
X164751250Y-57331000D01*
X164940750Y-57331000D01*
X165126603Y-57367968D01*
X165126603Y-57367968D01*
G37*
G36*
X102134603Y-57367968D02*
X102134606Y-57367969D01*
X102134605Y-57367969D01*
X102309678Y-57440486D01*
X102309679Y-57440487D01*
X102467241Y-57545767D01*
X102601233Y-57679759D01*
X102601234Y-57679761D01*
X102706514Y-57837322D01*
X102759118Y-57964321D01*
X102779032Y-58012397D01*
X102816000Y-58198250D01*
X102816000Y-58387750D01*
X102779032Y-58573603D01*
X102779031Y-58573605D01*
X102706514Y-58748678D01*
X102706513Y-58748679D01*
X102601233Y-58906241D01*
X102467241Y-59040233D01*
X102387923Y-59093232D01*
X102309678Y-59145514D01*
X102174266Y-59201603D01*
X102134603Y-59218032D01*
X101948750Y-59255000D01*
X101759250Y-59255000D01*
X101573397Y-59218032D01*
X101533734Y-59201603D01*
X101398322Y-59145514D01*
X101320077Y-59093232D01*
X101240759Y-59040233D01*
X101106767Y-58906241D01*
X101001487Y-58748679D01*
X101001486Y-58748678D01*
X100928969Y-58573605D01*
X100928968Y-58573603D01*
X100892000Y-58387750D01*
X100892000Y-58198250D01*
X100928968Y-58012397D01*
X100948882Y-57964321D01*
X101001486Y-57837322D01*
X101106766Y-57679761D01*
X101106767Y-57679759D01*
X101240759Y-57545767D01*
X101398321Y-57440487D01*
X101398322Y-57440486D01*
X101573395Y-57367969D01*
X101573394Y-57367969D01*
X101573397Y-57367968D01*
X101759250Y-57331000D01*
X101948750Y-57331000D01*
X102134603Y-57367968D01*
X102134603Y-57367968D01*
G37*
G36*
X162586603Y-57367968D02*
X162586606Y-57367969D01*
X162586605Y-57367969D01*
X162761678Y-57440486D01*
X162761679Y-57440487D01*
X162919241Y-57545767D01*
X163053233Y-57679759D01*
X163053234Y-57679761D01*
X163158514Y-57837322D01*
X163211118Y-57964321D01*
X163231032Y-58012397D01*
X163268000Y-58198250D01*
X163268000Y-58387750D01*
X163231032Y-58573603D01*
X163231031Y-58573605D01*
X163158514Y-58748678D01*
X163158513Y-58748679D01*
X163053233Y-58906241D01*
X162919241Y-59040233D01*
X162839923Y-59093232D01*
X162761678Y-59145514D01*
X162626266Y-59201603D01*
X162586603Y-59218032D01*
X162400750Y-59255000D01*
X162211250Y-59255000D01*
X162025397Y-59218032D01*
X161985734Y-59201603D01*
X161850322Y-59145514D01*
X161772077Y-59093232D01*
X161692759Y-59040233D01*
X161558767Y-58906241D01*
X161453487Y-58748679D01*
X161453486Y-58748678D01*
X161380969Y-58573605D01*
X161380968Y-58573603D01*
X161344000Y-58387750D01*
X161344000Y-58198250D01*
X161380968Y-58012397D01*
X161400882Y-57964321D01*
X161453486Y-57837322D01*
X161558766Y-57679761D01*
X161558767Y-57679759D01*
X161692759Y-57545767D01*
X161850321Y-57440487D01*
X161850322Y-57440486D01*
X162025395Y-57367969D01*
X162025394Y-57367969D01*
X162025397Y-57367968D01*
X162211250Y-57331000D01*
X162400750Y-57331000D01*
X162586603Y-57367968D01*
X162586603Y-57367968D01*
G37*
G36*
X131090603Y-57367968D02*
X131090606Y-57367969D01*
X131090605Y-57367969D01*
X131265678Y-57440486D01*
X131265679Y-57440487D01*
X131423241Y-57545767D01*
X131557233Y-57679759D01*
X131557234Y-57679761D01*
X131662514Y-57837322D01*
X131715118Y-57964321D01*
X131735032Y-58012397D01*
X131772000Y-58198250D01*
X131772000Y-58387750D01*
X131735032Y-58573603D01*
X131735031Y-58573605D01*
X131662514Y-58748678D01*
X131662513Y-58748679D01*
X131557233Y-58906241D01*
X131423241Y-59040233D01*
X131343923Y-59093232D01*
X131265678Y-59145514D01*
X131130266Y-59201603D01*
X131090603Y-59218032D01*
X130904750Y-59255000D01*
X130715250Y-59255000D01*
X130529397Y-59218032D01*
X130489734Y-59201603D01*
X130354322Y-59145514D01*
X130276077Y-59093232D01*
X130196759Y-59040233D01*
X130062767Y-58906241D01*
X129957487Y-58748679D01*
X129957486Y-58748678D01*
X129884969Y-58573605D01*
X129884968Y-58573603D01*
X129848000Y-58387750D01*
X129848000Y-58198250D01*
X129884968Y-58012397D01*
X129904882Y-57964321D01*
X129957486Y-57837322D01*
X130062766Y-57679761D01*
X130062767Y-57679759D01*
X130196759Y-57545767D01*
X130354321Y-57440487D01*
X130354322Y-57440486D01*
X130529395Y-57367969D01*
X130529394Y-57367969D01*
X130529397Y-57367968D01*
X130715250Y-57331000D01*
X130904750Y-57331000D01*
X131090603Y-57367968D01*
X131090603Y-57367968D01*
G37*
G36*
X99594603Y-57367968D02*
X99594606Y-57367969D01*
X99594605Y-57367969D01*
X99769678Y-57440486D01*
X99769679Y-57440487D01*
X99927241Y-57545767D01*
X100061233Y-57679759D01*
X100061234Y-57679761D01*
X100166514Y-57837322D01*
X100219118Y-57964321D01*
X100239032Y-58012397D01*
X100276000Y-58198250D01*
X100276000Y-58387750D01*
X100239032Y-58573603D01*
X100239031Y-58573605D01*
X100166514Y-58748678D01*
X100166513Y-58748679D01*
X100061233Y-58906241D01*
X99927241Y-59040233D01*
X99847923Y-59093232D01*
X99769678Y-59145514D01*
X99634266Y-59201603D01*
X99594603Y-59218032D01*
X99408750Y-59255000D01*
X99219250Y-59255000D01*
X99033397Y-59218032D01*
X98993734Y-59201603D01*
X98858322Y-59145514D01*
X98780077Y-59093232D01*
X98700759Y-59040233D01*
X98566767Y-58906241D01*
X98461487Y-58748679D01*
X98461486Y-58748678D01*
X98388969Y-58573605D01*
X98388968Y-58573603D01*
X98352000Y-58387750D01*
X98352000Y-58198250D01*
X98388968Y-58012397D01*
X98408882Y-57964321D01*
X98461486Y-57837322D01*
X98566766Y-57679761D01*
X98566767Y-57679759D01*
X98700759Y-57545767D01*
X98858321Y-57440487D01*
X98858322Y-57440486D01*
X99033395Y-57367969D01*
X99033394Y-57367969D01*
X99033397Y-57367968D01*
X99219250Y-57331000D01*
X99408750Y-57331000D01*
X99594603Y-57367968D01*
X99594603Y-57367968D01*
G37*
G36*
X128550603Y-57367968D02*
X128550606Y-57367969D01*
X128550605Y-57367969D01*
X128725678Y-57440486D01*
X128725679Y-57440487D01*
X128883241Y-57545767D01*
X129017233Y-57679759D01*
X129017234Y-57679761D01*
X129122514Y-57837322D01*
X129175118Y-57964321D01*
X129195032Y-58012397D01*
X129232000Y-58198250D01*
X129232000Y-58387750D01*
X129195032Y-58573603D01*
X129195031Y-58573605D01*
X129122514Y-58748678D01*
X129122513Y-58748679D01*
X129017233Y-58906241D01*
X128883241Y-59040233D01*
X128803923Y-59093232D01*
X128725678Y-59145514D01*
X128590266Y-59201603D01*
X128550603Y-59218032D01*
X128364750Y-59255000D01*
X128175250Y-59255000D01*
X127989397Y-59218032D01*
X127949734Y-59201603D01*
X127814322Y-59145514D01*
X127736077Y-59093232D01*
X127656759Y-59040233D01*
X127522767Y-58906241D01*
X127417487Y-58748679D01*
X127417486Y-58748678D01*
X127344969Y-58573605D01*
X127344968Y-58573603D01*
X127308000Y-58387750D01*
X127308000Y-58198250D01*
X127344968Y-58012397D01*
X127364882Y-57964321D01*
X127417486Y-57837322D01*
X127522766Y-57679761D01*
X127522767Y-57679759D01*
X127656759Y-57545767D01*
X127814321Y-57440487D01*
X127814322Y-57440486D01*
X127989395Y-57367969D01*
X127989394Y-57367969D01*
X127989397Y-57367968D01*
X128175250Y-57331000D01*
X128364750Y-57331000D01*
X128550603Y-57367968D01*
X128550603Y-57367968D01*
G37*
G36*
X126010603Y-57367968D02*
X126010606Y-57367969D01*
X126010605Y-57367969D01*
X126185678Y-57440486D01*
X126185679Y-57440487D01*
X126343241Y-57545767D01*
X126477233Y-57679759D01*
X126477234Y-57679761D01*
X126582514Y-57837322D01*
X126635118Y-57964321D01*
X126655032Y-58012397D01*
X126692000Y-58198250D01*
X126692000Y-58387750D01*
X126655032Y-58573603D01*
X126655031Y-58573605D01*
X126582514Y-58748678D01*
X126582513Y-58748679D01*
X126477233Y-58906241D01*
X126343241Y-59040233D01*
X126263923Y-59093232D01*
X126185678Y-59145514D01*
X126050266Y-59201603D01*
X126010603Y-59218032D01*
X125824750Y-59255000D01*
X125635250Y-59255000D01*
X125449397Y-59218032D01*
X125409734Y-59201603D01*
X125274322Y-59145514D01*
X125196077Y-59093232D01*
X125116759Y-59040233D01*
X124982767Y-58906241D01*
X124877487Y-58748679D01*
X124877486Y-58748678D01*
X124804969Y-58573605D01*
X124804968Y-58573603D01*
X124768000Y-58387750D01*
X124768000Y-58198250D01*
X124804968Y-58012397D01*
X124824882Y-57964321D01*
X124877486Y-57837322D01*
X124982766Y-57679761D01*
X124982767Y-57679759D01*
X125116759Y-57545767D01*
X125274321Y-57440487D01*
X125274322Y-57440486D01*
X125449395Y-57367969D01*
X125449394Y-57367969D01*
X125449397Y-57367968D01*
X125635250Y-57331000D01*
X125824750Y-57331000D01*
X126010603Y-57367968D01*
X126010603Y-57367968D01*
G37*
G36*
X104674603Y-57367968D02*
X104674606Y-57367969D01*
X104674605Y-57367969D01*
X104849678Y-57440486D01*
X104849679Y-57440487D01*
X105007241Y-57545767D01*
X105141233Y-57679759D01*
X105141234Y-57679761D01*
X105246514Y-57837322D01*
X105299118Y-57964321D01*
X105319032Y-58012397D01*
X105356000Y-58198250D01*
X105356000Y-58387750D01*
X105319032Y-58573603D01*
X105319031Y-58573605D01*
X105246514Y-58748678D01*
X105246513Y-58748679D01*
X105141233Y-58906241D01*
X105007241Y-59040233D01*
X104927923Y-59093232D01*
X104849678Y-59145514D01*
X104714266Y-59201603D01*
X104674603Y-59218032D01*
X104488750Y-59255000D01*
X104299250Y-59255000D01*
X104113397Y-59218032D01*
X104073734Y-59201603D01*
X103938322Y-59145514D01*
X103860077Y-59093232D01*
X103780759Y-59040233D01*
X103646767Y-58906241D01*
X103541487Y-58748679D01*
X103541486Y-58748678D01*
X103468969Y-58573605D01*
X103468968Y-58573603D01*
X103432000Y-58387750D01*
X103432000Y-58198250D01*
X103468968Y-58012397D01*
X103488882Y-57964321D01*
X103541486Y-57837322D01*
X103646766Y-57679761D01*
X103646767Y-57679759D01*
X103780759Y-57545767D01*
X103938321Y-57440487D01*
X103938322Y-57440486D01*
X104113395Y-57367969D01*
X104113394Y-57367969D01*
X104113397Y-57367968D01*
X104299250Y-57331000D01*
X104488750Y-57331000D01*
X104674603Y-57367968D01*
X104674603Y-57367968D01*
G37*
G36*
X97054603Y-57367968D02*
X97054606Y-57367969D01*
X97054605Y-57367969D01*
X97229678Y-57440486D01*
X97229679Y-57440487D01*
X97387241Y-57545767D01*
X97521233Y-57679759D01*
X97521234Y-57679761D01*
X97626514Y-57837322D01*
X97679118Y-57964321D01*
X97699032Y-58012397D01*
X97736000Y-58198250D01*
X97736000Y-58387750D01*
X97699032Y-58573603D01*
X97699031Y-58573605D01*
X97626514Y-58748678D01*
X97626513Y-58748679D01*
X97521233Y-58906241D01*
X97387241Y-59040233D01*
X97307923Y-59093232D01*
X97229678Y-59145514D01*
X97094266Y-59201603D01*
X97054603Y-59218032D01*
X96868750Y-59255000D01*
X96679250Y-59255000D01*
X96493397Y-59218032D01*
X96453734Y-59201603D01*
X96318322Y-59145514D01*
X96240077Y-59093232D01*
X96160759Y-59040233D01*
X96026767Y-58906241D01*
X95921487Y-58748679D01*
X95921486Y-58748678D01*
X95848969Y-58573605D01*
X95848968Y-58573603D01*
X95812000Y-58387750D01*
X95812000Y-58198250D01*
X95848968Y-58012397D01*
X95868882Y-57964321D01*
X95921486Y-57837322D01*
X96026766Y-57679761D01*
X96026767Y-57679759D01*
X96160759Y-57545767D01*
X96318321Y-57440487D01*
X96318322Y-57440486D01*
X96493395Y-57367969D01*
X96493394Y-57367969D01*
X96493397Y-57367968D01*
X96679250Y-57331000D01*
X96868750Y-57331000D01*
X97054603Y-57367968D01*
X97054603Y-57367968D01*
G37*
G36*
X188521499Y-47932976D02*
X188521501Y-47932977D01*
X188521502Y-47932977D01*
X188871829Y-48078087D01*
X188997047Y-48161755D01*
X189187119Y-48288757D01*
X189455243Y-48556881D01*
X189455245Y-48556884D01*
X189665913Y-48872171D01*
X189756761Y-49091498D01*
X189811024Y-49222501D01*
X189885000Y-49594403D01*
X189885000Y-49973597D01*
X189837082Y-50214499D01*
X189811023Y-50345502D01*
X189665913Y-50695829D01*
X189665912Y-50695830D01*
X189455243Y-51011119D01*
X189187119Y-51279243D01*
X189187116Y-51279245D01*
X188871829Y-51489913D01*
X188521502Y-51635023D01*
X188521501Y-51635023D01*
X188521499Y-51635024D01*
X188149597Y-51709000D01*
X187770403Y-51709000D01*
X187398501Y-51635024D01*
X187398499Y-51635023D01*
X187398498Y-51635023D01*
X187048171Y-51489913D01*
X186732884Y-51279245D01*
X186732881Y-51279243D01*
X186464757Y-51011119D01*
X186254088Y-50695830D01*
X186254087Y-50695829D01*
X186108977Y-50345502D01*
X186082919Y-50214499D01*
X186035000Y-49973597D01*
X186035000Y-49594403D01*
X186108976Y-49222501D01*
X186163239Y-49091498D01*
X186254087Y-48872171D01*
X186464755Y-48556884D01*
X186464757Y-48556881D01*
X186732881Y-48288757D01*
X186922953Y-48161755D01*
X187048171Y-48078087D01*
X187398498Y-47932977D01*
X187398499Y-47932977D01*
X187398501Y-47932976D01*
X187770403Y-47859000D01*
X188149597Y-47859000D01*
X188521499Y-47932976D01*
X188521499Y-47932976D01*
G37*
G36*
X175821499Y-47932976D02*
X175821501Y-47932977D01*
X175821502Y-47932977D01*
X176171829Y-48078087D01*
X176297047Y-48161755D01*
X176487119Y-48288757D01*
X176755243Y-48556881D01*
X176755245Y-48556884D01*
X176965913Y-48872171D01*
X177056761Y-49091498D01*
X177111024Y-49222501D01*
X177185000Y-49594403D01*
X177185000Y-49973597D01*
X177137082Y-50214499D01*
X177111023Y-50345502D01*
X176965913Y-50695829D01*
X176965912Y-50695830D01*
X176755243Y-51011119D01*
X176487119Y-51279243D01*
X176487116Y-51279245D01*
X176171829Y-51489913D01*
X175821502Y-51635023D01*
X175821501Y-51635023D01*
X175821499Y-51635024D01*
X175449597Y-51709000D01*
X175070403Y-51709000D01*
X174698501Y-51635024D01*
X174698499Y-51635023D01*
X174698498Y-51635023D01*
X174348171Y-51489913D01*
X174032884Y-51279245D01*
X174032881Y-51279243D01*
X173764757Y-51011119D01*
X173554088Y-50695830D01*
X173554087Y-50695829D01*
X173408977Y-50345502D01*
X173382919Y-50214499D01*
X173335000Y-49973597D01*
X173335000Y-49594403D01*
X173408976Y-49222501D01*
X173463239Y-49091498D01*
X173554087Y-48872171D01*
X173764755Y-48556884D01*
X173764757Y-48556881D01*
X174032881Y-48288757D01*
X174222953Y-48161755D01*
X174348171Y-48078087D01*
X174698498Y-47932977D01*
X174698499Y-47932977D01*
X174698501Y-47932976D01*
X175070403Y-47859000D01*
X175449597Y-47859000D01*
X175821499Y-47932976D01*
X175821499Y-47932976D01*
G37*
G36*
X125021499Y-47805976D02*
X125021501Y-47805977D01*
X125021502Y-47805977D01*
X125371829Y-47951087D01*
X125371830Y-47951088D01*
X125687119Y-48161757D01*
X125955243Y-48429881D01*
X125955245Y-48429884D01*
X126165913Y-48745171D01*
X126218518Y-48872171D01*
X126311024Y-49095501D01*
X126385000Y-49467403D01*
X126385000Y-49846597D01*
X126311820Y-50214499D01*
X126311023Y-50218502D01*
X126165913Y-50568829D01*
X125958084Y-50879868D01*
X125955243Y-50884119D01*
X125687119Y-51152243D01*
X125687116Y-51152245D01*
X125371829Y-51362913D01*
X125021502Y-51508023D01*
X125021501Y-51508023D01*
X125021499Y-51508024D01*
X124649597Y-51582000D01*
X124270403Y-51582000D01*
X123898501Y-51508024D01*
X123898499Y-51508023D01*
X123898498Y-51508023D01*
X123548171Y-51362913D01*
X123232884Y-51152245D01*
X123232881Y-51152243D01*
X122964757Y-50884119D01*
X122961916Y-50879868D01*
X122754087Y-50568829D01*
X122608977Y-50218502D01*
X122608181Y-50214499D01*
X122535000Y-49846597D01*
X122535000Y-49467403D01*
X122608976Y-49095501D01*
X122701482Y-48872171D01*
X122754087Y-48745171D01*
X122964755Y-48429884D01*
X122964757Y-48429881D01*
X123232881Y-48161757D01*
X123548170Y-47951088D01*
X123548171Y-47951087D01*
X123898498Y-47805977D01*
X123898499Y-47805977D01*
X123898501Y-47805976D01*
X124270403Y-47732000D01*
X124649597Y-47732000D01*
X125021499Y-47805976D01*
X125021499Y-47805976D01*
G37*
G36*
X166550499Y-47805976D02*
X166550501Y-47805977D01*
X166550502Y-47805977D01*
X166900829Y-47951087D01*
X166900830Y-47951088D01*
X167216119Y-48161757D01*
X167484243Y-48429881D01*
X167484245Y-48429884D01*
X167694913Y-48745171D01*
X167747518Y-48872171D01*
X167840024Y-49095501D01*
X167914000Y-49467403D01*
X167914000Y-49846597D01*
X167840820Y-50214499D01*
X167840023Y-50218502D01*
X167694913Y-50568829D01*
X167487084Y-50879868D01*
X167484243Y-50884119D01*
X167216119Y-51152243D01*
X167216116Y-51152245D01*
X166900829Y-51362913D01*
X166550502Y-51508023D01*
X166550501Y-51508023D01*
X166550499Y-51508024D01*
X166178597Y-51582000D01*
X165799403Y-51582000D01*
X165427501Y-51508024D01*
X165427499Y-51508023D01*
X165427498Y-51508023D01*
X165077171Y-51362913D01*
X164761884Y-51152245D01*
X164761881Y-51152243D01*
X164493757Y-50884119D01*
X164490916Y-50879868D01*
X164283087Y-50568829D01*
X164137977Y-50218502D01*
X164137181Y-50214499D01*
X164064000Y-49846597D01*
X164064000Y-49467403D01*
X164137976Y-49095501D01*
X164230482Y-48872171D01*
X164283087Y-48745171D01*
X164493755Y-48429884D01*
X164493757Y-48429881D01*
X164761881Y-48161757D01*
X165077170Y-47951088D01*
X165077171Y-47951087D01*
X165427498Y-47805977D01*
X165427499Y-47805977D01*
X165427501Y-47805976D01*
X165799403Y-47732000D01*
X166178597Y-47732000D01*
X166550499Y-47805976D01*
X166550499Y-47805976D01*
G37*
G36*
X132641499Y-47805976D02*
X132641501Y-47805977D01*
X132641502Y-47805977D01*
X132991829Y-47951087D01*
X132991830Y-47951088D01*
X133307119Y-48161757D01*
X133575243Y-48429881D01*
X133575245Y-48429884D01*
X133785913Y-48745171D01*
X133838518Y-48872171D01*
X133931024Y-49095501D01*
X134005000Y-49467403D01*
X134005000Y-49846597D01*
X133931820Y-50214499D01*
X133931023Y-50218502D01*
X133785913Y-50568829D01*
X133578084Y-50879868D01*
X133575243Y-50884119D01*
X133307119Y-51152243D01*
X133307116Y-51152245D01*
X132991829Y-51362913D01*
X132641502Y-51508023D01*
X132641501Y-51508023D01*
X132641499Y-51508024D01*
X132269597Y-51582000D01*
X131890403Y-51582000D01*
X131518501Y-51508024D01*
X131518499Y-51508023D01*
X131518498Y-51508023D01*
X131168171Y-51362913D01*
X130852884Y-51152245D01*
X130852881Y-51152243D01*
X130584757Y-50884119D01*
X130581916Y-50879868D01*
X130374087Y-50568829D01*
X130228977Y-50218502D01*
X130228181Y-50214499D01*
X130155000Y-49846597D01*
X130155000Y-49467403D01*
X130228976Y-49095501D01*
X130321482Y-48872171D01*
X130374087Y-48745171D01*
X130584755Y-48429884D01*
X130584757Y-48429881D01*
X130852881Y-48161757D01*
X131168170Y-47951088D01*
X131168171Y-47951087D01*
X131518498Y-47805977D01*
X131518499Y-47805977D01*
X131518501Y-47805976D01*
X131890403Y-47732000D01*
X132269597Y-47732000D01*
X132641499Y-47805976D01*
X132641499Y-47805976D01*
G37*
G36*
X96065499Y-47805976D02*
X96065501Y-47805977D01*
X96065502Y-47805977D01*
X96415829Y-47951087D01*
X96415830Y-47951088D01*
X96731119Y-48161757D01*
X96999243Y-48429881D01*
X96999245Y-48429884D01*
X97209913Y-48745171D01*
X97262518Y-48872171D01*
X97355024Y-49095501D01*
X97429000Y-49467403D01*
X97429000Y-49846597D01*
X97355820Y-50214499D01*
X97355023Y-50218502D01*
X97209913Y-50568829D01*
X97002084Y-50879868D01*
X96999243Y-50884119D01*
X96731119Y-51152243D01*
X96731116Y-51152245D01*
X96415829Y-51362913D01*
X96065502Y-51508023D01*
X96065501Y-51508023D01*
X96065499Y-51508024D01*
X95693597Y-51582000D01*
X95314403Y-51582000D01*
X94942501Y-51508024D01*
X94942499Y-51508023D01*
X94942498Y-51508023D01*
X94592171Y-51362913D01*
X94276884Y-51152245D01*
X94276881Y-51152243D01*
X94008757Y-50884119D01*
X94005916Y-50879868D01*
X93798087Y-50568829D01*
X93652977Y-50218502D01*
X93652181Y-50214499D01*
X93579000Y-49846597D01*
X93579000Y-49467403D01*
X93652976Y-49095501D01*
X93745482Y-48872171D01*
X93798087Y-48745171D01*
X94008755Y-48429884D01*
X94008757Y-48429881D01*
X94276881Y-48161757D01*
X94592170Y-47951088D01*
X94592171Y-47951087D01*
X94942498Y-47805977D01*
X94942499Y-47805977D01*
X94942501Y-47805976D01*
X95314403Y-47732000D01*
X95693597Y-47732000D01*
X96065499Y-47805976D01*
X96065499Y-47805976D01*
G37*
G36*
X106225499Y-47805976D02*
X106225501Y-47805977D01*
X106225502Y-47805977D01*
X106575829Y-47951087D01*
X106575830Y-47951088D01*
X106891119Y-48161757D01*
X107159243Y-48429881D01*
X107159245Y-48429884D01*
X107369913Y-48745171D01*
X107422518Y-48872171D01*
X107515024Y-49095501D01*
X107589000Y-49467403D01*
X107589000Y-49846597D01*
X107515820Y-50214499D01*
X107515023Y-50218502D01*
X107369913Y-50568829D01*
X107162084Y-50879868D01*
X107159243Y-50884119D01*
X106891119Y-51152243D01*
X106891116Y-51152245D01*
X106575829Y-51362913D01*
X106225502Y-51508023D01*
X106225501Y-51508023D01*
X106225499Y-51508024D01*
X105853597Y-51582000D01*
X105474403Y-51582000D01*
X105102501Y-51508024D01*
X105102499Y-51508023D01*
X105102498Y-51508023D01*
X104752171Y-51362913D01*
X104436884Y-51152245D01*
X104436881Y-51152243D01*
X104168757Y-50884119D01*
X104165916Y-50879868D01*
X103958087Y-50568829D01*
X103812977Y-50218502D01*
X103812181Y-50214499D01*
X103739000Y-49846597D01*
X103739000Y-49467403D01*
X103812976Y-49095501D01*
X103905482Y-48872171D01*
X103958087Y-48745171D01*
X104168755Y-48429884D01*
X104168757Y-48429881D01*
X104436881Y-48161757D01*
X104752170Y-47951088D01*
X104752171Y-47951087D01*
X105102498Y-47805977D01*
X105102499Y-47805977D01*
X105102501Y-47805976D01*
X105474403Y-47732000D01*
X105853597Y-47732000D01*
X106225499Y-47805976D01*
X106225499Y-47805976D01*
G37*
G36*
X161722499Y-47801976D02*
X161722501Y-47801977D01*
X161722502Y-47801977D01*
X162072829Y-47947087D01*
X162268884Y-48078087D01*
X162388119Y-48157757D01*
X162656243Y-48425881D01*
X162656245Y-48425884D01*
X162866913Y-48741171D01*
X163012023Y-49091498D01*
X163012024Y-49091501D01*
X163086000Y-49463403D01*
X163086000Y-49842597D01*
X163059943Y-49973596D01*
X163012023Y-50214502D01*
X162866913Y-50564829D01*
X162779381Y-50695830D01*
X162656243Y-50880119D01*
X162388119Y-51148243D01*
X162388116Y-51148245D01*
X162072829Y-51358913D01*
X161722502Y-51504023D01*
X161722501Y-51504023D01*
X161722499Y-51504024D01*
X161350597Y-51578000D01*
X160971403Y-51578000D01*
X160599501Y-51504024D01*
X160599499Y-51504023D01*
X160599498Y-51504023D01*
X160249171Y-51358913D01*
X159933884Y-51148245D01*
X159933881Y-51148243D01*
X159665757Y-50880119D01*
X159542619Y-50695830D01*
X159455087Y-50564829D01*
X159309977Y-50214502D01*
X159262058Y-49973596D01*
X159236000Y-49842597D01*
X159236000Y-49463403D01*
X159309976Y-49091501D01*
X159309977Y-49091498D01*
X159455087Y-48741171D01*
X159665755Y-48425884D01*
X159665757Y-48425881D01*
X159933881Y-48157757D01*
X160053116Y-48078087D01*
X160249171Y-47947087D01*
X160599498Y-47801977D01*
X160599499Y-47801977D01*
X160599501Y-47801976D01*
X160971403Y-47728000D01*
X161350597Y-47728000D01*
X161722499Y-47801976D01*
X161722499Y-47801976D01*
G37*
M02*
