M48
; DRILL file {KiCad (5.1.10)-1} date 03/12/22 01:19:28
; FORMAT={-:-/ absolute / inch / decimal}
; #@! TF.CreationDate,2022-03-12T01:19:28-06:00
; #@! TF.GenerationSoftware,Kicad,Pcbnew,(5.1.10)-1
; #@! TF.FileFunction,Plated,1,2,PTH
FMAT,2
INCH
T1C0.0157
T2C0.0276
T3C0.0295
T4C0.0315
T5C0.0335
T6C0.0350
T7C0.0354
T8C0.0362
T9C0.0402
T10C0.0630
T11C0.0906
T12C0.1280
T13C0.1598
%
G90
G05
T1
X1.955Y-3.205
X1.955Y-4.8
X1.955Y-4.995
X1.955Y-5.205
X1.955Y-5.415
X1.955Y-5.65
X1.955Y-6.24
X1.985Y-6.035
X2.03Y-6.06
X2.065Y-6.18
X2.07Y-2.54
X2.1Y-6.145
X2.14Y-6.12
X2.17Y-5.0
X2.175Y-5.2
X2.185Y-4.805
X2.185Y-5.415
X2.185Y-5.65
X2.185Y-6.09
X2.2Y-4.0
X2.335Y-5.94
X2.425Y-3.68
X2.44Y-2.575
X2.44Y-2.6185
X2.44Y-2.655
X2.5Y-5.265
X2.505Y-4.87
X2.51Y-4.67
X2.51Y-5.07
X2.51Y-5.705
X2.515Y-5.485
X2.54Y-3.48
X2.555Y-5.905
X2.5557Y-4.9057
X2.6Y-6.28
X2.6102Y-2.3048
X2.67Y-3.005
X2.67Y-3.68
X2.675Y-2.82
X2.705Y-6.215
X2.72Y-5.79
X2.725Y-4.565
X2.725Y-4.77
X2.725Y-4.975
X2.725Y-5.18
X2.725Y-5.38
X2.725Y-5.585
X2.73Y-3.75
X2.755Y-4.275
X2.775Y-2.705
X2.8018Y-6.3082
X2.845Y-3.205
X2.865Y-4.67
X2.88Y-4.995
X2.88Y-5.97
X2.89Y-2.61
X2.895Y-4.87
X2.915Y-5.11
X2.915Y-5.94
X2.92Y-2.705
X2.9243Y-5.065
X2.95Y-5.25
X2.96Y-2.655
X2.96Y-2.905
X2.99Y-2.575
X2.99Y-3.045
X3.1Y-6.245
X3.15Y-3.2
X3.2Y-6.18
X3.255Y-2.58
X3.3Y-6.1457
X3.31Y-2.67
X3.37Y-2.58
X3.38Y-2.87
X3.41Y-2.475
X3.45Y-3.28
X3.5018Y-6.3082
X3.775Y-4.955
X3.81Y-6.09
X3.865Y-5.8
X3.88Y-2.51
X3.91Y-6.12
X3.93Y-4.25
X3.945Y-3.665
X3.97Y-4.87
X3.975Y-4.51
X3.98Y-4.55
X3.98Y-4.67
X3.98Y-4.71
X3.98Y-4.82
X3.995Y-4.95
X4.005Y-4.39
X4.03Y-3.865
X4.04Y-2.72
X4.065Y-5.26
X4.07Y-5.605
X4.085Y-5.37
X4.1118Y-6.3082
X4.125Y-6.215
X4.155Y-4.21
X4.155Y-4.795
X4.155Y-6.245
X4.17Y-3.01
X4.17Y-4.04
X4.175Y-3.27
X4.18Y-2.89
X4.18Y-3.4
X4.185Y-3.14
X4.185Y-4.31
X4.185Y-5.195
X4.185Y-5.265
X4.185Y-6.28
X4.23Y-3.88
X4.2318Y-4.5132
X4.2318Y-4.6732
X4.2318Y-4.8232
X4.2318Y-4.9532
X4.2318Y-5.3682
X4.2318Y-5.6082
X4.2318Y-5.7982
X4.2318Y-6.3082
X4.26Y-2.405
X4.27Y-2.88
X4.27Y-3.665
X4.27Y-4.44
X4.27Y-4.925
X4.27Y-5.905
X4.3Y-4.535
X4.3Y-5.94
X4.305Y-2.985
X4.305Y-3.81
X4.305Y-4.155
X4.34Y-3.76
X4.34Y-5.97
X4.43Y-6.32
X4.45Y-2.49
X4.45Y-3.14
X4.45Y-4.87
X4.48Y-3.27
X4.48Y-4.71
X4.485Y-5.88
X4.495Y-5.615
X4.51Y-3.4
X4.51Y-4.045
X4.51Y-4.57
X4.56Y-4.825
X4.56Y-5.195
X4.615Y-4.27
X4.62Y-3.895
X4.77Y-2.165
T2
X3.3761Y-4.0206
X3.3761Y-4.0994
X3.4548Y-4.0206
X3.4548Y-4.0994
X3.5335Y-4.0206
X3.5335Y-4.0994
T3
X3.1501Y-3.76
X3.1501Y-3.86
X3.1501Y-3.96
X3.1501Y-4.06
X3.1501Y-4.16
T4
X3.03Y-3.51
X3.03Y-3.61
X3.03Y-3.71
X3.03Y-3.81
X3.03Y-3.91
X3.03Y-4.01
X3.03Y-4.11
X3.03Y-4.21
X3.03Y-4.31
X3.03Y-4.41
X3.03Y-4.51
X3.03Y-4.61
X3.03Y-4.71
X3.03Y-4.81
X3.03Y-4.91
X3.03Y-5.01
X3.03Y-5.11
X3.03Y-5.21
X3.03Y-5.31
X3.03Y-5.41
X3.03Y-5.51
X3.03Y-5.61
X3.03Y-5.71
X3.03Y-5.81
X3.13Y-5.31
X3.23Y-5.31
X3.33Y-5.31
X3.43Y-5.31
X3.48Y-2.5063
X3.48Y-2.585
X3.53Y-3.61
X3.53Y-5.31
X3.5587Y-2.5063
X3.5587Y-2.585
X3.63Y-3.51
X3.63Y-3.61
X3.63Y-3.71
X3.63Y-3.81
X3.63Y-3.91
X3.63Y-4.01
X3.63Y-4.11
X3.63Y-4.21
X3.63Y-4.31
X3.63Y-4.41
X3.63Y-4.51
X3.63Y-4.61
X3.63Y-4.71
X3.63Y-4.81
X3.63Y-4.91
X3.63Y-5.01
X3.63Y-5.11
X3.63Y-5.21
X3.63Y-5.31
X3.63Y-5.41
X3.63Y-5.51
X3.63Y-5.61
X3.63Y-5.71
X3.63Y-5.81
X3.6375Y-2.5063
X3.6375Y-2.585
T5
X2.2039Y-3.48
X2.2039Y-3.58
X2.2039Y-3.68
T6
X2.58Y-3.005
X2.58Y-3.105
X2.58Y-3.205
T7
X2.5Y-6.44
X2.6Y-6.44
X2.7Y-6.44
X2.8Y-6.44
X3.1Y-6.45
X3.2Y-6.45
X3.2299Y-2.3818
X3.2799Y-2.2818
X3.3Y-6.45
X3.3299Y-2.3818
X3.3799Y-2.2818
X3.4Y-6.45
X3.4299Y-2.3818
X3.4799Y-2.2818
X3.5Y-6.45
X3.5299Y-2.3818
X3.5799Y-2.2818
X3.81Y-6.45
X3.91Y-6.45
X4.01Y-6.45
X4.11Y-6.45
X4.725Y-2.49
X4.725Y-2.59
X4.725Y-2.88
X4.725Y-2.98
X4.725Y-3.27
X4.725Y-3.37
X4.725Y-3.66
X4.725Y-3.76
X4.725Y-4.045
X4.725Y-4.145
X4.725Y-4.435
X4.725Y-4.535
X4.725Y-4.92
X4.725Y-5.02
X4.725Y-5.3
X4.725Y-5.4
X4.725Y-5.8
X4.725Y-5.9
X4.725Y-6.0
X4.725Y-6.1
T8
X2.4744Y-2.13
X2.5728Y-2.13
X2.6516Y-2.13
X2.75Y-2.13
T9
X3.1559Y-1.9023
X3.2559Y-1.8318
X3.5539Y-1.9023
X3.6539Y-1.8318
T10
X3.0949Y-2.1519
X3.715Y-2.1519
T11
X2.3535Y-2.0233
X2.8709Y-2.0233
T12
X3.1799Y-2.0318
X3.6299Y-2.0318
T13
X4.04Y-2.081
X4.35Y-2.081
T0
M30
