%TF.GenerationSoftware,KiCad,Pcbnew,(5.1.6)-1*%
%TF.CreationDate,2021-12-02T00:23:03-06:00*%
%TF.ProjectId,SRA_Sensor_Board(connector_on_board),5352415f-5365-46e7-936f-725f426f6172,rev?*%
%TF.SameCoordinates,Original*%
%TF.FileFunction,Soldermask,Bot*%
%TF.FilePolarity,Negative*%
%FSLAX46Y46*%
G04 Gerber Fmt 4.6, Leading zero omitted, Abs format (unit mm)*
G04 Created by KiCad (PCBNEW (5.1.6)-1) date 2021-12-02 00:23:03*
%MOMM*%
%LPD*%
G01*
G04 APERTURE LIST*
%ADD10C,0.100000*%
G04 APERTURE END LIST*
D10*
G36*
X45448560Y-138666166D02*
G01*
X45596153Y-138727301D01*
X45728982Y-138816055D01*
X45841945Y-138929018D01*
X45930699Y-139061847D01*
X45991834Y-139209440D01*
X46023000Y-139366123D01*
X46023000Y-139525877D01*
X45991834Y-139682560D01*
X45930699Y-139830153D01*
X45841945Y-139962982D01*
X45728982Y-140075945D01*
X45596153Y-140164699D01*
X45596152Y-140164700D01*
X45596151Y-140164700D01*
X45448560Y-140225834D01*
X45291878Y-140257000D01*
X45132122Y-140257000D01*
X44975440Y-140225834D01*
X44827849Y-140164700D01*
X44827848Y-140164700D01*
X44827847Y-140164699D01*
X44695018Y-140075945D01*
X44582055Y-139962982D01*
X44493301Y-139830153D01*
X44432166Y-139682560D01*
X44401000Y-139525877D01*
X44401000Y-139366123D01*
X44432166Y-139209440D01*
X44493301Y-139061847D01*
X44582055Y-138929018D01*
X44695018Y-138816055D01*
X44827847Y-138727301D01*
X44975440Y-138666166D01*
X45132122Y-138635000D01*
X45291878Y-138635000D01*
X45448560Y-138666166D01*
G37*
G36*
X86088560Y-138666166D02*
G01*
X86236153Y-138727301D01*
X86368982Y-138816055D01*
X86481945Y-138929018D01*
X86570699Y-139061847D01*
X86631834Y-139209440D01*
X86663000Y-139366123D01*
X86663000Y-139525877D01*
X86631834Y-139682560D01*
X86570699Y-139830153D01*
X86481945Y-139962982D01*
X86368982Y-140075945D01*
X86236153Y-140164699D01*
X86236152Y-140164700D01*
X86236151Y-140164700D01*
X86088560Y-140225834D01*
X85931878Y-140257000D01*
X85772122Y-140257000D01*
X85615440Y-140225834D01*
X85467849Y-140164700D01*
X85467848Y-140164700D01*
X85467847Y-140164699D01*
X85335018Y-140075945D01*
X85222055Y-139962982D01*
X85133301Y-139830153D01*
X85072166Y-139682560D01*
X85041000Y-139525877D01*
X85041000Y-139366123D01*
X85072166Y-139209440D01*
X85133301Y-139061847D01*
X85222055Y-138929018D01*
X85335018Y-138816055D01*
X85467847Y-138727301D01*
X85615440Y-138666166D01*
X85772122Y-138635000D01*
X85931878Y-138635000D01*
X86088560Y-138666166D01*
G37*
G36*
X88628560Y-138666166D02*
G01*
X88776153Y-138727301D01*
X88908982Y-138816055D01*
X89021945Y-138929018D01*
X89110699Y-139061847D01*
X89171834Y-139209440D01*
X89203000Y-139366123D01*
X89203000Y-139525877D01*
X89171834Y-139682560D01*
X89110699Y-139830153D01*
X89021945Y-139962982D01*
X88908982Y-140075945D01*
X88776153Y-140164699D01*
X88776152Y-140164700D01*
X88776151Y-140164700D01*
X88628560Y-140225834D01*
X88471878Y-140257000D01*
X88312122Y-140257000D01*
X88155440Y-140225834D01*
X88007849Y-140164700D01*
X88007848Y-140164700D01*
X88007847Y-140164699D01*
X87875018Y-140075945D01*
X87762055Y-139962982D01*
X87673301Y-139830153D01*
X87612166Y-139682560D01*
X87581000Y-139525877D01*
X87581000Y-139366123D01*
X87612166Y-139209440D01*
X87673301Y-139061847D01*
X87762055Y-138929018D01*
X87875018Y-138816055D01*
X88007847Y-138727301D01*
X88155440Y-138666166D01*
X88312122Y-138635000D01*
X88471878Y-138635000D01*
X88628560Y-138666166D01*
G37*
G36*
X42908560Y-138666166D02*
G01*
X43056153Y-138727301D01*
X43188982Y-138816055D01*
X43301945Y-138929018D01*
X43390699Y-139061847D01*
X43451834Y-139209440D01*
X43483000Y-139366123D01*
X43483000Y-139525877D01*
X43451834Y-139682560D01*
X43390699Y-139830153D01*
X43301945Y-139962982D01*
X43188982Y-140075945D01*
X43056153Y-140164699D01*
X43056152Y-140164700D01*
X43056151Y-140164700D01*
X42908560Y-140225834D01*
X42751878Y-140257000D01*
X42592122Y-140257000D01*
X42435440Y-140225834D01*
X42287849Y-140164700D01*
X42287848Y-140164700D01*
X42287847Y-140164699D01*
X42155018Y-140075945D01*
X42042055Y-139962982D01*
X41953301Y-139830153D01*
X41892166Y-139682560D01*
X41861000Y-139525877D01*
X41861000Y-139366123D01*
X41892166Y-139209440D01*
X41953301Y-139061847D01*
X42042055Y-138929018D01*
X42155018Y-138816055D01*
X42287847Y-138727301D01*
X42435440Y-138666166D01*
X42592122Y-138635000D01*
X42751878Y-138635000D01*
X42908560Y-138666166D01*
G37*
G36*
X28712039Y-136722250D02*
G01*
X28901372Y-136800675D01*
X29035251Y-136856129D01*
X29326134Y-137050491D01*
X29573509Y-137297866D01*
X29767871Y-137588749D01*
X29767871Y-137588750D01*
X29901750Y-137911961D01*
X29970000Y-138255078D01*
X29970000Y-138604922D01*
X29901750Y-138948039D01*
X29854609Y-139061847D01*
X29767871Y-139271251D01*
X29573509Y-139562134D01*
X29326134Y-139809509D01*
X29035251Y-140003871D01*
X28901372Y-140059325D01*
X28712039Y-140137750D01*
X28368922Y-140206000D01*
X28019078Y-140206000D01*
X27675961Y-140137750D01*
X27486628Y-140059325D01*
X27352749Y-140003871D01*
X27061866Y-139809509D01*
X26814491Y-139562134D01*
X26620129Y-139271251D01*
X26533391Y-139061847D01*
X26486250Y-138948039D01*
X26418000Y-138604922D01*
X26418000Y-138255078D01*
X26486250Y-137911961D01*
X26620129Y-137588750D01*
X26620129Y-137588749D01*
X26814491Y-137297866D01*
X27061866Y-137050491D01*
X27352749Y-136856129D01*
X27486628Y-136800675D01*
X27675961Y-136722250D01*
X28019078Y-136654000D01*
X28368922Y-136654000D01*
X28712039Y-136722250D01*
G37*
G36*
X37067142Y-136378242D02*
G01*
X37215101Y-136439529D01*
X37348255Y-136528499D01*
X37461501Y-136641745D01*
X37550471Y-136774899D01*
X37611758Y-136922858D01*
X37643000Y-137079925D01*
X37643000Y-137240075D01*
X37611758Y-137397142D01*
X37550471Y-137545101D01*
X37461501Y-137678255D01*
X37348255Y-137791501D01*
X37215101Y-137880471D01*
X37067142Y-137941758D01*
X36910075Y-137973000D01*
X36749925Y-137973000D01*
X36592858Y-137941758D01*
X36444899Y-137880471D01*
X36311745Y-137791501D01*
X36198499Y-137678255D01*
X36109529Y-137545101D01*
X36048242Y-137397142D01*
X36017000Y-137240075D01*
X36017000Y-137079925D01*
X36048242Y-136922858D01*
X36109529Y-136774899D01*
X36198499Y-136641745D01*
X36311745Y-136528499D01*
X36444899Y-136439529D01*
X36592858Y-136378242D01*
X36749925Y-136347000D01*
X36910075Y-136347000D01*
X37067142Y-136378242D01*
G37*
G36*
X88628560Y-136126166D02*
G01*
X88776153Y-136187301D01*
X88908982Y-136276055D01*
X89021945Y-136389018D01*
X89055696Y-136439529D01*
X89110700Y-136521849D01*
X89171834Y-136669440D01*
X89203000Y-136826122D01*
X89203000Y-136985878D01*
X89171834Y-137142560D01*
X89131443Y-137240074D01*
X89110699Y-137290153D01*
X89021945Y-137422982D01*
X88908982Y-137535945D01*
X88776153Y-137624699D01*
X88776152Y-137624700D01*
X88776151Y-137624700D01*
X88628560Y-137685834D01*
X88471878Y-137717000D01*
X88312122Y-137717000D01*
X88155440Y-137685834D01*
X88007849Y-137624700D01*
X88007848Y-137624700D01*
X88007847Y-137624699D01*
X87875018Y-137535945D01*
X87762055Y-137422982D01*
X87673301Y-137290153D01*
X87652558Y-137240074D01*
X87612166Y-137142560D01*
X87581000Y-136985878D01*
X87581000Y-136826122D01*
X87612166Y-136669440D01*
X87673300Y-136521849D01*
X87728305Y-136439529D01*
X87762055Y-136389018D01*
X87875018Y-136276055D01*
X88007847Y-136187301D01*
X88155440Y-136126166D01*
X88312122Y-136095000D01*
X88471878Y-136095000D01*
X88628560Y-136126166D01*
G37*
G36*
X42908560Y-136126166D02*
G01*
X43056153Y-136187301D01*
X43188982Y-136276055D01*
X43301945Y-136389018D01*
X43335696Y-136439529D01*
X43390700Y-136521849D01*
X43451834Y-136669440D01*
X43483000Y-136826122D01*
X43483000Y-136985878D01*
X43451834Y-137142560D01*
X43411443Y-137240074D01*
X43390699Y-137290153D01*
X43301945Y-137422982D01*
X43188982Y-137535945D01*
X43056153Y-137624699D01*
X43056152Y-137624700D01*
X43056151Y-137624700D01*
X42908560Y-137685834D01*
X42751878Y-137717000D01*
X42592122Y-137717000D01*
X42435440Y-137685834D01*
X42287849Y-137624700D01*
X42287848Y-137624700D01*
X42287847Y-137624699D01*
X42155018Y-137535945D01*
X42042055Y-137422982D01*
X41953301Y-137290153D01*
X41932558Y-137240074D01*
X41892166Y-137142560D01*
X41861000Y-136985878D01*
X41861000Y-136826122D01*
X41892166Y-136669440D01*
X41953300Y-136521849D01*
X42008305Y-136439529D01*
X42042055Y-136389018D01*
X42155018Y-136276055D01*
X42287847Y-136187301D01*
X42435440Y-136126166D01*
X42592122Y-136095000D01*
X42751878Y-136095000D01*
X42908560Y-136126166D01*
G37*
G36*
X45448560Y-136126166D02*
G01*
X45596153Y-136187301D01*
X45728982Y-136276055D01*
X45841945Y-136389018D01*
X45875696Y-136439529D01*
X45930700Y-136521849D01*
X45991834Y-136669440D01*
X46023000Y-136826122D01*
X46023000Y-136985878D01*
X45991834Y-137142560D01*
X45951443Y-137240074D01*
X45930699Y-137290153D01*
X45841945Y-137422982D01*
X45728982Y-137535945D01*
X45596153Y-137624699D01*
X45596152Y-137624700D01*
X45596151Y-137624700D01*
X45448560Y-137685834D01*
X45291878Y-137717000D01*
X45132122Y-137717000D01*
X44975440Y-137685834D01*
X44827849Y-137624700D01*
X44827848Y-137624700D01*
X44827847Y-137624699D01*
X44695018Y-137535945D01*
X44582055Y-137422982D01*
X44493301Y-137290153D01*
X44472558Y-137240074D01*
X44432166Y-137142560D01*
X44401000Y-136985878D01*
X44401000Y-136826122D01*
X44432166Y-136669440D01*
X44493300Y-136521849D01*
X44548305Y-136439529D01*
X44582055Y-136389018D01*
X44695018Y-136276055D01*
X44827847Y-136187301D01*
X44975440Y-136126166D01*
X45132122Y-136095000D01*
X45291878Y-136095000D01*
X45448560Y-136126166D01*
G37*
G36*
X86088560Y-136126166D02*
G01*
X86236153Y-136187301D01*
X86368982Y-136276055D01*
X86481945Y-136389018D01*
X86515696Y-136439529D01*
X86570700Y-136521849D01*
X86631834Y-136669440D01*
X86663000Y-136826122D01*
X86663000Y-136985878D01*
X86631834Y-137142560D01*
X86591443Y-137240074D01*
X86570699Y-137290153D01*
X86481945Y-137422982D01*
X86368982Y-137535945D01*
X86236153Y-137624699D01*
X86236152Y-137624700D01*
X86236151Y-137624700D01*
X86088560Y-137685834D01*
X85931878Y-137717000D01*
X85772122Y-137717000D01*
X85615440Y-137685834D01*
X85467849Y-137624700D01*
X85467848Y-137624700D01*
X85467847Y-137624699D01*
X85335018Y-137535945D01*
X85222055Y-137422982D01*
X85133301Y-137290153D01*
X85112558Y-137240074D01*
X85072166Y-137142560D01*
X85041000Y-136985878D01*
X85041000Y-136826122D01*
X85072166Y-136669440D01*
X85133300Y-136521849D01*
X85188305Y-136439529D01*
X85222055Y-136389018D01*
X85335018Y-136276055D01*
X85467847Y-136187301D01*
X85615440Y-136126166D01*
X85772122Y-136095000D01*
X85931878Y-136095000D01*
X86088560Y-136126166D01*
G37*
G36*
X37067142Y-133838242D02*
G01*
X37215101Y-133899529D01*
X37348255Y-133988499D01*
X37461501Y-134101745D01*
X37550471Y-134234899D01*
X37611758Y-134382858D01*
X37643000Y-134539925D01*
X37643000Y-134700075D01*
X37611758Y-134857142D01*
X37550471Y-135005101D01*
X37461501Y-135138255D01*
X37348255Y-135251501D01*
X37215101Y-135340471D01*
X37067142Y-135401758D01*
X36910075Y-135433000D01*
X36749925Y-135433000D01*
X36592858Y-135401758D01*
X36444899Y-135340471D01*
X36311745Y-135251501D01*
X36198499Y-135138255D01*
X36109529Y-135005101D01*
X36048242Y-134857142D01*
X36017000Y-134700075D01*
X36017000Y-134539925D01*
X36048242Y-134382858D01*
X36109529Y-134234899D01*
X36198499Y-134101745D01*
X36311745Y-133988499D01*
X36444899Y-133899529D01*
X36592858Y-133838242D01*
X36749925Y-133807000D01*
X36910075Y-133807000D01*
X37067142Y-133838242D01*
G37*
G36*
X42908560Y-133586166D02*
G01*
X43056153Y-133647301D01*
X43188982Y-133736055D01*
X43301945Y-133849018D01*
X43335696Y-133899529D01*
X43390700Y-133981849D01*
X43451834Y-134129440D01*
X43483000Y-134286122D01*
X43483000Y-134445878D01*
X43451834Y-134602560D01*
X43411443Y-134700074D01*
X43390699Y-134750153D01*
X43301945Y-134882982D01*
X43188982Y-134995945D01*
X43056153Y-135084699D01*
X43056152Y-135084700D01*
X43056151Y-135084700D01*
X42908560Y-135145834D01*
X42751878Y-135177000D01*
X42592122Y-135177000D01*
X42435440Y-135145834D01*
X42287849Y-135084700D01*
X42287848Y-135084700D01*
X42287847Y-135084699D01*
X42155018Y-134995945D01*
X42042055Y-134882982D01*
X41953301Y-134750153D01*
X41932558Y-134700074D01*
X41892166Y-134602560D01*
X41861000Y-134445878D01*
X41861000Y-134286122D01*
X41892166Y-134129440D01*
X41953300Y-133981849D01*
X42008305Y-133899529D01*
X42042055Y-133849018D01*
X42155018Y-133736055D01*
X42287847Y-133647301D01*
X42435440Y-133586166D01*
X42592122Y-133555000D01*
X42751878Y-133555000D01*
X42908560Y-133586166D01*
G37*
G36*
X88628560Y-133586166D02*
G01*
X88776153Y-133647301D01*
X88908982Y-133736055D01*
X89021945Y-133849018D01*
X89055696Y-133899529D01*
X89110700Y-133981849D01*
X89171834Y-134129440D01*
X89203000Y-134286122D01*
X89203000Y-134445878D01*
X89171834Y-134602560D01*
X89131443Y-134700074D01*
X89110699Y-134750153D01*
X89021945Y-134882982D01*
X88908982Y-134995945D01*
X88776153Y-135084699D01*
X88776152Y-135084700D01*
X88776151Y-135084700D01*
X88628560Y-135145834D01*
X88471878Y-135177000D01*
X88312122Y-135177000D01*
X88155440Y-135145834D01*
X88007849Y-135084700D01*
X88007848Y-135084700D01*
X88007847Y-135084699D01*
X87875018Y-134995945D01*
X87762055Y-134882982D01*
X87673301Y-134750153D01*
X87652558Y-134700074D01*
X87612166Y-134602560D01*
X87581000Y-134445878D01*
X87581000Y-134286122D01*
X87612166Y-134129440D01*
X87673300Y-133981849D01*
X87728305Y-133899529D01*
X87762055Y-133849018D01*
X87875018Y-133736055D01*
X88007847Y-133647301D01*
X88155440Y-133586166D01*
X88312122Y-133555000D01*
X88471878Y-133555000D01*
X88628560Y-133586166D01*
G37*
G36*
X86088560Y-133586166D02*
G01*
X86236153Y-133647301D01*
X86368982Y-133736055D01*
X86481945Y-133849018D01*
X86515696Y-133899529D01*
X86570700Y-133981849D01*
X86631834Y-134129440D01*
X86663000Y-134286122D01*
X86663000Y-134445878D01*
X86631834Y-134602560D01*
X86591443Y-134700074D01*
X86570699Y-134750153D01*
X86481945Y-134882982D01*
X86368982Y-134995945D01*
X86236153Y-135084699D01*
X86236152Y-135084700D01*
X86236151Y-135084700D01*
X86088560Y-135145834D01*
X85931878Y-135177000D01*
X85772122Y-135177000D01*
X85615440Y-135145834D01*
X85467849Y-135084700D01*
X85467848Y-135084700D01*
X85467847Y-135084699D01*
X85335018Y-134995945D01*
X85222055Y-134882982D01*
X85133301Y-134750153D01*
X85112558Y-134700074D01*
X85072166Y-134602560D01*
X85041000Y-134445878D01*
X85041000Y-134286122D01*
X85072166Y-134129440D01*
X85133300Y-133981849D01*
X85188305Y-133899529D01*
X85222055Y-133849018D01*
X85335018Y-133736055D01*
X85467847Y-133647301D01*
X85615440Y-133586166D01*
X85772122Y-133555000D01*
X85931878Y-133555000D01*
X86088560Y-133586166D01*
G37*
G36*
X45448560Y-133586166D02*
G01*
X45596153Y-133647301D01*
X45728982Y-133736055D01*
X45841945Y-133849018D01*
X45875696Y-133899529D01*
X45930700Y-133981849D01*
X45991834Y-134129440D01*
X46023000Y-134286122D01*
X46023000Y-134445878D01*
X45991834Y-134602560D01*
X45951443Y-134700074D01*
X45930699Y-134750153D01*
X45841945Y-134882982D01*
X45728982Y-134995945D01*
X45596153Y-135084699D01*
X45596152Y-135084700D01*
X45596151Y-135084700D01*
X45448560Y-135145834D01*
X45291878Y-135177000D01*
X45132122Y-135177000D01*
X44975440Y-135145834D01*
X44827849Y-135084700D01*
X44827848Y-135084700D01*
X44827847Y-135084699D01*
X44695018Y-134995945D01*
X44582055Y-134882982D01*
X44493301Y-134750153D01*
X44472558Y-134700074D01*
X44432166Y-134602560D01*
X44401000Y-134445878D01*
X44401000Y-134286122D01*
X44432166Y-134129440D01*
X44493300Y-133981849D01*
X44548305Y-133899529D01*
X44582055Y-133849018D01*
X44695018Y-133736055D01*
X44827847Y-133647301D01*
X44975440Y-133586166D01*
X45132122Y-133555000D01*
X45291878Y-133555000D01*
X45448560Y-133586166D01*
G37*
G36*
X37067142Y-131298242D02*
G01*
X37215101Y-131359529D01*
X37348255Y-131448499D01*
X37461501Y-131561745D01*
X37550471Y-131694899D01*
X37611758Y-131842858D01*
X37643000Y-131999925D01*
X37643000Y-132160075D01*
X37611758Y-132317142D01*
X37550471Y-132465101D01*
X37461501Y-132598255D01*
X37348255Y-132711501D01*
X37215101Y-132800471D01*
X37067142Y-132861758D01*
X36910075Y-132893000D01*
X36749925Y-132893000D01*
X36592858Y-132861758D01*
X36444899Y-132800471D01*
X36311745Y-132711501D01*
X36198499Y-132598255D01*
X36109529Y-132465101D01*
X36048242Y-132317142D01*
X36017000Y-132160075D01*
X36017000Y-131999925D01*
X36048242Y-131842858D01*
X36109529Y-131694899D01*
X36198499Y-131561745D01*
X36311745Y-131448499D01*
X36444899Y-131359529D01*
X36592858Y-131298242D01*
X36749925Y-131267000D01*
X36910075Y-131267000D01*
X37067142Y-131298242D01*
G37*
G36*
X45448560Y-131046166D02*
G01*
X45596153Y-131107301D01*
X45728982Y-131196055D01*
X45841945Y-131309018D01*
X45875696Y-131359529D01*
X45930700Y-131441849D01*
X45991834Y-131589440D01*
X46023000Y-131746122D01*
X46023000Y-131905878D01*
X45991834Y-132062560D01*
X45951443Y-132160074D01*
X45930699Y-132210153D01*
X45841945Y-132342982D01*
X45728982Y-132455945D01*
X45596153Y-132544699D01*
X45596152Y-132544700D01*
X45596151Y-132544700D01*
X45448560Y-132605834D01*
X45291878Y-132637000D01*
X45132122Y-132637000D01*
X44975440Y-132605834D01*
X44827849Y-132544700D01*
X44827848Y-132544700D01*
X44827847Y-132544699D01*
X44695018Y-132455945D01*
X44582055Y-132342982D01*
X44493301Y-132210153D01*
X44472558Y-132160074D01*
X44432166Y-132062560D01*
X44401000Y-131905878D01*
X44401000Y-131746122D01*
X44432166Y-131589440D01*
X44493300Y-131441849D01*
X44548305Y-131359529D01*
X44582055Y-131309018D01*
X44695018Y-131196055D01*
X44827847Y-131107301D01*
X44975440Y-131046166D01*
X45132122Y-131015000D01*
X45291878Y-131015000D01*
X45448560Y-131046166D01*
G37*
G36*
X42908560Y-131046166D02*
G01*
X43056153Y-131107301D01*
X43188982Y-131196055D01*
X43301945Y-131309018D01*
X43335696Y-131359529D01*
X43390700Y-131441849D01*
X43451834Y-131589440D01*
X43483000Y-131746122D01*
X43483000Y-131905878D01*
X43451834Y-132062560D01*
X43411443Y-132160074D01*
X43390699Y-132210153D01*
X43301945Y-132342982D01*
X43188982Y-132455945D01*
X43056153Y-132544699D01*
X43056152Y-132544700D01*
X43056151Y-132544700D01*
X42908560Y-132605834D01*
X42751878Y-132637000D01*
X42592122Y-132637000D01*
X42435440Y-132605834D01*
X42287849Y-132544700D01*
X42287848Y-132544700D01*
X42287847Y-132544699D01*
X42155018Y-132455945D01*
X42042055Y-132342982D01*
X41953301Y-132210153D01*
X41932558Y-132160074D01*
X41892166Y-132062560D01*
X41861000Y-131905878D01*
X41861000Y-131746122D01*
X41892166Y-131589440D01*
X41953300Y-131441849D01*
X42008305Y-131359529D01*
X42042055Y-131309018D01*
X42155018Y-131196055D01*
X42287847Y-131107301D01*
X42435440Y-131046166D01*
X42592122Y-131015000D01*
X42751878Y-131015000D01*
X42908560Y-131046166D01*
G37*
G36*
X86088560Y-131046166D02*
G01*
X86236153Y-131107301D01*
X86368982Y-131196055D01*
X86481945Y-131309018D01*
X86515696Y-131359529D01*
X86570700Y-131441849D01*
X86631834Y-131589440D01*
X86663000Y-131746122D01*
X86663000Y-131905878D01*
X86631834Y-132062560D01*
X86591443Y-132160074D01*
X86570699Y-132210153D01*
X86481945Y-132342982D01*
X86368982Y-132455945D01*
X86236153Y-132544699D01*
X86236152Y-132544700D01*
X86236151Y-132544700D01*
X86088560Y-132605834D01*
X85931878Y-132637000D01*
X85772122Y-132637000D01*
X85615440Y-132605834D01*
X85467849Y-132544700D01*
X85467848Y-132544700D01*
X85467847Y-132544699D01*
X85335018Y-132455945D01*
X85222055Y-132342982D01*
X85133301Y-132210153D01*
X85112558Y-132160074D01*
X85072166Y-132062560D01*
X85041000Y-131905878D01*
X85041000Y-131746122D01*
X85072166Y-131589440D01*
X85133300Y-131441849D01*
X85188305Y-131359529D01*
X85222055Y-131309018D01*
X85335018Y-131196055D01*
X85467847Y-131107301D01*
X85615440Y-131046166D01*
X85772122Y-131015000D01*
X85931878Y-131015000D01*
X86088560Y-131046166D01*
G37*
G36*
X88628560Y-131046166D02*
G01*
X88776153Y-131107301D01*
X88908982Y-131196055D01*
X89021945Y-131309018D01*
X89055696Y-131359529D01*
X89110700Y-131441849D01*
X89171834Y-131589440D01*
X89203000Y-131746122D01*
X89203000Y-131905878D01*
X89171834Y-132062560D01*
X89131443Y-132160074D01*
X89110699Y-132210153D01*
X89021945Y-132342982D01*
X88908982Y-132455945D01*
X88776153Y-132544699D01*
X88776152Y-132544700D01*
X88776151Y-132544700D01*
X88628560Y-132605834D01*
X88471878Y-132637000D01*
X88312122Y-132637000D01*
X88155440Y-132605834D01*
X88007849Y-132544700D01*
X88007848Y-132544700D01*
X88007847Y-132544699D01*
X87875018Y-132455945D01*
X87762055Y-132342982D01*
X87673301Y-132210153D01*
X87652558Y-132160074D01*
X87612166Y-132062560D01*
X87581000Y-131905878D01*
X87581000Y-131746122D01*
X87612166Y-131589440D01*
X87673300Y-131441849D01*
X87728305Y-131359529D01*
X87762055Y-131309018D01*
X87875018Y-131196055D01*
X88007847Y-131107301D01*
X88155440Y-131046166D01*
X88312122Y-131015000D01*
X88471878Y-131015000D01*
X88628560Y-131046166D01*
G37*
G36*
X28712039Y-129102250D02*
G01*
X28901372Y-129180675D01*
X29035251Y-129236129D01*
X29326134Y-129430491D01*
X29573509Y-129677866D01*
X29767871Y-129968749D01*
X29767871Y-129968750D01*
X29901750Y-130291961D01*
X29970000Y-130635078D01*
X29970000Y-130984922D01*
X29901750Y-131328039D01*
X29851853Y-131448501D01*
X29767871Y-131651251D01*
X29573509Y-131942134D01*
X29326134Y-132189509D01*
X29035251Y-132383871D01*
X28901372Y-132439325D01*
X28712039Y-132517750D01*
X28368922Y-132586000D01*
X28019078Y-132586000D01*
X27675961Y-132517750D01*
X27486628Y-132439325D01*
X27352749Y-132383871D01*
X27061866Y-132189509D01*
X26814491Y-131942134D01*
X26620129Y-131651251D01*
X26536147Y-131448501D01*
X26486250Y-131328039D01*
X26418000Y-130984922D01*
X26418000Y-130635078D01*
X26486250Y-130291961D01*
X26620129Y-129968750D01*
X26620129Y-129968749D01*
X26814491Y-129677866D01*
X27061866Y-129430491D01*
X27352749Y-129236129D01*
X27486628Y-129180675D01*
X27675961Y-129102250D01*
X28019078Y-129034000D01*
X28368922Y-129034000D01*
X28712039Y-129102250D01*
G37*
G36*
X86088560Y-128506166D02*
G01*
X86236153Y-128567301D01*
X86368982Y-128656055D01*
X86481945Y-128769018D01*
X86570700Y-128901849D01*
X86631834Y-129049440D01*
X86642339Y-129102250D01*
X86663000Y-129206123D01*
X86663000Y-129365877D01*
X86631834Y-129522560D01*
X86570699Y-129670153D01*
X86481945Y-129802982D01*
X86368982Y-129915945D01*
X86236153Y-130004699D01*
X86236152Y-130004700D01*
X86236151Y-130004700D01*
X86088560Y-130065834D01*
X85931878Y-130097000D01*
X85772122Y-130097000D01*
X85615440Y-130065834D01*
X85467849Y-130004700D01*
X85467848Y-130004700D01*
X85467847Y-130004699D01*
X85335018Y-129915945D01*
X85222055Y-129802982D01*
X85133301Y-129670153D01*
X85072166Y-129522560D01*
X85041000Y-129365877D01*
X85041000Y-129206123D01*
X85061662Y-129102250D01*
X85072166Y-129049440D01*
X85133300Y-128901849D01*
X85222055Y-128769018D01*
X85335018Y-128656055D01*
X85467847Y-128567301D01*
X85615440Y-128506166D01*
X85772122Y-128475000D01*
X85931878Y-128475000D01*
X86088560Y-128506166D01*
G37*
G36*
X45448560Y-128506166D02*
G01*
X45596153Y-128567301D01*
X45728982Y-128656055D01*
X45841945Y-128769018D01*
X45930700Y-128901849D01*
X45991834Y-129049440D01*
X46002339Y-129102250D01*
X46023000Y-129206123D01*
X46023000Y-129365877D01*
X45991834Y-129522560D01*
X45930699Y-129670153D01*
X45841945Y-129802982D01*
X45728982Y-129915945D01*
X45596153Y-130004699D01*
X45596152Y-130004700D01*
X45596151Y-130004700D01*
X45448560Y-130065834D01*
X45291878Y-130097000D01*
X45132122Y-130097000D01*
X44975440Y-130065834D01*
X44827849Y-130004700D01*
X44827848Y-130004700D01*
X44827847Y-130004699D01*
X44695018Y-129915945D01*
X44582055Y-129802982D01*
X44493301Y-129670153D01*
X44432166Y-129522560D01*
X44401000Y-129365877D01*
X44401000Y-129206123D01*
X44421662Y-129102250D01*
X44432166Y-129049440D01*
X44493300Y-128901849D01*
X44582055Y-128769018D01*
X44695018Y-128656055D01*
X44827847Y-128567301D01*
X44975440Y-128506166D01*
X45132122Y-128475000D01*
X45291878Y-128475000D01*
X45448560Y-128506166D01*
G37*
G36*
X88628560Y-128506166D02*
G01*
X88776153Y-128567301D01*
X88908982Y-128656055D01*
X89021945Y-128769018D01*
X89110700Y-128901849D01*
X89171834Y-129049440D01*
X89182339Y-129102250D01*
X89203000Y-129206123D01*
X89203000Y-129365877D01*
X89171834Y-129522560D01*
X89110699Y-129670153D01*
X89021945Y-129802982D01*
X88908982Y-129915945D01*
X88776153Y-130004699D01*
X88776152Y-130004700D01*
X88776151Y-130004700D01*
X88628560Y-130065834D01*
X88471878Y-130097000D01*
X88312122Y-130097000D01*
X88155440Y-130065834D01*
X88007849Y-130004700D01*
X88007848Y-130004700D01*
X88007847Y-130004699D01*
X87875018Y-129915945D01*
X87762055Y-129802982D01*
X87673301Y-129670153D01*
X87612166Y-129522560D01*
X87581000Y-129365877D01*
X87581000Y-129206123D01*
X87601662Y-129102250D01*
X87612166Y-129049440D01*
X87673300Y-128901849D01*
X87762055Y-128769018D01*
X87875018Y-128656055D01*
X88007847Y-128567301D01*
X88155440Y-128506166D01*
X88312122Y-128475000D01*
X88471878Y-128475000D01*
X88628560Y-128506166D01*
G37*
G36*
X42908560Y-128506166D02*
G01*
X43056153Y-128567301D01*
X43188982Y-128656055D01*
X43301945Y-128769018D01*
X43390700Y-128901849D01*
X43451834Y-129049440D01*
X43462339Y-129102250D01*
X43483000Y-129206123D01*
X43483000Y-129365877D01*
X43451834Y-129522560D01*
X43390699Y-129670153D01*
X43301945Y-129802982D01*
X43188982Y-129915945D01*
X43056153Y-130004699D01*
X43056152Y-130004700D01*
X43056151Y-130004700D01*
X42908560Y-130065834D01*
X42751878Y-130097000D01*
X42592122Y-130097000D01*
X42435440Y-130065834D01*
X42287849Y-130004700D01*
X42287848Y-130004700D01*
X42287847Y-130004699D01*
X42155018Y-129915945D01*
X42042055Y-129802982D01*
X41953301Y-129670153D01*
X41892166Y-129522560D01*
X41861000Y-129365877D01*
X41861000Y-129206123D01*
X41881662Y-129102250D01*
X41892166Y-129049440D01*
X41953300Y-128901849D01*
X42042055Y-128769018D01*
X42155018Y-128656055D01*
X42287847Y-128567301D01*
X42435440Y-128506166D01*
X42592122Y-128475000D01*
X42751878Y-128475000D01*
X42908560Y-128506166D01*
G37*
G36*
X86088560Y-125966166D02*
G01*
X86236153Y-126027301D01*
X86368982Y-126116055D01*
X86481945Y-126229018D01*
X86570699Y-126361847D01*
X86631834Y-126509440D01*
X86663000Y-126666123D01*
X86663000Y-126825877D01*
X86631834Y-126982560D01*
X86570699Y-127130153D01*
X86481945Y-127262982D01*
X86368982Y-127375945D01*
X86236153Y-127464699D01*
X86236152Y-127464700D01*
X86236151Y-127464700D01*
X86088560Y-127525834D01*
X85931878Y-127557000D01*
X85772122Y-127557000D01*
X85615440Y-127525834D01*
X85467849Y-127464700D01*
X85467848Y-127464700D01*
X85467847Y-127464699D01*
X85335018Y-127375945D01*
X85222055Y-127262982D01*
X85133301Y-127130153D01*
X85072166Y-126982560D01*
X85041000Y-126825877D01*
X85041000Y-126666123D01*
X85072166Y-126509440D01*
X85133301Y-126361847D01*
X85222055Y-126229018D01*
X85335018Y-126116055D01*
X85467847Y-126027301D01*
X85615440Y-125966166D01*
X85772122Y-125935000D01*
X85931878Y-125935000D01*
X86088560Y-125966166D01*
G37*
G36*
X88628560Y-125966166D02*
G01*
X88776153Y-126027301D01*
X88908982Y-126116055D01*
X89021945Y-126229018D01*
X89110699Y-126361847D01*
X89171834Y-126509440D01*
X89203000Y-126666123D01*
X89203000Y-126825877D01*
X89171834Y-126982560D01*
X89110699Y-127130153D01*
X89021945Y-127262982D01*
X88908982Y-127375945D01*
X88776153Y-127464699D01*
X88776152Y-127464700D01*
X88776151Y-127464700D01*
X88628560Y-127525834D01*
X88471878Y-127557000D01*
X88312122Y-127557000D01*
X88155440Y-127525834D01*
X88007849Y-127464700D01*
X88007848Y-127464700D01*
X88007847Y-127464699D01*
X87875018Y-127375945D01*
X87762055Y-127262982D01*
X87673301Y-127130153D01*
X87612166Y-126982560D01*
X87581000Y-126825877D01*
X87581000Y-126666123D01*
X87612166Y-126509440D01*
X87673301Y-126361847D01*
X87762055Y-126229018D01*
X87875018Y-126116055D01*
X88007847Y-126027301D01*
X88155440Y-125966166D01*
X88312122Y-125935000D01*
X88471878Y-125935000D01*
X88628560Y-125966166D01*
G37*
G36*
X45448560Y-125966166D02*
G01*
X45596153Y-126027301D01*
X45728982Y-126116055D01*
X45841945Y-126229018D01*
X45930699Y-126361847D01*
X45991834Y-126509440D01*
X46023000Y-126666123D01*
X46023000Y-126825877D01*
X45991834Y-126982560D01*
X45930699Y-127130153D01*
X45841945Y-127262982D01*
X45728982Y-127375945D01*
X45596153Y-127464699D01*
X45596152Y-127464700D01*
X45596151Y-127464700D01*
X45448560Y-127525834D01*
X45291878Y-127557000D01*
X45132122Y-127557000D01*
X44975440Y-127525834D01*
X44827849Y-127464700D01*
X44827848Y-127464700D01*
X44827847Y-127464699D01*
X44695018Y-127375945D01*
X44582055Y-127262982D01*
X44493301Y-127130153D01*
X44432166Y-126982560D01*
X44401000Y-126825877D01*
X44401000Y-126666123D01*
X44432166Y-126509440D01*
X44493301Y-126361847D01*
X44582055Y-126229018D01*
X44695018Y-126116055D01*
X44827847Y-126027301D01*
X44975440Y-125966166D01*
X45132122Y-125935000D01*
X45291878Y-125935000D01*
X45448560Y-125966166D01*
G37*
G36*
X42908560Y-125966166D02*
G01*
X43056153Y-126027301D01*
X43188982Y-126116055D01*
X43301945Y-126229018D01*
X43390699Y-126361847D01*
X43451834Y-126509440D01*
X43483000Y-126666123D01*
X43483000Y-126825877D01*
X43451834Y-126982560D01*
X43390699Y-127130153D01*
X43301945Y-127262982D01*
X43188982Y-127375945D01*
X43056153Y-127464699D01*
X43056152Y-127464700D01*
X43056151Y-127464700D01*
X42908560Y-127525834D01*
X42751878Y-127557000D01*
X42592122Y-127557000D01*
X42435440Y-127525834D01*
X42287849Y-127464700D01*
X42287848Y-127464700D01*
X42287847Y-127464699D01*
X42155018Y-127375945D01*
X42042055Y-127262982D01*
X41953301Y-127130153D01*
X41892166Y-126982560D01*
X41861000Y-126825877D01*
X41861000Y-126666123D01*
X41892166Y-126509440D01*
X41953301Y-126361847D01*
X42042055Y-126229018D01*
X42155018Y-126116055D01*
X42287847Y-126027301D01*
X42435440Y-125966166D01*
X42592122Y-125935000D01*
X42751878Y-125935000D01*
X42908560Y-125966166D01*
G37*
G36*
X28712039Y-124022250D02*
G01*
X28901372Y-124100675D01*
X29035251Y-124156129D01*
X29326134Y-124350491D01*
X29573509Y-124597866D01*
X29767871Y-124888749D01*
X29767871Y-124888750D01*
X29901750Y-125211961D01*
X29970000Y-125555078D01*
X29970000Y-125904922D01*
X29901750Y-126248039D01*
X29854609Y-126361847D01*
X29767871Y-126571251D01*
X29573509Y-126862134D01*
X29326134Y-127109509D01*
X29035251Y-127303871D01*
X28901372Y-127359325D01*
X28712039Y-127437750D01*
X28368922Y-127506000D01*
X28019078Y-127506000D01*
X27675961Y-127437750D01*
X27486628Y-127359325D01*
X27352749Y-127303871D01*
X27061866Y-127109509D01*
X26814491Y-126862134D01*
X26620129Y-126571251D01*
X26533391Y-126361847D01*
X26486250Y-126248039D01*
X26418000Y-125904922D01*
X26418000Y-125555078D01*
X26486250Y-125211961D01*
X26620129Y-124888750D01*
X26620129Y-124888749D01*
X26814491Y-124597866D01*
X27061866Y-124350491D01*
X27352749Y-124156129D01*
X27486628Y-124100675D01*
X27675961Y-124022250D01*
X28019078Y-123954000D01*
X28368922Y-123954000D01*
X28712039Y-124022250D01*
G37*
G36*
X37067142Y-123678242D02*
G01*
X37215101Y-123739529D01*
X37348255Y-123828499D01*
X37461501Y-123941745D01*
X37550471Y-124074899D01*
X37611758Y-124222858D01*
X37643000Y-124379925D01*
X37643000Y-124540075D01*
X37611758Y-124697142D01*
X37550471Y-124845101D01*
X37461501Y-124978255D01*
X37348255Y-125091501D01*
X37215101Y-125180471D01*
X37067142Y-125241758D01*
X36910075Y-125273000D01*
X36749925Y-125273000D01*
X36592858Y-125241758D01*
X36444899Y-125180471D01*
X36311745Y-125091501D01*
X36198499Y-124978255D01*
X36109529Y-124845101D01*
X36048242Y-124697142D01*
X36017000Y-124540075D01*
X36017000Y-124379925D01*
X36048242Y-124222858D01*
X36109529Y-124074899D01*
X36198499Y-123941745D01*
X36311745Y-123828499D01*
X36444899Y-123739529D01*
X36592858Y-123678242D01*
X36749925Y-123647000D01*
X36910075Y-123647000D01*
X37067142Y-123678242D01*
G37*
G36*
X45420598Y-123420604D02*
G01*
X45448560Y-123426166D01*
X45596153Y-123487301D01*
X45728982Y-123576055D01*
X45841945Y-123689018D01*
X45875696Y-123739529D01*
X45930700Y-123821849D01*
X45991834Y-123969440D01*
X46023000Y-124126122D01*
X46023000Y-124285878D01*
X45991834Y-124442560D01*
X45951443Y-124540074D01*
X45930699Y-124590153D01*
X45841945Y-124722982D01*
X45728982Y-124835945D01*
X45596153Y-124924699D01*
X45596152Y-124924700D01*
X45596151Y-124924700D01*
X45448560Y-124985834D01*
X45291878Y-125017000D01*
X45132122Y-125017000D01*
X44975440Y-124985834D01*
X44827849Y-124924700D01*
X44827848Y-124924700D01*
X44827847Y-124924699D01*
X44695018Y-124835945D01*
X44582055Y-124722982D01*
X44493301Y-124590153D01*
X44472558Y-124540074D01*
X44432166Y-124442560D01*
X44401000Y-124285878D01*
X44401000Y-124126122D01*
X44432166Y-123969440D01*
X44493300Y-123821849D01*
X44548305Y-123739529D01*
X44582055Y-123689018D01*
X44695018Y-123576055D01*
X44827847Y-123487301D01*
X44975440Y-123426166D01*
X45003402Y-123420604D01*
X45132122Y-123395000D01*
X45291878Y-123395000D01*
X45420598Y-123420604D01*
G37*
G36*
X86060598Y-123420604D02*
G01*
X86088560Y-123426166D01*
X86236153Y-123487301D01*
X86368982Y-123576055D01*
X86481945Y-123689018D01*
X86515696Y-123739529D01*
X86570700Y-123821849D01*
X86631834Y-123969440D01*
X86663000Y-124126122D01*
X86663000Y-124285878D01*
X86631834Y-124442560D01*
X86591443Y-124540074D01*
X86570699Y-124590153D01*
X86481945Y-124722982D01*
X86368982Y-124835945D01*
X86236153Y-124924699D01*
X86236152Y-124924700D01*
X86236151Y-124924700D01*
X86088560Y-124985834D01*
X85931878Y-125017000D01*
X85772122Y-125017000D01*
X85615440Y-124985834D01*
X85467849Y-124924700D01*
X85467848Y-124924700D01*
X85467847Y-124924699D01*
X85335018Y-124835945D01*
X85222055Y-124722982D01*
X85133301Y-124590153D01*
X85112558Y-124540074D01*
X85072166Y-124442560D01*
X85041000Y-124285878D01*
X85041000Y-124126122D01*
X85072166Y-123969440D01*
X85133300Y-123821849D01*
X85188305Y-123739529D01*
X85222055Y-123689018D01*
X85335018Y-123576055D01*
X85467847Y-123487301D01*
X85615440Y-123426166D01*
X85643402Y-123420604D01*
X85772122Y-123395000D01*
X85931878Y-123395000D01*
X86060598Y-123420604D01*
G37*
G36*
X42880598Y-123420604D02*
G01*
X42908560Y-123426166D01*
X43056153Y-123487301D01*
X43188982Y-123576055D01*
X43301945Y-123689018D01*
X43335696Y-123739529D01*
X43390700Y-123821849D01*
X43451834Y-123969440D01*
X43483000Y-124126122D01*
X43483000Y-124285878D01*
X43451834Y-124442560D01*
X43411443Y-124540074D01*
X43390699Y-124590153D01*
X43301945Y-124722982D01*
X43188982Y-124835945D01*
X43056153Y-124924699D01*
X43056152Y-124924700D01*
X43056151Y-124924700D01*
X42908560Y-124985834D01*
X42751878Y-125017000D01*
X42592122Y-125017000D01*
X42435440Y-124985834D01*
X42287849Y-124924700D01*
X42287848Y-124924700D01*
X42287847Y-124924699D01*
X42155018Y-124835945D01*
X42042055Y-124722982D01*
X41953301Y-124590153D01*
X41932558Y-124540074D01*
X41892166Y-124442560D01*
X41861000Y-124285878D01*
X41861000Y-124126122D01*
X41892166Y-123969440D01*
X41953300Y-123821849D01*
X42008305Y-123739529D01*
X42042055Y-123689018D01*
X42155018Y-123576055D01*
X42287847Y-123487301D01*
X42435440Y-123426166D01*
X42463402Y-123420604D01*
X42592122Y-123395000D01*
X42751878Y-123395000D01*
X42880598Y-123420604D01*
G37*
G36*
X88600598Y-123420604D02*
G01*
X88628560Y-123426166D01*
X88776153Y-123487301D01*
X88908982Y-123576055D01*
X89021945Y-123689018D01*
X89055696Y-123739529D01*
X89110700Y-123821849D01*
X89171834Y-123969440D01*
X89203000Y-124126122D01*
X89203000Y-124285878D01*
X89171834Y-124442560D01*
X89131443Y-124540074D01*
X89110699Y-124590153D01*
X89021945Y-124722982D01*
X88908982Y-124835945D01*
X88776153Y-124924699D01*
X88776152Y-124924700D01*
X88776151Y-124924700D01*
X88628560Y-124985834D01*
X88471878Y-125017000D01*
X88312122Y-125017000D01*
X88155440Y-124985834D01*
X88007849Y-124924700D01*
X88007848Y-124924700D01*
X88007847Y-124924699D01*
X87875018Y-124835945D01*
X87762055Y-124722982D01*
X87673301Y-124590153D01*
X87652558Y-124540074D01*
X87612166Y-124442560D01*
X87581000Y-124285878D01*
X87581000Y-124126122D01*
X87612166Y-123969440D01*
X87673300Y-123821849D01*
X87728305Y-123739529D01*
X87762055Y-123689018D01*
X87875018Y-123576055D01*
X88007847Y-123487301D01*
X88155440Y-123426166D01*
X88183402Y-123420604D01*
X88312122Y-123395000D01*
X88471878Y-123395000D01*
X88600598Y-123420604D01*
G37*
G36*
X52513000Y-124649000D02*
G01*
X50611000Y-124649000D01*
X50611000Y-122747000D01*
X52513000Y-122747000D01*
X52513000Y-124649000D01*
G37*
G36*
X54379395Y-122783546D02*
G01*
X54552466Y-122855234D01*
X54552467Y-122855235D01*
X54708227Y-122959310D01*
X54840690Y-123091773D01*
X54840691Y-123091775D01*
X54944766Y-123247534D01*
X55016454Y-123420605D01*
X55053000Y-123604333D01*
X55053000Y-123791667D01*
X55016454Y-123975395D01*
X54944766Y-124148466D01*
X54895059Y-124222857D01*
X54840690Y-124304227D01*
X54708227Y-124436690D01*
X54629818Y-124489081D01*
X54552466Y-124540766D01*
X54379395Y-124612454D01*
X54195667Y-124649000D01*
X54008333Y-124649000D01*
X53824605Y-124612454D01*
X53651534Y-124540766D01*
X53574182Y-124489081D01*
X53495773Y-124436690D01*
X53363310Y-124304227D01*
X53308941Y-124222857D01*
X53259234Y-124148466D01*
X53187546Y-123975395D01*
X53151000Y-123791667D01*
X53151000Y-123604333D01*
X53187546Y-123420605D01*
X53259234Y-123247534D01*
X53363309Y-123091775D01*
X53363310Y-123091773D01*
X53495773Y-122959310D01*
X53651533Y-122855235D01*
X53651534Y-122855234D01*
X53824605Y-122783546D01*
X54008333Y-122747000D01*
X54195667Y-122747000D01*
X54379395Y-122783546D01*
G37*
G36*
X56919395Y-122783546D02*
G01*
X57092466Y-122855234D01*
X57092467Y-122855235D01*
X57248227Y-122959310D01*
X57380690Y-123091773D01*
X57380691Y-123091775D01*
X57484766Y-123247534D01*
X57556454Y-123420605D01*
X57593000Y-123604333D01*
X57593000Y-123791667D01*
X57556454Y-123975395D01*
X57484766Y-124148466D01*
X57435059Y-124222857D01*
X57380690Y-124304227D01*
X57248227Y-124436690D01*
X57169818Y-124489081D01*
X57092466Y-124540766D01*
X56919395Y-124612454D01*
X56735667Y-124649000D01*
X56548333Y-124649000D01*
X56364605Y-124612454D01*
X56191534Y-124540766D01*
X56114182Y-124489081D01*
X56035773Y-124436690D01*
X55903310Y-124304227D01*
X55848941Y-124222857D01*
X55799234Y-124148466D01*
X55727546Y-123975395D01*
X55691000Y-123791667D01*
X55691000Y-123604333D01*
X55727546Y-123420605D01*
X55799234Y-123247534D01*
X55903309Y-123091775D01*
X55903310Y-123091773D01*
X56035773Y-122959310D01*
X56191533Y-122855235D01*
X56191534Y-122855234D01*
X56364605Y-122783546D01*
X56548333Y-122747000D01*
X56735667Y-122747000D01*
X56919395Y-122783546D01*
G37*
G36*
X67079395Y-122783546D02*
G01*
X67252466Y-122855234D01*
X67252467Y-122855235D01*
X67408227Y-122959310D01*
X67540690Y-123091773D01*
X67540691Y-123091775D01*
X67644766Y-123247534D01*
X67716454Y-123420605D01*
X67753000Y-123604333D01*
X67753000Y-123791667D01*
X67716454Y-123975395D01*
X67644766Y-124148466D01*
X67595059Y-124222857D01*
X67540690Y-124304227D01*
X67408227Y-124436690D01*
X67329818Y-124489081D01*
X67252466Y-124540766D01*
X67079395Y-124612454D01*
X66895667Y-124649000D01*
X66708333Y-124649000D01*
X66524605Y-124612454D01*
X66351534Y-124540766D01*
X66274182Y-124489081D01*
X66195773Y-124436690D01*
X66063310Y-124304227D01*
X66008941Y-124222857D01*
X65959234Y-124148466D01*
X65887546Y-123975395D01*
X65851000Y-123791667D01*
X65851000Y-123604333D01*
X65887546Y-123420605D01*
X65959234Y-123247534D01*
X66063309Y-123091775D01*
X66063310Y-123091773D01*
X66195773Y-122959310D01*
X66351533Y-122855235D01*
X66351534Y-122855234D01*
X66524605Y-122783546D01*
X66708333Y-122747000D01*
X66895667Y-122747000D01*
X67079395Y-122783546D01*
G37*
G36*
X65213000Y-124649000D02*
G01*
X63311000Y-124649000D01*
X63311000Y-122747000D01*
X65213000Y-122747000D01*
X65213000Y-124649000D01*
G37*
G36*
X69619395Y-122783546D02*
G01*
X69792466Y-122855234D01*
X69792467Y-122855235D01*
X69948227Y-122959310D01*
X70080690Y-123091773D01*
X70080691Y-123091775D01*
X70184766Y-123247534D01*
X70256454Y-123420605D01*
X70293000Y-123604333D01*
X70293000Y-123791667D01*
X70256454Y-123975395D01*
X70184766Y-124148466D01*
X70135059Y-124222857D01*
X70080690Y-124304227D01*
X69948227Y-124436690D01*
X69869818Y-124489081D01*
X69792466Y-124540766D01*
X69619395Y-124612454D01*
X69435667Y-124649000D01*
X69248333Y-124649000D01*
X69064605Y-124612454D01*
X68891534Y-124540766D01*
X68814182Y-124489081D01*
X68735773Y-124436690D01*
X68603310Y-124304227D01*
X68548941Y-124222857D01*
X68499234Y-124148466D01*
X68427546Y-123975395D01*
X68391000Y-123791667D01*
X68391000Y-123604333D01*
X68427546Y-123420605D01*
X68499234Y-123247534D01*
X68603309Y-123091775D01*
X68603310Y-123091773D01*
X68735773Y-122959310D01*
X68891533Y-122855235D01*
X68891534Y-122855234D01*
X69064605Y-122783546D01*
X69248333Y-122747000D01*
X69435667Y-122747000D01*
X69619395Y-122783546D01*
G37*
G36*
X37067142Y-121138242D02*
G01*
X37215101Y-121199529D01*
X37348255Y-121288499D01*
X37461501Y-121401745D01*
X37550471Y-121534899D01*
X37611758Y-121682858D01*
X37643000Y-121839925D01*
X37643000Y-122000075D01*
X37611758Y-122157142D01*
X37550471Y-122305101D01*
X37461501Y-122438255D01*
X37348255Y-122551501D01*
X37215101Y-122640471D01*
X37067142Y-122701758D01*
X36910075Y-122733000D01*
X36749925Y-122733000D01*
X36592858Y-122701758D01*
X36444899Y-122640471D01*
X36311745Y-122551501D01*
X36198499Y-122438255D01*
X36109529Y-122305101D01*
X36048242Y-122157142D01*
X36017000Y-122000075D01*
X36017000Y-121839925D01*
X36048242Y-121682858D01*
X36109529Y-121534899D01*
X36198499Y-121401745D01*
X36311745Y-121288499D01*
X36444899Y-121199529D01*
X36592858Y-121138242D01*
X36749925Y-121107000D01*
X36910075Y-121107000D01*
X37067142Y-121138242D01*
G37*
G36*
X45448560Y-120886166D02*
G01*
X45596153Y-120947301D01*
X45728982Y-121036055D01*
X45841945Y-121149018D01*
X45875696Y-121199529D01*
X45930700Y-121281849D01*
X45991834Y-121429440D01*
X46023000Y-121586122D01*
X46023000Y-121745878D01*
X45991834Y-121902560D01*
X45951443Y-122000074D01*
X45930699Y-122050153D01*
X45841945Y-122182982D01*
X45728982Y-122295945D01*
X45596153Y-122384699D01*
X45596152Y-122384700D01*
X45596151Y-122384700D01*
X45448560Y-122445834D01*
X45291878Y-122477000D01*
X45132122Y-122477000D01*
X44975440Y-122445834D01*
X44827849Y-122384700D01*
X44827848Y-122384700D01*
X44827847Y-122384699D01*
X44695018Y-122295945D01*
X44582055Y-122182982D01*
X44493301Y-122050153D01*
X44472558Y-122000074D01*
X44432166Y-121902560D01*
X44401000Y-121745878D01*
X44401000Y-121586122D01*
X44432166Y-121429440D01*
X44493300Y-121281849D01*
X44548305Y-121199529D01*
X44582055Y-121149018D01*
X44695018Y-121036055D01*
X44827847Y-120947301D01*
X44975440Y-120886166D01*
X45132122Y-120855000D01*
X45291878Y-120855000D01*
X45448560Y-120886166D01*
G37*
G36*
X86088560Y-120886166D02*
G01*
X86236153Y-120947301D01*
X86368982Y-121036055D01*
X86481945Y-121149018D01*
X86515696Y-121199529D01*
X86570700Y-121281849D01*
X86631834Y-121429440D01*
X86663000Y-121586122D01*
X86663000Y-121745878D01*
X86631834Y-121902560D01*
X86591443Y-122000074D01*
X86570699Y-122050153D01*
X86481945Y-122182982D01*
X86368982Y-122295945D01*
X86236153Y-122384699D01*
X86236152Y-122384700D01*
X86236151Y-122384700D01*
X86088560Y-122445834D01*
X85931878Y-122477000D01*
X85772122Y-122477000D01*
X85615440Y-122445834D01*
X85467849Y-122384700D01*
X85467848Y-122384700D01*
X85467847Y-122384699D01*
X85335018Y-122295945D01*
X85222055Y-122182982D01*
X85133301Y-122050153D01*
X85112558Y-122000074D01*
X85072166Y-121902560D01*
X85041000Y-121745878D01*
X85041000Y-121586122D01*
X85072166Y-121429440D01*
X85133300Y-121281849D01*
X85188305Y-121199529D01*
X85222055Y-121149018D01*
X85335018Y-121036055D01*
X85467847Y-120947301D01*
X85615440Y-120886166D01*
X85772122Y-120855000D01*
X85931878Y-120855000D01*
X86088560Y-120886166D01*
G37*
G36*
X88628560Y-120886166D02*
G01*
X88776153Y-120947301D01*
X88908982Y-121036055D01*
X89021945Y-121149018D01*
X89055696Y-121199529D01*
X89110700Y-121281849D01*
X89171834Y-121429440D01*
X89203000Y-121586122D01*
X89203000Y-121745878D01*
X89171834Y-121902560D01*
X89131443Y-122000074D01*
X89110699Y-122050153D01*
X89021945Y-122182982D01*
X88908982Y-122295945D01*
X88776153Y-122384699D01*
X88776152Y-122384700D01*
X88776151Y-122384700D01*
X88628560Y-122445834D01*
X88471878Y-122477000D01*
X88312122Y-122477000D01*
X88155440Y-122445834D01*
X88007849Y-122384700D01*
X88007848Y-122384700D01*
X88007847Y-122384699D01*
X87875018Y-122295945D01*
X87762055Y-122182982D01*
X87673301Y-122050153D01*
X87652558Y-122000074D01*
X87612166Y-121902560D01*
X87581000Y-121745878D01*
X87581000Y-121586122D01*
X87612166Y-121429440D01*
X87673300Y-121281849D01*
X87728305Y-121199529D01*
X87762055Y-121149018D01*
X87875018Y-121036055D01*
X88007847Y-120947301D01*
X88155440Y-120886166D01*
X88312122Y-120855000D01*
X88471878Y-120855000D01*
X88628560Y-120886166D01*
G37*
G36*
X42908560Y-120886166D02*
G01*
X43056153Y-120947301D01*
X43188982Y-121036055D01*
X43301945Y-121149018D01*
X43335696Y-121199529D01*
X43390700Y-121281849D01*
X43451834Y-121429440D01*
X43483000Y-121586122D01*
X43483000Y-121745878D01*
X43451834Y-121902560D01*
X43411443Y-122000074D01*
X43390699Y-122050153D01*
X43301945Y-122182982D01*
X43188982Y-122295945D01*
X43056153Y-122384699D01*
X43056152Y-122384700D01*
X43056151Y-122384700D01*
X42908560Y-122445834D01*
X42751878Y-122477000D01*
X42592122Y-122477000D01*
X42435440Y-122445834D01*
X42287849Y-122384700D01*
X42287848Y-122384700D01*
X42287847Y-122384699D01*
X42155018Y-122295945D01*
X42042055Y-122182982D01*
X41953301Y-122050153D01*
X41932558Y-122000074D01*
X41892166Y-121902560D01*
X41861000Y-121745878D01*
X41861000Y-121586122D01*
X41892166Y-121429440D01*
X41953300Y-121281849D01*
X42008305Y-121199529D01*
X42042055Y-121149018D01*
X42155018Y-121036055D01*
X42287847Y-120947301D01*
X42435440Y-120886166D01*
X42592122Y-120855000D01*
X42751878Y-120855000D01*
X42908560Y-120886166D01*
G37*
G36*
X37067142Y-118598242D02*
G01*
X37215101Y-118659529D01*
X37348255Y-118748499D01*
X37461501Y-118861745D01*
X37550471Y-118994899D01*
X37611758Y-119142858D01*
X37643000Y-119299925D01*
X37643000Y-119460075D01*
X37611758Y-119617142D01*
X37550471Y-119765101D01*
X37461501Y-119898255D01*
X37348255Y-120011501D01*
X37215101Y-120100471D01*
X37067142Y-120161758D01*
X36910075Y-120193000D01*
X36749925Y-120193000D01*
X36592858Y-120161758D01*
X36444899Y-120100471D01*
X36311745Y-120011501D01*
X36198499Y-119898255D01*
X36109529Y-119765101D01*
X36048242Y-119617142D01*
X36017000Y-119460075D01*
X36017000Y-119299925D01*
X36048242Y-119142858D01*
X36109529Y-118994899D01*
X36198499Y-118861745D01*
X36311745Y-118748499D01*
X36444899Y-118659529D01*
X36592858Y-118598242D01*
X36749925Y-118567000D01*
X36910075Y-118567000D01*
X37067142Y-118598242D01*
G37*
G36*
X42908560Y-118346166D02*
G01*
X43056153Y-118407301D01*
X43188982Y-118496055D01*
X43301945Y-118609018D01*
X43335696Y-118659529D01*
X43390700Y-118741849D01*
X43451834Y-118889440D01*
X43483000Y-119046122D01*
X43483000Y-119205878D01*
X43451834Y-119362560D01*
X43411443Y-119460074D01*
X43390699Y-119510153D01*
X43301945Y-119642982D01*
X43188982Y-119755945D01*
X43056153Y-119844699D01*
X43056152Y-119844700D01*
X43056151Y-119844700D01*
X42908560Y-119905834D01*
X42751878Y-119937000D01*
X42592122Y-119937000D01*
X42435440Y-119905834D01*
X42287849Y-119844700D01*
X42287848Y-119844700D01*
X42287847Y-119844699D01*
X42155018Y-119755945D01*
X42042055Y-119642982D01*
X41953301Y-119510153D01*
X41932558Y-119460074D01*
X41892166Y-119362560D01*
X41861000Y-119205878D01*
X41861000Y-119046122D01*
X41892166Y-118889440D01*
X41953300Y-118741849D01*
X42008305Y-118659529D01*
X42042055Y-118609018D01*
X42155018Y-118496055D01*
X42287847Y-118407301D01*
X42435440Y-118346166D01*
X42592122Y-118315000D01*
X42751878Y-118315000D01*
X42908560Y-118346166D01*
G37*
G36*
X86088560Y-118346166D02*
G01*
X86236153Y-118407301D01*
X86368982Y-118496055D01*
X86481945Y-118609018D01*
X86515696Y-118659529D01*
X86570700Y-118741849D01*
X86631834Y-118889440D01*
X86663000Y-119046122D01*
X86663000Y-119205878D01*
X86631834Y-119362560D01*
X86591443Y-119460074D01*
X86570699Y-119510153D01*
X86481945Y-119642982D01*
X86368982Y-119755945D01*
X86236153Y-119844699D01*
X86236152Y-119844700D01*
X86236151Y-119844700D01*
X86088560Y-119905834D01*
X85931878Y-119937000D01*
X85772122Y-119937000D01*
X85615440Y-119905834D01*
X85467849Y-119844700D01*
X85467848Y-119844700D01*
X85467847Y-119844699D01*
X85335018Y-119755945D01*
X85222055Y-119642982D01*
X85133301Y-119510153D01*
X85112558Y-119460074D01*
X85072166Y-119362560D01*
X85041000Y-119205878D01*
X85041000Y-119046122D01*
X85072166Y-118889440D01*
X85133300Y-118741849D01*
X85188305Y-118659529D01*
X85222055Y-118609018D01*
X85335018Y-118496055D01*
X85467847Y-118407301D01*
X85615440Y-118346166D01*
X85772122Y-118315000D01*
X85931878Y-118315000D01*
X86088560Y-118346166D01*
G37*
G36*
X88628560Y-118346166D02*
G01*
X88776153Y-118407301D01*
X88908982Y-118496055D01*
X89021945Y-118609018D01*
X89055696Y-118659529D01*
X89110700Y-118741849D01*
X89171834Y-118889440D01*
X89203000Y-119046122D01*
X89203000Y-119205878D01*
X89171834Y-119362560D01*
X89131443Y-119460074D01*
X89110699Y-119510153D01*
X89021945Y-119642982D01*
X88908982Y-119755945D01*
X88776153Y-119844699D01*
X88776152Y-119844700D01*
X88776151Y-119844700D01*
X88628560Y-119905834D01*
X88471878Y-119937000D01*
X88312122Y-119937000D01*
X88155440Y-119905834D01*
X88007849Y-119844700D01*
X88007848Y-119844700D01*
X88007847Y-119844699D01*
X87875018Y-119755945D01*
X87762055Y-119642982D01*
X87673301Y-119510153D01*
X87652558Y-119460074D01*
X87612166Y-119362560D01*
X87581000Y-119205878D01*
X87581000Y-119046122D01*
X87612166Y-118889440D01*
X87673300Y-118741849D01*
X87728305Y-118659529D01*
X87762055Y-118609018D01*
X87875018Y-118496055D01*
X88007847Y-118407301D01*
X88155440Y-118346166D01*
X88312122Y-118315000D01*
X88471878Y-118315000D01*
X88628560Y-118346166D01*
G37*
G36*
X45448560Y-118346166D02*
G01*
X45596153Y-118407301D01*
X45728982Y-118496055D01*
X45841945Y-118609018D01*
X45875696Y-118659529D01*
X45930700Y-118741849D01*
X45991834Y-118889440D01*
X46023000Y-119046122D01*
X46023000Y-119205878D01*
X45991834Y-119362560D01*
X45951443Y-119460074D01*
X45930699Y-119510153D01*
X45841945Y-119642982D01*
X45728982Y-119755945D01*
X45596153Y-119844699D01*
X45596152Y-119844700D01*
X45596151Y-119844700D01*
X45448560Y-119905834D01*
X45291878Y-119937000D01*
X45132122Y-119937000D01*
X44975440Y-119905834D01*
X44827849Y-119844700D01*
X44827848Y-119844700D01*
X44827847Y-119844699D01*
X44695018Y-119755945D01*
X44582055Y-119642982D01*
X44493301Y-119510153D01*
X44472558Y-119460074D01*
X44432166Y-119362560D01*
X44401000Y-119205878D01*
X44401000Y-119046122D01*
X44432166Y-118889440D01*
X44493300Y-118741849D01*
X44548305Y-118659529D01*
X44582055Y-118609018D01*
X44695018Y-118496055D01*
X44827847Y-118407301D01*
X44975440Y-118346166D01*
X45132122Y-118315000D01*
X45291878Y-118315000D01*
X45448560Y-118346166D01*
G37*
G36*
X37067142Y-116058242D02*
G01*
X37215101Y-116119529D01*
X37348255Y-116208499D01*
X37461501Y-116321745D01*
X37550471Y-116454899D01*
X37611758Y-116602858D01*
X37643000Y-116759925D01*
X37643000Y-116920075D01*
X37611758Y-117077142D01*
X37550471Y-117225101D01*
X37461501Y-117358255D01*
X37348255Y-117471501D01*
X37215101Y-117560471D01*
X37067142Y-117621758D01*
X36910075Y-117653000D01*
X36749925Y-117653000D01*
X36592858Y-117621758D01*
X36444899Y-117560471D01*
X36311745Y-117471501D01*
X36198499Y-117358255D01*
X36109529Y-117225101D01*
X36048242Y-117077142D01*
X36017000Y-116920075D01*
X36017000Y-116759925D01*
X36048242Y-116602858D01*
X36109529Y-116454899D01*
X36198499Y-116321745D01*
X36311745Y-116208499D01*
X36444899Y-116119529D01*
X36592858Y-116058242D01*
X36749925Y-116027000D01*
X36910075Y-116027000D01*
X37067142Y-116058242D01*
G37*
G36*
X88628560Y-115806166D02*
G01*
X88776153Y-115867301D01*
X88908982Y-115956055D01*
X89021945Y-116069018D01*
X89055696Y-116119529D01*
X89110700Y-116201849D01*
X89171834Y-116349440D01*
X89203000Y-116506122D01*
X89203000Y-116665878D01*
X89171834Y-116822560D01*
X89131443Y-116920074D01*
X89110699Y-116970153D01*
X89021945Y-117102982D01*
X88908982Y-117215945D01*
X88776153Y-117304699D01*
X88776152Y-117304700D01*
X88776151Y-117304700D01*
X88628560Y-117365834D01*
X88471878Y-117397000D01*
X88312122Y-117397000D01*
X88155440Y-117365834D01*
X88007849Y-117304700D01*
X88007848Y-117304700D01*
X88007847Y-117304699D01*
X87875018Y-117215945D01*
X87762055Y-117102982D01*
X87673301Y-116970153D01*
X87652558Y-116920074D01*
X87612166Y-116822560D01*
X87581000Y-116665878D01*
X87581000Y-116506122D01*
X87612166Y-116349440D01*
X87673300Y-116201849D01*
X87728305Y-116119529D01*
X87762055Y-116069018D01*
X87875018Y-115956055D01*
X88007847Y-115867301D01*
X88155440Y-115806166D01*
X88312122Y-115775000D01*
X88471878Y-115775000D01*
X88628560Y-115806166D01*
G37*
G36*
X86088560Y-115806166D02*
G01*
X86236153Y-115867301D01*
X86368982Y-115956055D01*
X86481945Y-116069018D01*
X86515696Y-116119529D01*
X86570700Y-116201849D01*
X86631834Y-116349440D01*
X86663000Y-116506122D01*
X86663000Y-116665878D01*
X86631834Y-116822560D01*
X86591443Y-116920074D01*
X86570699Y-116970153D01*
X86481945Y-117102982D01*
X86368982Y-117215945D01*
X86236153Y-117304699D01*
X86236152Y-117304700D01*
X86236151Y-117304700D01*
X86088560Y-117365834D01*
X85931878Y-117397000D01*
X85772122Y-117397000D01*
X85615440Y-117365834D01*
X85467849Y-117304700D01*
X85467848Y-117304700D01*
X85467847Y-117304699D01*
X85335018Y-117215945D01*
X85222055Y-117102982D01*
X85133301Y-116970153D01*
X85112558Y-116920074D01*
X85072166Y-116822560D01*
X85041000Y-116665878D01*
X85041000Y-116506122D01*
X85072166Y-116349440D01*
X85133300Y-116201849D01*
X85188305Y-116119529D01*
X85222055Y-116069018D01*
X85335018Y-115956055D01*
X85467847Y-115867301D01*
X85615440Y-115806166D01*
X85772122Y-115775000D01*
X85931878Y-115775000D01*
X86088560Y-115806166D01*
G37*
G36*
X45448560Y-115806166D02*
G01*
X45596153Y-115867301D01*
X45728982Y-115956055D01*
X45841945Y-116069018D01*
X45875696Y-116119529D01*
X45930700Y-116201849D01*
X45991834Y-116349440D01*
X46023000Y-116506122D01*
X46023000Y-116665878D01*
X45991834Y-116822560D01*
X45951443Y-116920074D01*
X45930699Y-116970153D01*
X45841945Y-117102982D01*
X45728982Y-117215945D01*
X45596153Y-117304699D01*
X45596152Y-117304700D01*
X45596151Y-117304700D01*
X45448560Y-117365834D01*
X45291878Y-117397000D01*
X45132122Y-117397000D01*
X44975440Y-117365834D01*
X44827849Y-117304700D01*
X44827848Y-117304700D01*
X44827847Y-117304699D01*
X44695018Y-117215945D01*
X44582055Y-117102982D01*
X44493301Y-116970153D01*
X44472558Y-116920074D01*
X44432166Y-116822560D01*
X44401000Y-116665878D01*
X44401000Y-116506122D01*
X44432166Y-116349440D01*
X44493300Y-116201849D01*
X44548305Y-116119529D01*
X44582055Y-116069018D01*
X44695018Y-115956055D01*
X44827847Y-115867301D01*
X44975440Y-115806166D01*
X45132122Y-115775000D01*
X45291878Y-115775000D01*
X45448560Y-115806166D01*
G37*
G36*
X42908560Y-115806166D02*
G01*
X43056153Y-115867301D01*
X43188982Y-115956055D01*
X43301945Y-116069018D01*
X43335696Y-116119529D01*
X43390700Y-116201849D01*
X43451834Y-116349440D01*
X43483000Y-116506122D01*
X43483000Y-116665878D01*
X43451834Y-116822560D01*
X43411443Y-116920074D01*
X43390699Y-116970153D01*
X43301945Y-117102982D01*
X43188982Y-117215945D01*
X43056153Y-117304699D01*
X43056152Y-117304700D01*
X43056151Y-117304700D01*
X42908560Y-117365834D01*
X42751878Y-117397000D01*
X42592122Y-117397000D01*
X42435440Y-117365834D01*
X42287849Y-117304700D01*
X42287848Y-117304700D01*
X42287847Y-117304699D01*
X42155018Y-117215945D01*
X42042055Y-117102982D01*
X41953301Y-116970153D01*
X41932558Y-116920074D01*
X41892166Y-116822560D01*
X41861000Y-116665878D01*
X41861000Y-116506122D01*
X41892166Y-116349440D01*
X41953300Y-116201849D01*
X42008305Y-116119529D01*
X42042055Y-116069018D01*
X42155018Y-115956055D01*
X42287847Y-115867301D01*
X42435440Y-115806166D01*
X42592122Y-115775000D01*
X42751878Y-115775000D01*
X42908560Y-115806166D01*
G37*
G36*
X28712039Y-113862250D02*
G01*
X28901372Y-113940675D01*
X29035251Y-113996129D01*
X29326134Y-114190491D01*
X29573509Y-114437866D01*
X29767871Y-114728749D01*
X29767871Y-114728750D01*
X29901750Y-115051961D01*
X29970000Y-115395078D01*
X29970000Y-115744922D01*
X29901750Y-116088039D01*
X29851853Y-116208501D01*
X29767871Y-116411251D01*
X29573509Y-116702134D01*
X29326134Y-116949509D01*
X29035251Y-117143871D01*
X28901372Y-117199325D01*
X28712039Y-117277750D01*
X28368922Y-117346000D01*
X28019078Y-117346000D01*
X27675961Y-117277750D01*
X27486628Y-117199325D01*
X27352749Y-117143871D01*
X27061866Y-116949509D01*
X26814491Y-116702134D01*
X26620129Y-116411251D01*
X26536147Y-116208501D01*
X26486250Y-116088039D01*
X26418000Y-115744922D01*
X26418000Y-115395078D01*
X26486250Y-115051961D01*
X26620129Y-114728750D01*
X26620129Y-114728749D01*
X26814491Y-114437866D01*
X27061866Y-114190491D01*
X27352749Y-113996129D01*
X27486628Y-113940675D01*
X27675961Y-113862250D01*
X28019078Y-113794000D01*
X28368922Y-113794000D01*
X28712039Y-113862250D01*
G37*
G36*
X28712039Y-108782250D02*
G01*
X28901372Y-108860675D01*
X29035251Y-108916129D01*
X29326134Y-109110491D01*
X29573509Y-109357866D01*
X29767871Y-109648749D01*
X29767871Y-109648750D01*
X29901750Y-109971961D01*
X29970000Y-110315078D01*
X29970000Y-110664922D01*
X29901750Y-111008039D01*
X29823325Y-111197372D01*
X29767871Y-111331251D01*
X29573509Y-111622134D01*
X29326134Y-111869509D01*
X29035251Y-112063871D01*
X28901372Y-112119325D01*
X28712039Y-112197750D01*
X28368922Y-112266000D01*
X28019078Y-112266000D01*
X27675961Y-112197750D01*
X27486628Y-112119325D01*
X27352749Y-112063871D01*
X27061866Y-111869509D01*
X26814491Y-111622134D01*
X26620129Y-111331251D01*
X26564675Y-111197372D01*
X26486250Y-111008039D01*
X26418000Y-110664922D01*
X26418000Y-110315078D01*
X26486250Y-109971961D01*
X26620129Y-109648750D01*
X26620129Y-109648749D01*
X26814491Y-109357866D01*
X27061866Y-109110491D01*
X27352749Y-108916129D01*
X27486628Y-108860675D01*
X27675961Y-108782250D01*
X28019078Y-108714000D01*
X28368922Y-108714000D01*
X28712039Y-108782250D01*
G37*
G36*
X37067142Y-108438242D02*
G01*
X37215101Y-108499529D01*
X37348255Y-108588499D01*
X37461501Y-108701745D01*
X37550471Y-108834899D01*
X37611758Y-108982858D01*
X37643000Y-109139925D01*
X37643000Y-109300075D01*
X37611758Y-109457142D01*
X37550471Y-109605101D01*
X37461501Y-109738255D01*
X37348255Y-109851501D01*
X37215101Y-109940471D01*
X37067142Y-110001758D01*
X36910075Y-110033000D01*
X36749925Y-110033000D01*
X36592858Y-110001758D01*
X36444899Y-109940471D01*
X36311745Y-109851501D01*
X36198499Y-109738255D01*
X36109529Y-109605101D01*
X36048242Y-109457142D01*
X36017000Y-109300075D01*
X36017000Y-109139925D01*
X36048242Y-108982858D01*
X36109529Y-108834899D01*
X36198499Y-108701745D01*
X36311745Y-108588499D01*
X36444899Y-108499529D01*
X36592858Y-108438242D01*
X36749925Y-108407000D01*
X36910075Y-108407000D01*
X37067142Y-108438242D01*
G37*
G36*
X37067142Y-105898242D02*
G01*
X37215101Y-105959529D01*
X37348255Y-106048499D01*
X37461501Y-106161745D01*
X37550471Y-106294899D01*
X37611758Y-106442858D01*
X37643000Y-106599925D01*
X37643000Y-106760075D01*
X37611758Y-106917142D01*
X37550471Y-107065101D01*
X37461501Y-107198255D01*
X37348255Y-107311501D01*
X37215101Y-107400471D01*
X37067142Y-107461758D01*
X36910075Y-107493000D01*
X36749925Y-107493000D01*
X36592858Y-107461758D01*
X36444899Y-107400471D01*
X36311745Y-107311501D01*
X36198499Y-107198255D01*
X36109529Y-107065101D01*
X36048242Y-106917142D01*
X36017000Y-106760075D01*
X36017000Y-106599925D01*
X36048242Y-106442858D01*
X36109529Y-106294899D01*
X36198499Y-106161745D01*
X36311745Y-106048499D01*
X36444899Y-105959529D01*
X36592858Y-105898242D01*
X36749925Y-105867000D01*
X36910075Y-105867000D01*
X37067142Y-105898242D01*
G37*
G36*
X37067142Y-103358242D02*
G01*
X37215101Y-103419529D01*
X37348255Y-103508499D01*
X37461501Y-103621745D01*
X37550471Y-103754899D01*
X37611758Y-103902858D01*
X37643000Y-104059925D01*
X37643000Y-104220075D01*
X37611758Y-104377142D01*
X37550471Y-104525101D01*
X37461501Y-104658255D01*
X37348255Y-104771501D01*
X37215101Y-104860471D01*
X37067142Y-104921758D01*
X36910075Y-104953000D01*
X36749925Y-104953000D01*
X36592858Y-104921758D01*
X36444899Y-104860471D01*
X36311745Y-104771501D01*
X36198499Y-104658255D01*
X36109529Y-104525101D01*
X36048242Y-104377142D01*
X36017000Y-104220075D01*
X36017000Y-104059925D01*
X36048242Y-103902858D01*
X36109529Y-103754899D01*
X36198499Y-103621745D01*
X36311745Y-103508499D01*
X36444899Y-103419529D01*
X36592858Y-103358242D01*
X36749925Y-103327000D01*
X36910075Y-103327000D01*
X37067142Y-103358242D01*
G37*
G36*
X37067142Y-100818242D02*
G01*
X37215101Y-100879529D01*
X37348255Y-100968499D01*
X37461501Y-101081745D01*
X37550471Y-101214899D01*
X37611758Y-101362858D01*
X37643000Y-101519925D01*
X37643000Y-101680075D01*
X37611758Y-101837142D01*
X37550471Y-101985101D01*
X37461501Y-102118255D01*
X37348255Y-102231501D01*
X37215101Y-102320471D01*
X37067142Y-102381758D01*
X36910075Y-102413000D01*
X36749925Y-102413000D01*
X36592858Y-102381758D01*
X36444899Y-102320471D01*
X36311745Y-102231501D01*
X36198499Y-102118255D01*
X36109529Y-101985101D01*
X36048242Y-101837142D01*
X36017000Y-101680075D01*
X36017000Y-101519925D01*
X36048242Y-101362858D01*
X36109529Y-101214899D01*
X36198499Y-101081745D01*
X36311745Y-100968499D01*
X36444899Y-100879529D01*
X36592858Y-100818242D01*
X36749925Y-100787000D01*
X36910075Y-100787000D01*
X37067142Y-100818242D01*
G37*
G36*
X28712039Y-98622250D02*
G01*
X28901372Y-98700675D01*
X29035251Y-98756129D01*
X29326134Y-98950491D01*
X29573509Y-99197866D01*
X29767871Y-99488749D01*
X29767871Y-99488750D01*
X29901750Y-99811961D01*
X29970000Y-100155078D01*
X29970000Y-100504922D01*
X29901750Y-100848039D01*
X29851853Y-100968501D01*
X29767871Y-101171251D01*
X29573509Y-101462134D01*
X29326134Y-101709509D01*
X29035251Y-101903871D01*
X28901372Y-101959325D01*
X28712039Y-102037750D01*
X28368922Y-102106000D01*
X28019078Y-102106000D01*
X27675961Y-102037750D01*
X27486628Y-101959325D01*
X27352749Y-101903871D01*
X27061866Y-101709509D01*
X26814491Y-101462134D01*
X26620129Y-101171251D01*
X26536147Y-100968501D01*
X26486250Y-100848039D01*
X26418000Y-100504922D01*
X26418000Y-100155078D01*
X26486250Y-99811961D01*
X26620129Y-99488750D01*
X26620129Y-99488749D01*
X26814491Y-99197866D01*
X27061866Y-98950491D01*
X27352749Y-98756129D01*
X27486628Y-98700675D01*
X27675961Y-98622250D01*
X28019078Y-98554000D01*
X28368922Y-98554000D01*
X28712039Y-98622250D01*
G37*
G36*
X28712039Y-93542250D02*
G01*
X28901372Y-93620675D01*
X29035251Y-93676129D01*
X29326134Y-93870491D01*
X29573509Y-94117866D01*
X29767871Y-94408749D01*
X29767871Y-94408750D01*
X29901750Y-94731961D01*
X29970000Y-95075078D01*
X29970000Y-95424922D01*
X29901750Y-95768039D01*
X29823325Y-95957372D01*
X29767871Y-96091251D01*
X29573509Y-96382134D01*
X29326134Y-96629509D01*
X29035251Y-96823871D01*
X28901372Y-96879325D01*
X28712039Y-96957750D01*
X28368922Y-97026000D01*
X28019078Y-97026000D01*
X27675961Y-96957750D01*
X27486628Y-96879325D01*
X27352749Y-96823871D01*
X27061866Y-96629509D01*
X26814491Y-96382134D01*
X26620129Y-96091251D01*
X26564675Y-95957372D01*
X26486250Y-95768039D01*
X26418000Y-95424922D01*
X26418000Y-95075078D01*
X26486250Y-94731961D01*
X26620129Y-94408750D01*
X26620129Y-94408749D01*
X26814491Y-94117866D01*
X27061866Y-93870491D01*
X27352749Y-93676129D01*
X27486628Y-93620675D01*
X27675961Y-93542250D01*
X28019078Y-93474000D01*
X28368922Y-93474000D01*
X28712039Y-93542250D01*
G37*
G36*
X37067142Y-93198242D02*
G01*
X37215101Y-93259529D01*
X37348255Y-93348499D01*
X37461501Y-93461745D01*
X37550471Y-93594899D01*
X37611758Y-93742858D01*
X37643000Y-93899925D01*
X37643000Y-94060075D01*
X37611758Y-94217142D01*
X37550471Y-94365101D01*
X37461501Y-94498255D01*
X37348255Y-94611501D01*
X37215101Y-94700471D01*
X37067142Y-94761758D01*
X36910075Y-94793000D01*
X36749925Y-94793000D01*
X36592858Y-94761758D01*
X36444899Y-94700471D01*
X36311745Y-94611501D01*
X36198499Y-94498255D01*
X36109529Y-94365101D01*
X36048242Y-94217142D01*
X36017000Y-94060075D01*
X36017000Y-93899925D01*
X36048242Y-93742858D01*
X36109529Y-93594899D01*
X36198499Y-93461745D01*
X36311745Y-93348499D01*
X36444899Y-93259529D01*
X36592858Y-93198242D01*
X36749925Y-93167000D01*
X36910075Y-93167000D01*
X37067142Y-93198242D01*
G37*
G36*
X37067142Y-90658242D02*
G01*
X37215101Y-90719529D01*
X37348255Y-90808499D01*
X37461501Y-90921745D01*
X37550471Y-91054899D01*
X37611758Y-91202858D01*
X37643000Y-91359925D01*
X37643000Y-91520075D01*
X37611758Y-91677142D01*
X37550471Y-91825101D01*
X37461501Y-91958255D01*
X37348255Y-92071501D01*
X37215101Y-92160471D01*
X37067142Y-92221758D01*
X36910075Y-92253000D01*
X36749925Y-92253000D01*
X36592858Y-92221758D01*
X36444899Y-92160471D01*
X36311745Y-92071501D01*
X36198499Y-91958255D01*
X36109529Y-91825101D01*
X36048242Y-91677142D01*
X36017000Y-91520075D01*
X36017000Y-91359925D01*
X36048242Y-91202858D01*
X36109529Y-91054899D01*
X36198499Y-90921745D01*
X36311745Y-90808499D01*
X36444899Y-90719529D01*
X36592858Y-90658242D01*
X36749925Y-90627000D01*
X36910075Y-90627000D01*
X37067142Y-90658242D01*
G37*
G36*
X37067142Y-88118242D02*
G01*
X37215101Y-88179529D01*
X37348255Y-88268499D01*
X37461501Y-88381745D01*
X37550471Y-88514899D01*
X37611758Y-88662858D01*
X37643000Y-88819925D01*
X37643000Y-88980075D01*
X37611758Y-89137142D01*
X37550471Y-89285101D01*
X37461501Y-89418255D01*
X37348255Y-89531501D01*
X37215101Y-89620471D01*
X37067142Y-89681758D01*
X36910075Y-89713000D01*
X36749925Y-89713000D01*
X36592858Y-89681758D01*
X36444899Y-89620471D01*
X36311745Y-89531501D01*
X36198499Y-89418255D01*
X36109529Y-89285101D01*
X36048242Y-89137142D01*
X36017000Y-88980075D01*
X36017000Y-88819925D01*
X36048242Y-88662858D01*
X36109529Y-88514899D01*
X36198499Y-88381745D01*
X36311745Y-88268499D01*
X36444899Y-88179529D01*
X36592858Y-88118242D01*
X36749925Y-88087000D01*
X36910075Y-88087000D01*
X37067142Y-88118242D01*
G37*
G36*
X37067142Y-85578242D02*
G01*
X37215101Y-85639529D01*
X37348255Y-85728499D01*
X37461501Y-85841745D01*
X37550471Y-85974899D01*
X37611758Y-86122858D01*
X37643000Y-86279925D01*
X37643000Y-86440075D01*
X37611758Y-86597142D01*
X37550471Y-86745101D01*
X37461501Y-86878255D01*
X37348255Y-86991501D01*
X37215101Y-87080471D01*
X37067142Y-87141758D01*
X36910075Y-87173000D01*
X36749925Y-87173000D01*
X36592858Y-87141758D01*
X36444899Y-87080471D01*
X36311745Y-86991501D01*
X36198499Y-86878255D01*
X36109529Y-86745101D01*
X36048242Y-86597142D01*
X36017000Y-86440075D01*
X36017000Y-86279925D01*
X36048242Y-86122858D01*
X36109529Y-85974899D01*
X36198499Y-85841745D01*
X36311745Y-85728499D01*
X36444899Y-85639529D01*
X36592858Y-85578242D01*
X36749925Y-85547000D01*
X36910075Y-85547000D01*
X37067142Y-85578242D01*
G37*
G36*
X28712039Y-83382250D02*
G01*
X28901372Y-83460675D01*
X29035251Y-83516129D01*
X29326134Y-83710491D01*
X29573509Y-83957866D01*
X29767871Y-84248749D01*
X29767871Y-84248750D01*
X29901750Y-84571961D01*
X29970000Y-84915078D01*
X29970000Y-85264922D01*
X29901750Y-85608039D01*
X29851853Y-85728501D01*
X29767871Y-85931251D01*
X29573509Y-86222134D01*
X29326134Y-86469509D01*
X29035251Y-86663871D01*
X28901372Y-86719325D01*
X28712039Y-86797750D01*
X28368922Y-86866000D01*
X28019078Y-86866000D01*
X27675961Y-86797750D01*
X27486628Y-86719325D01*
X27352749Y-86663871D01*
X27061866Y-86469509D01*
X26814491Y-86222134D01*
X26620129Y-85931251D01*
X26536147Y-85728501D01*
X26486250Y-85608039D01*
X26418000Y-85264922D01*
X26418000Y-84915078D01*
X26486250Y-84571961D01*
X26620129Y-84248750D01*
X26620129Y-84248749D01*
X26814491Y-83957866D01*
X27061866Y-83710491D01*
X27352749Y-83516129D01*
X27486628Y-83460675D01*
X27675961Y-83382250D01*
X28019078Y-83314000D01*
X28368922Y-83314000D01*
X28712039Y-83382250D01*
G37*
G36*
X28708039Y-77923250D02*
G01*
X28897372Y-78001675D01*
X29031251Y-78057129D01*
X29322134Y-78251491D01*
X29569509Y-78498866D01*
X29763871Y-78789749D01*
X29797568Y-78871101D01*
X29897750Y-79112961D01*
X29966000Y-79456078D01*
X29966000Y-79805922D01*
X29897750Y-80149039D01*
X29819325Y-80338372D01*
X29763871Y-80472251D01*
X29569509Y-80763134D01*
X29322134Y-81010509D01*
X29031251Y-81204871D01*
X28897372Y-81260325D01*
X28708039Y-81338750D01*
X28364922Y-81407000D01*
X28015078Y-81407000D01*
X27671961Y-81338750D01*
X27482628Y-81260325D01*
X27348749Y-81204871D01*
X27057866Y-81010509D01*
X26810491Y-80763134D01*
X26616129Y-80472251D01*
X26560675Y-80338372D01*
X26482250Y-80149039D01*
X26414000Y-79805922D01*
X26414000Y-79456078D01*
X26482250Y-79112961D01*
X26582432Y-78871101D01*
X26616129Y-78789749D01*
X26810491Y-78498866D01*
X27057866Y-78251491D01*
X27348749Y-78057129D01*
X27482628Y-78001675D01*
X27671961Y-77923250D01*
X28015078Y-77855000D01*
X28364922Y-77855000D01*
X28708039Y-77923250D01*
G37*
G36*
X37067142Y-77704242D02*
G01*
X37215101Y-77765529D01*
X37348255Y-77854499D01*
X37461501Y-77967745D01*
X37550471Y-78100899D01*
X37611758Y-78248858D01*
X37643000Y-78405925D01*
X37643000Y-78566075D01*
X37611758Y-78723142D01*
X37550471Y-78871101D01*
X37461501Y-79004255D01*
X37348255Y-79117501D01*
X37215101Y-79206471D01*
X37067142Y-79267758D01*
X36910075Y-79299000D01*
X36749925Y-79299000D01*
X36592858Y-79267758D01*
X36444899Y-79206471D01*
X36311745Y-79117501D01*
X36198499Y-79004255D01*
X36109529Y-78871101D01*
X36048242Y-78723142D01*
X36017000Y-78566075D01*
X36017000Y-78405925D01*
X36048242Y-78248858D01*
X36109529Y-78100899D01*
X36198499Y-77967745D01*
X36311745Y-77854499D01*
X36444899Y-77765529D01*
X36592858Y-77704242D01*
X36749925Y-77673000D01*
X36910075Y-77673000D01*
X37067142Y-77704242D01*
G37*
G36*
X37067142Y-75164242D02*
G01*
X37215101Y-75225529D01*
X37348255Y-75314499D01*
X37461501Y-75427745D01*
X37550471Y-75560899D01*
X37611758Y-75708858D01*
X37643000Y-75865925D01*
X37643000Y-76026075D01*
X37611758Y-76183142D01*
X37550471Y-76331101D01*
X37461501Y-76464255D01*
X37348255Y-76577501D01*
X37215101Y-76666471D01*
X37067142Y-76727758D01*
X36910075Y-76759000D01*
X36749925Y-76759000D01*
X36592858Y-76727758D01*
X36444899Y-76666471D01*
X36311745Y-76577501D01*
X36198499Y-76464255D01*
X36109529Y-76331101D01*
X36048242Y-76183142D01*
X36017000Y-76026075D01*
X36017000Y-75865925D01*
X36048242Y-75708858D01*
X36109529Y-75560899D01*
X36198499Y-75427745D01*
X36311745Y-75314499D01*
X36444899Y-75225529D01*
X36592858Y-75164242D01*
X36749925Y-75133000D01*
X36910075Y-75133000D01*
X37067142Y-75164242D01*
G37*
G36*
X45438887Y-75164242D02*
G01*
X45448560Y-75166166D01*
X45596153Y-75227301D01*
X45728982Y-75316055D01*
X45841945Y-75429018D01*
X45930066Y-75560899D01*
X45930700Y-75561849D01*
X45964832Y-75644251D01*
X45991834Y-75709440D01*
X46023000Y-75866123D01*
X46023000Y-76025877D01*
X45991834Y-76182560D01*
X45930699Y-76330153D01*
X45841945Y-76462982D01*
X45728982Y-76575945D01*
X45596153Y-76664699D01*
X45596152Y-76664700D01*
X45596151Y-76664700D01*
X45448560Y-76725834D01*
X45291878Y-76757000D01*
X45132122Y-76757000D01*
X44975440Y-76725834D01*
X44827849Y-76664700D01*
X44827848Y-76664700D01*
X44827847Y-76664699D01*
X44695018Y-76575945D01*
X44582055Y-76462982D01*
X44493301Y-76330153D01*
X44432166Y-76182560D01*
X44401000Y-76025877D01*
X44401000Y-75866123D01*
X44432166Y-75709440D01*
X44459168Y-75644251D01*
X44493300Y-75561849D01*
X44493935Y-75560899D01*
X44582055Y-75429018D01*
X44695018Y-75316055D01*
X44827847Y-75227301D01*
X44975440Y-75166166D01*
X44985113Y-75164242D01*
X45132122Y-75135000D01*
X45291878Y-75135000D01*
X45438887Y-75164242D01*
G37*
G36*
X86078887Y-75164242D02*
G01*
X86088560Y-75166166D01*
X86236153Y-75227301D01*
X86368982Y-75316055D01*
X86481945Y-75429018D01*
X86570066Y-75560899D01*
X86570700Y-75561849D01*
X86604832Y-75644251D01*
X86631834Y-75709440D01*
X86663000Y-75866123D01*
X86663000Y-76025877D01*
X86631834Y-76182560D01*
X86570699Y-76330153D01*
X86481945Y-76462982D01*
X86368982Y-76575945D01*
X86236153Y-76664699D01*
X86236152Y-76664700D01*
X86236151Y-76664700D01*
X86088560Y-76725834D01*
X85931878Y-76757000D01*
X85772122Y-76757000D01*
X85615440Y-76725834D01*
X85467849Y-76664700D01*
X85467848Y-76664700D01*
X85467847Y-76664699D01*
X85335018Y-76575945D01*
X85222055Y-76462982D01*
X85133301Y-76330153D01*
X85072166Y-76182560D01*
X85041000Y-76025877D01*
X85041000Y-75866123D01*
X85072166Y-75709440D01*
X85099168Y-75644251D01*
X85133300Y-75561849D01*
X85133935Y-75560899D01*
X85222055Y-75429018D01*
X85335018Y-75316055D01*
X85467847Y-75227301D01*
X85615440Y-75166166D01*
X85625113Y-75164242D01*
X85772122Y-75135000D01*
X85931878Y-75135000D01*
X86078887Y-75164242D01*
G37*
G36*
X42898887Y-75164242D02*
G01*
X42908560Y-75166166D01*
X43056153Y-75227301D01*
X43188982Y-75316055D01*
X43301945Y-75429018D01*
X43390066Y-75560899D01*
X43390700Y-75561849D01*
X43424832Y-75644251D01*
X43451834Y-75709440D01*
X43483000Y-75866123D01*
X43483000Y-76025877D01*
X43451834Y-76182560D01*
X43390699Y-76330153D01*
X43301945Y-76462982D01*
X43188982Y-76575945D01*
X43056153Y-76664699D01*
X43056152Y-76664700D01*
X43056151Y-76664700D01*
X42908560Y-76725834D01*
X42751878Y-76757000D01*
X42592122Y-76757000D01*
X42435440Y-76725834D01*
X42287849Y-76664700D01*
X42287848Y-76664700D01*
X42287847Y-76664699D01*
X42155018Y-76575945D01*
X42042055Y-76462982D01*
X41953301Y-76330153D01*
X41892166Y-76182560D01*
X41861000Y-76025877D01*
X41861000Y-75866123D01*
X41892166Y-75709440D01*
X41919168Y-75644251D01*
X41953300Y-75561849D01*
X41953935Y-75560899D01*
X42042055Y-75429018D01*
X42155018Y-75316055D01*
X42287847Y-75227301D01*
X42435440Y-75166166D01*
X42445113Y-75164242D01*
X42592122Y-75135000D01*
X42751878Y-75135000D01*
X42898887Y-75164242D01*
G37*
G36*
X88618887Y-75164242D02*
G01*
X88628560Y-75166166D01*
X88776153Y-75227301D01*
X88908982Y-75316055D01*
X89021945Y-75429018D01*
X89110066Y-75560899D01*
X89110700Y-75561849D01*
X89144832Y-75644251D01*
X89171834Y-75709440D01*
X89203000Y-75866123D01*
X89203000Y-76025877D01*
X89171834Y-76182560D01*
X89110699Y-76330153D01*
X89021945Y-76462982D01*
X88908982Y-76575945D01*
X88776153Y-76664699D01*
X88776152Y-76664700D01*
X88776151Y-76664700D01*
X88628560Y-76725834D01*
X88471878Y-76757000D01*
X88312122Y-76757000D01*
X88155440Y-76725834D01*
X88007849Y-76664700D01*
X88007848Y-76664700D01*
X88007847Y-76664699D01*
X87875018Y-76575945D01*
X87762055Y-76462982D01*
X87673301Y-76330153D01*
X87612166Y-76182560D01*
X87581000Y-76025877D01*
X87581000Y-75866123D01*
X87612166Y-75709440D01*
X87639168Y-75644251D01*
X87673300Y-75561849D01*
X87673935Y-75560899D01*
X87762055Y-75429018D01*
X87875018Y-75316055D01*
X88007847Y-75227301D01*
X88155440Y-75166166D01*
X88165113Y-75164242D01*
X88312122Y-75135000D01*
X88471878Y-75135000D01*
X88618887Y-75164242D01*
G37*
G36*
X28712039Y-73095250D02*
G01*
X28891149Y-73169440D01*
X29035251Y-73229129D01*
X29326134Y-73423491D01*
X29573509Y-73670866D01*
X29767871Y-73961749D01*
X29767871Y-73961750D01*
X29901750Y-74284961D01*
X29970000Y-74628078D01*
X29970000Y-74977922D01*
X29901750Y-75321039D01*
X29857023Y-75429018D01*
X29767871Y-75644251D01*
X29573509Y-75935134D01*
X29326134Y-76182509D01*
X29035251Y-76376871D01*
X28901372Y-76432325D01*
X28712039Y-76510750D01*
X28368922Y-76579000D01*
X28019078Y-76579000D01*
X27675961Y-76510750D01*
X27486628Y-76432325D01*
X27352749Y-76376871D01*
X27061866Y-76182509D01*
X26814491Y-75935134D01*
X26620129Y-75644251D01*
X26530977Y-75429018D01*
X26486250Y-75321039D01*
X26418000Y-74977922D01*
X26418000Y-74628078D01*
X26486250Y-74284961D01*
X26620129Y-73961750D01*
X26620129Y-73961749D01*
X26814491Y-73670866D01*
X27061866Y-73423491D01*
X27352749Y-73229129D01*
X27496851Y-73169440D01*
X27675961Y-73095250D01*
X28019078Y-73027000D01*
X28368922Y-73027000D01*
X28712039Y-73095250D01*
G37*
G36*
X42908560Y-72626166D02*
G01*
X43056153Y-72687301D01*
X43188982Y-72776055D01*
X43301945Y-72889018D01*
X43390700Y-73021849D01*
X43421104Y-73095250D01*
X43451834Y-73169440D01*
X43483000Y-73326123D01*
X43483000Y-73485877D01*
X43451834Y-73642560D01*
X43390699Y-73790153D01*
X43301945Y-73922982D01*
X43188982Y-74035945D01*
X43056153Y-74124699D01*
X43056152Y-74124700D01*
X43056151Y-74124700D01*
X42908560Y-74185834D01*
X42751878Y-74217000D01*
X42592122Y-74217000D01*
X42435440Y-74185834D01*
X42287849Y-74124700D01*
X42287848Y-74124700D01*
X42287847Y-74124699D01*
X42155018Y-74035945D01*
X42042055Y-73922982D01*
X41953301Y-73790153D01*
X41892166Y-73642560D01*
X41861000Y-73485877D01*
X41861000Y-73326123D01*
X41892166Y-73169440D01*
X41922896Y-73095250D01*
X41953300Y-73021849D01*
X42042055Y-72889018D01*
X42155018Y-72776055D01*
X42287847Y-72687301D01*
X42435440Y-72626166D01*
X42592122Y-72595000D01*
X42751878Y-72595000D01*
X42908560Y-72626166D01*
G37*
G36*
X45448560Y-72626166D02*
G01*
X45596153Y-72687301D01*
X45728982Y-72776055D01*
X45841945Y-72889018D01*
X45930700Y-73021849D01*
X45961104Y-73095250D01*
X45991834Y-73169440D01*
X46023000Y-73326123D01*
X46023000Y-73485877D01*
X45991834Y-73642560D01*
X45930699Y-73790153D01*
X45841945Y-73922982D01*
X45728982Y-74035945D01*
X45596153Y-74124699D01*
X45596152Y-74124700D01*
X45596151Y-74124700D01*
X45448560Y-74185834D01*
X45291878Y-74217000D01*
X45132122Y-74217000D01*
X44975440Y-74185834D01*
X44827849Y-74124700D01*
X44827848Y-74124700D01*
X44827847Y-74124699D01*
X44695018Y-74035945D01*
X44582055Y-73922982D01*
X44493301Y-73790153D01*
X44432166Y-73642560D01*
X44401000Y-73485877D01*
X44401000Y-73326123D01*
X44432166Y-73169440D01*
X44462896Y-73095250D01*
X44493300Y-73021849D01*
X44582055Y-72889018D01*
X44695018Y-72776055D01*
X44827847Y-72687301D01*
X44975440Y-72626166D01*
X45132122Y-72595000D01*
X45291878Y-72595000D01*
X45448560Y-72626166D01*
G37*
G36*
X88628560Y-72626166D02*
G01*
X88776153Y-72687301D01*
X88908982Y-72776055D01*
X89021945Y-72889018D01*
X89110700Y-73021849D01*
X89141104Y-73095250D01*
X89171834Y-73169440D01*
X89203000Y-73326123D01*
X89203000Y-73485877D01*
X89171834Y-73642560D01*
X89110699Y-73790153D01*
X89021945Y-73922982D01*
X88908982Y-74035945D01*
X88776153Y-74124699D01*
X88776152Y-74124700D01*
X88776151Y-74124700D01*
X88628560Y-74185834D01*
X88471878Y-74217000D01*
X88312122Y-74217000D01*
X88155440Y-74185834D01*
X88007849Y-74124700D01*
X88007848Y-74124700D01*
X88007847Y-74124699D01*
X87875018Y-74035945D01*
X87762055Y-73922982D01*
X87673301Y-73790153D01*
X87612166Y-73642560D01*
X87581000Y-73485877D01*
X87581000Y-73326123D01*
X87612166Y-73169440D01*
X87642896Y-73095250D01*
X87673300Y-73021849D01*
X87762055Y-72889018D01*
X87875018Y-72776055D01*
X88007847Y-72687301D01*
X88155440Y-72626166D01*
X88312122Y-72595000D01*
X88471878Y-72595000D01*
X88628560Y-72626166D01*
G37*
G36*
X86088560Y-72626166D02*
G01*
X86236153Y-72687301D01*
X86368982Y-72776055D01*
X86481945Y-72889018D01*
X86570700Y-73021849D01*
X86601104Y-73095250D01*
X86631834Y-73169440D01*
X86663000Y-73326123D01*
X86663000Y-73485877D01*
X86631834Y-73642560D01*
X86570699Y-73790153D01*
X86481945Y-73922982D01*
X86368982Y-74035945D01*
X86236153Y-74124699D01*
X86236152Y-74124700D01*
X86236151Y-74124700D01*
X86088560Y-74185834D01*
X85931878Y-74217000D01*
X85772122Y-74217000D01*
X85615440Y-74185834D01*
X85467849Y-74124700D01*
X85467848Y-74124700D01*
X85467847Y-74124699D01*
X85335018Y-74035945D01*
X85222055Y-73922982D01*
X85133301Y-73790153D01*
X85072166Y-73642560D01*
X85041000Y-73485877D01*
X85041000Y-73326123D01*
X85072166Y-73169440D01*
X85102896Y-73095250D01*
X85133300Y-73021849D01*
X85222055Y-72889018D01*
X85335018Y-72776055D01*
X85467847Y-72687301D01*
X85615440Y-72626166D01*
X85772122Y-72595000D01*
X85931878Y-72595000D01*
X86088560Y-72626166D01*
G37*
G36*
X28708039Y-68779250D02*
G01*
X28861901Y-68842982D01*
X29031251Y-68913129D01*
X29322134Y-69107491D01*
X29569509Y-69354866D01*
X29763871Y-69645749D01*
X29797568Y-69727101D01*
X29897750Y-69968961D01*
X29966000Y-70312078D01*
X29966000Y-70661922D01*
X29897750Y-71005039D01*
X29857355Y-71102560D01*
X29763871Y-71328251D01*
X29569509Y-71619134D01*
X29322134Y-71866509D01*
X29031251Y-72060871D01*
X28897372Y-72116325D01*
X28708039Y-72194750D01*
X28364922Y-72263000D01*
X28015078Y-72263000D01*
X27671961Y-72194750D01*
X27482628Y-72116325D01*
X27348749Y-72060871D01*
X27057866Y-71866509D01*
X26810491Y-71619134D01*
X26616129Y-71328251D01*
X26522645Y-71102560D01*
X26482250Y-71005039D01*
X26414000Y-70661922D01*
X26414000Y-70312078D01*
X26482250Y-69968961D01*
X26582432Y-69727101D01*
X26616129Y-69645749D01*
X26810491Y-69354866D01*
X27057866Y-69107491D01*
X27348749Y-68913129D01*
X27518099Y-68842982D01*
X27671961Y-68779250D01*
X28015078Y-68711000D01*
X28364922Y-68711000D01*
X28708039Y-68779250D01*
G37*
G36*
X42908560Y-70086166D02*
G01*
X43056153Y-70147301D01*
X43188982Y-70236055D01*
X43301945Y-70349018D01*
X43390699Y-70481847D01*
X43451834Y-70629440D01*
X43483000Y-70786123D01*
X43483000Y-70945877D01*
X43451834Y-71102560D01*
X43390699Y-71250153D01*
X43301945Y-71382982D01*
X43188982Y-71495945D01*
X43056153Y-71584699D01*
X43056152Y-71584700D01*
X43056151Y-71584700D01*
X42908560Y-71645834D01*
X42751878Y-71677000D01*
X42592122Y-71677000D01*
X42435440Y-71645834D01*
X42287849Y-71584700D01*
X42287848Y-71584700D01*
X42287847Y-71584699D01*
X42155018Y-71495945D01*
X42042055Y-71382982D01*
X41953301Y-71250153D01*
X41892166Y-71102560D01*
X41861000Y-70945877D01*
X41861000Y-70786123D01*
X41892166Y-70629440D01*
X41953301Y-70481847D01*
X42042055Y-70349018D01*
X42155018Y-70236055D01*
X42287847Y-70147301D01*
X42435440Y-70086166D01*
X42592122Y-70055000D01*
X42751878Y-70055000D01*
X42908560Y-70086166D01*
G37*
G36*
X45448560Y-70086166D02*
G01*
X45596153Y-70147301D01*
X45728982Y-70236055D01*
X45841945Y-70349018D01*
X45930699Y-70481847D01*
X45991834Y-70629440D01*
X46023000Y-70786123D01*
X46023000Y-70945877D01*
X45991834Y-71102560D01*
X45930699Y-71250153D01*
X45841945Y-71382982D01*
X45728982Y-71495945D01*
X45596153Y-71584699D01*
X45596152Y-71584700D01*
X45596151Y-71584700D01*
X45448560Y-71645834D01*
X45291878Y-71677000D01*
X45132122Y-71677000D01*
X44975440Y-71645834D01*
X44827849Y-71584700D01*
X44827848Y-71584700D01*
X44827847Y-71584699D01*
X44695018Y-71495945D01*
X44582055Y-71382982D01*
X44493301Y-71250153D01*
X44432166Y-71102560D01*
X44401000Y-70945877D01*
X44401000Y-70786123D01*
X44432166Y-70629440D01*
X44493301Y-70481847D01*
X44582055Y-70349018D01*
X44695018Y-70236055D01*
X44827847Y-70147301D01*
X44975440Y-70086166D01*
X45132122Y-70055000D01*
X45291878Y-70055000D01*
X45448560Y-70086166D01*
G37*
G36*
X88628560Y-70086166D02*
G01*
X88776153Y-70147301D01*
X88908982Y-70236055D01*
X89021945Y-70349018D01*
X89110699Y-70481847D01*
X89171834Y-70629440D01*
X89203000Y-70786123D01*
X89203000Y-70945877D01*
X89171834Y-71102560D01*
X89110699Y-71250153D01*
X89021945Y-71382982D01*
X88908982Y-71495945D01*
X88776153Y-71584699D01*
X88776152Y-71584700D01*
X88776151Y-71584700D01*
X88628560Y-71645834D01*
X88471878Y-71677000D01*
X88312122Y-71677000D01*
X88155440Y-71645834D01*
X88007849Y-71584700D01*
X88007848Y-71584700D01*
X88007847Y-71584699D01*
X87875018Y-71495945D01*
X87762055Y-71382982D01*
X87673301Y-71250153D01*
X87612166Y-71102560D01*
X87581000Y-70945877D01*
X87581000Y-70786123D01*
X87612166Y-70629440D01*
X87673301Y-70481847D01*
X87762055Y-70349018D01*
X87875018Y-70236055D01*
X88007847Y-70147301D01*
X88155440Y-70086166D01*
X88312122Y-70055000D01*
X88471878Y-70055000D01*
X88628560Y-70086166D01*
G37*
G36*
X86088560Y-70086166D02*
G01*
X86236153Y-70147301D01*
X86368982Y-70236055D01*
X86481945Y-70349018D01*
X86570699Y-70481847D01*
X86631834Y-70629440D01*
X86663000Y-70786123D01*
X86663000Y-70945877D01*
X86631834Y-71102560D01*
X86570699Y-71250153D01*
X86481945Y-71382982D01*
X86368982Y-71495945D01*
X86236153Y-71584699D01*
X86236152Y-71584700D01*
X86236151Y-71584700D01*
X86088560Y-71645834D01*
X85931878Y-71677000D01*
X85772122Y-71677000D01*
X85615440Y-71645834D01*
X85467849Y-71584700D01*
X85467848Y-71584700D01*
X85467847Y-71584699D01*
X85335018Y-71495945D01*
X85222055Y-71382982D01*
X85133301Y-71250153D01*
X85072166Y-71102560D01*
X85041000Y-70945877D01*
X85041000Y-70786123D01*
X85072166Y-70629440D01*
X85133301Y-70481847D01*
X85222055Y-70349018D01*
X85335018Y-70236055D01*
X85467847Y-70147301D01*
X85615440Y-70086166D01*
X85772122Y-70055000D01*
X85931878Y-70055000D01*
X86088560Y-70086166D01*
G37*
G36*
X37067142Y-68560242D02*
G01*
X37215101Y-68621529D01*
X37348255Y-68710499D01*
X37461501Y-68823745D01*
X37550471Y-68956899D01*
X37611758Y-69104858D01*
X37643000Y-69261925D01*
X37643000Y-69422075D01*
X37611758Y-69579142D01*
X37550471Y-69727101D01*
X37461501Y-69860255D01*
X37348255Y-69973501D01*
X37215101Y-70062471D01*
X37067142Y-70123758D01*
X36910075Y-70155000D01*
X36749925Y-70155000D01*
X36592858Y-70123758D01*
X36444899Y-70062471D01*
X36311745Y-69973501D01*
X36198499Y-69860255D01*
X36109529Y-69727101D01*
X36048242Y-69579142D01*
X36017000Y-69422075D01*
X36017000Y-69261925D01*
X36048242Y-69104858D01*
X36109529Y-68956899D01*
X36198499Y-68823745D01*
X36311745Y-68710499D01*
X36444899Y-68621529D01*
X36592858Y-68560242D01*
X36749925Y-68529000D01*
X36910075Y-68529000D01*
X37067142Y-68560242D01*
G37*
G36*
X45448560Y-67546166D02*
G01*
X45596153Y-67607301D01*
X45607675Y-67615000D01*
X45728982Y-67696055D01*
X45841945Y-67809018D01*
X45930700Y-67941849D01*
X45991834Y-68089440D01*
X46023000Y-68246122D01*
X46023000Y-68405878D01*
X45992295Y-68560242D01*
X45991834Y-68562560D01*
X45930699Y-68710153D01*
X45841945Y-68842982D01*
X45728982Y-68955945D01*
X45596153Y-69044699D01*
X45596152Y-69044700D01*
X45596151Y-69044700D01*
X45448560Y-69105834D01*
X45291878Y-69137000D01*
X45132122Y-69137000D01*
X44975440Y-69105834D01*
X44827849Y-69044700D01*
X44827848Y-69044700D01*
X44827847Y-69044699D01*
X44695018Y-68955945D01*
X44582055Y-68842982D01*
X44493301Y-68710153D01*
X44432166Y-68562560D01*
X44431705Y-68560242D01*
X44401000Y-68405878D01*
X44401000Y-68246122D01*
X44432166Y-68089440D01*
X44493300Y-67941849D01*
X44582055Y-67809018D01*
X44695018Y-67696055D01*
X44816325Y-67615000D01*
X44827847Y-67607301D01*
X44975440Y-67546166D01*
X45132122Y-67515000D01*
X45291878Y-67515000D01*
X45448560Y-67546166D01*
G37*
G36*
X86088560Y-67546166D02*
G01*
X86236153Y-67607301D01*
X86247675Y-67615000D01*
X86368982Y-67696055D01*
X86481945Y-67809018D01*
X86570700Y-67941849D01*
X86631834Y-68089440D01*
X86663000Y-68246122D01*
X86663000Y-68405878D01*
X86632295Y-68560242D01*
X86631834Y-68562560D01*
X86570699Y-68710153D01*
X86481945Y-68842982D01*
X86368982Y-68955945D01*
X86236153Y-69044699D01*
X86236152Y-69044700D01*
X86236151Y-69044700D01*
X86088560Y-69105834D01*
X85931878Y-69137000D01*
X85772122Y-69137000D01*
X85615440Y-69105834D01*
X85467849Y-69044700D01*
X85467848Y-69044700D01*
X85467847Y-69044699D01*
X85335018Y-68955945D01*
X85222055Y-68842982D01*
X85133301Y-68710153D01*
X85072166Y-68562560D01*
X85071705Y-68560242D01*
X85041000Y-68405878D01*
X85041000Y-68246122D01*
X85072166Y-68089440D01*
X85133300Y-67941849D01*
X85222055Y-67809018D01*
X85335018Y-67696055D01*
X85456325Y-67615000D01*
X85467847Y-67607301D01*
X85615440Y-67546166D01*
X85772122Y-67515000D01*
X85931878Y-67515000D01*
X86088560Y-67546166D01*
G37*
G36*
X42908560Y-67546166D02*
G01*
X43056153Y-67607301D01*
X43067675Y-67615000D01*
X43188982Y-67696055D01*
X43301945Y-67809018D01*
X43390700Y-67941849D01*
X43451834Y-68089440D01*
X43483000Y-68246122D01*
X43483000Y-68405878D01*
X43452295Y-68560242D01*
X43451834Y-68562560D01*
X43390699Y-68710153D01*
X43301945Y-68842982D01*
X43188982Y-68955945D01*
X43056153Y-69044699D01*
X43056152Y-69044700D01*
X43056151Y-69044700D01*
X42908560Y-69105834D01*
X42751878Y-69137000D01*
X42592122Y-69137000D01*
X42435440Y-69105834D01*
X42287849Y-69044700D01*
X42287848Y-69044700D01*
X42287847Y-69044699D01*
X42155018Y-68955945D01*
X42042055Y-68842982D01*
X41953301Y-68710153D01*
X41892166Y-68562560D01*
X41891705Y-68560242D01*
X41861000Y-68405878D01*
X41861000Y-68246122D01*
X41892166Y-68089440D01*
X41953300Y-67941849D01*
X42042055Y-67809018D01*
X42155018Y-67696055D01*
X42276325Y-67615000D01*
X42287847Y-67607301D01*
X42435440Y-67546166D01*
X42592122Y-67515000D01*
X42751878Y-67515000D01*
X42908560Y-67546166D01*
G37*
G36*
X88628560Y-67546166D02*
G01*
X88776153Y-67607301D01*
X88787675Y-67615000D01*
X88908982Y-67696055D01*
X89021945Y-67809018D01*
X89110700Y-67941849D01*
X89171834Y-68089440D01*
X89203000Y-68246122D01*
X89203000Y-68405878D01*
X89172295Y-68560242D01*
X89171834Y-68562560D01*
X89110699Y-68710153D01*
X89021945Y-68842982D01*
X88908982Y-68955945D01*
X88776153Y-69044699D01*
X88776152Y-69044700D01*
X88776151Y-69044700D01*
X88628560Y-69105834D01*
X88471878Y-69137000D01*
X88312122Y-69137000D01*
X88155440Y-69105834D01*
X88007849Y-69044700D01*
X88007848Y-69044700D01*
X88007847Y-69044699D01*
X87875018Y-68955945D01*
X87762055Y-68842982D01*
X87673301Y-68710153D01*
X87612166Y-68562560D01*
X87611705Y-68560242D01*
X87581000Y-68405878D01*
X87581000Y-68246122D01*
X87612166Y-68089440D01*
X87673300Y-67941849D01*
X87762055Y-67809018D01*
X87875018Y-67696055D01*
X87996325Y-67615000D01*
X88007847Y-67607301D01*
X88155440Y-67546166D01*
X88312122Y-67515000D01*
X88471878Y-67515000D01*
X88628560Y-67546166D01*
G37*
G36*
X37067142Y-66020242D02*
G01*
X37215101Y-66081529D01*
X37348255Y-66170499D01*
X37461501Y-66283745D01*
X37550471Y-66416899D01*
X37611758Y-66564858D01*
X37643000Y-66721925D01*
X37643000Y-66882075D01*
X37611758Y-67039142D01*
X37550471Y-67187101D01*
X37461501Y-67320255D01*
X37348255Y-67433501D01*
X37215101Y-67522471D01*
X37067142Y-67583758D01*
X36910075Y-67615000D01*
X36749925Y-67615000D01*
X36592858Y-67583758D01*
X36444899Y-67522471D01*
X36311745Y-67433501D01*
X36198499Y-67320255D01*
X36109529Y-67187101D01*
X36048242Y-67039142D01*
X36017000Y-66882075D01*
X36017000Y-66721925D01*
X36048242Y-66564858D01*
X36109529Y-66416899D01*
X36198499Y-66283745D01*
X36311745Y-66170499D01*
X36444899Y-66081529D01*
X36592858Y-66020242D01*
X36749925Y-65989000D01*
X36910075Y-65989000D01*
X37067142Y-66020242D01*
G37*
G36*
X28712039Y-63951250D02*
G01*
X28892100Y-64025834D01*
X29035251Y-64085129D01*
X29326134Y-64279491D01*
X29573509Y-64526866D01*
X29767871Y-64817749D01*
X29767871Y-64817750D01*
X29901750Y-65140961D01*
X29970000Y-65484078D01*
X29970000Y-65833922D01*
X29901750Y-66177039D01*
X29849582Y-66302982D01*
X29767871Y-66500251D01*
X29573509Y-66791134D01*
X29326134Y-67038509D01*
X29035251Y-67232871D01*
X28901372Y-67288325D01*
X28712039Y-67366750D01*
X28368922Y-67435000D01*
X28019078Y-67435000D01*
X27675961Y-67366750D01*
X27486628Y-67288325D01*
X27352749Y-67232871D01*
X27061866Y-67038509D01*
X26814491Y-66791134D01*
X26620129Y-66500251D01*
X26538418Y-66302982D01*
X26486250Y-66177039D01*
X26418000Y-65833922D01*
X26418000Y-65484078D01*
X26486250Y-65140961D01*
X26620129Y-64817750D01*
X26620129Y-64817749D01*
X26814491Y-64526866D01*
X27061866Y-64279491D01*
X27352749Y-64085129D01*
X27495900Y-64025834D01*
X27675961Y-63951250D01*
X28019078Y-63883000D01*
X28368922Y-63883000D01*
X28712039Y-63951250D01*
G37*
G36*
X86088560Y-65006166D02*
G01*
X86236153Y-65067301D01*
X86346391Y-65140960D01*
X86368982Y-65156055D01*
X86481945Y-65269018D01*
X86570700Y-65401849D01*
X86631834Y-65549440D01*
X86663000Y-65706122D01*
X86663000Y-65865878D01*
X86632295Y-66020242D01*
X86631834Y-66022560D01*
X86570699Y-66170153D01*
X86481945Y-66302982D01*
X86368982Y-66415945D01*
X86236153Y-66504699D01*
X86236152Y-66504700D01*
X86236151Y-66504700D01*
X86088560Y-66565834D01*
X85931878Y-66597000D01*
X85772122Y-66597000D01*
X85615440Y-66565834D01*
X85467849Y-66504700D01*
X85467848Y-66504700D01*
X85467847Y-66504699D01*
X85335018Y-66415945D01*
X85222055Y-66302982D01*
X85133301Y-66170153D01*
X85072166Y-66022560D01*
X85071705Y-66020242D01*
X85041000Y-65865878D01*
X85041000Y-65706122D01*
X85072166Y-65549440D01*
X85133300Y-65401849D01*
X85222055Y-65269018D01*
X85335018Y-65156055D01*
X85357609Y-65140960D01*
X85467847Y-65067301D01*
X85615440Y-65006166D01*
X85772122Y-64975000D01*
X85931878Y-64975000D01*
X86088560Y-65006166D01*
G37*
G36*
X42908560Y-65006166D02*
G01*
X43056153Y-65067301D01*
X43166391Y-65140960D01*
X43188982Y-65156055D01*
X43301945Y-65269018D01*
X43390700Y-65401849D01*
X43451834Y-65549440D01*
X43483000Y-65706122D01*
X43483000Y-65865878D01*
X43452295Y-66020242D01*
X43451834Y-66022560D01*
X43390699Y-66170153D01*
X43301945Y-66302982D01*
X43188982Y-66415945D01*
X43056153Y-66504699D01*
X43056152Y-66504700D01*
X43056151Y-66504700D01*
X42908560Y-66565834D01*
X42751878Y-66597000D01*
X42592122Y-66597000D01*
X42435440Y-66565834D01*
X42287849Y-66504700D01*
X42287848Y-66504700D01*
X42287847Y-66504699D01*
X42155018Y-66415945D01*
X42042055Y-66302982D01*
X41953301Y-66170153D01*
X41892166Y-66022560D01*
X41891705Y-66020242D01*
X41861000Y-65865878D01*
X41861000Y-65706122D01*
X41892166Y-65549440D01*
X41953300Y-65401849D01*
X42042055Y-65269018D01*
X42155018Y-65156055D01*
X42177609Y-65140960D01*
X42287847Y-65067301D01*
X42435440Y-65006166D01*
X42592122Y-64975000D01*
X42751878Y-64975000D01*
X42908560Y-65006166D01*
G37*
G36*
X45448560Y-65006166D02*
G01*
X45596153Y-65067301D01*
X45706391Y-65140960D01*
X45728982Y-65156055D01*
X45841945Y-65269018D01*
X45930700Y-65401849D01*
X45991834Y-65549440D01*
X46023000Y-65706122D01*
X46023000Y-65865878D01*
X45992295Y-66020242D01*
X45991834Y-66022560D01*
X45930699Y-66170153D01*
X45841945Y-66302982D01*
X45728982Y-66415945D01*
X45596153Y-66504699D01*
X45596152Y-66504700D01*
X45596151Y-66504700D01*
X45448560Y-66565834D01*
X45291878Y-66597000D01*
X45132122Y-66597000D01*
X44975440Y-66565834D01*
X44827849Y-66504700D01*
X44827848Y-66504700D01*
X44827847Y-66504699D01*
X44695018Y-66415945D01*
X44582055Y-66302982D01*
X44493301Y-66170153D01*
X44432166Y-66022560D01*
X44431705Y-66020242D01*
X44401000Y-65865878D01*
X44401000Y-65706122D01*
X44432166Y-65549440D01*
X44493300Y-65401849D01*
X44582055Y-65269018D01*
X44695018Y-65156055D01*
X44717609Y-65140960D01*
X44827847Y-65067301D01*
X44975440Y-65006166D01*
X45132122Y-64975000D01*
X45291878Y-64975000D01*
X45448560Y-65006166D01*
G37*
G36*
X88628560Y-65006166D02*
G01*
X88776153Y-65067301D01*
X88886391Y-65140960D01*
X88908982Y-65156055D01*
X89021945Y-65269018D01*
X89110700Y-65401849D01*
X89171834Y-65549440D01*
X89203000Y-65706122D01*
X89203000Y-65865878D01*
X89172295Y-66020242D01*
X89171834Y-66022560D01*
X89110699Y-66170153D01*
X89021945Y-66302982D01*
X88908982Y-66415945D01*
X88776153Y-66504699D01*
X88776152Y-66504700D01*
X88776151Y-66504700D01*
X88628560Y-66565834D01*
X88471878Y-66597000D01*
X88312122Y-66597000D01*
X88155440Y-66565834D01*
X88007849Y-66504700D01*
X88007848Y-66504700D01*
X88007847Y-66504699D01*
X87875018Y-66415945D01*
X87762055Y-66302982D01*
X87673301Y-66170153D01*
X87612166Y-66022560D01*
X87611705Y-66020242D01*
X87581000Y-65865878D01*
X87581000Y-65706122D01*
X87612166Y-65549440D01*
X87673300Y-65401849D01*
X87762055Y-65269018D01*
X87875018Y-65156055D01*
X87897609Y-65140960D01*
X88007847Y-65067301D01*
X88155440Y-65006166D01*
X88312122Y-64975000D01*
X88471878Y-64975000D01*
X88628560Y-65006166D01*
G37*
G36*
X45448560Y-62466166D02*
G01*
X45596153Y-62527301D01*
X45728982Y-62616055D01*
X45841945Y-62729018D01*
X45930699Y-62861847D01*
X45991834Y-63009440D01*
X46023000Y-63166123D01*
X46023000Y-63325877D01*
X45991834Y-63482560D01*
X45930699Y-63630153D01*
X45841945Y-63762982D01*
X45728982Y-63875945D01*
X45596153Y-63964699D01*
X45596152Y-63964700D01*
X45596151Y-63964700D01*
X45448560Y-64025834D01*
X45291878Y-64057000D01*
X45132122Y-64057000D01*
X44975440Y-64025834D01*
X44827849Y-63964700D01*
X44827848Y-63964700D01*
X44827847Y-63964699D01*
X44695018Y-63875945D01*
X44582055Y-63762982D01*
X44493301Y-63630153D01*
X44432166Y-63482560D01*
X44401000Y-63325877D01*
X44401000Y-63166123D01*
X44432166Y-63009440D01*
X44493301Y-62861847D01*
X44582055Y-62729018D01*
X44695018Y-62616055D01*
X44827847Y-62527301D01*
X44975440Y-62466166D01*
X45132122Y-62435000D01*
X45291878Y-62435000D01*
X45448560Y-62466166D01*
G37*
G36*
X42908560Y-62466166D02*
G01*
X43056153Y-62527301D01*
X43188982Y-62616055D01*
X43301945Y-62729018D01*
X43390699Y-62861847D01*
X43451834Y-63009440D01*
X43483000Y-63166123D01*
X43483000Y-63325877D01*
X43451834Y-63482560D01*
X43390699Y-63630153D01*
X43301945Y-63762982D01*
X43188982Y-63875945D01*
X43056153Y-63964699D01*
X43056152Y-63964700D01*
X43056151Y-63964700D01*
X42908560Y-64025834D01*
X42751878Y-64057000D01*
X42592122Y-64057000D01*
X42435440Y-64025834D01*
X42287849Y-63964700D01*
X42287848Y-63964700D01*
X42287847Y-63964699D01*
X42155018Y-63875945D01*
X42042055Y-63762982D01*
X41953301Y-63630153D01*
X41892166Y-63482560D01*
X41861000Y-63325877D01*
X41861000Y-63166123D01*
X41892166Y-63009440D01*
X41953301Y-62861847D01*
X42042055Y-62729018D01*
X42155018Y-62616055D01*
X42287847Y-62527301D01*
X42435440Y-62466166D01*
X42592122Y-62435000D01*
X42751878Y-62435000D01*
X42908560Y-62466166D01*
G37*
G36*
X88628560Y-62466166D02*
G01*
X88776153Y-62527301D01*
X88908982Y-62616055D01*
X89021945Y-62729018D01*
X89110699Y-62861847D01*
X89171834Y-63009440D01*
X89203000Y-63166123D01*
X89203000Y-63325877D01*
X89171834Y-63482560D01*
X89110699Y-63630153D01*
X89021945Y-63762982D01*
X88908982Y-63875945D01*
X88776153Y-63964699D01*
X88776152Y-63964700D01*
X88776151Y-63964700D01*
X88628560Y-64025834D01*
X88471878Y-64057000D01*
X88312122Y-64057000D01*
X88155440Y-64025834D01*
X88007849Y-63964700D01*
X88007848Y-63964700D01*
X88007847Y-63964699D01*
X87875018Y-63875945D01*
X87762055Y-63762982D01*
X87673301Y-63630153D01*
X87612166Y-63482560D01*
X87581000Y-63325877D01*
X87581000Y-63166123D01*
X87612166Y-63009440D01*
X87673301Y-62861847D01*
X87762055Y-62729018D01*
X87875018Y-62616055D01*
X88007847Y-62527301D01*
X88155440Y-62466166D01*
X88312122Y-62435000D01*
X88471878Y-62435000D01*
X88628560Y-62466166D01*
G37*
G36*
X86088560Y-62466166D02*
G01*
X86236153Y-62527301D01*
X86368982Y-62616055D01*
X86481945Y-62729018D01*
X86570699Y-62861847D01*
X86631834Y-63009440D01*
X86663000Y-63166123D01*
X86663000Y-63325877D01*
X86631834Y-63482560D01*
X86570699Y-63630153D01*
X86481945Y-63762982D01*
X86368982Y-63875945D01*
X86236153Y-63964699D01*
X86236152Y-63964700D01*
X86236151Y-63964700D01*
X86088560Y-64025834D01*
X85931878Y-64057000D01*
X85772122Y-64057000D01*
X85615440Y-64025834D01*
X85467849Y-63964700D01*
X85467848Y-63964700D01*
X85467847Y-63964699D01*
X85335018Y-63875945D01*
X85222055Y-63762982D01*
X85133301Y-63630153D01*
X85072166Y-63482560D01*
X85041000Y-63325877D01*
X85041000Y-63166123D01*
X85072166Y-63009440D01*
X85133301Y-62861847D01*
X85222055Y-62729018D01*
X85335018Y-62616055D01*
X85467847Y-62527301D01*
X85615440Y-62466166D01*
X85772122Y-62435000D01*
X85931878Y-62435000D01*
X86088560Y-62466166D01*
G37*
G36*
X28708039Y-58873250D02*
G01*
X28883271Y-58945834D01*
X29031251Y-59007129D01*
X29322134Y-59201491D01*
X29569509Y-59448866D01*
X29763871Y-59739749D01*
X29797568Y-59821101D01*
X29897750Y-60062961D01*
X29966000Y-60406078D01*
X29966000Y-60755922D01*
X29897750Y-61099039D01*
X29846411Y-61222982D01*
X29763871Y-61422251D01*
X29569509Y-61713134D01*
X29322134Y-61960509D01*
X29031251Y-62154871D01*
X28897372Y-62210325D01*
X28708039Y-62288750D01*
X28364922Y-62357000D01*
X28015078Y-62357000D01*
X27671961Y-62288750D01*
X27482628Y-62210325D01*
X27348749Y-62154871D01*
X27057866Y-61960509D01*
X26810491Y-61713134D01*
X26616129Y-61422251D01*
X26533589Y-61222982D01*
X26482250Y-61099039D01*
X26414000Y-60755922D01*
X26414000Y-60406078D01*
X26482250Y-60062961D01*
X26582432Y-59821101D01*
X26616129Y-59739749D01*
X26810491Y-59448866D01*
X27057866Y-59201491D01*
X27348749Y-59007129D01*
X27496729Y-58945834D01*
X27671961Y-58873250D01*
X28015078Y-58805000D01*
X28364922Y-58805000D01*
X28708039Y-58873250D01*
G37*
G36*
X45448560Y-59926166D02*
G01*
X45596153Y-59987301D01*
X45728982Y-60076055D01*
X45841945Y-60189018D01*
X45930699Y-60321847D01*
X45991834Y-60469440D01*
X46023000Y-60626123D01*
X46023000Y-60785877D01*
X45991834Y-60942560D01*
X45930699Y-61090153D01*
X45841945Y-61222982D01*
X45728982Y-61335945D01*
X45596153Y-61424699D01*
X45596152Y-61424700D01*
X45596151Y-61424700D01*
X45448560Y-61485834D01*
X45291878Y-61517000D01*
X45132122Y-61517000D01*
X44975440Y-61485834D01*
X44827849Y-61424700D01*
X44827848Y-61424700D01*
X44827847Y-61424699D01*
X44695018Y-61335945D01*
X44582055Y-61222982D01*
X44493301Y-61090153D01*
X44432166Y-60942560D01*
X44401000Y-60785877D01*
X44401000Y-60626123D01*
X44432166Y-60469440D01*
X44493301Y-60321847D01*
X44582055Y-60189018D01*
X44695018Y-60076055D01*
X44827847Y-59987301D01*
X44975440Y-59926166D01*
X45132122Y-59895000D01*
X45291878Y-59895000D01*
X45448560Y-59926166D01*
G37*
G36*
X88628560Y-59926166D02*
G01*
X88776153Y-59987301D01*
X88908982Y-60076055D01*
X89021945Y-60189018D01*
X89110699Y-60321847D01*
X89171834Y-60469440D01*
X89203000Y-60626123D01*
X89203000Y-60785877D01*
X89171834Y-60942560D01*
X89110699Y-61090153D01*
X89021945Y-61222982D01*
X88908982Y-61335945D01*
X88776153Y-61424699D01*
X88776152Y-61424700D01*
X88776151Y-61424700D01*
X88628560Y-61485834D01*
X88471878Y-61517000D01*
X88312122Y-61517000D01*
X88155440Y-61485834D01*
X88007849Y-61424700D01*
X88007848Y-61424700D01*
X88007847Y-61424699D01*
X87875018Y-61335945D01*
X87762055Y-61222982D01*
X87673301Y-61090153D01*
X87612166Y-60942560D01*
X87581000Y-60785877D01*
X87581000Y-60626123D01*
X87612166Y-60469440D01*
X87673301Y-60321847D01*
X87762055Y-60189018D01*
X87875018Y-60076055D01*
X88007847Y-59987301D01*
X88155440Y-59926166D01*
X88312122Y-59895000D01*
X88471878Y-59895000D01*
X88628560Y-59926166D01*
G37*
G36*
X42908560Y-59926166D02*
G01*
X43056153Y-59987301D01*
X43188982Y-60076055D01*
X43301945Y-60189018D01*
X43390699Y-60321847D01*
X43451834Y-60469440D01*
X43483000Y-60626123D01*
X43483000Y-60785877D01*
X43451834Y-60942560D01*
X43390699Y-61090153D01*
X43301945Y-61222982D01*
X43188982Y-61335945D01*
X43056153Y-61424699D01*
X43056152Y-61424700D01*
X43056151Y-61424700D01*
X42908560Y-61485834D01*
X42751878Y-61517000D01*
X42592122Y-61517000D01*
X42435440Y-61485834D01*
X42287849Y-61424700D01*
X42287848Y-61424700D01*
X42287847Y-61424699D01*
X42155018Y-61335945D01*
X42042055Y-61222982D01*
X41953301Y-61090153D01*
X41892166Y-60942560D01*
X41861000Y-60785877D01*
X41861000Y-60626123D01*
X41892166Y-60469440D01*
X41953301Y-60321847D01*
X42042055Y-60189018D01*
X42155018Y-60076055D01*
X42287847Y-59987301D01*
X42435440Y-59926166D01*
X42592122Y-59895000D01*
X42751878Y-59895000D01*
X42908560Y-59926166D01*
G37*
G36*
X86088560Y-59926166D02*
G01*
X86236153Y-59987301D01*
X86368982Y-60076055D01*
X86481945Y-60189018D01*
X86570699Y-60321847D01*
X86631834Y-60469440D01*
X86663000Y-60626123D01*
X86663000Y-60785877D01*
X86631834Y-60942560D01*
X86570699Y-61090153D01*
X86481945Y-61222982D01*
X86368982Y-61335945D01*
X86236153Y-61424699D01*
X86236152Y-61424700D01*
X86236151Y-61424700D01*
X86088560Y-61485834D01*
X85931878Y-61517000D01*
X85772122Y-61517000D01*
X85615440Y-61485834D01*
X85467849Y-61424700D01*
X85467848Y-61424700D01*
X85467847Y-61424699D01*
X85335018Y-61335945D01*
X85222055Y-61222982D01*
X85133301Y-61090153D01*
X85072166Y-60942560D01*
X85041000Y-60785877D01*
X85041000Y-60626123D01*
X85072166Y-60469440D01*
X85133301Y-60321847D01*
X85222055Y-60189018D01*
X85335018Y-60076055D01*
X85467847Y-59987301D01*
X85615440Y-59926166D01*
X85772122Y-59895000D01*
X85931878Y-59895000D01*
X86088560Y-59926166D01*
G37*
G36*
X37067142Y-58654242D02*
G01*
X37215101Y-58715529D01*
X37348255Y-58804499D01*
X37461501Y-58917745D01*
X37550471Y-59050899D01*
X37611758Y-59198858D01*
X37643000Y-59355925D01*
X37643000Y-59516075D01*
X37611758Y-59673142D01*
X37550471Y-59821101D01*
X37461501Y-59954255D01*
X37348255Y-60067501D01*
X37215101Y-60156471D01*
X37067142Y-60217758D01*
X36910075Y-60249000D01*
X36749925Y-60249000D01*
X36592858Y-60217758D01*
X36444899Y-60156471D01*
X36311745Y-60067501D01*
X36198499Y-59954255D01*
X36109529Y-59821101D01*
X36048242Y-59673142D01*
X36017000Y-59516075D01*
X36017000Y-59355925D01*
X36048242Y-59198858D01*
X36109529Y-59050899D01*
X36198499Y-58917745D01*
X36311745Y-58804499D01*
X36444899Y-58715529D01*
X36592858Y-58654242D01*
X36749925Y-58623000D01*
X36910075Y-58623000D01*
X37067142Y-58654242D01*
G37*
G36*
X42908560Y-57386166D02*
G01*
X43056153Y-57447301D01*
X43188982Y-57536055D01*
X43301945Y-57649018D01*
X43390699Y-57781847D01*
X43451834Y-57929440D01*
X43483000Y-58086123D01*
X43483000Y-58245877D01*
X43451834Y-58402560D01*
X43390699Y-58550153D01*
X43301945Y-58682982D01*
X43188982Y-58795945D01*
X43056153Y-58884699D01*
X43056152Y-58884700D01*
X43056151Y-58884700D01*
X42908560Y-58945834D01*
X42751878Y-58977000D01*
X42592122Y-58977000D01*
X42435440Y-58945834D01*
X42287849Y-58884700D01*
X42287848Y-58884700D01*
X42287847Y-58884699D01*
X42155018Y-58795945D01*
X42042055Y-58682982D01*
X41953301Y-58550153D01*
X41892166Y-58402560D01*
X41861000Y-58245877D01*
X41861000Y-58086123D01*
X41892166Y-57929440D01*
X41953301Y-57781847D01*
X42042055Y-57649018D01*
X42155018Y-57536055D01*
X42287847Y-57447301D01*
X42435440Y-57386166D01*
X42592122Y-57355000D01*
X42751878Y-57355000D01*
X42908560Y-57386166D01*
G37*
G36*
X88628560Y-57386166D02*
G01*
X88776153Y-57447301D01*
X88908982Y-57536055D01*
X89021945Y-57649018D01*
X89110699Y-57781847D01*
X89171834Y-57929440D01*
X89203000Y-58086123D01*
X89203000Y-58245877D01*
X89171834Y-58402560D01*
X89110699Y-58550153D01*
X89021945Y-58682982D01*
X88908982Y-58795945D01*
X88776153Y-58884699D01*
X88776152Y-58884700D01*
X88776151Y-58884700D01*
X88628560Y-58945834D01*
X88471878Y-58977000D01*
X88312122Y-58977000D01*
X88155440Y-58945834D01*
X88007849Y-58884700D01*
X88007848Y-58884700D01*
X88007847Y-58884699D01*
X87875018Y-58795945D01*
X87762055Y-58682982D01*
X87673301Y-58550153D01*
X87612166Y-58402560D01*
X87581000Y-58245877D01*
X87581000Y-58086123D01*
X87612166Y-57929440D01*
X87673301Y-57781847D01*
X87762055Y-57649018D01*
X87875018Y-57536055D01*
X88007847Y-57447301D01*
X88155440Y-57386166D01*
X88312122Y-57355000D01*
X88471878Y-57355000D01*
X88628560Y-57386166D01*
G37*
G36*
X45448560Y-57386166D02*
G01*
X45596153Y-57447301D01*
X45728982Y-57536055D01*
X45841945Y-57649018D01*
X45930699Y-57781847D01*
X45991834Y-57929440D01*
X46023000Y-58086123D01*
X46023000Y-58245877D01*
X45991834Y-58402560D01*
X45930699Y-58550153D01*
X45841945Y-58682982D01*
X45728982Y-58795945D01*
X45596153Y-58884699D01*
X45596152Y-58884700D01*
X45596151Y-58884700D01*
X45448560Y-58945834D01*
X45291878Y-58977000D01*
X45132122Y-58977000D01*
X44975440Y-58945834D01*
X44827849Y-58884700D01*
X44827848Y-58884700D01*
X44827847Y-58884699D01*
X44695018Y-58795945D01*
X44582055Y-58682982D01*
X44493301Y-58550153D01*
X44432166Y-58402560D01*
X44401000Y-58245877D01*
X44401000Y-58086123D01*
X44432166Y-57929440D01*
X44493301Y-57781847D01*
X44582055Y-57649018D01*
X44695018Y-57536055D01*
X44827847Y-57447301D01*
X44975440Y-57386166D01*
X45132122Y-57355000D01*
X45291878Y-57355000D01*
X45448560Y-57386166D01*
G37*
G36*
X86088560Y-57386166D02*
G01*
X86236153Y-57447301D01*
X86368982Y-57536055D01*
X86481945Y-57649018D01*
X86570699Y-57781847D01*
X86631834Y-57929440D01*
X86663000Y-58086123D01*
X86663000Y-58245877D01*
X86631834Y-58402560D01*
X86570699Y-58550153D01*
X86481945Y-58682982D01*
X86368982Y-58795945D01*
X86236153Y-58884699D01*
X86236152Y-58884700D01*
X86236151Y-58884700D01*
X86088560Y-58945834D01*
X85931878Y-58977000D01*
X85772122Y-58977000D01*
X85615440Y-58945834D01*
X85467849Y-58884700D01*
X85467848Y-58884700D01*
X85467847Y-58884699D01*
X85335018Y-58795945D01*
X85222055Y-58682982D01*
X85133301Y-58550153D01*
X85072166Y-58402560D01*
X85041000Y-58245877D01*
X85041000Y-58086123D01*
X85072166Y-57929440D01*
X85133301Y-57781847D01*
X85222055Y-57649018D01*
X85335018Y-57536055D01*
X85467847Y-57447301D01*
X85615440Y-57386166D01*
X85772122Y-57355000D01*
X85931878Y-57355000D01*
X86088560Y-57386166D01*
G37*
G36*
X37067142Y-56114242D02*
G01*
X37215101Y-56175529D01*
X37348255Y-56264499D01*
X37461501Y-56377745D01*
X37550471Y-56510899D01*
X37611758Y-56658858D01*
X37643000Y-56815925D01*
X37643000Y-56976075D01*
X37611758Y-57133142D01*
X37550471Y-57281101D01*
X37461501Y-57414255D01*
X37348255Y-57527501D01*
X37215101Y-57616471D01*
X37067142Y-57677758D01*
X36910075Y-57709000D01*
X36749925Y-57709000D01*
X36592858Y-57677758D01*
X36444899Y-57616471D01*
X36311745Y-57527501D01*
X36198499Y-57414255D01*
X36109529Y-57281101D01*
X36048242Y-57133142D01*
X36017000Y-56976075D01*
X36017000Y-56815925D01*
X36048242Y-56658858D01*
X36109529Y-56510899D01*
X36198499Y-56377745D01*
X36311745Y-56264499D01*
X36444899Y-56175529D01*
X36592858Y-56114242D01*
X36749925Y-56083000D01*
X36910075Y-56083000D01*
X37067142Y-56114242D01*
G37*
G36*
X28712039Y-54045250D02*
G01*
X28901372Y-54123675D01*
X29035251Y-54179129D01*
X29326134Y-54373491D01*
X29573509Y-54620866D01*
X29767871Y-54911749D01*
X29823325Y-55045628D01*
X29901750Y-55234961D01*
X29970000Y-55578078D01*
X29970000Y-55927922D01*
X29901750Y-56271039D01*
X29845916Y-56405834D01*
X29767871Y-56594251D01*
X29573509Y-56885134D01*
X29326134Y-57132509D01*
X29035251Y-57326871D01*
X28967341Y-57355000D01*
X28712039Y-57460750D01*
X28368922Y-57529000D01*
X28019078Y-57529000D01*
X27675961Y-57460750D01*
X27420659Y-57355000D01*
X27352749Y-57326871D01*
X27061866Y-57132509D01*
X26814491Y-56885134D01*
X26620129Y-56594251D01*
X26542084Y-56405834D01*
X26486250Y-56271039D01*
X26418000Y-55927922D01*
X26418000Y-55578078D01*
X26486250Y-55234961D01*
X26564675Y-55045628D01*
X26620129Y-54911749D01*
X26814491Y-54620866D01*
X27061866Y-54373491D01*
X27352749Y-54179129D01*
X27486628Y-54123675D01*
X27675961Y-54045250D01*
X28019078Y-53977000D01*
X28368922Y-53977000D01*
X28712039Y-54045250D01*
G37*
G36*
X88628560Y-54846166D02*
G01*
X88776153Y-54907301D01*
X88908982Y-54996055D01*
X89021945Y-55109018D01*
X89110699Y-55241847D01*
X89171834Y-55389440D01*
X89203000Y-55546123D01*
X89203000Y-55705877D01*
X89171834Y-55862560D01*
X89110699Y-56010153D01*
X89021945Y-56142982D01*
X88908982Y-56255945D01*
X88776153Y-56344699D01*
X88776152Y-56344700D01*
X88776151Y-56344700D01*
X88628560Y-56405834D01*
X88471878Y-56437000D01*
X88312122Y-56437000D01*
X88155440Y-56405834D01*
X88007849Y-56344700D01*
X88007848Y-56344700D01*
X88007847Y-56344699D01*
X87875018Y-56255945D01*
X87762055Y-56142982D01*
X87673301Y-56010153D01*
X87612166Y-55862560D01*
X87581000Y-55705877D01*
X87581000Y-55546123D01*
X87612166Y-55389440D01*
X87673301Y-55241847D01*
X87762055Y-55109018D01*
X87875018Y-54996055D01*
X88007847Y-54907301D01*
X88155440Y-54846166D01*
X88312122Y-54815000D01*
X88471878Y-54815000D01*
X88628560Y-54846166D01*
G37*
G36*
X86088560Y-54846166D02*
G01*
X86236153Y-54907301D01*
X86368982Y-54996055D01*
X86481945Y-55109018D01*
X86570699Y-55241847D01*
X86631834Y-55389440D01*
X86663000Y-55546123D01*
X86663000Y-55705877D01*
X86631834Y-55862560D01*
X86570699Y-56010153D01*
X86481945Y-56142982D01*
X86368982Y-56255945D01*
X86236153Y-56344699D01*
X86236152Y-56344700D01*
X86236151Y-56344700D01*
X86088560Y-56405834D01*
X85931878Y-56437000D01*
X85772122Y-56437000D01*
X85615440Y-56405834D01*
X85467849Y-56344700D01*
X85467848Y-56344700D01*
X85467847Y-56344699D01*
X85335018Y-56255945D01*
X85222055Y-56142982D01*
X85133301Y-56010153D01*
X85072166Y-55862560D01*
X85041000Y-55705877D01*
X85041000Y-55546123D01*
X85072166Y-55389440D01*
X85133301Y-55241847D01*
X85222055Y-55109018D01*
X85335018Y-54996055D01*
X85467847Y-54907301D01*
X85615440Y-54846166D01*
X85772122Y-54815000D01*
X85931878Y-54815000D01*
X86088560Y-54846166D01*
G37*
G36*
X45448560Y-54846166D02*
G01*
X45596153Y-54907301D01*
X45728982Y-54996055D01*
X45841945Y-55109018D01*
X45930699Y-55241847D01*
X45991834Y-55389440D01*
X46023000Y-55546123D01*
X46023000Y-55705877D01*
X45991834Y-55862560D01*
X45930699Y-56010153D01*
X45841945Y-56142982D01*
X45728982Y-56255945D01*
X45596153Y-56344699D01*
X45596152Y-56344700D01*
X45596151Y-56344700D01*
X45448560Y-56405834D01*
X45291878Y-56437000D01*
X45132122Y-56437000D01*
X44975440Y-56405834D01*
X44827849Y-56344700D01*
X44827848Y-56344700D01*
X44827847Y-56344699D01*
X44695018Y-56255945D01*
X44582055Y-56142982D01*
X44493301Y-56010153D01*
X44432166Y-55862560D01*
X44401000Y-55705877D01*
X44401000Y-55546123D01*
X44432166Y-55389440D01*
X44493301Y-55241847D01*
X44582055Y-55109018D01*
X44695018Y-54996055D01*
X44827847Y-54907301D01*
X44975440Y-54846166D01*
X45132122Y-54815000D01*
X45291878Y-54815000D01*
X45448560Y-54846166D01*
G37*
G36*
X42908560Y-54846166D02*
G01*
X43056153Y-54907301D01*
X43188982Y-54996055D01*
X43301945Y-55109018D01*
X43390699Y-55241847D01*
X43451834Y-55389440D01*
X43483000Y-55546123D01*
X43483000Y-55705877D01*
X43451834Y-55862560D01*
X43390699Y-56010153D01*
X43301945Y-56142982D01*
X43188982Y-56255945D01*
X43056153Y-56344699D01*
X43056152Y-56344700D01*
X43056151Y-56344700D01*
X42908560Y-56405834D01*
X42751878Y-56437000D01*
X42592122Y-56437000D01*
X42435440Y-56405834D01*
X42287849Y-56344700D01*
X42287848Y-56344700D01*
X42287847Y-56344699D01*
X42155018Y-56255945D01*
X42042055Y-56142982D01*
X41953301Y-56010153D01*
X41892166Y-55862560D01*
X41861000Y-55705877D01*
X41861000Y-55546123D01*
X41892166Y-55389440D01*
X41953301Y-55241847D01*
X42042055Y-55109018D01*
X42155018Y-54996055D01*
X42287847Y-54907301D01*
X42435440Y-54846166D01*
X42592122Y-54815000D01*
X42751878Y-54815000D01*
X42908560Y-54846166D01*
G37*
G36*
X88628560Y-52306166D02*
G01*
X88776153Y-52367301D01*
X88908982Y-52456055D01*
X89021945Y-52569018D01*
X89110699Y-52701847D01*
X89171834Y-52849440D01*
X89203000Y-53006123D01*
X89203000Y-53165877D01*
X89171834Y-53322560D01*
X89110699Y-53470153D01*
X89021945Y-53602982D01*
X88908982Y-53715945D01*
X88776153Y-53804699D01*
X88776152Y-53804700D01*
X88776151Y-53804700D01*
X88628560Y-53865834D01*
X88471878Y-53897000D01*
X88312122Y-53897000D01*
X88155440Y-53865834D01*
X88007849Y-53804700D01*
X88007848Y-53804700D01*
X88007847Y-53804699D01*
X87875018Y-53715945D01*
X87762055Y-53602982D01*
X87673301Y-53470153D01*
X87612166Y-53322560D01*
X87581000Y-53165877D01*
X87581000Y-53006123D01*
X87612166Y-52849440D01*
X87673301Y-52701847D01*
X87762055Y-52569018D01*
X87875018Y-52456055D01*
X88007847Y-52367301D01*
X88155440Y-52306166D01*
X88312122Y-52275000D01*
X88471878Y-52275000D01*
X88628560Y-52306166D01*
G37*
G36*
X45448560Y-52306166D02*
G01*
X45596153Y-52367301D01*
X45728982Y-52456055D01*
X45841945Y-52569018D01*
X45930699Y-52701847D01*
X45991834Y-52849440D01*
X46023000Y-53006123D01*
X46023000Y-53165877D01*
X45991834Y-53322560D01*
X45930699Y-53470153D01*
X45841945Y-53602982D01*
X45728982Y-53715945D01*
X45596153Y-53804699D01*
X45596152Y-53804700D01*
X45596151Y-53804700D01*
X45448560Y-53865834D01*
X45291878Y-53897000D01*
X45132122Y-53897000D01*
X44975440Y-53865834D01*
X44827849Y-53804700D01*
X44827848Y-53804700D01*
X44827847Y-53804699D01*
X44695018Y-53715945D01*
X44582055Y-53602982D01*
X44493301Y-53470153D01*
X44432166Y-53322560D01*
X44401000Y-53165877D01*
X44401000Y-53006123D01*
X44432166Y-52849440D01*
X44493301Y-52701847D01*
X44582055Y-52569018D01*
X44695018Y-52456055D01*
X44827847Y-52367301D01*
X44975440Y-52306166D01*
X45132122Y-52275000D01*
X45291878Y-52275000D01*
X45448560Y-52306166D01*
G37*
G36*
X86088560Y-52306166D02*
G01*
X86236153Y-52367301D01*
X86368982Y-52456055D01*
X86481945Y-52569018D01*
X86570699Y-52701847D01*
X86631834Y-52849440D01*
X86663000Y-53006123D01*
X86663000Y-53165877D01*
X86631834Y-53322560D01*
X86570699Y-53470153D01*
X86481945Y-53602982D01*
X86368982Y-53715945D01*
X86236153Y-53804699D01*
X86236152Y-53804700D01*
X86236151Y-53804700D01*
X86088560Y-53865834D01*
X85931878Y-53897000D01*
X85772122Y-53897000D01*
X85615440Y-53865834D01*
X85467849Y-53804700D01*
X85467848Y-53804700D01*
X85467847Y-53804699D01*
X85335018Y-53715945D01*
X85222055Y-53602982D01*
X85133301Y-53470153D01*
X85072166Y-53322560D01*
X85041000Y-53165877D01*
X85041000Y-53006123D01*
X85072166Y-52849440D01*
X85133301Y-52701847D01*
X85222055Y-52569018D01*
X85335018Y-52456055D01*
X85467847Y-52367301D01*
X85615440Y-52306166D01*
X85772122Y-52275000D01*
X85931878Y-52275000D01*
X86088560Y-52306166D01*
G37*
G36*
X42908560Y-52306166D02*
G01*
X43056153Y-52367301D01*
X43188982Y-52456055D01*
X43301945Y-52569018D01*
X43390699Y-52701847D01*
X43451834Y-52849440D01*
X43483000Y-53006123D01*
X43483000Y-53165877D01*
X43451834Y-53322560D01*
X43390699Y-53470153D01*
X43301945Y-53602982D01*
X43188982Y-53715945D01*
X43056153Y-53804699D01*
X43056152Y-53804700D01*
X43056151Y-53804700D01*
X42908560Y-53865834D01*
X42751878Y-53897000D01*
X42592122Y-53897000D01*
X42435440Y-53865834D01*
X42287849Y-53804700D01*
X42287848Y-53804700D01*
X42287847Y-53804699D01*
X42155018Y-53715945D01*
X42042055Y-53602982D01*
X41953301Y-53470153D01*
X41892166Y-53322560D01*
X41861000Y-53165877D01*
X41861000Y-53006123D01*
X41892166Y-52849440D01*
X41953301Y-52701847D01*
X42042055Y-52569018D01*
X42155018Y-52456055D01*
X42287847Y-52367301D01*
X42435440Y-52306166D01*
X42592122Y-52275000D01*
X42751878Y-52275000D01*
X42908560Y-52306166D01*
G37*
G36*
X28708039Y-49729250D02*
G01*
X28897372Y-49807675D01*
X29031251Y-49863129D01*
X29322134Y-50057491D01*
X29569509Y-50304866D01*
X29763871Y-50595749D01*
X29797568Y-50677101D01*
X29897750Y-50918961D01*
X29966000Y-51262078D01*
X29966000Y-51611922D01*
X29897750Y-51955039D01*
X29819325Y-52144372D01*
X29763871Y-52278251D01*
X29569509Y-52569134D01*
X29322134Y-52816509D01*
X29031251Y-53010871D01*
X28897372Y-53066325D01*
X28708039Y-53144750D01*
X28364922Y-53213000D01*
X28015078Y-53213000D01*
X27671961Y-53144750D01*
X27482628Y-53066325D01*
X27348749Y-53010871D01*
X27057866Y-52816509D01*
X26810491Y-52569134D01*
X26616129Y-52278251D01*
X26560675Y-52144372D01*
X26482250Y-51955039D01*
X26414000Y-51611922D01*
X26414000Y-51262078D01*
X26482250Y-50918961D01*
X26582432Y-50677101D01*
X26616129Y-50595749D01*
X26810491Y-50304866D01*
X27057866Y-50057491D01*
X27348749Y-49863129D01*
X27482628Y-49807675D01*
X27671961Y-49729250D01*
X28015078Y-49661000D01*
X28364922Y-49661000D01*
X28708039Y-49729250D01*
G37*
G36*
X37067142Y-49510242D02*
G01*
X37215101Y-49571529D01*
X37348255Y-49660499D01*
X37461501Y-49773745D01*
X37550471Y-49906899D01*
X37611758Y-50054858D01*
X37643000Y-50211925D01*
X37643000Y-50372075D01*
X37611758Y-50529142D01*
X37550471Y-50677101D01*
X37461501Y-50810255D01*
X37348255Y-50923501D01*
X37215101Y-51012471D01*
X37067142Y-51073758D01*
X36910075Y-51105000D01*
X36749925Y-51105000D01*
X36592858Y-51073758D01*
X36444899Y-51012471D01*
X36311745Y-50923501D01*
X36198499Y-50810255D01*
X36109529Y-50677101D01*
X36048242Y-50529142D01*
X36017000Y-50372075D01*
X36017000Y-50211925D01*
X36048242Y-50054858D01*
X36109529Y-49906899D01*
X36198499Y-49773745D01*
X36311745Y-49660499D01*
X36444899Y-49571529D01*
X36592858Y-49510242D01*
X36749925Y-49479000D01*
X36910075Y-49479000D01*
X37067142Y-49510242D01*
G37*
G36*
X37067142Y-46970242D02*
G01*
X37215101Y-47031529D01*
X37348255Y-47120499D01*
X37461501Y-47233745D01*
X37550471Y-47366899D01*
X37611758Y-47514858D01*
X37643000Y-47671925D01*
X37643000Y-47832075D01*
X37611758Y-47989142D01*
X37550471Y-48137101D01*
X37461501Y-48270255D01*
X37348255Y-48383501D01*
X37215101Y-48472471D01*
X37067142Y-48533758D01*
X36910075Y-48565000D01*
X36749925Y-48565000D01*
X36592858Y-48533758D01*
X36444899Y-48472471D01*
X36311745Y-48383501D01*
X36198499Y-48270255D01*
X36109529Y-48137101D01*
X36048242Y-47989142D01*
X36017000Y-47832075D01*
X36017000Y-47671925D01*
X36048242Y-47514858D01*
X36109529Y-47366899D01*
X36198499Y-47233745D01*
X36311745Y-47120499D01*
X36444899Y-47031529D01*
X36592858Y-46970242D01*
X36749925Y-46939000D01*
X36910075Y-46939000D01*
X37067142Y-46970242D01*
G37*
G36*
X28712039Y-44901250D02*
G01*
X28901372Y-44979675D01*
X29035251Y-45035129D01*
X29326134Y-45229491D01*
X29573509Y-45476866D01*
X29767871Y-45767749D01*
X29767871Y-45767750D01*
X29901750Y-46090961D01*
X29970000Y-46434078D01*
X29970000Y-46783922D01*
X29901750Y-47127039D01*
X29823325Y-47316372D01*
X29767871Y-47450251D01*
X29573509Y-47741134D01*
X29326134Y-47988509D01*
X29035251Y-48182871D01*
X28901372Y-48238325D01*
X28712039Y-48316750D01*
X28368922Y-48385000D01*
X28019078Y-48385000D01*
X27675961Y-48316750D01*
X27486628Y-48238325D01*
X27352749Y-48182871D01*
X27061866Y-47988509D01*
X26814491Y-47741134D01*
X26620129Y-47450251D01*
X26564675Y-47316372D01*
X26486250Y-47127039D01*
X26418000Y-46783922D01*
X26418000Y-46434078D01*
X26486250Y-46090961D01*
X26620129Y-45767750D01*
X26620129Y-45767749D01*
X26814491Y-45476866D01*
X27061866Y-45229491D01*
X27352749Y-45035129D01*
X27486628Y-44979675D01*
X27675961Y-44901250D01*
X28019078Y-44833000D01*
X28368922Y-44833000D01*
X28712039Y-44901250D01*
G37*
G36*
X28708039Y-39823250D02*
G01*
X28897372Y-39901675D01*
X29031251Y-39957129D01*
X29322134Y-40151491D01*
X29569509Y-40398866D01*
X29763871Y-40689749D01*
X29797568Y-40771101D01*
X29897750Y-41012961D01*
X29966000Y-41356078D01*
X29966000Y-41705922D01*
X29897750Y-42049039D01*
X29819325Y-42238372D01*
X29763871Y-42372251D01*
X29569509Y-42663134D01*
X29322134Y-42910509D01*
X29031251Y-43104871D01*
X28897372Y-43160325D01*
X28708039Y-43238750D01*
X28364922Y-43307000D01*
X28015078Y-43307000D01*
X27671961Y-43238750D01*
X27482628Y-43160325D01*
X27348749Y-43104871D01*
X27057866Y-42910509D01*
X26810491Y-42663134D01*
X26616129Y-42372251D01*
X26560675Y-42238372D01*
X26482250Y-42049039D01*
X26414000Y-41705922D01*
X26414000Y-41356078D01*
X26482250Y-41012961D01*
X26582432Y-40771101D01*
X26616129Y-40689749D01*
X26810491Y-40398866D01*
X27057866Y-40151491D01*
X27348749Y-39957129D01*
X27482628Y-39901675D01*
X27671961Y-39823250D01*
X28015078Y-39755000D01*
X28364922Y-39755000D01*
X28708039Y-39823250D01*
G37*
G36*
X37067142Y-39604242D02*
G01*
X37215101Y-39665529D01*
X37348255Y-39754499D01*
X37461501Y-39867745D01*
X37550471Y-40000899D01*
X37611758Y-40148858D01*
X37643000Y-40305925D01*
X37643000Y-40466075D01*
X37611758Y-40623142D01*
X37550471Y-40771101D01*
X37461501Y-40904255D01*
X37348255Y-41017501D01*
X37215101Y-41106471D01*
X37067142Y-41167758D01*
X36910075Y-41199000D01*
X36749925Y-41199000D01*
X36592858Y-41167758D01*
X36444899Y-41106471D01*
X36311745Y-41017501D01*
X36198499Y-40904255D01*
X36109529Y-40771101D01*
X36048242Y-40623142D01*
X36017000Y-40466075D01*
X36017000Y-40305925D01*
X36048242Y-40148858D01*
X36109529Y-40000899D01*
X36198499Y-39867745D01*
X36311745Y-39754499D01*
X36444899Y-39665529D01*
X36592858Y-39604242D01*
X36749925Y-39573000D01*
X36910075Y-39573000D01*
X37067142Y-39604242D01*
G37*
G36*
X37067142Y-37064242D02*
G01*
X37215101Y-37125529D01*
X37348255Y-37214499D01*
X37461501Y-37327745D01*
X37550471Y-37460899D01*
X37611758Y-37608858D01*
X37643000Y-37765925D01*
X37643000Y-37926075D01*
X37611758Y-38083142D01*
X37550471Y-38231101D01*
X37461501Y-38364255D01*
X37348255Y-38477501D01*
X37215101Y-38566471D01*
X37067142Y-38627758D01*
X36910075Y-38659000D01*
X36749925Y-38659000D01*
X36592858Y-38627758D01*
X36444899Y-38566471D01*
X36311745Y-38477501D01*
X36198499Y-38364255D01*
X36109529Y-38231101D01*
X36048242Y-38083142D01*
X36017000Y-37926075D01*
X36017000Y-37765925D01*
X36048242Y-37608858D01*
X36109529Y-37460899D01*
X36198499Y-37327745D01*
X36311745Y-37214499D01*
X36444899Y-37125529D01*
X36592858Y-37064242D01*
X36749925Y-37033000D01*
X36910075Y-37033000D01*
X37067142Y-37064242D01*
G37*
G36*
X28712039Y-34995250D02*
G01*
X28901372Y-35073675D01*
X29035251Y-35129129D01*
X29326134Y-35323491D01*
X29573509Y-35570866D01*
X29767871Y-35861749D01*
X29767871Y-35861750D01*
X29901750Y-36184961D01*
X29970000Y-36528078D01*
X29970000Y-36877922D01*
X29901750Y-37221039D01*
X29823325Y-37410372D01*
X29767871Y-37544251D01*
X29573509Y-37835134D01*
X29326134Y-38082509D01*
X29035251Y-38276871D01*
X28901372Y-38332325D01*
X28712039Y-38410750D01*
X28368922Y-38479000D01*
X28019078Y-38479000D01*
X27675961Y-38410750D01*
X27486628Y-38332325D01*
X27352749Y-38276871D01*
X27061866Y-38082509D01*
X26814491Y-37835134D01*
X26620129Y-37544251D01*
X26564675Y-37410372D01*
X26486250Y-37221039D01*
X26418000Y-36877922D01*
X26418000Y-36528078D01*
X26486250Y-36184961D01*
X26620129Y-35861750D01*
X26620129Y-35861749D01*
X26814491Y-35570866D01*
X27061866Y-35323491D01*
X27352749Y-35129129D01*
X27486628Y-35073675D01*
X27675961Y-34995250D01*
X28019078Y-34927000D01*
X28368922Y-34927000D01*
X28712039Y-34995250D01*
G37*
G36*
X28708039Y-30679250D02*
G01*
X28897372Y-30757675D01*
X29031251Y-30813129D01*
X29322134Y-31007491D01*
X29569509Y-31254866D01*
X29763871Y-31545749D01*
X29797568Y-31627101D01*
X29897750Y-31868961D01*
X29966000Y-32212078D01*
X29966000Y-32561922D01*
X29897750Y-32905039D01*
X29819325Y-33094372D01*
X29763871Y-33228251D01*
X29569509Y-33519134D01*
X29322134Y-33766509D01*
X29031251Y-33960871D01*
X28897372Y-34016325D01*
X28708039Y-34094750D01*
X28364922Y-34163000D01*
X28015078Y-34163000D01*
X27671961Y-34094750D01*
X27482628Y-34016325D01*
X27348749Y-33960871D01*
X27057866Y-33766509D01*
X26810491Y-33519134D01*
X26616129Y-33228251D01*
X26560675Y-33094372D01*
X26482250Y-32905039D01*
X26414000Y-32561922D01*
X26414000Y-32212078D01*
X26482250Y-31868961D01*
X26582432Y-31627101D01*
X26616129Y-31545749D01*
X26810491Y-31254866D01*
X27057866Y-31007491D01*
X27348749Y-30813129D01*
X27482628Y-30757675D01*
X27671961Y-30679250D01*
X28015078Y-30611000D01*
X28364922Y-30611000D01*
X28708039Y-30679250D01*
G37*
G36*
X37067142Y-30460242D02*
G01*
X37215101Y-30521529D01*
X37348255Y-30610499D01*
X37461501Y-30723745D01*
X37550471Y-30856899D01*
X37611758Y-31004858D01*
X37643000Y-31161925D01*
X37643000Y-31322075D01*
X37611758Y-31479142D01*
X37550471Y-31627101D01*
X37461501Y-31760255D01*
X37348255Y-31873501D01*
X37215101Y-31962471D01*
X37067142Y-32023758D01*
X36910075Y-32055000D01*
X36749925Y-32055000D01*
X36592858Y-32023758D01*
X36444899Y-31962471D01*
X36311745Y-31873501D01*
X36198499Y-31760255D01*
X36109529Y-31627101D01*
X36048242Y-31479142D01*
X36017000Y-31322075D01*
X36017000Y-31161925D01*
X36048242Y-31004858D01*
X36109529Y-30856899D01*
X36198499Y-30723745D01*
X36311745Y-30610499D01*
X36444899Y-30521529D01*
X36592858Y-30460242D01*
X36749925Y-30429000D01*
X36910075Y-30429000D01*
X37067142Y-30460242D01*
G37*
G36*
X58962228Y-28899703D02*
G01*
X59117100Y-28963853D01*
X59256481Y-29056985D01*
X59375015Y-29175519D01*
X59468147Y-29314900D01*
X59532297Y-29469772D01*
X59565000Y-29634184D01*
X59565000Y-29801816D01*
X59532297Y-29966228D01*
X59468147Y-30121100D01*
X59375015Y-30260481D01*
X59256481Y-30379015D01*
X59117100Y-30472147D01*
X58962228Y-30536297D01*
X58797816Y-30569000D01*
X58630184Y-30569000D01*
X58465772Y-30536297D01*
X58310900Y-30472147D01*
X58171519Y-30379015D01*
X58052985Y-30260481D01*
X57959853Y-30121100D01*
X57895703Y-29966228D01*
X57863000Y-29801816D01*
X57863000Y-29634184D01*
X57895703Y-29469772D01*
X57959853Y-29314900D01*
X58052985Y-29175519D01*
X58171519Y-29056985D01*
X58310900Y-28963853D01*
X58465772Y-28899703D01*
X58630184Y-28867000D01*
X58797816Y-28867000D01*
X58962228Y-28899703D01*
G37*
G36*
X54462228Y-28899703D02*
G01*
X54617100Y-28963853D01*
X54756481Y-29056985D01*
X54875015Y-29175519D01*
X54968147Y-29314900D01*
X55032297Y-29469772D01*
X55065000Y-29634184D01*
X55065000Y-29801816D01*
X55032297Y-29966228D01*
X54968147Y-30121100D01*
X54875015Y-30260481D01*
X54756481Y-30379015D01*
X54617100Y-30472147D01*
X54462228Y-30536297D01*
X54297816Y-30569000D01*
X54130184Y-30569000D01*
X53965772Y-30536297D01*
X53810900Y-30472147D01*
X53671519Y-30379015D01*
X53552985Y-30260481D01*
X53459853Y-30121100D01*
X53395703Y-29966228D01*
X53363000Y-29801816D01*
X53363000Y-29634184D01*
X53395703Y-29469772D01*
X53459853Y-29314900D01*
X53552985Y-29175519D01*
X53671519Y-29056985D01*
X53810900Y-28963853D01*
X53965772Y-28899703D01*
X54130184Y-28867000D01*
X54297816Y-28867000D01*
X54462228Y-28899703D01*
G37*
G36*
X56962228Y-28899703D02*
G01*
X57117100Y-28963853D01*
X57256481Y-29056985D01*
X57375015Y-29175519D01*
X57468147Y-29314900D01*
X57532297Y-29469772D01*
X57565000Y-29634184D01*
X57565000Y-29801816D01*
X57532297Y-29966228D01*
X57468147Y-30121100D01*
X57375015Y-30260481D01*
X57256481Y-30379015D01*
X57117100Y-30472147D01*
X56962228Y-30536297D01*
X56797816Y-30569000D01*
X56630184Y-30569000D01*
X56465772Y-30536297D01*
X56310900Y-30472147D01*
X56171519Y-30379015D01*
X56052985Y-30260481D01*
X55959853Y-30121100D01*
X55895703Y-29966228D01*
X55863000Y-29801816D01*
X55863000Y-29634184D01*
X55895703Y-29469772D01*
X55959853Y-29314900D01*
X56052985Y-29175519D01*
X56171519Y-29056985D01*
X56310900Y-28963853D01*
X56465772Y-28899703D01*
X56630184Y-28867000D01*
X56797816Y-28867000D01*
X56962228Y-28899703D01*
G37*
G36*
X62065000Y-30569000D02*
G01*
X60363000Y-30569000D01*
X60363000Y-28867000D01*
X62065000Y-28867000D01*
X62065000Y-30569000D01*
G37*
G36*
X37067142Y-27920242D02*
G01*
X37215101Y-27981529D01*
X37348255Y-28070499D01*
X37461501Y-28183745D01*
X37550471Y-28316899D01*
X37611758Y-28464858D01*
X37643000Y-28621925D01*
X37643000Y-28782075D01*
X37611758Y-28939142D01*
X37550471Y-29087101D01*
X37461501Y-29220255D01*
X37348255Y-29333501D01*
X37215101Y-29422471D01*
X37067142Y-29483758D01*
X36910075Y-29515000D01*
X36749925Y-29515000D01*
X36592858Y-29483758D01*
X36444899Y-29422471D01*
X36311745Y-29333501D01*
X36198499Y-29220255D01*
X36109529Y-29087101D01*
X36048242Y-28939142D01*
X36017000Y-28782075D01*
X36017000Y-28621925D01*
X36048242Y-28464858D01*
X36109529Y-28316899D01*
X36198499Y-28183745D01*
X36311745Y-28070499D01*
X36444899Y-27981529D01*
X36592858Y-27920242D01*
X36749925Y-27889000D01*
X36910075Y-27889000D01*
X37067142Y-27920242D01*
G37*
G36*
X28712039Y-25851250D02*
G01*
X28901372Y-25929675D01*
X29035251Y-25985129D01*
X29326134Y-26179491D01*
X29573509Y-26426866D01*
X29767871Y-26717749D01*
X29767871Y-26717750D01*
X29901750Y-27040961D01*
X29970000Y-27384078D01*
X29970000Y-27733922D01*
X29901750Y-28077039D01*
X29845540Y-28212741D01*
X29767871Y-28400251D01*
X29573509Y-28691134D01*
X29326134Y-28938509D01*
X29035251Y-29132871D01*
X28932289Y-29175519D01*
X28712039Y-29266750D01*
X28368922Y-29335000D01*
X28019078Y-29335000D01*
X27675961Y-29266750D01*
X27455711Y-29175519D01*
X27352749Y-29132871D01*
X27061866Y-28938509D01*
X26814491Y-28691134D01*
X26620129Y-28400251D01*
X26542460Y-28212741D01*
X26486250Y-28077039D01*
X26418000Y-27733922D01*
X26418000Y-27384078D01*
X26486250Y-27040961D01*
X26620129Y-26717750D01*
X26620129Y-26717749D01*
X26814491Y-26426866D01*
X27061866Y-26179491D01*
X27352749Y-25985129D01*
X27486628Y-25929675D01*
X27675961Y-25851250D01*
X28019078Y-25783000D01*
X28368922Y-25783000D01*
X28712039Y-25851250D01*
G37*
G36*
X99140908Y-23662780D02*
G01*
X99307767Y-23695970D01*
X99779299Y-23891285D01*
X100022029Y-24053473D01*
X100203666Y-24174838D01*
X100564562Y-24535734D01*
X100685927Y-24717371D01*
X100848115Y-24960101D01*
X101043430Y-25431633D01*
X101043430Y-25431634D01*
X101143000Y-25932207D01*
X101143000Y-26442593D01*
X101120523Y-26555591D01*
X101043430Y-26943167D01*
X100848115Y-27414699D01*
X100685927Y-27657429D01*
X100564562Y-27839066D01*
X100203666Y-28199962D01*
X100028657Y-28316899D01*
X99779299Y-28483515D01*
X99307767Y-28678830D01*
X99245915Y-28691133D01*
X98807193Y-28778400D01*
X98296807Y-28778400D01*
X97858085Y-28691133D01*
X97796233Y-28678830D01*
X97324701Y-28483515D01*
X97075343Y-28316899D01*
X96900334Y-28199962D01*
X96539438Y-27839066D01*
X96418073Y-27657429D01*
X96255885Y-27414699D01*
X96060570Y-26943167D01*
X95983477Y-26555591D01*
X95961000Y-26442593D01*
X95961000Y-25932207D01*
X96060570Y-25431634D01*
X96060570Y-25431633D01*
X96255885Y-24960101D01*
X96418073Y-24717371D01*
X96539438Y-24535734D01*
X96900334Y-24174838D01*
X97081971Y-24053473D01*
X97324701Y-23891285D01*
X97796233Y-23695970D01*
X97963092Y-23662780D01*
X98296807Y-23596400D01*
X98807193Y-23596400D01*
X99140908Y-23662780D01*
G37*
G36*
X107014908Y-23662780D02*
G01*
X107181767Y-23695970D01*
X107653299Y-23891285D01*
X107896029Y-24053473D01*
X108077666Y-24174838D01*
X108438562Y-24535734D01*
X108559927Y-24717371D01*
X108722115Y-24960101D01*
X108917430Y-25431633D01*
X108917430Y-25431634D01*
X109017000Y-25932207D01*
X109017000Y-26442593D01*
X108994523Y-26555591D01*
X108917430Y-26943167D01*
X108722115Y-27414699D01*
X108559927Y-27657429D01*
X108438562Y-27839066D01*
X108077666Y-28199962D01*
X107902657Y-28316899D01*
X107653299Y-28483515D01*
X107181767Y-28678830D01*
X107119915Y-28691133D01*
X106681193Y-28778400D01*
X106170807Y-28778400D01*
X105732085Y-28691133D01*
X105670233Y-28678830D01*
X105198701Y-28483515D01*
X104949343Y-28316899D01*
X104774334Y-28199962D01*
X104413438Y-27839066D01*
X104292073Y-27657429D01*
X104129885Y-27414699D01*
X103934570Y-26943167D01*
X103857477Y-26555591D01*
X103835000Y-26442593D01*
X103835000Y-25932207D01*
X103934570Y-25431634D01*
X103934570Y-25431633D01*
X104129885Y-24960101D01*
X104292073Y-24717371D01*
X104413438Y-24535734D01*
X104774334Y-24174838D01*
X104955971Y-24053473D01*
X105198701Y-23891285D01*
X105670233Y-23695970D01*
X105837092Y-23662780D01*
X106170807Y-23596400D01*
X106681193Y-23596400D01*
X107014908Y-23662780D01*
G37*
G36*
X64586585Y-25486802D02*
G01*
X64736410Y-25516604D01*
X65018674Y-25633521D01*
X65272705Y-25803259D01*
X65488741Y-26019295D01*
X65658479Y-26273326D01*
X65775396Y-26555590D01*
X65835000Y-26855240D01*
X65835000Y-27160760D01*
X65775396Y-27460410D01*
X65658479Y-27742674D01*
X65488741Y-27996705D01*
X65272705Y-28212741D01*
X65018674Y-28382479D01*
X64736410Y-28499396D01*
X64586585Y-28529198D01*
X64436761Y-28559000D01*
X64131239Y-28559000D01*
X63981415Y-28529198D01*
X63831590Y-28499396D01*
X63549326Y-28382479D01*
X63295295Y-28212741D01*
X63079259Y-27996705D01*
X62909521Y-27742674D01*
X62792604Y-27460410D01*
X62733000Y-27160760D01*
X62733000Y-26855240D01*
X62792604Y-26555590D01*
X62909521Y-26273326D01*
X63079259Y-26019295D01*
X63295295Y-25803259D01*
X63549326Y-25633521D01*
X63831590Y-25516604D01*
X63981415Y-25486802D01*
X64131239Y-25457000D01*
X64436761Y-25457000D01*
X64586585Y-25486802D01*
G37*
G36*
X51446585Y-25486802D02*
G01*
X51596410Y-25516604D01*
X51878674Y-25633521D01*
X52132705Y-25803259D01*
X52348741Y-26019295D01*
X52518479Y-26273326D01*
X52635396Y-26555590D01*
X52695000Y-26855240D01*
X52695000Y-27160760D01*
X52635396Y-27460410D01*
X52518479Y-27742674D01*
X52348741Y-27996705D01*
X52132705Y-28212741D01*
X51878674Y-28382479D01*
X51596410Y-28499396D01*
X51446585Y-28529198D01*
X51296761Y-28559000D01*
X50991239Y-28559000D01*
X50841415Y-28529198D01*
X50691590Y-28499396D01*
X50409326Y-28382479D01*
X50155295Y-28212741D01*
X49939259Y-27996705D01*
X49769521Y-27742674D01*
X49652604Y-27460410D01*
X49593000Y-27160760D01*
X49593000Y-26855240D01*
X49652604Y-26555590D01*
X49769521Y-26273326D01*
X49939259Y-26019295D01*
X50155295Y-25803259D01*
X50409326Y-25633521D01*
X50691590Y-25516604D01*
X50841415Y-25486802D01*
X50991239Y-25457000D01*
X51296761Y-25457000D01*
X51446585Y-25486802D01*
G37*
G36*
X29701142Y-21951242D02*
G01*
X29849101Y-22012529D01*
X29982255Y-22101499D01*
X30095501Y-22214745D01*
X30184471Y-22347899D01*
X30245758Y-22495858D01*
X30277000Y-22652925D01*
X30277000Y-22813075D01*
X30245758Y-22970142D01*
X30184471Y-23118101D01*
X30095501Y-23251255D01*
X29982255Y-23364501D01*
X29849101Y-23453471D01*
X29701142Y-23514758D01*
X29544075Y-23546000D01*
X29383925Y-23546000D01*
X29226858Y-23514758D01*
X29078899Y-23453471D01*
X28945745Y-23364501D01*
X28832499Y-23251255D01*
X28743529Y-23118101D01*
X28682242Y-22970142D01*
X28651000Y-22813075D01*
X28651000Y-22652925D01*
X28682242Y-22495858D01*
X28743529Y-22347899D01*
X28832499Y-22214745D01*
X28945745Y-22101499D01*
X29078899Y-22012529D01*
X29226858Y-21951242D01*
X29383925Y-21920000D01*
X29544075Y-21920000D01*
X29701142Y-21951242D01*
G37*
G36*
X43036142Y-21951242D02*
G01*
X43184101Y-22012529D01*
X43317255Y-22101499D01*
X43430501Y-22214745D01*
X43519471Y-22347899D01*
X43580758Y-22495858D01*
X43612000Y-22652925D01*
X43612000Y-22813075D01*
X43580758Y-22970142D01*
X43519471Y-23118101D01*
X43430501Y-23251255D01*
X43317255Y-23364501D01*
X43184101Y-23453471D01*
X43036142Y-23514758D01*
X42879075Y-23546000D01*
X42718925Y-23546000D01*
X42561858Y-23514758D01*
X42413899Y-23453471D01*
X42280745Y-23364501D01*
X42167499Y-23251255D01*
X42078529Y-23118101D01*
X42017242Y-22970142D01*
X41986000Y-22813075D01*
X41986000Y-22652925D01*
X42017242Y-22495858D01*
X42078529Y-22347899D01*
X42167499Y-22214745D01*
X42280745Y-22101499D01*
X42413899Y-22012529D01*
X42561858Y-21951242D01*
X42718925Y-21920000D01*
X42879075Y-21920000D01*
X43036142Y-21951242D01*
G37*
G36*
X32241142Y-21951242D02*
G01*
X32389101Y-22012529D01*
X32522255Y-22101499D01*
X32635501Y-22214745D01*
X32724471Y-22347899D01*
X32785758Y-22495858D01*
X32817000Y-22652925D01*
X32817000Y-22813075D01*
X32785758Y-22970142D01*
X32724471Y-23118101D01*
X32635501Y-23251255D01*
X32522255Y-23364501D01*
X32389101Y-23453471D01*
X32241142Y-23514758D01*
X32084075Y-23546000D01*
X31923925Y-23546000D01*
X31766858Y-23514758D01*
X31618899Y-23453471D01*
X31485745Y-23364501D01*
X31372499Y-23251255D01*
X31283529Y-23118101D01*
X31222242Y-22970142D01*
X31191000Y-22813075D01*
X31191000Y-22652925D01*
X31222242Y-22495858D01*
X31283529Y-22347899D01*
X31372499Y-22214745D01*
X31485745Y-22101499D01*
X31618899Y-22012529D01*
X31766858Y-21951242D01*
X31923925Y-21920000D01*
X32084075Y-21920000D01*
X32241142Y-21951242D01*
G37*
G36*
X40496142Y-21951242D02*
G01*
X40644101Y-22012529D01*
X40777255Y-22101499D01*
X40890501Y-22214745D01*
X40979471Y-22347899D01*
X41040758Y-22495858D01*
X41072000Y-22652925D01*
X41072000Y-22813075D01*
X41040758Y-22970142D01*
X40979471Y-23118101D01*
X40890501Y-23251255D01*
X40777255Y-23364501D01*
X40644101Y-23453471D01*
X40496142Y-23514758D01*
X40339075Y-23546000D01*
X40178925Y-23546000D01*
X40021858Y-23514758D01*
X39873899Y-23453471D01*
X39740745Y-23364501D01*
X39627499Y-23251255D01*
X39538529Y-23118101D01*
X39477242Y-22970142D01*
X39446000Y-22813075D01*
X39446000Y-22652925D01*
X39477242Y-22495858D01*
X39538529Y-22347899D01*
X39627499Y-22214745D01*
X39740745Y-22101499D01*
X39873899Y-22012529D01*
X40021858Y-21951242D01*
X40178925Y-21920000D01*
X40339075Y-21920000D01*
X40496142Y-21951242D01*
G37*
G36*
X33665039Y-12389250D02*
G01*
X33854372Y-12467675D01*
X33988251Y-12523129D01*
X34279134Y-12717491D01*
X34526509Y-12964866D01*
X34720871Y-13255749D01*
X34720871Y-13255750D01*
X34854750Y-13578961D01*
X34923000Y-13922078D01*
X34923000Y-14271922D01*
X34854750Y-14615039D01*
X34776325Y-14804372D01*
X34720871Y-14938251D01*
X34526509Y-15229134D01*
X34279134Y-15476509D01*
X33988251Y-15670871D01*
X33854372Y-15726325D01*
X33665039Y-15804750D01*
X33321922Y-15873000D01*
X32972078Y-15873000D01*
X32628961Y-15804750D01*
X32439628Y-15726325D01*
X32305749Y-15670871D01*
X32014866Y-15476509D01*
X31767491Y-15229134D01*
X31573129Y-14938251D01*
X31517675Y-14804372D01*
X31439250Y-14615039D01*
X31371000Y-14271922D01*
X31371000Y-13922078D01*
X31439250Y-13578961D01*
X31573129Y-13255750D01*
X31573129Y-13255749D01*
X31767491Y-12964866D01*
X32014866Y-12717491D01*
X32305749Y-12523129D01*
X32439628Y-12467675D01*
X32628961Y-12389250D01*
X32972078Y-12321000D01*
X33321922Y-12321000D01*
X33665039Y-12389250D01*
G37*
G36*
X44460039Y-12389250D02*
G01*
X44649372Y-12467675D01*
X44783251Y-12523129D01*
X45074134Y-12717491D01*
X45321509Y-12964866D01*
X45515871Y-13255749D01*
X45515871Y-13255750D01*
X45649750Y-13578961D01*
X45718000Y-13922078D01*
X45718000Y-14271922D01*
X45649750Y-14615039D01*
X45571325Y-14804372D01*
X45515871Y-14938251D01*
X45321509Y-15229134D01*
X45074134Y-15476509D01*
X44783251Y-15670871D01*
X44649372Y-15726325D01*
X44460039Y-15804750D01*
X44116922Y-15873000D01*
X43767078Y-15873000D01*
X43423961Y-15804750D01*
X43234628Y-15726325D01*
X43100749Y-15670871D01*
X42809866Y-15476509D01*
X42562491Y-15229134D01*
X42368129Y-14938251D01*
X42312675Y-14804372D01*
X42234250Y-14615039D01*
X42166000Y-14271922D01*
X42166000Y-13922078D01*
X42234250Y-13578961D01*
X42368129Y-13255750D01*
X42368129Y-13255749D01*
X42562491Y-12964866D01*
X42809866Y-12717491D01*
X43100749Y-12523129D01*
X43234628Y-12467675D01*
X43423961Y-12389250D01*
X43767078Y-12321000D01*
X44116922Y-12321000D01*
X44460039Y-12389250D01*
G37*
G36*
X39632039Y-12385250D02*
G01*
X39821372Y-12463675D01*
X39955251Y-12519129D01*
X40246134Y-12713491D01*
X40493509Y-12960866D01*
X40687871Y-13251749D01*
X40689528Y-13255750D01*
X40821750Y-13574961D01*
X40890000Y-13918078D01*
X40890000Y-14267922D01*
X40821750Y-14611039D01*
X40743325Y-14800372D01*
X40687871Y-14934251D01*
X40493509Y-15225134D01*
X40246134Y-15472509D01*
X39955251Y-15666871D01*
X39821372Y-15722325D01*
X39632039Y-15800750D01*
X39288922Y-15869000D01*
X38939078Y-15869000D01*
X38595961Y-15800750D01*
X38406628Y-15722325D01*
X38272749Y-15666871D01*
X37981866Y-15472509D01*
X37734491Y-15225134D01*
X37540129Y-14934251D01*
X37484675Y-14800372D01*
X37406250Y-14611039D01*
X37338000Y-14267922D01*
X37338000Y-13918078D01*
X37406250Y-13574961D01*
X37538472Y-13255750D01*
X37540129Y-13251749D01*
X37734491Y-12960866D01*
X37981866Y-12713491D01*
X38272749Y-12519129D01*
X38406628Y-12463675D01*
X38595961Y-12385250D01*
X38939078Y-12317000D01*
X39288922Y-12317000D01*
X39632039Y-12385250D01*
G37*
G36*
X28837039Y-12385250D02*
G01*
X29026372Y-12463675D01*
X29160251Y-12519129D01*
X29451134Y-12713491D01*
X29698509Y-12960866D01*
X29892871Y-13251749D01*
X29894528Y-13255750D01*
X30026750Y-13574961D01*
X30095000Y-13918078D01*
X30095000Y-14267922D01*
X30026750Y-14611039D01*
X29948325Y-14800372D01*
X29892871Y-14934251D01*
X29698509Y-15225134D01*
X29451134Y-15472509D01*
X29160251Y-15666871D01*
X29026372Y-15722325D01*
X28837039Y-15800750D01*
X28493922Y-15869000D01*
X28144078Y-15869000D01*
X27800961Y-15800750D01*
X27611628Y-15722325D01*
X27477749Y-15666871D01*
X27186866Y-15472509D01*
X26939491Y-15225134D01*
X26745129Y-14934251D01*
X26689675Y-14800372D01*
X26611250Y-14611039D01*
X26543000Y-14267922D01*
X26543000Y-13918078D01*
X26611250Y-13574961D01*
X26743472Y-13255750D01*
X26745129Y-13251749D01*
X26939491Y-12960866D01*
X27186866Y-12713491D01*
X27477749Y-12519129D01*
X27611628Y-12463675D01*
X27800961Y-12385250D01*
X28144078Y-12317000D01*
X28493922Y-12317000D01*
X28837039Y-12385250D01*
G37*
M02*
