M48
; DRILL file {KiCad (5.1.4)-1} date 11/21/2019 10:54:54 AM
; FORMAT={-:-/ absolute / inch / decimal}
; #@! TF.CreationDate,2019-11-21T10:54:54-06:00
; #@! TF.GenerationSoftware,Kicad,Pcbnew,(5.1.4)-1
; #@! TF.FileFunction,Plated,1,2,PTH
FMAT,2
INCH
T1C0.0157
T2C0.0236
T3C0.0335
T4C0.0350
T5C0.0354
T6C0.0394
T7C0.1598
%
G90
G05
T1
X2.475Y-2.926
X2.608Y-3.444
X2.66Y-3.399
X2.75Y-3.35
X2.852Y-3.32
X2.865Y-2.325
X2.865Y-3.0
X2.9Y-2.206
X2.901Y-2.095
X2.913Y-3.399
X2.936Y-2.659
X2.948Y-3.445
X3.036Y-2.74
X3.084Y-2.9
X3.109Y-1.607
X3.114Y-2.937
X3.115Y-2.985
X3.323Y-3.369
X3.3595Y-3.3555
X3.388Y-3.334
X3.5Y-2.307
X3.53Y-3.399
X3.548Y-2.502
X3.557Y-2.784
X3.561Y-2.549
X3.564Y-2.619
X3.564Y-2.692
X3.567Y-2.08
X3.567Y-2.193
X3.627Y-2.937
X3.628Y-2.984
X3.649Y-2.692
X3.665Y-3.022
X3.665Y-3.175
X3.71Y-2.62
X3.717Y-2.373
X3.75Y-2.8
X3.8Y-3.55
X4.009Y-3.309
X4.039Y-2.836
X4.08Y-2.847
X4.081Y-2.314
X4.13Y-2.437
X4.1304Y-2.6546
X4.179Y-2.314
X4.2Y-2.569
X4.2Y-2.86
X4.2Y-3.35
X4.24Y-3.037
X4.24Y-3.476
X4.253Y-2.622
X4.254Y-2.956
X4.284Y-2.433
X4.284Y-2.5
X4.342Y-2.62
X4.342Y-2.951
X4.403Y-2.728
X4.414Y-2.467
X4.5Y-3.4
X4.641Y-2.467
X4.72Y-3.21
X4.82Y-3.21
X4.8937Y-3.5973
X5.031Y-3.208
X5.031Y-3.35
X5.12Y-2.785
X5.24Y-3.4545
X5.35Y-2.7
X5.488Y-3.401
X5.6Y-2.3
X5.674Y-3.401
X5.85Y-2.5
X5.85Y-2.75
X6.05Y-2.15
X6.05Y-2.65
X6.15Y-2.45
X6.2Y-2.4
X6.8Y-2.45
X7.0Y-2.5
X7.05Y-2.4
T3
X7.1837Y-2.3516
X7.1837Y-2.5484
T4
X4.25Y-2.1
X4.35Y-2.1
X4.45Y-2.1
X3.75Y-2.1
X3.85Y-2.1
X3.95Y-2.1
T5
X4.57Y-2.71
X4.57Y-2.71
X4.67Y-2.71
X4.77Y-2.71
X4.87Y-2.71
X4.57Y-3.06
X4.57Y-3.06
X4.67Y-3.06
X4.77Y-3.06
X4.87Y-3.06
X5.12Y-2.3
X5.12Y-2.4
X2.6Y-3.15
X2.7Y-3.15
X2.8Y-3.15
X2.9Y-3.15
X3.0Y-3.15
T6
X2.5Y-1.84
X2.5Y-1.94
X2.5Y-3.54
X2.5Y-3.64
X2.6Y-1.84
X2.6Y-1.94
X2.6Y-3.54
X2.6Y-3.64
X2.7Y-1.84
X2.7Y-1.94
X2.7Y-3.54
X2.7Y-3.64
X2.8Y-1.84
X2.8Y-1.94
X2.8Y-3.54
X2.8Y-3.64
X2.9Y-1.84
X2.9Y-1.94
X2.9Y-3.54
X2.9Y-3.64
X3.0Y-1.84
X3.0Y-1.94
X3.0Y-3.54
X3.0Y-3.64
X3.1Y-1.84
X3.1Y-1.94
X3.1Y-3.54
X3.1Y-3.64
X3.2Y-1.84
X3.2Y-1.94
X3.2Y-3.54
X3.2Y-3.64
X3.3Y-1.84
X3.3Y-1.94
X3.3Y-3.54
X3.3Y-3.64
X3.4Y-1.84
X3.4Y-1.94
X3.4Y-3.54
X3.4Y-3.64
X5.0Y-1.84
X5.0Y-1.94
X5.0Y-3.54
X5.0Y-3.64
X5.1Y-1.84
X5.1Y-1.94
X5.1Y-3.54
X5.1Y-3.64
X5.2Y-1.84
X5.2Y-1.94
X5.2Y-3.54
X5.2Y-3.64
X5.3Y-1.84
X5.3Y-1.94
X5.3Y-3.54
X5.3Y-3.64
X5.4Y-1.84
X5.4Y-1.94
X5.4Y-3.54
X5.4Y-3.64
X5.5Y-1.84
X5.5Y-1.94
X5.5Y-3.54
X5.5Y-3.64
X5.6Y-1.84
X5.6Y-1.94
X5.6Y-3.54
X5.6Y-3.64
X5.7Y-1.84
X5.7Y-1.94
X5.7Y-3.54
X5.7Y-3.64
X5.8Y-1.84
X5.8Y-1.94
X5.8Y-3.54
X5.8Y-3.64
X5.9Y-1.84
X5.9Y-1.94
X5.9Y-3.54
X5.9Y-3.64
T7
X6.599Y-1.69
X6.599Y-2.0
T2
G00X7.2762Y-2.3122
M15
G01X7.3038Y-2.3122
M16
G05
G00X7.3038Y-2.5878
M15
G01X7.2762Y-2.5878
M16
G05
T0
M30
