M48
; DRILL file {KiCad (5.1.6)-1} date 12/02/21 00:22:28
; FORMAT={-:-/ absolute / inch / decimal}
; #@! TF.CreationDate,2021-12-02T00:22:28-06:00
; #@! TF.GenerationSoftware,Kicad,Pcbnew,(5.1.6)-1
; #@! TF.FileFunction,NonPlated,1,2,NPTH
FMAT,2
INCH
T1C0.1358
%
G90
G05
T1
X1.1098Y-2.3851
X1.1149Y-0.5548
X1.305Y-0.555
X1.1098Y-2.0251
X1.11Y-1.835
X1.1098Y-1.2751
X1.11Y-1.085
X1.11Y-3.35
X1.11Y-3.75
X1.1098Y-1.6351
X1.11Y-1.445
X1.1098Y-3.1351
X1.11Y-2.945
X1.11Y-3.95
X1.11Y-4.35
X1.11Y-4.55
X1.11Y-4.95
X1.11Y-2.195
X1.11Y-5.15
X1.11Y-5.45
X1.5399Y-0.5548
X1.73Y-0.555
X1.1098Y-2.7751
X1.11Y-2.585
T0
M30
