M48
; DRILL file {KiCad (5.1.6)-1} date 12/02/21 00:22:28
; FORMAT={-:-/ absolute / inch / decimal}
; #@! TF.CreationDate,2021-12-02T00:22:28-06:00
; #@! TF.GenerationSoftware,Kicad,Pcbnew,(5.1.6)-1
; #@! TF.FileFunction,Plated,1,2,PTH
FMAT,2
INCH
T1C0.0157
T2C0.0300
T3C0.0354
T4C0.0362
T5C0.0394
T6C0.0906
T7C0.1598
%
G90
G05
T1
X1.1Y-4.45
X1.1Y-5.05
X1.15Y-3.85
X1.3Y-4.45
X1.3014Y-3.1713
X1.35Y-5.05
X1.365Y-1.115
X1.375Y-3.22
X1.38Y-2.25
X1.38Y-2.4
X1.38Y-2.67
X1.38Y-2.85
X1.38Y-3.05
X1.385Y-1.5
X1.385Y-1.7
X1.475Y-3.27
X1.585Y-1.775
X1.5949Y-3.9551
X1.5985Y-2.34
X1.635Y-1.725
X1.67Y-4.305
X1.67Y-4.395
X1.67Y-4.44
X1.67Y-4.345
X1.73Y-1.59
X1.7361Y-3.0664
X1.7361Y-3.775
X1.76Y-4.4239
X1.775Y-3.92
X1.81Y-3.175
X1.825Y-1.905
X1.85Y-0.9
X1.85Y-1.3
X1.85Y-1.8
X1.8813Y-4.5137
X1.895Y-1.52
X1.925Y-1.94
X1.93Y-4.545
X1.93Y-3.22
X1.985Y-3.27
X1.985Y-4.58
X1.99Y-1.905
X2.025Y-3.7
X2.115Y-1.94
X2.115Y-2.27
X2.115Y-3.125
X2.13Y-1.575
X2.21Y-2.51
X2.21Y-3.09
X2.2145Y-1.4045
X2.2544Y-4.4806
X2.255Y-1.445
X2.26Y-2.825
X2.265Y-4.395
X2.31Y-3.5
X2.31Y-4.395
X2.32Y-3.15
X2.34Y-1.655
X2.34Y-1.73
X2.34Y-1.78
X2.375Y-3.11
X2.4Y-4.055
X2.43Y-2.05
X2.43Y-2.2
X2.435Y-2.405
X2.46Y-3.075
X2.65Y-0.9
X2.65Y-1.78
X2.675Y-2.405
X2.71Y-4.4235
X2.73Y-2.2
X2.795Y-2.05
X2.8Y-3.775
X2.8Y-3.92
X2.835Y-4.055
X2.89Y-4.445
X2.91Y-2.58
X2.965Y-2.365
X3.0Y-1.5
X3.0Y-3.675
X3.045Y-3.54
X3.05Y-4.75
X3.05Y-4.95
X3.05Y-5.15
X3.05Y-5.35
X3.15Y-3.85
X3.17Y-2.785
X3.19Y-4.5735
X3.19Y-5.09
X3.23Y-1.78
X3.24Y-4.5435
X3.24Y-5.19
X3.275Y-4.225
X3.28Y-4.495
X3.28Y-5.29
X3.285Y-2.36
X3.3Y-3.65
X3.3Y-3.85
X3.3Y-4.05
X3.31Y-3.54
X3.4Y-1.5
X3.48Y-3.895
X3.48Y-4.305
X3.485Y-4.015
X3.485Y-4.13
X3.485Y-4.245
X3.49Y-3.425
X3.49Y-3.78
X3.5Y-3.305
X3.56Y-4.395
X3.61Y-4.445
X3.65Y-2.69
X3.65Y-3.665
X3.66Y-4.55
X3.665Y-5.475
X3.725Y-4.73
X3.725Y-4.925
X3.725Y-5.135
X3.725Y-5.335
X3.73Y-2.76
X3.735Y-2.09
X3.735Y-2.18
X3.74Y-2.295
X3.85Y-3.55
X3.925Y-2.68
X3.95Y-1.73
X3.98Y-4.735
X3.98Y-4.93
X3.98Y-5.135
X3.98Y-5.35
X3.985Y-2.745
X4.0Y-1.5
X4.005Y-4.55
X4.01Y-2.825
X4.01Y-2.945
X4.01Y-4.67
X4.02Y-1.655
X4.075Y-3.055
X4.105Y-4.745
X4.105Y-5.13
X4.11Y-3.665
X4.11Y-2.09
X4.125Y-3.09
X4.155Y-2.18
X4.17Y-4.55
X4.175Y-3.135
X4.175Y-3.78
X4.19Y-4.945
X4.205Y-4.13
X4.215Y-2.295
X4.215Y-4.67
X4.215Y-5.175
X4.23Y-3.895
X4.2365Y-4.3442
X4.25Y-3.55
X4.265Y-4.245
X4.295Y-4.38
X4.3Y-1.8
X4.3Y-2.25
X4.3Y-2.65
X4.315Y-3.955
X4.325Y-4.74
X4.33Y-2.825
X4.33Y-3.305
X4.34Y-5.13
X4.3809Y-4.3078
X4.415Y-2.945
X4.415Y-3.425
X4.425Y-4.015
T2
X1.45Y-5.2
T3
X1.45Y-2.99
X1.45Y-3.09
X1.45Y-4.0
X1.45Y-4.1
X1.45Y-4.2
X1.45Y-4.3
X1.45Y-4.6
X1.45Y-4.7
X1.45Y-4.8
X1.45Y-4.9
X1.45Y-2.24
X1.45Y-2.34
X1.45Y-5.3
X1.45Y-5.4
X1.585Y-0.895
X1.685Y-0.895
X1.45Y-2.63
X1.45Y-2.73
X1.16Y-0.895
X1.26Y-0.895
X1.45Y-1.88
X1.45Y-1.98
X1.45Y-1.13
X1.45Y-1.23
X1.45Y-3.4
X1.45Y-3.5
X1.45Y-3.6
X1.45Y-3.7
X1.45Y-1.49
X1.45Y-1.59
T4
X2.1344Y-1.17
X2.2328Y-1.17
X2.3116Y-1.17
X2.41Y-1.17
T5
X2.53Y-4.87
X2.63Y-4.87
X2.73Y-4.87
X2.03Y-4.87
X2.13Y-4.87
X2.23Y-4.87
X1.68Y-2.09
X1.68Y-2.19
X1.68Y-2.29
X1.68Y-2.39
X1.68Y-2.49
X1.68Y-2.59
X1.68Y-2.69
X1.68Y-2.79
X1.68Y-2.89
X1.68Y-2.99
X1.68Y-4.59
X1.68Y-4.69
X1.68Y-4.79
X1.68Y-4.89
X1.68Y-4.99
X1.68Y-5.09
X1.68Y-5.19
X1.68Y-5.29
X1.68Y-5.39
X1.68Y-5.49
X1.78Y-2.09
X1.78Y-2.19
X1.78Y-2.29
X1.78Y-2.39
X1.78Y-2.49
X1.78Y-2.59
X1.78Y-2.69
X1.78Y-2.79
X1.78Y-2.89
X1.78Y-2.99
X1.78Y-4.59
X1.78Y-4.69
X1.78Y-4.79
X1.78Y-4.89
X1.78Y-4.99
X1.78Y-5.09
X1.78Y-5.19
X1.78Y-5.29
X1.78Y-5.39
X1.78Y-5.49
X3.38Y-2.09
X3.38Y-2.19
X3.38Y-2.29
X3.38Y-2.39
X3.38Y-2.49
X3.38Y-2.59
X3.38Y-2.69
X3.38Y-2.79
X3.38Y-2.89
X3.38Y-2.99
X3.38Y-4.59
X3.38Y-4.69
X3.38Y-4.79
X3.38Y-4.89
X3.38Y-4.99
X3.38Y-5.09
X3.38Y-5.19
X3.38Y-5.29
X3.38Y-5.39
X3.38Y-5.49
X3.48Y-2.09
X3.48Y-2.19
X3.48Y-2.29
X3.48Y-2.39
X3.48Y-2.49
X3.48Y-2.59
X3.48Y-2.69
X3.48Y-2.79
X3.48Y-2.89
X3.48Y-2.99
X3.48Y-4.59
X3.48Y-4.69
X3.48Y-4.79
X3.48Y-4.89
X3.48Y-4.99
X3.48Y-5.09
X3.48Y-5.19
X3.48Y-5.29
X3.48Y-5.39
X3.48Y-5.49
T6
X2.0135Y-1.0633
X2.5309Y-1.0633
T7
X3.88Y-1.031
X4.19Y-1.031
T0
M30
