%TF.GenerationSoftware,KiCad,Pcbnew,(5.1.10)-1*%
%TF.CreationDate,2022-03-12T01:19:32-06:00*%
%TF.ProjectId,SRA_Sensor_Board,5352415f-5365-46e7-936f-725f426f6172,rev?*%
%TF.SameCoordinates,Original*%
%TF.FileFunction,Soldermask,Bot*%
%TF.FilePolarity,Negative*%
%FSLAX46Y46*%
G04 Gerber Fmt 4.6, Leading zero omitted, Abs format (unit mm)*
G04 Created by KiCad (PCBNEW (5.1.10)-1) date 2022-03-12 01:19:32*
%MOMM*%
%LPD*%
G01*
G04 APERTURE LIST*
%ADD10C,1.410000*%
%ADD11C,1.310000*%
%ADD12C,1.360000*%
%ADD13C,1.460000*%
%ADD14C,3.048400*%
%ADD15C,1.702000*%
%ADD16C,3.102000*%
%ADD17C,3.552000*%
%ADD18C,1.626000*%
%ADD19C,5.182000*%
%ADD20C,1.202000*%
%ADD21C,4.102000*%
%ADD22C,1.502000*%
%ADD23C,2.102000*%
%ADD24O,1.452000X1.452000*%
G04 APERTURE END LIST*
D10*
%TO.C,U3*%
X76962000Y-89154000D03*
X79502000Y-134874000D03*
X92202000Y-124714000D03*
D11*
X89752000Y-104124000D03*
X85752000Y-104124000D03*
D10*
X89662000Y-134874000D03*
D11*
X89752000Y-102124000D03*
D10*
X76962000Y-91694000D03*
X82042000Y-134874000D03*
X89662000Y-91694000D03*
X87122000Y-134874000D03*
D11*
X87752000Y-104124000D03*
D10*
X84582000Y-134874000D03*
X92202000Y-89154000D03*
X76962000Y-114554000D03*
X76962000Y-145034000D03*
X92202000Y-132334000D03*
X76962000Y-99314000D03*
X92202000Y-101854000D03*
X92202000Y-94234000D03*
D12*
X80012000Y-95504000D03*
D10*
X76962000Y-94234000D03*
D12*
X80012000Y-98044000D03*
D10*
X92202000Y-117094000D03*
X92202000Y-91694000D03*
X92202000Y-142494000D03*
D11*
X87752000Y-102124000D03*
D10*
X92202000Y-127254000D03*
X76962000Y-119634000D03*
D12*
X80012000Y-100584000D03*
D10*
X92202000Y-106934000D03*
X92202000Y-104394000D03*
X76962000Y-137414000D03*
X76962000Y-127254000D03*
X76962000Y-147574000D03*
X76962000Y-139954000D03*
X92202000Y-134874000D03*
X92202000Y-109474000D03*
X76962000Y-112014000D03*
D11*
X85752000Y-102124000D03*
D10*
X92202000Y-139954000D03*
X92202000Y-129794000D03*
X76962000Y-101854000D03*
D12*
X80012000Y-103124000D03*
D10*
X76962000Y-106934000D03*
X76962000Y-117094000D03*
X76962000Y-122174000D03*
X92202000Y-145034000D03*
X76962000Y-134874000D03*
X92202000Y-147574000D03*
D12*
X80012000Y-105664000D03*
D10*
X92202000Y-119634000D03*
X92202000Y-112014000D03*
X76962000Y-104394000D03*
X76962000Y-109474000D03*
X92202000Y-99314000D03*
X76962000Y-129794000D03*
X76962000Y-96774000D03*
X92202000Y-114554000D03*
X76962000Y-132334000D03*
X76962000Y-124714000D03*
X92202000Y-122174000D03*
X76962000Y-142494000D03*
X92202000Y-137414000D03*
X92202000Y-96774000D03*
%TD*%
%TO.C,U2*%
G36*
G01*
X56658000Y-94202000D02*
X55300000Y-94202000D01*
G75*
G02*
X55249000Y-94151000I0J51000D01*
G01*
X55249000Y-92793000D01*
G75*
G02*
X55300000Y-92742000I51000J0D01*
G01*
X56658000Y-92742000D01*
G75*
G02*
X56709000Y-92793000I0J-51000D01*
G01*
X56709000Y-94151000D01*
G75*
G02*
X56658000Y-94202000I-51000J0D01*
G01*
G37*
D13*
X55979000Y-90932000D03*
X55979000Y-88392000D03*
%TD*%
D14*
%TO.C,V4*%
X52324000Y-163576000D03*
%TD*%
%TO.C,V3*%
X120396000Y-163576000D03*
%TD*%
%TO.C,V2*%
X52324000Y-44704000D03*
%TD*%
%TO.C,V1*%
X120396000Y-44704000D03*
%TD*%
D15*
%TO.C,J1*%
X62850000Y-54102000D03*
X65350000Y-54102000D03*
X67350000Y-54102000D03*
G36*
G01*
X70701000Y-53302000D02*
X70701000Y-54902000D01*
G75*
G02*
X70650000Y-54953000I-51000J0D01*
G01*
X69050000Y-54953000D01*
G75*
G02*
X68999000Y-54902000I0J51000D01*
G01*
X68999000Y-53302000D01*
G75*
G02*
X69050000Y-53251000I51000J0D01*
G01*
X70650000Y-53251000D01*
G75*
G02*
X70701000Y-53302000I0J-51000D01*
G01*
G37*
D16*
X72920000Y-51392000D03*
X59780000Y-51392000D03*
%TD*%
D17*
%TO.C,Conn14*%
X128651000Y-138303000D03*
D18*
X120015000Y-137160000D03*
X120015000Y-134620000D03*
D17*
X128655000Y-133475000D03*
%TD*%
%TO.C,Conn13*%
X128651000Y-128651000D03*
D18*
X120015000Y-127508000D03*
X120015000Y-124968000D03*
D17*
X128655000Y-123823000D03*
%TD*%
%TO.C,Conn12*%
X128651000Y-116332000D03*
D18*
X120015000Y-115189000D03*
X120015000Y-112649000D03*
D17*
X128655000Y-111504000D03*
%TD*%
%TO.C,Conn11*%
X128651000Y-106426000D03*
D18*
X120015000Y-105283000D03*
X120015000Y-102743000D03*
D17*
X128655000Y-101598000D03*
%TD*%
%TO.C,Conn10*%
X128651000Y-76835000D03*
D18*
X120015000Y-75692000D03*
X120015000Y-73152000D03*
D17*
X128655000Y-72007000D03*
%TD*%
%TO.C,Conn9*%
X128651000Y-66929000D03*
D18*
X120015000Y-65786000D03*
X120015000Y-63246000D03*
D17*
X128655000Y-62101000D03*
%TD*%
%TO.C,Conn8*%
X128651000Y-96647000D03*
D18*
X120015000Y-95504000D03*
X120015000Y-92964000D03*
D17*
X128655000Y-91819000D03*
%TD*%
%TO.C,Conn7*%
X128651000Y-86741000D03*
D18*
X120015000Y-85598000D03*
X120015000Y-83058000D03*
D17*
X128655000Y-81913000D03*
%TD*%
%TO.C,Conn5*%
X128651000Y-156210000D03*
X128651000Y-146050000D03*
D18*
X120015000Y-154940000D03*
X120015000Y-152400000D03*
X120015000Y-149860000D03*
X120015000Y-147320000D03*
%TD*%
D17*
%TO.C,Conn4*%
X95504000Y-172466000D03*
X105664000Y-172466000D03*
D18*
X96774000Y-163830000D03*
X99314000Y-163830000D03*
X101854000Y-163830000D03*
X104394000Y-163830000D03*
%TD*%
D17*
%TO.C,Conn2*%
X62230000Y-172212000D03*
X72390000Y-172212000D03*
D18*
X63500000Y-163576000D03*
X66040000Y-163576000D03*
X68580000Y-163576000D03*
X71120000Y-163576000D03*
%TD*%
D19*
%TO.C,Conn1*%
X110490000Y-52857400D03*
X102616000Y-52857400D03*
%TD*%
D20*
%TO.C,J3*%
X82040000Y-60498000D03*
X84580000Y-60498000D03*
X87120000Y-60498000D03*
X89660000Y-60498000D03*
X83310000Y-57958000D03*
X85850000Y-57958000D03*
X88390000Y-57958000D03*
X90930000Y-57958000D03*
D21*
X80770000Y-51608000D03*
X92200000Y-51608000D03*
D22*
X82700000Y-46528000D03*
X90270000Y-48318000D03*
X80160000Y-48318000D03*
X92810000Y-46528000D03*
D23*
X94360000Y-54658000D03*
X78610000Y-54658000D03*
%TD*%
D24*
%TO.C,J2*%
X92392000Y-63659000D03*
X92392000Y-65659000D03*
X90392000Y-63659000D03*
X90392000Y-65659000D03*
X88392000Y-63659000D03*
G36*
G01*
X89067000Y-66385000D02*
X87717000Y-66385000D01*
G75*
G02*
X87666000Y-66334000I0J51000D01*
G01*
X87666000Y-64984000D01*
G75*
G02*
X87717000Y-64933000I51000J0D01*
G01*
X89067000Y-64933000D01*
G75*
G02*
X89118000Y-64984000I0J-51000D01*
G01*
X89118000Y-66334000D01*
G75*
G02*
X89067000Y-66385000I-51000J0D01*
G01*
G37*
%TD*%
D18*
%TO.C,Conn3*%
X88900000Y-163830000D03*
X86360000Y-163830000D03*
X83820000Y-163830000D03*
X81280000Y-163830000D03*
X78740000Y-163830000D03*
D17*
X90170000Y-172466000D03*
X77470000Y-172466000D03*
%TD*%
D18*
%TO.C,U1*%
X65532000Y-76327000D03*
X65532000Y-78867000D03*
X65532000Y-81407000D03*
%TD*%
M02*
