%TF.GenerationSoftware,KiCad,Pcbnew,(5.1.6)-1*%
%TF.CreationDate,2021-11-17T19:09:55-06:00*%
%TF.ProjectId,SRA_Sensor_Board,5352415f-5365-46e7-936f-725f426f6172,rev?*%
%TF.SameCoordinates,Original*%
%TF.FileFunction,Legend,Top*%
%TF.FilePolarity,Positive*%
%FSLAX46Y46*%
G04 Gerber Fmt 4.6, Leading zero omitted, Abs format (unit mm)*
G04 Created by KiCad (PCBNEW (5.1.6)-1) date 2021-11-17 19:09:55*
%MOMM*%
%LPD*%
G01*
G04 APERTURE LIST*
%ADD10C,0.150000*%
%ADD11C,0.120000*%
G04 APERTURE END LIST*
D10*
X25418142Y-65090523D02*
X25418142Y-63820523D01*
X25901952Y-63820523D01*
X26022904Y-63881000D01*
X26083380Y-63941476D01*
X26143857Y-64062428D01*
X26143857Y-64243857D01*
X26083380Y-64364809D01*
X26022904Y-64425285D01*
X25901952Y-64485761D01*
X25418142Y-64485761D01*
X26688142Y-65090523D02*
X26688142Y-63820523D01*
X27232428Y-65090523D02*
X27232428Y-64425285D01*
X27171952Y-64304333D01*
X27050999Y-64243857D01*
X26869571Y-64243857D01*
X26748619Y-64304333D01*
X26688142Y-64364809D01*
X28018619Y-65090523D02*
X27897666Y-65030047D01*
X27837190Y-64969571D01*
X27776714Y-64848619D01*
X27776714Y-64485761D01*
X27837190Y-64364809D01*
X27897666Y-64304333D01*
X28018619Y-64243857D01*
X28200047Y-64243857D01*
X28320999Y-64304333D01*
X28381476Y-64364809D01*
X28441952Y-64485761D01*
X28441952Y-64848619D01*
X28381476Y-64969571D01*
X28320999Y-65030047D01*
X28200047Y-65090523D01*
X28018619Y-65090523D01*
X28804809Y-64243857D02*
X29288619Y-64243857D01*
X28986238Y-63820523D02*
X28986238Y-64909095D01*
X29046714Y-65030047D01*
X29167666Y-65090523D01*
X29288619Y-65090523D01*
X29893380Y-65090523D02*
X29772428Y-65030047D01*
X29711952Y-64969571D01*
X29651476Y-64848619D01*
X29651476Y-64485761D01*
X29711952Y-64364809D01*
X29772428Y-64304333D01*
X29893380Y-64243857D01*
X30074809Y-64243857D01*
X30195761Y-64304333D01*
X30256238Y-64364809D01*
X30316714Y-64485761D01*
X30316714Y-64848619D01*
X30256238Y-64969571D01*
X30195761Y-65030047D01*
X30074809Y-65090523D01*
X29893380Y-65090523D01*
X31405285Y-65090523D02*
X31405285Y-63820523D01*
X31405285Y-65030047D02*
X31284333Y-65090523D01*
X31042428Y-65090523D01*
X30921476Y-65030047D01*
X30860999Y-64969571D01*
X30800523Y-64848619D01*
X30800523Y-64485761D01*
X30860999Y-64364809D01*
X30921476Y-64304333D01*
X31042428Y-64243857D01*
X31284333Y-64243857D01*
X31405285Y-64304333D01*
X32010047Y-65090523D02*
X32010047Y-64243857D01*
X32010047Y-63820523D02*
X31949571Y-63881000D01*
X32010047Y-63941476D01*
X32070523Y-63881000D01*
X32010047Y-63820523D01*
X32010047Y-63941476D01*
X32796238Y-65090523D02*
X32675285Y-65030047D01*
X32614809Y-64969571D01*
X32554333Y-64848619D01*
X32554333Y-64485761D01*
X32614809Y-64364809D01*
X32675285Y-64304333D01*
X32796238Y-64243857D01*
X32977666Y-64243857D01*
X33098619Y-64304333D01*
X33159095Y-64364809D01*
X33219571Y-64485761D01*
X33219571Y-64848619D01*
X33159095Y-64969571D01*
X33098619Y-65030047D01*
X32977666Y-65090523D01*
X32796238Y-65090523D01*
X34308142Y-65090523D02*
X34308142Y-63820523D01*
X34308142Y-65030047D02*
X34187190Y-65090523D01*
X33945285Y-65090523D01*
X33824333Y-65030047D01*
X33763857Y-64969571D01*
X33703380Y-64848619D01*
X33703380Y-64485761D01*
X33763857Y-64364809D01*
X33824333Y-64304333D01*
X33945285Y-64243857D01*
X34187190Y-64243857D01*
X34308142Y-64304333D01*
X35396714Y-65030047D02*
X35275761Y-65090523D01*
X35033857Y-65090523D01*
X34912904Y-65030047D01*
X34852428Y-64909095D01*
X34852428Y-64425285D01*
X34912904Y-64304333D01*
X35033857Y-64243857D01*
X35275761Y-64243857D01*
X35396714Y-64304333D01*
X35457190Y-64425285D01*
X35457190Y-64546238D01*
X34852428Y-64667190D01*
X36848142Y-63820523D02*
X37634333Y-63820523D01*
X37211000Y-64304333D01*
X37392428Y-64304333D01*
X37513380Y-64364809D01*
X37573857Y-64425285D01*
X37634333Y-64546238D01*
X37634333Y-64848619D01*
X37573857Y-64969571D01*
X37513380Y-65030047D01*
X37392428Y-65090523D01*
X37029571Y-65090523D01*
X36908619Y-65030047D01*
X36848142Y-64969571D01*
X25545142Y-45913523D02*
X25545142Y-44643523D01*
X26028952Y-44643523D01*
X26149904Y-44704000D01*
X26210380Y-44764476D01*
X26270857Y-44885428D01*
X26270857Y-45066857D01*
X26210380Y-45187809D01*
X26149904Y-45248285D01*
X26028952Y-45308761D01*
X25545142Y-45308761D01*
X26815142Y-45913523D02*
X26815142Y-44643523D01*
X27359428Y-45913523D02*
X27359428Y-45248285D01*
X27298952Y-45127333D01*
X27177999Y-45066857D01*
X26996571Y-45066857D01*
X26875619Y-45127333D01*
X26815142Y-45187809D01*
X28145619Y-45913523D02*
X28024666Y-45853047D01*
X27964190Y-45792571D01*
X27903714Y-45671619D01*
X27903714Y-45308761D01*
X27964190Y-45187809D01*
X28024666Y-45127333D01*
X28145619Y-45066857D01*
X28327047Y-45066857D01*
X28447999Y-45127333D01*
X28508476Y-45187809D01*
X28568952Y-45308761D01*
X28568952Y-45671619D01*
X28508476Y-45792571D01*
X28447999Y-45853047D01*
X28327047Y-45913523D01*
X28145619Y-45913523D01*
X28931809Y-45066857D02*
X29415619Y-45066857D01*
X29113238Y-44643523D02*
X29113238Y-45732095D01*
X29173714Y-45853047D01*
X29294666Y-45913523D01*
X29415619Y-45913523D01*
X30020380Y-45913523D02*
X29899428Y-45853047D01*
X29838952Y-45792571D01*
X29778476Y-45671619D01*
X29778476Y-45308761D01*
X29838952Y-45187809D01*
X29899428Y-45127333D01*
X30020380Y-45066857D01*
X30201809Y-45066857D01*
X30322761Y-45127333D01*
X30383238Y-45187809D01*
X30443714Y-45308761D01*
X30443714Y-45671619D01*
X30383238Y-45792571D01*
X30322761Y-45853047D01*
X30201809Y-45913523D01*
X30020380Y-45913523D01*
X31532285Y-45913523D02*
X31532285Y-44643523D01*
X31532285Y-45853047D02*
X31411333Y-45913523D01*
X31169428Y-45913523D01*
X31048476Y-45853047D01*
X30987999Y-45792571D01*
X30927523Y-45671619D01*
X30927523Y-45308761D01*
X30987999Y-45187809D01*
X31048476Y-45127333D01*
X31169428Y-45066857D01*
X31411333Y-45066857D01*
X31532285Y-45127333D01*
X32137047Y-45913523D02*
X32137047Y-45066857D01*
X32137047Y-44643523D02*
X32076571Y-44704000D01*
X32137047Y-44764476D01*
X32197523Y-44704000D01*
X32137047Y-44643523D01*
X32137047Y-44764476D01*
X32923238Y-45913523D02*
X32802285Y-45853047D01*
X32741809Y-45792571D01*
X32681333Y-45671619D01*
X32681333Y-45308761D01*
X32741809Y-45187809D01*
X32802285Y-45127333D01*
X32923238Y-45066857D01*
X33104666Y-45066857D01*
X33225619Y-45127333D01*
X33286095Y-45187809D01*
X33346571Y-45308761D01*
X33346571Y-45671619D01*
X33286095Y-45792571D01*
X33225619Y-45853047D01*
X33104666Y-45913523D01*
X32923238Y-45913523D01*
X34435142Y-45913523D02*
X34435142Y-44643523D01*
X34435142Y-45853047D02*
X34314190Y-45913523D01*
X34072285Y-45913523D01*
X33951333Y-45853047D01*
X33890857Y-45792571D01*
X33830380Y-45671619D01*
X33830380Y-45308761D01*
X33890857Y-45187809D01*
X33951333Y-45127333D01*
X34072285Y-45066857D01*
X34314190Y-45066857D01*
X34435142Y-45127333D01*
X35523714Y-45853047D02*
X35402761Y-45913523D01*
X35160857Y-45913523D01*
X35039904Y-45853047D01*
X34979428Y-45732095D01*
X34979428Y-45248285D01*
X35039904Y-45127333D01*
X35160857Y-45066857D01*
X35402761Y-45066857D01*
X35523714Y-45127333D01*
X35584190Y-45248285D01*
X35584190Y-45369238D01*
X34979428Y-45490190D01*
X37035619Y-44764476D02*
X37096095Y-44704000D01*
X37217047Y-44643523D01*
X37519428Y-44643523D01*
X37640380Y-44704000D01*
X37700857Y-44764476D01*
X37761333Y-44885428D01*
X37761333Y-45006380D01*
X37700857Y-45187809D01*
X36975142Y-45913523D01*
X37761333Y-45913523D01*
X25418142Y-26990523D02*
X25418142Y-25720523D01*
X25901952Y-25720523D01*
X26022904Y-25781000D01*
X26083380Y-25841476D01*
X26143857Y-25962428D01*
X26143857Y-26143857D01*
X26083380Y-26264809D01*
X26022904Y-26325285D01*
X25901952Y-26385761D01*
X25418142Y-26385761D01*
X26688142Y-26990523D02*
X26688142Y-25720523D01*
X27232428Y-26990523D02*
X27232428Y-26325285D01*
X27171952Y-26204333D01*
X27050999Y-26143857D01*
X26869571Y-26143857D01*
X26748619Y-26204333D01*
X26688142Y-26264809D01*
X28018619Y-26990523D02*
X27897666Y-26930047D01*
X27837190Y-26869571D01*
X27776714Y-26748619D01*
X27776714Y-26385761D01*
X27837190Y-26264809D01*
X27897666Y-26204333D01*
X28018619Y-26143857D01*
X28200047Y-26143857D01*
X28320999Y-26204333D01*
X28381476Y-26264809D01*
X28441952Y-26385761D01*
X28441952Y-26748619D01*
X28381476Y-26869571D01*
X28320999Y-26930047D01*
X28200047Y-26990523D01*
X28018619Y-26990523D01*
X28804809Y-26143857D02*
X29288619Y-26143857D01*
X28986238Y-25720523D02*
X28986238Y-26809095D01*
X29046714Y-26930047D01*
X29167666Y-26990523D01*
X29288619Y-26990523D01*
X29893380Y-26990523D02*
X29772428Y-26930047D01*
X29711952Y-26869571D01*
X29651476Y-26748619D01*
X29651476Y-26385761D01*
X29711952Y-26264809D01*
X29772428Y-26204333D01*
X29893380Y-26143857D01*
X30074809Y-26143857D01*
X30195761Y-26204333D01*
X30256238Y-26264809D01*
X30316714Y-26385761D01*
X30316714Y-26748619D01*
X30256238Y-26869571D01*
X30195761Y-26930047D01*
X30074809Y-26990523D01*
X29893380Y-26990523D01*
X31405285Y-26990523D02*
X31405285Y-25720523D01*
X31405285Y-26930047D02*
X31284333Y-26990523D01*
X31042428Y-26990523D01*
X30921476Y-26930047D01*
X30860999Y-26869571D01*
X30800523Y-26748619D01*
X30800523Y-26385761D01*
X30860999Y-26264809D01*
X30921476Y-26204333D01*
X31042428Y-26143857D01*
X31284333Y-26143857D01*
X31405285Y-26204333D01*
X32010047Y-26990523D02*
X32010047Y-26143857D01*
X32010047Y-25720523D02*
X31949571Y-25781000D01*
X32010047Y-25841476D01*
X32070523Y-25781000D01*
X32010047Y-25720523D01*
X32010047Y-25841476D01*
X32796238Y-26990523D02*
X32675285Y-26930047D01*
X32614809Y-26869571D01*
X32554333Y-26748619D01*
X32554333Y-26385761D01*
X32614809Y-26264809D01*
X32675285Y-26204333D01*
X32796238Y-26143857D01*
X32977666Y-26143857D01*
X33098619Y-26204333D01*
X33159095Y-26264809D01*
X33219571Y-26385761D01*
X33219571Y-26748619D01*
X33159095Y-26869571D01*
X33098619Y-26930047D01*
X32977666Y-26990523D01*
X32796238Y-26990523D01*
X34308142Y-26990523D02*
X34308142Y-25720523D01*
X34308142Y-26930047D02*
X34187190Y-26990523D01*
X33945285Y-26990523D01*
X33824333Y-26930047D01*
X33763857Y-26869571D01*
X33703380Y-26748619D01*
X33703380Y-26385761D01*
X33763857Y-26264809D01*
X33824333Y-26204333D01*
X33945285Y-26143857D01*
X34187190Y-26143857D01*
X34308142Y-26204333D01*
X35396714Y-26930047D02*
X35275761Y-26990523D01*
X35033857Y-26990523D01*
X34912904Y-26930047D01*
X34852428Y-26809095D01*
X34852428Y-26325285D01*
X34912904Y-26204333D01*
X35033857Y-26143857D01*
X35275761Y-26143857D01*
X35396714Y-26204333D01*
X35457190Y-26325285D01*
X35457190Y-26446238D01*
X34852428Y-26567190D01*
X37634333Y-26990523D02*
X36908619Y-26990523D01*
X37271476Y-26990523D02*
X37271476Y-25720523D01*
X37150523Y-25901952D01*
X37029571Y-26022904D01*
X36908619Y-26083380D01*
X41141428Y-149059761D02*
X41284285Y-149107380D01*
X41522380Y-149107380D01*
X41617619Y-149059761D01*
X41665238Y-149012142D01*
X41712857Y-148916904D01*
X41712857Y-148821666D01*
X41665238Y-148726428D01*
X41617619Y-148678809D01*
X41522380Y-148631190D01*
X41331904Y-148583571D01*
X41236666Y-148535952D01*
X41189047Y-148488333D01*
X41141428Y-148393095D01*
X41141428Y-148297857D01*
X41189047Y-148202619D01*
X41236666Y-148155000D01*
X41331904Y-148107380D01*
X41570000Y-148107380D01*
X41712857Y-148155000D01*
X42570000Y-149059761D02*
X42474761Y-149107380D01*
X42284285Y-149107380D01*
X42189047Y-149059761D01*
X42141428Y-149012142D01*
X42093809Y-148916904D01*
X42093809Y-148631190D01*
X42141428Y-148535952D01*
X42189047Y-148488333D01*
X42284285Y-148440714D01*
X42474761Y-148440714D01*
X42570000Y-148488333D01*
X42998571Y-149107380D02*
X42998571Y-148440714D01*
X42998571Y-148107380D02*
X42950952Y-148155000D01*
X42998571Y-148202619D01*
X43046190Y-148155000D01*
X42998571Y-148107380D01*
X42998571Y-148202619D01*
X43855714Y-149059761D02*
X43760476Y-149107380D01*
X43570000Y-149107380D01*
X43474761Y-149059761D01*
X43427142Y-148964523D01*
X43427142Y-148583571D01*
X43474761Y-148488333D01*
X43570000Y-148440714D01*
X43760476Y-148440714D01*
X43855714Y-148488333D01*
X43903333Y-148583571D01*
X43903333Y-148678809D01*
X43427142Y-148774047D01*
X44331904Y-148440714D02*
X44331904Y-149107380D01*
X44331904Y-148535952D02*
X44379523Y-148488333D01*
X44474761Y-148440714D01*
X44617619Y-148440714D01*
X44712857Y-148488333D01*
X44760476Y-148583571D01*
X44760476Y-149107380D01*
X45665238Y-149059761D02*
X45570000Y-149107380D01*
X45379523Y-149107380D01*
X45284285Y-149059761D01*
X45236666Y-149012142D01*
X45189047Y-148916904D01*
X45189047Y-148631190D01*
X45236666Y-148535952D01*
X45284285Y-148488333D01*
X45379523Y-148440714D01*
X45570000Y-148440714D01*
X45665238Y-148488333D01*
X46474761Y-149059761D02*
X46379523Y-149107380D01*
X46189047Y-149107380D01*
X46093809Y-149059761D01*
X46046190Y-148964523D01*
X46046190Y-148583571D01*
X46093809Y-148488333D01*
X46189047Y-148440714D01*
X46379523Y-148440714D01*
X46474761Y-148488333D01*
X46522380Y-148583571D01*
X46522380Y-148678809D01*
X46046190Y-148774047D01*
X47665238Y-149059761D02*
X47808095Y-149107380D01*
X48046190Y-149107380D01*
X48141428Y-149059761D01*
X48189047Y-149012142D01*
X48236666Y-148916904D01*
X48236666Y-148821666D01*
X48189047Y-148726428D01*
X48141428Y-148678809D01*
X48046190Y-148631190D01*
X47855714Y-148583571D01*
X47760476Y-148535952D01*
X47712857Y-148488333D01*
X47665238Y-148393095D01*
X47665238Y-148297857D01*
X47712857Y-148202619D01*
X47760476Y-148155000D01*
X47855714Y-148107380D01*
X48093809Y-148107380D01*
X48236666Y-148155000D01*
X49046190Y-149059761D02*
X48950952Y-149107380D01*
X48760476Y-149107380D01*
X48665238Y-149059761D01*
X48617619Y-148964523D01*
X48617619Y-148583571D01*
X48665238Y-148488333D01*
X48760476Y-148440714D01*
X48950952Y-148440714D01*
X49046190Y-148488333D01*
X49093809Y-148583571D01*
X49093809Y-148678809D01*
X48617619Y-148774047D01*
X49522380Y-148440714D02*
X49522380Y-149107380D01*
X49522380Y-148535952D02*
X49570000Y-148488333D01*
X49665238Y-148440714D01*
X49808095Y-148440714D01*
X49903333Y-148488333D01*
X49950952Y-148583571D01*
X49950952Y-149107380D01*
X50379523Y-149059761D02*
X50474761Y-149107380D01*
X50665238Y-149107380D01*
X50760476Y-149059761D01*
X50808095Y-148964523D01*
X50808095Y-148916904D01*
X50760476Y-148821666D01*
X50665238Y-148774047D01*
X50522380Y-148774047D01*
X50427142Y-148726428D01*
X50379523Y-148631190D01*
X50379523Y-148583571D01*
X50427142Y-148488333D01*
X50522380Y-148440714D01*
X50665238Y-148440714D01*
X50760476Y-148488333D01*
X51379523Y-149107380D02*
X51284285Y-149059761D01*
X51236666Y-149012142D01*
X51189047Y-148916904D01*
X51189047Y-148631190D01*
X51236666Y-148535952D01*
X51284285Y-148488333D01*
X51379523Y-148440714D01*
X51522380Y-148440714D01*
X51617619Y-148488333D01*
X51665238Y-148535952D01*
X51712857Y-148631190D01*
X51712857Y-148916904D01*
X51665238Y-149012142D01*
X51617619Y-149059761D01*
X51522380Y-149107380D01*
X51379523Y-149107380D01*
X52141428Y-149107380D02*
X52141428Y-148440714D01*
X52141428Y-148631190D02*
X52189047Y-148535952D01*
X52236666Y-148488333D01*
X52331904Y-148440714D01*
X52427142Y-148440714D01*
X53855714Y-148583571D02*
X53998571Y-148631190D01*
X54046190Y-148678809D01*
X54093809Y-148774047D01*
X54093809Y-148916904D01*
X54046190Y-149012142D01*
X53998571Y-149059761D01*
X53903333Y-149107380D01*
X53522380Y-149107380D01*
X53522380Y-148107380D01*
X53855714Y-148107380D01*
X53950952Y-148155000D01*
X53998571Y-148202619D01*
X54046190Y-148297857D01*
X54046190Y-148393095D01*
X53998571Y-148488333D01*
X53950952Y-148535952D01*
X53855714Y-148583571D01*
X53522380Y-148583571D01*
X54665238Y-149107380D02*
X54570000Y-149059761D01*
X54522380Y-149012142D01*
X54474761Y-148916904D01*
X54474761Y-148631190D01*
X54522380Y-148535952D01*
X54570000Y-148488333D01*
X54665238Y-148440714D01*
X54808095Y-148440714D01*
X54903333Y-148488333D01*
X54950952Y-148535952D01*
X54998571Y-148631190D01*
X54998571Y-148916904D01*
X54950952Y-149012142D01*
X54903333Y-149059761D01*
X54808095Y-149107380D01*
X54665238Y-149107380D01*
X55855714Y-149107380D02*
X55855714Y-148583571D01*
X55808095Y-148488333D01*
X55712857Y-148440714D01*
X55522380Y-148440714D01*
X55427142Y-148488333D01*
X55855714Y-149059761D02*
X55760476Y-149107380D01*
X55522380Y-149107380D01*
X55427142Y-149059761D01*
X55379523Y-148964523D01*
X55379523Y-148869285D01*
X55427142Y-148774047D01*
X55522380Y-148726428D01*
X55760476Y-148726428D01*
X55855714Y-148678809D01*
X56331904Y-149107380D02*
X56331904Y-148440714D01*
X56331904Y-148631190D02*
X56379523Y-148535952D01*
X56427142Y-148488333D01*
X56522380Y-148440714D01*
X56617619Y-148440714D01*
X57379523Y-149107380D02*
X57379523Y-148107380D01*
X57379523Y-149059761D02*
X57284285Y-149107380D01*
X57093809Y-149107380D01*
X56998571Y-149059761D01*
X56950952Y-149012142D01*
X56903333Y-148916904D01*
X56903333Y-148631190D01*
X56950952Y-148535952D01*
X56998571Y-148488333D01*
X57093809Y-148440714D01*
X57284285Y-148440714D01*
X57379523Y-148488333D01*
X57903333Y-149059761D02*
X57903333Y-149107380D01*
X57855714Y-149202619D01*
X57808095Y-149250238D01*
X59665238Y-149107380D02*
X59331904Y-148631190D01*
X59093809Y-149107380D02*
X59093809Y-148107380D01*
X59474761Y-148107380D01*
X59570000Y-148155000D01*
X59617619Y-148202619D01*
X59665238Y-148297857D01*
X59665238Y-148440714D01*
X59617619Y-148535952D01*
X59570000Y-148583571D01*
X59474761Y-148631190D01*
X59093809Y-148631190D01*
X60474761Y-149059761D02*
X60379523Y-149107380D01*
X60189047Y-149107380D01*
X60093809Y-149059761D01*
X60046190Y-148964523D01*
X60046190Y-148583571D01*
X60093809Y-148488333D01*
X60189047Y-148440714D01*
X60379523Y-148440714D01*
X60474761Y-148488333D01*
X60522380Y-148583571D01*
X60522380Y-148678809D01*
X60046190Y-148774047D01*
X60855714Y-148440714D02*
X61093809Y-149107380D01*
X61331904Y-148440714D01*
X62998571Y-149107380D02*
X62427142Y-149107380D01*
X62712857Y-149107380D02*
X62712857Y-148107380D01*
X62617619Y-148250238D01*
X62522380Y-148345476D01*
X62427142Y-148393095D01*
X42950952Y-150757380D02*
X42950952Y-149757380D01*
X43284285Y-150471666D01*
X43617619Y-149757380D01*
X43617619Y-150757380D01*
X44522380Y-150757380D02*
X44522380Y-150233571D01*
X44474761Y-150138333D01*
X44379523Y-150090714D01*
X44189047Y-150090714D01*
X44093809Y-150138333D01*
X44522380Y-150709761D02*
X44427142Y-150757380D01*
X44189047Y-150757380D01*
X44093809Y-150709761D01*
X44046190Y-150614523D01*
X44046190Y-150519285D01*
X44093809Y-150424047D01*
X44189047Y-150376428D01*
X44427142Y-150376428D01*
X44522380Y-150328809D01*
X44998571Y-150757380D02*
X44998571Y-150090714D01*
X44998571Y-150281190D02*
X45046190Y-150185952D01*
X45093809Y-150138333D01*
X45189047Y-150090714D01*
X45284285Y-150090714D01*
X45570000Y-150709761D02*
X45665238Y-150757380D01*
X45855714Y-150757380D01*
X45950952Y-150709761D01*
X45998571Y-150614523D01*
X45998571Y-150566904D01*
X45950952Y-150471666D01*
X45855714Y-150424047D01*
X45712857Y-150424047D01*
X45617619Y-150376428D01*
X45570000Y-150281190D01*
X45570000Y-150233571D01*
X45617619Y-150138333D01*
X45712857Y-150090714D01*
X45855714Y-150090714D01*
X45950952Y-150138333D01*
X47760476Y-150757380D02*
X47427142Y-150281190D01*
X47189047Y-150757380D02*
X47189047Y-149757380D01*
X47570000Y-149757380D01*
X47665238Y-149805000D01*
X47712857Y-149852619D01*
X47760476Y-149947857D01*
X47760476Y-150090714D01*
X47712857Y-150185952D01*
X47665238Y-150233571D01*
X47570000Y-150281190D01*
X47189047Y-150281190D01*
X48331904Y-150757380D02*
X48236666Y-150709761D01*
X48189047Y-150662142D01*
X48141428Y-150566904D01*
X48141428Y-150281190D01*
X48189047Y-150185952D01*
X48236666Y-150138333D01*
X48331904Y-150090714D01*
X48474761Y-150090714D01*
X48570000Y-150138333D01*
X48617619Y-150185952D01*
X48665238Y-150281190D01*
X48665238Y-150566904D01*
X48617619Y-150662142D01*
X48570000Y-150709761D01*
X48474761Y-150757380D01*
X48331904Y-150757380D01*
X48998571Y-150090714D02*
X49236666Y-150757380D01*
X49474761Y-150090714D01*
X50236666Y-150709761D02*
X50141428Y-150757380D01*
X49950952Y-150757380D01*
X49855714Y-150709761D01*
X49808095Y-150614523D01*
X49808095Y-150233571D01*
X49855714Y-150138333D01*
X49950952Y-150090714D01*
X50141428Y-150090714D01*
X50236666Y-150138333D01*
X50284285Y-150233571D01*
X50284285Y-150328809D01*
X49808095Y-150424047D01*
X50712857Y-150757380D02*
X50712857Y-150090714D01*
X50712857Y-150281190D02*
X50760476Y-150185952D01*
X50808095Y-150138333D01*
X50903333Y-150090714D01*
X50998571Y-150090714D01*
X52093809Y-150757380D02*
X52093809Y-149757380D01*
X52331904Y-149757380D01*
X52474761Y-149805000D01*
X52570000Y-149900238D01*
X52617619Y-149995476D01*
X52665238Y-150185952D01*
X52665238Y-150328809D01*
X52617619Y-150519285D01*
X52570000Y-150614523D01*
X52474761Y-150709761D01*
X52331904Y-150757380D01*
X52093809Y-150757380D01*
X53474761Y-150709761D02*
X53379523Y-150757380D01*
X53189047Y-150757380D01*
X53093809Y-150709761D01*
X53046190Y-150614523D01*
X53046190Y-150233571D01*
X53093809Y-150138333D01*
X53189047Y-150090714D01*
X53379523Y-150090714D01*
X53474761Y-150138333D01*
X53522380Y-150233571D01*
X53522380Y-150328809D01*
X53046190Y-150424047D01*
X53903333Y-150709761D02*
X53998571Y-150757380D01*
X54189047Y-150757380D01*
X54284285Y-150709761D01*
X54331904Y-150614523D01*
X54331904Y-150566904D01*
X54284285Y-150471666D01*
X54189047Y-150424047D01*
X54046190Y-150424047D01*
X53950952Y-150376428D01*
X53903333Y-150281190D01*
X53903333Y-150233571D01*
X53950952Y-150138333D01*
X54046190Y-150090714D01*
X54189047Y-150090714D01*
X54284285Y-150138333D01*
X54760476Y-150757380D02*
X54760476Y-150090714D01*
X54760476Y-149757380D02*
X54712857Y-149805000D01*
X54760476Y-149852619D01*
X54808095Y-149805000D01*
X54760476Y-149757380D01*
X54760476Y-149852619D01*
X55665238Y-150090714D02*
X55665238Y-150900238D01*
X55617619Y-150995476D01*
X55570000Y-151043095D01*
X55474761Y-151090714D01*
X55331904Y-151090714D01*
X55236666Y-151043095D01*
X55665238Y-150709761D02*
X55570000Y-150757380D01*
X55379523Y-150757380D01*
X55284285Y-150709761D01*
X55236666Y-150662142D01*
X55189047Y-150566904D01*
X55189047Y-150281190D01*
X55236666Y-150185952D01*
X55284285Y-150138333D01*
X55379523Y-150090714D01*
X55570000Y-150090714D01*
X55665238Y-150138333D01*
X56141428Y-150090714D02*
X56141428Y-150757380D01*
X56141428Y-150185952D02*
X56189047Y-150138333D01*
X56284285Y-150090714D01*
X56427142Y-150090714D01*
X56522380Y-150138333D01*
X56570000Y-150233571D01*
X56570000Y-150757380D01*
X57665238Y-149757380D02*
X58236666Y-149757380D01*
X57950952Y-150757380D02*
X57950952Y-149757380D01*
X58950952Y-150709761D02*
X58855714Y-150757380D01*
X58665238Y-150757380D01*
X58570000Y-150709761D01*
X58522380Y-150614523D01*
X58522380Y-150233571D01*
X58570000Y-150138333D01*
X58665238Y-150090714D01*
X58855714Y-150090714D01*
X58950952Y-150138333D01*
X58998571Y-150233571D01*
X58998571Y-150328809D01*
X58522380Y-150424047D01*
X59855714Y-150757380D02*
X59855714Y-150233571D01*
X59808095Y-150138333D01*
X59712857Y-150090714D01*
X59522380Y-150090714D01*
X59427142Y-150138333D01*
X59855714Y-150709761D02*
X59760476Y-150757380D01*
X59522380Y-150757380D01*
X59427142Y-150709761D01*
X59379523Y-150614523D01*
X59379523Y-150519285D01*
X59427142Y-150424047D01*
X59522380Y-150376428D01*
X59760476Y-150376428D01*
X59855714Y-150328809D01*
X60331904Y-150757380D02*
X60331904Y-150090714D01*
X60331904Y-150185952D02*
X60379523Y-150138333D01*
X60474761Y-150090714D01*
X60617619Y-150090714D01*
X60712857Y-150138333D01*
X60760476Y-150233571D01*
X60760476Y-150757380D01*
X60760476Y-150233571D02*
X60808095Y-150138333D01*
X60903333Y-150090714D01*
X61046190Y-150090714D01*
X61141428Y-150138333D01*
X61189047Y-150233571D01*
X61189047Y-150757380D01*
X43522380Y-152407380D02*
X43522380Y-151407380D01*
X43855714Y-152121666D01*
X44189047Y-151407380D01*
X44189047Y-152407380D01*
X44665238Y-152407380D02*
X44665238Y-151740714D01*
X44665238Y-151407380D02*
X44617619Y-151455000D01*
X44665238Y-151502619D01*
X44712857Y-151455000D01*
X44665238Y-151407380D01*
X44665238Y-151502619D01*
X45093809Y-152359761D02*
X45189047Y-152407380D01*
X45379523Y-152407380D01*
X45474761Y-152359761D01*
X45522380Y-152264523D01*
X45522380Y-152216904D01*
X45474761Y-152121666D01*
X45379523Y-152074047D01*
X45236666Y-152074047D01*
X45141428Y-152026428D01*
X45093809Y-151931190D01*
X45093809Y-151883571D01*
X45141428Y-151788333D01*
X45236666Y-151740714D01*
X45379523Y-151740714D01*
X45474761Y-151788333D01*
X45903333Y-152359761D02*
X45998571Y-152407380D01*
X46189047Y-152407380D01*
X46284285Y-152359761D01*
X46331904Y-152264523D01*
X46331904Y-152216904D01*
X46284285Y-152121666D01*
X46189047Y-152074047D01*
X46046190Y-152074047D01*
X45950952Y-152026428D01*
X45903333Y-151931190D01*
X45903333Y-151883571D01*
X45950952Y-151788333D01*
X46046190Y-151740714D01*
X46189047Y-151740714D01*
X46284285Y-151788333D01*
X46903333Y-152407380D02*
X46808095Y-152359761D01*
X46760476Y-152312142D01*
X46712857Y-152216904D01*
X46712857Y-151931190D01*
X46760476Y-151835952D01*
X46808095Y-151788333D01*
X46903333Y-151740714D01*
X47046190Y-151740714D01*
X47141428Y-151788333D01*
X47189047Y-151835952D01*
X47236666Y-151931190D01*
X47236666Y-152216904D01*
X47189047Y-152312142D01*
X47141428Y-152359761D01*
X47046190Y-152407380D01*
X46903333Y-152407380D01*
X48093809Y-151740714D02*
X48093809Y-152407380D01*
X47665238Y-151740714D02*
X47665238Y-152264523D01*
X47712857Y-152359761D01*
X47808095Y-152407380D01*
X47950952Y-152407380D01*
X48046190Y-152359761D01*
X48093809Y-152312142D01*
X48570000Y-152407380D02*
X48570000Y-151740714D01*
X48570000Y-151931190D02*
X48617619Y-151835952D01*
X48665238Y-151788333D01*
X48760476Y-151740714D01*
X48855714Y-151740714D01*
X49189047Y-152407380D02*
X49189047Y-151740714D01*
X49189047Y-151407380D02*
X49141428Y-151455000D01*
X49189047Y-151502619D01*
X49236666Y-151455000D01*
X49189047Y-151407380D01*
X49189047Y-151502619D01*
X50379523Y-152359761D02*
X50522380Y-152407380D01*
X50760476Y-152407380D01*
X50855714Y-152359761D01*
X50903333Y-152312142D01*
X50950952Y-152216904D01*
X50950952Y-152121666D01*
X50903333Y-152026428D01*
X50855714Y-151978809D01*
X50760476Y-151931190D01*
X50570000Y-151883571D01*
X50474761Y-151835952D01*
X50427142Y-151788333D01*
X50379523Y-151693095D01*
X50379523Y-151597857D01*
X50427142Y-151502619D01*
X50474761Y-151455000D01*
X50570000Y-151407380D01*
X50808095Y-151407380D01*
X50950952Y-151455000D01*
X52189047Y-152407380D02*
X52141428Y-152407380D01*
X52046190Y-152359761D01*
X51903333Y-152216904D01*
X51665238Y-151931190D01*
X51570000Y-151788333D01*
X51522380Y-151645476D01*
X51522380Y-151550238D01*
X51570000Y-151455000D01*
X51665238Y-151407380D01*
X51712857Y-151407380D01*
X51808095Y-151455000D01*
X51855714Y-151550238D01*
X51855714Y-151597857D01*
X51808095Y-151693095D01*
X51760476Y-151740714D01*
X51474761Y-151931190D01*
X51427142Y-151978809D01*
X51379523Y-152074047D01*
X51379523Y-152216904D01*
X51427142Y-152312142D01*
X51474761Y-152359761D01*
X51570000Y-152407380D01*
X51712857Y-152407380D01*
X51808095Y-152359761D01*
X51855714Y-152312142D01*
X51998571Y-152121666D01*
X52046190Y-151978809D01*
X52046190Y-151883571D01*
X52474761Y-151407380D02*
X53046190Y-151407380D01*
X52760476Y-152407380D02*
X52760476Y-151407380D01*
X54093809Y-151502619D02*
X54141428Y-151455000D01*
X54236666Y-151407380D01*
X54474761Y-151407380D01*
X54570000Y-151455000D01*
X54617619Y-151502619D01*
X54665238Y-151597857D01*
X54665238Y-151693095D01*
X54617619Y-151835952D01*
X54046190Y-152407380D01*
X54665238Y-152407380D01*
X55284285Y-151407380D02*
X55379523Y-151407380D01*
X55474761Y-151455000D01*
X55522380Y-151502619D01*
X55570000Y-151597857D01*
X55617619Y-151788333D01*
X55617619Y-152026428D01*
X55570000Y-152216904D01*
X55522380Y-152312142D01*
X55474761Y-152359761D01*
X55379523Y-152407380D01*
X55284285Y-152407380D01*
X55189047Y-152359761D01*
X55141428Y-152312142D01*
X55093809Y-152216904D01*
X55046190Y-152026428D01*
X55046190Y-151788333D01*
X55093809Y-151597857D01*
X55141428Y-151502619D01*
X55189047Y-151455000D01*
X55284285Y-151407380D01*
X55998571Y-151502619D02*
X56046190Y-151455000D01*
X56141428Y-151407380D01*
X56379523Y-151407380D01*
X56474761Y-151455000D01*
X56522380Y-151502619D01*
X56570000Y-151597857D01*
X56570000Y-151693095D01*
X56522380Y-151835952D01*
X55950952Y-152407380D01*
X56570000Y-152407380D01*
X57522380Y-152407380D02*
X56950952Y-152407380D01*
X57236666Y-152407380D02*
X57236666Y-151407380D01*
X57141428Y-151550238D01*
X57046190Y-151645476D01*
X56950952Y-151693095D01*
X57950952Y-152026428D02*
X58712857Y-152026428D01*
X59141428Y-151502619D02*
X59189047Y-151455000D01*
X59284285Y-151407380D01*
X59522380Y-151407380D01*
X59617619Y-151455000D01*
X59665238Y-151502619D01*
X59712857Y-151597857D01*
X59712857Y-151693095D01*
X59665238Y-151835952D01*
X59093809Y-152407380D01*
X59712857Y-152407380D01*
X60093809Y-151502619D02*
X60141428Y-151455000D01*
X60236666Y-151407380D01*
X60474761Y-151407380D01*
X60570000Y-151455000D01*
X60617619Y-151502619D01*
X60665238Y-151597857D01*
X60665238Y-151693095D01*
X60617619Y-151835952D01*
X60046190Y-152407380D01*
X60665238Y-152407380D01*
X37260476Y-153771666D02*
X37736666Y-153771666D01*
X37165238Y-154057380D02*
X37498571Y-153057380D01*
X37831904Y-154057380D01*
X38165238Y-153962142D02*
X38212857Y-154009761D01*
X38165238Y-154057380D01*
X38117619Y-154009761D01*
X38165238Y-153962142D01*
X38165238Y-154057380D01*
X38927142Y-153057380D02*
X38927142Y-153771666D01*
X38879523Y-153914523D01*
X38784285Y-154009761D01*
X38641428Y-154057380D01*
X38546190Y-154057380D01*
X40641428Y-154057380D02*
X40165238Y-154057380D01*
X40165238Y-153057380D01*
X41355714Y-154009761D02*
X41260476Y-154057380D01*
X41070000Y-154057380D01*
X40974761Y-154009761D01*
X40927142Y-153914523D01*
X40927142Y-153533571D01*
X40974761Y-153438333D01*
X41070000Y-153390714D01*
X41260476Y-153390714D01*
X41355714Y-153438333D01*
X41403333Y-153533571D01*
X41403333Y-153628809D01*
X40927142Y-153724047D01*
X42212857Y-154009761D02*
X42117619Y-154057380D01*
X41927142Y-154057380D01*
X41831904Y-154009761D01*
X41784285Y-153914523D01*
X41784285Y-153533571D01*
X41831904Y-153438333D01*
X41927142Y-153390714D01*
X42117619Y-153390714D01*
X42212857Y-153438333D01*
X42260476Y-153533571D01*
X42260476Y-153628809D01*
X41784285Y-153724047D01*
X42736666Y-154009761D02*
X42736666Y-154057380D01*
X42689047Y-154152619D01*
X42641428Y-154200238D01*
X43927142Y-154057380D02*
X43927142Y-153057380D01*
X44498571Y-154057380D01*
X44498571Y-153057380D01*
X45403333Y-154057380D02*
X45403333Y-153533571D01*
X45355714Y-153438333D01*
X45260476Y-153390714D01*
X45070000Y-153390714D01*
X44974761Y-153438333D01*
X45403333Y-154009761D02*
X45308095Y-154057380D01*
X45070000Y-154057380D01*
X44974761Y-154009761D01*
X44927142Y-153914523D01*
X44927142Y-153819285D01*
X44974761Y-153724047D01*
X45070000Y-153676428D01*
X45308095Y-153676428D01*
X45403333Y-153628809D01*
X45736666Y-153390714D02*
X46117619Y-153390714D01*
X45879523Y-153057380D02*
X45879523Y-153914523D01*
X45927142Y-154009761D01*
X46022380Y-154057380D01*
X46117619Y-154057380D01*
X46879523Y-154057380D02*
X46879523Y-153533571D01*
X46831904Y-153438333D01*
X46736666Y-153390714D01*
X46546190Y-153390714D01*
X46450952Y-153438333D01*
X46879523Y-154009761D02*
X46784285Y-154057380D01*
X46546190Y-154057380D01*
X46450952Y-154009761D01*
X46403333Y-153914523D01*
X46403333Y-153819285D01*
X46450952Y-153724047D01*
X46546190Y-153676428D01*
X46784285Y-153676428D01*
X46879523Y-153628809D01*
X47308095Y-154009761D02*
X47403333Y-154057380D01*
X47593809Y-154057380D01*
X47689047Y-154009761D01*
X47736666Y-153914523D01*
X47736666Y-153866904D01*
X47689047Y-153771666D01*
X47593809Y-153724047D01*
X47450952Y-153724047D01*
X47355714Y-153676428D01*
X47308095Y-153581190D01*
X47308095Y-153533571D01*
X47355714Y-153438333D01*
X47450952Y-153390714D01*
X47593809Y-153390714D01*
X47689047Y-153438333D01*
X48165238Y-154057380D02*
X48165238Y-153057380D01*
X48593809Y-154057380D02*
X48593809Y-153533571D01*
X48546190Y-153438333D01*
X48450952Y-153390714D01*
X48308095Y-153390714D01*
X48212857Y-153438333D01*
X48165238Y-153485952D01*
X49498571Y-154057380D02*
X49498571Y-153533571D01*
X49450952Y-153438333D01*
X49355714Y-153390714D01*
X49165238Y-153390714D01*
X49070000Y-153438333D01*
X49498571Y-154009761D02*
X49403333Y-154057380D01*
X49165238Y-154057380D01*
X49070000Y-154009761D01*
X49022380Y-153914523D01*
X49022380Y-153819285D01*
X49070000Y-153724047D01*
X49165238Y-153676428D01*
X49403333Y-153676428D01*
X49498571Y-153628809D01*
X51308095Y-153962142D02*
X51260476Y-154009761D01*
X51117619Y-154057380D01*
X51022380Y-154057380D01*
X50879523Y-154009761D01*
X50784285Y-153914523D01*
X50736666Y-153819285D01*
X50689047Y-153628809D01*
X50689047Y-153485952D01*
X50736666Y-153295476D01*
X50784285Y-153200238D01*
X50879523Y-153105000D01*
X51022380Y-153057380D01*
X51117619Y-153057380D01*
X51260476Y-153105000D01*
X51308095Y-153152619D01*
X51879523Y-154057380D02*
X51784285Y-154009761D01*
X51736666Y-153962142D01*
X51689047Y-153866904D01*
X51689047Y-153581190D01*
X51736666Y-153485952D01*
X51784285Y-153438333D01*
X51879523Y-153390714D01*
X52022380Y-153390714D01*
X52117619Y-153438333D01*
X52165238Y-153485952D01*
X52212857Y-153581190D01*
X52212857Y-153866904D01*
X52165238Y-153962142D01*
X52117619Y-154009761D01*
X52022380Y-154057380D01*
X51879523Y-154057380D01*
X52546190Y-154057380D02*
X53070000Y-153390714D01*
X52546190Y-153390714D02*
X53070000Y-154057380D01*
X53498571Y-154009761D02*
X53498571Y-154057380D01*
X53450952Y-154152619D01*
X53403333Y-154200238D01*
X55212857Y-153105000D02*
X55117619Y-153057380D01*
X54974761Y-153057380D01*
X54831904Y-153105000D01*
X54736666Y-153200238D01*
X54689047Y-153295476D01*
X54641428Y-153485952D01*
X54641428Y-153628809D01*
X54689047Y-153819285D01*
X54736666Y-153914523D01*
X54831904Y-154009761D01*
X54974761Y-154057380D01*
X55070000Y-154057380D01*
X55212857Y-154009761D01*
X55260476Y-153962142D01*
X55260476Y-153628809D01*
X55070000Y-153628809D01*
X55689047Y-154057380D02*
X55689047Y-153390714D01*
X55689047Y-153581190D02*
X55736666Y-153485952D01*
X55784285Y-153438333D01*
X55879523Y-153390714D01*
X55974761Y-153390714D01*
X56308095Y-154057380D02*
X56308095Y-153390714D01*
X56308095Y-153057380D02*
X56260476Y-153105000D01*
X56308095Y-153152619D01*
X56355714Y-153105000D01*
X56308095Y-153057380D01*
X56308095Y-153152619D01*
X56641428Y-153390714D02*
X57022380Y-153390714D01*
X56784285Y-154057380D02*
X56784285Y-153200238D01*
X56831904Y-153105000D01*
X56927142Y-153057380D01*
X57022380Y-153057380D01*
X57212857Y-153390714D02*
X57593809Y-153390714D01*
X57355714Y-154057380D02*
X57355714Y-153200238D01*
X57403333Y-153105000D01*
X57498571Y-153057380D01*
X57593809Y-153057380D01*
X57927142Y-154057380D02*
X57927142Y-153390714D01*
X57927142Y-153057380D02*
X57879523Y-153105000D01*
X57927142Y-153152619D01*
X57974761Y-153105000D01*
X57927142Y-153057380D01*
X57927142Y-153152619D01*
X58403333Y-153390714D02*
X58403333Y-154057380D01*
X58403333Y-153485952D02*
X58450952Y-153438333D01*
X58546190Y-153390714D01*
X58689047Y-153390714D01*
X58784285Y-153438333D01*
X58831904Y-153533571D01*
X58831904Y-154057380D01*
X60403333Y-153533571D02*
X60546190Y-153581190D01*
X60593809Y-153628809D01*
X60641428Y-153724047D01*
X60641428Y-153866904D01*
X60593809Y-153962142D01*
X60546190Y-154009761D01*
X60450952Y-154057380D01*
X60070000Y-154057380D01*
X60070000Y-153057380D01*
X60403333Y-153057380D01*
X60498571Y-153105000D01*
X60546190Y-153152619D01*
X60593809Y-153247857D01*
X60593809Y-153343095D01*
X60546190Y-153438333D01*
X60498571Y-153485952D01*
X60403333Y-153533571D01*
X60070000Y-153533571D01*
X61498571Y-153390714D02*
X61498571Y-154057380D01*
X61070000Y-153390714D02*
X61070000Y-153914523D01*
X61117619Y-154009761D01*
X61212857Y-154057380D01*
X61355714Y-154057380D01*
X61450952Y-154009761D01*
X61498571Y-153962142D01*
X61927142Y-154009761D02*
X62022380Y-154057380D01*
X62212857Y-154057380D01*
X62308095Y-154009761D01*
X62355714Y-153914523D01*
X62355714Y-153866904D01*
X62308095Y-153771666D01*
X62212857Y-153724047D01*
X62070000Y-153724047D01*
X61974761Y-153676428D01*
X61927142Y-153581190D01*
X61927142Y-153533571D01*
X61974761Y-153438333D01*
X62070000Y-153390714D01*
X62212857Y-153390714D01*
X62308095Y-153438333D01*
X63212857Y-154009761D02*
X63117619Y-154057380D01*
X62927142Y-154057380D01*
X62831904Y-154009761D01*
X62784285Y-153962142D01*
X62736666Y-153866904D01*
X62736666Y-153581190D01*
X62784285Y-153485952D01*
X62831904Y-153438333D01*
X62927142Y-153390714D01*
X63117619Y-153390714D01*
X63212857Y-153438333D01*
X63641428Y-154057380D02*
X63641428Y-153057380D01*
X64070000Y-154057380D02*
X64070000Y-153533571D01*
X64022380Y-153438333D01*
X63927142Y-153390714D01*
X63784285Y-153390714D01*
X63689047Y-153438333D01*
X63641428Y-153485952D01*
X64546190Y-153390714D02*
X64546190Y-154247857D01*
X64498571Y-154343095D01*
X64403333Y-154390714D01*
X64355714Y-154390714D01*
X64546190Y-153057380D02*
X64498571Y-153105000D01*
X64546190Y-153152619D01*
X64593809Y-153105000D01*
X64546190Y-153057380D01*
X64546190Y-153152619D01*
X65165238Y-154057380D02*
X65070000Y-154009761D01*
X65022380Y-153962142D01*
X64974761Y-153866904D01*
X64974761Y-153581190D01*
X65022380Y-153485952D01*
X65070000Y-153438333D01*
X65165238Y-153390714D01*
X65308095Y-153390714D01*
X65403333Y-153438333D01*
X65450952Y-153485952D01*
X65498571Y-153581190D01*
X65498571Y-153866904D01*
X65450952Y-153962142D01*
X65403333Y-154009761D01*
X65308095Y-154057380D01*
X65165238Y-154057380D01*
X65879523Y-154009761D02*
X65974761Y-154057380D01*
X66165238Y-154057380D01*
X66260476Y-154009761D01*
X66308095Y-153914523D01*
X66308095Y-153866904D01*
X66260476Y-153771666D01*
X66165238Y-153724047D01*
X66022380Y-153724047D01*
X65927142Y-153676428D01*
X65879523Y-153581190D01*
X65879523Y-153533571D01*
X65927142Y-153438333D01*
X66022380Y-153390714D01*
X66165238Y-153390714D01*
X66260476Y-153438333D01*
X66593809Y-153390714D02*
X66974761Y-153390714D01*
X66736666Y-153057380D02*
X66736666Y-153914523D01*
X66784285Y-154009761D01*
X66879523Y-154057380D01*
X66974761Y-154057380D01*
X66952761Y-92756857D02*
X67000380Y-92614000D01*
X67000380Y-92375904D01*
X66952761Y-92280666D01*
X66905142Y-92233047D01*
X66809904Y-92185428D01*
X66714666Y-92185428D01*
X66619428Y-92233047D01*
X66571809Y-92280666D01*
X66524190Y-92375904D01*
X66476571Y-92566380D01*
X66428952Y-92661619D01*
X66381333Y-92709238D01*
X66286095Y-92756857D01*
X66190857Y-92756857D01*
X66095619Y-92709238D01*
X66048000Y-92661619D01*
X66000380Y-92566380D01*
X66000380Y-92328285D01*
X66048000Y-92185428D01*
X67000380Y-91614000D02*
X66952761Y-91709238D01*
X66905142Y-91756857D01*
X66809904Y-91804476D01*
X66524190Y-91804476D01*
X66428952Y-91756857D01*
X66381333Y-91709238D01*
X66333714Y-91614000D01*
X66333714Y-91471142D01*
X66381333Y-91375904D01*
X66428952Y-91328285D01*
X66524190Y-91280666D01*
X66809904Y-91280666D01*
X66905142Y-91328285D01*
X66952761Y-91375904D01*
X67000380Y-91471142D01*
X67000380Y-91614000D01*
X66333714Y-90994952D02*
X66333714Y-90614000D01*
X67000380Y-90852095D02*
X66143238Y-90852095D01*
X66048000Y-90804476D01*
X66000380Y-90709238D01*
X66000380Y-90614000D01*
X66333714Y-90423523D02*
X66333714Y-90042571D01*
X66000380Y-90280666D02*
X66857523Y-90280666D01*
X66952761Y-90233047D01*
X67000380Y-90137809D01*
X67000380Y-90042571D01*
X66333714Y-89804476D02*
X67000380Y-89614000D01*
X66524190Y-89423523D01*
X67000380Y-89233047D01*
X66333714Y-89042571D01*
X67000380Y-88233047D02*
X66476571Y-88233047D01*
X66381333Y-88280666D01*
X66333714Y-88375904D01*
X66333714Y-88566380D01*
X66381333Y-88661619D01*
X66952761Y-88233047D02*
X67000380Y-88328285D01*
X67000380Y-88566380D01*
X66952761Y-88661619D01*
X66857523Y-88709238D01*
X66762285Y-88709238D01*
X66667047Y-88661619D01*
X66619428Y-88566380D01*
X66619428Y-88328285D01*
X66571809Y-88233047D01*
X67000380Y-87756857D02*
X66333714Y-87756857D01*
X66524190Y-87756857D02*
X66428952Y-87709238D01*
X66381333Y-87661619D01*
X66333714Y-87566380D01*
X66333714Y-87471142D01*
X66952761Y-86756857D02*
X67000380Y-86852095D01*
X67000380Y-87042571D01*
X66952761Y-87137809D01*
X66857523Y-87185428D01*
X66476571Y-87185428D01*
X66381333Y-87137809D01*
X66333714Y-87042571D01*
X66333714Y-86852095D01*
X66381333Y-86756857D01*
X66476571Y-86709238D01*
X66571809Y-86709238D01*
X66667047Y-87185428D01*
X66952761Y-85566380D02*
X67000380Y-85423523D01*
X67000380Y-85185428D01*
X66952761Y-85090190D01*
X66905142Y-85042571D01*
X66809904Y-84994952D01*
X66714666Y-84994952D01*
X66619428Y-85042571D01*
X66571809Y-85090190D01*
X66524190Y-85185428D01*
X66476571Y-85375904D01*
X66428952Y-85471142D01*
X66381333Y-85518761D01*
X66286095Y-85566380D01*
X66190857Y-85566380D01*
X66095619Y-85518761D01*
X66048000Y-85471142D01*
X66000380Y-85375904D01*
X66000380Y-85137809D01*
X66048000Y-84994952D01*
X67000380Y-84566380D02*
X66333714Y-84566380D01*
X66000380Y-84566380D02*
X66048000Y-84614000D01*
X66095619Y-84566380D01*
X66048000Y-84518761D01*
X66000380Y-84566380D01*
X66095619Y-84566380D01*
X66333714Y-83661619D02*
X67143238Y-83661619D01*
X67238476Y-83709238D01*
X67286095Y-83756857D01*
X67333714Y-83852095D01*
X67333714Y-83994952D01*
X67286095Y-84090190D01*
X66952761Y-83661619D02*
X67000380Y-83756857D01*
X67000380Y-83947333D01*
X66952761Y-84042571D01*
X66905142Y-84090190D01*
X66809904Y-84137809D01*
X66524190Y-84137809D01*
X66428952Y-84090190D01*
X66381333Y-84042571D01*
X66333714Y-83947333D01*
X66333714Y-83756857D01*
X66381333Y-83661619D01*
X66333714Y-83185428D02*
X67000380Y-83185428D01*
X66428952Y-83185428D02*
X66381333Y-83137809D01*
X66333714Y-83042571D01*
X66333714Y-82899714D01*
X66381333Y-82804476D01*
X66476571Y-82756857D01*
X67000380Y-82756857D01*
X67000380Y-81852095D02*
X66476571Y-81852095D01*
X66381333Y-81899714D01*
X66333714Y-81994952D01*
X66333714Y-82185428D01*
X66381333Y-82280666D01*
X66952761Y-81852095D02*
X67000380Y-81947333D01*
X67000380Y-82185428D01*
X66952761Y-82280666D01*
X66857523Y-82328285D01*
X66762285Y-82328285D01*
X66667047Y-82280666D01*
X66619428Y-82185428D01*
X66619428Y-81947333D01*
X66571809Y-81852095D01*
X67000380Y-81233047D02*
X66952761Y-81328285D01*
X66857523Y-81375904D01*
X66000380Y-81375904D01*
X66952761Y-80899714D02*
X67000380Y-80804476D01*
X67000380Y-80614000D01*
X66952761Y-80518761D01*
X66857523Y-80471142D01*
X66809904Y-80471142D01*
X66714666Y-80518761D01*
X66667047Y-80614000D01*
X66667047Y-80756857D01*
X66619428Y-80852095D01*
X66524190Y-80899714D01*
X66476571Y-80899714D01*
X66381333Y-80852095D01*
X66333714Y-80756857D01*
X66333714Y-80614000D01*
X66381333Y-80518761D01*
X39605857Y-20386523D02*
X39605857Y-21414619D01*
X39666333Y-21535571D01*
X39726809Y-21596047D01*
X39847761Y-21656523D01*
X40089666Y-21656523D01*
X40210619Y-21596047D01*
X40271095Y-21535571D01*
X40331571Y-21414619D01*
X40331571Y-20386523D01*
X40754904Y-20386523D02*
X41178238Y-21656523D01*
X41601571Y-20386523D01*
X28798761Y-21529523D02*
X28194000Y-21529523D01*
X28194000Y-20259523D01*
X29222095Y-21529523D02*
X29222095Y-20682857D01*
X29222095Y-20259523D02*
X29161619Y-20320000D01*
X29222095Y-20380476D01*
X29282571Y-20320000D01*
X29222095Y-20259523D01*
X29222095Y-20380476D01*
X30371142Y-20682857D02*
X30371142Y-21710952D01*
X30310666Y-21831904D01*
X30250190Y-21892380D01*
X30129238Y-21952857D01*
X29947809Y-21952857D01*
X29826857Y-21892380D01*
X30371142Y-21469047D02*
X30250190Y-21529523D01*
X30008285Y-21529523D01*
X29887333Y-21469047D01*
X29826857Y-21408571D01*
X29766380Y-21287619D01*
X29766380Y-20924761D01*
X29826857Y-20803809D01*
X29887333Y-20743333D01*
X30008285Y-20682857D01*
X30250190Y-20682857D01*
X30371142Y-20743333D01*
X30975904Y-21529523D02*
X30975904Y-20259523D01*
X31520190Y-21529523D02*
X31520190Y-20864285D01*
X31459714Y-20743333D01*
X31338761Y-20682857D01*
X31157333Y-20682857D01*
X31036380Y-20743333D01*
X30975904Y-20803809D01*
X31943523Y-20682857D02*
X32427333Y-20682857D01*
X32124952Y-20259523D02*
X32124952Y-21348095D01*
X32185428Y-21469047D01*
X32306380Y-21529523D01*
X32427333Y-21529523D01*
X32790190Y-21469047D02*
X32911142Y-21529523D01*
X33153047Y-21529523D01*
X33274000Y-21469047D01*
X33334476Y-21348095D01*
X33334476Y-21287619D01*
X33274000Y-21166666D01*
X33153047Y-21106190D01*
X32971619Y-21106190D01*
X32850666Y-21045714D01*
X32790190Y-20924761D01*
X32790190Y-20864285D01*
X32850666Y-20743333D01*
X32971619Y-20682857D01*
X33153047Y-20682857D01*
X33274000Y-20743333D01*
X25980571Y-43500523D02*
X25375809Y-43500523D01*
X25375809Y-42230523D01*
X26948190Y-43500523D02*
X26948190Y-42835285D01*
X26887714Y-42714333D01*
X26766761Y-42653857D01*
X26524857Y-42653857D01*
X26403904Y-42714333D01*
X26948190Y-43440047D02*
X26827238Y-43500523D01*
X26524857Y-43500523D01*
X26403904Y-43440047D01*
X26343428Y-43319095D01*
X26343428Y-43198142D01*
X26403904Y-43077190D01*
X26524857Y-43016714D01*
X26827238Y-43016714D01*
X26948190Y-42956238D01*
X27492476Y-43440047D02*
X27613428Y-43500523D01*
X27855333Y-43500523D01*
X27976285Y-43440047D01*
X28036761Y-43319095D01*
X28036761Y-43258619D01*
X27976285Y-43137666D01*
X27855333Y-43077190D01*
X27673904Y-43077190D01*
X27552952Y-43016714D01*
X27492476Y-42895761D01*
X27492476Y-42835285D01*
X27552952Y-42714333D01*
X27673904Y-42653857D01*
X27855333Y-42653857D01*
X27976285Y-42714333D01*
X29064857Y-43440047D02*
X28943904Y-43500523D01*
X28702000Y-43500523D01*
X28581047Y-43440047D01*
X28520571Y-43319095D01*
X28520571Y-42835285D01*
X28581047Y-42714333D01*
X28702000Y-42653857D01*
X28943904Y-42653857D01*
X29064857Y-42714333D01*
X29125333Y-42835285D01*
X29125333Y-42956238D01*
X28520571Y-43077190D01*
X29669619Y-43500523D02*
X29669619Y-42653857D01*
X29669619Y-42895761D02*
X29730095Y-42774809D01*
X29790571Y-42714333D01*
X29911523Y-42653857D01*
X30032476Y-42653857D01*
X32088666Y-43500523D02*
X31362952Y-43500523D01*
X31725809Y-43500523D02*
X31725809Y-42230523D01*
X31604857Y-42411952D01*
X31483904Y-42532904D01*
X31362952Y-42593380D01*
X26234571Y-62550523D02*
X25629809Y-62550523D01*
X25629809Y-61280523D01*
X27202190Y-62550523D02*
X27202190Y-61885285D01*
X27141714Y-61764333D01*
X27020761Y-61703857D01*
X26778857Y-61703857D01*
X26657904Y-61764333D01*
X27202190Y-62490047D02*
X27081238Y-62550523D01*
X26778857Y-62550523D01*
X26657904Y-62490047D01*
X26597428Y-62369095D01*
X26597428Y-62248142D01*
X26657904Y-62127190D01*
X26778857Y-62066714D01*
X27081238Y-62066714D01*
X27202190Y-62006238D01*
X27746476Y-62490047D02*
X27867428Y-62550523D01*
X28109333Y-62550523D01*
X28230285Y-62490047D01*
X28290761Y-62369095D01*
X28290761Y-62308619D01*
X28230285Y-62187666D01*
X28109333Y-62127190D01*
X27927904Y-62127190D01*
X27806952Y-62066714D01*
X27746476Y-61945761D01*
X27746476Y-61885285D01*
X27806952Y-61764333D01*
X27927904Y-61703857D01*
X28109333Y-61703857D01*
X28230285Y-61764333D01*
X29318857Y-62490047D02*
X29197904Y-62550523D01*
X28956000Y-62550523D01*
X28835047Y-62490047D01*
X28774571Y-62369095D01*
X28774571Y-61885285D01*
X28835047Y-61764333D01*
X28956000Y-61703857D01*
X29197904Y-61703857D01*
X29318857Y-61764333D01*
X29379333Y-61885285D01*
X29379333Y-62006238D01*
X28774571Y-62127190D01*
X29923619Y-62550523D02*
X29923619Y-61703857D01*
X29923619Y-61945761D02*
X29984095Y-61824809D01*
X30044571Y-61764333D01*
X30165523Y-61703857D01*
X30286476Y-61703857D01*
X31616952Y-61401476D02*
X31677428Y-61341000D01*
X31798380Y-61280523D01*
X32100761Y-61280523D01*
X32221714Y-61341000D01*
X32282190Y-61401476D01*
X32342666Y-61522428D01*
X32342666Y-61643380D01*
X32282190Y-61824809D01*
X31556476Y-62550523D01*
X32342666Y-62550523D01*
X25980571Y-81473523D02*
X25375809Y-81473523D01*
X25375809Y-80203523D01*
X26948190Y-81473523D02*
X26948190Y-80808285D01*
X26887714Y-80687333D01*
X26766761Y-80626857D01*
X26524857Y-80626857D01*
X26403904Y-80687333D01*
X26948190Y-81413047D02*
X26827238Y-81473523D01*
X26524857Y-81473523D01*
X26403904Y-81413047D01*
X26343428Y-81292095D01*
X26343428Y-81171142D01*
X26403904Y-81050190D01*
X26524857Y-80989714D01*
X26827238Y-80989714D01*
X26948190Y-80929238D01*
X27492476Y-81413047D02*
X27613428Y-81473523D01*
X27855333Y-81473523D01*
X27976285Y-81413047D01*
X28036761Y-81292095D01*
X28036761Y-81231619D01*
X27976285Y-81110666D01*
X27855333Y-81050190D01*
X27673904Y-81050190D01*
X27552952Y-80989714D01*
X27492476Y-80868761D01*
X27492476Y-80808285D01*
X27552952Y-80687333D01*
X27673904Y-80626857D01*
X27855333Y-80626857D01*
X27976285Y-80687333D01*
X29064857Y-81413047D02*
X28943904Y-81473523D01*
X28702000Y-81473523D01*
X28581047Y-81413047D01*
X28520571Y-81292095D01*
X28520571Y-80808285D01*
X28581047Y-80687333D01*
X28702000Y-80626857D01*
X28943904Y-80626857D01*
X29064857Y-80687333D01*
X29125333Y-80808285D01*
X29125333Y-80929238D01*
X28520571Y-81050190D01*
X29669619Y-81473523D02*
X29669619Y-80626857D01*
X29669619Y-80868761D02*
X29730095Y-80747809D01*
X29790571Y-80687333D01*
X29911523Y-80626857D01*
X30032476Y-80626857D01*
X31302476Y-80203523D02*
X32088666Y-80203523D01*
X31665333Y-80687333D01*
X31846761Y-80687333D01*
X31967714Y-80747809D01*
X32028190Y-80808285D01*
X32088666Y-80929238D01*
X32088666Y-81231619D01*
X32028190Y-81352571D01*
X31967714Y-81413047D01*
X31846761Y-81473523D01*
X31483904Y-81473523D01*
X31362952Y-81413047D01*
X31302476Y-81352571D01*
X26053142Y-96967523D02*
X26053142Y-95697523D01*
X26778857Y-96967523D01*
X26778857Y-95697523D01*
X27625523Y-95697523D02*
X27867428Y-95697523D01*
X27988380Y-95758000D01*
X28109333Y-95878952D01*
X28169809Y-96120857D01*
X28169809Y-96544190D01*
X28109333Y-96786095D01*
X27988380Y-96907047D01*
X27867428Y-96967523D01*
X27625523Y-96967523D01*
X27504571Y-96907047D01*
X27383619Y-96786095D01*
X27323142Y-96544190D01*
X27323142Y-96120857D01*
X27383619Y-95878952D01*
X27504571Y-95758000D01*
X27625523Y-95697523D01*
X28653619Y-95818476D02*
X28714095Y-95758000D01*
X28835047Y-95697523D01*
X29137428Y-95697523D01*
X29258380Y-95758000D01*
X29318857Y-95818476D01*
X29379333Y-95939428D01*
X29379333Y-96060380D01*
X29318857Y-96241809D01*
X28593142Y-96967523D01*
X29379333Y-96967523D01*
X26071285Y-110937523D02*
X26313190Y-110937523D01*
X26434142Y-110998000D01*
X26555095Y-111118952D01*
X26615571Y-111360857D01*
X26615571Y-111784190D01*
X26555095Y-112026095D01*
X26434142Y-112147047D01*
X26313190Y-112207523D01*
X26071285Y-112207523D01*
X25950333Y-112147047D01*
X25829380Y-112026095D01*
X25768904Y-111784190D01*
X25768904Y-111360857D01*
X25829380Y-111118952D01*
X25950333Y-110998000D01*
X26071285Y-110937523D01*
X27099380Y-111058476D02*
X27159857Y-110998000D01*
X27280809Y-110937523D01*
X27583190Y-110937523D01*
X27704142Y-110998000D01*
X27764619Y-111058476D01*
X27825095Y-111179428D01*
X27825095Y-111300380D01*
X27764619Y-111481809D01*
X27038904Y-112207523D01*
X27825095Y-112207523D01*
X26555095Y-127580571D02*
X26494619Y-127641047D01*
X26313190Y-127701523D01*
X26192238Y-127701523D01*
X26010809Y-127641047D01*
X25889857Y-127520095D01*
X25829380Y-127399142D01*
X25768904Y-127157238D01*
X25768904Y-126975809D01*
X25829380Y-126733904D01*
X25889857Y-126612952D01*
X26010809Y-126492000D01*
X26192238Y-126431523D01*
X26313190Y-126431523D01*
X26494619Y-126492000D01*
X26555095Y-126552476D01*
X27341285Y-126431523D02*
X27583190Y-126431523D01*
X27704142Y-126492000D01*
X27825095Y-126612952D01*
X27885571Y-126854857D01*
X27885571Y-127278190D01*
X27825095Y-127520095D01*
X27704142Y-127641047D01*
X27583190Y-127701523D01*
X27341285Y-127701523D01*
X27220333Y-127641047D01*
X27099380Y-127520095D01*
X27038904Y-127278190D01*
X27038904Y-126854857D01*
X27099380Y-126612952D01*
X27220333Y-126492000D01*
X27341285Y-126431523D01*
X28369380Y-126552476D02*
X28429857Y-126492000D01*
X28550809Y-126431523D01*
X28853190Y-126431523D01*
X28974142Y-126492000D01*
X29034619Y-126552476D01*
X29095095Y-126673428D01*
X29095095Y-126794380D01*
X29034619Y-126975809D01*
X28308904Y-127701523D01*
X29095095Y-127701523D01*
X25799142Y-140147523D02*
X25799142Y-138877523D01*
X26524857Y-140147523D01*
X26524857Y-138877523D01*
X27129619Y-140147523D02*
X27129619Y-138877523D01*
X27129619Y-139482285D02*
X27855333Y-139482285D01*
X27855333Y-140147523D02*
X27855333Y-138877523D01*
X28339142Y-138877523D02*
X29125333Y-138877523D01*
X28701999Y-139361333D01*
X28883428Y-139361333D01*
X29004380Y-139421809D01*
X29064857Y-139482285D01*
X29125333Y-139603238D01*
X29125333Y-139905619D01*
X29064857Y-140026571D01*
X29004380Y-140087047D01*
X28883428Y-140147523D01*
X28520571Y-140147523D01*
X28399619Y-140087047D01*
X28339142Y-140026571D01*
X89011380Y-84304142D02*
X88963761Y-84351761D01*
X88820904Y-84399380D01*
X88725666Y-84399380D01*
X88582809Y-84351761D01*
X88487571Y-84256523D01*
X88439952Y-84161285D01*
X88392333Y-83970809D01*
X88392333Y-83827952D01*
X88439952Y-83637476D01*
X88487571Y-83542238D01*
X88582809Y-83447000D01*
X88725666Y-83399380D01*
X88820904Y-83399380D01*
X88963761Y-83447000D01*
X89011380Y-83494619D01*
X89439952Y-84399380D02*
X89439952Y-83399380D01*
X89439952Y-83875571D02*
X90011380Y-83875571D01*
X90011380Y-84399380D02*
X90011380Y-83399380D01*
X90916142Y-83732714D02*
X90916142Y-84399380D01*
X90678047Y-83351761D02*
X90439952Y-84066047D01*
X91059000Y-84066047D01*
X92773285Y-84399380D02*
X92439952Y-83923190D01*
X92201857Y-84399380D02*
X92201857Y-83399380D01*
X92582809Y-83399380D01*
X92678047Y-83447000D01*
X92725666Y-83494619D01*
X92773285Y-83589857D01*
X92773285Y-83732714D01*
X92725666Y-83827952D01*
X92678047Y-83875571D01*
X92582809Y-83923190D01*
X92201857Y-83923190D01*
X93106619Y-83399380D02*
X93773285Y-84399380D01*
X93773285Y-83399380D02*
X93106619Y-84399380D01*
X88876428Y-87352142D02*
X88828809Y-87399761D01*
X88685952Y-87447380D01*
X88590714Y-87447380D01*
X88447857Y-87399761D01*
X88352619Y-87304523D01*
X88305000Y-87209285D01*
X88257380Y-87018809D01*
X88257380Y-86875952D01*
X88305000Y-86685476D01*
X88352619Y-86590238D01*
X88447857Y-86495000D01*
X88590714Y-86447380D01*
X88685952Y-86447380D01*
X88828809Y-86495000D01*
X88876428Y-86542619D01*
X89305000Y-87447380D02*
X89305000Y-86447380D01*
X89305000Y-86923571D02*
X89876428Y-86923571D01*
X89876428Y-87447380D02*
X89876428Y-86447380D01*
X90781190Y-86780714D02*
X90781190Y-87447380D01*
X90543095Y-86399761D02*
X90305000Y-87114047D01*
X90924047Y-87114047D01*
X91924047Y-86447380D02*
X92495476Y-86447380D01*
X92209761Y-87447380D02*
X92209761Y-86447380D01*
X92733571Y-86447380D02*
X93400238Y-87447380D01*
X93400238Y-86447380D02*
X92733571Y-87447380D01*
X76287619Y-95464380D02*
X76287619Y-96273904D01*
X76335238Y-96369142D01*
X76382857Y-96416761D01*
X76478095Y-96464380D01*
X76668571Y-96464380D01*
X76763809Y-96416761D01*
X76811428Y-96369142D01*
X76859047Y-96273904D01*
X76859047Y-95464380D01*
X77192380Y-95464380D02*
X77525714Y-96464380D01*
X77859047Y-95464380D01*
X79430476Y-96464380D02*
X78954285Y-96464380D01*
X78954285Y-95464380D01*
X79763809Y-95940571D02*
X80097142Y-95940571D01*
X80240000Y-96464380D02*
X79763809Y-96464380D01*
X79763809Y-95464380D01*
X80240000Y-95464380D01*
X80668571Y-96464380D02*
X80668571Y-95464380D01*
X80906666Y-95464380D01*
X81049523Y-95512000D01*
X81144761Y-95607238D01*
X81192380Y-95702476D01*
X81240000Y-95892952D01*
X81240000Y-96035809D01*
X81192380Y-96226285D01*
X81144761Y-96321523D01*
X81049523Y-96416761D01*
X80906666Y-96464380D01*
X80668571Y-96464380D01*
X76708190Y-100020380D02*
X76232000Y-100020380D01*
X76232000Y-99020380D01*
X77041523Y-100020380D02*
X77041523Y-99353714D01*
X77041523Y-99020380D02*
X76993904Y-99068000D01*
X77041523Y-99115619D01*
X77089142Y-99068000D01*
X77041523Y-99020380D01*
X77041523Y-99115619D01*
X77946285Y-99353714D02*
X77946285Y-100163238D01*
X77898666Y-100258476D01*
X77851047Y-100306095D01*
X77755809Y-100353714D01*
X77612952Y-100353714D01*
X77517714Y-100306095D01*
X77946285Y-99972761D02*
X77851047Y-100020380D01*
X77660571Y-100020380D01*
X77565333Y-99972761D01*
X77517714Y-99925142D01*
X77470095Y-99829904D01*
X77470095Y-99544190D01*
X77517714Y-99448952D01*
X77565333Y-99401333D01*
X77660571Y-99353714D01*
X77851047Y-99353714D01*
X77946285Y-99401333D01*
X78422476Y-100020380D02*
X78422476Y-99020380D01*
X78851047Y-100020380D02*
X78851047Y-99496571D01*
X78803428Y-99401333D01*
X78708190Y-99353714D01*
X78565333Y-99353714D01*
X78470095Y-99401333D01*
X78422476Y-99448952D01*
X79184380Y-99353714D02*
X79565333Y-99353714D01*
X79327238Y-99020380D02*
X79327238Y-99877523D01*
X79374857Y-99972761D01*
X79470095Y-100020380D01*
X79565333Y-100020380D01*
X79851047Y-99972761D02*
X79946285Y-100020380D01*
X80136761Y-100020380D01*
X80232000Y-99972761D01*
X80279619Y-99877523D01*
X80279619Y-99829904D01*
X80232000Y-99734666D01*
X80136761Y-99687047D01*
X79993904Y-99687047D01*
X79898666Y-99639428D01*
X79851047Y-99544190D01*
X79851047Y-99496571D01*
X79898666Y-99401333D01*
X79993904Y-99353714D01*
X80136761Y-99353714D01*
X80232000Y-99401333D01*
X77105142Y-84145380D02*
X76628952Y-84145380D01*
X76628952Y-83145380D01*
X77867047Y-84145380D02*
X77867047Y-83621571D01*
X77819428Y-83526333D01*
X77724190Y-83478714D01*
X77533714Y-83478714D01*
X77438476Y-83526333D01*
X77867047Y-84097761D02*
X77771809Y-84145380D01*
X77533714Y-84145380D01*
X77438476Y-84097761D01*
X77390857Y-84002523D01*
X77390857Y-83907285D01*
X77438476Y-83812047D01*
X77533714Y-83764428D01*
X77771809Y-83764428D01*
X77867047Y-83716809D01*
X78295619Y-84097761D02*
X78390857Y-84145380D01*
X78581333Y-84145380D01*
X78676571Y-84097761D01*
X78724190Y-84002523D01*
X78724190Y-83954904D01*
X78676571Y-83859666D01*
X78581333Y-83812047D01*
X78438476Y-83812047D01*
X78343238Y-83764428D01*
X78295619Y-83669190D01*
X78295619Y-83621571D01*
X78343238Y-83526333D01*
X78438476Y-83478714D01*
X78581333Y-83478714D01*
X78676571Y-83526333D01*
X79533714Y-84097761D02*
X79438476Y-84145380D01*
X79248000Y-84145380D01*
X79152761Y-84097761D01*
X79105142Y-84002523D01*
X79105142Y-83621571D01*
X79152761Y-83526333D01*
X79248000Y-83478714D01*
X79438476Y-83478714D01*
X79533714Y-83526333D01*
X79581333Y-83621571D01*
X79581333Y-83716809D01*
X79105142Y-83812047D01*
X80009904Y-84145380D02*
X80009904Y-83478714D01*
X80009904Y-83669190D02*
X80057523Y-83573952D01*
X80105142Y-83526333D01*
X80200380Y-83478714D01*
X80295619Y-83478714D01*
X81914666Y-84145380D02*
X81343238Y-84145380D01*
X81628952Y-84145380D02*
X81628952Y-83145380D01*
X81533714Y-83288238D01*
X81438476Y-83383476D01*
X81343238Y-83431095D01*
X77105142Y-91765380D02*
X76628952Y-91765380D01*
X76628952Y-90765380D01*
X77867047Y-91765380D02*
X77867047Y-91241571D01*
X77819428Y-91146333D01*
X77724190Y-91098714D01*
X77533714Y-91098714D01*
X77438476Y-91146333D01*
X77867047Y-91717761D02*
X77771809Y-91765380D01*
X77533714Y-91765380D01*
X77438476Y-91717761D01*
X77390857Y-91622523D01*
X77390857Y-91527285D01*
X77438476Y-91432047D01*
X77533714Y-91384428D01*
X77771809Y-91384428D01*
X77867047Y-91336809D01*
X78295619Y-91717761D02*
X78390857Y-91765380D01*
X78581333Y-91765380D01*
X78676571Y-91717761D01*
X78724190Y-91622523D01*
X78724190Y-91574904D01*
X78676571Y-91479666D01*
X78581333Y-91432047D01*
X78438476Y-91432047D01*
X78343238Y-91384428D01*
X78295619Y-91289190D01*
X78295619Y-91241571D01*
X78343238Y-91146333D01*
X78438476Y-91098714D01*
X78581333Y-91098714D01*
X78676571Y-91146333D01*
X79533714Y-91717761D02*
X79438476Y-91765380D01*
X79248000Y-91765380D01*
X79152761Y-91717761D01*
X79105142Y-91622523D01*
X79105142Y-91241571D01*
X79152761Y-91146333D01*
X79248000Y-91098714D01*
X79438476Y-91098714D01*
X79533714Y-91146333D01*
X79581333Y-91241571D01*
X79581333Y-91336809D01*
X79105142Y-91432047D01*
X80009904Y-91765380D02*
X80009904Y-91098714D01*
X80009904Y-91289190D02*
X80057523Y-91193952D01*
X80105142Y-91146333D01*
X80200380Y-91098714D01*
X80295619Y-91098714D01*
X81295619Y-90765380D02*
X81914666Y-90765380D01*
X81581333Y-91146333D01*
X81724190Y-91146333D01*
X81819428Y-91193952D01*
X81867047Y-91241571D01*
X81914666Y-91336809D01*
X81914666Y-91574904D01*
X81867047Y-91670142D01*
X81819428Y-91717761D01*
X81724190Y-91765380D01*
X81438476Y-91765380D01*
X81343238Y-91717761D01*
X81295619Y-91670142D01*
X77105142Y-87955380D02*
X76628952Y-87955380D01*
X76628952Y-86955380D01*
X77867047Y-87955380D02*
X77867047Y-87431571D01*
X77819428Y-87336333D01*
X77724190Y-87288714D01*
X77533714Y-87288714D01*
X77438476Y-87336333D01*
X77867047Y-87907761D02*
X77771809Y-87955380D01*
X77533714Y-87955380D01*
X77438476Y-87907761D01*
X77390857Y-87812523D01*
X77390857Y-87717285D01*
X77438476Y-87622047D01*
X77533714Y-87574428D01*
X77771809Y-87574428D01*
X77867047Y-87526809D01*
X78295619Y-87907761D02*
X78390857Y-87955380D01*
X78581333Y-87955380D01*
X78676571Y-87907761D01*
X78724190Y-87812523D01*
X78724190Y-87764904D01*
X78676571Y-87669666D01*
X78581333Y-87622047D01*
X78438476Y-87622047D01*
X78343238Y-87574428D01*
X78295619Y-87479190D01*
X78295619Y-87431571D01*
X78343238Y-87336333D01*
X78438476Y-87288714D01*
X78581333Y-87288714D01*
X78676571Y-87336333D01*
X79533714Y-87907761D02*
X79438476Y-87955380D01*
X79248000Y-87955380D01*
X79152761Y-87907761D01*
X79105142Y-87812523D01*
X79105142Y-87431571D01*
X79152761Y-87336333D01*
X79248000Y-87288714D01*
X79438476Y-87288714D01*
X79533714Y-87336333D01*
X79581333Y-87431571D01*
X79581333Y-87526809D01*
X79105142Y-87622047D01*
X80009904Y-87955380D02*
X80009904Y-87288714D01*
X80009904Y-87479190D02*
X80057523Y-87383952D01*
X80105142Y-87336333D01*
X80200380Y-87288714D01*
X80295619Y-87288714D01*
X81343238Y-87050619D02*
X81390857Y-87003000D01*
X81486095Y-86955380D01*
X81724190Y-86955380D01*
X81819428Y-87003000D01*
X81867047Y-87050619D01*
X81914666Y-87145857D01*
X81914666Y-87241095D01*
X81867047Y-87383952D01*
X81295619Y-87955380D01*
X81914666Y-87955380D01*
X88630285Y-93670380D02*
X88630285Y-92670380D01*
X89201714Y-93670380D01*
X89201714Y-92670380D01*
X89868380Y-92670380D02*
X90058857Y-92670380D01*
X90154095Y-92718000D01*
X90249333Y-92813238D01*
X90296952Y-93003714D01*
X90296952Y-93337047D01*
X90249333Y-93527523D01*
X90154095Y-93622761D01*
X90058857Y-93670380D01*
X89868380Y-93670380D01*
X89773142Y-93622761D01*
X89677904Y-93527523D01*
X89630285Y-93337047D01*
X89630285Y-93003714D01*
X89677904Y-92813238D01*
X89773142Y-92718000D01*
X89868380Y-92670380D01*
X90677904Y-92765619D02*
X90725523Y-92718000D01*
X90820761Y-92670380D01*
X91058857Y-92670380D01*
X91154095Y-92718000D01*
X91201714Y-92765619D01*
X91249333Y-92860857D01*
X91249333Y-92956095D01*
X91201714Y-93098952D01*
X90630285Y-93670380D01*
X91249333Y-93670380D01*
X88836571Y-99782380D02*
X89027047Y-99782380D01*
X89122285Y-99830000D01*
X89217523Y-99925238D01*
X89265142Y-100115714D01*
X89265142Y-100449047D01*
X89217523Y-100639523D01*
X89122285Y-100734761D01*
X89027047Y-100782380D01*
X88836571Y-100782380D01*
X88741333Y-100734761D01*
X88646095Y-100639523D01*
X88598476Y-100449047D01*
X88598476Y-100115714D01*
X88646095Y-99925238D01*
X88741333Y-99830000D01*
X88836571Y-99782380D01*
X89646095Y-99877619D02*
X89693714Y-99830000D01*
X89788952Y-99782380D01*
X90027047Y-99782380D01*
X90122285Y-99830000D01*
X90169904Y-99877619D01*
X90217523Y-99972857D01*
X90217523Y-100068095D01*
X90169904Y-100210952D01*
X89598476Y-100782380D01*
X90217523Y-100782380D01*
X88971523Y-106656142D02*
X88923904Y-106703761D01*
X88781047Y-106751380D01*
X88685809Y-106751380D01*
X88542952Y-106703761D01*
X88447714Y-106608523D01*
X88400095Y-106513285D01*
X88352476Y-106322809D01*
X88352476Y-106179952D01*
X88400095Y-105989476D01*
X88447714Y-105894238D01*
X88542952Y-105799000D01*
X88685809Y-105751380D01*
X88781047Y-105751380D01*
X88923904Y-105799000D01*
X88971523Y-105846619D01*
X89590571Y-105751380D02*
X89781047Y-105751380D01*
X89876285Y-105799000D01*
X89971523Y-105894238D01*
X90019142Y-106084714D01*
X90019142Y-106418047D01*
X89971523Y-106608523D01*
X89876285Y-106703761D01*
X89781047Y-106751380D01*
X89590571Y-106751380D01*
X89495333Y-106703761D01*
X89400095Y-106608523D01*
X89352476Y-106418047D01*
X89352476Y-106084714D01*
X89400095Y-105894238D01*
X89495333Y-105799000D01*
X89590571Y-105751380D01*
X90400095Y-105846619D02*
X90447714Y-105799000D01*
X90542952Y-105751380D01*
X90781047Y-105751380D01*
X90876285Y-105799000D01*
X90923904Y-105846619D01*
X90971523Y-105941857D01*
X90971523Y-106037095D01*
X90923904Y-106179952D01*
X90352476Y-106751380D01*
X90971523Y-106751380D01*
X88328761Y-90495380D02*
X88328761Y-89495380D01*
X88900190Y-90495380D01*
X88900190Y-89495380D01*
X89376380Y-90495380D02*
X89376380Y-89495380D01*
X89376380Y-89971571D02*
X89947809Y-89971571D01*
X89947809Y-90495380D02*
X89947809Y-89495380D01*
X90328761Y-89495380D02*
X90947809Y-89495380D01*
X90614476Y-89876333D01*
X90757333Y-89876333D01*
X90852571Y-89923952D01*
X90900190Y-89971571D01*
X90947809Y-90066809D01*
X90947809Y-90304904D01*
X90900190Y-90400142D01*
X90852571Y-90447761D01*
X90757333Y-90495380D01*
X90471619Y-90495380D01*
X90376380Y-90447761D01*
X90328761Y-90400142D01*
X92090666Y-90209666D02*
X92566857Y-90209666D01*
X91995428Y-90495380D02*
X92328761Y-89495380D01*
X92662095Y-90495380D01*
X76779666Y-102449380D02*
X76303476Y-102449380D01*
X76255857Y-102925571D01*
X76303476Y-102877952D01*
X76398714Y-102830333D01*
X76636809Y-102830333D01*
X76732047Y-102877952D01*
X76779666Y-102925571D01*
X76827285Y-103020809D01*
X76827285Y-103258904D01*
X76779666Y-103354142D01*
X76732047Y-103401761D01*
X76636809Y-103449380D01*
X76398714Y-103449380D01*
X76303476Y-103401761D01*
X76255857Y-103354142D01*
X77113000Y-102449380D02*
X77446333Y-103449380D01*
X77779666Y-102449380D01*
X79065380Y-102449380D02*
X79255857Y-102449380D01*
X79351095Y-102497000D01*
X79446333Y-102592238D01*
X79493952Y-102782714D01*
X79493952Y-103116047D01*
X79446333Y-103306523D01*
X79351095Y-103401761D01*
X79255857Y-103449380D01*
X79065380Y-103449380D01*
X78970142Y-103401761D01*
X78874904Y-103306523D01*
X78827285Y-103116047D01*
X78827285Y-102782714D01*
X78874904Y-102592238D01*
X78970142Y-102497000D01*
X79065380Y-102449380D01*
X79922523Y-103449380D02*
X79922523Y-102449380D01*
X80493952Y-103449380D02*
X80065380Y-102877952D01*
X80493952Y-102449380D02*
X79922523Y-103020809D01*
X80922523Y-103449380D02*
X80922523Y-102449380D01*
X76255952Y-105878380D02*
X76875000Y-105878380D01*
X76541666Y-106259333D01*
X76684523Y-106259333D01*
X76779761Y-106306952D01*
X76827380Y-106354571D01*
X76875000Y-106449809D01*
X76875000Y-106687904D01*
X76827380Y-106783142D01*
X76779761Y-106830761D01*
X76684523Y-106878380D01*
X76398809Y-106878380D01*
X76303571Y-106830761D01*
X76255952Y-106783142D01*
X77303571Y-106783142D02*
X77351190Y-106830761D01*
X77303571Y-106878380D01*
X77255952Y-106830761D01*
X77303571Y-106783142D01*
X77303571Y-106878380D01*
X77684523Y-105878380D02*
X78303571Y-105878380D01*
X77970238Y-106259333D01*
X78113095Y-106259333D01*
X78208333Y-106306952D01*
X78255952Y-106354571D01*
X78303571Y-106449809D01*
X78303571Y-106687904D01*
X78255952Y-106783142D01*
X78208333Y-106830761D01*
X78113095Y-106878380D01*
X77827380Y-106878380D01*
X77732142Y-106830761D01*
X77684523Y-106783142D01*
X78589285Y-105878380D02*
X78922619Y-106878380D01*
X79255952Y-105878380D01*
X80541666Y-105878380D02*
X80732142Y-105878380D01*
X80827380Y-105926000D01*
X80922619Y-106021238D01*
X80970238Y-106211714D01*
X80970238Y-106545047D01*
X80922619Y-106735523D01*
X80827380Y-106830761D01*
X80732142Y-106878380D01*
X80541666Y-106878380D01*
X80446428Y-106830761D01*
X80351190Y-106735523D01*
X80303571Y-106545047D01*
X80303571Y-106211714D01*
X80351190Y-106021238D01*
X80446428Y-105926000D01*
X80541666Y-105878380D01*
X81398809Y-106878380D02*
X81398809Y-105878380D01*
X81970238Y-106878380D02*
X81541666Y-106306952D01*
X81970238Y-105878380D02*
X81398809Y-106449809D01*
X82398809Y-106878380D02*
X82398809Y-105878380D01*
%TO.C,Conn1*%
X110363000Y-6883400D02*
G75*
G03*
X109220000Y-8026400I0J-1143000D01*
G01*
X109220000Y-8026400D02*
G75*
G03*
X110363000Y-9169400I1143000J0D01*
G01*
X95732600Y-8026400D02*
G75*
G03*
X94615000Y-6908800I-1117600J0D01*
G01*
X94615000Y-9144000D02*
G75*
G03*
X95732600Y-8026400I0J1117600D01*
G01*
X110363000Y2032000D02*
X94615000Y2032000D01*
X110363000Y-22606000D02*
X94615000Y-22606000D01*
X110363000Y-6883400D02*
X110363000Y-5664200D01*
X94615000Y-10337800D02*
X94615000Y-9144000D01*
X96926400Y-8026400D02*
X95758000Y-8026400D01*
X94615000Y-5715000D02*
X94615000Y-6883400D01*
X110363000Y-10287000D02*
X110363000Y-9194800D01*
X109220000Y-8026400D02*
X108051600Y-8026400D01*
X100203000Y-8026400D02*
X101346000Y-8026400D01*
X102514400Y2006600D02*
X102514400Y-6883400D01*
X104775000Y-8026400D02*
X103632000Y-8026400D01*
X102489000Y-10312400D02*
X102489000Y-9169400D01*
X100203000Y-8026400D02*
X96901000Y-8026400D01*
X102489000Y-10312400D02*
X102489000Y-22606000D01*
X104775000Y-8026400D02*
X108051600Y-8026400D01*
X103632000Y-8026400D02*
G75*
G03*
X103632000Y-8026400I-1143000J0D01*
G01*
X94615000Y-10312400D02*
X94615000Y-22606000D01*
X94615000Y-5740400D02*
X94615000Y2006600D01*
X110363000Y2006600D02*
X110363000Y-5740400D01*
X110363000Y-10312400D02*
X110363000Y-22606000D01*
D11*
%TO.C,C9*%
X54239279Y-32895000D02*
X53913721Y-32895000D01*
X54239279Y-31875000D02*
X53913721Y-31875000D01*
%TO.C,C8*%
X61203721Y-31875000D02*
X61529279Y-31875000D01*
X61203721Y-32895000D02*
X61529279Y-32895000D01*
D10*
%TO.C,U3*%
X41402000Y-51816000D02*
X41402000Y-77216000D01*
X89662000Y-115316000D02*
X84582000Y-115316000D01*
X41402000Y-77216000D02*
X46482000Y-77216000D01*
X84582000Y-140716000D02*
X89662000Y-140716000D01*
X84582000Y-115316000D02*
X84582000Y-140716000D01*
X46482000Y-77216000D02*
X46482000Y-51816000D01*
X89662000Y-51816000D02*
X84582000Y-51816000D01*
X41402000Y-140716000D02*
X46482000Y-140716000D01*
X89662000Y-77216000D02*
X89662000Y-51816000D01*
X46482000Y-51816000D02*
X41402000Y-51816000D01*
X84582000Y-77216000D02*
X89662000Y-77216000D01*
X84582000Y-51816000D02*
X84582000Y-77216000D01*
X41402000Y-115316000D02*
X41402000Y-140716000D01*
X46482000Y-115316000D02*
X41402000Y-115316000D01*
X46482000Y-140716000D02*
X46482000Y-115316000D01*
X89662000Y-140716000D02*
X89662000Y-115316000D01*
D11*
%TO.C,C1*%
X50628733Y-120140000D02*
X50971267Y-120140000D01*
X50628733Y-121160000D02*
X50971267Y-121160000D01*
%TO.C,C2*%
X63201733Y-121160000D02*
X63544267Y-121160000D01*
X63201733Y-120140000D02*
X63544267Y-120140000D01*
%TO.C,C3*%
X56559267Y-120140000D02*
X56216733Y-120140000D01*
X56559267Y-121160000D02*
X56216733Y-121160000D01*
%TO.C,C4*%
X68116267Y-121160000D02*
X67773733Y-121160000D01*
X68116267Y-120140000D02*
X67773733Y-120140000D01*
%TO.C,C5*%
X66804000Y-32453733D02*
X66804000Y-32796267D01*
X65784000Y-32453733D02*
X65784000Y-32796267D01*
%TO.C,C6*%
X68013733Y-38860000D02*
X68356267Y-38860000D01*
X68013733Y-39880000D02*
X68356267Y-39880000D01*
%TO.C,C7*%
X68013733Y-37086000D02*
X68356267Y-37086000D01*
X68013733Y-36066000D02*
X68356267Y-36066000D01*
%TO.C,C10*%
X47415267Y-39622000D02*
X47072733Y-39622000D01*
X47415267Y-40642000D02*
X47072733Y-40642000D01*
D10*
%TO.C,Conn3*%
X13462000Y-97155000D02*
X13462000Y-83185000D01*
X19050000Y-92710000D02*
X19050000Y-87630000D01*
X19050000Y-88900000D02*
X21590000Y-88900000D01*
X21590000Y-88900000D02*
X21590000Y-91440000D01*
X13462000Y-87630000D02*
X19050000Y-87630000D01*
X25400000Y-83185000D02*
X13462000Y-83185000D01*
X27940000Y-85090000D02*
X27940000Y-95250000D01*
X13462000Y-92710000D02*
X13970000Y-92710000D01*
X25400000Y-97155000D02*
X13462000Y-97155000D01*
X25400000Y-95250000D02*
X25400000Y-97155000D01*
X17780000Y-92710000D02*
X19050000Y-92710000D01*
X17780000Y-92710000D02*
X13970000Y-92710000D01*
X19050000Y-91440000D02*
X21590000Y-91440000D01*
X25400000Y-95250000D02*
X25400000Y-83185000D01*
X25400000Y-85090000D02*
X27940000Y-85090000D01*
X27940000Y-95250000D02*
X25400000Y-95250000D01*
%TO.C,Conn4*%
X13462000Y-127635000D02*
X13462000Y-113665000D01*
X19050000Y-123190000D02*
X19050000Y-118110000D01*
X19050000Y-119380000D02*
X21590000Y-119380000D01*
X21590000Y-119380000D02*
X21590000Y-121920000D01*
X13462000Y-118110000D02*
X19050000Y-118110000D01*
X25400000Y-113665000D02*
X13462000Y-113665000D01*
X27940000Y-115570000D02*
X27940000Y-125730000D01*
X13462000Y-123190000D02*
X13970000Y-123190000D01*
X25400000Y-127635000D02*
X13462000Y-127635000D01*
X25400000Y-125730000D02*
X25400000Y-127635000D01*
X17780000Y-123190000D02*
X19050000Y-123190000D01*
X17780000Y-123190000D02*
X13970000Y-123190000D01*
X19050000Y-121920000D02*
X21590000Y-121920000D01*
X25400000Y-125730000D02*
X25400000Y-113665000D01*
X25400000Y-115570000D02*
X27940000Y-115570000D01*
X27940000Y-125730000D02*
X25400000Y-125730000D01*
%TO.C,Conn5*%
X27940000Y-110490000D02*
X25400000Y-110490000D01*
X25400000Y-100330000D02*
X27940000Y-100330000D01*
X25400000Y-110490000D02*
X25400000Y-98425000D01*
X19050000Y-106680000D02*
X21590000Y-106680000D01*
X17780000Y-107950000D02*
X13970000Y-107950000D01*
X17780000Y-107950000D02*
X19050000Y-107950000D01*
X25400000Y-110490000D02*
X25400000Y-112395000D01*
X25400000Y-112395000D02*
X13462000Y-112395000D01*
X13462000Y-107950000D02*
X13970000Y-107950000D01*
X27940000Y-100330000D02*
X27940000Y-110490000D01*
X25400000Y-98425000D02*
X13462000Y-98425000D01*
X13462000Y-102870000D02*
X19050000Y-102870000D01*
X21590000Y-104140000D02*
X21590000Y-106680000D01*
X19050000Y-104140000D02*
X21590000Y-104140000D01*
X19050000Y-107950000D02*
X19050000Y-102870000D01*
X13462000Y-112395000D02*
X13462000Y-98425000D01*
D11*
%TO.C,D1*%
X75814000Y-102262000D02*
X73354000Y-102262000D01*
X75814000Y-103732000D02*
X75814000Y-102262000D01*
X73354000Y-103732000D02*
X75814000Y-103732000D01*
%TO.C,D2*%
X73354000Y-107161000D02*
X75814000Y-107161000D01*
X75814000Y-107161000D02*
X75814000Y-105691000D01*
X75814000Y-105691000D02*
X73354000Y-105691000D01*
%TO.C,D3*%
X62559000Y-90016000D02*
X65019000Y-90016000D01*
X65019000Y-90016000D02*
X65019000Y-88546000D01*
X65019000Y-88546000D02*
X62559000Y-88546000D01*
%TO.C,D4*%
X62446000Y-87222000D02*
X64906000Y-87222000D01*
X64906000Y-87222000D02*
X64906000Y-85752000D01*
X64906000Y-85752000D02*
X62446000Y-85752000D01*
%TO.C,D5*%
X64906000Y-82958000D02*
X62446000Y-82958000D01*
X64906000Y-84428000D02*
X64906000Y-82958000D01*
X62446000Y-84428000D02*
X64906000Y-84428000D01*
%TO.C,D6*%
X87893000Y-89181000D02*
X85433000Y-89181000D01*
X87893000Y-90651000D02*
X87893000Y-89181000D01*
X85433000Y-90651000D02*
X87893000Y-90651000D01*
%TO.C,D10*%
X87146000Y-107088000D02*
X84686000Y-107088000D01*
X84686000Y-107088000D02*
X84686000Y-108558000D01*
X84686000Y-108558000D02*
X87146000Y-108558000D01*
%TO.C,D11*%
X84686000Y-105637000D02*
X87146000Y-105637000D01*
X84686000Y-104167000D02*
X84686000Y-105637000D01*
X87146000Y-104167000D02*
X84686000Y-104167000D01*
%TO.C,D12*%
X87146000Y-101119000D02*
X84686000Y-101119000D01*
X84686000Y-101119000D02*
X84686000Y-102589000D01*
X84686000Y-102589000D02*
X87146000Y-102589000D01*
%TO.C,D13*%
X84686000Y-99668000D02*
X87146000Y-99668000D01*
X84686000Y-98198000D02*
X84686000Y-99668000D01*
X87146000Y-98198000D02*
X84686000Y-98198000D01*
%TO.C,D14*%
X84700000Y-84682000D02*
X87160000Y-84682000D01*
X84700000Y-83212000D02*
X84700000Y-84682000D01*
X87160000Y-83212000D02*
X84700000Y-83212000D01*
%TO.C,D15*%
X87146000Y-86260000D02*
X84686000Y-86260000D01*
X84686000Y-86260000D02*
X84686000Y-87730000D01*
X84686000Y-87730000D02*
X87146000Y-87730000D01*
%TO.C,FB1*%
X64568000Y-36837252D02*
X64568000Y-36314748D01*
X65988000Y-36837252D02*
X65988000Y-36314748D01*
%TO.C,J1*%
X61714000Y-30978000D02*
X60714000Y-30978000D01*
X64964000Y-17228000D02*
X64964000Y-16728000D01*
X63964000Y-17228000D02*
X64964000Y-17228000D01*
X63964000Y-25228000D02*
X63964000Y-17228000D01*
X63964000Y-30728000D02*
X63964000Y-28728000D01*
X51464000Y-30728000D02*
X63964000Y-30728000D01*
X51464000Y-28728000D02*
X51464000Y-30728000D01*
X51464000Y-17228000D02*
X51464000Y-25228000D01*
X50464000Y-17228000D02*
X51464000Y-17228000D01*
X50464000Y-16728000D02*
X50464000Y-17228000D01*
X64964000Y-16728000D02*
X50464000Y-16728000D01*
%TO.C,Q2*%
X99185000Y-134803000D02*
X99185000Y-133873000D01*
X99185000Y-131643000D02*
X99185000Y-132573000D01*
X99185000Y-131643000D02*
X97025000Y-131643000D01*
X99185000Y-134803000D02*
X97725000Y-134803000D01*
%TO.C,Q3*%
X99185000Y-124389000D02*
X97725000Y-124389000D01*
X99185000Y-121229000D02*
X97025000Y-121229000D01*
X99185000Y-121229000D02*
X99185000Y-122159000D01*
X99185000Y-124389000D02*
X99185000Y-123459000D01*
%TO.C,Q4*%
X99185000Y-139883000D02*
X97725000Y-139883000D01*
X99185000Y-136723000D02*
X97025000Y-136723000D01*
X99185000Y-136723000D02*
X99185000Y-137653000D01*
X99185000Y-139883000D02*
X99185000Y-138953000D01*
%TO.C,Q5*%
X80262000Y-66350000D02*
X78802000Y-66350000D01*
X80262000Y-63190000D02*
X78102000Y-63190000D01*
X80262000Y-63190000D02*
X80262000Y-64120000D01*
X80262000Y-66350000D02*
X80262000Y-65420000D01*
%TO.C,Q6*%
X99185000Y-129596000D02*
X99185000Y-128666000D01*
X99185000Y-126436000D02*
X99185000Y-127366000D01*
X99185000Y-126436000D02*
X97025000Y-126436000D01*
X99185000Y-129596000D02*
X97725000Y-129596000D01*
%TO.C,R2*%
X71626000Y-119589733D02*
X71626000Y-119932267D01*
X72646000Y-119589733D02*
X72646000Y-119932267D01*
%TO.C,R3*%
X92627267Y-58676000D02*
X92284733Y-58676000D01*
X92627267Y-57656000D02*
X92284733Y-57656000D01*
%TO.C,R4*%
X92627267Y-54862000D02*
X92284733Y-54862000D01*
X92627267Y-55882000D02*
X92284733Y-55882000D01*
%TO.C,R5*%
X92284733Y-52576000D02*
X92627267Y-52576000D01*
X92284733Y-53596000D02*
X92627267Y-53596000D01*
%TO.C,R6*%
X79800267Y-69725000D02*
X79457733Y-69725000D01*
X79800267Y-68705000D02*
X79457733Y-68705000D01*
%TO.C,R10*%
X104970733Y-129288000D02*
X105313267Y-129288000D01*
X104970733Y-128268000D02*
X105313267Y-128268000D01*
%TO.C,R11*%
X104998733Y-123061000D02*
X105341267Y-123061000D01*
X104998733Y-124081000D02*
X105341267Y-124081000D01*
%TO.C,R12*%
X104857733Y-138682000D02*
X105200267Y-138682000D01*
X104857733Y-139702000D02*
X105200267Y-139702000D01*
%TO.C,R13*%
X104970733Y-134622000D02*
X105313267Y-134622000D01*
X104970733Y-133602000D02*
X105313267Y-133602000D01*
%TO.C,R15*%
X95125000Y-132938733D02*
X95125000Y-133281267D01*
X94105000Y-132938733D02*
X94105000Y-133281267D01*
%TO.C,R16*%
X95125000Y-122524733D02*
X95125000Y-122867267D01*
X94105000Y-122524733D02*
X94105000Y-122867267D01*
%TO.C,R18*%
X100582000Y-133065733D02*
X100582000Y-133408267D01*
X101602000Y-133065733D02*
X101602000Y-133408267D01*
%TO.C,R19*%
X100582000Y-122524733D02*
X100582000Y-122867267D01*
X101602000Y-122524733D02*
X101602000Y-122867267D01*
%TO.C,R20*%
X58291000Y-33445267D02*
X58291000Y-33102733D01*
X59311000Y-33445267D02*
X59311000Y-33102733D01*
%TO.C,R21*%
X56132000Y-33445267D02*
X56132000Y-33102733D01*
X57152000Y-33445267D02*
X57152000Y-33102733D01*
%TO.C,R22*%
X95125000Y-138018733D02*
X95125000Y-138361267D01*
X94105000Y-138018733D02*
X94105000Y-138361267D01*
%TO.C,R23*%
X74928000Y-64485733D02*
X74928000Y-64828267D01*
X75948000Y-64485733D02*
X75948000Y-64828267D01*
%TO.C,R24*%
X95125000Y-127731733D02*
X95125000Y-128074267D01*
X94105000Y-127731733D02*
X94105000Y-128074267D01*
%TO.C,R25*%
X100582000Y-138131733D02*
X100582000Y-138474267D01*
X101602000Y-138131733D02*
X101602000Y-138474267D01*
%TO.C,R26*%
X82552000Y-63723733D02*
X82552000Y-64066267D01*
X81532000Y-63723733D02*
X81532000Y-64066267D01*
%TO.C,R27*%
X100582000Y-127844733D02*
X100582000Y-128187267D01*
X101602000Y-127844733D02*
X101602000Y-128187267D01*
%TO.C,R28*%
X95675267Y-71245000D02*
X95332733Y-71245000D01*
X95675267Y-72265000D02*
X95332733Y-72265000D01*
%TO.C,R29*%
X95689267Y-75313000D02*
X95346733Y-75313000D01*
X95689267Y-74293000D02*
X95346733Y-74293000D01*
%TO.C,R30*%
X76230267Y-68705000D02*
X75887733Y-68705000D01*
X76230267Y-69725000D02*
X75887733Y-69725000D01*
%TO.C,R32*%
X108526733Y-123061000D02*
X108869267Y-123061000D01*
X108526733Y-124081000D02*
X108869267Y-124081000D01*
%TO.C,R33*%
X108780733Y-133602000D02*
X109123267Y-133602000D01*
X108780733Y-134622000D02*
X109123267Y-134622000D01*
%TO.C,R34*%
X108526733Y-129288000D02*
X108869267Y-129288000D01*
X108526733Y-128268000D02*
X108869267Y-128268000D01*
%TO.C,R35*%
X108413733Y-138682000D02*
X108756267Y-138682000D01*
X108413733Y-139702000D02*
X108756267Y-139702000D01*
%TO.C,R36*%
X99485267Y-75313000D02*
X99142733Y-75313000D01*
X99485267Y-74293000D02*
X99142733Y-74293000D01*
%TO.C,R37*%
X99471267Y-71245000D02*
X99128733Y-71245000D01*
X99471267Y-72265000D02*
X99128733Y-72265000D01*
%TO.C,U1*%
X59442000Y-122298000D02*
X48792000Y-122298000D01*
X48782000Y-122298000D02*
X48782000Y-139058000D01*
X48782000Y-139058000D02*
X59442000Y-139058000D01*
X59442000Y-139058000D02*
X59442000Y-122298000D01*
%TO.C,U2*%
X72142000Y-139058000D02*
X72142000Y-122298000D01*
X61482000Y-139058000D02*
X72142000Y-139058000D01*
X61482000Y-122298000D02*
X61482000Y-139058000D01*
X72142000Y-122298000D02*
X61492000Y-122298000D01*
D10*
%TO.C,U4*%
X57118000Y-38981000D02*
X53118000Y-38981000D01*
X58393000Y-44381000D02*
X53118000Y-44381000D01*
%TO.C,Conn2*%
X18796000Y-133350000D02*
X18796000Y-135890000D01*
X13208000Y-128905000D02*
X13208000Y-140335000D01*
X25146000Y-128905000D02*
X25146000Y-138430000D01*
X27686000Y-130810000D02*
X27686000Y-138430000D01*
X13208000Y-133350000D02*
X18796000Y-133350000D01*
X25146000Y-128905000D02*
X13208000Y-128905000D01*
X13208000Y-135890000D02*
X13716000Y-135890000D01*
X25146000Y-140335000D02*
X13208000Y-140335000D01*
X25146000Y-138430000D02*
X25146000Y-140335000D01*
X17526000Y-135890000D02*
X18796000Y-135890000D01*
X17526000Y-135890000D02*
X13716000Y-135890000D01*
X25146000Y-130810000D02*
X27686000Y-130810000D01*
X27686000Y-138430000D02*
X25146000Y-138430000D01*
%TO.C,Conn7*%
X27432000Y-60706000D02*
X24892000Y-60706000D01*
X24892000Y-55626000D02*
X27432000Y-55626000D01*
X24892000Y-62611000D02*
X12954000Y-62611000D01*
X12954000Y-62611000D02*
X12954000Y-53721000D01*
X27432000Y-55626000D02*
X27432000Y-60706000D01*
X24892000Y-53721000D02*
X12954000Y-53721000D01*
X24892000Y-62611000D02*
X24892000Y-53721000D01*
%TO.C,Conn8*%
X24892000Y-53467000D02*
X24892000Y-44577000D01*
X24892000Y-44577000D02*
X12954000Y-44577000D01*
X27432000Y-46482000D02*
X27432000Y-51562000D01*
X12954000Y-53467000D02*
X12954000Y-44577000D01*
X24892000Y-53467000D02*
X12954000Y-53467000D01*
X24892000Y-46482000D02*
X27432000Y-46482000D01*
X27432000Y-51562000D02*
X24892000Y-51562000D01*
%TO.C,Conn9*%
X27432000Y-79756000D02*
X24892000Y-79756000D01*
X24892000Y-74676000D02*
X27432000Y-74676000D01*
X24892000Y-81661000D02*
X12954000Y-81661000D01*
X12954000Y-81661000D02*
X12954000Y-72771000D01*
X27432000Y-74676000D02*
X27432000Y-79756000D01*
X24892000Y-72771000D02*
X12954000Y-72771000D01*
X24892000Y-81661000D02*
X24892000Y-72771000D01*
%TO.C,Conn10*%
X24892000Y-72517000D02*
X24892000Y-63627000D01*
X24892000Y-63627000D02*
X12954000Y-63627000D01*
X27432000Y-65532000D02*
X27432000Y-70612000D01*
X12954000Y-72517000D02*
X12954000Y-63627000D01*
X24892000Y-72517000D02*
X12954000Y-72517000D01*
X24892000Y-65532000D02*
X27432000Y-65532000D01*
X27432000Y-70612000D02*
X24892000Y-70612000D01*
%TO.C,Conn11*%
X27432000Y-41656000D02*
X24892000Y-41656000D01*
X24892000Y-36576000D02*
X27432000Y-36576000D01*
X24892000Y-43561000D02*
X12954000Y-43561000D01*
X12954000Y-43561000D02*
X12954000Y-34671000D01*
X27432000Y-36576000D02*
X27432000Y-41656000D01*
X24892000Y-34671000D02*
X12954000Y-34671000D01*
X24892000Y-43561000D02*
X24892000Y-34671000D01*
%TO.C,Conn12*%
X24892000Y-34417000D02*
X24892000Y-25527000D01*
X24892000Y-25527000D02*
X12954000Y-25527000D01*
X27432000Y-27432000D02*
X27432000Y-32512000D01*
X12954000Y-34417000D02*
X12954000Y-25527000D01*
X24892000Y-34417000D02*
X12954000Y-34417000D01*
X24892000Y-27432000D02*
X27432000Y-27432000D01*
X27432000Y-32512000D02*
X24892000Y-32512000D01*
%TO.C,Conn13*%
X26289000Y-17272000D02*
X35179000Y-17272000D01*
X35179000Y-17272000D02*
X35179000Y-5334000D01*
X33274000Y-19812000D02*
X28194000Y-19812000D01*
X26289000Y-5334000D02*
X35179000Y-5334000D01*
X26289000Y-17272000D02*
X26289000Y-5334000D01*
X33274000Y-17272000D02*
X33274000Y-19812000D01*
X28194000Y-19812000D02*
X28194000Y-17272000D01*
%TO.C,Conn14*%
X38100000Y-19812000D02*
X38100000Y-17272000D01*
X43180000Y-17272000D02*
X43180000Y-19812000D01*
X36195000Y-17272000D02*
X36195000Y-5334000D01*
X36195000Y-5334000D02*
X45085000Y-5334000D01*
X43180000Y-19812000D02*
X38100000Y-19812000D01*
X45085000Y-17272000D02*
X45085000Y-5334000D01*
X36195000Y-17272000D02*
X45085000Y-17272000D01*
D11*
%TO.C,D7*%
X87160000Y-95277000D02*
X84700000Y-95277000D01*
X84700000Y-95277000D02*
X84700000Y-96747000D01*
X84700000Y-96747000D02*
X87160000Y-96747000D01*
%TO.C,D8*%
X84686000Y-93826000D02*
X87146000Y-93826000D01*
X84686000Y-92356000D02*
X84686000Y-93826000D01*
X87146000Y-92356000D02*
X84686000Y-92356000D01*
%TO.C,D9*%
X73382000Y-92175000D02*
X75842000Y-92175000D01*
X75842000Y-92175000D02*
X75842000Y-90705000D01*
X75842000Y-90705000D02*
X73382000Y-90705000D01*
%TO.C,D16*%
X73368000Y-88238000D02*
X75828000Y-88238000D01*
X75828000Y-88238000D02*
X75828000Y-86768000D01*
X75828000Y-86768000D02*
X73368000Y-86768000D01*
%TO.C,D17*%
X75828000Y-82958000D02*
X73368000Y-82958000D01*
X75828000Y-84428000D02*
X75828000Y-82958000D01*
X73368000Y-84428000D02*
X75828000Y-84428000D01*
%TO.C,D18*%
X75814000Y-95150000D02*
X73354000Y-95150000D01*
X75814000Y-96620000D02*
X75814000Y-95150000D01*
X73354000Y-96620000D02*
X75814000Y-96620000D01*
%TO.C,D19*%
X73354000Y-100303000D02*
X75814000Y-100303000D01*
X75814000Y-100303000D02*
X75814000Y-98833000D01*
X75814000Y-98833000D02*
X73354000Y-98833000D01*
%TO.C,Q7*%
X51530000Y-62095000D02*
X51530000Y-62755000D01*
X51530000Y-60435000D02*
X51530000Y-61095000D01*
X51530000Y-60435000D02*
X49500000Y-60435000D01*
X50120000Y-62755000D02*
X51530000Y-62755000D01*
%TO.C,Q8*%
X50120000Y-53230000D02*
X51530000Y-53230000D01*
X51530000Y-50910000D02*
X49500000Y-50910000D01*
X51530000Y-50910000D02*
X51530000Y-51570000D01*
X51530000Y-52570000D02*
X51530000Y-53230000D01*
%TO.C,Q9*%
X51530000Y-56380000D02*
X51530000Y-57040000D01*
X51530000Y-54720000D02*
X51530000Y-55380000D01*
X51530000Y-54720000D02*
X49500000Y-54720000D01*
X50120000Y-57040000D02*
X51530000Y-57040000D01*
%TO.C,R7*%
X99015733Y-118108000D02*
X99358267Y-118108000D01*
X99015733Y-119128000D02*
X99358267Y-119128000D01*
%TO.C,R8*%
X99001733Y-115060000D02*
X99344267Y-115060000D01*
X99001733Y-116080000D02*
X99344267Y-116080000D01*
%TO.C,R9*%
X95332733Y-119128000D02*
X95675267Y-119128000D01*
X95332733Y-118108000D02*
X95675267Y-118108000D01*
%TO.C,R14*%
X95332733Y-116080000D02*
X95675267Y-116080000D01*
X95332733Y-115060000D02*
X95675267Y-115060000D01*
%TO.C,R17*%
X54438733Y-61597000D02*
X54781267Y-61597000D01*
X54438733Y-60577000D02*
X54781267Y-60577000D01*
%TO.C,R31*%
X54438733Y-56390000D02*
X54781267Y-56390000D01*
X54438733Y-55370000D02*
X54781267Y-55370000D01*
%TO.C,R38*%
X54438733Y-52580000D02*
X54781267Y-52580000D01*
X54438733Y-51560000D02*
X54781267Y-51560000D01*
%TO.C,R39*%
X59137733Y-60577000D02*
X59480267Y-60577000D01*
X59137733Y-61597000D02*
X59480267Y-61597000D01*
%TO.C,R40*%
X59123733Y-55370000D02*
X59466267Y-55370000D01*
X59123733Y-56390000D02*
X59466267Y-56390000D01*
%TO.C,R41*%
X59123733Y-51560000D02*
X59466267Y-51560000D01*
X59123733Y-52580000D02*
X59466267Y-52580000D01*
%TO.C,R42*%
X38271267Y-51560000D02*
X37928733Y-51560000D01*
X38271267Y-52580000D02*
X37928733Y-52580000D01*
%TO.C,R43*%
X38271267Y-56390000D02*
X37928733Y-56390000D01*
X38271267Y-55370000D02*
X37928733Y-55370000D01*
%TO.C,R1*%
X59053000Y-118446733D02*
X59053000Y-118789267D01*
X60073000Y-118446733D02*
X60073000Y-118789267D01*
%TO.C,C9*%
D10*
X51522333Y-32742142D02*
X51474714Y-32789761D01*
X51331857Y-32837380D01*
X51236619Y-32837380D01*
X51093761Y-32789761D01*
X50998523Y-32694523D01*
X50950904Y-32599285D01*
X50903285Y-32408809D01*
X50903285Y-32265952D01*
X50950904Y-32075476D01*
X50998523Y-31980238D01*
X51093761Y-31885000D01*
X51236619Y-31837380D01*
X51331857Y-31837380D01*
X51474714Y-31885000D01*
X51522333Y-31932619D01*
X51998523Y-32837380D02*
X52189000Y-32837380D01*
X52284238Y-32789761D01*
X52331857Y-32742142D01*
X52427095Y-32599285D01*
X52474714Y-32408809D01*
X52474714Y-32027857D01*
X52427095Y-31932619D01*
X52379476Y-31885000D01*
X52284238Y-31837380D01*
X52093761Y-31837380D01*
X51998523Y-31885000D01*
X51950904Y-31932619D01*
X51903285Y-32027857D01*
X51903285Y-32265952D01*
X51950904Y-32361190D01*
X51998523Y-32408809D01*
X52093761Y-32456428D01*
X52284238Y-32456428D01*
X52379476Y-32408809D01*
X52427095Y-32361190D01*
X52474714Y-32265952D01*
%TO.C,C8*%
X63587333Y-32742142D02*
X63539714Y-32789761D01*
X63396857Y-32837380D01*
X63301619Y-32837380D01*
X63158761Y-32789761D01*
X63063523Y-32694523D01*
X63015904Y-32599285D01*
X62968285Y-32408809D01*
X62968285Y-32265952D01*
X63015904Y-32075476D01*
X63063523Y-31980238D01*
X63158761Y-31885000D01*
X63301619Y-31837380D01*
X63396857Y-31837380D01*
X63539714Y-31885000D01*
X63587333Y-31932619D01*
X64158761Y-32265952D02*
X64063523Y-32218333D01*
X64015904Y-32170714D01*
X63968285Y-32075476D01*
X63968285Y-32027857D01*
X64015904Y-31932619D01*
X64063523Y-31885000D01*
X64158761Y-31837380D01*
X64349238Y-31837380D01*
X64444476Y-31885000D01*
X64492095Y-31932619D01*
X64539714Y-32027857D01*
X64539714Y-32075476D01*
X64492095Y-32170714D01*
X64444476Y-32218333D01*
X64349238Y-32265952D01*
X64158761Y-32265952D01*
X64063523Y-32313571D01*
X64015904Y-32361190D01*
X63968285Y-32456428D01*
X63968285Y-32646904D01*
X64015904Y-32742142D01*
X64063523Y-32789761D01*
X64158761Y-32837380D01*
X64349238Y-32837380D01*
X64444476Y-32789761D01*
X64492095Y-32742142D01*
X64539714Y-32646904D01*
X64539714Y-32456428D01*
X64492095Y-32361190D01*
X64444476Y-32313571D01*
X64349238Y-32265952D01*
%TO.C,U3*%
X54610095Y-16978380D02*
X54610095Y-17787904D01*
X54657714Y-17883142D01*
X54705333Y-17930761D01*
X54800571Y-17978380D01*
X54991047Y-17978380D01*
X55086285Y-17930761D01*
X55133904Y-17883142D01*
X55181523Y-17787904D01*
X55181523Y-16978380D01*
X55562476Y-16978380D02*
X56181523Y-16978380D01*
X55848190Y-17359333D01*
X55991047Y-17359333D01*
X56086285Y-17406952D01*
X56133904Y-17454571D01*
X56181523Y-17549809D01*
X56181523Y-17787904D01*
X56133904Y-17883142D01*
X56086285Y-17930761D01*
X55991047Y-17978380D01*
X55705333Y-17978380D01*
X55610095Y-17930761D01*
X55562476Y-17883142D01*
X82002380Y-117141523D02*
X83002380Y-116474857D01*
X82002380Y-116474857D02*
X83002380Y-117141523D01*
X82430952Y-115951047D02*
X82383333Y-116046285D01*
X82335714Y-116093904D01*
X82240476Y-116141523D01*
X82192857Y-116141523D01*
X82097619Y-116093904D01*
X82050000Y-116046285D01*
X82002380Y-115951047D01*
X82002380Y-115760571D01*
X82050000Y-115665333D01*
X82097619Y-115617714D01*
X82192857Y-115570095D01*
X82240476Y-115570095D01*
X82335714Y-115617714D01*
X82383333Y-115665333D01*
X82430952Y-115760571D01*
X82430952Y-115951047D01*
X82478571Y-116046285D01*
X82526190Y-116093904D01*
X82621428Y-116141523D01*
X82811904Y-116141523D01*
X82907142Y-116093904D01*
X82954761Y-116046285D01*
X83002380Y-115951047D01*
X83002380Y-115760571D01*
X82954761Y-115665333D01*
X82907142Y-115617714D01*
X82811904Y-115570095D01*
X82621428Y-115570095D01*
X82526190Y-115617714D01*
X82478571Y-115665333D01*
X82430952Y-115760571D01*
X84272380Y-75660285D02*
X84272380Y-76231714D01*
X84272380Y-75946000D02*
X83272380Y-75946000D01*
X83415238Y-76041238D01*
X83510476Y-76136476D01*
X83558095Y-76231714D01*
X84272380Y-53276476D02*
X84272380Y-53847904D01*
X84272380Y-53562190D02*
X83272380Y-53562190D01*
X83415238Y-53657428D01*
X83510476Y-53752666D01*
X83558095Y-53847904D01*
X83272380Y-52657428D02*
X83272380Y-52562190D01*
X83320000Y-52466952D01*
X83367619Y-52419333D01*
X83462857Y-52371714D01*
X83653333Y-52324095D01*
X83891428Y-52324095D01*
X84081904Y-52371714D01*
X84177142Y-52419333D01*
X84224761Y-52466952D01*
X84272380Y-52562190D01*
X84272380Y-52657428D01*
X84224761Y-52752666D01*
X84177142Y-52800285D01*
X84081904Y-52847904D01*
X83891428Y-52895523D01*
X83653333Y-52895523D01*
X83462857Y-52847904D01*
X83367619Y-52800285D01*
X83320000Y-52752666D01*
X83272380Y-52657428D01*
X47696380Y-53276476D02*
X47696380Y-53847904D01*
X47696380Y-53562190D02*
X46696380Y-53562190D01*
X46839238Y-53657428D01*
X46934476Y-53752666D01*
X46982095Y-53847904D01*
X46696380Y-52657428D02*
X46696380Y-52562190D01*
X46744000Y-52466952D01*
X46791619Y-52419333D01*
X46886857Y-52371714D01*
X47077333Y-52324095D01*
X47315428Y-52324095D01*
X47505904Y-52371714D01*
X47601142Y-52419333D01*
X47648761Y-52466952D01*
X47696380Y-52562190D01*
X47696380Y-52657428D01*
X47648761Y-52752666D01*
X47601142Y-52800285D01*
X47505904Y-52847904D01*
X47315428Y-52895523D01*
X47077333Y-52895523D01*
X46886857Y-52847904D01*
X46791619Y-52800285D01*
X46744000Y-52752666D01*
X46696380Y-52657428D01*
X84272380Y-139160285D02*
X84272380Y-139731714D01*
X84272380Y-139446000D02*
X83272380Y-139446000D01*
X83415238Y-139541238D01*
X83510476Y-139636476D01*
X83558095Y-139731714D01*
X47696380Y-139160285D02*
X47696380Y-139731714D01*
X47696380Y-139446000D02*
X46696380Y-139446000D01*
X46839238Y-139541238D01*
X46934476Y-139636476D01*
X46982095Y-139731714D01*
X47696380Y-116522476D02*
X47696380Y-117093904D01*
X47696380Y-116808190D02*
X46696380Y-116808190D01*
X46839238Y-116903428D01*
X46934476Y-116998666D01*
X46982095Y-117093904D01*
X46696380Y-115903428D02*
X46696380Y-115808190D01*
X46744000Y-115712952D01*
X46791619Y-115665333D01*
X46886857Y-115617714D01*
X47077333Y-115570095D01*
X47315428Y-115570095D01*
X47505904Y-115617714D01*
X47601142Y-115665333D01*
X47648761Y-115712952D01*
X47696380Y-115808190D01*
X47696380Y-115903428D01*
X47648761Y-115998666D01*
X47601142Y-116046285D01*
X47505904Y-116093904D01*
X47315428Y-116141523D01*
X47077333Y-116141523D01*
X46886857Y-116093904D01*
X46791619Y-116046285D01*
X46744000Y-115998666D01*
X46696380Y-115903428D01*
X47696380Y-75660285D02*
X47696380Y-76231714D01*
X47696380Y-75946000D02*
X46696380Y-75946000D01*
X46839238Y-76041238D01*
X46934476Y-76136476D01*
X46982095Y-76231714D01*
X47966380Y-117141523D02*
X48966380Y-116474857D01*
X47966380Y-116474857D02*
X48966380Y-117141523D01*
X48966380Y-116046285D02*
X48966380Y-115855809D01*
X48918761Y-115760571D01*
X48871142Y-115712952D01*
X48728285Y-115617714D01*
X48537809Y-115570095D01*
X48156857Y-115570095D01*
X48061619Y-115617714D01*
X48014000Y-115665333D01*
X47966380Y-115760571D01*
X47966380Y-115951047D01*
X48014000Y-116046285D01*
X48061619Y-116093904D01*
X48156857Y-116141523D01*
X48394952Y-116141523D01*
X48490190Y-116093904D01*
X48537809Y-116046285D01*
X48585428Y-115951047D01*
X48585428Y-115760571D01*
X48537809Y-115665333D01*
X48490190Y-115617714D01*
X48394952Y-115570095D01*
X88558666Y-50752285D02*
X88558666Y-50276095D01*
X88844380Y-50847523D02*
X87844380Y-50514190D01*
X88844380Y-50180857D01*
X87939619Y-49895142D02*
X87892000Y-49847523D01*
X87844380Y-49752285D01*
X87844380Y-49514190D01*
X87892000Y-49418952D01*
X87939619Y-49371333D01*
X88034857Y-49323714D01*
X88130095Y-49323714D01*
X88272952Y-49371333D01*
X88844380Y-49942761D01*
X88844380Y-49323714D01*
X85526571Y-50442761D02*
X85574190Y-50299904D01*
X85621809Y-50252285D01*
X85717047Y-50204666D01*
X85859904Y-50204666D01*
X85955142Y-50252285D01*
X86002761Y-50299904D01*
X86050380Y-50395142D01*
X86050380Y-50776095D01*
X85050380Y-50776095D01*
X85050380Y-50442761D01*
X85098000Y-50347523D01*
X85145619Y-50299904D01*
X85240857Y-50252285D01*
X85336095Y-50252285D01*
X85431333Y-50299904D01*
X85478952Y-50347523D01*
X85526571Y-50442761D01*
X85526571Y-50776095D01*
X85145619Y-49823714D02*
X85098000Y-49776095D01*
X85050380Y-49680857D01*
X85050380Y-49442761D01*
X85098000Y-49347523D01*
X85145619Y-49299904D01*
X85240857Y-49252285D01*
X85336095Y-49252285D01*
X85478952Y-49299904D01*
X86050380Y-49871333D01*
X86050380Y-49252285D01*
X85780571Y-114704761D02*
X85828190Y-114561904D01*
X85875809Y-114514285D01*
X85971047Y-114466666D01*
X86113904Y-114466666D01*
X86209142Y-114514285D01*
X86256761Y-114561904D01*
X86304380Y-114657142D01*
X86304380Y-115038095D01*
X85304380Y-115038095D01*
X85304380Y-114704761D01*
X85352000Y-114609523D01*
X85399619Y-114561904D01*
X85494857Y-114514285D01*
X85590095Y-114514285D01*
X85685333Y-114561904D01*
X85732952Y-114609523D01*
X85780571Y-114704761D01*
X85780571Y-115038095D01*
X86304380Y-113514285D02*
X86304380Y-114085714D01*
X86304380Y-113800000D02*
X85304380Y-113800000D01*
X85447238Y-113895238D01*
X85542476Y-113990476D01*
X85590095Y-114085714D01*
X88558666Y-115014285D02*
X88558666Y-114538095D01*
X88844380Y-115109523D02*
X87844380Y-114776190D01*
X88844380Y-114442857D01*
X88844380Y-113585714D02*
X88844380Y-114157142D01*
X88844380Y-113871428D02*
X87844380Y-113871428D01*
X87987238Y-113966666D01*
X88082476Y-114061904D01*
X88130095Y-114157142D01*
X42870380Y-51538095D02*
X41870380Y-51538095D01*
X41870380Y-51300000D01*
X41918000Y-51157142D01*
X42013238Y-51061904D01*
X42108476Y-51014285D01*
X42298952Y-50966666D01*
X42441809Y-50966666D01*
X42632285Y-51014285D01*
X42727523Y-51061904D01*
X42822761Y-51157142D01*
X42870380Y-51300000D01*
X42870380Y-51538095D01*
X41965619Y-50585714D02*
X41918000Y-50538095D01*
X41870380Y-50442857D01*
X41870380Y-50204761D01*
X41918000Y-50109523D01*
X41965619Y-50061904D01*
X42060857Y-50014285D01*
X42156095Y-50014285D01*
X42298952Y-50061904D01*
X42870380Y-50633333D01*
X42870380Y-50014285D01*
X45569142Y-50966666D02*
X45616761Y-51014285D01*
X45664380Y-51157142D01*
X45664380Y-51252380D01*
X45616761Y-51395238D01*
X45521523Y-51490476D01*
X45426285Y-51538095D01*
X45235809Y-51585714D01*
X45092952Y-51585714D01*
X44902476Y-51538095D01*
X44807238Y-51490476D01*
X44712000Y-51395238D01*
X44664380Y-51252380D01*
X44664380Y-51157142D01*
X44712000Y-51014285D01*
X44759619Y-50966666D01*
X44759619Y-50585714D02*
X44712000Y-50538095D01*
X44664380Y-50442857D01*
X44664380Y-50204761D01*
X44712000Y-50109523D01*
X44759619Y-50061904D01*
X44854857Y-50014285D01*
X44950095Y-50014285D01*
X45092952Y-50061904D01*
X45664380Y-50633333D01*
X45664380Y-50014285D01*
X43378380Y-115038095D02*
X42378380Y-115038095D01*
X42378380Y-114800000D01*
X42426000Y-114657142D01*
X42521238Y-114561904D01*
X42616476Y-114514285D01*
X42806952Y-114466666D01*
X42949809Y-114466666D01*
X43140285Y-114514285D01*
X43235523Y-114561904D01*
X43330761Y-114657142D01*
X43378380Y-114800000D01*
X43378380Y-115038095D01*
X43378380Y-113514285D02*
X43378380Y-114085714D01*
X43378380Y-113800000D02*
X42378380Y-113800000D01*
X42521238Y-113895238D01*
X42616476Y-113990476D01*
X42664095Y-114085714D01*
X84272380Y-116522476D02*
X84272380Y-117093904D01*
X84272380Y-116808190D02*
X83272380Y-116808190D01*
X83415238Y-116903428D01*
X83510476Y-116998666D01*
X83558095Y-117093904D01*
X83272380Y-115903428D02*
X83272380Y-115808190D01*
X83320000Y-115712952D01*
X83367619Y-115665333D01*
X83462857Y-115617714D01*
X83653333Y-115570095D01*
X83891428Y-115570095D01*
X84081904Y-115617714D01*
X84177142Y-115665333D01*
X84224761Y-115712952D01*
X84272380Y-115808190D01*
X84272380Y-115903428D01*
X84224761Y-115998666D01*
X84177142Y-116046285D01*
X84081904Y-116093904D01*
X83891428Y-116141523D01*
X83653333Y-116141523D01*
X83462857Y-116093904D01*
X83367619Y-116046285D01*
X83320000Y-115998666D01*
X83272380Y-115903428D01*
X45569142Y-114466666D02*
X45616761Y-114514285D01*
X45664380Y-114657142D01*
X45664380Y-114752380D01*
X45616761Y-114895238D01*
X45521523Y-114990476D01*
X45426285Y-115038095D01*
X45235809Y-115085714D01*
X45092952Y-115085714D01*
X44902476Y-115038095D01*
X44807238Y-114990476D01*
X44712000Y-114895238D01*
X44664380Y-114752380D01*
X44664380Y-114657142D01*
X44712000Y-114514285D01*
X44759619Y-114466666D01*
X45664380Y-113514285D02*
X45664380Y-114085714D01*
X45664380Y-113800000D02*
X44664380Y-113800000D01*
X44807238Y-113895238D01*
X44902476Y-113990476D01*
X44950095Y-114085714D01*
X82002380Y-53895523D02*
X83002380Y-53228857D01*
X82002380Y-53228857D02*
X83002380Y-53895523D01*
X82002380Y-52419333D02*
X82002380Y-52609809D01*
X82050000Y-52705047D01*
X82097619Y-52752666D01*
X82240476Y-52847904D01*
X82430952Y-52895523D01*
X82811904Y-52895523D01*
X82907142Y-52847904D01*
X82954761Y-52800285D01*
X83002380Y-52705047D01*
X83002380Y-52514571D01*
X82954761Y-52419333D01*
X82907142Y-52371714D01*
X82811904Y-52324095D01*
X82573809Y-52324095D01*
X82478571Y-52371714D01*
X82430952Y-52419333D01*
X82383333Y-52514571D01*
X82383333Y-52705047D01*
X82430952Y-52800285D01*
X82478571Y-52847904D01*
X82573809Y-52895523D01*
X47966380Y-53895523D02*
X48966380Y-53228857D01*
X47966380Y-53228857D02*
X48966380Y-53895523D01*
X47966380Y-52943142D02*
X47966380Y-52276476D01*
X48966380Y-52705047D01*
%TO.C,C1*%
X53697142Y-120816666D02*
X53744761Y-120864285D01*
X53792380Y-121007142D01*
X53792380Y-121102380D01*
X53744761Y-121245238D01*
X53649523Y-121340476D01*
X53554285Y-121388095D01*
X53363809Y-121435714D01*
X53220952Y-121435714D01*
X53030476Y-121388095D01*
X52935238Y-121340476D01*
X52840000Y-121245238D01*
X52792380Y-121102380D01*
X52792380Y-121007142D01*
X52840000Y-120864285D01*
X52887619Y-120816666D01*
X53792380Y-119864285D02*
X53792380Y-120435714D01*
X53792380Y-120150000D02*
X52792380Y-120150000D01*
X52935238Y-120245238D01*
X53030476Y-120340476D01*
X53078095Y-120435714D01*
%TO.C,C2*%
X66270142Y-120816666D02*
X66317761Y-120864285D01*
X66365380Y-121007142D01*
X66365380Y-121102380D01*
X66317761Y-121245238D01*
X66222523Y-121340476D01*
X66127285Y-121388095D01*
X65936809Y-121435714D01*
X65793952Y-121435714D01*
X65603476Y-121388095D01*
X65508238Y-121340476D01*
X65413000Y-121245238D01*
X65365380Y-121102380D01*
X65365380Y-121007142D01*
X65413000Y-120864285D01*
X65460619Y-120816666D01*
X65460619Y-120435714D02*
X65413000Y-120388095D01*
X65365380Y-120292857D01*
X65365380Y-120054761D01*
X65413000Y-119959523D01*
X65460619Y-119911904D01*
X65555857Y-119864285D01*
X65651095Y-119864285D01*
X65793952Y-119911904D01*
X66365380Y-120483333D01*
X66365380Y-119864285D01*
%TO.C,C3*%
X59285142Y-120816666D02*
X59332761Y-120864285D01*
X59380380Y-121007142D01*
X59380380Y-121102380D01*
X59332761Y-121245238D01*
X59237523Y-121340476D01*
X59142285Y-121388095D01*
X58951809Y-121435714D01*
X58808952Y-121435714D01*
X58618476Y-121388095D01*
X58523238Y-121340476D01*
X58428000Y-121245238D01*
X58380380Y-121102380D01*
X58380380Y-121007142D01*
X58428000Y-120864285D01*
X58475619Y-120816666D01*
X58380380Y-120483333D02*
X58380380Y-119864285D01*
X58761333Y-120197619D01*
X58761333Y-120054761D01*
X58808952Y-119959523D01*
X58856571Y-119911904D01*
X58951809Y-119864285D01*
X59189904Y-119864285D01*
X59285142Y-119911904D01*
X59332761Y-119959523D01*
X59380380Y-120054761D01*
X59380380Y-120340476D01*
X59332761Y-120435714D01*
X59285142Y-120483333D01*
%TO.C,C4*%
X70842142Y-120816666D02*
X70889761Y-120864285D01*
X70937380Y-121007142D01*
X70937380Y-121102380D01*
X70889761Y-121245238D01*
X70794523Y-121340476D01*
X70699285Y-121388095D01*
X70508809Y-121435714D01*
X70365952Y-121435714D01*
X70175476Y-121388095D01*
X70080238Y-121340476D01*
X69985000Y-121245238D01*
X69937380Y-121102380D01*
X69937380Y-121007142D01*
X69985000Y-120864285D01*
X70032619Y-120816666D01*
X70270714Y-119959523D02*
X70937380Y-119959523D01*
X69889761Y-120197619D02*
X70604047Y-120435714D01*
X70604047Y-119816666D01*
%TO.C,C5*%
X68081142Y-32791666D02*
X68128761Y-32839285D01*
X68176380Y-32982142D01*
X68176380Y-33077380D01*
X68128761Y-33220238D01*
X68033523Y-33315476D01*
X67938285Y-33363095D01*
X67747809Y-33410714D01*
X67604952Y-33410714D01*
X67414476Y-33363095D01*
X67319238Y-33315476D01*
X67224000Y-33220238D01*
X67176380Y-33077380D01*
X67176380Y-32982142D01*
X67224000Y-32839285D01*
X67271619Y-32791666D01*
X67176380Y-31886904D02*
X67176380Y-32363095D01*
X67652571Y-32410714D01*
X67604952Y-32363095D01*
X67557333Y-32267857D01*
X67557333Y-32029761D01*
X67604952Y-31934523D01*
X67652571Y-31886904D01*
X67747809Y-31839285D01*
X67985904Y-31839285D01*
X68081142Y-31886904D01*
X68128761Y-31934523D01*
X68176380Y-32029761D01*
X68176380Y-32267857D01*
X68128761Y-32363095D01*
X68081142Y-32410714D01*
%TO.C,C6*%
X68018333Y-38297142D02*
X67970714Y-38344761D01*
X67827857Y-38392380D01*
X67732619Y-38392380D01*
X67589761Y-38344761D01*
X67494523Y-38249523D01*
X67446904Y-38154285D01*
X67399285Y-37963809D01*
X67399285Y-37820952D01*
X67446904Y-37630476D01*
X67494523Y-37535238D01*
X67589761Y-37440000D01*
X67732619Y-37392380D01*
X67827857Y-37392380D01*
X67970714Y-37440000D01*
X68018333Y-37487619D01*
X68875476Y-37392380D02*
X68685000Y-37392380D01*
X68589761Y-37440000D01*
X68542142Y-37487619D01*
X68446904Y-37630476D01*
X68399285Y-37820952D01*
X68399285Y-38201904D01*
X68446904Y-38297142D01*
X68494523Y-38344761D01*
X68589761Y-38392380D01*
X68780238Y-38392380D01*
X68875476Y-38344761D01*
X68923095Y-38297142D01*
X68970714Y-38201904D01*
X68970714Y-37963809D01*
X68923095Y-37868571D01*
X68875476Y-37820952D01*
X68780238Y-37773333D01*
X68589761Y-37773333D01*
X68494523Y-37820952D01*
X68446904Y-37868571D01*
X68399285Y-37963809D01*
%TO.C,C7*%
X68018333Y-35503142D02*
X67970714Y-35550761D01*
X67827857Y-35598380D01*
X67732619Y-35598380D01*
X67589761Y-35550761D01*
X67494523Y-35455523D01*
X67446904Y-35360285D01*
X67399285Y-35169809D01*
X67399285Y-35026952D01*
X67446904Y-34836476D01*
X67494523Y-34741238D01*
X67589761Y-34646000D01*
X67732619Y-34598380D01*
X67827857Y-34598380D01*
X67970714Y-34646000D01*
X68018333Y-34693619D01*
X68351666Y-34598380D02*
X69018333Y-34598380D01*
X68589761Y-35598380D01*
%TO.C,C10*%
X46601142Y-41919142D02*
X46553523Y-41966761D01*
X46410666Y-42014380D01*
X46315428Y-42014380D01*
X46172571Y-41966761D01*
X46077333Y-41871523D01*
X46029714Y-41776285D01*
X45982095Y-41585809D01*
X45982095Y-41442952D01*
X46029714Y-41252476D01*
X46077333Y-41157238D01*
X46172571Y-41062000D01*
X46315428Y-41014380D01*
X46410666Y-41014380D01*
X46553523Y-41062000D01*
X46601142Y-41109619D01*
X47553523Y-42014380D02*
X46982095Y-42014380D01*
X47267809Y-42014380D02*
X47267809Y-41014380D01*
X47172571Y-41157238D01*
X47077333Y-41252476D01*
X46982095Y-41300095D01*
X48172571Y-41014380D02*
X48267809Y-41014380D01*
X48363047Y-41062000D01*
X48410666Y-41109619D01*
X48458285Y-41204857D01*
X48505904Y-41395333D01*
X48505904Y-41633428D01*
X48458285Y-41823904D01*
X48410666Y-41919142D01*
X48363047Y-41966761D01*
X48267809Y-42014380D01*
X48172571Y-42014380D01*
X48077333Y-41966761D01*
X48029714Y-41919142D01*
X47982095Y-41823904D01*
X47934476Y-41633428D01*
X47934476Y-41395333D01*
X47982095Y-41204857D01*
X48029714Y-41109619D01*
X48077333Y-41062000D01*
X48172571Y-41014380D01*
%TO.C,D1*%
X73415904Y-104879380D02*
X73415904Y-103879380D01*
X73654000Y-103879380D01*
X73796857Y-103927000D01*
X73892095Y-104022238D01*
X73939714Y-104117476D01*
X73987333Y-104307952D01*
X73987333Y-104450809D01*
X73939714Y-104641285D01*
X73892095Y-104736523D01*
X73796857Y-104831761D01*
X73654000Y-104879380D01*
X73415904Y-104879380D01*
X74939714Y-104879380D02*
X74368285Y-104879380D01*
X74654000Y-104879380D02*
X74654000Y-103879380D01*
X74558761Y-104022238D01*
X74463523Y-104117476D01*
X74368285Y-104165095D01*
%TO.C,D2*%
X73415904Y-108308380D02*
X73415904Y-107308380D01*
X73654000Y-107308380D01*
X73796857Y-107356000D01*
X73892095Y-107451238D01*
X73939714Y-107546476D01*
X73987333Y-107736952D01*
X73987333Y-107879809D01*
X73939714Y-108070285D01*
X73892095Y-108165523D01*
X73796857Y-108260761D01*
X73654000Y-108308380D01*
X73415904Y-108308380D01*
X74368285Y-107403619D02*
X74415904Y-107356000D01*
X74511142Y-107308380D01*
X74749238Y-107308380D01*
X74844476Y-107356000D01*
X74892095Y-107403619D01*
X74939714Y-107498857D01*
X74939714Y-107594095D01*
X74892095Y-107736952D01*
X74320666Y-108308380D01*
X74939714Y-108308380D01*
%TO.C,D3*%
X62620904Y-91163380D02*
X62620904Y-90163380D01*
X62859000Y-90163380D01*
X63001857Y-90211000D01*
X63097095Y-90306238D01*
X63144714Y-90401476D01*
X63192333Y-90591952D01*
X63192333Y-90734809D01*
X63144714Y-90925285D01*
X63097095Y-91020523D01*
X63001857Y-91115761D01*
X62859000Y-91163380D01*
X62620904Y-91163380D01*
X63525666Y-90163380D02*
X64144714Y-90163380D01*
X63811380Y-90544333D01*
X63954238Y-90544333D01*
X64049476Y-90591952D01*
X64097095Y-90639571D01*
X64144714Y-90734809D01*
X64144714Y-90972904D01*
X64097095Y-91068142D01*
X64049476Y-91115761D01*
X63954238Y-91163380D01*
X63668523Y-91163380D01*
X63573285Y-91115761D01*
X63525666Y-91068142D01*
%TO.C,D4*%
X62507904Y-88369380D02*
X62507904Y-87369380D01*
X62746000Y-87369380D01*
X62888857Y-87417000D01*
X62984095Y-87512238D01*
X63031714Y-87607476D01*
X63079333Y-87797952D01*
X63079333Y-87940809D01*
X63031714Y-88131285D01*
X62984095Y-88226523D01*
X62888857Y-88321761D01*
X62746000Y-88369380D01*
X62507904Y-88369380D01*
X63936476Y-87702714D02*
X63936476Y-88369380D01*
X63698380Y-87321761D02*
X63460285Y-88036047D01*
X64079333Y-88036047D01*
%TO.C,D5*%
X62507904Y-85575380D02*
X62507904Y-84575380D01*
X62746000Y-84575380D01*
X62888857Y-84623000D01*
X62984095Y-84718238D01*
X63031714Y-84813476D01*
X63079333Y-85003952D01*
X63079333Y-85146809D01*
X63031714Y-85337285D01*
X62984095Y-85432523D01*
X62888857Y-85527761D01*
X62746000Y-85575380D01*
X62507904Y-85575380D01*
X63984095Y-84575380D02*
X63507904Y-84575380D01*
X63460285Y-85051571D01*
X63507904Y-85003952D01*
X63603142Y-84956333D01*
X63841238Y-84956333D01*
X63936476Y-85003952D01*
X63984095Y-85051571D01*
X64031714Y-85146809D01*
X64031714Y-85384904D01*
X63984095Y-85480142D01*
X63936476Y-85527761D01*
X63841238Y-85575380D01*
X63603142Y-85575380D01*
X63507904Y-85527761D01*
X63460285Y-85480142D01*
%TO.C,D6*%
X85494904Y-88971380D02*
X85494904Y-87971380D01*
X85733000Y-87971380D01*
X85875857Y-88019000D01*
X85971095Y-88114238D01*
X86018714Y-88209476D01*
X86066333Y-88399952D01*
X86066333Y-88542809D01*
X86018714Y-88733285D01*
X85971095Y-88828523D01*
X85875857Y-88923761D01*
X85733000Y-88971380D01*
X85494904Y-88971380D01*
X86923476Y-87971380D02*
X86733000Y-87971380D01*
X86637761Y-88019000D01*
X86590142Y-88066619D01*
X86494904Y-88209476D01*
X86447285Y-88399952D01*
X86447285Y-88780904D01*
X86494904Y-88876142D01*
X86542523Y-88923761D01*
X86637761Y-88971380D01*
X86828238Y-88971380D01*
X86923476Y-88923761D01*
X86971095Y-88876142D01*
X87018714Y-88780904D01*
X87018714Y-88542809D01*
X86971095Y-88447571D01*
X86923476Y-88399952D01*
X86828238Y-88352333D01*
X86637761Y-88352333D01*
X86542523Y-88399952D01*
X86494904Y-88447571D01*
X86447285Y-88542809D01*
%TO.C,D10*%
X85131714Y-106845380D02*
X85131714Y-105845380D01*
X85369809Y-105845380D01*
X85512666Y-105893000D01*
X85607904Y-105988238D01*
X85655523Y-106083476D01*
X85703142Y-106273952D01*
X85703142Y-106416809D01*
X85655523Y-106607285D01*
X85607904Y-106702523D01*
X85512666Y-106797761D01*
X85369809Y-106845380D01*
X85131714Y-106845380D01*
X86655523Y-106845380D02*
X86084095Y-106845380D01*
X86369809Y-106845380D02*
X86369809Y-105845380D01*
X86274571Y-105988238D01*
X86179333Y-106083476D01*
X86084095Y-106131095D01*
X87274571Y-105845380D02*
X87369809Y-105845380D01*
X87465047Y-105893000D01*
X87512666Y-105940619D01*
X87560285Y-106035857D01*
X87607904Y-106226333D01*
X87607904Y-106464428D01*
X87560285Y-106654904D01*
X87512666Y-106750142D01*
X87465047Y-106797761D01*
X87369809Y-106845380D01*
X87274571Y-106845380D01*
X87179333Y-106797761D01*
X87131714Y-106750142D01*
X87084095Y-106654904D01*
X87036476Y-106464428D01*
X87036476Y-106226333D01*
X87084095Y-106035857D01*
X87131714Y-105940619D01*
X87179333Y-105893000D01*
X87274571Y-105845380D01*
%TO.C,D11*%
X85131714Y-103924380D02*
X85131714Y-102924380D01*
X85369809Y-102924380D01*
X85512666Y-102972000D01*
X85607904Y-103067238D01*
X85655523Y-103162476D01*
X85703142Y-103352952D01*
X85703142Y-103495809D01*
X85655523Y-103686285D01*
X85607904Y-103781523D01*
X85512666Y-103876761D01*
X85369809Y-103924380D01*
X85131714Y-103924380D01*
X86655523Y-103924380D02*
X86084095Y-103924380D01*
X86369809Y-103924380D02*
X86369809Y-102924380D01*
X86274571Y-103067238D01*
X86179333Y-103162476D01*
X86084095Y-103210095D01*
X87607904Y-103924380D02*
X87036476Y-103924380D01*
X87322190Y-103924380D02*
X87322190Y-102924380D01*
X87226952Y-103067238D01*
X87131714Y-103162476D01*
X87036476Y-103210095D01*
%TO.C,D12*%
X85131714Y-100876380D02*
X85131714Y-99876380D01*
X85369809Y-99876380D01*
X85512666Y-99924000D01*
X85607904Y-100019238D01*
X85655523Y-100114476D01*
X85703142Y-100304952D01*
X85703142Y-100447809D01*
X85655523Y-100638285D01*
X85607904Y-100733523D01*
X85512666Y-100828761D01*
X85369809Y-100876380D01*
X85131714Y-100876380D01*
X86655523Y-100876380D02*
X86084095Y-100876380D01*
X86369809Y-100876380D02*
X86369809Y-99876380D01*
X86274571Y-100019238D01*
X86179333Y-100114476D01*
X86084095Y-100162095D01*
X87036476Y-99971619D02*
X87084095Y-99924000D01*
X87179333Y-99876380D01*
X87417428Y-99876380D01*
X87512666Y-99924000D01*
X87560285Y-99971619D01*
X87607904Y-100066857D01*
X87607904Y-100162095D01*
X87560285Y-100304952D01*
X86988857Y-100876380D01*
X87607904Y-100876380D01*
%TO.C,D13*%
X85131714Y-97955380D02*
X85131714Y-96955380D01*
X85369809Y-96955380D01*
X85512666Y-97003000D01*
X85607904Y-97098238D01*
X85655523Y-97193476D01*
X85703142Y-97383952D01*
X85703142Y-97526809D01*
X85655523Y-97717285D01*
X85607904Y-97812523D01*
X85512666Y-97907761D01*
X85369809Y-97955380D01*
X85131714Y-97955380D01*
X86655523Y-97955380D02*
X86084095Y-97955380D01*
X86369809Y-97955380D02*
X86369809Y-96955380D01*
X86274571Y-97098238D01*
X86179333Y-97193476D01*
X86084095Y-97241095D01*
X86988857Y-96955380D02*
X87607904Y-96955380D01*
X87274571Y-97336333D01*
X87417428Y-97336333D01*
X87512666Y-97383952D01*
X87560285Y-97431571D01*
X87607904Y-97526809D01*
X87607904Y-97764904D01*
X87560285Y-97860142D01*
X87512666Y-97907761D01*
X87417428Y-97955380D01*
X87131714Y-97955380D01*
X87036476Y-97907761D01*
X86988857Y-97860142D01*
%TO.C,D14*%
X85145714Y-82969380D02*
X85145714Y-81969380D01*
X85383809Y-81969380D01*
X85526666Y-82017000D01*
X85621904Y-82112238D01*
X85669523Y-82207476D01*
X85717142Y-82397952D01*
X85717142Y-82540809D01*
X85669523Y-82731285D01*
X85621904Y-82826523D01*
X85526666Y-82921761D01*
X85383809Y-82969380D01*
X85145714Y-82969380D01*
X86669523Y-82969380D02*
X86098095Y-82969380D01*
X86383809Y-82969380D02*
X86383809Y-81969380D01*
X86288571Y-82112238D01*
X86193333Y-82207476D01*
X86098095Y-82255095D01*
X87526666Y-82302714D02*
X87526666Y-82969380D01*
X87288571Y-81921761D02*
X87050476Y-82636047D01*
X87669523Y-82636047D01*
%TO.C,D15*%
X85131714Y-86017380D02*
X85131714Y-85017380D01*
X85369809Y-85017380D01*
X85512666Y-85065000D01*
X85607904Y-85160238D01*
X85655523Y-85255476D01*
X85703142Y-85445952D01*
X85703142Y-85588809D01*
X85655523Y-85779285D01*
X85607904Y-85874523D01*
X85512666Y-85969761D01*
X85369809Y-86017380D01*
X85131714Y-86017380D01*
X86655523Y-86017380D02*
X86084095Y-86017380D01*
X86369809Y-86017380D02*
X86369809Y-85017380D01*
X86274571Y-85160238D01*
X86179333Y-85255476D01*
X86084095Y-85303095D01*
X87560285Y-85017380D02*
X87084095Y-85017380D01*
X87036476Y-85493571D01*
X87084095Y-85445952D01*
X87179333Y-85398333D01*
X87417428Y-85398333D01*
X87512666Y-85445952D01*
X87560285Y-85493571D01*
X87607904Y-85588809D01*
X87607904Y-85826904D01*
X87560285Y-85922142D01*
X87512666Y-85969761D01*
X87417428Y-86017380D01*
X87179333Y-86017380D01*
X87084095Y-85969761D01*
X87036476Y-85922142D01*
%TO.C,FB1*%
X63556571Y-37409333D02*
X63556571Y-37742666D01*
X64080380Y-37742666D02*
X63080380Y-37742666D01*
X63080380Y-37266476D01*
X63556571Y-36552190D02*
X63604190Y-36409333D01*
X63651809Y-36361714D01*
X63747047Y-36314095D01*
X63889904Y-36314095D01*
X63985142Y-36361714D01*
X64032761Y-36409333D01*
X64080380Y-36504571D01*
X64080380Y-36885523D01*
X63080380Y-36885523D01*
X63080380Y-36552190D01*
X63128000Y-36456952D01*
X63175619Y-36409333D01*
X63270857Y-36361714D01*
X63366095Y-36361714D01*
X63461333Y-36409333D01*
X63508952Y-36456952D01*
X63556571Y-36552190D01*
X63556571Y-36885523D01*
X64080380Y-35361714D02*
X64080380Y-35933142D01*
X64080380Y-35647428D02*
X63080380Y-35647428D01*
X63223238Y-35742666D01*
X63318476Y-35837904D01*
X63366095Y-35933142D01*
%TO.C,J1*%
X57578666Y-27392380D02*
X57578666Y-28106666D01*
X57531047Y-28249523D01*
X57435809Y-28344761D01*
X57292952Y-28392380D01*
X57197714Y-28392380D01*
X58578666Y-28392380D02*
X58007238Y-28392380D01*
X58292952Y-28392380D02*
X58292952Y-27392380D01*
X58197714Y-27535238D01*
X58102476Y-27630476D01*
X58007238Y-27678095D01*
%TO.C,Q2*%
X98329761Y-131270619D02*
X98234523Y-131223000D01*
X98139285Y-131127761D01*
X97996428Y-130984904D01*
X97901190Y-130937285D01*
X97805952Y-130937285D01*
X97853571Y-131175380D02*
X97758333Y-131127761D01*
X97663095Y-131032523D01*
X97615476Y-130842047D01*
X97615476Y-130508714D01*
X97663095Y-130318238D01*
X97758333Y-130223000D01*
X97853571Y-130175380D01*
X98044047Y-130175380D01*
X98139285Y-130223000D01*
X98234523Y-130318238D01*
X98282142Y-130508714D01*
X98282142Y-130842047D01*
X98234523Y-131032523D01*
X98139285Y-131127761D01*
X98044047Y-131175380D01*
X97853571Y-131175380D01*
X98663095Y-130270619D02*
X98710714Y-130223000D01*
X98805952Y-130175380D01*
X99044047Y-130175380D01*
X99139285Y-130223000D01*
X99186904Y-130270619D01*
X99234523Y-130365857D01*
X99234523Y-130461095D01*
X99186904Y-130603952D01*
X98615476Y-131175380D01*
X99234523Y-131175380D01*
%TO.C,Q3*%
X98329761Y-120856619D02*
X98234523Y-120809000D01*
X98139285Y-120713761D01*
X97996428Y-120570904D01*
X97901190Y-120523285D01*
X97805952Y-120523285D01*
X97853571Y-120761380D02*
X97758333Y-120713761D01*
X97663095Y-120618523D01*
X97615476Y-120428047D01*
X97615476Y-120094714D01*
X97663095Y-119904238D01*
X97758333Y-119809000D01*
X97853571Y-119761380D01*
X98044047Y-119761380D01*
X98139285Y-119809000D01*
X98234523Y-119904238D01*
X98282142Y-120094714D01*
X98282142Y-120428047D01*
X98234523Y-120618523D01*
X98139285Y-120713761D01*
X98044047Y-120761380D01*
X97853571Y-120761380D01*
X98615476Y-119761380D02*
X99234523Y-119761380D01*
X98901190Y-120142333D01*
X99044047Y-120142333D01*
X99139285Y-120189952D01*
X99186904Y-120237571D01*
X99234523Y-120332809D01*
X99234523Y-120570904D01*
X99186904Y-120666142D01*
X99139285Y-120713761D01*
X99044047Y-120761380D01*
X98758333Y-120761380D01*
X98663095Y-120713761D01*
X98615476Y-120666142D01*
%TO.C,Q4*%
X98329761Y-136350619D02*
X98234523Y-136303000D01*
X98139285Y-136207761D01*
X97996428Y-136064904D01*
X97901190Y-136017285D01*
X97805952Y-136017285D01*
X97853571Y-136255380D02*
X97758333Y-136207761D01*
X97663095Y-136112523D01*
X97615476Y-135922047D01*
X97615476Y-135588714D01*
X97663095Y-135398238D01*
X97758333Y-135303000D01*
X97853571Y-135255380D01*
X98044047Y-135255380D01*
X98139285Y-135303000D01*
X98234523Y-135398238D01*
X98282142Y-135588714D01*
X98282142Y-135922047D01*
X98234523Y-136112523D01*
X98139285Y-136207761D01*
X98044047Y-136255380D01*
X97853571Y-136255380D01*
X99139285Y-135588714D02*
X99139285Y-136255380D01*
X98901190Y-135207761D02*
X98663095Y-135922047D01*
X99282142Y-135922047D01*
%TO.C,Q5*%
X79406761Y-62817619D02*
X79311523Y-62770000D01*
X79216285Y-62674761D01*
X79073428Y-62531904D01*
X78978190Y-62484285D01*
X78882952Y-62484285D01*
X78930571Y-62722380D02*
X78835333Y-62674761D01*
X78740095Y-62579523D01*
X78692476Y-62389047D01*
X78692476Y-62055714D01*
X78740095Y-61865238D01*
X78835333Y-61770000D01*
X78930571Y-61722380D01*
X79121047Y-61722380D01*
X79216285Y-61770000D01*
X79311523Y-61865238D01*
X79359142Y-62055714D01*
X79359142Y-62389047D01*
X79311523Y-62579523D01*
X79216285Y-62674761D01*
X79121047Y-62722380D01*
X78930571Y-62722380D01*
X80263904Y-61722380D02*
X79787714Y-61722380D01*
X79740095Y-62198571D01*
X79787714Y-62150952D01*
X79882952Y-62103333D01*
X80121047Y-62103333D01*
X80216285Y-62150952D01*
X80263904Y-62198571D01*
X80311523Y-62293809D01*
X80311523Y-62531904D01*
X80263904Y-62627142D01*
X80216285Y-62674761D01*
X80121047Y-62722380D01*
X79882952Y-62722380D01*
X79787714Y-62674761D01*
X79740095Y-62627142D01*
%TO.C,Q6*%
X98329761Y-126063619D02*
X98234523Y-126016000D01*
X98139285Y-125920761D01*
X97996428Y-125777904D01*
X97901190Y-125730285D01*
X97805952Y-125730285D01*
X97853571Y-125968380D02*
X97758333Y-125920761D01*
X97663095Y-125825523D01*
X97615476Y-125635047D01*
X97615476Y-125301714D01*
X97663095Y-125111238D01*
X97758333Y-125016000D01*
X97853571Y-124968380D01*
X98044047Y-124968380D01*
X98139285Y-125016000D01*
X98234523Y-125111238D01*
X98282142Y-125301714D01*
X98282142Y-125635047D01*
X98234523Y-125825523D01*
X98139285Y-125920761D01*
X98044047Y-125968380D01*
X97853571Y-125968380D01*
X99139285Y-124968380D02*
X98948809Y-124968380D01*
X98853571Y-125016000D01*
X98805952Y-125063619D01*
X98710714Y-125206476D01*
X98663095Y-125396952D01*
X98663095Y-125777904D01*
X98710714Y-125873142D01*
X98758333Y-125920761D01*
X98853571Y-125968380D01*
X99044047Y-125968380D01*
X99139285Y-125920761D01*
X99186904Y-125873142D01*
X99234523Y-125777904D01*
X99234523Y-125539809D01*
X99186904Y-125444571D01*
X99139285Y-125396952D01*
X99044047Y-125349333D01*
X98853571Y-125349333D01*
X98758333Y-125396952D01*
X98710714Y-125444571D01*
X98663095Y-125539809D01*
%TO.C,R2*%
X74366380Y-119927666D02*
X73890190Y-120261000D01*
X74366380Y-120499095D02*
X73366380Y-120499095D01*
X73366380Y-120118142D01*
X73414000Y-120022904D01*
X73461619Y-119975285D01*
X73556857Y-119927666D01*
X73699714Y-119927666D01*
X73794952Y-119975285D01*
X73842571Y-120022904D01*
X73890190Y-120118142D01*
X73890190Y-120499095D01*
X73461619Y-119546714D02*
X73414000Y-119499095D01*
X73366380Y-119403857D01*
X73366380Y-119165761D01*
X73414000Y-119070523D01*
X73461619Y-119022904D01*
X73556857Y-118975285D01*
X73652095Y-118975285D01*
X73794952Y-119022904D01*
X74366380Y-119594333D01*
X74366380Y-118975285D01*
%TO.C,R3*%
X92289333Y-60048380D02*
X91956000Y-59572190D01*
X91717904Y-60048380D02*
X91717904Y-59048380D01*
X92098857Y-59048380D01*
X92194095Y-59096000D01*
X92241714Y-59143619D01*
X92289333Y-59238857D01*
X92289333Y-59381714D01*
X92241714Y-59476952D01*
X92194095Y-59524571D01*
X92098857Y-59572190D01*
X91717904Y-59572190D01*
X92622666Y-59048380D02*
X93241714Y-59048380D01*
X92908380Y-59429333D01*
X93051238Y-59429333D01*
X93146476Y-59476952D01*
X93194095Y-59524571D01*
X93241714Y-59619809D01*
X93241714Y-59857904D01*
X93194095Y-59953142D01*
X93146476Y-60000761D01*
X93051238Y-60048380D01*
X92765523Y-60048380D01*
X92670285Y-60000761D01*
X92622666Y-59953142D01*
%TO.C,R4*%
X92289333Y-57254380D02*
X91956000Y-56778190D01*
X91717904Y-57254380D02*
X91717904Y-56254380D01*
X92098857Y-56254380D01*
X92194095Y-56302000D01*
X92241714Y-56349619D01*
X92289333Y-56444857D01*
X92289333Y-56587714D01*
X92241714Y-56682952D01*
X92194095Y-56730571D01*
X92098857Y-56778190D01*
X91717904Y-56778190D01*
X93146476Y-56587714D02*
X93146476Y-57254380D01*
X92908380Y-56206761D02*
X92670285Y-56921047D01*
X93289333Y-56921047D01*
%TO.C,R5*%
X92289333Y-52108380D02*
X91956000Y-51632190D01*
X91717904Y-52108380D02*
X91717904Y-51108380D01*
X92098857Y-51108380D01*
X92194095Y-51156000D01*
X92241714Y-51203619D01*
X92289333Y-51298857D01*
X92289333Y-51441714D01*
X92241714Y-51536952D01*
X92194095Y-51584571D01*
X92098857Y-51632190D01*
X91717904Y-51632190D01*
X93194095Y-51108380D02*
X92717904Y-51108380D01*
X92670285Y-51584571D01*
X92717904Y-51536952D01*
X92813142Y-51489333D01*
X93051238Y-51489333D01*
X93146476Y-51536952D01*
X93194095Y-51584571D01*
X93241714Y-51679809D01*
X93241714Y-51917904D01*
X93194095Y-52013142D01*
X93146476Y-52060761D01*
X93051238Y-52108380D01*
X92813142Y-52108380D01*
X92717904Y-52060761D01*
X92670285Y-52013142D01*
%TO.C,R6*%
X79321333Y-68143380D02*
X78988000Y-67667190D01*
X78749904Y-68143380D02*
X78749904Y-67143380D01*
X79130857Y-67143380D01*
X79226095Y-67191000D01*
X79273714Y-67238619D01*
X79321333Y-67333857D01*
X79321333Y-67476714D01*
X79273714Y-67571952D01*
X79226095Y-67619571D01*
X79130857Y-67667190D01*
X78749904Y-67667190D01*
X80178476Y-67143380D02*
X79988000Y-67143380D01*
X79892761Y-67191000D01*
X79845142Y-67238619D01*
X79749904Y-67381476D01*
X79702285Y-67571952D01*
X79702285Y-67952904D01*
X79749904Y-68048142D01*
X79797523Y-68095761D01*
X79892761Y-68143380D01*
X80083238Y-68143380D01*
X80178476Y-68095761D01*
X80226095Y-68048142D01*
X80273714Y-67952904D01*
X80273714Y-67714809D01*
X80226095Y-67619571D01*
X80178476Y-67571952D01*
X80083238Y-67524333D01*
X79892761Y-67524333D01*
X79797523Y-67571952D01*
X79749904Y-67619571D01*
X79702285Y-67714809D01*
%TO.C,R10*%
X104499142Y-127800380D02*
X104165809Y-127324190D01*
X103927714Y-127800380D02*
X103927714Y-126800380D01*
X104308666Y-126800380D01*
X104403904Y-126848000D01*
X104451523Y-126895619D01*
X104499142Y-126990857D01*
X104499142Y-127133714D01*
X104451523Y-127228952D01*
X104403904Y-127276571D01*
X104308666Y-127324190D01*
X103927714Y-127324190D01*
X105451523Y-127800380D02*
X104880095Y-127800380D01*
X105165809Y-127800380D02*
X105165809Y-126800380D01*
X105070571Y-126943238D01*
X104975333Y-127038476D01*
X104880095Y-127086095D01*
X106070571Y-126800380D02*
X106165809Y-126800380D01*
X106261047Y-126848000D01*
X106308666Y-126895619D01*
X106356285Y-126990857D01*
X106403904Y-127181333D01*
X106403904Y-127419428D01*
X106356285Y-127609904D01*
X106308666Y-127705142D01*
X106261047Y-127752761D01*
X106165809Y-127800380D01*
X106070571Y-127800380D01*
X105975333Y-127752761D01*
X105927714Y-127705142D01*
X105880095Y-127609904D01*
X105832476Y-127419428D01*
X105832476Y-127181333D01*
X105880095Y-126990857D01*
X105927714Y-126895619D01*
X105975333Y-126848000D01*
X106070571Y-126800380D01*
%TO.C,R11*%
X104527142Y-122593380D02*
X104193809Y-122117190D01*
X103955714Y-122593380D02*
X103955714Y-121593380D01*
X104336666Y-121593380D01*
X104431904Y-121641000D01*
X104479523Y-121688619D01*
X104527142Y-121783857D01*
X104527142Y-121926714D01*
X104479523Y-122021952D01*
X104431904Y-122069571D01*
X104336666Y-122117190D01*
X103955714Y-122117190D01*
X105479523Y-122593380D02*
X104908095Y-122593380D01*
X105193809Y-122593380D02*
X105193809Y-121593380D01*
X105098571Y-121736238D01*
X105003333Y-121831476D01*
X104908095Y-121879095D01*
X106431904Y-122593380D02*
X105860476Y-122593380D01*
X106146190Y-122593380D02*
X106146190Y-121593380D01*
X106050952Y-121736238D01*
X105955714Y-121831476D01*
X105860476Y-121879095D01*
%TO.C,R12*%
X104386142Y-138214380D02*
X104052809Y-137738190D01*
X103814714Y-138214380D02*
X103814714Y-137214380D01*
X104195666Y-137214380D01*
X104290904Y-137262000D01*
X104338523Y-137309619D01*
X104386142Y-137404857D01*
X104386142Y-137547714D01*
X104338523Y-137642952D01*
X104290904Y-137690571D01*
X104195666Y-137738190D01*
X103814714Y-137738190D01*
X105338523Y-138214380D02*
X104767095Y-138214380D01*
X105052809Y-138214380D02*
X105052809Y-137214380D01*
X104957571Y-137357238D01*
X104862333Y-137452476D01*
X104767095Y-137500095D01*
X105719476Y-137309619D02*
X105767095Y-137262000D01*
X105862333Y-137214380D01*
X106100428Y-137214380D01*
X106195666Y-137262000D01*
X106243285Y-137309619D01*
X106290904Y-137404857D01*
X106290904Y-137500095D01*
X106243285Y-137642952D01*
X105671857Y-138214380D01*
X106290904Y-138214380D01*
%TO.C,R13*%
X104499142Y-133134380D02*
X104165809Y-132658190D01*
X103927714Y-133134380D02*
X103927714Y-132134380D01*
X104308666Y-132134380D01*
X104403904Y-132182000D01*
X104451523Y-132229619D01*
X104499142Y-132324857D01*
X104499142Y-132467714D01*
X104451523Y-132562952D01*
X104403904Y-132610571D01*
X104308666Y-132658190D01*
X103927714Y-132658190D01*
X105451523Y-133134380D02*
X104880095Y-133134380D01*
X105165809Y-133134380D02*
X105165809Y-132134380D01*
X105070571Y-132277238D01*
X104975333Y-132372476D01*
X104880095Y-132420095D01*
X105784857Y-132134380D02*
X106403904Y-132134380D01*
X106070571Y-132515333D01*
X106213428Y-132515333D01*
X106308666Y-132562952D01*
X106356285Y-132610571D01*
X106403904Y-132705809D01*
X106403904Y-132943904D01*
X106356285Y-133039142D01*
X106308666Y-133086761D01*
X106213428Y-133134380D01*
X105927714Y-133134380D01*
X105832476Y-133086761D01*
X105784857Y-133039142D01*
%TO.C,R15*%
X96497380Y-133752857D02*
X96021190Y-134086190D01*
X96497380Y-134324285D02*
X95497380Y-134324285D01*
X95497380Y-133943333D01*
X95545000Y-133848095D01*
X95592619Y-133800476D01*
X95687857Y-133752857D01*
X95830714Y-133752857D01*
X95925952Y-133800476D01*
X95973571Y-133848095D01*
X96021190Y-133943333D01*
X96021190Y-134324285D01*
X96497380Y-132800476D02*
X96497380Y-133371904D01*
X96497380Y-133086190D02*
X95497380Y-133086190D01*
X95640238Y-133181428D01*
X95735476Y-133276666D01*
X95783095Y-133371904D01*
X95497380Y-131895714D02*
X95497380Y-132371904D01*
X95973571Y-132419523D01*
X95925952Y-132371904D01*
X95878333Y-132276666D01*
X95878333Y-132038571D01*
X95925952Y-131943333D01*
X95973571Y-131895714D01*
X96068809Y-131848095D01*
X96306904Y-131848095D01*
X96402142Y-131895714D01*
X96449761Y-131943333D01*
X96497380Y-132038571D01*
X96497380Y-132276666D01*
X96449761Y-132371904D01*
X96402142Y-132419523D01*
%TO.C,R16*%
X96497380Y-123338857D02*
X96021190Y-123672190D01*
X96497380Y-123910285D02*
X95497380Y-123910285D01*
X95497380Y-123529333D01*
X95545000Y-123434095D01*
X95592619Y-123386476D01*
X95687857Y-123338857D01*
X95830714Y-123338857D01*
X95925952Y-123386476D01*
X95973571Y-123434095D01*
X96021190Y-123529333D01*
X96021190Y-123910285D01*
X96497380Y-122386476D02*
X96497380Y-122957904D01*
X96497380Y-122672190D02*
X95497380Y-122672190D01*
X95640238Y-122767428D01*
X95735476Y-122862666D01*
X95783095Y-122957904D01*
X95497380Y-121529333D02*
X95497380Y-121719809D01*
X95545000Y-121815047D01*
X95592619Y-121862666D01*
X95735476Y-121957904D01*
X95925952Y-122005523D01*
X96306904Y-122005523D01*
X96402142Y-121957904D01*
X96449761Y-121910285D01*
X96497380Y-121815047D01*
X96497380Y-121624571D01*
X96449761Y-121529333D01*
X96402142Y-121481714D01*
X96306904Y-121434095D01*
X96068809Y-121434095D01*
X95973571Y-121481714D01*
X95925952Y-121529333D01*
X95878333Y-121624571D01*
X95878333Y-121815047D01*
X95925952Y-121910285D01*
X95973571Y-121957904D01*
X96068809Y-122005523D01*
%TO.C,R18*%
X102974380Y-133879857D02*
X102498190Y-134213190D01*
X102974380Y-134451285D02*
X101974380Y-134451285D01*
X101974380Y-134070333D01*
X102022000Y-133975095D01*
X102069619Y-133927476D01*
X102164857Y-133879857D01*
X102307714Y-133879857D01*
X102402952Y-133927476D01*
X102450571Y-133975095D01*
X102498190Y-134070333D01*
X102498190Y-134451285D01*
X102974380Y-132927476D02*
X102974380Y-133498904D01*
X102974380Y-133213190D02*
X101974380Y-133213190D01*
X102117238Y-133308428D01*
X102212476Y-133403666D01*
X102260095Y-133498904D01*
X102402952Y-132356047D02*
X102355333Y-132451285D01*
X102307714Y-132498904D01*
X102212476Y-132546523D01*
X102164857Y-132546523D01*
X102069619Y-132498904D01*
X102022000Y-132451285D01*
X101974380Y-132356047D01*
X101974380Y-132165571D01*
X102022000Y-132070333D01*
X102069619Y-132022714D01*
X102164857Y-131975095D01*
X102212476Y-131975095D01*
X102307714Y-132022714D01*
X102355333Y-132070333D01*
X102402952Y-132165571D01*
X102402952Y-132356047D01*
X102450571Y-132451285D01*
X102498190Y-132498904D01*
X102593428Y-132546523D01*
X102783904Y-132546523D01*
X102879142Y-132498904D01*
X102926761Y-132451285D01*
X102974380Y-132356047D01*
X102974380Y-132165571D01*
X102926761Y-132070333D01*
X102879142Y-132022714D01*
X102783904Y-131975095D01*
X102593428Y-131975095D01*
X102498190Y-132022714D01*
X102450571Y-132070333D01*
X102402952Y-132165571D01*
%TO.C,R19*%
X102974380Y-123338857D02*
X102498190Y-123672190D01*
X102974380Y-123910285D02*
X101974380Y-123910285D01*
X101974380Y-123529333D01*
X102022000Y-123434095D01*
X102069619Y-123386476D01*
X102164857Y-123338857D01*
X102307714Y-123338857D01*
X102402952Y-123386476D01*
X102450571Y-123434095D01*
X102498190Y-123529333D01*
X102498190Y-123910285D01*
X102974380Y-122386476D02*
X102974380Y-122957904D01*
X102974380Y-122672190D02*
X101974380Y-122672190D01*
X102117238Y-122767428D01*
X102212476Y-122862666D01*
X102260095Y-122957904D01*
X102974380Y-121910285D02*
X102974380Y-121719809D01*
X102926761Y-121624571D01*
X102879142Y-121576952D01*
X102736285Y-121481714D01*
X102545809Y-121434095D01*
X102164857Y-121434095D01*
X102069619Y-121481714D01*
X102022000Y-121529333D01*
X101974380Y-121624571D01*
X101974380Y-121815047D01*
X102022000Y-121910285D01*
X102069619Y-121957904D01*
X102164857Y-122005523D01*
X102402952Y-122005523D01*
X102498190Y-121957904D01*
X102545809Y-121910285D01*
X102593428Y-121815047D01*
X102593428Y-121624571D01*
X102545809Y-121529333D01*
X102498190Y-121481714D01*
X102402952Y-121434095D01*
%TO.C,R20*%
X60904380Y-35313857D02*
X60428190Y-35647190D01*
X60904380Y-35885285D02*
X59904380Y-35885285D01*
X59904380Y-35504333D01*
X59952000Y-35409095D01*
X59999619Y-35361476D01*
X60094857Y-35313857D01*
X60237714Y-35313857D01*
X60332952Y-35361476D01*
X60380571Y-35409095D01*
X60428190Y-35504333D01*
X60428190Y-35885285D01*
X59999619Y-34932904D02*
X59952000Y-34885285D01*
X59904380Y-34790047D01*
X59904380Y-34551952D01*
X59952000Y-34456714D01*
X59999619Y-34409095D01*
X60094857Y-34361476D01*
X60190095Y-34361476D01*
X60332952Y-34409095D01*
X60904380Y-34980523D01*
X60904380Y-34361476D01*
X59904380Y-33742428D02*
X59904380Y-33647190D01*
X59952000Y-33551952D01*
X59999619Y-33504333D01*
X60094857Y-33456714D01*
X60285333Y-33409095D01*
X60523428Y-33409095D01*
X60713904Y-33456714D01*
X60809142Y-33504333D01*
X60856761Y-33551952D01*
X60904380Y-33647190D01*
X60904380Y-33742428D01*
X60856761Y-33837666D01*
X60809142Y-33885285D01*
X60713904Y-33932904D01*
X60523428Y-33980523D01*
X60285333Y-33980523D01*
X60094857Y-33932904D01*
X59999619Y-33885285D01*
X59952000Y-33837666D01*
X59904380Y-33742428D01*
%TO.C,R21*%
X55570380Y-35313857D02*
X55094190Y-35647190D01*
X55570380Y-35885285D02*
X54570380Y-35885285D01*
X54570380Y-35504333D01*
X54618000Y-35409095D01*
X54665619Y-35361476D01*
X54760857Y-35313857D01*
X54903714Y-35313857D01*
X54998952Y-35361476D01*
X55046571Y-35409095D01*
X55094190Y-35504333D01*
X55094190Y-35885285D01*
X54665619Y-34932904D02*
X54618000Y-34885285D01*
X54570380Y-34790047D01*
X54570380Y-34551952D01*
X54618000Y-34456714D01*
X54665619Y-34409095D01*
X54760857Y-34361476D01*
X54856095Y-34361476D01*
X54998952Y-34409095D01*
X55570380Y-34980523D01*
X55570380Y-34361476D01*
X55570380Y-33409095D02*
X55570380Y-33980523D01*
X55570380Y-33694809D02*
X54570380Y-33694809D01*
X54713238Y-33790047D01*
X54808476Y-33885285D01*
X54856095Y-33980523D01*
%TO.C,R22*%
X96497380Y-138832857D02*
X96021190Y-139166190D01*
X96497380Y-139404285D02*
X95497380Y-139404285D01*
X95497380Y-139023333D01*
X95545000Y-138928095D01*
X95592619Y-138880476D01*
X95687857Y-138832857D01*
X95830714Y-138832857D01*
X95925952Y-138880476D01*
X95973571Y-138928095D01*
X96021190Y-139023333D01*
X96021190Y-139404285D01*
X95592619Y-138451904D02*
X95545000Y-138404285D01*
X95497380Y-138309047D01*
X95497380Y-138070952D01*
X95545000Y-137975714D01*
X95592619Y-137928095D01*
X95687857Y-137880476D01*
X95783095Y-137880476D01*
X95925952Y-137928095D01*
X96497380Y-138499523D01*
X96497380Y-137880476D01*
X95592619Y-137499523D02*
X95545000Y-137451904D01*
X95497380Y-137356666D01*
X95497380Y-137118571D01*
X95545000Y-137023333D01*
X95592619Y-136975714D01*
X95687857Y-136928095D01*
X95783095Y-136928095D01*
X95925952Y-136975714D01*
X96497380Y-137547142D01*
X96497380Y-136928095D01*
%TO.C,R23*%
X77320380Y-65299857D02*
X76844190Y-65633190D01*
X77320380Y-65871285D02*
X76320380Y-65871285D01*
X76320380Y-65490333D01*
X76368000Y-65395095D01*
X76415619Y-65347476D01*
X76510857Y-65299857D01*
X76653714Y-65299857D01*
X76748952Y-65347476D01*
X76796571Y-65395095D01*
X76844190Y-65490333D01*
X76844190Y-65871285D01*
X76415619Y-64918904D02*
X76368000Y-64871285D01*
X76320380Y-64776047D01*
X76320380Y-64537952D01*
X76368000Y-64442714D01*
X76415619Y-64395095D01*
X76510857Y-64347476D01*
X76606095Y-64347476D01*
X76748952Y-64395095D01*
X77320380Y-64966523D01*
X77320380Y-64347476D01*
X76320380Y-64014142D02*
X76320380Y-63395095D01*
X76701333Y-63728428D01*
X76701333Y-63585571D01*
X76748952Y-63490333D01*
X76796571Y-63442714D01*
X76891809Y-63395095D01*
X77129904Y-63395095D01*
X77225142Y-63442714D01*
X77272761Y-63490333D01*
X77320380Y-63585571D01*
X77320380Y-63871285D01*
X77272761Y-63966523D01*
X77225142Y-64014142D01*
%TO.C,R24*%
X96497380Y-128545857D02*
X96021190Y-128879190D01*
X96497380Y-129117285D02*
X95497380Y-129117285D01*
X95497380Y-128736333D01*
X95545000Y-128641095D01*
X95592619Y-128593476D01*
X95687857Y-128545857D01*
X95830714Y-128545857D01*
X95925952Y-128593476D01*
X95973571Y-128641095D01*
X96021190Y-128736333D01*
X96021190Y-129117285D01*
X95592619Y-128164904D02*
X95545000Y-128117285D01*
X95497380Y-128022047D01*
X95497380Y-127783952D01*
X95545000Y-127688714D01*
X95592619Y-127641095D01*
X95687857Y-127593476D01*
X95783095Y-127593476D01*
X95925952Y-127641095D01*
X96497380Y-128212523D01*
X96497380Y-127593476D01*
X95830714Y-126736333D02*
X96497380Y-126736333D01*
X95449761Y-126974428D02*
X96164047Y-127212523D01*
X96164047Y-126593476D01*
%TO.C,R25*%
X102974380Y-138945857D02*
X102498190Y-139279190D01*
X102974380Y-139517285D02*
X101974380Y-139517285D01*
X101974380Y-139136333D01*
X102022000Y-139041095D01*
X102069619Y-138993476D01*
X102164857Y-138945857D01*
X102307714Y-138945857D01*
X102402952Y-138993476D01*
X102450571Y-139041095D01*
X102498190Y-139136333D01*
X102498190Y-139517285D01*
X102069619Y-138564904D02*
X102022000Y-138517285D01*
X101974380Y-138422047D01*
X101974380Y-138183952D01*
X102022000Y-138088714D01*
X102069619Y-138041095D01*
X102164857Y-137993476D01*
X102260095Y-137993476D01*
X102402952Y-138041095D01*
X102974380Y-138612523D01*
X102974380Y-137993476D01*
X101974380Y-137088714D02*
X101974380Y-137564904D01*
X102450571Y-137612523D01*
X102402952Y-137564904D01*
X102355333Y-137469666D01*
X102355333Y-137231571D01*
X102402952Y-137136333D01*
X102450571Y-137088714D01*
X102545809Y-137041095D01*
X102783904Y-137041095D01*
X102879142Y-137088714D01*
X102926761Y-137136333D01*
X102974380Y-137231571D01*
X102974380Y-137469666D01*
X102926761Y-137564904D01*
X102879142Y-137612523D01*
%TO.C,R26*%
X83924380Y-64537857D02*
X83448190Y-64871190D01*
X83924380Y-65109285D02*
X82924380Y-65109285D01*
X82924380Y-64728333D01*
X82972000Y-64633095D01*
X83019619Y-64585476D01*
X83114857Y-64537857D01*
X83257714Y-64537857D01*
X83352952Y-64585476D01*
X83400571Y-64633095D01*
X83448190Y-64728333D01*
X83448190Y-65109285D01*
X83019619Y-64156904D02*
X82972000Y-64109285D01*
X82924380Y-64014047D01*
X82924380Y-63775952D01*
X82972000Y-63680714D01*
X83019619Y-63633095D01*
X83114857Y-63585476D01*
X83210095Y-63585476D01*
X83352952Y-63633095D01*
X83924380Y-64204523D01*
X83924380Y-63585476D01*
X82924380Y-62728333D02*
X82924380Y-62918809D01*
X82972000Y-63014047D01*
X83019619Y-63061666D01*
X83162476Y-63156904D01*
X83352952Y-63204523D01*
X83733904Y-63204523D01*
X83829142Y-63156904D01*
X83876761Y-63109285D01*
X83924380Y-63014047D01*
X83924380Y-62823571D01*
X83876761Y-62728333D01*
X83829142Y-62680714D01*
X83733904Y-62633095D01*
X83495809Y-62633095D01*
X83400571Y-62680714D01*
X83352952Y-62728333D01*
X83305333Y-62823571D01*
X83305333Y-63014047D01*
X83352952Y-63109285D01*
X83400571Y-63156904D01*
X83495809Y-63204523D01*
%TO.C,R27*%
X102974380Y-128658857D02*
X102498190Y-128992190D01*
X102974380Y-129230285D02*
X101974380Y-129230285D01*
X101974380Y-128849333D01*
X102022000Y-128754095D01*
X102069619Y-128706476D01*
X102164857Y-128658857D01*
X102307714Y-128658857D01*
X102402952Y-128706476D01*
X102450571Y-128754095D01*
X102498190Y-128849333D01*
X102498190Y-129230285D01*
X102069619Y-128277904D02*
X102022000Y-128230285D01*
X101974380Y-128135047D01*
X101974380Y-127896952D01*
X102022000Y-127801714D01*
X102069619Y-127754095D01*
X102164857Y-127706476D01*
X102260095Y-127706476D01*
X102402952Y-127754095D01*
X102974380Y-128325523D01*
X102974380Y-127706476D01*
X101974380Y-127373142D02*
X101974380Y-126706476D01*
X102974380Y-127135047D01*
%TO.C,R28*%
X94861142Y-73731380D02*
X94527809Y-73255190D01*
X94289714Y-73731380D02*
X94289714Y-72731380D01*
X94670666Y-72731380D01*
X94765904Y-72779000D01*
X94813523Y-72826619D01*
X94861142Y-72921857D01*
X94861142Y-73064714D01*
X94813523Y-73159952D01*
X94765904Y-73207571D01*
X94670666Y-73255190D01*
X94289714Y-73255190D01*
X95242095Y-72826619D02*
X95289714Y-72779000D01*
X95384952Y-72731380D01*
X95623047Y-72731380D01*
X95718285Y-72779000D01*
X95765904Y-72826619D01*
X95813523Y-72921857D01*
X95813523Y-73017095D01*
X95765904Y-73159952D01*
X95194476Y-73731380D01*
X95813523Y-73731380D01*
X96384952Y-73159952D02*
X96289714Y-73112333D01*
X96242095Y-73064714D01*
X96194476Y-72969476D01*
X96194476Y-72921857D01*
X96242095Y-72826619D01*
X96289714Y-72779000D01*
X96384952Y-72731380D01*
X96575428Y-72731380D01*
X96670666Y-72779000D01*
X96718285Y-72826619D01*
X96765904Y-72921857D01*
X96765904Y-72969476D01*
X96718285Y-73064714D01*
X96670666Y-73112333D01*
X96575428Y-73159952D01*
X96384952Y-73159952D01*
X96289714Y-73207571D01*
X96242095Y-73255190D01*
X96194476Y-73350428D01*
X96194476Y-73540904D01*
X96242095Y-73636142D01*
X96289714Y-73683761D01*
X96384952Y-73731380D01*
X96575428Y-73731380D01*
X96670666Y-73683761D01*
X96718285Y-73636142D01*
X96765904Y-73540904D01*
X96765904Y-73350428D01*
X96718285Y-73255190D01*
X96670666Y-73207571D01*
X96575428Y-73159952D01*
%TO.C,R29*%
X94875142Y-76685380D02*
X94541809Y-76209190D01*
X94303714Y-76685380D02*
X94303714Y-75685380D01*
X94684666Y-75685380D01*
X94779904Y-75733000D01*
X94827523Y-75780619D01*
X94875142Y-75875857D01*
X94875142Y-76018714D01*
X94827523Y-76113952D01*
X94779904Y-76161571D01*
X94684666Y-76209190D01*
X94303714Y-76209190D01*
X95256095Y-75780619D02*
X95303714Y-75733000D01*
X95398952Y-75685380D01*
X95637047Y-75685380D01*
X95732285Y-75733000D01*
X95779904Y-75780619D01*
X95827523Y-75875857D01*
X95827523Y-75971095D01*
X95779904Y-76113952D01*
X95208476Y-76685380D01*
X95827523Y-76685380D01*
X96303714Y-76685380D02*
X96494190Y-76685380D01*
X96589428Y-76637761D01*
X96637047Y-76590142D01*
X96732285Y-76447285D01*
X96779904Y-76256809D01*
X96779904Y-75875857D01*
X96732285Y-75780619D01*
X96684666Y-75733000D01*
X96589428Y-75685380D01*
X96398952Y-75685380D01*
X96303714Y-75733000D01*
X96256095Y-75780619D01*
X96208476Y-75875857D01*
X96208476Y-76113952D01*
X96256095Y-76209190D01*
X96303714Y-76256809D01*
X96398952Y-76304428D01*
X96589428Y-76304428D01*
X96684666Y-76256809D01*
X96732285Y-76209190D01*
X96779904Y-76113952D01*
%TO.C,R30*%
X75430142Y-68143380D02*
X75096809Y-67667190D01*
X74858714Y-68143380D02*
X74858714Y-67143380D01*
X75239666Y-67143380D01*
X75334904Y-67191000D01*
X75382523Y-67238619D01*
X75430142Y-67333857D01*
X75430142Y-67476714D01*
X75382523Y-67571952D01*
X75334904Y-67619571D01*
X75239666Y-67667190D01*
X74858714Y-67667190D01*
X75763476Y-67143380D02*
X76382523Y-67143380D01*
X76049190Y-67524333D01*
X76192047Y-67524333D01*
X76287285Y-67571952D01*
X76334904Y-67619571D01*
X76382523Y-67714809D01*
X76382523Y-67952904D01*
X76334904Y-68048142D01*
X76287285Y-68095761D01*
X76192047Y-68143380D01*
X75906333Y-68143380D01*
X75811095Y-68095761D01*
X75763476Y-68048142D01*
X77001571Y-67143380D02*
X77096809Y-67143380D01*
X77192047Y-67191000D01*
X77239666Y-67238619D01*
X77287285Y-67333857D01*
X77334904Y-67524333D01*
X77334904Y-67762428D01*
X77287285Y-67952904D01*
X77239666Y-68048142D01*
X77192047Y-68095761D01*
X77096809Y-68143380D01*
X77001571Y-68143380D01*
X76906333Y-68095761D01*
X76858714Y-68048142D01*
X76811095Y-67952904D01*
X76763476Y-67762428D01*
X76763476Y-67524333D01*
X76811095Y-67333857D01*
X76858714Y-67238619D01*
X76906333Y-67191000D01*
X77001571Y-67143380D01*
%TO.C,R32*%
X108055142Y-122593380D02*
X107721809Y-122117190D01*
X107483714Y-122593380D02*
X107483714Y-121593380D01*
X107864666Y-121593380D01*
X107959904Y-121641000D01*
X108007523Y-121688619D01*
X108055142Y-121783857D01*
X108055142Y-121926714D01*
X108007523Y-122021952D01*
X107959904Y-122069571D01*
X107864666Y-122117190D01*
X107483714Y-122117190D01*
X108388476Y-121593380D02*
X109007523Y-121593380D01*
X108674190Y-121974333D01*
X108817047Y-121974333D01*
X108912285Y-122021952D01*
X108959904Y-122069571D01*
X109007523Y-122164809D01*
X109007523Y-122402904D01*
X108959904Y-122498142D01*
X108912285Y-122545761D01*
X108817047Y-122593380D01*
X108531333Y-122593380D01*
X108436095Y-122545761D01*
X108388476Y-122498142D01*
X109388476Y-121688619D02*
X109436095Y-121641000D01*
X109531333Y-121593380D01*
X109769428Y-121593380D01*
X109864666Y-121641000D01*
X109912285Y-121688619D01*
X109959904Y-121783857D01*
X109959904Y-121879095D01*
X109912285Y-122021952D01*
X109340857Y-122593380D01*
X109959904Y-122593380D01*
%TO.C,R33*%
X108309142Y-133134380D02*
X107975809Y-132658190D01*
X107737714Y-133134380D02*
X107737714Y-132134380D01*
X108118666Y-132134380D01*
X108213904Y-132182000D01*
X108261523Y-132229619D01*
X108309142Y-132324857D01*
X108309142Y-132467714D01*
X108261523Y-132562952D01*
X108213904Y-132610571D01*
X108118666Y-132658190D01*
X107737714Y-132658190D01*
X108642476Y-132134380D02*
X109261523Y-132134380D01*
X108928190Y-132515333D01*
X109071047Y-132515333D01*
X109166285Y-132562952D01*
X109213904Y-132610571D01*
X109261523Y-132705809D01*
X109261523Y-132943904D01*
X109213904Y-133039142D01*
X109166285Y-133086761D01*
X109071047Y-133134380D01*
X108785333Y-133134380D01*
X108690095Y-133086761D01*
X108642476Y-133039142D01*
X109594857Y-132134380D02*
X110213904Y-132134380D01*
X109880571Y-132515333D01*
X110023428Y-132515333D01*
X110118666Y-132562952D01*
X110166285Y-132610571D01*
X110213904Y-132705809D01*
X110213904Y-132943904D01*
X110166285Y-133039142D01*
X110118666Y-133086761D01*
X110023428Y-133134380D01*
X109737714Y-133134380D01*
X109642476Y-133086761D01*
X109594857Y-133039142D01*
%TO.C,R34*%
X108055142Y-127800380D02*
X107721809Y-127324190D01*
X107483714Y-127800380D02*
X107483714Y-126800380D01*
X107864666Y-126800380D01*
X107959904Y-126848000D01*
X108007523Y-126895619D01*
X108055142Y-126990857D01*
X108055142Y-127133714D01*
X108007523Y-127228952D01*
X107959904Y-127276571D01*
X107864666Y-127324190D01*
X107483714Y-127324190D01*
X108388476Y-126800380D02*
X109007523Y-126800380D01*
X108674190Y-127181333D01*
X108817047Y-127181333D01*
X108912285Y-127228952D01*
X108959904Y-127276571D01*
X109007523Y-127371809D01*
X109007523Y-127609904D01*
X108959904Y-127705142D01*
X108912285Y-127752761D01*
X108817047Y-127800380D01*
X108531333Y-127800380D01*
X108436095Y-127752761D01*
X108388476Y-127705142D01*
X109864666Y-127133714D02*
X109864666Y-127800380D01*
X109626571Y-126752761D02*
X109388476Y-127467047D01*
X110007523Y-127467047D01*
%TO.C,R35*%
X107942142Y-138214380D02*
X107608809Y-137738190D01*
X107370714Y-138214380D02*
X107370714Y-137214380D01*
X107751666Y-137214380D01*
X107846904Y-137262000D01*
X107894523Y-137309619D01*
X107942142Y-137404857D01*
X107942142Y-137547714D01*
X107894523Y-137642952D01*
X107846904Y-137690571D01*
X107751666Y-137738190D01*
X107370714Y-137738190D01*
X108275476Y-137214380D02*
X108894523Y-137214380D01*
X108561190Y-137595333D01*
X108704047Y-137595333D01*
X108799285Y-137642952D01*
X108846904Y-137690571D01*
X108894523Y-137785809D01*
X108894523Y-138023904D01*
X108846904Y-138119142D01*
X108799285Y-138166761D01*
X108704047Y-138214380D01*
X108418333Y-138214380D01*
X108323095Y-138166761D01*
X108275476Y-138119142D01*
X109799285Y-137214380D02*
X109323095Y-137214380D01*
X109275476Y-137690571D01*
X109323095Y-137642952D01*
X109418333Y-137595333D01*
X109656428Y-137595333D01*
X109751666Y-137642952D01*
X109799285Y-137690571D01*
X109846904Y-137785809D01*
X109846904Y-138023904D01*
X109799285Y-138119142D01*
X109751666Y-138166761D01*
X109656428Y-138214380D01*
X109418333Y-138214380D01*
X109323095Y-138166761D01*
X109275476Y-138119142D01*
%TO.C,R36*%
X98671142Y-76685380D02*
X98337809Y-76209190D01*
X98099714Y-76685380D02*
X98099714Y-75685380D01*
X98480666Y-75685380D01*
X98575904Y-75733000D01*
X98623523Y-75780619D01*
X98671142Y-75875857D01*
X98671142Y-76018714D01*
X98623523Y-76113952D01*
X98575904Y-76161571D01*
X98480666Y-76209190D01*
X98099714Y-76209190D01*
X99004476Y-75685380D02*
X99623523Y-75685380D01*
X99290190Y-76066333D01*
X99433047Y-76066333D01*
X99528285Y-76113952D01*
X99575904Y-76161571D01*
X99623523Y-76256809D01*
X99623523Y-76494904D01*
X99575904Y-76590142D01*
X99528285Y-76637761D01*
X99433047Y-76685380D01*
X99147333Y-76685380D01*
X99052095Y-76637761D01*
X99004476Y-76590142D01*
X100480666Y-75685380D02*
X100290190Y-75685380D01*
X100194952Y-75733000D01*
X100147333Y-75780619D01*
X100052095Y-75923476D01*
X100004476Y-76113952D01*
X100004476Y-76494904D01*
X100052095Y-76590142D01*
X100099714Y-76637761D01*
X100194952Y-76685380D01*
X100385428Y-76685380D01*
X100480666Y-76637761D01*
X100528285Y-76590142D01*
X100575904Y-76494904D01*
X100575904Y-76256809D01*
X100528285Y-76161571D01*
X100480666Y-76113952D01*
X100385428Y-76066333D01*
X100194952Y-76066333D01*
X100099714Y-76113952D01*
X100052095Y-76161571D01*
X100004476Y-76256809D01*
%TO.C,R37*%
X98657142Y-73731380D02*
X98323809Y-73255190D01*
X98085714Y-73731380D02*
X98085714Y-72731380D01*
X98466666Y-72731380D01*
X98561904Y-72779000D01*
X98609523Y-72826619D01*
X98657142Y-72921857D01*
X98657142Y-73064714D01*
X98609523Y-73159952D01*
X98561904Y-73207571D01*
X98466666Y-73255190D01*
X98085714Y-73255190D01*
X98990476Y-72731380D02*
X99609523Y-72731380D01*
X99276190Y-73112333D01*
X99419047Y-73112333D01*
X99514285Y-73159952D01*
X99561904Y-73207571D01*
X99609523Y-73302809D01*
X99609523Y-73540904D01*
X99561904Y-73636142D01*
X99514285Y-73683761D01*
X99419047Y-73731380D01*
X99133333Y-73731380D01*
X99038095Y-73683761D01*
X98990476Y-73636142D01*
X99942857Y-72731380D02*
X100609523Y-72731380D01*
X100180952Y-73731380D01*
%TO.C,U1*%
X53340095Y-139660380D02*
X53340095Y-140469904D01*
X53387714Y-140565142D01*
X53435333Y-140612761D01*
X53530571Y-140660380D01*
X53721047Y-140660380D01*
X53816285Y-140612761D01*
X53863904Y-140565142D01*
X53911523Y-140469904D01*
X53911523Y-139660380D01*
X54911523Y-140660380D02*
X54340095Y-140660380D01*
X54625809Y-140660380D02*
X54625809Y-139660380D01*
X54530571Y-139803238D01*
X54435333Y-139898476D01*
X54340095Y-139946095D01*
%TO.C,U2*%
X66040095Y-139660380D02*
X66040095Y-140469904D01*
X66087714Y-140565142D01*
X66135333Y-140612761D01*
X66230571Y-140660380D01*
X66421047Y-140660380D01*
X66516285Y-140612761D01*
X66563904Y-140565142D01*
X66611523Y-140469904D01*
X66611523Y-139660380D01*
X67040095Y-139755619D02*
X67087714Y-139708000D01*
X67182952Y-139660380D01*
X67421047Y-139660380D01*
X67516285Y-139708000D01*
X67563904Y-139755619D01*
X67611523Y-139850857D01*
X67611523Y-139946095D01*
X67563904Y-140088952D01*
X66992476Y-140660380D01*
X67611523Y-140660380D01*
%TO.C,U4*%
X54356095Y-44608380D02*
X54356095Y-45417904D01*
X54403714Y-45513142D01*
X54451333Y-45560761D01*
X54546571Y-45608380D01*
X54737047Y-45608380D01*
X54832285Y-45560761D01*
X54879904Y-45513142D01*
X54927523Y-45417904D01*
X54927523Y-44608380D01*
X55832285Y-44941714D02*
X55832285Y-45608380D01*
X55594190Y-44560761D02*
X55356095Y-45275047D01*
X55975142Y-45275047D01*
%TO.C,D7*%
X85621904Y-95034380D02*
X85621904Y-94034380D01*
X85860000Y-94034380D01*
X86002857Y-94082000D01*
X86098095Y-94177238D01*
X86145714Y-94272476D01*
X86193333Y-94462952D01*
X86193333Y-94605809D01*
X86145714Y-94796285D01*
X86098095Y-94891523D01*
X86002857Y-94986761D01*
X85860000Y-95034380D01*
X85621904Y-95034380D01*
X86526666Y-94034380D02*
X87193333Y-94034380D01*
X86764761Y-95034380D01*
%TO.C,D8*%
X85607904Y-92113380D02*
X85607904Y-91113380D01*
X85846000Y-91113380D01*
X85988857Y-91161000D01*
X86084095Y-91256238D01*
X86131714Y-91351476D01*
X86179333Y-91541952D01*
X86179333Y-91684809D01*
X86131714Y-91875285D01*
X86084095Y-91970523D01*
X85988857Y-92065761D01*
X85846000Y-92113380D01*
X85607904Y-92113380D01*
X86750761Y-91541952D02*
X86655523Y-91494333D01*
X86607904Y-91446714D01*
X86560285Y-91351476D01*
X86560285Y-91303857D01*
X86607904Y-91208619D01*
X86655523Y-91161000D01*
X86750761Y-91113380D01*
X86941238Y-91113380D01*
X87036476Y-91161000D01*
X87084095Y-91208619D01*
X87131714Y-91303857D01*
X87131714Y-91351476D01*
X87084095Y-91446714D01*
X87036476Y-91494333D01*
X86941238Y-91541952D01*
X86750761Y-91541952D01*
X86655523Y-91589571D01*
X86607904Y-91637190D01*
X86560285Y-91732428D01*
X86560285Y-91922904D01*
X86607904Y-92018142D01*
X86655523Y-92065761D01*
X86750761Y-92113380D01*
X86941238Y-92113380D01*
X87036476Y-92065761D01*
X87084095Y-92018142D01*
X87131714Y-91922904D01*
X87131714Y-91732428D01*
X87084095Y-91637190D01*
X87036476Y-91589571D01*
X86941238Y-91541952D01*
%TO.C,D9*%
X73443904Y-90622380D02*
X73443904Y-89622380D01*
X73682000Y-89622380D01*
X73824857Y-89670000D01*
X73920095Y-89765238D01*
X73967714Y-89860476D01*
X74015333Y-90050952D01*
X74015333Y-90193809D01*
X73967714Y-90384285D01*
X73920095Y-90479523D01*
X73824857Y-90574761D01*
X73682000Y-90622380D01*
X73443904Y-90622380D01*
X74491523Y-90622380D02*
X74682000Y-90622380D01*
X74777238Y-90574761D01*
X74824857Y-90527142D01*
X74920095Y-90384285D01*
X74967714Y-90193809D01*
X74967714Y-89812857D01*
X74920095Y-89717619D01*
X74872476Y-89670000D01*
X74777238Y-89622380D01*
X74586761Y-89622380D01*
X74491523Y-89670000D01*
X74443904Y-89717619D01*
X74396285Y-89812857D01*
X74396285Y-90050952D01*
X74443904Y-90146190D01*
X74491523Y-90193809D01*
X74586761Y-90241428D01*
X74777238Y-90241428D01*
X74872476Y-90193809D01*
X74920095Y-90146190D01*
X74967714Y-90050952D01*
%TO.C,D16*%
X72953714Y-86685380D02*
X72953714Y-85685380D01*
X73191809Y-85685380D01*
X73334666Y-85733000D01*
X73429904Y-85828238D01*
X73477523Y-85923476D01*
X73525142Y-86113952D01*
X73525142Y-86256809D01*
X73477523Y-86447285D01*
X73429904Y-86542523D01*
X73334666Y-86637761D01*
X73191809Y-86685380D01*
X72953714Y-86685380D01*
X74477523Y-86685380D02*
X73906095Y-86685380D01*
X74191809Y-86685380D02*
X74191809Y-85685380D01*
X74096571Y-85828238D01*
X74001333Y-85923476D01*
X73906095Y-85971095D01*
X75334666Y-85685380D02*
X75144190Y-85685380D01*
X75048952Y-85733000D01*
X75001333Y-85780619D01*
X74906095Y-85923476D01*
X74858476Y-86113952D01*
X74858476Y-86494904D01*
X74906095Y-86590142D01*
X74953714Y-86637761D01*
X75048952Y-86685380D01*
X75239428Y-86685380D01*
X75334666Y-86637761D01*
X75382285Y-86590142D01*
X75429904Y-86494904D01*
X75429904Y-86256809D01*
X75382285Y-86161571D01*
X75334666Y-86113952D01*
X75239428Y-86066333D01*
X75048952Y-86066333D01*
X74953714Y-86113952D01*
X74906095Y-86161571D01*
X74858476Y-86256809D01*
%TO.C,D17*%
X72953714Y-82875380D02*
X72953714Y-81875380D01*
X73191809Y-81875380D01*
X73334666Y-81923000D01*
X73429904Y-82018238D01*
X73477523Y-82113476D01*
X73525142Y-82303952D01*
X73525142Y-82446809D01*
X73477523Y-82637285D01*
X73429904Y-82732523D01*
X73334666Y-82827761D01*
X73191809Y-82875380D01*
X72953714Y-82875380D01*
X74477523Y-82875380D02*
X73906095Y-82875380D01*
X74191809Y-82875380D02*
X74191809Y-81875380D01*
X74096571Y-82018238D01*
X74001333Y-82113476D01*
X73906095Y-82161095D01*
X74810857Y-81875380D02*
X75477523Y-81875380D01*
X75048952Y-82875380D01*
%TO.C,D18*%
X72939714Y-97767380D02*
X72939714Y-96767380D01*
X73177809Y-96767380D01*
X73320666Y-96815000D01*
X73415904Y-96910238D01*
X73463523Y-97005476D01*
X73511142Y-97195952D01*
X73511142Y-97338809D01*
X73463523Y-97529285D01*
X73415904Y-97624523D01*
X73320666Y-97719761D01*
X73177809Y-97767380D01*
X72939714Y-97767380D01*
X74463523Y-97767380D02*
X73892095Y-97767380D01*
X74177809Y-97767380D02*
X74177809Y-96767380D01*
X74082571Y-96910238D01*
X73987333Y-97005476D01*
X73892095Y-97053095D01*
X75034952Y-97195952D02*
X74939714Y-97148333D01*
X74892095Y-97100714D01*
X74844476Y-97005476D01*
X74844476Y-96957857D01*
X74892095Y-96862619D01*
X74939714Y-96815000D01*
X75034952Y-96767380D01*
X75225428Y-96767380D01*
X75320666Y-96815000D01*
X75368285Y-96862619D01*
X75415904Y-96957857D01*
X75415904Y-97005476D01*
X75368285Y-97100714D01*
X75320666Y-97148333D01*
X75225428Y-97195952D01*
X75034952Y-97195952D01*
X74939714Y-97243571D01*
X74892095Y-97291190D01*
X74844476Y-97386428D01*
X74844476Y-97576904D01*
X74892095Y-97672142D01*
X74939714Y-97719761D01*
X75034952Y-97767380D01*
X75225428Y-97767380D01*
X75320666Y-97719761D01*
X75368285Y-97672142D01*
X75415904Y-97576904D01*
X75415904Y-97386428D01*
X75368285Y-97291190D01*
X75320666Y-97243571D01*
X75225428Y-97195952D01*
%TO.C,D19*%
X72939714Y-101290380D02*
X72939714Y-100290380D01*
X73177809Y-100290380D01*
X73320666Y-100338000D01*
X73415904Y-100433238D01*
X73463523Y-100528476D01*
X73511142Y-100718952D01*
X73511142Y-100861809D01*
X73463523Y-101052285D01*
X73415904Y-101147523D01*
X73320666Y-101242761D01*
X73177809Y-101290380D01*
X72939714Y-101290380D01*
X74463523Y-101290380D02*
X73892095Y-101290380D01*
X74177809Y-101290380D02*
X74177809Y-100290380D01*
X74082571Y-100433238D01*
X73987333Y-100528476D01*
X73892095Y-100576095D01*
X74939714Y-101290380D02*
X75130190Y-101290380D01*
X75225428Y-101242761D01*
X75273047Y-101195142D01*
X75368285Y-101052285D01*
X75415904Y-100861809D01*
X75415904Y-100480857D01*
X75368285Y-100385619D01*
X75320666Y-100338000D01*
X75225428Y-100290380D01*
X75034952Y-100290380D01*
X74939714Y-100338000D01*
X74892095Y-100385619D01*
X74844476Y-100480857D01*
X74844476Y-100718952D01*
X74892095Y-100814190D01*
X74939714Y-100861809D01*
X75034952Y-100909428D01*
X75225428Y-100909428D01*
X75320666Y-100861809D01*
X75368285Y-100814190D01*
X75415904Y-100718952D01*
%TO.C,Q7*%
X50654761Y-60192619D02*
X50559523Y-60145000D01*
X50464285Y-60049761D01*
X50321428Y-59906904D01*
X50226190Y-59859285D01*
X50130952Y-59859285D01*
X50178571Y-60097380D02*
X50083333Y-60049761D01*
X49988095Y-59954523D01*
X49940476Y-59764047D01*
X49940476Y-59430714D01*
X49988095Y-59240238D01*
X50083333Y-59145000D01*
X50178571Y-59097380D01*
X50369047Y-59097380D01*
X50464285Y-59145000D01*
X50559523Y-59240238D01*
X50607142Y-59430714D01*
X50607142Y-59764047D01*
X50559523Y-59954523D01*
X50464285Y-60049761D01*
X50369047Y-60097380D01*
X50178571Y-60097380D01*
X50940476Y-59097380D02*
X51607142Y-59097380D01*
X51178571Y-60097380D01*
%TO.C,Q8*%
X50654761Y-50667619D02*
X50559523Y-50620000D01*
X50464285Y-50524761D01*
X50321428Y-50381904D01*
X50226190Y-50334285D01*
X50130952Y-50334285D01*
X50178571Y-50572380D02*
X50083333Y-50524761D01*
X49988095Y-50429523D01*
X49940476Y-50239047D01*
X49940476Y-49905714D01*
X49988095Y-49715238D01*
X50083333Y-49620000D01*
X50178571Y-49572380D01*
X50369047Y-49572380D01*
X50464285Y-49620000D01*
X50559523Y-49715238D01*
X50607142Y-49905714D01*
X50607142Y-50239047D01*
X50559523Y-50429523D01*
X50464285Y-50524761D01*
X50369047Y-50572380D01*
X50178571Y-50572380D01*
X51178571Y-50000952D02*
X51083333Y-49953333D01*
X51035714Y-49905714D01*
X50988095Y-49810476D01*
X50988095Y-49762857D01*
X51035714Y-49667619D01*
X51083333Y-49620000D01*
X51178571Y-49572380D01*
X51369047Y-49572380D01*
X51464285Y-49620000D01*
X51511904Y-49667619D01*
X51559523Y-49762857D01*
X51559523Y-49810476D01*
X51511904Y-49905714D01*
X51464285Y-49953333D01*
X51369047Y-50000952D01*
X51178571Y-50000952D01*
X51083333Y-50048571D01*
X51035714Y-50096190D01*
X50988095Y-50191428D01*
X50988095Y-50381904D01*
X51035714Y-50477142D01*
X51083333Y-50524761D01*
X51178571Y-50572380D01*
X51369047Y-50572380D01*
X51464285Y-50524761D01*
X51511904Y-50477142D01*
X51559523Y-50381904D01*
X51559523Y-50191428D01*
X51511904Y-50096190D01*
X51464285Y-50048571D01*
X51369047Y-50000952D01*
%TO.C,Q9*%
X50654761Y-54477619D02*
X50559523Y-54430000D01*
X50464285Y-54334761D01*
X50321428Y-54191904D01*
X50226190Y-54144285D01*
X50130952Y-54144285D01*
X50178571Y-54382380D02*
X50083333Y-54334761D01*
X49988095Y-54239523D01*
X49940476Y-54049047D01*
X49940476Y-53715714D01*
X49988095Y-53525238D01*
X50083333Y-53430000D01*
X50178571Y-53382380D01*
X50369047Y-53382380D01*
X50464285Y-53430000D01*
X50559523Y-53525238D01*
X50607142Y-53715714D01*
X50607142Y-54049047D01*
X50559523Y-54239523D01*
X50464285Y-54334761D01*
X50369047Y-54382380D01*
X50178571Y-54382380D01*
X51083333Y-54382380D02*
X51273809Y-54382380D01*
X51369047Y-54334761D01*
X51416666Y-54287142D01*
X51511904Y-54144285D01*
X51559523Y-53953809D01*
X51559523Y-53572857D01*
X51511904Y-53477619D01*
X51464285Y-53430000D01*
X51369047Y-53382380D01*
X51178571Y-53382380D01*
X51083333Y-53430000D01*
X51035714Y-53477619D01*
X50988095Y-53572857D01*
X50988095Y-53810952D01*
X51035714Y-53906190D01*
X51083333Y-53953809D01*
X51178571Y-54001428D01*
X51369047Y-54001428D01*
X51464285Y-53953809D01*
X51511904Y-53906190D01*
X51559523Y-53810952D01*
%TO.C,R7*%
X99020333Y-117640380D02*
X98687000Y-117164190D01*
X98448904Y-117640380D02*
X98448904Y-116640380D01*
X98829857Y-116640380D01*
X98925095Y-116688000D01*
X98972714Y-116735619D01*
X99020333Y-116830857D01*
X99020333Y-116973714D01*
X98972714Y-117068952D01*
X98925095Y-117116571D01*
X98829857Y-117164190D01*
X98448904Y-117164190D01*
X99353666Y-116640380D02*
X100020333Y-116640380D01*
X99591761Y-117640380D01*
%TO.C,R8*%
X99006333Y-114592380D02*
X98673000Y-114116190D01*
X98434904Y-114592380D02*
X98434904Y-113592380D01*
X98815857Y-113592380D01*
X98911095Y-113640000D01*
X98958714Y-113687619D01*
X99006333Y-113782857D01*
X99006333Y-113925714D01*
X98958714Y-114020952D01*
X98911095Y-114068571D01*
X98815857Y-114116190D01*
X98434904Y-114116190D01*
X99577761Y-114020952D02*
X99482523Y-113973333D01*
X99434904Y-113925714D01*
X99387285Y-113830476D01*
X99387285Y-113782857D01*
X99434904Y-113687619D01*
X99482523Y-113640000D01*
X99577761Y-113592380D01*
X99768238Y-113592380D01*
X99863476Y-113640000D01*
X99911095Y-113687619D01*
X99958714Y-113782857D01*
X99958714Y-113830476D01*
X99911095Y-113925714D01*
X99863476Y-113973333D01*
X99768238Y-114020952D01*
X99577761Y-114020952D01*
X99482523Y-114068571D01*
X99434904Y-114116190D01*
X99387285Y-114211428D01*
X99387285Y-114401904D01*
X99434904Y-114497142D01*
X99482523Y-114544761D01*
X99577761Y-114592380D01*
X99768238Y-114592380D01*
X99863476Y-114544761D01*
X99911095Y-114497142D01*
X99958714Y-114401904D01*
X99958714Y-114211428D01*
X99911095Y-114116190D01*
X99863476Y-114068571D01*
X99768238Y-114020952D01*
%TO.C,R9*%
X95337333Y-117640380D02*
X95004000Y-117164190D01*
X94765904Y-117640380D02*
X94765904Y-116640380D01*
X95146857Y-116640380D01*
X95242095Y-116688000D01*
X95289714Y-116735619D01*
X95337333Y-116830857D01*
X95337333Y-116973714D01*
X95289714Y-117068952D01*
X95242095Y-117116571D01*
X95146857Y-117164190D01*
X94765904Y-117164190D01*
X95813523Y-117640380D02*
X96004000Y-117640380D01*
X96099238Y-117592761D01*
X96146857Y-117545142D01*
X96242095Y-117402285D01*
X96289714Y-117211809D01*
X96289714Y-116830857D01*
X96242095Y-116735619D01*
X96194476Y-116688000D01*
X96099238Y-116640380D01*
X95908761Y-116640380D01*
X95813523Y-116688000D01*
X95765904Y-116735619D01*
X95718285Y-116830857D01*
X95718285Y-117068952D01*
X95765904Y-117164190D01*
X95813523Y-117211809D01*
X95908761Y-117259428D01*
X96099238Y-117259428D01*
X96194476Y-117211809D01*
X96242095Y-117164190D01*
X96289714Y-117068952D01*
%TO.C,R14*%
X94861142Y-114592380D02*
X94527809Y-114116190D01*
X94289714Y-114592380D02*
X94289714Y-113592380D01*
X94670666Y-113592380D01*
X94765904Y-113640000D01*
X94813523Y-113687619D01*
X94861142Y-113782857D01*
X94861142Y-113925714D01*
X94813523Y-114020952D01*
X94765904Y-114068571D01*
X94670666Y-114116190D01*
X94289714Y-114116190D01*
X95813523Y-114592380D02*
X95242095Y-114592380D01*
X95527809Y-114592380D02*
X95527809Y-113592380D01*
X95432571Y-113735238D01*
X95337333Y-113830476D01*
X95242095Y-113878095D01*
X96670666Y-113925714D02*
X96670666Y-114592380D01*
X96432571Y-113544761D02*
X96194476Y-114259047D01*
X96813523Y-114259047D01*
%TO.C,R17*%
X53967142Y-60015380D02*
X53633809Y-59539190D01*
X53395714Y-60015380D02*
X53395714Y-59015380D01*
X53776666Y-59015380D01*
X53871904Y-59063000D01*
X53919523Y-59110619D01*
X53967142Y-59205857D01*
X53967142Y-59348714D01*
X53919523Y-59443952D01*
X53871904Y-59491571D01*
X53776666Y-59539190D01*
X53395714Y-59539190D01*
X54919523Y-60015380D02*
X54348095Y-60015380D01*
X54633809Y-60015380D02*
X54633809Y-59015380D01*
X54538571Y-59158238D01*
X54443333Y-59253476D01*
X54348095Y-59301095D01*
X55252857Y-59015380D02*
X55919523Y-59015380D01*
X55490952Y-60015380D01*
%TO.C,R31*%
X53967142Y-55062380D02*
X53633809Y-54586190D01*
X53395714Y-55062380D02*
X53395714Y-54062380D01*
X53776666Y-54062380D01*
X53871904Y-54110000D01*
X53919523Y-54157619D01*
X53967142Y-54252857D01*
X53967142Y-54395714D01*
X53919523Y-54490952D01*
X53871904Y-54538571D01*
X53776666Y-54586190D01*
X53395714Y-54586190D01*
X54300476Y-54062380D02*
X54919523Y-54062380D01*
X54586190Y-54443333D01*
X54729047Y-54443333D01*
X54824285Y-54490952D01*
X54871904Y-54538571D01*
X54919523Y-54633809D01*
X54919523Y-54871904D01*
X54871904Y-54967142D01*
X54824285Y-55014761D01*
X54729047Y-55062380D01*
X54443333Y-55062380D01*
X54348095Y-55014761D01*
X54300476Y-54967142D01*
X55871904Y-55062380D02*
X55300476Y-55062380D01*
X55586190Y-55062380D02*
X55586190Y-54062380D01*
X55490952Y-54205238D01*
X55395714Y-54300476D01*
X55300476Y-54348095D01*
%TO.C,R38*%
X54362142Y-51252380D02*
X54028809Y-50776190D01*
X53790714Y-51252380D02*
X53790714Y-50252380D01*
X54171666Y-50252380D01*
X54266904Y-50300000D01*
X54314523Y-50347619D01*
X54362142Y-50442857D01*
X54362142Y-50585714D01*
X54314523Y-50680952D01*
X54266904Y-50728571D01*
X54171666Y-50776190D01*
X53790714Y-50776190D01*
X54695476Y-50252380D02*
X55314523Y-50252380D01*
X54981190Y-50633333D01*
X55124047Y-50633333D01*
X55219285Y-50680952D01*
X55266904Y-50728571D01*
X55314523Y-50823809D01*
X55314523Y-51061904D01*
X55266904Y-51157142D01*
X55219285Y-51204761D01*
X55124047Y-51252380D01*
X54838333Y-51252380D01*
X54743095Y-51204761D01*
X54695476Y-51157142D01*
X55885952Y-50680952D02*
X55790714Y-50633333D01*
X55743095Y-50585714D01*
X55695476Y-50490476D01*
X55695476Y-50442857D01*
X55743095Y-50347619D01*
X55790714Y-50300000D01*
X55885952Y-50252380D01*
X56076428Y-50252380D01*
X56171666Y-50300000D01*
X56219285Y-50347619D01*
X56266904Y-50442857D01*
X56266904Y-50490476D01*
X56219285Y-50585714D01*
X56171666Y-50633333D01*
X56076428Y-50680952D01*
X55885952Y-50680952D01*
X55790714Y-50728571D01*
X55743095Y-50776190D01*
X55695476Y-50871428D01*
X55695476Y-51061904D01*
X55743095Y-51157142D01*
X55790714Y-51204761D01*
X55885952Y-51252380D01*
X56076428Y-51252380D01*
X56171666Y-51204761D01*
X56219285Y-51157142D01*
X56266904Y-51061904D01*
X56266904Y-50871428D01*
X56219285Y-50776190D01*
X56171666Y-50728571D01*
X56076428Y-50680952D01*
%TO.C,R39*%
X59061142Y-60269380D02*
X58727809Y-59793190D01*
X58489714Y-60269380D02*
X58489714Y-59269380D01*
X58870666Y-59269380D01*
X58965904Y-59317000D01*
X59013523Y-59364619D01*
X59061142Y-59459857D01*
X59061142Y-59602714D01*
X59013523Y-59697952D01*
X58965904Y-59745571D01*
X58870666Y-59793190D01*
X58489714Y-59793190D01*
X59394476Y-59269380D02*
X60013523Y-59269380D01*
X59680190Y-59650333D01*
X59823047Y-59650333D01*
X59918285Y-59697952D01*
X59965904Y-59745571D01*
X60013523Y-59840809D01*
X60013523Y-60078904D01*
X59965904Y-60174142D01*
X59918285Y-60221761D01*
X59823047Y-60269380D01*
X59537333Y-60269380D01*
X59442095Y-60221761D01*
X59394476Y-60174142D01*
X60489714Y-60269380D02*
X60680190Y-60269380D01*
X60775428Y-60221761D01*
X60823047Y-60174142D01*
X60918285Y-60031285D01*
X60965904Y-59840809D01*
X60965904Y-59459857D01*
X60918285Y-59364619D01*
X60870666Y-59317000D01*
X60775428Y-59269380D01*
X60584952Y-59269380D01*
X60489714Y-59317000D01*
X60442095Y-59364619D01*
X60394476Y-59459857D01*
X60394476Y-59697952D01*
X60442095Y-59793190D01*
X60489714Y-59840809D01*
X60584952Y-59888428D01*
X60775428Y-59888428D01*
X60870666Y-59840809D01*
X60918285Y-59793190D01*
X60965904Y-59697952D01*
%TO.C,R40*%
X59047142Y-55062380D02*
X58713809Y-54586190D01*
X58475714Y-55062380D02*
X58475714Y-54062380D01*
X58856666Y-54062380D01*
X58951904Y-54110000D01*
X58999523Y-54157619D01*
X59047142Y-54252857D01*
X59047142Y-54395714D01*
X58999523Y-54490952D01*
X58951904Y-54538571D01*
X58856666Y-54586190D01*
X58475714Y-54586190D01*
X59904285Y-54395714D02*
X59904285Y-55062380D01*
X59666190Y-54014761D02*
X59428095Y-54729047D01*
X60047142Y-54729047D01*
X60618571Y-54062380D02*
X60713809Y-54062380D01*
X60809047Y-54110000D01*
X60856666Y-54157619D01*
X60904285Y-54252857D01*
X60951904Y-54443333D01*
X60951904Y-54681428D01*
X60904285Y-54871904D01*
X60856666Y-54967142D01*
X60809047Y-55014761D01*
X60713809Y-55062380D01*
X60618571Y-55062380D01*
X60523333Y-55014761D01*
X60475714Y-54967142D01*
X60428095Y-54871904D01*
X60380476Y-54681428D01*
X60380476Y-54443333D01*
X60428095Y-54252857D01*
X60475714Y-54157619D01*
X60523333Y-54110000D01*
X60618571Y-54062380D01*
%TO.C,R41*%
X58652142Y-51252380D02*
X58318809Y-50776190D01*
X58080714Y-51252380D02*
X58080714Y-50252380D01*
X58461666Y-50252380D01*
X58556904Y-50300000D01*
X58604523Y-50347619D01*
X58652142Y-50442857D01*
X58652142Y-50585714D01*
X58604523Y-50680952D01*
X58556904Y-50728571D01*
X58461666Y-50776190D01*
X58080714Y-50776190D01*
X59509285Y-50585714D02*
X59509285Y-51252380D01*
X59271190Y-50204761D02*
X59033095Y-50919047D01*
X59652142Y-50919047D01*
X60556904Y-51252380D02*
X59985476Y-51252380D01*
X60271190Y-51252380D02*
X60271190Y-50252380D01*
X60175952Y-50395238D01*
X60080714Y-50490476D01*
X59985476Y-50538095D01*
%TO.C,R42*%
X37457142Y-51252380D02*
X37123809Y-50776190D01*
X36885714Y-51252380D02*
X36885714Y-50252380D01*
X37266666Y-50252380D01*
X37361904Y-50300000D01*
X37409523Y-50347619D01*
X37457142Y-50442857D01*
X37457142Y-50585714D01*
X37409523Y-50680952D01*
X37361904Y-50728571D01*
X37266666Y-50776190D01*
X36885714Y-50776190D01*
X38314285Y-50585714D02*
X38314285Y-51252380D01*
X38076190Y-50204761D02*
X37838095Y-50919047D01*
X38457142Y-50919047D01*
X38790476Y-50347619D02*
X38838095Y-50300000D01*
X38933333Y-50252380D01*
X39171428Y-50252380D01*
X39266666Y-50300000D01*
X39314285Y-50347619D01*
X39361904Y-50442857D01*
X39361904Y-50538095D01*
X39314285Y-50680952D01*
X38742857Y-51252380D01*
X39361904Y-51252380D01*
%TO.C,R43*%
X37457142Y-55062380D02*
X37123809Y-54586190D01*
X36885714Y-55062380D02*
X36885714Y-54062380D01*
X37266666Y-54062380D01*
X37361904Y-54110000D01*
X37409523Y-54157619D01*
X37457142Y-54252857D01*
X37457142Y-54395714D01*
X37409523Y-54490952D01*
X37361904Y-54538571D01*
X37266666Y-54586190D01*
X36885714Y-54586190D01*
X38314285Y-54395714D02*
X38314285Y-55062380D01*
X38076190Y-54014761D02*
X37838095Y-54729047D01*
X38457142Y-54729047D01*
X38742857Y-54062380D02*
X39361904Y-54062380D01*
X39028571Y-54443333D01*
X39171428Y-54443333D01*
X39266666Y-54490952D01*
X39314285Y-54538571D01*
X39361904Y-54633809D01*
X39361904Y-54871904D01*
X39314285Y-54967142D01*
X39266666Y-55014761D01*
X39171428Y-55062380D01*
X38885714Y-55062380D01*
X38790476Y-55014761D01*
X38742857Y-54967142D01*
%TO.C,R1*%
X62301380Y-117260666D02*
X61825190Y-117594000D01*
X62301380Y-117832095D02*
X61301380Y-117832095D01*
X61301380Y-117451142D01*
X61349000Y-117355904D01*
X61396619Y-117308285D01*
X61491857Y-117260666D01*
X61634714Y-117260666D01*
X61729952Y-117308285D01*
X61777571Y-117355904D01*
X61825190Y-117451142D01*
X61825190Y-117832095D01*
X62301380Y-116308285D02*
X62301380Y-116879714D01*
X62301380Y-116594000D02*
X61301380Y-116594000D01*
X61444238Y-116689238D01*
X61539476Y-116784476D01*
X61587095Y-116879714D01*
%TD*%
M02*
