%TF.GenerationSoftware,KiCad,Pcbnew,(5.1.6)-1*%
%TF.CreationDate,2021-11-17T19:09:55-06:00*%
%TF.ProjectId,SRA_Sensor_Board,5352415f-5365-46e7-936f-725f426f6172,rev?*%
%TF.SameCoordinates,Original*%
%TF.FileFunction,Paste,Top*%
%TF.FilePolarity,Positive*%
%FSLAX46Y46*%
G04 Gerber Fmt 4.6, Leading zero omitted, Abs format (unit mm)*
G04 Created by KiCad (PCBNEW (5.1.6)-1) date 2021-11-17 19:09:55*
%MOMM*%
%LPD*%
G01*
G04 APERTURE LIST*
%ADD10C,5.080000*%
%ADD11C,1.520000*%
%ADD12R,0.900000X0.800000*%
%ADD13R,1.200000X0.400000*%
%ADD14R,0.700000X0.450000*%
G04 APERTURE END LIST*
D10*
%TO.C,Conn1*%
X106426000Y-26187400D03*
X98552000Y-26187400D03*
%TD*%
%TO.C,C9*%
G36*
G01*
X53726500Y-32128750D02*
X53726500Y-32641250D01*
G75*
G02*
X53507750Y-32860000I-218750J0D01*
G01*
X53070250Y-32860000D01*
G75*
G02*
X52851500Y-32641250I0J218750D01*
G01*
X52851500Y-32128750D01*
G75*
G02*
X53070250Y-31910000I218750J0D01*
G01*
X53507750Y-31910000D01*
G75*
G02*
X53726500Y-32128750I0J-218750D01*
G01*
G37*
G36*
G01*
X55301500Y-32128750D02*
X55301500Y-32641250D01*
G75*
G02*
X55082750Y-32860000I-218750J0D01*
G01*
X54645250Y-32860000D01*
G75*
G02*
X54426500Y-32641250I0J218750D01*
G01*
X54426500Y-32128750D01*
G75*
G02*
X54645250Y-31910000I218750J0D01*
G01*
X55082750Y-31910000D01*
G75*
G02*
X55301500Y-32128750I0J-218750D01*
G01*
G37*
%TD*%
%TO.C,C8*%
G36*
G01*
X61716500Y-32641250D02*
X61716500Y-32128750D01*
G75*
G02*
X61935250Y-31910000I218750J0D01*
G01*
X62372750Y-31910000D01*
G75*
G02*
X62591500Y-32128750I0J-218750D01*
G01*
X62591500Y-32641250D01*
G75*
G02*
X62372750Y-32860000I-218750J0D01*
G01*
X61935250Y-32860000D01*
G75*
G02*
X61716500Y-32641250I0J218750D01*
G01*
G37*
G36*
G01*
X60141500Y-32641250D02*
X60141500Y-32128750D01*
G75*
G02*
X60360250Y-31910000I218750J0D01*
G01*
X60797750Y-31910000D01*
G75*
G02*
X61016500Y-32128750I0J-218750D01*
G01*
X61016500Y-32641250D01*
G75*
G02*
X60797750Y-32860000I-218750J0D01*
G01*
X60360250Y-32860000D01*
G75*
G02*
X60141500Y-32641250I0J218750D01*
G01*
G37*
%TD*%
D11*
%TO.C,U3*%
X88392000Y-136906000D03*
X85852000Y-131826000D03*
X42672000Y-70866000D03*
X88392000Y-121666000D03*
X85852000Y-119126000D03*
X88392000Y-124206000D03*
X88392000Y-129286000D03*
X88392000Y-134366000D03*
X42672000Y-73406000D03*
X85852000Y-139446000D03*
X88392000Y-131826000D03*
X88392000Y-139446000D03*
X85852000Y-116586000D03*
X42672000Y-75946000D03*
X85852000Y-121666000D03*
X85852000Y-124206000D03*
X85852000Y-134366000D03*
X88392000Y-126746000D03*
X85852000Y-129286000D03*
X45212000Y-53086000D03*
X85852000Y-136906000D03*
X88392000Y-116586000D03*
X88392000Y-119126000D03*
X85852000Y-126746000D03*
X85852000Y-70866000D03*
X85852000Y-65786000D03*
X42672000Y-55626000D03*
X45212000Y-70866000D03*
X88392000Y-53086000D03*
X88392000Y-63246000D03*
X88392000Y-70866000D03*
X85852000Y-73406000D03*
X42672000Y-65786000D03*
X85852000Y-60706000D03*
X85852000Y-53086000D03*
X85852000Y-58166000D03*
X85852000Y-63246000D03*
X88392000Y-55626000D03*
X42672000Y-53086000D03*
X45212000Y-55626000D03*
X45212000Y-58166000D03*
X85852000Y-68326000D03*
X88392000Y-60706000D03*
X45212000Y-60706000D03*
X88392000Y-73406000D03*
X42672000Y-68326000D03*
X42672000Y-60706000D03*
X85852000Y-55626000D03*
X42672000Y-58166000D03*
X45212000Y-63246000D03*
X45212000Y-65786000D03*
X45212000Y-73406000D03*
X88392000Y-68326000D03*
X85852000Y-75946000D03*
X88392000Y-75946000D03*
X42672000Y-63246000D03*
X45212000Y-68326000D03*
X88392000Y-58166000D03*
X45212000Y-75946000D03*
X88392000Y-65786000D03*
X45212000Y-124206000D03*
X45212000Y-139446000D03*
X45212000Y-131826000D03*
X45212000Y-134366000D03*
X45212000Y-136906000D03*
X45212000Y-126746000D03*
X45212000Y-129286000D03*
X42672000Y-134366000D03*
X42672000Y-124206000D03*
X42672000Y-121666000D03*
X45212000Y-119126000D03*
X42672000Y-126746000D03*
X45212000Y-116586000D03*
X42672000Y-119126000D03*
X42672000Y-131826000D03*
X42672000Y-116586000D03*
X42672000Y-139446000D03*
X45212000Y-121666000D03*
X42672000Y-136906000D03*
X42672000Y-129286000D03*
%TD*%
%TO.C,C1*%
G36*
G01*
X49400000Y-120887500D02*
X49400000Y-120412500D01*
G75*
G02*
X49637500Y-120175000I237500J0D01*
G01*
X50212500Y-120175000D01*
G75*
G02*
X50450000Y-120412500I0J-237500D01*
G01*
X50450000Y-120887500D01*
G75*
G02*
X50212500Y-121125000I-237500J0D01*
G01*
X49637500Y-121125000D01*
G75*
G02*
X49400000Y-120887500I0J237500D01*
G01*
G37*
G36*
G01*
X51150000Y-120887500D02*
X51150000Y-120412500D01*
G75*
G02*
X51387500Y-120175000I237500J0D01*
G01*
X51962500Y-120175000D01*
G75*
G02*
X52200000Y-120412500I0J-237500D01*
G01*
X52200000Y-120887500D01*
G75*
G02*
X51962500Y-121125000I-237500J0D01*
G01*
X51387500Y-121125000D01*
G75*
G02*
X51150000Y-120887500I0J237500D01*
G01*
G37*
%TD*%
%TO.C,C2*%
G36*
G01*
X63723000Y-120887500D02*
X63723000Y-120412500D01*
G75*
G02*
X63960500Y-120175000I237500J0D01*
G01*
X64535500Y-120175000D01*
G75*
G02*
X64773000Y-120412500I0J-237500D01*
G01*
X64773000Y-120887500D01*
G75*
G02*
X64535500Y-121125000I-237500J0D01*
G01*
X63960500Y-121125000D01*
G75*
G02*
X63723000Y-120887500I0J237500D01*
G01*
G37*
G36*
G01*
X61973000Y-120887500D02*
X61973000Y-120412500D01*
G75*
G02*
X62210500Y-120175000I237500J0D01*
G01*
X62785500Y-120175000D01*
G75*
G02*
X63023000Y-120412500I0J-237500D01*
G01*
X63023000Y-120887500D01*
G75*
G02*
X62785500Y-121125000I-237500J0D01*
G01*
X62210500Y-121125000D01*
G75*
G02*
X61973000Y-120887500I0J237500D01*
G01*
G37*
%TD*%
%TO.C,C3*%
G36*
G01*
X56038000Y-120412500D02*
X56038000Y-120887500D01*
G75*
G02*
X55800500Y-121125000I-237500J0D01*
G01*
X55225500Y-121125000D01*
G75*
G02*
X54988000Y-120887500I0J237500D01*
G01*
X54988000Y-120412500D01*
G75*
G02*
X55225500Y-120175000I237500J0D01*
G01*
X55800500Y-120175000D01*
G75*
G02*
X56038000Y-120412500I0J-237500D01*
G01*
G37*
G36*
G01*
X57788000Y-120412500D02*
X57788000Y-120887500D01*
G75*
G02*
X57550500Y-121125000I-237500J0D01*
G01*
X56975500Y-121125000D01*
G75*
G02*
X56738000Y-120887500I0J237500D01*
G01*
X56738000Y-120412500D01*
G75*
G02*
X56975500Y-120175000I237500J0D01*
G01*
X57550500Y-120175000D01*
G75*
G02*
X57788000Y-120412500I0J-237500D01*
G01*
G37*
%TD*%
%TO.C,C4*%
G36*
G01*
X69345000Y-120412500D02*
X69345000Y-120887500D01*
G75*
G02*
X69107500Y-121125000I-237500J0D01*
G01*
X68532500Y-121125000D01*
G75*
G02*
X68295000Y-120887500I0J237500D01*
G01*
X68295000Y-120412500D01*
G75*
G02*
X68532500Y-120175000I237500J0D01*
G01*
X69107500Y-120175000D01*
G75*
G02*
X69345000Y-120412500I0J-237500D01*
G01*
G37*
G36*
G01*
X67595000Y-120412500D02*
X67595000Y-120887500D01*
G75*
G02*
X67357500Y-121125000I-237500J0D01*
G01*
X66782500Y-121125000D01*
G75*
G02*
X66545000Y-120887500I0J237500D01*
G01*
X66545000Y-120412500D01*
G75*
G02*
X66782500Y-120175000I237500J0D01*
G01*
X67357500Y-120175000D01*
G75*
G02*
X67595000Y-120412500I0J-237500D01*
G01*
G37*
%TD*%
%TO.C,C5*%
G36*
G01*
X66056500Y-31225000D02*
X66531500Y-31225000D01*
G75*
G02*
X66769000Y-31462500I0J-237500D01*
G01*
X66769000Y-32037500D01*
G75*
G02*
X66531500Y-32275000I-237500J0D01*
G01*
X66056500Y-32275000D01*
G75*
G02*
X65819000Y-32037500I0J237500D01*
G01*
X65819000Y-31462500D01*
G75*
G02*
X66056500Y-31225000I237500J0D01*
G01*
G37*
G36*
G01*
X66056500Y-32975000D02*
X66531500Y-32975000D01*
G75*
G02*
X66769000Y-33212500I0J-237500D01*
G01*
X66769000Y-33787500D01*
G75*
G02*
X66531500Y-34025000I-237500J0D01*
G01*
X66056500Y-34025000D01*
G75*
G02*
X65819000Y-33787500I0J237500D01*
G01*
X65819000Y-33212500D01*
G75*
G02*
X66056500Y-32975000I237500J0D01*
G01*
G37*
%TD*%
%TO.C,C6*%
G36*
G01*
X66785000Y-39607500D02*
X66785000Y-39132500D01*
G75*
G02*
X67022500Y-38895000I237500J0D01*
G01*
X67597500Y-38895000D01*
G75*
G02*
X67835000Y-39132500I0J-237500D01*
G01*
X67835000Y-39607500D01*
G75*
G02*
X67597500Y-39845000I-237500J0D01*
G01*
X67022500Y-39845000D01*
G75*
G02*
X66785000Y-39607500I0J237500D01*
G01*
G37*
G36*
G01*
X68535000Y-39607500D02*
X68535000Y-39132500D01*
G75*
G02*
X68772500Y-38895000I237500J0D01*
G01*
X69347500Y-38895000D01*
G75*
G02*
X69585000Y-39132500I0J-237500D01*
G01*
X69585000Y-39607500D01*
G75*
G02*
X69347500Y-39845000I-237500J0D01*
G01*
X68772500Y-39845000D01*
G75*
G02*
X68535000Y-39607500I0J237500D01*
G01*
G37*
%TD*%
%TO.C,C7*%
G36*
G01*
X68535000Y-36813500D02*
X68535000Y-36338500D01*
G75*
G02*
X68772500Y-36101000I237500J0D01*
G01*
X69347500Y-36101000D01*
G75*
G02*
X69585000Y-36338500I0J-237500D01*
G01*
X69585000Y-36813500D01*
G75*
G02*
X69347500Y-37051000I-237500J0D01*
G01*
X68772500Y-37051000D01*
G75*
G02*
X68535000Y-36813500I0J237500D01*
G01*
G37*
G36*
G01*
X66785000Y-36813500D02*
X66785000Y-36338500D01*
G75*
G02*
X67022500Y-36101000I237500J0D01*
G01*
X67597500Y-36101000D01*
G75*
G02*
X67835000Y-36338500I0J-237500D01*
G01*
X67835000Y-36813500D01*
G75*
G02*
X67597500Y-37051000I-237500J0D01*
G01*
X67022500Y-37051000D01*
G75*
G02*
X66785000Y-36813500I0J237500D01*
G01*
G37*
%TD*%
%TO.C,C10*%
G36*
G01*
X46894000Y-39894500D02*
X46894000Y-40369500D01*
G75*
G02*
X46656500Y-40607000I-237500J0D01*
G01*
X46081500Y-40607000D01*
G75*
G02*
X45844000Y-40369500I0J237500D01*
G01*
X45844000Y-39894500D01*
G75*
G02*
X46081500Y-39657000I237500J0D01*
G01*
X46656500Y-39657000D01*
G75*
G02*
X46894000Y-39894500I0J-237500D01*
G01*
G37*
G36*
G01*
X48644000Y-39894500D02*
X48644000Y-40369500D01*
G75*
G02*
X48406500Y-40607000I-237500J0D01*
G01*
X47831500Y-40607000D01*
G75*
G02*
X47594000Y-40369500I0J237500D01*
G01*
X47594000Y-39894500D01*
G75*
G02*
X47831500Y-39657000I237500J0D01*
G01*
X48406500Y-39657000D01*
G75*
G02*
X48644000Y-39894500I0J-237500D01*
G01*
G37*
%TD*%
%TO.C,D1*%
G36*
G01*
X73804000Y-102759500D02*
X73804000Y-103234500D01*
G75*
G02*
X73566500Y-103472000I-237500J0D01*
G01*
X72991500Y-103472000D01*
G75*
G02*
X72754000Y-103234500I0J237500D01*
G01*
X72754000Y-102759500D01*
G75*
G02*
X72991500Y-102522000I237500J0D01*
G01*
X73566500Y-102522000D01*
G75*
G02*
X73804000Y-102759500I0J-237500D01*
G01*
G37*
G36*
G01*
X75554000Y-102759500D02*
X75554000Y-103234500D01*
G75*
G02*
X75316500Y-103472000I-237500J0D01*
G01*
X74741500Y-103472000D01*
G75*
G02*
X74504000Y-103234500I0J237500D01*
G01*
X74504000Y-102759500D01*
G75*
G02*
X74741500Y-102522000I237500J0D01*
G01*
X75316500Y-102522000D01*
G75*
G02*
X75554000Y-102759500I0J-237500D01*
G01*
G37*
%TD*%
%TO.C,D2*%
G36*
G01*
X75554000Y-106188500D02*
X75554000Y-106663500D01*
G75*
G02*
X75316500Y-106901000I-237500J0D01*
G01*
X74741500Y-106901000D01*
G75*
G02*
X74504000Y-106663500I0J237500D01*
G01*
X74504000Y-106188500D01*
G75*
G02*
X74741500Y-105951000I237500J0D01*
G01*
X75316500Y-105951000D01*
G75*
G02*
X75554000Y-106188500I0J-237500D01*
G01*
G37*
G36*
G01*
X73804000Y-106188500D02*
X73804000Y-106663500D01*
G75*
G02*
X73566500Y-106901000I-237500J0D01*
G01*
X72991500Y-106901000D01*
G75*
G02*
X72754000Y-106663500I0J237500D01*
G01*
X72754000Y-106188500D01*
G75*
G02*
X72991500Y-105951000I237500J0D01*
G01*
X73566500Y-105951000D01*
G75*
G02*
X73804000Y-106188500I0J-237500D01*
G01*
G37*
%TD*%
%TO.C,D3*%
G36*
G01*
X64759000Y-89043500D02*
X64759000Y-89518500D01*
G75*
G02*
X64521500Y-89756000I-237500J0D01*
G01*
X63946500Y-89756000D01*
G75*
G02*
X63709000Y-89518500I0J237500D01*
G01*
X63709000Y-89043500D01*
G75*
G02*
X63946500Y-88806000I237500J0D01*
G01*
X64521500Y-88806000D01*
G75*
G02*
X64759000Y-89043500I0J-237500D01*
G01*
G37*
G36*
G01*
X63009000Y-89043500D02*
X63009000Y-89518500D01*
G75*
G02*
X62771500Y-89756000I-237500J0D01*
G01*
X62196500Y-89756000D01*
G75*
G02*
X61959000Y-89518500I0J237500D01*
G01*
X61959000Y-89043500D01*
G75*
G02*
X62196500Y-88806000I237500J0D01*
G01*
X62771500Y-88806000D01*
G75*
G02*
X63009000Y-89043500I0J-237500D01*
G01*
G37*
%TD*%
%TO.C,D4*%
G36*
G01*
X64646000Y-86249500D02*
X64646000Y-86724500D01*
G75*
G02*
X64408500Y-86962000I-237500J0D01*
G01*
X63833500Y-86962000D01*
G75*
G02*
X63596000Y-86724500I0J237500D01*
G01*
X63596000Y-86249500D01*
G75*
G02*
X63833500Y-86012000I237500J0D01*
G01*
X64408500Y-86012000D01*
G75*
G02*
X64646000Y-86249500I0J-237500D01*
G01*
G37*
G36*
G01*
X62896000Y-86249500D02*
X62896000Y-86724500D01*
G75*
G02*
X62658500Y-86962000I-237500J0D01*
G01*
X62083500Y-86962000D01*
G75*
G02*
X61846000Y-86724500I0J237500D01*
G01*
X61846000Y-86249500D01*
G75*
G02*
X62083500Y-86012000I237500J0D01*
G01*
X62658500Y-86012000D01*
G75*
G02*
X62896000Y-86249500I0J-237500D01*
G01*
G37*
%TD*%
%TO.C,D5*%
G36*
G01*
X62896000Y-83455500D02*
X62896000Y-83930500D01*
G75*
G02*
X62658500Y-84168000I-237500J0D01*
G01*
X62083500Y-84168000D01*
G75*
G02*
X61846000Y-83930500I0J237500D01*
G01*
X61846000Y-83455500D01*
G75*
G02*
X62083500Y-83218000I237500J0D01*
G01*
X62658500Y-83218000D01*
G75*
G02*
X62896000Y-83455500I0J-237500D01*
G01*
G37*
G36*
G01*
X64646000Y-83455500D02*
X64646000Y-83930500D01*
G75*
G02*
X64408500Y-84168000I-237500J0D01*
G01*
X63833500Y-84168000D01*
G75*
G02*
X63596000Y-83930500I0J237500D01*
G01*
X63596000Y-83455500D01*
G75*
G02*
X63833500Y-83218000I237500J0D01*
G01*
X64408500Y-83218000D01*
G75*
G02*
X64646000Y-83455500I0J-237500D01*
G01*
G37*
%TD*%
%TO.C,D6*%
G36*
G01*
X85883000Y-89678500D02*
X85883000Y-90153500D01*
G75*
G02*
X85645500Y-90391000I-237500J0D01*
G01*
X85070500Y-90391000D01*
G75*
G02*
X84833000Y-90153500I0J237500D01*
G01*
X84833000Y-89678500D01*
G75*
G02*
X85070500Y-89441000I237500J0D01*
G01*
X85645500Y-89441000D01*
G75*
G02*
X85883000Y-89678500I0J-237500D01*
G01*
G37*
G36*
G01*
X87633000Y-89678500D02*
X87633000Y-90153500D01*
G75*
G02*
X87395500Y-90391000I-237500J0D01*
G01*
X86820500Y-90391000D01*
G75*
G02*
X86583000Y-90153500I0J237500D01*
G01*
X86583000Y-89678500D01*
G75*
G02*
X86820500Y-89441000I237500J0D01*
G01*
X87395500Y-89441000D01*
G75*
G02*
X87633000Y-89678500I0J-237500D01*
G01*
G37*
%TD*%
%TO.C,D10*%
G36*
G01*
X84946000Y-108060500D02*
X84946000Y-107585500D01*
G75*
G02*
X85183500Y-107348000I237500J0D01*
G01*
X85758500Y-107348000D01*
G75*
G02*
X85996000Y-107585500I0J-237500D01*
G01*
X85996000Y-108060500D01*
G75*
G02*
X85758500Y-108298000I-237500J0D01*
G01*
X85183500Y-108298000D01*
G75*
G02*
X84946000Y-108060500I0J237500D01*
G01*
G37*
G36*
G01*
X86696000Y-108060500D02*
X86696000Y-107585500D01*
G75*
G02*
X86933500Y-107348000I237500J0D01*
G01*
X87508500Y-107348000D01*
G75*
G02*
X87746000Y-107585500I0J-237500D01*
G01*
X87746000Y-108060500D01*
G75*
G02*
X87508500Y-108298000I-237500J0D01*
G01*
X86933500Y-108298000D01*
G75*
G02*
X86696000Y-108060500I0J237500D01*
G01*
G37*
%TD*%
%TO.C,D11*%
G36*
G01*
X86696000Y-105139500D02*
X86696000Y-104664500D01*
G75*
G02*
X86933500Y-104427000I237500J0D01*
G01*
X87508500Y-104427000D01*
G75*
G02*
X87746000Y-104664500I0J-237500D01*
G01*
X87746000Y-105139500D01*
G75*
G02*
X87508500Y-105377000I-237500J0D01*
G01*
X86933500Y-105377000D01*
G75*
G02*
X86696000Y-105139500I0J237500D01*
G01*
G37*
G36*
G01*
X84946000Y-105139500D02*
X84946000Y-104664500D01*
G75*
G02*
X85183500Y-104427000I237500J0D01*
G01*
X85758500Y-104427000D01*
G75*
G02*
X85996000Y-104664500I0J-237500D01*
G01*
X85996000Y-105139500D01*
G75*
G02*
X85758500Y-105377000I-237500J0D01*
G01*
X85183500Y-105377000D01*
G75*
G02*
X84946000Y-105139500I0J237500D01*
G01*
G37*
%TD*%
%TO.C,D12*%
G36*
G01*
X84946000Y-102091500D02*
X84946000Y-101616500D01*
G75*
G02*
X85183500Y-101379000I237500J0D01*
G01*
X85758500Y-101379000D01*
G75*
G02*
X85996000Y-101616500I0J-237500D01*
G01*
X85996000Y-102091500D01*
G75*
G02*
X85758500Y-102329000I-237500J0D01*
G01*
X85183500Y-102329000D01*
G75*
G02*
X84946000Y-102091500I0J237500D01*
G01*
G37*
G36*
G01*
X86696000Y-102091500D02*
X86696000Y-101616500D01*
G75*
G02*
X86933500Y-101379000I237500J0D01*
G01*
X87508500Y-101379000D01*
G75*
G02*
X87746000Y-101616500I0J-237500D01*
G01*
X87746000Y-102091500D01*
G75*
G02*
X87508500Y-102329000I-237500J0D01*
G01*
X86933500Y-102329000D01*
G75*
G02*
X86696000Y-102091500I0J237500D01*
G01*
G37*
%TD*%
%TO.C,D13*%
G36*
G01*
X86696000Y-99170500D02*
X86696000Y-98695500D01*
G75*
G02*
X86933500Y-98458000I237500J0D01*
G01*
X87508500Y-98458000D01*
G75*
G02*
X87746000Y-98695500I0J-237500D01*
G01*
X87746000Y-99170500D01*
G75*
G02*
X87508500Y-99408000I-237500J0D01*
G01*
X86933500Y-99408000D01*
G75*
G02*
X86696000Y-99170500I0J237500D01*
G01*
G37*
G36*
G01*
X84946000Y-99170500D02*
X84946000Y-98695500D01*
G75*
G02*
X85183500Y-98458000I237500J0D01*
G01*
X85758500Y-98458000D01*
G75*
G02*
X85996000Y-98695500I0J-237500D01*
G01*
X85996000Y-99170500D01*
G75*
G02*
X85758500Y-99408000I-237500J0D01*
G01*
X85183500Y-99408000D01*
G75*
G02*
X84946000Y-99170500I0J237500D01*
G01*
G37*
%TD*%
%TO.C,D14*%
G36*
G01*
X86710000Y-84184500D02*
X86710000Y-83709500D01*
G75*
G02*
X86947500Y-83472000I237500J0D01*
G01*
X87522500Y-83472000D01*
G75*
G02*
X87760000Y-83709500I0J-237500D01*
G01*
X87760000Y-84184500D01*
G75*
G02*
X87522500Y-84422000I-237500J0D01*
G01*
X86947500Y-84422000D01*
G75*
G02*
X86710000Y-84184500I0J237500D01*
G01*
G37*
G36*
G01*
X84960000Y-84184500D02*
X84960000Y-83709500D01*
G75*
G02*
X85197500Y-83472000I237500J0D01*
G01*
X85772500Y-83472000D01*
G75*
G02*
X86010000Y-83709500I0J-237500D01*
G01*
X86010000Y-84184500D01*
G75*
G02*
X85772500Y-84422000I-237500J0D01*
G01*
X85197500Y-84422000D01*
G75*
G02*
X84960000Y-84184500I0J237500D01*
G01*
G37*
%TD*%
%TO.C,D15*%
G36*
G01*
X84946000Y-87232500D02*
X84946000Y-86757500D01*
G75*
G02*
X85183500Y-86520000I237500J0D01*
G01*
X85758500Y-86520000D01*
G75*
G02*
X85996000Y-86757500I0J-237500D01*
G01*
X85996000Y-87232500D01*
G75*
G02*
X85758500Y-87470000I-237500J0D01*
G01*
X85183500Y-87470000D01*
G75*
G02*
X84946000Y-87232500I0J237500D01*
G01*
G37*
G36*
G01*
X86696000Y-87232500D02*
X86696000Y-86757500D01*
G75*
G02*
X86933500Y-86520000I237500J0D01*
G01*
X87508500Y-86520000D01*
G75*
G02*
X87746000Y-86757500I0J-237500D01*
G01*
X87746000Y-87232500D01*
G75*
G02*
X87508500Y-87470000I-237500J0D01*
G01*
X86933500Y-87470000D01*
G75*
G02*
X86696000Y-87232500I0J237500D01*
G01*
G37*
%TD*%
%TO.C,FB1*%
G36*
G01*
X65728001Y-38176000D02*
X64827999Y-38176000D01*
G75*
G02*
X64578000Y-37926001I0J249999D01*
G01*
X64578000Y-37275999D01*
G75*
G02*
X64827999Y-37026000I249999J0D01*
G01*
X65728001Y-37026000D01*
G75*
G02*
X65978000Y-37275999I0J-249999D01*
G01*
X65978000Y-37926001D01*
G75*
G02*
X65728001Y-38176000I-249999J0D01*
G01*
G37*
G36*
G01*
X65728001Y-36126000D02*
X64827999Y-36126000D01*
G75*
G02*
X64578000Y-35876001I0J249999D01*
G01*
X64578000Y-35225999D01*
G75*
G02*
X64827999Y-34976000I249999J0D01*
G01*
X65728001Y-34976000D01*
G75*
G02*
X65978000Y-35225999I0J-249999D01*
G01*
X65978000Y-35876001D01*
G75*
G02*
X65728001Y-36126000I-249999J0D01*
G01*
G37*
%TD*%
D12*
%TO.C,Q2*%
X97425000Y-132273000D03*
X97425000Y-134173000D03*
X99425000Y-133223000D03*
%TD*%
%TO.C,Q3*%
X99425000Y-122809000D03*
X97425000Y-123759000D03*
X97425000Y-121859000D03*
%TD*%
%TO.C,Q4*%
X99425000Y-138303000D03*
X97425000Y-139253000D03*
X97425000Y-137353000D03*
%TD*%
%TO.C,Q5*%
X80502000Y-64770000D03*
X78502000Y-65720000D03*
X78502000Y-63820000D03*
%TD*%
%TO.C,Q6*%
X97425000Y-127066000D03*
X97425000Y-128966000D03*
X99425000Y-128016000D03*
%TD*%
%TO.C,R2*%
G36*
G01*
X71898500Y-120111000D02*
X72373500Y-120111000D01*
G75*
G02*
X72611000Y-120348500I0J-237500D01*
G01*
X72611000Y-120923500D01*
G75*
G02*
X72373500Y-121161000I-237500J0D01*
G01*
X71898500Y-121161000D01*
G75*
G02*
X71661000Y-120923500I0J237500D01*
G01*
X71661000Y-120348500D01*
G75*
G02*
X71898500Y-120111000I237500J0D01*
G01*
G37*
G36*
G01*
X71898500Y-118361000D02*
X72373500Y-118361000D01*
G75*
G02*
X72611000Y-118598500I0J-237500D01*
G01*
X72611000Y-119173500D01*
G75*
G02*
X72373500Y-119411000I-237500J0D01*
G01*
X71898500Y-119411000D01*
G75*
G02*
X71661000Y-119173500I0J237500D01*
G01*
X71661000Y-118598500D01*
G75*
G02*
X71898500Y-118361000I237500J0D01*
G01*
G37*
%TD*%
%TO.C,R3*%
G36*
G01*
X93856000Y-57928500D02*
X93856000Y-58403500D01*
G75*
G02*
X93618500Y-58641000I-237500J0D01*
G01*
X93043500Y-58641000D01*
G75*
G02*
X92806000Y-58403500I0J237500D01*
G01*
X92806000Y-57928500D01*
G75*
G02*
X93043500Y-57691000I237500J0D01*
G01*
X93618500Y-57691000D01*
G75*
G02*
X93856000Y-57928500I0J-237500D01*
G01*
G37*
G36*
G01*
X92106000Y-57928500D02*
X92106000Y-58403500D01*
G75*
G02*
X91868500Y-58641000I-237500J0D01*
G01*
X91293500Y-58641000D01*
G75*
G02*
X91056000Y-58403500I0J237500D01*
G01*
X91056000Y-57928500D01*
G75*
G02*
X91293500Y-57691000I237500J0D01*
G01*
X91868500Y-57691000D01*
G75*
G02*
X92106000Y-57928500I0J-237500D01*
G01*
G37*
%TD*%
%TO.C,R4*%
G36*
G01*
X92106000Y-55134500D02*
X92106000Y-55609500D01*
G75*
G02*
X91868500Y-55847000I-237500J0D01*
G01*
X91293500Y-55847000D01*
G75*
G02*
X91056000Y-55609500I0J237500D01*
G01*
X91056000Y-55134500D01*
G75*
G02*
X91293500Y-54897000I237500J0D01*
G01*
X91868500Y-54897000D01*
G75*
G02*
X92106000Y-55134500I0J-237500D01*
G01*
G37*
G36*
G01*
X93856000Y-55134500D02*
X93856000Y-55609500D01*
G75*
G02*
X93618500Y-55847000I-237500J0D01*
G01*
X93043500Y-55847000D01*
G75*
G02*
X92806000Y-55609500I0J237500D01*
G01*
X92806000Y-55134500D01*
G75*
G02*
X93043500Y-54897000I237500J0D01*
G01*
X93618500Y-54897000D01*
G75*
G02*
X93856000Y-55134500I0J-237500D01*
G01*
G37*
%TD*%
%TO.C,R5*%
G36*
G01*
X91056000Y-53323500D02*
X91056000Y-52848500D01*
G75*
G02*
X91293500Y-52611000I237500J0D01*
G01*
X91868500Y-52611000D01*
G75*
G02*
X92106000Y-52848500I0J-237500D01*
G01*
X92106000Y-53323500D01*
G75*
G02*
X91868500Y-53561000I-237500J0D01*
G01*
X91293500Y-53561000D01*
G75*
G02*
X91056000Y-53323500I0J237500D01*
G01*
G37*
G36*
G01*
X92806000Y-53323500D02*
X92806000Y-52848500D01*
G75*
G02*
X93043500Y-52611000I237500J0D01*
G01*
X93618500Y-52611000D01*
G75*
G02*
X93856000Y-52848500I0J-237500D01*
G01*
X93856000Y-53323500D01*
G75*
G02*
X93618500Y-53561000I-237500J0D01*
G01*
X93043500Y-53561000D01*
G75*
G02*
X92806000Y-53323500I0J237500D01*
G01*
G37*
%TD*%
%TO.C,R6*%
G36*
G01*
X81029000Y-68977500D02*
X81029000Y-69452500D01*
G75*
G02*
X80791500Y-69690000I-237500J0D01*
G01*
X80216500Y-69690000D01*
G75*
G02*
X79979000Y-69452500I0J237500D01*
G01*
X79979000Y-68977500D01*
G75*
G02*
X80216500Y-68740000I237500J0D01*
G01*
X80791500Y-68740000D01*
G75*
G02*
X81029000Y-68977500I0J-237500D01*
G01*
G37*
G36*
G01*
X79279000Y-68977500D02*
X79279000Y-69452500D01*
G75*
G02*
X79041500Y-69690000I-237500J0D01*
G01*
X78466500Y-69690000D01*
G75*
G02*
X78229000Y-69452500I0J237500D01*
G01*
X78229000Y-68977500D01*
G75*
G02*
X78466500Y-68740000I237500J0D01*
G01*
X79041500Y-68740000D01*
G75*
G02*
X79279000Y-68977500I0J-237500D01*
G01*
G37*
%TD*%
%TO.C,R10*%
G36*
G01*
X105492000Y-129015500D02*
X105492000Y-128540500D01*
G75*
G02*
X105729500Y-128303000I237500J0D01*
G01*
X106304500Y-128303000D01*
G75*
G02*
X106542000Y-128540500I0J-237500D01*
G01*
X106542000Y-129015500D01*
G75*
G02*
X106304500Y-129253000I-237500J0D01*
G01*
X105729500Y-129253000D01*
G75*
G02*
X105492000Y-129015500I0J237500D01*
G01*
G37*
G36*
G01*
X103742000Y-129015500D02*
X103742000Y-128540500D01*
G75*
G02*
X103979500Y-128303000I237500J0D01*
G01*
X104554500Y-128303000D01*
G75*
G02*
X104792000Y-128540500I0J-237500D01*
G01*
X104792000Y-129015500D01*
G75*
G02*
X104554500Y-129253000I-237500J0D01*
G01*
X103979500Y-129253000D01*
G75*
G02*
X103742000Y-129015500I0J237500D01*
G01*
G37*
%TD*%
%TO.C,R11*%
G36*
G01*
X103770000Y-123808500D02*
X103770000Y-123333500D01*
G75*
G02*
X104007500Y-123096000I237500J0D01*
G01*
X104582500Y-123096000D01*
G75*
G02*
X104820000Y-123333500I0J-237500D01*
G01*
X104820000Y-123808500D01*
G75*
G02*
X104582500Y-124046000I-237500J0D01*
G01*
X104007500Y-124046000D01*
G75*
G02*
X103770000Y-123808500I0J237500D01*
G01*
G37*
G36*
G01*
X105520000Y-123808500D02*
X105520000Y-123333500D01*
G75*
G02*
X105757500Y-123096000I237500J0D01*
G01*
X106332500Y-123096000D01*
G75*
G02*
X106570000Y-123333500I0J-237500D01*
G01*
X106570000Y-123808500D01*
G75*
G02*
X106332500Y-124046000I-237500J0D01*
G01*
X105757500Y-124046000D01*
G75*
G02*
X105520000Y-123808500I0J237500D01*
G01*
G37*
%TD*%
%TO.C,R12*%
G36*
G01*
X103629000Y-139429500D02*
X103629000Y-138954500D01*
G75*
G02*
X103866500Y-138717000I237500J0D01*
G01*
X104441500Y-138717000D01*
G75*
G02*
X104679000Y-138954500I0J-237500D01*
G01*
X104679000Y-139429500D01*
G75*
G02*
X104441500Y-139667000I-237500J0D01*
G01*
X103866500Y-139667000D01*
G75*
G02*
X103629000Y-139429500I0J237500D01*
G01*
G37*
G36*
G01*
X105379000Y-139429500D02*
X105379000Y-138954500D01*
G75*
G02*
X105616500Y-138717000I237500J0D01*
G01*
X106191500Y-138717000D01*
G75*
G02*
X106429000Y-138954500I0J-237500D01*
G01*
X106429000Y-139429500D01*
G75*
G02*
X106191500Y-139667000I-237500J0D01*
G01*
X105616500Y-139667000D01*
G75*
G02*
X105379000Y-139429500I0J237500D01*
G01*
G37*
%TD*%
%TO.C,R13*%
G36*
G01*
X105492000Y-134349500D02*
X105492000Y-133874500D01*
G75*
G02*
X105729500Y-133637000I237500J0D01*
G01*
X106304500Y-133637000D01*
G75*
G02*
X106542000Y-133874500I0J-237500D01*
G01*
X106542000Y-134349500D01*
G75*
G02*
X106304500Y-134587000I-237500J0D01*
G01*
X105729500Y-134587000D01*
G75*
G02*
X105492000Y-134349500I0J237500D01*
G01*
G37*
G36*
G01*
X103742000Y-134349500D02*
X103742000Y-133874500D01*
G75*
G02*
X103979500Y-133637000I237500J0D01*
G01*
X104554500Y-133637000D01*
G75*
G02*
X104792000Y-133874500I0J-237500D01*
G01*
X104792000Y-134349500D01*
G75*
G02*
X104554500Y-134587000I-237500J0D01*
G01*
X103979500Y-134587000D01*
G75*
G02*
X103742000Y-134349500I0J237500D01*
G01*
G37*
%TD*%
%TO.C,R15*%
G36*
G01*
X94377500Y-131710000D02*
X94852500Y-131710000D01*
G75*
G02*
X95090000Y-131947500I0J-237500D01*
G01*
X95090000Y-132522500D01*
G75*
G02*
X94852500Y-132760000I-237500J0D01*
G01*
X94377500Y-132760000D01*
G75*
G02*
X94140000Y-132522500I0J237500D01*
G01*
X94140000Y-131947500D01*
G75*
G02*
X94377500Y-131710000I237500J0D01*
G01*
G37*
G36*
G01*
X94377500Y-133460000D02*
X94852500Y-133460000D01*
G75*
G02*
X95090000Y-133697500I0J-237500D01*
G01*
X95090000Y-134272500D01*
G75*
G02*
X94852500Y-134510000I-237500J0D01*
G01*
X94377500Y-134510000D01*
G75*
G02*
X94140000Y-134272500I0J237500D01*
G01*
X94140000Y-133697500D01*
G75*
G02*
X94377500Y-133460000I237500J0D01*
G01*
G37*
%TD*%
%TO.C,R16*%
G36*
G01*
X94377500Y-121296000D02*
X94852500Y-121296000D01*
G75*
G02*
X95090000Y-121533500I0J-237500D01*
G01*
X95090000Y-122108500D01*
G75*
G02*
X94852500Y-122346000I-237500J0D01*
G01*
X94377500Y-122346000D01*
G75*
G02*
X94140000Y-122108500I0J237500D01*
G01*
X94140000Y-121533500D01*
G75*
G02*
X94377500Y-121296000I237500J0D01*
G01*
G37*
G36*
G01*
X94377500Y-123046000D02*
X94852500Y-123046000D01*
G75*
G02*
X95090000Y-123283500I0J-237500D01*
G01*
X95090000Y-123858500D01*
G75*
G02*
X94852500Y-124096000I-237500J0D01*
G01*
X94377500Y-124096000D01*
G75*
G02*
X94140000Y-123858500I0J237500D01*
G01*
X94140000Y-123283500D01*
G75*
G02*
X94377500Y-123046000I237500J0D01*
G01*
G37*
%TD*%
%TO.C,R18*%
G36*
G01*
X100854500Y-133587000D02*
X101329500Y-133587000D01*
G75*
G02*
X101567000Y-133824500I0J-237500D01*
G01*
X101567000Y-134399500D01*
G75*
G02*
X101329500Y-134637000I-237500J0D01*
G01*
X100854500Y-134637000D01*
G75*
G02*
X100617000Y-134399500I0J237500D01*
G01*
X100617000Y-133824500D01*
G75*
G02*
X100854500Y-133587000I237500J0D01*
G01*
G37*
G36*
G01*
X100854500Y-131837000D02*
X101329500Y-131837000D01*
G75*
G02*
X101567000Y-132074500I0J-237500D01*
G01*
X101567000Y-132649500D01*
G75*
G02*
X101329500Y-132887000I-237500J0D01*
G01*
X100854500Y-132887000D01*
G75*
G02*
X100617000Y-132649500I0J237500D01*
G01*
X100617000Y-132074500D01*
G75*
G02*
X100854500Y-131837000I237500J0D01*
G01*
G37*
%TD*%
%TO.C,R19*%
G36*
G01*
X100854500Y-123046000D02*
X101329500Y-123046000D01*
G75*
G02*
X101567000Y-123283500I0J-237500D01*
G01*
X101567000Y-123858500D01*
G75*
G02*
X101329500Y-124096000I-237500J0D01*
G01*
X100854500Y-124096000D01*
G75*
G02*
X100617000Y-123858500I0J237500D01*
G01*
X100617000Y-123283500D01*
G75*
G02*
X100854500Y-123046000I237500J0D01*
G01*
G37*
G36*
G01*
X100854500Y-121296000D02*
X101329500Y-121296000D01*
G75*
G02*
X101567000Y-121533500I0J-237500D01*
G01*
X101567000Y-122108500D01*
G75*
G02*
X101329500Y-122346000I-237500J0D01*
G01*
X100854500Y-122346000D01*
G75*
G02*
X100617000Y-122108500I0J237500D01*
G01*
X100617000Y-121533500D01*
G75*
G02*
X100854500Y-121296000I237500J0D01*
G01*
G37*
%TD*%
%TO.C,R20*%
G36*
G01*
X59038500Y-34674000D02*
X58563500Y-34674000D01*
G75*
G02*
X58326000Y-34436500I0J237500D01*
G01*
X58326000Y-33861500D01*
G75*
G02*
X58563500Y-33624000I237500J0D01*
G01*
X59038500Y-33624000D01*
G75*
G02*
X59276000Y-33861500I0J-237500D01*
G01*
X59276000Y-34436500D01*
G75*
G02*
X59038500Y-34674000I-237500J0D01*
G01*
G37*
G36*
G01*
X59038500Y-32924000D02*
X58563500Y-32924000D01*
G75*
G02*
X58326000Y-32686500I0J237500D01*
G01*
X58326000Y-32111500D01*
G75*
G02*
X58563500Y-31874000I237500J0D01*
G01*
X59038500Y-31874000D01*
G75*
G02*
X59276000Y-32111500I0J-237500D01*
G01*
X59276000Y-32686500D01*
G75*
G02*
X59038500Y-32924000I-237500J0D01*
G01*
G37*
%TD*%
%TO.C,R21*%
G36*
G01*
X56879500Y-34674000D02*
X56404500Y-34674000D01*
G75*
G02*
X56167000Y-34436500I0J237500D01*
G01*
X56167000Y-33861500D01*
G75*
G02*
X56404500Y-33624000I237500J0D01*
G01*
X56879500Y-33624000D01*
G75*
G02*
X57117000Y-33861500I0J-237500D01*
G01*
X57117000Y-34436500D01*
G75*
G02*
X56879500Y-34674000I-237500J0D01*
G01*
G37*
G36*
G01*
X56879500Y-32924000D02*
X56404500Y-32924000D01*
G75*
G02*
X56167000Y-32686500I0J237500D01*
G01*
X56167000Y-32111500D01*
G75*
G02*
X56404500Y-31874000I237500J0D01*
G01*
X56879500Y-31874000D01*
G75*
G02*
X57117000Y-32111500I0J-237500D01*
G01*
X57117000Y-32686500D01*
G75*
G02*
X56879500Y-32924000I-237500J0D01*
G01*
G37*
%TD*%
%TO.C,R22*%
G36*
G01*
X94377500Y-136790000D02*
X94852500Y-136790000D01*
G75*
G02*
X95090000Y-137027500I0J-237500D01*
G01*
X95090000Y-137602500D01*
G75*
G02*
X94852500Y-137840000I-237500J0D01*
G01*
X94377500Y-137840000D01*
G75*
G02*
X94140000Y-137602500I0J237500D01*
G01*
X94140000Y-137027500D01*
G75*
G02*
X94377500Y-136790000I237500J0D01*
G01*
G37*
G36*
G01*
X94377500Y-138540000D02*
X94852500Y-138540000D01*
G75*
G02*
X95090000Y-138777500I0J-237500D01*
G01*
X95090000Y-139352500D01*
G75*
G02*
X94852500Y-139590000I-237500J0D01*
G01*
X94377500Y-139590000D01*
G75*
G02*
X94140000Y-139352500I0J237500D01*
G01*
X94140000Y-138777500D01*
G75*
G02*
X94377500Y-138540000I237500J0D01*
G01*
G37*
%TD*%
%TO.C,R23*%
G36*
G01*
X75200500Y-65007000D02*
X75675500Y-65007000D01*
G75*
G02*
X75913000Y-65244500I0J-237500D01*
G01*
X75913000Y-65819500D01*
G75*
G02*
X75675500Y-66057000I-237500J0D01*
G01*
X75200500Y-66057000D01*
G75*
G02*
X74963000Y-65819500I0J237500D01*
G01*
X74963000Y-65244500D01*
G75*
G02*
X75200500Y-65007000I237500J0D01*
G01*
G37*
G36*
G01*
X75200500Y-63257000D02*
X75675500Y-63257000D01*
G75*
G02*
X75913000Y-63494500I0J-237500D01*
G01*
X75913000Y-64069500D01*
G75*
G02*
X75675500Y-64307000I-237500J0D01*
G01*
X75200500Y-64307000D01*
G75*
G02*
X74963000Y-64069500I0J237500D01*
G01*
X74963000Y-63494500D01*
G75*
G02*
X75200500Y-63257000I237500J0D01*
G01*
G37*
%TD*%
%TO.C,R24*%
G36*
G01*
X94377500Y-126503000D02*
X94852500Y-126503000D01*
G75*
G02*
X95090000Y-126740500I0J-237500D01*
G01*
X95090000Y-127315500D01*
G75*
G02*
X94852500Y-127553000I-237500J0D01*
G01*
X94377500Y-127553000D01*
G75*
G02*
X94140000Y-127315500I0J237500D01*
G01*
X94140000Y-126740500D01*
G75*
G02*
X94377500Y-126503000I237500J0D01*
G01*
G37*
G36*
G01*
X94377500Y-128253000D02*
X94852500Y-128253000D01*
G75*
G02*
X95090000Y-128490500I0J-237500D01*
G01*
X95090000Y-129065500D01*
G75*
G02*
X94852500Y-129303000I-237500J0D01*
G01*
X94377500Y-129303000D01*
G75*
G02*
X94140000Y-129065500I0J237500D01*
G01*
X94140000Y-128490500D01*
G75*
G02*
X94377500Y-128253000I237500J0D01*
G01*
G37*
%TD*%
%TO.C,R25*%
G36*
G01*
X100854500Y-138653000D02*
X101329500Y-138653000D01*
G75*
G02*
X101567000Y-138890500I0J-237500D01*
G01*
X101567000Y-139465500D01*
G75*
G02*
X101329500Y-139703000I-237500J0D01*
G01*
X100854500Y-139703000D01*
G75*
G02*
X100617000Y-139465500I0J237500D01*
G01*
X100617000Y-138890500D01*
G75*
G02*
X100854500Y-138653000I237500J0D01*
G01*
G37*
G36*
G01*
X100854500Y-136903000D02*
X101329500Y-136903000D01*
G75*
G02*
X101567000Y-137140500I0J-237500D01*
G01*
X101567000Y-137715500D01*
G75*
G02*
X101329500Y-137953000I-237500J0D01*
G01*
X100854500Y-137953000D01*
G75*
G02*
X100617000Y-137715500I0J237500D01*
G01*
X100617000Y-137140500D01*
G75*
G02*
X100854500Y-136903000I237500J0D01*
G01*
G37*
%TD*%
%TO.C,R26*%
G36*
G01*
X81804500Y-62495000D02*
X82279500Y-62495000D01*
G75*
G02*
X82517000Y-62732500I0J-237500D01*
G01*
X82517000Y-63307500D01*
G75*
G02*
X82279500Y-63545000I-237500J0D01*
G01*
X81804500Y-63545000D01*
G75*
G02*
X81567000Y-63307500I0J237500D01*
G01*
X81567000Y-62732500D01*
G75*
G02*
X81804500Y-62495000I237500J0D01*
G01*
G37*
G36*
G01*
X81804500Y-64245000D02*
X82279500Y-64245000D01*
G75*
G02*
X82517000Y-64482500I0J-237500D01*
G01*
X82517000Y-65057500D01*
G75*
G02*
X82279500Y-65295000I-237500J0D01*
G01*
X81804500Y-65295000D01*
G75*
G02*
X81567000Y-65057500I0J237500D01*
G01*
X81567000Y-64482500D01*
G75*
G02*
X81804500Y-64245000I237500J0D01*
G01*
G37*
%TD*%
%TO.C,R27*%
G36*
G01*
X100854500Y-128366000D02*
X101329500Y-128366000D01*
G75*
G02*
X101567000Y-128603500I0J-237500D01*
G01*
X101567000Y-129178500D01*
G75*
G02*
X101329500Y-129416000I-237500J0D01*
G01*
X100854500Y-129416000D01*
G75*
G02*
X100617000Y-129178500I0J237500D01*
G01*
X100617000Y-128603500D01*
G75*
G02*
X100854500Y-128366000I237500J0D01*
G01*
G37*
G36*
G01*
X100854500Y-126616000D02*
X101329500Y-126616000D01*
G75*
G02*
X101567000Y-126853500I0J-237500D01*
G01*
X101567000Y-127428500D01*
G75*
G02*
X101329500Y-127666000I-237500J0D01*
G01*
X100854500Y-127666000D01*
G75*
G02*
X100617000Y-127428500I0J237500D01*
G01*
X100617000Y-126853500D01*
G75*
G02*
X100854500Y-126616000I237500J0D01*
G01*
G37*
%TD*%
%TO.C,R28*%
G36*
G01*
X95154000Y-71517500D02*
X95154000Y-71992500D01*
G75*
G02*
X94916500Y-72230000I-237500J0D01*
G01*
X94341500Y-72230000D01*
G75*
G02*
X94104000Y-71992500I0J237500D01*
G01*
X94104000Y-71517500D01*
G75*
G02*
X94341500Y-71280000I237500J0D01*
G01*
X94916500Y-71280000D01*
G75*
G02*
X95154000Y-71517500I0J-237500D01*
G01*
G37*
G36*
G01*
X96904000Y-71517500D02*
X96904000Y-71992500D01*
G75*
G02*
X96666500Y-72230000I-237500J0D01*
G01*
X96091500Y-72230000D01*
G75*
G02*
X95854000Y-71992500I0J237500D01*
G01*
X95854000Y-71517500D01*
G75*
G02*
X96091500Y-71280000I237500J0D01*
G01*
X96666500Y-71280000D01*
G75*
G02*
X96904000Y-71517500I0J-237500D01*
G01*
G37*
%TD*%
%TO.C,R29*%
G36*
G01*
X96918000Y-74565500D02*
X96918000Y-75040500D01*
G75*
G02*
X96680500Y-75278000I-237500J0D01*
G01*
X96105500Y-75278000D01*
G75*
G02*
X95868000Y-75040500I0J237500D01*
G01*
X95868000Y-74565500D01*
G75*
G02*
X96105500Y-74328000I237500J0D01*
G01*
X96680500Y-74328000D01*
G75*
G02*
X96918000Y-74565500I0J-237500D01*
G01*
G37*
G36*
G01*
X95168000Y-74565500D02*
X95168000Y-75040500D01*
G75*
G02*
X94930500Y-75278000I-237500J0D01*
G01*
X94355500Y-75278000D01*
G75*
G02*
X94118000Y-75040500I0J237500D01*
G01*
X94118000Y-74565500D01*
G75*
G02*
X94355500Y-74328000I237500J0D01*
G01*
X94930500Y-74328000D01*
G75*
G02*
X95168000Y-74565500I0J-237500D01*
G01*
G37*
%TD*%
%TO.C,R30*%
G36*
G01*
X75709000Y-68977500D02*
X75709000Y-69452500D01*
G75*
G02*
X75471500Y-69690000I-237500J0D01*
G01*
X74896500Y-69690000D01*
G75*
G02*
X74659000Y-69452500I0J237500D01*
G01*
X74659000Y-68977500D01*
G75*
G02*
X74896500Y-68740000I237500J0D01*
G01*
X75471500Y-68740000D01*
G75*
G02*
X75709000Y-68977500I0J-237500D01*
G01*
G37*
G36*
G01*
X77459000Y-68977500D02*
X77459000Y-69452500D01*
G75*
G02*
X77221500Y-69690000I-237500J0D01*
G01*
X76646500Y-69690000D01*
G75*
G02*
X76409000Y-69452500I0J237500D01*
G01*
X76409000Y-68977500D01*
G75*
G02*
X76646500Y-68740000I237500J0D01*
G01*
X77221500Y-68740000D01*
G75*
G02*
X77459000Y-68977500I0J-237500D01*
G01*
G37*
%TD*%
%TO.C,R32*%
G36*
G01*
X107298000Y-123808500D02*
X107298000Y-123333500D01*
G75*
G02*
X107535500Y-123096000I237500J0D01*
G01*
X108110500Y-123096000D01*
G75*
G02*
X108348000Y-123333500I0J-237500D01*
G01*
X108348000Y-123808500D01*
G75*
G02*
X108110500Y-124046000I-237500J0D01*
G01*
X107535500Y-124046000D01*
G75*
G02*
X107298000Y-123808500I0J237500D01*
G01*
G37*
G36*
G01*
X109048000Y-123808500D02*
X109048000Y-123333500D01*
G75*
G02*
X109285500Y-123096000I237500J0D01*
G01*
X109860500Y-123096000D01*
G75*
G02*
X110098000Y-123333500I0J-237500D01*
G01*
X110098000Y-123808500D01*
G75*
G02*
X109860500Y-124046000I-237500J0D01*
G01*
X109285500Y-124046000D01*
G75*
G02*
X109048000Y-123808500I0J237500D01*
G01*
G37*
%TD*%
%TO.C,R33*%
G36*
G01*
X107552000Y-134349500D02*
X107552000Y-133874500D01*
G75*
G02*
X107789500Y-133637000I237500J0D01*
G01*
X108364500Y-133637000D01*
G75*
G02*
X108602000Y-133874500I0J-237500D01*
G01*
X108602000Y-134349500D01*
G75*
G02*
X108364500Y-134587000I-237500J0D01*
G01*
X107789500Y-134587000D01*
G75*
G02*
X107552000Y-134349500I0J237500D01*
G01*
G37*
G36*
G01*
X109302000Y-134349500D02*
X109302000Y-133874500D01*
G75*
G02*
X109539500Y-133637000I237500J0D01*
G01*
X110114500Y-133637000D01*
G75*
G02*
X110352000Y-133874500I0J-237500D01*
G01*
X110352000Y-134349500D01*
G75*
G02*
X110114500Y-134587000I-237500J0D01*
G01*
X109539500Y-134587000D01*
G75*
G02*
X109302000Y-134349500I0J237500D01*
G01*
G37*
%TD*%
%TO.C,R34*%
G36*
G01*
X109048000Y-129015500D02*
X109048000Y-128540500D01*
G75*
G02*
X109285500Y-128303000I237500J0D01*
G01*
X109860500Y-128303000D01*
G75*
G02*
X110098000Y-128540500I0J-237500D01*
G01*
X110098000Y-129015500D01*
G75*
G02*
X109860500Y-129253000I-237500J0D01*
G01*
X109285500Y-129253000D01*
G75*
G02*
X109048000Y-129015500I0J237500D01*
G01*
G37*
G36*
G01*
X107298000Y-129015500D02*
X107298000Y-128540500D01*
G75*
G02*
X107535500Y-128303000I237500J0D01*
G01*
X108110500Y-128303000D01*
G75*
G02*
X108348000Y-128540500I0J-237500D01*
G01*
X108348000Y-129015500D01*
G75*
G02*
X108110500Y-129253000I-237500J0D01*
G01*
X107535500Y-129253000D01*
G75*
G02*
X107298000Y-129015500I0J237500D01*
G01*
G37*
%TD*%
%TO.C,R35*%
G36*
G01*
X107185000Y-139429500D02*
X107185000Y-138954500D01*
G75*
G02*
X107422500Y-138717000I237500J0D01*
G01*
X107997500Y-138717000D01*
G75*
G02*
X108235000Y-138954500I0J-237500D01*
G01*
X108235000Y-139429500D01*
G75*
G02*
X107997500Y-139667000I-237500J0D01*
G01*
X107422500Y-139667000D01*
G75*
G02*
X107185000Y-139429500I0J237500D01*
G01*
G37*
G36*
G01*
X108935000Y-139429500D02*
X108935000Y-138954500D01*
G75*
G02*
X109172500Y-138717000I237500J0D01*
G01*
X109747500Y-138717000D01*
G75*
G02*
X109985000Y-138954500I0J-237500D01*
G01*
X109985000Y-139429500D01*
G75*
G02*
X109747500Y-139667000I-237500J0D01*
G01*
X109172500Y-139667000D01*
G75*
G02*
X108935000Y-139429500I0J237500D01*
G01*
G37*
%TD*%
%TO.C,R36*%
G36*
G01*
X100714000Y-74565500D02*
X100714000Y-75040500D01*
G75*
G02*
X100476500Y-75278000I-237500J0D01*
G01*
X99901500Y-75278000D01*
G75*
G02*
X99664000Y-75040500I0J237500D01*
G01*
X99664000Y-74565500D01*
G75*
G02*
X99901500Y-74328000I237500J0D01*
G01*
X100476500Y-74328000D01*
G75*
G02*
X100714000Y-74565500I0J-237500D01*
G01*
G37*
G36*
G01*
X98964000Y-74565500D02*
X98964000Y-75040500D01*
G75*
G02*
X98726500Y-75278000I-237500J0D01*
G01*
X98151500Y-75278000D01*
G75*
G02*
X97914000Y-75040500I0J237500D01*
G01*
X97914000Y-74565500D01*
G75*
G02*
X98151500Y-74328000I237500J0D01*
G01*
X98726500Y-74328000D01*
G75*
G02*
X98964000Y-74565500I0J-237500D01*
G01*
G37*
%TD*%
%TO.C,R37*%
G36*
G01*
X98950000Y-71517500D02*
X98950000Y-71992500D01*
G75*
G02*
X98712500Y-72230000I-237500J0D01*
G01*
X98137500Y-72230000D01*
G75*
G02*
X97900000Y-71992500I0J237500D01*
G01*
X97900000Y-71517500D01*
G75*
G02*
X98137500Y-71280000I237500J0D01*
G01*
X98712500Y-71280000D01*
G75*
G02*
X98950000Y-71517500I0J-237500D01*
G01*
G37*
G36*
G01*
X100700000Y-71517500D02*
X100700000Y-71992500D01*
G75*
G02*
X100462500Y-72230000I-237500J0D01*
G01*
X99887500Y-72230000D01*
G75*
G02*
X99650000Y-71992500I0J237500D01*
G01*
X99650000Y-71517500D01*
G75*
G02*
X99887500Y-71280000I237500J0D01*
G01*
X100462500Y-71280000D01*
G75*
G02*
X100700000Y-71517500I0J-237500D01*
G01*
G37*
%TD*%
D13*
%TO.C,U4*%
X57718000Y-43878500D03*
X57718000Y-43243500D03*
X57718000Y-42608500D03*
X57718000Y-41973500D03*
X57718000Y-41338500D03*
X57718000Y-40703500D03*
X57718000Y-40068500D03*
X57718000Y-39433500D03*
X52518000Y-39433500D03*
X52518000Y-40068500D03*
X52518000Y-40703500D03*
X52518000Y-41338500D03*
X52518000Y-41973500D03*
X52518000Y-42608500D03*
X52518000Y-43243500D03*
X52518000Y-43878500D03*
%TD*%
%TO.C,D7*%
G36*
G01*
X84960000Y-96249500D02*
X84960000Y-95774500D01*
G75*
G02*
X85197500Y-95537000I237500J0D01*
G01*
X85772500Y-95537000D01*
G75*
G02*
X86010000Y-95774500I0J-237500D01*
G01*
X86010000Y-96249500D01*
G75*
G02*
X85772500Y-96487000I-237500J0D01*
G01*
X85197500Y-96487000D01*
G75*
G02*
X84960000Y-96249500I0J237500D01*
G01*
G37*
G36*
G01*
X86710000Y-96249500D02*
X86710000Y-95774500D01*
G75*
G02*
X86947500Y-95537000I237500J0D01*
G01*
X87522500Y-95537000D01*
G75*
G02*
X87760000Y-95774500I0J-237500D01*
G01*
X87760000Y-96249500D01*
G75*
G02*
X87522500Y-96487000I-237500J0D01*
G01*
X86947500Y-96487000D01*
G75*
G02*
X86710000Y-96249500I0J237500D01*
G01*
G37*
%TD*%
%TO.C,D8*%
G36*
G01*
X86696000Y-93328500D02*
X86696000Y-92853500D01*
G75*
G02*
X86933500Y-92616000I237500J0D01*
G01*
X87508500Y-92616000D01*
G75*
G02*
X87746000Y-92853500I0J-237500D01*
G01*
X87746000Y-93328500D01*
G75*
G02*
X87508500Y-93566000I-237500J0D01*
G01*
X86933500Y-93566000D01*
G75*
G02*
X86696000Y-93328500I0J237500D01*
G01*
G37*
G36*
G01*
X84946000Y-93328500D02*
X84946000Y-92853500D01*
G75*
G02*
X85183500Y-92616000I237500J0D01*
G01*
X85758500Y-92616000D01*
G75*
G02*
X85996000Y-92853500I0J-237500D01*
G01*
X85996000Y-93328500D01*
G75*
G02*
X85758500Y-93566000I-237500J0D01*
G01*
X85183500Y-93566000D01*
G75*
G02*
X84946000Y-93328500I0J237500D01*
G01*
G37*
%TD*%
%TO.C,D9*%
G36*
G01*
X75582000Y-91202500D02*
X75582000Y-91677500D01*
G75*
G02*
X75344500Y-91915000I-237500J0D01*
G01*
X74769500Y-91915000D01*
G75*
G02*
X74532000Y-91677500I0J237500D01*
G01*
X74532000Y-91202500D01*
G75*
G02*
X74769500Y-90965000I237500J0D01*
G01*
X75344500Y-90965000D01*
G75*
G02*
X75582000Y-91202500I0J-237500D01*
G01*
G37*
G36*
G01*
X73832000Y-91202500D02*
X73832000Y-91677500D01*
G75*
G02*
X73594500Y-91915000I-237500J0D01*
G01*
X73019500Y-91915000D01*
G75*
G02*
X72782000Y-91677500I0J237500D01*
G01*
X72782000Y-91202500D01*
G75*
G02*
X73019500Y-90965000I237500J0D01*
G01*
X73594500Y-90965000D01*
G75*
G02*
X73832000Y-91202500I0J-237500D01*
G01*
G37*
%TD*%
%TO.C,D16*%
G36*
G01*
X75568000Y-87265500D02*
X75568000Y-87740500D01*
G75*
G02*
X75330500Y-87978000I-237500J0D01*
G01*
X74755500Y-87978000D01*
G75*
G02*
X74518000Y-87740500I0J237500D01*
G01*
X74518000Y-87265500D01*
G75*
G02*
X74755500Y-87028000I237500J0D01*
G01*
X75330500Y-87028000D01*
G75*
G02*
X75568000Y-87265500I0J-237500D01*
G01*
G37*
G36*
G01*
X73818000Y-87265500D02*
X73818000Y-87740500D01*
G75*
G02*
X73580500Y-87978000I-237500J0D01*
G01*
X73005500Y-87978000D01*
G75*
G02*
X72768000Y-87740500I0J237500D01*
G01*
X72768000Y-87265500D01*
G75*
G02*
X73005500Y-87028000I237500J0D01*
G01*
X73580500Y-87028000D01*
G75*
G02*
X73818000Y-87265500I0J-237500D01*
G01*
G37*
%TD*%
%TO.C,D17*%
G36*
G01*
X73818000Y-83455500D02*
X73818000Y-83930500D01*
G75*
G02*
X73580500Y-84168000I-237500J0D01*
G01*
X73005500Y-84168000D01*
G75*
G02*
X72768000Y-83930500I0J237500D01*
G01*
X72768000Y-83455500D01*
G75*
G02*
X73005500Y-83218000I237500J0D01*
G01*
X73580500Y-83218000D01*
G75*
G02*
X73818000Y-83455500I0J-237500D01*
G01*
G37*
G36*
G01*
X75568000Y-83455500D02*
X75568000Y-83930500D01*
G75*
G02*
X75330500Y-84168000I-237500J0D01*
G01*
X74755500Y-84168000D01*
G75*
G02*
X74518000Y-83930500I0J237500D01*
G01*
X74518000Y-83455500D01*
G75*
G02*
X74755500Y-83218000I237500J0D01*
G01*
X75330500Y-83218000D01*
G75*
G02*
X75568000Y-83455500I0J-237500D01*
G01*
G37*
%TD*%
%TO.C,D18*%
G36*
G01*
X73804000Y-95647500D02*
X73804000Y-96122500D01*
G75*
G02*
X73566500Y-96360000I-237500J0D01*
G01*
X72991500Y-96360000D01*
G75*
G02*
X72754000Y-96122500I0J237500D01*
G01*
X72754000Y-95647500D01*
G75*
G02*
X72991500Y-95410000I237500J0D01*
G01*
X73566500Y-95410000D01*
G75*
G02*
X73804000Y-95647500I0J-237500D01*
G01*
G37*
G36*
G01*
X75554000Y-95647500D02*
X75554000Y-96122500D01*
G75*
G02*
X75316500Y-96360000I-237500J0D01*
G01*
X74741500Y-96360000D01*
G75*
G02*
X74504000Y-96122500I0J237500D01*
G01*
X74504000Y-95647500D01*
G75*
G02*
X74741500Y-95410000I237500J0D01*
G01*
X75316500Y-95410000D01*
G75*
G02*
X75554000Y-95647500I0J-237500D01*
G01*
G37*
%TD*%
%TO.C,D19*%
G36*
G01*
X75554000Y-99330500D02*
X75554000Y-99805500D01*
G75*
G02*
X75316500Y-100043000I-237500J0D01*
G01*
X74741500Y-100043000D01*
G75*
G02*
X74504000Y-99805500I0J237500D01*
G01*
X74504000Y-99330500D01*
G75*
G02*
X74741500Y-99093000I237500J0D01*
G01*
X75316500Y-99093000D01*
G75*
G02*
X75554000Y-99330500I0J-237500D01*
G01*
G37*
G36*
G01*
X73804000Y-99330500D02*
X73804000Y-99805500D01*
G75*
G02*
X73566500Y-100043000I-237500J0D01*
G01*
X72991500Y-100043000D01*
G75*
G02*
X72754000Y-99805500I0J237500D01*
G01*
X72754000Y-99330500D01*
G75*
G02*
X72991500Y-99093000I237500J0D01*
G01*
X73566500Y-99093000D01*
G75*
G02*
X73804000Y-99330500I0J-237500D01*
G01*
G37*
%TD*%
D14*
%TO.C,Q7*%
X49800000Y-60945000D03*
X49800000Y-62245000D03*
X51800000Y-61595000D03*
%TD*%
%TO.C,Q8*%
X51800000Y-52070000D03*
X49800000Y-52720000D03*
X49800000Y-51420000D03*
%TD*%
%TO.C,Q9*%
X49800000Y-55230000D03*
X49800000Y-56530000D03*
X51800000Y-55880000D03*
%TD*%
%TO.C,R7*%
G36*
G01*
X97787000Y-118855500D02*
X97787000Y-118380500D01*
G75*
G02*
X98024500Y-118143000I237500J0D01*
G01*
X98599500Y-118143000D01*
G75*
G02*
X98837000Y-118380500I0J-237500D01*
G01*
X98837000Y-118855500D01*
G75*
G02*
X98599500Y-119093000I-237500J0D01*
G01*
X98024500Y-119093000D01*
G75*
G02*
X97787000Y-118855500I0J237500D01*
G01*
G37*
G36*
G01*
X99537000Y-118855500D02*
X99537000Y-118380500D01*
G75*
G02*
X99774500Y-118143000I237500J0D01*
G01*
X100349500Y-118143000D01*
G75*
G02*
X100587000Y-118380500I0J-237500D01*
G01*
X100587000Y-118855500D01*
G75*
G02*
X100349500Y-119093000I-237500J0D01*
G01*
X99774500Y-119093000D01*
G75*
G02*
X99537000Y-118855500I0J237500D01*
G01*
G37*
%TD*%
%TO.C,R8*%
G36*
G01*
X97773000Y-115807500D02*
X97773000Y-115332500D01*
G75*
G02*
X98010500Y-115095000I237500J0D01*
G01*
X98585500Y-115095000D01*
G75*
G02*
X98823000Y-115332500I0J-237500D01*
G01*
X98823000Y-115807500D01*
G75*
G02*
X98585500Y-116045000I-237500J0D01*
G01*
X98010500Y-116045000D01*
G75*
G02*
X97773000Y-115807500I0J237500D01*
G01*
G37*
G36*
G01*
X99523000Y-115807500D02*
X99523000Y-115332500D01*
G75*
G02*
X99760500Y-115095000I237500J0D01*
G01*
X100335500Y-115095000D01*
G75*
G02*
X100573000Y-115332500I0J-237500D01*
G01*
X100573000Y-115807500D01*
G75*
G02*
X100335500Y-116045000I-237500J0D01*
G01*
X99760500Y-116045000D01*
G75*
G02*
X99523000Y-115807500I0J237500D01*
G01*
G37*
%TD*%
%TO.C,R9*%
G36*
G01*
X95854000Y-118855500D02*
X95854000Y-118380500D01*
G75*
G02*
X96091500Y-118143000I237500J0D01*
G01*
X96666500Y-118143000D01*
G75*
G02*
X96904000Y-118380500I0J-237500D01*
G01*
X96904000Y-118855500D01*
G75*
G02*
X96666500Y-119093000I-237500J0D01*
G01*
X96091500Y-119093000D01*
G75*
G02*
X95854000Y-118855500I0J237500D01*
G01*
G37*
G36*
G01*
X94104000Y-118855500D02*
X94104000Y-118380500D01*
G75*
G02*
X94341500Y-118143000I237500J0D01*
G01*
X94916500Y-118143000D01*
G75*
G02*
X95154000Y-118380500I0J-237500D01*
G01*
X95154000Y-118855500D01*
G75*
G02*
X94916500Y-119093000I-237500J0D01*
G01*
X94341500Y-119093000D01*
G75*
G02*
X94104000Y-118855500I0J237500D01*
G01*
G37*
%TD*%
%TO.C,R14*%
G36*
G01*
X95854000Y-115807500D02*
X95854000Y-115332500D01*
G75*
G02*
X96091500Y-115095000I237500J0D01*
G01*
X96666500Y-115095000D01*
G75*
G02*
X96904000Y-115332500I0J-237500D01*
G01*
X96904000Y-115807500D01*
G75*
G02*
X96666500Y-116045000I-237500J0D01*
G01*
X96091500Y-116045000D01*
G75*
G02*
X95854000Y-115807500I0J237500D01*
G01*
G37*
G36*
G01*
X94104000Y-115807500D02*
X94104000Y-115332500D01*
G75*
G02*
X94341500Y-115095000I237500J0D01*
G01*
X94916500Y-115095000D01*
G75*
G02*
X95154000Y-115332500I0J-237500D01*
G01*
X95154000Y-115807500D01*
G75*
G02*
X94916500Y-116045000I-237500J0D01*
G01*
X94341500Y-116045000D01*
G75*
G02*
X94104000Y-115807500I0J237500D01*
G01*
G37*
%TD*%
%TO.C,R17*%
G36*
G01*
X54960000Y-61324500D02*
X54960000Y-60849500D01*
G75*
G02*
X55197500Y-60612000I237500J0D01*
G01*
X55772500Y-60612000D01*
G75*
G02*
X56010000Y-60849500I0J-237500D01*
G01*
X56010000Y-61324500D01*
G75*
G02*
X55772500Y-61562000I-237500J0D01*
G01*
X55197500Y-61562000D01*
G75*
G02*
X54960000Y-61324500I0J237500D01*
G01*
G37*
G36*
G01*
X53210000Y-61324500D02*
X53210000Y-60849500D01*
G75*
G02*
X53447500Y-60612000I237500J0D01*
G01*
X54022500Y-60612000D01*
G75*
G02*
X54260000Y-60849500I0J-237500D01*
G01*
X54260000Y-61324500D01*
G75*
G02*
X54022500Y-61562000I-237500J0D01*
G01*
X53447500Y-61562000D01*
G75*
G02*
X53210000Y-61324500I0J237500D01*
G01*
G37*
%TD*%
%TO.C,R31*%
G36*
G01*
X54960000Y-56117500D02*
X54960000Y-55642500D01*
G75*
G02*
X55197500Y-55405000I237500J0D01*
G01*
X55772500Y-55405000D01*
G75*
G02*
X56010000Y-55642500I0J-237500D01*
G01*
X56010000Y-56117500D01*
G75*
G02*
X55772500Y-56355000I-237500J0D01*
G01*
X55197500Y-56355000D01*
G75*
G02*
X54960000Y-56117500I0J237500D01*
G01*
G37*
G36*
G01*
X53210000Y-56117500D02*
X53210000Y-55642500D01*
G75*
G02*
X53447500Y-55405000I237500J0D01*
G01*
X54022500Y-55405000D01*
G75*
G02*
X54260000Y-55642500I0J-237500D01*
G01*
X54260000Y-56117500D01*
G75*
G02*
X54022500Y-56355000I-237500J0D01*
G01*
X53447500Y-56355000D01*
G75*
G02*
X53210000Y-56117500I0J237500D01*
G01*
G37*
%TD*%
%TO.C,R38*%
G36*
G01*
X54960000Y-52307500D02*
X54960000Y-51832500D01*
G75*
G02*
X55197500Y-51595000I237500J0D01*
G01*
X55772500Y-51595000D01*
G75*
G02*
X56010000Y-51832500I0J-237500D01*
G01*
X56010000Y-52307500D01*
G75*
G02*
X55772500Y-52545000I-237500J0D01*
G01*
X55197500Y-52545000D01*
G75*
G02*
X54960000Y-52307500I0J237500D01*
G01*
G37*
G36*
G01*
X53210000Y-52307500D02*
X53210000Y-51832500D01*
G75*
G02*
X53447500Y-51595000I237500J0D01*
G01*
X54022500Y-51595000D01*
G75*
G02*
X54260000Y-51832500I0J-237500D01*
G01*
X54260000Y-52307500D01*
G75*
G02*
X54022500Y-52545000I-237500J0D01*
G01*
X53447500Y-52545000D01*
G75*
G02*
X53210000Y-52307500I0J237500D01*
G01*
G37*
%TD*%
%TO.C,R39*%
G36*
G01*
X57909000Y-61324500D02*
X57909000Y-60849500D01*
G75*
G02*
X58146500Y-60612000I237500J0D01*
G01*
X58721500Y-60612000D01*
G75*
G02*
X58959000Y-60849500I0J-237500D01*
G01*
X58959000Y-61324500D01*
G75*
G02*
X58721500Y-61562000I-237500J0D01*
G01*
X58146500Y-61562000D01*
G75*
G02*
X57909000Y-61324500I0J237500D01*
G01*
G37*
G36*
G01*
X59659000Y-61324500D02*
X59659000Y-60849500D01*
G75*
G02*
X59896500Y-60612000I237500J0D01*
G01*
X60471500Y-60612000D01*
G75*
G02*
X60709000Y-60849500I0J-237500D01*
G01*
X60709000Y-61324500D01*
G75*
G02*
X60471500Y-61562000I-237500J0D01*
G01*
X59896500Y-61562000D01*
G75*
G02*
X59659000Y-61324500I0J237500D01*
G01*
G37*
%TD*%
%TO.C,R40*%
G36*
G01*
X57895000Y-56117500D02*
X57895000Y-55642500D01*
G75*
G02*
X58132500Y-55405000I237500J0D01*
G01*
X58707500Y-55405000D01*
G75*
G02*
X58945000Y-55642500I0J-237500D01*
G01*
X58945000Y-56117500D01*
G75*
G02*
X58707500Y-56355000I-237500J0D01*
G01*
X58132500Y-56355000D01*
G75*
G02*
X57895000Y-56117500I0J237500D01*
G01*
G37*
G36*
G01*
X59645000Y-56117500D02*
X59645000Y-55642500D01*
G75*
G02*
X59882500Y-55405000I237500J0D01*
G01*
X60457500Y-55405000D01*
G75*
G02*
X60695000Y-55642500I0J-237500D01*
G01*
X60695000Y-56117500D01*
G75*
G02*
X60457500Y-56355000I-237500J0D01*
G01*
X59882500Y-56355000D01*
G75*
G02*
X59645000Y-56117500I0J237500D01*
G01*
G37*
%TD*%
%TO.C,R41*%
G36*
G01*
X57895000Y-52307500D02*
X57895000Y-51832500D01*
G75*
G02*
X58132500Y-51595000I237500J0D01*
G01*
X58707500Y-51595000D01*
G75*
G02*
X58945000Y-51832500I0J-237500D01*
G01*
X58945000Y-52307500D01*
G75*
G02*
X58707500Y-52545000I-237500J0D01*
G01*
X58132500Y-52545000D01*
G75*
G02*
X57895000Y-52307500I0J237500D01*
G01*
G37*
G36*
G01*
X59645000Y-52307500D02*
X59645000Y-51832500D01*
G75*
G02*
X59882500Y-51595000I237500J0D01*
G01*
X60457500Y-51595000D01*
G75*
G02*
X60695000Y-51832500I0J-237500D01*
G01*
X60695000Y-52307500D01*
G75*
G02*
X60457500Y-52545000I-237500J0D01*
G01*
X59882500Y-52545000D01*
G75*
G02*
X59645000Y-52307500I0J237500D01*
G01*
G37*
%TD*%
%TO.C,R42*%
G36*
G01*
X37750000Y-51832500D02*
X37750000Y-52307500D01*
G75*
G02*
X37512500Y-52545000I-237500J0D01*
G01*
X36937500Y-52545000D01*
G75*
G02*
X36700000Y-52307500I0J237500D01*
G01*
X36700000Y-51832500D01*
G75*
G02*
X36937500Y-51595000I237500J0D01*
G01*
X37512500Y-51595000D01*
G75*
G02*
X37750000Y-51832500I0J-237500D01*
G01*
G37*
G36*
G01*
X39500000Y-51832500D02*
X39500000Y-52307500D01*
G75*
G02*
X39262500Y-52545000I-237500J0D01*
G01*
X38687500Y-52545000D01*
G75*
G02*
X38450000Y-52307500I0J237500D01*
G01*
X38450000Y-51832500D01*
G75*
G02*
X38687500Y-51595000I237500J0D01*
G01*
X39262500Y-51595000D01*
G75*
G02*
X39500000Y-51832500I0J-237500D01*
G01*
G37*
%TD*%
%TO.C,R43*%
G36*
G01*
X39500000Y-55642500D02*
X39500000Y-56117500D01*
G75*
G02*
X39262500Y-56355000I-237500J0D01*
G01*
X38687500Y-56355000D01*
G75*
G02*
X38450000Y-56117500I0J237500D01*
G01*
X38450000Y-55642500D01*
G75*
G02*
X38687500Y-55405000I237500J0D01*
G01*
X39262500Y-55405000D01*
G75*
G02*
X39500000Y-55642500I0J-237500D01*
G01*
G37*
G36*
G01*
X37750000Y-55642500D02*
X37750000Y-56117500D01*
G75*
G02*
X37512500Y-56355000I-237500J0D01*
G01*
X36937500Y-56355000D01*
G75*
G02*
X36700000Y-56117500I0J237500D01*
G01*
X36700000Y-55642500D01*
G75*
G02*
X36937500Y-55405000I237500J0D01*
G01*
X37512500Y-55405000D01*
G75*
G02*
X37750000Y-55642500I0J-237500D01*
G01*
G37*
%TD*%
%TO.C,R1*%
G36*
G01*
X59325500Y-117218000D02*
X59800500Y-117218000D01*
G75*
G02*
X60038000Y-117455500I0J-237500D01*
G01*
X60038000Y-118030500D01*
G75*
G02*
X59800500Y-118268000I-237500J0D01*
G01*
X59325500Y-118268000D01*
G75*
G02*
X59088000Y-118030500I0J237500D01*
G01*
X59088000Y-117455500D01*
G75*
G02*
X59325500Y-117218000I237500J0D01*
G01*
G37*
G36*
G01*
X59325500Y-118968000D02*
X59800500Y-118968000D01*
G75*
G02*
X60038000Y-119205500I0J-237500D01*
G01*
X60038000Y-119780500D01*
G75*
G02*
X59800500Y-120018000I-237500J0D01*
G01*
X59325500Y-120018000D01*
G75*
G02*
X59088000Y-119780500I0J237500D01*
G01*
X59088000Y-119205500D01*
G75*
G02*
X59325500Y-118968000I237500J0D01*
G01*
G37*
%TD*%
M02*
