M48
; DRILL file {KiCad (5.1.10)-1} date 03/12/22 01:19:28
; FORMAT={-:-/ absolute / inch / decimal}
; #@! TF.CreationDate,2022-03-12T01:19:28-06:00
; #@! TF.GenerationSoftware,Kicad,Pcbnew,(5.1.10)-1
; #@! TF.FileFunction,NonPlated,1,2,NPTH
FMAT,2
INCH
T1C0.1160
T2C0.1358
%
G90
G05
T1
X2.06Y-1.76
X2.06Y-6.44
X4.74Y-1.76
X4.74Y-6.44
T2
X2.45Y-6.78
X2.85Y-6.78
X3.05Y-6.79
X3.55Y-6.79
X3.76Y-6.79
X4.16Y-6.79
X5.065Y-2.635
X5.065Y-3.025
X5.065Y-3.415
X5.065Y-3.805
X5.065Y-4.19
X5.065Y-4.58
X5.065Y-5.065
X5.065Y-5.445
X5.065Y-5.75
X5.065Y-6.15
X5.0652Y-2.4449
X5.0652Y-2.8349
X5.0652Y-3.2249
X5.0652Y-3.6149
X5.0652Y-3.9999
X5.0652Y-4.3899
X5.0652Y-4.8749
X5.0652Y-5.2549
T0
M30
