M48
; DRILL file {KiCad (5.1.6)-1} date 11/17/21 19:09:53
; FORMAT={-:-/ absolute / inch / decimal}
; #@! TF.CreationDate,2021-11-17T19:09:53-06:00
; #@! TF.GenerationSoftware,Kicad,Pcbnew,(5.1.6)-1
; #@! TF.FileFunction,NonPlated,1,2,NPTH
FMAT,2
INCH
T1C0.1358
%
G90
G05
T1
X0.6898Y-3.1351
X0.69Y-2.945
X0.6898Y-2.0251
X0.69Y-1.835
X0.6898Y-2.7751
X0.69Y-2.585
X0.6898Y-1.2751
X0.69Y-1.085
X0.71Y-4.55
X0.71Y-4.95
X0.71Y-3.95
X0.71Y-4.35
X0.7Y-5.15
X0.7Y-5.45
X0.71Y-3.35
X0.71Y-3.75
X0.6898Y-2.3851
X0.69Y-2.195
X1.5049Y-0.3898
X1.695Y-0.39
X0.6898Y-1.6351
X0.69Y-1.445
X1.1149Y-0.3898
X1.305Y-0.39
T0
M30
