G04 #@! TF.GenerationSoftware,KiCad,Pcbnew,(5.1.4)-1*
G04 #@! TF.CreationDate,2019-11-21T10:54:43-06:00*
G04 #@! TF.ProjectId,SRA_Sensor_Board,5352415f-5365-46e7-936f-725f426f6172,rev?*
G04 #@! TF.SameCoordinates,Original*
G04 #@! TF.FileFunction,Copper,L2,Bot*
G04 #@! TF.FilePolarity,Positive*
%FSLAX46Y46*%
G04 Gerber Fmt 4.6, Leading zero omitted, Abs format (unit mm)*
G04 Created by KiCad (PCBNEW (5.1.4)-1) date 2019-11-21 10:54:43*
%MOMM*%
%LPD*%
G04 APERTURE LIST*
%ADD10C,1.520000*%
%ADD11C,1.524000*%
%ADD12O,1.900000X1.200000*%
%ADD13C,1.450000*%
%ADD14C,5.080000*%
%ADD15C,0.800000*%
%ADD16C,0.250000*%
%ADD17C,0.381000*%
%ADD18C,0.254000*%
G04 APERTURE END LIST*
D10*
X127000000Y-92456000D03*
X149860000Y-46736000D03*
X147320000Y-46736000D03*
X139700000Y-46736000D03*
X137160000Y-89916000D03*
X142240000Y-46736000D03*
X144780000Y-46736000D03*
X142240000Y-92456000D03*
X147320000Y-89916000D03*
X137160000Y-46736000D03*
X134620000Y-46736000D03*
X147320000Y-92456000D03*
X142240000Y-89916000D03*
X139700000Y-89916000D03*
X127000000Y-89916000D03*
X129540000Y-89916000D03*
X132080000Y-89916000D03*
X134620000Y-89916000D03*
X144780000Y-89916000D03*
X149860000Y-89916000D03*
X129540000Y-92456000D03*
X132080000Y-92456000D03*
X134620000Y-92456000D03*
X137160000Y-92456000D03*
X139700000Y-92456000D03*
X144780000Y-92456000D03*
X149860000Y-92456000D03*
X127000000Y-49276000D03*
X129540000Y-49276000D03*
X132080000Y-49276000D03*
X134620000Y-49276000D03*
X137160000Y-49276000D03*
X139700000Y-49276000D03*
X142240000Y-49276000D03*
X144780000Y-49276000D03*
X147320000Y-49276000D03*
X149860000Y-49276000D03*
X127000000Y-46736000D03*
X129540000Y-46736000D03*
X132080000Y-46736000D03*
X63500000Y-89916000D03*
X66040000Y-89916000D03*
X68580000Y-89916000D03*
X71120000Y-89916000D03*
X73660000Y-89916000D03*
X76200000Y-89916000D03*
X78740000Y-89916000D03*
X81280000Y-89916000D03*
X83820000Y-89916000D03*
X86360000Y-89916000D03*
X63500000Y-92456000D03*
X66040000Y-92456000D03*
X68580000Y-92456000D03*
X71120000Y-92456000D03*
X73660000Y-92456000D03*
X76200000Y-92456000D03*
X78740000Y-92456000D03*
X81280000Y-92456000D03*
X83820000Y-92456000D03*
X86360000Y-92456000D03*
X63500000Y-49276000D03*
X66040000Y-49276000D03*
X68580000Y-49276000D03*
X71120000Y-49276000D03*
X73660000Y-49276000D03*
X76200000Y-49276000D03*
X78740000Y-49276000D03*
X81280000Y-49276000D03*
X83820000Y-49276000D03*
X86360000Y-49276000D03*
X63500000Y-46736000D03*
X66040000Y-46736000D03*
X68580000Y-46736000D03*
X71120000Y-46736000D03*
X73660000Y-46736000D03*
X76200000Y-46736000D03*
X78740000Y-46736000D03*
X81280000Y-46736000D03*
X83820000Y-46736000D03*
X86360000Y-46736000D03*
D11*
X66040000Y-80010000D03*
X68580000Y-80010000D03*
X71120000Y-80010000D03*
X73660000Y-80010000D03*
X76200000Y-80010000D03*
X107950000Y-53340000D03*
X110490000Y-53340000D03*
X113030000Y-53340000D03*
X95250000Y-53340000D03*
X97790000Y-53340000D03*
X100330000Y-53340000D03*
D12*
X185166000Y-58730000D03*
X185166000Y-65730000D03*
D13*
X182466000Y-59730000D03*
X182466000Y-64730000D03*
D11*
X130048000Y-58420000D03*
X130048000Y-60960000D03*
X116078000Y-68834000D03*
X116078000Y-68834000D03*
X118618000Y-68834000D03*
X121158000Y-68834000D03*
X123698000Y-68834000D03*
D14*
X167614600Y-50800000D03*
X167614600Y-42926000D03*
D11*
X116078000Y-77724000D03*
X116078000Y-77724000D03*
X118618000Y-77724000D03*
X121158000Y-77724000D03*
X123698000Y-77724000D03*
D15*
X142240000Y-58420000D03*
X153670000Y-67310000D03*
X148590000Y-63500000D03*
X156210000Y-62230000D03*
X135890000Y-68580000D03*
X101828600Y-84048600D03*
X153670000Y-54610000D03*
X62865000Y-74320400D03*
X77114400Y-69596000D03*
X78968600Y-40817800D03*
X94411800Y-60274200D03*
X73660000Y-56032400D03*
X74879200Y-87503000D03*
X66243200Y-87477600D03*
X144119600Y-86385400D03*
X139395200Y-86385400D03*
X106680000Y-85090000D03*
X106680000Y-72644000D03*
X106680000Y-65252600D03*
X72771000Y-59055000D03*
X72771000Y-76200000D03*
X108813600Y-63500000D03*
X108813600Y-61798200D03*
X130048000Y-70739000D03*
X73685400Y-53213000D03*
X133096000Y-87744300D03*
X119888000Y-81534000D03*
X108051600Y-75082400D03*
X108026200Y-66598800D03*
X90601800Y-55702200D03*
X122428000Y-81534000D03*
X110286800Y-74955400D03*
X110286800Y-66548000D03*
X90601800Y-52832000D03*
X72440800Y-84328000D03*
X104911501Y-67427499D03*
X104902000Y-61899800D03*
X88900000Y-58597800D03*
X69850000Y-85090000D03*
X90525600Y-68376800D03*
X90525600Y-66522600D03*
X90119200Y-63550800D03*
X95250000Y-71120000D03*
X92684600Y-68376800D03*
X114300000Y-86360000D03*
X89662000Y-86334600D03*
X73990200Y-86334600D03*
X67564000Y-86334600D03*
X127787400Y-85090000D03*
X127787400Y-81483200D03*
X117881400Y-62661800D03*
X112115600Y-62661800D03*
X106146600Y-58775600D03*
X103657400Y-58775600D03*
X79095600Y-74599800D03*
X92125800Y-74599800D03*
X102590600Y-72034400D03*
X79121000Y-75819000D03*
X92151200Y-75793600D03*
X103632000Y-72313800D03*
X179070000Y-60960000D03*
X172720000Y-62230000D03*
X96520000Y-90170000D03*
X177800000Y-63500000D03*
X148590000Y-69850000D03*
X157480000Y-60960000D03*
X85331300Y-85229700D03*
X84404200Y-85572600D03*
X124300401Y-91370999D03*
X86055200Y-84683600D03*
X74574400Y-67538600D03*
X78333600Y-73660000D03*
X107696000Y-88290400D03*
X107696000Y-77139800D03*
X90449400Y-64744600D03*
X94234000Y-66548000D03*
X93091000Y-80645000D03*
X93091000Y-76758800D03*
X90347800Y-70713600D03*
X111836200Y-69291200D03*
D16*
X98976610Y-51986610D02*
X77705790Y-51986610D01*
X100330000Y-53340000D02*
X98976610Y-51986610D01*
X77705790Y-51986610D02*
X73660000Y-56032400D01*
X73660000Y-56032400D02*
X73660000Y-56032400D01*
X74853800Y-87477600D02*
X74879200Y-87503000D01*
X66243200Y-87477600D02*
X74853800Y-87477600D01*
X139395200Y-86385400D02*
X144119600Y-86385400D01*
D17*
X93980000Y-63500000D02*
X92710000Y-63500000D01*
X93980000Y-63500000D02*
X100330000Y-63500000D01*
X100330000Y-63500000D02*
X101600000Y-63500000D01*
D16*
X106680000Y-85090000D02*
X106680000Y-84524315D01*
D17*
X106680000Y-84524315D02*
X106680000Y-72644000D01*
D16*
X106680000Y-72644000D02*
X106680000Y-72644000D01*
X64770000Y-91186000D02*
X63500000Y-92456000D01*
X72771000Y-59055000D02*
X72771000Y-59055000D01*
X73609200Y-82600800D02*
X69926200Y-82600800D01*
X76200000Y-80010000D02*
X73609200Y-82600800D01*
X64770000Y-87757000D02*
X64770000Y-91186000D01*
X69926200Y-82600800D02*
X64770000Y-87757000D01*
X72771000Y-76200000D02*
X72771000Y-76200000D01*
X92710000Y-63500000D02*
X91592400Y-63500000D01*
X91592400Y-63500000D02*
X90703400Y-62611000D01*
X86055200Y-62611000D02*
X85039200Y-63627000D01*
X90703400Y-62611000D02*
X86055200Y-62611000D01*
X85166200Y-63500000D02*
X85039200Y-63627000D01*
X72771000Y-76200000D02*
X72771000Y-59055000D01*
X77647800Y-80010000D02*
X76200000Y-80010000D01*
X80010000Y-77647800D02*
X77647800Y-80010000D01*
X85039200Y-63627000D02*
X80010000Y-68656200D01*
X80010000Y-68656200D02*
X80010000Y-77647800D01*
X108813600Y-63500000D02*
X108813600Y-62934315D01*
X108813600Y-62934315D02*
X108813600Y-61798200D01*
X108813600Y-61798200D02*
X108813600Y-61798200D01*
X103352600Y-65252600D02*
X101600000Y-63500000D01*
X106680000Y-65252600D02*
X103352600Y-65252600D01*
X73685400Y-53213000D02*
X73685400Y-53213000D01*
X75361800Y-51536600D02*
X73685400Y-53213000D01*
X90627200Y-51536600D02*
X75361800Y-51536600D01*
X114554000Y-47117000D02*
X95046800Y-47117000D01*
X128473200Y-70739000D02*
X120192800Y-62458600D01*
X130048000Y-70739000D02*
X128473200Y-70739000D01*
X95046800Y-47117000D02*
X90627200Y-51536600D01*
X120192800Y-62458600D02*
X120192800Y-52781200D01*
X120192800Y-52781200D02*
X116840000Y-49428400D01*
X116840000Y-49428400D02*
X116840000Y-49403000D01*
X116840000Y-49403000D02*
X114554000Y-47117000D01*
D17*
X126103499Y-87749499D02*
X119888000Y-81534000D01*
D16*
X130116241Y-87749499D02*
X126103499Y-87749499D01*
X130121440Y-87744300D02*
X133096000Y-87744300D01*
X130116241Y-87749499D02*
X130121440Y-87744300D01*
X116078000Y-77724000D02*
X110693200Y-77724000D01*
X110693200Y-77724000D02*
X108051600Y-75082400D01*
X108051600Y-75082400D02*
X108051600Y-75082400D01*
X108026200Y-66598800D02*
X108026200Y-59283600D01*
X108026200Y-59283600D02*
X106324400Y-57581800D01*
X106324400Y-57581800D02*
X92481400Y-57581800D01*
X92481400Y-57581800D02*
X90601800Y-55702200D01*
X90601800Y-55702200D02*
X90601800Y-55702200D01*
D17*
X127278000Y-86384000D02*
X122428000Y-81534000D01*
D16*
X133628000Y-86384000D02*
X137160000Y-89916000D01*
X127278000Y-86384000D02*
X133628000Y-86384000D01*
X118618000Y-77724000D02*
X115849400Y-74955400D01*
X115849400Y-74955400D02*
X110286800Y-74955400D01*
X110286800Y-74955400D02*
X110286800Y-74955400D01*
X110286800Y-65982315D02*
X110261400Y-65956915D01*
X110286800Y-66548000D02*
X110286800Y-65982315D01*
X110261400Y-65956915D02*
X110261400Y-58877200D01*
X110261400Y-58877200D02*
X107543600Y-56159400D01*
X107543600Y-56159400D02*
X93929200Y-56159400D01*
X93929200Y-56159400D02*
X90601800Y-52832000D01*
X90601800Y-52832000D02*
X90601800Y-52832000D01*
D17*
X102752501Y-67427499D02*
X91609499Y-67427499D01*
X119751499Y-67427499D02*
X121158000Y-68834000D01*
X102752501Y-67427499D02*
X104911501Y-67427499D01*
D16*
X72840799Y-83928001D02*
X72440800Y-84328000D01*
X74872799Y-83928001D02*
X72840799Y-83928001D01*
X80848200Y-77952600D02*
X74872799Y-83928001D01*
X80848200Y-69494400D02*
X80848200Y-77952600D01*
X91609499Y-67427499D02*
X82915101Y-67427499D01*
X82915101Y-67427499D02*
X80848200Y-69494400D01*
D17*
X104911501Y-67427499D02*
X119751499Y-67427499D01*
D16*
X104902000Y-61334115D02*
X102165685Y-58597800D01*
X104902000Y-61899800D02*
X104902000Y-61334115D01*
X102165685Y-58597800D02*
X88900000Y-58597800D01*
X88900000Y-58597800D02*
X88900000Y-58597800D01*
D17*
X95250000Y-71120000D02*
X95250000Y-71120000D01*
X121412000Y-71120000D02*
X123698000Y-68834000D01*
X104974298Y-71120000D02*
X121412000Y-71120000D01*
D16*
X77470000Y-85090000D02*
X69850000Y-85090000D01*
X69850000Y-85090000D02*
X69850000Y-85090000D01*
X81762600Y-80797400D02*
X77470000Y-85090000D01*
D17*
X103276400Y-71120000D02*
X104974298Y-71120000D01*
D16*
X81762600Y-80797400D02*
X81762600Y-73456800D01*
X81762600Y-73456800D02*
X82956400Y-72263000D01*
X94107000Y-72263000D02*
X95250000Y-71120000D01*
X82956400Y-72263000D02*
X94107000Y-72263000D01*
X92684600Y-68376800D02*
X92684600Y-68376800D01*
X90525600Y-68376800D02*
X90525600Y-68376800D01*
X89724399Y-65092601D02*
X89724399Y-63945601D01*
X90525600Y-66522600D02*
X90525600Y-65893802D01*
X90525600Y-65893802D02*
X89724399Y-65092601D01*
X89724399Y-63945601D02*
X90119200Y-63550800D01*
X90119200Y-63550800D02*
X90119200Y-63550800D01*
D17*
X95250000Y-71120000D02*
X103276400Y-71120000D01*
D16*
X92684600Y-68376800D02*
X90525600Y-68376800D01*
D17*
X109220000Y-91440000D02*
X95250000Y-91440000D01*
X114300000Y-86360000D02*
X109220000Y-91440000D01*
D16*
X95250000Y-91440000D02*
X94767400Y-91440000D01*
X94767400Y-91440000D02*
X89662000Y-86334600D01*
X89662000Y-86334600D02*
X89662000Y-86334600D01*
X73990200Y-86334600D02*
X67564000Y-86334600D01*
X67564000Y-86334600D02*
X67564000Y-86334600D01*
X127787400Y-85090000D02*
X127787400Y-81483200D01*
X127787400Y-81483200D02*
X127787400Y-81483200D01*
X117881400Y-62661800D02*
X117315715Y-62661800D01*
X117315715Y-62661800D02*
X112420400Y-62661800D01*
X112420400Y-62661800D02*
X112115600Y-62661800D01*
X112115600Y-62661800D02*
X112115600Y-62661800D01*
X106146600Y-58775600D02*
X103657400Y-58775600D01*
X103657400Y-58775600D02*
X103657400Y-58775600D01*
X71120000Y-80010000D02*
X76530200Y-74599800D01*
X76530200Y-74599800D02*
X79095600Y-74599800D01*
X79095600Y-74599800D02*
X79095600Y-74599800D01*
X92525799Y-74199801D02*
X100425199Y-74199801D01*
X92125800Y-74599800D02*
X92525799Y-74199801D01*
X100425199Y-74199801D02*
X102590600Y-72034400D01*
X102590600Y-72034400D02*
X102590600Y-72034400D01*
X73660000Y-80010000D02*
X77851000Y-75819000D01*
X77851000Y-75819000D02*
X79121000Y-75819000D01*
X79121000Y-75819000D02*
X79121000Y-75819000D01*
X103632000Y-72313800D02*
X103632000Y-72313800D01*
X92151200Y-75793600D02*
X100152200Y-75793600D01*
X100152200Y-75793600D02*
X103632000Y-72313800D01*
D17*
X173990000Y-60960000D02*
X172720000Y-62230000D01*
X179070000Y-60960000D02*
X173990000Y-60960000D01*
X96520000Y-90170000D02*
X102970058Y-90170000D01*
X165100000Y-63500000D02*
X177800000Y-63500000D01*
X148590000Y-80010000D02*
X165100000Y-63500000D01*
X102970058Y-90170000D02*
X107950000Y-90170000D01*
X111760000Y-83820000D02*
X111760000Y-86360000D01*
X107950000Y-90170000D02*
X111760000Y-86360000D01*
D16*
X115570000Y-80010000D02*
X111760000Y-83820000D01*
X148590000Y-80010000D02*
X115570000Y-80010000D01*
D17*
X157480000Y-61525685D02*
X157480000Y-60960000D01*
X157480000Y-62129942D02*
X157480000Y-61525685D01*
X149759942Y-69850000D02*
X157480000Y-62129942D01*
X148590000Y-69850000D02*
X149759942Y-69850000D01*
D16*
X125646601Y-91370999D02*
X123926609Y-93090991D01*
X147320000Y-92456000D02*
X146234999Y-91370999D01*
X146234999Y-91370999D02*
X125646601Y-91370999D01*
X93192600Y-93091000D02*
X85331300Y-85229700D01*
X85331300Y-85229700D02*
X85318600Y-85217000D01*
X94132382Y-93091000D02*
X93192600Y-93091000D01*
X94132391Y-93090991D02*
X94132382Y-93091000D01*
X123926609Y-93090991D02*
X94132391Y-93090991D01*
X143694999Y-93541001D02*
X92372601Y-93541001D01*
X144780000Y-92456000D02*
X143694999Y-93541001D01*
X92372601Y-93541001D02*
X84404200Y-85572600D01*
X84404200Y-85572600D02*
X84404200Y-85572600D01*
X86055200Y-84683600D02*
X86055200Y-84683600D01*
X123068519Y-92602881D02*
X124300401Y-91370999D01*
X86055200Y-84683600D02*
X93974481Y-92602881D01*
X93974481Y-92602881D02*
X123068519Y-92602881D01*
X74574400Y-71958200D02*
X74574400Y-67538600D01*
X74574400Y-67538600D02*
X74574400Y-67538600D01*
X75876201Y-73260001D02*
X74574400Y-71958200D01*
X77933601Y-73260001D02*
X75876201Y-73260001D01*
X78333600Y-73660000D02*
X77933601Y-73260001D01*
X107696000Y-88290400D02*
X107696000Y-77139800D01*
X107696000Y-77139800D02*
X107696000Y-77139800D01*
X90449400Y-64744600D02*
X90449400Y-64744600D01*
X92252800Y-66548000D02*
X90449400Y-64744600D01*
X94234000Y-66548000D02*
X92252800Y-66548000D01*
X93091000Y-80079315D02*
X93091000Y-76758800D01*
X93091000Y-80645000D02*
X93091000Y-80079315D01*
X90913485Y-70713600D02*
X92335885Y-69291200D01*
X90347800Y-70713600D02*
X90913485Y-70713600D01*
X92335885Y-69291200D02*
X111836200Y-69291200D01*
X111836200Y-69291200D02*
X111836200Y-69291200D01*
D18*
G36*
X186030000Y-39000985D02*
G01*
X186030001Y-57605769D01*
X185881496Y-57543507D01*
X185643000Y-57495000D01*
X185293000Y-57495000D01*
X185293000Y-58603000D01*
X185313000Y-58603000D01*
X185313000Y-58857000D01*
X185293000Y-58857000D01*
X185293000Y-59965000D01*
X185643000Y-59965000D01*
X185881496Y-59916493D01*
X186030001Y-59854231D01*
X186030001Y-64605769D01*
X185881496Y-64543507D01*
X185643000Y-64495000D01*
X185293000Y-64495000D01*
X185293000Y-65603000D01*
X185313000Y-65603000D01*
X185313000Y-65857000D01*
X185293000Y-65857000D01*
X185293000Y-66965000D01*
X185643000Y-66965000D01*
X185881496Y-66916493D01*
X186030001Y-66854231D01*
X186030001Y-70513292D01*
X169194890Y-70688207D01*
X169170140Y-70690904D01*
X169146392Y-70698379D01*
X169124558Y-70710342D01*
X169105478Y-70726335D01*
X169089885Y-70745743D01*
X169078378Y-70767821D01*
X169071399Y-70791719D01*
X169069209Y-70815200D01*
X169069209Y-72746000D01*
X168942419Y-72746000D01*
X168910000Y-72742807D01*
X168780617Y-72755550D01*
X168656207Y-72793290D01*
X168541550Y-72854575D01*
X168441052Y-72937052D01*
X168358575Y-73037550D01*
X168297290Y-73152207D01*
X168259550Y-73276617D01*
X168246807Y-73406000D01*
X168250000Y-73438419D01*
X168250001Y-94201571D01*
X168246807Y-94234000D01*
X168259550Y-94363383D01*
X168297290Y-94487793D01*
X168358575Y-94602450D01*
X168441052Y-94702948D01*
X168541550Y-94785425D01*
X168656207Y-94846710D01*
X168780617Y-94884450D01*
X168877581Y-94894000D01*
X168910000Y-94897193D01*
X168942419Y-94894000D01*
X169069209Y-94894000D01*
X169069209Y-96215200D01*
X169071649Y-96239976D01*
X169078876Y-96263801D01*
X169090612Y-96285757D01*
X169106406Y-96305003D01*
X169125652Y-96320797D01*
X169147608Y-96332533D01*
X169171433Y-96339760D01*
X169196209Y-96342200D01*
X184309209Y-96342200D01*
X184309209Y-105190425D01*
X184221068Y-105359022D01*
X184198656Y-105414494D01*
X184175478Y-105469632D01*
X184172815Y-105478454D01*
X184060845Y-105858896D01*
X184049645Y-105917612D01*
X184037607Y-105976254D01*
X184036708Y-105985425D01*
X184000766Y-106380370D01*
X184001184Y-106440186D01*
X184000766Y-106500003D01*
X184001665Y-106509174D01*
X184043118Y-106903577D01*
X184055148Y-106962183D01*
X184066355Y-107020935D01*
X184069019Y-107029757D01*
X184186290Y-107408599D01*
X184209474Y-107463750D01*
X184231880Y-107519208D01*
X184236206Y-107527345D01*
X184309209Y-107662361D01*
X184309209Y-117678200D01*
X63913209Y-117678200D01*
X63913209Y-110215180D01*
X65169801Y-107701996D01*
X65178699Y-107678744D01*
X65183209Y-107645200D01*
X65183209Y-105105200D01*
X65180769Y-105080424D01*
X65173542Y-105056599D01*
X65161806Y-105034643D01*
X65146012Y-105015397D01*
X62890000Y-102759385D01*
X62890000Y-93713267D01*
X63093093Y-93797391D01*
X63362604Y-93851000D01*
X63637396Y-93851000D01*
X63906907Y-93797391D01*
X64160780Y-93692233D01*
X64389261Y-93539567D01*
X64583567Y-93345261D01*
X64736233Y-93116780D01*
X64770000Y-93035260D01*
X64803767Y-93116780D01*
X64956433Y-93345261D01*
X65150739Y-93539567D01*
X65379220Y-93692233D01*
X65633093Y-93797391D01*
X65902604Y-93851000D01*
X66177396Y-93851000D01*
X66446907Y-93797391D01*
X66700780Y-93692233D01*
X66929261Y-93539567D01*
X67123567Y-93345261D01*
X67276233Y-93116780D01*
X67310000Y-93035260D01*
X67343767Y-93116780D01*
X67496433Y-93345261D01*
X67690739Y-93539567D01*
X67919220Y-93692233D01*
X68173093Y-93797391D01*
X68442604Y-93851000D01*
X68717396Y-93851000D01*
X68986907Y-93797391D01*
X69240780Y-93692233D01*
X69469261Y-93539567D01*
X69663567Y-93345261D01*
X69816233Y-93116780D01*
X69850000Y-93035260D01*
X69883767Y-93116780D01*
X70036433Y-93345261D01*
X70230739Y-93539567D01*
X70459220Y-93692233D01*
X70713093Y-93797391D01*
X70982604Y-93851000D01*
X71257396Y-93851000D01*
X71526907Y-93797391D01*
X71780780Y-93692233D01*
X72009261Y-93539567D01*
X72203567Y-93345261D01*
X72356233Y-93116780D01*
X72390000Y-93035260D01*
X72423767Y-93116780D01*
X72576433Y-93345261D01*
X72770739Y-93539567D01*
X72999220Y-93692233D01*
X73253093Y-93797391D01*
X73522604Y-93851000D01*
X73797396Y-93851000D01*
X74066907Y-93797391D01*
X74320780Y-93692233D01*
X74549261Y-93539567D01*
X74743567Y-93345261D01*
X74896233Y-93116780D01*
X74930000Y-93035260D01*
X74963767Y-93116780D01*
X75116433Y-93345261D01*
X75310739Y-93539567D01*
X75539220Y-93692233D01*
X75793093Y-93797391D01*
X76062604Y-93851000D01*
X76337396Y-93851000D01*
X76606907Y-93797391D01*
X76860780Y-93692233D01*
X77089261Y-93539567D01*
X77283567Y-93345261D01*
X77436233Y-93116780D01*
X77470000Y-93035260D01*
X77503767Y-93116780D01*
X77656433Y-93345261D01*
X77850739Y-93539567D01*
X78079220Y-93692233D01*
X78333093Y-93797391D01*
X78602604Y-93851000D01*
X78877396Y-93851000D01*
X79146907Y-93797391D01*
X79400780Y-93692233D01*
X79629261Y-93539567D01*
X79823567Y-93345261D01*
X79976233Y-93116780D01*
X80010000Y-93035260D01*
X80043767Y-93116780D01*
X80196433Y-93345261D01*
X80390739Y-93539567D01*
X80619220Y-93692233D01*
X80873093Y-93797391D01*
X81142604Y-93851000D01*
X81417396Y-93851000D01*
X81686907Y-93797391D01*
X81940780Y-93692233D01*
X82169261Y-93539567D01*
X82363567Y-93345261D01*
X82516233Y-93116780D01*
X82550000Y-93035260D01*
X82583767Y-93116780D01*
X82736433Y-93345261D01*
X82930739Y-93539567D01*
X83159220Y-93692233D01*
X83413093Y-93797391D01*
X83682604Y-93851000D01*
X83957396Y-93851000D01*
X84226907Y-93797391D01*
X84480780Y-93692233D01*
X84709261Y-93539567D01*
X84903567Y-93345261D01*
X85056233Y-93116780D01*
X85090000Y-93035260D01*
X85123767Y-93116780D01*
X85276433Y-93345261D01*
X85470739Y-93539567D01*
X85699220Y-93692233D01*
X85953093Y-93797391D01*
X86222604Y-93851000D01*
X86497396Y-93851000D01*
X86766907Y-93797391D01*
X87020780Y-93692233D01*
X87249261Y-93539567D01*
X87443567Y-93345261D01*
X87596233Y-93116780D01*
X87701391Y-92862907D01*
X87755000Y-92593396D01*
X87755000Y-92318604D01*
X87701391Y-92049093D01*
X87596233Y-91795220D01*
X87443567Y-91566739D01*
X87249261Y-91372433D01*
X87020780Y-91219767D01*
X86939260Y-91186000D01*
X87020780Y-91152233D01*
X87249261Y-90999567D01*
X87443567Y-90805261D01*
X87596233Y-90576780D01*
X87701391Y-90322907D01*
X87755000Y-90053396D01*
X87755000Y-89998201D01*
X91808802Y-94052004D01*
X91832600Y-94081002D01*
X91948325Y-94175975D01*
X92080354Y-94246547D01*
X92223615Y-94290004D01*
X92335268Y-94301001D01*
X92335276Y-94301001D01*
X92372601Y-94304677D01*
X92409926Y-94301001D01*
X143657677Y-94301001D01*
X143694999Y-94304677D01*
X143732321Y-94301001D01*
X143732332Y-94301001D01*
X143843985Y-94290004D01*
X143987246Y-94246547D01*
X144119275Y-94175975D01*
X144235000Y-94081002D01*
X144258803Y-94051999D01*
X144490130Y-93820671D01*
X144642604Y-93851000D01*
X144917396Y-93851000D01*
X145186907Y-93797391D01*
X145440780Y-93692233D01*
X145669261Y-93539567D01*
X145863567Y-93345261D01*
X146016233Y-93116780D01*
X146050000Y-93035260D01*
X146083767Y-93116780D01*
X146236433Y-93345261D01*
X146430739Y-93539567D01*
X146659220Y-93692233D01*
X146913093Y-93797391D01*
X147182604Y-93851000D01*
X147457396Y-93851000D01*
X147726907Y-93797391D01*
X147980780Y-93692233D01*
X148209261Y-93539567D01*
X148403567Y-93345261D01*
X148556233Y-93116780D01*
X148590000Y-93035260D01*
X148623767Y-93116780D01*
X148776433Y-93345261D01*
X148970739Y-93539567D01*
X149199220Y-93692233D01*
X149453093Y-93797391D01*
X149722604Y-93851000D01*
X149997396Y-93851000D01*
X150266907Y-93797391D01*
X150520780Y-93692233D01*
X150749261Y-93539567D01*
X150943567Y-93345261D01*
X151096233Y-93116780D01*
X151201391Y-92862907D01*
X151255000Y-92593396D01*
X151255000Y-92318604D01*
X151201391Y-92049093D01*
X151096233Y-91795220D01*
X150943567Y-91566739D01*
X150749261Y-91372433D01*
X150520780Y-91219767D01*
X150439260Y-91186000D01*
X150520780Y-91152233D01*
X150749261Y-90999567D01*
X150943567Y-90805261D01*
X151096233Y-90576780D01*
X151201391Y-90322907D01*
X151255000Y-90053396D01*
X151255000Y-89778604D01*
X151201391Y-89509093D01*
X151096233Y-89255220D01*
X150943567Y-89026739D01*
X150749261Y-88832433D01*
X150520780Y-88679767D01*
X150266907Y-88574609D01*
X149997396Y-88521000D01*
X149722604Y-88521000D01*
X149453093Y-88574609D01*
X149199220Y-88679767D01*
X148970739Y-88832433D01*
X148776433Y-89026739D01*
X148623767Y-89255220D01*
X148590000Y-89336740D01*
X148556233Y-89255220D01*
X148403567Y-89026739D01*
X148209261Y-88832433D01*
X147980780Y-88679767D01*
X147726907Y-88574609D01*
X147457396Y-88521000D01*
X147182604Y-88521000D01*
X146913093Y-88574609D01*
X146659220Y-88679767D01*
X146430739Y-88832433D01*
X146236433Y-89026739D01*
X146083767Y-89255220D01*
X146050000Y-89336740D01*
X146016233Y-89255220D01*
X145863567Y-89026739D01*
X145669261Y-88832433D01*
X145440780Y-88679767D01*
X145186907Y-88574609D01*
X144917396Y-88521000D01*
X144642604Y-88521000D01*
X144373093Y-88574609D01*
X144119220Y-88679767D01*
X143890739Y-88832433D01*
X143696433Y-89026739D01*
X143543767Y-89255220D01*
X143510000Y-89336740D01*
X143476233Y-89255220D01*
X143323567Y-89026739D01*
X143129261Y-88832433D01*
X142900780Y-88679767D01*
X142646907Y-88574609D01*
X142377396Y-88521000D01*
X142102604Y-88521000D01*
X141833093Y-88574609D01*
X141579220Y-88679767D01*
X141350739Y-88832433D01*
X141156433Y-89026739D01*
X141003767Y-89255220D01*
X140970000Y-89336740D01*
X140936233Y-89255220D01*
X140783567Y-89026739D01*
X140589261Y-88832433D01*
X140360780Y-88679767D01*
X140106907Y-88574609D01*
X139837396Y-88521000D01*
X139562604Y-88521000D01*
X139293093Y-88574609D01*
X139039220Y-88679767D01*
X138810739Y-88832433D01*
X138616433Y-89026739D01*
X138463767Y-89255220D01*
X138430000Y-89336740D01*
X138396233Y-89255220D01*
X138243567Y-89026739D01*
X138049261Y-88832433D01*
X137820780Y-88679767D01*
X137566907Y-88574609D01*
X137297396Y-88521000D01*
X137022604Y-88521000D01*
X136870131Y-88551329D01*
X134602263Y-86283461D01*
X138360200Y-86283461D01*
X138360200Y-86487339D01*
X138399974Y-86687298D01*
X138477995Y-86875656D01*
X138591263Y-87045174D01*
X138735426Y-87189337D01*
X138904944Y-87302605D01*
X139093302Y-87380626D01*
X139293261Y-87420400D01*
X139497139Y-87420400D01*
X139697098Y-87380626D01*
X139885456Y-87302605D01*
X140054974Y-87189337D01*
X140098911Y-87145400D01*
X143415889Y-87145400D01*
X143459826Y-87189337D01*
X143629344Y-87302605D01*
X143817702Y-87380626D01*
X144017661Y-87420400D01*
X144221539Y-87420400D01*
X144421498Y-87380626D01*
X144609856Y-87302605D01*
X144779374Y-87189337D01*
X144923537Y-87045174D01*
X145036805Y-86875656D01*
X145114826Y-86687298D01*
X145154600Y-86487339D01*
X145154600Y-86283461D01*
X145114826Y-86083502D01*
X145036805Y-85895144D01*
X144923537Y-85725626D01*
X144779374Y-85581463D01*
X144609856Y-85468195D01*
X144421498Y-85390174D01*
X144221539Y-85350400D01*
X144017661Y-85350400D01*
X143817702Y-85390174D01*
X143629344Y-85468195D01*
X143459826Y-85581463D01*
X143415889Y-85625400D01*
X140098911Y-85625400D01*
X140054974Y-85581463D01*
X139885456Y-85468195D01*
X139697098Y-85390174D01*
X139497139Y-85350400D01*
X139293261Y-85350400D01*
X139093302Y-85390174D01*
X138904944Y-85468195D01*
X138735426Y-85581463D01*
X138591263Y-85725626D01*
X138477995Y-85895144D01*
X138399974Y-86083502D01*
X138360200Y-86283461D01*
X134602263Y-86283461D01*
X134191804Y-85873003D01*
X134168001Y-85843999D01*
X134052276Y-85749026D01*
X133920247Y-85678454D01*
X133776986Y-85634997D01*
X133665333Y-85624000D01*
X133665322Y-85624000D01*
X133628000Y-85620324D01*
X133590678Y-85624000D01*
X128675376Y-85624000D01*
X128704605Y-85580256D01*
X128782626Y-85391898D01*
X128822400Y-85191939D01*
X128822400Y-84988061D01*
X128782626Y-84788102D01*
X128704605Y-84599744D01*
X128591337Y-84430226D01*
X128547400Y-84386289D01*
X128547400Y-82186911D01*
X128591337Y-82142974D01*
X128704605Y-81973456D01*
X128782626Y-81785098D01*
X128822400Y-81585139D01*
X128822400Y-81381261D01*
X128782626Y-81181302D01*
X128704605Y-80992944D01*
X128591337Y-80823426D01*
X128537911Y-80770000D01*
X148260681Y-80770000D01*
X148272567Y-80776353D01*
X148428174Y-80823555D01*
X148590000Y-80839494D01*
X148751826Y-80823555D01*
X148907433Y-80776353D01*
X149050842Y-80699699D01*
X149145041Y-80622391D01*
X164098299Y-65669133D01*
X181706472Y-65669133D01*
X181768965Y-65905450D01*
X182011678Y-66018850D01*
X182271849Y-66082719D01*
X182539482Y-66094604D01*
X182804291Y-66054048D01*
X182822023Y-66047609D01*
X183622538Y-66047609D01*
X183626409Y-66085282D01*
X183718579Y-66310533D01*
X183852922Y-66513474D01*
X184024275Y-66686307D01*
X184226054Y-66822390D01*
X184450504Y-66916493D01*
X184689000Y-66965000D01*
X185039000Y-66965000D01*
X185039000Y-65857000D01*
X183747269Y-65857000D01*
X183622538Y-66047609D01*
X182822023Y-66047609D01*
X183056100Y-65962609D01*
X183163035Y-65905450D01*
X183225528Y-65669133D01*
X182466000Y-64909605D01*
X181706472Y-65669133D01*
X164098299Y-65669133D01*
X164963951Y-64803482D01*
X181101396Y-64803482D01*
X181141952Y-65068291D01*
X181233391Y-65320100D01*
X181290550Y-65427035D01*
X181526867Y-65489528D01*
X182286395Y-64730000D01*
X182645605Y-64730000D01*
X183405133Y-65489528D01*
X183633497Y-65429138D01*
X183747269Y-65603000D01*
X185039000Y-65603000D01*
X185039000Y-64495000D01*
X184689000Y-64495000D01*
X184450504Y-64543507D01*
X184226054Y-64637610D01*
X184024275Y-64773693D01*
X183852922Y-64946526D01*
X183789829Y-65041836D01*
X183818719Y-64924151D01*
X183830604Y-64656518D01*
X183790048Y-64391709D01*
X183698609Y-64139900D01*
X183641450Y-64032965D01*
X183405133Y-63970472D01*
X182645605Y-64730000D01*
X182286395Y-64730000D01*
X181526867Y-63970472D01*
X181290550Y-64032965D01*
X181177150Y-64275678D01*
X181113281Y-64535849D01*
X181101396Y-64803482D01*
X164963951Y-64803482D01*
X165441934Y-64325500D01*
X177172497Y-64325500D01*
X177309744Y-64417205D01*
X177498102Y-64495226D01*
X177698061Y-64535000D01*
X177901939Y-64535000D01*
X178101898Y-64495226D01*
X178290256Y-64417205D01*
X178459774Y-64303937D01*
X178603937Y-64159774D01*
X178717205Y-63990256D01*
X178795226Y-63801898D01*
X178797420Y-63790867D01*
X181706472Y-63790867D01*
X182466000Y-64550395D01*
X183225528Y-63790867D01*
X183163035Y-63554550D01*
X182920322Y-63441150D01*
X182660151Y-63377281D01*
X182392518Y-63365396D01*
X182127709Y-63405952D01*
X181875900Y-63497391D01*
X181768965Y-63554550D01*
X181706472Y-63790867D01*
X178797420Y-63790867D01*
X178835000Y-63601939D01*
X178835000Y-63398061D01*
X178795226Y-63198102D01*
X178717205Y-63009744D01*
X178603937Y-62840226D01*
X178459774Y-62696063D01*
X178290256Y-62582795D01*
X178101898Y-62504774D01*
X177901939Y-62465000D01*
X177698061Y-62465000D01*
X177498102Y-62504774D01*
X177309744Y-62582795D01*
X177172497Y-62674500D01*
X173656158Y-62674500D01*
X173715226Y-62531898D01*
X173747428Y-62370004D01*
X174331933Y-61785500D01*
X178442497Y-61785500D01*
X178579744Y-61877205D01*
X178768102Y-61955226D01*
X178968061Y-61995000D01*
X179171939Y-61995000D01*
X179371898Y-61955226D01*
X179560256Y-61877205D01*
X179729774Y-61763937D01*
X179873937Y-61619774D01*
X179987205Y-61450256D01*
X180065226Y-61261898D01*
X180105000Y-61061939D01*
X180105000Y-60858061D01*
X180067421Y-60669133D01*
X181706472Y-60669133D01*
X181768965Y-60905450D01*
X182011678Y-61018850D01*
X182271849Y-61082719D01*
X182539482Y-61094604D01*
X182804291Y-61054048D01*
X183056100Y-60962609D01*
X183163035Y-60905450D01*
X183225528Y-60669133D01*
X182466000Y-59909605D01*
X181706472Y-60669133D01*
X180067421Y-60669133D01*
X180065226Y-60658102D01*
X179987205Y-60469744D01*
X179873937Y-60300226D01*
X179729774Y-60156063D01*
X179560256Y-60042795D01*
X179371898Y-59964774D01*
X179171939Y-59925000D01*
X178968061Y-59925000D01*
X178768102Y-59964774D01*
X178579744Y-60042795D01*
X178442497Y-60134500D01*
X174030550Y-60134500D01*
X173989999Y-60130506D01*
X173949449Y-60134500D01*
X173949447Y-60134500D01*
X173828174Y-60146444D01*
X173672566Y-60193647D01*
X173579111Y-60243601D01*
X173529157Y-60270301D01*
X173492694Y-60300226D01*
X173403459Y-60373459D01*
X173377606Y-60404961D01*
X172579996Y-61202572D01*
X172418102Y-61234774D01*
X172229744Y-61312795D01*
X172060226Y-61426063D01*
X171916063Y-61570226D01*
X171802795Y-61739744D01*
X171724774Y-61928102D01*
X171685000Y-62128061D01*
X171685000Y-62331939D01*
X171724774Y-62531898D01*
X171783842Y-62674500D01*
X165140550Y-62674500D01*
X165100000Y-62670506D01*
X165059449Y-62674500D01*
X165059447Y-62674500D01*
X164938174Y-62686444D01*
X164782566Y-62733647D01*
X164639157Y-62810301D01*
X164544958Y-62887608D01*
X164544955Y-62887611D01*
X164513459Y-62913459D01*
X164487611Y-62944955D01*
X148182568Y-79250000D01*
X115607325Y-79250000D01*
X115570000Y-79246324D01*
X115532675Y-79250000D01*
X115532667Y-79250000D01*
X115421014Y-79260997D01*
X115277753Y-79304454D01*
X115145724Y-79375026D01*
X115029999Y-79469999D01*
X115006201Y-79498997D01*
X111455465Y-83049734D01*
X111442566Y-83053647D01*
X111299158Y-83130301D01*
X111173459Y-83233459D01*
X111070301Y-83359159D01*
X110993647Y-83502567D01*
X110946444Y-83658175D01*
X110934500Y-83779448D01*
X110934501Y-86018065D01*
X108731000Y-88221567D01*
X108731000Y-88188461D01*
X108691226Y-87988502D01*
X108613205Y-87800144D01*
X108499937Y-87630626D01*
X108456000Y-87586689D01*
X108456000Y-77843511D01*
X108499937Y-77799574D01*
X108613205Y-77630056D01*
X108691226Y-77441698D01*
X108731000Y-77241739D01*
X108731000Y-77037861D01*
X108691226Y-76837902D01*
X108662182Y-76767783D01*
X110129401Y-78235003D01*
X110153199Y-78264001D01*
X110182197Y-78287799D01*
X110268924Y-78358974D01*
X110400953Y-78429546D01*
X110544214Y-78473003D01*
X110693200Y-78487677D01*
X110730533Y-78484000D01*
X114905659Y-78484000D01*
X114992880Y-78614535D01*
X115187465Y-78809120D01*
X115416273Y-78962005D01*
X115670510Y-79067314D01*
X115940408Y-79121000D01*
X116215592Y-79121000D01*
X116485490Y-79067314D01*
X116739727Y-78962005D01*
X116968535Y-78809120D01*
X117163120Y-78614535D01*
X117316005Y-78385727D01*
X117348000Y-78308485D01*
X117379995Y-78385727D01*
X117532880Y-78614535D01*
X117727465Y-78809120D01*
X117956273Y-78962005D01*
X118210510Y-79067314D01*
X118480408Y-79121000D01*
X118755592Y-79121000D01*
X119025490Y-79067314D01*
X119279727Y-78962005D01*
X119508535Y-78809120D01*
X119628090Y-78689565D01*
X120372040Y-78689565D01*
X120439020Y-78929656D01*
X120688048Y-79046756D01*
X120955135Y-79113023D01*
X121230017Y-79125910D01*
X121502133Y-79084922D01*
X121761023Y-78991636D01*
X121876980Y-78929656D01*
X121943960Y-78689565D01*
X121158000Y-77903605D01*
X120372040Y-78689565D01*
X119628090Y-78689565D01*
X119703120Y-78614535D01*
X119856005Y-78385727D01*
X119885692Y-78314057D01*
X119890364Y-78327023D01*
X119952344Y-78442980D01*
X120192435Y-78509960D01*
X120978395Y-77724000D01*
X121337605Y-77724000D01*
X122123565Y-78509960D01*
X122363656Y-78442980D01*
X122427485Y-78307240D01*
X122459995Y-78385727D01*
X122612880Y-78614535D01*
X122807465Y-78809120D01*
X123036273Y-78962005D01*
X123290510Y-79067314D01*
X123560408Y-79121000D01*
X123835592Y-79121000D01*
X124105490Y-79067314D01*
X124359727Y-78962005D01*
X124588535Y-78809120D01*
X124783120Y-78614535D01*
X124936005Y-78385727D01*
X125041314Y-78131490D01*
X125095000Y-77861592D01*
X125095000Y-77586408D01*
X125041314Y-77316510D01*
X124936005Y-77062273D01*
X124783120Y-76833465D01*
X124588535Y-76638880D01*
X124359727Y-76485995D01*
X124105490Y-76380686D01*
X123835592Y-76327000D01*
X123560408Y-76327000D01*
X123290510Y-76380686D01*
X123036273Y-76485995D01*
X122807465Y-76638880D01*
X122612880Y-76833465D01*
X122459995Y-77062273D01*
X122430308Y-77133943D01*
X122425636Y-77120977D01*
X122363656Y-77005020D01*
X122123565Y-76938040D01*
X121337605Y-77724000D01*
X120978395Y-77724000D01*
X120192435Y-76938040D01*
X119952344Y-77005020D01*
X119888515Y-77140760D01*
X119856005Y-77062273D01*
X119703120Y-76833465D01*
X119628090Y-76758435D01*
X120372040Y-76758435D01*
X121158000Y-77544395D01*
X121943960Y-76758435D01*
X121876980Y-76518344D01*
X121627952Y-76401244D01*
X121360865Y-76334977D01*
X121085983Y-76322090D01*
X120813867Y-76363078D01*
X120554977Y-76456364D01*
X120439020Y-76518344D01*
X120372040Y-76758435D01*
X119628090Y-76758435D01*
X119508535Y-76638880D01*
X119279727Y-76485995D01*
X119025490Y-76380686D01*
X118755592Y-76327000D01*
X118480408Y-76327000D01*
X118326430Y-76357628D01*
X116413204Y-74444403D01*
X116389401Y-74415399D01*
X116273676Y-74320426D01*
X116141647Y-74249854D01*
X115998386Y-74206397D01*
X115886733Y-74195400D01*
X115886722Y-74195400D01*
X115849400Y-74191724D01*
X115812078Y-74195400D01*
X110990511Y-74195400D01*
X110946574Y-74151463D01*
X110777056Y-74038195D01*
X110588698Y-73960174D01*
X110388739Y-73920400D01*
X110184861Y-73920400D01*
X109984902Y-73960174D01*
X109796544Y-74038195D01*
X109627026Y-74151463D01*
X109482863Y-74295626D01*
X109369595Y-74465144D01*
X109291574Y-74653502D01*
X109251800Y-74853461D01*
X109251800Y-75057339D01*
X109289159Y-75245158D01*
X109086600Y-75042599D01*
X109086600Y-74980461D01*
X109046826Y-74780502D01*
X108968805Y-74592144D01*
X108855537Y-74422626D01*
X108711374Y-74278463D01*
X108541856Y-74165195D01*
X108353498Y-74087174D01*
X108153539Y-74047400D01*
X107949661Y-74047400D01*
X107749702Y-74087174D01*
X107561344Y-74165195D01*
X107505500Y-74202509D01*
X107505500Y-73271503D01*
X107597205Y-73134256D01*
X107675226Y-72945898D01*
X107715000Y-72745939D01*
X107715000Y-72542061D01*
X107675226Y-72342102D01*
X107597205Y-72153744D01*
X107483937Y-71984226D01*
X107445211Y-71945500D01*
X121371450Y-71945500D01*
X121412000Y-71949494D01*
X121452550Y-71945500D01*
X121452553Y-71945500D01*
X121573826Y-71933556D01*
X121729434Y-71886353D01*
X121872842Y-71809699D01*
X121998541Y-71706541D01*
X122024398Y-71675034D01*
X123483692Y-70215740D01*
X123560408Y-70231000D01*
X123835592Y-70231000D01*
X124105490Y-70177314D01*
X124359727Y-70072005D01*
X124588535Y-69919120D01*
X124783120Y-69724535D01*
X124936005Y-69495727D01*
X125041314Y-69241490D01*
X125095000Y-68971592D01*
X125095000Y-68696408D01*
X125041314Y-68426510D01*
X125009781Y-68350382D01*
X127909401Y-71250003D01*
X127933199Y-71279001D01*
X127962197Y-71302799D01*
X128048923Y-71373974D01*
X128169462Y-71438404D01*
X128180953Y-71444546D01*
X128324214Y-71488003D01*
X128435867Y-71499000D01*
X128435877Y-71499000D01*
X128473200Y-71502676D01*
X128510522Y-71499000D01*
X129344289Y-71499000D01*
X129388226Y-71542937D01*
X129557744Y-71656205D01*
X129746102Y-71734226D01*
X129946061Y-71774000D01*
X130149939Y-71774000D01*
X130349898Y-71734226D01*
X130538256Y-71656205D01*
X130707774Y-71542937D01*
X130851937Y-71398774D01*
X130965205Y-71229256D01*
X131043226Y-71040898D01*
X131083000Y-70840939D01*
X131083000Y-70637061D01*
X131043226Y-70437102D01*
X130965205Y-70248744D01*
X130851937Y-70079226D01*
X130707774Y-69935063D01*
X130538256Y-69821795D01*
X130360248Y-69748061D01*
X147555000Y-69748061D01*
X147555000Y-69951939D01*
X147594774Y-70151898D01*
X147672795Y-70340256D01*
X147786063Y-70509774D01*
X147930226Y-70653937D01*
X148099744Y-70767205D01*
X148288102Y-70845226D01*
X148488061Y-70885000D01*
X148691939Y-70885000D01*
X148891898Y-70845226D01*
X149080256Y-70767205D01*
X149217503Y-70675500D01*
X149719392Y-70675500D01*
X149759942Y-70679494D01*
X149800492Y-70675500D01*
X149800495Y-70675500D01*
X149921768Y-70663556D01*
X150077376Y-70616353D01*
X150220784Y-70539699D01*
X150346483Y-70436541D01*
X150372340Y-70405034D01*
X158035046Y-62742330D01*
X158066541Y-62716483D01*
X158092389Y-62684987D01*
X158092392Y-62684984D01*
X158169699Y-62590785D01*
X158246353Y-62447376D01*
X158269960Y-62369553D01*
X158293556Y-62291768D01*
X158305500Y-62170495D01*
X158305500Y-62170493D01*
X158309494Y-62129942D01*
X158305500Y-62089392D01*
X158305500Y-61587503D01*
X158397205Y-61450256D01*
X158475226Y-61261898D01*
X158515000Y-61061939D01*
X158515000Y-60858061D01*
X158475226Y-60658102D01*
X158397205Y-60469744D01*
X158283937Y-60300226D01*
X158139774Y-60156063D01*
X157970256Y-60042795D01*
X157781898Y-59964774D01*
X157581939Y-59925000D01*
X157378061Y-59925000D01*
X157178102Y-59964774D01*
X156989744Y-60042795D01*
X156820226Y-60156063D01*
X156676063Y-60300226D01*
X156562795Y-60469744D01*
X156484774Y-60658102D01*
X156445000Y-60858061D01*
X156445000Y-61061939D01*
X156484774Y-61261898D01*
X156562795Y-61450256D01*
X156654500Y-61587503D01*
X156654500Y-61788008D01*
X149418010Y-69024500D01*
X149217503Y-69024500D01*
X149080256Y-68932795D01*
X148891898Y-68854774D01*
X148691939Y-68815000D01*
X148488061Y-68815000D01*
X148288102Y-68854774D01*
X148099744Y-68932795D01*
X147930226Y-69046063D01*
X147786063Y-69190226D01*
X147672795Y-69359744D01*
X147594774Y-69548102D01*
X147555000Y-69748061D01*
X130360248Y-69748061D01*
X130349898Y-69743774D01*
X130149939Y-69704000D01*
X129946061Y-69704000D01*
X129746102Y-69743774D01*
X129557744Y-69821795D01*
X129388226Y-69935063D01*
X129344289Y-69979000D01*
X128788002Y-69979000D01*
X120952800Y-62143799D01*
X120952800Y-60822408D01*
X128651000Y-60822408D01*
X128651000Y-61097592D01*
X128704686Y-61367490D01*
X128809995Y-61621727D01*
X128962880Y-61850535D01*
X129157465Y-62045120D01*
X129386273Y-62198005D01*
X129640510Y-62303314D01*
X129910408Y-62357000D01*
X130185592Y-62357000D01*
X130455490Y-62303314D01*
X130709727Y-62198005D01*
X130938535Y-62045120D01*
X131133120Y-61850535D01*
X131286005Y-61621727D01*
X131391314Y-61367490D01*
X131445000Y-61097592D01*
X131445000Y-60822408D01*
X131391314Y-60552510D01*
X131286005Y-60298273D01*
X131133120Y-60069465D01*
X130938535Y-59874880D01*
X130831681Y-59803482D01*
X181101396Y-59803482D01*
X181141952Y-60068291D01*
X181233391Y-60320100D01*
X181290550Y-60427035D01*
X181526867Y-60489528D01*
X182286395Y-59730000D01*
X182645605Y-59730000D01*
X183405133Y-60489528D01*
X183641450Y-60427035D01*
X183754850Y-60184322D01*
X183818719Y-59924151D01*
X183830604Y-59656518D01*
X183795385Y-59426558D01*
X183852922Y-59513474D01*
X184024275Y-59686307D01*
X184226054Y-59822390D01*
X184450504Y-59916493D01*
X184689000Y-59965000D01*
X185039000Y-59965000D01*
X185039000Y-58857000D01*
X183747269Y-58857000D01*
X183633497Y-59030862D01*
X183405133Y-58970472D01*
X182645605Y-59730000D01*
X182286395Y-59730000D01*
X181526867Y-58970472D01*
X181290550Y-59032965D01*
X181177150Y-59275678D01*
X181113281Y-59535849D01*
X181101396Y-59803482D01*
X130831681Y-59803482D01*
X130709727Y-59721995D01*
X130638057Y-59692308D01*
X130651023Y-59687636D01*
X130766980Y-59625656D01*
X130833960Y-59385565D01*
X130048000Y-58599605D01*
X129262040Y-59385565D01*
X129329020Y-59625656D01*
X129464760Y-59689485D01*
X129386273Y-59721995D01*
X129157465Y-59874880D01*
X128962880Y-60069465D01*
X128809995Y-60298273D01*
X128704686Y-60552510D01*
X128651000Y-60822408D01*
X120952800Y-60822408D01*
X120952800Y-58492017D01*
X128646090Y-58492017D01*
X128687078Y-58764133D01*
X128780364Y-59023023D01*
X128842344Y-59138980D01*
X129082435Y-59205960D01*
X129868395Y-58420000D01*
X130227605Y-58420000D01*
X131013565Y-59205960D01*
X131253656Y-59138980D01*
X131370756Y-58889952D01*
X131395339Y-58790867D01*
X181706472Y-58790867D01*
X182466000Y-59550395D01*
X183225528Y-58790867D01*
X183163035Y-58554550D01*
X182920322Y-58441150D01*
X182803172Y-58412391D01*
X183622538Y-58412391D01*
X183747269Y-58603000D01*
X185039000Y-58603000D01*
X185039000Y-57495000D01*
X184689000Y-57495000D01*
X184450504Y-57543507D01*
X184226054Y-57637610D01*
X184024275Y-57773693D01*
X183852922Y-57946526D01*
X183718579Y-58149467D01*
X183626409Y-58374718D01*
X183622538Y-58412391D01*
X182803172Y-58412391D01*
X182660151Y-58377281D01*
X182392518Y-58365396D01*
X182127709Y-58405952D01*
X181875900Y-58497391D01*
X181768965Y-58554550D01*
X181706472Y-58790867D01*
X131395339Y-58790867D01*
X131437023Y-58622865D01*
X131449910Y-58347983D01*
X131408922Y-58075867D01*
X131315636Y-57816977D01*
X131253656Y-57701020D01*
X131013565Y-57634040D01*
X130227605Y-58420000D01*
X129868395Y-58420000D01*
X129082435Y-57634040D01*
X128842344Y-57701020D01*
X128725244Y-57950048D01*
X128658977Y-58217135D01*
X128646090Y-58492017D01*
X120952800Y-58492017D01*
X120952800Y-57454435D01*
X129262040Y-57454435D01*
X130048000Y-58240395D01*
X130833960Y-57454435D01*
X130766980Y-57214344D01*
X130517952Y-57097244D01*
X130250865Y-57030977D01*
X129975983Y-57018090D01*
X129703867Y-57059078D01*
X129444977Y-57152364D01*
X129329020Y-57214344D01*
X129262040Y-57454435D01*
X120952800Y-57454435D01*
X120952800Y-53031594D01*
X165562611Y-53031594D01*
X165843584Y-53453659D01*
X166395317Y-53748178D01*
X166993906Y-53929400D01*
X167616348Y-53990361D01*
X168238723Y-53928718D01*
X168837113Y-53746840D01*
X169385616Y-53453659D01*
X169666589Y-53031594D01*
X167614600Y-50979605D01*
X165562611Y-53031594D01*
X120952800Y-53031594D01*
X120952800Y-52818522D01*
X120956476Y-52781199D01*
X120952800Y-52743876D01*
X120952800Y-52743867D01*
X120941803Y-52632214D01*
X120898346Y-52488953D01*
X120827774Y-52356924D01*
X120732801Y-52241199D01*
X120703803Y-52217401D01*
X119288150Y-50801748D01*
X164424239Y-50801748D01*
X164485882Y-51424123D01*
X164667760Y-52022513D01*
X164960941Y-52571016D01*
X165383006Y-52851989D01*
X167434995Y-50800000D01*
X167794205Y-50800000D01*
X169846194Y-52851989D01*
X170268259Y-52571016D01*
X170562778Y-52019283D01*
X170744000Y-51420694D01*
X170804961Y-50798252D01*
X170743318Y-50175877D01*
X170561440Y-49577487D01*
X170268259Y-49028984D01*
X169846194Y-48748011D01*
X167794205Y-50800000D01*
X167434995Y-50800000D01*
X165383006Y-48748011D01*
X164960941Y-49028984D01*
X164666422Y-49580717D01*
X164485200Y-50179306D01*
X164424239Y-50801748D01*
X119288150Y-50801748D01*
X117625006Y-49138604D01*
X125605000Y-49138604D01*
X125605000Y-49413396D01*
X125658609Y-49682907D01*
X125763767Y-49936780D01*
X125916433Y-50165261D01*
X126110739Y-50359567D01*
X126339220Y-50512233D01*
X126593093Y-50617391D01*
X126862604Y-50671000D01*
X127137396Y-50671000D01*
X127406907Y-50617391D01*
X127660780Y-50512233D01*
X127889261Y-50359567D01*
X128083567Y-50165261D01*
X128236233Y-49936780D01*
X128270000Y-49855260D01*
X128303767Y-49936780D01*
X128456433Y-50165261D01*
X128650739Y-50359567D01*
X128879220Y-50512233D01*
X129133093Y-50617391D01*
X129402604Y-50671000D01*
X129677396Y-50671000D01*
X129946907Y-50617391D01*
X130200780Y-50512233D01*
X130429261Y-50359567D01*
X130623567Y-50165261D01*
X130776233Y-49936780D01*
X130810000Y-49855260D01*
X130843767Y-49936780D01*
X130996433Y-50165261D01*
X131190739Y-50359567D01*
X131419220Y-50512233D01*
X131673093Y-50617391D01*
X131942604Y-50671000D01*
X132217396Y-50671000D01*
X132486907Y-50617391D01*
X132740780Y-50512233D01*
X132969261Y-50359567D01*
X133163567Y-50165261D01*
X133316233Y-49936780D01*
X133350000Y-49855260D01*
X133383767Y-49936780D01*
X133536433Y-50165261D01*
X133730739Y-50359567D01*
X133959220Y-50512233D01*
X134213093Y-50617391D01*
X134482604Y-50671000D01*
X134757396Y-50671000D01*
X135026907Y-50617391D01*
X135280780Y-50512233D01*
X135509261Y-50359567D01*
X135703567Y-50165261D01*
X135856233Y-49936780D01*
X135890000Y-49855260D01*
X135923767Y-49936780D01*
X136076433Y-50165261D01*
X136270739Y-50359567D01*
X136499220Y-50512233D01*
X136753093Y-50617391D01*
X137022604Y-50671000D01*
X137297396Y-50671000D01*
X137566907Y-50617391D01*
X137820780Y-50512233D01*
X138049261Y-50359567D01*
X138243567Y-50165261D01*
X138396233Y-49936780D01*
X138430000Y-49855260D01*
X138463767Y-49936780D01*
X138616433Y-50165261D01*
X138810739Y-50359567D01*
X139039220Y-50512233D01*
X139293093Y-50617391D01*
X139562604Y-50671000D01*
X139837396Y-50671000D01*
X140106907Y-50617391D01*
X140360780Y-50512233D01*
X140589261Y-50359567D01*
X140783567Y-50165261D01*
X140936233Y-49936780D01*
X140970000Y-49855260D01*
X141003767Y-49936780D01*
X141156433Y-50165261D01*
X141350739Y-50359567D01*
X141579220Y-50512233D01*
X141833093Y-50617391D01*
X142102604Y-50671000D01*
X142377396Y-50671000D01*
X142646907Y-50617391D01*
X142900780Y-50512233D01*
X143129261Y-50359567D01*
X143323567Y-50165261D01*
X143476233Y-49936780D01*
X143510000Y-49855260D01*
X143543767Y-49936780D01*
X143696433Y-50165261D01*
X143890739Y-50359567D01*
X144119220Y-50512233D01*
X144373093Y-50617391D01*
X144642604Y-50671000D01*
X144917396Y-50671000D01*
X145186907Y-50617391D01*
X145440780Y-50512233D01*
X145669261Y-50359567D01*
X145863567Y-50165261D01*
X146016233Y-49936780D01*
X146050000Y-49855260D01*
X146083767Y-49936780D01*
X146236433Y-50165261D01*
X146430739Y-50359567D01*
X146659220Y-50512233D01*
X146913093Y-50617391D01*
X147182604Y-50671000D01*
X147457396Y-50671000D01*
X147726907Y-50617391D01*
X147980780Y-50512233D01*
X148209261Y-50359567D01*
X148403567Y-50165261D01*
X148556233Y-49936780D01*
X148590000Y-49855260D01*
X148623767Y-49936780D01*
X148776433Y-50165261D01*
X148970739Y-50359567D01*
X149199220Y-50512233D01*
X149453093Y-50617391D01*
X149722604Y-50671000D01*
X149997396Y-50671000D01*
X150266907Y-50617391D01*
X150520780Y-50512233D01*
X150749261Y-50359567D01*
X150943567Y-50165261D01*
X151096233Y-49936780D01*
X151201391Y-49682907D01*
X151255000Y-49413396D01*
X151255000Y-49138604D01*
X151201391Y-48869093D01*
X151096233Y-48615220D01*
X151064953Y-48568406D01*
X165562611Y-48568406D01*
X167614600Y-50620395D01*
X169666589Y-48568406D01*
X169385616Y-48146341D01*
X168833883Y-47851822D01*
X168235294Y-47670600D01*
X167612852Y-47609639D01*
X166990477Y-47671282D01*
X166392087Y-47853160D01*
X165843584Y-48146341D01*
X165562611Y-48568406D01*
X151064953Y-48568406D01*
X150943567Y-48386739D01*
X150749261Y-48192433D01*
X150520780Y-48039767D01*
X150439260Y-48006000D01*
X150520780Y-47972233D01*
X150749261Y-47819567D01*
X150943567Y-47625261D01*
X151096233Y-47396780D01*
X151201391Y-47142907D01*
X151255000Y-46873396D01*
X151255000Y-46598604D01*
X151201391Y-46329093D01*
X151096233Y-46075220D01*
X150943567Y-45846739D01*
X150749261Y-45652433D01*
X150520780Y-45499767D01*
X150266907Y-45394609D01*
X149997396Y-45341000D01*
X149722604Y-45341000D01*
X149453093Y-45394609D01*
X149199220Y-45499767D01*
X148970739Y-45652433D01*
X148776433Y-45846739D01*
X148623767Y-46075220D01*
X148590000Y-46156740D01*
X148556233Y-46075220D01*
X148403567Y-45846739D01*
X148209261Y-45652433D01*
X147980780Y-45499767D01*
X147726907Y-45394609D01*
X147457396Y-45341000D01*
X147182604Y-45341000D01*
X146913093Y-45394609D01*
X146659220Y-45499767D01*
X146430739Y-45652433D01*
X146236433Y-45846739D01*
X146083767Y-46075220D01*
X146050000Y-46156740D01*
X146016233Y-46075220D01*
X145863567Y-45846739D01*
X145669261Y-45652433D01*
X145440780Y-45499767D01*
X145186907Y-45394609D01*
X144917396Y-45341000D01*
X144642604Y-45341000D01*
X144373093Y-45394609D01*
X144119220Y-45499767D01*
X143890739Y-45652433D01*
X143696433Y-45846739D01*
X143543767Y-46075220D01*
X143510000Y-46156740D01*
X143476233Y-46075220D01*
X143323567Y-45846739D01*
X143129261Y-45652433D01*
X142900780Y-45499767D01*
X142646907Y-45394609D01*
X142377396Y-45341000D01*
X142102604Y-45341000D01*
X141833093Y-45394609D01*
X141579220Y-45499767D01*
X141350739Y-45652433D01*
X141156433Y-45846739D01*
X141003767Y-46075220D01*
X140970000Y-46156740D01*
X140936233Y-46075220D01*
X140783567Y-45846739D01*
X140589261Y-45652433D01*
X140360780Y-45499767D01*
X140106907Y-45394609D01*
X139837396Y-45341000D01*
X139562604Y-45341000D01*
X139293093Y-45394609D01*
X139039220Y-45499767D01*
X138810739Y-45652433D01*
X138616433Y-45846739D01*
X138463767Y-46075220D01*
X138430000Y-46156740D01*
X138396233Y-46075220D01*
X138243567Y-45846739D01*
X138049261Y-45652433D01*
X137820780Y-45499767D01*
X137566907Y-45394609D01*
X137297396Y-45341000D01*
X137022604Y-45341000D01*
X136753093Y-45394609D01*
X136499220Y-45499767D01*
X136270739Y-45652433D01*
X136076433Y-45846739D01*
X135923767Y-46075220D01*
X135890000Y-46156740D01*
X135856233Y-46075220D01*
X135703567Y-45846739D01*
X135509261Y-45652433D01*
X135280780Y-45499767D01*
X135026907Y-45394609D01*
X134757396Y-45341000D01*
X134482604Y-45341000D01*
X134213093Y-45394609D01*
X133959220Y-45499767D01*
X133730739Y-45652433D01*
X133536433Y-45846739D01*
X133383767Y-46075220D01*
X133350000Y-46156740D01*
X133316233Y-46075220D01*
X133163567Y-45846739D01*
X132969261Y-45652433D01*
X132740780Y-45499767D01*
X132486907Y-45394609D01*
X132217396Y-45341000D01*
X131942604Y-45341000D01*
X131673093Y-45394609D01*
X131419220Y-45499767D01*
X131190739Y-45652433D01*
X130996433Y-45846739D01*
X130843767Y-46075220D01*
X130810000Y-46156740D01*
X130776233Y-46075220D01*
X130623567Y-45846739D01*
X130429261Y-45652433D01*
X130200780Y-45499767D01*
X129946907Y-45394609D01*
X129677396Y-45341000D01*
X129402604Y-45341000D01*
X129133093Y-45394609D01*
X128879220Y-45499767D01*
X128650739Y-45652433D01*
X128456433Y-45846739D01*
X128303767Y-46075220D01*
X128272170Y-46151501D01*
X128265744Y-46133674D01*
X128204025Y-46018206D01*
X127964137Y-45951469D01*
X127179605Y-46736000D01*
X127964137Y-47520531D01*
X128204025Y-47453794D01*
X128269600Y-47314293D01*
X128303767Y-47396780D01*
X128456433Y-47625261D01*
X128650739Y-47819567D01*
X128879220Y-47972233D01*
X128960740Y-48006000D01*
X128879220Y-48039767D01*
X128650739Y-48192433D01*
X128456433Y-48386739D01*
X128303767Y-48615220D01*
X128270000Y-48696740D01*
X128236233Y-48615220D01*
X128083567Y-48386739D01*
X127889261Y-48192433D01*
X127660780Y-48039767D01*
X127584499Y-48008170D01*
X127602326Y-48001744D01*
X127717794Y-47940025D01*
X127784531Y-47700137D01*
X127000000Y-46915605D01*
X126215469Y-47700137D01*
X126282206Y-47940025D01*
X126421707Y-48005600D01*
X126339220Y-48039767D01*
X126110739Y-48192433D01*
X125916433Y-48386739D01*
X125763767Y-48615220D01*
X125658609Y-48869093D01*
X125605000Y-49138604D01*
X117625006Y-49138604D01*
X117486283Y-48999882D01*
X117474973Y-48978723D01*
X117403799Y-48891997D01*
X117403798Y-48891996D01*
X117380001Y-48862999D01*
X117351003Y-48839201D01*
X115319899Y-46808097D01*
X125600105Y-46808097D01*
X125641069Y-47079817D01*
X125734256Y-47338326D01*
X125795975Y-47453794D01*
X126035863Y-47520531D01*
X126820395Y-46736000D01*
X126035863Y-45951469D01*
X125795975Y-46018206D01*
X125679076Y-46266892D01*
X125612939Y-46533606D01*
X125600105Y-46808097D01*
X115319899Y-46808097D01*
X115117804Y-46606003D01*
X115094001Y-46576999D01*
X114978276Y-46482026D01*
X114846247Y-46411454D01*
X114702986Y-46367997D01*
X114591333Y-46357000D01*
X114591322Y-46357000D01*
X114554000Y-46353324D01*
X114516678Y-46357000D01*
X95084122Y-46357000D01*
X95046799Y-46353324D01*
X95009476Y-46357000D01*
X95009467Y-46357000D01*
X94897814Y-46367997D01*
X94754553Y-46411454D01*
X94622524Y-46482026D01*
X94506799Y-46576999D01*
X94483001Y-46605997D01*
X90312399Y-50776600D01*
X75399133Y-50776600D01*
X75361800Y-50772923D01*
X75324467Y-50776600D01*
X75212814Y-50787597D01*
X75069553Y-50831054D01*
X74937524Y-50901626D01*
X74821799Y-50996599D01*
X74798001Y-51025597D01*
X73645599Y-52178000D01*
X73583461Y-52178000D01*
X73383502Y-52217774D01*
X73195144Y-52295795D01*
X73025626Y-52409063D01*
X72881463Y-52553226D01*
X72768195Y-52722744D01*
X72690174Y-52911102D01*
X72650400Y-53111061D01*
X72650400Y-53314939D01*
X72690174Y-53514898D01*
X72768195Y-53703256D01*
X72881463Y-53872774D01*
X73025626Y-54016937D01*
X73195144Y-54130205D01*
X73383502Y-54208226D01*
X73583461Y-54248000D01*
X73787339Y-54248000D01*
X73987298Y-54208226D01*
X74175656Y-54130205D01*
X74345174Y-54016937D01*
X74489337Y-53872774D01*
X74602605Y-53703256D01*
X74680626Y-53514898D01*
X74720400Y-53314939D01*
X74720400Y-53252801D01*
X75676602Y-52296600D01*
X76320998Y-52296600D01*
X73620199Y-54997400D01*
X73558061Y-54997400D01*
X73358102Y-55037174D01*
X73169744Y-55115195D01*
X73000226Y-55228463D01*
X72856063Y-55372626D01*
X72742795Y-55542144D01*
X72664774Y-55730502D01*
X72625000Y-55930461D01*
X72625000Y-56134339D01*
X72664774Y-56334298D01*
X72742795Y-56522656D01*
X72856063Y-56692174D01*
X73000226Y-56836337D01*
X73169744Y-56949605D01*
X73358102Y-57027626D01*
X73558061Y-57067400D01*
X73761939Y-57067400D01*
X73961898Y-57027626D01*
X74150256Y-56949605D01*
X74319774Y-56836337D01*
X74463937Y-56692174D01*
X74577205Y-56522656D01*
X74655226Y-56334298D01*
X74695000Y-56134339D01*
X74695000Y-56072201D01*
X78020592Y-52746610D01*
X89566800Y-52746610D01*
X89566800Y-52933939D01*
X89606574Y-53133898D01*
X89684595Y-53322256D01*
X89797863Y-53491774D01*
X89942026Y-53635937D01*
X90111544Y-53749205D01*
X90299902Y-53827226D01*
X90499861Y-53867000D01*
X90561999Y-53867000D01*
X93365400Y-56670402D01*
X93389199Y-56699401D01*
X93504924Y-56794374D01*
X93556234Y-56821800D01*
X92796202Y-56821800D01*
X91636800Y-55662399D01*
X91636800Y-55600261D01*
X91597026Y-55400302D01*
X91519005Y-55211944D01*
X91405737Y-55042426D01*
X91261574Y-54898263D01*
X91092056Y-54784995D01*
X90903698Y-54706974D01*
X90703739Y-54667200D01*
X90499861Y-54667200D01*
X90299902Y-54706974D01*
X90111544Y-54784995D01*
X89942026Y-54898263D01*
X89797863Y-55042426D01*
X89684595Y-55211944D01*
X89606574Y-55400302D01*
X89566800Y-55600261D01*
X89566800Y-55804139D01*
X89606574Y-56004098D01*
X89684595Y-56192456D01*
X89797863Y-56361974D01*
X89942026Y-56506137D01*
X90111544Y-56619405D01*
X90299902Y-56697426D01*
X90499861Y-56737200D01*
X90561999Y-56737200D01*
X91662598Y-57837800D01*
X89603711Y-57837800D01*
X89559774Y-57793863D01*
X89390256Y-57680595D01*
X89201898Y-57602574D01*
X89001939Y-57562800D01*
X88798061Y-57562800D01*
X88598102Y-57602574D01*
X88409744Y-57680595D01*
X88240226Y-57793863D01*
X88096063Y-57938026D01*
X87982795Y-58107544D01*
X87904774Y-58295902D01*
X87865000Y-58495861D01*
X87865000Y-58699739D01*
X87904774Y-58899698D01*
X87982795Y-59088056D01*
X88096063Y-59257574D01*
X88240226Y-59401737D01*
X88409744Y-59515005D01*
X88598102Y-59593026D01*
X88798061Y-59632800D01*
X89001939Y-59632800D01*
X89201898Y-59593026D01*
X89390256Y-59515005D01*
X89559774Y-59401737D01*
X89603711Y-59357800D01*
X101850884Y-59357800D01*
X103960728Y-61467645D01*
X103906774Y-61597902D01*
X103867000Y-61797861D01*
X103867000Y-62001739D01*
X103906774Y-62201698D01*
X103984795Y-62390056D01*
X104098063Y-62559574D01*
X104242226Y-62703737D01*
X104411744Y-62817005D01*
X104600102Y-62895026D01*
X104800061Y-62934800D01*
X105003939Y-62934800D01*
X105203898Y-62895026D01*
X105392256Y-62817005D01*
X105561774Y-62703737D01*
X105705937Y-62559574D01*
X105819205Y-62390056D01*
X105897226Y-62201698D01*
X105937000Y-62001739D01*
X105937000Y-61797861D01*
X105897226Y-61597902D01*
X105819205Y-61409544D01*
X105705937Y-61240026D01*
X105650987Y-61185076D01*
X105607546Y-61041868D01*
X105536974Y-60909839D01*
X105442001Y-60794114D01*
X105413003Y-60770316D01*
X104260255Y-59617569D01*
X104317174Y-59579537D01*
X104361111Y-59535600D01*
X105442889Y-59535600D01*
X105486826Y-59579537D01*
X105656344Y-59692805D01*
X105844702Y-59770826D01*
X106044661Y-59810600D01*
X106248539Y-59810600D01*
X106448498Y-59770826D01*
X106636856Y-59692805D01*
X106806374Y-59579537D01*
X106950537Y-59435374D01*
X107011674Y-59343876D01*
X107266201Y-59598403D01*
X107266200Y-64399503D01*
X107170256Y-64335395D01*
X106981898Y-64257374D01*
X106781939Y-64217600D01*
X106578061Y-64217600D01*
X106378102Y-64257374D01*
X106189744Y-64335395D01*
X106020226Y-64448663D01*
X105976289Y-64492600D01*
X103667402Y-64492600D01*
X102370266Y-63195465D01*
X102366353Y-63182566D01*
X102289699Y-63039158D01*
X102186541Y-62913459D01*
X102060842Y-62810301D01*
X101917434Y-62733647D01*
X101761826Y-62686444D01*
X101640553Y-62674500D01*
X92669447Y-62674500D01*
X92548174Y-62686444D01*
X92392566Y-62733647D01*
X92380681Y-62740000D01*
X91907202Y-62740000D01*
X91267203Y-62100002D01*
X91243401Y-62070999D01*
X91127676Y-61976026D01*
X90995647Y-61905454D01*
X90852386Y-61861997D01*
X90740733Y-61851000D01*
X90740722Y-61851000D01*
X90703400Y-61847324D01*
X90666078Y-61851000D01*
X86092522Y-61851000D01*
X86055200Y-61847324D01*
X86017877Y-61851000D01*
X86017867Y-61851000D01*
X85906214Y-61861997D01*
X85780475Y-61900139D01*
X85762953Y-61905454D01*
X85630923Y-61976026D01*
X85553384Y-62039661D01*
X85515199Y-62070999D01*
X85491401Y-62099997D01*
X84528202Y-63063197D01*
X84528197Y-63063201D01*
X79499003Y-68092396D01*
X79469999Y-68116199D01*
X79423981Y-68172273D01*
X79375026Y-68231924D01*
X79339387Y-68298600D01*
X79304454Y-68363954D01*
X79260997Y-68507215D01*
X79250000Y-68618868D01*
X79250000Y-68618878D01*
X79246324Y-68656200D01*
X79250000Y-68693522D01*
X79250001Y-73168540D01*
X79137537Y-73000226D01*
X78993374Y-72856063D01*
X78823856Y-72742795D01*
X78635498Y-72664774D01*
X78435539Y-72625000D01*
X78357826Y-72625000D01*
X78225848Y-72554455D01*
X78082587Y-72510998D01*
X77970934Y-72500001D01*
X77970923Y-72500001D01*
X77933601Y-72496325D01*
X77896279Y-72500001D01*
X76191003Y-72500001D01*
X75334400Y-71643399D01*
X75334400Y-68242311D01*
X75378337Y-68198374D01*
X75491605Y-68028856D01*
X75569626Y-67840498D01*
X75609400Y-67640539D01*
X75609400Y-67436661D01*
X75569626Y-67236702D01*
X75491605Y-67048344D01*
X75378337Y-66878826D01*
X75234174Y-66734663D01*
X75064656Y-66621395D01*
X74876298Y-66543374D01*
X74676339Y-66503600D01*
X74472461Y-66503600D01*
X74272502Y-66543374D01*
X74084144Y-66621395D01*
X73914626Y-66734663D01*
X73770463Y-66878826D01*
X73657195Y-67048344D01*
X73579174Y-67236702D01*
X73539400Y-67436661D01*
X73539400Y-67640539D01*
X73579174Y-67840498D01*
X73657195Y-68028856D01*
X73770463Y-68198374D01*
X73814401Y-68242312D01*
X73814400Y-71920877D01*
X73810724Y-71958200D01*
X73814400Y-71995522D01*
X73814400Y-71995532D01*
X73825397Y-72107185D01*
X73850106Y-72188640D01*
X73868854Y-72250446D01*
X73939426Y-72382476D01*
X73979271Y-72431026D01*
X74034399Y-72498201D01*
X74063403Y-72522004D01*
X75312401Y-73771003D01*
X75336200Y-73800002D01*
X75451925Y-73894975D01*
X75583954Y-73965547D01*
X75727215Y-74009004D01*
X75838868Y-74020001D01*
X75838876Y-74020001D01*
X75876201Y-74023677D01*
X75913526Y-74020001D01*
X76038693Y-74020001D01*
X75990199Y-74059799D01*
X75966401Y-74088797D01*
X73806000Y-76249198D01*
X73806000Y-76098061D01*
X73766226Y-75898102D01*
X73688205Y-75709744D01*
X73574937Y-75540226D01*
X73531000Y-75496289D01*
X73531000Y-59758711D01*
X73574937Y-59714774D01*
X73688205Y-59545256D01*
X73766226Y-59356898D01*
X73806000Y-59156939D01*
X73806000Y-58953061D01*
X73766226Y-58753102D01*
X73688205Y-58564744D01*
X73574937Y-58395226D01*
X73430774Y-58251063D01*
X73261256Y-58137795D01*
X73072898Y-58059774D01*
X72872939Y-58020000D01*
X72669061Y-58020000D01*
X72469102Y-58059774D01*
X72280744Y-58137795D01*
X72111226Y-58251063D01*
X71967063Y-58395226D01*
X71853795Y-58564744D01*
X71775774Y-58753102D01*
X71736000Y-58953061D01*
X71736000Y-59156939D01*
X71775774Y-59356898D01*
X71853795Y-59545256D01*
X71967063Y-59714774D01*
X72011001Y-59758712D01*
X72011000Y-75496289D01*
X71967063Y-75540226D01*
X71853795Y-75709744D01*
X71775774Y-75898102D01*
X71736000Y-76098061D01*
X71736000Y-76301939D01*
X71775774Y-76501898D01*
X71853795Y-76690256D01*
X71967063Y-76859774D01*
X72111226Y-77003937D01*
X72280744Y-77117205D01*
X72469102Y-77195226D01*
X72669061Y-77235000D01*
X72820199Y-77235000D01*
X71411571Y-78643628D01*
X71257592Y-78613000D01*
X70982408Y-78613000D01*
X70712510Y-78666686D01*
X70458273Y-78771995D01*
X70229465Y-78924880D01*
X70034880Y-79119465D01*
X69881995Y-79348273D01*
X69850000Y-79425515D01*
X69818005Y-79348273D01*
X69665120Y-79119465D01*
X69470535Y-78924880D01*
X69241727Y-78771995D01*
X68987490Y-78666686D01*
X68717592Y-78613000D01*
X68442408Y-78613000D01*
X68172510Y-78666686D01*
X67918273Y-78771995D01*
X67689465Y-78924880D01*
X67494880Y-79119465D01*
X67341995Y-79348273D01*
X67312308Y-79419943D01*
X67307636Y-79406977D01*
X67245656Y-79291020D01*
X67005565Y-79224040D01*
X66219605Y-80010000D01*
X67005565Y-80795960D01*
X67245656Y-80728980D01*
X67309485Y-80593240D01*
X67341995Y-80671727D01*
X67494880Y-80900535D01*
X67689465Y-81095120D01*
X67918273Y-81248005D01*
X68172510Y-81353314D01*
X68442408Y-81407000D01*
X68717592Y-81407000D01*
X68987490Y-81353314D01*
X69241727Y-81248005D01*
X69470535Y-81095120D01*
X69665120Y-80900535D01*
X69818005Y-80671727D01*
X69850000Y-80594485D01*
X69881995Y-80671727D01*
X70034880Y-80900535D01*
X70229465Y-81095120D01*
X70458273Y-81248005D01*
X70712510Y-81353314D01*
X70982408Y-81407000D01*
X71257592Y-81407000D01*
X71527490Y-81353314D01*
X71781727Y-81248005D01*
X72010535Y-81095120D01*
X72205120Y-80900535D01*
X72358005Y-80671727D01*
X72390000Y-80594485D01*
X72421995Y-80671727D01*
X72574880Y-80900535D01*
X72769465Y-81095120D01*
X72998273Y-81248005D01*
X73252510Y-81353314D01*
X73522408Y-81407000D01*
X73728198Y-81407000D01*
X73294399Y-81840800D01*
X69963523Y-81840800D01*
X69926200Y-81837124D01*
X69888877Y-81840800D01*
X69888867Y-81840800D01*
X69777214Y-81851797D01*
X69633953Y-81895254D01*
X69501923Y-81965826D01*
X69432012Y-82023201D01*
X69386199Y-82060799D01*
X69362401Y-82089797D01*
X64259003Y-87193196D01*
X64229999Y-87216999D01*
X64180590Y-87277205D01*
X64135026Y-87332724D01*
X64071243Y-87452053D01*
X64064454Y-87464754D01*
X64020997Y-87608015D01*
X64010000Y-87719668D01*
X64010000Y-87719678D01*
X64006324Y-87757000D01*
X64010000Y-87794323D01*
X64010000Y-88617312D01*
X63906907Y-88574609D01*
X63637396Y-88521000D01*
X63362604Y-88521000D01*
X63093093Y-88574609D01*
X62890000Y-88658733D01*
X62890000Y-80975565D01*
X65254040Y-80975565D01*
X65321020Y-81215656D01*
X65570048Y-81332756D01*
X65837135Y-81399023D01*
X66112017Y-81411910D01*
X66384133Y-81370922D01*
X66643023Y-81277636D01*
X66758980Y-81215656D01*
X66825960Y-80975565D01*
X66040000Y-80189605D01*
X65254040Y-80975565D01*
X62890000Y-80975565D01*
X62890000Y-80082017D01*
X64638090Y-80082017D01*
X64679078Y-80354133D01*
X64772364Y-80613023D01*
X64834344Y-80728980D01*
X65074435Y-80795960D01*
X65860395Y-80010000D01*
X65074435Y-79224040D01*
X64834344Y-79291020D01*
X64717244Y-79540048D01*
X64650977Y-79807135D01*
X64638090Y-80082017D01*
X62890000Y-80082017D01*
X62890000Y-79044435D01*
X65254040Y-79044435D01*
X66040000Y-79830395D01*
X66825960Y-79044435D01*
X66758980Y-78804344D01*
X66509952Y-78687244D01*
X66242865Y-78620977D01*
X65967983Y-78608090D01*
X65695867Y-78649078D01*
X65436977Y-78742364D01*
X65321020Y-78804344D01*
X65254040Y-79044435D01*
X62890000Y-79044435D01*
X62890000Y-50533267D01*
X63093093Y-50617391D01*
X63362604Y-50671000D01*
X63637396Y-50671000D01*
X63906907Y-50617391D01*
X64160780Y-50512233D01*
X64389261Y-50359567D01*
X64583567Y-50165261D01*
X64736233Y-49936780D01*
X64770000Y-49855260D01*
X64803767Y-49936780D01*
X64956433Y-50165261D01*
X65150739Y-50359567D01*
X65379220Y-50512233D01*
X65633093Y-50617391D01*
X65902604Y-50671000D01*
X66177396Y-50671000D01*
X66446907Y-50617391D01*
X66700780Y-50512233D01*
X66929261Y-50359567D01*
X67123567Y-50165261D01*
X67276233Y-49936780D01*
X67310000Y-49855260D01*
X67343767Y-49936780D01*
X67496433Y-50165261D01*
X67690739Y-50359567D01*
X67919220Y-50512233D01*
X68173093Y-50617391D01*
X68442604Y-50671000D01*
X68717396Y-50671000D01*
X68986907Y-50617391D01*
X69240780Y-50512233D01*
X69469261Y-50359567D01*
X69663567Y-50165261D01*
X69816233Y-49936780D01*
X69850000Y-49855260D01*
X69883767Y-49936780D01*
X70036433Y-50165261D01*
X70230739Y-50359567D01*
X70459220Y-50512233D01*
X70713093Y-50617391D01*
X70982604Y-50671000D01*
X71257396Y-50671000D01*
X71526907Y-50617391D01*
X71780780Y-50512233D01*
X72009261Y-50359567D01*
X72203567Y-50165261D01*
X72356233Y-49936780D01*
X72390000Y-49855260D01*
X72423767Y-49936780D01*
X72576433Y-50165261D01*
X72770739Y-50359567D01*
X72999220Y-50512233D01*
X73253093Y-50617391D01*
X73522604Y-50671000D01*
X73797396Y-50671000D01*
X74066907Y-50617391D01*
X74320780Y-50512233D01*
X74549261Y-50359567D01*
X74743567Y-50165261D01*
X74896233Y-49936780D01*
X74930000Y-49855260D01*
X74963767Y-49936780D01*
X75116433Y-50165261D01*
X75310739Y-50359567D01*
X75539220Y-50512233D01*
X75793093Y-50617391D01*
X76062604Y-50671000D01*
X76337396Y-50671000D01*
X76606907Y-50617391D01*
X76860780Y-50512233D01*
X77089261Y-50359567D01*
X77283567Y-50165261D01*
X77436233Y-49936780D01*
X77470000Y-49855260D01*
X77503767Y-49936780D01*
X77656433Y-50165261D01*
X77850739Y-50359567D01*
X78079220Y-50512233D01*
X78333093Y-50617391D01*
X78602604Y-50671000D01*
X78877396Y-50671000D01*
X79146907Y-50617391D01*
X79400780Y-50512233D01*
X79629261Y-50359567D01*
X79823567Y-50165261D01*
X79976233Y-49936780D01*
X80010000Y-49855260D01*
X80043767Y-49936780D01*
X80196433Y-50165261D01*
X80390739Y-50359567D01*
X80619220Y-50512233D01*
X80873093Y-50617391D01*
X81142604Y-50671000D01*
X81417396Y-50671000D01*
X81686907Y-50617391D01*
X81940780Y-50512233D01*
X82169261Y-50359567D01*
X82363567Y-50165261D01*
X82516233Y-49936780D01*
X82550000Y-49855260D01*
X82583767Y-49936780D01*
X82736433Y-50165261D01*
X82930739Y-50359567D01*
X83159220Y-50512233D01*
X83413093Y-50617391D01*
X83682604Y-50671000D01*
X83957396Y-50671000D01*
X84226907Y-50617391D01*
X84480780Y-50512233D01*
X84709261Y-50359567D01*
X84903567Y-50165261D01*
X85056233Y-49936780D01*
X85090000Y-49855260D01*
X85123767Y-49936780D01*
X85276433Y-50165261D01*
X85470739Y-50359567D01*
X85699220Y-50512233D01*
X85953093Y-50617391D01*
X86222604Y-50671000D01*
X86497396Y-50671000D01*
X86766907Y-50617391D01*
X87020780Y-50512233D01*
X87249261Y-50359567D01*
X87443567Y-50165261D01*
X87596233Y-49936780D01*
X87701391Y-49682907D01*
X87755000Y-49413396D01*
X87755000Y-49138604D01*
X87701391Y-48869093D01*
X87596233Y-48615220D01*
X87443567Y-48386739D01*
X87249261Y-48192433D01*
X87020780Y-48039767D01*
X86939260Y-48006000D01*
X87020780Y-47972233D01*
X87249261Y-47819567D01*
X87443567Y-47625261D01*
X87596233Y-47396780D01*
X87701391Y-47142907D01*
X87755000Y-46873396D01*
X87755000Y-46598604D01*
X87701391Y-46329093D01*
X87596233Y-46075220D01*
X87443567Y-45846739D01*
X87368691Y-45771863D01*
X126215469Y-45771863D01*
X127000000Y-46556395D01*
X127784531Y-45771863D01*
X127717794Y-45531975D01*
X127469108Y-45415076D01*
X127202394Y-45348939D01*
X126927903Y-45336105D01*
X126656183Y-45377069D01*
X126397674Y-45470256D01*
X126282206Y-45531975D01*
X126215469Y-45771863D01*
X87368691Y-45771863D01*
X87249261Y-45652433D01*
X87020780Y-45499767D01*
X86766907Y-45394609D01*
X86497396Y-45341000D01*
X86222604Y-45341000D01*
X85953093Y-45394609D01*
X85699220Y-45499767D01*
X85470739Y-45652433D01*
X85276433Y-45846739D01*
X85123767Y-46075220D01*
X85090000Y-46156740D01*
X85056233Y-46075220D01*
X84903567Y-45846739D01*
X84709261Y-45652433D01*
X84480780Y-45499767D01*
X84226907Y-45394609D01*
X83957396Y-45341000D01*
X83682604Y-45341000D01*
X83413093Y-45394609D01*
X83159220Y-45499767D01*
X82930739Y-45652433D01*
X82736433Y-45846739D01*
X82583767Y-46075220D01*
X82550000Y-46156740D01*
X82516233Y-46075220D01*
X82363567Y-45846739D01*
X82169261Y-45652433D01*
X81940780Y-45499767D01*
X81686907Y-45394609D01*
X81417396Y-45341000D01*
X81142604Y-45341000D01*
X80873093Y-45394609D01*
X80619220Y-45499767D01*
X80390739Y-45652433D01*
X80196433Y-45846739D01*
X80043767Y-46075220D01*
X80010000Y-46156740D01*
X79976233Y-46075220D01*
X79823567Y-45846739D01*
X79629261Y-45652433D01*
X79400780Y-45499767D01*
X79146907Y-45394609D01*
X78877396Y-45341000D01*
X78602604Y-45341000D01*
X78333093Y-45394609D01*
X78079220Y-45499767D01*
X77850739Y-45652433D01*
X77656433Y-45846739D01*
X77503767Y-46075220D01*
X77470000Y-46156740D01*
X77436233Y-46075220D01*
X77283567Y-45846739D01*
X77089261Y-45652433D01*
X76860780Y-45499767D01*
X76606907Y-45394609D01*
X76337396Y-45341000D01*
X76062604Y-45341000D01*
X75793093Y-45394609D01*
X75539220Y-45499767D01*
X75310739Y-45652433D01*
X75116433Y-45846739D01*
X74963767Y-46075220D01*
X74930000Y-46156740D01*
X74896233Y-46075220D01*
X74743567Y-45846739D01*
X74549261Y-45652433D01*
X74320780Y-45499767D01*
X74066907Y-45394609D01*
X73797396Y-45341000D01*
X73522604Y-45341000D01*
X73253093Y-45394609D01*
X72999220Y-45499767D01*
X72770739Y-45652433D01*
X72576433Y-45846739D01*
X72423767Y-46075220D01*
X72390000Y-46156740D01*
X72356233Y-46075220D01*
X72203567Y-45846739D01*
X72009261Y-45652433D01*
X71780780Y-45499767D01*
X71526907Y-45394609D01*
X71257396Y-45341000D01*
X70982604Y-45341000D01*
X70713093Y-45394609D01*
X70459220Y-45499767D01*
X70230739Y-45652433D01*
X70036433Y-45846739D01*
X69883767Y-46075220D01*
X69850000Y-46156740D01*
X69816233Y-46075220D01*
X69663567Y-45846739D01*
X69469261Y-45652433D01*
X69240780Y-45499767D01*
X68986907Y-45394609D01*
X68717396Y-45341000D01*
X68442604Y-45341000D01*
X68173093Y-45394609D01*
X67919220Y-45499767D01*
X67690739Y-45652433D01*
X67496433Y-45846739D01*
X67343767Y-46075220D01*
X67310000Y-46156740D01*
X67276233Y-46075220D01*
X67123567Y-45846739D01*
X66929261Y-45652433D01*
X66700780Y-45499767D01*
X66446907Y-45394609D01*
X66177396Y-45341000D01*
X65902604Y-45341000D01*
X65633093Y-45394609D01*
X65379220Y-45499767D01*
X65150739Y-45652433D01*
X64956433Y-45846739D01*
X64803767Y-46075220D01*
X64772170Y-46151501D01*
X64765744Y-46133674D01*
X64704025Y-46018206D01*
X64464137Y-45951469D01*
X63679605Y-46736000D01*
X64464137Y-47520531D01*
X64704025Y-47453794D01*
X64769600Y-47314293D01*
X64803767Y-47396780D01*
X64956433Y-47625261D01*
X65150739Y-47819567D01*
X65379220Y-47972233D01*
X65460740Y-48006000D01*
X65379220Y-48039767D01*
X65150739Y-48192433D01*
X64956433Y-48386739D01*
X64803767Y-48615220D01*
X64770000Y-48696740D01*
X64736233Y-48615220D01*
X64583567Y-48386739D01*
X64389261Y-48192433D01*
X64160780Y-48039767D01*
X64084499Y-48008170D01*
X64102326Y-48001744D01*
X64217794Y-47940025D01*
X64284531Y-47700137D01*
X63500000Y-46915605D01*
X63485858Y-46929748D01*
X63306252Y-46750142D01*
X63320395Y-46736000D01*
X63306252Y-46721858D01*
X63485858Y-46542252D01*
X63500000Y-46556395D01*
X64284531Y-45771863D01*
X64217794Y-45531975D01*
X63969108Y-45415076D01*
X63702394Y-45348939D01*
X63427903Y-45336105D01*
X63156183Y-45377069D01*
X62897674Y-45470256D01*
X62890000Y-45474358D01*
X62890000Y-42613290D01*
X164439600Y-42613290D01*
X164439600Y-43238710D01*
X164561614Y-43852113D01*
X164800952Y-44429926D01*
X165148417Y-44949944D01*
X165590656Y-45392183D01*
X166110674Y-45739648D01*
X166688487Y-45978986D01*
X167301890Y-46101000D01*
X167927310Y-46101000D01*
X168540713Y-45978986D01*
X169118526Y-45739648D01*
X169638544Y-45392183D01*
X170080783Y-44949944D01*
X170428248Y-44429926D01*
X170667586Y-43852113D01*
X170789600Y-43238710D01*
X170789600Y-42613290D01*
X170667586Y-41999887D01*
X170428248Y-41422074D01*
X170080783Y-40902056D01*
X169638544Y-40459817D01*
X169118526Y-40112352D01*
X168540713Y-39873014D01*
X167927310Y-39751000D01*
X167301890Y-39751000D01*
X166688487Y-39873014D01*
X166110674Y-40112352D01*
X165590656Y-40459817D01*
X165148417Y-40902056D01*
X164800952Y-41422074D01*
X164561614Y-41999887D01*
X164439600Y-42613290D01*
X62890000Y-42613290D01*
X62890000Y-38685088D01*
X186030000Y-39000985D01*
X186030000Y-39000985D01*
G37*
X186030000Y-39000985D02*
X186030001Y-57605769D01*
X185881496Y-57543507D01*
X185643000Y-57495000D01*
X185293000Y-57495000D01*
X185293000Y-58603000D01*
X185313000Y-58603000D01*
X185313000Y-58857000D01*
X185293000Y-58857000D01*
X185293000Y-59965000D01*
X185643000Y-59965000D01*
X185881496Y-59916493D01*
X186030001Y-59854231D01*
X186030001Y-64605769D01*
X185881496Y-64543507D01*
X185643000Y-64495000D01*
X185293000Y-64495000D01*
X185293000Y-65603000D01*
X185313000Y-65603000D01*
X185313000Y-65857000D01*
X185293000Y-65857000D01*
X185293000Y-66965000D01*
X185643000Y-66965000D01*
X185881496Y-66916493D01*
X186030001Y-66854231D01*
X186030001Y-70513292D01*
X169194890Y-70688207D01*
X169170140Y-70690904D01*
X169146392Y-70698379D01*
X169124558Y-70710342D01*
X169105478Y-70726335D01*
X169089885Y-70745743D01*
X169078378Y-70767821D01*
X169071399Y-70791719D01*
X169069209Y-70815200D01*
X169069209Y-72746000D01*
X168942419Y-72746000D01*
X168910000Y-72742807D01*
X168780617Y-72755550D01*
X168656207Y-72793290D01*
X168541550Y-72854575D01*
X168441052Y-72937052D01*
X168358575Y-73037550D01*
X168297290Y-73152207D01*
X168259550Y-73276617D01*
X168246807Y-73406000D01*
X168250000Y-73438419D01*
X168250001Y-94201571D01*
X168246807Y-94234000D01*
X168259550Y-94363383D01*
X168297290Y-94487793D01*
X168358575Y-94602450D01*
X168441052Y-94702948D01*
X168541550Y-94785425D01*
X168656207Y-94846710D01*
X168780617Y-94884450D01*
X168877581Y-94894000D01*
X168910000Y-94897193D01*
X168942419Y-94894000D01*
X169069209Y-94894000D01*
X169069209Y-96215200D01*
X169071649Y-96239976D01*
X169078876Y-96263801D01*
X169090612Y-96285757D01*
X169106406Y-96305003D01*
X169125652Y-96320797D01*
X169147608Y-96332533D01*
X169171433Y-96339760D01*
X169196209Y-96342200D01*
X184309209Y-96342200D01*
X184309209Y-105190425D01*
X184221068Y-105359022D01*
X184198656Y-105414494D01*
X184175478Y-105469632D01*
X184172815Y-105478454D01*
X184060845Y-105858896D01*
X184049645Y-105917612D01*
X184037607Y-105976254D01*
X184036708Y-105985425D01*
X184000766Y-106380370D01*
X184001184Y-106440186D01*
X184000766Y-106500003D01*
X184001665Y-106509174D01*
X184043118Y-106903577D01*
X184055148Y-106962183D01*
X184066355Y-107020935D01*
X184069019Y-107029757D01*
X184186290Y-107408599D01*
X184209474Y-107463750D01*
X184231880Y-107519208D01*
X184236206Y-107527345D01*
X184309209Y-107662361D01*
X184309209Y-117678200D01*
X63913209Y-117678200D01*
X63913209Y-110215180D01*
X65169801Y-107701996D01*
X65178699Y-107678744D01*
X65183209Y-107645200D01*
X65183209Y-105105200D01*
X65180769Y-105080424D01*
X65173542Y-105056599D01*
X65161806Y-105034643D01*
X65146012Y-105015397D01*
X62890000Y-102759385D01*
X62890000Y-93713267D01*
X63093093Y-93797391D01*
X63362604Y-93851000D01*
X63637396Y-93851000D01*
X63906907Y-93797391D01*
X64160780Y-93692233D01*
X64389261Y-93539567D01*
X64583567Y-93345261D01*
X64736233Y-93116780D01*
X64770000Y-93035260D01*
X64803767Y-93116780D01*
X64956433Y-93345261D01*
X65150739Y-93539567D01*
X65379220Y-93692233D01*
X65633093Y-93797391D01*
X65902604Y-93851000D01*
X66177396Y-93851000D01*
X66446907Y-93797391D01*
X66700780Y-93692233D01*
X66929261Y-93539567D01*
X67123567Y-93345261D01*
X67276233Y-93116780D01*
X67310000Y-93035260D01*
X67343767Y-93116780D01*
X67496433Y-93345261D01*
X67690739Y-93539567D01*
X67919220Y-93692233D01*
X68173093Y-93797391D01*
X68442604Y-93851000D01*
X68717396Y-93851000D01*
X68986907Y-93797391D01*
X69240780Y-93692233D01*
X69469261Y-93539567D01*
X69663567Y-93345261D01*
X69816233Y-93116780D01*
X69850000Y-93035260D01*
X69883767Y-93116780D01*
X70036433Y-93345261D01*
X70230739Y-93539567D01*
X70459220Y-93692233D01*
X70713093Y-93797391D01*
X70982604Y-93851000D01*
X71257396Y-93851000D01*
X71526907Y-93797391D01*
X71780780Y-93692233D01*
X72009261Y-93539567D01*
X72203567Y-93345261D01*
X72356233Y-93116780D01*
X72390000Y-93035260D01*
X72423767Y-93116780D01*
X72576433Y-93345261D01*
X72770739Y-93539567D01*
X72999220Y-93692233D01*
X73253093Y-93797391D01*
X73522604Y-93851000D01*
X73797396Y-93851000D01*
X74066907Y-93797391D01*
X74320780Y-93692233D01*
X74549261Y-93539567D01*
X74743567Y-93345261D01*
X74896233Y-93116780D01*
X74930000Y-93035260D01*
X74963767Y-93116780D01*
X75116433Y-93345261D01*
X75310739Y-93539567D01*
X75539220Y-93692233D01*
X75793093Y-93797391D01*
X76062604Y-93851000D01*
X76337396Y-93851000D01*
X76606907Y-93797391D01*
X76860780Y-93692233D01*
X77089261Y-93539567D01*
X77283567Y-93345261D01*
X77436233Y-93116780D01*
X77470000Y-93035260D01*
X77503767Y-93116780D01*
X77656433Y-93345261D01*
X77850739Y-93539567D01*
X78079220Y-93692233D01*
X78333093Y-93797391D01*
X78602604Y-93851000D01*
X78877396Y-93851000D01*
X79146907Y-93797391D01*
X79400780Y-93692233D01*
X79629261Y-93539567D01*
X79823567Y-93345261D01*
X79976233Y-93116780D01*
X80010000Y-93035260D01*
X80043767Y-93116780D01*
X80196433Y-93345261D01*
X80390739Y-93539567D01*
X80619220Y-93692233D01*
X80873093Y-93797391D01*
X81142604Y-93851000D01*
X81417396Y-93851000D01*
X81686907Y-93797391D01*
X81940780Y-93692233D01*
X82169261Y-93539567D01*
X82363567Y-93345261D01*
X82516233Y-93116780D01*
X82550000Y-93035260D01*
X82583767Y-93116780D01*
X82736433Y-93345261D01*
X82930739Y-93539567D01*
X83159220Y-93692233D01*
X83413093Y-93797391D01*
X83682604Y-93851000D01*
X83957396Y-93851000D01*
X84226907Y-93797391D01*
X84480780Y-93692233D01*
X84709261Y-93539567D01*
X84903567Y-93345261D01*
X85056233Y-93116780D01*
X85090000Y-93035260D01*
X85123767Y-93116780D01*
X85276433Y-93345261D01*
X85470739Y-93539567D01*
X85699220Y-93692233D01*
X85953093Y-93797391D01*
X86222604Y-93851000D01*
X86497396Y-93851000D01*
X86766907Y-93797391D01*
X87020780Y-93692233D01*
X87249261Y-93539567D01*
X87443567Y-93345261D01*
X87596233Y-93116780D01*
X87701391Y-92862907D01*
X87755000Y-92593396D01*
X87755000Y-92318604D01*
X87701391Y-92049093D01*
X87596233Y-91795220D01*
X87443567Y-91566739D01*
X87249261Y-91372433D01*
X87020780Y-91219767D01*
X86939260Y-91186000D01*
X87020780Y-91152233D01*
X87249261Y-90999567D01*
X87443567Y-90805261D01*
X87596233Y-90576780D01*
X87701391Y-90322907D01*
X87755000Y-90053396D01*
X87755000Y-89998201D01*
X91808802Y-94052004D01*
X91832600Y-94081002D01*
X91948325Y-94175975D01*
X92080354Y-94246547D01*
X92223615Y-94290004D01*
X92335268Y-94301001D01*
X92335276Y-94301001D01*
X92372601Y-94304677D01*
X92409926Y-94301001D01*
X143657677Y-94301001D01*
X143694999Y-94304677D01*
X143732321Y-94301001D01*
X143732332Y-94301001D01*
X143843985Y-94290004D01*
X143987246Y-94246547D01*
X144119275Y-94175975D01*
X144235000Y-94081002D01*
X144258803Y-94051999D01*
X144490130Y-93820671D01*
X144642604Y-93851000D01*
X144917396Y-93851000D01*
X145186907Y-93797391D01*
X145440780Y-93692233D01*
X145669261Y-93539567D01*
X145863567Y-93345261D01*
X146016233Y-93116780D01*
X146050000Y-93035260D01*
X146083767Y-93116780D01*
X146236433Y-93345261D01*
X146430739Y-93539567D01*
X146659220Y-93692233D01*
X146913093Y-93797391D01*
X147182604Y-93851000D01*
X147457396Y-93851000D01*
X147726907Y-93797391D01*
X147980780Y-93692233D01*
X148209261Y-93539567D01*
X148403567Y-93345261D01*
X148556233Y-93116780D01*
X148590000Y-93035260D01*
X148623767Y-93116780D01*
X148776433Y-93345261D01*
X148970739Y-93539567D01*
X149199220Y-93692233D01*
X149453093Y-93797391D01*
X149722604Y-93851000D01*
X149997396Y-93851000D01*
X150266907Y-93797391D01*
X150520780Y-93692233D01*
X150749261Y-93539567D01*
X150943567Y-93345261D01*
X151096233Y-93116780D01*
X151201391Y-92862907D01*
X151255000Y-92593396D01*
X151255000Y-92318604D01*
X151201391Y-92049093D01*
X151096233Y-91795220D01*
X150943567Y-91566739D01*
X150749261Y-91372433D01*
X150520780Y-91219767D01*
X150439260Y-91186000D01*
X150520780Y-91152233D01*
X150749261Y-90999567D01*
X150943567Y-90805261D01*
X151096233Y-90576780D01*
X151201391Y-90322907D01*
X151255000Y-90053396D01*
X151255000Y-89778604D01*
X151201391Y-89509093D01*
X151096233Y-89255220D01*
X150943567Y-89026739D01*
X150749261Y-88832433D01*
X150520780Y-88679767D01*
X150266907Y-88574609D01*
X149997396Y-88521000D01*
X149722604Y-88521000D01*
X149453093Y-88574609D01*
X149199220Y-88679767D01*
X148970739Y-88832433D01*
X148776433Y-89026739D01*
X148623767Y-89255220D01*
X148590000Y-89336740D01*
X148556233Y-89255220D01*
X148403567Y-89026739D01*
X148209261Y-88832433D01*
X147980780Y-88679767D01*
X147726907Y-88574609D01*
X147457396Y-88521000D01*
X147182604Y-88521000D01*
X146913093Y-88574609D01*
X146659220Y-88679767D01*
X146430739Y-88832433D01*
X146236433Y-89026739D01*
X146083767Y-89255220D01*
X146050000Y-89336740D01*
X146016233Y-89255220D01*
X145863567Y-89026739D01*
X145669261Y-88832433D01*
X145440780Y-88679767D01*
X145186907Y-88574609D01*
X144917396Y-88521000D01*
X144642604Y-88521000D01*
X144373093Y-88574609D01*
X144119220Y-88679767D01*
X143890739Y-88832433D01*
X143696433Y-89026739D01*
X143543767Y-89255220D01*
X143510000Y-89336740D01*
X143476233Y-89255220D01*
X143323567Y-89026739D01*
X143129261Y-88832433D01*
X142900780Y-88679767D01*
X142646907Y-88574609D01*
X142377396Y-88521000D01*
X142102604Y-88521000D01*
X141833093Y-88574609D01*
X141579220Y-88679767D01*
X141350739Y-88832433D01*
X141156433Y-89026739D01*
X141003767Y-89255220D01*
X140970000Y-89336740D01*
X140936233Y-89255220D01*
X140783567Y-89026739D01*
X140589261Y-88832433D01*
X140360780Y-88679767D01*
X140106907Y-88574609D01*
X139837396Y-88521000D01*
X139562604Y-88521000D01*
X139293093Y-88574609D01*
X139039220Y-88679767D01*
X138810739Y-88832433D01*
X138616433Y-89026739D01*
X138463767Y-89255220D01*
X138430000Y-89336740D01*
X138396233Y-89255220D01*
X138243567Y-89026739D01*
X138049261Y-88832433D01*
X137820780Y-88679767D01*
X137566907Y-88574609D01*
X137297396Y-88521000D01*
X137022604Y-88521000D01*
X136870131Y-88551329D01*
X134602263Y-86283461D01*
X138360200Y-86283461D01*
X138360200Y-86487339D01*
X138399974Y-86687298D01*
X138477995Y-86875656D01*
X138591263Y-87045174D01*
X138735426Y-87189337D01*
X138904944Y-87302605D01*
X139093302Y-87380626D01*
X139293261Y-87420400D01*
X139497139Y-87420400D01*
X139697098Y-87380626D01*
X139885456Y-87302605D01*
X140054974Y-87189337D01*
X140098911Y-87145400D01*
X143415889Y-87145400D01*
X143459826Y-87189337D01*
X143629344Y-87302605D01*
X143817702Y-87380626D01*
X144017661Y-87420400D01*
X144221539Y-87420400D01*
X144421498Y-87380626D01*
X144609856Y-87302605D01*
X144779374Y-87189337D01*
X144923537Y-87045174D01*
X145036805Y-86875656D01*
X145114826Y-86687298D01*
X145154600Y-86487339D01*
X145154600Y-86283461D01*
X145114826Y-86083502D01*
X145036805Y-85895144D01*
X144923537Y-85725626D01*
X144779374Y-85581463D01*
X144609856Y-85468195D01*
X144421498Y-85390174D01*
X144221539Y-85350400D01*
X144017661Y-85350400D01*
X143817702Y-85390174D01*
X143629344Y-85468195D01*
X143459826Y-85581463D01*
X143415889Y-85625400D01*
X140098911Y-85625400D01*
X140054974Y-85581463D01*
X139885456Y-85468195D01*
X139697098Y-85390174D01*
X139497139Y-85350400D01*
X139293261Y-85350400D01*
X139093302Y-85390174D01*
X138904944Y-85468195D01*
X138735426Y-85581463D01*
X138591263Y-85725626D01*
X138477995Y-85895144D01*
X138399974Y-86083502D01*
X138360200Y-86283461D01*
X134602263Y-86283461D01*
X134191804Y-85873003D01*
X134168001Y-85843999D01*
X134052276Y-85749026D01*
X133920247Y-85678454D01*
X133776986Y-85634997D01*
X133665333Y-85624000D01*
X133665322Y-85624000D01*
X133628000Y-85620324D01*
X133590678Y-85624000D01*
X128675376Y-85624000D01*
X128704605Y-85580256D01*
X128782626Y-85391898D01*
X128822400Y-85191939D01*
X128822400Y-84988061D01*
X128782626Y-84788102D01*
X128704605Y-84599744D01*
X128591337Y-84430226D01*
X128547400Y-84386289D01*
X128547400Y-82186911D01*
X128591337Y-82142974D01*
X128704605Y-81973456D01*
X128782626Y-81785098D01*
X128822400Y-81585139D01*
X128822400Y-81381261D01*
X128782626Y-81181302D01*
X128704605Y-80992944D01*
X128591337Y-80823426D01*
X128537911Y-80770000D01*
X148260681Y-80770000D01*
X148272567Y-80776353D01*
X148428174Y-80823555D01*
X148590000Y-80839494D01*
X148751826Y-80823555D01*
X148907433Y-80776353D01*
X149050842Y-80699699D01*
X149145041Y-80622391D01*
X164098299Y-65669133D01*
X181706472Y-65669133D01*
X181768965Y-65905450D01*
X182011678Y-66018850D01*
X182271849Y-66082719D01*
X182539482Y-66094604D01*
X182804291Y-66054048D01*
X182822023Y-66047609D01*
X183622538Y-66047609D01*
X183626409Y-66085282D01*
X183718579Y-66310533D01*
X183852922Y-66513474D01*
X184024275Y-66686307D01*
X184226054Y-66822390D01*
X184450504Y-66916493D01*
X184689000Y-66965000D01*
X185039000Y-66965000D01*
X185039000Y-65857000D01*
X183747269Y-65857000D01*
X183622538Y-66047609D01*
X182822023Y-66047609D01*
X183056100Y-65962609D01*
X183163035Y-65905450D01*
X183225528Y-65669133D01*
X182466000Y-64909605D01*
X181706472Y-65669133D01*
X164098299Y-65669133D01*
X164963951Y-64803482D01*
X181101396Y-64803482D01*
X181141952Y-65068291D01*
X181233391Y-65320100D01*
X181290550Y-65427035D01*
X181526867Y-65489528D01*
X182286395Y-64730000D01*
X182645605Y-64730000D01*
X183405133Y-65489528D01*
X183633497Y-65429138D01*
X183747269Y-65603000D01*
X185039000Y-65603000D01*
X185039000Y-64495000D01*
X184689000Y-64495000D01*
X184450504Y-64543507D01*
X184226054Y-64637610D01*
X184024275Y-64773693D01*
X183852922Y-64946526D01*
X183789829Y-65041836D01*
X183818719Y-64924151D01*
X183830604Y-64656518D01*
X183790048Y-64391709D01*
X183698609Y-64139900D01*
X183641450Y-64032965D01*
X183405133Y-63970472D01*
X182645605Y-64730000D01*
X182286395Y-64730000D01*
X181526867Y-63970472D01*
X181290550Y-64032965D01*
X181177150Y-64275678D01*
X181113281Y-64535849D01*
X181101396Y-64803482D01*
X164963951Y-64803482D01*
X165441934Y-64325500D01*
X177172497Y-64325500D01*
X177309744Y-64417205D01*
X177498102Y-64495226D01*
X177698061Y-64535000D01*
X177901939Y-64535000D01*
X178101898Y-64495226D01*
X178290256Y-64417205D01*
X178459774Y-64303937D01*
X178603937Y-64159774D01*
X178717205Y-63990256D01*
X178795226Y-63801898D01*
X178797420Y-63790867D01*
X181706472Y-63790867D01*
X182466000Y-64550395D01*
X183225528Y-63790867D01*
X183163035Y-63554550D01*
X182920322Y-63441150D01*
X182660151Y-63377281D01*
X182392518Y-63365396D01*
X182127709Y-63405952D01*
X181875900Y-63497391D01*
X181768965Y-63554550D01*
X181706472Y-63790867D01*
X178797420Y-63790867D01*
X178835000Y-63601939D01*
X178835000Y-63398061D01*
X178795226Y-63198102D01*
X178717205Y-63009744D01*
X178603937Y-62840226D01*
X178459774Y-62696063D01*
X178290256Y-62582795D01*
X178101898Y-62504774D01*
X177901939Y-62465000D01*
X177698061Y-62465000D01*
X177498102Y-62504774D01*
X177309744Y-62582795D01*
X177172497Y-62674500D01*
X173656158Y-62674500D01*
X173715226Y-62531898D01*
X173747428Y-62370004D01*
X174331933Y-61785500D01*
X178442497Y-61785500D01*
X178579744Y-61877205D01*
X178768102Y-61955226D01*
X178968061Y-61995000D01*
X179171939Y-61995000D01*
X179371898Y-61955226D01*
X179560256Y-61877205D01*
X179729774Y-61763937D01*
X179873937Y-61619774D01*
X179987205Y-61450256D01*
X180065226Y-61261898D01*
X180105000Y-61061939D01*
X180105000Y-60858061D01*
X180067421Y-60669133D01*
X181706472Y-60669133D01*
X181768965Y-60905450D01*
X182011678Y-61018850D01*
X182271849Y-61082719D01*
X182539482Y-61094604D01*
X182804291Y-61054048D01*
X183056100Y-60962609D01*
X183163035Y-60905450D01*
X183225528Y-60669133D01*
X182466000Y-59909605D01*
X181706472Y-60669133D01*
X180067421Y-60669133D01*
X180065226Y-60658102D01*
X179987205Y-60469744D01*
X179873937Y-60300226D01*
X179729774Y-60156063D01*
X179560256Y-60042795D01*
X179371898Y-59964774D01*
X179171939Y-59925000D01*
X178968061Y-59925000D01*
X178768102Y-59964774D01*
X178579744Y-60042795D01*
X178442497Y-60134500D01*
X174030550Y-60134500D01*
X173989999Y-60130506D01*
X173949449Y-60134500D01*
X173949447Y-60134500D01*
X173828174Y-60146444D01*
X173672566Y-60193647D01*
X173579111Y-60243601D01*
X173529157Y-60270301D01*
X173492694Y-60300226D01*
X173403459Y-60373459D01*
X173377606Y-60404961D01*
X172579996Y-61202572D01*
X172418102Y-61234774D01*
X172229744Y-61312795D01*
X172060226Y-61426063D01*
X171916063Y-61570226D01*
X171802795Y-61739744D01*
X171724774Y-61928102D01*
X171685000Y-62128061D01*
X171685000Y-62331939D01*
X171724774Y-62531898D01*
X171783842Y-62674500D01*
X165140550Y-62674500D01*
X165100000Y-62670506D01*
X165059449Y-62674500D01*
X165059447Y-62674500D01*
X164938174Y-62686444D01*
X164782566Y-62733647D01*
X164639157Y-62810301D01*
X164544958Y-62887608D01*
X164544955Y-62887611D01*
X164513459Y-62913459D01*
X164487611Y-62944955D01*
X148182568Y-79250000D01*
X115607325Y-79250000D01*
X115570000Y-79246324D01*
X115532675Y-79250000D01*
X115532667Y-79250000D01*
X115421014Y-79260997D01*
X115277753Y-79304454D01*
X115145724Y-79375026D01*
X115029999Y-79469999D01*
X115006201Y-79498997D01*
X111455465Y-83049734D01*
X111442566Y-83053647D01*
X111299158Y-83130301D01*
X111173459Y-83233459D01*
X111070301Y-83359159D01*
X110993647Y-83502567D01*
X110946444Y-83658175D01*
X110934500Y-83779448D01*
X110934501Y-86018065D01*
X108731000Y-88221567D01*
X108731000Y-88188461D01*
X108691226Y-87988502D01*
X108613205Y-87800144D01*
X108499937Y-87630626D01*
X108456000Y-87586689D01*
X108456000Y-77843511D01*
X108499937Y-77799574D01*
X108613205Y-77630056D01*
X108691226Y-77441698D01*
X108731000Y-77241739D01*
X108731000Y-77037861D01*
X108691226Y-76837902D01*
X108662182Y-76767783D01*
X110129401Y-78235003D01*
X110153199Y-78264001D01*
X110182197Y-78287799D01*
X110268924Y-78358974D01*
X110400953Y-78429546D01*
X110544214Y-78473003D01*
X110693200Y-78487677D01*
X110730533Y-78484000D01*
X114905659Y-78484000D01*
X114992880Y-78614535D01*
X115187465Y-78809120D01*
X115416273Y-78962005D01*
X115670510Y-79067314D01*
X115940408Y-79121000D01*
X116215592Y-79121000D01*
X116485490Y-79067314D01*
X116739727Y-78962005D01*
X116968535Y-78809120D01*
X117163120Y-78614535D01*
X117316005Y-78385727D01*
X117348000Y-78308485D01*
X117379995Y-78385727D01*
X117532880Y-78614535D01*
X117727465Y-78809120D01*
X117956273Y-78962005D01*
X118210510Y-79067314D01*
X118480408Y-79121000D01*
X118755592Y-79121000D01*
X119025490Y-79067314D01*
X119279727Y-78962005D01*
X119508535Y-78809120D01*
X119628090Y-78689565D01*
X120372040Y-78689565D01*
X120439020Y-78929656D01*
X120688048Y-79046756D01*
X120955135Y-79113023D01*
X121230017Y-79125910D01*
X121502133Y-79084922D01*
X121761023Y-78991636D01*
X121876980Y-78929656D01*
X121943960Y-78689565D01*
X121158000Y-77903605D01*
X120372040Y-78689565D01*
X119628090Y-78689565D01*
X119703120Y-78614535D01*
X119856005Y-78385727D01*
X119885692Y-78314057D01*
X119890364Y-78327023D01*
X119952344Y-78442980D01*
X120192435Y-78509960D01*
X120978395Y-77724000D01*
X121337605Y-77724000D01*
X122123565Y-78509960D01*
X122363656Y-78442980D01*
X122427485Y-78307240D01*
X122459995Y-78385727D01*
X122612880Y-78614535D01*
X122807465Y-78809120D01*
X123036273Y-78962005D01*
X123290510Y-79067314D01*
X123560408Y-79121000D01*
X123835592Y-79121000D01*
X124105490Y-79067314D01*
X124359727Y-78962005D01*
X124588535Y-78809120D01*
X124783120Y-78614535D01*
X124936005Y-78385727D01*
X125041314Y-78131490D01*
X125095000Y-77861592D01*
X125095000Y-77586408D01*
X125041314Y-77316510D01*
X124936005Y-77062273D01*
X124783120Y-76833465D01*
X124588535Y-76638880D01*
X124359727Y-76485995D01*
X124105490Y-76380686D01*
X123835592Y-76327000D01*
X123560408Y-76327000D01*
X123290510Y-76380686D01*
X123036273Y-76485995D01*
X122807465Y-76638880D01*
X122612880Y-76833465D01*
X122459995Y-77062273D01*
X122430308Y-77133943D01*
X122425636Y-77120977D01*
X122363656Y-77005020D01*
X122123565Y-76938040D01*
X121337605Y-77724000D01*
X120978395Y-77724000D01*
X120192435Y-76938040D01*
X119952344Y-77005020D01*
X119888515Y-77140760D01*
X119856005Y-77062273D01*
X119703120Y-76833465D01*
X119628090Y-76758435D01*
X120372040Y-76758435D01*
X121158000Y-77544395D01*
X121943960Y-76758435D01*
X121876980Y-76518344D01*
X121627952Y-76401244D01*
X121360865Y-76334977D01*
X121085983Y-76322090D01*
X120813867Y-76363078D01*
X120554977Y-76456364D01*
X120439020Y-76518344D01*
X120372040Y-76758435D01*
X119628090Y-76758435D01*
X119508535Y-76638880D01*
X119279727Y-76485995D01*
X119025490Y-76380686D01*
X118755592Y-76327000D01*
X118480408Y-76327000D01*
X118326430Y-76357628D01*
X116413204Y-74444403D01*
X116389401Y-74415399D01*
X116273676Y-74320426D01*
X116141647Y-74249854D01*
X115998386Y-74206397D01*
X115886733Y-74195400D01*
X115886722Y-74195400D01*
X115849400Y-74191724D01*
X115812078Y-74195400D01*
X110990511Y-74195400D01*
X110946574Y-74151463D01*
X110777056Y-74038195D01*
X110588698Y-73960174D01*
X110388739Y-73920400D01*
X110184861Y-73920400D01*
X109984902Y-73960174D01*
X109796544Y-74038195D01*
X109627026Y-74151463D01*
X109482863Y-74295626D01*
X109369595Y-74465144D01*
X109291574Y-74653502D01*
X109251800Y-74853461D01*
X109251800Y-75057339D01*
X109289159Y-75245158D01*
X109086600Y-75042599D01*
X109086600Y-74980461D01*
X109046826Y-74780502D01*
X108968805Y-74592144D01*
X108855537Y-74422626D01*
X108711374Y-74278463D01*
X108541856Y-74165195D01*
X108353498Y-74087174D01*
X108153539Y-74047400D01*
X107949661Y-74047400D01*
X107749702Y-74087174D01*
X107561344Y-74165195D01*
X107505500Y-74202509D01*
X107505500Y-73271503D01*
X107597205Y-73134256D01*
X107675226Y-72945898D01*
X107715000Y-72745939D01*
X107715000Y-72542061D01*
X107675226Y-72342102D01*
X107597205Y-72153744D01*
X107483937Y-71984226D01*
X107445211Y-71945500D01*
X121371450Y-71945500D01*
X121412000Y-71949494D01*
X121452550Y-71945500D01*
X121452553Y-71945500D01*
X121573826Y-71933556D01*
X121729434Y-71886353D01*
X121872842Y-71809699D01*
X121998541Y-71706541D01*
X122024398Y-71675034D01*
X123483692Y-70215740D01*
X123560408Y-70231000D01*
X123835592Y-70231000D01*
X124105490Y-70177314D01*
X124359727Y-70072005D01*
X124588535Y-69919120D01*
X124783120Y-69724535D01*
X124936005Y-69495727D01*
X125041314Y-69241490D01*
X125095000Y-68971592D01*
X125095000Y-68696408D01*
X125041314Y-68426510D01*
X125009781Y-68350382D01*
X127909401Y-71250003D01*
X127933199Y-71279001D01*
X127962197Y-71302799D01*
X128048923Y-71373974D01*
X128169462Y-71438404D01*
X128180953Y-71444546D01*
X128324214Y-71488003D01*
X128435867Y-71499000D01*
X128435877Y-71499000D01*
X128473200Y-71502676D01*
X128510522Y-71499000D01*
X129344289Y-71499000D01*
X129388226Y-71542937D01*
X129557744Y-71656205D01*
X129746102Y-71734226D01*
X129946061Y-71774000D01*
X130149939Y-71774000D01*
X130349898Y-71734226D01*
X130538256Y-71656205D01*
X130707774Y-71542937D01*
X130851937Y-71398774D01*
X130965205Y-71229256D01*
X131043226Y-71040898D01*
X131083000Y-70840939D01*
X131083000Y-70637061D01*
X131043226Y-70437102D01*
X130965205Y-70248744D01*
X130851937Y-70079226D01*
X130707774Y-69935063D01*
X130538256Y-69821795D01*
X130360248Y-69748061D01*
X147555000Y-69748061D01*
X147555000Y-69951939D01*
X147594774Y-70151898D01*
X147672795Y-70340256D01*
X147786063Y-70509774D01*
X147930226Y-70653937D01*
X148099744Y-70767205D01*
X148288102Y-70845226D01*
X148488061Y-70885000D01*
X148691939Y-70885000D01*
X148891898Y-70845226D01*
X149080256Y-70767205D01*
X149217503Y-70675500D01*
X149719392Y-70675500D01*
X149759942Y-70679494D01*
X149800492Y-70675500D01*
X149800495Y-70675500D01*
X149921768Y-70663556D01*
X150077376Y-70616353D01*
X150220784Y-70539699D01*
X150346483Y-70436541D01*
X150372340Y-70405034D01*
X158035046Y-62742330D01*
X158066541Y-62716483D01*
X158092389Y-62684987D01*
X158092392Y-62684984D01*
X158169699Y-62590785D01*
X158246353Y-62447376D01*
X158269960Y-62369553D01*
X158293556Y-62291768D01*
X158305500Y-62170495D01*
X158305500Y-62170493D01*
X158309494Y-62129942D01*
X158305500Y-62089392D01*
X158305500Y-61587503D01*
X158397205Y-61450256D01*
X158475226Y-61261898D01*
X158515000Y-61061939D01*
X158515000Y-60858061D01*
X158475226Y-60658102D01*
X158397205Y-60469744D01*
X158283937Y-60300226D01*
X158139774Y-60156063D01*
X157970256Y-60042795D01*
X157781898Y-59964774D01*
X157581939Y-59925000D01*
X157378061Y-59925000D01*
X157178102Y-59964774D01*
X156989744Y-60042795D01*
X156820226Y-60156063D01*
X156676063Y-60300226D01*
X156562795Y-60469744D01*
X156484774Y-60658102D01*
X156445000Y-60858061D01*
X156445000Y-61061939D01*
X156484774Y-61261898D01*
X156562795Y-61450256D01*
X156654500Y-61587503D01*
X156654500Y-61788008D01*
X149418010Y-69024500D01*
X149217503Y-69024500D01*
X149080256Y-68932795D01*
X148891898Y-68854774D01*
X148691939Y-68815000D01*
X148488061Y-68815000D01*
X148288102Y-68854774D01*
X148099744Y-68932795D01*
X147930226Y-69046063D01*
X147786063Y-69190226D01*
X147672795Y-69359744D01*
X147594774Y-69548102D01*
X147555000Y-69748061D01*
X130360248Y-69748061D01*
X130349898Y-69743774D01*
X130149939Y-69704000D01*
X129946061Y-69704000D01*
X129746102Y-69743774D01*
X129557744Y-69821795D01*
X129388226Y-69935063D01*
X129344289Y-69979000D01*
X128788002Y-69979000D01*
X120952800Y-62143799D01*
X120952800Y-60822408D01*
X128651000Y-60822408D01*
X128651000Y-61097592D01*
X128704686Y-61367490D01*
X128809995Y-61621727D01*
X128962880Y-61850535D01*
X129157465Y-62045120D01*
X129386273Y-62198005D01*
X129640510Y-62303314D01*
X129910408Y-62357000D01*
X130185592Y-62357000D01*
X130455490Y-62303314D01*
X130709727Y-62198005D01*
X130938535Y-62045120D01*
X131133120Y-61850535D01*
X131286005Y-61621727D01*
X131391314Y-61367490D01*
X131445000Y-61097592D01*
X131445000Y-60822408D01*
X131391314Y-60552510D01*
X131286005Y-60298273D01*
X131133120Y-60069465D01*
X130938535Y-59874880D01*
X130831681Y-59803482D01*
X181101396Y-59803482D01*
X181141952Y-60068291D01*
X181233391Y-60320100D01*
X181290550Y-60427035D01*
X181526867Y-60489528D01*
X182286395Y-59730000D01*
X182645605Y-59730000D01*
X183405133Y-60489528D01*
X183641450Y-60427035D01*
X183754850Y-60184322D01*
X183818719Y-59924151D01*
X183830604Y-59656518D01*
X183795385Y-59426558D01*
X183852922Y-59513474D01*
X184024275Y-59686307D01*
X184226054Y-59822390D01*
X184450504Y-59916493D01*
X184689000Y-59965000D01*
X185039000Y-59965000D01*
X185039000Y-58857000D01*
X183747269Y-58857000D01*
X183633497Y-59030862D01*
X183405133Y-58970472D01*
X182645605Y-59730000D01*
X182286395Y-59730000D01*
X181526867Y-58970472D01*
X181290550Y-59032965D01*
X181177150Y-59275678D01*
X181113281Y-59535849D01*
X181101396Y-59803482D01*
X130831681Y-59803482D01*
X130709727Y-59721995D01*
X130638057Y-59692308D01*
X130651023Y-59687636D01*
X130766980Y-59625656D01*
X130833960Y-59385565D01*
X130048000Y-58599605D01*
X129262040Y-59385565D01*
X129329020Y-59625656D01*
X129464760Y-59689485D01*
X129386273Y-59721995D01*
X129157465Y-59874880D01*
X128962880Y-60069465D01*
X128809995Y-60298273D01*
X128704686Y-60552510D01*
X128651000Y-60822408D01*
X120952800Y-60822408D01*
X120952800Y-58492017D01*
X128646090Y-58492017D01*
X128687078Y-58764133D01*
X128780364Y-59023023D01*
X128842344Y-59138980D01*
X129082435Y-59205960D01*
X129868395Y-58420000D01*
X130227605Y-58420000D01*
X131013565Y-59205960D01*
X131253656Y-59138980D01*
X131370756Y-58889952D01*
X131395339Y-58790867D01*
X181706472Y-58790867D01*
X182466000Y-59550395D01*
X183225528Y-58790867D01*
X183163035Y-58554550D01*
X182920322Y-58441150D01*
X182803172Y-58412391D01*
X183622538Y-58412391D01*
X183747269Y-58603000D01*
X185039000Y-58603000D01*
X185039000Y-57495000D01*
X184689000Y-57495000D01*
X184450504Y-57543507D01*
X184226054Y-57637610D01*
X184024275Y-57773693D01*
X183852922Y-57946526D01*
X183718579Y-58149467D01*
X183626409Y-58374718D01*
X183622538Y-58412391D01*
X182803172Y-58412391D01*
X182660151Y-58377281D01*
X182392518Y-58365396D01*
X182127709Y-58405952D01*
X181875900Y-58497391D01*
X181768965Y-58554550D01*
X181706472Y-58790867D01*
X131395339Y-58790867D01*
X131437023Y-58622865D01*
X131449910Y-58347983D01*
X131408922Y-58075867D01*
X131315636Y-57816977D01*
X131253656Y-57701020D01*
X131013565Y-57634040D01*
X130227605Y-58420000D01*
X129868395Y-58420000D01*
X129082435Y-57634040D01*
X128842344Y-57701020D01*
X128725244Y-57950048D01*
X128658977Y-58217135D01*
X128646090Y-58492017D01*
X120952800Y-58492017D01*
X120952800Y-57454435D01*
X129262040Y-57454435D01*
X130048000Y-58240395D01*
X130833960Y-57454435D01*
X130766980Y-57214344D01*
X130517952Y-57097244D01*
X130250865Y-57030977D01*
X129975983Y-57018090D01*
X129703867Y-57059078D01*
X129444977Y-57152364D01*
X129329020Y-57214344D01*
X129262040Y-57454435D01*
X120952800Y-57454435D01*
X120952800Y-53031594D01*
X165562611Y-53031594D01*
X165843584Y-53453659D01*
X166395317Y-53748178D01*
X166993906Y-53929400D01*
X167616348Y-53990361D01*
X168238723Y-53928718D01*
X168837113Y-53746840D01*
X169385616Y-53453659D01*
X169666589Y-53031594D01*
X167614600Y-50979605D01*
X165562611Y-53031594D01*
X120952800Y-53031594D01*
X120952800Y-52818522D01*
X120956476Y-52781199D01*
X120952800Y-52743876D01*
X120952800Y-52743867D01*
X120941803Y-52632214D01*
X120898346Y-52488953D01*
X120827774Y-52356924D01*
X120732801Y-52241199D01*
X120703803Y-52217401D01*
X119288150Y-50801748D01*
X164424239Y-50801748D01*
X164485882Y-51424123D01*
X164667760Y-52022513D01*
X164960941Y-52571016D01*
X165383006Y-52851989D01*
X167434995Y-50800000D01*
X167794205Y-50800000D01*
X169846194Y-52851989D01*
X170268259Y-52571016D01*
X170562778Y-52019283D01*
X170744000Y-51420694D01*
X170804961Y-50798252D01*
X170743318Y-50175877D01*
X170561440Y-49577487D01*
X170268259Y-49028984D01*
X169846194Y-48748011D01*
X167794205Y-50800000D01*
X167434995Y-50800000D01*
X165383006Y-48748011D01*
X164960941Y-49028984D01*
X164666422Y-49580717D01*
X164485200Y-50179306D01*
X164424239Y-50801748D01*
X119288150Y-50801748D01*
X117625006Y-49138604D01*
X125605000Y-49138604D01*
X125605000Y-49413396D01*
X125658609Y-49682907D01*
X125763767Y-49936780D01*
X125916433Y-50165261D01*
X126110739Y-50359567D01*
X126339220Y-50512233D01*
X126593093Y-50617391D01*
X126862604Y-50671000D01*
X127137396Y-50671000D01*
X127406907Y-50617391D01*
X127660780Y-50512233D01*
X127889261Y-50359567D01*
X128083567Y-50165261D01*
X128236233Y-49936780D01*
X128270000Y-49855260D01*
X128303767Y-49936780D01*
X128456433Y-50165261D01*
X128650739Y-50359567D01*
X128879220Y-50512233D01*
X129133093Y-50617391D01*
X129402604Y-50671000D01*
X129677396Y-50671000D01*
X129946907Y-50617391D01*
X130200780Y-50512233D01*
X130429261Y-50359567D01*
X130623567Y-50165261D01*
X130776233Y-49936780D01*
X130810000Y-49855260D01*
X130843767Y-49936780D01*
X130996433Y-50165261D01*
X131190739Y-50359567D01*
X131419220Y-50512233D01*
X131673093Y-50617391D01*
X131942604Y-50671000D01*
X132217396Y-50671000D01*
X132486907Y-50617391D01*
X132740780Y-50512233D01*
X132969261Y-50359567D01*
X133163567Y-50165261D01*
X133316233Y-49936780D01*
X133350000Y-49855260D01*
X133383767Y-49936780D01*
X133536433Y-50165261D01*
X133730739Y-50359567D01*
X133959220Y-50512233D01*
X134213093Y-50617391D01*
X134482604Y-50671000D01*
X134757396Y-50671000D01*
X135026907Y-50617391D01*
X135280780Y-50512233D01*
X135509261Y-50359567D01*
X135703567Y-50165261D01*
X135856233Y-49936780D01*
X135890000Y-49855260D01*
X135923767Y-49936780D01*
X136076433Y-50165261D01*
X136270739Y-50359567D01*
X136499220Y-50512233D01*
X136753093Y-50617391D01*
X137022604Y-50671000D01*
X137297396Y-50671000D01*
X137566907Y-50617391D01*
X137820780Y-50512233D01*
X138049261Y-50359567D01*
X138243567Y-50165261D01*
X138396233Y-49936780D01*
X138430000Y-49855260D01*
X138463767Y-49936780D01*
X138616433Y-50165261D01*
X138810739Y-50359567D01*
X139039220Y-50512233D01*
X139293093Y-50617391D01*
X139562604Y-50671000D01*
X139837396Y-50671000D01*
X140106907Y-50617391D01*
X140360780Y-50512233D01*
X140589261Y-50359567D01*
X140783567Y-50165261D01*
X140936233Y-49936780D01*
X140970000Y-49855260D01*
X141003767Y-49936780D01*
X141156433Y-50165261D01*
X141350739Y-50359567D01*
X141579220Y-50512233D01*
X141833093Y-50617391D01*
X142102604Y-50671000D01*
X142377396Y-50671000D01*
X142646907Y-50617391D01*
X142900780Y-50512233D01*
X143129261Y-50359567D01*
X143323567Y-50165261D01*
X143476233Y-49936780D01*
X143510000Y-49855260D01*
X143543767Y-49936780D01*
X143696433Y-50165261D01*
X143890739Y-50359567D01*
X144119220Y-50512233D01*
X144373093Y-50617391D01*
X144642604Y-50671000D01*
X144917396Y-50671000D01*
X145186907Y-50617391D01*
X145440780Y-50512233D01*
X145669261Y-50359567D01*
X145863567Y-50165261D01*
X146016233Y-49936780D01*
X146050000Y-49855260D01*
X146083767Y-49936780D01*
X146236433Y-50165261D01*
X146430739Y-50359567D01*
X146659220Y-50512233D01*
X146913093Y-50617391D01*
X147182604Y-50671000D01*
X147457396Y-50671000D01*
X147726907Y-50617391D01*
X147980780Y-50512233D01*
X148209261Y-50359567D01*
X148403567Y-50165261D01*
X148556233Y-49936780D01*
X148590000Y-49855260D01*
X148623767Y-49936780D01*
X148776433Y-50165261D01*
X148970739Y-50359567D01*
X149199220Y-50512233D01*
X149453093Y-50617391D01*
X149722604Y-50671000D01*
X149997396Y-50671000D01*
X150266907Y-50617391D01*
X150520780Y-50512233D01*
X150749261Y-50359567D01*
X150943567Y-50165261D01*
X151096233Y-49936780D01*
X151201391Y-49682907D01*
X151255000Y-49413396D01*
X151255000Y-49138604D01*
X151201391Y-48869093D01*
X151096233Y-48615220D01*
X151064953Y-48568406D01*
X165562611Y-48568406D01*
X167614600Y-50620395D01*
X169666589Y-48568406D01*
X169385616Y-48146341D01*
X168833883Y-47851822D01*
X168235294Y-47670600D01*
X167612852Y-47609639D01*
X166990477Y-47671282D01*
X166392087Y-47853160D01*
X165843584Y-48146341D01*
X165562611Y-48568406D01*
X151064953Y-48568406D01*
X150943567Y-48386739D01*
X150749261Y-48192433D01*
X150520780Y-48039767D01*
X150439260Y-48006000D01*
X150520780Y-47972233D01*
X150749261Y-47819567D01*
X150943567Y-47625261D01*
X151096233Y-47396780D01*
X151201391Y-47142907D01*
X151255000Y-46873396D01*
X151255000Y-46598604D01*
X151201391Y-46329093D01*
X151096233Y-46075220D01*
X150943567Y-45846739D01*
X150749261Y-45652433D01*
X150520780Y-45499767D01*
X150266907Y-45394609D01*
X149997396Y-45341000D01*
X149722604Y-45341000D01*
X149453093Y-45394609D01*
X149199220Y-45499767D01*
X148970739Y-45652433D01*
X148776433Y-45846739D01*
X148623767Y-46075220D01*
X148590000Y-46156740D01*
X148556233Y-46075220D01*
X148403567Y-45846739D01*
X148209261Y-45652433D01*
X147980780Y-45499767D01*
X147726907Y-45394609D01*
X147457396Y-45341000D01*
X147182604Y-45341000D01*
X146913093Y-45394609D01*
X146659220Y-45499767D01*
X146430739Y-45652433D01*
X146236433Y-45846739D01*
X146083767Y-46075220D01*
X146050000Y-46156740D01*
X146016233Y-46075220D01*
X145863567Y-45846739D01*
X145669261Y-45652433D01*
X145440780Y-45499767D01*
X145186907Y-45394609D01*
X144917396Y-45341000D01*
X144642604Y-45341000D01*
X144373093Y-45394609D01*
X144119220Y-45499767D01*
X143890739Y-45652433D01*
X143696433Y-45846739D01*
X143543767Y-46075220D01*
X143510000Y-46156740D01*
X143476233Y-46075220D01*
X143323567Y-45846739D01*
X143129261Y-45652433D01*
X142900780Y-45499767D01*
X142646907Y-45394609D01*
X142377396Y-45341000D01*
X142102604Y-45341000D01*
X141833093Y-45394609D01*
X141579220Y-45499767D01*
X141350739Y-45652433D01*
X141156433Y-45846739D01*
X141003767Y-46075220D01*
X140970000Y-46156740D01*
X140936233Y-46075220D01*
X140783567Y-45846739D01*
X140589261Y-45652433D01*
X140360780Y-45499767D01*
X140106907Y-45394609D01*
X139837396Y-45341000D01*
X139562604Y-45341000D01*
X139293093Y-45394609D01*
X139039220Y-45499767D01*
X138810739Y-45652433D01*
X138616433Y-45846739D01*
X138463767Y-46075220D01*
X138430000Y-46156740D01*
X138396233Y-46075220D01*
X138243567Y-45846739D01*
X138049261Y-45652433D01*
X137820780Y-45499767D01*
X137566907Y-45394609D01*
X137297396Y-45341000D01*
X137022604Y-45341000D01*
X136753093Y-45394609D01*
X136499220Y-45499767D01*
X136270739Y-45652433D01*
X136076433Y-45846739D01*
X135923767Y-46075220D01*
X135890000Y-46156740D01*
X135856233Y-46075220D01*
X135703567Y-45846739D01*
X135509261Y-45652433D01*
X135280780Y-45499767D01*
X135026907Y-45394609D01*
X134757396Y-45341000D01*
X134482604Y-45341000D01*
X134213093Y-45394609D01*
X133959220Y-45499767D01*
X133730739Y-45652433D01*
X133536433Y-45846739D01*
X133383767Y-46075220D01*
X133350000Y-46156740D01*
X133316233Y-46075220D01*
X133163567Y-45846739D01*
X132969261Y-45652433D01*
X132740780Y-45499767D01*
X132486907Y-45394609D01*
X132217396Y-45341000D01*
X131942604Y-45341000D01*
X131673093Y-45394609D01*
X131419220Y-45499767D01*
X131190739Y-45652433D01*
X130996433Y-45846739D01*
X130843767Y-46075220D01*
X130810000Y-46156740D01*
X130776233Y-46075220D01*
X130623567Y-45846739D01*
X130429261Y-45652433D01*
X130200780Y-45499767D01*
X129946907Y-45394609D01*
X129677396Y-45341000D01*
X129402604Y-45341000D01*
X129133093Y-45394609D01*
X128879220Y-45499767D01*
X128650739Y-45652433D01*
X128456433Y-45846739D01*
X128303767Y-46075220D01*
X128272170Y-46151501D01*
X128265744Y-46133674D01*
X128204025Y-46018206D01*
X127964137Y-45951469D01*
X127179605Y-46736000D01*
X127964137Y-47520531D01*
X128204025Y-47453794D01*
X128269600Y-47314293D01*
X128303767Y-47396780D01*
X128456433Y-47625261D01*
X128650739Y-47819567D01*
X128879220Y-47972233D01*
X128960740Y-48006000D01*
X128879220Y-48039767D01*
X128650739Y-48192433D01*
X128456433Y-48386739D01*
X128303767Y-48615220D01*
X128270000Y-48696740D01*
X128236233Y-48615220D01*
X128083567Y-48386739D01*
X127889261Y-48192433D01*
X127660780Y-48039767D01*
X127584499Y-48008170D01*
X127602326Y-48001744D01*
X127717794Y-47940025D01*
X127784531Y-47700137D01*
X127000000Y-46915605D01*
X126215469Y-47700137D01*
X126282206Y-47940025D01*
X126421707Y-48005600D01*
X126339220Y-48039767D01*
X126110739Y-48192433D01*
X125916433Y-48386739D01*
X125763767Y-48615220D01*
X125658609Y-48869093D01*
X125605000Y-49138604D01*
X117625006Y-49138604D01*
X117486283Y-48999882D01*
X117474973Y-48978723D01*
X117403799Y-48891997D01*
X117403798Y-48891996D01*
X117380001Y-48862999D01*
X117351003Y-48839201D01*
X115319899Y-46808097D01*
X125600105Y-46808097D01*
X125641069Y-47079817D01*
X125734256Y-47338326D01*
X125795975Y-47453794D01*
X126035863Y-47520531D01*
X126820395Y-46736000D01*
X126035863Y-45951469D01*
X125795975Y-46018206D01*
X125679076Y-46266892D01*
X125612939Y-46533606D01*
X125600105Y-46808097D01*
X115319899Y-46808097D01*
X115117804Y-46606003D01*
X115094001Y-46576999D01*
X114978276Y-46482026D01*
X114846247Y-46411454D01*
X114702986Y-46367997D01*
X114591333Y-46357000D01*
X114591322Y-46357000D01*
X114554000Y-46353324D01*
X114516678Y-46357000D01*
X95084122Y-46357000D01*
X95046799Y-46353324D01*
X95009476Y-46357000D01*
X95009467Y-46357000D01*
X94897814Y-46367997D01*
X94754553Y-46411454D01*
X94622524Y-46482026D01*
X94506799Y-46576999D01*
X94483001Y-46605997D01*
X90312399Y-50776600D01*
X75399133Y-50776600D01*
X75361800Y-50772923D01*
X75324467Y-50776600D01*
X75212814Y-50787597D01*
X75069553Y-50831054D01*
X74937524Y-50901626D01*
X74821799Y-50996599D01*
X74798001Y-51025597D01*
X73645599Y-52178000D01*
X73583461Y-52178000D01*
X73383502Y-52217774D01*
X73195144Y-52295795D01*
X73025626Y-52409063D01*
X72881463Y-52553226D01*
X72768195Y-52722744D01*
X72690174Y-52911102D01*
X72650400Y-53111061D01*
X72650400Y-53314939D01*
X72690174Y-53514898D01*
X72768195Y-53703256D01*
X72881463Y-53872774D01*
X73025626Y-54016937D01*
X73195144Y-54130205D01*
X73383502Y-54208226D01*
X73583461Y-54248000D01*
X73787339Y-54248000D01*
X73987298Y-54208226D01*
X74175656Y-54130205D01*
X74345174Y-54016937D01*
X74489337Y-53872774D01*
X74602605Y-53703256D01*
X74680626Y-53514898D01*
X74720400Y-53314939D01*
X74720400Y-53252801D01*
X75676602Y-52296600D01*
X76320998Y-52296600D01*
X73620199Y-54997400D01*
X73558061Y-54997400D01*
X73358102Y-55037174D01*
X73169744Y-55115195D01*
X73000226Y-55228463D01*
X72856063Y-55372626D01*
X72742795Y-55542144D01*
X72664774Y-55730502D01*
X72625000Y-55930461D01*
X72625000Y-56134339D01*
X72664774Y-56334298D01*
X72742795Y-56522656D01*
X72856063Y-56692174D01*
X73000226Y-56836337D01*
X73169744Y-56949605D01*
X73358102Y-57027626D01*
X73558061Y-57067400D01*
X73761939Y-57067400D01*
X73961898Y-57027626D01*
X74150256Y-56949605D01*
X74319774Y-56836337D01*
X74463937Y-56692174D01*
X74577205Y-56522656D01*
X74655226Y-56334298D01*
X74695000Y-56134339D01*
X74695000Y-56072201D01*
X78020592Y-52746610D01*
X89566800Y-52746610D01*
X89566800Y-52933939D01*
X89606574Y-53133898D01*
X89684595Y-53322256D01*
X89797863Y-53491774D01*
X89942026Y-53635937D01*
X90111544Y-53749205D01*
X90299902Y-53827226D01*
X90499861Y-53867000D01*
X90561999Y-53867000D01*
X93365400Y-56670402D01*
X93389199Y-56699401D01*
X93504924Y-56794374D01*
X93556234Y-56821800D01*
X92796202Y-56821800D01*
X91636800Y-55662399D01*
X91636800Y-55600261D01*
X91597026Y-55400302D01*
X91519005Y-55211944D01*
X91405737Y-55042426D01*
X91261574Y-54898263D01*
X91092056Y-54784995D01*
X90903698Y-54706974D01*
X90703739Y-54667200D01*
X90499861Y-54667200D01*
X90299902Y-54706974D01*
X90111544Y-54784995D01*
X89942026Y-54898263D01*
X89797863Y-55042426D01*
X89684595Y-55211944D01*
X89606574Y-55400302D01*
X89566800Y-55600261D01*
X89566800Y-55804139D01*
X89606574Y-56004098D01*
X89684595Y-56192456D01*
X89797863Y-56361974D01*
X89942026Y-56506137D01*
X90111544Y-56619405D01*
X90299902Y-56697426D01*
X90499861Y-56737200D01*
X90561999Y-56737200D01*
X91662598Y-57837800D01*
X89603711Y-57837800D01*
X89559774Y-57793863D01*
X89390256Y-57680595D01*
X89201898Y-57602574D01*
X89001939Y-57562800D01*
X88798061Y-57562800D01*
X88598102Y-57602574D01*
X88409744Y-57680595D01*
X88240226Y-57793863D01*
X88096063Y-57938026D01*
X87982795Y-58107544D01*
X87904774Y-58295902D01*
X87865000Y-58495861D01*
X87865000Y-58699739D01*
X87904774Y-58899698D01*
X87982795Y-59088056D01*
X88096063Y-59257574D01*
X88240226Y-59401737D01*
X88409744Y-59515005D01*
X88598102Y-59593026D01*
X88798061Y-59632800D01*
X89001939Y-59632800D01*
X89201898Y-59593026D01*
X89390256Y-59515005D01*
X89559774Y-59401737D01*
X89603711Y-59357800D01*
X101850884Y-59357800D01*
X103960728Y-61467645D01*
X103906774Y-61597902D01*
X103867000Y-61797861D01*
X103867000Y-62001739D01*
X103906774Y-62201698D01*
X103984795Y-62390056D01*
X104098063Y-62559574D01*
X104242226Y-62703737D01*
X104411744Y-62817005D01*
X104600102Y-62895026D01*
X104800061Y-62934800D01*
X105003939Y-62934800D01*
X105203898Y-62895026D01*
X105392256Y-62817005D01*
X105561774Y-62703737D01*
X105705937Y-62559574D01*
X105819205Y-62390056D01*
X105897226Y-62201698D01*
X105937000Y-62001739D01*
X105937000Y-61797861D01*
X105897226Y-61597902D01*
X105819205Y-61409544D01*
X105705937Y-61240026D01*
X105650987Y-61185076D01*
X105607546Y-61041868D01*
X105536974Y-60909839D01*
X105442001Y-60794114D01*
X105413003Y-60770316D01*
X104260255Y-59617569D01*
X104317174Y-59579537D01*
X104361111Y-59535600D01*
X105442889Y-59535600D01*
X105486826Y-59579537D01*
X105656344Y-59692805D01*
X105844702Y-59770826D01*
X106044661Y-59810600D01*
X106248539Y-59810600D01*
X106448498Y-59770826D01*
X106636856Y-59692805D01*
X106806374Y-59579537D01*
X106950537Y-59435374D01*
X107011674Y-59343876D01*
X107266201Y-59598403D01*
X107266200Y-64399503D01*
X107170256Y-64335395D01*
X106981898Y-64257374D01*
X106781939Y-64217600D01*
X106578061Y-64217600D01*
X106378102Y-64257374D01*
X106189744Y-64335395D01*
X106020226Y-64448663D01*
X105976289Y-64492600D01*
X103667402Y-64492600D01*
X102370266Y-63195465D01*
X102366353Y-63182566D01*
X102289699Y-63039158D01*
X102186541Y-62913459D01*
X102060842Y-62810301D01*
X101917434Y-62733647D01*
X101761826Y-62686444D01*
X101640553Y-62674500D01*
X92669447Y-62674500D01*
X92548174Y-62686444D01*
X92392566Y-62733647D01*
X92380681Y-62740000D01*
X91907202Y-62740000D01*
X91267203Y-62100002D01*
X91243401Y-62070999D01*
X91127676Y-61976026D01*
X90995647Y-61905454D01*
X90852386Y-61861997D01*
X90740733Y-61851000D01*
X90740722Y-61851000D01*
X90703400Y-61847324D01*
X90666078Y-61851000D01*
X86092522Y-61851000D01*
X86055200Y-61847324D01*
X86017877Y-61851000D01*
X86017867Y-61851000D01*
X85906214Y-61861997D01*
X85780475Y-61900139D01*
X85762953Y-61905454D01*
X85630923Y-61976026D01*
X85553384Y-62039661D01*
X85515199Y-62070999D01*
X85491401Y-62099997D01*
X84528202Y-63063197D01*
X84528197Y-63063201D01*
X79499003Y-68092396D01*
X79469999Y-68116199D01*
X79423981Y-68172273D01*
X79375026Y-68231924D01*
X79339387Y-68298600D01*
X79304454Y-68363954D01*
X79260997Y-68507215D01*
X79250000Y-68618868D01*
X79250000Y-68618878D01*
X79246324Y-68656200D01*
X79250000Y-68693522D01*
X79250001Y-73168540D01*
X79137537Y-73000226D01*
X78993374Y-72856063D01*
X78823856Y-72742795D01*
X78635498Y-72664774D01*
X78435539Y-72625000D01*
X78357826Y-72625000D01*
X78225848Y-72554455D01*
X78082587Y-72510998D01*
X77970934Y-72500001D01*
X77970923Y-72500001D01*
X77933601Y-72496325D01*
X77896279Y-72500001D01*
X76191003Y-72500001D01*
X75334400Y-71643399D01*
X75334400Y-68242311D01*
X75378337Y-68198374D01*
X75491605Y-68028856D01*
X75569626Y-67840498D01*
X75609400Y-67640539D01*
X75609400Y-67436661D01*
X75569626Y-67236702D01*
X75491605Y-67048344D01*
X75378337Y-66878826D01*
X75234174Y-66734663D01*
X75064656Y-66621395D01*
X74876298Y-66543374D01*
X74676339Y-66503600D01*
X74472461Y-66503600D01*
X74272502Y-66543374D01*
X74084144Y-66621395D01*
X73914626Y-66734663D01*
X73770463Y-66878826D01*
X73657195Y-67048344D01*
X73579174Y-67236702D01*
X73539400Y-67436661D01*
X73539400Y-67640539D01*
X73579174Y-67840498D01*
X73657195Y-68028856D01*
X73770463Y-68198374D01*
X73814401Y-68242312D01*
X73814400Y-71920877D01*
X73810724Y-71958200D01*
X73814400Y-71995522D01*
X73814400Y-71995532D01*
X73825397Y-72107185D01*
X73850106Y-72188640D01*
X73868854Y-72250446D01*
X73939426Y-72382476D01*
X73979271Y-72431026D01*
X74034399Y-72498201D01*
X74063403Y-72522004D01*
X75312401Y-73771003D01*
X75336200Y-73800002D01*
X75451925Y-73894975D01*
X75583954Y-73965547D01*
X75727215Y-74009004D01*
X75838868Y-74020001D01*
X75838876Y-74020001D01*
X75876201Y-74023677D01*
X75913526Y-74020001D01*
X76038693Y-74020001D01*
X75990199Y-74059799D01*
X75966401Y-74088797D01*
X73806000Y-76249198D01*
X73806000Y-76098061D01*
X73766226Y-75898102D01*
X73688205Y-75709744D01*
X73574937Y-75540226D01*
X73531000Y-75496289D01*
X73531000Y-59758711D01*
X73574937Y-59714774D01*
X73688205Y-59545256D01*
X73766226Y-59356898D01*
X73806000Y-59156939D01*
X73806000Y-58953061D01*
X73766226Y-58753102D01*
X73688205Y-58564744D01*
X73574937Y-58395226D01*
X73430774Y-58251063D01*
X73261256Y-58137795D01*
X73072898Y-58059774D01*
X72872939Y-58020000D01*
X72669061Y-58020000D01*
X72469102Y-58059774D01*
X72280744Y-58137795D01*
X72111226Y-58251063D01*
X71967063Y-58395226D01*
X71853795Y-58564744D01*
X71775774Y-58753102D01*
X71736000Y-58953061D01*
X71736000Y-59156939D01*
X71775774Y-59356898D01*
X71853795Y-59545256D01*
X71967063Y-59714774D01*
X72011001Y-59758712D01*
X72011000Y-75496289D01*
X71967063Y-75540226D01*
X71853795Y-75709744D01*
X71775774Y-75898102D01*
X71736000Y-76098061D01*
X71736000Y-76301939D01*
X71775774Y-76501898D01*
X71853795Y-76690256D01*
X71967063Y-76859774D01*
X72111226Y-77003937D01*
X72280744Y-77117205D01*
X72469102Y-77195226D01*
X72669061Y-77235000D01*
X72820199Y-77235000D01*
X71411571Y-78643628D01*
X71257592Y-78613000D01*
X70982408Y-78613000D01*
X70712510Y-78666686D01*
X70458273Y-78771995D01*
X70229465Y-78924880D01*
X70034880Y-79119465D01*
X69881995Y-79348273D01*
X69850000Y-79425515D01*
X69818005Y-79348273D01*
X69665120Y-79119465D01*
X69470535Y-78924880D01*
X69241727Y-78771995D01*
X68987490Y-78666686D01*
X68717592Y-78613000D01*
X68442408Y-78613000D01*
X68172510Y-78666686D01*
X67918273Y-78771995D01*
X67689465Y-78924880D01*
X67494880Y-79119465D01*
X67341995Y-79348273D01*
X67312308Y-79419943D01*
X67307636Y-79406977D01*
X67245656Y-79291020D01*
X67005565Y-79224040D01*
X66219605Y-80010000D01*
X67005565Y-80795960D01*
X67245656Y-80728980D01*
X67309485Y-80593240D01*
X67341995Y-80671727D01*
X67494880Y-80900535D01*
X67689465Y-81095120D01*
X67918273Y-81248005D01*
X68172510Y-81353314D01*
X68442408Y-81407000D01*
X68717592Y-81407000D01*
X68987490Y-81353314D01*
X69241727Y-81248005D01*
X69470535Y-81095120D01*
X69665120Y-80900535D01*
X69818005Y-80671727D01*
X69850000Y-80594485D01*
X69881995Y-80671727D01*
X70034880Y-80900535D01*
X70229465Y-81095120D01*
X70458273Y-81248005D01*
X70712510Y-81353314D01*
X70982408Y-81407000D01*
X71257592Y-81407000D01*
X71527490Y-81353314D01*
X71781727Y-81248005D01*
X72010535Y-81095120D01*
X72205120Y-80900535D01*
X72358005Y-80671727D01*
X72390000Y-80594485D01*
X72421995Y-80671727D01*
X72574880Y-80900535D01*
X72769465Y-81095120D01*
X72998273Y-81248005D01*
X73252510Y-81353314D01*
X73522408Y-81407000D01*
X73728198Y-81407000D01*
X73294399Y-81840800D01*
X69963523Y-81840800D01*
X69926200Y-81837124D01*
X69888877Y-81840800D01*
X69888867Y-81840800D01*
X69777214Y-81851797D01*
X69633953Y-81895254D01*
X69501923Y-81965826D01*
X69432012Y-82023201D01*
X69386199Y-82060799D01*
X69362401Y-82089797D01*
X64259003Y-87193196D01*
X64229999Y-87216999D01*
X64180590Y-87277205D01*
X64135026Y-87332724D01*
X64071243Y-87452053D01*
X64064454Y-87464754D01*
X64020997Y-87608015D01*
X64010000Y-87719668D01*
X64010000Y-87719678D01*
X64006324Y-87757000D01*
X64010000Y-87794323D01*
X64010000Y-88617312D01*
X63906907Y-88574609D01*
X63637396Y-88521000D01*
X63362604Y-88521000D01*
X63093093Y-88574609D01*
X62890000Y-88658733D01*
X62890000Y-80975565D01*
X65254040Y-80975565D01*
X65321020Y-81215656D01*
X65570048Y-81332756D01*
X65837135Y-81399023D01*
X66112017Y-81411910D01*
X66384133Y-81370922D01*
X66643023Y-81277636D01*
X66758980Y-81215656D01*
X66825960Y-80975565D01*
X66040000Y-80189605D01*
X65254040Y-80975565D01*
X62890000Y-80975565D01*
X62890000Y-80082017D01*
X64638090Y-80082017D01*
X64679078Y-80354133D01*
X64772364Y-80613023D01*
X64834344Y-80728980D01*
X65074435Y-80795960D01*
X65860395Y-80010000D01*
X65074435Y-79224040D01*
X64834344Y-79291020D01*
X64717244Y-79540048D01*
X64650977Y-79807135D01*
X64638090Y-80082017D01*
X62890000Y-80082017D01*
X62890000Y-79044435D01*
X65254040Y-79044435D01*
X66040000Y-79830395D01*
X66825960Y-79044435D01*
X66758980Y-78804344D01*
X66509952Y-78687244D01*
X66242865Y-78620977D01*
X65967983Y-78608090D01*
X65695867Y-78649078D01*
X65436977Y-78742364D01*
X65321020Y-78804344D01*
X65254040Y-79044435D01*
X62890000Y-79044435D01*
X62890000Y-50533267D01*
X63093093Y-50617391D01*
X63362604Y-50671000D01*
X63637396Y-50671000D01*
X63906907Y-50617391D01*
X64160780Y-50512233D01*
X64389261Y-50359567D01*
X64583567Y-50165261D01*
X64736233Y-49936780D01*
X64770000Y-49855260D01*
X64803767Y-49936780D01*
X64956433Y-50165261D01*
X65150739Y-50359567D01*
X65379220Y-50512233D01*
X65633093Y-50617391D01*
X65902604Y-50671000D01*
X66177396Y-50671000D01*
X66446907Y-50617391D01*
X66700780Y-50512233D01*
X66929261Y-50359567D01*
X67123567Y-50165261D01*
X67276233Y-49936780D01*
X67310000Y-49855260D01*
X67343767Y-49936780D01*
X67496433Y-50165261D01*
X67690739Y-50359567D01*
X67919220Y-50512233D01*
X68173093Y-50617391D01*
X68442604Y-50671000D01*
X68717396Y-50671000D01*
X68986907Y-50617391D01*
X69240780Y-50512233D01*
X69469261Y-50359567D01*
X69663567Y-50165261D01*
X69816233Y-49936780D01*
X69850000Y-49855260D01*
X69883767Y-49936780D01*
X70036433Y-50165261D01*
X70230739Y-50359567D01*
X70459220Y-50512233D01*
X70713093Y-50617391D01*
X70982604Y-50671000D01*
X71257396Y-50671000D01*
X71526907Y-50617391D01*
X71780780Y-50512233D01*
X72009261Y-50359567D01*
X72203567Y-50165261D01*
X72356233Y-49936780D01*
X72390000Y-49855260D01*
X72423767Y-49936780D01*
X72576433Y-50165261D01*
X72770739Y-50359567D01*
X72999220Y-50512233D01*
X73253093Y-50617391D01*
X73522604Y-50671000D01*
X73797396Y-50671000D01*
X74066907Y-50617391D01*
X74320780Y-50512233D01*
X74549261Y-50359567D01*
X74743567Y-50165261D01*
X74896233Y-49936780D01*
X74930000Y-49855260D01*
X74963767Y-49936780D01*
X75116433Y-50165261D01*
X75310739Y-50359567D01*
X75539220Y-50512233D01*
X75793093Y-50617391D01*
X76062604Y-50671000D01*
X76337396Y-50671000D01*
X76606907Y-50617391D01*
X76860780Y-50512233D01*
X77089261Y-50359567D01*
X77283567Y-50165261D01*
X77436233Y-49936780D01*
X77470000Y-49855260D01*
X77503767Y-49936780D01*
X77656433Y-50165261D01*
X77850739Y-50359567D01*
X78079220Y-50512233D01*
X78333093Y-50617391D01*
X78602604Y-50671000D01*
X78877396Y-50671000D01*
X79146907Y-50617391D01*
X79400780Y-50512233D01*
X79629261Y-50359567D01*
X79823567Y-50165261D01*
X79976233Y-49936780D01*
X80010000Y-49855260D01*
X80043767Y-49936780D01*
X80196433Y-50165261D01*
X80390739Y-50359567D01*
X80619220Y-50512233D01*
X80873093Y-50617391D01*
X81142604Y-50671000D01*
X81417396Y-50671000D01*
X81686907Y-50617391D01*
X81940780Y-50512233D01*
X82169261Y-50359567D01*
X82363567Y-50165261D01*
X82516233Y-49936780D01*
X82550000Y-49855260D01*
X82583767Y-49936780D01*
X82736433Y-50165261D01*
X82930739Y-50359567D01*
X83159220Y-50512233D01*
X83413093Y-50617391D01*
X83682604Y-50671000D01*
X83957396Y-50671000D01*
X84226907Y-50617391D01*
X84480780Y-50512233D01*
X84709261Y-50359567D01*
X84903567Y-50165261D01*
X85056233Y-49936780D01*
X85090000Y-49855260D01*
X85123767Y-49936780D01*
X85276433Y-50165261D01*
X85470739Y-50359567D01*
X85699220Y-50512233D01*
X85953093Y-50617391D01*
X86222604Y-50671000D01*
X86497396Y-50671000D01*
X86766907Y-50617391D01*
X87020780Y-50512233D01*
X87249261Y-50359567D01*
X87443567Y-50165261D01*
X87596233Y-49936780D01*
X87701391Y-49682907D01*
X87755000Y-49413396D01*
X87755000Y-49138604D01*
X87701391Y-48869093D01*
X87596233Y-48615220D01*
X87443567Y-48386739D01*
X87249261Y-48192433D01*
X87020780Y-48039767D01*
X86939260Y-48006000D01*
X87020780Y-47972233D01*
X87249261Y-47819567D01*
X87443567Y-47625261D01*
X87596233Y-47396780D01*
X87701391Y-47142907D01*
X87755000Y-46873396D01*
X87755000Y-46598604D01*
X87701391Y-46329093D01*
X87596233Y-46075220D01*
X87443567Y-45846739D01*
X87368691Y-45771863D01*
X126215469Y-45771863D01*
X127000000Y-46556395D01*
X127784531Y-45771863D01*
X127717794Y-45531975D01*
X127469108Y-45415076D01*
X127202394Y-45348939D01*
X126927903Y-45336105D01*
X126656183Y-45377069D01*
X126397674Y-45470256D01*
X126282206Y-45531975D01*
X126215469Y-45771863D01*
X87368691Y-45771863D01*
X87249261Y-45652433D01*
X87020780Y-45499767D01*
X86766907Y-45394609D01*
X86497396Y-45341000D01*
X86222604Y-45341000D01*
X85953093Y-45394609D01*
X85699220Y-45499767D01*
X85470739Y-45652433D01*
X85276433Y-45846739D01*
X85123767Y-46075220D01*
X85090000Y-46156740D01*
X85056233Y-46075220D01*
X84903567Y-45846739D01*
X84709261Y-45652433D01*
X84480780Y-45499767D01*
X84226907Y-45394609D01*
X83957396Y-45341000D01*
X83682604Y-45341000D01*
X83413093Y-45394609D01*
X83159220Y-45499767D01*
X82930739Y-45652433D01*
X82736433Y-45846739D01*
X82583767Y-46075220D01*
X82550000Y-46156740D01*
X82516233Y-46075220D01*
X82363567Y-45846739D01*
X82169261Y-45652433D01*
X81940780Y-45499767D01*
X81686907Y-45394609D01*
X81417396Y-45341000D01*
X81142604Y-45341000D01*
X80873093Y-45394609D01*
X80619220Y-45499767D01*
X80390739Y-45652433D01*
X80196433Y-45846739D01*
X80043767Y-46075220D01*
X80010000Y-46156740D01*
X79976233Y-46075220D01*
X79823567Y-45846739D01*
X79629261Y-45652433D01*
X79400780Y-45499767D01*
X79146907Y-45394609D01*
X78877396Y-45341000D01*
X78602604Y-45341000D01*
X78333093Y-45394609D01*
X78079220Y-45499767D01*
X77850739Y-45652433D01*
X77656433Y-45846739D01*
X77503767Y-46075220D01*
X77470000Y-46156740D01*
X77436233Y-46075220D01*
X77283567Y-45846739D01*
X77089261Y-45652433D01*
X76860780Y-45499767D01*
X76606907Y-45394609D01*
X76337396Y-45341000D01*
X76062604Y-45341000D01*
X75793093Y-45394609D01*
X75539220Y-45499767D01*
X75310739Y-45652433D01*
X75116433Y-45846739D01*
X74963767Y-46075220D01*
X74930000Y-46156740D01*
X74896233Y-46075220D01*
X74743567Y-45846739D01*
X74549261Y-45652433D01*
X74320780Y-45499767D01*
X74066907Y-45394609D01*
X73797396Y-45341000D01*
X73522604Y-45341000D01*
X73253093Y-45394609D01*
X72999220Y-45499767D01*
X72770739Y-45652433D01*
X72576433Y-45846739D01*
X72423767Y-46075220D01*
X72390000Y-46156740D01*
X72356233Y-46075220D01*
X72203567Y-45846739D01*
X72009261Y-45652433D01*
X71780780Y-45499767D01*
X71526907Y-45394609D01*
X71257396Y-45341000D01*
X70982604Y-45341000D01*
X70713093Y-45394609D01*
X70459220Y-45499767D01*
X70230739Y-45652433D01*
X70036433Y-45846739D01*
X69883767Y-46075220D01*
X69850000Y-46156740D01*
X69816233Y-46075220D01*
X69663567Y-45846739D01*
X69469261Y-45652433D01*
X69240780Y-45499767D01*
X68986907Y-45394609D01*
X68717396Y-45341000D01*
X68442604Y-45341000D01*
X68173093Y-45394609D01*
X67919220Y-45499767D01*
X67690739Y-45652433D01*
X67496433Y-45846739D01*
X67343767Y-46075220D01*
X67310000Y-46156740D01*
X67276233Y-46075220D01*
X67123567Y-45846739D01*
X66929261Y-45652433D01*
X66700780Y-45499767D01*
X66446907Y-45394609D01*
X66177396Y-45341000D01*
X65902604Y-45341000D01*
X65633093Y-45394609D01*
X65379220Y-45499767D01*
X65150739Y-45652433D01*
X64956433Y-45846739D01*
X64803767Y-46075220D01*
X64772170Y-46151501D01*
X64765744Y-46133674D01*
X64704025Y-46018206D01*
X64464137Y-45951469D01*
X63679605Y-46736000D01*
X64464137Y-47520531D01*
X64704025Y-47453794D01*
X64769600Y-47314293D01*
X64803767Y-47396780D01*
X64956433Y-47625261D01*
X65150739Y-47819567D01*
X65379220Y-47972233D01*
X65460740Y-48006000D01*
X65379220Y-48039767D01*
X65150739Y-48192433D01*
X64956433Y-48386739D01*
X64803767Y-48615220D01*
X64770000Y-48696740D01*
X64736233Y-48615220D01*
X64583567Y-48386739D01*
X64389261Y-48192433D01*
X64160780Y-48039767D01*
X64084499Y-48008170D01*
X64102326Y-48001744D01*
X64217794Y-47940025D01*
X64284531Y-47700137D01*
X63500000Y-46915605D01*
X63485858Y-46929748D01*
X63306252Y-46750142D01*
X63320395Y-46736000D01*
X63306252Y-46721858D01*
X63485858Y-46542252D01*
X63500000Y-46556395D01*
X64284531Y-45771863D01*
X64217794Y-45531975D01*
X63969108Y-45415076D01*
X63702394Y-45348939D01*
X63427903Y-45336105D01*
X63156183Y-45377069D01*
X62897674Y-45470256D01*
X62890000Y-45474358D01*
X62890000Y-42613290D01*
X164439600Y-42613290D01*
X164439600Y-43238710D01*
X164561614Y-43852113D01*
X164800952Y-44429926D01*
X165148417Y-44949944D01*
X165590656Y-45392183D01*
X166110674Y-45739648D01*
X166688487Y-45978986D01*
X167301890Y-46101000D01*
X167927310Y-46101000D01*
X168540713Y-45978986D01*
X169118526Y-45739648D01*
X169638544Y-45392183D01*
X170080783Y-44949944D01*
X170428248Y-44429926D01*
X170667586Y-43852113D01*
X170789600Y-43238710D01*
X170789600Y-42613290D01*
X170667586Y-41999887D01*
X170428248Y-41422074D01*
X170080783Y-40902056D01*
X169638544Y-40459817D01*
X169118526Y-40112352D01*
X168540713Y-39873014D01*
X167927310Y-39751000D01*
X167301890Y-39751000D01*
X166688487Y-39873014D01*
X166110674Y-40112352D01*
X165590656Y-40459817D01*
X165148417Y-40902056D01*
X164800952Y-41422074D01*
X164561614Y-41999887D01*
X164439600Y-42613290D01*
X62890000Y-42613290D01*
X62890000Y-38685088D01*
X186030000Y-39000985D01*
G36*
X101555600Y-71994597D02*
G01*
X100110398Y-73439801D01*
X92563121Y-73439801D01*
X92525798Y-73436125D01*
X92488476Y-73439801D01*
X92488466Y-73439801D01*
X92376813Y-73450798D01*
X92233552Y-73494255D01*
X92101574Y-73564800D01*
X92023861Y-73564800D01*
X91823902Y-73604574D01*
X91635544Y-73682595D01*
X91466026Y-73795863D01*
X91321863Y-73940026D01*
X91208595Y-74109544D01*
X91130574Y-74297902D01*
X91090800Y-74497861D01*
X91090800Y-74701739D01*
X91130574Y-74901698D01*
X91208595Y-75090056D01*
X91292552Y-75215707D01*
X91233995Y-75303344D01*
X91155974Y-75491702D01*
X91116200Y-75691661D01*
X91116200Y-75895539D01*
X91155974Y-76095498D01*
X91233995Y-76283856D01*
X91347263Y-76453374D01*
X91491426Y-76597537D01*
X91660944Y-76710805D01*
X91849302Y-76788826D01*
X92049261Y-76828600D01*
X92056000Y-76828600D01*
X92056000Y-76860739D01*
X92095774Y-77060698D01*
X92173795Y-77249056D01*
X92287063Y-77418574D01*
X92331001Y-77462512D01*
X92331000Y-79941289D01*
X92287063Y-79985226D01*
X92173795Y-80154744D01*
X92095774Y-80343102D01*
X92056000Y-80543061D01*
X92056000Y-80746939D01*
X92095774Y-80946898D01*
X92173795Y-81135256D01*
X92287063Y-81304774D01*
X92431226Y-81448937D01*
X92600744Y-81562205D01*
X92789102Y-81640226D01*
X92989061Y-81680000D01*
X93192939Y-81680000D01*
X93392898Y-81640226D01*
X93581256Y-81562205D01*
X93750774Y-81448937D01*
X93894937Y-81304774D01*
X94008205Y-81135256D01*
X94086226Y-80946898D01*
X94126000Y-80746939D01*
X94126000Y-80543061D01*
X94086226Y-80343102D01*
X94008205Y-80154744D01*
X93894937Y-79985226D01*
X93851000Y-79941289D01*
X93851000Y-77462511D01*
X93894937Y-77418574D01*
X94008205Y-77249056D01*
X94086226Y-77060698D01*
X94126000Y-76860739D01*
X94126000Y-76656861D01*
X94105460Y-76553600D01*
X100114878Y-76553600D01*
X100152200Y-76557276D01*
X100189522Y-76553600D01*
X100189533Y-76553600D01*
X100301186Y-76542603D01*
X100444447Y-76499146D01*
X100576476Y-76428574D01*
X100692201Y-76333601D01*
X100716004Y-76304597D01*
X103671802Y-73348800D01*
X103733939Y-73348800D01*
X103933898Y-73309026D01*
X104122256Y-73231005D01*
X104291774Y-73117737D01*
X104435937Y-72973574D01*
X104549205Y-72804056D01*
X104627226Y-72615698D01*
X104667000Y-72415739D01*
X104667000Y-72211861D01*
X104627226Y-72011902D01*
X104599721Y-71945500D01*
X105914789Y-71945500D01*
X105876063Y-71984226D01*
X105762795Y-72153744D01*
X105684774Y-72342102D01*
X105645000Y-72542061D01*
X105645000Y-72745939D01*
X105684774Y-72945898D01*
X105762795Y-73134256D01*
X105854501Y-73271504D01*
X105854500Y-84462497D01*
X105762795Y-84599744D01*
X105684774Y-84788102D01*
X105645000Y-84988061D01*
X105645000Y-85191939D01*
X105684774Y-85391898D01*
X105762795Y-85580256D01*
X105876063Y-85749774D01*
X106020226Y-85893937D01*
X106189744Y-86007205D01*
X106378102Y-86085226D01*
X106578061Y-86125000D01*
X106781939Y-86125000D01*
X106936000Y-86094356D01*
X106936000Y-87586689D01*
X106892063Y-87630626D01*
X106778795Y-87800144D01*
X106700774Y-87988502D01*
X106661000Y-88188461D01*
X106661000Y-88392339D01*
X106700774Y-88592298D01*
X106778795Y-88780656D01*
X106892063Y-88950174D01*
X107036226Y-89094337D01*
X107205744Y-89207605D01*
X107394102Y-89285626D01*
X107594061Y-89325400D01*
X107627168Y-89325400D01*
X107608068Y-89344500D01*
X97147503Y-89344500D01*
X97010256Y-89252795D01*
X96821898Y-89174774D01*
X96621939Y-89135000D01*
X96418061Y-89135000D01*
X96218102Y-89174774D01*
X96029744Y-89252795D01*
X95860226Y-89366063D01*
X95716063Y-89510226D01*
X95602795Y-89679744D01*
X95524774Y-89868102D01*
X95485000Y-90068061D01*
X95485000Y-90271939D01*
X95524774Y-90471898D01*
X95583842Y-90614500D01*
X95209447Y-90614500D01*
X95088174Y-90626444D01*
X95042501Y-90640299D01*
X90697000Y-86294799D01*
X90697000Y-86232661D01*
X90657226Y-86032702D01*
X90579205Y-85844344D01*
X90465937Y-85674826D01*
X90321774Y-85530663D01*
X90152256Y-85417395D01*
X89963898Y-85339374D01*
X89763939Y-85299600D01*
X89560061Y-85299600D01*
X89360102Y-85339374D01*
X89171744Y-85417395D01*
X89002226Y-85530663D01*
X88858063Y-85674826D01*
X88744795Y-85844344D01*
X88666774Y-86032702D01*
X88635638Y-86189236D01*
X87090200Y-84643799D01*
X87090200Y-84581661D01*
X87050426Y-84381702D01*
X86972405Y-84193344D01*
X86859137Y-84023826D01*
X86714974Y-83879663D01*
X86545456Y-83766395D01*
X86357098Y-83688374D01*
X86157139Y-83648600D01*
X85953261Y-83648600D01*
X85753302Y-83688374D01*
X85564944Y-83766395D01*
X85395426Y-83879663D01*
X85251263Y-84023826D01*
X85137995Y-84193344D01*
X85129179Y-84214627D01*
X85029402Y-84234474D01*
X84841044Y-84312495D01*
X84671526Y-84425763D01*
X84550805Y-84546484D01*
X84506139Y-84537600D01*
X84302261Y-84537600D01*
X84102302Y-84577374D01*
X83913944Y-84655395D01*
X83744426Y-84768663D01*
X83600263Y-84912826D01*
X83486995Y-85082344D01*
X83408974Y-85270702D01*
X83369200Y-85470661D01*
X83369200Y-85674539D01*
X83408974Y-85874498D01*
X83486995Y-86062856D01*
X83600263Y-86232374D01*
X83744426Y-86376537D01*
X83913944Y-86489805D01*
X84102302Y-86567826D01*
X84302261Y-86607600D01*
X84364399Y-86607600D01*
X86277799Y-88521000D01*
X86222604Y-88521000D01*
X85953093Y-88574609D01*
X85699220Y-88679767D01*
X85470739Y-88832433D01*
X85276433Y-89026739D01*
X85123767Y-89255220D01*
X85090000Y-89336740D01*
X85056233Y-89255220D01*
X84903567Y-89026739D01*
X84709261Y-88832433D01*
X84480780Y-88679767D01*
X84226907Y-88574609D01*
X83957396Y-88521000D01*
X83682604Y-88521000D01*
X83413093Y-88574609D01*
X83159220Y-88679767D01*
X82930739Y-88832433D01*
X82736433Y-89026739D01*
X82583767Y-89255220D01*
X82550000Y-89336740D01*
X82516233Y-89255220D01*
X82363567Y-89026739D01*
X82169261Y-88832433D01*
X81940780Y-88679767D01*
X81686907Y-88574609D01*
X81417396Y-88521000D01*
X81142604Y-88521000D01*
X80873093Y-88574609D01*
X80619220Y-88679767D01*
X80390739Y-88832433D01*
X80196433Y-89026739D01*
X80043767Y-89255220D01*
X80010000Y-89336740D01*
X79976233Y-89255220D01*
X79823567Y-89026739D01*
X79629261Y-88832433D01*
X79400780Y-88679767D01*
X79146907Y-88574609D01*
X78877396Y-88521000D01*
X78602604Y-88521000D01*
X78333093Y-88574609D01*
X78079220Y-88679767D01*
X77850739Y-88832433D01*
X77656433Y-89026739D01*
X77503767Y-89255220D01*
X77470000Y-89336740D01*
X77436233Y-89255220D01*
X77283567Y-89026739D01*
X77089261Y-88832433D01*
X76860780Y-88679767D01*
X76606907Y-88574609D01*
X76337396Y-88521000D01*
X76062604Y-88521000D01*
X75793093Y-88574609D01*
X75539220Y-88679767D01*
X75310739Y-88832433D01*
X75116433Y-89026739D01*
X74963767Y-89255220D01*
X74930000Y-89336740D01*
X74896233Y-89255220D01*
X74743567Y-89026739D01*
X74549261Y-88832433D01*
X74320780Y-88679767D01*
X74066907Y-88574609D01*
X73797396Y-88521000D01*
X73522604Y-88521000D01*
X73253093Y-88574609D01*
X72999220Y-88679767D01*
X72770739Y-88832433D01*
X72576433Y-89026739D01*
X72423767Y-89255220D01*
X72390000Y-89336740D01*
X72356233Y-89255220D01*
X72203567Y-89026739D01*
X72009261Y-88832433D01*
X71780780Y-88679767D01*
X71526907Y-88574609D01*
X71257396Y-88521000D01*
X70982604Y-88521000D01*
X70713093Y-88574609D01*
X70459220Y-88679767D01*
X70230739Y-88832433D01*
X70036433Y-89026739D01*
X69883767Y-89255220D01*
X69850000Y-89336740D01*
X69816233Y-89255220D01*
X69663567Y-89026739D01*
X69469261Y-88832433D01*
X69240780Y-88679767D01*
X68986907Y-88574609D01*
X68717396Y-88521000D01*
X68442604Y-88521000D01*
X68173093Y-88574609D01*
X67919220Y-88679767D01*
X67690739Y-88832433D01*
X67496433Y-89026739D01*
X67343767Y-89255220D01*
X67312170Y-89331501D01*
X67305744Y-89313674D01*
X67244025Y-89198206D01*
X67004137Y-89131469D01*
X66219605Y-89916000D01*
X67004137Y-90700531D01*
X67244025Y-90633794D01*
X67309600Y-90494293D01*
X67343767Y-90576780D01*
X67496433Y-90805261D01*
X67690739Y-90999567D01*
X67919220Y-91152233D01*
X68000740Y-91186000D01*
X67919220Y-91219767D01*
X67690739Y-91372433D01*
X67496433Y-91566739D01*
X67343767Y-91795220D01*
X67310000Y-91876740D01*
X67276233Y-91795220D01*
X67123567Y-91566739D01*
X66929261Y-91372433D01*
X66700780Y-91219767D01*
X66624499Y-91188170D01*
X66642326Y-91181744D01*
X66757794Y-91120025D01*
X66824531Y-90880137D01*
X66040000Y-90095605D01*
X66025858Y-90109748D01*
X65846253Y-89930143D01*
X65860395Y-89916000D01*
X65846253Y-89901858D01*
X66025858Y-89722252D01*
X66040000Y-89736395D01*
X66824531Y-88951863D01*
X66757794Y-88711975D01*
X66509108Y-88595076D01*
X66242394Y-88528939D01*
X65967903Y-88516105D01*
X65696183Y-88557069D01*
X65530000Y-88616974D01*
X65530000Y-88228111D01*
X65583426Y-88281537D01*
X65752944Y-88394805D01*
X65941302Y-88472826D01*
X66141261Y-88512600D01*
X66345139Y-88512600D01*
X66545098Y-88472826D01*
X66733456Y-88394805D01*
X66902974Y-88281537D01*
X66946911Y-88237600D01*
X74150089Y-88237600D01*
X74219426Y-88306937D01*
X74388944Y-88420205D01*
X74577302Y-88498226D01*
X74777261Y-88538000D01*
X74981139Y-88538000D01*
X75181098Y-88498226D01*
X75369456Y-88420205D01*
X75538974Y-88306937D01*
X75683137Y-88162774D01*
X75796405Y-87993256D01*
X75874426Y-87804898D01*
X75914200Y-87604939D01*
X75914200Y-87401061D01*
X75874426Y-87201102D01*
X75796405Y-87012744D01*
X75683137Y-86843226D01*
X75538974Y-86699063D01*
X75369456Y-86585795D01*
X75181098Y-86507774D01*
X75017503Y-86475233D01*
X75025200Y-86436539D01*
X75025200Y-86232661D01*
X74985426Y-86032702D01*
X74909748Y-85850000D01*
X77432678Y-85850000D01*
X77470000Y-85853676D01*
X77507322Y-85850000D01*
X77507333Y-85850000D01*
X77618986Y-85839003D01*
X77762247Y-85795546D01*
X77894276Y-85724974D01*
X78010001Y-85630001D01*
X78033804Y-85600997D01*
X82273604Y-81361198D01*
X82302601Y-81337401D01*
X82351649Y-81277636D01*
X82397574Y-81221677D01*
X82468146Y-81089647D01*
X82474326Y-81069275D01*
X82511603Y-80946386D01*
X82522600Y-80834733D01*
X82522600Y-80834724D01*
X82526276Y-80797401D01*
X82522600Y-80760078D01*
X82522600Y-73771601D01*
X83271202Y-73023000D01*
X94069678Y-73023000D01*
X94107000Y-73026676D01*
X94144322Y-73023000D01*
X94144333Y-73023000D01*
X94255986Y-73012003D01*
X94399247Y-72968546D01*
X94531276Y-72897974D01*
X94647001Y-72803001D01*
X94670804Y-72773998D01*
X95289802Y-72155000D01*
X95351939Y-72155000D01*
X95551898Y-72115226D01*
X95740256Y-72037205D01*
X95877503Y-71945500D01*
X101555600Y-71945500D01*
X101555600Y-71994597D01*
X101555600Y-71994597D01*
G37*
X101555600Y-71994597D02*
X100110398Y-73439801D01*
X92563121Y-73439801D01*
X92525798Y-73436125D01*
X92488476Y-73439801D01*
X92488466Y-73439801D01*
X92376813Y-73450798D01*
X92233552Y-73494255D01*
X92101574Y-73564800D01*
X92023861Y-73564800D01*
X91823902Y-73604574D01*
X91635544Y-73682595D01*
X91466026Y-73795863D01*
X91321863Y-73940026D01*
X91208595Y-74109544D01*
X91130574Y-74297902D01*
X91090800Y-74497861D01*
X91090800Y-74701739D01*
X91130574Y-74901698D01*
X91208595Y-75090056D01*
X91292552Y-75215707D01*
X91233995Y-75303344D01*
X91155974Y-75491702D01*
X91116200Y-75691661D01*
X91116200Y-75895539D01*
X91155974Y-76095498D01*
X91233995Y-76283856D01*
X91347263Y-76453374D01*
X91491426Y-76597537D01*
X91660944Y-76710805D01*
X91849302Y-76788826D01*
X92049261Y-76828600D01*
X92056000Y-76828600D01*
X92056000Y-76860739D01*
X92095774Y-77060698D01*
X92173795Y-77249056D01*
X92287063Y-77418574D01*
X92331001Y-77462512D01*
X92331000Y-79941289D01*
X92287063Y-79985226D01*
X92173795Y-80154744D01*
X92095774Y-80343102D01*
X92056000Y-80543061D01*
X92056000Y-80746939D01*
X92095774Y-80946898D01*
X92173795Y-81135256D01*
X92287063Y-81304774D01*
X92431226Y-81448937D01*
X92600744Y-81562205D01*
X92789102Y-81640226D01*
X92989061Y-81680000D01*
X93192939Y-81680000D01*
X93392898Y-81640226D01*
X93581256Y-81562205D01*
X93750774Y-81448937D01*
X93894937Y-81304774D01*
X94008205Y-81135256D01*
X94086226Y-80946898D01*
X94126000Y-80746939D01*
X94126000Y-80543061D01*
X94086226Y-80343102D01*
X94008205Y-80154744D01*
X93894937Y-79985226D01*
X93851000Y-79941289D01*
X93851000Y-77462511D01*
X93894937Y-77418574D01*
X94008205Y-77249056D01*
X94086226Y-77060698D01*
X94126000Y-76860739D01*
X94126000Y-76656861D01*
X94105460Y-76553600D01*
X100114878Y-76553600D01*
X100152200Y-76557276D01*
X100189522Y-76553600D01*
X100189533Y-76553600D01*
X100301186Y-76542603D01*
X100444447Y-76499146D01*
X100576476Y-76428574D01*
X100692201Y-76333601D01*
X100716004Y-76304597D01*
X103671802Y-73348800D01*
X103733939Y-73348800D01*
X103933898Y-73309026D01*
X104122256Y-73231005D01*
X104291774Y-73117737D01*
X104435937Y-72973574D01*
X104549205Y-72804056D01*
X104627226Y-72615698D01*
X104667000Y-72415739D01*
X104667000Y-72211861D01*
X104627226Y-72011902D01*
X104599721Y-71945500D01*
X105914789Y-71945500D01*
X105876063Y-71984226D01*
X105762795Y-72153744D01*
X105684774Y-72342102D01*
X105645000Y-72542061D01*
X105645000Y-72745939D01*
X105684774Y-72945898D01*
X105762795Y-73134256D01*
X105854501Y-73271504D01*
X105854500Y-84462497D01*
X105762795Y-84599744D01*
X105684774Y-84788102D01*
X105645000Y-84988061D01*
X105645000Y-85191939D01*
X105684774Y-85391898D01*
X105762795Y-85580256D01*
X105876063Y-85749774D01*
X106020226Y-85893937D01*
X106189744Y-86007205D01*
X106378102Y-86085226D01*
X106578061Y-86125000D01*
X106781939Y-86125000D01*
X106936000Y-86094356D01*
X106936000Y-87586689D01*
X106892063Y-87630626D01*
X106778795Y-87800144D01*
X106700774Y-87988502D01*
X106661000Y-88188461D01*
X106661000Y-88392339D01*
X106700774Y-88592298D01*
X106778795Y-88780656D01*
X106892063Y-88950174D01*
X107036226Y-89094337D01*
X107205744Y-89207605D01*
X107394102Y-89285626D01*
X107594061Y-89325400D01*
X107627168Y-89325400D01*
X107608068Y-89344500D01*
X97147503Y-89344500D01*
X97010256Y-89252795D01*
X96821898Y-89174774D01*
X96621939Y-89135000D01*
X96418061Y-89135000D01*
X96218102Y-89174774D01*
X96029744Y-89252795D01*
X95860226Y-89366063D01*
X95716063Y-89510226D01*
X95602795Y-89679744D01*
X95524774Y-89868102D01*
X95485000Y-90068061D01*
X95485000Y-90271939D01*
X95524774Y-90471898D01*
X95583842Y-90614500D01*
X95209447Y-90614500D01*
X95088174Y-90626444D01*
X95042501Y-90640299D01*
X90697000Y-86294799D01*
X90697000Y-86232661D01*
X90657226Y-86032702D01*
X90579205Y-85844344D01*
X90465937Y-85674826D01*
X90321774Y-85530663D01*
X90152256Y-85417395D01*
X89963898Y-85339374D01*
X89763939Y-85299600D01*
X89560061Y-85299600D01*
X89360102Y-85339374D01*
X89171744Y-85417395D01*
X89002226Y-85530663D01*
X88858063Y-85674826D01*
X88744795Y-85844344D01*
X88666774Y-86032702D01*
X88635638Y-86189236D01*
X87090200Y-84643799D01*
X87090200Y-84581661D01*
X87050426Y-84381702D01*
X86972405Y-84193344D01*
X86859137Y-84023826D01*
X86714974Y-83879663D01*
X86545456Y-83766395D01*
X86357098Y-83688374D01*
X86157139Y-83648600D01*
X85953261Y-83648600D01*
X85753302Y-83688374D01*
X85564944Y-83766395D01*
X85395426Y-83879663D01*
X85251263Y-84023826D01*
X85137995Y-84193344D01*
X85129179Y-84214627D01*
X85029402Y-84234474D01*
X84841044Y-84312495D01*
X84671526Y-84425763D01*
X84550805Y-84546484D01*
X84506139Y-84537600D01*
X84302261Y-84537600D01*
X84102302Y-84577374D01*
X83913944Y-84655395D01*
X83744426Y-84768663D01*
X83600263Y-84912826D01*
X83486995Y-85082344D01*
X83408974Y-85270702D01*
X83369200Y-85470661D01*
X83369200Y-85674539D01*
X83408974Y-85874498D01*
X83486995Y-86062856D01*
X83600263Y-86232374D01*
X83744426Y-86376537D01*
X83913944Y-86489805D01*
X84102302Y-86567826D01*
X84302261Y-86607600D01*
X84364399Y-86607600D01*
X86277799Y-88521000D01*
X86222604Y-88521000D01*
X85953093Y-88574609D01*
X85699220Y-88679767D01*
X85470739Y-88832433D01*
X85276433Y-89026739D01*
X85123767Y-89255220D01*
X85090000Y-89336740D01*
X85056233Y-89255220D01*
X84903567Y-89026739D01*
X84709261Y-88832433D01*
X84480780Y-88679767D01*
X84226907Y-88574609D01*
X83957396Y-88521000D01*
X83682604Y-88521000D01*
X83413093Y-88574609D01*
X83159220Y-88679767D01*
X82930739Y-88832433D01*
X82736433Y-89026739D01*
X82583767Y-89255220D01*
X82550000Y-89336740D01*
X82516233Y-89255220D01*
X82363567Y-89026739D01*
X82169261Y-88832433D01*
X81940780Y-88679767D01*
X81686907Y-88574609D01*
X81417396Y-88521000D01*
X81142604Y-88521000D01*
X80873093Y-88574609D01*
X80619220Y-88679767D01*
X80390739Y-88832433D01*
X80196433Y-89026739D01*
X80043767Y-89255220D01*
X80010000Y-89336740D01*
X79976233Y-89255220D01*
X79823567Y-89026739D01*
X79629261Y-88832433D01*
X79400780Y-88679767D01*
X79146907Y-88574609D01*
X78877396Y-88521000D01*
X78602604Y-88521000D01*
X78333093Y-88574609D01*
X78079220Y-88679767D01*
X77850739Y-88832433D01*
X77656433Y-89026739D01*
X77503767Y-89255220D01*
X77470000Y-89336740D01*
X77436233Y-89255220D01*
X77283567Y-89026739D01*
X77089261Y-88832433D01*
X76860780Y-88679767D01*
X76606907Y-88574609D01*
X76337396Y-88521000D01*
X76062604Y-88521000D01*
X75793093Y-88574609D01*
X75539220Y-88679767D01*
X75310739Y-88832433D01*
X75116433Y-89026739D01*
X74963767Y-89255220D01*
X74930000Y-89336740D01*
X74896233Y-89255220D01*
X74743567Y-89026739D01*
X74549261Y-88832433D01*
X74320780Y-88679767D01*
X74066907Y-88574609D01*
X73797396Y-88521000D01*
X73522604Y-88521000D01*
X73253093Y-88574609D01*
X72999220Y-88679767D01*
X72770739Y-88832433D01*
X72576433Y-89026739D01*
X72423767Y-89255220D01*
X72390000Y-89336740D01*
X72356233Y-89255220D01*
X72203567Y-89026739D01*
X72009261Y-88832433D01*
X71780780Y-88679767D01*
X71526907Y-88574609D01*
X71257396Y-88521000D01*
X70982604Y-88521000D01*
X70713093Y-88574609D01*
X70459220Y-88679767D01*
X70230739Y-88832433D01*
X70036433Y-89026739D01*
X69883767Y-89255220D01*
X69850000Y-89336740D01*
X69816233Y-89255220D01*
X69663567Y-89026739D01*
X69469261Y-88832433D01*
X69240780Y-88679767D01*
X68986907Y-88574609D01*
X68717396Y-88521000D01*
X68442604Y-88521000D01*
X68173093Y-88574609D01*
X67919220Y-88679767D01*
X67690739Y-88832433D01*
X67496433Y-89026739D01*
X67343767Y-89255220D01*
X67312170Y-89331501D01*
X67305744Y-89313674D01*
X67244025Y-89198206D01*
X67004137Y-89131469D01*
X66219605Y-89916000D01*
X67004137Y-90700531D01*
X67244025Y-90633794D01*
X67309600Y-90494293D01*
X67343767Y-90576780D01*
X67496433Y-90805261D01*
X67690739Y-90999567D01*
X67919220Y-91152233D01*
X68000740Y-91186000D01*
X67919220Y-91219767D01*
X67690739Y-91372433D01*
X67496433Y-91566739D01*
X67343767Y-91795220D01*
X67310000Y-91876740D01*
X67276233Y-91795220D01*
X67123567Y-91566739D01*
X66929261Y-91372433D01*
X66700780Y-91219767D01*
X66624499Y-91188170D01*
X66642326Y-91181744D01*
X66757794Y-91120025D01*
X66824531Y-90880137D01*
X66040000Y-90095605D01*
X66025858Y-90109748D01*
X65846253Y-89930143D01*
X65860395Y-89916000D01*
X65846253Y-89901858D01*
X66025858Y-89722252D01*
X66040000Y-89736395D01*
X66824531Y-88951863D01*
X66757794Y-88711975D01*
X66509108Y-88595076D01*
X66242394Y-88528939D01*
X65967903Y-88516105D01*
X65696183Y-88557069D01*
X65530000Y-88616974D01*
X65530000Y-88228111D01*
X65583426Y-88281537D01*
X65752944Y-88394805D01*
X65941302Y-88472826D01*
X66141261Y-88512600D01*
X66345139Y-88512600D01*
X66545098Y-88472826D01*
X66733456Y-88394805D01*
X66902974Y-88281537D01*
X66946911Y-88237600D01*
X74150089Y-88237600D01*
X74219426Y-88306937D01*
X74388944Y-88420205D01*
X74577302Y-88498226D01*
X74777261Y-88538000D01*
X74981139Y-88538000D01*
X75181098Y-88498226D01*
X75369456Y-88420205D01*
X75538974Y-88306937D01*
X75683137Y-88162774D01*
X75796405Y-87993256D01*
X75874426Y-87804898D01*
X75914200Y-87604939D01*
X75914200Y-87401061D01*
X75874426Y-87201102D01*
X75796405Y-87012744D01*
X75683137Y-86843226D01*
X75538974Y-86699063D01*
X75369456Y-86585795D01*
X75181098Y-86507774D01*
X75017503Y-86475233D01*
X75025200Y-86436539D01*
X75025200Y-86232661D01*
X74985426Y-86032702D01*
X74909748Y-85850000D01*
X77432678Y-85850000D01*
X77470000Y-85853676D01*
X77507322Y-85850000D01*
X77507333Y-85850000D01*
X77618986Y-85839003D01*
X77762247Y-85795546D01*
X77894276Y-85724974D01*
X78010001Y-85630001D01*
X78033804Y-85600997D01*
X82273604Y-81361198D01*
X82302601Y-81337401D01*
X82351649Y-81277636D01*
X82397574Y-81221677D01*
X82468146Y-81089647D01*
X82474326Y-81069275D01*
X82511603Y-80946386D01*
X82522600Y-80834733D01*
X82522600Y-80834724D01*
X82526276Y-80797401D01*
X82522600Y-80760078D01*
X82522600Y-73771601D01*
X83271202Y-73023000D01*
X94069678Y-73023000D01*
X94107000Y-73026676D01*
X94144322Y-73023000D01*
X94144333Y-73023000D01*
X94255986Y-73012003D01*
X94399247Y-72968546D01*
X94531276Y-72897974D01*
X94647001Y-72803001D01*
X94670804Y-72773998D01*
X95289802Y-72155000D01*
X95351939Y-72155000D01*
X95551898Y-72115226D01*
X95740256Y-72037205D01*
X95877503Y-71945500D01*
X101555600Y-71945500D01*
X101555600Y-71994597D01*
G36*
X119084063Y-80874226D02*
G01*
X118970795Y-81043744D01*
X118892774Y-81232102D01*
X118853000Y-81432061D01*
X118853000Y-81635939D01*
X118892774Y-81835898D01*
X118970795Y-82024256D01*
X119084063Y-82193774D01*
X119228226Y-82337937D01*
X119397744Y-82451205D01*
X119586102Y-82529226D01*
X119747996Y-82561429D01*
X125548457Y-88361890D01*
X125642656Y-88439198D01*
X125786065Y-88515852D01*
X125941672Y-88563054D01*
X126103499Y-88578993D01*
X126265325Y-88563054D01*
X126420932Y-88515852D01*
X126432818Y-88509499D01*
X130078919Y-88509499D01*
X130116241Y-88513175D01*
X130153563Y-88509499D01*
X130153574Y-88509499D01*
X130206360Y-88504300D01*
X132392289Y-88504300D01*
X132436226Y-88548237D01*
X132470942Y-88571433D01*
X132217396Y-88521000D01*
X131942604Y-88521000D01*
X131673093Y-88574609D01*
X131419220Y-88679767D01*
X131190739Y-88832433D01*
X130996433Y-89026739D01*
X130843767Y-89255220D01*
X130812170Y-89331501D01*
X130805744Y-89313674D01*
X130744025Y-89198206D01*
X130504137Y-89131469D01*
X129719605Y-89916000D01*
X129733748Y-89930142D01*
X129554142Y-90109748D01*
X129540000Y-90095605D01*
X129525858Y-90109748D01*
X129346252Y-89930142D01*
X129360395Y-89916000D01*
X128575863Y-89131469D01*
X128335975Y-89198206D01*
X128270400Y-89337707D01*
X128236233Y-89255220D01*
X128083567Y-89026739D01*
X128008691Y-88951863D01*
X128755469Y-88951863D01*
X129540000Y-89736395D01*
X130324531Y-88951863D01*
X130257794Y-88711975D01*
X130009108Y-88595076D01*
X129742394Y-88528939D01*
X129467903Y-88516105D01*
X129196183Y-88557069D01*
X128937674Y-88650256D01*
X128822206Y-88711975D01*
X128755469Y-88951863D01*
X128008691Y-88951863D01*
X127889261Y-88832433D01*
X127660780Y-88679767D01*
X127406907Y-88574609D01*
X127137396Y-88521000D01*
X126862604Y-88521000D01*
X126593093Y-88574609D01*
X126339220Y-88679767D01*
X126110739Y-88832433D01*
X125916433Y-89026739D01*
X125763767Y-89255220D01*
X125658609Y-89509093D01*
X125605000Y-89778604D01*
X125605000Y-90053396D01*
X125658609Y-90322907D01*
X125763767Y-90576780D01*
X125786631Y-90610999D01*
X125683923Y-90610999D01*
X125646600Y-90607323D01*
X125609278Y-90610999D01*
X125609268Y-90610999D01*
X125497615Y-90621996D01*
X125371487Y-90660256D01*
X125354354Y-90665453D01*
X125222324Y-90736025D01*
X125191009Y-90761725D01*
X125156826Y-90789779D01*
X125104338Y-90711225D01*
X124960175Y-90567062D01*
X124790657Y-90453794D01*
X124602299Y-90375773D01*
X124402340Y-90335999D01*
X124198462Y-90335999D01*
X123998503Y-90375773D01*
X123810145Y-90453794D01*
X123640627Y-90567062D01*
X123496464Y-90711225D01*
X123383196Y-90880743D01*
X123305175Y-91069101D01*
X123265401Y-91269060D01*
X123265401Y-91331197D01*
X122753718Y-91842881D01*
X109984551Y-91842881D01*
X114440006Y-87387428D01*
X114601898Y-87355226D01*
X114790256Y-87277205D01*
X114959774Y-87163937D01*
X115103937Y-87019774D01*
X115217205Y-86850256D01*
X115295226Y-86661898D01*
X115335000Y-86461939D01*
X115335000Y-86258061D01*
X115295226Y-86058102D01*
X115217205Y-85869744D01*
X115103937Y-85700226D01*
X114959774Y-85556063D01*
X114790256Y-85442795D01*
X114601898Y-85364774D01*
X114401939Y-85325000D01*
X114198061Y-85325000D01*
X113998102Y-85364774D01*
X113809744Y-85442795D01*
X113640226Y-85556063D01*
X113496063Y-85700226D01*
X113382795Y-85869744D01*
X113304774Y-86058102D01*
X113272572Y-86219994D01*
X108878068Y-90614500D01*
X108672932Y-90614500D01*
X112315045Y-86972389D01*
X112346541Y-86946541D01*
X112372389Y-86915045D01*
X112372392Y-86915042D01*
X112449699Y-86820843D01*
X112526353Y-86677434D01*
X112541698Y-86626847D01*
X112573556Y-86521826D01*
X112585500Y-86400553D01*
X112585500Y-86400551D01*
X112589494Y-86360000D01*
X112585500Y-86319450D01*
X112585500Y-84069301D01*
X115884802Y-80770000D01*
X119188289Y-80770000D01*
X119084063Y-80874226D01*
X119084063Y-80874226D01*
G37*
X119084063Y-80874226D02*
X118970795Y-81043744D01*
X118892774Y-81232102D01*
X118853000Y-81432061D01*
X118853000Y-81635939D01*
X118892774Y-81835898D01*
X118970795Y-82024256D01*
X119084063Y-82193774D01*
X119228226Y-82337937D01*
X119397744Y-82451205D01*
X119586102Y-82529226D01*
X119747996Y-82561429D01*
X125548457Y-88361890D01*
X125642656Y-88439198D01*
X125786065Y-88515852D01*
X125941672Y-88563054D01*
X126103499Y-88578993D01*
X126265325Y-88563054D01*
X126420932Y-88515852D01*
X126432818Y-88509499D01*
X130078919Y-88509499D01*
X130116241Y-88513175D01*
X130153563Y-88509499D01*
X130153574Y-88509499D01*
X130206360Y-88504300D01*
X132392289Y-88504300D01*
X132436226Y-88548237D01*
X132470942Y-88571433D01*
X132217396Y-88521000D01*
X131942604Y-88521000D01*
X131673093Y-88574609D01*
X131419220Y-88679767D01*
X131190739Y-88832433D01*
X130996433Y-89026739D01*
X130843767Y-89255220D01*
X130812170Y-89331501D01*
X130805744Y-89313674D01*
X130744025Y-89198206D01*
X130504137Y-89131469D01*
X129719605Y-89916000D01*
X129733748Y-89930142D01*
X129554142Y-90109748D01*
X129540000Y-90095605D01*
X129525858Y-90109748D01*
X129346252Y-89930142D01*
X129360395Y-89916000D01*
X128575863Y-89131469D01*
X128335975Y-89198206D01*
X128270400Y-89337707D01*
X128236233Y-89255220D01*
X128083567Y-89026739D01*
X128008691Y-88951863D01*
X128755469Y-88951863D01*
X129540000Y-89736395D01*
X130324531Y-88951863D01*
X130257794Y-88711975D01*
X130009108Y-88595076D01*
X129742394Y-88528939D01*
X129467903Y-88516105D01*
X129196183Y-88557069D01*
X128937674Y-88650256D01*
X128822206Y-88711975D01*
X128755469Y-88951863D01*
X128008691Y-88951863D01*
X127889261Y-88832433D01*
X127660780Y-88679767D01*
X127406907Y-88574609D01*
X127137396Y-88521000D01*
X126862604Y-88521000D01*
X126593093Y-88574609D01*
X126339220Y-88679767D01*
X126110739Y-88832433D01*
X125916433Y-89026739D01*
X125763767Y-89255220D01*
X125658609Y-89509093D01*
X125605000Y-89778604D01*
X125605000Y-90053396D01*
X125658609Y-90322907D01*
X125763767Y-90576780D01*
X125786631Y-90610999D01*
X125683923Y-90610999D01*
X125646600Y-90607323D01*
X125609278Y-90610999D01*
X125609268Y-90610999D01*
X125497615Y-90621996D01*
X125371487Y-90660256D01*
X125354354Y-90665453D01*
X125222324Y-90736025D01*
X125191009Y-90761725D01*
X125156826Y-90789779D01*
X125104338Y-90711225D01*
X124960175Y-90567062D01*
X124790657Y-90453794D01*
X124602299Y-90375773D01*
X124402340Y-90335999D01*
X124198462Y-90335999D01*
X123998503Y-90375773D01*
X123810145Y-90453794D01*
X123640627Y-90567062D01*
X123496464Y-90711225D01*
X123383196Y-90880743D01*
X123305175Y-91069101D01*
X123265401Y-91269060D01*
X123265401Y-91331197D01*
X122753718Y-91842881D01*
X109984551Y-91842881D01*
X114440006Y-87387428D01*
X114601898Y-87355226D01*
X114790256Y-87277205D01*
X114959774Y-87163937D01*
X115103937Y-87019774D01*
X115217205Y-86850256D01*
X115295226Y-86661898D01*
X115335000Y-86461939D01*
X115335000Y-86258061D01*
X115295226Y-86058102D01*
X115217205Y-85869744D01*
X115103937Y-85700226D01*
X114959774Y-85556063D01*
X114790256Y-85442795D01*
X114601898Y-85364774D01*
X114401939Y-85325000D01*
X114198061Y-85325000D01*
X113998102Y-85364774D01*
X113809744Y-85442795D01*
X113640226Y-85556063D01*
X113496063Y-85700226D01*
X113382795Y-85869744D01*
X113304774Y-86058102D01*
X113272572Y-86219994D01*
X108878068Y-90614500D01*
X108672932Y-90614500D01*
X112315045Y-86972389D01*
X112346541Y-86946541D01*
X112372389Y-86915045D01*
X112372392Y-86915042D01*
X112449699Y-86820843D01*
X112526353Y-86677434D01*
X112541698Y-86626847D01*
X112573556Y-86521826D01*
X112585500Y-86400553D01*
X112585500Y-86400551D01*
X112589494Y-86360000D01*
X112585500Y-86319450D01*
X112585500Y-84069301D01*
X115884802Y-80770000D01*
X119188289Y-80770000D01*
X119084063Y-80874226D01*
G36*
X104421245Y-68344704D02*
G01*
X104609603Y-68422725D01*
X104809562Y-68462499D01*
X105013440Y-68462499D01*
X105213399Y-68422725D01*
X105401757Y-68344704D01*
X105539004Y-68252999D01*
X114807462Y-68252999D01*
X114755244Y-68364048D01*
X114688977Y-68631135D01*
X114676090Y-68906017D01*
X114717078Y-69178133D01*
X114810364Y-69437023D01*
X114872344Y-69552980D01*
X115112435Y-69619960D01*
X115898395Y-68834000D01*
X115884253Y-68819858D01*
X116063858Y-68640253D01*
X116078000Y-68654395D01*
X116092143Y-68640253D01*
X116271748Y-68819858D01*
X116257605Y-68834000D01*
X117043565Y-69619960D01*
X117283656Y-69552980D01*
X117347485Y-69417240D01*
X117379995Y-69495727D01*
X117532880Y-69724535D01*
X117727465Y-69919120D01*
X117956273Y-70072005D01*
X118210510Y-70177314D01*
X118480408Y-70231000D01*
X118755592Y-70231000D01*
X119025490Y-70177314D01*
X119279727Y-70072005D01*
X119508535Y-69919120D01*
X119703120Y-69724535D01*
X119856005Y-69495727D01*
X119888000Y-69418485D01*
X119919995Y-69495727D01*
X120072880Y-69724535D01*
X120267465Y-69919120D01*
X120496273Y-70072005D01*
X120750510Y-70177314D01*
X121020408Y-70231000D01*
X121133568Y-70231000D01*
X121070068Y-70294500D01*
X112097507Y-70294500D01*
X112138098Y-70286426D01*
X112326456Y-70208405D01*
X112495974Y-70095137D01*
X112640137Y-69950974D01*
X112741304Y-69799565D01*
X115292040Y-69799565D01*
X115359020Y-70039656D01*
X115608048Y-70156756D01*
X115875135Y-70223023D01*
X116150017Y-70235910D01*
X116422133Y-70194922D01*
X116681023Y-70101636D01*
X116796980Y-70039656D01*
X116863960Y-69799565D01*
X116078000Y-69013605D01*
X115292040Y-69799565D01*
X112741304Y-69799565D01*
X112753405Y-69781456D01*
X112831426Y-69593098D01*
X112871200Y-69393139D01*
X112871200Y-69189261D01*
X112831426Y-68989302D01*
X112753405Y-68800944D01*
X112640137Y-68631426D01*
X112495974Y-68487263D01*
X112326456Y-68373995D01*
X112138098Y-68295974D01*
X111938139Y-68256200D01*
X111734261Y-68256200D01*
X111534302Y-68295974D01*
X111345944Y-68373995D01*
X111176426Y-68487263D01*
X111132489Y-68531200D01*
X93709165Y-68531200D01*
X93719600Y-68478739D01*
X93719600Y-68274861D01*
X93715251Y-68252999D01*
X104283998Y-68252999D01*
X104421245Y-68344704D01*
X104421245Y-68344704D01*
G37*
X104421245Y-68344704D02*
X104609603Y-68422725D01*
X104809562Y-68462499D01*
X105013440Y-68462499D01*
X105213399Y-68422725D01*
X105401757Y-68344704D01*
X105539004Y-68252999D01*
X114807462Y-68252999D01*
X114755244Y-68364048D01*
X114688977Y-68631135D01*
X114676090Y-68906017D01*
X114717078Y-69178133D01*
X114810364Y-69437023D01*
X114872344Y-69552980D01*
X115112435Y-69619960D01*
X115898395Y-68834000D01*
X115884253Y-68819858D01*
X116063858Y-68640253D01*
X116078000Y-68654395D01*
X116092143Y-68640253D01*
X116271748Y-68819858D01*
X116257605Y-68834000D01*
X117043565Y-69619960D01*
X117283656Y-69552980D01*
X117347485Y-69417240D01*
X117379995Y-69495727D01*
X117532880Y-69724535D01*
X117727465Y-69919120D01*
X117956273Y-70072005D01*
X118210510Y-70177314D01*
X118480408Y-70231000D01*
X118755592Y-70231000D01*
X119025490Y-70177314D01*
X119279727Y-70072005D01*
X119508535Y-69919120D01*
X119703120Y-69724535D01*
X119856005Y-69495727D01*
X119888000Y-69418485D01*
X119919995Y-69495727D01*
X120072880Y-69724535D01*
X120267465Y-69919120D01*
X120496273Y-70072005D01*
X120750510Y-70177314D01*
X121020408Y-70231000D01*
X121133568Y-70231000D01*
X121070068Y-70294500D01*
X112097507Y-70294500D01*
X112138098Y-70286426D01*
X112326456Y-70208405D01*
X112495974Y-70095137D01*
X112640137Y-69950974D01*
X112741304Y-69799565D01*
X115292040Y-69799565D01*
X115359020Y-70039656D01*
X115608048Y-70156756D01*
X115875135Y-70223023D01*
X116150017Y-70235910D01*
X116422133Y-70194922D01*
X116681023Y-70101636D01*
X116796980Y-70039656D01*
X116863960Y-69799565D01*
X116078000Y-69013605D01*
X115292040Y-69799565D01*
X112741304Y-69799565D01*
X112753405Y-69781456D01*
X112831426Y-69593098D01*
X112871200Y-69393139D01*
X112871200Y-69189261D01*
X112831426Y-68989302D01*
X112753405Y-68800944D01*
X112640137Y-68631426D01*
X112495974Y-68487263D01*
X112326456Y-68373995D01*
X112138098Y-68295974D01*
X111938139Y-68256200D01*
X111734261Y-68256200D01*
X111534302Y-68295974D01*
X111345944Y-68373995D01*
X111176426Y-68487263D01*
X111132489Y-68531200D01*
X93709165Y-68531200D01*
X93719600Y-68478739D01*
X93719600Y-68274861D01*
X93715251Y-68252999D01*
X104283998Y-68252999D01*
X104421245Y-68344704D01*
G36*
X116193718Y-49831519D02*
G01*
X116205026Y-49852676D01*
X116244871Y-49901226D01*
X116299999Y-49968401D01*
X116329003Y-49992204D01*
X119432801Y-53096003D01*
X119432800Y-62421278D01*
X119429124Y-62458600D01*
X119432800Y-62495922D01*
X119432800Y-62495932D01*
X119443797Y-62607585D01*
X119477975Y-62720256D01*
X119487254Y-62750846D01*
X119557826Y-62882876D01*
X119582925Y-62913459D01*
X119652799Y-62998601D01*
X119681803Y-63022404D01*
X124181618Y-67522219D01*
X124105490Y-67490686D01*
X123835592Y-67437000D01*
X123560408Y-67437000D01*
X123290510Y-67490686D01*
X123036273Y-67595995D01*
X122807465Y-67748880D01*
X122612880Y-67943465D01*
X122459995Y-68172273D01*
X122428000Y-68249515D01*
X122396005Y-68172273D01*
X122243120Y-67943465D01*
X122048535Y-67748880D01*
X121819727Y-67595995D01*
X121565490Y-67490686D01*
X121295592Y-67437000D01*
X121020408Y-67437000D01*
X120943693Y-67452260D01*
X120363897Y-66872465D01*
X120338040Y-66840958D01*
X120212341Y-66737800D01*
X120068933Y-66661146D01*
X119913325Y-66613943D01*
X119792052Y-66601999D01*
X119792049Y-66601999D01*
X119751499Y-66598005D01*
X119710949Y-66601999D01*
X111321800Y-66601999D01*
X111321800Y-66446061D01*
X111282026Y-66246102D01*
X111204005Y-66057744D01*
X111090737Y-65888226D01*
X111035787Y-65833276D01*
X111021400Y-65785848D01*
X111021400Y-62559861D01*
X111080600Y-62559861D01*
X111080600Y-62763739D01*
X111120374Y-62963698D01*
X111198395Y-63152056D01*
X111311663Y-63321574D01*
X111455826Y-63465737D01*
X111625344Y-63579005D01*
X111813702Y-63657026D01*
X112013661Y-63696800D01*
X112217539Y-63696800D01*
X112417498Y-63657026D01*
X112605856Y-63579005D01*
X112775374Y-63465737D01*
X112819311Y-63421800D01*
X117177689Y-63421800D01*
X117221626Y-63465737D01*
X117391144Y-63579005D01*
X117579502Y-63657026D01*
X117779461Y-63696800D01*
X117983339Y-63696800D01*
X118183298Y-63657026D01*
X118371656Y-63579005D01*
X118541174Y-63465737D01*
X118685337Y-63321574D01*
X118798605Y-63152056D01*
X118876626Y-62963698D01*
X118916400Y-62763739D01*
X118916400Y-62559861D01*
X118876626Y-62359902D01*
X118798605Y-62171544D01*
X118685337Y-62002026D01*
X118541174Y-61857863D01*
X118371656Y-61744595D01*
X118183298Y-61666574D01*
X117983339Y-61626800D01*
X117779461Y-61626800D01*
X117579502Y-61666574D01*
X117391144Y-61744595D01*
X117221626Y-61857863D01*
X117177689Y-61901800D01*
X112819311Y-61901800D01*
X112775374Y-61857863D01*
X112605856Y-61744595D01*
X112417498Y-61666574D01*
X112217539Y-61626800D01*
X112013661Y-61626800D01*
X111813702Y-61666574D01*
X111625344Y-61744595D01*
X111455826Y-61857863D01*
X111311663Y-62002026D01*
X111198395Y-62171544D01*
X111120374Y-62359902D01*
X111080600Y-62559861D01*
X111021400Y-62559861D01*
X111021400Y-58914533D01*
X111025077Y-58877200D01*
X111010403Y-58728214D01*
X110966946Y-58584953D01*
X110896374Y-58452924D01*
X110857825Y-58405952D01*
X110801401Y-58337199D01*
X110772403Y-58313401D01*
X108107404Y-55648403D01*
X108083601Y-55619399D01*
X107967876Y-55524426D01*
X107835847Y-55453854D01*
X107692586Y-55410397D01*
X107580933Y-55399400D01*
X107580922Y-55399400D01*
X107543600Y-55395724D01*
X107506278Y-55399400D01*
X94244002Y-55399400D01*
X91636800Y-52792199D01*
X91636800Y-52746610D01*
X93983689Y-52746610D01*
X93906686Y-52932510D01*
X93853000Y-53202408D01*
X93853000Y-53477592D01*
X93906686Y-53747490D01*
X94011995Y-54001727D01*
X94164880Y-54230535D01*
X94359465Y-54425120D01*
X94588273Y-54578005D01*
X94842510Y-54683314D01*
X95112408Y-54737000D01*
X95387592Y-54737000D01*
X95657490Y-54683314D01*
X95911727Y-54578005D01*
X96140535Y-54425120D01*
X96260090Y-54305565D01*
X97004040Y-54305565D01*
X97071020Y-54545656D01*
X97320048Y-54662756D01*
X97587135Y-54729023D01*
X97862017Y-54741910D01*
X98134133Y-54700922D01*
X98393023Y-54607636D01*
X98508980Y-54545656D01*
X98575960Y-54305565D01*
X97790000Y-53519605D01*
X97004040Y-54305565D01*
X96260090Y-54305565D01*
X96335120Y-54230535D01*
X96488005Y-54001727D01*
X96517692Y-53930057D01*
X96522364Y-53943023D01*
X96584344Y-54058980D01*
X96824435Y-54125960D01*
X97610395Y-53340000D01*
X97596253Y-53325858D01*
X97775858Y-53146253D01*
X97790000Y-53160395D01*
X97804143Y-53146253D01*
X97983748Y-53325858D01*
X97969605Y-53340000D01*
X98755565Y-54125960D01*
X98995656Y-54058980D01*
X99059485Y-53923240D01*
X99091995Y-54001727D01*
X99244880Y-54230535D01*
X99439465Y-54425120D01*
X99668273Y-54578005D01*
X99922510Y-54683314D01*
X100192408Y-54737000D01*
X100467592Y-54737000D01*
X100737490Y-54683314D01*
X100991727Y-54578005D01*
X101220535Y-54425120D01*
X101415120Y-54230535D01*
X101568005Y-54001727D01*
X101673314Y-53747490D01*
X101727000Y-53477592D01*
X101727000Y-53202408D01*
X106553000Y-53202408D01*
X106553000Y-53477592D01*
X106606686Y-53747490D01*
X106711995Y-54001727D01*
X106864880Y-54230535D01*
X107059465Y-54425120D01*
X107288273Y-54578005D01*
X107542510Y-54683314D01*
X107812408Y-54737000D01*
X108087592Y-54737000D01*
X108357490Y-54683314D01*
X108611727Y-54578005D01*
X108840535Y-54425120D01*
X108960090Y-54305565D01*
X109704040Y-54305565D01*
X109771020Y-54545656D01*
X110020048Y-54662756D01*
X110287135Y-54729023D01*
X110562017Y-54741910D01*
X110834133Y-54700922D01*
X111093023Y-54607636D01*
X111208980Y-54545656D01*
X111275960Y-54305565D01*
X110490000Y-53519605D01*
X109704040Y-54305565D01*
X108960090Y-54305565D01*
X109035120Y-54230535D01*
X109188005Y-54001727D01*
X109217692Y-53930057D01*
X109222364Y-53943023D01*
X109284344Y-54058980D01*
X109524435Y-54125960D01*
X110310395Y-53340000D01*
X110669605Y-53340000D01*
X111455565Y-54125960D01*
X111695656Y-54058980D01*
X111759485Y-53923240D01*
X111791995Y-54001727D01*
X111944880Y-54230535D01*
X112139465Y-54425120D01*
X112368273Y-54578005D01*
X112622510Y-54683314D01*
X112892408Y-54737000D01*
X113167592Y-54737000D01*
X113437490Y-54683314D01*
X113691727Y-54578005D01*
X113920535Y-54425120D01*
X114115120Y-54230535D01*
X114268005Y-54001727D01*
X114373314Y-53747490D01*
X114427000Y-53477592D01*
X114427000Y-53202408D01*
X114373314Y-52932510D01*
X114268005Y-52678273D01*
X114115120Y-52449465D01*
X113920535Y-52254880D01*
X113691727Y-52101995D01*
X113437490Y-51996686D01*
X113167592Y-51943000D01*
X112892408Y-51943000D01*
X112622510Y-51996686D01*
X112368273Y-52101995D01*
X112139465Y-52254880D01*
X111944880Y-52449465D01*
X111791995Y-52678273D01*
X111762308Y-52749943D01*
X111757636Y-52736977D01*
X111695656Y-52621020D01*
X111455565Y-52554040D01*
X110669605Y-53340000D01*
X110310395Y-53340000D01*
X109524435Y-52554040D01*
X109284344Y-52621020D01*
X109220515Y-52756760D01*
X109188005Y-52678273D01*
X109035120Y-52449465D01*
X108960090Y-52374435D01*
X109704040Y-52374435D01*
X110490000Y-53160395D01*
X111275960Y-52374435D01*
X111208980Y-52134344D01*
X110959952Y-52017244D01*
X110692865Y-51950977D01*
X110417983Y-51938090D01*
X110145867Y-51979078D01*
X109886977Y-52072364D01*
X109771020Y-52134344D01*
X109704040Y-52374435D01*
X108960090Y-52374435D01*
X108840535Y-52254880D01*
X108611727Y-52101995D01*
X108357490Y-51996686D01*
X108087592Y-51943000D01*
X107812408Y-51943000D01*
X107542510Y-51996686D01*
X107288273Y-52101995D01*
X107059465Y-52254880D01*
X106864880Y-52449465D01*
X106711995Y-52678273D01*
X106606686Y-52932510D01*
X106553000Y-53202408D01*
X101727000Y-53202408D01*
X101673314Y-52932510D01*
X101568005Y-52678273D01*
X101415120Y-52449465D01*
X101220535Y-52254880D01*
X100991727Y-52101995D01*
X100737490Y-51996686D01*
X100467592Y-51943000D01*
X100192408Y-51943000D01*
X100038430Y-51973628D01*
X99540413Y-51475612D01*
X99516611Y-51446609D01*
X99400886Y-51351636D01*
X99268857Y-51281064D01*
X99125596Y-51237607D01*
X99013943Y-51226610D01*
X99013932Y-51226610D01*
X98976610Y-51222934D01*
X98939288Y-51226610D01*
X92011991Y-51226610D01*
X95361602Y-47877000D01*
X114239199Y-47877000D01*
X116193718Y-49831519D01*
X116193718Y-49831519D01*
G37*
X116193718Y-49831519D02*
X116205026Y-49852676D01*
X116244871Y-49901226D01*
X116299999Y-49968401D01*
X116329003Y-49992204D01*
X119432801Y-53096003D01*
X119432800Y-62421278D01*
X119429124Y-62458600D01*
X119432800Y-62495922D01*
X119432800Y-62495932D01*
X119443797Y-62607585D01*
X119477975Y-62720256D01*
X119487254Y-62750846D01*
X119557826Y-62882876D01*
X119582925Y-62913459D01*
X119652799Y-62998601D01*
X119681803Y-63022404D01*
X124181618Y-67522219D01*
X124105490Y-67490686D01*
X123835592Y-67437000D01*
X123560408Y-67437000D01*
X123290510Y-67490686D01*
X123036273Y-67595995D01*
X122807465Y-67748880D01*
X122612880Y-67943465D01*
X122459995Y-68172273D01*
X122428000Y-68249515D01*
X122396005Y-68172273D01*
X122243120Y-67943465D01*
X122048535Y-67748880D01*
X121819727Y-67595995D01*
X121565490Y-67490686D01*
X121295592Y-67437000D01*
X121020408Y-67437000D01*
X120943693Y-67452260D01*
X120363897Y-66872465D01*
X120338040Y-66840958D01*
X120212341Y-66737800D01*
X120068933Y-66661146D01*
X119913325Y-66613943D01*
X119792052Y-66601999D01*
X119792049Y-66601999D01*
X119751499Y-66598005D01*
X119710949Y-66601999D01*
X111321800Y-66601999D01*
X111321800Y-66446061D01*
X111282026Y-66246102D01*
X111204005Y-66057744D01*
X111090737Y-65888226D01*
X111035787Y-65833276D01*
X111021400Y-65785848D01*
X111021400Y-62559861D01*
X111080600Y-62559861D01*
X111080600Y-62763739D01*
X111120374Y-62963698D01*
X111198395Y-63152056D01*
X111311663Y-63321574D01*
X111455826Y-63465737D01*
X111625344Y-63579005D01*
X111813702Y-63657026D01*
X112013661Y-63696800D01*
X112217539Y-63696800D01*
X112417498Y-63657026D01*
X112605856Y-63579005D01*
X112775374Y-63465737D01*
X112819311Y-63421800D01*
X117177689Y-63421800D01*
X117221626Y-63465737D01*
X117391144Y-63579005D01*
X117579502Y-63657026D01*
X117779461Y-63696800D01*
X117983339Y-63696800D01*
X118183298Y-63657026D01*
X118371656Y-63579005D01*
X118541174Y-63465737D01*
X118685337Y-63321574D01*
X118798605Y-63152056D01*
X118876626Y-62963698D01*
X118916400Y-62763739D01*
X118916400Y-62559861D01*
X118876626Y-62359902D01*
X118798605Y-62171544D01*
X118685337Y-62002026D01*
X118541174Y-61857863D01*
X118371656Y-61744595D01*
X118183298Y-61666574D01*
X117983339Y-61626800D01*
X117779461Y-61626800D01*
X117579502Y-61666574D01*
X117391144Y-61744595D01*
X117221626Y-61857863D01*
X117177689Y-61901800D01*
X112819311Y-61901800D01*
X112775374Y-61857863D01*
X112605856Y-61744595D01*
X112417498Y-61666574D01*
X112217539Y-61626800D01*
X112013661Y-61626800D01*
X111813702Y-61666574D01*
X111625344Y-61744595D01*
X111455826Y-61857863D01*
X111311663Y-62002026D01*
X111198395Y-62171544D01*
X111120374Y-62359902D01*
X111080600Y-62559861D01*
X111021400Y-62559861D01*
X111021400Y-58914533D01*
X111025077Y-58877200D01*
X111010403Y-58728214D01*
X110966946Y-58584953D01*
X110896374Y-58452924D01*
X110857825Y-58405952D01*
X110801401Y-58337199D01*
X110772403Y-58313401D01*
X108107404Y-55648403D01*
X108083601Y-55619399D01*
X107967876Y-55524426D01*
X107835847Y-55453854D01*
X107692586Y-55410397D01*
X107580933Y-55399400D01*
X107580922Y-55399400D01*
X107543600Y-55395724D01*
X107506278Y-55399400D01*
X94244002Y-55399400D01*
X91636800Y-52792199D01*
X91636800Y-52746610D01*
X93983689Y-52746610D01*
X93906686Y-52932510D01*
X93853000Y-53202408D01*
X93853000Y-53477592D01*
X93906686Y-53747490D01*
X94011995Y-54001727D01*
X94164880Y-54230535D01*
X94359465Y-54425120D01*
X94588273Y-54578005D01*
X94842510Y-54683314D01*
X95112408Y-54737000D01*
X95387592Y-54737000D01*
X95657490Y-54683314D01*
X95911727Y-54578005D01*
X96140535Y-54425120D01*
X96260090Y-54305565D01*
X97004040Y-54305565D01*
X97071020Y-54545656D01*
X97320048Y-54662756D01*
X97587135Y-54729023D01*
X97862017Y-54741910D01*
X98134133Y-54700922D01*
X98393023Y-54607636D01*
X98508980Y-54545656D01*
X98575960Y-54305565D01*
X97790000Y-53519605D01*
X97004040Y-54305565D01*
X96260090Y-54305565D01*
X96335120Y-54230535D01*
X96488005Y-54001727D01*
X96517692Y-53930057D01*
X96522364Y-53943023D01*
X96584344Y-54058980D01*
X96824435Y-54125960D01*
X97610395Y-53340000D01*
X97596253Y-53325858D01*
X97775858Y-53146253D01*
X97790000Y-53160395D01*
X97804143Y-53146253D01*
X97983748Y-53325858D01*
X97969605Y-53340000D01*
X98755565Y-54125960D01*
X98995656Y-54058980D01*
X99059485Y-53923240D01*
X99091995Y-54001727D01*
X99244880Y-54230535D01*
X99439465Y-54425120D01*
X99668273Y-54578005D01*
X99922510Y-54683314D01*
X100192408Y-54737000D01*
X100467592Y-54737000D01*
X100737490Y-54683314D01*
X100991727Y-54578005D01*
X101220535Y-54425120D01*
X101415120Y-54230535D01*
X101568005Y-54001727D01*
X101673314Y-53747490D01*
X101727000Y-53477592D01*
X101727000Y-53202408D01*
X106553000Y-53202408D01*
X106553000Y-53477592D01*
X106606686Y-53747490D01*
X106711995Y-54001727D01*
X106864880Y-54230535D01*
X107059465Y-54425120D01*
X107288273Y-54578005D01*
X107542510Y-54683314D01*
X107812408Y-54737000D01*
X108087592Y-54737000D01*
X108357490Y-54683314D01*
X108611727Y-54578005D01*
X108840535Y-54425120D01*
X108960090Y-54305565D01*
X109704040Y-54305565D01*
X109771020Y-54545656D01*
X110020048Y-54662756D01*
X110287135Y-54729023D01*
X110562017Y-54741910D01*
X110834133Y-54700922D01*
X111093023Y-54607636D01*
X111208980Y-54545656D01*
X111275960Y-54305565D01*
X110490000Y-53519605D01*
X109704040Y-54305565D01*
X108960090Y-54305565D01*
X109035120Y-54230535D01*
X109188005Y-54001727D01*
X109217692Y-53930057D01*
X109222364Y-53943023D01*
X109284344Y-54058980D01*
X109524435Y-54125960D01*
X110310395Y-53340000D01*
X110669605Y-53340000D01*
X111455565Y-54125960D01*
X111695656Y-54058980D01*
X111759485Y-53923240D01*
X111791995Y-54001727D01*
X111944880Y-54230535D01*
X112139465Y-54425120D01*
X112368273Y-54578005D01*
X112622510Y-54683314D01*
X112892408Y-54737000D01*
X113167592Y-54737000D01*
X113437490Y-54683314D01*
X113691727Y-54578005D01*
X113920535Y-54425120D01*
X114115120Y-54230535D01*
X114268005Y-54001727D01*
X114373314Y-53747490D01*
X114427000Y-53477592D01*
X114427000Y-53202408D01*
X114373314Y-52932510D01*
X114268005Y-52678273D01*
X114115120Y-52449465D01*
X113920535Y-52254880D01*
X113691727Y-52101995D01*
X113437490Y-51996686D01*
X113167592Y-51943000D01*
X112892408Y-51943000D01*
X112622510Y-51996686D01*
X112368273Y-52101995D01*
X112139465Y-52254880D01*
X111944880Y-52449465D01*
X111791995Y-52678273D01*
X111762308Y-52749943D01*
X111757636Y-52736977D01*
X111695656Y-52621020D01*
X111455565Y-52554040D01*
X110669605Y-53340000D01*
X110310395Y-53340000D01*
X109524435Y-52554040D01*
X109284344Y-52621020D01*
X109220515Y-52756760D01*
X109188005Y-52678273D01*
X109035120Y-52449465D01*
X108960090Y-52374435D01*
X109704040Y-52374435D01*
X110490000Y-53160395D01*
X111275960Y-52374435D01*
X111208980Y-52134344D01*
X110959952Y-52017244D01*
X110692865Y-51950977D01*
X110417983Y-51938090D01*
X110145867Y-51979078D01*
X109886977Y-52072364D01*
X109771020Y-52134344D01*
X109704040Y-52374435D01*
X108960090Y-52374435D01*
X108840535Y-52254880D01*
X108611727Y-52101995D01*
X108357490Y-51996686D01*
X108087592Y-51943000D01*
X107812408Y-51943000D01*
X107542510Y-51996686D01*
X107288273Y-52101995D01*
X107059465Y-52254880D01*
X106864880Y-52449465D01*
X106711995Y-52678273D01*
X106606686Y-52932510D01*
X106553000Y-53202408D01*
X101727000Y-53202408D01*
X101673314Y-52932510D01*
X101568005Y-52678273D01*
X101415120Y-52449465D01*
X101220535Y-52254880D01*
X100991727Y-52101995D01*
X100737490Y-51996686D01*
X100467592Y-51943000D01*
X100192408Y-51943000D01*
X100038430Y-51973628D01*
X99540413Y-51475612D01*
X99516611Y-51446609D01*
X99400886Y-51351636D01*
X99268857Y-51281064D01*
X99125596Y-51237607D01*
X99013943Y-51226610D01*
X99013932Y-51226610D01*
X98976610Y-51222934D01*
X98939288Y-51226610D01*
X92011991Y-51226610D01*
X95361602Y-47877000D01*
X114239199Y-47877000D01*
X116193718Y-49831519D01*
M02*
