G04 #@! TF.GenerationSoftware,KiCad,Pcbnew,(5.0.0)*
G04 #@! TF.CreationDate,2018-12-16T13:52:50-06:00*
G04 #@! TF.ProjectId,SRASensorBoard_Hardware,53524153656E736F72426F6172645F48,rev?*
G04 #@! TF.SameCoordinates,Original*
G04 #@! TF.FileFunction,Soldermask,Bot*
G04 #@! TF.FilePolarity,Negative*
%FSLAX46Y46*%
G04 Gerber Fmt 4.6, Leading zero omitted, Abs format (unit mm)*
G04 Created by KiCad (PCBNEW (5.0.0)) date 12/16/18 13:52:50*
%MOMM*%
%LPD*%
G01*
G04 APERTURE LIST*
%ADD10C,5.480000*%
%ADD11C,1.924000*%
%ADD12C,3.850000*%
%ADD13C,0.100000*%
%ADD14C,1.350000*%
%ADD15C,1.920000*%
G04 APERTURE END LIST*
D10*
G04 #@! TO.C,Conn1*
X183362600Y-97281000D03*
X183362600Y-105282000D03*
G04 #@! TD*
D11*
G04 #@! TO.C,Conn8*
X171704000Y-58293000D03*
X174244000Y-58293000D03*
X176784000Y-58293000D03*
X179324000Y-58293000D03*
X181864000Y-58293000D03*
D12*
X170434000Y-49657000D03*
X190754000Y-49657000D03*
D11*
X184404000Y-58293000D03*
X186944000Y-58293000D03*
X189484000Y-58293000D03*
G04 #@! TD*
G04 #@! TO.C,Conn7*
X155448000Y-58293000D03*
X152908000Y-58293000D03*
X150368000Y-58293000D03*
D12*
X156718000Y-49657000D03*
X136398000Y-49657000D03*
D11*
X147828000Y-58293000D03*
X145288000Y-58293000D03*
X142748000Y-58293000D03*
X140208000Y-58293000D03*
X137668000Y-58293000D03*
G04 #@! TD*
D13*
G04 #@! TO.C,R4*
G36*
X104256581Y-74700625D02*
X104289343Y-74705485D01*
X104321471Y-74713533D01*
X104352656Y-74724691D01*
X104382596Y-74738852D01*
X104411005Y-74755879D01*
X104437608Y-74775609D01*
X104462149Y-74797851D01*
X104484391Y-74822392D01*
X104504121Y-74848995D01*
X104521148Y-74877404D01*
X104535309Y-74907344D01*
X104546467Y-74938529D01*
X104554515Y-74970657D01*
X104559375Y-75003419D01*
X104561000Y-75036500D01*
X104561000Y-75811500D01*
X104559375Y-75844581D01*
X104554515Y-75877343D01*
X104546467Y-75909471D01*
X104535309Y-75940656D01*
X104521148Y-75970596D01*
X104504121Y-75999005D01*
X104484391Y-76025608D01*
X104462149Y-76050149D01*
X104437608Y-76072391D01*
X104411005Y-76092121D01*
X104382596Y-76109148D01*
X104352656Y-76123309D01*
X104321471Y-76134467D01*
X104289343Y-76142515D01*
X104256581Y-76147375D01*
X104223500Y-76149000D01*
X103548500Y-76149000D01*
X103515419Y-76147375D01*
X103482657Y-76142515D01*
X103450529Y-76134467D01*
X103419344Y-76123309D01*
X103389404Y-76109148D01*
X103360995Y-76092121D01*
X103334392Y-76072391D01*
X103309851Y-76050149D01*
X103287609Y-76025608D01*
X103267879Y-75999005D01*
X103250852Y-75970596D01*
X103236691Y-75940656D01*
X103225533Y-75909471D01*
X103217485Y-75877343D01*
X103212625Y-75844581D01*
X103211000Y-75811500D01*
X103211000Y-75036500D01*
X103212625Y-75003419D01*
X103217485Y-74970657D01*
X103225533Y-74938529D01*
X103236691Y-74907344D01*
X103250852Y-74877404D01*
X103267879Y-74848995D01*
X103287609Y-74822392D01*
X103309851Y-74797851D01*
X103334392Y-74775609D01*
X103360995Y-74755879D01*
X103389404Y-74738852D01*
X103419344Y-74724691D01*
X103450529Y-74713533D01*
X103482657Y-74705485D01*
X103515419Y-74700625D01*
X103548500Y-74699000D01*
X104223500Y-74699000D01*
X104256581Y-74700625D01*
X104256581Y-74700625D01*
G37*
D14*
X103886000Y-75424000D03*
D13*
G36*
X104256581Y-72950625D02*
X104289343Y-72955485D01*
X104321471Y-72963533D01*
X104352656Y-72974691D01*
X104382596Y-72988852D01*
X104411005Y-73005879D01*
X104437608Y-73025609D01*
X104462149Y-73047851D01*
X104484391Y-73072392D01*
X104504121Y-73098995D01*
X104521148Y-73127404D01*
X104535309Y-73157344D01*
X104546467Y-73188529D01*
X104554515Y-73220657D01*
X104559375Y-73253419D01*
X104561000Y-73286500D01*
X104561000Y-74061500D01*
X104559375Y-74094581D01*
X104554515Y-74127343D01*
X104546467Y-74159471D01*
X104535309Y-74190656D01*
X104521148Y-74220596D01*
X104504121Y-74249005D01*
X104484391Y-74275608D01*
X104462149Y-74300149D01*
X104437608Y-74322391D01*
X104411005Y-74342121D01*
X104382596Y-74359148D01*
X104352656Y-74373309D01*
X104321471Y-74384467D01*
X104289343Y-74392515D01*
X104256581Y-74397375D01*
X104223500Y-74399000D01*
X103548500Y-74399000D01*
X103515419Y-74397375D01*
X103482657Y-74392515D01*
X103450529Y-74384467D01*
X103419344Y-74373309D01*
X103389404Y-74359148D01*
X103360995Y-74342121D01*
X103334392Y-74322391D01*
X103309851Y-74300149D01*
X103287609Y-74275608D01*
X103267879Y-74249005D01*
X103250852Y-74220596D01*
X103236691Y-74190656D01*
X103225533Y-74159471D01*
X103217485Y-74127343D01*
X103212625Y-74094581D01*
X103211000Y-74061500D01*
X103211000Y-73286500D01*
X103212625Y-73253419D01*
X103217485Y-73220657D01*
X103225533Y-73188529D01*
X103236691Y-73157344D01*
X103250852Y-73127404D01*
X103267879Y-73098995D01*
X103287609Y-73072392D01*
X103309851Y-73047851D01*
X103334392Y-73025609D01*
X103360995Y-73005879D01*
X103389404Y-72988852D01*
X103419344Y-72974691D01*
X103450529Y-72963533D01*
X103482657Y-72955485D01*
X103515419Y-72950625D01*
X103548500Y-72949000D01*
X104223500Y-72949000D01*
X104256581Y-72950625D01*
X104256581Y-72950625D01*
G37*
D14*
X103886000Y-73674000D03*
G04 #@! TD*
D13*
G04 #@! TO.C,R2*
G36*
X99706581Y-60286625D02*
X99739343Y-60291485D01*
X99771471Y-60299533D01*
X99802656Y-60310691D01*
X99832596Y-60324852D01*
X99861005Y-60341879D01*
X99887608Y-60361609D01*
X99912149Y-60383851D01*
X99934391Y-60408392D01*
X99954121Y-60434995D01*
X99971148Y-60463404D01*
X99985309Y-60493344D01*
X99996467Y-60524529D01*
X100004515Y-60556657D01*
X100009375Y-60589419D01*
X100011000Y-60622500D01*
X100011000Y-61297500D01*
X100009375Y-61330581D01*
X100004515Y-61363343D01*
X99996467Y-61395471D01*
X99985309Y-61426656D01*
X99971148Y-61456596D01*
X99954121Y-61485005D01*
X99934391Y-61511608D01*
X99912149Y-61536149D01*
X99887608Y-61558391D01*
X99861005Y-61578121D01*
X99832596Y-61595148D01*
X99802656Y-61609309D01*
X99771471Y-61620467D01*
X99739343Y-61628515D01*
X99706581Y-61633375D01*
X99673500Y-61635000D01*
X98898500Y-61635000D01*
X98865419Y-61633375D01*
X98832657Y-61628515D01*
X98800529Y-61620467D01*
X98769344Y-61609309D01*
X98739404Y-61595148D01*
X98710995Y-61578121D01*
X98684392Y-61558391D01*
X98659851Y-61536149D01*
X98637609Y-61511608D01*
X98617879Y-61485005D01*
X98600852Y-61456596D01*
X98586691Y-61426656D01*
X98575533Y-61395471D01*
X98567485Y-61363343D01*
X98562625Y-61330581D01*
X98561000Y-61297500D01*
X98561000Y-60622500D01*
X98562625Y-60589419D01*
X98567485Y-60556657D01*
X98575533Y-60524529D01*
X98586691Y-60493344D01*
X98600852Y-60463404D01*
X98617879Y-60434995D01*
X98637609Y-60408392D01*
X98659851Y-60383851D01*
X98684392Y-60361609D01*
X98710995Y-60341879D01*
X98739404Y-60324852D01*
X98769344Y-60310691D01*
X98800529Y-60299533D01*
X98832657Y-60291485D01*
X98865419Y-60286625D01*
X98898500Y-60285000D01*
X99673500Y-60285000D01*
X99706581Y-60286625D01*
X99706581Y-60286625D01*
G37*
D14*
X99286000Y-60960000D03*
D13*
G36*
X97956581Y-60286625D02*
X97989343Y-60291485D01*
X98021471Y-60299533D01*
X98052656Y-60310691D01*
X98082596Y-60324852D01*
X98111005Y-60341879D01*
X98137608Y-60361609D01*
X98162149Y-60383851D01*
X98184391Y-60408392D01*
X98204121Y-60434995D01*
X98221148Y-60463404D01*
X98235309Y-60493344D01*
X98246467Y-60524529D01*
X98254515Y-60556657D01*
X98259375Y-60589419D01*
X98261000Y-60622500D01*
X98261000Y-61297500D01*
X98259375Y-61330581D01*
X98254515Y-61363343D01*
X98246467Y-61395471D01*
X98235309Y-61426656D01*
X98221148Y-61456596D01*
X98204121Y-61485005D01*
X98184391Y-61511608D01*
X98162149Y-61536149D01*
X98137608Y-61558391D01*
X98111005Y-61578121D01*
X98082596Y-61595148D01*
X98052656Y-61609309D01*
X98021471Y-61620467D01*
X97989343Y-61628515D01*
X97956581Y-61633375D01*
X97923500Y-61635000D01*
X97148500Y-61635000D01*
X97115419Y-61633375D01*
X97082657Y-61628515D01*
X97050529Y-61620467D01*
X97019344Y-61609309D01*
X96989404Y-61595148D01*
X96960995Y-61578121D01*
X96934392Y-61558391D01*
X96909851Y-61536149D01*
X96887609Y-61511608D01*
X96867879Y-61485005D01*
X96850852Y-61456596D01*
X96836691Y-61426656D01*
X96825533Y-61395471D01*
X96817485Y-61363343D01*
X96812625Y-61330581D01*
X96811000Y-61297500D01*
X96811000Y-60622500D01*
X96812625Y-60589419D01*
X96817485Y-60556657D01*
X96825533Y-60524529D01*
X96836691Y-60493344D01*
X96850852Y-60463404D01*
X96867879Y-60434995D01*
X96887609Y-60408392D01*
X96909851Y-60383851D01*
X96934392Y-60361609D01*
X96960995Y-60341879D01*
X96989404Y-60324852D01*
X97019344Y-60310691D01*
X97050529Y-60299533D01*
X97082657Y-60291485D01*
X97115419Y-60286625D01*
X97148500Y-60285000D01*
X97923500Y-60285000D01*
X97956581Y-60286625D01*
X97956581Y-60286625D01*
G37*
D14*
X97536000Y-60960000D03*
G04 #@! TD*
D11*
G04 #@! TO.C,Conn2*
X96774000Y-58293000D03*
X99314000Y-58293000D03*
X101854000Y-58293000D03*
X104394000Y-58293000D03*
D12*
X95504000Y-49657000D03*
X105664000Y-49657000D03*
G04 #@! TD*
D11*
G04 #@! TO.C,Conn3*
X125730000Y-58293000D03*
X128270000Y-58293000D03*
X130810000Y-58293000D03*
D12*
X124460000Y-49657000D03*
X132080000Y-49657000D03*
G04 #@! TD*
G04 #@! TO.C,Conn4*
X90805000Y-71628000D03*
X90805000Y-81788000D03*
D11*
X99441000Y-72898000D03*
X99441000Y-75438000D03*
X99441000Y-77978000D03*
X99441000Y-80518000D03*
G04 #@! TD*
G04 #@! TO.C,Conn5*
X196392800Y-58216800D03*
X198932800Y-58216800D03*
X201472800Y-58216800D03*
X204012800Y-58216800D03*
X206552800Y-58216800D03*
D12*
X195122800Y-49580800D03*
X207822800Y-49580800D03*
G04 #@! TD*
G04 #@! TO.C,Conn6*
X161161000Y-49653000D03*
D11*
X162306000Y-58293000D03*
X164846000Y-58293000D03*
D12*
X165989000Y-49657000D03*
G04 #@! TD*
D13*
G04 #@! TO.C,R3*
G36*
X126940581Y-60794625D02*
X126973343Y-60799485D01*
X127005471Y-60807533D01*
X127036656Y-60818691D01*
X127066596Y-60832852D01*
X127095005Y-60849879D01*
X127121608Y-60869609D01*
X127146149Y-60891851D01*
X127168391Y-60916392D01*
X127188121Y-60942995D01*
X127205148Y-60971404D01*
X127219309Y-61001344D01*
X127230467Y-61032529D01*
X127238515Y-61064657D01*
X127243375Y-61097419D01*
X127245000Y-61130500D01*
X127245000Y-61805500D01*
X127243375Y-61838581D01*
X127238515Y-61871343D01*
X127230467Y-61903471D01*
X127219309Y-61934656D01*
X127205148Y-61964596D01*
X127188121Y-61993005D01*
X127168391Y-62019608D01*
X127146149Y-62044149D01*
X127121608Y-62066391D01*
X127095005Y-62086121D01*
X127066596Y-62103148D01*
X127036656Y-62117309D01*
X127005471Y-62128467D01*
X126973343Y-62136515D01*
X126940581Y-62141375D01*
X126907500Y-62143000D01*
X126132500Y-62143000D01*
X126099419Y-62141375D01*
X126066657Y-62136515D01*
X126034529Y-62128467D01*
X126003344Y-62117309D01*
X125973404Y-62103148D01*
X125944995Y-62086121D01*
X125918392Y-62066391D01*
X125893851Y-62044149D01*
X125871609Y-62019608D01*
X125851879Y-61993005D01*
X125834852Y-61964596D01*
X125820691Y-61934656D01*
X125809533Y-61903471D01*
X125801485Y-61871343D01*
X125796625Y-61838581D01*
X125795000Y-61805500D01*
X125795000Y-61130500D01*
X125796625Y-61097419D01*
X125801485Y-61064657D01*
X125809533Y-61032529D01*
X125820691Y-61001344D01*
X125834852Y-60971404D01*
X125851879Y-60942995D01*
X125871609Y-60916392D01*
X125893851Y-60891851D01*
X125918392Y-60869609D01*
X125944995Y-60849879D01*
X125973404Y-60832852D01*
X126003344Y-60818691D01*
X126034529Y-60807533D01*
X126066657Y-60799485D01*
X126099419Y-60794625D01*
X126132500Y-60793000D01*
X126907500Y-60793000D01*
X126940581Y-60794625D01*
X126940581Y-60794625D01*
G37*
D14*
X126520000Y-61468000D03*
D13*
G36*
X128690581Y-60794625D02*
X128723343Y-60799485D01*
X128755471Y-60807533D01*
X128786656Y-60818691D01*
X128816596Y-60832852D01*
X128845005Y-60849879D01*
X128871608Y-60869609D01*
X128896149Y-60891851D01*
X128918391Y-60916392D01*
X128938121Y-60942995D01*
X128955148Y-60971404D01*
X128969309Y-61001344D01*
X128980467Y-61032529D01*
X128988515Y-61064657D01*
X128993375Y-61097419D01*
X128995000Y-61130500D01*
X128995000Y-61805500D01*
X128993375Y-61838581D01*
X128988515Y-61871343D01*
X128980467Y-61903471D01*
X128969309Y-61934656D01*
X128955148Y-61964596D01*
X128938121Y-61993005D01*
X128918391Y-62019608D01*
X128896149Y-62044149D01*
X128871608Y-62066391D01*
X128845005Y-62086121D01*
X128816596Y-62103148D01*
X128786656Y-62117309D01*
X128755471Y-62128467D01*
X128723343Y-62136515D01*
X128690581Y-62141375D01*
X128657500Y-62143000D01*
X127882500Y-62143000D01*
X127849419Y-62141375D01*
X127816657Y-62136515D01*
X127784529Y-62128467D01*
X127753344Y-62117309D01*
X127723404Y-62103148D01*
X127694995Y-62086121D01*
X127668392Y-62066391D01*
X127643851Y-62044149D01*
X127621609Y-62019608D01*
X127601879Y-61993005D01*
X127584852Y-61964596D01*
X127570691Y-61934656D01*
X127559533Y-61903471D01*
X127551485Y-61871343D01*
X127546625Y-61838581D01*
X127545000Y-61805500D01*
X127545000Y-61130500D01*
X127546625Y-61097419D01*
X127551485Y-61064657D01*
X127559533Y-61032529D01*
X127570691Y-61001344D01*
X127584852Y-60971404D01*
X127601879Y-60942995D01*
X127621609Y-60916392D01*
X127643851Y-60891851D01*
X127668392Y-60869609D01*
X127694995Y-60849879D01*
X127723404Y-60832852D01*
X127753344Y-60818691D01*
X127784529Y-60807533D01*
X127816657Y-60799485D01*
X127849419Y-60794625D01*
X127882500Y-60793000D01*
X128657500Y-60793000D01*
X128690581Y-60794625D01*
X128690581Y-60794625D01*
G37*
D14*
X128270000Y-61468000D03*
G04 #@! TD*
D15*
G04 #@! TO.C,U1*
X151049001Y-109685001D03*
X173909001Y-63965001D03*
X171369001Y-63965001D03*
X163749001Y-63965001D03*
X161209001Y-107145001D03*
X166289001Y-63965001D03*
X168829001Y-63965001D03*
X166289001Y-109685001D03*
X171369001Y-107145001D03*
X161209001Y-63965001D03*
X158669001Y-63965001D03*
X171369001Y-109685001D03*
X166289001Y-107145001D03*
X163749001Y-107145001D03*
X151049001Y-107145001D03*
X153589001Y-107145001D03*
X156129001Y-107145001D03*
X158669001Y-107145001D03*
X168829001Y-107145001D03*
X173909001Y-107145001D03*
X153589001Y-109685001D03*
X156129001Y-109685001D03*
X158669001Y-109685001D03*
X161209001Y-109685001D03*
X163749001Y-109685001D03*
X168829001Y-109685001D03*
X173909001Y-109685001D03*
X151049001Y-66505001D03*
X153589001Y-66505001D03*
X156129001Y-66505001D03*
X158669001Y-66505001D03*
X161209001Y-66505001D03*
X163749001Y-66505001D03*
X166289001Y-66505001D03*
X168829001Y-66505001D03*
X171369001Y-66505001D03*
X173909001Y-66505001D03*
X151049001Y-63965001D03*
X153589001Y-63965001D03*
X156129001Y-63965001D03*
X87549001Y-107145001D03*
X90089001Y-107145001D03*
X92629001Y-107145001D03*
X95169001Y-107145001D03*
X97709001Y-107145001D03*
X100249001Y-107145001D03*
X102789001Y-107145001D03*
X105329001Y-107145001D03*
X107869001Y-107145001D03*
X110409001Y-107145001D03*
X87549001Y-109685001D03*
X90089001Y-109685001D03*
X92629001Y-109685001D03*
X95169001Y-109685001D03*
X97709001Y-109685001D03*
X100249001Y-109685001D03*
X102789001Y-109685001D03*
X105329001Y-109685001D03*
X107869001Y-109685001D03*
X110409001Y-109685001D03*
X87549001Y-66505001D03*
X90089001Y-66505001D03*
X92629001Y-66505001D03*
X95169001Y-66505001D03*
X97709001Y-66505001D03*
X100249001Y-66505001D03*
X102789001Y-66505001D03*
X105329001Y-66505001D03*
X107869001Y-66505001D03*
X110409001Y-66505001D03*
X87549001Y-63965001D03*
X90089001Y-63965001D03*
X92629001Y-63965001D03*
X95169001Y-63965001D03*
X97709001Y-63965001D03*
X100249001Y-63965001D03*
X102789001Y-63965001D03*
X105329001Y-63965001D03*
X107869001Y-63965001D03*
X110409001Y-63965001D03*
G04 #@! TD*
D11*
G04 #@! TO.C,Conn9*
X111252000Y-58293000D03*
X113792000Y-58293000D03*
X116332000Y-58293000D03*
X118872000Y-58293000D03*
D12*
X109982000Y-49657000D03*
X120142000Y-49657000D03*
G04 #@! TD*
D13*
G04 #@! TO.C,R13*
G36*
X158408581Y-57619625D02*
X158441343Y-57624485D01*
X158473471Y-57632533D01*
X158504656Y-57643691D01*
X158534596Y-57657852D01*
X158563005Y-57674879D01*
X158589608Y-57694609D01*
X158614149Y-57716851D01*
X158636391Y-57741392D01*
X158656121Y-57767995D01*
X158673148Y-57796404D01*
X158687309Y-57826344D01*
X158698467Y-57857529D01*
X158706515Y-57889657D01*
X158711375Y-57922419D01*
X158713000Y-57955500D01*
X158713000Y-58630500D01*
X158711375Y-58663581D01*
X158706515Y-58696343D01*
X158698467Y-58728471D01*
X158687309Y-58759656D01*
X158673148Y-58789596D01*
X158656121Y-58818005D01*
X158636391Y-58844608D01*
X158614149Y-58869149D01*
X158589608Y-58891391D01*
X158563005Y-58911121D01*
X158534596Y-58928148D01*
X158504656Y-58942309D01*
X158473471Y-58953467D01*
X158441343Y-58961515D01*
X158408581Y-58966375D01*
X158375500Y-58968000D01*
X157600500Y-58968000D01*
X157567419Y-58966375D01*
X157534657Y-58961515D01*
X157502529Y-58953467D01*
X157471344Y-58942309D01*
X157441404Y-58928148D01*
X157412995Y-58911121D01*
X157386392Y-58891391D01*
X157361851Y-58869149D01*
X157339609Y-58844608D01*
X157319879Y-58818005D01*
X157302852Y-58789596D01*
X157288691Y-58759656D01*
X157277533Y-58728471D01*
X157269485Y-58696343D01*
X157264625Y-58663581D01*
X157263000Y-58630500D01*
X157263000Y-57955500D01*
X157264625Y-57922419D01*
X157269485Y-57889657D01*
X157277533Y-57857529D01*
X157288691Y-57826344D01*
X157302852Y-57796404D01*
X157319879Y-57767995D01*
X157339609Y-57741392D01*
X157361851Y-57716851D01*
X157386392Y-57694609D01*
X157412995Y-57674879D01*
X157441404Y-57657852D01*
X157471344Y-57643691D01*
X157502529Y-57632533D01*
X157534657Y-57624485D01*
X157567419Y-57619625D01*
X157600500Y-57618000D01*
X158375500Y-57618000D01*
X158408581Y-57619625D01*
X158408581Y-57619625D01*
G37*
D14*
X157988000Y-58293000D03*
D13*
G36*
X160158581Y-57619625D02*
X160191343Y-57624485D01*
X160223471Y-57632533D01*
X160254656Y-57643691D01*
X160284596Y-57657852D01*
X160313005Y-57674879D01*
X160339608Y-57694609D01*
X160364149Y-57716851D01*
X160386391Y-57741392D01*
X160406121Y-57767995D01*
X160423148Y-57796404D01*
X160437309Y-57826344D01*
X160448467Y-57857529D01*
X160456515Y-57889657D01*
X160461375Y-57922419D01*
X160463000Y-57955500D01*
X160463000Y-58630500D01*
X160461375Y-58663581D01*
X160456515Y-58696343D01*
X160448467Y-58728471D01*
X160437309Y-58759656D01*
X160423148Y-58789596D01*
X160406121Y-58818005D01*
X160386391Y-58844608D01*
X160364149Y-58869149D01*
X160339608Y-58891391D01*
X160313005Y-58911121D01*
X160284596Y-58928148D01*
X160254656Y-58942309D01*
X160223471Y-58953467D01*
X160191343Y-58961515D01*
X160158581Y-58966375D01*
X160125500Y-58968000D01*
X159350500Y-58968000D01*
X159317419Y-58966375D01*
X159284657Y-58961515D01*
X159252529Y-58953467D01*
X159221344Y-58942309D01*
X159191404Y-58928148D01*
X159162995Y-58911121D01*
X159136392Y-58891391D01*
X159111851Y-58869149D01*
X159089609Y-58844608D01*
X159069879Y-58818005D01*
X159052852Y-58789596D01*
X159038691Y-58759656D01*
X159027533Y-58728471D01*
X159019485Y-58696343D01*
X159014625Y-58663581D01*
X159013000Y-58630500D01*
X159013000Y-57955500D01*
X159014625Y-57922419D01*
X159019485Y-57889657D01*
X159027533Y-57857529D01*
X159038691Y-57826344D01*
X159052852Y-57796404D01*
X159069879Y-57767995D01*
X159089609Y-57741392D01*
X159111851Y-57716851D01*
X159136392Y-57694609D01*
X159162995Y-57674879D01*
X159191404Y-57657852D01*
X159221344Y-57643691D01*
X159252529Y-57632533D01*
X159284657Y-57624485D01*
X159317419Y-57619625D01*
X159350500Y-57618000D01*
X160125500Y-57618000D01*
X160158581Y-57619625D01*
X160158581Y-57619625D01*
G37*
D14*
X159738000Y-58293000D03*
G04 #@! TD*
D11*
G04 #@! TO.C,U3*
X194818000Y-70866000D03*
X194818000Y-68326000D03*
X194818000Y-65786000D03*
G04 #@! TD*
G04 #@! TO.C,U2*
X194818000Y-83312000D03*
X194818000Y-80772000D03*
X194818000Y-78232000D03*
G04 #@! TD*
M02*
