M48
;DRILL file {KiCad (5.0.0)} date 12/16/18 13:53:03
;FORMAT={-:-/ absolute / inch / decimal}
FMAT,2
INCH,TZ
T1C0.0157
T2C0.0300
T3C0.0350
T4C0.0394
T5C0.1598
%
G90
G05
M72
T1
X3.497Y-2.687
X3.55Y-2.42
X3.7Y-2.25
X3.745Y-2.275
X3.83Y-4.425
X4.27Y-3.26
X4.27Y-3.38
X4.27Y-3.5
X4.42Y-2.755
X4.58Y-3.26
X4.58Y-3.38
X4.58Y-3.5
X4.785Y-2.4689
X4.87Y-2.12
X5.01Y-2.755
X5.01Y-2.96
X5.095Y-4.41
X5.12Y-4.445
X5.15Y-2.4689
X5.15Y-4.48
X5.18Y-4.515
X5.21Y-4.55
X5.23Y-2.435
X5.24Y-4.585
X7.02Y-2.23
X7.1844Y-3.0156
X7.785Y-2.39
T2
X3.915Y-2.87
X3.915Y-2.97
X3.915Y-3.07
X3.915Y-3.17
X4.95Y-2.295
X5.05Y-2.295
X5.15Y-2.295
X6.76Y-2.295
X6.86Y-2.295
X6.96Y-2.295
X7.06Y-2.295
X7.16Y-2.295
X7.26Y-2.295
X7.36Y-2.295
X7.46Y-2.295
X5.42Y-2.295
X5.52Y-2.295
X5.62Y-2.295
X5.72Y-2.295
X5.82Y-2.295
X5.92Y-2.295
X6.02Y-2.295
X6.12Y-2.295
X3.81Y-2.295
X3.91Y-2.295
X4.01Y-2.295
X4.11Y-2.295
X6.39Y-2.295
X6.49Y-2.295
X7.732Y-2.292
X7.832Y-2.292
X7.932Y-2.292
X8.032Y-2.292
X8.132Y-2.292
X4.38Y-2.295
X4.48Y-2.295
X4.58Y-2.295
X4.68Y-2.295
T3
X7.67Y-3.08
X7.67Y-3.18
X7.67Y-3.28
X7.67Y-2.59
X7.67Y-2.69
X7.67Y-2.79
T4
X3.4468Y-2.5183
X3.4468Y-2.6183
X3.4468Y-4.2183
X3.4468Y-4.3183
X3.5468Y-2.5183
X3.5468Y-2.6183
X3.5468Y-4.2183
X3.5468Y-4.3183
X3.6468Y-2.5183
X3.6468Y-2.6183
X3.6468Y-4.2183
X3.6468Y-4.3183
X3.7468Y-2.5183
X3.7468Y-2.6183
X3.7468Y-4.2183
X3.7468Y-4.3183
X3.8468Y-2.5183
X3.8468Y-2.6183
X3.8468Y-4.2183
X3.8468Y-4.3183
X3.9468Y-2.5183
X3.9468Y-2.6183
X3.9468Y-4.2183
X3.9468Y-4.3183
X4.0468Y-2.5183
X4.0468Y-2.6183
X4.0468Y-4.2183
X4.0468Y-4.3183
X4.1468Y-2.5183
X4.1468Y-2.6183
X4.1468Y-4.2183
X4.1468Y-4.3183
X4.2468Y-2.5183
X4.2468Y-2.6183
X4.2468Y-4.2183
X4.2468Y-4.3183
X4.3468Y-2.5183
X4.3468Y-2.6183
X4.3468Y-4.2183
X4.3468Y-4.3183
X5.9468Y-2.5183
X5.9468Y-2.6183
X5.9468Y-4.2183
X5.9468Y-4.3183
X6.0468Y-2.5183
X6.0468Y-2.6183
X6.0468Y-4.2183
X6.0468Y-4.3183
X6.1468Y-2.5183
X6.1468Y-2.6183
X6.1468Y-4.2183
X6.1468Y-4.3183
X6.2468Y-2.5183
X6.2468Y-2.6183
X6.2468Y-4.2183
X6.2468Y-4.3183
X6.3468Y-2.5183
X6.3468Y-2.6183
X6.3468Y-4.2183
X6.3468Y-4.3183
X6.4468Y-2.5183
X6.4468Y-2.6183
X6.4468Y-4.2183
X6.4468Y-4.3183
X6.5468Y-2.5183
X6.5468Y-2.6183
X6.5468Y-4.2183
X6.5468Y-4.3183
X6.6468Y-2.5183
X6.6468Y-2.6183
X6.6468Y-4.2183
X6.6468Y-4.3183
X6.7468Y-2.5183
X6.7468Y-2.6183
X6.7468Y-4.2183
X6.7468Y-4.3183
X6.8468Y-2.5183
X6.8468Y-2.6183
X6.8468Y-4.2183
X6.8468Y-4.3183
T5
X7.219Y-3.83
X7.219Y-4.145
T0
M30
