M48
; DRILL file {KiCad (6.0.10)} date Fri Dec 30 01:06:04 2022
; FORMAT={-:-/ absolute / metric / decimal}
; #@! TF.CreationDate,2022-12-30T01:06:04-06:00
; #@! TF.GenerationSoftware,Kicad,Pcbnew,(6.0.10)
; #@! TF.FileFunction,Plated,1,2,PTH
FMAT,2
METRIC
; #@! TA.AperFunction,Plated,PTH,ViaDrill
T1C0.400
; #@! TA.AperFunction,Plated,PTH,ComponentDrill
T2C1.090
%
G90
G05
T1
X135.495Y-90.692
X135.509Y-99.695
X135.509Y-108.204
X135.509Y-119.38
X140.081Y-117.348
X142.494Y-119.761
X142.621Y-110.236
X143.129Y-93.345
X143.256Y-107.442
X145.923Y-117.348
X146.685Y-123.952
X147.193Y-108.331
X149.225Y-123.952
X151.384Y-127.508
X152.781Y-94.107
X158.75Y-100.965
X162.433Y-100.965
X166.37Y-100.965
X171.577Y-125.857
X173.101Y-92.583
X180.213Y-98.425
X182.118Y-106.807
X183.769Y-123.444
T2
X156.09Y-87.468
X158.63Y-87.468
X161.171Y-87.468
X163.71Y-87.468
X166.25Y-87.468
X168.79Y-87.468
T0
M30
