%TF.GenerationSoftware,KiCad,Pcbnew,(6.0.10)*%
%TF.CreationDate,2022-12-30T01:06:13-06:00*%
%TF.ProjectId,FluorometerLightSource,466c756f-726f-46d6-9574-65724c696768,rev?*%
%TF.SameCoordinates,Original*%
%TF.FileFunction,Paste,Top*%
%TF.FilePolarity,Positive*%
%FSLAX46Y46*%
G04 Gerber Fmt 4.6, Leading zero omitted, Abs format (unit mm)*
G04 Created by KiCad (PCBNEW (6.0.10)) date 2022-12-30 01:06:13*
%MOMM*%
%LPD*%
G01*
G04 APERTURE LIST*
G04 Aperture macros list*
%AMRoundRect*
0 Rectangle with rounded corners*
0 $1 Rounding radius*
0 $2 $3 $4 $5 $6 $7 $8 $9 X,Y pos of 4 corners*
0 Add a 4 corners polygon primitive as box body*
4,1,4,$2,$3,$4,$5,$6,$7,$8,$9,$2,$3,0*
0 Add four circle primitives for the rounded corners*
1,1,$1+$1,$2,$3*
1,1,$1+$1,$4,$5*
1,1,$1+$1,$6,$7*
1,1,$1+$1,$8,$9*
0 Add four rect primitives between the rounded corners*
20,1,$1+$1,$2,$3,$4,$5,0*
20,1,$1+$1,$4,$5,$6,$7,0*
20,1,$1+$1,$6,$7,$8,$9,0*
20,1,$1+$1,$8,$9,$2,$3,0*%
G04 Aperture macros list end*
%ADD10RoundRect,0.237500X-0.250000X-0.237500X0.250000X-0.237500X0.250000X0.237500X-0.250000X0.237500X0*%
%ADD11RoundRect,0.237500X-0.287500X-0.237500X0.287500X-0.237500X0.287500X0.237500X-0.287500X0.237500X0*%
%ADD12R,0.500000X3.150000*%
%ADD13R,0.500000X3.160000*%
%ADD14R,1.240000X3.150000*%
%ADD15R,3.150000X1.330000*%
%ADD16R,0.600000X3.200000*%
%ADD17R,1.000000X3.200000*%
%ADD18R,0.700000X0.450000*%
%ADD19RoundRect,0.249999X-1.425001X0.450001X-1.425001X-0.450001X1.425001X-0.450001X1.425001X0.450001X0*%
%ADD20RoundRect,0.237500X0.250000X0.237500X-0.250000X0.237500X-0.250000X-0.237500X0.250000X-0.237500X0*%
%ADD21R,0.450000X0.700000*%
%ADD22RoundRect,0.249999X-0.450001X-1.425001X0.450001X-1.425001X0.450001X1.425001X-0.450001X1.425001X0*%
%ADD23R,0.900000X3.400000*%
%ADD24R,1.000000X3.400000*%
%ADD25RoundRect,0.249999X0.450001X1.425001X-0.450001X1.425001X-0.450001X-1.425001X0.450001X-1.425001X0*%
G04 APERTURE END LIST*
D10*
X133707500Y-123952000D03*
X135532500Y-123952000D03*
X135532500Y-112776000D03*
X133707500Y-112776000D03*
X135532500Y-104394000D03*
X133707500Y-104394000D03*
X133684000Y-95631000D03*
X135509000Y-95631000D03*
D11*
X133759000Y-121920000D03*
X135509000Y-121920000D03*
X133759000Y-110744000D03*
X135509000Y-110744000D03*
X133745000Y-102362000D03*
X135495000Y-102362000D03*
X133745000Y-93726000D03*
X135495000Y-93726000D03*
D12*
X173292000Y-100711000D03*
D13*
X170692000Y-100711000D03*
D14*
X171992000Y-100711000D03*
D15*
X162433000Y-96367000D03*
X162433000Y-98197000D03*
D16*
X173195000Y-119507000D03*
X170595000Y-119507000D03*
D17*
X171895000Y-119507000D03*
D12*
X152590000Y-118618000D03*
D13*
X155190000Y-118618000D03*
D14*
X153890000Y-118618000D03*
D18*
X183626000Y-125618000D03*
X183626000Y-124318000D03*
X181626000Y-124968000D03*
D16*
X152052000Y-101219000D03*
X154652000Y-101219000D03*
D17*
X153352000Y-101219000D03*
D19*
X148590000Y-115060000D03*
X148590000Y-121160000D03*
D18*
X144034000Y-108951000D03*
X144034000Y-110251000D03*
X146034000Y-109601000D03*
D20*
X145819500Y-113284000D03*
X143994500Y-113284000D03*
D19*
X177673000Y-97788000D03*
X177673000Y-103888000D03*
D21*
X175783000Y-93869000D03*
X174483000Y-93869000D03*
X175133000Y-95869000D03*
X182387000Y-99965000D03*
X181087000Y-99965000D03*
X181737000Y-101965000D03*
D22*
X177544000Y-116840000D03*
X183644000Y-116840000D03*
D15*
X162433000Y-123978000D03*
X162433000Y-122148000D03*
D10*
X180189500Y-111633000D03*
X182014500Y-111633000D03*
D22*
X177544000Y-121031000D03*
X183644000Y-121031000D03*
X166495000Y-95377000D03*
X172595000Y-95377000D03*
D23*
X148610000Y-110363000D03*
X151110000Y-110363000D03*
D24*
X149860000Y-110363000D03*
D21*
X149972000Y-125968000D03*
X151272000Y-125968000D03*
X150622000Y-123968000D03*
D25*
X147449000Y-100330000D03*
X141349000Y-100330000D03*
D18*
X143907000Y-118476000D03*
X143907000Y-119776000D03*
X145907000Y-119126000D03*
X142732000Y-96281000D03*
X142732000Y-94981000D03*
X140732000Y-95631000D03*
D23*
X177526000Y-109982000D03*
X175026000Y-109982000D03*
D24*
X176276000Y-109982000D03*
D25*
X147449000Y-104775000D03*
X141349000Y-104775000D03*
X159260000Y-125095000D03*
X153160000Y-125095000D03*
D18*
X182102000Y-109616000D03*
X182102000Y-108316000D03*
X180102000Y-108966000D03*
M02*
