%TF.GenerationSoftware,KiCad,Pcbnew,(6.0.10)*%
%TF.CreationDate,2022-12-30T01:06:13-06:00*%
%TF.ProjectId,FluorometerLightSource,466c756f-726f-46d6-9574-65724c696768,rev?*%
%TF.SameCoordinates,Original*%
%TF.FileFunction,Copper,L1,Top*%
%TF.FilePolarity,Positive*%
%FSLAX46Y46*%
G04 Gerber Fmt 4.6, Leading zero omitted, Abs format (unit mm)*
G04 Created by KiCad (PCBNEW (6.0.10)) date 2022-12-30 01:06:13*
%MOMM*%
%LPD*%
G01*
G04 APERTURE LIST*
G04 Aperture macros list*
%AMRoundRect*
0 Rectangle with rounded corners*
0 $1 Rounding radius*
0 $2 $3 $4 $5 $6 $7 $8 $9 X,Y pos of 4 corners*
0 Add a 4 corners polygon primitive as box body*
4,1,4,$2,$3,$4,$5,$6,$7,$8,$9,$2,$3,0*
0 Add four circle primitives for the rounded corners*
1,1,$1+$1,$2,$3*
1,1,$1+$1,$4,$5*
1,1,$1+$1,$6,$7*
1,1,$1+$1,$8,$9*
0 Add four rect primitives between the rounded corners*
20,1,$1+$1,$2,$3,$4,$5,0*
20,1,$1+$1,$4,$5,$6,$7,0*
20,1,$1+$1,$6,$7,$8,$9,0*
20,1,$1+$1,$8,$9,$2,$3,0*%
G04 Aperture macros list end*
%TA.AperFunction,SMDPad,CuDef*%
%ADD10RoundRect,0.237500X-0.250000X-0.237500X0.250000X-0.237500X0.250000X0.237500X-0.250000X0.237500X0*%
%TD*%
%TA.AperFunction,SMDPad,CuDef*%
%ADD11RoundRect,0.237500X-0.287500X-0.237500X0.287500X-0.237500X0.287500X0.237500X-0.287500X0.237500X0*%
%TD*%
%TA.AperFunction,SMDPad,CuDef*%
%ADD12R,0.500000X3.150000*%
%TD*%
%TA.AperFunction,SMDPad,CuDef*%
%ADD13R,0.500000X3.160000*%
%TD*%
%TA.AperFunction,SMDPad,CuDef*%
%ADD14R,1.240000X3.150000*%
%TD*%
%TA.AperFunction,SMDPad,CuDef*%
%ADD15R,3.150000X1.330000*%
%TD*%
%TA.AperFunction,SMDPad,CuDef*%
%ADD16R,0.600000X3.200000*%
%TD*%
%TA.AperFunction,SMDPad,CuDef*%
%ADD17R,1.000000X3.200000*%
%TD*%
%TA.AperFunction,SMDPad,CuDef*%
%ADD18R,0.700000X0.450000*%
%TD*%
%TA.AperFunction,SMDPad,CuDef*%
%ADD19RoundRect,0.249999X-1.425001X0.450001X-1.425001X-0.450001X1.425001X-0.450001X1.425001X0.450001X0*%
%TD*%
%TA.AperFunction,SMDPad,CuDef*%
%ADD20RoundRect,0.237500X0.250000X0.237500X-0.250000X0.237500X-0.250000X-0.237500X0.250000X-0.237500X0*%
%TD*%
%TA.AperFunction,SMDPad,CuDef*%
%ADD21R,0.450000X0.700000*%
%TD*%
%TA.AperFunction,SMDPad,CuDef*%
%ADD22RoundRect,0.249999X-0.450001X-1.425001X0.450001X-1.425001X0.450001X1.425001X-0.450001X1.425001X0*%
%TD*%
%TA.AperFunction,SMDPad,CuDef*%
%ADD23R,0.900000X3.400000*%
%TD*%
%TA.AperFunction,SMDPad,CuDef*%
%ADD24R,1.000000X3.400000*%
%TD*%
%TA.AperFunction,SMDPad,CuDef*%
%ADD25RoundRect,0.249999X0.450001X1.425001X-0.450001X1.425001X-0.450001X-1.425001X0.450001X-1.425001X0*%
%TD*%
%TA.AperFunction,ComponentPad*%
%ADD26R,1.635000X1.635000*%
%TD*%
%TA.AperFunction,ComponentPad*%
%ADD27C,1.635000*%
%TD*%
%TA.AperFunction,ViaPad*%
%ADD28C,0.800000*%
%TD*%
%TA.AperFunction,Conductor*%
%ADD29C,0.254000*%
%TD*%
%TA.AperFunction,Conductor*%
%ADD30C,0.762000*%
%TD*%
G04 APERTURE END LIST*
D10*
X133707500Y-123952000D03*
X135532500Y-123952000D03*
X135532500Y-112776000D03*
X133707500Y-112776000D03*
X135532500Y-104394000D03*
X133707500Y-104394000D03*
X133684000Y-95631000D03*
X135509000Y-95631000D03*
D11*
X133759000Y-121920000D03*
X135509000Y-121920000D03*
X133759000Y-110744000D03*
X135509000Y-110744000D03*
X133745000Y-102362000D03*
X135495000Y-102362000D03*
X133745000Y-93726000D03*
X135495000Y-93726000D03*
D12*
X173292000Y-100711000D03*
D13*
X170692000Y-100711000D03*
D14*
X171992000Y-100711000D03*
D15*
X162433000Y-96367000D03*
X162433000Y-98197000D03*
D16*
X173195000Y-119507000D03*
X170595000Y-119507000D03*
D17*
X171895000Y-119507000D03*
D12*
X152590000Y-118618000D03*
D13*
X155190000Y-118618000D03*
D14*
X153890000Y-118618000D03*
D18*
X183626000Y-125618000D03*
X183626000Y-124318000D03*
X181626000Y-124968000D03*
D16*
X152052000Y-101219000D03*
X154652000Y-101219000D03*
D17*
X153352000Y-101219000D03*
D19*
X148590000Y-115060000D03*
X148590000Y-121160000D03*
D18*
X144034000Y-108951000D03*
X144034000Y-110251000D03*
X146034000Y-109601000D03*
D20*
X145819500Y-113284000D03*
X143994500Y-113284000D03*
D19*
X177673000Y-97788000D03*
X177673000Y-103888000D03*
D21*
X175783000Y-93869000D03*
X174483000Y-93869000D03*
X175133000Y-95869000D03*
X182387000Y-99965000D03*
X181087000Y-99965000D03*
X181737000Y-101965000D03*
D22*
X177544000Y-116840000D03*
X183644000Y-116840000D03*
D15*
X162433000Y-123978000D03*
X162433000Y-122148000D03*
D10*
X180189500Y-111633000D03*
X182014500Y-111633000D03*
D22*
X177544000Y-121031000D03*
X183644000Y-121031000D03*
X166495000Y-95377000D03*
X172595000Y-95377000D03*
D23*
X148610000Y-110363000D03*
X151110000Y-110363000D03*
D24*
X149860000Y-110363000D03*
D21*
X149972000Y-125968000D03*
X151272000Y-125968000D03*
X150622000Y-123968000D03*
D25*
X147449000Y-100330000D03*
X141349000Y-100330000D03*
D26*
X156090500Y-87468000D03*
D27*
X158630500Y-87468000D03*
X161170500Y-87468000D03*
X163710500Y-87468000D03*
X166250500Y-87468000D03*
X168790500Y-87468000D03*
D18*
X143907000Y-118476000D03*
X143907000Y-119776000D03*
X145907000Y-119126000D03*
X142732000Y-96281000D03*
X142732000Y-94981000D03*
X140732000Y-95631000D03*
D23*
X177526000Y-109982000D03*
X175026000Y-109982000D03*
D24*
X176276000Y-109982000D03*
D25*
X147449000Y-104775000D03*
X141349000Y-104775000D03*
X159260000Y-125095000D03*
X153160000Y-125095000D03*
D18*
X182102000Y-109616000D03*
X182102000Y-108316000D03*
X180102000Y-108966000D03*
D28*
X149225000Y-123952000D03*
X146685000Y-123952000D03*
X142494000Y-119761000D03*
X140081000Y-117348000D03*
X145923000Y-117348000D03*
X147193000Y-108331000D03*
X143256000Y-107442000D03*
X135509000Y-99695000D03*
X135509000Y-108204000D03*
X135509000Y-119380000D03*
X135495000Y-90692000D03*
X166370000Y-100965000D03*
X162433000Y-100965000D03*
X158750000Y-100965000D03*
X182118000Y-106807000D03*
X152781000Y-94107000D03*
X143129000Y-93345000D03*
X173101000Y-92583000D03*
X180213000Y-98425000D03*
X151384000Y-127508000D03*
X171577000Y-125857000D03*
X183769000Y-123444000D03*
X142621000Y-110236000D03*
D29*
X149225000Y-123952000D02*
X150606000Y-123952000D01*
X150606000Y-123952000D02*
X150622000Y-123968000D01*
X135532500Y-123952000D02*
X146685000Y-123952000D01*
X135532500Y-112799500D02*
X140081000Y-117348000D01*
X145923000Y-119110000D02*
X145907000Y-119126000D01*
X145923000Y-117348000D02*
X145923000Y-119110000D01*
X135532500Y-112776000D02*
X135532500Y-112799500D01*
X147193000Y-108442000D02*
X146034000Y-109601000D01*
X147193000Y-108331000D02*
X147193000Y-108442000D01*
X138580500Y-107442000D02*
X143256000Y-107442000D01*
X135532500Y-104394000D02*
X138580500Y-107442000D01*
D30*
X135495000Y-102362000D02*
X135495000Y-99709000D01*
X135495000Y-99709000D02*
X135509000Y-99695000D01*
D29*
X135509000Y-95631000D02*
X140732000Y-95631000D01*
X133759000Y-123900500D02*
X133707500Y-123952000D01*
X133759000Y-121920000D02*
X133759000Y-123900500D01*
X133759000Y-112724500D02*
X133707500Y-112776000D01*
X133759000Y-110744000D02*
X133759000Y-112724500D01*
X133745000Y-104356500D02*
X133707500Y-104394000D01*
X133745000Y-102362000D02*
X133745000Y-104356500D01*
X133745000Y-95570000D02*
X133684000Y-95631000D01*
X133745000Y-93726000D02*
X133745000Y-95570000D01*
D30*
X135509000Y-110744000D02*
X135509000Y-108204000D01*
X135509000Y-119380000D02*
X135509000Y-121920000D01*
X135495000Y-90692000D02*
X135495000Y-93726000D01*
X138719000Y-87468000D02*
X135495000Y-90692000D01*
X156090500Y-87468000D02*
X138719000Y-87468000D01*
X162433000Y-122148000D02*
X166142000Y-122148000D01*
X168047000Y-122148000D02*
X166142000Y-122148000D01*
X154652000Y-101219000D02*
X154652000Y-104428000D01*
X170595000Y-119600000D02*
X168047000Y-122148000D01*
X170692000Y-104017000D02*
X170692000Y-100711000D01*
X155190000Y-118618000D02*
X155190000Y-115693000D01*
X151110000Y-111613000D02*
X151110000Y-110363000D01*
X170692000Y-100080000D02*
X168809000Y-98197000D01*
X157674000Y-98197000D02*
X154652000Y-101219000D01*
X162433000Y-98197000D02*
X166650000Y-98197000D01*
X175026000Y-111232000D02*
X175026000Y-109982000D01*
X155190000Y-115693000D02*
X151110000Y-111613000D01*
X154652000Y-104428000D02*
X151110000Y-107970000D01*
X175026000Y-109982000D02*
X175026000Y-108351000D01*
X151110000Y-107970000D02*
X151110000Y-110363000D01*
X168809000Y-98197000D02*
X166650000Y-98197000D01*
X170595000Y-119507000D02*
X170595000Y-119600000D01*
X175026000Y-108351000D02*
X170692000Y-104017000D01*
X155190000Y-118618000D02*
X157097000Y-120525000D01*
X170595000Y-115663000D02*
X175026000Y-111232000D01*
X170692000Y-100711000D02*
X170692000Y-100080000D01*
X157097000Y-120525000D02*
X158720000Y-122148000D01*
X170595000Y-119507000D02*
X170595000Y-115663000D01*
X158720000Y-122148000D02*
X162433000Y-122148000D01*
X162433000Y-98197000D02*
X157674000Y-98197000D01*
D29*
X159865500Y-88773000D02*
X150240000Y-88773000D01*
X163346879Y-85291621D02*
X169753673Y-85291621D01*
X169753673Y-85291621D02*
X184785000Y-100322948D01*
X184785000Y-100322948D02*
X184785000Y-124388000D01*
X183626000Y-125547000D02*
X183626000Y-125618000D01*
X161170500Y-87468000D02*
X159865500Y-88773000D01*
X161170500Y-87468000D02*
X163346879Y-85291621D01*
X184785000Y-124388000D02*
X183626000Y-125547000D01*
X150240000Y-88773000D02*
X142732000Y-96281000D01*
X150549000Y-89227000D02*
X144018000Y-95758000D01*
X182939000Y-108779000D02*
X182102000Y-109616000D01*
X161951500Y-89227000D02*
X150549000Y-89227000D01*
X163710500Y-87468000D02*
X161951500Y-89227000D01*
X144018000Y-108935000D02*
X144034000Y-108951000D01*
X182939000Y-99119000D02*
X182939000Y-108779000D01*
X169565621Y-85745621D02*
X182939000Y-99119000D01*
X144018000Y-95758000D02*
X144018000Y-108935000D01*
X163710500Y-87468000D02*
X165432879Y-85745621D01*
X165432879Y-85745621D02*
X169565621Y-85745621D01*
X144780000Y-96012000D02*
X144780000Y-110734000D01*
X143907000Y-116793000D02*
X143907000Y-118476000D01*
X151111000Y-89681000D02*
X144780000Y-96012000D01*
X182387000Y-99965000D02*
X182387000Y-99329000D01*
X182387000Y-99329000D02*
X169381500Y-86323500D01*
X141859000Y-114745000D02*
X143907000Y-116793000D01*
X164037500Y-89681000D02*
X151111000Y-89681000D01*
X144262000Y-111252000D02*
X142748000Y-111252000D01*
X144780000Y-110734000D02*
X144262000Y-111252000D01*
X167395000Y-86323500D02*
X166250500Y-87468000D01*
X142748000Y-111252000D02*
X141859000Y-112141000D01*
X169381500Y-86323500D02*
X167395000Y-86323500D01*
X166250500Y-87468000D02*
X164037500Y-89681000D01*
X141859000Y-112141000D02*
X141859000Y-114745000D01*
X145234000Y-109020000D02*
X145234000Y-111179000D01*
X145234000Y-111179000D02*
X144653000Y-111760000D01*
X146422000Y-96021000D02*
X146422000Y-107687000D01*
X145161000Y-121157000D02*
X149972000Y-125968000D01*
X168790500Y-87468000D02*
X168440000Y-87468000D01*
X142621000Y-114300000D02*
X145161000Y-116840000D01*
X142621000Y-112395000D02*
X142621000Y-114300000D01*
X146431000Y-107696000D02*
X146431000Y-107823000D01*
X146431000Y-107823000D02*
X145234000Y-109020000D01*
X146422000Y-107687000D02*
X146431000Y-107696000D01*
X143256000Y-111760000D02*
X142621000Y-112395000D01*
X145161000Y-116840000D02*
X145161000Y-121157000D01*
X168440000Y-87468000D02*
X165484000Y-90424000D01*
X152019000Y-90424000D02*
X146422000Y-96021000D01*
X144653000Y-111760000D02*
X143256000Y-111760000D01*
X175783000Y-93869000D02*
X169382000Y-87468000D01*
X165484000Y-90424000D02*
X152019000Y-90424000D01*
X169382000Y-87468000D02*
X168790500Y-87468000D01*
X147449000Y-100330000D02*
X147449000Y-104775000D01*
X147449000Y-100330000D02*
X148338000Y-101219000D01*
X148338000Y-101219000D02*
X152052000Y-101219000D01*
X145819500Y-113284000D02*
X145819500Y-113153500D01*
X145819500Y-113153500D02*
X148610000Y-110363000D01*
X152021000Y-118618000D02*
X152590000Y-118618000D01*
X148590000Y-115060000D02*
X148590000Y-115187000D01*
X148590000Y-115187000D02*
X152021000Y-118618000D01*
X159260000Y-125095000D02*
X160377000Y-123978000D01*
X160377000Y-123978000D02*
X162433000Y-123978000D01*
X140732000Y-99713000D02*
X141349000Y-100330000D01*
X141349000Y-100330000D02*
X141349000Y-104775000D01*
X140732000Y-95631000D02*
X140732000Y-99713000D01*
X146034000Y-109601000D02*
X146034000Y-111244500D01*
X146034000Y-111244500D02*
X143994500Y-113284000D01*
X146429000Y-119126000D02*
X148463000Y-121160000D01*
X145907000Y-119126000D02*
X146429000Y-119126000D01*
X148463000Y-121160000D02*
X148590000Y-121160000D01*
X152033000Y-123968000D02*
X153160000Y-125095000D01*
X150622000Y-123968000D02*
X152033000Y-123968000D01*
X165505000Y-96367000D02*
X162433000Y-96367000D01*
X166495000Y-95377000D02*
X165505000Y-96367000D01*
X177038000Y-97661000D02*
X173988000Y-100711000D01*
X173988000Y-100711000D02*
X173292000Y-100711000D01*
X178538500Y-109982000D02*
X180189500Y-111633000D01*
X177526000Y-109982000D02*
X178538500Y-109982000D01*
X177544000Y-121031000D02*
X176020000Y-119507000D01*
X177544000Y-116840000D02*
X177544000Y-121031000D01*
X176020000Y-119507000D02*
X173195000Y-119507000D01*
X175133000Y-95869000D02*
X173087000Y-95869000D01*
X173087000Y-95869000D02*
X172595000Y-95377000D01*
X178834000Y-101965000D02*
X177038000Y-103761000D01*
X181737000Y-101965000D02*
X178834000Y-101965000D01*
X180102000Y-109720500D02*
X180102000Y-108966000D01*
X182014500Y-111633000D02*
X180102000Y-109720500D01*
X183644000Y-121031000D02*
X183644000Y-116840000D01*
X181626000Y-124968000D02*
X181626000Y-123049000D01*
X181626000Y-123049000D02*
X183644000Y-121031000D01*
%TA.AperFunction,Conductor*%
G36*
X171137328Y-97556440D02*
G01*
X171184220Y-97609747D01*
X171196000Y-97662943D01*
X171196000Y-99007970D01*
X171187349Y-99051459D01*
X171183133Y-99057769D01*
X171171500Y-99116252D01*
X171171500Y-102305748D01*
X171183133Y-102364231D01*
X171187349Y-102370541D01*
X171196000Y-102414030D01*
X171196000Y-102997000D01*
X175388000Y-102997000D01*
X175456121Y-103017002D01*
X175502614Y-103070658D01*
X175514000Y-103123000D01*
X175514000Y-116460000D01*
X175493998Y-116528121D01*
X175440342Y-116574614D01*
X175388000Y-116586000D01*
X171069000Y-116586000D01*
X171069000Y-122810000D01*
X171048998Y-122878121D01*
X170995342Y-122924614D01*
X170943000Y-122936000D01*
X154939000Y-122936000D01*
X154870879Y-122915998D01*
X154824386Y-122862342D01*
X154813000Y-122810000D01*
X154813000Y-115824000D01*
X150748000Y-115824000D01*
X150679879Y-115803998D01*
X150633386Y-115750342D01*
X150622000Y-115698000D01*
X150622000Y-104393000D01*
X150642002Y-104324879D01*
X150695658Y-104278386D01*
X150748000Y-104267000D01*
X154178000Y-104267000D01*
X154178000Y-97788063D01*
X154198002Y-97719942D01*
X154251658Y-97673449D01*
X154303060Y-97662067D01*
X162266910Y-97602635D01*
X171069061Y-97536947D01*
X171137328Y-97556440D01*
G37*
%TD.AperFunction*%
%TA.AperFunction,Conductor*%
G36*
X152692869Y-78507002D02*
G01*
X152739362Y-78560658D01*
X152750278Y-78623872D01*
X152748699Y-78642102D01*
X152735259Y-78797285D01*
X152735503Y-78801720D01*
X152735503Y-78801724D01*
X152749450Y-79055127D01*
X152750438Y-79073087D01*
X152804325Y-79343999D01*
X152895847Y-79604616D01*
X153023178Y-79849737D01*
X153025761Y-79853352D01*
X153025765Y-79853358D01*
X153175135Y-80062381D01*
X153183775Y-80074471D01*
X153228336Y-80121183D01*
X153344341Y-80242787D01*
X153374436Y-80274335D01*
X153377931Y-80277091D01*
X153377933Y-80277092D01*
X153543694Y-80407767D01*
X153591356Y-80445341D01*
X153653059Y-80481181D01*
X153826353Y-80581839D01*
X153826359Y-80581842D01*
X153830207Y-80584077D01*
X154086223Y-80687774D01*
X154090536Y-80688845D01*
X154090541Y-80688847D01*
X154349975Y-80753291D01*
X154349980Y-80753292D01*
X154354296Y-80754364D01*
X154358724Y-80754818D01*
X154358726Y-80754818D01*
X154433839Y-80762514D01*
X154589870Y-80778500D01*
X154760862Y-80778500D01*
X154966030Y-80763973D01*
X154970385Y-80763035D01*
X154970388Y-80763035D01*
X155231715Y-80706773D01*
X155231717Y-80706773D01*
X155236062Y-80705837D01*
X155495209Y-80610233D01*
X155543685Y-80584077D01*
X155734384Y-80481181D01*
X155738300Y-80479068D01*
X155960484Y-80314960D01*
X156157329Y-80121183D01*
X156324906Y-79901604D01*
X156399375Y-79768630D01*
X156457697Y-79664490D01*
X156457698Y-79664487D01*
X156459873Y-79660604D01*
X156559536Y-79402991D01*
X156561730Y-79393528D01*
X156613870Y-79168578D01*
X156621907Y-79133905D01*
X156645741Y-78858715D01*
X156642605Y-78801724D01*
X156632599Y-78619924D01*
X156648828Y-78550807D01*
X156699848Y-78501436D01*
X156758409Y-78487000D01*
X168124748Y-78487000D01*
X168192869Y-78507002D01*
X168239362Y-78560658D01*
X168250278Y-78623872D01*
X168248699Y-78642102D01*
X168235259Y-78797285D01*
X168235503Y-78801720D01*
X168235503Y-78801724D01*
X168249450Y-79055127D01*
X168250438Y-79073087D01*
X168304325Y-79343999D01*
X168395847Y-79604616D01*
X168523178Y-79849737D01*
X168525761Y-79853352D01*
X168525765Y-79853358D01*
X168675135Y-80062381D01*
X168683775Y-80074471D01*
X168728336Y-80121183D01*
X168844341Y-80242787D01*
X168874436Y-80274335D01*
X168877931Y-80277091D01*
X168877933Y-80277092D01*
X169043694Y-80407767D01*
X169091356Y-80445341D01*
X169153059Y-80481181D01*
X169326353Y-80581839D01*
X169326359Y-80581842D01*
X169330207Y-80584077D01*
X169586223Y-80687774D01*
X169590536Y-80688845D01*
X169590541Y-80688847D01*
X169849975Y-80753291D01*
X169849980Y-80753292D01*
X169854296Y-80754364D01*
X169858724Y-80754818D01*
X169858726Y-80754818D01*
X169933839Y-80762514D01*
X170089870Y-80778500D01*
X170260862Y-80778500D01*
X170466030Y-80763973D01*
X170470385Y-80763035D01*
X170470388Y-80763035D01*
X170731715Y-80706773D01*
X170731717Y-80706773D01*
X170736062Y-80705837D01*
X170995209Y-80610233D01*
X171043685Y-80584077D01*
X171234384Y-80481181D01*
X171238300Y-80479068D01*
X171460484Y-80314960D01*
X171657329Y-80121183D01*
X171824906Y-79901604D01*
X171899375Y-79768630D01*
X171957697Y-79664490D01*
X171957698Y-79664487D01*
X171959873Y-79660604D01*
X172059536Y-79402991D01*
X172061730Y-79393528D01*
X172113870Y-79168578D01*
X172121907Y-79133905D01*
X172145741Y-78858715D01*
X172142605Y-78801724D01*
X172132599Y-78619924D01*
X172148828Y-78550807D01*
X172199848Y-78501436D01*
X172258409Y-78487000D01*
X182615806Y-78487000D01*
X182683927Y-78507002D01*
X182730420Y-78560658D01*
X182740524Y-78630932D01*
X182711030Y-78695512D01*
X182646821Y-78735123D01*
X182602161Y-78746465D01*
X182602158Y-78746466D01*
X182599118Y-78747238D01*
X182596171Y-78748308D01*
X182596170Y-78748308D01*
X182230151Y-78881166D01*
X182230141Y-78881170D01*
X182227213Y-78882233D01*
X181870554Y-79053498D01*
X181532669Y-79259339D01*
X181216899Y-79497721D01*
X181214617Y-79499831D01*
X181214608Y-79499838D01*
X181096994Y-79608560D01*
X180926366Y-79766287D01*
X180924294Y-79768625D01*
X180924289Y-79768630D01*
X180666028Y-80060029D01*
X180666023Y-80060035D01*
X180663944Y-80062381D01*
X180432227Y-80383074D01*
X180233507Y-80725196D01*
X180232217Y-80728033D01*
X180232215Y-80728037D01*
X180138264Y-80934672D01*
X180069749Y-81085363D01*
X179942572Y-81460013D01*
X179853234Y-81845443D01*
X179802619Y-82237839D01*
X179791227Y-82633322D01*
X179819170Y-83027982D01*
X179886173Y-83417915D01*
X179991572Y-83799265D01*
X179992702Y-83802185D01*
X179992703Y-83802189D01*
X180075993Y-84017479D01*
X180134326Y-84168261D01*
X180135741Y-84171055D01*
X180135744Y-84171063D01*
X180238885Y-84374804D01*
X180313023Y-84521255D01*
X180525895Y-84854755D01*
X180770838Y-85165463D01*
X180773013Y-85167719D01*
X180773018Y-85167725D01*
X180896468Y-85295784D01*
X181045429Y-85450308D01*
X181047822Y-85452341D01*
X181344559Y-85704438D01*
X181344567Y-85704445D01*
X181346954Y-85706472D01*
X181349534Y-85708255D01*
X181669857Y-85929645D01*
X181669866Y-85929650D01*
X181672429Y-85931422D01*
X181675164Y-85932935D01*
X181675169Y-85932938D01*
X181839957Y-86024093D01*
X182018638Y-86122934D01*
X182021507Y-86124167D01*
X182021518Y-86124172D01*
X182379287Y-86277881D01*
X182382155Y-86279113D01*
X182385132Y-86280054D01*
X182385136Y-86280056D01*
X182410938Y-86288216D01*
X182759387Y-86398416D01*
X183146603Y-86479662D01*
X183149721Y-86479998D01*
X183537522Y-86521785D01*
X183537525Y-86521785D01*
X183539973Y-86522049D01*
X183542436Y-86522120D01*
X183542437Y-86522120D01*
X183546086Y-86522225D01*
X183597291Y-86523700D01*
X183868352Y-86523700D01*
X183869915Y-86523622D01*
X183869923Y-86523622D01*
X183986445Y-86517821D01*
X184164158Y-86508974D01*
X184167243Y-86508510D01*
X184167245Y-86508510D01*
X184552316Y-86450617D01*
X184555409Y-86450152D01*
X184558445Y-86449381D01*
X184935839Y-86353535D01*
X184935842Y-86353534D01*
X184938882Y-86352762D01*
X184941830Y-86351692D01*
X185307849Y-86218834D01*
X185307859Y-86218830D01*
X185310787Y-86217767D01*
X185667446Y-86046502D01*
X186005331Y-85840661D01*
X186294978Y-85622000D01*
X186318607Y-85604162D01*
X186318610Y-85604160D01*
X186321101Y-85602279D01*
X186323383Y-85600169D01*
X186323392Y-85600162D01*
X186609337Y-85335836D01*
X186611634Y-85333713D01*
X186760751Y-85165463D01*
X186871972Y-85039971D01*
X186871977Y-85039965D01*
X186874056Y-85037619D01*
X186878579Y-85031360D01*
X186950164Y-84932286D01*
X187105773Y-84716926D01*
X187304493Y-84374804D01*
X187397129Y-84171063D01*
X187466959Y-84017479D01*
X187466960Y-84017476D01*
X187468251Y-84014637D01*
X187542384Y-83796250D01*
X187586687Y-83665738D01*
X187627524Y-83607661D01*
X187693277Y-83580883D01*
X187763069Y-83593904D01*
X187814742Y-83642591D01*
X187832000Y-83706239D01*
X187832000Y-130427111D01*
X187811998Y-130495232D01*
X187758342Y-130541725D01*
X187688068Y-130551829D01*
X187623488Y-130522335D01*
X187584553Y-130460677D01*
X187547261Y-130325750D01*
X187546428Y-130322735D01*
X187463107Y-130107363D01*
X187404809Y-129956672D01*
X187404807Y-129956667D01*
X187403674Y-129953739D01*
X187300554Y-129750037D01*
X187226396Y-129603548D01*
X187224977Y-129600745D01*
X187012105Y-129267245D01*
X186767162Y-128956537D01*
X186764987Y-128954281D01*
X186764982Y-128954275D01*
X186602922Y-128786164D01*
X186492571Y-128671692D01*
X186489999Y-128669507D01*
X186193441Y-128417562D01*
X186193433Y-128417555D01*
X186191046Y-128415528D01*
X185996891Y-128281339D01*
X185868143Y-128192355D01*
X185868134Y-128192350D01*
X185865571Y-128190578D01*
X185862836Y-128189065D01*
X185862831Y-128189062D01*
X185655080Y-128074141D01*
X185519362Y-127999066D01*
X185516493Y-127997833D01*
X185516482Y-127997828D01*
X185158713Y-127844119D01*
X185158710Y-127844118D01*
X185155845Y-127842887D01*
X185152868Y-127841946D01*
X185152864Y-127841944D01*
X185024089Y-127801218D01*
X184778613Y-127723584D01*
X184391397Y-127642338D01*
X184388279Y-127642002D01*
X184000478Y-127600215D01*
X184000475Y-127600215D01*
X183998027Y-127599951D01*
X183995564Y-127599880D01*
X183995563Y-127599880D01*
X183991914Y-127599775D01*
X183940709Y-127598300D01*
X183669648Y-127598300D01*
X183668085Y-127598378D01*
X183668077Y-127598378D01*
X183571709Y-127603176D01*
X183373842Y-127613026D01*
X183370757Y-127613490D01*
X183370755Y-127613490D01*
X183181110Y-127642002D01*
X182982591Y-127671848D01*
X182979556Y-127672619D01*
X182979555Y-127672619D01*
X182602161Y-127768465D01*
X182602158Y-127768466D01*
X182599118Y-127769238D01*
X182596171Y-127770308D01*
X182596170Y-127770308D01*
X182230151Y-127903166D01*
X182230141Y-127903170D01*
X182227213Y-127904233D01*
X181870554Y-128075498D01*
X181532669Y-128281339D01*
X181216899Y-128519721D01*
X181214617Y-128521831D01*
X181214608Y-128521838D01*
X181054697Y-128669659D01*
X180926366Y-128788287D01*
X180924294Y-128790625D01*
X180924289Y-128790630D01*
X180666028Y-129082029D01*
X180666023Y-129082035D01*
X180663944Y-129084381D01*
X180432227Y-129405074D01*
X180233507Y-129747196D01*
X180232217Y-129750033D01*
X180232215Y-129750037D01*
X180138264Y-129956672D01*
X180069749Y-130107363D01*
X179942572Y-130482013D01*
X179853234Y-130867443D01*
X179802619Y-131259839D01*
X179791227Y-131655322D01*
X179791448Y-131658441D01*
X179791448Y-131658448D01*
X179811912Y-131947472D01*
X179819170Y-132049982D01*
X179886173Y-132439915D01*
X179991572Y-132821265D01*
X179992702Y-132824185D01*
X179992703Y-132824189D01*
X180075993Y-133039479D01*
X180134326Y-133190261D01*
X180135741Y-133193055D01*
X180135744Y-133193063D01*
X180238885Y-133396804D01*
X180313023Y-133543255D01*
X180525895Y-133876755D01*
X180770838Y-134187463D01*
X180773013Y-134189719D01*
X180773018Y-134189725D01*
X180888217Y-134309225D01*
X181045429Y-134472308D01*
X181047822Y-134474341D01*
X181344559Y-134726438D01*
X181344567Y-134726445D01*
X181346954Y-134728472D01*
X181349534Y-134730255D01*
X181669857Y-134951645D01*
X181669866Y-134951650D01*
X181672429Y-134953422D01*
X181675164Y-134954935D01*
X181675169Y-134954938D01*
X181839957Y-135046093D01*
X182018638Y-135144934D01*
X182021507Y-135146167D01*
X182021518Y-135146172D01*
X182379287Y-135299881D01*
X182382155Y-135301113D01*
X182385132Y-135302054D01*
X182385136Y-135302056D01*
X182659624Y-135388865D01*
X182718542Y-135428477D01*
X182746692Y-135493654D01*
X182735135Y-135563704D01*
X182687541Y-135616386D01*
X182621630Y-135635000D01*
X137297194Y-135635000D01*
X137229073Y-135614998D01*
X137182580Y-135561342D01*
X137172476Y-135491068D01*
X137201970Y-135426488D01*
X137266179Y-135386877D01*
X137310839Y-135375535D01*
X137310842Y-135375534D01*
X137313882Y-135374762D01*
X137336511Y-135366548D01*
X137682849Y-135240834D01*
X137682859Y-135240830D01*
X137685787Y-135239767D01*
X138042446Y-135068502D01*
X138380331Y-134862661D01*
X138696101Y-134624279D01*
X138698383Y-134622169D01*
X138698392Y-134622162D01*
X138984337Y-134357836D01*
X138986634Y-134355713D01*
X138988711Y-134353370D01*
X139246972Y-134061971D01*
X139246977Y-134061965D01*
X139249056Y-134059619D01*
X139480773Y-133738926D01*
X139679493Y-133396804D01*
X139685754Y-133383035D01*
X139841959Y-133039479D01*
X139841960Y-133039476D01*
X139843251Y-133036637D01*
X139970428Y-132661987D01*
X140059766Y-132276557D01*
X140110381Y-131884161D01*
X140121773Y-131488678D01*
X140093830Y-131094018D01*
X140026827Y-130704085D01*
X139921428Y-130322735D01*
X139838107Y-130107363D01*
X139779809Y-129956672D01*
X139779807Y-129956667D01*
X139778674Y-129953739D01*
X139675554Y-129750037D01*
X139601396Y-129603548D01*
X139599977Y-129600745D01*
X139387105Y-129267245D01*
X139142162Y-128956537D01*
X139139987Y-128954281D01*
X139139982Y-128954275D01*
X138977922Y-128786164D01*
X138867571Y-128671692D01*
X138864999Y-128669507D01*
X138568441Y-128417562D01*
X138568433Y-128417555D01*
X138566046Y-128415528D01*
X138371891Y-128281339D01*
X138243143Y-128192355D01*
X138243134Y-128192350D01*
X138240571Y-128190578D01*
X138237836Y-128189065D01*
X138237831Y-128189062D01*
X138030080Y-128074141D01*
X137894362Y-127999066D01*
X137891493Y-127997833D01*
X137891482Y-127997828D01*
X137533713Y-127844119D01*
X137533710Y-127844118D01*
X137530845Y-127842887D01*
X137527868Y-127841946D01*
X137527864Y-127841944D01*
X137399089Y-127801218D01*
X137153613Y-127723584D01*
X136766397Y-127642338D01*
X136763279Y-127642002D01*
X136375478Y-127600215D01*
X136375475Y-127600215D01*
X136373027Y-127599951D01*
X136370564Y-127599880D01*
X136370563Y-127599880D01*
X136366914Y-127599775D01*
X136315709Y-127598300D01*
X136044648Y-127598300D01*
X136043085Y-127598378D01*
X136043077Y-127598378D01*
X135946709Y-127603176D01*
X135748842Y-127613026D01*
X135745757Y-127613490D01*
X135745755Y-127613490D01*
X135556110Y-127642002D01*
X135357591Y-127671848D01*
X135354556Y-127672619D01*
X135354555Y-127672619D01*
X134977161Y-127768465D01*
X134977158Y-127768466D01*
X134974118Y-127769238D01*
X134971171Y-127770308D01*
X134971170Y-127770308D01*
X134605151Y-127903166D01*
X134605141Y-127903170D01*
X134602213Y-127904233D01*
X134245554Y-128075498D01*
X133907669Y-128281339D01*
X133591899Y-128519721D01*
X133589617Y-128521831D01*
X133589608Y-128521838D01*
X133429697Y-128669659D01*
X133301366Y-128788287D01*
X133299294Y-128790625D01*
X133299289Y-128790630D01*
X133041028Y-129082029D01*
X133041023Y-129082035D01*
X133038944Y-129084381D01*
X132807227Y-129405074D01*
X132608507Y-129747196D01*
X132607217Y-129750033D01*
X132607215Y-129750037D01*
X132513264Y-129956672D01*
X132444749Y-130107363D01*
X132443745Y-130110320D01*
X132443743Y-130110326D01*
X132326313Y-130456262D01*
X132285476Y-130514339D01*
X132219723Y-130541117D01*
X132149931Y-130528096D01*
X132098258Y-130479409D01*
X132081000Y-130415761D01*
X132081000Y-123662167D01*
X133019500Y-123662167D01*
X133019501Y-124241832D01*
X133022399Y-124272500D01*
X133024944Y-124279748D01*
X133024945Y-124279751D01*
X133062015Y-124385309D01*
X133066039Y-124396768D01*
X133071634Y-124404343D01*
X133071635Y-124404345D01*
X133088831Y-124427626D01*
X133144289Y-124502711D01*
X133151860Y-124508303D01*
X133242655Y-124575365D01*
X133242657Y-124575366D01*
X133250232Y-124580961D01*
X133259119Y-124584082D01*
X133259121Y-124584083D01*
X133367252Y-124622056D01*
X133367254Y-124622057D01*
X133374500Y-124624601D01*
X133382144Y-124625324D01*
X133382146Y-124625324D01*
X133390121Y-124626078D01*
X133405167Y-124627500D01*
X133707347Y-124627500D01*
X134009832Y-124627499D01*
X134012782Y-124627220D01*
X134012787Y-124627220D01*
X134032850Y-124625324D01*
X134032851Y-124625324D01*
X134040500Y-124624601D01*
X134047748Y-124622056D01*
X134047751Y-124622055D01*
X134155879Y-124584083D01*
X134155881Y-124584082D01*
X134164768Y-124580961D01*
X134172343Y-124575366D01*
X134172345Y-124575365D01*
X134263140Y-124508303D01*
X134270711Y-124502711D01*
X134326169Y-124427626D01*
X134343365Y-124404345D01*
X134343366Y-124404343D01*
X134348961Y-124396768D01*
X134352986Y-124385309D01*
X134390056Y-124279748D01*
X134390057Y-124279746D01*
X134392601Y-124272500D01*
X134395500Y-124241833D01*
X134395499Y-123662168D01*
X134394397Y-123650500D01*
X134393324Y-123639150D01*
X134393324Y-123639149D01*
X134392601Y-123631500D01*
X134390055Y-123624249D01*
X134352083Y-123516121D01*
X134352082Y-123516119D01*
X134348961Y-123507232D01*
X134331626Y-123483761D01*
X134276303Y-123408860D01*
X134270711Y-123401289D01*
X134164768Y-123323039D01*
X134155880Y-123319918D01*
X134153544Y-123318681D01*
X134102699Y-123269130D01*
X134086500Y-123207325D01*
X134086500Y-122696997D01*
X134106502Y-122628876D01*
X134160158Y-122582383D01*
X134170751Y-122578115D01*
X134244878Y-122552083D01*
X134253768Y-122548961D01*
X134261343Y-122543366D01*
X134261345Y-122543365D01*
X134352140Y-122476303D01*
X134359711Y-122470711D01*
X134437961Y-122364768D01*
X134481601Y-122240500D01*
X134484500Y-122209833D01*
X134484499Y-121630168D01*
X134484499Y-121630167D01*
X134783500Y-121630167D01*
X134783501Y-122209832D01*
X134786399Y-122240500D01*
X134830039Y-122364768D01*
X134908289Y-122470711D01*
X134915860Y-122476303D01*
X135006655Y-122543365D01*
X135006657Y-122543366D01*
X135014232Y-122548961D01*
X135023119Y-122552082D01*
X135023121Y-122552083D01*
X135131252Y-122590056D01*
X135131254Y-122590057D01*
X135138500Y-122592601D01*
X135146144Y-122593324D01*
X135146146Y-122593324D01*
X135154121Y-122594078D01*
X135169167Y-122595500D01*
X135508828Y-122595500D01*
X135848832Y-122595499D01*
X135851782Y-122595220D01*
X135851787Y-122595220D01*
X135871850Y-122593324D01*
X135871851Y-122593324D01*
X135879500Y-122592601D01*
X135886748Y-122590056D01*
X135886751Y-122590055D01*
X135994879Y-122552083D01*
X135994881Y-122552082D01*
X136003768Y-122548961D01*
X136011343Y-122543366D01*
X136011345Y-122543365D01*
X136102140Y-122476303D01*
X136109711Y-122470711D01*
X136187961Y-122364768D01*
X136231601Y-122240500D01*
X136234500Y-122209833D01*
X136234499Y-121630168D01*
X136231601Y-121599500D01*
X136187961Y-121475232D01*
X136144327Y-121416155D01*
X136115148Y-121376650D01*
X136090766Y-121309971D01*
X136090500Y-121301791D01*
X136090500Y-119562412D01*
X136093799Y-119537354D01*
X136094044Y-119536762D01*
X136095162Y-119528275D01*
X136113604Y-119388188D01*
X136114682Y-119380000D01*
X136098975Y-119260695D01*
X136095122Y-119231426D01*
X136094044Y-119223238D01*
X136033536Y-119077159D01*
X135937282Y-118951718D01*
X135811841Y-118855464D01*
X135665762Y-118794956D01*
X135509000Y-118774318D01*
X135352238Y-118794956D01*
X135206159Y-118855464D01*
X135080718Y-118951718D01*
X134984464Y-119077159D01*
X134923956Y-119223238D01*
X134922878Y-119231426D01*
X134919025Y-119260695D01*
X134903318Y-119380000D01*
X134904396Y-119388188D01*
X134922839Y-119528275D01*
X134923956Y-119536762D01*
X134924201Y-119537354D01*
X134927500Y-119562412D01*
X134927500Y-121301791D01*
X134907498Y-121369912D01*
X134902852Y-121376650D01*
X134873674Y-121416155D01*
X134830039Y-121475232D01*
X134786399Y-121599500D01*
X134783500Y-121630167D01*
X134484499Y-121630167D01*
X134481601Y-121599500D01*
X134437961Y-121475232D01*
X134394327Y-121416155D01*
X134365303Y-121376860D01*
X134359711Y-121369289D01*
X134348774Y-121361211D01*
X134261345Y-121296635D01*
X134261343Y-121296634D01*
X134253768Y-121291039D01*
X134244881Y-121287918D01*
X134244879Y-121287917D01*
X134136748Y-121249944D01*
X134136746Y-121249943D01*
X134129500Y-121247399D01*
X134121856Y-121246676D01*
X134121854Y-121246676D01*
X134113879Y-121245922D01*
X134098833Y-121244500D01*
X133759172Y-121244500D01*
X133419168Y-121244501D01*
X133416218Y-121244780D01*
X133416213Y-121244780D01*
X133396150Y-121246676D01*
X133396149Y-121246676D01*
X133388500Y-121247399D01*
X133381252Y-121249944D01*
X133381249Y-121249945D01*
X133273121Y-121287917D01*
X133273119Y-121287918D01*
X133264232Y-121291039D01*
X133256657Y-121296634D01*
X133256655Y-121296635D01*
X133169226Y-121361211D01*
X133158289Y-121369289D01*
X133152697Y-121376860D01*
X133123674Y-121416155D01*
X133080039Y-121475232D01*
X133036399Y-121599500D01*
X133033500Y-121630167D01*
X133033501Y-122209832D01*
X133036399Y-122240500D01*
X133080039Y-122364768D01*
X133158289Y-122470711D01*
X133165860Y-122476303D01*
X133256655Y-122543365D01*
X133256657Y-122543366D01*
X133264232Y-122548961D01*
X133273122Y-122552083D01*
X133347249Y-122578115D01*
X133404894Y-122619558D01*
X133430982Y-122685588D01*
X133431500Y-122696997D01*
X133431500Y-123170087D01*
X133411498Y-123238208D01*
X133357842Y-123284701D01*
X133347270Y-123288962D01*
X133250232Y-123323039D01*
X133242657Y-123328634D01*
X133242655Y-123328635D01*
X133186494Y-123370116D01*
X133144289Y-123401289D01*
X133138697Y-123408860D01*
X133083375Y-123483761D01*
X133066039Y-123507232D01*
X133062918Y-123516119D01*
X133062917Y-123516121D01*
X133024945Y-123624249D01*
X133022399Y-123631500D01*
X133021676Y-123639144D01*
X133021676Y-123639146D01*
X133021548Y-123640500D01*
X133019500Y-123662167D01*
X132081000Y-123662167D01*
X132081000Y-112486167D01*
X133019500Y-112486167D01*
X133019501Y-113065832D01*
X133022399Y-113096500D01*
X133066039Y-113220768D01*
X133144289Y-113326711D01*
X133151860Y-113332303D01*
X133242655Y-113399365D01*
X133242657Y-113399366D01*
X133250232Y-113404961D01*
X133259119Y-113408082D01*
X133259121Y-113408083D01*
X133367252Y-113446056D01*
X133367254Y-113446057D01*
X133374500Y-113448601D01*
X133382144Y-113449324D01*
X133382146Y-113449324D01*
X133390121Y-113450078D01*
X133405167Y-113451500D01*
X133707347Y-113451500D01*
X134009832Y-113451499D01*
X134012782Y-113451220D01*
X134012787Y-113451220D01*
X134032850Y-113449324D01*
X134032851Y-113449324D01*
X134040500Y-113448601D01*
X134047748Y-113446056D01*
X134047751Y-113446055D01*
X134155879Y-113408083D01*
X134155881Y-113408082D01*
X134164768Y-113404961D01*
X134172343Y-113399366D01*
X134172345Y-113399365D01*
X134263140Y-113332303D01*
X134270711Y-113326711D01*
X134348961Y-113220768D01*
X134392601Y-113096500D01*
X134395500Y-113065833D01*
X134395499Y-112486168D01*
X134395499Y-112486167D01*
X134844500Y-112486167D01*
X134844501Y-113065832D01*
X134847399Y-113096500D01*
X134891039Y-113220768D01*
X134969289Y-113326711D01*
X134976860Y-113332303D01*
X135067655Y-113399365D01*
X135067657Y-113399366D01*
X135075232Y-113404961D01*
X135084119Y-113408082D01*
X135084121Y-113408083D01*
X135192252Y-113446056D01*
X135192254Y-113446057D01*
X135199500Y-113448601D01*
X135207144Y-113449324D01*
X135207146Y-113449324D01*
X135215121Y-113450078D01*
X135230167Y-113451500D01*
X135256555Y-113451500D01*
X135669155Y-113451499D01*
X135737276Y-113471501D01*
X135758250Y-113488404D01*
X139447962Y-117178117D01*
X139481988Y-117240429D01*
X139483789Y-117283657D01*
X139475318Y-117348000D01*
X139495956Y-117504762D01*
X139556464Y-117650841D01*
X139652718Y-117776282D01*
X139778159Y-117872536D01*
X139924238Y-117933044D01*
X139932426Y-117934122D01*
X140002619Y-117943363D01*
X140081000Y-117953682D01*
X140089188Y-117952604D01*
X140229574Y-117934122D01*
X140237762Y-117933044D01*
X140383841Y-117872536D01*
X140509282Y-117776282D01*
X140605536Y-117650841D01*
X140666044Y-117504762D01*
X140686682Y-117348000D01*
X140666044Y-117191238D01*
X140605536Y-117045159D01*
X140509282Y-116919718D01*
X140499464Y-116912184D01*
X140423810Y-116854133D01*
X140383841Y-116823464D01*
X140237762Y-116762956D01*
X140081000Y-116742318D01*
X140016658Y-116750789D01*
X139946510Y-116739850D01*
X139911117Y-116714962D01*
X136257405Y-113061251D01*
X136223379Y-112998939D01*
X136220500Y-112972156D01*
X136220499Y-112489134D01*
X136220499Y-112486168D01*
X136217601Y-112455500D01*
X136215055Y-112448249D01*
X136177083Y-112340121D01*
X136177082Y-112340119D01*
X136173961Y-112331232D01*
X136157171Y-112308499D01*
X136101303Y-112232860D01*
X136095711Y-112225289D01*
X136071697Y-112207552D01*
X135997345Y-112152635D01*
X135997343Y-112152634D01*
X135989768Y-112147039D01*
X135980881Y-112143918D01*
X135980879Y-112143917D01*
X135872748Y-112105944D01*
X135872746Y-112105943D01*
X135865500Y-112103399D01*
X135857856Y-112102676D01*
X135857854Y-112102676D01*
X135849879Y-112101922D01*
X135834833Y-112100500D01*
X135532653Y-112100500D01*
X135230168Y-112100501D01*
X135227218Y-112100780D01*
X135227213Y-112100780D01*
X135207150Y-112102676D01*
X135207149Y-112102676D01*
X135199500Y-112103399D01*
X135192252Y-112105944D01*
X135192249Y-112105945D01*
X135084121Y-112143917D01*
X135084119Y-112143918D01*
X135075232Y-112147039D01*
X135067657Y-112152634D01*
X135067655Y-112152635D01*
X134993303Y-112207552D01*
X134969289Y-112225289D01*
X134963697Y-112232860D01*
X134907830Y-112308499D01*
X134891039Y-112331232D01*
X134887918Y-112340119D01*
X134887917Y-112340121D01*
X134849945Y-112448249D01*
X134847399Y-112455500D01*
X134844500Y-112486167D01*
X134395499Y-112486167D01*
X134392601Y-112455500D01*
X134390055Y-112448249D01*
X134352083Y-112340121D01*
X134352082Y-112340119D01*
X134348961Y-112331232D01*
X134332171Y-112308499D01*
X134276303Y-112232860D01*
X134270711Y-112225289D01*
X134164768Y-112147039D01*
X134155880Y-112143918D01*
X134153544Y-112142681D01*
X134102699Y-112093130D01*
X134086500Y-112031325D01*
X134086500Y-111520997D01*
X134106502Y-111452876D01*
X134160158Y-111406383D01*
X134170751Y-111402115D01*
X134244878Y-111376083D01*
X134253768Y-111372961D01*
X134261343Y-111367366D01*
X134261345Y-111367365D01*
X134352140Y-111300303D01*
X134359711Y-111294711D01*
X134423768Y-111207984D01*
X134432365Y-111196345D01*
X134432366Y-111196343D01*
X134437961Y-111188768D01*
X134450487Y-111153101D01*
X134479056Y-111071748D01*
X134479057Y-111071746D01*
X134481601Y-111064500D01*
X134484500Y-111033833D01*
X134484499Y-110454168D01*
X134484499Y-110454167D01*
X134783500Y-110454167D01*
X134783501Y-111033832D01*
X134786399Y-111064500D01*
X134788944Y-111071748D01*
X134788945Y-111071751D01*
X134817514Y-111153101D01*
X134830039Y-111188768D01*
X134835634Y-111196343D01*
X134835635Y-111196345D01*
X134844232Y-111207984D01*
X134908289Y-111294711D01*
X134915860Y-111300303D01*
X135006655Y-111367365D01*
X135006657Y-111367366D01*
X135014232Y-111372961D01*
X135023119Y-111376082D01*
X135023121Y-111376083D01*
X135131252Y-111414056D01*
X135131254Y-111414057D01*
X135138500Y-111416601D01*
X135146144Y-111417324D01*
X135146146Y-111417324D01*
X135154121Y-111418078D01*
X135169167Y-111419500D01*
X135508828Y-111419500D01*
X135848832Y-111419499D01*
X135851782Y-111419220D01*
X135851787Y-111419220D01*
X135871850Y-111417324D01*
X135871851Y-111417324D01*
X135879500Y-111416601D01*
X135886748Y-111414056D01*
X135886751Y-111414055D01*
X135994879Y-111376083D01*
X135994881Y-111376082D01*
X136003768Y-111372961D01*
X136011343Y-111367366D01*
X136011345Y-111367365D01*
X136102140Y-111300303D01*
X136109711Y-111294711D01*
X136173768Y-111207984D01*
X136182365Y-111196345D01*
X136182366Y-111196343D01*
X136187961Y-111188768D01*
X136200487Y-111153101D01*
X136229056Y-111071748D01*
X136229057Y-111071746D01*
X136231601Y-111064500D01*
X136234500Y-111033833D01*
X136234499Y-110454168D01*
X136231601Y-110423500D01*
X136204527Y-110346405D01*
X136191083Y-110308121D01*
X136191082Y-110308119D01*
X136187961Y-110299232D01*
X136115148Y-110200650D01*
X136090766Y-110133971D01*
X136090500Y-110125791D01*
X136090500Y-108386412D01*
X136093799Y-108361354D01*
X136094044Y-108360762D01*
X136096885Y-108339188D01*
X136113604Y-108212188D01*
X136114682Y-108204000D01*
X136094044Y-108047238D01*
X136033536Y-107901159D01*
X135958449Y-107803304D01*
X135942305Y-107782264D01*
X135937282Y-107775718D01*
X135918215Y-107761087D01*
X135859092Y-107715721D01*
X135811841Y-107679464D01*
X135665762Y-107618956D01*
X135509000Y-107598318D01*
X135352238Y-107618956D01*
X135206159Y-107679464D01*
X135158908Y-107715721D01*
X135099786Y-107761087D01*
X135080718Y-107775718D01*
X135075695Y-107782264D01*
X135059551Y-107803304D01*
X134984464Y-107901159D01*
X134923956Y-108047238D01*
X134903318Y-108204000D01*
X134904396Y-108212188D01*
X134921116Y-108339188D01*
X134923956Y-108360762D01*
X134924201Y-108361354D01*
X134927500Y-108386412D01*
X134927500Y-110125791D01*
X134907498Y-110193912D01*
X134902852Y-110200650D01*
X134830039Y-110299232D01*
X134826918Y-110308119D01*
X134826917Y-110308121D01*
X134819409Y-110329502D01*
X134786399Y-110423500D01*
X134783500Y-110454167D01*
X134484499Y-110454167D01*
X134481601Y-110423500D01*
X134454527Y-110346405D01*
X134441083Y-110308121D01*
X134441082Y-110308119D01*
X134437961Y-110299232D01*
X134359711Y-110193289D01*
X134352140Y-110187697D01*
X134261345Y-110120635D01*
X134261343Y-110120634D01*
X134253768Y-110115039D01*
X134244881Y-110111918D01*
X134244879Y-110111917D01*
X134136748Y-110073944D01*
X134136746Y-110073943D01*
X134129500Y-110071399D01*
X134121856Y-110070676D01*
X134121854Y-110070676D01*
X134113879Y-110069922D01*
X134098833Y-110068500D01*
X133759172Y-110068500D01*
X133419168Y-110068501D01*
X133416218Y-110068780D01*
X133416213Y-110068780D01*
X133396150Y-110070676D01*
X133396149Y-110070676D01*
X133388500Y-110071399D01*
X133381252Y-110073944D01*
X133381249Y-110073945D01*
X133273121Y-110111917D01*
X133273119Y-110111918D01*
X133264232Y-110115039D01*
X133256657Y-110120634D01*
X133256655Y-110120635D01*
X133165860Y-110187697D01*
X133158289Y-110193289D01*
X133080039Y-110299232D01*
X133076918Y-110308119D01*
X133076917Y-110308121D01*
X133069409Y-110329502D01*
X133036399Y-110423500D01*
X133033500Y-110454167D01*
X133033501Y-111033832D01*
X133036399Y-111064500D01*
X133038944Y-111071748D01*
X133038945Y-111071751D01*
X133067514Y-111153101D01*
X133080039Y-111188768D01*
X133085634Y-111196343D01*
X133085635Y-111196345D01*
X133094232Y-111207984D01*
X133158289Y-111294711D01*
X133165860Y-111300303D01*
X133256655Y-111367365D01*
X133256657Y-111367366D01*
X133264232Y-111372961D01*
X133273122Y-111376083D01*
X133347249Y-111402115D01*
X133404894Y-111443558D01*
X133430982Y-111509588D01*
X133431500Y-111520997D01*
X133431500Y-111994087D01*
X133411498Y-112062208D01*
X133357842Y-112108701D01*
X133347270Y-112112962D01*
X133250232Y-112147039D01*
X133242657Y-112152634D01*
X133242655Y-112152635D01*
X133168303Y-112207552D01*
X133144289Y-112225289D01*
X133138697Y-112232860D01*
X133082830Y-112308499D01*
X133066039Y-112331232D01*
X133062918Y-112340119D01*
X133062917Y-112340121D01*
X133024945Y-112448249D01*
X133022399Y-112455500D01*
X133019500Y-112486167D01*
X132081000Y-112486167D01*
X132081000Y-104104167D01*
X133019500Y-104104167D01*
X133019501Y-104683832D01*
X133022399Y-104714500D01*
X133024944Y-104721748D01*
X133024945Y-104721751D01*
X133048386Y-104788499D01*
X133066039Y-104838768D01*
X133144289Y-104944711D01*
X133151860Y-104950303D01*
X133242655Y-105017365D01*
X133242657Y-105017366D01*
X133250232Y-105022961D01*
X133259119Y-105026082D01*
X133259121Y-105026083D01*
X133367252Y-105064056D01*
X133367254Y-105064057D01*
X133374500Y-105066601D01*
X133382144Y-105067324D01*
X133382146Y-105067324D01*
X133390121Y-105068078D01*
X133405167Y-105069500D01*
X133707347Y-105069500D01*
X134009832Y-105069499D01*
X134012782Y-105069220D01*
X134012787Y-105069220D01*
X134032850Y-105067324D01*
X134032851Y-105067324D01*
X134040500Y-105066601D01*
X134047748Y-105064056D01*
X134047751Y-105064055D01*
X134155879Y-105026083D01*
X134155881Y-105026082D01*
X134164768Y-105022961D01*
X134172343Y-105017366D01*
X134172345Y-105017365D01*
X134263140Y-104950303D01*
X134270711Y-104944711D01*
X134348961Y-104838768D01*
X134366615Y-104788499D01*
X134390056Y-104721748D01*
X134390057Y-104721746D01*
X134392601Y-104714500D01*
X134395500Y-104683833D01*
X134395499Y-104104168D01*
X134392601Y-104073500D01*
X134389909Y-104065834D01*
X134352083Y-103958121D01*
X134352082Y-103958119D01*
X134348961Y-103949232D01*
X134338819Y-103935500D01*
X134276303Y-103850860D01*
X134270711Y-103843289D01*
X134263140Y-103837697D01*
X134172342Y-103770633D01*
X134172341Y-103770633D01*
X134164768Y-103765039D01*
X134155884Y-103761919D01*
X134147558Y-103757511D01*
X134148285Y-103756137D01*
X134099106Y-103720781D01*
X134073018Y-103654751D01*
X134072500Y-103643341D01*
X134072500Y-103138997D01*
X134092502Y-103070876D01*
X134146158Y-103024383D01*
X134156751Y-103020115D01*
X134230878Y-102994083D01*
X134239768Y-102990961D01*
X134247343Y-102985366D01*
X134247345Y-102985365D01*
X134338140Y-102918303D01*
X134345711Y-102912711D01*
X134363878Y-102888115D01*
X134418365Y-102814345D01*
X134418366Y-102814343D01*
X134423961Y-102806768D01*
X134429099Y-102792139D01*
X134465056Y-102689748D01*
X134465057Y-102689746D01*
X134467601Y-102682500D01*
X134470500Y-102651833D01*
X134470499Y-102072168D01*
X134470499Y-102072167D01*
X134769500Y-102072167D01*
X134769501Y-102651832D01*
X134769780Y-102654781D01*
X134769780Y-102654787D01*
X134771676Y-102674850D01*
X134772399Y-102682500D01*
X134774944Y-102689748D01*
X134774945Y-102689751D01*
X134810902Y-102792139D01*
X134816039Y-102806768D01*
X134821634Y-102814343D01*
X134821635Y-102814345D01*
X134876122Y-102888115D01*
X134894289Y-102912711D01*
X134901860Y-102918303D01*
X134992655Y-102985365D01*
X134992657Y-102985366D01*
X135000232Y-102990961D01*
X135009119Y-102994082D01*
X135009121Y-102994083D01*
X135117252Y-103032056D01*
X135117254Y-103032057D01*
X135124500Y-103034601D01*
X135132144Y-103035324D01*
X135132146Y-103035324D01*
X135140121Y-103036078D01*
X135155167Y-103037500D01*
X135494828Y-103037500D01*
X135834832Y-103037499D01*
X135837782Y-103037220D01*
X135837787Y-103037220D01*
X135857850Y-103035324D01*
X135857851Y-103035324D01*
X135865500Y-103034601D01*
X135872748Y-103032056D01*
X135872751Y-103032055D01*
X135980879Y-102994083D01*
X135980881Y-102994082D01*
X135989768Y-102990961D01*
X135997343Y-102985366D01*
X135997345Y-102985365D01*
X136088140Y-102918303D01*
X136095711Y-102912711D01*
X136113878Y-102888115D01*
X136168365Y-102814345D01*
X136168366Y-102814343D01*
X136173961Y-102806768D01*
X136179099Y-102792139D01*
X136215056Y-102689748D01*
X136215057Y-102689746D01*
X136217601Y-102682500D01*
X136220500Y-102651833D01*
X136220499Y-102072168D01*
X136217601Y-102041500D01*
X136194515Y-101975761D01*
X136177083Y-101926121D01*
X136177082Y-101926119D01*
X136173961Y-101917232D01*
X136122543Y-101847616D01*
X136101148Y-101818650D01*
X136076766Y-101751971D01*
X136076500Y-101743791D01*
X136076500Y-99919180D01*
X136086091Y-99870963D01*
X136094044Y-99851762D01*
X136114682Y-99695000D01*
X136094044Y-99538238D01*
X136033536Y-99392159D01*
X135937282Y-99266718D01*
X135811841Y-99170464D01*
X135665762Y-99109956D01*
X135509000Y-99089318D01*
X135352238Y-99109956D01*
X135206159Y-99170464D01*
X135080718Y-99266718D01*
X134984464Y-99392159D01*
X134923956Y-99538238D01*
X134903318Y-99695000D01*
X134904396Y-99703188D01*
X134912422Y-99764152D01*
X134913500Y-99780598D01*
X134913500Y-101743791D01*
X134893498Y-101811912D01*
X134888852Y-101818650D01*
X134867458Y-101847616D01*
X134816039Y-101917232D01*
X134812918Y-101926119D01*
X134812917Y-101926121D01*
X134795485Y-101975761D01*
X134772399Y-102041500D01*
X134769500Y-102072167D01*
X134470499Y-102072167D01*
X134467601Y-102041500D01*
X134444515Y-101975761D01*
X134427083Y-101926121D01*
X134427082Y-101926119D01*
X134423961Y-101917232D01*
X134345711Y-101811289D01*
X134338140Y-101805697D01*
X134247345Y-101738635D01*
X134247343Y-101738634D01*
X134239768Y-101733039D01*
X134230881Y-101729918D01*
X134230879Y-101729917D01*
X134122748Y-101691944D01*
X134122746Y-101691943D01*
X134115500Y-101689399D01*
X134107856Y-101688676D01*
X134107854Y-101688676D01*
X134099879Y-101687922D01*
X134084833Y-101686500D01*
X133745172Y-101686500D01*
X133405168Y-101686501D01*
X133402218Y-101686780D01*
X133402213Y-101686780D01*
X133382150Y-101688676D01*
X133382149Y-101688676D01*
X133374500Y-101689399D01*
X133367252Y-101691944D01*
X133367249Y-101691945D01*
X133259121Y-101729917D01*
X133259119Y-101729918D01*
X133250232Y-101733039D01*
X133242657Y-101738634D01*
X133242655Y-101738635D01*
X133151860Y-101805697D01*
X133144289Y-101811289D01*
X133066039Y-101917232D01*
X133062918Y-101926119D01*
X133062917Y-101926121D01*
X133045485Y-101975761D01*
X133022399Y-102041500D01*
X133019500Y-102072167D01*
X133019501Y-102651832D01*
X133019780Y-102654781D01*
X133019780Y-102654787D01*
X133021676Y-102674850D01*
X133022399Y-102682500D01*
X133024944Y-102689748D01*
X133024945Y-102689751D01*
X133060902Y-102792139D01*
X133066039Y-102806768D01*
X133071634Y-102814343D01*
X133071635Y-102814345D01*
X133126122Y-102888115D01*
X133144289Y-102912711D01*
X133151860Y-102918303D01*
X133242655Y-102985365D01*
X133242657Y-102985366D01*
X133250232Y-102990961D01*
X133259122Y-102994083D01*
X133333249Y-103020115D01*
X133390894Y-103061558D01*
X133416982Y-103127588D01*
X133417500Y-103138997D01*
X133417500Y-103617003D01*
X133397498Y-103685124D01*
X133343842Y-103731617D01*
X133333249Y-103735885D01*
X133259122Y-103761917D01*
X133250232Y-103765039D01*
X133242657Y-103770634D01*
X133242655Y-103770635D01*
X133151860Y-103837697D01*
X133144289Y-103843289D01*
X133138697Y-103850860D01*
X133076182Y-103935500D01*
X133066039Y-103949232D01*
X133062918Y-103958119D01*
X133062917Y-103958121D01*
X133025091Y-104065834D01*
X133022399Y-104073500D01*
X133021676Y-104081144D01*
X133021676Y-104081146D01*
X133020922Y-104089121D01*
X133019500Y-104104167D01*
X132081000Y-104104167D01*
X132081000Y-95341167D01*
X132996000Y-95341167D01*
X132996001Y-95920832D01*
X132998899Y-95951500D01*
X133001444Y-95958748D01*
X133001445Y-95958751D01*
X133035773Y-96056500D01*
X133042539Y-96075768D01*
X133048134Y-96083343D01*
X133048135Y-96083345D01*
X133090515Y-96140723D01*
X133120789Y-96181711D01*
X133128360Y-96187303D01*
X133219155Y-96254365D01*
X133219157Y-96254366D01*
X133226732Y-96259961D01*
X133235619Y-96263082D01*
X133235621Y-96263083D01*
X133343752Y-96301056D01*
X133343754Y-96301057D01*
X133351000Y-96303601D01*
X133358644Y-96304324D01*
X133358646Y-96304324D01*
X133366621Y-96305078D01*
X133381667Y-96306500D01*
X133683847Y-96306500D01*
X133986332Y-96306499D01*
X133989282Y-96306220D01*
X133989287Y-96306220D01*
X134009350Y-96304324D01*
X134009351Y-96304324D01*
X134017000Y-96303601D01*
X134024248Y-96301056D01*
X134024251Y-96301055D01*
X134132379Y-96263083D01*
X134132381Y-96263082D01*
X134141268Y-96259961D01*
X134148843Y-96254366D01*
X134148845Y-96254365D01*
X134239640Y-96187303D01*
X134247211Y-96181711D01*
X134277485Y-96140723D01*
X134319865Y-96083345D01*
X134319866Y-96083343D01*
X134325461Y-96075768D01*
X134332228Y-96056500D01*
X134366556Y-95958748D01*
X134366557Y-95958746D01*
X134369101Y-95951500D01*
X134372000Y-95920833D01*
X134371999Y-95341168D01*
X134371999Y-95341167D01*
X134821000Y-95341167D01*
X134821001Y-95920832D01*
X134823899Y-95951500D01*
X134826444Y-95958748D01*
X134826445Y-95958751D01*
X134860773Y-96056500D01*
X134867539Y-96075768D01*
X134873134Y-96083343D01*
X134873135Y-96083345D01*
X134915515Y-96140723D01*
X134945789Y-96181711D01*
X134953360Y-96187303D01*
X135044155Y-96254365D01*
X135044157Y-96254366D01*
X135051732Y-96259961D01*
X135060619Y-96263082D01*
X135060621Y-96263083D01*
X135168752Y-96301056D01*
X135168754Y-96301057D01*
X135176000Y-96303601D01*
X135183644Y-96304324D01*
X135183646Y-96304324D01*
X135191621Y-96305078D01*
X135206667Y-96306500D01*
X135508847Y-96306500D01*
X135811332Y-96306499D01*
X135814282Y-96306220D01*
X135814287Y-96306220D01*
X135834350Y-96304324D01*
X135834351Y-96304324D01*
X135842000Y-96303601D01*
X135849248Y-96301056D01*
X135849251Y-96301055D01*
X135957379Y-96263083D01*
X135957381Y-96263082D01*
X135966268Y-96259961D01*
X135973843Y-96254366D01*
X135973845Y-96254365D01*
X136064640Y-96187303D01*
X136072211Y-96181711D01*
X136102485Y-96140723D01*
X136144865Y-96083345D01*
X136144866Y-96083343D01*
X136150461Y-96075768D01*
X136162056Y-96042751D01*
X136203499Y-95985106D01*
X136269529Y-95959018D01*
X136280938Y-95958500D01*
X140146629Y-95958500D01*
X140214750Y-95978502D01*
X140232007Y-95992409D01*
X140237448Y-96000552D01*
X140303769Y-96044867D01*
X140315939Y-96047288D01*
X140326717Y-96051752D01*
X140381998Y-96096299D01*
X140404500Y-96168161D01*
X140404500Y-99693206D01*
X140404020Y-99704189D01*
X140400713Y-99741984D01*
X140403566Y-99752631D01*
X140410534Y-99778635D01*
X140412913Y-99789367D01*
X140419503Y-99826739D01*
X140425015Y-99836286D01*
X140426242Y-99839658D01*
X140427754Y-99842900D01*
X140430606Y-99853543D01*
X140436748Y-99862314D01*
X140448500Y-99915321D01*
X140448501Y-100871498D01*
X140448501Y-101808834D01*
X140448780Y-101811783D01*
X140448780Y-101811789D01*
X140449448Y-101818860D01*
X140451481Y-101840370D01*
X140454026Y-101847616D01*
X140481595Y-101926121D01*
X140496366Y-101968184D01*
X140576850Y-102077150D01*
X140685816Y-102157634D01*
X140694699Y-102160754D01*
X140694702Y-102160755D01*
X140787773Y-102193439D01*
X140813630Y-102202519D01*
X140821272Y-102203241D01*
X140821275Y-102203242D01*
X140831634Y-102204221D01*
X140845165Y-102205500D01*
X140895500Y-102205500D01*
X140963621Y-102225502D01*
X141010114Y-102279158D01*
X141021500Y-102331500D01*
X141021500Y-102773501D01*
X141001498Y-102841622D01*
X140947842Y-102888115D01*
X140895500Y-102899501D01*
X140845166Y-102899501D01*
X140842216Y-102899780D01*
X140842211Y-102899780D01*
X140821279Y-102901758D01*
X140821277Y-102901758D01*
X140813630Y-102902481D01*
X140755378Y-102922938D01*
X140694702Y-102944245D01*
X140694699Y-102944246D01*
X140685816Y-102947366D01*
X140576850Y-103027850D01*
X140496366Y-103136816D01*
X140493246Y-103145699D01*
X140493245Y-103145702D01*
X140465463Y-103224816D01*
X140451481Y-103264630D01*
X140448500Y-103296165D01*
X140448501Y-106253834D01*
X140451481Y-106285370D01*
X140496366Y-106413184D01*
X140576850Y-106522150D01*
X140685816Y-106602634D01*
X140694699Y-106605754D01*
X140694702Y-106605755D01*
X140787773Y-106638439D01*
X140813630Y-106647519D01*
X140821272Y-106648241D01*
X140821275Y-106648242D01*
X140831634Y-106649221D01*
X140845165Y-106650500D01*
X141348745Y-106650500D01*
X141852834Y-106650499D01*
X141855784Y-106650220D01*
X141855789Y-106650220D01*
X141876721Y-106648242D01*
X141876723Y-106648242D01*
X141884370Y-106647519D01*
X141942622Y-106627062D01*
X142003298Y-106605755D01*
X142003301Y-106605754D01*
X142012184Y-106602634D01*
X142121150Y-106522150D01*
X142201634Y-106413184D01*
X142246519Y-106285370D01*
X142249500Y-106253835D01*
X142249499Y-103296166D01*
X142246519Y-103264630D01*
X142226062Y-103206378D01*
X142204755Y-103145702D01*
X142204754Y-103145699D01*
X142201634Y-103136816D01*
X142121150Y-103027850D01*
X142012184Y-102947366D01*
X142003301Y-102944246D01*
X142003298Y-102944245D01*
X141894043Y-102905878D01*
X141884370Y-102902481D01*
X141876728Y-102901759D01*
X141876725Y-102901758D01*
X141866366Y-102900779D01*
X141852835Y-102899500D01*
X141802500Y-102899500D01*
X141734379Y-102879498D01*
X141687886Y-102825842D01*
X141676500Y-102773500D01*
X141676500Y-102331499D01*
X141696502Y-102263378D01*
X141750158Y-102216885D01*
X141802500Y-102205499D01*
X141852834Y-102205499D01*
X141855784Y-102205220D01*
X141855789Y-102205220D01*
X141876721Y-102203242D01*
X141876723Y-102203242D01*
X141884370Y-102202519D01*
X141942622Y-102182062D01*
X142003298Y-102160755D01*
X142003301Y-102160754D01*
X142012184Y-102157634D01*
X142121150Y-102077150D01*
X142201634Y-101968184D01*
X142216406Y-101926121D01*
X142243975Y-101847614D01*
X142246519Y-101840370D01*
X142249500Y-101808835D01*
X142249499Y-98851166D01*
X142246519Y-98819630D01*
X142201634Y-98691816D01*
X142121150Y-98582850D01*
X142012184Y-98502366D01*
X142003301Y-98499246D01*
X142003298Y-98499245D01*
X141891614Y-98460025D01*
X141891615Y-98460025D01*
X141884370Y-98457481D01*
X141876728Y-98456759D01*
X141876725Y-98456758D01*
X141866366Y-98455779D01*
X141852835Y-98454500D01*
X141834608Y-98454500D01*
X141185499Y-98454501D01*
X141117379Y-98434499D01*
X141070886Y-98380843D01*
X141059500Y-98328501D01*
X141059500Y-96168161D01*
X141079502Y-96100040D01*
X141137283Y-96051752D01*
X141148061Y-96047288D01*
X141160231Y-96044867D01*
X141226552Y-96000552D01*
X141254651Y-95958500D01*
X141263974Y-95944547D01*
X141270867Y-95934231D01*
X141273348Y-95921761D01*
X141281293Y-95881816D01*
X141282500Y-95875748D01*
X141282500Y-95386252D01*
X141274122Y-95344134D01*
X141273288Y-95339939D01*
X141273288Y-95339938D01*
X141270867Y-95327769D01*
X141226552Y-95261448D01*
X141160231Y-95217133D01*
X141148062Y-95214712D01*
X141148061Y-95214712D01*
X141107816Y-95206707D01*
X141101748Y-95205500D01*
X140362252Y-95205500D01*
X140356184Y-95206707D01*
X140315939Y-95214712D01*
X140315938Y-95214712D01*
X140303769Y-95217133D01*
X140237448Y-95261448D01*
X140233024Y-95268069D01*
X140173415Y-95300620D01*
X140146629Y-95303500D01*
X136280938Y-95303500D01*
X136212817Y-95283498D01*
X136166324Y-95229842D01*
X136162056Y-95219249D01*
X136153583Y-95195122D01*
X136150461Y-95186232D01*
X136072211Y-95080289D01*
X136064640Y-95074697D01*
X135973845Y-95007635D01*
X135973843Y-95007634D01*
X135966268Y-95002039D01*
X135957381Y-94998918D01*
X135957379Y-94998917D01*
X135849248Y-94960944D01*
X135849246Y-94960943D01*
X135842000Y-94958399D01*
X135834356Y-94957676D01*
X135834354Y-94957676D01*
X135826379Y-94956922D01*
X135811333Y-94955500D01*
X135509153Y-94955500D01*
X135206668Y-94955501D01*
X135203718Y-94955780D01*
X135203713Y-94955780D01*
X135183650Y-94957676D01*
X135183649Y-94957676D01*
X135176000Y-94958399D01*
X135168752Y-94960944D01*
X135168749Y-94960945D01*
X135060621Y-94998917D01*
X135060619Y-94998918D01*
X135051732Y-95002039D01*
X135044157Y-95007634D01*
X135044155Y-95007635D01*
X134953360Y-95074697D01*
X134945789Y-95080289D01*
X134867539Y-95186232D01*
X134864418Y-95195119D01*
X134864417Y-95195121D01*
X134826445Y-95303249D01*
X134823899Y-95310500D01*
X134823176Y-95318144D01*
X134823176Y-95318146D01*
X134822422Y-95326121D01*
X134821000Y-95341167D01*
X134371999Y-95341167D01*
X134370728Y-95327712D01*
X134369824Y-95318150D01*
X134369824Y-95318149D01*
X134369101Y-95310500D01*
X134366555Y-95303249D01*
X134328583Y-95195121D01*
X134328582Y-95195119D01*
X134325461Y-95186232D01*
X134247211Y-95080289D01*
X134141268Y-95002039D01*
X134137494Y-95000713D01*
X134088698Y-94953156D01*
X134072500Y-94891354D01*
X134072500Y-94502997D01*
X134092502Y-94434876D01*
X134146158Y-94388383D01*
X134156751Y-94384115D01*
X134230878Y-94358083D01*
X134239768Y-94354961D01*
X134247343Y-94349366D01*
X134247345Y-94349365D01*
X134338140Y-94282303D01*
X134345711Y-94276711D01*
X134373751Y-94238748D01*
X134418365Y-94178345D01*
X134418366Y-94178343D01*
X134423961Y-94170768D01*
X134467601Y-94046500D01*
X134470500Y-94015833D01*
X134470499Y-93436168D01*
X134470499Y-93436167D01*
X134769500Y-93436167D01*
X134769501Y-94015832D01*
X134772399Y-94046500D01*
X134816039Y-94170768D01*
X134821634Y-94178343D01*
X134821635Y-94178345D01*
X134866249Y-94238748D01*
X134894289Y-94276711D01*
X134901860Y-94282303D01*
X134992655Y-94349365D01*
X134992657Y-94349366D01*
X135000232Y-94354961D01*
X135009119Y-94358082D01*
X135009121Y-94358083D01*
X135117252Y-94396056D01*
X135117254Y-94396057D01*
X135124500Y-94398601D01*
X135132144Y-94399324D01*
X135132146Y-94399324D01*
X135140121Y-94400078D01*
X135155167Y-94401500D01*
X135494828Y-94401500D01*
X135834832Y-94401499D01*
X135837782Y-94401220D01*
X135837787Y-94401220D01*
X135857850Y-94399324D01*
X135857851Y-94399324D01*
X135865500Y-94398601D01*
X135872748Y-94396056D01*
X135872751Y-94396055D01*
X135980879Y-94358083D01*
X135980881Y-94358082D01*
X135989768Y-94354961D01*
X135997343Y-94349366D01*
X135997345Y-94349365D01*
X136088140Y-94282303D01*
X136095711Y-94276711D01*
X136123751Y-94238748D01*
X136168365Y-94178345D01*
X136168366Y-94178343D01*
X136173961Y-94170768D01*
X136217601Y-94046500D01*
X136220500Y-94015833D01*
X136220499Y-93436168D01*
X136217601Y-93405500D01*
X136173961Y-93281232D01*
X136101148Y-93182650D01*
X136076766Y-93115971D01*
X136076500Y-93107791D01*
X136076500Y-90985056D01*
X136096502Y-90916935D01*
X136113405Y-90895961D01*
X138922960Y-88086405D01*
X138985272Y-88052379D01*
X139012055Y-88049500D01*
X154946500Y-88049500D01*
X155014621Y-88069502D01*
X155061114Y-88123158D01*
X155072500Y-88175500D01*
X155072500Y-88305248D01*
X155073092Y-88308226D01*
X155060070Y-88376901D01*
X155011231Y-88428430D01*
X154947904Y-88445500D01*
X150259796Y-88445500D01*
X150248814Y-88445021D01*
X150211015Y-88441714D01*
X150200369Y-88444567D01*
X150200366Y-88444567D01*
X150174370Y-88451533D01*
X150163637Y-88453913D01*
X150156267Y-88455213D01*
X150126261Y-88460503D01*
X150116712Y-88466016D01*
X150113353Y-88467238D01*
X150110106Y-88468752D01*
X150099457Y-88471606D01*
X150090429Y-88477928D01*
X150090428Y-88477928D01*
X150068372Y-88493372D01*
X150059102Y-88499277D01*
X150035788Y-88512737D01*
X150035786Y-88512739D01*
X150026240Y-88518250D01*
X150019154Y-88526695D01*
X150001845Y-88547323D01*
X149994418Y-88555427D01*
X142731251Y-95818595D01*
X142668939Y-95852621D01*
X142642156Y-95855500D01*
X142362252Y-95855500D01*
X142356184Y-95856707D01*
X142315939Y-95864712D01*
X142315938Y-95864712D01*
X142303769Y-95867133D01*
X142237448Y-95911448D01*
X142193133Y-95977769D01*
X142190712Y-95989938D01*
X142190712Y-95989939D01*
X142184833Y-96019498D01*
X142181500Y-96036252D01*
X142181500Y-96525748D01*
X142193133Y-96584231D01*
X142237448Y-96650552D01*
X142303769Y-96694867D01*
X142315938Y-96697288D01*
X142315939Y-96697288D01*
X142356184Y-96705293D01*
X142362252Y-96706500D01*
X143101748Y-96706500D01*
X143107816Y-96705293D01*
X143148061Y-96697288D01*
X143148062Y-96697288D01*
X143160231Y-96694867D01*
X143226552Y-96650552D01*
X143270867Y-96584231D01*
X143282500Y-96525748D01*
X143282500Y-96245844D01*
X143302502Y-96177723D01*
X143319405Y-96156749D01*
X143475405Y-96000749D01*
X143537717Y-95966723D01*
X143608532Y-95971788D01*
X143665368Y-96014335D01*
X143690179Y-96080855D01*
X143690500Y-96089844D01*
X143690500Y-106783426D01*
X143670498Y-106851547D01*
X143616842Y-106898040D01*
X143546568Y-106908144D01*
X143516282Y-106899835D01*
X143420392Y-106860116D01*
X143420389Y-106860115D01*
X143412762Y-106856956D01*
X143256000Y-106836318D01*
X143099238Y-106856956D01*
X142953159Y-106917464D01*
X142827718Y-107013718D01*
X142822692Y-107020268D01*
X142822689Y-107020271D01*
X142788211Y-107065204D01*
X142730873Y-107107071D01*
X142688249Y-107114500D01*
X138768345Y-107114500D01*
X138700224Y-107094498D01*
X138679250Y-107077595D01*
X136257405Y-104655751D01*
X136223380Y-104593439D01*
X136220500Y-104566656D01*
X136220499Y-104107134D01*
X136220499Y-104104168D01*
X136217601Y-104073500D01*
X136214909Y-104065834D01*
X136177083Y-103958121D01*
X136177082Y-103958119D01*
X136173961Y-103949232D01*
X136163819Y-103935500D01*
X136101303Y-103850860D01*
X136095711Y-103843289D01*
X136088140Y-103837697D01*
X135997345Y-103770635D01*
X135997343Y-103770634D01*
X135989768Y-103765039D01*
X135980881Y-103761918D01*
X135980879Y-103761917D01*
X135872748Y-103723944D01*
X135872746Y-103723943D01*
X135865500Y-103721399D01*
X135857856Y-103720676D01*
X135857854Y-103720676D01*
X135849879Y-103719922D01*
X135834833Y-103718500D01*
X135532653Y-103718500D01*
X135230168Y-103718501D01*
X135227218Y-103718780D01*
X135227213Y-103718780D01*
X135207150Y-103720676D01*
X135207149Y-103720676D01*
X135199500Y-103721399D01*
X135192252Y-103723944D01*
X135192249Y-103723945D01*
X135084121Y-103761917D01*
X135084119Y-103761918D01*
X135075232Y-103765039D01*
X135067657Y-103770634D01*
X135067655Y-103770635D01*
X134976860Y-103837697D01*
X134969289Y-103843289D01*
X134963697Y-103850860D01*
X134901182Y-103935500D01*
X134891039Y-103949232D01*
X134887918Y-103958119D01*
X134887917Y-103958121D01*
X134850091Y-104065834D01*
X134847399Y-104073500D01*
X134846676Y-104081144D01*
X134846676Y-104081146D01*
X134845922Y-104089121D01*
X134844500Y-104104167D01*
X134844501Y-104683832D01*
X134847399Y-104714500D01*
X134849944Y-104721748D01*
X134849945Y-104721751D01*
X134873386Y-104788499D01*
X134891039Y-104838768D01*
X134969289Y-104944711D01*
X134976860Y-104950303D01*
X135067655Y-105017365D01*
X135067657Y-105017366D01*
X135075232Y-105022961D01*
X135084119Y-105026082D01*
X135084121Y-105026083D01*
X135192252Y-105064056D01*
X135192254Y-105064057D01*
X135199500Y-105066601D01*
X135207144Y-105067324D01*
X135207146Y-105067324D01*
X135215121Y-105068078D01*
X135230167Y-105069500D01*
X135257817Y-105069500D01*
X135692655Y-105069499D01*
X135760776Y-105089501D01*
X135781750Y-105106404D01*
X138334918Y-107659573D01*
X138342345Y-107667677D01*
X138366740Y-107696750D01*
X138393632Y-107712276D01*
X138399599Y-107715721D01*
X138408867Y-107721626D01*
X138430926Y-107737071D01*
X138430928Y-107737072D01*
X138439957Y-107743394D01*
X138450601Y-107746246D01*
X138453847Y-107747760D01*
X138457215Y-107748986D01*
X138466761Y-107754497D01*
X138501810Y-107760677D01*
X138504133Y-107761087D01*
X138514856Y-107763464D01*
X138551516Y-107773287D01*
X138562500Y-107772326D01*
X138562501Y-107772326D01*
X138589311Y-107769980D01*
X138600294Y-107769500D01*
X142688249Y-107769500D01*
X142756370Y-107789502D01*
X142788211Y-107818796D01*
X142822689Y-107863729D01*
X142822692Y-107863732D01*
X142827718Y-107870282D01*
X142834268Y-107875308D01*
X142834269Y-107875309D01*
X142877901Y-107908789D01*
X142953159Y-107966536D01*
X143099238Y-108027044D01*
X143256000Y-108047682D01*
X143264188Y-108046604D01*
X143404574Y-108028122D01*
X143412762Y-108027044D01*
X143420389Y-108023885D01*
X143420392Y-108023884D01*
X143516282Y-107984165D01*
X143586872Y-107976576D01*
X143650359Y-108008356D01*
X143686586Y-108069414D01*
X143690500Y-108100574D01*
X143690500Y-108420466D01*
X143670498Y-108488587D01*
X143614483Y-108535400D01*
X143605769Y-108537133D01*
X143539448Y-108581448D01*
X143495133Y-108647769D01*
X143492712Y-108659938D01*
X143492712Y-108659939D01*
X143488672Y-108680249D01*
X143483500Y-108706252D01*
X143483500Y-109195748D01*
X143495133Y-109254231D01*
X143539448Y-109320552D01*
X143605769Y-109364867D01*
X143617938Y-109367288D01*
X143617939Y-109367288D01*
X143658184Y-109375293D01*
X143664252Y-109376500D01*
X144326500Y-109376500D01*
X144394621Y-109396502D01*
X144441114Y-109450158D01*
X144452500Y-109502500D01*
X144452500Y-110546154D01*
X144432498Y-110614275D01*
X144415596Y-110635249D01*
X144163251Y-110887595D01*
X144100938Y-110921620D01*
X144074155Y-110924500D01*
X142767794Y-110924500D01*
X142756811Y-110924020D01*
X142730001Y-110921674D01*
X142730000Y-110921674D01*
X142719016Y-110920713D01*
X142682356Y-110930536D01*
X142671632Y-110932913D01*
X142634261Y-110939503D01*
X142624715Y-110945014D01*
X142621347Y-110946240D01*
X142618101Y-110947754D01*
X142607457Y-110950606D01*
X142598428Y-110956928D01*
X142598426Y-110956929D01*
X142576367Y-110972374D01*
X142567102Y-110978277D01*
X142534240Y-110997250D01*
X142527154Y-111005695D01*
X142509851Y-111026316D01*
X142502425Y-111034420D01*
X141641427Y-111895419D01*
X141633323Y-111902845D01*
X141604250Y-111927240D01*
X141598737Y-111936789D01*
X141585275Y-111960106D01*
X141579377Y-111969365D01*
X141557606Y-112000457D01*
X141554754Y-112011101D01*
X141553240Y-112014347D01*
X141552014Y-112017715D01*
X141546503Y-112027261D01*
X141544589Y-112038117D01*
X141539913Y-112064633D01*
X141537536Y-112075356D01*
X141527713Y-112112016D01*
X141528674Y-112122999D01*
X141531020Y-112149811D01*
X141531500Y-112160794D01*
X141531500Y-114725206D01*
X141531020Y-114736189D01*
X141527713Y-114773984D01*
X141530566Y-114784631D01*
X141537534Y-114810635D01*
X141539913Y-114821367D01*
X141546503Y-114858739D01*
X141552014Y-114868285D01*
X141553240Y-114871653D01*
X141554754Y-114874899D01*
X141557606Y-114885543D01*
X141579377Y-114916635D01*
X141585275Y-114925894D01*
X141604250Y-114958760D01*
X141626889Y-114977756D01*
X141633329Y-114983160D01*
X141641433Y-114990587D01*
X143542595Y-116891750D01*
X143576621Y-116954062D01*
X143579500Y-116980845D01*
X143579500Y-117938839D01*
X143559498Y-118006960D01*
X143501717Y-118055248D01*
X143490939Y-118059712D01*
X143478769Y-118062133D01*
X143412448Y-118106448D01*
X143368133Y-118172769D01*
X143356500Y-118231252D01*
X143356500Y-118720748D01*
X143368133Y-118779231D01*
X143412448Y-118845552D01*
X143478769Y-118889867D01*
X143490938Y-118892288D01*
X143490939Y-118892288D01*
X143517811Y-118897633D01*
X143537252Y-118901500D01*
X144276748Y-118901500D01*
X144296189Y-118897633D01*
X144323061Y-118892288D01*
X144323062Y-118892288D01*
X144335231Y-118889867D01*
X144401552Y-118845552D01*
X144445867Y-118779231D01*
X144457500Y-118720748D01*
X144457500Y-118231252D01*
X144445867Y-118172769D01*
X144401552Y-118106448D01*
X144335231Y-118062133D01*
X144323061Y-118059712D01*
X144312283Y-118055248D01*
X144257002Y-118010701D01*
X144234500Y-117938839D01*
X144234500Y-116812796D01*
X144234979Y-116801814D01*
X144236039Y-116789694D01*
X144238286Y-116764015D01*
X144235433Y-116753369D01*
X144235433Y-116753366D01*
X144228467Y-116727370D01*
X144226087Y-116716637D01*
X144220898Y-116687208D01*
X144228768Y-116616649D01*
X144273535Y-116561545D01*
X144340987Y-116539392D01*
X144409708Y-116557223D01*
X144434079Y-116576234D01*
X144796595Y-116938750D01*
X144830621Y-117001062D01*
X144833500Y-117027845D01*
X144833500Y-121137206D01*
X144833020Y-121148189D01*
X144829713Y-121185984D01*
X144832566Y-121196631D01*
X144839534Y-121222635D01*
X144841913Y-121233367D01*
X144848503Y-121270739D01*
X144854014Y-121280285D01*
X144855240Y-121283653D01*
X144856754Y-121286899D01*
X144859606Y-121297543D01*
X144881377Y-121328635D01*
X144887275Y-121337894D01*
X144906250Y-121370760D01*
X144914695Y-121377846D01*
X144935329Y-121395160D01*
X144943433Y-121402587D01*
X146682978Y-123142132D01*
X146717004Y-123204444D01*
X146711939Y-123275259D01*
X146669392Y-123332095D01*
X146610331Y-123356148D01*
X146528238Y-123366956D01*
X146382159Y-123427464D01*
X146375608Y-123432491D01*
X146266619Y-123516121D01*
X146256718Y-123523718D01*
X146251692Y-123530268D01*
X146251689Y-123530271D01*
X146217211Y-123575204D01*
X146159873Y-123617071D01*
X146117249Y-123624500D01*
X136304438Y-123624500D01*
X136236317Y-123604498D01*
X136189824Y-123550842D01*
X136185556Y-123540249D01*
X136177083Y-123516122D01*
X136173961Y-123507232D01*
X136156626Y-123483761D01*
X136101303Y-123408860D01*
X136095711Y-123401289D01*
X136053506Y-123370116D01*
X135997345Y-123328635D01*
X135997343Y-123328634D01*
X135989768Y-123323039D01*
X135980881Y-123319918D01*
X135980879Y-123319917D01*
X135872748Y-123281944D01*
X135872746Y-123281943D01*
X135865500Y-123279399D01*
X135857856Y-123278676D01*
X135857854Y-123278676D01*
X135849879Y-123277922D01*
X135834833Y-123276500D01*
X135532653Y-123276500D01*
X135230168Y-123276501D01*
X135227218Y-123276780D01*
X135227213Y-123276780D01*
X135207150Y-123278676D01*
X135207149Y-123278676D01*
X135199500Y-123279399D01*
X135192252Y-123281944D01*
X135192249Y-123281945D01*
X135084121Y-123319917D01*
X135084119Y-123319918D01*
X135075232Y-123323039D01*
X135067657Y-123328634D01*
X135067655Y-123328635D01*
X135011494Y-123370116D01*
X134969289Y-123401289D01*
X134963697Y-123408860D01*
X134908375Y-123483761D01*
X134891039Y-123507232D01*
X134887918Y-123516119D01*
X134887917Y-123516121D01*
X134849945Y-123624249D01*
X134847399Y-123631500D01*
X134846676Y-123639144D01*
X134846676Y-123639146D01*
X134846548Y-123640500D01*
X134844500Y-123662167D01*
X134844501Y-124241832D01*
X134847399Y-124272500D01*
X134849944Y-124279748D01*
X134849945Y-124279751D01*
X134887015Y-124385309D01*
X134891039Y-124396768D01*
X134896634Y-124404343D01*
X134896635Y-124404345D01*
X134913831Y-124427626D01*
X134969289Y-124502711D01*
X134976860Y-124508303D01*
X135067655Y-124575365D01*
X135067657Y-124575366D01*
X135075232Y-124580961D01*
X135084119Y-124584082D01*
X135084121Y-124584083D01*
X135192252Y-124622056D01*
X135192254Y-124622057D01*
X135199500Y-124624601D01*
X135207144Y-124625324D01*
X135207146Y-124625324D01*
X135215121Y-124626078D01*
X135230167Y-124627500D01*
X135532347Y-124627500D01*
X135834832Y-124627499D01*
X135837782Y-124627220D01*
X135837787Y-124627220D01*
X135857850Y-124625324D01*
X135857851Y-124625324D01*
X135865500Y-124624601D01*
X135872748Y-124622056D01*
X135872751Y-124622055D01*
X135980879Y-124584083D01*
X135980881Y-124584082D01*
X135989768Y-124580961D01*
X135997343Y-124575366D01*
X135997345Y-124575365D01*
X136088140Y-124508303D01*
X136095711Y-124502711D01*
X136151169Y-124427626D01*
X136168365Y-124404345D01*
X136168366Y-124404343D01*
X136173961Y-124396768D01*
X136182063Y-124373698D01*
X136185556Y-124363751D01*
X136226999Y-124306106D01*
X136293029Y-124280018D01*
X136304438Y-124279500D01*
X146117249Y-124279500D01*
X146185370Y-124299502D01*
X146217211Y-124328796D01*
X146251689Y-124373729D01*
X146251692Y-124373732D01*
X146256718Y-124380282D01*
X146263268Y-124385308D01*
X146263269Y-124385309D01*
X146290947Y-124406547D01*
X146382159Y-124476536D01*
X146528238Y-124537044D01*
X146685000Y-124557682D01*
X146693188Y-124556604D01*
X146833574Y-124538122D01*
X146841762Y-124537044D01*
X146987841Y-124476536D01*
X147113282Y-124380282D01*
X147209536Y-124254841D01*
X147270044Y-124108762D01*
X147280852Y-124026670D01*
X147309573Y-123961744D01*
X147368838Y-123922652D01*
X147439829Y-123921807D01*
X147494868Y-123954022D01*
X149509595Y-125968750D01*
X149543621Y-126031062D01*
X149546500Y-126057845D01*
X149546500Y-126337748D01*
X149558133Y-126396231D01*
X149602448Y-126462552D01*
X149668769Y-126506867D01*
X149680938Y-126509288D01*
X149680939Y-126509288D01*
X149721184Y-126517293D01*
X149727252Y-126518500D01*
X150216748Y-126518500D01*
X150222816Y-126517293D01*
X150263061Y-126509288D01*
X150263062Y-126509288D01*
X150275231Y-126506867D01*
X150341552Y-126462552D01*
X150385867Y-126396231D01*
X150397500Y-126337748D01*
X150397500Y-125598252D01*
X150385867Y-125539769D01*
X150341552Y-125473448D01*
X150275231Y-125429133D01*
X150263062Y-125426712D01*
X150263061Y-125426712D01*
X150222816Y-125418707D01*
X150216748Y-125417500D01*
X149936845Y-125417500D01*
X149868724Y-125397498D01*
X149847750Y-125380595D01*
X149228791Y-124761636D01*
X149194765Y-124699324D01*
X149199830Y-124628509D01*
X149242377Y-124571673D01*
X149301439Y-124547619D01*
X149373574Y-124538122D01*
X149381762Y-124537044D01*
X149527841Y-124476536D01*
X149619053Y-124406547D01*
X149646731Y-124385309D01*
X149646732Y-124385308D01*
X149653282Y-124380282D01*
X149658308Y-124373732D01*
X149658311Y-124373729D01*
X149692789Y-124328796D01*
X149750127Y-124286929D01*
X149792751Y-124279500D01*
X150081508Y-124279500D01*
X150149629Y-124299502D01*
X150196122Y-124353158D01*
X150205087Y-124380916D01*
X150208133Y-124396231D01*
X150252448Y-124462552D01*
X150262761Y-124469443D01*
X150306936Y-124498960D01*
X150318769Y-124506867D01*
X150330938Y-124509288D01*
X150330939Y-124509288D01*
X150356680Y-124514408D01*
X150377252Y-124518500D01*
X150866748Y-124518500D01*
X150887320Y-124514408D01*
X150913061Y-124509288D01*
X150913062Y-124509288D01*
X150925231Y-124506867D01*
X150937065Y-124498960D01*
X150981239Y-124469443D01*
X150991552Y-124462552D01*
X151035867Y-124396231D01*
X151038288Y-124384061D01*
X151042752Y-124373283D01*
X151087299Y-124318002D01*
X151159161Y-124295500D01*
X151845155Y-124295500D01*
X151913276Y-124315502D01*
X151934251Y-124332405D01*
X152222596Y-124620751D01*
X152256621Y-124683063D01*
X152259500Y-124709846D01*
X152259501Y-126573834D01*
X152262481Y-126605370D01*
X152307366Y-126733184D01*
X152387850Y-126842150D01*
X152496816Y-126922634D01*
X152505699Y-126925754D01*
X152505702Y-126925755D01*
X152598773Y-126958439D01*
X152624630Y-126967519D01*
X152632272Y-126968241D01*
X152632275Y-126968242D01*
X152642634Y-126969221D01*
X152656165Y-126970500D01*
X153159745Y-126970500D01*
X153663834Y-126970499D01*
X153666784Y-126970220D01*
X153666789Y-126970220D01*
X153687721Y-126968242D01*
X153687723Y-126968242D01*
X153695370Y-126967519D01*
X153753622Y-126947062D01*
X153814298Y-126925755D01*
X153814301Y-126925754D01*
X153823184Y-126922634D01*
X153932150Y-126842150D01*
X154012634Y-126733184D01*
X154057519Y-126605370D01*
X154060500Y-126573835D01*
X154060499Y-123616166D01*
X154059397Y-123604498D01*
X154058242Y-123592279D01*
X154058241Y-123592275D01*
X154057519Y-123584630D01*
X154027678Y-123499655D01*
X154015755Y-123465702D01*
X154015754Y-123465699D01*
X154012634Y-123456816D01*
X153932150Y-123347850D01*
X153823184Y-123267366D01*
X153814301Y-123264246D01*
X153814298Y-123264245D01*
X153702614Y-123225025D01*
X153702615Y-123225025D01*
X153695370Y-123222481D01*
X153687728Y-123221759D01*
X153687725Y-123221758D01*
X153677366Y-123220779D01*
X153663835Y-123219500D01*
X153160255Y-123219500D01*
X152656166Y-123219501D01*
X152653216Y-123219780D01*
X152653211Y-123219780D01*
X152632279Y-123221758D01*
X152632277Y-123221758D01*
X152624630Y-123222481D01*
X152589639Y-123234769D01*
X152505702Y-123264245D01*
X152505699Y-123264246D01*
X152496816Y-123267366D01*
X152387850Y-123347850D01*
X152307366Y-123456816D01*
X152304246Y-123465699D01*
X152304245Y-123465702D01*
X152267731Y-123569680D01*
X152226287Y-123627325D01*
X152160258Y-123653413D01*
X152126965Y-123652016D01*
X152109364Y-123648912D01*
X152098644Y-123646536D01*
X152061984Y-123636713D01*
X152051000Y-123637674D01*
X152050999Y-123637674D01*
X152024189Y-123640020D01*
X152013206Y-123640500D01*
X151159161Y-123640500D01*
X151091040Y-123620498D01*
X151042752Y-123562717D01*
X151038288Y-123551939D01*
X151035867Y-123539769D01*
X150991552Y-123473448D01*
X150925231Y-123429133D01*
X150913062Y-123426712D01*
X150913061Y-123426712D01*
X150872816Y-123418707D01*
X150866748Y-123417500D01*
X150377252Y-123417500D01*
X150371184Y-123418707D01*
X150330939Y-123426712D01*
X150330938Y-123426712D01*
X150318769Y-123429133D01*
X150252448Y-123473448D01*
X150208133Y-123539769D01*
X150206382Y-123548570D01*
X150163327Y-123601999D01*
X150091466Y-123624500D01*
X149792751Y-123624500D01*
X149724630Y-123604498D01*
X149692789Y-123575204D01*
X149658311Y-123530271D01*
X149658308Y-123530268D01*
X149653282Y-123523718D01*
X149643382Y-123516121D01*
X149534392Y-123432491D01*
X149527841Y-123427464D01*
X149381762Y-123366956D01*
X149225000Y-123346318D01*
X149068238Y-123366956D01*
X148922159Y-123427464D01*
X148796718Y-123523718D01*
X148791695Y-123530264D01*
X148775905Y-123550842D01*
X148700464Y-123649159D01*
X148639956Y-123795238D01*
X148638878Y-123803426D01*
X148629381Y-123875561D01*
X148600658Y-123940488D01*
X148541393Y-123979579D01*
X148470401Y-123980424D01*
X148415364Y-123948209D01*
X145525405Y-121058251D01*
X145491379Y-120995939D01*
X145488500Y-120969156D01*
X145488500Y-119677500D01*
X145508502Y-119609379D01*
X145562158Y-119562886D01*
X145614500Y-119551500D01*
X146276748Y-119551500D01*
X146282813Y-119550294D01*
X146282819Y-119550293D01*
X146306281Y-119545626D01*
X146376995Y-119551954D01*
X146419956Y-119580110D01*
X146960711Y-120120865D01*
X146994737Y-120183177D01*
X146989672Y-120253992D01*
X146946475Y-120311311D01*
X146850424Y-120382255D01*
X146850421Y-120382258D01*
X146842850Y-120387850D01*
X146762366Y-120496816D01*
X146717481Y-120624630D01*
X146714500Y-120656165D01*
X146714501Y-121663834D01*
X146717481Y-121695370D01*
X146762366Y-121823184D01*
X146842850Y-121932150D01*
X146951816Y-122012634D01*
X146960699Y-122015754D01*
X146960702Y-122015755D01*
X147053773Y-122048439D01*
X147079630Y-122057519D01*
X147087272Y-122058241D01*
X147087275Y-122058242D01*
X147097634Y-122059221D01*
X147111165Y-122060500D01*
X148589251Y-122060500D01*
X150068834Y-122060499D01*
X150071784Y-122060220D01*
X150071789Y-122060220D01*
X150092721Y-122058242D01*
X150092723Y-122058242D01*
X150100370Y-122057519D01*
X150158622Y-122037062D01*
X150219298Y-122015755D01*
X150219301Y-122015754D01*
X150228184Y-122012634D01*
X150337150Y-121932150D01*
X150417634Y-121823184D01*
X150462519Y-121695370D01*
X150465500Y-121663835D01*
X150465499Y-120656166D01*
X150462519Y-120624630D01*
X150417634Y-120496816D01*
X150337150Y-120387850D01*
X150228184Y-120307366D01*
X150219301Y-120304246D01*
X150219298Y-120304245D01*
X150107614Y-120265025D01*
X150107615Y-120265025D01*
X150100370Y-120262481D01*
X150092728Y-120261759D01*
X150092725Y-120261758D01*
X150082366Y-120260779D01*
X150068835Y-120259500D01*
X149959069Y-120259500D01*
X148077845Y-120259501D01*
X148009724Y-120239499D01*
X147988750Y-120222596D01*
X146674587Y-118908433D01*
X146667160Y-118900329D01*
X146658381Y-118889867D01*
X146642760Y-118871250D01*
X146609895Y-118852275D01*
X146600635Y-118846377D01*
X146569543Y-118824606D01*
X146558899Y-118821754D01*
X146555653Y-118820240D01*
X146552285Y-118819014D01*
X146542739Y-118813503D01*
X146505368Y-118806913D01*
X146494634Y-118804533D01*
X146461100Y-118795547D01*
X146406684Y-118764129D01*
X146401552Y-118756448D01*
X146335231Y-118712133D01*
X146326430Y-118710382D01*
X146273001Y-118667327D01*
X146250500Y-118595466D01*
X146250500Y-117915751D01*
X146270502Y-117847630D01*
X146299796Y-117815789D01*
X146344729Y-117781311D01*
X146344732Y-117781308D01*
X146351282Y-117776282D01*
X146447536Y-117650841D01*
X146508044Y-117504762D01*
X146528682Y-117348000D01*
X146508044Y-117191238D01*
X146447536Y-117045159D01*
X146351282Y-116919718D01*
X146341464Y-116912184D01*
X146265810Y-116854133D01*
X146225841Y-116823464D01*
X146079762Y-116762956D01*
X145923000Y-116742318D01*
X145766238Y-116762956D01*
X145758609Y-116766116D01*
X145643287Y-116813884D01*
X145572697Y-116821473D01*
X145509210Y-116789694D01*
X145476666Y-116740566D01*
X145475411Y-116737119D01*
X145473497Y-116726261D01*
X145467985Y-116716712D01*
X145466762Y-116713353D01*
X145465248Y-116710106D01*
X145462394Y-116699457D01*
X145440628Y-116668371D01*
X145434723Y-116659102D01*
X145421263Y-116635788D01*
X145421261Y-116635786D01*
X145415750Y-116626240D01*
X145386677Y-116601845D01*
X145378573Y-116594418D01*
X142985405Y-114201251D01*
X142951380Y-114138939D01*
X142948500Y-114112156D01*
X142948500Y-112582845D01*
X142968502Y-112514724D01*
X142985405Y-112493749D01*
X143354751Y-112124404D01*
X143417063Y-112090379D01*
X143443846Y-112087500D01*
X144423654Y-112087500D01*
X144491775Y-112107502D01*
X144538268Y-112161158D01*
X144548372Y-112231432D01*
X144518878Y-112296012D01*
X144512750Y-112302595D01*
X144243751Y-112571595D01*
X144181438Y-112605620D01*
X144154655Y-112608500D01*
X143719844Y-112608501D01*
X143692168Y-112608501D01*
X143689218Y-112608780D01*
X143689213Y-112608780D01*
X143669150Y-112610676D01*
X143669149Y-112610676D01*
X143661500Y-112611399D01*
X143654252Y-112613944D01*
X143654249Y-112613945D01*
X143546121Y-112651917D01*
X143546119Y-112651918D01*
X143537232Y-112655039D01*
X143529657Y-112660634D01*
X143529655Y-112660635D01*
X143438860Y-112727697D01*
X143431289Y-112733289D01*
X143425697Y-112740860D01*
X143367697Y-112819387D01*
X143353039Y-112839232D01*
X143349918Y-112848119D01*
X143349917Y-112848121D01*
X143318830Y-112936645D01*
X143309399Y-112963500D01*
X143306500Y-112994167D01*
X143306501Y-113573832D01*
X143309399Y-113604500D01*
X143353039Y-113728768D01*
X143431289Y-113834711D01*
X143438860Y-113840303D01*
X143529655Y-113907365D01*
X143529657Y-113907366D01*
X143537232Y-113912961D01*
X143546119Y-113916082D01*
X143546121Y-113916083D01*
X143654252Y-113954056D01*
X143654254Y-113954057D01*
X143661500Y-113956601D01*
X143669144Y-113957324D01*
X143669146Y-113957324D01*
X143677121Y-113958078D01*
X143692167Y-113959500D01*
X143994347Y-113959500D01*
X144296832Y-113959499D01*
X144299782Y-113959220D01*
X144299787Y-113959220D01*
X144319850Y-113957324D01*
X144319851Y-113957324D01*
X144327500Y-113956601D01*
X144334748Y-113954056D01*
X144334751Y-113954055D01*
X144442879Y-113916083D01*
X144442881Y-113916082D01*
X144451768Y-113912961D01*
X144459343Y-113907366D01*
X144459345Y-113907365D01*
X144550140Y-113840303D01*
X144557711Y-113834711D01*
X144635961Y-113728768D01*
X144679601Y-113604500D01*
X144682500Y-113573833D01*
X144682499Y-113111345D01*
X144702501Y-113043224D01*
X144719404Y-113022250D01*
X144935853Y-112805801D01*
X144998165Y-112771775D01*
X145068980Y-112776840D01*
X145125816Y-112819387D01*
X145150627Y-112885907D01*
X145143830Y-112936644D01*
X145134399Y-112963500D01*
X145131500Y-112994167D01*
X145131501Y-113573832D01*
X145134399Y-113604500D01*
X145178039Y-113728768D01*
X145256289Y-113834711D01*
X145263860Y-113840303D01*
X145354655Y-113907365D01*
X145354657Y-113907366D01*
X145362232Y-113912961D01*
X145371119Y-113916082D01*
X145371121Y-113916083D01*
X145479252Y-113954056D01*
X145479254Y-113954057D01*
X145486500Y-113956601D01*
X145494144Y-113957324D01*
X145494146Y-113957324D01*
X145502121Y-113958078D01*
X145517167Y-113959500D01*
X145819347Y-113959500D01*
X146121832Y-113959499D01*
X146124782Y-113959220D01*
X146124787Y-113959220D01*
X146144850Y-113957324D01*
X146144851Y-113957324D01*
X146152500Y-113956601D01*
X146159748Y-113954056D01*
X146159751Y-113954055D01*
X146267879Y-113916083D01*
X146267881Y-113916082D01*
X146276768Y-113912961D01*
X146284343Y-113907366D01*
X146284345Y-113907365D01*
X146375140Y-113840303D01*
X146382711Y-113834711D01*
X146460961Y-113728768D01*
X146504601Y-113604500D01*
X146507500Y-113573833D01*
X146507499Y-112994168D01*
X146507220Y-112991213D01*
X146507080Y-112988249D01*
X146508436Y-112988185D01*
X146520892Y-112923700D01*
X146543766Y-112892388D01*
X147744405Y-111691750D01*
X147806717Y-111657724D01*
X147877533Y-111662789D01*
X147934368Y-111705336D01*
X147959179Y-111771856D01*
X147959500Y-111780845D01*
X147959500Y-112082748D01*
X147960707Y-112088816D01*
X147965512Y-112112970D01*
X147971133Y-112141231D01*
X148015448Y-112207552D01*
X148081769Y-112251867D01*
X148093938Y-112254288D01*
X148093939Y-112254288D01*
X148132515Y-112261961D01*
X148140252Y-112263500D01*
X149079748Y-112263500D01*
X149087485Y-112261961D01*
X149126061Y-112254288D01*
X149126062Y-112254288D01*
X149138231Y-112251867D01*
X149148547Y-112244974D01*
X149160017Y-112240223D01*
X149161555Y-112243937D01*
X149207751Y-112229472D01*
X149258289Y-112244312D01*
X149259983Y-112240223D01*
X149271453Y-112244974D01*
X149281769Y-112251867D01*
X149293938Y-112254288D01*
X149293939Y-112254288D01*
X149332515Y-112261961D01*
X149340252Y-112263500D01*
X150290500Y-112263500D01*
X150358621Y-112283502D01*
X150405114Y-112337158D01*
X150416500Y-112389500D01*
X150416500Y-114099373D01*
X150396498Y-114167494D01*
X150342842Y-114213987D01*
X150272568Y-114224091D01*
X150233677Y-114211424D01*
X150228184Y-114207366D01*
X150219301Y-114204246D01*
X150219298Y-114204245D01*
X150107614Y-114165025D01*
X150107615Y-114165025D01*
X150100370Y-114162481D01*
X150092728Y-114161759D01*
X150092725Y-114161758D01*
X150082366Y-114160779D01*
X150068835Y-114159500D01*
X148590749Y-114159500D01*
X147111166Y-114159501D01*
X147108216Y-114159780D01*
X147108211Y-114159780D01*
X147087279Y-114161758D01*
X147087277Y-114161758D01*
X147079630Y-114162481D01*
X147021378Y-114182938D01*
X146960702Y-114204245D01*
X146960699Y-114204246D01*
X146951816Y-114207366D01*
X146842850Y-114287850D01*
X146762366Y-114396816D01*
X146717481Y-114524630D01*
X146714500Y-114556165D01*
X146714501Y-115563834D01*
X146717481Y-115595370D01*
X146762366Y-115723184D01*
X146842850Y-115832150D01*
X146951816Y-115912634D01*
X146960699Y-115915754D01*
X146960702Y-115915755D01*
X147029606Y-115939952D01*
X147079630Y-115957519D01*
X147087272Y-115958241D01*
X147087275Y-115958242D01*
X147097634Y-115959221D01*
X147111165Y-115960500D01*
X147207286Y-115960500D01*
X148848155Y-115960499D01*
X148916276Y-115980501D01*
X148937250Y-115997404D01*
X151775418Y-118835573D01*
X151782845Y-118843677D01*
X151807240Y-118872750D01*
X151840114Y-118891730D01*
X151849361Y-118897622D01*
X151880457Y-118919395D01*
X151891106Y-118922248D01*
X151894340Y-118923756D01*
X151897712Y-118924983D01*
X151907261Y-118930497D01*
X151944633Y-118937087D01*
X151955347Y-118939462D01*
X151992016Y-118949287D01*
X152003000Y-118948326D01*
X152013978Y-118949286D01*
X152013859Y-118950648D01*
X152072120Y-118962355D01*
X152123114Y-119011753D01*
X152139500Y-119073888D01*
X152139500Y-120212748D01*
X152151133Y-120271231D01*
X152195448Y-120337552D01*
X152205761Y-120344443D01*
X152242501Y-120368992D01*
X152261769Y-120381867D01*
X152273938Y-120384288D01*
X152273939Y-120384288D01*
X152314184Y-120392293D01*
X152320252Y-120393500D01*
X152859748Y-120393500D01*
X152865816Y-120392293D01*
X152906061Y-120384288D01*
X152906062Y-120384288D01*
X152918231Y-120381867D01*
X152937500Y-120368992D01*
X152984552Y-120337552D01*
X152987021Y-120341247D01*
X153028217Y-120318751D01*
X153099032Y-120323816D01*
X153123933Y-120339819D01*
X153125448Y-120337552D01*
X153172501Y-120368992D01*
X153191769Y-120381867D01*
X153203938Y-120384288D01*
X153203939Y-120384288D01*
X153244184Y-120392293D01*
X153250252Y-120393500D01*
X154481500Y-120393500D01*
X154549621Y-120413502D01*
X154596114Y-120467158D01*
X154607500Y-120519500D01*
X154607500Y-122810000D01*
X154607860Y-122813346D01*
X154607860Y-122813351D01*
X154609452Y-122828154D01*
X154612196Y-122853681D01*
X154623582Y-122906023D01*
X154626070Y-122916203D01*
X154669079Y-122996916D01*
X154673711Y-123002262D01*
X154673712Y-123002263D01*
X154685472Y-123015835D01*
X154715572Y-123050572D01*
X154733165Y-123068527D01*
X154812983Y-123113174D01*
X154833588Y-123119224D01*
X154876781Y-123131907D01*
X154876785Y-123131908D01*
X154881104Y-123133176D01*
X154885552Y-123133816D01*
X154885559Y-123133817D01*
X154934552Y-123140861D01*
X154934559Y-123140862D01*
X154939000Y-123141500D01*
X158391989Y-123141500D01*
X158460110Y-123161502D01*
X158506603Y-123215158D01*
X158516707Y-123285432D01*
X158488379Y-123347459D01*
X158487850Y-123347850D01*
X158407366Y-123456816D01*
X158404246Y-123465699D01*
X158404245Y-123465702D01*
X158383872Y-123523718D01*
X158362481Y-123584630D01*
X158361759Y-123592272D01*
X158361758Y-123592275D01*
X158361193Y-123598252D01*
X158359500Y-123616165D01*
X158359501Y-126573834D01*
X158362481Y-126605370D01*
X158407366Y-126733184D01*
X158487850Y-126842150D01*
X158596816Y-126922634D01*
X158605699Y-126925754D01*
X158605702Y-126925755D01*
X158698773Y-126958439D01*
X158724630Y-126967519D01*
X158732272Y-126968241D01*
X158732275Y-126968242D01*
X158742634Y-126969221D01*
X158756165Y-126970500D01*
X159259745Y-126970500D01*
X159763834Y-126970499D01*
X159766784Y-126970220D01*
X159766789Y-126970220D01*
X159787721Y-126968242D01*
X159787723Y-126968242D01*
X159795370Y-126967519D01*
X159853622Y-126947062D01*
X159914298Y-126925755D01*
X159914301Y-126925754D01*
X159923184Y-126922634D01*
X160032150Y-126842150D01*
X160112634Y-126733184D01*
X160157519Y-126605370D01*
X160160500Y-126573835D01*
X160160499Y-124709846D01*
X160180501Y-124641725D01*
X160197404Y-124620750D01*
X160442405Y-124375750D01*
X160504717Y-124341725D01*
X160575533Y-124346790D01*
X160632368Y-124389337D01*
X160657179Y-124455858D01*
X160657500Y-124464846D01*
X160657500Y-124662748D01*
X160669133Y-124721231D01*
X160713448Y-124787552D01*
X160779769Y-124831867D01*
X160791938Y-124834288D01*
X160791939Y-124834288D01*
X160832184Y-124842293D01*
X160838252Y-124843500D01*
X164027748Y-124843500D01*
X164033816Y-124842293D01*
X164074061Y-124834288D01*
X164074062Y-124834288D01*
X164086231Y-124831867D01*
X164152552Y-124787552D01*
X164196867Y-124721231D01*
X164208500Y-124662748D01*
X164208500Y-123293252D01*
X164207293Y-123287184D01*
X164206686Y-123281021D01*
X164209282Y-123280765D01*
X164214592Y-123221374D01*
X164258143Y-123165305D01*
X164331846Y-123141500D01*
X170943000Y-123141500D01*
X170946346Y-123141140D01*
X170946351Y-123141140D01*
X170983317Y-123137166D01*
X170983323Y-123137165D01*
X170986681Y-123136804D01*
X171039023Y-123125418D01*
X171039717Y-123125248D01*
X171039736Y-123125244D01*
X171040870Y-123124967D01*
X171049203Y-123122930D01*
X171129916Y-123079921D01*
X171143066Y-123068527D01*
X171182111Y-123034694D01*
X171182112Y-123034693D01*
X171183572Y-123033428D01*
X171201527Y-123015835D01*
X171246174Y-122936017D01*
X171256463Y-122900975D01*
X171264907Y-122872219D01*
X171264908Y-122872215D01*
X171266176Y-122867896D01*
X171267059Y-122861755D01*
X171273861Y-122814448D01*
X171273862Y-122814441D01*
X171274500Y-122810000D01*
X171274500Y-121433500D01*
X171294502Y-121365379D01*
X171348158Y-121318886D01*
X171400500Y-121307500D01*
X172414748Y-121307500D01*
X172420816Y-121306293D01*
X172461061Y-121298288D01*
X172461062Y-121298288D01*
X172473231Y-121295867D01*
X172539552Y-121251552D01*
X172546443Y-121241239D01*
X172555222Y-121232460D01*
X172558243Y-121235481D01*
X172594721Y-121204999D01*
X172665165Y-121196157D01*
X172729207Y-121226803D01*
X172734419Y-121232819D01*
X172734778Y-121232460D01*
X172743557Y-121241239D01*
X172750448Y-121251552D01*
X172816769Y-121295867D01*
X172828938Y-121298288D01*
X172828939Y-121298288D01*
X172869184Y-121306293D01*
X172875252Y-121307500D01*
X173514748Y-121307500D01*
X173520816Y-121306293D01*
X173561061Y-121298288D01*
X173561062Y-121298288D01*
X173573231Y-121295867D01*
X173639552Y-121251552D01*
X173683867Y-121185231D01*
X173695500Y-121126748D01*
X173695500Y-119960500D01*
X173715502Y-119892379D01*
X173769158Y-119845886D01*
X173821500Y-119834500D01*
X175832155Y-119834500D01*
X175900276Y-119854502D01*
X175921251Y-119871405D01*
X176606596Y-120556751D01*
X176640621Y-120619063D01*
X176643500Y-120645846D01*
X176643501Y-122509834D01*
X176646481Y-122541370D01*
X176649026Y-122548616D01*
X176688245Y-122660296D01*
X176691366Y-122669184D01*
X176771850Y-122778150D01*
X176880816Y-122858634D01*
X176889699Y-122861754D01*
X176889702Y-122861755D01*
X176982773Y-122894439D01*
X177008630Y-122903519D01*
X177016272Y-122904241D01*
X177016275Y-122904242D01*
X177026634Y-122905221D01*
X177040165Y-122906500D01*
X177543745Y-122906500D01*
X178047834Y-122906499D01*
X178050784Y-122906220D01*
X178050789Y-122906220D01*
X178071721Y-122904242D01*
X178071723Y-122904242D01*
X178079370Y-122903519D01*
X178137622Y-122883062D01*
X178198298Y-122861755D01*
X178198301Y-122861754D01*
X178207184Y-122858634D01*
X178316150Y-122778150D01*
X178396634Y-122669184D01*
X178399756Y-122660296D01*
X178438975Y-122548614D01*
X178441519Y-122541370D01*
X178444500Y-122509835D01*
X178444499Y-119552166D01*
X178443044Y-119536762D01*
X178442242Y-119528279D01*
X178442241Y-119528275D01*
X178441519Y-119520630D01*
X178414066Y-119442455D01*
X178399755Y-119401702D01*
X178399754Y-119401699D01*
X178396634Y-119392816D01*
X178316150Y-119283850D01*
X178207184Y-119203366D01*
X178198301Y-119200246D01*
X178198298Y-119200245D01*
X178086614Y-119161025D01*
X178086615Y-119161025D01*
X178079370Y-119158481D01*
X178071728Y-119157759D01*
X178071725Y-119157758D01*
X178061366Y-119156779D01*
X178047835Y-119155500D01*
X177997500Y-119155500D01*
X177929379Y-119135498D01*
X177882886Y-119081842D01*
X177871500Y-119029500D01*
X177871500Y-118841499D01*
X177891502Y-118773378D01*
X177945158Y-118726885D01*
X177997500Y-118715499D01*
X178047834Y-118715499D01*
X178050784Y-118715220D01*
X178050789Y-118715220D01*
X178071721Y-118713242D01*
X178071723Y-118713242D01*
X178079370Y-118712519D01*
X178137622Y-118692062D01*
X178198298Y-118670755D01*
X178198301Y-118670754D01*
X178207184Y-118667634D01*
X178316150Y-118587150D01*
X178396634Y-118478184D01*
X178441519Y-118350370D01*
X178444500Y-118318835D01*
X178444499Y-115361166D01*
X178441519Y-115329630D01*
X178396634Y-115201816D01*
X178316150Y-115092850D01*
X178207184Y-115012366D01*
X178198301Y-115009246D01*
X178198298Y-115009245D01*
X178086614Y-114970025D01*
X178086615Y-114970025D01*
X178079370Y-114967481D01*
X178071728Y-114966759D01*
X178071725Y-114966758D01*
X178061366Y-114965779D01*
X178047835Y-114964500D01*
X177544255Y-114964500D01*
X177040166Y-114964501D01*
X177037216Y-114964780D01*
X177037211Y-114964780D01*
X177016279Y-114966758D01*
X177016277Y-114966758D01*
X177008630Y-114967481D01*
X176963983Y-114983160D01*
X176889702Y-115009245D01*
X176889699Y-115009246D01*
X176880816Y-115012366D01*
X176771850Y-115092850D01*
X176691366Y-115201816D01*
X176646481Y-115329630D01*
X176643500Y-115361165D01*
X176643501Y-118318834D01*
X176646481Y-118350370D01*
X176691366Y-118478184D01*
X176771850Y-118587150D01*
X176880816Y-118667634D01*
X176889699Y-118670754D01*
X176889702Y-118670755D01*
X176974405Y-118700500D01*
X177008630Y-118712519D01*
X177016272Y-118713241D01*
X177016275Y-118713242D01*
X177026634Y-118714221D01*
X177040165Y-118715500D01*
X177090500Y-118715500D01*
X177158621Y-118735502D01*
X177205114Y-118789158D01*
X177216500Y-118841500D01*
X177216500Y-119029501D01*
X177196498Y-119097622D01*
X177142842Y-119144115D01*
X177090500Y-119155501D01*
X177040166Y-119155501D01*
X177037216Y-119155780D01*
X177037211Y-119155780D01*
X177016279Y-119157758D01*
X177016277Y-119157758D01*
X177008630Y-119158481D01*
X176956824Y-119176674D01*
X176889702Y-119200245D01*
X176889699Y-119200246D01*
X176880816Y-119203366D01*
X176771850Y-119283850D01*
X176691366Y-119392816D01*
X176688246Y-119401700D01*
X176688244Y-119401704D01*
X176673934Y-119442455D01*
X176632491Y-119500100D01*
X176566461Y-119526189D01*
X176496809Y-119512438D01*
X176465956Y-119489802D01*
X176265587Y-119289433D01*
X176258160Y-119281329D01*
X176240846Y-119260695D01*
X176233760Y-119252250D01*
X176200895Y-119233275D01*
X176191635Y-119227377D01*
X176160543Y-119205606D01*
X176149899Y-119202754D01*
X176146653Y-119201240D01*
X176143285Y-119200014D01*
X176133739Y-119194503D01*
X176096368Y-119187913D01*
X176085644Y-119185536D01*
X176048984Y-119175713D01*
X176038000Y-119176674D01*
X176037999Y-119176674D01*
X176011189Y-119179020D01*
X176000206Y-119179500D01*
X173821500Y-119179500D01*
X173753379Y-119159498D01*
X173706886Y-119105842D01*
X173695500Y-119053500D01*
X173695500Y-117887252D01*
X173683867Y-117828769D01*
X173639552Y-117762448D01*
X173573231Y-117718133D01*
X173561062Y-117715712D01*
X173561061Y-117715712D01*
X173520816Y-117707707D01*
X173514748Y-117706500D01*
X172875252Y-117706500D01*
X172869184Y-117707707D01*
X172828939Y-117715712D01*
X172828938Y-117715712D01*
X172816769Y-117718133D01*
X172750448Y-117762448D01*
X172743557Y-117772761D01*
X172734778Y-117781540D01*
X172731757Y-117778519D01*
X172695279Y-117809001D01*
X172624835Y-117817843D01*
X172560793Y-117787197D01*
X172555581Y-117781181D01*
X172555222Y-117781540D01*
X172546443Y-117772761D01*
X172539552Y-117762448D01*
X172473231Y-117718133D01*
X172461062Y-117715712D01*
X172461061Y-117715712D01*
X172420816Y-117707707D01*
X172414748Y-117706500D01*
X171400500Y-117706500D01*
X171332379Y-117686498D01*
X171285886Y-117632842D01*
X171274500Y-117580500D01*
X171274500Y-116917500D01*
X171294502Y-116849379D01*
X171348158Y-116802886D01*
X171400500Y-116791500D01*
X175388000Y-116791500D01*
X175391346Y-116791140D01*
X175391351Y-116791140D01*
X175428317Y-116787166D01*
X175428323Y-116787165D01*
X175431681Y-116786804D01*
X175441717Y-116784621D01*
X175448047Y-116783244D01*
X175484023Y-116775418D01*
X175484717Y-116775248D01*
X175484736Y-116775244D01*
X175485870Y-116774967D01*
X175494203Y-116772930D01*
X175574916Y-116729921D01*
X175593766Y-116713588D01*
X175627111Y-116684694D01*
X175627112Y-116684693D01*
X175628572Y-116683428D01*
X175646527Y-116665835D01*
X175691174Y-116586017D01*
X175711176Y-116517896D01*
X175711817Y-116513441D01*
X175718861Y-116464448D01*
X175718862Y-116464441D01*
X175719500Y-116460000D01*
X175719500Y-112008500D01*
X175739502Y-111940379D01*
X175793158Y-111893886D01*
X175845500Y-111882500D01*
X176795748Y-111882500D01*
X176801816Y-111881293D01*
X176842061Y-111873288D01*
X176842062Y-111873288D01*
X176854231Y-111870867D01*
X176864547Y-111863974D01*
X176876017Y-111859223D01*
X176877555Y-111862937D01*
X176923751Y-111848472D01*
X176974289Y-111863312D01*
X176975983Y-111859223D01*
X176987453Y-111863974D01*
X176997769Y-111870867D01*
X177009938Y-111873288D01*
X177009939Y-111873288D01*
X177050184Y-111881293D01*
X177056252Y-111882500D01*
X177995748Y-111882500D01*
X178001816Y-111881293D01*
X178042061Y-111873288D01*
X178042062Y-111873288D01*
X178054231Y-111870867D01*
X178120552Y-111826552D01*
X178164867Y-111760231D01*
X178176500Y-111701748D01*
X178176500Y-110435500D01*
X178196502Y-110367379D01*
X178250158Y-110320886D01*
X178302500Y-110309500D01*
X178350656Y-110309500D01*
X178418777Y-110329502D01*
X178439751Y-110346405D01*
X179464595Y-111371250D01*
X179498621Y-111433562D01*
X179501500Y-111460345D01*
X179501501Y-111922832D01*
X179501780Y-111925781D01*
X179501780Y-111925787D01*
X179502820Y-111936789D01*
X179504399Y-111953500D01*
X179506944Y-111960748D01*
X179506945Y-111960751D01*
X179542575Y-112062208D01*
X179548039Y-112077768D01*
X179553634Y-112085343D01*
X179553635Y-112085345D01*
X179603335Y-112152634D01*
X179626289Y-112183711D01*
X179633860Y-112189303D01*
X179724655Y-112256365D01*
X179724657Y-112256366D01*
X179732232Y-112261961D01*
X179741119Y-112265082D01*
X179741121Y-112265083D01*
X179849252Y-112303056D01*
X179849254Y-112303057D01*
X179856500Y-112305601D01*
X179864144Y-112306324D01*
X179864146Y-112306324D01*
X179872121Y-112307078D01*
X179887167Y-112308500D01*
X180189347Y-112308500D01*
X180491832Y-112308499D01*
X180494782Y-112308220D01*
X180494787Y-112308220D01*
X180514850Y-112306324D01*
X180514851Y-112306324D01*
X180522500Y-112305601D01*
X180529748Y-112303056D01*
X180529751Y-112303055D01*
X180637879Y-112265083D01*
X180637881Y-112265082D01*
X180646768Y-112261961D01*
X180654343Y-112256366D01*
X180654345Y-112256365D01*
X180745140Y-112189303D01*
X180752711Y-112183711D01*
X180775665Y-112152634D01*
X180825365Y-112085345D01*
X180825366Y-112085343D01*
X180830961Y-112077768D01*
X180836426Y-112062208D01*
X180872056Y-111960748D01*
X180872057Y-111960746D01*
X180874601Y-111953500D01*
X180877500Y-111922833D01*
X180877499Y-111343168D01*
X180874601Y-111312500D01*
X180865170Y-111285644D01*
X180861472Y-111214746D01*
X180896692Y-111153101D01*
X180959649Y-111120284D01*
X181030353Y-111126713D01*
X181073148Y-111154803D01*
X181289595Y-111371250D01*
X181323621Y-111433562D01*
X181326500Y-111460345D01*
X181326501Y-111922832D01*
X181326780Y-111925781D01*
X181326780Y-111925787D01*
X181327820Y-111936789D01*
X181329399Y-111953500D01*
X181331944Y-111960748D01*
X181331945Y-111960751D01*
X181367575Y-112062208D01*
X181373039Y-112077768D01*
X181378634Y-112085343D01*
X181378635Y-112085345D01*
X181428335Y-112152634D01*
X181451289Y-112183711D01*
X181458860Y-112189303D01*
X181549655Y-112256365D01*
X181549657Y-112256366D01*
X181557232Y-112261961D01*
X181566119Y-112265082D01*
X181566121Y-112265083D01*
X181674252Y-112303056D01*
X181674254Y-112303057D01*
X181681500Y-112305601D01*
X181689144Y-112306324D01*
X181689146Y-112306324D01*
X181697121Y-112307078D01*
X181712167Y-112308500D01*
X182014347Y-112308500D01*
X182316832Y-112308499D01*
X182319782Y-112308220D01*
X182319787Y-112308220D01*
X182339850Y-112306324D01*
X182339851Y-112306324D01*
X182347500Y-112305601D01*
X182354748Y-112303056D01*
X182354751Y-112303055D01*
X182462879Y-112265083D01*
X182462881Y-112265082D01*
X182471768Y-112261961D01*
X182479343Y-112256366D01*
X182479345Y-112256365D01*
X182570140Y-112189303D01*
X182577711Y-112183711D01*
X182600665Y-112152634D01*
X182650365Y-112085345D01*
X182650366Y-112085343D01*
X182655961Y-112077768D01*
X182661426Y-112062208D01*
X182697056Y-111960748D01*
X182697057Y-111960746D01*
X182699601Y-111953500D01*
X182702500Y-111922833D01*
X182702499Y-111343168D01*
X182699601Y-111312500D01*
X182693354Y-111294711D01*
X182659083Y-111197121D01*
X182659082Y-111197119D01*
X182655961Y-111188232D01*
X182649792Y-111179879D01*
X182583303Y-111089860D01*
X182577711Y-111082289D01*
X182563444Y-111071751D01*
X182479345Y-111009635D01*
X182479343Y-111009634D01*
X182471768Y-111004039D01*
X182462881Y-111000918D01*
X182462879Y-111000917D01*
X182354748Y-110962944D01*
X182354746Y-110962943D01*
X182347500Y-110960399D01*
X182339856Y-110959676D01*
X182339854Y-110959676D01*
X182331879Y-110958922D01*
X182316833Y-110957500D01*
X182289183Y-110957500D01*
X181854346Y-110957501D01*
X181786225Y-110937499D01*
X181765251Y-110920596D01*
X180466405Y-109621751D01*
X180432380Y-109559439D01*
X180429500Y-109532656D01*
X180429500Y-109503161D01*
X180449502Y-109435040D01*
X180507283Y-109386752D01*
X180518061Y-109382288D01*
X180530231Y-109379867D01*
X180549057Y-109367288D01*
X180586239Y-109342443D01*
X180596552Y-109335552D01*
X180640867Y-109269231D01*
X180643348Y-109256761D01*
X180651293Y-109216816D01*
X180652500Y-109210748D01*
X180652500Y-108721252D01*
X180644960Y-108683346D01*
X180643288Y-108674939D01*
X180643288Y-108674938D01*
X180640867Y-108662769D01*
X180596552Y-108596448D01*
X180530231Y-108552133D01*
X180518062Y-108549712D01*
X180518061Y-108549712D01*
X180477816Y-108541707D01*
X180471748Y-108540500D01*
X179732252Y-108540500D01*
X179726184Y-108541707D01*
X179685939Y-108549712D01*
X179685938Y-108549712D01*
X179673769Y-108552133D01*
X179607448Y-108596448D01*
X179563133Y-108662769D01*
X179560712Y-108674938D01*
X179560712Y-108674939D01*
X179559040Y-108683346D01*
X179551500Y-108721252D01*
X179551500Y-109210748D01*
X179552707Y-109216816D01*
X179560653Y-109256761D01*
X179563133Y-109269231D01*
X179607448Y-109335552D01*
X179617761Y-109342443D01*
X179654944Y-109367288D01*
X179673769Y-109379867D01*
X179685939Y-109382288D01*
X179696717Y-109386752D01*
X179751998Y-109431299D01*
X179774500Y-109503161D01*
X179774500Y-109700706D01*
X179774020Y-109711689D01*
X179771920Y-109735695D01*
X179770713Y-109749484D01*
X179773675Y-109760536D01*
X179780534Y-109786135D01*
X179782913Y-109796867D01*
X179789503Y-109834239D01*
X179795014Y-109843785D01*
X179796240Y-109847153D01*
X179797754Y-109850399D01*
X179800606Y-109861043D01*
X179822377Y-109892135D01*
X179828275Y-109901394D01*
X179847250Y-109934260D01*
X179855695Y-109941346D01*
X179876329Y-109958660D01*
X179884433Y-109966087D01*
X180680199Y-110761853D01*
X180714224Y-110824164D01*
X180709159Y-110894979D01*
X180666612Y-110951815D01*
X180600092Y-110976626D01*
X180549356Y-110969830D01*
X180529747Y-110962944D01*
X180522500Y-110960399D01*
X180514856Y-110959676D01*
X180514854Y-110959676D01*
X180506879Y-110958922D01*
X180491833Y-110957500D01*
X180464183Y-110957500D01*
X180029346Y-110957501D01*
X179961225Y-110937499D01*
X179940251Y-110920596D01*
X178784087Y-109764433D01*
X178776660Y-109756329D01*
X178759346Y-109735695D01*
X178752260Y-109727250D01*
X178719395Y-109708275D01*
X178710135Y-109702377D01*
X178679043Y-109680606D01*
X178668399Y-109677754D01*
X178665153Y-109676240D01*
X178661785Y-109675014D01*
X178652239Y-109669503D01*
X178614868Y-109662913D01*
X178604144Y-109660536D01*
X178567484Y-109650713D01*
X178556500Y-109651674D01*
X178556499Y-109651674D01*
X178529689Y-109654020D01*
X178518706Y-109654500D01*
X178302500Y-109654500D01*
X178234379Y-109634498D01*
X178187886Y-109580842D01*
X178176500Y-109528500D01*
X178176500Y-108262252D01*
X178164867Y-108203769D01*
X178120552Y-108137448D01*
X178054231Y-108093133D01*
X178042062Y-108090712D01*
X178042061Y-108090712D01*
X178001816Y-108082707D01*
X177995748Y-108081500D01*
X177056252Y-108081500D01*
X177050184Y-108082707D01*
X177009939Y-108090712D01*
X177009938Y-108090712D01*
X176997769Y-108093133D01*
X176987453Y-108100026D01*
X176975983Y-108104777D01*
X176974445Y-108101063D01*
X176928249Y-108115528D01*
X176877711Y-108100688D01*
X176876017Y-108104777D01*
X176864547Y-108100026D01*
X176854231Y-108093133D01*
X176842062Y-108090712D01*
X176842061Y-108090712D01*
X176801816Y-108082707D01*
X176795748Y-108081500D01*
X175845500Y-108081500D01*
X175777379Y-108061498D01*
X175730886Y-108007842D01*
X175719500Y-107955500D01*
X175719500Y-104756011D01*
X175739502Y-104687890D01*
X175793158Y-104641397D01*
X175863432Y-104631293D01*
X175925459Y-104659621D01*
X175925850Y-104660150D01*
X176034816Y-104740634D01*
X176043699Y-104743754D01*
X176043702Y-104743755D01*
X176078603Y-104756011D01*
X176162630Y-104785519D01*
X176170272Y-104786241D01*
X176170275Y-104786242D01*
X176180634Y-104787221D01*
X176194165Y-104788500D01*
X177672251Y-104788500D01*
X179151834Y-104788499D01*
X179154784Y-104788220D01*
X179154789Y-104788220D01*
X179175721Y-104786242D01*
X179175723Y-104786242D01*
X179183370Y-104785519D01*
X179267397Y-104756011D01*
X179302298Y-104743755D01*
X179302301Y-104743754D01*
X179311184Y-104740634D01*
X179420150Y-104660150D01*
X179500634Y-104551184D01*
X179545519Y-104423370D01*
X179548500Y-104391835D01*
X179548499Y-103384166D01*
X179545519Y-103352630D01*
X179517302Y-103272279D01*
X179503755Y-103233702D01*
X179503754Y-103233699D01*
X179500634Y-103224816D01*
X179420150Y-103115850D01*
X179311184Y-103035366D01*
X179302301Y-103032246D01*
X179302298Y-103032245D01*
X179190614Y-102993025D01*
X179190615Y-102993025D01*
X179183370Y-102990481D01*
X179175728Y-102989759D01*
X179175725Y-102989758D01*
X179165366Y-102988779D01*
X179151835Y-102987500D01*
X178578845Y-102987500D01*
X178510724Y-102967498D01*
X178464231Y-102913842D01*
X178454127Y-102843568D01*
X178483621Y-102778988D01*
X178489750Y-102772404D01*
X178649655Y-102612500D01*
X178932751Y-102329404D01*
X178995063Y-102295379D01*
X179021846Y-102292500D01*
X181199839Y-102292500D01*
X181267960Y-102312502D01*
X181316248Y-102370283D01*
X181320712Y-102381061D01*
X181323133Y-102393231D01*
X181367448Y-102459552D01*
X181433769Y-102503867D01*
X181445938Y-102506288D01*
X181445939Y-102506288D01*
X181486184Y-102514293D01*
X181492252Y-102515500D01*
X181981748Y-102515500D01*
X181987816Y-102514293D01*
X182028061Y-102506288D01*
X182028062Y-102506288D01*
X182040231Y-102503867D01*
X182106552Y-102459552D01*
X182150867Y-102393231D01*
X182154584Y-102374547D01*
X182161293Y-102340816D01*
X182162500Y-102334748D01*
X182162500Y-101595252D01*
X182155432Y-101559717D01*
X182153288Y-101548939D01*
X182153288Y-101548938D01*
X182150867Y-101536769D01*
X182106552Y-101470448D01*
X182040231Y-101426133D01*
X182028062Y-101423712D01*
X182028061Y-101423712D01*
X181987816Y-101415707D01*
X181981748Y-101414500D01*
X181492252Y-101414500D01*
X181486184Y-101415707D01*
X181445939Y-101423712D01*
X181445938Y-101423712D01*
X181433769Y-101426133D01*
X181367448Y-101470448D01*
X181323133Y-101536769D01*
X181320712Y-101548939D01*
X181316248Y-101559717D01*
X181271701Y-101614998D01*
X181199839Y-101637500D01*
X178853809Y-101637500D01*
X178842827Y-101637021D01*
X178815993Y-101634673D01*
X178815991Y-101634673D01*
X178805016Y-101633713D01*
X178768347Y-101643538D01*
X178757633Y-101645913D01*
X178720261Y-101652503D01*
X178710712Y-101658017D01*
X178707340Y-101659244D01*
X178704106Y-101660752D01*
X178693457Y-101663605D01*
X178662361Y-101685378D01*
X178653114Y-101691270D01*
X178620240Y-101710250D01*
X178613155Y-101718694D01*
X178595845Y-101739323D01*
X178588418Y-101747427D01*
X177971615Y-102364231D01*
X177385250Y-102950596D01*
X177322938Y-102984621D01*
X177296155Y-102987501D01*
X176194166Y-102987501D01*
X176191216Y-102987780D01*
X176191211Y-102987780D01*
X176170279Y-102989758D01*
X176170277Y-102989758D01*
X176162630Y-102990481D01*
X176113122Y-103007867D01*
X176043702Y-103032245D01*
X176043699Y-103032246D01*
X176034816Y-103035366D01*
X175925850Y-103115850D01*
X175921550Y-103121671D01*
X175860246Y-103155147D01*
X175789431Y-103150082D01*
X175732595Y-103107535D01*
X175710342Y-103058807D01*
X175703582Y-103027727D01*
X175703567Y-103027664D01*
X175703418Y-103026977D01*
X175700930Y-103016797D01*
X175657921Y-102936084D01*
X175631748Y-102905878D01*
X175612694Y-102883889D01*
X175612693Y-102883888D01*
X175611428Y-102882428D01*
X175593835Y-102864473D01*
X175514017Y-102819826D01*
X175480552Y-102810000D01*
X175450219Y-102801093D01*
X175450215Y-102801092D01*
X175445896Y-102799824D01*
X175441448Y-102799184D01*
X175441441Y-102799183D01*
X175392448Y-102792139D01*
X175392441Y-102792138D01*
X175388000Y-102791500D01*
X171527500Y-102791500D01*
X171459379Y-102771498D01*
X171412886Y-102717842D01*
X171401500Y-102665500D01*
X171401500Y-102612500D01*
X171421502Y-102544379D01*
X171475158Y-102497886D01*
X171527500Y-102486500D01*
X172631748Y-102486500D01*
X172637816Y-102485293D01*
X172678061Y-102477288D01*
X172678062Y-102477288D01*
X172690231Y-102474867D01*
X172756552Y-102430552D01*
X172759021Y-102434247D01*
X172800217Y-102411751D01*
X172871032Y-102416816D01*
X172895933Y-102432819D01*
X172897448Y-102430552D01*
X172963769Y-102474867D01*
X172975938Y-102477288D01*
X172975939Y-102477288D01*
X173016184Y-102485293D01*
X173022252Y-102486500D01*
X173561748Y-102486500D01*
X173567816Y-102485293D01*
X173608061Y-102477288D01*
X173608062Y-102477288D01*
X173620231Y-102474867D01*
X173686552Y-102430552D01*
X173730867Y-102364231D01*
X173742500Y-102305748D01*
X173742500Y-101164500D01*
X173762502Y-101096379D01*
X173816158Y-101049886D01*
X173868500Y-101038500D01*
X173968206Y-101038500D01*
X173979189Y-101038980D01*
X174005999Y-101041326D01*
X174006000Y-101041326D01*
X174016984Y-101042287D01*
X174053644Y-101032464D01*
X174064367Y-101030087D01*
X174066690Y-101029677D01*
X174101739Y-101023497D01*
X174111285Y-101017986D01*
X174114653Y-101016760D01*
X174117899Y-101015246D01*
X174128543Y-101012394D01*
X174159635Y-100990623D01*
X174168894Y-100984725D01*
X174192211Y-100971263D01*
X174201760Y-100965750D01*
X174226160Y-100936671D01*
X174233587Y-100928567D01*
X176436750Y-98725405D01*
X176499062Y-98691379D01*
X176525845Y-98688500D01*
X179007816Y-98688499D01*
X179151834Y-98688499D01*
X179154784Y-98688220D01*
X179154789Y-98688220D01*
X179175721Y-98686242D01*
X179175723Y-98686242D01*
X179183370Y-98685519D01*
X179241622Y-98665062D01*
X179302298Y-98643755D01*
X179302301Y-98643754D01*
X179311184Y-98640634D01*
X179420150Y-98560150D01*
X179500634Y-98451184D01*
X179506494Y-98434499D01*
X179542975Y-98330614D01*
X179545519Y-98323370D01*
X179548500Y-98291835D01*
X179548499Y-97284166D01*
X179548220Y-97281217D01*
X179548220Y-97281207D01*
X179546931Y-97267569D01*
X179560436Y-97197869D01*
X179609480Y-97146535D01*
X179678492Y-97129866D01*
X179745561Y-97153153D01*
X179761467Y-97166622D01*
X181963492Y-99368647D01*
X181997518Y-99430959D01*
X181992453Y-99501774D01*
X181980884Y-99524382D01*
X181980026Y-99526453D01*
X181973133Y-99536769D01*
X181970712Y-99548938D01*
X181970712Y-99548939D01*
X181966166Y-99571793D01*
X181961500Y-99595252D01*
X181961500Y-100334748D01*
X181973133Y-100393231D01*
X182017448Y-100459552D01*
X182083769Y-100503867D01*
X182095938Y-100506288D01*
X182095939Y-100506288D01*
X182118588Y-100510793D01*
X182142252Y-100515500D01*
X182485500Y-100515500D01*
X182553621Y-100535502D01*
X182600114Y-100589158D01*
X182611500Y-100641500D01*
X182611500Y-108591154D01*
X182591498Y-108659275D01*
X182574596Y-108680249D01*
X182101251Y-109153595D01*
X182038938Y-109187620D01*
X182012155Y-109190500D01*
X181732252Y-109190500D01*
X181726184Y-109191707D01*
X181685939Y-109199712D01*
X181685938Y-109199712D01*
X181673769Y-109202133D01*
X181607448Y-109246448D01*
X181563133Y-109312769D01*
X181560712Y-109324938D01*
X181560712Y-109324939D01*
X181560214Y-109327443D01*
X181551500Y-109371252D01*
X181551500Y-109860748D01*
X181552707Y-109866816D01*
X181557729Y-109892061D01*
X181563133Y-109919231D01*
X181607448Y-109985552D01*
X181673769Y-110029867D01*
X181685938Y-110032288D01*
X181685939Y-110032288D01*
X181726184Y-110040293D01*
X181732252Y-110041500D01*
X182471748Y-110041500D01*
X182477816Y-110040293D01*
X182518061Y-110032288D01*
X182518062Y-110032288D01*
X182530231Y-110029867D01*
X182596552Y-109985552D01*
X182640867Y-109919231D01*
X182646272Y-109892061D01*
X182651293Y-109866816D01*
X182652500Y-109860748D01*
X182652500Y-109580844D01*
X182672502Y-109512723D01*
X182689405Y-109491749D01*
X183156576Y-109024578D01*
X183164682Y-109017150D01*
X183185305Y-108999846D01*
X183193750Y-108992760D01*
X183212730Y-108959886D01*
X183218622Y-108950639D01*
X183240395Y-108919543D01*
X183243248Y-108908894D01*
X183244756Y-108905660D01*
X183245983Y-108902288D01*
X183251497Y-108892739D01*
X183258087Y-108855367D01*
X183260462Y-108844653D01*
X183270287Y-108807984D01*
X183266980Y-108770189D01*
X183266500Y-108759206D01*
X183266500Y-99571793D01*
X183286502Y-99503672D01*
X183340158Y-99457179D01*
X183410432Y-99447075D01*
X183475012Y-99476569D01*
X183481595Y-99482698D01*
X184420595Y-100421698D01*
X184454621Y-100484010D01*
X184457500Y-100510793D01*
X184457500Y-114887361D01*
X184437498Y-114955482D01*
X184383842Y-115001975D01*
X184313568Y-115012079D01*
X184289751Y-115006244D01*
X184186614Y-114970025D01*
X184186615Y-114970025D01*
X184179370Y-114967481D01*
X184171728Y-114966759D01*
X184171725Y-114966758D01*
X184161366Y-114965779D01*
X184147835Y-114964500D01*
X183644255Y-114964500D01*
X183140166Y-114964501D01*
X183137216Y-114964780D01*
X183137211Y-114964780D01*
X183116279Y-114966758D01*
X183116277Y-114966758D01*
X183108630Y-114967481D01*
X183063983Y-114983160D01*
X182989702Y-115009245D01*
X182989699Y-115009246D01*
X182980816Y-115012366D01*
X182871850Y-115092850D01*
X182791366Y-115201816D01*
X182746481Y-115329630D01*
X182743500Y-115361165D01*
X182743501Y-118318834D01*
X182746481Y-118350370D01*
X182791366Y-118478184D01*
X182871850Y-118587150D01*
X182980816Y-118667634D01*
X182989699Y-118670754D01*
X182989702Y-118670755D01*
X183074405Y-118700500D01*
X183108630Y-118712519D01*
X183116272Y-118713241D01*
X183116275Y-118713242D01*
X183126634Y-118714221D01*
X183140165Y-118715500D01*
X183190500Y-118715500D01*
X183258621Y-118735502D01*
X183305114Y-118789158D01*
X183316500Y-118841500D01*
X183316500Y-119029501D01*
X183296498Y-119097622D01*
X183242842Y-119144115D01*
X183190500Y-119155501D01*
X183140166Y-119155501D01*
X183137216Y-119155780D01*
X183137211Y-119155780D01*
X183116279Y-119157758D01*
X183116277Y-119157758D01*
X183108630Y-119158481D01*
X183056824Y-119176674D01*
X182989702Y-119200245D01*
X182989699Y-119200246D01*
X182980816Y-119203366D01*
X182871850Y-119283850D01*
X182791366Y-119392816D01*
X182788246Y-119401699D01*
X182788245Y-119401702D01*
X182773934Y-119442455D01*
X182746481Y-119520630D01*
X182743500Y-119552165D01*
X182743501Y-120505702D01*
X182743501Y-121416155D01*
X182723499Y-121484276D01*
X182706596Y-121505250D01*
X181408433Y-122803413D01*
X181400329Y-122810840D01*
X181371250Y-122835240D01*
X181365737Y-122844789D01*
X181352275Y-122868106D01*
X181346377Y-122877365D01*
X181324606Y-122908457D01*
X181321754Y-122919101D01*
X181320240Y-122922347D01*
X181319014Y-122925715D01*
X181313503Y-122935261D01*
X181311589Y-122946117D01*
X181306913Y-122972633D01*
X181304536Y-122983356D01*
X181294713Y-123020016D01*
X181295674Y-123030999D01*
X181298020Y-123057811D01*
X181298500Y-123068794D01*
X181298500Y-124430839D01*
X181278498Y-124498960D01*
X181220717Y-124547248D01*
X181209939Y-124551712D01*
X181197769Y-124554133D01*
X181131448Y-124598448D01*
X181124557Y-124608761D01*
X181107977Y-124633575D01*
X181087133Y-124664769D01*
X181084712Y-124676938D01*
X181084712Y-124676939D01*
X181078323Y-124709061D01*
X181075500Y-124723252D01*
X181075500Y-125212748D01*
X181076707Y-125218816D01*
X181084653Y-125258761D01*
X181087133Y-125271231D01*
X181131448Y-125337552D01*
X181197769Y-125381867D01*
X181209938Y-125384288D01*
X181209939Y-125384288D01*
X181250184Y-125392293D01*
X181256252Y-125393500D01*
X181995748Y-125393500D01*
X182001816Y-125392293D01*
X182042061Y-125384288D01*
X182042062Y-125384288D01*
X182054231Y-125381867D01*
X182120552Y-125337552D01*
X182164867Y-125271231D01*
X182167348Y-125258761D01*
X182175293Y-125218816D01*
X182176500Y-125212748D01*
X182176500Y-124723252D01*
X182173677Y-124709061D01*
X182167288Y-124676939D01*
X182167288Y-124676938D01*
X182164867Y-124664769D01*
X182144024Y-124633575D01*
X182127443Y-124608761D01*
X182120552Y-124598448D01*
X182054231Y-124554133D01*
X182042061Y-124551712D01*
X182031283Y-124547248D01*
X181976002Y-124502701D01*
X181953500Y-124430839D01*
X181953500Y-123236844D01*
X181973502Y-123168723D01*
X181990405Y-123147749D01*
X182565956Y-122572198D01*
X182628268Y-122538172D01*
X182699083Y-122543237D01*
X182755919Y-122585784D01*
X182773934Y-122619545D01*
X182788244Y-122660296D01*
X182788245Y-122660298D01*
X182791366Y-122669184D01*
X182871850Y-122778150D01*
X182980816Y-122858634D01*
X182989699Y-122861754D01*
X182989702Y-122861755D01*
X183082773Y-122894439D01*
X183108630Y-122903519D01*
X183116272Y-122904241D01*
X183116275Y-122904242D01*
X183126634Y-122905221D01*
X183140165Y-122906500D01*
X183643745Y-122906500D01*
X184147834Y-122906499D01*
X184150784Y-122906220D01*
X184150789Y-122906220D01*
X184171721Y-122904242D01*
X184171723Y-122904242D01*
X184179370Y-122903519D01*
X184289751Y-122864756D01*
X184360652Y-122861058D01*
X184422296Y-122896278D01*
X184455114Y-122959234D01*
X184457500Y-122983639D01*
X184457500Y-124200154D01*
X184437498Y-124268275D01*
X184420596Y-124289249D01*
X183554251Y-125155595D01*
X183491938Y-125189620D01*
X183465155Y-125192500D01*
X183256252Y-125192500D01*
X183250184Y-125193707D01*
X183209939Y-125201712D01*
X183209938Y-125201712D01*
X183197769Y-125204133D01*
X183131448Y-125248448D01*
X183087133Y-125314769D01*
X183084712Y-125326938D01*
X183084712Y-125326939D01*
X183082601Y-125337552D01*
X183075500Y-125373252D01*
X183075500Y-125862748D01*
X183087133Y-125921231D01*
X183131448Y-125987552D01*
X183197769Y-126031867D01*
X183209938Y-126034288D01*
X183209939Y-126034288D01*
X183250184Y-126042293D01*
X183256252Y-126043500D01*
X183995748Y-126043500D01*
X184001816Y-126042293D01*
X184042061Y-126034288D01*
X184042062Y-126034288D01*
X184054231Y-126031867D01*
X184120552Y-125987552D01*
X184164867Y-125921231D01*
X184176500Y-125862748D01*
X184176500Y-125511845D01*
X184196502Y-125443724D01*
X184213405Y-125422749D01*
X185002580Y-124633575D01*
X185010684Y-124626149D01*
X185031306Y-124608845D01*
X185039750Y-124601760D01*
X185058730Y-124568886D01*
X185064622Y-124559639D01*
X185086395Y-124528543D01*
X185089248Y-124517894D01*
X185090756Y-124514660D01*
X185091983Y-124511288D01*
X185097497Y-124501739D01*
X185104087Y-124464367D01*
X185106462Y-124453653D01*
X185116287Y-124416984D01*
X185115182Y-124404345D01*
X185112979Y-124379173D01*
X185112500Y-124368191D01*
X185112500Y-100342757D01*
X185112979Y-100331775D01*
X185115327Y-100304941D01*
X185115327Y-100304939D01*
X185116287Y-100293964D01*
X185106462Y-100257295D01*
X185104086Y-100246577D01*
X185099411Y-100220066D01*
X185097497Y-100209209D01*
X185091983Y-100199660D01*
X185090756Y-100196288D01*
X185089248Y-100193054D01*
X185086395Y-100182405D01*
X185064622Y-100151309D01*
X185058730Y-100142062D01*
X185039750Y-100109188D01*
X185010677Y-100084793D01*
X185002573Y-100077366D01*
X169999260Y-85074054D01*
X169991833Y-85065950D01*
X169974519Y-85045316D01*
X169974518Y-85045315D01*
X169967433Y-85036871D01*
X169934568Y-85017896D01*
X169925308Y-85011998D01*
X169894216Y-84990227D01*
X169883572Y-84987375D01*
X169880326Y-84985861D01*
X169876958Y-84984635D01*
X169867412Y-84979124D01*
X169830041Y-84972534D01*
X169819313Y-84970156D01*
X169782657Y-84960334D01*
X169771673Y-84961295D01*
X169771672Y-84961295D01*
X169744862Y-84963641D01*
X169733879Y-84964121D01*
X163366673Y-84964121D01*
X163355690Y-84963641D01*
X163328880Y-84961295D01*
X163328879Y-84961295D01*
X163317895Y-84960334D01*
X163281226Y-84970159D01*
X163270512Y-84972534D01*
X163233140Y-84979124D01*
X163223591Y-84984638D01*
X163220219Y-84985865D01*
X163216985Y-84987373D01*
X163206336Y-84990226D01*
X163175240Y-85011999D01*
X163165993Y-85017891D01*
X163146634Y-85029068D01*
X163142668Y-85031358D01*
X163133119Y-85036871D01*
X163126034Y-85045315D01*
X163108724Y-85065944D01*
X163101297Y-85074048D01*
X161684365Y-86490981D01*
X161622053Y-86525006D01*
X161558013Y-86522251D01*
X161376188Y-86465967D01*
X161370063Y-86465323D01*
X161370062Y-86465323D01*
X161183769Y-86445743D01*
X161183768Y-86445743D01*
X161177641Y-86445099D01*
X161110526Y-86451207D01*
X160984962Y-86462634D01*
X160984959Y-86462635D01*
X160978823Y-86463193D01*
X160972917Y-86464931D01*
X160972913Y-86464932D01*
X160856968Y-86499057D01*
X160787305Y-86519560D01*
X160781848Y-86522413D01*
X160781845Y-86522414D01*
X160720880Y-86554286D01*
X160610383Y-86612052D01*
X160454796Y-86737147D01*
X160326470Y-86890081D01*
X160323506Y-86895473D01*
X160323503Y-86895477D01*
X160256355Y-87017620D01*
X160230293Y-87065027D01*
X160228432Y-87070894D01*
X160228431Y-87070896D01*
X160224347Y-87083770D01*
X160169927Y-87255322D01*
X160147674Y-87453718D01*
X160164379Y-87652658D01*
X160166078Y-87658582D01*
X160217707Y-87838634D01*
X160219407Y-87844564D01*
X160221072Y-87847803D01*
X160227470Y-87917634D01*
X160192935Y-87982410D01*
X159766751Y-88408595D01*
X159704438Y-88442620D01*
X159677655Y-88445500D01*
X157233096Y-88445500D01*
X157164975Y-88425498D01*
X157118482Y-88371842D01*
X157107894Y-88308294D01*
X157108500Y-88305248D01*
X157108500Y-86630752D01*
X157096867Y-86572269D01*
X157052552Y-86505948D01*
X156986231Y-86461633D01*
X156974062Y-86459212D01*
X156974061Y-86459212D01*
X156933816Y-86451207D01*
X156927748Y-86450000D01*
X155253252Y-86450000D01*
X155247184Y-86451207D01*
X155206939Y-86459212D01*
X155206938Y-86459212D01*
X155194769Y-86461633D01*
X155128448Y-86505948D01*
X155084133Y-86572269D01*
X155072500Y-86630752D01*
X155072500Y-86760500D01*
X155052498Y-86828621D01*
X154998842Y-86875114D01*
X154946500Y-86886500D01*
X138765380Y-86886500D01*
X138748933Y-86885422D01*
X138727188Y-86882559D01*
X138719000Y-86881481D01*
X138710812Y-86882559D01*
X138653681Y-86890081D01*
X138585696Y-86899032D01*
X138567198Y-86901467D01*
X138559569Y-86904627D01*
X138559566Y-86904628D01*
X138525767Y-86918629D01*
X138525764Y-86918630D01*
X138433372Y-86956899D01*
X138433371Y-86956900D01*
X138425741Y-86960060D01*
X138339404Y-87026309D01*
X138304269Y-87053269D01*
X138299243Y-87059819D01*
X138285891Y-87077220D01*
X138275023Y-87089612D01*
X135212802Y-90151832D01*
X135192748Y-90167220D01*
X135192159Y-90167464D01*
X135066718Y-90263718D01*
X134970464Y-90389159D01*
X134909956Y-90535238D01*
X134889318Y-90692000D01*
X134909956Y-90848762D01*
X134910201Y-90849354D01*
X134913500Y-90874412D01*
X134913500Y-93107791D01*
X134893498Y-93175912D01*
X134888852Y-93182650D01*
X134816039Y-93281232D01*
X134772399Y-93405500D01*
X134769500Y-93436167D01*
X134470499Y-93436167D01*
X134467601Y-93405500D01*
X134423961Y-93281232D01*
X134345711Y-93175289D01*
X134338140Y-93169697D01*
X134247345Y-93102635D01*
X134247343Y-93102634D01*
X134239768Y-93097039D01*
X134230881Y-93093918D01*
X134230879Y-93093917D01*
X134122748Y-93055944D01*
X134122746Y-93055943D01*
X134115500Y-93053399D01*
X134107856Y-93052676D01*
X134107854Y-93052676D01*
X134099879Y-93051922D01*
X134084833Y-93050500D01*
X133745172Y-93050500D01*
X133405168Y-93050501D01*
X133402218Y-93050780D01*
X133402213Y-93050780D01*
X133382150Y-93052676D01*
X133382149Y-93052676D01*
X133374500Y-93053399D01*
X133367252Y-93055944D01*
X133367249Y-93055945D01*
X133259121Y-93093917D01*
X133259119Y-93093918D01*
X133250232Y-93097039D01*
X133242657Y-93102634D01*
X133242655Y-93102635D01*
X133151860Y-93169697D01*
X133144289Y-93175289D01*
X133066039Y-93281232D01*
X133022399Y-93405500D01*
X133019500Y-93436167D01*
X133019501Y-94015832D01*
X133022399Y-94046500D01*
X133066039Y-94170768D01*
X133071634Y-94178343D01*
X133071635Y-94178345D01*
X133116249Y-94238748D01*
X133144289Y-94276711D01*
X133151860Y-94282303D01*
X133242655Y-94349365D01*
X133242657Y-94349366D01*
X133250232Y-94354961D01*
X133259122Y-94358083D01*
X133333249Y-94384115D01*
X133390894Y-94425558D01*
X133416982Y-94491588D01*
X133417500Y-94502997D01*
X133417500Y-94845751D01*
X133397498Y-94913872D01*
X133343842Y-94960365D01*
X133333266Y-94964627D01*
X133226732Y-95002039D01*
X133219157Y-95007634D01*
X133219155Y-95007635D01*
X133128360Y-95074697D01*
X133120789Y-95080289D01*
X133042539Y-95186232D01*
X133039418Y-95195119D01*
X133039417Y-95195121D01*
X133001445Y-95303249D01*
X132998899Y-95310500D01*
X132998176Y-95318144D01*
X132998176Y-95318146D01*
X132997422Y-95326121D01*
X132996000Y-95341167D01*
X132081000Y-95341167D01*
X132081000Y-83694889D01*
X132101002Y-83626768D01*
X132154658Y-83580275D01*
X132224932Y-83570171D01*
X132289512Y-83599665D01*
X132328447Y-83661323D01*
X132366572Y-83799265D01*
X132367702Y-83802185D01*
X132367703Y-83802189D01*
X132450993Y-84017479D01*
X132509326Y-84168261D01*
X132510741Y-84171055D01*
X132510744Y-84171063D01*
X132613885Y-84374804D01*
X132688023Y-84521255D01*
X132900895Y-84854755D01*
X133145838Y-85165463D01*
X133148013Y-85167719D01*
X133148018Y-85167725D01*
X133271468Y-85295784D01*
X133420429Y-85450308D01*
X133422822Y-85452341D01*
X133719559Y-85704438D01*
X133719567Y-85704445D01*
X133721954Y-85706472D01*
X133724534Y-85708255D01*
X134044857Y-85929645D01*
X134044866Y-85929650D01*
X134047429Y-85931422D01*
X134050164Y-85932935D01*
X134050169Y-85932938D01*
X134214957Y-86024093D01*
X134393638Y-86122934D01*
X134396507Y-86124167D01*
X134396518Y-86124172D01*
X134754287Y-86277881D01*
X134757155Y-86279113D01*
X134760132Y-86280054D01*
X134760136Y-86280056D01*
X134785938Y-86288216D01*
X135134387Y-86398416D01*
X135521603Y-86479662D01*
X135524721Y-86479998D01*
X135912522Y-86521785D01*
X135912525Y-86521785D01*
X135914973Y-86522049D01*
X135917436Y-86522120D01*
X135917437Y-86522120D01*
X135921086Y-86522225D01*
X135972291Y-86523700D01*
X136243352Y-86523700D01*
X136244915Y-86523622D01*
X136244923Y-86523622D01*
X136361445Y-86517821D01*
X136539158Y-86508974D01*
X136542243Y-86508510D01*
X136542245Y-86508510D01*
X136927316Y-86450617D01*
X136930409Y-86450152D01*
X136933445Y-86449381D01*
X137310839Y-86353535D01*
X137310842Y-86353534D01*
X137313882Y-86352762D01*
X137316830Y-86351692D01*
X137682849Y-86218834D01*
X137682859Y-86218830D01*
X137685787Y-86217767D01*
X138042446Y-86046502D01*
X138380331Y-85840661D01*
X138669978Y-85622000D01*
X138693607Y-85604162D01*
X138693610Y-85604160D01*
X138696101Y-85602279D01*
X138698383Y-85600169D01*
X138698392Y-85600162D01*
X138984337Y-85335836D01*
X138986634Y-85333713D01*
X139135751Y-85165463D01*
X139246972Y-85039971D01*
X139246977Y-85039965D01*
X139249056Y-85037619D01*
X139253579Y-85031360D01*
X139325164Y-84932286D01*
X139480773Y-84716926D01*
X139679493Y-84374804D01*
X139772129Y-84171063D01*
X139841959Y-84017479D01*
X139841960Y-84017476D01*
X139843251Y-84014637D01*
X139970428Y-83639987D01*
X140059766Y-83254557D01*
X140110381Y-82862161D01*
X140121773Y-82466678D01*
X140101130Y-82175114D01*
X140094052Y-82075154D01*
X140093830Y-82072018D01*
X140026827Y-81682085D01*
X139921428Y-81300735D01*
X139838107Y-81085363D01*
X139779809Y-80934672D01*
X139779807Y-80934667D01*
X139778674Y-80931739D01*
X139701100Y-80778500D01*
X139601396Y-80581548D01*
X139599977Y-80578745D01*
X139536354Y-80479068D01*
X139388792Y-80247888D01*
X139387105Y-80245245D01*
X139142162Y-79934537D01*
X139139987Y-79932281D01*
X139139982Y-79932275D01*
X138878090Y-79660604D01*
X138867571Y-79649692D01*
X138864999Y-79647507D01*
X138568441Y-79395562D01*
X138568433Y-79395555D01*
X138566046Y-79393528D01*
X138371891Y-79259339D01*
X138243143Y-79170355D01*
X138243134Y-79170350D01*
X138240571Y-79168578D01*
X138237836Y-79167065D01*
X138237831Y-79167062D01*
X138030080Y-79052141D01*
X137894362Y-78977066D01*
X137891493Y-78975833D01*
X137891482Y-78975828D01*
X137533713Y-78822119D01*
X137533710Y-78822118D01*
X137530845Y-78820887D01*
X137527868Y-78819946D01*
X137527864Y-78819944D01*
X137253376Y-78733135D01*
X137194458Y-78693523D01*
X137166308Y-78628346D01*
X137177865Y-78558296D01*
X137225459Y-78505614D01*
X137291370Y-78487000D01*
X152624748Y-78487000D01*
X152692869Y-78507002D01*
G37*
%TD.AperFunction*%
%TA.AperFunction,Conductor*%
G36*
X169624097Y-88187596D02*
G01*
X169666294Y-88215448D01*
X175320595Y-93869749D01*
X175354621Y-93932061D01*
X175357500Y-93958844D01*
X175357500Y-94238748D01*
X175358707Y-94244816D01*
X175366164Y-94282303D01*
X175369133Y-94297231D01*
X175413448Y-94363552D01*
X175479769Y-94407867D01*
X175491938Y-94410288D01*
X175491939Y-94410288D01*
X175532184Y-94418293D01*
X175538252Y-94419500D01*
X176027748Y-94419500D01*
X176033816Y-94418293D01*
X176074061Y-94410288D01*
X176074062Y-94410288D01*
X176086231Y-94407867D01*
X176152552Y-94363552D01*
X176196867Y-94297231D01*
X176199837Y-94282303D01*
X176207293Y-94244816D01*
X176208500Y-94238748D01*
X176208500Y-93917845D01*
X176228502Y-93849724D01*
X176282158Y-93803231D01*
X176352432Y-93793127D01*
X176417012Y-93822621D01*
X176423595Y-93828750D01*
X179269377Y-96674532D01*
X179303403Y-96736844D01*
X179298338Y-96807659D01*
X179255791Y-96864495D01*
X179189271Y-96889306D01*
X179168425Y-96889068D01*
X179159599Y-96888234D01*
X179151835Y-96887500D01*
X177673749Y-96887500D01*
X176194166Y-96887501D01*
X176191216Y-96887780D01*
X176191211Y-96887780D01*
X176170279Y-96889758D01*
X176170277Y-96889758D01*
X176162630Y-96890481D01*
X176104378Y-96910938D01*
X176043702Y-96932245D01*
X176043699Y-96932246D01*
X176034816Y-96935366D01*
X175925850Y-97015850D01*
X175845366Y-97124816D01*
X175842246Y-97133699D01*
X175842245Y-97133702D01*
X175817336Y-97204634D01*
X175800481Y-97252630D01*
X175797500Y-97284165D01*
X175797501Y-98291834D01*
X175800481Y-98323370D01*
X175803027Y-98330619D01*
X175803323Y-98331462D01*
X175803358Y-98332127D01*
X175804672Y-98338117D01*
X175803682Y-98338334D01*
X175807024Y-98402362D01*
X175773537Y-98462309D01*
X173957595Y-100278251D01*
X173895283Y-100312277D01*
X173824468Y-100307212D01*
X173767632Y-100264665D01*
X173742821Y-100198145D01*
X173742500Y-100189156D01*
X173742500Y-99116252D01*
X173737357Y-99090396D01*
X173733288Y-99069939D01*
X173733288Y-99069938D01*
X173730867Y-99057769D01*
X173686552Y-98991448D01*
X173620231Y-98947133D01*
X173608062Y-98944712D01*
X173608061Y-98944712D01*
X173567816Y-98936707D01*
X173561748Y-98935500D01*
X173022252Y-98935500D01*
X173016184Y-98936707D01*
X172975939Y-98944712D01*
X172975938Y-98944712D01*
X172963769Y-98947133D01*
X172897448Y-98991448D01*
X172894979Y-98987753D01*
X172853783Y-99010249D01*
X172782968Y-99005184D01*
X172758067Y-98989181D01*
X172756552Y-98991448D01*
X172700547Y-98954026D01*
X172690231Y-98947133D01*
X172678062Y-98944712D01*
X172678061Y-98944712D01*
X172637816Y-98936707D01*
X172631748Y-98935500D01*
X171527500Y-98935500D01*
X171459379Y-98915498D01*
X171412886Y-98861842D01*
X171401500Y-98809500D01*
X171401500Y-97662943D01*
X171396639Y-97618512D01*
X171390346Y-97590091D01*
X171385047Y-97566164D01*
X171385044Y-97566149D01*
X171384859Y-97565316D01*
X171382128Y-97554406D01*
X171338518Y-97474018D01*
X171291626Y-97420711D01*
X171273900Y-97402888D01*
X171193751Y-97358838D01*
X171125484Y-97339345D01*
X171095307Y-97335236D01*
X171071988Y-97332060D01*
X171071982Y-97332060D01*
X171067527Y-97331453D01*
X167332347Y-97359328D01*
X167264080Y-97339835D01*
X167217188Y-97286528D01*
X167206560Y-97216332D01*
X167235570Y-97151532D01*
X167256547Y-97131982D01*
X167259577Y-97129744D01*
X167259580Y-97129741D01*
X167267150Y-97124150D01*
X167347634Y-97015184D01*
X167392519Y-96887370D01*
X167395500Y-96855835D01*
X167395499Y-93898166D01*
X167395499Y-93898165D01*
X171694500Y-93898165D01*
X171694501Y-96855834D01*
X171697481Y-96887370D01*
X171742366Y-97015184D01*
X171822850Y-97124150D01*
X171931816Y-97204634D01*
X171940699Y-97207754D01*
X171940702Y-97207755D01*
X172011167Y-97232500D01*
X172059630Y-97249519D01*
X172067272Y-97250241D01*
X172067275Y-97250242D01*
X172077634Y-97251221D01*
X172091165Y-97252500D01*
X172594745Y-97252500D01*
X173098834Y-97252499D01*
X173101784Y-97252220D01*
X173101789Y-97252220D01*
X173122721Y-97250242D01*
X173122723Y-97250242D01*
X173130370Y-97249519D01*
X173188622Y-97229062D01*
X173249298Y-97207755D01*
X173249301Y-97207754D01*
X173258184Y-97204634D01*
X173367150Y-97124150D01*
X173447634Y-97015184D01*
X173492519Y-96887370D01*
X173495500Y-96855835D01*
X173495500Y-96322500D01*
X173515502Y-96254379D01*
X173569158Y-96207886D01*
X173621500Y-96196500D01*
X174595839Y-96196500D01*
X174663960Y-96216502D01*
X174712248Y-96274283D01*
X174716712Y-96285061D01*
X174719133Y-96297231D01*
X174763448Y-96363552D01*
X174829769Y-96407867D01*
X174841938Y-96410288D01*
X174841939Y-96410288D01*
X174882184Y-96418293D01*
X174888252Y-96419500D01*
X175377748Y-96419500D01*
X175383816Y-96418293D01*
X175424061Y-96410288D01*
X175424062Y-96410288D01*
X175436231Y-96407867D01*
X175502552Y-96363552D01*
X175546867Y-96297231D01*
X175553660Y-96263083D01*
X175557293Y-96244816D01*
X175558500Y-96238748D01*
X175558500Y-95499252D01*
X175546867Y-95440769D01*
X175502552Y-95374448D01*
X175452744Y-95341167D01*
X175446547Y-95337026D01*
X175436231Y-95330133D01*
X175424062Y-95327712D01*
X175424061Y-95327712D01*
X175383816Y-95319707D01*
X175377748Y-95318500D01*
X174888252Y-95318500D01*
X174882184Y-95319707D01*
X174841939Y-95327712D01*
X174841938Y-95327712D01*
X174829769Y-95330133D01*
X174819453Y-95337026D01*
X174813256Y-95341167D01*
X174763448Y-95374448D01*
X174719133Y-95440769D01*
X174716712Y-95452939D01*
X174712248Y-95463717D01*
X174667701Y-95518998D01*
X174595839Y-95541500D01*
X173621500Y-95541500D01*
X173553379Y-95521498D01*
X173506886Y-95467842D01*
X173495500Y-95415500D01*
X173495499Y-93901132D01*
X173495499Y-93898166D01*
X173492519Y-93866630D01*
X173447634Y-93738816D01*
X173367150Y-93629850D01*
X173258184Y-93549366D01*
X173249301Y-93546246D01*
X173249298Y-93546245D01*
X173137614Y-93507025D01*
X173137615Y-93507025D01*
X173130370Y-93504481D01*
X173122728Y-93503759D01*
X173122725Y-93503758D01*
X173112366Y-93502779D01*
X173098835Y-93501500D01*
X172595255Y-93501500D01*
X172091166Y-93501501D01*
X172088216Y-93501780D01*
X172088211Y-93501780D01*
X172067279Y-93503758D01*
X172067277Y-93503758D01*
X172059630Y-93504481D01*
X172001378Y-93524938D01*
X171940702Y-93546245D01*
X171940699Y-93546246D01*
X171931816Y-93549366D01*
X171822850Y-93629850D01*
X171742366Y-93738816D01*
X171697481Y-93866630D01*
X171694500Y-93898165D01*
X167395499Y-93898165D01*
X167392519Y-93866630D01*
X167347634Y-93738816D01*
X167267150Y-93629850D01*
X167158184Y-93549366D01*
X167149301Y-93546246D01*
X167149298Y-93546245D01*
X167037614Y-93507025D01*
X167037615Y-93507025D01*
X167030370Y-93504481D01*
X167022728Y-93503759D01*
X167022725Y-93503758D01*
X167012366Y-93502779D01*
X166998835Y-93501500D01*
X166495255Y-93501500D01*
X165991166Y-93501501D01*
X165988216Y-93501780D01*
X165988211Y-93501780D01*
X165967279Y-93503758D01*
X165967277Y-93503758D01*
X165959630Y-93504481D01*
X165901378Y-93524938D01*
X165840702Y-93546245D01*
X165840699Y-93546246D01*
X165831816Y-93549366D01*
X165722850Y-93629850D01*
X165642366Y-93738816D01*
X165597481Y-93866630D01*
X165594500Y-93898165D01*
X165594501Y-94845751D01*
X165594501Y-95762155D01*
X165574499Y-95830276D01*
X165557596Y-95851250D01*
X165406251Y-96002595D01*
X165343939Y-96036621D01*
X165317156Y-96039500D01*
X164334500Y-96039500D01*
X164266379Y-96019498D01*
X164219886Y-95965842D01*
X164208500Y-95913500D01*
X164208500Y-95682252D01*
X164196867Y-95623769D01*
X164152552Y-95557448D01*
X164086231Y-95513133D01*
X164074062Y-95510712D01*
X164074061Y-95510712D01*
X164033816Y-95502707D01*
X164027748Y-95501500D01*
X160838252Y-95501500D01*
X160832184Y-95502707D01*
X160791939Y-95510712D01*
X160791938Y-95510712D01*
X160779769Y-95513133D01*
X160713448Y-95557448D01*
X160669133Y-95623769D01*
X160657500Y-95682252D01*
X160657500Y-97051748D01*
X160669133Y-97110231D01*
X160676026Y-97120547D01*
X160678879Y-97124816D01*
X160713448Y-97176552D01*
X160723761Y-97183443D01*
X160732540Y-97192222D01*
X160729519Y-97195243D01*
X160760001Y-97231721D01*
X160768843Y-97302165D01*
X160738197Y-97366207D01*
X160732181Y-97371419D01*
X160732540Y-97371778D01*
X160731977Y-97372341D01*
X160729652Y-97373610D01*
X160714477Y-97386759D01*
X160713455Y-97387442D01*
X160711013Y-97383788D01*
X160669665Y-97406367D01*
X160643822Y-97409242D01*
X160145353Y-97412962D01*
X154304847Y-97456548D01*
X154304843Y-97456548D01*
X154301526Y-97456573D01*
X154280079Y-97459000D01*
X154261926Y-97461054D01*
X154261921Y-97461055D01*
X154258632Y-97461427D01*
X154255400Y-97462143D01*
X154255392Y-97462144D01*
X154225764Y-97468705D01*
X154207230Y-97472809D01*
X154197797Y-97475133D01*
X154190895Y-97478811D01*
X154190892Y-97478812D01*
X154149382Y-97500932D01*
X154117084Y-97518142D01*
X154063428Y-97564635D01*
X154062051Y-97565984D01*
X154062048Y-97565987D01*
X154057946Y-97570007D01*
X154045473Y-97582228D01*
X154000826Y-97662046D01*
X153980824Y-97730167D01*
X153980184Y-97734615D01*
X153980183Y-97734622D01*
X153973139Y-97783615D01*
X153973138Y-97783622D01*
X153972500Y-97788063D01*
X153972500Y-99292500D01*
X153952498Y-99360621D01*
X153898842Y-99407114D01*
X153846500Y-99418500D01*
X152832252Y-99418500D01*
X152826184Y-99419707D01*
X152785939Y-99427712D01*
X152785938Y-99427712D01*
X152773769Y-99430133D01*
X152707448Y-99474448D01*
X152700557Y-99484761D01*
X152691778Y-99493540D01*
X152688757Y-99490519D01*
X152652279Y-99521001D01*
X152581835Y-99529843D01*
X152517793Y-99499197D01*
X152512581Y-99493181D01*
X152512222Y-99493540D01*
X152503443Y-99484761D01*
X152496552Y-99474448D01*
X152430231Y-99430133D01*
X152418062Y-99427712D01*
X152418061Y-99427712D01*
X152377816Y-99419707D01*
X152371748Y-99418500D01*
X151732252Y-99418500D01*
X151726184Y-99419707D01*
X151685939Y-99427712D01*
X151685938Y-99427712D01*
X151673769Y-99430133D01*
X151607448Y-99474448D01*
X151563133Y-99540769D01*
X151551500Y-99599252D01*
X151551500Y-100765500D01*
X151531498Y-100833621D01*
X151477842Y-100880114D01*
X151425500Y-100891500D01*
X148525845Y-100891500D01*
X148457724Y-100871498D01*
X148436750Y-100854595D01*
X148386405Y-100804250D01*
X148352379Y-100741938D01*
X148349500Y-100715155D01*
X148349499Y-98854132D01*
X148349499Y-98851166D01*
X148346519Y-98819630D01*
X148301634Y-98691816D01*
X148221150Y-98582850D01*
X148112184Y-98502366D01*
X148103301Y-98499246D01*
X148103298Y-98499245D01*
X147991614Y-98460025D01*
X147991615Y-98460025D01*
X147984370Y-98457481D01*
X147976728Y-98456759D01*
X147976725Y-98456758D01*
X147966366Y-98455779D01*
X147952835Y-98454500D01*
X147449255Y-98454500D01*
X146945166Y-98454501D01*
X146942216Y-98454780D01*
X146942211Y-98454780D01*
X146921278Y-98456758D01*
X146921276Y-98456759D01*
X146913630Y-98457481D01*
X146906385Y-98460025D01*
X146902498Y-98460878D01*
X146831673Y-98455936D01*
X146774764Y-98413489D01*
X146749837Y-98347012D01*
X146749500Y-98337804D01*
X146749500Y-96208844D01*
X146769502Y-96140723D01*
X146786405Y-96119749D01*
X152117750Y-90788405D01*
X152180062Y-90754379D01*
X152206845Y-90751500D01*
X165464206Y-90751500D01*
X165475189Y-90751980D01*
X165501999Y-90754326D01*
X165502000Y-90754326D01*
X165512984Y-90755287D01*
X165549644Y-90745464D01*
X165560367Y-90743087D01*
X165562690Y-90742677D01*
X165597739Y-90736497D01*
X165607285Y-90730986D01*
X165610653Y-90729760D01*
X165613899Y-90728246D01*
X165624543Y-90725394D01*
X165655635Y-90703623D01*
X165664894Y-90697725D01*
X165688211Y-90684263D01*
X165697760Y-90678750D01*
X165722160Y-90649671D01*
X165729587Y-90641567D01*
X168047966Y-88323188D01*
X168110278Y-88289162D01*
X168181093Y-88294227D01*
X168205654Y-88307083D01*
X168206702Y-88307975D01*
X168212087Y-88310985D01*
X168212092Y-88310988D01*
X168306466Y-88363731D01*
X168380973Y-88405371D01*
X168570842Y-88467063D01*
X168769077Y-88490702D01*
X168775212Y-88490230D01*
X168775214Y-88490230D01*
X168961988Y-88475858D01*
X168961993Y-88475857D01*
X168968129Y-88475385D01*
X168974059Y-88473729D01*
X168974061Y-88473729D01*
X169080165Y-88444104D01*
X169160415Y-88421698D01*
X169188968Y-88407275D01*
X169333110Y-88334464D01*
X169333112Y-88334463D01*
X169338611Y-88331685D01*
X169495930Y-88208774D01*
X169496839Y-88209937D01*
X169553426Y-88180806D01*
X169624097Y-88187596D01*
G37*
%TD.AperFunction*%
M02*
