%TF.GenerationSoftware,KiCad,Pcbnew,(6.0.10)*%
%TF.CreationDate,2022-12-30T01:06:13-06:00*%
%TF.ProjectId,FluorometerLightSource,466c756f-726f-46d6-9574-65724c696768,rev?*%
%TF.SameCoordinates,Original*%
%TF.FileFunction,Copper,L2,Bot*%
%TF.FilePolarity,Positive*%
%FSLAX46Y46*%
G04 Gerber Fmt 4.6, Leading zero omitted, Abs format (unit mm)*
G04 Created by KiCad (PCBNEW (6.0.10)) date 2022-12-30 01:06:13*
%MOMM*%
%LPD*%
G01*
G04 APERTURE LIST*
%TA.AperFunction,ComponentPad*%
%ADD10R,1.635000X1.635000*%
%TD*%
%TA.AperFunction,ComponentPad*%
%ADD11C,1.635000*%
%TD*%
%TA.AperFunction,ViaPad*%
%ADD12C,0.800000*%
%TD*%
%TA.AperFunction,Conductor*%
%ADD13C,0.254000*%
%TD*%
%TA.AperFunction,Conductor*%
%ADD14C,0.762000*%
%TD*%
G04 APERTURE END LIST*
D10*
X156090500Y-87468000D03*
D11*
X158630500Y-87468000D03*
X161170500Y-87468000D03*
X163710500Y-87468000D03*
X166250500Y-87468000D03*
X168790500Y-87468000D03*
D12*
X149225000Y-123952000D03*
X146685000Y-123952000D03*
X142494000Y-119761000D03*
X140081000Y-117348000D03*
X145923000Y-117348000D03*
X147193000Y-108331000D03*
X143256000Y-107442000D03*
X135509000Y-99695000D03*
X135509000Y-108204000D03*
X135509000Y-119380000D03*
X135495000Y-90692000D03*
X166370000Y-100965000D03*
X162433000Y-100965000D03*
X158750000Y-100965000D03*
X182118000Y-106807000D03*
X152781000Y-94107000D03*
X143129000Y-93345000D03*
X173101000Y-92583000D03*
X180213000Y-98425000D03*
X151384000Y-127508000D03*
X171577000Y-125857000D03*
X183769000Y-123444000D03*
X142621000Y-110236000D03*
D13*
X146685000Y-123952000D02*
X149225000Y-123952000D01*
X145923000Y-117348000D02*
X140081000Y-117348000D01*
X143256000Y-107442000D02*
X146304000Y-107442000D01*
X146304000Y-107442000D02*
X147193000Y-108331000D01*
D14*
X135509000Y-90706000D02*
X135509000Y-99695000D01*
X135509000Y-99695000D02*
X135509000Y-107442000D01*
X135509000Y-108204000D02*
X135509000Y-119380000D01*
X135509000Y-107442000D02*
X135509000Y-108204000D01*
X135495000Y-90692000D02*
X135509000Y-90706000D01*
X156090500Y-98305500D02*
X158750000Y-100965000D01*
X162433000Y-100965000D02*
X166370000Y-100965000D01*
X156090500Y-87468000D02*
X156090500Y-98305500D01*
X158750000Y-100965000D02*
X162433000Y-100965000D01*
%TA.AperFunction,Conductor*%
G36*
X152692869Y-78507002D02*
G01*
X152739362Y-78560658D01*
X152750278Y-78623872D01*
X152748699Y-78642102D01*
X152735259Y-78797285D01*
X152735503Y-78801720D01*
X152735503Y-78801724D01*
X152749450Y-79055127D01*
X152750438Y-79073087D01*
X152804325Y-79343999D01*
X152895847Y-79604616D01*
X153023178Y-79849737D01*
X153025761Y-79853352D01*
X153025765Y-79853358D01*
X153175135Y-80062381D01*
X153183775Y-80074471D01*
X153228336Y-80121183D01*
X153344341Y-80242787D01*
X153374436Y-80274335D01*
X153377931Y-80277091D01*
X153377933Y-80277092D01*
X153543694Y-80407767D01*
X153591356Y-80445341D01*
X153653059Y-80481181D01*
X153826353Y-80581839D01*
X153826359Y-80581842D01*
X153830207Y-80584077D01*
X154086223Y-80687774D01*
X154090536Y-80688845D01*
X154090541Y-80688847D01*
X154349975Y-80753291D01*
X154349980Y-80753292D01*
X154354296Y-80754364D01*
X154358724Y-80754818D01*
X154358726Y-80754818D01*
X154433839Y-80762514D01*
X154589870Y-80778500D01*
X154760862Y-80778500D01*
X154966030Y-80763973D01*
X154970385Y-80763035D01*
X154970388Y-80763035D01*
X155231715Y-80706773D01*
X155231717Y-80706773D01*
X155236062Y-80705837D01*
X155495209Y-80610233D01*
X155543685Y-80584077D01*
X155734384Y-80481181D01*
X155738300Y-80479068D01*
X155960484Y-80314960D01*
X156157329Y-80121183D01*
X156324906Y-79901604D01*
X156399375Y-79768630D01*
X156457697Y-79664490D01*
X156457698Y-79664487D01*
X156459873Y-79660604D01*
X156559536Y-79402991D01*
X156561730Y-79393528D01*
X156613870Y-79168578D01*
X156621907Y-79133905D01*
X156645741Y-78858715D01*
X156642605Y-78801724D01*
X156632599Y-78619924D01*
X156648828Y-78550807D01*
X156699848Y-78501436D01*
X156758409Y-78487000D01*
X168124748Y-78487000D01*
X168192869Y-78507002D01*
X168239362Y-78560658D01*
X168250278Y-78623872D01*
X168248699Y-78642102D01*
X168235259Y-78797285D01*
X168235503Y-78801720D01*
X168235503Y-78801724D01*
X168249450Y-79055127D01*
X168250438Y-79073087D01*
X168304325Y-79343999D01*
X168395847Y-79604616D01*
X168523178Y-79849737D01*
X168525761Y-79853352D01*
X168525765Y-79853358D01*
X168675135Y-80062381D01*
X168683775Y-80074471D01*
X168728336Y-80121183D01*
X168844341Y-80242787D01*
X168874436Y-80274335D01*
X168877931Y-80277091D01*
X168877933Y-80277092D01*
X169043694Y-80407767D01*
X169091356Y-80445341D01*
X169153059Y-80481181D01*
X169326353Y-80581839D01*
X169326359Y-80581842D01*
X169330207Y-80584077D01*
X169586223Y-80687774D01*
X169590536Y-80688845D01*
X169590541Y-80688847D01*
X169849975Y-80753291D01*
X169849980Y-80753292D01*
X169854296Y-80754364D01*
X169858724Y-80754818D01*
X169858726Y-80754818D01*
X169933839Y-80762514D01*
X170089870Y-80778500D01*
X170260862Y-80778500D01*
X170466030Y-80763973D01*
X170470385Y-80763035D01*
X170470388Y-80763035D01*
X170731715Y-80706773D01*
X170731717Y-80706773D01*
X170736062Y-80705837D01*
X170995209Y-80610233D01*
X171043685Y-80584077D01*
X171234384Y-80481181D01*
X171238300Y-80479068D01*
X171460484Y-80314960D01*
X171657329Y-80121183D01*
X171824906Y-79901604D01*
X171899375Y-79768630D01*
X171957697Y-79664490D01*
X171957698Y-79664487D01*
X171959873Y-79660604D01*
X172059536Y-79402991D01*
X172061730Y-79393528D01*
X172113870Y-79168578D01*
X172121907Y-79133905D01*
X172145741Y-78858715D01*
X172142605Y-78801724D01*
X172132599Y-78619924D01*
X172148828Y-78550807D01*
X172199848Y-78501436D01*
X172258409Y-78487000D01*
X182615806Y-78487000D01*
X182683927Y-78507002D01*
X182730420Y-78560658D01*
X182740524Y-78630932D01*
X182711030Y-78695512D01*
X182646821Y-78735123D01*
X182602161Y-78746465D01*
X182602158Y-78746466D01*
X182599118Y-78747238D01*
X182596171Y-78748308D01*
X182596170Y-78748308D01*
X182230151Y-78881166D01*
X182230141Y-78881170D01*
X182227213Y-78882233D01*
X181870554Y-79053498D01*
X181532669Y-79259339D01*
X181216899Y-79497721D01*
X181214617Y-79499831D01*
X181214608Y-79499838D01*
X181096994Y-79608560D01*
X180926366Y-79766287D01*
X180924294Y-79768625D01*
X180924289Y-79768630D01*
X180666028Y-80060029D01*
X180666023Y-80060035D01*
X180663944Y-80062381D01*
X180432227Y-80383074D01*
X180233507Y-80725196D01*
X180232217Y-80728033D01*
X180232215Y-80728037D01*
X180138264Y-80934672D01*
X180069749Y-81085363D01*
X179942572Y-81460013D01*
X179853234Y-81845443D01*
X179802619Y-82237839D01*
X179791227Y-82633322D01*
X179819170Y-83027982D01*
X179886173Y-83417915D01*
X179991572Y-83799265D01*
X179992702Y-83802185D01*
X179992703Y-83802189D01*
X180075993Y-84017479D01*
X180134326Y-84168261D01*
X180135741Y-84171055D01*
X180135744Y-84171063D01*
X180238885Y-84374804D01*
X180313023Y-84521255D01*
X180525895Y-84854755D01*
X180770838Y-85165463D01*
X180773013Y-85167719D01*
X180773018Y-85167725D01*
X180896468Y-85295784D01*
X181045429Y-85450308D01*
X181047822Y-85452341D01*
X181344559Y-85704438D01*
X181344567Y-85704445D01*
X181346954Y-85706472D01*
X181349534Y-85708255D01*
X181669857Y-85929645D01*
X181669866Y-85929650D01*
X181672429Y-85931422D01*
X181675164Y-85932935D01*
X181675169Y-85932938D01*
X181839957Y-86024093D01*
X182018638Y-86122934D01*
X182021507Y-86124167D01*
X182021518Y-86124172D01*
X182379287Y-86277881D01*
X182382155Y-86279113D01*
X182385132Y-86280054D01*
X182385136Y-86280056D01*
X182513911Y-86320782D01*
X182759387Y-86398416D01*
X183146603Y-86479662D01*
X183149721Y-86479998D01*
X183537522Y-86521785D01*
X183537525Y-86521785D01*
X183539973Y-86522049D01*
X183542436Y-86522120D01*
X183542437Y-86522120D01*
X183546086Y-86522225D01*
X183597291Y-86523700D01*
X183868352Y-86523700D01*
X183869915Y-86523622D01*
X183869923Y-86523622D01*
X183986445Y-86517821D01*
X184164158Y-86508974D01*
X184167243Y-86508510D01*
X184167245Y-86508510D01*
X184552316Y-86450617D01*
X184555409Y-86450152D01*
X184558445Y-86449381D01*
X184935839Y-86353535D01*
X184935842Y-86353534D01*
X184938882Y-86352762D01*
X184941830Y-86351692D01*
X185307849Y-86218834D01*
X185307859Y-86218830D01*
X185310787Y-86217767D01*
X185667446Y-86046502D01*
X186005331Y-85840661D01*
X186321101Y-85602279D01*
X186323383Y-85600169D01*
X186323392Y-85600162D01*
X186609337Y-85335836D01*
X186611634Y-85333713D01*
X186760751Y-85165463D01*
X186871972Y-85039971D01*
X186871977Y-85039965D01*
X186874056Y-85037619D01*
X187105773Y-84716926D01*
X187304493Y-84374804D01*
X187397129Y-84171063D01*
X187466959Y-84017479D01*
X187466960Y-84017476D01*
X187468251Y-84014637D01*
X187542384Y-83796250D01*
X187586687Y-83665738D01*
X187627524Y-83607661D01*
X187693277Y-83580883D01*
X187763069Y-83593904D01*
X187814742Y-83642591D01*
X187832000Y-83706239D01*
X187832000Y-130427111D01*
X187811998Y-130495232D01*
X187758342Y-130541725D01*
X187688068Y-130551829D01*
X187623488Y-130522335D01*
X187584553Y-130460677D01*
X187547261Y-130325750D01*
X187546428Y-130322735D01*
X187463107Y-130107363D01*
X187404809Y-129956672D01*
X187404807Y-129956667D01*
X187403674Y-129953739D01*
X187300554Y-129750037D01*
X187226396Y-129603548D01*
X187224977Y-129600745D01*
X187012105Y-129267245D01*
X186767162Y-128956537D01*
X186764987Y-128954281D01*
X186764982Y-128954275D01*
X186602922Y-128786164D01*
X186492571Y-128671692D01*
X186489999Y-128669507D01*
X186193441Y-128417562D01*
X186193433Y-128417555D01*
X186191046Y-128415528D01*
X185996891Y-128281339D01*
X185868143Y-128192355D01*
X185868134Y-128192350D01*
X185865571Y-128190578D01*
X185862836Y-128189065D01*
X185862831Y-128189062D01*
X185655080Y-128074141D01*
X185519362Y-127999066D01*
X185516493Y-127997833D01*
X185516482Y-127997828D01*
X185158713Y-127844119D01*
X185158710Y-127844118D01*
X185155845Y-127842887D01*
X185152868Y-127841946D01*
X185152864Y-127841944D01*
X185024089Y-127801218D01*
X184778613Y-127723584D01*
X184391397Y-127642338D01*
X184388279Y-127642002D01*
X184000478Y-127600215D01*
X184000475Y-127600215D01*
X183998027Y-127599951D01*
X183995564Y-127599880D01*
X183995563Y-127599880D01*
X183991914Y-127599775D01*
X183940709Y-127598300D01*
X183669648Y-127598300D01*
X183668085Y-127598378D01*
X183668077Y-127598378D01*
X183571709Y-127603176D01*
X183373842Y-127613026D01*
X183370757Y-127613490D01*
X183370755Y-127613490D01*
X183181110Y-127642002D01*
X182982591Y-127671848D01*
X182979556Y-127672619D01*
X182979555Y-127672619D01*
X182602161Y-127768465D01*
X182602158Y-127768466D01*
X182599118Y-127769238D01*
X182596171Y-127770308D01*
X182596170Y-127770308D01*
X182230151Y-127903166D01*
X182230141Y-127903170D01*
X182227213Y-127904233D01*
X181870554Y-128075498D01*
X181532669Y-128281339D01*
X181216899Y-128519721D01*
X181214617Y-128521831D01*
X181214608Y-128521838D01*
X181054697Y-128669659D01*
X180926366Y-128788287D01*
X180924294Y-128790625D01*
X180924289Y-128790630D01*
X180666028Y-129082029D01*
X180666023Y-129082035D01*
X180663944Y-129084381D01*
X180432227Y-129405074D01*
X180233507Y-129747196D01*
X180232217Y-129750033D01*
X180232215Y-129750037D01*
X180138264Y-129956672D01*
X180069749Y-130107363D01*
X179942572Y-130482013D01*
X179853234Y-130867443D01*
X179802619Y-131259839D01*
X179791227Y-131655322D01*
X179791448Y-131658441D01*
X179791448Y-131658448D01*
X179811912Y-131947472D01*
X179819170Y-132049982D01*
X179886173Y-132439915D01*
X179991572Y-132821265D01*
X179992702Y-132824185D01*
X179992703Y-132824189D01*
X180075993Y-133039479D01*
X180134326Y-133190261D01*
X180135741Y-133193055D01*
X180135744Y-133193063D01*
X180238885Y-133396804D01*
X180313023Y-133543255D01*
X180525895Y-133876755D01*
X180770838Y-134187463D01*
X180773013Y-134189719D01*
X180773018Y-134189725D01*
X180888217Y-134309225D01*
X181045429Y-134472308D01*
X181047822Y-134474341D01*
X181344559Y-134726438D01*
X181344567Y-134726445D01*
X181346954Y-134728472D01*
X181349534Y-134730255D01*
X181669857Y-134951645D01*
X181669866Y-134951650D01*
X181672429Y-134953422D01*
X181675164Y-134954935D01*
X181675169Y-134954938D01*
X181839957Y-135046093D01*
X182018638Y-135144934D01*
X182021507Y-135146167D01*
X182021518Y-135146172D01*
X182379287Y-135299881D01*
X182382155Y-135301113D01*
X182385132Y-135302054D01*
X182385136Y-135302056D01*
X182659624Y-135388865D01*
X182718542Y-135428477D01*
X182746692Y-135493654D01*
X182735135Y-135563704D01*
X182687541Y-135616386D01*
X182621630Y-135635000D01*
X137297194Y-135635000D01*
X137229073Y-135614998D01*
X137182580Y-135561342D01*
X137172476Y-135491068D01*
X137201970Y-135426488D01*
X137266179Y-135386877D01*
X137310839Y-135375535D01*
X137310842Y-135375534D01*
X137313882Y-135374762D01*
X137336511Y-135366548D01*
X137682849Y-135240834D01*
X137682859Y-135240830D01*
X137685787Y-135239767D01*
X138042446Y-135068502D01*
X138380331Y-134862661D01*
X138696101Y-134624279D01*
X138698383Y-134622169D01*
X138698392Y-134622162D01*
X138984337Y-134357836D01*
X138986634Y-134355713D01*
X138988711Y-134353370D01*
X139246972Y-134061971D01*
X139246977Y-134061965D01*
X139249056Y-134059619D01*
X139480773Y-133738926D01*
X139679493Y-133396804D01*
X139685754Y-133383035D01*
X139841959Y-133039479D01*
X139841960Y-133039476D01*
X139843251Y-133036637D01*
X139970428Y-132661987D01*
X140059766Y-132276557D01*
X140110381Y-131884161D01*
X140121773Y-131488678D01*
X140093830Y-131094018D01*
X140026827Y-130704085D01*
X139921428Y-130322735D01*
X139838107Y-130107363D01*
X139779809Y-129956672D01*
X139779807Y-129956667D01*
X139778674Y-129953739D01*
X139675554Y-129750037D01*
X139601396Y-129603548D01*
X139599977Y-129600745D01*
X139387105Y-129267245D01*
X139142162Y-128956537D01*
X139139987Y-128954281D01*
X139139982Y-128954275D01*
X138977922Y-128786164D01*
X138867571Y-128671692D01*
X138864999Y-128669507D01*
X138568441Y-128417562D01*
X138568433Y-128417555D01*
X138566046Y-128415528D01*
X138371891Y-128281339D01*
X138243143Y-128192355D01*
X138243134Y-128192350D01*
X138240571Y-128190578D01*
X138237836Y-128189065D01*
X138237831Y-128189062D01*
X138030080Y-128074141D01*
X137894362Y-127999066D01*
X137891493Y-127997833D01*
X137891482Y-127997828D01*
X137533713Y-127844119D01*
X137533710Y-127844118D01*
X137530845Y-127842887D01*
X137527868Y-127841946D01*
X137527864Y-127841944D01*
X137399089Y-127801218D01*
X137153613Y-127723584D01*
X136766397Y-127642338D01*
X136763279Y-127642002D01*
X136375478Y-127600215D01*
X136375475Y-127600215D01*
X136373027Y-127599951D01*
X136370564Y-127599880D01*
X136370563Y-127599880D01*
X136366914Y-127599775D01*
X136315709Y-127598300D01*
X136044648Y-127598300D01*
X136043085Y-127598378D01*
X136043077Y-127598378D01*
X135946709Y-127603176D01*
X135748842Y-127613026D01*
X135745757Y-127613490D01*
X135745755Y-127613490D01*
X135556110Y-127642002D01*
X135357591Y-127671848D01*
X135354556Y-127672619D01*
X135354555Y-127672619D01*
X134977161Y-127768465D01*
X134977158Y-127768466D01*
X134974118Y-127769238D01*
X134971171Y-127770308D01*
X134971170Y-127770308D01*
X134605151Y-127903166D01*
X134605141Y-127903170D01*
X134602213Y-127904233D01*
X134245554Y-128075498D01*
X133907669Y-128281339D01*
X133591899Y-128519721D01*
X133589617Y-128521831D01*
X133589608Y-128521838D01*
X133429697Y-128669659D01*
X133301366Y-128788287D01*
X133299294Y-128790625D01*
X133299289Y-128790630D01*
X133041028Y-129082029D01*
X133041023Y-129082035D01*
X133038944Y-129084381D01*
X132807227Y-129405074D01*
X132608507Y-129747196D01*
X132607217Y-129750033D01*
X132607215Y-129750037D01*
X132513264Y-129956672D01*
X132444749Y-130107363D01*
X132443745Y-130110320D01*
X132443743Y-130110326D01*
X132326313Y-130456262D01*
X132285476Y-130514339D01*
X132219723Y-130541117D01*
X132149931Y-130528096D01*
X132098258Y-130479409D01*
X132081000Y-130415761D01*
X132081000Y-123952000D01*
X146079318Y-123952000D01*
X146099956Y-124108762D01*
X146160464Y-124254841D01*
X146256718Y-124380282D01*
X146382159Y-124476536D01*
X146528238Y-124537044D01*
X146685000Y-124557682D01*
X146693188Y-124556604D01*
X146833574Y-124538122D01*
X146841762Y-124537044D01*
X146987841Y-124476536D01*
X147113282Y-124380282D01*
X147118308Y-124373732D01*
X147118311Y-124373729D01*
X147152789Y-124328796D01*
X147210127Y-124286929D01*
X147252751Y-124279500D01*
X148657249Y-124279500D01*
X148725370Y-124299502D01*
X148757211Y-124328796D01*
X148791689Y-124373729D01*
X148791692Y-124373732D01*
X148796718Y-124380282D01*
X148922159Y-124476536D01*
X149068238Y-124537044D01*
X149225000Y-124557682D01*
X149233188Y-124556604D01*
X149373574Y-124538122D01*
X149381762Y-124537044D01*
X149527841Y-124476536D01*
X149653282Y-124380282D01*
X149749536Y-124254841D01*
X149810044Y-124108762D01*
X149830682Y-123952000D01*
X149810044Y-123795238D01*
X149749536Y-123649159D01*
X149653282Y-123523718D01*
X149527841Y-123427464D01*
X149381762Y-123366956D01*
X149225000Y-123346318D01*
X149068238Y-123366956D01*
X148922159Y-123427464D01*
X148796718Y-123523718D01*
X148791692Y-123530268D01*
X148791689Y-123530271D01*
X148757211Y-123575204D01*
X148699873Y-123617071D01*
X148657249Y-123624500D01*
X147252751Y-123624500D01*
X147184630Y-123604498D01*
X147152789Y-123575204D01*
X147118311Y-123530271D01*
X147118308Y-123530268D01*
X147113282Y-123523718D01*
X146987841Y-123427464D01*
X146841762Y-123366956D01*
X146685000Y-123346318D01*
X146528238Y-123366956D01*
X146382159Y-123427464D01*
X146256718Y-123523718D01*
X146160464Y-123649159D01*
X146099956Y-123795238D01*
X146079318Y-123952000D01*
X132081000Y-123952000D01*
X132081000Y-90692000D01*
X134889318Y-90692000D01*
X134909956Y-90848762D01*
X134917909Y-90867963D01*
X134927500Y-90916180D01*
X134927500Y-99512588D01*
X134924201Y-99537646D01*
X134923956Y-99538238D01*
X134903318Y-99695000D01*
X134923956Y-99851762D01*
X134924201Y-99852354D01*
X134927500Y-99877412D01*
X134927500Y-108021588D01*
X134924201Y-108046646D01*
X134923956Y-108047238D01*
X134903318Y-108204000D01*
X134904396Y-108212188D01*
X134921116Y-108339188D01*
X134923956Y-108360762D01*
X134924201Y-108361354D01*
X134927500Y-108386412D01*
X134927500Y-119197588D01*
X134924201Y-119222646D01*
X134923956Y-119223238D01*
X134903318Y-119380000D01*
X134923956Y-119536762D01*
X134984464Y-119682841D01*
X135080718Y-119808282D01*
X135206159Y-119904536D01*
X135352238Y-119965044D01*
X135509000Y-119985682D01*
X135517188Y-119984604D01*
X135657574Y-119966122D01*
X135665762Y-119965044D01*
X135811841Y-119904536D01*
X135937282Y-119808282D01*
X136033536Y-119682841D01*
X136094044Y-119536762D01*
X136114682Y-119380000D01*
X136094044Y-119223238D01*
X136093799Y-119222646D01*
X136090500Y-119197588D01*
X136090500Y-117348000D01*
X139475318Y-117348000D01*
X139495956Y-117504762D01*
X139556464Y-117650841D01*
X139652718Y-117776282D01*
X139778159Y-117872536D01*
X139924238Y-117933044D01*
X140081000Y-117953682D01*
X140089188Y-117952604D01*
X140229574Y-117934122D01*
X140237762Y-117933044D01*
X140383841Y-117872536D01*
X140509282Y-117776282D01*
X140514308Y-117769732D01*
X140514311Y-117769729D01*
X140548789Y-117724796D01*
X140606127Y-117682929D01*
X140648751Y-117675500D01*
X145355249Y-117675500D01*
X145423370Y-117695502D01*
X145455211Y-117724796D01*
X145489689Y-117769729D01*
X145489692Y-117769732D01*
X145494718Y-117776282D01*
X145620159Y-117872536D01*
X145766238Y-117933044D01*
X145923000Y-117953682D01*
X145931188Y-117952604D01*
X146071574Y-117934122D01*
X146079762Y-117933044D01*
X146225841Y-117872536D01*
X146351282Y-117776282D01*
X146447536Y-117650841D01*
X146508044Y-117504762D01*
X146528682Y-117348000D01*
X146508044Y-117191238D01*
X146447536Y-117045159D01*
X146351282Y-116919718D01*
X146225841Y-116823464D01*
X146079762Y-116762956D01*
X145923000Y-116742318D01*
X145766238Y-116762956D01*
X145620159Y-116823464D01*
X145494718Y-116919718D01*
X145489692Y-116926268D01*
X145489689Y-116926271D01*
X145455211Y-116971204D01*
X145397873Y-117013071D01*
X145355249Y-117020500D01*
X140648751Y-117020500D01*
X140580630Y-117000498D01*
X140548789Y-116971204D01*
X140514311Y-116926271D01*
X140514308Y-116926268D01*
X140509282Y-116919718D01*
X140383841Y-116823464D01*
X140237762Y-116762956D01*
X140081000Y-116742318D01*
X139924238Y-116762956D01*
X139778159Y-116823464D01*
X139652718Y-116919718D01*
X139556464Y-117045159D01*
X139495956Y-117191238D01*
X139475318Y-117348000D01*
X136090500Y-117348000D01*
X136090500Y-108386412D01*
X136093799Y-108361354D01*
X136094044Y-108360762D01*
X136096885Y-108339188D01*
X136113604Y-108212188D01*
X136114682Y-108204000D01*
X136094044Y-108047238D01*
X136093799Y-108046646D01*
X136090500Y-108021588D01*
X136090500Y-107442000D01*
X142650318Y-107442000D01*
X142670956Y-107598762D01*
X142731464Y-107744841D01*
X142827718Y-107870282D01*
X142953159Y-107966536D01*
X143099238Y-108027044D01*
X143256000Y-108047682D01*
X143264188Y-108046604D01*
X143404574Y-108028122D01*
X143412762Y-108027044D01*
X143558841Y-107966536D01*
X143633480Y-107909264D01*
X143677731Y-107875309D01*
X143677732Y-107875308D01*
X143684282Y-107870282D01*
X143689308Y-107863732D01*
X143689311Y-107863729D01*
X143723789Y-107818796D01*
X143781127Y-107776929D01*
X143823751Y-107769500D01*
X146116155Y-107769500D01*
X146184276Y-107789502D01*
X146205251Y-107806405D01*
X146559963Y-108161118D01*
X146593988Y-108223430D01*
X146595789Y-108266657D01*
X146587318Y-108331000D01*
X146607956Y-108487762D01*
X146668464Y-108633841D01*
X146764718Y-108759282D01*
X146890159Y-108855536D01*
X147036238Y-108916044D01*
X147193000Y-108936682D01*
X147201188Y-108935604D01*
X147341574Y-108917122D01*
X147349762Y-108916044D01*
X147495841Y-108855536D01*
X147621282Y-108759282D01*
X147717536Y-108633841D01*
X147778044Y-108487762D01*
X147798682Y-108331000D01*
X147778044Y-108174238D01*
X147717536Y-108028159D01*
X147621282Y-107902718D01*
X147495841Y-107806464D01*
X147349762Y-107745956D01*
X147193000Y-107725318D01*
X147128658Y-107733789D01*
X147058511Y-107722850D01*
X147023118Y-107697963D01*
X146549581Y-107224427D01*
X146542154Y-107216322D01*
X146524846Y-107195695D01*
X146517760Y-107187250D01*
X146484895Y-107168275D01*
X146475635Y-107162377D01*
X146444543Y-107140606D01*
X146433899Y-107137754D01*
X146430653Y-107136240D01*
X146427285Y-107135014D01*
X146417739Y-107129503D01*
X146380368Y-107122913D01*
X146369644Y-107120536D01*
X146332984Y-107110713D01*
X146322000Y-107111674D01*
X146321999Y-107111674D01*
X146295189Y-107114020D01*
X146284206Y-107114500D01*
X143823751Y-107114500D01*
X143755630Y-107094498D01*
X143723789Y-107065204D01*
X143689311Y-107020271D01*
X143689308Y-107020268D01*
X143684282Y-107013718D01*
X143558841Y-106917464D01*
X143412762Y-106856956D01*
X143256000Y-106836318D01*
X143099238Y-106856956D01*
X142953159Y-106917464D01*
X142827718Y-107013718D01*
X142731464Y-107139159D01*
X142670956Y-107285238D01*
X142650318Y-107442000D01*
X136090500Y-107442000D01*
X136090500Y-99877412D01*
X136093799Y-99852354D01*
X136094044Y-99851762D01*
X136114682Y-99695000D01*
X136094044Y-99538238D01*
X136093799Y-99537646D01*
X136090500Y-99512588D01*
X136090500Y-90777598D01*
X136091578Y-90761152D01*
X136099604Y-90700188D01*
X136100682Y-90692000D01*
X136080044Y-90535238D01*
X136019536Y-90389159D01*
X135923282Y-90263718D01*
X135797841Y-90167464D01*
X135651762Y-90106956D01*
X135495000Y-90086318D01*
X135338238Y-90106956D01*
X135192159Y-90167464D01*
X135066718Y-90263718D01*
X134970464Y-90389159D01*
X134909956Y-90535238D01*
X134889318Y-90692000D01*
X132081000Y-90692000D01*
X132081000Y-88305248D01*
X155072500Y-88305248D01*
X155073707Y-88311316D01*
X155077004Y-88327889D01*
X155084133Y-88363731D01*
X155128448Y-88430052D01*
X155194769Y-88474367D01*
X155206938Y-88476788D01*
X155206939Y-88476788D01*
X155247184Y-88484793D01*
X155253252Y-88486000D01*
X155383000Y-88486000D01*
X155451121Y-88506002D01*
X155497614Y-88559658D01*
X155509000Y-88612000D01*
X155509000Y-98259126D01*
X155507922Y-98275572D01*
X155503982Y-98305500D01*
X155523967Y-98457302D01*
X155582560Y-98598759D01*
X155587587Y-98605310D01*
X155652362Y-98689728D01*
X155652368Y-98689734D01*
X155675769Y-98720231D01*
X155699723Y-98738612D01*
X155712104Y-98749470D01*
X157309230Y-100346595D01*
X158209830Y-101247195D01*
X158225219Y-101267250D01*
X158225464Y-101267841D01*
X158321718Y-101393282D01*
X158447159Y-101489536D01*
X158593238Y-101550044D01*
X158750000Y-101570682D01*
X158758188Y-101569604D01*
X158898576Y-101551122D01*
X158898578Y-101551121D01*
X158906762Y-101550044D01*
X158907354Y-101549799D01*
X158932412Y-101546500D01*
X162250588Y-101546500D01*
X162275646Y-101549799D01*
X162276238Y-101550044D01*
X162284422Y-101551121D01*
X162284424Y-101551122D01*
X162424812Y-101569604D01*
X162433000Y-101570682D01*
X162441188Y-101569604D01*
X162581576Y-101551122D01*
X162581578Y-101551121D01*
X162589762Y-101550044D01*
X162590354Y-101549799D01*
X162615412Y-101546500D01*
X166187588Y-101546500D01*
X166212646Y-101549799D01*
X166213238Y-101550044D01*
X166221422Y-101551121D01*
X166221424Y-101551122D01*
X166361812Y-101569604D01*
X166370000Y-101570682D01*
X166378188Y-101569604D01*
X166518574Y-101551122D01*
X166526762Y-101550044D01*
X166672841Y-101489536D01*
X166798282Y-101393282D01*
X166894536Y-101267841D01*
X166955044Y-101121762D01*
X166975682Y-100965000D01*
X166955044Y-100808238D01*
X166894536Y-100662159D01*
X166798282Y-100536718D01*
X166672841Y-100440464D01*
X166526762Y-100379956D01*
X166370000Y-100359318D01*
X166361812Y-100360396D01*
X166221424Y-100378878D01*
X166221422Y-100378879D01*
X166213238Y-100379956D01*
X166212646Y-100380201D01*
X166187588Y-100383500D01*
X162615412Y-100383500D01*
X162590354Y-100380201D01*
X162589762Y-100379956D01*
X162581578Y-100378879D01*
X162581576Y-100378878D01*
X162441188Y-100360396D01*
X162433000Y-100359318D01*
X162424812Y-100360396D01*
X162284424Y-100378878D01*
X162284422Y-100378879D01*
X162276238Y-100379956D01*
X162275646Y-100380201D01*
X162250588Y-100383500D01*
X159043055Y-100383500D01*
X158974934Y-100363498D01*
X158953960Y-100346595D01*
X156708905Y-98101539D01*
X156674879Y-98039227D01*
X156672000Y-98012444D01*
X156672000Y-88612000D01*
X156692002Y-88543879D01*
X156745658Y-88497386D01*
X156798000Y-88486000D01*
X156927748Y-88486000D01*
X156933816Y-88484793D01*
X156974061Y-88476788D01*
X156974062Y-88476788D01*
X156986231Y-88474367D01*
X157052552Y-88430052D01*
X157096867Y-88363731D01*
X157103997Y-88327889D01*
X157107293Y-88311316D01*
X157108500Y-88305248D01*
X157108500Y-87453718D01*
X160147674Y-87453718D01*
X160164379Y-87652658D01*
X160219407Y-87844564D01*
X160222226Y-87850049D01*
X160307845Y-88016645D01*
X160307848Y-88016650D01*
X160310663Y-88022127D01*
X160434669Y-88178584D01*
X160586702Y-88307975D01*
X160760973Y-88405371D01*
X160950842Y-88467063D01*
X161149077Y-88490702D01*
X161155212Y-88490230D01*
X161155214Y-88490230D01*
X161341988Y-88475858D01*
X161341993Y-88475857D01*
X161348129Y-88475385D01*
X161354059Y-88473729D01*
X161354061Y-88473729D01*
X161510494Y-88430052D01*
X161540415Y-88421698D01*
X161568968Y-88407275D01*
X161713110Y-88334464D01*
X161713112Y-88334463D01*
X161718611Y-88331685D01*
X161875930Y-88208774D01*
X162006379Y-88057648D01*
X162023814Y-88026958D01*
X162101946Y-87889418D01*
X162101947Y-87889417D01*
X162104989Y-87884061D01*
X162116304Y-87850049D01*
X162166059Y-87700480D01*
X162168006Y-87694628D01*
X162193027Y-87496562D01*
X162193426Y-87468000D01*
X162192026Y-87453718D01*
X162687674Y-87453718D01*
X162704379Y-87652658D01*
X162759407Y-87844564D01*
X162762226Y-87850049D01*
X162847845Y-88016645D01*
X162847848Y-88016650D01*
X162850663Y-88022127D01*
X162974669Y-88178584D01*
X163126702Y-88307975D01*
X163300973Y-88405371D01*
X163490842Y-88467063D01*
X163689077Y-88490702D01*
X163695212Y-88490230D01*
X163695214Y-88490230D01*
X163881988Y-88475858D01*
X163881993Y-88475857D01*
X163888129Y-88475385D01*
X163894059Y-88473729D01*
X163894061Y-88473729D01*
X164050494Y-88430052D01*
X164080415Y-88421698D01*
X164108968Y-88407275D01*
X164253110Y-88334464D01*
X164253112Y-88334463D01*
X164258611Y-88331685D01*
X164415930Y-88208774D01*
X164546379Y-88057648D01*
X164563814Y-88026958D01*
X164641946Y-87889418D01*
X164641947Y-87889417D01*
X164644989Y-87884061D01*
X164656304Y-87850049D01*
X164706059Y-87700480D01*
X164708006Y-87694628D01*
X164733027Y-87496562D01*
X164733426Y-87468000D01*
X164732026Y-87453718D01*
X165227674Y-87453718D01*
X165244379Y-87652658D01*
X165299407Y-87844564D01*
X165302226Y-87850049D01*
X165387845Y-88016645D01*
X165387848Y-88016650D01*
X165390663Y-88022127D01*
X165514669Y-88178584D01*
X165666702Y-88307975D01*
X165840973Y-88405371D01*
X166030842Y-88467063D01*
X166229077Y-88490702D01*
X166235212Y-88490230D01*
X166235214Y-88490230D01*
X166421988Y-88475858D01*
X166421993Y-88475857D01*
X166428129Y-88475385D01*
X166434059Y-88473729D01*
X166434061Y-88473729D01*
X166590494Y-88430052D01*
X166620415Y-88421698D01*
X166648968Y-88407275D01*
X166793110Y-88334464D01*
X166793112Y-88334463D01*
X166798611Y-88331685D01*
X166955930Y-88208774D01*
X167086379Y-88057648D01*
X167103814Y-88026958D01*
X167181946Y-87889418D01*
X167181947Y-87889417D01*
X167184989Y-87884061D01*
X167196304Y-87850049D01*
X167246059Y-87700480D01*
X167248006Y-87694628D01*
X167273027Y-87496562D01*
X167273426Y-87468000D01*
X167272026Y-87453718D01*
X167767674Y-87453718D01*
X167784379Y-87652658D01*
X167839407Y-87844564D01*
X167842226Y-87850049D01*
X167927845Y-88016645D01*
X167927848Y-88016650D01*
X167930663Y-88022127D01*
X168054669Y-88178584D01*
X168206702Y-88307975D01*
X168380973Y-88405371D01*
X168570842Y-88467063D01*
X168769077Y-88490702D01*
X168775212Y-88490230D01*
X168775214Y-88490230D01*
X168961988Y-88475858D01*
X168961993Y-88475857D01*
X168968129Y-88475385D01*
X168974059Y-88473729D01*
X168974061Y-88473729D01*
X169130494Y-88430052D01*
X169160415Y-88421698D01*
X169188968Y-88407275D01*
X169333110Y-88334464D01*
X169333112Y-88334463D01*
X169338611Y-88331685D01*
X169495930Y-88208774D01*
X169626379Y-88057648D01*
X169643814Y-88026958D01*
X169721946Y-87889418D01*
X169721947Y-87889417D01*
X169724989Y-87884061D01*
X169736304Y-87850049D01*
X169786059Y-87700480D01*
X169788006Y-87694628D01*
X169813027Y-87496562D01*
X169813426Y-87468000D01*
X169793945Y-87269313D01*
X169736242Y-87078193D01*
X169642517Y-86901921D01*
X169638622Y-86897145D01*
X169520233Y-86751986D01*
X169520230Y-86751983D01*
X169516338Y-86747211D01*
X169499508Y-86733288D01*
X169367263Y-86623885D01*
X169367259Y-86623883D01*
X169362513Y-86619956D01*
X169186900Y-86525002D01*
X169091544Y-86495484D01*
X169002075Y-86467789D01*
X169002072Y-86467788D01*
X168996188Y-86465967D01*
X168990063Y-86465323D01*
X168990062Y-86465323D01*
X168803769Y-86445743D01*
X168803768Y-86445743D01*
X168797641Y-86445099D01*
X168730526Y-86451207D01*
X168604962Y-86462634D01*
X168604959Y-86462635D01*
X168598823Y-86463193D01*
X168592917Y-86464931D01*
X168592913Y-86464932D01*
X168476968Y-86499057D01*
X168407305Y-86519560D01*
X168401848Y-86522413D01*
X168401845Y-86522414D01*
X168326214Y-86561953D01*
X168230383Y-86612052D01*
X168074796Y-86737147D01*
X167946470Y-86890081D01*
X167943506Y-86895473D01*
X167943503Y-86895477D01*
X167936969Y-86907363D01*
X167850293Y-87065027D01*
X167789927Y-87255322D01*
X167767674Y-87453718D01*
X167272026Y-87453718D01*
X167253945Y-87269313D01*
X167196242Y-87078193D01*
X167102517Y-86901921D01*
X167098622Y-86897145D01*
X166980233Y-86751986D01*
X166980230Y-86751983D01*
X166976338Y-86747211D01*
X166959508Y-86733288D01*
X166827263Y-86623885D01*
X166827259Y-86623883D01*
X166822513Y-86619956D01*
X166646900Y-86525002D01*
X166551544Y-86495484D01*
X166462075Y-86467789D01*
X166462072Y-86467788D01*
X166456188Y-86465967D01*
X166450063Y-86465323D01*
X166450062Y-86465323D01*
X166263769Y-86445743D01*
X166263768Y-86445743D01*
X166257641Y-86445099D01*
X166190526Y-86451207D01*
X166064962Y-86462634D01*
X166064959Y-86462635D01*
X166058823Y-86463193D01*
X166052917Y-86464931D01*
X166052913Y-86464932D01*
X165936968Y-86499057D01*
X165867305Y-86519560D01*
X165861848Y-86522413D01*
X165861845Y-86522414D01*
X165786214Y-86561953D01*
X165690383Y-86612052D01*
X165534796Y-86737147D01*
X165406470Y-86890081D01*
X165403506Y-86895473D01*
X165403503Y-86895477D01*
X165396969Y-86907363D01*
X165310293Y-87065027D01*
X165249927Y-87255322D01*
X165227674Y-87453718D01*
X164732026Y-87453718D01*
X164713945Y-87269313D01*
X164656242Y-87078193D01*
X164562517Y-86901921D01*
X164558622Y-86897145D01*
X164440233Y-86751986D01*
X164440230Y-86751983D01*
X164436338Y-86747211D01*
X164419508Y-86733288D01*
X164287263Y-86623885D01*
X164287259Y-86623883D01*
X164282513Y-86619956D01*
X164106900Y-86525002D01*
X164011544Y-86495484D01*
X163922075Y-86467789D01*
X163922072Y-86467788D01*
X163916188Y-86465967D01*
X163910063Y-86465323D01*
X163910062Y-86465323D01*
X163723769Y-86445743D01*
X163723768Y-86445743D01*
X163717641Y-86445099D01*
X163650526Y-86451207D01*
X163524962Y-86462634D01*
X163524959Y-86462635D01*
X163518823Y-86463193D01*
X163512917Y-86464931D01*
X163512913Y-86464932D01*
X163396968Y-86499057D01*
X163327305Y-86519560D01*
X163321848Y-86522413D01*
X163321845Y-86522414D01*
X163246214Y-86561953D01*
X163150383Y-86612052D01*
X162994796Y-86737147D01*
X162866470Y-86890081D01*
X162863506Y-86895473D01*
X162863503Y-86895477D01*
X162856969Y-86907363D01*
X162770293Y-87065027D01*
X162709927Y-87255322D01*
X162687674Y-87453718D01*
X162192026Y-87453718D01*
X162173945Y-87269313D01*
X162116242Y-87078193D01*
X162022517Y-86901921D01*
X162018622Y-86897145D01*
X161900233Y-86751986D01*
X161900230Y-86751983D01*
X161896338Y-86747211D01*
X161879508Y-86733288D01*
X161747263Y-86623885D01*
X161747259Y-86623883D01*
X161742513Y-86619956D01*
X161566900Y-86525002D01*
X161471544Y-86495484D01*
X161382075Y-86467789D01*
X161382072Y-86467788D01*
X161376188Y-86465967D01*
X161370063Y-86465323D01*
X161370062Y-86465323D01*
X161183769Y-86445743D01*
X161183768Y-86445743D01*
X161177641Y-86445099D01*
X161110526Y-86451207D01*
X160984962Y-86462634D01*
X160984959Y-86462635D01*
X160978823Y-86463193D01*
X160972917Y-86464931D01*
X160972913Y-86464932D01*
X160856968Y-86499057D01*
X160787305Y-86519560D01*
X160781848Y-86522413D01*
X160781845Y-86522414D01*
X160706214Y-86561953D01*
X160610383Y-86612052D01*
X160454796Y-86737147D01*
X160326470Y-86890081D01*
X160323506Y-86895473D01*
X160323503Y-86895477D01*
X160316969Y-86907363D01*
X160230293Y-87065027D01*
X160169927Y-87255322D01*
X160147674Y-87453718D01*
X157108500Y-87453718D01*
X157108500Y-86630752D01*
X157096867Y-86572269D01*
X157052552Y-86505948D01*
X156986231Y-86461633D01*
X156974062Y-86459212D01*
X156974061Y-86459212D01*
X156933816Y-86451207D01*
X156927748Y-86450000D01*
X155253252Y-86450000D01*
X155247184Y-86451207D01*
X155206939Y-86459212D01*
X155206938Y-86459212D01*
X155194769Y-86461633D01*
X155128448Y-86505948D01*
X155084133Y-86572269D01*
X155072500Y-86630752D01*
X155072500Y-88305248D01*
X132081000Y-88305248D01*
X132081000Y-83694889D01*
X132101002Y-83626768D01*
X132154658Y-83580275D01*
X132224932Y-83570171D01*
X132289512Y-83599665D01*
X132328447Y-83661323D01*
X132366572Y-83799265D01*
X132367702Y-83802185D01*
X132367703Y-83802189D01*
X132450993Y-84017479D01*
X132509326Y-84168261D01*
X132510741Y-84171055D01*
X132510744Y-84171063D01*
X132613885Y-84374804D01*
X132688023Y-84521255D01*
X132900895Y-84854755D01*
X133145838Y-85165463D01*
X133148013Y-85167719D01*
X133148018Y-85167725D01*
X133271468Y-85295784D01*
X133420429Y-85450308D01*
X133422822Y-85452341D01*
X133719559Y-85704438D01*
X133719567Y-85704445D01*
X133721954Y-85706472D01*
X133724534Y-85708255D01*
X134044857Y-85929645D01*
X134044866Y-85929650D01*
X134047429Y-85931422D01*
X134050164Y-85932935D01*
X134050169Y-85932938D01*
X134214957Y-86024093D01*
X134393638Y-86122934D01*
X134396507Y-86124167D01*
X134396518Y-86124172D01*
X134754287Y-86277881D01*
X134757155Y-86279113D01*
X134760132Y-86280054D01*
X134760136Y-86280056D01*
X134888911Y-86320782D01*
X135134387Y-86398416D01*
X135521603Y-86479662D01*
X135524721Y-86479998D01*
X135912522Y-86521785D01*
X135912525Y-86521785D01*
X135914973Y-86522049D01*
X135917436Y-86522120D01*
X135917437Y-86522120D01*
X135921086Y-86522225D01*
X135972291Y-86523700D01*
X136243352Y-86523700D01*
X136244915Y-86523622D01*
X136244923Y-86523622D01*
X136361445Y-86517821D01*
X136539158Y-86508974D01*
X136542243Y-86508510D01*
X136542245Y-86508510D01*
X136927316Y-86450617D01*
X136930409Y-86450152D01*
X136933445Y-86449381D01*
X137310839Y-86353535D01*
X137310842Y-86353534D01*
X137313882Y-86352762D01*
X137316830Y-86351692D01*
X137682849Y-86218834D01*
X137682859Y-86218830D01*
X137685787Y-86217767D01*
X138042446Y-86046502D01*
X138380331Y-85840661D01*
X138696101Y-85602279D01*
X138698383Y-85600169D01*
X138698392Y-85600162D01*
X138984337Y-85335836D01*
X138986634Y-85333713D01*
X139135751Y-85165463D01*
X139246972Y-85039971D01*
X139246977Y-85039965D01*
X139249056Y-85037619D01*
X139480773Y-84716926D01*
X139679493Y-84374804D01*
X139772129Y-84171063D01*
X139841959Y-84017479D01*
X139841960Y-84017476D01*
X139843251Y-84014637D01*
X139970428Y-83639987D01*
X140059766Y-83254557D01*
X140110381Y-82862161D01*
X140121773Y-82466678D01*
X140101130Y-82175114D01*
X140094052Y-82075154D01*
X140093830Y-82072018D01*
X140026827Y-81682085D01*
X139921428Y-81300735D01*
X139838107Y-81085363D01*
X139779809Y-80934672D01*
X139779807Y-80934667D01*
X139778674Y-80931739D01*
X139701100Y-80778500D01*
X139601396Y-80581548D01*
X139599977Y-80578745D01*
X139536354Y-80479068D01*
X139388792Y-80247888D01*
X139387105Y-80245245D01*
X139142162Y-79934537D01*
X139139987Y-79932281D01*
X139139982Y-79932275D01*
X138878090Y-79660604D01*
X138867571Y-79649692D01*
X138864999Y-79647507D01*
X138568441Y-79395562D01*
X138568433Y-79395555D01*
X138566046Y-79393528D01*
X138371891Y-79259339D01*
X138243143Y-79170355D01*
X138243134Y-79170350D01*
X138240571Y-79168578D01*
X138237836Y-79167065D01*
X138237831Y-79167062D01*
X138030080Y-79052141D01*
X137894362Y-78977066D01*
X137891493Y-78975833D01*
X137891482Y-78975828D01*
X137533713Y-78822119D01*
X137533710Y-78822118D01*
X137530845Y-78820887D01*
X137527868Y-78819946D01*
X137527864Y-78819944D01*
X137253376Y-78733135D01*
X137194458Y-78693523D01*
X137166308Y-78628346D01*
X137177865Y-78558296D01*
X137225459Y-78505614D01*
X137291370Y-78487000D01*
X152624748Y-78487000D01*
X152692869Y-78507002D01*
G37*
%TD.AperFunction*%
M02*
