%TF.GenerationSoftware,KiCad,Pcbnew,(6.0.10)*%
%TF.CreationDate,2022-12-30T01:06:13-06:00*%
%TF.ProjectId,FluorometerLightSource,466c756f-726f-46d6-9574-65724c696768,rev?*%
%TF.SameCoordinates,Original*%
%TF.FileFunction,Legend,Bot*%
%TF.FilePolarity,Positive*%
%FSLAX46Y46*%
G04 Gerber Fmt 4.6, Leading zero omitted, Abs format (unit mm)*
G04 Created by KiCad (PCBNEW (6.0.10)) date 2022-12-30 01:06:13*
%MOMM*%
%LPD*%
G01*
G04 APERTURE LIST*
%ADD10C,0.150000*%
%ADD11C,2.946400*%
%ADD12C,3.400000*%
%ADD13R,1.635000X1.635000*%
%ADD14C,1.635000*%
G04 APERTURE END LIST*
D10*
X153639333Y-80192571D02*
X154401238Y-80192571D01*
X154020285Y-79811619D02*
X154020285Y-80573523D01*
X155306000Y-80906857D02*
X156163142Y-79621142D01*
X157067904Y-80192571D02*
X157829809Y-80192571D01*
X158734571Y-80906857D02*
X159591714Y-79621142D01*
X159686952Y-80716380D02*
X159734571Y-80764000D01*
X159829809Y-80811619D01*
X160067904Y-80811619D01*
X160163142Y-80764000D01*
X160210761Y-80716380D01*
X160258380Y-80621142D01*
X160258380Y-80525904D01*
X160210761Y-80383047D01*
X159639333Y-79811619D01*
X160258380Y-79811619D01*
X161115523Y-80811619D02*
X160925047Y-80811619D01*
X160829809Y-80764000D01*
X160782190Y-80716380D01*
X160686952Y-80573523D01*
X160639333Y-80383047D01*
X160639333Y-80002095D01*
X160686952Y-79906857D01*
X160734571Y-79859238D01*
X160829809Y-79811619D01*
X161020285Y-79811619D01*
X161115523Y-79859238D01*
X161163142Y-79906857D01*
X161210761Y-80002095D01*
X161210761Y-80240190D01*
X161163142Y-80335428D01*
X161115523Y-80383047D01*
X161020285Y-80430666D01*
X160829809Y-80430666D01*
X160734571Y-80383047D01*
X160686952Y-80335428D01*
X160639333Y-80240190D01*
X161829809Y-80811619D02*
X161925047Y-80811619D01*
X162020285Y-80764000D01*
X162067904Y-80716380D01*
X162115523Y-80621142D01*
X162163142Y-80430666D01*
X162163142Y-80192571D01*
X162115523Y-80002095D01*
X162067904Y-79906857D01*
X162020285Y-79859238D01*
X161925047Y-79811619D01*
X161829809Y-79811619D01*
X161734571Y-79859238D01*
X161686952Y-79906857D01*
X161639333Y-80002095D01*
X161591714Y-80192571D01*
X161591714Y-80430666D01*
X161639333Y-80621142D01*
X161686952Y-80716380D01*
X161734571Y-80764000D01*
X161829809Y-80811619D01*
X162258380Y-80906857D02*
X163115523Y-79621142D01*
X163210761Y-80716380D02*
X163258380Y-80764000D01*
X163353619Y-80811619D01*
X163591714Y-80811619D01*
X163686952Y-80764000D01*
X163734571Y-80716380D01*
X163782190Y-80621142D01*
X163782190Y-80525904D01*
X163734571Y-80383047D01*
X163163142Y-79811619D01*
X163782190Y-79811619D01*
X164686952Y-80811619D02*
X164210761Y-80811619D01*
X164163142Y-80335428D01*
X164210761Y-80383047D01*
X164306000Y-80430666D01*
X164544095Y-80430666D01*
X164639333Y-80383047D01*
X164686952Y-80335428D01*
X164734571Y-80240190D01*
X164734571Y-80002095D01*
X164686952Y-79906857D01*
X164639333Y-79859238D01*
X164544095Y-79811619D01*
X164306000Y-79811619D01*
X164210761Y-79859238D01*
X164163142Y-79906857D01*
X164829809Y-80906857D02*
X165686952Y-79621142D01*
X165782190Y-80716380D02*
X165829809Y-80764000D01*
X165925047Y-80811619D01*
X166163142Y-80811619D01*
X166258380Y-80764000D01*
X166306000Y-80716380D01*
X166353619Y-80621142D01*
X166353619Y-80525904D01*
X166306000Y-80383047D01*
X165734571Y-79811619D01*
X166353619Y-79811619D01*
X166925047Y-80383047D02*
X166829809Y-80430666D01*
X166782190Y-80478285D01*
X166734571Y-80573523D01*
X166734571Y-80621142D01*
X166782190Y-80716380D01*
X166829809Y-80764000D01*
X166925047Y-80811619D01*
X167115523Y-80811619D01*
X167210761Y-80764000D01*
X167258380Y-80716380D01*
X167306000Y-80621142D01*
X167306000Y-80573523D01*
X167258380Y-80478285D01*
X167210761Y-80430666D01*
X167115523Y-80383047D01*
X166925047Y-80383047D01*
X166829809Y-80335428D01*
X166782190Y-80287809D01*
X166734571Y-80192571D01*
X166734571Y-80002095D01*
X166782190Y-79906857D01*
X166829809Y-79859238D01*
X166925047Y-79811619D01*
X167115523Y-79811619D01*
X167210761Y-79859238D01*
X167258380Y-79906857D01*
X167306000Y-80002095D01*
X167306000Y-80192571D01*
X167258380Y-80287809D01*
X167210761Y-80335428D01*
X167115523Y-80383047D01*
X167925047Y-80811619D02*
X168020285Y-80811619D01*
X168115523Y-80764000D01*
X168163142Y-80716380D01*
X168210761Y-80621142D01*
X168258380Y-80430666D01*
X168258380Y-80192571D01*
X168210761Y-80002095D01*
X168163142Y-79906857D01*
X168115523Y-79859238D01*
X168020285Y-79811619D01*
X167925047Y-79811619D01*
X167829809Y-79859238D01*
X167782190Y-79906857D01*
X167734571Y-80002095D01*
X167686952Y-80192571D01*
X167686952Y-80430666D01*
X167734571Y-80621142D01*
X167782190Y-80716380D01*
X167829809Y-80764000D01*
X167925047Y-80811619D01*
X168353619Y-80906857D02*
X169210761Y-79621142D01*
X169258380Y-80811619D02*
X169877428Y-80811619D01*
X169544095Y-80430666D01*
X169686952Y-80430666D01*
X169782190Y-80383047D01*
X169829809Y-80335428D01*
X169877428Y-80240190D01*
X169877428Y-80002095D01*
X169829809Y-79906857D01*
X169782190Y-79859238D01*
X169686952Y-79811619D01*
X169401238Y-79811619D01*
X169306000Y-79859238D01*
X169258380Y-79906857D01*
X170829809Y-79811619D02*
X170258380Y-79811619D01*
X170544095Y-79811619D02*
X170544095Y-80811619D01*
X170448857Y-80668761D01*
X170353619Y-80573523D01*
X170258380Y-80525904D01*
X171734571Y-80811619D02*
X171258380Y-80811619D01*
X171210761Y-80335428D01*
X171258380Y-80383047D01*
X171353619Y-80430666D01*
X171591714Y-80430666D01*
X171686952Y-80383047D01*
X171734571Y-80335428D01*
X171782190Y-80240190D01*
X171782190Y-80002095D01*
X171734571Y-79906857D01*
X171686952Y-79859238D01*
X171591714Y-79811619D01*
X171353619Y-79811619D01*
X171258380Y-79859238D01*
X171210761Y-79906857D01*
X161639380Y-82224619D02*
X161163190Y-82224619D01*
X161163190Y-83224619D01*
X161972714Y-82748428D02*
X162306047Y-82748428D01*
X162448904Y-82224619D02*
X161972714Y-82224619D01*
X161972714Y-83224619D01*
X162448904Y-83224619D01*
X162877476Y-82224619D02*
X162877476Y-83224619D01*
X163115571Y-83224619D01*
X163258428Y-83177000D01*
X163353666Y-83081761D01*
X163401285Y-82986523D01*
X163448904Y-82796047D01*
X163448904Y-82653190D01*
X163401285Y-82462714D01*
X163353666Y-82367476D01*
X163258428Y-82272238D01*
X163115571Y-82224619D01*
X162877476Y-82224619D01*
X163829857Y-82272238D02*
X163925095Y-82224619D01*
X164115571Y-82224619D01*
X164210809Y-82272238D01*
X164258428Y-82367476D01*
X164258428Y-82415095D01*
X164210809Y-82510333D01*
X164115571Y-82557952D01*
X163972714Y-82557952D01*
X163877476Y-82605571D01*
X163829857Y-82700809D01*
X163829857Y-82748428D01*
X163877476Y-82843666D01*
X163972714Y-82891285D01*
X164115571Y-82891285D01*
X164210809Y-82843666D01*
%LPC*%
D11*
X136144000Y-82550000D03*
X183769000Y-131572000D03*
X136144000Y-131572000D03*
X183769000Y-82550000D03*
D12*
X170190500Y-78828000D03*
X154690500Y-78828000D03*
D13*
X156090500Y-87468000D03*
D14*
X158630500Y-87468000D03*
X161170500Y-87468000D03*
X163710500Y-87468000D03*
X166250500Y-87468000D03*
X168790500Y-87468000D03*
M02*
