G04 #@! TF.GenerationSoftware,KiCad,Pcbnew,(5.1.5)-3*
G04 #@! TF.CreationDate,2020-11-27T23:55:09-06:00*
G04 #@! TF.ProjectId,SRA_Sensor_Board,5352415f-5365-46e7-936f-725f426f6172,rev?*
G04 #@! TF.SameCoordinates,Original*
G04 #@! TF.FileFunction,Legend,Bot*
G04 #@! TF.FilePolarity,Positive*
%FSLAX46Y46*%
G04 Gerber Fmt 4.6, Leading zero omitted, Abs format (unit mm)*
G04 Created by KiCad (PCBNEW (5.1.5)-3) date 2020-11-27 23:55:09*
%MOMM*%
%LPD*%
G04 APERTURE LIST*
%ADD10C,0.150000*%
%ADD11C,0.254000*%
G04 APERTURE END LIST*
D10*
X146311619Y-76398380D02*
X146311619Y-75398380D01*
X145740190Y-76398380D01*
X145740190Y-75398380D01*
X145311619Y-75493619D02*
X145264000Y-75446000D01*
X145168761Y-75398380D01*
X144930666Y-75398380D01*
X144835428Y-75446000D01*
X144787809Y-75493619D01*
X144740190Y-75588857D01*
X144740190Y-75684095D01*
X144787809Y-75826952D01*
X145359238Y-76398380D01*
X144740190Y-76398380D01*
X144121142Y-75398380D02*
X143930666Y-75398380D01*
X143835428Y-75446000D01*
X143740190Y-75541238D01*
X143692571Y-75731714D01*
X143692571Y-76065047D01*
X143740190Y-76255523D01*
X143835428Y-76350761D01*
X143930666Y-76398380D01*
X144121142Y-76398380D01*
X144216380Y-76350761D01*
X144311619Y-76255523D01*
X144359238Y-76065047D01*
X144359238Y-75731714D01*
X144311619Y-75541238D01*
X144216380Y-75446000D01*
X144121142Y-75398380D01*
X143502095Y-76493619D02*
X142740190Y-76493619D01*
X142549714Y-76350761D02*
X142406857Y-76398380D01*
X142168761Y-76398380D01*
X142073523Y-76350761D01*
X142025904Y-76303142D01*
X141978285Y-76207904D01*
X141978285Y-76112666D01*
X142025904Y-76017428D01*
X142073523Y-75969809D01*
X142168761Y-75922190D01*
X142359238Y-75874571D01*
X142454476Y-75826952D01*
X142502095Y-75779333D01*
X142549714Y-75684095D01*
X142549714Y-75588857D01*
X142502095Y-75493619D01*
X142454476Y-75446000D01*
X142359238Y-75398380D01*
X142121142Y-75398380D01*
X141978285Y-75446000D01*
X141073523Y-76398380D02*
X141549714Y-76398380D01*
X141549714Y-75398380D01*
X146438619Y-69032380D02*
X146438619Y-68032380D01*
X145867190Y-69032380D01*
X145867190Y-68032380D01*
X145200523Y-68032380D02*
X145010047Y-68032380D01*
X144914809Y-68080000D01*
X144819571Y-68175238D01*
X144771952Y-68365714D01*
X144771952Y-68699047D01*
X144819571Y-68889523D01*
X144914809Y-68984761D01*
X145010047Y-69032380D01*
X145200523Y-69032380D01*
X145295761Y-68984761D01*
X145391000Y-68889523D01*
X145438619Y-68699047D01*
X145438619Y-68365714D01*
X145391000Y-68175238D01*
X145295761Y-68080000D01*
X145200523Y-68032380D01*
X144391000Y-68127619D02*
X144343380Y-68080000D01*
X144248142Y-68032380D01*
X144010047Y-68032380D01*
X143914809Y-68080000D01*
X143867190Y-68127619D01*
X143819571Y-68222857D01*
X143819571Y-68318095D01*
X143867190Y-68460952D01*
X144438619Y-69032380D01*
X143819571Y-69032380D01*
X143629095Y-69127619D02*
X142867190Y-69127619D01*
X142676714Y-68984761D02*
X142533857Y-69032380D01*
X142295761Y-69032380D01*
X142200523Y-68984761D01*
X142152904Y-68937142D01*
X142105285Y-68841904D01*
X142105285Y-68746666D01*
X142152904Y-68651428D01*
X142200523Y-68603809D01*
X142295761Y-68556190D01*
X142486238Y-68508571D01*
X142581476Y-68460952D01*
X142629095Y-68413333D01*
X142676714Y-68318095D01*
X142676714Y-68222857D01*
X142629095Y-68127619D01*
X142581476Y-68080000D01*
X142486238Y-68032380D01*
X142248142Y-68032380D01*
X142105285Y-68080000D01*
X141200523Y-69032380D02*
X141676714Y-69032380D01*
X141676714Y-68032380D01*
X146343428Y-61412380D02*
X146343428Y-60412380D01*
X145772000Y-61412380D01*
X145772000Y-60412380D01*
X145105333Y-60412380D02*
X144914857Y-60412380D01*
X144819619Y-60460000D01*
X144724380Y-60555238D01*
X144676761Y-60745714D01*
X144676761Y-61079047D01*
X144724380Y-61269523D01*
X144819619Y-61364761D01*
X144914857Y-61412380D01*
X145105333Y-61412380D01*
X145200571Y-61364761D01*
X145295809Y-61269523D01*
X145343428Y-61079047D01*
X145343428Y-60745714D01*
X145295809Y-60555238D01*
X145200571Y-60460000D01*
X145105333Y-60412380D01*
X144486285Y-61507619D02*
X143724380Y-61507619D01*
X143533904Y-61364761D02*
X143391047Y-61412380D01*
X143152952Y-61412380D01*
X143057714Y-61364761D01*
X143010095Y-61317142D01*
X142962476Y-61221904D01*
X142962476Y-61126666D01*
X143010095Y-61031428D01*
X143057714Y-60983809D01*
X143152952Y-60936190D01*
X143343428Y-60888571D01*
X143438666Y-60840952D01*
X143486285Y-60793333D01*
X143533904Y-60698095D01*
X143533904Y-60602857D01*
X143486285Y-60507619D01*
X143438666Y-60460000D01*
X143343428Y-60412380D01*
X143105333Y-60412380D01*
X142962476Y-60460000D01*
X142057714Y-61412380D02*
X142533904Y-61412380D01*
X142533904Y-60412380D01*
X124888380Y-68810142D02*
X124936000Y-68857761D01*
X125078857Y-68905380D01*
X125174095Y-68905380D01*
X125316952Y-68857761D01*
X125412190Y-68762523D01*
X125459809Y-68667285D01*
X125507428Y-68476809D01*
X125507428Y-68333952D01*
X125459809Y-68143476D01*
X125412190Y-68048238D01*
X125316952Y-67953000D01*
X125174095Y-67905380D01*
X125078857Y-67905380D01*
X124936000Y-67953000D01*
X124888380Y-68000619D01*
X124269333Y-67905380D02*
X124078857Y-67905380D01*
X123983619Y-67953000D01*
X123888380Y-68048238D01*
X123840761Y-68238714D01*
X123840761Y-68572047D01*
X123888380Y-68762523D01*
X123983619Y-68857761D01*
X124078857Y-68905380D01*
X124269333Y-68905380D01*
X124364571Y-68857761D01*
X124459809Y-68762523D01*
X124507428Y-68572047D01*
X124507428Y-68238714D01*
X124459809Y-68048238D01*
X124364571Y-67953000D01*
X124269333Y-67905380D01*
X123459809Y-68000619D02*
X123412190Y-67953000D01*
X123316952Y-67905380D01*
X123078857Y-67905380D01*
X122983619Y-67953000D01*
X122936000Y-68000619D01*
X122888380Y-68095857D01*
X122888380Y-68191095D01*
X122936000Y-68333952D01*
X123507428Y-68905380D01*
X122888380Y-68905380D01*
X122697904Y-69000619D02*
X121936000Y-69000619D01*
X121745523Y-68857761D02*
X121602666Y-68905380D01*
X121364571Y-68905380D01*
X121269333Y-68857761D01*
X121221714Y-68810142D01*
X121174095Y-68714904D01*
X121174095Y-68619666D01*
X121221714Y-68524428D01*
X121269333Y-68476809D01*
X121364571Y-68429190D01*
X121555047Y-68381571D01*
X121650285Y-68333952D01*
X121697904Y-68286333D01*
X121745523Y-68191095D01*
X121745523Y-68095857D01*
X121697904Y-68000619D01*
X121650285Y-67953000D01*
X121555047Y-67905380D01*
X121316952Y-67905380D01*
X121174095Y-67953000D01*
X120269333Y-68905380D02*
X120745523Y-68905380D01*
X120745523Y-67905380D01*
X125023333Y-60666380D02*
X124832857Y-60666380D01*
X124737619Y-60714000D01*
X124642380Y-60809238D01*
X124594761Y-60999714D01*
X124594761Y-61333047D01*
X124642380Y-61523523D01*
X124737619Y-61618761D01*
X124832857Y-61666380D01*
X125023333Y-61666380D01*
X125118571Y-61618761D01*
X125213809Y-61523523D01*
X125261428Y-61333047D01*
X125261428Y-60999714D01*
X125213809Y-60809238D01*
X125118571Y-60714000D01*
X125023333Y-60666380D01*
X124213809Y-60761619D02*
X124166190Y-60714000D01*
X124070952Y-60666380D01*
X123832857Y-60666380D01*
X123737619Y-60714000D01*
X123690000Y-60761619D01*
X123642380Y-60856857D01*
X123642380Y-60952095D01*
X123690000Y-61094952D01*
X124261428Y-61666380D01*
X123642380Y-61666380D01*
X123451904Y-61761619D02*
X122690000Y-61761619D01*
X122499523Y-61618761D02*
X122356666Y-61666380D01*
X122118571Y-61666380D01*
X122023333Y-61618761D01*
X121975714Y-61571142D01*
X121928095Y-61475904D01*
X121928095Y-61380666D01*
X121975714Y-61285428D01*
X122023333Y-61237809D01*
X122118571Y-61190190D01*
X122309047Y-61142571D01*
X122404285Y-61094952D01*
X122451904Y-61047333D01*
X122499523Y-60952095D01*
X122499523Y-60856857D01*
X122451904Y-60761619D01*
X122404285Y-60714000D01*
X122309047Y-60666380D01*
X122070952Y-60666380D01*
X121928095Y-60714000D01*
X121023333Y-61666380D02*
X121499523Y-61666380D01*
X121499523Y-60666380D01*
X99401571Y-101655619D02*
X99401571Y-102655619D01*
X99639666Y-102655619D01*
X99782523Y-102608000D01*
X99877761Y-102512761D01*
X99925380Y-102417523D01*
X99973000Y-102227047D01*
X99973000Y-102084190D01*
X99925380Y-101893714D01*
X99877761Y-101798476D01*
X99782523Y-101703238D01*
X99639666Y-101655619D01*
X99401571Y-101655619D01*
X100163476Y-101560380D02*
X100925380Y-101560380D01*
X101353952Y-102655619D02*
X101544428Y-102655619D01*
X101639666Y-102608000D01*
X101734904Y-102512761D01*
X101782523Y-102322285D01*
X101782523Y-101988952D01*
X101734904Y-101798476D01*
X101639666Y-101703238D01*
X101544428Y-101655619D01*
X101353952Y-101655619D01*
X101258714Y-101703238D01*
X101163476Y-101798476D01*
X101115857Y-101988952D01*
X101115857Y-102322285D01*
X101163476Y-102512761D01*
X101258714Y-102608000D01*
X101353952Y-102655619D01*
X102211095Y-102655619D02*
X102211095Y-101846095D01*
X102258714Y-101750857D01*
X102306333Y-101703238D01*
X102401571Y-101655619D01*
X102592047Y-101655619D01*
X102687285Y-101703238D01*
X102734904Y-101750857D01*
X102782523Y-101846095D01*
X102782523Y-102655619D01*
X103115857Y-102655619D02*
X103687285Y-102655619D01*
X103401571Y-101655619D02*
X103401571Y-102655619D01*
X100576238Y-103687619D02*
X100576238Y-104687619D01*
X100814333Y-104687619D01*
X100957190Y-104640000D01*
X101052428Y-104544761D01*
X101100047Y-104449523D01*
X101147666Y-104259047D01*
X101147666Y-104116190D01*
X101100047Y-103925714D01*
X101052428Y-103830476D01*
X100957190Y-103735238D01*
X100814333Y-103687619D01*
X100576238Y-103687619D01*
X101338142Y-103592380D02*
X102100047Y-103592380D01*
X102338142Y-103687619D02*
X102338142Y-104687619D01*
X102814333Y-103687619D02*
X102814333Y-104687619D01*
X103385761Y-103687619D01*
X103385761Y-104687619D01*
X102814428Y-106172047D02*
X102814428Y-106933952D01*
X103123952Y-99639428D02*
X102362047Y-99639428D01*
X102743000Y-100020380D02*
X102743000Y-99258476D01*
X203834952Y-93924428D02*
X203073047Y-93924428D01*
X203454000Y-94305380D02*
X203454000Y-93543476D01*
X203525428Y-101219047D02*
X203525428Y-101980952D01*
D11*
X208721476Y-100523523D02*
X207693380Y-100523523D01*
X207572428Y-100463047D01*
X207511952Y-100402571D01*
X207451476Y-100281619D01*
X207451476Y-100039714D01*
X207511952Y-99918761D01*
X207572428Y-99858285D01*
X207693380Y-99797809D01*
X208721476Y-99797809D01*
X208721476Y-99374476D02*
X207451476Y-98951142D01*
X208721476Y-98527809D01*
X207330523Y-98406857D02*
X207330523Y-97439238D01*
X207451476Y-96532095D02*
X207451476Y-97136857D01*
X208721476Y-97136857D01*
X208116714Y-96108761D02*
X208116714Y-95685428D01*
X207451476Y-95504000D02*
X207451476Y-96108761D01*
X208721476Y-96108761D01*
X208721476Y-95504000D01*
X207451476Y-94959714D02*
X208721476Y-94959714D01*
X208721476Y-94657333D01*
X208661000Y-94475904D01*
X208540047Y-94354952D01*
X208419095Y-94294476D01*
X208177190Y-94234000D01*
X207995761Y-94234000D01*
X207753857Y-94294476D01*
X207632904Y-94354952D01*
X207511952Y-94475904D01*
X207451476Y-94657333D01*
X207451476Y-94959714D01*
X213051571Y-64933285D02*
X212870142Y-64993761D01*
X212809666Y-65054238D01*
X212749190Y-65175190D01*
X212749190Y-65356619D01*
X212809666Y-65477571D01*
X212870142Y-65538047D01*
X212991095Y-65598523D01*
X213474904Y-65598523D01*
X213474904Y-64328523D01*
X213051571Y-64328523D01*
X212930619Y-64389000D01*
X212870142Y-64449476D01*
X212809666Y-64570428D01*
X212809666Y-64691380D01*
X212870142Y-64812333D01*
X212930619Y-64872809D01*
X213051571Y-64933285D01*
X213474904Y-64933285D01*
X212204904Y-64328523D02*
X212204904Y-65356619D01*
X212144428Y-65477571D01*
X212083952Y-65538047D01*
X211963000Y-65598523D01*
X211721095Y-65598523D01*
X211600142Y-65538047D01*
X211539666Y-65477571D01*
X211479190Y-65356619D01*
X211479190Y-64328523D01*
X210148714Y-65477571D02*
X210209190Y-65538047D01*
X210390619Y-65598523D01*
X210511571Y-65598523D01*
X210693000Y-65538047D01*
X210813952Y-65417095D01*
X210874428Y-65296142D01*
X210934904Y-65054238D01*
X210934904Y-64872809D01*
X210874428Y-64630904D01*
X210813952Y-64509952D01*
X210693000Y-64389000D01*
X210511571Y-64328523D01*
X210390619Y-64328523D01*
X210209190Y-64389000D01*
X210148714Y-64449476D01*
X209604428Y-65598523D02*
X209604428Y-64328523D01*
X208878714Y-65598523D02*
X209423000Y-64872809D01*
X208878714Y-64328523D02*
X209604428Y-65054238D01*
X208636809Y-65719476D02*
X207669190Y-65719476D01*
X207427285Y-64449476D02*
X207366809Y-64389000D01*
X207245857Y-64328523D01*
X206943476Y-64328523D01*
X206822523Y-64389000D01*
X206762047Y-64449476D01*
X206701571Y-64570428D01*
X206701571Y-64691380D01*
X206762047Y-64872809D01*
X207487761Y-65598523D01*
X206701571Y-65598523D01*
X205613000Y-64751857D02*
X205613000Y-65598523D01*
X205915380Y-64268047D02*
X206217761Y-65175190D01*
X205431571Y-65175190D01*
X205129190Y-64328523D02*
X204705857Y-65598523D01*
X204282523Y-64328523D01*
X204161571Y-65719476D02*
X203193952Y-65719476D01*
X202891571Y-65598523D02*
X202891571Y-64328523D01*
X202286809Y-65598523D02*
X202286809Y-64328523D01*
X201561095Y-65598523D01*
X201561095Y-64328523D01*
X197049571Y-64806285D02*
X196868142Y-64866761D01*
X196807666Y-64927238D01*
X196747190Y-65048190D01*
X196747190Y-65229619D01*
X196807666Y-65350571D01*
X196868142Y-65411047D01*
X196989095Y-65471523D01*
X197472904Y-65471523D01*
X197472904Y-64201523D01*
X197049571Y-64201523D01*
X196928619Y-64262000D01*
X196868142Y-64322476D01*
X196807666Y-64443428D01*
X196807666Y-64564380D01*
X196868142Y-64685333D01*
X196928619Y-64745809D01*
X197049571Y-64806285D01*
X197472904Y-64806285D01*
X196202904Y-64201523D02*
X196202904Y-65229619D01*
X196142428Y-65350571D01*
X196081952Y-65411047D01*
X195961000Y-65471523D01*
X195719095Y-65471523D01*
X195598142Y-65411047D01*
X195537666Y-65350571D01*
X195477190Y-65229619D01*
X195477190Y-64201523D01*
X194146714Y-65350571D02*
X194207190Y-65411047D01*
X194388619Y-65471523D01*
X194509571Y-65471523D01*
X194691000Y-65411047D01*
X194811952Y-65290095D01*
X194872428Y-65169142D01*
X194932904Y-64927238D01*
X194932904Y-64745809D01*
X194872428Y-64503904D01*
X194811952Y-64382952D01*
X194691000Y-64262000D01*
X194509571Y-64201523D01*
X194388619Y-64201523D01*
X194207190Y-64262000D01*
X194146714Y-64322476D01*
X193602428Y-65471523D02*
X193602428Y-64201523D01*
X192876714Y-65471523D02*
X193421000Y-64745809D01*
X192876714Y-64201523D02*
X193602428Y-64927238D01*
X192634809Y-65592476D02*
X191667190Y-65592476D01*
X190699571Y-65471523D02*
X191425285Y-65471523D01*
X191062428Y-65471523D02*
X191062428Y-64201523D01*
X191183380Y-64382952D01*
X191304333Y-64503904D01*
X191425285Y-64564380D01*
X190215761Y-64322476D02*
X190155285Y-64262000D01*
X190034333Y-64201523D01*
X189731952Y-64201523D01*
X189611000Y-64262000D01*
X189550523Y-64322476D01*
X189490047Y-64443428D01*
X189490047Y-64564380D01*
X189550523Y-64745809D01*
X190276238Y-65471523D01*
X189490047Y-65471523D01*
X189127190Y-64201523D02*
X188703857Y-65471523D01*
X188280523Y-64201523D01*
X188159571Y-65592476D02*
X187191952Y-65592476D01*
X186889571Y-65471523D02*
X186889571Y-64201523D01*
X186284809Y-65471523D02*
X186284809Y-64201523D01*
X185559095Y-65471523D01*
X185559095Y-64201523D01*
X175961523Y-65598523D02*
X175961523Y-64328523D01*
X175477714Y-64328523D01*
X175356761Y-64389000D01*
X175296285Y-64449476D01*
X175235809Y-64570428D01*
X175235809Y-64751857D01*
X175296285Y-64872809D01*
X175356761Y-64933285D01*
X175477714Y-64993761D01*
X175961523Y-64993761D01*
X174449619Y-64328523D02*
X174207714Y-64328523D01*
X174086761Y-64389000D01*
X173965809Y-64509952D01*
X173905333Y-64751857D01*
X173905333Y-65175190D01*
X173965809Y-65417095D01*
X174086761Y-65538047D01*
X174207714Y-65598523D01*
X174449619Y-65598523D01*
X174570571Y-65538047D01*
X174691523Y-65417095D01*
X174751999Y-65175190D01*
X174751999Y-64751857D01*
X174691523Y-64509952D01*
X174570571Y-64389000D01*
X174449619Y-64328523D01*
X173481999Y-64328523D02*
X173179619Y-65598523D01*
X172937714Y-64691380D01*
X172695809Y-65598523D01*
X172393428Y-64328523D01*
X171909619Y-64933285D02*
X171486285Y-64933285D01*
X171304857Y-65598523D02*
X171909619Y-65598523D01*
X171909619Y-64328523D01*
X171304857Y-64328523D01*
X170034857Y-65598523D02*
X170458190Y-64993761D01*
X170760571Y-65598523D02*
X170760571Y-64328523D01*
X170276761Y-64328523D01*
X170155809Y-64389000D01*
X170095333Y-64449476D01*
X170034857Y-64570428D01*
X170034857Y-64751857D01*
X170095333Y-64872809D01*
X170155809Y-64933285D01*
X170276761Y-64993761D01*
X170760571Y-64993761D01*
X169792952Y-65719476D02*
X168825333Y-65719476D01*
X168522952Y-65598523D02*
X168522952Y-64328523D01*
X167918190Y-65598523D02*
X167918190Y-64328523D01*
X167192476Y-65598523D01*
X167192476Y-64328523D01*
D10*
X211708952Y-68016428D02*
X210947047Y-68016428D01*
X211328000Y-68397380D02*
X211328000Y-67635476D01*
X203834952Y-68143428D02*
X203073047Y-68143428D01*
X195579952Y-68143428D02*
X194818047Y-68143428D01*
X188086904Y-67651380D02*
X187753571Y-68651380D01*
X187420238Y-67651380D01*
X187134523Y-68365666D02*
X186658333Y-68365666D01*
X187229761Y-68651380D02*
X186896428Y-67651380D01*
X186563095Y-68651380D01*
X179450904Y-67778380D02*
X179117571Y-68778380D01*
X178784238Y-67778380D01*
X178498523Y-68492666D02*
X178022333Y-68492666D01*
X178593761Y-68778380D02*
X178260428Y-67778380D01*
X177927095Y-68778380D01*
X171449952Y-68397428D02*
X170688047Y-68397428D01*
X171069000Y-68778380D02*
X171069000Y-68016476D01*
X163448952Y-68524428D02*
X162687047Y-68524428D01*
X114728428Y-67127380D02*
X114728428Y-66127380D01*
X114728428Y-66603571D02*
X114157000Y-66603571D01*
X114157000Y-67127380D02*
X114157000Y-66127380D01*
X113299857Y-67079761D02*
X113395095Y-67127380D01*
X113585571Y-67127380D01*
X113680809Y-67079761D01*
X113728428Y-66984523D01*
X113728428Y-66603571D01*
X113680809Y-66508333D01*
X113585571Y-66460714D01*
X113395095Y-66460714D01*
X113299857Y-66508333D01*
X113252238Y-66603571D01*
X113252238Y-66698809D01*
X113728428Y-66794047D01*
X112347476Y-67127380D02*
X112823666Y-67127380D01*
X112823666Y-66127380D01*
X112014142Y-66460714D02*
X112014142Y-67460714D01*
X112014142Y-66508333D02*
X111918904Y-66460714D01*
X111728428Y-66460714D01*
X111633190Y-66508333D01*
X111585571Y-66555952D01*
X111537952Y-66651190D01*
X111537952Y-66936904D01*
X111585571Y-67032142D01*
X111633190Y-67079761D01*
X111728428Y-67127380D01*
X111918904Y-67127380D01*
X112014142Y-67079761D01*
X111958285Y-63301571D02*
X111624952Y-63301571D01*
X111482095Y-63825380D02*
X111958285Y-63825380D01*
X111958285Y-62825380D01*
X111482095Y-62825380D01*
X110863047Y-62825380D02*
X110672571Y-62825380D01*
X110577333Y-62873000D01*
X110482095Y-62968238D01*
X110434476Y-63158714D01*
X110434476Y-63492047D01*
X110482095Y-63682523D01*
X110577333Y-63777761D01*
X110672571Y-63825380D01*
X110863047Y-63825380D01*
X110958285Y-63777761D01*
X111053523Y-63682523D01*
X111101142Y-63492047D01*
X111101142Y-63158714D01*
X111053523Y-62968238D01*
X110958285Y-62873000D01*
X110863047Y-62825380D01*
X110053523Y-63777761D02*
X109910666Y-63825380D01*
X109672571Y-63825380D01*
X109577333Y-63777761D01*
X109529714Y-63730142D01*
X109482095Y-63634904D01*
X109482095Y-63539666D01*
X109529714Y-63444428D01*
X109577333Y-63396809D01*
X109672571Y-63349190D01*
X109863047Y-63301571D01*
X109958285Y-63253952D01*
X110005904Y-63206333D01*
X110053523Y-63111095D01*
X110053523Y-63015857D01*
X110005904Y-62920619D01*
X109958285Y-62873000D01*
X109863047Y-62825380D01*
X109624952Y-62825380D01*
X109482095Y-62873000D01*
X96162714Y-63777761D02*
X96019857Y-63825380D01*
X95781761Y-63825380D01*
X95686523Y-63777761D01*
X95638904Y-63730142D01*
X95591285Y-63634904D01*
X95591285Y-63539666D01*
X95638904Y-63444428D01*
X95686523Y-63396809D01*
X95781761Y-63349190D01*
X95972238Y-63301571D01*
X96067476Y-63253952D01*
X96115095Y-63206333D01*
X96162714Y-63111095D01*
X96162714Y-63015857D01*
X96115095Y-62920619D01*
X96067476Y-62873000D01*
X95972238Y-62825380D01*
X95734142Y-62825380D01*
X95591285Y-62873000D01*
X95162714Y-63825380D02*
X95162714Y-62825380D01*
X94781761Y-62825380D01*
X94686523Y-62873000D01*
X94638904Y-62920619D01*
X94591285Y-63015857D01*
X94591285Y-63158714D01*
X94638904Y-63253952D01*
X94686523Y-63301571D01*
X94781761Y-63349190D01*
X95162714Y-63349190D01*
X98702714Y-62825380D02*
X98131285Y-62825380D01*
X98417000Y-63825380D02*
X98417000Y-62825380D01*
X97797952Y-63825380D02*
X97797952Y-62825380D01*
X97417000Y-62825380D01*
X97321761Y-62873000D01*
X97274142Y-62920619D01*
X97226523Y-63015857D01*
X97226523Y-63158714D01*
X97274142Y-63253952D01*
X97321761Y-63301571D01*
X97417000Y-63349190D01*
X97797952Y-63349190D01*
X101179238Y-63730142D02*
X101226857Y-63777761D01*
X101369714Y-63825380D01*
X101464952Y-63825380D01*
X101607809Y-63777761D01*
X101703047Y-63682523D01*
X101750666Y-63587285D01*
X101798285Y-63396809D01*
X101798285Y-63253952D01*
X101750666Y-63063476D01*
X101703047Y-62968238D01*
X101607809Y-62873000D01*
X101464952Y-62825380D01*
X101369714Y-62825380D01*
X101226857Y-62873000D01*
X101179238Y-62920619D01*
X100274476Y-63825380D02*
X100750666Y-63825380D01*
X100750666Y-62825380D01*
X99941142Y-63825380D02*
X99941142Y-62825380D01*
X99560190Y-62825380D01*
X99464952Y-62873000D01*
X99417333Y-62920619D01*
X99369714Y-63015857D01*
X99369714Y-63158714D01*
X99417333Y-63253952D01*
X99464952Y-63301571D01*
X99560190Y-63349190D01*
X99941142Y-63349190D01*
X103957333Y-62825380D02*
X103624000Y-63825380D01*
X103290666Y-62825380D01*
X102957333Y-63825380D02*
X102957333Y-62825380D01*
X102719238Y-62825380D01*
X102576380Y-62873000D01*
X102481142Y-62968238D01*
X102433523Y-63063476D01*
X102385904Y-63253952D01*
X102385904Y-63396809D01*
X102433523Y-63587285D01*
X102481142Y-63682523D01*
X102576380Y-63777761D01*
X102719238Y-63825380D01*
X102957333Y-63825380D01*
X106044952Y-63317428D02*
X105283047Y-63317428D01*
X108584952Y-63317428D02*
X107823047Y-63317428D01*
X108204000Y-63698380D02*
X108204000Y-62936476D01*
X148375666Y-78303380D02*
X148709000Y-77827190D01*
X148947095Y-78303380D02*
X148947095Y-77303380D01*
X148566142Y-77303380D01*
X148470904Y-77351000D01*
X148423285Y-77398619D01*
X148375666Y-77493857D01*
X148375666Y-77636714D01*
X148423285Y-77731952D01*
X148470904Y-77779571D01*
X148566142Y-77827190D01*
X148947095Y-77827190D01*
X148042333Y-77303380D02*
X147375666Y-78303380D01*
X147375666Y-77303380D02*
X148042333Y-78303380D01*
X146303904Y-77303380D02*
X145732476Y-77303380D01*
X146018190Y-78303380D02*
X146018190Y-77303380D01*
X145494380Y-77303380D02*
X144827714Y-78303380D01*
X144827714Y-77303380D02*
X145494380Y-78303380D01*
X143382952Y-77890619D02*
X142621047Y-77890619D01*
X140842952Y-77795428D02*
X140081047Y-77795428D01*
X140462000Y-78176380D02*
X140462000Y-77414476D01*
X146430904Y-69937380D02*
X145859476Y-69937380D01*
X146145190Y-70937380D02*
X146145190Y-69937380D01*
X145621380Y-69937380D02*
X144954714Y-70937380D01*
X144954714Y-69937380D02*
X145621380Y-70937380D01*
X148375666Y-70937380D02*
X148709000Y-70461190D01*
X148947095Y-70937380D02*
X148947095Y-69937380D01*
X148566142Y-69937380D01*
X148470904Y-69985000D01*
X148423285Y-70032619D01*
X148375666Y-70127857D01*
X148375666Y-70270714D01*
X148423285Y-70365952D01*
X148470904Y-70413571D01*
X148566142Y-70461190D01*
X148947095Y-70461190D01*
X148042333Y-69937380D02*
X147375666Y-70937380D01*
X147375666Y-69937380D02*
X148042333Y-70937380D01*
X143382952Y-70556428D02*
X142621047Y-70556428D01*
X140842952Y-70429428D02*
X140081047Y-70429428D01*
X140462000Y-70810380D02*
X140462000Y-70048476D01*
X149677285Y-63396761D02*
X149534428Y-63444380D01*
X149296333Y-63444380D01*
X149201095Y-63396761D01*
X149153476Y-63349142D01*
X149105857Y-63253904D01*
X149105857Y-63158666D01*
X149153476Y-63063428D01*
X149201095Y-63015809D01*
X149296333Y-62968190D01*
X149486809Y-62920571D01*
X149582047Y-62872952D01*
X149629666Y-62825333D01*
X149677285Y-62730095D01*
X149677285Y-62634857D01*
X149629666Y-62539619D01*
X149582047Y-62492000D01*
X149486809Y-62444380D01*
X149248714Y-62444380D01*
X149105857Y-62492000D01*
X148677285Y-63444380D02*
X148677285Y-62444380D01*
X148439190Y-62444380D01*
X148296333Y-62492000D01*
X148201095Y-62587238D01*
X148153476Y-62682476D01*
X148105857Y-62872952D01*
X148105857Y-63015809D01*
X148153476Y-63206285D01*
X148201095Y-63301523D01*
X148296333Y-63396761D01*
X148439190Y-63444380D01*
X148677285Y-63444380D01*
X147724904Y-63158666D02*
X147248714Y-63158666D01*
X147820142Y-63444380D02*
X147486809Y-62444380D01*
X147153476Y-63444380D01*
X146605476Y-63396761D02*
X146462619Y-63444380D01*
X146224523Y-63444380D01*
X146129285Y-63396761D01*
X146081666Y-63349142D01*
X146034047Y-63253904D01*
X146034047Y-63158666D01*
X146081666Y-63063428D01*
X146129285Y-63015809D01*
X146224523Y-62968190D01*
X146415000Y-62920571D01*
X146510238Y-62872952D01*
X146557857Y-62825333D01*
X146605476Y-62730095D01*
X146605476Y-62634857D01*
X146557857Y-62539619D01*
X146510238Y-62492000D01*
X146415000Y-62444380D01*
X146176904Y-62444380D01*
X146034047Y-62492000D01*
X145034047Y-63349142D02*
X145081666Y-63396761D01*
X145224523Y-63444380D01*
X145319761Y-63444380D01*
X145462619Y-63396761D01*
X145557857Y-63301523D01*
X145605476Y-63206285D01*
X145653095Y-63015809D01*
X145653095Y-62872952D01*
X145605476Y-62682476D01*
X145557857Y-62587238D01*
X145462619Y-62492000D01*
X145319761Y-62444380D01*
X145224523Y-62444380D01*
X145081666Y-62492000D01*
X145034047Y-62539619D01*
X144129285Y-63444380D02*
X144605476Y-63444380D01*
X144605476Y-62444380D01*
X143382952Y-63063428D02*
X142621047Y-63063428D01*
X140842952Y-63063428D02*
X140081047Y-63063428D01*
X140462000Y-63444380D02*
X140462000Y-62682476D01*
X122300952Y-70810428D02*
X121539047Y-70810428D01*
X127166666Y-71191380D02*
X127500000Y-70715190D01*
X127738095Y-71191380D02*
X127738095Y-70191380D01*
X127357142Y-70191380D01*
X127261904Y-70239000D01*
X127214285Y-70286619D01*
X127166666Y-70381857D01*
X127166666Y-70524714D01*
X127214285Y-70619952D01*
X127261904Y-70667571D01*
X127357142Y-70715190D01*
X127738095Y-70715190D01*
X126833333Y-70191380D02*
X126166666Y-71191380D01*
X126166666Y-70191380D02*
X126833333Y-71191380D01*
X125221904Y-70191380D02*
X124650476Y-70191380D01*
X124936190Y-71191380D02*
X124936190Y-70191380D01*
X124412380Y-70191380D02*
X123745714Y-71191380D01*
X123745714Y-70191380D02*
X124412380Y-71191380D01*
X119760952Y-70810428D02*
X118999047Y-70810428D01*
X119380000Y-71191380D02*
X119380000Y-70429476D01*
X127166666Y-63825380D02*
X127500000Y-63349190D01*
X127738095Y-63825380D02*
X127738095Y-62825380D01*
X127357142Y-62825380D01*
X127261904Y-62873000D01*
X127214285Y-62920619D01*
X127166666Y-63015857D01*
X127166666Y-63158714D01*
X127214285Y-63253952D01*
X127261904Y-63301571D01*
X127357142Y-63349190D01*
X127738095Y-63349190D01*
X126833333Y-62825380D02*
X126166666Y-63825380D01*
X126166666Y-62825380D02*
X126833333Y-63825380D01*
X125221904Y-62825380D02*
X124650476Y-62825380D01*
X124936190Y-63825380D02*
X124936190Y-62825380D01*
X124412380Y-62825380D02*
X123745714Y-63825380D01*
X123745714Y-62825380D02*
X124412380Y-63825380D01*
X122300952Y-63444428D02*
X121539047Y-63444428D01*
X119760952Y-63317428D02*
X118999047Y-63317428D01*
X119380000Y-63698380D02*
X119380000Y-62936476D01*
X154940000Y-78994000D02*
X154940000Y-84074000D01*
X180340000Y-78994000D02*
X154940000Y-78994000D01*
X180340000Y-84074000D02*
X180340000Y-78994000D01*
X154940000Y-127254000D02*
X180340000Y-127254000D01*
X154940000Y-122174000D02*
X154940000Y-127254000D01*
X180340000Y-127254000D02*
X180340000Y-122174000D01*
X154940000Y-84074000D02*
X180340000Y-84074000D01*
X180340000Y-122174000D02*
X154940000Y-122174000D01*
X91440000Y-84074000D02*
X116840000Y-84074000D01*
X91440000Y-78994000D02*
X91440000Y-84074000D01*
X116840000Y-78994000D02*
X91440000Y-78994000D01*
X116840000Y-84074000D02*
X116840000Y-78994000D01*
X91440000Y-127254000D02*
X116840000Y-127254000D01*
X91440000Y-122174000D02*
X91440000Y-127254000D01*
X116840000Y-122174000D02*
X91440000Y-122174000D01*
X116840000Y-127254000D02*
X116840000Y-122174000D01*
X199517000Y-57302400D02*
X199517000Y-69596000D01*
X199517000Y-44983400D02*
X199517000Y-52730400D01*
X215265000Y-52730400D02*
X215265000Y-44983400D01*
X215265000Y-57302400D02*
X215265000Y-69596000D01*
X208534000Y-55016400D02*
G75*
G03X208534000Y-55016400I-1143000J0D01*
G01*
X205105000Y-55016400D02*
X201828400Y-55016400D01*
X207391000Y-57302400D02*
X207391000Y-69596000D01*
X209677000Y-55016400D02*
X212979000Y-55016400D01*
X207391000Y-57302400D02*
X207391000Y-56159400D01*
X205105000Y-55016400D02*
X206248000Y-55016400D01*
X207365600Y-44983400D02*
X207365600Y-53873400D01*
X209677000Y-55016400D02*
X208534000Y-55016400D01*
X200660000Y-55016400D02*
X201828400Y-55016400D01*
X199517000Y-57277000D02*
X199517000Y-56184800D01*
X215265000Y-52705000D02*
X215265000Y-53873400D01*
X212953600Y-55016400D02*
X214122000Y-55016400D01*
X215265000Y-57327800D02*
X215265000Y-56134000D01*
X199517000Y-53873400D02*
G75*
G02X200660000Y-55016400I0J-1143000D01*
G01*
X200660000Y-55016400D02*
G75*
G02X199517000Y-56159400I-1143000J0D01*
G01*
X199517000Y-53873400D02*
X199517000Y-52654200D01*
X199517000Y-69596000D02*
X215265000Y-69596000D01*
X199517000Y-44958000D02*
X215265000Y-44958000D01*
X214147400Y-55016400D02*
G75*
G02X215265000Y-53898800I1117600J0D01*
G01*
X215265000Y-56134000D02*
G75*
G02X214147400Y-55016400I0J1117600D01*
G01*
X182753000Y-69592000D02*
X159129000Y-69592000D01*
X182501000Y-44954000D02*
X159129000Y-44954000D01*
X159131000Y-57277000D02*
X159131000Y-69596000D01*
X159131000Y-44958000D02*
X159131000Y-52705000D01*
X174879000Y-52705000D02*
X174879000Y-44958000D01*
X174879000Y-57277000D02*
X174879000Y-69596000D01*
X168148000Y-54991000D02*
G75*
G03X168148000Y-54991000I-1143000J0D01*
G01*
X164719000Y-54991000D02*
X161442400Y-54991000D01*
X167005000Y-57277000D02*
X167005000Y-69596000D01*
X169291000Y-54991000D02*
X172593000Y-54991000D01*
X167005000Y-57277000D02*
X167005000Y-56134000D01*
X164719000Y-54991000D02*
X165862000Y-54991000D01*
X166979600Y-44958000D02*
X166979600Y-53848000D01*
X169291000Y-54991000D02*
X168148000Y-54991000D01*
X160274000Y-54991000D02*
X161442400Y-54991000D01*
X159131000Y-57251600D02*
X159131000Y-56159400D01*
X174879000Y-52679600D02*
X174879000Y-53848000D01*
X172567600Y-54991000D02*
X173736000Y-54991000D01*
X174879000Y-57302400D02*
X174879000Y-56108600D01*
X159131000Y-53848000D02*
G75*
G02X160274000Y-54991000I0J-1143000D01*
G01*
X160274000Y-54991000D02*
G75*
G02X159131000Y-56134000I-1143000J0D01*
G01*
X159131000Y-53848000D02*
X159131000Y-52628800D01*
X182753000Y-56108600D02*
X182753000Y-69592000D01*
X182753000Y-53848000D02*
X182753000Y-44958000D01*
X175996600Y-54991000D02*
G75*
G03X175996600Y-54991000I-1117600J0D01*
G01*
X181686200Y-54965600D02*
G75*
G02X182753000Y-53898800I1066800J0D01*
G01*
X182753000Y-56057800D02*
G75*
G02X181686200Y-54991000I0J1066800D01*
G01*
X176047400Y-54991000D02*
X181610000Y-54991000D01*
X92424285Y-120594380D02*
X92995714Y-120594380D01*
X92710000Y-120594380D02*
X92710000Y-119594380D01*
X92805238Y-119737238D01*
X92900476Y-119832476D01*
X92995714Y-119880095D01*
X92424285Y-86558380D02*
X92995714Y-86558380D01*
X92710000Y-86558380D02*
X92710000Y-85558380D01*
X92805238Y-85701238D01*
X92900476Y-85796476D01*
X92995714Y-85844095D01*
X155924285Y-86558380D02*
X156495714Y-86558380D01*
X156210000Y-86558380D02*
X156210000Y-85558380D01*
X156305238Y-85701238D01*
X156400476Y-85796476D01*
X156495714Y-85844095D01*
X182070285Y-126150666D02*
X181594095Y-126150666D01*
X182165523Y-126436380D02*
X181832190Y-125436380D01*
X181498857Y-126436380D01*
X181213142Y-125531619D02*
X181165523Y-125484000D01*
X181070285Y-125436380D01*
X180832190Y-125436380D01*
X180736952Y-125484000D01*
X180689333Y-125531619D01*
X180641714Y-125626857D01*
X180641714Y-125722095D01*
X180689333Y-125864952D01*
X181260761Y-126436380D01*
X180641714Y-126436380D01*
X181760761Y-123118571D02*
X181617904Y-123166190D01*
X181570285Y-123213809D01*
X181522666Y-123309047D01*
X181522666Y-123451904D01*
X181570285Y-123547142D01*
X181617904Y-123594761D01*
X181713142Y-123642380D01*
X182094095Y-123642380D01*
X182094095Y-122642380D01*
X181760761Y-122642380D01*
X181665523Y-122690000D01*
X181617904Y-122737619D01*
X181570285Y-122832857D01*
X181570285Y-122928095D01*
X181617904Y-123023333D01*
X181665523Y-123070952D01*
X181760761Y-123118571D01*
X182094095Y-123118571D01*
X181141714Y-122737619D02*
X181094095Y-122690000D01*
X180998857Y-122642380D01*
X180760761Y-122642380D01*
X180665523Y-122690000D01*
X180617904Y-122737619D01*
X180570285Y-122832857D01*
X180570285Y-122928095D01*
X180617904Y-123070952D01*
X181189333Y-123642380D01*
X180570285Y-123642380D01*
X118570285Y-126150666D02*
X118094095Y-126150666D01*
X118665523Y-126436380D02*
X118332190Y-125436380D01*
X117998857Y-126436380D01*
X117141714Y-126436380D02*
X117713142Y-126436380D01*
X117427428Y-126436380D02*
X117427428Y-125436380D01*
X117522666Y-125579238D01*
X117617904Y-125674476D01*
X117713142Y-125722095D01*
X118260761Y-123372571D02*
X118117904Y-123420190D01*
X118070285Y-123467809D01*
X118022666Y-123563047D01*
X118022666Y-123705904D01*
X118070285Y-123801142D01*
X118117904Y-123848761D01*
X118213142Y-123896380D01*
X118594095Y-123896380D01*
X118594095Y-122896380D01*
X118260761Y-122896380D01*
X118165523Y-122944000D01*
X118117904Y-122991619D01*
X118070285Y-123086857D01*
X118070285Y-123182095D01*
X118117904Y-123277333D01*
X118165523Y-123324952D01*
X118260761Y-123372571D01*
X118594095Y-123372571D01*
X117070285Y-123896380D02*
X117641714Y-123896380D01*
X117356000Y-123896380D02*
X117356000Y-122896380D01*
X117451238Y-123039238D01*
X117546476Y-123134476D01*
X117641714Y-123182095D01*
X182094095Y-80462380D02*
X182094095Y-79462380D01*
X181856000Y-79462380D01*
X181713142Y-79510000D01*
X181617904Y-79605238D01*
X181570285Y-79700476D01*
X181522666Y-79890952D01*
X181522666Y-80033809D01*
X181570285Y-80224285D01*
X181617904Y-80319523D01*
X181713142Y-80414761D01*
X181856000Y-80462380D01*
X182094095Y-80462380D01*
X181141714Y-79557619D02*
X181094095Y-79510000D01*
X180998857Y-79462380D01*
X180760761Y-79462380D01*
X180665523Y-79510000D01*
X180617904Y-79557619D01*
X180570285Y-79652857D01*
X180570285Y-79748095D01*
X180617904Y-79890952D01*
X181189333Y-80462380D01*
X180570285Y-80462380D01*
X181522666Y-83161142D02*
X181570285Y-83208761D01*
X181713142Y-83256380D01*
X181808380Y-83256380D01*
X181951238Y-83208761D01*
X182046476Y-83113523D01*
X182094095Y-83018285D01*
X182141714Y-82827809D01*
X182141714Y-82684952D01*
X182094095Y-82494476D01*
X182046476Y-82399238D01*
X181951238Y-82304000D01*
X181808380Y-82256380D01*
X181713142Y-82256380D01*
X181570285Y-82304000D01*
X181522666Y-82351619D01*
X181141714Y-82351619D02*
X181094095Y-82304000D01*
X180998857Y-82256380D01*
X180760761Y-82256380D01*
X180665523Y-82304000D01*
X180617904Y-82351619D01*
X180570285Y-82446857D01*
X180570285Y-82542095D01*
X180617904Y-82684952D01*
X181189333Y-83256380D01*
X180570285Y-83256380D01*
X118594095Y-80970380D02*
X118594095Y-79970380D01*
X118356000Y-79970380D01*
X118213142Y-80018000D01*
X118117904Y-80113238D01*
X118070285Y-80208476D01*
X118022666Y-80398952D01*
X118022666Y-80541809D01*
X118070285Y-80732285D01*
X118117904Y-80827523D01*
X118213142Y-80922761D01*
X118356000Y-80970380D01*
X118594095Y-80970380D01*
X117070285Y-80970380D02*
X117641714Y-80970380D01*
X117356000Y-80970380D02*
X117356000Y-79970380D01*
X117451238Y-80113238D01*
X117546476Y-80208476D01*
X117641714Y-80256095D01*
X118022666Y-83161142D02*
X118070285Y-83208761D01*
X118213142Y-83256380D01*
X118308380Y-83256380D01*
X118451238Y-83208761D01*
X118546476Y-83113523D01*
X118594095Y-83018285D01*
X118641714Y-82827809D01*
X118641714Y-82684952D01*
X118594095Y-82494476D01*
X118546476Y-82399238D01*
X118451238Y-82304000D01*
X118308380Y-82256380D01*
X118213142Y-82256380D01*
X118070285Y-82304000D01*
X118022666Y-82351619D01*
X117070285Y-83256380D02*
X117641714Y-83256380D01*
X117356000Y-83256380D02*
X117356000Y-82256380D01*
X117451238Y-82399238D01*
X117546476Y-82494476D01*
X117641714Y-82542095D01*
X179879523Y-118324380D02*
X179212857Y-119324380D01*
X179212857Y-118324380D02*
X179879523Y-119324380D01*
X178403333Y-118324380D02*
X178593809Y-118324380D01*
X178689047Y-118372000D01*
X178736666Y-118419619D01*
X178831904Y-118562476D01*
X178879523Y-118752952D01*
X178879523Y-119133904D01*
X178831904Y-119229142D01*
X178784285Y-119276761D01*
X178689047Y-119324380D01*
X178498571Y-119324380D01*
X178403333Y-119276761D01*
X178355714Y-119229142D01*
X178308095Y-119133904D01*
X178308095Y-118895809D01*
X178355714Y-118800571D01*
X178403333Y-118752952D01*
X178498571Y-118705333D01*
X178689047Y-118705333D01*
X178784285Y-118752952D01*
X178831904Y-118800571D01*
X178879523Y-118895809D01*
X179879523Y-86828380D02*
X179212857Y-87828380D01*
X179212857Y-86828380D02*
X179879523Y-87828380D01*
X178927142Y-86828380D02*
X178260476Y-86828380D01*
X178689047Y-87828380D01*
X116379523Y-118324380D02*
X115712857Y-119324380D01*
X115712857Y-118324380D02*
X116379523Y-119324380D01*
X115189047Y-118752952D02*
X115284285Y-118705333D01*
X115331904Y-118657714D01*
X115379523Y-118562476D01*
X115379523Y-118514857D01*
X115331904Y-118419619D01*
X115284285Y-118372000D01*
X115189047Y-118324380D01*
X114998571Y-118324380D01*
X114903333Y-118372000D01*
X114855714Y-118419619D01*
X114808095Y-118514857D01*
X114808095Y-118562476D01*
X114855714Y-118657714D01*
X114903333Y-118705333D01*
X114998571Y-118752952D01*
X115189047Y-118752952D01*
X115284285Y-118800571D01*
X115331904Y-118848190D01*
X115379523Y-118943428D01*
X115379523Y-119133904D01*
X115331904Y-119229142D01*
X115284285Y-119276761D01*
X115189047Y-119324380D01*
X114998571Y-119324380D01*
X114903333Y-119276761D01*
X114855714Y-119229142D01*
X114808095Y-119133904D01*
X114808095Y-118943428D01*
X114855714Y-118848190D01*
X114903333Y-118800571D01*
X114998571Y-118752952D01*
X116379523Y-86828380D02*
X115712857Y-87828380D01*
X115712857Y-86828380D02*
X116379523Y-87828380D01*
X115284285Y-87828380D02*
X115093809Y-87828380D01*
X114998571Y-87780761D01*
X114950952Y-87733142D01*
X114855714Y-87590285D01*
X114808095Y-87399809D01*
X114808095Y-87018857D01*
X114855714Y-86923619D01*
X114903333Y-86876000D01*
X114998571Y-86828380D01*
X115189047Y-86828380D01*
X115284285Y-86876000D01*
X115331904Y-86923619D01*
X115379523Y-87018857D01*
X115379523Y-87256952D01*
X115331904Y-87352190D01*
X115284285Y-87399809D01*
X115189047Y-87447428D01*
X114998571Y-87447428D01*
X114903333Y-87399809D01*
X114855714Y-87352190D01*
X114808095Y-87256952D01*
X155924285Y-120594380D02*
X156495714Y-120594380D01*
X156210000Y-120594380D02*
X156210000Y-119594380D01*
X156305238Y-119737238D01*
X156400476Y-119832476D01*
X156495714Y-119880095D01*
X179260476Y-120594380D02*
X179831904Y-120594380D01*
X179546190Y-120594380D02*
X179546190Y-119594380D01*
X179641428Y-119737238D01*
X179736666Y-119832476D01*
X179831904Y-119880095D01*
X178641428Y-119594380D02*
X178546190Y-119594380D01*
X178450952Y-119642000D01*
X178403333Y-119689619D01*
X178355714Y-119784857D01*
X178308095Y-119975333D01*
X178308095Y-120213428D01*
X178355714Y-120403904D01*
X178403333Y-120499142D01*
X178450952Y-120546761D01*
X178546190Y-120594380D01*
X178641428Y-120594380D01*
X178736666Y-120546761D01*
X178784285Y-120499142D01*
X178831904Y-120403904D01*
X178879523Y-120213428D01*
X178879523Y-119975333D01*
X178831904Y-119784857D01*
X178784285Y-119689619D01*
X178736666Y-119642000D01*
X178641428Y-119594380D01*
X179260476Y-86558380D02*
X179831904Y-86558380D01*
X179546190Y-86558380D02*
X179546190Y-85558380D01*
X179641428Y-85701238D01*
X179736666Y-85796476D01*
X179831904Y-85844095D01*
X178641428Y-85558380D02*
X178546190Y-85558380D01*
X178450952Y-85606000D01*
X178403333Y-85653619D01*
X178355714Y-85748857D01*
X178308095Y-85939333D01*
X178308095Y-86177428D01*
X178355714Y-86367904D01*
X178403333Y-86463142D01*
X178450952Y-86510761D01*
X178546190Y-86558380D01*
X178641428Y-86558380D01*
X178736666Y-86510761D01*
X178784285Y-86463142D01*
X178831904Y-86367904D01*
X178879523Y-86177428D01*
X178879523Y-85939333D01*
X178831904Y-85748857D01*
X178784285Y-85653619D01*
X178736666Y-85606000D01*
X178641428Y-85558380D01*
X115760476Y-120594380D02*
X116331904Y-120594380D01*
X116046190Y-120594380D02*
X116046190Y-119594380D01*
X116141428Y-119737238D01*
X116236666Y-119832476D01*
X116331904Y-119880095D01*
X115141428Y-119594380D02*
X115046190Y-119594380D01*
X114950952Y-119642000D01*
X114903333Y-119689619D01*
X114855714Y-119784857D01*
X114808095Y-119975333D01*
X114808095Y-120213428D01*
X114855714Y-120403904D01*
X114903333Y-120499142D01*
X114950952Y-120546761D01*
X115046190Y-120594380D01*
X115141428Y-120594380D01*
X115236666Y-120546761D01*
X115284285Y-120499142D01*
X115331904Y-120403904D01*
X115379523Y-120213428D01*
X115379523Y-119975333D01*
X115331904Y-119784857D01*
X115284285Y-119689619D01*
X115236666Y-119642000D01*
X115141428Y-119594380D01*
X115760476Y-86558380D02*
X116331904Y-86558380D01*
X116046190Y-86558380D02*
X116046190Y-85558380D01*
X116141428Y-85701238D01*
X116236666Y-85796476D01*
X116331904Y-85844095D01*
X115141428Y-85558380D02*
X115046190Y-85558380D01*
X114950952Y-85606000D01*
X114903333Y-85653619D01*
X114855714Y-85748857D01*
X114808095Y-85939333D01*
X114808095Y-86177428D01*
X114855714Y-86367904D01*
X114903333Y-86463142D01*
X114950952Y-86510761D01*
X115046190Y-86558380D01*
X115141428Y-86558380D01*
X115236666Y-86510761D01*
X115284285Y-86463142D01*
X115331904Y-86367904D01*
X115379523Y-86177428D01*
X115379523Y-85939333D01*
X115331904Y-85748857D01*
X115284285Y-85653619D01*
X115236666Y-85606000D01*
X115141428Y-85558380D01*
M02*
