G04 #@! TF.GenerationSoftware,KiCad,Pcbnew,(5.1.5)-3*
G04 #@! TF.CreationDate,2020-11-27T23:55:09-06:00*
G04 #@! TF.ProjectId,SRA_Sensor_Board,5352415f-5365-46e7-936f-725f426f6172,rev?*
G04 #@! TF.SameCoordinates,Original*
G04 #@! TF.FileFunction,Profile,NP*
%FSLAX46Y46*%
G04 Gerber Fmt 4.6, Leading zero omitted, Abs format (unit mm)*
G04 Created by KiCad (PCBNEW (5.1.5)-3) date 2020-11-27 23:55:09*
%MOMM*%
%LPD*%
G04 APERTURE LIST*
%ADD10C,0.050000*%
G04 APERTURE END LIST*
D10*
X213868000Y-59690000D02*
X94234000Y-59690000D01*
X215900000Y-61722000D02*
X215900000Y-104648000D01*
X91440000Y-71120000D02*
X91440000Y-61722000D01*
X213868000Y-59690000D02*
G75*
G02X215900000Y-61722000I0J-2032000D01*
G01*
X91440000Y-61722000D02*
G75*
G02X93472000Y-59690000I2032000J0D01*
G01*
X94234000Y-59690000D02*
X93472000Y-59690000D01*
X215900000Y-104648000D02*
G75*
G02X213868000Y-106680000I-2032000J0D01*
G01*
X198120000Y-106680000D02*
X213868000Y-106680000D01*
X198120000Y-127508000D02*
X198120000Y-106680000D01*
X213868000Y-127508000D02*
X198120000Y-127508000D01*
X213868000Y-127508000D02*
G75*
G02X215900000Y-129540000I0J-2032000D01*
G01*
X215900000Y-137668000D02*
X215900000Y-129540000D01*
X215900000Y-141732000D02*
G75*
G02X215900000Y-137668000I0J2032000D01*
G01*
X215900000Y-150368000D02*
X215900000Y-141732000D01*
X215900000Y-150368000D02*
G75*
G02X213868000Y-152400000I-2032000J0D01*
G01*
X93472000Y-152400000D02*
X213868000Y-152400000D01*
X93472000Y-152400000D02*
G75*
G02X91440000Y-150368000I0J2032000D01*
G01*
X91440000Y-141732000D02*
X91440000Y-150368000D01*
X91440000Y-137668000D02*
G75*
G02X91440000Y-141732000I0J-2032000D01*
G01*
X91440000Y-71120000D02*
X91440000Y-137668000D01*
M02*
