M48
; DRILL file {KiCad (5.1.4)-1} date 11/30/2020 12:59:04 AM
; FORMAT={-:-/ absolute / inch / decimal}
; #@! TF.CreationDate,2020-11-30T00:59:04-06:00
; #@! TF.GenerationSoftware,Kicad,Pcbnew,(5.1.4)-1
; #@! TF.FileFunction,Plated,1,2,PTH
FMAT,2
INCH
T1C0.0157
T2C0.0315
T3C0.0350
T4C0.0354
T5C0.0362
T6C0.0472
T7C0.0906
T8C0.1598
%
G90
G05
T1
X3.65Y-3.205
X3.65Y-4.96
X3.695Y-2.675
X3.705Y-4.645
X3.74Y-4.61
X3.75Y-4.91
X3.775Y-4.685
X3.805Y-2.895
X3.805Y-3.21
X3.815Y-4.73
X3.845Y-3.01
X3.85Y-4.475
X3.85Y-4.955
X3.915Y-3.01
X3.95Y-4.45
X3.95Y-4.955
X3.965Y-2.675
X4.0Y-3.255
X4.015Y-2.71
X4.05Y-4.965
X4.075Y-2.895
X4.075Y-3.21
X4.115Y-3.01
X4.16Y-2.47
X4.16Y-2.635
X4.185Y-2.71
X4.185Y-3.01
X4.2Y-4.02
X4.2Y-4.335
X4.21Y-4.385
X4.21Y-4.9
X4.21Y-4.965
X4.25Y-4.73
X4.26Y-2.675
X4.3Y-4.425
X4.3Y-4.97
X4.325Y-4.16
X4.34Y-2.895
X4.35Y-4.55
X4.35Y-4.685
X4.35Y-4.855
X4.39Y-3.92
X4.415Y-3.725
X4.42Y-3.99
X4.42Y-4.045
X4.45Y-4.55
X4.45Y-4.645
X4.45Y-4.855
X4.46Y-4.13
X4.5Y-4.51
X4.5Y-5.02
X4.545Y-4.24
X4.55Y-3.97
X4.55Y-4.61
X4.55Y-4.855
X4.555Y-2.895
X4.555Y-3.01
X4.57Y-4.55
X4.59Y-3.91
X4.59Y-4.09
X4.59Y-4.26
X4.61Y-4.9
X4.61Y-4.97
X4.625Y-2.76
X4.625Y-3.63
X4.64Y-3.91
X4.64Y-4.13
X4.66Y-2.61
X4.66Y-3.78
X4.695Y-4.375
X4.71Y-3.36
X4.71Y-3.435
X4.71Y-3.63
X4.75Y-2.795
X4.75Y-2.93
X4.765Y-3.99
X4.77Y-4.4
X4.77Y-4.625
X4.77Y-4.695
X4.77Y-4.765
X4.77Y-4.835
X4.78Y-3.88
X4.8Y-2.47
X4.8Y-2.645
X4.84Y-4.26
X4.84Y-4.33
X4.84Y-4.4
X4.845Y-4.155
X4.85Y-2.61
X4.85Y-3.065
X4.86Y-3.27
X4.86Y-3.63
X4.88Y-4.21
X4.8944Y-3.4456
X4.9Y-2.735
X4.915Y-3.66
X4.915Y-3.725
X4.915Y-4.105
X4.945Y-3.01
X4.96Y-3.78
X4.96Y-3.905
X5.02Y-3.15
X5.02Y-3.355
X5.02Y-3.405
X5.02Y-3.63
X5.075Y-4.45
X5.135Y-3.035
X5.135Y-4.48
X5.17Y-3.63
X5.2044Y-3.4456
X5.22Y-3.31
X5.24Y-3.905
X5.25Y-2.57
X5.25Y-2.725
X5.25Y-2.865
X5.26Y-3.71
X5.295Y-3.08
X5.3Y-3.63
X5.345Y-4.5
X5.355Y-2.62
X5.385Y-3.63
X5.4Y-2.55
X5.4Y-2.84
X5.4Y-3.08
X5.42Y-3.28
X5.4326Y-4.3326
X5.47Y-3.63
X5.5044Y-3.4456
X5.56Y-3.71
X5.63Y-2.46
X5.63Y-2.755
X5.63Y-3.04
X5.67Y-3.63
X5.73Y-2.62
X5.7356Y-4.2644
X5.7375Y-3.2825
X5.77Y-3.63
X5.7894Y-2.9956
X5.7939Y-2.7011
X5.8Y-3.905
X5.81Y-3.45
X5.879Y-5.026
X5.9139Y-2.7011
X5.9139Y-4.0161
X5.95Y-2.84
X5.95Y-4.065
X6.005Y-3.335
X6.005Y-3.625
X6.05Y-3.57
X6.05Y-3.71
X6.06Y-3.94
X6.085Y-2.9956
X6.085Y-3.13
X6.15Y-4.95
X6.22Y-3.94
X6.24Y-3.57
X6.25Y-4.105
X6.25Y-4.96
X6.28Y-2.71
X6.28Y-3.01
X6.28Y-3.91
X6.35Y-3.2
X6.35Y-4.2644
X6.35Y-4.96
X6.36Y-3.71
X6.36Y-3.83
X6.36Y-3.94
X6.45Y-4.3326
X6.45Y-4.96
X6.47Y-3.57
X6.48Y-2.72
X6.48Y-3.01
X6.53Y-3.94
X6.55Y-4.21
X6.55Y-4.725
X6.65Y-4.155
X6.65Y-4.725
X6.67Y-3.45
X6.69Y-4.065
X6.72Y-3.94
X6.7239Y-4.0161
X6.82Y-3.82
X6.82Y-3.92
X6.85Y-3.87
X6.85Y-4.96
X6.87Y-3.92
X6.88Y-3.82
X6.95Y-4.725
X6.95Y-4.96
X7.05Y-4.725
X7.05Y-4.96
X7.055Y-3.66
X7.19Y-3.74
X7.19Y-3.81
X7.19Y-3.87
X7.19Y-3.94
X7.26Y-3.74
X7.26Y-3.81
X7.26Y-3.87
X7.26Y-3.94
X7.29Y-4.23
X7.29Y-4.28
X7.33Y-3.66
X7.33Y-3.74
X7.33Y-3.81
X7.33Y-3.87
X7.33Y-3.94
X7.33Y-4.26
X7.36Y-4.23
X7.36Y-4.28
X7.4Y-4.05
X7.4Y-4.11
X7.44Y-4.08
X7.48Y-4.05
X7.48Y-4.11
X7.61Y-3.11
X7.61Y-3.3
X7.8Y-3.1
X7.8Y-3.3
X8.0Y-3.11
X8.0Y-3.3
X8.04Y-3.77
X8.05Y-3.62
X8.13Y-3.11
X8.14Y-3.3
X8.15Y-3.62
X8.15Y-3.77
X8.26Y-3.62
X8.26Y-3.77
X8.36Y-3.62
X8.36Y-3.77
T2
X4.29Y-3.5766
X4.29Y-3.675
T3
X6.47Y-3.81
X6.57Y-3.81
X6.67Y-3.81
X6.05Y-3.81
X6.15Y-3.81
X6.25Y-3.81
T4
X5.53Y-2.84
X5.63Y-2.84
X5.73Y-2.84
X5.83Y-2.84
X5.83Y-2.84
X4.7Y-2.85
X4.8Y-2.85
X4.9Y-2.85
X5.0Y-2.85
X5.0Y-2.85
X5.53Y-2.55
X5.63Y-2.55
X5.73Y-2.55
X5.83Y-2.55
X5.83Y-2.55
X5.53Y-3.13
X5.63Y-3.13
X5.73Y-3.13
X5.83Y-3.13
X5.83Y-3.13
X4.7Y-2.56
X4.8Y-2.56
X4.9Y-2.56
X5.0Y-2.56
X5.0Y-2.56
X3.76Y-2.56
X3.86Y-2.56
X3.96Y-2.56
X4.06Y-2.56
X4.16Y-2.56
X4.26Y-2.56
X4.36Y-2.56
X4.46Y-2.56
T5
X4.13Y-3.92
X4.13Y-4.0184
X4.13Y-4.0972
X4.13Y-4.1956
T6
X7.58Y-3.79
X7.58Y-4.39
T7
X4.0233Y-3.7991
X4.0233Y-4.3165
T8
X7.37Y-2.881
X7.68Y-2.881
X8.01Y-2.881
X8.32Y-2.881
X7.829Y-3.69
X7.829Y-4.0
X6.42Y-2.88
X6.73Y-2.88
X7.04Y-2.88
T0
M30
