G04 #@! TF.GenerationSoftware,KiCad,Pcbnew,(5.1.4)-1*
G04 #@! TF.CreationDate,2020-11-30T00:59:02-06:00*
G04 #@! TF.ProjectId,SRA_Sensor_Board,5352415f-5365-46e7-936f-725f426f6172,rev?*
G04 #@! TF.SameCoordinates,Original*
G04 #@! TF.FileFunction,Paste,Bot*
G04 #@! TF.FilePolarity,Positive*
%FSLAX46Y46*%
G04 Gerber Fmt 4.6, Leading zero omitted, Abs format (unit mm)*
G04 Created by KiCad (PCBNEW (5.1.4)-1) date 2020-11-30 00:59:02*
%MOMM*%
%LPD*%
G04 APERTURE LIST*
%ADD10R,0.990600X1.778000*%
%ADD11C,5.080000*%
G04 APERTURE END LIST*
D10*
X115570000Y-78587600D03*
X113030000Y-78587600D03*
X110490000Y-78587600D03*
X107950000Y-78587600D03*
X105410000Y-78587600D03*
X102870000Y-78587600D03*
X100330000Y-78587600D03*
X97790000Y-78587600D03*
X95250000Y-78587600D03*
X92710000Y-78587600D03*
X115570000Y-84480400D03*
X113030000Y-84480400D03*
X110490000Y-84480400D03*
X107950000Y-84480400D03*
X105410000Y-84480400D03*
X102870000Y-84480400D03*
X100330000Y-84480400D03*
X97790000Y-84480400D03*
X95250000Y-84480400D03*
X92710000Y-84480400D03*
X115570000Y-127660400D03*
X113030000Y-127660400D03*
X110490000Y-127660400D03*
X107950000Y-127660400D03*
X105410000Y-127660400D03*
X102870000Y-127660400D03*
X100330000Y-127660400D03*
X97790000Y-127660400D03*
X95250000Y-127660400D03*
X92710000Y-127660400D03*
X115570000Y-121767600D03*
X113030000Y-121767600D03*
X110490000Y-121767600D03*
X107950000Y-121767600D03*
X105410000Y-121767600D03*
X102870000Y-121767600D03*
X100330000Y-121767600D03*
X97790000Y-121767600D03*
X95250000Y-121767600D03*
X92710000Y-121767600D03*
X161290000Y-78587600D03*
X158750000Y-78587600D03*
X156210000Y-78587600D03*
X179070000Y-84480400D03*
X176530000Y-84480400D03*
X173990000Y-84480400D03*
X171450000Y-84480400D03*
X168910000Y-84480400D03*
X166370000Y-84480400D03*
X163830000Y-84480400D03*
X161290000Y-84480400D03*
X158750000Y-84480400D03*
X156210000Y-84480400D03*
X179070000Y-127660400D03*
X173990000Y-127660400D03*
X168910000Y-127660400D03*
X166370000Y-127660400D03*
X163830000Y-127660400D03*
X161290000Y-127660400D03*
X158750000Y-127660400D03*
X179070000Y-121767600D03*
X173990000Y-121767600D03*
X163830000Y-121767600D03*
X161290000Y-121767600D03*
X158750000Y-121767600D03*
X156210000Y-121767600D03*
X168910000Y-121767600D03*
X171450000Y-121767600D03*
X176530000Y-127660400D03*
X163830000Y-78587600D03*
X166370000Y-78587600D03*
X176530000Y-121767600D03*
X171450000Y-127660400D03*
X173990000Y-78587600D03*
X171450000Y-78587600D03*
X166370000Y-121767600D03*
X168910000Y-78587600D03*
X176530000Y-78587600D03*
X179070000Y-78587600D03*
X156210000Y-127660400D03*
D11*
X203454000Y-73177400D03*
X211328000Y-73177400D03*
X163068000Y-73152000D03*
X170942000Y-73152000D03*
X178816000Y-73152000D03*
M02*
