%TF.GenerationSoftware,KiCad,Pcbnew,(6.0.10)*%
%TF.CreationDate,2022-12-29T21:44:20-06:00*%
%TF.ProjectId,ScienceSensor,53636965-6e63-4655-9365-6e736f722e6b,rev?*%
%TF.SameCoordinates,Original*%
%TF.FileFunction,Soldermask,Bot*%
%TF.FilePolarity,Negative*%
%FSLAX46Y46*%
G04 Gerber Fmt 4.6, Leading zero omitted, Abs format (unit mm)*
G04 Created by KiCad (PCBNEW (6.0.10)) date 2022-12-29 21:44:20*
%MOMM*%
%LPD*%
G01*
G04 APERTURE LIST*
G04 Aperture macros list*
%AMRoundRect*
0 Rectangle with rounded corners*
0 $1 Rounding radius*
0 $2 $3 $4 $5 $6 $7 $8 $9 X,Y pos of 4 corners*
0 Add a 4 corners polygon primitive as box body*
4,1,4,$2,$3,$4,$5,$6,$7,$8,$9,$2,$3,0*
0 Add four circle primitives for the rounded corners*
1,1,$1+$1,$2,$3*
1,1,$1+$1,$4,$5*
1,1,$1+$1,$6,$7*
1,1,$1+$1,$8,$9*
0 Add four rect primitives between the rounded corners*
20,1,$1+$1,$2,$3,$4,$5,0*
20,1,$1+$1,$4,$5,$6,$7,0*
20,1,$1+$1,$6,$7,$8,$9,0*
20,1,$1+$1,$8,$9,$2,$3,0*%
G04 Aperture macros list end*
%ADD10C,1.308000*%
%ADD11C,3.450000*%
%ADD12C,1.524000*%
%ADD13C,2.946400*%
%ADD14RoundRect,0.250000X-0.620000X0.620000X-0.620000X-0.620000X0.620000X-0.620000X0.620000X0.620000X0*%
%ADD15C,1.740000*%
%ADD16O,3.000000X5.100000*%
%ADD17R,1.500000X2.500000*%
%ADD18O,1.500000X2.500000*%
%ADD19C,1.100000*%
%ADD20C,1.400000*%
%ADD21C,4.000000*%
%ADD22C,2.000000*%
%ADD23R,1.350000X1.350000*%
%ADD24O,1.350000X1.350000*%
G04 APERTURE END LIST*
D10*
X158750000Y-105918000D03*
X158750000Y-103378000D03*
X158750000Y-100838000D03*
X158750000Y-98298000D03*
X158750000Y-72898000D03*
X143510000Y-103378000D03*
X158750000Y-95758000D03*
X158750000Y-93218000D03*
X158750000Y-90678000D03*
X158750000Y-88138000D03*
X158750000Y-85598000D03*
X158750000Y-83058000D03*
X158750000Y-80518000D03*
X158750000Y-77978000D03*
X158750000Y-75438000D03*
X143510000Y-75438000D03*
X143510000Y-77978000D03*
X143510000Y-80518000D03*
X143510000Y-83058000D03*
X143510000Y-85598000D03*
X143510000Y-88138000D03*
X143510000Y-90678000D03*
X143510000Y-93218000D03*
X143510000Y-95758000D03*
X143510000Y-98298000D03*
X143510000Y-100838000D03*
X158750000Y-70358000D03*
X158750000Y-67818000D03*
X158750000Y-65278000D03*
X158750000Y-62738000D03*
X158750000Y-60198000D03*
X158750000Y-57658000D03*
X158750000Y-55118000D03*
X158750000Y-52578000D03*
X158750000Y-50038000D03*
X143510000Y-50038000D03*
X143510000Y-52578000D03*
X143510000Y-55118000D03*
X143510000Y-57658000D03*
X143510000Y-60198000D03*
X143510000Y-62738000D03*
X143510000Y-65278000D03*
X143510000Y-67818000D03*
X143510000Y-70358000D03*
X158750000Y-108458000D03*
X143510000Y-72898000D03*
X143510000Y-105918000D03*
X143510000Y-108458000D03*
D11*
X182118000Y-137541000D03*
X169418000Y-137541000D03*
D12*
X180848000Y-128905000D03*
X178308000Y-128905000D03*
X175768000Y-128905000D03*
X173228000Y-128905000D03*
X170688000Y-128905000D03*
D11*
X189484000Y-90043000D03*
X189484000Y-97663000D03*
D12*
X180848000Y-91313000D03*
X180848000Y-93853000D03*
X180848000Y-96393000D03*
D11*
X117348000Y-137541000D03*
X107188000Y-137541000D03*
D12*
X116078000Y-128905000D03*
X113538000Y-128905000D03*
X110998000Y-128905000D03*
X108458000Y-128905000D03*
D13*
X188976000Y-137160000D03*
D14*
X102362000Y-80899000D03*
D15*
X102362000Y-83439000D03*
X102362000Y-85979000D03*
X102362000Y-88519000D03*
X102362000Y-91059000D03*
X102362000Y-93599000D03*
D13*
X188976000Y-50800000D03*
X100584000Y-50800000D03*
D16*
X114687400Y-61764000D03*
X114687400Y-69638000D03*
D13*
X100584000Y-137160000D03*
D11*
X149606000Y-137541000D03*
X139446000Y-137541000D03*
D12*
X148336000Y-128905000D03*
X145796000Y-128905000D03*
X143256000Y-128905000D03*
X140716000Y-128905000D03*
D11*
X189484000Y-112395000D03*
X189484000Y-104775000D03*
D12*
X180848000Y-106045000D03*
X180848000Y-108585000D03*
X180848000Y-111125000D03*
D17*
X121666000Y-69723000D03*
D18*
X124206000Y-69723000D03*
X126746000Y-69723000D03*
D11*
X164846000Y-137541000D03*
X154686000Y-137541000D03*
D12*
X163576000Y-128905000D03*
X161036000Y-128905000D03*
X158496000Y-128905000D03*
X155956000Y-128905000D03*
D11*
X133604000Y-137668000D03*
X123444000Y-137668000D03*
D12*
X132334000Y-129032000D03*
X129794000Y-129032000D03*
X127254000Y-129032000D03*
X124714000Y-129032000D03*
D19*
X175514000Y-69086000D03*
X172974000Y-67816000D03*
X175514000Y-66546000D03*
X172974000Y-65276000D03*
X175514000Y-64006000D03*
X172974000Y-62736000D03*
X175514000Y-61466000D03*
X172974000Y-60196000D03*
D20*
X186944000Y-70966000D03*
X185154000Y-68426000D03*
X186944000Y-60856000D03*
X185154000Y-58316000D03*
D21*
X181864000Y-70356000D03*
X181864000Y-58926000D03*
D22*
X178814000Y-72516000D03*
X178814000Y-56766000D03*
D14*
X102362000Y-105029000D03*
D15*
X102362000Y-107569000D03*
X102362000Y-110109000D03*
X102362000Y-112649000D03*
X102362000Y-115189000D03*
X102362000Y-117729000D03*
D11*
X189488000Y-78865000D03*
X189484000Y-83693000D03*
D12*
X180848000Y-80010000D03*
X180848000Y-82550000D03*
D23*
X169910000Y-70580000D03*
D24*
X167910000Y-70580000D03*
X169910000Y-68580000D03*
X167910000Y-68580000D03*
X169910000Y-66580000D03*
X167910000Y-66580000D03*
M02*
