M48
; DRILL file {KiCad (6.0.10)} date Thu Dec 29 21:44:10 2022
; FORMAT={-:-/ absolute / metric / decimal}
; #@! TF.CreationDate,2022-12-29T21:44:10-06:00
; #@! TF.GenerationSoftware,Kicad,Pcbnew,(6.0.10)
; #@! TF.FileFunction,Plated,1,2,PTH
FMAT,2
METRIC
; #@! TA.AperFunction,Plated,PTH,ViaDrill
T1C0.400
; #@! TA.AperFunction,Plated,PTH,ComponentDrill
T2C0.762
; #@! TA.AperFunction,Plated,PTH,ComponentDrill
T3C0.800
; #@! TA.AperFunction,Plated,PTH,ComponentDrill
T4C0.900
; #@! TA.AperFunction,Plated,PTH,ComponentDrill
T5C1.000
; #@! TA.AperFunction,Plated,PTH,ComponentDrill
T6C1.020
; #@! TA.AperFunction,Plated,PTH,ComponentDrill
T7C1.090
; #@! TA.AperFunction,Plated,PTH,ComponentDrill
T8C1.600
; #@! TA.AperFunction,Plated,PTH,ComponentDrill
T9C2.000
; #@! TA.AperFunction,Plated,PTH,ComponentDrill
T10C3.250
%
G90
G05
T1
X100.076Y-100.838
X100.076Y-104.775
X105.093Y-68.135
X106.807Y-110.109
X106.807Y-112.649
X106.807Y-115.189
X106.807Y-117.729
X108.204Y-67.818
X108.712Y-107.696
X114.808Y-107.696
X116.586Y-123.19
X116.586Y-125.984
X121.412Y-107.696
X121.539Y-110.109
X121.539Y-112.649
X121.539Y-115.189
X121.539Y-117.729
X124.714Y-123.825
X127.254Y-123.825
X129.032Y-100.076
X129.032Y-115.316
X129.286Y-83.82
X130.048Y-84.582
X130.937Y-82.169
X132.461Y-82.169
X132.842Y-67.818
X133.604Y-84.328
X134.62Y-94.488
X135.128Y-109.22
X138.43Y-63.754
X138.684Y-115.316
X140.208Y-89.408
X140.208Y-104.14
X141.605Y-112.903
X141.732Y-125.095
X144.399Y-125.095
X145.415Y-112.903
X152.146Y-114.3
X152.146Y-122.936
X154.94Y-66.548
X154.94Y-76.2
X154.94Y-86.868
X154.94Y-94.996
X155.321Y-112.903
X156.21Y-124.587
X158.369Y-112.903
X159.639Y-124.587
X161.29Y-79.248
X162.56Y-76.2
X162.56Y-84.836
X162.56Y-89.408
X162.814Y-69.088
X164.084Y-116.332
X164.211Y-122.428
X165.862Y-84.836
X165.862Y-89.408
X165.862Y-97.536
X165.862Y-109.982
X166.751Y-115.57
X167.132Y-128.905
X168.91Y-84.836
X168.91Y-89.408
X168.91Y-97.536
X170.688Y-125.603
X170.815Y-115.57
X174.498Y-125.603
X174.879Y-115.57
X177.8Y-84.836
X177.8Y-89.408
X177.8Y-97.536
X177.8Y-109.982
X178.562Y-125.603
X181.102Y-116.84
T2
X180.848Y-96.393
X180.848Y-111.125
T3
X143.51Y-50.038
X143.51Y-52.578
X143.51Y-55.118
X143.51Y-57.658
X143.51Y-60.198
X143.51Y-62.738
X143.51Y-65.278
X143.51Y-67.818
X143.51Y-70.358
X143.51Y-72.898
X143.51Y-75.438
X143.51Y-77.978
X143.51Y-80.518
X143.51Y-83.058
X143.51Y-85.598
X143.51Y-88.138
X143.51Y-90.678
X143.51Y-93.218
X143.51Y-95.758
X143.51Y-98.298
X143.51Y-100.838
X143.51Y-103.378
X143.51Y-105.918
X143.51Y-108.458
X158.75Y-50.038
X158.75Y-52.578
X158.75Y-55.118
X158.75Y-57.658
X158.75Y-60.198
X158.75Y-62.738
X158.75Y-65.278
X158.75Y-67.818
X158.75Y-70.358
X158.75Y-72.898
X158.75Y-75.438
X158.75Y-77.978
X158.75Y-80.518
X158.75Y-83.058
X158.75Y-85.598
X158.75Y-88.138
X158.75Y-90.678
X158.75Y-93.218
X158.75Y-95.758
X158.75Y-98.298
X158.75Y-100.838
X158.75Y-103.378
X158.75Y-105.918
X158.75Y-108.458
X167.91Y-66.58
X167.91Y-68.58
X167.91Y-70.58
X169.91Y-66.58
X169.91Y-68.58
X169.91Y-70.58
T4
X108.458Y-128.905
X110.998Y-128.905
X113.538Y-128.905
X116.078Y-128.905
X124.714Y-129.032
X127.254Y-129.032
X129.794Y-129.032
X132.334Y-129.032
X140.716Y-128.905
X143.256Y-128.905
X145.796Y-128.905
X148.336Y-128.905
X155.956Y-128.905
X158.496Y-128.905
X161.036Y-128.905
X163.576Y-128.905
X170.688Y-128.905
X172.974Y-60.196
X172.974Y-62.736
X172.974Y-65.276
X172.974Y-67.816
X173.228Y-128.905
X175.514Y-61.466
X175.514Y-64.006
X175.514Y-66.546
X175.514Y-69.086
X175.768Y-128.905
X178.308Y-128.905
X180.848Y-80.01
X180.848Y-82.55
X180.848Y-91.313
X180.848Y-93.853
X180.848Y-106.045
X180.848Y-108.585
X180.848Y-128.905
T5
X121.666Y-69.723
X124.206Y-69.723
X126.746Y-69.723
T6
X185.154Y-58.316
X185.154Y-68.426
X186.944Y-60.856
X186.944Y-70.966
T7
X102.362Y-80.899
X102.362Y-83.439
X102.362Y-85.979
X102.362Y-88.519
X102.362Y-91.059
X102.362Y-93.599
X102.362Y-105.029
X102.362Y-107.569
X102.362Y-110.109
X102.362Y-112.649
X102.362Y-115.189
X102.362Y-117.729
T8
X178.814Y-56.766
X178.814Y-72.516
T10
X181.864Y-58.926
X181.864Y-70.356
T9
G00X114.687Y-60.714
M15
G01X114.687Y-62.814
M16
G05
G00X114.687Y-68.588
M15
G01X114.687Y-70.688
M16
G05
T0
M30
