M48
; DRILL file {KiCad (6.0.10)} date Thu Dec 29 21:44:10 2022
; FORMAT={-:-/ absolute / metric / decimal}
; #@! TF.CreationDate,2022-12-29T21:44:10-06:00
; #@! TF.GenerationSoftware,Kicad,Pcbnew,(6.0.10)
; #@! TF.FileFunction,NonPlated,1,2,NPTH
FMAT,2
METRIC
; #@! TA.AperFunction,NonPlated,NPTH,ComponentDrill
T1C2.946
; #@! TA.AperFunction,NonPlated,NPTH,ComponentDrill
T2C3.450
%
G90
G05
T1
X100.584Y-50.8
X100.584Y-137.16
X188.976Y-50.8
X188.976Y-137.16
T2
X107.188Y-137.541
X117.348Y-137.541
X123.444Y-137.668
X133.604Y-137.668
X139.446Y-137.541
X149.606Y-137.541
X154.686Y-137.541
X164.846Y-137.541
X169.418Y-137.541
X182.118Y-137.541
X189.484Y-83.693
X189.484Y-90.043
X189.484Y-97.663
X189.484Y-104.775
X189.484Y-112.395
X189.488Y-78.865
T0
M30
