%TF.GenerationSoftware,KiCad,Pcbnew,(6.0.10)*%
%TF.CreationDate,2022-12-29T21:44:20-06:00*%
%TF.ProjectId,ScienceSensor,53636965-6e63-4655-9365-6e736f722e6b,rev?*%
%TF.SameCoordinates,Original*%
%TF.FileFunction,Legend,Bot*%
%TF.FilePolarity,Positive*%
%FSLAX46Y46*%
G04 Gerber Fmt 4.6, Leading zero omitted, Abs format (unit mm)*
G04 Created by KiCad (PCBNEW (6.0.10)) date 2022-12-29 21:44:20*
%MOMM*%
%LPD*%
G01*
G04 APERTURE LIST*
G04 Aperture macros list*
%AMRoundRect*
0 Rectangle with rounded corners*
0 $1 Rounding radius*
0 $2 $3 $4 $5 $6 $7 $8 $9 X,Y pos of 4 corners*
0 Add a 4 corners polygon primitive as box body*
4,1,4,$2,$3,$4,$5,$6,$7,$8,$9,$2,$3,0*
0 Add four circle primitives for the rounded corners*
1,1,$1+$1,$2,$3*
1,1,$1+$1,$4,$5*
1,1,$1+$1,$6,$7*
1,1,$1+$1,$8,$9*
0 Add four rect primitives between the rounded corners*
20,1,$1+$1,$2,$3,$4,$5,0*
20,1,$1+$1,$4,$5,$6,$7,0*
20,1,$1+$1,$6,$7,$8,$9,0*
20,1,$1+$1,$8,$9,$2,$3,0*%
G04 Aperture macros list end*
%ADD10C,0.150000*%
%ADD11C,1.308000*%
%ADD12C,3.450000*%
%ADD13C,1.524000*%
%ADD14C,2.946400*%
%ADD15RoundRect,0.250000X-0.620000X0.620000X-0.620000X-0.620000X0.620000X-0.620000X0.620000X0.620000X0*%
%ADD16C,1.740000*%
%ADD17O,3.000000X5.100000*%
%ADD18R,1.500000X2.500000*%
%ADD19O,1.500000X2.500000*%
%ADD20C,1.100000*%
%ADD21C,1.400000*%
%ADD22C,4.000000*%
%ADD23C,2.000000*%
%ADD24R,1.350000X1.350000*%
%ADD25O,1.350000X1.350000*%
G04 APERTURE END LIST*
D10*
X106878380Y-110331380D02*
X106878380Y-109855190D01*
X105878380Y-109855190D01*
X106354571Y-110664714D02*
X106354571Y-110998047D01*
X106878380Y-111140904D02*
X106878380Y-110664714D01*
X105878380Y-110664714D01*
X105878380Y-111140904D01*
X106878380Y-111569476D02*
X105878380Y-111569476D01*
X105878380Y-111807571D01*
X105926000Y-111950428D01*
X106021238Y-112045666D01*
X106116476Y-112093285D01*
X106306952Y-112140904D01*
X106449809Y-112140904D01*
X106640285Y-112093285D01*
X106735523Y-112045666D01*
X106830761Y-111950428D01*
X106878380Y-111807571D01*
X106878380Y-111569476D01*
X106830761Y-112521857D02*
X106878380Y-112617095D01*
X106878380Y-112807571D01*
X106830761Y-112902809D01*
X106735523Y-112950428D01*
X106687904Y-112950428D01*
X106592666Y-112902809D01*
X106545047Y-112807571D01*
X106545047Y-112664714D01*
X106497428Y-112569476D01*
X106402190Y-112521857D01*
X106354571Y-112521857D01*
X106259333Y-112569476D01*
X106211714Y-112664714D01*
X106211714Y-112807571D01*
X106259333Y-112902809D01*
X177053714Y-135834380D02*
X177053714Y-134834380D01*
X176482285Y-135834380D01*
X176482285Y-134834380D01*
X175815619Y-134834380D02*
X175625142Y-134834380D01*
X175529904Y-134882000D01*
X175434666Y-134977238D01*
X175387047Y-135167714D01*
X175387047Y-135501047D01*
X175434666Y-135691523D01*
X175529904Y-135786761D01*
X175625142Y-135834380D01*
X175815619Y-135834380D01*
X175910857Y-135786761D01*
X176006095Y-135691523D01*
X176053714Y-135501047D01*
X176053714Y-135167714D01*
X176006095Y-134977238D01*
X175910857Y-134882000D01*
X175815619Y-134834380D01*
X175006095Y-134929619D02*
X174958476Y-134882000D01*
X174863238Y-134834380D01*
X174625142Y-134834380D01*
X174529904Y-134882000D01*
X174482285Y-134929619D01*
X174434666Y-135024857D01*
X174434666Y-135120095D01*
X174482285Y-135262952D01*
X175053714Y-135834380D01*
X174434666Y-135834380D01*
X150756190Y-140025428D02*
X149994285Y-140025428D01*
X150375238Y-140406380D02*
X150375238Y-139644476D01*
X149089523Y-139311142D02*
X148232380Y-140596857D01*
X147327619Y-140025428D02*
X146565714Y-140025428D01*
X145660952Y-139311142D02*
X144803809Y-140596857D01*
X144041904Y-139406380D02*
X143470476Y-139406380D01*
X143756190Y-140406380D02*
X143756190Y-139406380D01*
X143232380Y-140406380D02*
X142708571Y-139739714D01*
X143232380Y-139739714D02*
X142708571Y-140406380D01*
X141899047Y-139311142D02*
X141041904Y-140596857D01*
X139565714Y-140406380D02*
X139899047Y-139930190D01*
X140137142Y-140406380D02*
X140137142Y-139406380D01*
X139756190Y-139406380D01*
X139660952Y-139454000D01*
X139613333Y-139501619D01*
X139565714Y-139596857D01*
X139565714Y-139739714D01*
X139613333Y-139834952D01*
X139660952Y-139882571D01*
X139756190Y-139930190D01*
X140137142Y-139930190D01*
X139232380Y-140406380D02*
X138708571Y-139739714D01*
X139232380Y-139739714D02*
X138708571Y-140406380D01*
X165742190Y-140025428D02*
X164980285Y-140025428D01*
X165361238Y-140406380D02*
X165361238Y-139644476D01*
X164075523Y-139311142D02*
X163218380Y-140596857D01*
X162313619Y-140025428D02*
X161551714Y-140025428D01*
X160646952Y-139311142D02*
X159789809Y-140596857D01*
X159027904Y-139406380D02*
X158456476Y-139406380D01*
X158742190Y-140406380D02*
X158742190Y-139406380D01*
X158218380Y-140406380D02*
X157694571Y-139739714D01*
X158218380Y-139739714D02*
X157694571Y-140406380D01*
X156885047Y-139311142D02*
X156027904Y-140596857D01*
X154551714Y-140406380D02*
X154885047Y-139930190D01*
X155123142Y-140406380D02*
X155123142Y-139406380D01*
X154742190Y-139406380D01*
X154646952Y-139454000D01*
X154599333Y-139501619D01*
X154551714Y-139596857D01*
X154551714Y-139739714D01*
X154599333Y-139834952D01*
X154646952Y-139882571D01*
X154742190Y-139930190D01*
X155123142Y-139930190D01*
X154218380Y-140406380D02*
X153694571Y-139739714D01*
X154218380Y-139739714D02*
X153694571Y-140406380D01*
X187650380Y-77375238D02*
X187650380Y-76899047D01*
X186650380Y-76899047D01*
X187650380Y-77708571D02*
X186983714Y-77708571D01*
X186650380Y-77708571D02*
X186698000Y-77660952D01*
X186745619Y-77708571D01*
X186698000Y-77756190D01*
X186650380Y-77708571D01*
X186745619Y-77708571D01*
X187650380Y-78184761D02*
X186983714Y-78184761D01*
X187078952Y-78184761D02*
X187031333Y-78232380D01*
X186983714Y-78327619D01*
X186983714Y-78470476D01*
X187031333Y-78565714D01*
X187126571Y-78613333D01*
X187650380Y-78613333D01*
X187126571Y-78613333D02*
X187031333Y-78660952D01*
X186983714Y-78756190D01*
X186983714Y-78899047D01*
X187031333Y-78994285D01*
X187126571Y-79041904D01*
X187650380Y-79041904D01*
X187650380Y-79518095D02*
X186983714Y-79518095D01*
X186650380Y-79518095D02*
X186698000Y-79470476D01*
X186745619Y-79518095D01*
X186698000Y-79565714D01*
X186650380Y-79518095D01*
X186745619Y-79518095D01*
X186983714Y-79851428D02*
X186983714Y-80232380D01*
X186650380Y-79994285D02*
X187507523Y-79994285D01*
X187602761Y-80041904D01*
X187650380Y-80137142D01*
X187650380Y-80232380D01*
X187602761Y-81280000D02*
X187650380Y-81422857D01*
X187650380Y-81660952D01*
X187602761Y-81756190D01*
X187555142Y-81803809D01*
X187459904Y-81851428D01*
X187364666Y-81851428D01*
X187269428Y-81803809D01*
X187221809Y-81756190D01*
X187174190Y-81660952D01*
X187126571Y-81470476D01*
X187078952Y-81375238D01*
X187031333Y-81327619D01*
X186936095Y-81280000D01*
X186840857Y-81280000D01*
X186745619Y-81327619D01*
X186698000Y-81375238D01*
X186650380Y-81470476D01*
X186650380Y-81708571D01*
X186698000Y-81851428D01*
X186983714Y-82184761D02*
X187650380Y-82375238D01*
X187174190Y-82565714D01*
X187650380Y-82756190D01*
X186983714Y-82946666D01*
X187650380Y-83327619D02*
X186983714Y-83327619D01*
X186650380Y-83327619D02*
X186698000Y-83280000D01*
X186745619Y-83327619D01*
X186698000Y-83375238D01*
X186650380Y-83327619D01*
X186745619Y-83327619D01*
X186983714Y-83660952D02*
X186983714Y-84041904D01*
X186650380Y-83803809D02*
X187507523Y-83803809D01*
X187602761Y-83851428D01*
X187650380Y-83946666D01*
X187650380Y-84041904D01*
X187602761Y-84803809D02*
X187650380Y-84708571D01*
X187650380Y-84518095D01*
X187602761Y-84422857D01*
X187555142Y-84375238D01*
X187459904Y-84327619D01*
X187174190Y-84327619D01*
X187078952Y-84375238D01*
X187031333Y-84422857D01*
X186983714Y-84518095D01*
X186983714Y-84708571D01*
X187031333Y-84803809D01*
X187650380Y-85232380D02*
X186650380Y-85232380D01*
X187650380Y-85660952D02*
X187126571Y-85660952D01*
X187031333Y-85613333D01*
X186983714Y-85518095D01*
X186983714Y-85375238D01*
X187031333Y-85280000D01*
X187078952Y-85232380D01*
X192222428Y-88075190D02*
X192222428Y-88837095D01*
X192603380Y-88456142D02*
X191841476Y-88456142D01*
X191508142Y-89741857D02*
X192793857Y-90599000D01*
X192222428Y-91503761D02*
X192222428Y-92265666D01*
X191508142Y-93170428D02*
X192793857Y-94027571D01*
X192555761Y-94884714D02*
X192603380Y-95027571D01*
X192603380Y-95265666D01*
X192555761Y-95360904D01*
X192508142Y-95408523D01*
X192412904Y-95456142D01*
X192317666Y-95456142D01*
X192222428Y-95408523D01*
X192174809Y-95360904D01*
X192127190Y-95265666D01*
X192079571Y-95075190D01*
X192031952Y-94979952D01*
X191984333Y-94932333D01*
X191889095Y-94884714D01*
X191793857Y-94884714D01*
X191698619Y-94932333D01*
X191651000Y-94979952D01*
X191603380Y-95075190D01*
X191603380Y-95313285D01*
X191651000Y-95456142D01*
X192603380Y-95884714D02*
X191936714Y-95884714D01*
X191603380Y-95884714D02*
X191651000Y-95837095D01*
X191698619Y-95884714D01*
X191651000Y-95932333D01*
X191603380Y-95884714D01*
X191698619Y-95884714D01*
X191936714Y-96789476D02*
X192746238Y-96789476D01*
X192841476Y-96741857D01*
X192889095Y-96694238D01*
X192936714Y-96599000D01*
X192936714Y-96456142D01*
X192889095Y-96360904D01*
X192555761Y-96789476D02*
X192603380Y-96694238D01*
X192603380Y-96503761D01*
X192555761Y-96408523D01*
X192508142Y-96360904D01*
X192412904Y-96313285D01*
X192127190Y-96313285D01*
X192031952Y-96360904D01*
X191984333Y-96408523D01*
X191936714Y-96503761D01*
X191936714Y-96694238D01*
X191984333Y-96789476D01*
X191936714Y-97265666D02*
X192603380Y-97265666D01*
X192031952Y-97265666D02*
X191984333Y-97313285D01*
X191936714Y-97408523D01*
X191936714Y-97551380D01*
X191984333Y-97646619D01*
X192079571Y-97694238D01*
X192603380Y-97694238D01*
X192603380Y-98599000D02*
X192079571Y-98599000D01*
X191984333Y-98551380D01*
X191936714Y-98456142D01*
X191936714Y-98265666D01*
X191984333Y-98170428D01*
X192555761Y-98599000D02*
X192603380Y-98503761D01*
X192603380Y-98265666D01*
X192555761Y-98170428D01*
X192460523Y-98122809D01*
X192365285Y-98122809D01*
X192270047Y-98170428D01*
X192222428Y-98265666D01*
X192222428Y-98503761D01*
X192174809Y-98599000D01*
X192603380Y-99218047D02*
X192555761Y-99122809D01*
X192460523Y-99075190D01*
X191603380Y-99075190D01*
X191587428Y-78930761D02*
X191587428Y-79692666D01*
X191968380Y-79311714D02*
X191206476Y-79311714D01*
X190873142Y-80597428D02*
X192158857Y-81454571D01*
X191587428Y-82359333D02*
X191587428Y-83121238D01*
X160456476Y-135739142D02*
X160504095Y-135786761D01*
X160646952Y-135834380D01*
X160742190Y-135834380D01*
X160885047Y-135786761D01*
X160980285Y-135691523D01*
X161027904Y-135596285D01*
X161075523Y-135405809D01*
X161075523Y-135262952D01*
X161027904Y-135072476D01*
X160980285Y-134977238D01*
X160885047Y-134882000D01*
X160742190Y-134834380D01*
X160646952Y-134834380D01*
X160504095Y-134882000D01*
X160456476Y-134929619D01*
X159837428Y-134834380D02*
X159646952Y-134834380D01*
X159551714Y-134882000D01*
X159456476Y-134977238D01*
X159408857Y-135167714D01*
X159408857Y-135501047D01*
X159456476Y-135691523D01*
X159551714Y-135786761D01*
X159646952Y-135834380D01*
X159837428Y-135834380D01*
X159932666Y-135786761D01*
X160027904Y-135691523D01*
X160075523Y-135501047D01*
X160075523Y-135167714D01*
X160027904Y-134977238D01*
X159932666Y-134882000D01*
X159837428Y-134834380D01*
X159027904Y-134929619D02*
X158980285Y-134882000D01*
X158885047Y-134834380D01*
X158646952Y-134834380D01*
X158551714Y-134882000D01*
X158504095Y-134929619D01*
X158456476Y-135024857D01*
X158456476Y-135120095D01*
X158504095Y-135262952D01*
X159075523Y-135834380D01*
X158456476Y-135834380D01*
X129214476Y-135993142D02*
X129262095Y-136040761D01*
X129404952Y-136088380D01*
X129500190Y-136088380D01*
X129643047Y-136040761D01*
X129738285Y-135945523D01*
X129785904Y-135850285D01*
X129833523Y-135659809D01*
X129833523Y-135516952D01*
X129785904Y-135326476D01*
X129738285Y-135231238D01*
X129643047Y-135136000D01*
X129500190Y-135088380D01*
X129404952Y-135088380D01*
X129262095Y-135136000D01*
X129214476Y-135183619D01*
X128785904Y-136088380D02*
X128785904Y-135088380D01*
X128785904Y-135564571D02*
X128214476Y-135564571D01*
X128214476Y-136088380D02*
X128214476Y-135088380D01*
X127309714Y-135421714D02*
X127309714Y-136088380D01*
X127547809Y-135040761D02*
X127785904Y-135755047D01*
X127166857Y-135755047D01*
X192095428Y-103315190D02*
X192095428Y-104077095D01*
X192476380Y-103696142D02*
X191714476Y-103696142D01*
X191381142Y-104981857D02*
X192666857Y-105839000D01*
X192095428Y-106743761D02*
X192095428Y-107505666D01*
X191381142Y-108410428D02*
X192666857Y-109267571D01*
X192428761Y-110124714D02*
X192476380Y-110267571D01*
X192476380Y-110505666D01*
X192428761Y-110600904D01*
X192381142Y-110648523D01*
X192285904Y-110696142D01*
X192190666Y-110696142D01*
X192095428Y-110648523D01*
X192047809Y-110600904D01*
X192000190Y-110505666D01*
X191952571Y-110315190D01*
X191904952Y-110219952D01*
X191857333Y-110172333D01*
X191762095Y-110124714D01*
X191666857Y-110124714D01*
X191571619Y-110172333D01*
X191524000Y-110219952D01*
X191476380Y-110315190D01*
X191476380Y-110553285D01*
X191524000Y-110696142D01*
X192476380Y-111124714D02*
X191809714Y-111124714D01*
X191476380Y-111124714D02*
X191524000Y-111077095D01*
X191571619Y-111124714D01*
X191524000Y-111172333D01*
X191476380Y-111124714D01*
X191571619Y-111124714D01*
X191809714Y-112029476D02*
X192619238Y-112029476D01*
X192714476Y-111981857D01*
X192762095Y-111934238D01*
X192809714Y-111839000D01*
X192809714Y-111696142D01*
X192762095Y-111600904D01*
X192428761Y-112029476D02*
X192476380Y-111934238D01*
X192476380Y-111743761D01*
X192428761Y-111648523D01*
X192381142Y-111600904D01*
X192285904Y-111553285D01*
X192000190Y-111553285D01*
X191904952Y-111600904D01*
X191857333Y-111648523D01*
X191809714Y-111743761D01*
X191809714Y-111934238D01*
X191857333Y-112029476D01*
X191809714Y-112505666D02*
X192476380Y-112505666D01*
X191904952Y-112505666D02*
X191857333Y-112553285D01*
X191809714Y-112648523D01*
X191809714Y-112791380D01*
X191857333Y-112886619D01*
X191952571Y-112934238D01*
X192476380Y-112934238D01*
X192476380Y-113839000D02*
X191952571Y-113839000D01*
X191857333Y-113791380D01*
X191809714Y-113696142D01*
X191809714Y-113505666D01*
X191857333Y-113410428D01*
X192428761Y-113839000D02*
X192476380Y-113743761D01*
X192476380Y-113505666D01*
X192428761Y-113410428D01*
X192333523Y-113362809D01*
X192238285Y-113362809D01*
X192143047Y-113410428D01*
X192095428Y-113505666D01*
X192095428Y-113743761D01*
X192047809Y-113839000D01*
X192476380Y-114458047D02*
X192428761Y-114362809D01*
X192333523Y-114315190D01*
X191476380Y-114315190D01*
X113553714Y-136088380D02*
X113553714Y-135088380D01*
X112982285Y-136088380D01*
X112982285Y-135088380D01*
X112506095Y-136088380D02*
X112506095Y-135088380D01*
X112506095Y-135564571D02*
X111934666Y-135564571D01*
X111934666Y-136088380D02*
X111934666Y-135088380D01*
X111553714Y-135088380D02*
X110934666Y-135088380D01*
X111268000Y-135469333D01*
X111125142Y-135469333D01*
X111029904Y-135516952D01*
X110982285Y-135564571D01*
X110934666Y-135659809D01*
X110934666Y-135897904D01*
X110982285Y-135993142D01*
X111029904Y-136040761D01*
X111125142Y-136088380D01*
X111410857Y-136088380D01*
X111506095Y-136040761D01*
X111553714Y-135993142D01*
X187475761Y-90884714D02*
X187523380Y-91027571D01*
X187523380Y-91265666D01*
X187475761Y-91360904D01*
X187428142Y-91408523D01*
X187332904Y-91456142D01*
X187237666Y-91456142D01*
X187142428Y-91408523D01*
X187094809Y-91360904D01*
X187047190Y-91265666D01*
X186999571Y-91075190D01*
X186951952Y-90979952D01*
X186904333Y-90932333D01*
X186809095Y-90884714D01*
X186713857Y-90884714D01*
X186618619Y-90932333D01*
X186571000Y-90979952D01*
X186523380Y-91075190D01*
X186523380Y-91313285D01*
X186571000Y-91456142D01*
X187475761Y-92265666D02*
X187523380Y-92170428D01*
X187523380Y-91979952D01*
X187475761Y-91884714D01*
X187380523Y-91837095D01*
X186999571Y-91837095D01*
X186904333Y-91884714D01*
X186856714Y-91979952D01*
X186856714Y-92170428D01*
X186904333Y-92265666D01*
X186999571Y-92313285D01*
X187094809Y-92313285D01*
X187190047Y-91837095D01*
X187523380Y-92741857D02*
X186856714Y-92741857D01*
X187047190Y-92741857D02*
X186951952Y-92789476D01*
X186904333Y-92837095D01*
X186856714Y-92932333D01*
X186856714Y-93027571D01*
X186856714Y-93265666D02*
X187523380Y-93503761D01*
X186856714Y-93741857D01*
X187523380Y-94265666D02*
X187475761Y-94170428D01*
X187428142Y-94122809D01*
X187332904Y-94075190D01*
X187047190Y-94075190D01*
X186951952Y-94122809D01*
X186904333Y-94170428D01*
X186856714Y-94265666D01*
X186856714Y-94408523D01*
X186904333Y-94503761D01*
X186951952Y-94551380D01*
X187047190Y-94599000D01*
X187332904Y-94599000D01*
X187428142Y-94551380D01*
X187475761Y-94503761D01*
X187523380Y-94408523D01*
X187523380Y-94265666D01*
X187523380Y-96313285D02*
X187523380Y-95741857D01*
X187523380Y-96027571D02*
X186523380Y-96027571D01*
X186666238Y-95932333D01*
X186761476Y-95837095D01*
X186809095Y-95741857D01*
X104394000Y-62689619D02*
X104454476Y-62810571D01*
X104454476Y-62992000D01*
X104394000Y-63173428D01*
X104273047Y-63294380D01*
X104152095Y-63354857D01*
X103910190Y-63415333D01*
X103728761Y-63415333D01*
X103486857Y-63354857D01*
X103365904Y-63294380D01*
X103244952Y-63173428D01*
X103184476Y-62992000D01*
X103184476Y-62871047D01*
X103244952Y-62689619D01*
X103305428Y-62629142D01*
X103728761Y-62629142D01*
X103728761Y-62871047D01*
X103184476Y-62084857D02*
X104454476Y-62084857D01*
X103184476Y-61359142D01*
X104454476Y-61359142D01*
X103184476Y-60754380D02*
X104454476Y-60754380D01*
X104454476Y-60452000D01*
X104394000Y-60270571D01*
X104273047Y-60149619D01*
X104152095Y-60089142D01*
X103910190Y-60028666D01*
X103728761Y-60028666D01*
X103486857Y-60089142D01*
X103365904Y-60149619D01*
X103244952Y-60270571D01*
X103184476Y-60452000D01*
X103184476Y-60754380D01*
X106402142Y-86685523D02*
X106449761Y-86637904D01*
X106497380Y-86495047D01*
X106497380Y-86399809D01*
X106449761Y-86256952D01*
X106354523Y-86161714D01*
X106259285Y-86114095D01*
X106068809Y-86066476D01*
X105925952Y-86066476D01*
X105735476Y-86114095D01*
X105640238Y-86161714D01*
X105545000Y-86256952D01*
X105497380Y-86399809D01*
X105497380Y-86495047D01*
X105545000Y-86637904D01*
X105592619Y-86685523D01*
X106402142Y-87685523D02*
X106449761Y-87637904D01*
X106497380Y-87495047D01*
X106497380Y-87399809D01*
X106449761Y-87256952D01*
X106354523Y-87161714D01*
X106259285Y-87114095D01*
X106068809Y-87066476D01*
X105925952Y-87066476D01*
X105735476Y-87114095D01*
X105640238Y-87161714D01*
X105545000Y-87256952D01*
X105497380Y-87399809D01*
X105497380Y-87495047D01*
X105545000Y-87637904D01*
X105592619Y-87685523D01*
X106497380Y-88114095D02*
X105497380Y-88114095D01*
X105497380Y-88352190D01*
X105545000Y-88495047D01*
X105640238Y-88590285D01*
X105735476Y-88637904D01*
X105925952Y-88685523D01*
X106068809Y-88685523D01*
X106259285Y-88637904D01*
X106354523Y-88590285D01*
X106449761Y-88495047D01*
X106497380Y-88352190D01*
X106497380Y-88114095D01*
X134500190Y-140152428D02*
X133738285Y-140152428D01*
X134119238Y-140533380D02*
X134119238Y-139771476D01*
X132833523Y-139438142D02*
X131976380Y-140723857D01*
X131071619Y-140152428D02*
X130309714Y-140152428D01*
X129404952Y-139438142D02*
X128547809Y-140723857D01*
X127785904Y-139533380D02*
X127214476Y-139533380D01*
X127500190Y-140533380D02*
X127500190Y-139533380D01*
X126976380Y-140533380D02*
X126452571Y-139866714D01*
X126976380Y-139866714D02*
X126452571Y-140533380D01*
X125643047Y-139438142D02*
X124785904Y-140723857D01*
X123309714Y-140533380D02*
X123643047Y-140057190D01*
X123881142Y-140533380D02*
X123881142Y-139533380D01*
X123500190Y-139533380D01*
X123404952Y-139581000D01*
X123357333Y-139628619D01*
X123309714Y-139723857D01*
X123309714Y-139866714D01*
X123357333Y-139961952D01*
X123404952Y-140009571D01*
X123500190Y-140057190D01*
X123881142Y-140057190D01*
X122976380Y-140533380D02*
X122452571Y-139866714D01*
X122976380Y-139866714D02*
X122452571Y-140533380D01*
X183506095Y-140152428D02*
X182744190Y-140152428D01*
X183125142Y-140533380D02*
X183125142Y-139771476D01*
X181839428Y-139438142D02*
X180982285Y-140723857D01*
X180077523Y-140152428D02*
X179315619Y-140152428D01*
X178410857Y-139438142D02*
X177553714Y-140723857D01*
X177410857Y-140533380D02*
X177410857Y-139533380D01*
X177077523Y-140247666D01*
X176744190Y-139533380D01*
X176744190Y-140533380D01*
X176268000Y-140533380D02*
X176268000Y-139533380D01*
X175839428Y-140485761D02*
X175696571Y-140533380D01*
X175458476Y-140533380D01*
X175363238Y-140485761D01*
X175315619Y-140438142D01*
X175268000Y-140342904D01*
X175268000Y-140247666D01*
X175315619Y-140152428D01*
X175363238Y-140104809D01*
X175458476Y-140057190D01*
X175648952Y-140009571D01*
X175744190Y-139961952D01*
X175791809Y-139914333D01*
X175839428Y-139819095D01*
X175839428Y-139723857D01*
X175791809Y-139628619D01*
X175744190Y-139581000D01*
X175648952Y-139533380D01*
X175410857Y-139533380D01*
X175268000Y-139581000D01*
X174648952Y-139533380D02*
X174458476Y-139533380D01*
X174363238Y-139581000D01*
X174268000Y-139676238D01*
X174220380Y-139866714D01*
X174220380Y-140200047D01*
X174268000Y-140390523D01*
X174363238Y-140485761D01*
X174458476Y-140533380D01*
X174648952Y-140533380D01*
X174744190Y-140485761D01*
X174839428Y-140390523D01*
X174887047Y-140200047D01*
X174887047Y-139866714D01*
X174839428Y-139676238D01*
X174744190Y-139581000D01*
X174648952Y-139533380D01*
X174125142Y-139438142D02*
X173268000Y-140723857D01*
X172553714Y-140438142D02*
X172601333Y-140485761D01*
X172744190Y-140533380D01*
X172839428Y-140533380D01*
X172982285Y-140485761D01*
X173077523Y-140390523D01*
X173125142Y-140295285D01*
X173172761Y-140104809D01*
X173172761Y-139961952D01*
X173125142Y-139771476D01*
X173077523Y-139676238D01*
X172982285Y-139581000D01*
X172839428Y-139533380D01*
X172744190Y-139533380D01*
X172601333Y-139581000D01*
X172553714Y-139628619D01*
X172172761Y-140485761D02*
X172029904Y-140533380D01*
X171791809Y-140533380D01*
X171696571Y-140485761D01*
X171648952Y-140438142D01*
X171601333Y-140342904D01*
X171601333Y-140247666D01*
X171648952Y-140152428D01*
X171696571Y-140104809D01*
X171791809Y-140057190D01*
X171982285Y-140009571D01*
X172077523Y-139961952D01*
X172125142Y-139914333D01*
X172172761Y-139819095D01*
X172172761Y-139723857D01*
X172125142Y-139628619D01*
X172077523Y-139581000D01*
X171982285Y-139533380D01*
X171744190Y-139533380D01*
X171601333Y-139581000D01*
X171506095Y-139438142D02*
X170648952Y-140723857D01*
X170553714Y-140485761D02*
X170410857Y-140533380D01*
X170172761Y-140533380D01*
X170077523Y-140485761D01*
X170029904Y-140438142D01*
X169982285Y-140342904D01*
X169982285Y-140247666D01*
X170029904Y-140152428D01*
X170077523Y-140104809D01*
X170172761Y-140057190D01*
X170363238Y-140009571D01*
X170458476Y-139961952D01*
X170506095Y-139914333D01*
X170553714Y-139819095D01*
X170553714Y-139723857D01*
X170506095Y-139628619D01*
X170458476Y-139581000D01*
X170363238Y-139533380D01*
X170125142Y-139533380D01*
X169982285Y-139581000D01*
X168982285Y-140438142D02*
X169029904Y-140485761D01*
X169172761Y-140533380D01*
X169268000Y-140533380D01*
X169410857Y-140485761D01*
X169506095Y-140390523D01*
X169553714Y-140295285D01*
X169601333Y-140104809D01*
X169601333Y-139961952D01*
X169553714Y-139771476D01*
X169506095Y-139676238D01*
X169410857Y-139581000D01*
X169268000Y-139533380D01*
X169172761Y-139533380D01*
X169029904Y-139581000D01*
X168982285Y-139628619D01*
X168553714Y-140533380D02*
X168553714Y-139533380D01*
X167982285Y-140533380D02*
X168410857Y-139961952D01*
X167982285Y-139533380D02*
X168553714Y-140104809D01*
X145097428Y-134834380D02*
X144906952Y-134834380D01*
X144811714Y-134882000D01*
X144716476Y-134977238D01*
X144668857Y-135167714D01*
X144668857Y-135501047D01*
X144716476Y-135691523D01*
X144811714Y-135786761D01*
X144906952Y-135834380D01*
X145097428Y-135834380D01*
X145192666Y-135786761D01*
X145287904Y-135691523D01*
X145335523Y-135501047D01*
X145335523Y-135167714D01*
X145287904Y-134977238D01*
X145192666Y-134882000D01*
X145097428Y-134834380D01*
X144287904Y-134929619D02*
X144240285Y-134882000D01*
X144145047Y-134834380D01*
X143906952Y-134834380D01*
X143811714Y-134882000D01*
X143764095Y-134929619D01*
X143716476Y-135024857D01*
X143716476Y-135120095D01*
X143764095Y-135262952D01*
X144335523Y-135834380D01*
X143716476Y-135834380D01*
X119688666Y-140025428D02*
X118926761Y-140025428D01*
X119307714Y-140406380D02*
X119307714Y-139644476D01*
X118022000Y-139311142D02*
X117164857Y-140596857D01*
X116260095Y-140025428D02*
X115498190Y-140025428D01*
X115879142Y-140406380D02*
X115879142Y-139644476D01*
X114593428Y-139311142D02*
X113736285Y-140596857D01*
X113593428Y-140406380D02*
X113593428Y-139406380D01*
X113593428Y-139882571D02*
X113022000Y-139882571D01*
X113022000Y-140406380D02*
X113022000Y-139406380D01*
X112164857Y-140358761D02*
X112260095Y-140406380D01*
X112450571Y-140406380D01*
X112545809Y-140358761D01*
X112593428Y-140263523D01*
X112593428Y-139882571D01*
X112545809Y-139787333D01*
X112450571Y-139739714D01*
X112260095Y-139739714D01*
X112164857Y-139787333D01*
X112117238Y-139882571D01*
X112117238Y-139977809D01*
X112593428Y-140073047D01*
X111260095Y-140406380D02*
X111260095Y-139882571D01*
X111307714Y-139787333D01*
X111402952Y-139739714D01*
X111593428Y-139739714D01*
X111688666Y-139787333D01*
X111260095Y-140358761D02*
X111355333Y-140406380D01*
X111593428Y-140406380D01*
X111688666Y-140358761D01*
X111736285Y-140263523D01*
X111736285Y-140168285D01*
X111688666Y-140073047D01*
X111593428Y-140025428D01*
X111355333Y-140025428D01*
X111260095Y-139977809D01*
X110926761Y-139739714D02*
X110545809Y-139739714D01*
X110783904Y-139406380D02*
X110783904Y-140263523D01*
X110736285Y-140358761D01*
X110641047Y-140406380D01*
X110545809Y-140406380D01*
X110545809Y-139311142D02*
X109688666Y-140596857D01*
X109593428Y-140358761D02*
X109450571Y-140406380D01*
X109212476Y-140406380D01*
X109117238Y-140358761D01*
X109069619Y-140311142D01*
X109022000Y-140215904D01*
X109022000Y-140120666D01*
X109069619Y-140025428D01*
X109117238Y-139977809D01*
X109212476Y-139930190D01*
X109402952Y-139882571D01*
X109498190Y-139834952D01*
X109545809Y-139787333D01*
X109593428Y-139692095D01*
X109593428Y-139596857D01*
X109545809Y-139501619D01*
X109498190Y-139454000D01*
X109402952Y-139406380D01*
X109164857Y-139406380D01*
X109022000Y-139454000D01*
X108593428Y-140406380D02*
X108593428Y-139739714D01*
X108593428Y-139406380D02*
X108641047Y-139454000D01*
X108593428Y-139501619D01*
X108545809Y-139454000D01*
X108593428Y-139406380D01*
X108593428Y-139501619D01*
X107688666Y-139739714D02*
X107688666Y-140549238D01*
X107736285Y-140644476D01*
X107783904Y-140692095D01*
X107879142Y-140739714D01*
X108022000Y-140739714D01*
X108117238Y-140692095D01*
X107688666Y-140358761D02*
X107783904Y-140406380D01*
X107974380Y-140406380D01*
X108069619Y-140358761D01*
X108117238Y-140311142D01*
X108164857Y-140215904D01*
X108164857Y-139930190D01*
X108117238Y-139834952D01*
X108069619Y-139787333D01*
X107974380Y-139739714D01*
X107783904Y-139739714D01*
X107688666Y-139787333D01*
X107212476Y-139739714D02*
X107212476Y-140406380D01*
X107212476Y-139834952D02*
X107164857Y-139787333D01*
X107069619Y-139739714D01*
X106926761Y-139739714D01*
X106831523Y-139787333D01*
X106783904Y-139882571D01*
X106783904Y-140406380D01*
X105879142Y-140406380D02*
X105879142Y-139882571D01*
X105926761Y-139787333D01*
X106022000Y-139739714D01*
X106212476Y-139739714D01*
X106307714Y-139787333D01*
X105879142Y-140358761D02*
X105974380Y-140406380D01*
X106212476Y-140406380D01*
X106307714Y-140358761D01*
X106355333Y-140263523D01*
X106355333Y-140168285D01*
X106307714Y-140073047D01*
X106212476Y-140025428D01*
X105974380Y-140025428D01*
X105879142Y-139977809D01*
X105260095Y-140406380D02*
X105355333Y-140358761D01*
X105402952Y-140263523D01*
X105402952Y-139406380D01*
X187348761Y-105616714D02*
X187396380Y-105759571D01*
X187396380Y-105997666D01*
X187348761Y-106092904D01*
X187301142Y-106140523D01*
X187205904Y-106188142D01*
X187110666Y-106188142D01*
X187015428Y-106140523D01*
X186967809Y-106092904D01*
X186920190Y-105997666D01*
X186872571Y-105807190D01*
X186824952Y-105711952D01*
X186777333Y-105664333D01*
X186682095Y-105616714D01*
X186586857Y-105616714D01*
X186491619Y-105664333D01*
X186444000Y-105711952D01*
X186396380Y-105807190D01*
X186396380Y-106045285D01*
X186444000Y-106188142D01*
X187348761Y-106997666D02*
X187396380Y-106902428D01*
X187396380Y-106711952D01*
X187348761Y-106616714D01*
X187253523Y-106569095D01*
X186872571Y-106569095D01*
X186777333Y-106616714D01*
X186729714Y-106711952D01*
X186729714Y-106902428D01*
X186777333Y-106997666D01*
X186872571Y-107045285D01*
X186967809Y-107045285D01*
X187063047Y-106569095D01*
X187396380Y-107473857D02*
X186729714Y-107473857D01*
X186920190Y-107473857D02*
X186824952Y-107521476D01*
X186777333Y-107569095D01*
X186729714Y-107664333D01*
X186729714Y-107759571D01*
X186729714Y-107997666D02*
X187396380Y-108235761D01*
X186729714Y-108473857D01*
X187396380Y-108997666D02*
X187348761Y-108902428D01*
X187301142Y-108854809D01*
X187205904Y-108807190D01*
X186920190Y-108807190D01*
X186824952Y-108854809D01*
X186777333Y-108902428D01*
X186729714Y-108997666D01*
X186729714Y-109140523D01*
X186777333Y-109235761D01*
X186824952Y-109283380D01*
X186920190Y-109331000D01*
X187205904Y-109331000D01*
X187301142Y-109283380D01*
X187348761Y-109235761D01*
X187396380Y-109140523D01*
X187396380Y-108997666D01*
X186491619Y-110473857D02*
X186444000Y-110521476D01*
X186396380Y-110616714D01*
X186396380Y-110854809D01*
X186444000Y-110950047D01*
X186491619Y-110997666D01*
X186586857Y-111045285D01*
X186682095Y-111045285D01*
X186824952Y-110997666D01*
X187396380Y-110426238D01*
X187396380Y-111045285D01*
X104338428Y-79129952D02*
X104338428Y-79891857D01*
X104719380Y-79510904D02*
X103957476Y-79510904D01*
X103624142Y-80796619D02*
X104909857Y-81653761D01*
X104338428Y-82558523D02*
X104338428Y-83320428D01*
X103624142Y-84225190D02*
X104909857Y-85082333D01*
X104719380Y-85225190D02*
X103719380Y-85225190D01*
X104433666Y-85558523D01*
X103719380Y-85891857D01*
X104719380Y-85891857D01*
X104624142Y-86939476D02*
X104671761Y-86891857D01*
X104719380Y-86749000D01*
X104719380Y-86653761D01*
X104671761Y-86510904D01*
X104576523Y-86415666D01*
X104481285Y-86368047D01*
X104290809Y-86320428D01*
X104147952Y-86320428D01*
X103957476Y-86368047D01*
X103862238Y-86415666D01*
X103767000Y-86510904D01*
X103719380Y-86653761D01*
X103719380Y-86749000D01*
X103767000Y-86891857D01*
X103814619Y-86939476D01*
X103624142Y-87034714D02*
X104909857Y-87891857D01*
X104671761Y-87987095D02*
X104719380Y-88129952D01*
X104719380Y-88368047D01*
X104671761Y-88463285D01*
X104624142Y-88510904D01*
X104528904Y-88558523D01*
X104433666Y-88558523D01*
X104338428Y-88510904D01*
X104290809Y-88463285D01*
X104243190Y-88368047D01*
X104195571Y-88177571D01*
X104147952Y-88082333D01*
X104100333Y-88034714D01*
X104005095Y-87987095D01*
X103909857Y-87987095D01*
X103814619Y-88034714D01*
X103767000Y-88082333D01*
X103719380Y-88177571D01*
X103719380Y-88415666D01*
X103767000Y-88558523D01*
X104719380Y-88987095D02*
X103719380Y-88987095D01*
X104195571Y-88987095D02*
X104195571Y-89558523D01*
X104719380Y-89558523D02*
X103719380Y-89558523D01*
X103624142Y-89701380D02*
X104909857Y-90558523D01*
X104719380Y-90701380D02*
X103719380Y-90701380D01*
X104624142Y-91749000D02*
X104671761Y-91701380D01*
X104719380Y-91558523D01*
X104719380Y-91463285D01*
X104671761Y-91320428D01*
X104576523Y-91225190D01*
X104481285Y-91177571D01*
X104290809Y-91129952D01*
X104147952Y-91129952D01*
X103957476Y-91177571D01*
X103862238Y-91225190D01*
X103767000Y-91320428D01*
X103719380Y-91463285D01*
X103719380Y-91558523D01*
X103767000Y-91701380D01*
X103814619Y-91749000D01*
X103767000Y-92701380D02*
X103719380Y-92606142D01*
X103719380Y-92463285D01*
X103767000Y-92320428D01*
X103862238Y-92225190D01*
X103957476Y-92177571D01*
X104147952Y-92129952D01*
X104290809Y-92129952D01*
X104481285Y-92177571D01*
X104576523Y-92225190D01*
X104671761Y-92320428D01*
X104719380Y-92463285D01*
X104719380Y-92558523D01*
X104671761Y-92701380D01*
X104624142Y-92749000D01*
X104290809Y-92749000D01*
X104290809Y-92558523D01*
X103624142Y-92844238D02*
X104909857Y-93701380D01*
X103719380Y-94034714D02*
X103719380Y-94225190D01*
X103767000Y-94320428D01*
X103862238Y-94415666D01*
X104052714Y-94463285D01*
X104386047Y-94463285D01*
X104576523Y-94415666D01*
X104671761Y-94320428D01*
X104719380Y-94225190D01*
X104719380Y-94034714D01*
X104671761Y-93939476D01*
X104576523Y-93844238D01*
X104386047Y-93796619D01*
X104052714Y-93796619D01*
X103862238Y-93844238D01*
X103767000Y-93939476D01*
X103719380Y-94034714D01*
X104671761Y-94844238D02*
X104719380Y-94987095D01*
X104719380Y-95225190D01*
X104671761Y-95320428D01*
X104624142Y-95368047D01*
X104528904Y-95415666D01*
X104433666Y-95415666D01*
X104338428Y-95368047D01*
X104290809Y-95320428D01*
X104243190Y-95225190D01*
X104195571Y-95034714D01*
X104147952Y-94939476D01*
X104100333Y-94891857D01*
X104005095Y-94844238D01*
X103909857Y-94844238D01*
X103814619Y-94891857D01*
X103767000Y-94939476D01*
X103719380Y-95034714D01*
X103719380Y-95272809D01*
X103767000Y-95415666D01*
X103311476Y-70382190D02*
X103311476Y-71107904D01*
X103311476Y-70745047D02*
X104581476Y-70745047D01*
X104400047Y-70866000D01*
X104279095Y-70986952D01*
X104218619Y-71107904D01*
X104460523Y-69898380D02*
X104521000Y-69837904D01*
X104581476Y-69716952D01*
X104581476Y-69414571D01*
X104521000Y-69293619D01*
X104460523Y-69233142D01*
X104339571Y-69172666D01*
X104218619Y-69172666D01*
X104037190Y-69233142D01*
X103311476Y-69958857D01*
X103311476Y-69172666D01*
X104581476Y-68809809D02*
X103311476Y-68386476D01*
X104581476Y-67963142D01*
X104465428Y-101117190D02*
X104465428Y-101879095D01*
X104846380Y-101498142D02*
X104084476Y-101498142D01*
X103751142Y-102783857D02*
X105036857Y-103641000D01*
X104465428Y-104545761D02*
X104465428Y-105307666D01*
X103751142Y-106212428D02*
X105036857Y-107069571D01*
X104846380Y-107879095D02*
X104179714Y-108402904D01*
X104179714Y-107879095D02*
X104846380Y-108402904D01*
X103751142Y-109212428D02*
X105036857Y-110069571D01*
X103941619Y-110164809D02*
X103894000Y-110212428D01*
X103846380Y-110307666D01*
X103846380Y-110545761D01*
X103894000Y-110641000D01*
X103941619Y-110688619D01*
X104036857Y-110736238D01*
X104132095Y-110736238D01*
X104274952Y-110688619D01*
X104846380Y-110117190D01*
X104846380Y-110736238D01*
X103846380Y-111593380D02*
X103846380Y-111402904D01*
X103894000Y-111307666D01*
X103941619Y-111260047D01*
X104084476Y-111164809D01*
X104274952Y-111117190D01*
X104655904Y-111117190D01*
X104751142Y-111164809D01*
X104798761Y-111212428D01*
X104846380Y-111307666D01*
X104846380Y-111498142D01*
X104798761Y-111593380D01*
X104751142Y-111641000D01*
X104655904Y-111688619D01*
X104417809Y-111688619D01*
X104322571Y-111641000D01*
X104274952Y-111593380D01*
X104227333Y-111498142D01*
X104227333Y-111307666D01*
X104274952Y-111212428D01*
X104322571Y-111164809D01*
X104417809Y-111117190D01*
X103846380Y-112307666D02*
X103846380Y-112402904D01*
X103894000Y-112498142D01*
X103941619Y-112545761D01*
X104036857Y-112593380D01*
X104227333Y-112641000D01*
X104465428Y-112641000D01*
X104655904Y-112593380D01*
X104751142Y-112545761D01*
X104798761Y-112498142D01*
X104846380Y-112402904D01*
X104846380Y-112307666D01*
X104798761Y-112212428D01*
X104751142Y-112164809D01*
X104655904Y-112117190D01*
X104465428Y-112069571D01*
X104227333Y-112069571D01*
X104036857Y-112117190D01*
X103941619Y-112164809D01*
X103894000Y-112212428D01*
X103846380Y-112307666D01*
X103751142Y-112736238D02*
X105036857Y-113593380D01*
X103941619Y-113688619D02*
X103894000Y-113736238D01*
X103846380Y-113831476D01*
X103846380Y-114069571D01*
X103894000Y-114164809D01*
X103941619Y-114212428D01*
X104036857Y-114260047D01*
X104132095Y-114260047D01*
X104274952Y-114212428D01*
X104846380Y-113641000D01*
X104846380Y-114260047D01*
X103846380Y-114593380D02*
X103846380Y-115260047D01*
X104846380Y-114831476D01*
X103846380Y-116117190D02*
X103846380Y-115640999D01*
X104322571Y-115593380D01*
X104274952Y-115640999D01*
X104227333Y-115736238D01*
X104227333Y-115974333D01*
X104274952Y-116069571D01*
X104322571Y-116117190D01*
X104417809Y-116164809D01*
X104655904Y-116164809D01*
X104751142Y-116117190D01*
X104798761Y-116069571D01*
X104846380Y-115974333D01*
X104846380Y-115736238D01*
X104798761Y-115640999D01*
X104751142Y-115593380D01*
X103751142Y-116260047D02*
X105036857Y-117117190D01*
X103941619Y-117212428D02*
X103894000Y-117260047D01*
X103846380Y-117355285D01*
X103846380Y-117593380D01*
X103894000Y-117688619D01*
X103941619Y-117736238D01*
X104036857Y-117783857D01*
X104132095Y-117783857D01*
X104274952Y-117736238D01*
X104846380Y-117164809D01*
X104846380Y-117783857D01*
X104274952Y-118355285D02*
X104227333Y-118260047D01*
X104179714Y-118212428D01*
X104084476Y-118164809D01*
X104036857Y-118164809D01*
X103941619Y-118212428D01*
X103894000Y-118260047D01*
X103846380Y-118355285D01*
X103846380Y-118545761D01*
X103894000Y-118640999D01*
X103941619Y-118688619D01*
X104036857Y-118736238D01*
X104084476Y-118736238D01*
X104179714Y-118688619D01*
X104227333Y-118640999D01*
X104274952Y-118545761D01*
X104274952Y-118355285D01*
X104322571Y-118260047D01*
X104370190Y-118212428D01*
X104465428Y-118164809D01*
X104655904Y-118164809D01*
X104751142Y-118212428D01*
X104798761Y-118260047D01*
X104846380Y-118355285D01*
X104846380Y-118545761D01*
X104798761Y-118640999D01*
X104751142Y-118688619D01*
X104655904Y-118736238D01*
X104465428Y-118736238D01*
X104370190Y-118688619D01*
X104322571Y-118640999D01*
X104274952Y-118545761D01*
X103846380Y-119355285D02*
X103846380Y-119450523D01*
X103894000Y-119545761D01*
X103941619Y-119593380D01*
X104036857Y-119640999D01*
X104227333Y-119688619D01*
X104465428Y-119688619D01*
X104655904Y-119640999D01*
X104751142Y-119593380D01*
X104798761Y-119545761D01*
X104846380Y-119450523D01*
X104846380Y-119355285D01*
X104798761Y-119260047D01*
X104751142Y-119212428D01*
X104655904Y-119164809D01*
X104465428Y-119117190D01*
X104227333Y-119117190D01*
X104036857Y-119164809D01*
X103941619Y-119212428D01*
X103894000Y-119260047D01*
X103846380Y-119355285D01*
X103751142Y-119783857D02*
X105036857Y-120640999D01*
X103846380Y-120688619D02*
X103846380Y-121307666D01*
X104227333Y-120974333D01*
X104227333Y-121117190D01*
X104274952Y-121212428D01*
X104322571Y-121260047D01*
X104417809Y-121307666D01*
X104655904Y-121307666D01*
X104751142Y-121260047D01*
X104798761Y-121212428D01*
X104846380Y-121117190D01*
X104846380Y-120831476D01*
X104798761Y-120736238D01*
X104751142Y-120688619D01*
X104846380Y-122260047D02*
X104846380Y-121688619D01*
X104846380Y-121974333D02*
X103846380Y-121974333D01*
X103989238Y-121879095D01*
X104084476Y-121783857D01*
X104132095Y-121688619D01*
X103846380Y-123164809D02*
X103846380Y-122688619D01*
X104322571Y-122640999D01*
X104274952Y-122688619D01*
X104227333Y-122783857D01*
X104227333Y-123021952D01*
X104274952Y-123117190D01*
X104322571Y-123164809D01*
X104417809Y-123212428D01*
X104655904Y-123212428D01*
X104751142Y-123164809D01*
X104798761Y-123117190D01*
X104846380Y-123021952D01*
X104846380Y-122783857D01*
X104798761Y-122688619D01*
X104751142Y-122640999D01*
%LPC*%
D11*
X158750000Y-105918000D03*
X158750000Y-103378000D03*
X158750000Y-100838000D03*
X158750000Y-98298000D03*
X158750000Y-72898000D03*
X143510000Y-103378000D03*
X158750000Y-95758000D03*
X158750000Y-93218000D03*
X158750000Y-90678000D03*
X158750000Y-88138000D03*
X158750000Y-85598000D03*
X158750000Y-83058000D03*
X158750000Y-80518000D03*
X158750000Y-77978000D03*
X158750000Y-75438000D03*
X143510000Y-75438000D03*
X143510000Y-77978000D03*
X143510000Y-80518000D03*
X143510000Y-83058000D03*
X143510000Y-85598000D03*
X143510000Y-88138000D03*
X143510000Y-90678000D03*
X143510000Y-93218000D03*
X143510000Y-95758000D03*
X143510000Y-98298000D03*
X143510000Y-100838000D03*
X158750000Y-70358000D03*
X158750000Y-67818000D03*
X158750000Y-65278000D03*
X158750000Y-62738000D03*
X158750000Y-60198000D03*
X158750000Y-57658000D03*
X158750000Y-55118000D03*
X158750000Y-52578000D03*
X158750000Y-50038000D03*
X143510000Y-50038000D03*
X143510000Y-52578000D03*
X143510000Y-55118000D03*
X143510000Y-57658000D03*
X143510000Y-60198000D03*
X143510000Y-62738000D03*
X143510000Y-65278000D03*
X143510000Y-67818000D03*
X143510000Y-70358000D03*
X158750000Y-108458000D03*
X143510000Y-72898000D03*
X143510000Y-105918000D03*
X143510000Y-108458000D03*
D12*
X182118000Y-137541000D03*
X169418000Y-137541000D03*
D13*
X180848000Y-128905000D03*
X178308000Y-128905000D03*
X175768000Y-128905000D03*
X173228000Y-128905000D03*
X170688000Y-128905000D03*
D12*
X189484000Y-90043000D03*
X189484000Y-97663000D03*
D13*
X180848000Y-91313000D03*
X180848000Y-93853000D03*
X180848000Y-96393000D03*
D12*
X117348000Y-137541000D03*
X107188000Y-137541000D03*
D13*
X116078000Y-128905000D03*
X113538000Y-128905000D03*
X110998000Y-128905000D03*
X108458000Y-128905000D03*
D14*
X188976000Y-137160000D03*
D15*
X102362000Y-80899000D03*
D16*
X102362000Y-83439000D03*
X102362000Y-85979000D03*
X102362000Y-88519000D03*
X102362000Y-91059000D03*
X102362000Y-93599000D03*
D14*
X188976000Y-50800000D03*
X100584000Y-50800000D03*
D17*
X114687400Y-61764000D03*
X114687400Y-69638000D03*
D14*
X100584000Y-137160000D03*
D12*
X149606000Y-137541000D03*
X139446000Y-137541000D03*
D13*
X148336000Y-128905000D03*
X145796000Y-128905000D03*
X143256000Y-128905000D03*
X140716000Y-128905000D03*
D12*
X189484000Y-112395000D03*
X189484000Y-104775000D03*
D13*
X180848000Y-106045000D03*
X180848000Y-108585000D03*
X180848000Y-111125000D03*
D18*
X121666000Y-69723000D03*
D19*
X124206000Y-69723000D03*
X126746000Y-69723000D03*
D12*
X164846000Y-137541000D03*
X154686000Y-137541000D03*
D13*
X163576000Y-128905000D03*
X161036000Y-128905000D03*
X158496000Y-128905000D03*
X155956000Y-128905000D03*
D12*
X133604000Y-137668000D03*
X123444000Y-137668000D03*
D13*
X132334000Y-129032000D03*
X129794000Y-129032000D03*
X127254000Y-129032000D03*
X124714000Y-129032000D03*
D20*
X175514000Y-69086000D03*
X172974000Y-67816000D03*
X175514000Y-66546000D03*
X172974000Y-65276000D03*
X175514000Y-64006000D03*
X172974000Y-62736000D03*
X175514000Y-61466000D03*
X172974000Y-60196000D03*
D21*
X186944000Y-70966000D03*
X185154000Y-68426000D03*
X186944000Y-60856000D03*
X185154000Y-58316000D03*
D22*
X181864000Y-70356000D03*
X181864000Y-58926000D03*
D23*
X178814000Y-72516000D03*
X178814000Y-56766000D03*
D15*
X102362000Y-105029000D03*
D16*
X102362000Y-107569000D03*
X102362000Y-110109000D03*
X102362000Y-112649000D03*
X102362000Y-115189000D03*
X102362000Y-117729000D03*
D12*
X189488000Y-78865000D03*
X189484000Y-83693000D03*
D13*
X180848000Y-80010000D03*
X180848000Y-82550000D03*
D24*
X169910000Y-70580000D03*
D25*
X167910000Y-70580000D03*
X169910000Y-68580000D03*
X167910000Y-68580000D03*
X169910000Y-66580000D03*
X167910000Y-66580000D03*
M02*
