%TF.GenerationSoftware,KiCad,Pcbnew,(6.0.10)*%
%TF.CreationDate,2022-12-29T21:44:20-06:00*%
%TF.ProjectId,ScienceSensor,53636965-6e63-4655-9365-6e736f722e6b,rev?*%
%TF.SameCoordinates,Original*%
%TF.FileFunction,Paste,Top*%
%TF.FilePolarity,Positive*%
%FSLAX46Y46*%
G04 Gerber Fmt 4.6, Leading zero omitted, Abs format (unit mm)*
G04 Created by KiCad (PCBNEW (6.0.10)) date 2022-12-29 21:44:20*
%MOMM*%
%LPD*%
G01*
G04 APERTURE LIST*
G04 Aperture macros list*
%AMRoundRect*
0 Rectangle with rounded corners*
0 $1 Rounding radius*
0 $2 $3 $4 $5 $6 $7 $8 $9 X,Y pos of 4 corners*
0 Add a 4 corners polygon primitive as box body*
4,1,4,$2,$3,$4,$5,$6,$7,$8,$9,$2,$3,0*
0 Add four circle primitives for the rounded corners*
1,1,$1+$1,$2,$3*
1,1,$1+$1,$4,$5*
1,1,$1+$1,$6,$7*
1,1,$1+$1,$8,$9*
0 Add four rect primitives between the rounded corners*
20,1,$1+$1,$2,$3,$4,$5,0*
20,1,$1+$1,$4,$5,$6,$7,0*
20,1,$1+$1,$6,$7,$8,$9,0*
20,1,$1+$1,$8,$9,$2,$3,0*%
G04 Aperture macros list end*
%ADD10RoundRect,0.237500X-0.237500X0.287500X-0.237500X-0.287500X0.237500X-0.287500X0.237500X0.287500X0*%
%ADD11RoundRect,0.237500X0.250000X0.237500X-0.250000X0.237500X-0.250000X-0.237500X0.250000X-0.237500X0*%
%ADD12RoundRect,0.237500X0.237500X-0.250000X0.237500X0.250000X-0.237500X0.250000X-0.237500X-0.250000X0*%
%ADD13RoundRect,0.150000X-0.150000X0.587500X-0.150000X-0.587500X0.150000X-0.587500X0.150000X0.587500X0*%
%ADD14RoundRect,0.237500X-0.250000X-0.237500X0.250000X-0.237500X0.250000X0.237500X-0.250000X0.237500X0*%
%ADD15RoundRect,0.237500X0.287500X0.237500X-0.287500X0.237500X-0.287500X-0.237500X0.287500X-0.237500X0*%
%ADD16O,3.000000X5.100000*%
%ADD17RoundRect,0.237500X-0.287500X-0.237500X0.287500X-0.237500X0.287500X0.237500X-0.287500X0.237500X0*%
%ADD18RoundRect,0.237500X-0.300000X-0.237500X0.300000X-0.237500X0.300000X0.237500X-0.300000X0.237500X0*%
G04 APERTURE END LIST*
D10*
X138938000Y-122950000D03*
X138938000Y-124700000D03*
D11*
X112823000Y-126365000D03*
X110998000Y-126365000D03*
D12*
X168910000Y-126007500D03*
X168910000Y-124182500D03*
D11*
X173886500Y-116840000D03*
X172061500Y-116840000D03*
D13*
X147254000Y-116641000D03*
X145354000Y-116641000D03*
X146304000Y-118516000D03*
D12*
X146304000Y-122936000D03*
X146304000Y-121111000D03*
D14*
X154154500Y-126492000D03*
X155979500Y-126492000D03*
D12*
X142494000Y-122959500D03*
X142494000Y-121134500D03*
D13*
X173924000Y-119712500D03*
X172024000Y-119712500D03*
X172974000Y-121587500D03*
D14*
X122889000Y-126619000D03*
X124714000Y-126619000D03*
D11*
X110871000Y-112649000D03*
X109046000Y-112649000D03*
D10*
X178435000Y-77206500D03*
X178435000Y-78956500D03*
D15*
X114643500Y-110109000D03*
X112893500Y-110109000D03*
D14*
X138914500Y-126619000D03*
X140739500Y-126619000D03*
D11*
X145081000Y-126619000D03*
X143256000Y-126619000D03*
D14*
X127738500Y-62738000D03*
X129563500Y-62738000D03*
D12*
X160274000Y-122832500D03*
X160274000Y-121007500D03*
D11*
X147216500Y-114427000D03*
X145391500Y-114427000D03*
D14*
X106656500Y-126365000D03*
X108481500Y-126365000D03*
D10*
X152146000Y-124742000D03*
X152146000Y-126492000D03*
X162282500Y-124742000D03*
X162282500Y-126492000D03*
D12*
X177038000Y-126007500D03*
X177038000Y-124182500D03*
D11*
X160321000Y-126492000D03*
X158496000Y-126492000D03*
X110871000Y-110109000D03*
X109046000Y-110109000D03*
X110885000Y-117729000D03*
X109060000Y-117729000D03*
D10*
X148971000Y-122950000D03*
X148971000Y-124700000D03*
D15*
X114653000Y-115189000D03*
X112903000Y-115189000D03*
D11*
X169822500Y-116840000D03*
X167997500Y-116840000D03*
X177950500Y-116840000D03*
X176125500Y-116840000D03*
D13*
X143444000Y-116664500D03*
X141544000Y-116664500D03*
X142494000Y-118539500D03*
D15*
X114667000Y-117729000D03*
X112917000Y-117729000D03*
D14*
X124944500Y-73279000D03*
X126769500Y-73279000D03*
D16*
X114687400Y-61764000D03*
X114687400Y-69638000D03*
D13*
X169860000Y-119712500D03*
X167960000Y-119712500D03*
X168910000Y-121587500D03*
D10*
X131064000Y-124855000D03*
X131064000Y-126605000D03*
D11*
X161186500Y-114300000D03*
X159361500Y-114300000D03*
D17*
X124220000Y-62738000D03*
X125970000Y-62738000D03*
D15*
X114643500Y-112649000D03*
X112893500Y-112649000D03*
D13*
X177988000Y-119712500D03*
X176088000Y-119712500D03*
X177038000Y-121587500D03*
D12*
X156210000Y-122959500D03*
X156210000Y-121134500D03*
D11*
X110871000Y-115189000D03*
X109046000Y-115189000D03*
D13*
X161224000Y-116537500D03*
X159324000Y-116537500D03*
X160274000Y-118412500D03*
D11*
X129079000Y-126619000D03*
X127254000Y-126619000D03*
D17*
X121045000Y-73279000D03*
X122795000Y-73279000D03*
D12*
X172974000Y-126007500D03*
X172974000Y-124182500D03*
D11*
X157122500Y-114300000D03*
X155297500Y-114300000D03*
D18*
X167996000Y-58545000D03*
X169721000Y-58545000D03*
D12*
X178435000Y-82550000D03*
X178435000Y-80725000D03*
D10*
X120904000Y-124869000D03*
X120904000Y-126619000D03*
D11*
X143406500Y-114427000D03*
X141581500Y-114427000D03*
D13*
X157160000Y-116664500D03*
X155260000Y-116664500D03*
X156210000Y-118539500D03*
M02*
