G04 #@! TF.GenerationSoftware,KiCad,Pcbnew,(5.0.0)*
G04 #@! TF.CreationDate,2018-12-16T13:52:50-06:00*
G04 #@! TF.ProjectId,SRASensorBoard_Hardware,53524153656E736F72426F6172645F48,rev?*
G04 #@! TF.SameCoordinates,Original*
G04 #@! TF.FileFunction,Legend,Bot*
G04 #@! TF.FilePolarity,Positive*
%FSLAX46Y46*%
G04 Gerber Fmt 4.6, Leading zero omitted, Abs format (unit mm)*
G04 Created by KiCad (PCBNEW (5.0.0)) date 12/16/18 13:52:50*
%MOMM*%
%LPD*%
G01*
G04 APERTURE LIST*
%ADD10C,0.200000*%
%ADD11C,0.248000*%
%ADD12C,0.300000*%
%ADD13C,0.120000*%
%ADD14C,0.150000*%
G04 APERTURE END LIST*
D10*
X88646000Y-81407000D02*
X88646000Y-72136000D01*
X86360000Y-81407000D02*
X88646000Y-81407000D01*
X207518000Y-46990000D02*
X207518000Y-45085000D01*
X195326000Y-46990000D02*
X207518000Y-46990000D01*
X195326000Y-45085000D02*
X195326000Y-46990000D01*
X190754000Y-47498000D02*
X190754000Y-45212000D01*
X170688000Y-47498000D02*
X190754000Y-47498000D01*
X170688000Y-45212000D02*
X170688000Y-47498000D01*
X166624000Y-47498000D02*
X166624000Y-45212000D01*
X160528000Y-47498000D02*
X166624000Y-47498000D01*
X160528000Y-45212000D02*
X160528000Y-47498000D01*
X156464000Y-47498000D02*
X156464000Y-45212000D01*
X136144000Y-47498000D02*
X156464000Y-47498000D01*
X136144000Y-45212000D02*
X136144000Y-47498000D01*
X133096000Y-47244000D02*
X133096000Y-45212000D01*
X123698000Y-47244000D02*
X133096000Y-47244000D01*
X123698000Y-45212000D02*
X123698000Y-47244000D01*
X121666000Y-47244000D02*
X121666000Y-45212000D01*
X108458000Y-47244000D02*
X121666000Y-47244000D01*
X108458000Y-45212000D02*
X108458000Y-47244000D01*
X107188000Y-47244000D02*
X107188000Y-45212000D01*
X93980000Y-47244000D02*
X107188000Y-47244000D01*
X93980000Y-45212000D02*
X93980000Y-47244000D01*
X86360000Y-72136000D02*
X88646000Y-72136000D01*
D11*
X130568000Y-54616190D02*
X130520761Y-54521714D01*
X130520761Y-54379999D01*
X130568000Y-54238285D01*
X130662476Y-54143809D01*
X130756952Y-54096571D01*
X130945904Y-54049333D01*
X131087619Y-54049333D01*
X131276571Y-54096571D01*
X131371047Y-54143809D01*
X131465523Y-54238285D01*
X131512761Y-54379999D01*
X131512761Y-54474476D01*
X131465523Y-54616190D01*
X131418285Y-54663428D01*
X131087619Y-54663428D01*
X131087619Y-54474476D01*
X131512761Y-55088571D02*
X130520761Y-55088571D01*
X131512761Y-55655428D01*
X130520761Y-55655428D01*
X131512761Y-56127809D02*
X130520761Y-56127809D01*
X130520761Y-56363999D01*
X130567999Y-56505714D01*
X130662476Y-56600190D01*
X130756952Y-56647428D01*
X130945904Y-56694666D01*
X131087619Y-56694666D01*
X131276571Y-56647428D01*
X131371047Y-56600190D01*
X131465523Y-56505714D01*
X131512761Y-56363999D01*
X131512761Y-56127809D01*
X128435333Y-50104190D02*
X128435333Y-50576571D01*
X128718761Y-50009714D02*
X127726761Y-50340380D01*
X128718761Y-50671047D01*
X128057428Y-50860000D02*
X128057428Y-51237904D01*
X127726761Y-51001714D02*
X128577047Y-51001714D01*
X128671523Y-51048952D01*
X128718761Y-51143428D01*
X128718761Y-51237904D01*
X128718761Y-51568571D02*
X128057428Y-51568571D01*
X128151904Y-51568571D02*
X128104666Y-51615809D01*
X128057428Y-51710285D01*
X128057428Y-51852000D01*
X128104666Y-51946476D01*
X128199142Y-51993714D01*
X128718761Y-51993714D01*
X128199142Y-51993714D02*
X128104666Y-52040952D01*
X128057428Y-52135428D01*
X128057428Y-52277142D01*
X128104666Y-52371619D01*
X128199142Y-52418857D01*
X128718761Y-52418857D01*
X128813238Y-52655047D02*
X128813238Y-53410857D01*
X128718761Y-53647047D02*
X127726761Y-53647047D01*
X127726761Y-53883238D01*
X127773999Y-54024952D01*
X127868476Y-54119428D01*
X127962952Y-54166666D01*
X128151904Y-54213904D01*
X128293619Y-54213904D01*
X128482571Y-54166666D01*
X128577047Y-54119428D01*
X128671523Y-54024952D01*
X128718761Y-53883238D01*
X128718761Y-53647047D01*
X128718761Y-54780761D02*
X128671523Y-54686285D01*
X128624285Y-54639047D01*
X128529809Y-54591809D01*
X128246380Y-54591809D01*
X128151904Y-54639047D01*
X128104666Y-54686285D01*
X128057428Y-54780761D01*
X128057428Y-54922476D01*
X128104666Y-55016952D01*
X128151904Y-55064190D01*
X128246380Y-55111428D01*
X128529809Y-55111428D01*
X128624285Y-55064190D01*
X128671523Y-55016952D01*
X128718761Y-54922476D01*
X128718761Y-54780761D01*
X128057428Y-55961714D02*
X128718761Y-55961714D01*
X128057428Y-55536571D02*
X128577047Y-55536571D01*
X128671523Y-55583809D01*
X128718761Y-55678285D01*
X128718761Y-55820000D01*
X128671523Y-55914476D01*
X128624285Y-55961714D01*
X128057428Y-56292380D02*
X128057428Y-56670285D01*
X127726761Y-56434095D02*
X128577047Y-56434095D01*
X128671523Y-56481333D01*
X128718761Y-56575809D01*
X128718761Y-56670285D01*
X125546857Y-53116190D02*
X125546857Y-53872000D01*
X125924761Y-53494095D02*
X125168952Y-53494095D01*
X124932761Y-54249904D02*
X124932761Y-54863999D01*
X125310666Y-54533333D01*
X125310666Y-54675047D01*
X125357904Y-54769523D01*
X125405142Y-54816761D01*
X125499619Y-54864000D01*
X125735809Y-54864000D01*
X125830285Y-54816761D01*
X125877523Y-54769523D01*
X125924761Y-54675047D01*
X125924761Y-54391619D01*
X125877523Y-54297142D01*
X125830285Y-54249904D01*
X124932761Y-55147428D02*
X125924761Y-55478095D01*
X124932761Y-55808761D01*
X124932761Y-56044952D02*
X124932761Y-56659047D01*
X125310666Y-56328380D01*
X125310666Y-56470095D01*
X125357904Y-56564571D01*
X125405142Y-56611809D01*
X125499619Y-56659047D01*
X125735809Y-56659047D01*
X125830285Y-56611809D01*
X125877523Y-56564571D01*
X125924761Y-56470095D01*
X125924761Y-56186666D01*
X125877523Y-56092190D01*
X125830285Y-56044952D01*
D12*
X105869714Y-45906571D02*
X105869714Y-46906571D01*
X106226857Y-45335142D02*
X106584000Y-46406571D01*
X105655428Y-46406571D01*
X102941142Y-45406571D02*
X102012571Y-45406571D01*
X102512571Y-45978000D01*
X102298285Y-45978000D01*
X102155428Y-46049428D01*
X102084000Y-46120857D01*
X102012571Y-46263714D01*
X102012571Y-46620857D01*
X102084000Y-46763714D01*
X102155428Y-46835142D01*
X102298285Y-46906571D01*
X102726857Y-46906571D01*
X102869714Y-46835142D01*
X102941142Y-46763714D01*
X99155428Y-45549428D02*
X99084000Y-45478000D01*
X98941142Y-45406571D01*
X98584000Y-45406571D01*
X98441142Y-45478000D01*
X98369714Y-45549428D01*
X98298285Y-45692285D01*
X98298285Y-45835142D01*
X98369714Y-46049428D01*
X99226857Y-46906571D01*
X98298285Y-46906571D01*
X94584000Y-46906571D02*
X95441142Y-46906571D01*
X95012571Y-46906571D02*
X95012571Y-45406571D01*
X95155428Y-45620857D01*
X95298285Y-45763714D01*
X95441142Y-45835142D01*
X120347714Y-45906571D02*
X120347714Y-46906571D01*
X120704857Y-45335142D02*
X121062000Y-46406571D01*
X120133428Y-46406571D01*
X117419142Y-45406571D02*
X116490571Y-45406571D01*
X116990571Y-45978000D01*
X116776285Y-45978000D01*
X116633428Y-46049428D01*
X116562000Y-46120857D01*
X116490571Y-46263714D01*
X116490571Y-46620857D01*
X116562000Y-46763714D01*
X116633428Y-46835142D01*
X116776285Y-46906571D01*
X117204857Y-46906571D01*
X117347714Y-46835142D01*
X117419142Y-46763714D01*
X113633428Y-45549428D02*
X113562000Y-45478000D01*
X113419142Y-45406571D01*
X113062000Y-45406571D01*
X112919142Y-45478000D01*
X112847714Y-45549428D01*
X112776285Y-45692285D01*
X112776285Y-45835142D01*
X112847714Y-46049428D01*
X113704857Y-46906571D01*
X112776285Y-46906571D01*
X109062000Y-46906571D02*
X109919142Y-46906571D01*
X109490571Y-46906571D02*
X109490571Y-45406571D01*
X109633428Y-45620857D01*
X109776285Y-45763714D01*
X109919142Y-45835142D01*
X132484285Y-45406571D02*
X131555714Y-45406571D01*
X132055714Y-45978000D01*
X131841428Y-45978000D01*
X131698571Y-46049428D01*
X131627142Y-46120857D01*
X131555714Y-46263714D01*
X131555714Y-46620857D01*
X131627142Y-46763714D01*
X131698571Y-46835142D01*
X131841428Y-46906571D01*
X132269999Y-46906571D01*
X132412857Y-46835142D01*
X132484285Y-46763714D01*
X128698571Y-45549428D02*
X128627142Y-45478000D01*
X128484285Y-45406571D01*
X128127142Y-45406571D01*
X127984285Y-45478000D01*
X127912857Y-45549428D01*
X127841428Y-45692285D01*
X127841428Y-45835142D01*
X127912857Y-46049428D01*
X128769999Y-46906571D01*
X127841428Y-46906571D01*
X124127142Y-46906571D02*
X124984285Y-46906571D01*
X124555714Y-46906571D02*
X124555714Y-45406571D01*
X124698571Y-45620857D01*
X124841428Y-45763714D01*
X124984285Y-45835142D01*
X155446857Y-46303428D02*
X155589714Y-46232000D01*
X155661142Y-46160571D01*
X155732571Y-46017714D01*
X155732571Y-45946285D01*
X155661142Y-45803428D01*
X155589714Y-45732000D01*
X155446857Y-45660571D01*
X155161142Y-45660571D01*
X155018285Y-45732000D01*
X154946857Y-45803428D01*
X154875428Y-45946285D01*
X154875428Y-46017714D01*
X154946857Y-46160571D01*
X155018285Y-46232000D01*
X155161142Y-46303428D01*
X155446857Y-46303428D01*
X155589714Y-46374857D01*
X155661142Y-46446285D01*
X155732571Y-46589142D01*
X155732571Y-46874857D01*
X155661142Y-47017714D01*
X155589714Y-47089142D01*
X155446857Y-47160571D01*
X155161142Y-47160571D01*
X155018285Y-47089142D01*
X154946857Y-47017714D01*
X154875428Y-46874857D01*
X154875428Y-46589142D01*
X154946857Y-46446285D01*
X155018285Y-46374857D01*
X155161142Y-46303428D01*
X153232571Y-45660571D02*
X152232571Y-45660571D01*
X152875428Y-47160571D01*
X149875428Y-45660571D02*
X150161142Y-45660571D01*
X150304000Y-45732000D01*
X150375428Y-45803428D01*
X150518285Y-46017714D01*
X150589714Y-46303428D01*
X150589714Y-46874857D01*
X150518285Y-47017714D01*
X150446857Y-47089142D01*
X150304000Y-47160571D01*
X150018285Y-47160571D01*
X149875428Y-47089142D01*
X149804000Y-47017714D01*
X149732571Y-46874857D01*
X149732571Y-46517714D01*
X149804000Y-46374857D01*
X149875428Y-46303428D01*
X150018285Y-46232000D01*
X150304000Y-46232000D01*
X150446857Y-46303428D01*
X150518285Y-46374857D01*
X150589714Y-46517714D01*
X147232571Y-45660571D02*
X147946857Y-45660571D01*
X148018285Y-46374857D01*
X147946857Y-46303428D01*
X147804000Y-46232000D01*
X147446857Y-46232000D01*
X147304000Y-46303428D01*
X147232571Y-46374857D01*
X147161142Y-46517714D01*
X147161142Y-46874857D01*
X147232571Y-47017714D01*
X147304000Y-47089142D01*
X147446857Y-47160571D01*
X147804000Y-47160571D01*
X147946857Y-47089142D01*
X148018285Y-47017714D01*
X144732571Y-46160571D02*
X144732571Y-47160571D01*
X145089714Y-45589142D02*
X145446857Y-46660571D01*
X144518285Y-46660571D01*
X142946857Y-45660571D02*
X142018285Y-45660571D01*
X142518285Y-46232000D01*
X142304000Y-46232000D01*
X142161142Y-46303428D01*
X142089714Y-46374857D01*
X142018285Y-46517714D01*
X142018285Y-46874857D01*
X142089714Y-47017714D01*
X142161142Y-47089142D01*
X142304000Y-47160571D01*
X142732571Y-47160571D01*
X142875428Y-47089142D01*
X142946857Y-47017714D01*
X140304000Y-45803428D02*
X140232571Y-45732000D01*
X140089714Y-45660571D01*
X139732571Y-45660571D01*
X139589714Y-45732000D01*
X139518285Y-45803428D01*
X139446857Y-45946285D01*
X139446857Y-46089142D01*
X139518285Y-46303428D01*
X140375428Y-47160571D01*
X139446857Y-47160571D01*
X136875428Y-47160571D02*
X137732571Y-47160571D01*
X137304000Y-47160571D02*
X137304000Y-45660571D01*
X137446857Y-45874857D01*
X137589714Y-46017714D01*
X137732571Y-46089142D01*
X165861714Y-45803428D02*
X165790285Y-45732000D01*
X165647428Y-45660571D01*
X165290285Y-45660571D01*
X165147428Y-45732000D01*
X165076000Y-45803428D01*
X165004571Y-45946285D01*
X165004571Y-46089142D01*
X165076000Y-46303428D01*
X165933142Y-47160571D01*
X165004571Y-47160571D01*
X161290285Y-47160571D02*
X162147428Y-47160571D01*
X161718857Y-47160571D02*
X161718857Y-45660571D01*
X161861714Y-45874857D01*
X162004571Y-46017714D01*
X162147428Y-46089142D01*
X189736857Y-46303428D02*
X189879714Y-46232000D01*
X189951142Y-46160571D01*
X190022571Y-46017714D01*
X190022571Y-45946285D01*
X189951142Y-45803428D01*
X189879714Y-45732000D01*
X189736857Y-45660571D01*
X189451142Y-45660571D01*
X189308285Y-45732000D01*
X189236857Y-45803428D01*
X189165428Y-45946285D01*
X189165428Y-46017714D01*
X189236857Y-46160571D01*
X189308285Y-46232000D01*
X189451142Y-46303428D01*
X189736857Y-46303428D01*
X189879714Y-46374857D01*
X189951142Y-46446285D01*
X190022571Y-46589142D01*
X190022571Y-46874857D01*
X189951142Y-47017714D01*
X189879714Y-47089142D01*
X189736857Y-47160571D01*
X189451142Y-47160571D01*
X189308285Y-47089142D01*
X189236857Y-47017714D01*
X189165428Y-46874857D01*
X189165428Y-46589142D01*
X189236857Y-46446285D01*
X189308285Y-46374857D01*
X189451142Y-46303428D01*
X187522571Y-45660571D02*
X186522571Y-45660571D01*
X187165428Y-47160571D01*
X184165428Y-45660571D02*
X184451142Y-45660571D01*
X184594000Y-45732000D01*
X184665428Y-45803428D01*
X184808285Y-46017714D01*
X184879714Y-46303428D01*
X184879714Y-46874857D01*
X184808285Y-47017714D01*
X184736857Y-47089142D01*
X184594000Y-47160571D01*
X184308285Y-47160571D01*
X184165428Y-47089142D01*
X184094000Y-47017714D01*
X184022571Y-46874857D01*
X184022571Y-46517714D01*
X184094000Y-46374857D01*
X184165428Y-46303428D01*
X184308285Y-46232000D01*
X184594000Y-46232000D01*
X184736857Y-46303428D01*
X184808285Y-46374857D01*
X184879714Y-46517714D01*
X181522571Y-45660571D02*
X182236857Y-45660571D01*
X182308285Y-46374857D01*
X182236857Y-46303428D01*
X182094000Y-46232000D01*
X181736857Y-46232000D01*
X181594000Y-46303428D01*
X181522571Y-46374857D01*
X181451142Y-46517714D01*
X181451142Y-46874857D01*
X181522571Y-47017714D01*
X181594000Y-47089142D01*
X181736857Y-47160571D01*
X182094000Y-47160571D01*
X182236857Y-47089142D01*
X182308285Y-47017714D01*
X179022571Y-46160571D02*
X179022571Y-47160571D01*
X179379714Y-45589142D02*
X179736857Y-46660571D01*
X178808285Y-46660571D01*
X177236857Y-45660571D02*
X176308285Y-45660571D01*
X176808285Y-46232000D01*
X176594000Y-46232000D01*
X176451142Y-46303428D01*
X176379714Y-46374857D01*
X176308285Y-46517714D01*
X176308285Y-46874857D01*
X176379714Y-47017714D01*
X176451142Y-47089142D01*
X176594000Y-47160571D01*
X177022571Y-47160571D01*
X177165428Y-47089142D01*
X177236857Y-47017714D01*
X174594000Y-45803428D02*
X174522571Y-45732000D01*
X174379714Y-45660571D01*
X174022571Y-45660571D01*
X173879714Y-45732000D01*
X173808285Y-45803428D01*
X173736857Y-45946285D01*
X173736857Y-46089142D01*
X173808285Y-46303428D01*
X174665428Y-47160571D01*
X173736857Y-47160571D01*
X171165428Y-47160571D02*
X172022571Y-47160571D01*
X171594000Y-47160571D02*
X171594000Y-45660571D01*
X171736857Y-45874857D01*
X171879714Y-46017714D01*
X172022571Y-46089142D01*
X206207714Y-45152571D02*
X206921999Y-45152571D01*
X206993428Y-45866857D01*
X206921999Y-45795428D01*
X206779142Y-45724000D01*
X206421999Y-45724000D01*
X206279142Y-45795428D01*
X206207714Y-45866857D01*
X206136285Y-46009714D01*
X206136285Y-46366857D01*
X206207714Y-46509714D01*
X206279142Y-46581142D01*
X206421999Y-46652571D01*
X206779142Y-46652571D01*
X206921999Y-46581142D01*
X206993428Y-46509714D01*
X203707714Y-45652571D02*
X203707714Y-46652571D01*
X204064857Y-45081142D02*
X204421999Y-46152571D01*
X203493428Y-46152571D01*
X201921999Y-45152571D02*
X200993428Y-45152571D01*
X201493428Y-45724000D01*
X201279142Y-45724000D01*
X201136285Y-45795428D01*
X201064857Y-45866857D01*
X200993428Y-46009714D01*
X200993428Y-46366857D01*
X201064857Y-46509714D01*
X201136285Y-46581142D01*
X201279142Y-46652571D01*
X201707714Y-46652571D01*
X201850571Y-46581142D01*
X201921999Y-46509714D01*
X199279142Y-45295428D02*
X199207714Y-45224000D01*
X199064857Y-45152571D01*
X198707714Y-45152571D01*
X198564857Y-45224000D01*
X198493428Y-45295428D01*
X198421999Y-45438285D01*
X198421999Y-45581142D01*
X198493428Y-45795428D01*
X199350571Y-46652571D01*
X198421999Y-46652571D01*
X195850571Y-46652571D02*
X196707714Y-46652571D01*
X196279142Y-46652571D02*
X196279142Y-45152571D01*
X196421999Y-45366857D01*
X196564857Y-45509714D01*
X196707714Y-45581142D01*
D11*
X196412857Y-53116190D02*
X196412857Y-53872000D01*
X196790761Y-53494095D02*
X196034952Y-53494095D01*
X195798761Y-54249904D02*
X195798761Y-54863999D01*
X196176666Y-54533333D01*
X196176666Y-54675047D01*
X196223904Y-54769523D01*
X196271142Y-54816761D01*
X196365619Y-54864000D01*
X196601809Y-54864000D01*
X196696285Y-54816761D01*
X196743523Y-54769523D01*
X196790761Y-54675047D01*
X196790761Y-54391619D01*
X196743523Y-54297142D01*
X196696285Y-54249904D01*
X195798761Y-55147428D02*
X196790761Y-55478095D01*
X195798761Y-55808761D01*
X195798761Y-56044952D02*
X195798761Y-56659047D01*
X196176666Y-56328380D01*
X196176666Y-56470095D01*
X196223904Y-56564571D01*
X196271142Y-56611809D01*
X196365619Y-56659047D01*
X196601809Y-56659047D01*
X196696285Y-56611809D01*
X196743523Y-56564571D01*
X196790761Y-56470095D01*
X196790761Y-56186666D01*
X196743523Y-56092190D01*
X196696285Y-56044952D01*
X97275809Y-72656000D02*
X97370285Y-72608761D01*
X97512000Y-72608761D01*
X97653714Y-72656000D01*
X97748190Y-72750476D01*
X97795428Y-72844952D01*
X97842666Y-73033904D01*
X97842666Y-73175619D01*
X97795428Y-73364571D01*
X97748190Y-73459047D01*
X97653714Y-73553523D01*
X97512000Y-73600761D01*
X97417523Y-73600761D01*
X97275809Y-73553523D01*
X97228571Y-73506285D01*
X97228571Y-73175619D01*
X97417523Y-73175619D01*
X96803428Y-73600761D02*
X96803428Y-72608761D01*
X96236571Y-73600761D01*
X96236571Y-72608761D01*
X95764190Y-73600761D02*
X95764190Y-72608761D01*
X95528000Y-72608761D01*
X95386285Y-72656000D01*
X95291809Y-72750476D01*
X95244571Y-72844952D01*
X95197333Y-73033904D01*
X95197333Y-73175619D01*
X95244571Y-73364571D01*
X95291809Y-73459047D01*
X95386285Y-73553523D01*
X95528000Y-73600761D01*
X95764190Y-73600761D01*
X97983619Y-76140761D02*
X97983619Y-75148761D01*
X97652952Y-75857333D01*
X97322285Y-75148761D01*
X97322285Y-76140761D01*
X96991619Y-75479428D02*
X96613714Y-75479428D01*
X96849904Y-75148761D02*
X96849904Y-75999047D01*
X96802666Y-76093523D01*
X96708190Y-76140761D01*
X96613714Y-76140761D01*
X96283047Y-76140761D02*
X96283047Y-75148761D01*
X95857904Y-76140761D02*
X95857904Y-75621142D01*
X95905142Y-75526666D01*
X95999619Y-75479428D01*
X96141333Y-75479428D01*
X96235809Y-75526666D01*
X96283047Y-75573904D01*
X95385523Y-75479428D02*
X95385523Y-76140761D01*
X95385523Y-75573904D02*
X95338285Y-75526666D01*
X95243809Y-75479428D01*
X95102095Y-75479428D01*
X95007619Y-75526666D01*
X94960380Y-75621142D01*
X94960380Y-76140761D01*
X93873904Y-75148761D02*
X93543238Y-76140761D01*
X93212571Y-75148761D01*
X92740190Y-76140761D02*
X92834666Y-76093523D01*
X92881904Y-76046285D01*
X92929142Y-75951809D01*
X92929142Y-75668380D01*
X92881904Y-75573904D01*
X92834666Y-75526666D01*
X92740190Y-75479428D01*
X92598476Y-75479428D01*
X92504000Y-75526666D01*
X92456761Y-75573904D01*
X92409523Y-75668380D01*
X92409523Y-75951809D01*
X92456761Y-76046285D01*
X92504000Y-76093523D01*
X92598476Y-76140761D01*
X92740190Y-76140761D01*
X91559238Y-75479428D02*
X91559238Y-76140761D01*
X91984380Y-75479428D02*
X91984380Y-75999047D01*
X91937142Y-76093523D01*
X91842666Y-76140761D01*
X91700952Y-76140761D01*
X91606476Y-76093523D01*
X91559238Y-76046285D01*
X91228571Y-75479428D02*
X90850666Y-75479428D01*
X91086857Y-75148761D02*
X91086857Y-75999047D01*
X91039619Y-76093523D01*
X90945142Y-76140761D01*
X90850666Y-76140761D01*
X98013809Y-78302857D02*
X97258000Y-78302857D01*
X97635904Y-78680761D02*
X97635904Y-77924952D01*
X96880095Y-77688761D02*
X96266000Y-77688761D01*
X96596666Y-78066666D01*
X96454952Y-78066666D01*
X96360476Y-78113904D01*
X96313238Y-78161142D01*
X96266000Y-78255619D01*
X96266000Y-78491809D01*
X96313238Y-78586285D01*
X96360476Y-78633523D01*
X96454952Y-78680761D01*
X96738380Y-78680761D01*
X96832857Y-78633523D01*
X96880095Y-78586285D01*
X95982571Y-77688761D02*
X95651904Y-78680761D01*
X95321238Y-77688761D01*
X95085047Y-77688761D02*
X94470952Y-77688761D01*
X94801619Y-78066666D01*
X94659904Y-78066666D01*
X94565428Y-78113904D01*
X94518190Y-78161142D01*
X94470952Y-78255619D01*
X94470952Y-78491809D01*
X94518190Y-78586285D01*
X94565428Y-78633523D01*
X94659904Y-78680761D01*
X94943333Y-78680761D01*
X95037809Y-78633523D01*
X95085047Y-78586285D01*
X97795428Y-80842857D02*
X97039619Y-80842857D01*
X97417523Y-81220761D02*
X97417523Y-80464952D01*
X96094857Y-80228761D02*
X96567238Y-80228761D01*
X96614476Y-80701142D01*
X96567238Y-80653904D01*
X96472761Y-80606666D01*
X96236571Y-80606666D01*
X96142095Y-80653904D01*
X96094857Y-80701142D01*
X96047619Y-80795619D01*
X96047619Y-81031809D01*
X96094857Y-81126285D01*
X96142095Y-81173523D01*
X96236571Y-81220761D01*
X96472761Y-81220761D01*
X96567238Y-81173523D01*
X96614476Y-81126285D01*
X95764190Y-80228761D02*
X95433523Y-81220761D01*
X95102857Y-80228761D01*
D12*
X87308571Y-73136571D02*
X88308571Y-73136571D01*
X86737142Y-72779428D02*
X87808571Y-72422285D01*
X87808571Y-73350857D01*
X86808571Y-74922285D02*
X86808571Y-75850857D01*
X87380000Y-75350857D01*
X87380000Y-75565142D01*
X87451428Y-75707999D01*
X87522857Y-75779428D01*
X87665714Y-75850857D01*
X88022857Y-75850857D01*
X88165714Y-75779428D01*
X88237142Y-75707999D01*
X88308571Y-75565142D01*
X88308571Y-75136571D01*
X88237142Y-74993714D01*
X88165714Y-74922285D01*
X86951428Y-77565142D02*
X86879999Y-77636571D01*
X86808571Y-77779428D01*
X86808571Y-78136571D01*
X86879999Y-78279428D01*
X86951428Y-78350857D01*
X87094285Y-78422285D01*
X87237142Y-78422285D01*
X87451428Y-78350857D01*
X88308571Y-77493714D01*
X88308571Y-78422285D01*
X88308571Y-80993714D02*
X88308571Y-80136571D01*
X88308571Y-80565142D02*
X86808571Y-80565142D01*
X87022857Y-80422285D01*
X87165714Y-80279428D01*
X87237142Y-80136571D01*
D11*
X206260000Y-54616190D02*
X206212761Y-54521714D01*
X206212761Y-54379999D01*
X206260000Y-54238285D01*
X206354476Y-54143809D01*
X206448952Y-54096571D01*
X206637904Y-54049333D01*
X206779619Y-54049333D01*
X206968571Y-54096571D01*
X207063047Y-54143809D01*
X207157523Y-54238285D01*
X207204761Y-54379999D01*
X207204761Y-54474476D01*
X207157523Y-54616190D01*
X207110285Y-54663428D01*
X206779619Y-54663428D01*
X206779619Y-54474476D01*
X207204761Y-55088571D02*
X206212761Y-55088571D01*
X207204761Y-55655428D01*
X206212761Y-55655428D01*
X207204761Y-56127809D02*
X206212761Y-56127809D01*
X206212761Y-56363999D01*
X206259999Y-56505714D01*
X206354476Y-56600190D01*
X206448952Y-56647428D01*
X206637904Y-56694666D01*
X206779619Y-56694666D01*
X206968571Y-56647428D01*
X207063047Y-56600190D01*
X207157523Y-56505714D01*
X207204761Y-56363999D01*
X207204761Y-56127809D01*
X204363523Y-50009714D02*
X204410761Y-50151428D01*
X204410761Y-50387619D01*
X204363523Y-50482095D01*
X204316285Y-50529333D01*
X204221809Y-50576571D01*
X204127333Y-50576571D01*
X204032857Y-50529333D01*
X203985619Y-50482095D01*
X203938380Y-50387619D01*
X203891142Y-50198666D01*
X203843904Y-50104190D01*
X203796666Y-50056952D01*
X203702190Y-50009714D01*
X203607714Y-50009714D01*
X203513238Y-50056952D01*
X203466000Y-50104190D01*
X203418761Y-50198666D01*
X203418761Y-50434857D01*
X203466000Y-50576571D01*
X204410761Y-51001714D02*
X203418761Y-51001714D01*
X204410761Y-51426857D02*
X203891142Y-51426857D01*
X203796666Y-51379619D01*
X203749428Y-51285142D01*
X203749428Y-51143428D01*
X203796666Y-51048952D01*
X203843904Y-51001714D01*
X203749428Y-51757523D02*
X203749428Y-52135428D01*
X204410761Y-51899238D02*
X203560476Y-51899238D01*
X203466000Y-51946476D01*
X203418761Y-52040952D01*
X203418761Y-52135428D01*
X203749428Y-52324380D02*
X203749428Y-52702285D01*
X203418761Y-52466095D02*
X204269047Y-52466095D01*
X204363523Y-52513333D01*
X204410761Y-52607809D01*
X204410761Y-52702285D01*
X203465999Y-54308380D02*
X203418761Y-54213904D01*
X203418761Y-54072190D01*
X203465999Y-53930476D01*
X203560476Y-53835999D01*
X203654952Y-53788761D01*
X203843904Y-53741523D01*
X203985619Y-53741523D01*
X204174571Y-53788761D01*
X204269047Y-53835999D01*
X204363523Y-53930476D01*
X204410761Y-54072190D01*
X204410761Y-54166666D01*
X204363523Y-54308380D01*
X204316285Y-54355619D01*
X203985619Y-54355619D01*
X203985619Y-54166666D01*
X204410761Y-55205904D02*
X203891142Y-55205904D01*
X203796666Y-55158666D01*
X203749428Y-55064190D01*
X203749428Y-54875238D01*
X203796666Y-54780761D01*
X204363523Y-55205904D02*
X204410761Y-55111428D01*
X204410761Y-54875238D01*
X204363523Y-54780761D01*
X204269047Y-54733523D01*
X204174571Y-54733523D01*
X204080095Y-54780761D01*
X204032857Y-54875238D01*
X204032857Y-55111428D01*
X203985619Y-55205904D01*
X203749428Y-55536571D02*
X203749428Y-55914476D01*
X203418761Y-55678285D02*
X204269047Y-55678285D01*
X204363523Y-55725523D01*
X204410761Y-55819999D01*
X204410761Y-55914476D01*
X204363523Y-56623047D02*
X204410761Y-56528571D01*
X204410761Y-56339619D01*
X204363523Y-56245142D01*
X204269047Y-56197904D01*
X203891142Y-56197904D01*
X203796666Y-56245142D01*
X203749428Y-56339619D01*
X203749428Y-56528571D01*
X203796666Y-56623047D01*
X203891142Y-56670285D01*
X203985619Y-56670285D01*
X204080095Y-56197904D01*
X201870761Y-54634000D02*
X200878761Y-54634000D01*
X201776285Y-55673238D02*
X201823523Y-55626000D01*
X201870761Y-55484285D01*
X201870761Y-55389809D01*
X201823523Y-55248095D01*
X201729047Y-55153619D01*
X201634571Y-55106380D01*
X201445619Y-55059142D01*
X201303904Y-55059142D01*
X201114952Y-55106380D01*
X201020476Y-55153619D01*
X200926000Y-55248095D01*
X200878761Y-55389809D01*
X200878761Y-55484285D01*
X200926000Y-55626000D01*
X200973238Y-55673238D01*
X200925999Y-56618000D02*
X200878761Y-56523523D01*
X200878761Y-56381809D01*
X200925999Y-56240095D01*
X201020476Y-56145619D01*
X201114952Y-56098380D01*
X201303904Y-56051142D01*
X201445619Y-56051142D01*
X201634571Y-56098380D01*
X201729047Y-56145619D01*
X201823523Y-56240095D01*
X201870761Y-56381809D01*
X201870761Y-56476285D01*
X201823523Y-56618000D01*
X201776285Y-56665238D01*
X201445619Y-56665238D01*
X201445619Y-56476285D01*
X199330761Y-50499904D02*
X198338761Y-50499904D01*
X199047333Y-50830571D01*
X198338761Y-51161238D01*
X199330761Y-51161238D01*
X199283523Y-51586380D02*
X199330761Y-51680857D01*
X199330761Y-51869809D01*
X199283523Y-51964285D01*
X199189047Y-52011523D01*
X199141809Y-52011523D01*
X199047333Y-51964285D01*
X199000095Y-51869809D01*
X199000095Y-51728095D01*
X198952857Y-51633619D01*
X198858380Y-51586380D01*
X198811142Y-51586380D01*
X198716666Y-51633619D01*
X198669428Y-51728095D01*
X198669428Y-51869809D01*
X198716666Y-51964285D01*
X198669428Y-52294952D02*
X198669428Y-52672857D01*
X198338761Y-52436666D02*
X199189047Y-52436666D01*
X199283523Y-52483904D01*
X199330761Y-52578380D01*
X199330761Y-52672857D01*
X199330761Y-53003523D02*
X198669428Y-53003523D01*
X198858380Y-53003523D02*
X198763904Y-53050761D01*
X198716666Y-53097999D01*
X198669428Y-53192476D01*
X198669428Y-53286952D01*
X199236285Y-54940285D02*
X199283523Y-54893047D01*
X199330761Y-54751333D01*
X199330761Y-54656857D01*
X199283523Y-54515142D01*
X199189047Y-54420666D01*
X199094571Y-54373428D01*
X198905619Y-54326190D01*
X198763904Y-54326190D01*
X198574952Y-54373428D01*
X198480476Y-54420666D01*
X198385999Y-54515142D01*
X198338761Y-54656857D01*
X198338761Y-54751333D01*
X198385999Y-54893047D01*
X198433238Y-54940285D01*
X199330761Y-55837809D02*
X199330761Y-55365428D01*
X198338761Y-55365428D01*
X199330761Y-56168476D02*
X198338761Y-56168476D01*
X199330761Y-56735333D02*
X198763904Y-56310190D01*
X198338761Y-56735333D02*
X198905619Y-56168476D01*
X189649333Y-55124190D02*
X189649333Y-55596571D01*
X189932761Y-55029714D02*
X188940761Y-55360380D01*
X189932761Y-55691047D01*
X188940761Y-56210666D02*
X188940761Y-56399619D01*
X188987999Y-56494095D01*
X189082476Y-56588571D01*
X189271428Y-56635809D01*
X189602095Y-56635809D01*
X189791047Y-56588571D01*
X189885523Y-56494095D01*
X189932761Y-56399619D01*
X189932761Y-56210666D01*
X189885523Y-56116190D01*
X189791047Y-56021714D01*
X189602095Y-55974476D01*
X189271428Y-55974476D01*
X189082476Y-56021714D01*
X188987999Y-56116190D01*
X188940761Y-56210666D01*
X186873142Y-54450857D02*
X186920380Y-54592571D01*
X186967619Y-54639809D01*
X187062095Y-54687047D01*
X187203809Y-54687047D01*
X187298285Y-54639809D01*
X187345523Y-54592571D01*
X187392761Y-54498095D01*
X187392761Y-54120190D01*
X186400761Y-54120190D01*
X186400761Y-54450857D01*
X186448000Y-54545333D01*
X186495238Y-54592571D01*
X186589714Y-54639809D01*
X186684190Y-54639809D01*
X186778666Y-54592571D01*
X186825904Y-54545333D01*
X186873142Y-54450857D01*
X186873142Y-54120190D01*
X187392761Y-55112190D02*
X186731428Y-55112190D01*
X186400761Y-55112190D02*
X186448000Y-55064952D01*
X186495238Y-55112190D01*
X186448000Y-55159428D01*
X186400761Y-55112190D01*
X186495238Y-55112190D01*
X186731428Y-55442857D02*
X186731428Y-55820761D01*
X186400761Y-55584571D02*
X187251047Y-55584571D01*
X187345523Y-55631809D01*
X187392761Y-55726285D01*
X187392761Y-55820761D01*
X186400761Y-56576571D02*
X186400761Y-56387619D01*
X186447999Y-56293142D01*
X186495238Y-56245904D01*
X186636952Y-56151428D01*
X186825904Y-56104190D01*
X187203809Y-56104190D01*
X187298285Y-56151428D01*
X187345523Y-56198666D01*
X187392761Y-56293142D01*
X187392761Y-56482095D01*
X187345523Y-56576571D01*
X187298285Y-56623809D01*
X187203809Y-56671047D01*
X186967619Y-56671047D01*
X186873142Y-56623809D01*
X186825904Y-56576571D01*
X186778666Y-56482095D01*
X186778666Y-56293142D01*
X186825904Y-56198666D01*
X186873142Y-56151428D01*
X186967619Y-56104190D01*
X184333142Y-54450857D02*
X184380380Y-54592571D01*
X184427619Y-54639809D01*
X184522095Y-54687047D01*
X184663809Y-54687047D01*
X184758285Y-54639809D01*
X184805523Y-54592571D01*
X184852761Y-54498095D01*
X184852761Y-54120190D01*
X183860761Y-54120190D01*
X183860761Y-54450857D01*
X183908000Y-54545333D01*
X183955238Y-54592571D01*
X184049714Y-54639809D01*
X184144190Y-54639809D01*
X184238666Y-54592571D01*
X184285904Y-54545333D01*
X184333142Y-54450857D01*
X184333142Y-54120190D01*
X184852761Y-55112190D02*
X184191428Y-55112190D01*
X183860761Y-55112190D02*
X183908000Y-55064952D01*
X183955238Y-55112190D01*
X183908000Y-55159428D01*
X183860761Y-55112190D01*
X183955238Y-55112190D01*
X184191428Y-55442857D02*
X184191428Y-55820761D01*
X183860761Y-55584571D02*
X184711047Y-55584571D01*
X184805523Y-55631809D01*
X184852761Y-55726285D01*
X184852761Y-55820761D01*
X183860761Y-56623809D02*
X183860761Y-56151428D01*
X184333142Y-56104190D01*
X184285904Y-56151428D01*
X184238666Y-56245904D01*
X184238666Y-56482095D01*
X184285904Y-56576571D01*
X184333142Y-56623809D01*
X184427619Y-56671047D01*
X184663809Y-56671047D01*
X184758285Y-56623809D01*
X184805523Y-56576571D01*
X184852761Y-56482095D01*
X184852761Y-56245904D01*
X184805523Y-56151428D01*
X184758285Y-56104190D01*
X181793142Y-54450857D02*
X181840380Y-54592571D01*
X181887619Y-54639809D01*
X181982095Y-54687047D01*
X182123809Y-54687047D01*
X182218285Y-54639809D01*
X182265523Y-54592571D01*
X182312761Y-54498095D01*
X182312761Y-54120190D01*
X181320761Y-54120190D01*
X181320761Y-54450857D01*
X181368000Y-54545333D01*
X181415238Y-54592571D01*
X181509714Y-54639809D01*
X181604190Y-54639809D01*
X181698666Y-54592571D01*
X181745904Y-54545333D01*
X181793142Y-54450857D01*
X181793142Y-54120190D01*
X182312761Y-55112190D02*
X181651428Y-55112190D01*
X181320761Y-55112190D02*
X181368000Y-55064952D01*
X181415238Y-55112190D01*
X181368000Y-55159428D01*
X181320761Y-55112190D01*
X181415238Y-55112190D01*
X181651428Y-55442857D02*
X181651428Y-55820761D01*
X181320761Y-55584571D02*
X182171047Y-55584571D01*
X182265523Y-55631809D01*
X182312761Y-55726285D01*
X182312761Y-55820761D01*
X181651428Y-56576571D02*
X182312761Y-56576571D01*
X181273523Y-56340380D02*
X181982095Y-56104190D01*
X181982095Y-56718285D01*
X179507142Y-54450857D02*
X179554380Y-54592571D01*
X179601619Y-54639809D01*
X179696095Y-54687047D01*
X179837809Y-54687047D01*
X179932285Y-54639809D01*
X179979523Y-54592571D01*
X180026761Y-54498095D01*
X180026761Y-54120190D01*
X179034761Y-54120190D01*
X179034761Y-54450857D01*
X179082000Y-54545333D01*
X179129238Y-54592571D01*
X179223714Y-54639809D01*
X179318190Y-54639809D01*
X179412666Y-54592571D01*
X179459904Y-54545333D01*
X179507142Y-54450857D01*
X179507142Y-54120190D01*
X180026761Y-55112190D02*
X179365428Y-55112190D01*
X179034761Y-55112190D02*
X179082000Y-55064952D01*
X179129238Y-55112190D01*
X179082000Y-55159428D01*
X179034761Y-55112190D01*
X179129238Y-55112190D01*
X179365428Y-55442857D02*
X179365428Y-55820761D01*
X179034761Y-55584571D02*
X179885047Y-55584571D01*
X179979523Y-55631809D01*
X180026761Y-55726285D01*
X180026761Y-55820761D01*
X179034761Y-56056952D02*
X179034761Y-56671047D01*
X179412666Y-56340380D01*
X179412666Y-56482095D01*
X179459904Y-56576571D01*
X179507142Y-56623809D01*
X179601619Y-56671047D01*
X179837809Y-56671047D01*
X179932285Y-56623809D01*
X179979523Y-56576571D01*
X180026761Y-56482095D01*
X180026761Y-56198666D01*
X179979523Y-56104190D01*
X179932285Y-56056952D01*
X176713142Y-54704857D02*
X176760380Y-54846571D01*
X176807619Y-54893809D01*
X176902095Y-54941047D01*
X177043809Y-54941047D01*
X177138285Y-54893809D01*
X177185523Y-54846571D01*
X177232761Y-54752095D01*
X177232761Y-54374190D01*
X176240761Y-54374190D01*
X176240761Y-54704857D01*
X176288000Y-54799333D01*
X176335238Y-54846571D01*
X176429714Y-54893809D01*
X176524190Y-54893809D01*
X176618666Y-54846571D01*
X176665904Y-54799333D01*
X176713142Y-54704857D01*
X176713142Y-54374190D01*
X177232761Y-55366190D02*
X176571428Y-55366190D01*
X176240761Y-55366190D02*
X176288000Y-55318952D01*
X176335238Y-55366190D01*
X176288000Y-55413428D01*
X176240761Y-55366190D01*
X176335238Y-55366190D01*
X176571428Y-55696857D02*
X176571428Y-56074761D01*
X176240761Y-55838571D02*
X177091047Y-55838571D01*
X177185523Y-55885809D01*
X177232761Y-55980285D01*
X177232761Y-56074761D01*
X176335238Y-56358190D02*
X176287999Y-56405428D01*
X176240761Y-56499904D01*
X176240761Y-56736095D01*
X176287999Y-56830571D01*
X176335238Y-56877809D01*
X176429714Y-56925047D01*
X176524190Y-56925047D01*
X176665904Y-56877809D01*
X177232761Y-56310952D01*
X177232761Y-56925047D01*
X174173142Y-54704857D02*
X174220380Y-54846571D01*
X174267619Y-54893809D01*
X174362095Y-54941047D01*
X174503809Y-54941047D01*
X174598285Y-54893809D01*
X174645523Y-54846571D01*
X174692761Y-54752095D01*
X174692761Y-54374190D01*
X173700761Y-54374190D01*
X173700761Y-54704857D01*
X173748000Y-54799333D01*
X173795238Y-54846571D01*
X173889714Y-54893809D01*
X173984190Y-54893809D01*
X174078666Y-54846571D01*
X174125904Y-54799333D01*
X174173142Y-54704857D01*
X174173142Y-54374190D01*
X174692761Y-55366190D02*
X174031428Y-55366190D01*
X173700761Y-55366190D02*
X173748000Y-55318952D01*
X173795238Y-55366190D01*
X173748000Y-55413428D01*
X173700761Y-55366190D01*
X173795238Y-55366190D01*
X174031428Y-55696857D02*
X174031428Y-56074761D01*
X173700761Y-55838571D02*
X174551047Y-55838571D01*
X174645523Y-55885809D01*
X174692761Y-55980285D01*
X174692761Y-56074761D01*
X174692761Y-56925047D02*
X174692761Y-56358190D01*
X174692761Y-56641619D02*
X173700761Y-56641619D01*
X173842476Y-56547142D01*
X173936952Y-56452666D01*
X173984190Y-56358190D01*
X171633142Y-54450857D02*
X171680380Y-54592571D01*
X171727619Y-54639809D01*
X171822095Y-54687047D01*
X171963809Y-54687047D01*
X172058285Y-54639809D01*
X172105523Y-54592571D01*
X172152761Y-54498095D01*
X172152761Y-54120190D01*
X171160761Y-54120190D01*
X171160761Y-54450857D01*
X171208000Y-54545333D01*
X171255238Y-54592571D01*
X171349714Y-54639809D01*
X171444190Y-54639809D01*
X171538666Y-54592571D01*
X171585904Y-54545333D01*
X171633142Y-54450857D01*
X171633142Y-54120190D01*
X172152761Y-55112190D02*
X171491428Y-55112190D01*
X171160761Y-55112190D02*
X171208000Y-55064952D01*
X171255238Y-55112190D01*
X171208000Y-55159428D01*
X171160761Y-55112190D01*
X171255238Y-55112190D01*
X171491428Y-55442857D02*
X171491428Y-55820761D01*
X171160761Y-55584571D02*
X172011047Y-55584571D01*
X172105523Y-55631809D01*
X172152761Y-55726285D01*
X172152761Y-55820761D01*
X171160761Y-56340380D02*
X171160761Y-56434857D01*
X171207999Y-56529333D01*
X171255238Y-56576571D01*
X171349714Y-56623809D01*
X171538666Y-56671047D01*
X171774857Y-56671047D01*
X171963809Y-56623809D01*
X172058285Y-56576571D01*
X172105523Y-56529333D01*
X172152761Y-56434857D01*
X172152761Y-56340380D01*
X172105523Y-56245904D01*
X172058285Y-56198666D01*
X171963809Y-56151428D01*
X171774857Y-56104190D01*
X171538666Y-56104190D01*
X171349714Y-56151428D01*
X171255238Y-56198666D01*
X171207999Y-56245904D01*
X171160761Y-56340380D01*
X161762761Y-52253904D02*
X162565809Y-52253904D01*
X162660285Y-52301142D01*
X162707523Y-52348380D01*
X162754761Y-52442857D01*
X162754761Y-52631809D01*
X162707523Y-52726285D01*
X162660285Y-52773523D01*
X162565809Y-52820761D01*
X161762761Y-52820761D01*
X161762761Y-53151428D02*
X162754761Y-53482095D01*
X161762761Y-53812761D01*
X161762761Y-54001714D02*
X161762761Y-54568571D01*
X162754761Y-54285142D02*
X161762761Y-54285142D01*
X161762761Y-55088190D02*
X161762761Y-55277142D01*
X161809999Y-55371619D01*
X161904476Y-55466095D01*
X162093428Y-55513333D01*
X162424095Y-55513333D01*
X162613047Y-55466095D01*
X162707523Y-55371619D01*
X162754761Y-55277142D01*
X162754761Y-55088190D01*
X162707523Y-54993714D01*
X162613047Y-54899238D01*
X162424095Y-54851999D01*
X162093428Y-54851999D01*
X161904476Y-54899238D01*
X161809999Y-54993714D01*
X161762761Y-55088190D01*
X161809999Y-56458095D02*
X161762761Y-56363619D01*
X161762761Y-56221904D01*
X161809999Y-56080190D01*
X161904476Y-55985714D01*
X161998952Y-55938476D01*
X162187904Y-55891238D01*
X162329619Y-55891238D01*
X162518571Y-55938476D01*
X162613047Y-55985714D01*
X162707523Y-56080190D01*
X162754761Y-56221904D01*
X162754761Y-56316380D01*
X162707523Y-56458095D01*
X162660285Y-56505333D01*
X162329619Y-56505333D01*
X162329619Y-56316380D01*
X164350000Y-54362190D02*
X164302761Y-54267714D01*
X164302761Y-54125999D01*
X164350000Y-53984285D01*
X164444476Y-53889809D01*
X164538952Y-53842571D01*
X164727904Y-53795333D01*
X164869619Y-53795333D01*
X165058571Y-53842571D01*
X165153047Y-53889809D01*
X165247523Y-53984285D01*
X165294761Y-54125999D01*
X165294761Y-54220476D01*
X165247523Y-54362190D01*
X165200285Y-54409428D01*
X164869619Y-54409428D01*
X164869619Y-54220476D01*
X165294761Y-54834571D02*
X164302761Y-54834571D01*
X165294761Y-55401428D01*
X164302761Y-55401428D01*
X165294761Y-55873809D02*
X164302761Y-55873809D01*
X164302761Y-56109999D01*
X164349999Y-56251714D01*
X164444476Y-56346190D01*
X164538952Y-56393428D01*
X164727904Y-56440666D01*
X164869619Y-56440666D01*
X165058571Y-56393428D01*
X165153047Y-56346190D01*
X165247523Y-56251714D01*
X165294761Y-56109999D01*
X165294761Y-55873809D01*
X155377142Y-53724476D02*
X155424380Y-53866190D01*
X155471619Y-53913428D01*
X155566095Y-53960666D01*
X155707809Y-53960666D01*
X155802285Y-53913428D01*
X155849523Y-53866190D01*
X155896761Y-53771714D01*
X155896761Y-53393809D01*
X154904761Y-53393809D01*
X154904761Y-53724476D01*
X154952000Y-53818952D01*
X154999238Y-53866190D01*
X155093714Y-53913428D01*
X155188190Y-53913428D01*
X155282666Y-53866190D01*
X155329904Y-53818952D01*
X155377142Y-53724476D01*
X155377142Y-53393809D01*
X155896761Y-54385809D02*
X155235428Y-54385809D01*
X154904761Y-54385809D02*
X154952000Y-54338571D01*
X154999238Y-54385809D01*
X154952000Y-54433047D01*
X154904761Y-54385809D01*
X154999238Y-54385809D01*
X155235428Y-54716476D02*
X155235428Y-55094380D01*
X154904761Y-54858190D02*
X155755047Y-54858190D01*
X155849523Y-54905428D01*
X155896761Y-54999904D01*
X155896761Y-55094380D01*
X155896761Y-55944666D02*
X155896761Y-55377809D01*
X155896761Y-55661238D02*
X154904761Y-55661238D01*
X155046476Y-55566761D01*
X155140952Y-55472285D01*
X155188190Y-55377809D01*
X155235428Y-56794952D02*
X155896761Y-56794952D01*
X154857523Y-56558761D02*
X155566095Y-56322571D01*
X155566095Y-56936666D01*
X152837142Y-53724476D02*
X152884380Y-53866190D01*
X152931619Y-53913428D01*
X153026095Y-53960666D01*
X153167809Y-53960666D01*
X153262285Y-53913428D01*
X153309523Y-53866190D01*
X153356761Y-53771714D01*
X153356761Y-53393809D01*
X152364761Y-53393809D01*
X152364761Y-53724476D01*
X152412000Y-53818952D01*
X152459238Y-53866190D01*
X152553714Y-53913428D01*
X152648190Y-53913428D01*
X152742666Y-53866190D01*
X152789904Y-53818952D01*
X152837142Y-53724476D01*
X152837142Y-53393809D01*
X153356761Y-54385809D02*
X152695428Y-54385809D01*
X152364761Y-54385809D02*
X152412000Y-54338571D01*
X152459238Y-54385809D01*
X152412000Y-54433047D01*
X152364761Y-54385809D01*
X152459238Y-54385809D01*
X152695428Y-54716476D02*
X152695428Y-55094380D01*
X152364761Y-54858190D02*
X153215047Y-54858190D01*
X153309523Y-54905428D01*
X153356761Y-54999904D01*
X153356761Y-55094380D01*
X153356761Y-55944666D02*
X153356761Y-55377809D01*
X153356761Y-55661238D02*
X152364761Y-55661238D01*
X152506476Y-55566761D01*
X152600952Y-55472285D01*
X152648190Y-55377809D01*
X152364761Y-56275333D02*
X152364761Y-56889428D01*
X152742666Y-56558761D01*
X152742666Y-56700476D01*
X152789904Y-56794952D01*
X152837142Y-56842190D01*
X152931619Y-56889428D01*
X153167809Y-56889428D01*
X153262285Y-56842190D01*
X153309523Y-56794952D01*
X153356761Y-56700476D01*
X153356761Y-56417047D01*
X153309523Y-56322571D01*
X153262285Y-56275333D01*
X150297142Y-53724476D02*
X150344380Y-53866190D01*
X150391619Y-53913428D01*
X150486095Y-53960666D01*
X150627809Y-53960666D01*
X150722285Y-53913428D01*
X150769523Y-53866190D01*
X150816761Y-53771714D01*
X150816761Y-53393809D01*
X149824761Y-53393809D01*
X149824761Y-53724476D01*
X149872000Y-53818952D01*
X149919238Y-53866190D01*
X150013714Y-53913428D01*
X150108190Y-53913428D01*
X150202666Y-53866190D01*
X150249904Y-53818952D01*
X150297142Y-53724476D01*
X150297142Y-53393809D01*
X150816761Y-54385809D02*
X150155428Y-54385809D01*
X149824761Y-54385809D02*
X149872000Y-54338571D01*
X149919238Y-54385809D01*
X149872000Y-54433047D01*
X149824761Y-54385809D01*
X149919238Y-54385809D01*
X150155428Y-54716476D02*
X150155428Y-55094380D01*
X149824761Y-54858190D02*
X150675047Y-54858190D01*
X150769523Y-54905428D01*
X150816761Y-54999904D01*
X150816761Y-55094380D01*
X150816761Y-55944666D02*
X150816761Y-55377809D01*
X150816761Y-55661238D02*
X149824761Y-55661238D01*
X149966476Y-55566761D01*
X150060952Y-55472285D01*
X150108190Y-55377809D01*
X149919238Y-56322571D02*
X149871999Y-56369809D01*
X149824761Y-56464285D01*
X149824761Y-56700476D01*
X149871999Y-56794952D01*
X149919238Y-56842190D01*
X150013714Y-56889428D01*
X150108190Y-56889428D01*
X150249904Y-56842190D01*
X150816761Y-56275333D01*
X150816761Y-56889428D01*
X147757142Y-53724476D02*
X147804380Y-53866190D01*
X147851619Y-53913428D01*
X147946095Y-53960666D01*
X148087809Y-53960666D01*
X148182285Y-53913428D01*
X148229523Y-53866190D01*
X148276761Y-53771714D01*
X148276761Y-53393809D01*
X147284761Y-53393809D01*
X147284761Y-53724476D01*
X147332000Y-53818952D01*
X147379238Y-53866190D01*
X147473714Y-53913428D01*
X147568190Y-53913428D01*
X147662666Y-53866190D01*
X147709904Y-53818952D01*
X147757142Y-53724476D01*
X147757142Y-53393809D01*
X148276761Y-54385809D02*
X147615428Y-54385809D01*
X147284761Y-54385809D02*
X147332000Y-54338571D01*
X147379238Y-54385809D01*
X147332000Y-54433047D01*
X147284761Y-54385809D01*
X147379238Y-54385809D01*
X147615428Y-54716476D02*
X147615428Y-55094380D01*
X147284761Y-54858190D02*
X148135047Y-54858190D01*
X148229523Y-54905428D01*
X148276761Y-54999904D01*
X148276761Y-55094380D01*
X148276761Y-55944666D02*
X148276761Y-55377809D01*
X148276761Y-55661238D02*
X147284761Y-55661238D01*
X147426476Y-55566761D01*
X147520952Y-55472285D01*
X147568190Y-55377809D01*
X148276761Y-56889428D02*
X148276761Y-56322571D01*
X148276761Y-56606000D02*
X147284761Y-56606000D01*
X147426476Y-56511523D01*
X147520952Y-56417047D01*
X147568190Y-56322571D01*
X145217142Y-53724476D02*
X145264380Y-53866190D01*
X145311619Y-53913428D01*
X145406095Y-53960666D01*
X145547809Y-53960666D01*
X145642285Y-53913428D01*
X145689523Y-53866190D01*
X145736761Y-53771714D01*
X145736761Y-53393809D01*
X144744761Y-53393809D01*
X144744761Y-53724476D01*
X144792000Y-53818952D01*
X144839238Y-53866190D01*
X144933714Y-53913428D01*
X145028190Y-53913428D01*
X145122666Y-53866190D01*
X145169904Y-53818952D01*
X145217142Y-53724476D01*
X145217142Y-53393809D01*
X145736761Y-54385809D02*
X145075428Y-54385809D01*
X144744761Y-54385809D02*
X144792000Y-54338571D01*
X144839238Y-54385809D01*
X144792000Y-54433047D01*
X144744761Y-54385809D01*
X144839238Y-54385809D01*
X145075428Y-54716476D02*
X145075428Y-55094380D01*
X144744761Y-54858190D02*
X145595047Y-54858190D01*
X145689523Y-54905428D01*
X145736761Y-54999904D01*
X145736761Y-55094380D01*
X145736761Y-55944666D02*
X145736761Y-55377809D01*
X145736761Y-55661238D02*
X144744761Y-55661238D01*
X144886476Y-55566761D01*
X144980952Y-55472285D01*
X145028190Y-55377809D01*
X144744761Y-56558761D02*
X144744761Y-56653238D01*
X144791999Y-56747714D01*
X144839238Y-56794952D01*
X144933714Y-56842190D01*
X145122666Y-56889428D01*
X145358857Y-56889428D01*
X145547809Y-56842190D01*
X145642285Y-56794952D01*
X145689523Y-56747714D01*
X145736761Y-56653238D01*
X145736761Y-56558761D01*
X145689523Y-56464285D01*
X145642285Y-56417047D01*
X145547809Y-56369809D01*
X145358857Y-56322571D01*
X145122666Y-56322571D01*
X144933714Y-56369809D01*
X144839238Y-56417047D01*
X144791999Y-56464285D01*
X144744761Y-56558761D01*
X142677142Y-54450857D02*
X142724380Y-54592571D01*
X142771619Y-54639809D01*
X142866095Y-54687047D01*
X143007809Y-54687047D01*
X143102285Y-54639809D01*
X143149523Y-54592571D01*
X143196761Y-54498095D01*
X143196761Y-54120190D01*
X142204761Y-54120190D01*
X142204761Y-54450857D01*
X142252000Y-54545333D01*
X142299238Y-54592571D01*
X142393714Y-54639809D01*
X142488190Y-54639809D01*
X142582666Y-54592571D01*
X142629904Y-54545333D01*
X142677142Y-54450857D01*
X142677142Y-54120190D01*
X143196761Y-55112190D02*
X142535428Y-55112190D01*
X142204761Y-55112190D02*
X142252000Y-55064952D01*
X142299238Y-55112190D01*
X142252000Y-55159428D01*
X142204761Y-55112190D01*
X142299238Y-55112190D01*
X142535428Y-55442857D02*
X142535428Y-55820761D01*
X142204761Y-55584571D02*
X143055047Y-55584571D01*
X143149523Y-55631809D01*
X143196761Y-55726285D01*
X143196761Y-55820761D01*
X143196761Y-56198666D02*
X143196761Y-56387619D01*
X143149523Y-56482095D01*
X143102285Y-56529333D01*
X142960571Y-56623809D01*
X142771619Y-56671047D01*
X142393714Y-56671047D01*
X142299238Y-56623809D01*
X142251999Y-56576571D01*
X142204761Y-56482095D01*
X142204761Y-56293142D01*
X142251999Y-56198666D01*
X142299238Y-56151428D01*
X142393714Y-56104190D01*
X142629904Y-56104190D01*
X142724380Y-56151428D01*
X142771619Y-56198666D01*
X142818857Y-56293142D01*
X142818857Y-56482095D01*
X142771619Y-56576571D01*
X142724380Y-56623809D01*
X142629904Y-56671047D01*
X140137142Y-54704857D02*
X140184380Y-54846571D01*
X140231619Y-54893809D01*
X140326095Y-54941047D01*
X140467809Y-54941047D01*
X140562285Y-54893809D01*
X140609523Y-54846571D01*
X140656761Y-54752095D01*
X140656761Y-54374190D01*
X139664761Y-54374190D01*
X139664761Y-54704857D01*
X139712000Y-54799333D01*
X139759238Y-54846571D01*
X139853714Y-54893809D01*
X139948190Y-54893809D01*
X140042666Y-54846571D01*
X140089904Y-54799333D01*
X140137142Y-54704857D01*
X140137142Y-54374190D01*
X140656761Y-55366190D02*
X139995428Y-55366190D01*
X139664761Y-55366190D02*
X139712000Y-55318952D01*
X139759238Y-55366190D01*
X139712000Y-55413428D01*
X139664761Y-55366190D01*
X139759238Y-55366190D01*
X139995428Y-55696857D02*
X139995428Y-56074761D01*
X139664761Y-55838571D02*
X140515047Y-55838571D01*
X140609523Y-55885809D01*
X140656761Y-55980285D01*
X140656761Y-56074761D01*
X140089904Y-56547142D02*
X140042666Y-56452666D01*
X139995428Y-56405428D01*
X139900952Y-56358190D01*
X139853714Y-56358190D01*
X139759238Y-56405428D01*
X139711999Y-56452666D01*
X139664761Y-56547142D01*
X139664761Y-56736095D01*
X139711999Y-56830571D01*
X139759238Y-56877809D01*
X139853714Y-56925047D01*
X139900952Y-56925047D01*
X139995428Y-56877809D01*
X140042666Y-56830571D01*
X140089904Y-56736095D01*
X140089904Y-56547142D01*
X140137142Y-56452666D01*
X140184380Y-56405428D01*
X140278857Y-56358190D01*
X140467809Y-56358190D01*
X140562285Y-56405428D01*
X140609523Y-56452666D01*
X140656761Y-56547142D01*
X140656761Y-56736095D01*
X140609523Y-56830571D01*
X140562285Y-56877809D01*
X140467809Y-56925047D01*
X140278857Y-56925047D01*
X140184380Y-56877809D01*
X140137142Y-56830571D01*
X140089904Y-56736095D01*
X137597142Y-54450857D02*
X137644380Y-54592571D01*
X137691619Y-54639809D01*
X137786095Y-54687047D01*
X137927809Y-54687047D01*
X138022285Y-54639809D01*
X138069523Y-54592571D01*
X138116761Y-54498095D01*
X138116761Y-54120190D01*
X137124761Y-54120190D01*
X137124761Y-54450857D01*
X137172000Y-54545333D01*
X137219238Y-54592571D01*
X137313714Y-54639809D01*
X137408190Y-54639809D01*
X137502666Y-54592571D01*
X137549904Y-54545333D01*
X137597142Y-54450857D01*
X137597142Y-54120190D01*
X138116761Y-55112190D02*
X137455428Y-55112190D01*
X137124761Y-55112190D02*
X137172000Y-55064952D01*
X137219238Y-55112190D01*
X137172000Y-55159428D01*
X137124761Y-55112190D01*
X137219238Y-55112190D01*
X137455428Y-55442857D02*
X137455428Y-55820761D01*
X137124761Y-55584571D02*
X137975047Y-55584571D01*
X138069523Y-55631809D01*
X138116761Y-55726285D01*
X138116761Y-55820761D01*
X137124761Y-56056952D02*
X137124761Y-56718285D01*
X138116761Y-56293142D01*
X118376000Y-54362190D02*
X118328761Y-54267714D01*
X118328761Y-54125999D01*
X118376000Y-53984285D01*
X118470476Y-53889809D01*
X118564952Y-53842571D01*
X118753904Y-53795333D01*
X118895619Y-53795333D01*
X119084571Y-53842571D01*
X119179047Y-53889809D01*
X119273523Y-53984285D01*
X119320761Y-54125999D01*
X119320761Y-54220476D01*
X119273523Y-54362190D01*
X119226285Y-54409428D01*
X118895619Y-54409428D01*
X118895619Y-54220476D01*
X119320761Y-54834571D02*
X118328761Y-54834571D01*
X119320761Y-55401428D01*
X118328761Y-55401428D01*
X119320761Y-55873809D02*
X118328761Y-55873809D01*
X118328761Y-56109999D01*
X118375999Y-56251714D01*
X118470476Y-56346190D01*
X118564952Y-56393428D01*
X118753904Y-56440666D01*
X118895619Y-56440666D01*
X119084571Y-56393428D01*
X119179047Y-56346190D01*
X119273523Y-56251714D01*
X119320761Y-56109999D01*
X119320761Y-55873809D01*
X115977714Y-55791333D02*
X115930476Y-55838571D01*
X115883238Y-55980285D01*
X115883238Y-56074761D01*
X115930476Y-56216476D01*
X116024952Y-56310952D01*
X116119428Y-56358190D01*
X116308380Y-56405428D01*
X116450095Y-56405428D01*
X116639047Y-56358190D01*
X116733523Y-56310952D01*
X116827999Y-56216476D01*
X116875238Y-56074761D01*
X116875238Y-55980285D01*
X116827999Y-55838571D01*
X116780761Y-55791333D01*
X115930476Y-55413428D02*
X115883238Y-55271714D01*
X115883238Y-55035523D01*
X115930476Y-54941047D01*
X115977714Y-54893809D01*
X116072190Y-54846571D01*
X116166666Y-54846571D01*
X116261142Y-54893809D01*
X116308380Y-54941047D01*
X116355619Y-55035523D01*
X116402857Y-55224476D01*
X116450095Y-55318952D01*
X116497333Y-55366190D01*
X116591809Y-55413428D01*
X116686285Y-55413428D01*
X116780761Y-55366190D01*
X116828000Y-55318952D01*
X116875238Y-55224476D01*
X116875238Y-54988285D01*
X116828000Y-54846571D01*
X114193523Y-53187047D02*
X114240761Y-53328761D01*
X114240761Y-53564952D01*
X114193523Y-53659428D01*
X114146285Y-53706666D01*
X114051809Y-53753904D01*
X113957333Y-53753904D01*
X113862857Y-53706666D01*
X113815619Y-53659428D01*
X113768380Y-53564952D01*
X113721142Y-53375999D01*
X113673904Y-53281523D01*
X113626666Y-53234285D01*
X113532190Y-53187047D01*
X113437714Y-53187047D01*
X113343238Y-53234285D01*
X113296000Y-53281523D01*
X113248761Y-53375999D01*
X113248761Y-53612190D01*
X113296000Y-53753904D01*
X114146285Y-54745904D02*
X114193523Y-54698666D01*
X114240761Y-54556952D01*
X114240761Y-54462476D01*
X114193523Y-54320761D01*
X114099047Y-54226285D01*
X114004571Y-54179047D01*
X113815619Y-54131809D01*
X113673904Y-54131809D01*
X113484952Y-54179047D01*
X113390476Y-54226285D01*
X113296000Y-54320761D01*
X113248761Y-54462476D01*
X113248761Y-54556952D01*
X113296000Y-54698666D01*
X113343238Y-54745904D01*
X114240761Y-55643428D02*
X114240761Y-55171047D01*
X113248761Y-55171047D01*
X114240761Y-55974095D02*
X113248761Y-55974095D01*
X114240761Y-56540952D02*
X113673904Y-56115809D01*
X113248761Y-56540952D02*
X113815619Y-55974095D01*
X111653523Y-52348380D02*
X111700761Y-52490095D01*
X111700761Y-52726285D01*
X111653523Y-52820761D01*
X111606285Y-52868000D01*
X111511809Y-52915238D01*
X111417333Y-52915238D01*
X111322857Y-52868000D01*
X111275619Y-52820761D01*
X111228380Y-52726285D01*
X111181142Y-52537333D01*
X111133904Y-52442857D01*
X111086666Y-52395619D01*
X110992190Y-52348380D01*
X110897714Y-52348380D01*
X110803238Y-52395619D01*
X110756000Y-52442857D01*
X110708761Y-52537333D01*
X110708761Y-52773523D01*
X110756000Y-52915238D01*
X111700761Y-53340380D02*
X110708761Y-53340380D01*
X110708761Y-53576571D01*
X110756000Y-53718285D01*
X110850476Y-53812761D01*
X110944952Y-53860000D01*
X111133904Y-53907238D01*
X111275619Y-53907238D01*
X111464571Y-53860000D01*
X111559047Y-53812761D01*
X111653523Y-53718285D01*
X111700761Y-53576571D01*
X111700761Y-53340380D01*
X111417333Y-54285142D02*
X111417333Y-54757523D01*
X111700761Y-54190666D02*
X110708761Y-54521333D01*
X111700761Y-54852000D01*
X110708761Y-55040952D02*
X110708761Y-55607809D01*
X111700761Y-55324380D02*
X110708761Y-55324380D01*
X111417333Y-55891238D02*
X111417333Y-56363619D01*
X111700761Y-55796761D02*
X110708761Y-56127428D01*
X111700761Y-56458095D01*
X104152000Y-54616190D02*
X104104761Y-54521714D01*
X104104761Y-54379999D01*
X104152000Y-54238285D01*
X104246476Y-54143809D01*
X104340952Y-54096571D01*
X104529904Y-54049333D01*
X104671619Y-54049333D01*
X104860571Y-54096571D01*
X104955047Y-54143809D01*
X105049523Y-54238285D01*
X105096761Y-54379999D01*
X105096761Y-54474476D01*
X105049523Y-54616190D01*
X105002285Y-54663428D01*
X104671619Y-54663428D01*
X104671619Y-54474476D01*
X105096761Y-55088571D02*
X104104761Y-55088571D01*
X105096761Y-55655428D01*
X104104761Y-55655428D01*
X105096761Y-56127809D02*
X104104761Y-56127809D01*
X104104761Y-56363999D01*
X104151999Y-56505714D01*
X104246476Y-56600190D01*
X104340952Y-56647428D01*
X104529904Y-56694666D01*
X104671619Y-56694666D01*
X104860571Y-56647428D01*
X104955047Y-56600190D01*
X105049523Y-56505714D01*
X105096761Y-56363999D01*
X105096761Y-56127809D01*
X102403523Y-50942857D02*
X102450761Y-51084571D01*
X102450761Y-51320761D01*
X102403523Y-51415238D01*
X102356285Y-51462476D01*
X102261809Y-51509714D01*
X102167333Y-51509714D01*
X102072857Y-51462476D01*
X102025619Y-51415238D01*
X101978380Y-51320761D01*
X101931142Y-51131809D01*
X101883904Y-51037333D01*
X101836666Y-50990095D01*
X101742190Y-50942857D01*
X101647714Y-50942857D01*
X101553238Y-50990095D01*
X101506000Y-51037333D01*
X101458761Y-51131809D01*
X101458761Y-51368000D01*
X101506000Y-51509714D01*
X102450761Y-52076571D02*
X102403523Y-51982095D01*
X102356285Y-51934857D01*
X102261809Y-51887619D01*
X101978380Y-51887619D01*
X101883904Y-51934857D01*
X101836666Y-51982095D01*
X101789428Y-52076571D01*
X101789428Y-52218285D01*
X101836666Y-52312761D01*
X101883904Y-52360000D01*
X101978380Y-52407238D01*
X102261809Y-52407238D01*
X102356285Y-52360000D01*
X102403523Y-52312761D01*
X102450761Y-52218285D01*
X102450761Y-52076571D01*
X102450761Y-52832380D02*
X101789428Y-52832380D01*
X101458761Y-52832380D02*
X101506000Y-52785142D01*
X101553238Y-52832380D01*
X101506000Y-52879619D01*
X101458761Y-52832380D01*
X101553238Y-52832380D01*
X102450761Y-53446476D02*
X102403523Y-53352000D01*
X102309047Y-53304761D01*
X101458761Y-53304761D01*
X102545238Y-53588190D02*
X102545238Y-54344000D01*
X102403523Y-54532952D02*
X102450761Y-54674666D01*
X102450761Y-54910857D01*
X102403523Y-55005333D01*
X102356285Y-55052571D01*
X102261809Y-55099809D01*
X102167333Y-55099809D01*
X102072857Y-55052571D01*
X102025619Y-55005333D01*
X101978380Y-54910857D01*
X101931142Y-54721904D01*
X101883904Y-54627428D01*
X101836666Y-54580190D01*
X101742190Y-54532952D01*
X101647714Y-54532952D01*
X101553238Y-54580190D01*
X101505999Y-54627428D01*
X101458761Y-54721904D01*
X101458761Y-54958095D01*
X101505999Y-55099809D01*
X102403523Y-55950095D02*
X102450761Y-55855619D01*
X102450761Y-55666666D01*
X102403523Y-55572190D01*
X102356285Y-55524952D01*
X102261809Y-55477714D01*
X101978380Y-55477714D01*
X101883904Y-55524952D01*
X101836666Y-55572190D01*
X101789428Y-55666666D01*
X101789428Y-55855619D01*
X101836666Y-55950095D01*
X102450761Y-56375238D02*
X101458761Y-56375238D01*
X102072857Y-56469714D02*
X102450761Y-56753142D01*
X101789428Y-56753142D02*
X102167333Y-56375238D01*
X99461523Y-50310952D02*
X99508761Y-50452666D01*
X99508761Y-50688857D01*
X99461523Y-50783333D01*
X99414285Y-50830571D01*
X99319809Y-50877809D01*
X99225333Y-50877809D01*
X99130857Y-50830571D01*
X99083619Y-50783333D01*
X99036380Y-50688857D01*
X98989142Y-50499904D01*
X98941904Y-50405428D01*
X98894666Y-50358190D01*
X98800190Y-50310952D01*
X98705714Y-50310952D01*
X98611238Y-50358190D01*
X98564000Y-50405428D01*
X98516761Y-50499904D01*
X98516761Y-50736095D01*
X98564000Y-50877809D01*
X99508761Y-51444666D02*
X99461523Y-51350190D01*
X99414285Y-51302952D01*
X99319809Y-51255714D01*
X99036380Y-51255714D01*
X98941904Y-51302952D01*
X98894666Y-51350190D01*
X98847428Y-51444666D01*
X98847428Y-51586380D01*
X98894666Y-51680857D01*
X98941904Y-51728095D01*
X99036380Y-51775333D01*
X99319809Y-51775333D01*
X99414285Y-51728095D01*
X99461523Y-51680857D01*
X99508761Y-51586380D01*
X99508761Y-51444666D01*
X99508761Y-52200476D02*
X98847428Y-52200476D01*
X98516761Y-52200476D02*
X98564000Y-52153238D01*
X98611238Y-52200476D01*
X98564000Y-52247714D01*
X98516761Y-52200476D01*
X98611238Y-52200476D01*
X99508761Y-52814571D02*
X99461523Y-52720095D01*
X99367047Y-52672857D01*
X98516761Y-52672857D01*
X99603238Y-52956285D02*
X99603238Y-53712095D01*
X99508761Y-53948285D02*
X98516761Y-53948285D01*
X98516761Y-54184476D01*
X98563999Y-54326190D01*
X98658476Y-54420666D01*
X98752952Y-54467904D01*
X98941904Y-54515142D01*
X99083619Y-54515142D01*
X99272571Y-54467904D01*
X99367047Y-54420666D01*
X99461523Y-54326190D01*
X99508761Y-54184476D01*
X99508761Y-53948285D01*
X99508761Y-55365428D02*
X98989142Y-55365428D01*
X98894666Y-55318190D01*
X98847428Y-55223714D01*
X98847428Y-55034761D01*
X98894666Y-54940285D01*
X99461523Y-55365428D02*
X99508761Y-55270952D01*
X99508761Y-55034761D01*
X99461523Y-54940285D01*
X99367047Y-54893047D01*
X99272571Y-54893047D01*
X99178095Y-54940285D01*
X99130857Y-55034761D01*
X99130857Y-55270952D01*
X99083619Y-55365428D01*
X98847428Y-55696095D02*
X98847428Y-56073999D01*
X98516761Y-55837809D02*
X99367047Y-55837809D01*
X99461523Y-55885047D01*
X99508761Y-55979523D01*
X99508761Y-56074000D01*
X99508761Y-56829809D02*
X98989142Y-56829809D01*
X98894666Y-56782571D01*
X98847428Y-56688095D01*
X98847428Y-56499142D01*
X98894666Y-56404666D01*
X99461523Y-56829809D02*
X99508761Y-56735333D01*
X99508761Y-56499142D01*
X99461523Y-56404666D01*
X99367047Y-56357428D01*
X99272571Y-56357428D01*
X99178095Y-56404666D01*
X99130857Y-56499142D01*
X99130857Y-56735333D01*
X99083619Y-56829809D01*
X96844857Y-53116190D02*
X96844857Y-53872000D01*
X97222761Y-53494095D02*
X96466952Y-53494095D01*
X96230761Y-54249904D02*
X96230761Y-54863999D01*
X96608666Y-54533333D01*
X96608666Y-54675047D01*
X96655904Y-54769523D01*
X96703142Y-54816761D01*
X96797619Y-54864000D01*
X97033809Y-54864000D01*
X97128285Y-54816761D01*
X97175523Y-54769523D01*
X97222761Y-54675047D01*
X97222761Y-54391619D01*
X97175523Y-54297142D01*
X97128285Y-54249904D01*
X96230761Y-55147428D02*
X97222761Y-55478095D01*
X96230761Y-55808761D01*
X96230761Y-56044952D02*
X96230761Y-56659047D01*
X96608666Y-56328380D01*
X96608666Y-56470095D01*
X96655904Y-56564571D01*
X96703142Y-56611809D01*
X96797619Y-56659047D01*
X97033809Y-56659047D01*
X97128285Y-56611809D01*
X97175523Y-56564571D01*
X97222761Y-56470095D01*
X97222761Y-56186666D01*
X97175523Y-56092190D01*
X97128285Y-56044952D01*
D13*
G04 #@! TO.C,R4*
X104396000Y-74720267D02*
X104396000Y-74377733D01*
X103376000Y-74720267D02*
X103376000Y-74377733D01*
G04 #@! TO.C,R2*
X98239733Y-60450000D02*
X98582267Y-60450000D01*
X98239733Y-61470000D02*
X98582267Y-61470000D01*
G04 #@! TO.C,R3*
X127223733Y-61978000D02*
X127566267Y-61978000D01*
X127223733Y-60958000D02*
X127566267Y-60958000D01*
G04 #@! TO.C,R13*
X158691733Y-58803000D02*
X159034267Y-58803000D01*
X158691733Y-57783000D02*
X159034267Y-57783000D01*
G04 #@! TO.C,R4*
D14*
X104338380Y-71715333D02*
X103862190Y-71382000D01*
X104338380Y-71143904D02*
X103338380Y-71143904D01*
X103338380Y-71524857D01*
X103386000Y-71620095D01*
X103433619Y-71667714D01*
X103528857Y-71715333D01*
X103671714Y-71715333D01*
X103766952Y-71667714D01*
X103814571Y-71620095D01*
X103862190Y-71524857D01*
X103862190Y-71143904D01*
X103671714Y-72572476D02*
X104338380Y-72572476D01*
X103290761Y-72334380D02*
X104005047Y-72096285D01*
X104005047Y-72715333D01*
G04 #@! TO.C,R2*
X95924666Y-61412380D02*
X96257999Y-60936190D01*
X96496095Y-61412380D02*
X96496095Y-60412380D01*
X96115142Y-60412380D01*
X96019904Y-60460000D01*
X95972285Y-60507619D01*
X95924666Y-60602857D01*
X95924666Y-60745714D01*
X95972285Y-60840952D01*
X96019904Y-60888571D01*
X96115142Y-60936190D01*
X96496095Y-60936190D01*
X95543714Y-60507619D02*
X95496095Y-60460000D01*
X95400857Y-60412380D01*
X95162761Y-60412380D01*
X95067523Y-60460000D01*
X95019904Y-60507619D01*
X94972285Y-60602857D01*
X94972285Y-60698095D01*
X95019904Y-60840952D01*
X95591333Y-61412380D01*
X94972285Y-61412380D01*
G04 #@! TO.C,R3*
X124880666Y-61920380D02*
X125213999Y-61444190D01*
X125452095Y-61920380D02*
X125452095Y-60920380D01*
X125071142Y-60920380D01*
X124975904Y-60968000D01*
X124928285Y-61015619D01*
X124880666Y-61110857D01*
X124880666Y-61253714D01*
X124928285Y-61348952D01*
X124975904Y-61396571D01*
X125071142Y-61444190D01*
X125452095Y-61444190D01*
X124547333Y-60920380D02*
X123928285Y-60920380D01*
X124261619Y-61301333D01*
X124118761Y-61301333D01*
X124023523Y-61348952D01*
X123975904Y-61396571D01*
X123928285Y-61491809D01*
X123928285Y-61729904D01*
X123975904Y-61825142D01*
X124023523Y-61872761D01*
X124118761Y-61920380D01*
X124404476Y-61920380D01*
X124499714Y-61872761D01*
X124547333Y-61825142D01*
G04 #@! TO.C,R13*
X159505857Y-60175380D02*
X159839190Y-59699190D01*
X160077285Y-60175380D02*
X160077285Y-59175380D01*
X159696333Y-59175380D01*
X159601095Y-59223000D01*
X159553476Y-59270619D01*
X159505857Y-59365857D01*
X159505857Y-59508714D01*
X159553476Y-59603952D01*
X159601095Y-59651571D01*
X159696333Y-59699190D01*
X160077285Y-59699190D01*
X158553476Y-60175380D02*
X159124904Y-60175380D01*
X158839190Y-60175380D02*
X158839190Y-59175380D01*
X158934428Y-59318238D01*
X159029666Y-59413476D01*
X159124904Y-59461095D01*
X158220142Y-59175380D02*
X157601095Y-59175380D01*
X157934428Y-59556333D01*
X157791571Y-59556333D01*
X157696333Y-59603952D01*
X157648714Y-59651571D01*
X157601095Y-59746809D01*
X157601095Y-59984904D01*
X157648714Y-60080142D01*
X157696333Y-60127761D01*
X157791571Y-60175380D01*
X158077285Y-60175380D01*
X158172523Y-60127761D01*
X158220142Y-60080142D01*
G04 #@! TD*
M02*
