%TF.GenerationSoftware,KiCad,Pcbnew,(6.0.7)*%
%TF.CreationDate,2022-11-16T19:30:54-06:00*%
%TF.ProjectId,ScienceSensor,53636965-6e63-4655-9365-6e736f722e6b,rev?*%
%TF.SameCoordinates,Original*%
%TF.FileFunction,Legend,Bot*%
%TF.FilePolarity,Positive*%
%FSLAX46Y46*%
G04 Gerber Fmt 4.6, Leading zero omitted, Abs format (unit mm)*
G04 Created by KiCad (PCBNEW (6.0.7)) date 2022-11-16 19:30:54*
%MOMM*%
%LPD*%
G01*
G04 APERTURE LIST*
%ADD10C,0.150000*%
G04 APERTURE END LIST*
D10*
X102163619Y-100361619D02*
X102163619Y-100837809D01*
X103163619Y-100837809D01*
X102687428Y-100028285D02*
X102687428Y-99694952D01*
X102163619Y-99552095D02*
X102163619Y-100028285D01*
X103163619Y-100028285D01*
X103163619Y-99552095D01*
X102163619Y-99123523D02*
X103163619Y-99123523D01*
X103163619Y-98885428D01*
X103116000Y-98742571D01*
X103020761Y-98647333D01*
X102925523Y-98599714D01*
X102735047Y-98552095D01*
X102592190Y-98552095D01*
X102401714Y-98599714D01*
X102306476Y-98647333D01*
X102211238Y-98742571D01*
X102163619Y-98885428D01*
X102163619Y-99123523D01*
X102211238Y-98171142D02*
X102163619Y-98075904D01*
X102163619Y-97885428D01*
X102211238Y-97790190D01*
X102306476Y-97742571D01*
X102354095Y-97742571D01*
X102449333Y-97790190D01*
X102496952Y-97885428D01*
X102496952Y-98028285D01*
X102544571Y-98123523D01*
X102639809Y-98171142D01*
X102687428Y-98171142D01*
X102782666Y-98123523D01*
X102830285Y-98028285D01*
X102830285Y-97885428D01*
X102782666Y-97790190D01*
X191587428Y-111062190D02*
X191587428Y-111824095D01*
X191968380Y-111443142D02*
X191206476Y-111443142D01*
X190873142Y-112728857D02*
X192158857Y-113586000D01*
X191587428Y-114490761D02*
X191587428Y-115252666D01*
X190873142Y-116157428D02*
X192158857Y-117014571D01*
X191920761Y-117871714D02*
X191968380Y-118014571D01*
X191968380Y-118252666D01*
X191920761Y-118347904D01*
X191873142Y-118395523D01*
X191777904Y-118443142D01*
X191682666Y-118443142D01*
X191587428Y-118395523D01*
X191539809Y-118347904D01*
X191492190Y-118252666D01*
X191444571Y-118062190D01*
X191396952Y-117966952D01*
X191349333Y-117919333D01*
X191254095Y-117871714D01*
X191158857Y-117871714D01*
X191063619Y-117919333D01*
X191016000Y-117966952D01*
X190968380Y-118062190D01*
X190968380Y-118300285D01*
X191016000Y-118443142D01*
X191968380Y-118871714D02*
X191301714Y-118871714D01*
X190968380Y-118871714D02*
X191016000Y-118824095D01*
X191063619Y-118871714D01*
X191016000Y-118919333D01*
X190968380Y-118871714D01*
X191063619Y-118871714D01*
X191301714Y-119776476D02*
X192111238Y-119776476D01*
X192206476Y-119728857D01*
X192254095Y-119681238D01*
X192301714Y-119586000D01*
X192301714Y-119443142D01*
X192254095Y-119347904D01*
X191920761Y-119776476D02*
X191968380Y-119681238D01*
X191968380Y-119490761D01*
X191920761Y-119395523D01*
X191873142Y-119347904D01*
X191777904Y-119300285D01*
X191492190Y-119300285D01*
X191396952Y-119347904D01*
X191349333Y-119395523D01*
X191301714Y-119490761D01*
X191301714Y-119681238D01*
X191349333Y-119776476D01*
X191301714Y-120252666D02*
X191968380Y-120252666D01*
X191396952Y-120252666D02*
X191349333Y-120300285D01*
X191301714Y-120395523D01*
X191301714Y-120538380D01*
X191349333Y-120633619D01*
X191444571Y-120681238D01*
X191968380Y-120681238D01*
X191968380Y-121586000D02*
X191444571Y-121586000D01*
X191349333Y-121538380D01*
X191301714Y-121443142D01*
X191301714Y-121252666D01*
X191349333Y-121157428D01*
X191920761Y-121586000D02*
X191968380Y-121490761D01*
X191968380Y-121252666D01*
X191920761Y-121157428D01*
X191825523Y-121109809D01*
X191730285Y-121109809D01*
X191635047Y-121157428D01*
X191587428Y-121252666D01*
X191587428Y-121490761D01*
X191539809Y-121586000D01*
X191968380Y-122205047D02*
X191920761Y-122109809D01*
X191825523Y-122062190D01*
X190968380Y-122062190D01*
X177053714Y-135834380D02*
X177053714Y-134834380D01*
X176482285Y-135834380D01*
X176482285Y-134834380D01*
X175815619Y-134834380D02*
X175625142Y-134834380D01*
X175529904Y-134882000D01*
X175434666Y-134977238D01*
X175387047Y-135167714D01*
X175387047Y-135501047D01*
X175434666Y-135691523D01*
X175529904Y-135786761D01*
X175625142Y-135834380D01*
X175815619Y-135834380D01*
X175910857Y-135786761D01*
X176006095Y-135691523D01*
X176053714Y-135501047D01*
X176053714Y-135167714D01*
X176006095Y-134977238D01*
X175910857Y-134882000D01*
X175815619Y-134834380D01*
X175006095Y-134929619D02*
X174958476Y-134882000D01*
X174863238Y-134834380D01*
X174625142Y-134834380D01*
X174529904Y-134882000D01*
X174482285Y-134929619D01*
X174434666Y-135024857D01*
X174434666Y-135120095D01*
X174482285Y-135262952D01*
X175053714Y-135834380D01*
X174434666Y-135834380D01*
X150756190Y-140025428D02*
X149994285Y-140025428D01*
X150375238Y-140406380D02*
X150375238Y-139644476D01*
X149089523Y-139311142D02*
X148232380Y-140596857D01*
X147327619Y-140025428D02*
X146565714Y-140025428D01*
X145660952Y-139311142D02*
X144803809Y-140596857D01*
X144041904Y-139406380D02*
X143470476Y-139406380D01*
X143756190Y-140406380D02*
X143756190Y-139406380D01*
X143232380Y-140406380D02*
X142708571Y-139739714D01*
X143232380Y-139739714D02*
X142708571Y-140406380D01*
X141899047Y-139311142D02*
X141041904Y-140596857D01*
X139565714Y-140406380D02*
X139899047Y-139930190D01*
X140137142Y-140406380D02*
X140137142Y-139406380D01*
X139756190Y-139406380D01*
X139660952Y-139454000D01*
X139613333Y-139501619D01*
X139565714Y-139596857D01*
X139565714Y-139739714D01*
X139613333Y-139834952D01*
X139660952Y-139882571D01*
X139756190Y-139930190D01*
X140137142Y-139930190D01*
X139232380Y-140406380D02*
X138708571Y-139739714D01*
X139232380Y-139739714D02*
X138708571Y-140406380D01*
X165742190Y-140025428D02*
X164980285Y-140025428D01*
X165361238Y-140406380D02*
X165361238Y-139644476D01*
X164075523Y-139311142D02*
X163218380Y-140596857D01*
X162313619Y-140025428D02*
X161551714Y-140025428D01*
X160646952Y-139311142D02*
X159789809Y-140596857D01*
X159027904Y-139406380D02*
X158456476Y-139406380D01*
X158742190Y-140406380D02*
X158742190Y-139406380D01*
X158218380Y-140406380D02*
X157694571Y-139739714D01*
X158218380Y-139739714D02*
X157694571Y-140406380D01*
X156885047Y-139311142D02*
X156027904Y-140596857D01*
X154551714Y-140406380D02*
X154885047Y-139930190D01*
X155123142Y-140406380D02*
X155123142Y-139406380D01*
X154742190Y-139406380D01*
X154646952Y-139454000D01*
X154599333Y-139501619D01*
X154551714Y-139596857D01*
X154551714Y-139739714D01*
X154599333Y-139834952D01*
X154646952Y-139882571D01*
X154742190Y-139930190D01*
X155123142Y-139930190D01*
X154218380Y-140406380D02*
X153694571Y-139739714D01*
X154218380Y-139739714D02*
X153694571Y-140406380D01*
X187650380Y-77375238D02*
X187650380Y-76899047D01*
X186650380Y-76899047D01*
X187650380Y-77708571D02*
X186983714Y-77708571D01*
X186650380Y-77708571D02*
X186698000Y-77660952D01*
X186745619Y-77708571D01*
X186698000Y-77756190D01*
X186650380Y-77708571D01*
X186745619Y-77708571D01*
X187650380Y-78184761D02*
X186983714Y-78184761D01*
X187078952Y-78184761D02*
X187031333Y-78232380D01*
X186983714Y-78327619D01*
X186983714Y-78470476D01*
X187031333Y-78565714D01*
X187126571Y-78613333D01*
X187650380Y-78613333D01*
X187126571Y-78613333D02*
X187031333Y-78660952D01*
X186983714Y-78756190D01*
X186983714Y-78899047D01*
X187031333Y-78994285D01*
X187126571Y-79041904D01*
X187650380Y-79041904D01*
X187650380Y-79518095D02*
X186983714Y-79518095D01*
X186650380Y-79518095D02*
X186698000Y-79470476D01*
X186745619Y-79518095D01*
X186698000Y-79565714D01*
X186650380Y-79518095D01*
X186745619Y-79518095D01*
X186983714Y-79851428D02*
X186983714Y-80232380D01*
X186650380Y-79994285D02*
X187507523Y-79994285D01*
X187602761Y-80041904D01*
X187650380Y-80137142D01*
X187650380Y-80232380D01*
X187602761Y-81280000D02*
X187650380Y-81422857D01*
X187650380Y-81660952D01*
X187602761Y-81756190D01*
X187555142Y-81803809D01*
X187459904Y-81851428D01*
X187364666Y-81851428D01*
X187269428Y-81803809D01*
X187221809Y-81756190D01*
X187174190Y-81660952D01*
X187126571Y-81470476D01*
X187078952Y-81375238D01*
X187031333Y-81327619D01*
X186936095Y-81280000D01*
X186840857Y-81280000D01*
X186745619Y-81327619D01*
X186698000Y-81375238D01*
X186650380Y-81470476D01*
X186650380Y-81708571D01*
X186698000Y-81851428D01*
X186983714Y-82184761D02*
X187650380Y-82375238D01*
X187174190Y-82565714D01*
X187650380Y-82756190D01*
X186983714Y-82946666D01*
X187650380Y-83327619D02*
X186983714Y-83327619D01*
X186650380Y-83327619D02*
X186698000Y-83280000D01*
X186745619Y-83327619D01*
X186698000Y-83375238D01*
X186650380Y-83327619D01*
X186745619Y-83327619D01*
X186983714Y-83660952D02*
X186983714Y-84041904D01*
X186650380Y-83803809D02*
X187507523Y-83803809D01*
X187602761Y-83851428D01*
X187650380Y-83946666D01*
X187650380Y-84041904D01*
X187602761Y-84803809D02*
X187650380Y-84708571D01*
X187650380Y-84518095D01*
X187602761Y-84422857D01*
X187555142Y-84375238D01*
X187459904Y-84327619D01*
X187174190Y-84327619D01*
X187078952Y-84375238D01*
X187031333Y-84422857D01*
X186983714Y-84518095D01*
X186983714Y-84708571D01*
X187031333Y-84803809D01*
X187650380Y-85232380D02*
X186650380Y-85232380D01*
X187650380Y-85660952D02*
X187126571Y-85660952D01*
X187031333Y-85613333D01*
X186983714Y-85518095D01*
X186983714Y-85375238D01*
X187031333Y-85280000D01*
X187078952Y-85232380D01*
X191587428Y-86424190D02*
X191587428Y-87186095D01*
X191968380Y-86805142D02*
X191206476Y-86805142D01*
X190873142Y-88090857D02*
X192158857Y-88948000D01*
X191587428Y-89852761D02*
X191587428Y-90614666D01*
X190873142Y-91519428D02*
X192158857Y-92376571D01*
X191920761Y-93233714D02*
X191968380Y-93376571D01*
X191968380Y-93614666D01*
X191920761Y-93709904D01*
X191873142Y-93757523D01*
X191777904Y-93805142D01*
X191682666Y-93805142D01*
X191587428Y-93757523D01*
X191539809Y-93709904D01*
X191492190Y-93614666D01*
X191444571Y-93424190D01*
X191396952Y-93328952D01*
X191349333Y-93281333D01*
X191254095Y-93233714D01*
X191158857Y-93233714D01*
X191063619Y-93281333D01*
X191016000Y-93328952D01*
X190968380Y-93424190D01*
X190968380Y-93662285D01*
X191016000Y-93805142D01*
X191968380Y-94233714D02*
X191301714Y-94233714D01*
X190968380Y-94233714D02*
X191016000Y-94186095D01*
X191063619Y-94233714D01*
X191016000Y-94281333D01*
X190968380Y-94233714D01*
X191063619Y-94233714D01*
X191301714Y-95138476D02*
X192111238Y-95138476D01*
X192206476Y-95090857D01*
X192254095Y-95043238D01*
X192301714Y-94948000D01*
X192301714Y-94805142D01*
X192254095Y-94709904D01*
X191920761Y-95138476D02*
X191968380Y-95043238D01*
X191968380Y-94852761D01*
X191920761Y-94757523D01*
X191873142Y-94709904D01*
X191777904Y-94662285D01*
X191492190Y-94662285D01*
X191396952Y-94709904D01*
X191349333Y-94757523D01*
X191301714Y-94852761D01*
X191301714Y-95043238D01*
X191349333Y-95138476D01*
X191301714Y-95614666D02*
X191968380Y-95614666D01*
X191396952Y-95614666D02*
X191349333Y-95662285D01*
X191301714Y-95757523D01*
X191301714Y-95900380D01*
X191349333Y-95995619D01*
X191444571Y-96043238D01*
X191968380Y-96043238D01*
X191968380Y-96948000D02*
X191444571Y-96948000D01*
X191349333Y-96900380D01*
X191301714Y-96805142D01*
X191301714Y-96614666D01*
X191349333Y-96519428D01*
X191920761Y-96948000D02*
X191968380Y-96852761D01*
X191968380Y-96614666D01*
X191920761Y-96519428D01*
X191825523Y-96471809D01*
X191730285Y-96471809D01*
X191635047Y-96519428D01*
X191587428Y-96614666D01*
X191587428Y-96852761D01*
X191539809Y-96948000D01*
X191968380Y-97567047D02*
X191920761Y-97471809D01*
X191825523Y-97424190D01*
X190968380Y-97424190D01*
X191587428Y-78930761D02*
X191587428Y-79692666D01*
X191968380Y-79311714D02*
X191206476Y-79311714D01*
X190873142Y-80597428D02*
X192158857Y-81454571D01*
X191587428Y-82359333D02*
X191587428Y-83121238D01*
X160456476Y-135739142D02*
X160504095Y-135786761D01*
X160646952Y-135834380D01*
X160742190Y-135834380D01*
X160885047Y-135786761D01*
X160980285Y-135691523D01*
X161027904Y-135596285D01*
X161075523Y-135405809D01*
X161075523Y-135262952D01*
X161027904Y-135072476D01*
X160980285Y-134977238D01*
X160885047Y-134882000D01*
X160742190Y-134834380D01*
X160646952Y-134834380D01*
X160504095Y-134882000D01*
X160456476Y-134929619D01*
X159837428Y-134834380D02*
X159646952Y-134834380D01*
X159551714Y-134882000D01*
X159456476Y-134977238D01*
X159408857Y-135167714D01*
X159408857Y-135501047D01*
X159456476Y-135691523D01*
X159551714Y-135786761D01*
X159646952Y-135834380D01*
X159837428Y-135834380D01*
X159932666Y-135786761D01*
X160027904Y-135691523D01*
X160075523Y-135501047D01*
X160075523Y-135167714D01*
X160027904Y-134977238D01*
X159932666Y-134882000D01*
X159837428Y-134834380D01*
X159027904Y-134929619D02*
X158980285Y-134882000D01*
X158885047Y-134834380D01*
X158646952Y-134834380D01*
X158551714Y-134882000D01*
X158504095Y-134929619D01*
X158456476Y-135024857D01*
X158456476Y-135120095D01*
X158504095Y-135262952D01*
X159075523Y-135834380D01*
X158456476Y-135834380D01*
X129214476Y-135993142D02*
X129262095Y-136040761D01*
X129404952Y-136088380D01*
X129500190Y-136088380D01*
X129643047Y-136040761D01*
X129738285Y-135945523D01*
X129785904Y-135850285D01*
X129833523Y-135659809D01*
X129833523Y-135516952D01*
X129785904Y-135326476D01*
X129738285Y-135231238D01*
X129643047Y-135136000D01*
X129500190Y-135088380D01*
X129404952Y-135088380D01*
X129262095Y-135136000D01*
X129214476Y-135183619D01*
X128785904Y-136088380D02*
X128785904Y-135088380D01*
X128785904Y-135564571D02*
X128214476Y-135564571D01*
X128214476Y-136088380D02*
X128214476Y-135088380D01*
X127309714Y-135421714D02*
X127309714Y-136088380D01*
X127547809Y-135040761D02*
X127785904Y-135755047D01*
X127166857Y-135755047D01*
X191587428Y-98870190D02*
X191587428Y-99632095D01*
X191968380Y-99251142D02*
X191206476Y-99251142D01*
X190873142Y-100536857D02*
X192158857Y-101394000D01*
X191587428Y-102298761D02*
X191587428Y-103060666D01*
X190873142Y-103965428D02*
X192158857Y-104822571D01*
X191920761Y-105679714D02*
X191968380Y-105822571D01*
X191968380Y-106060666D01*
X191920761Y-106155904D01*
X191873142Y-106203523D01*
X191777904Y-106251142D01*
X191682666Y-106251142D01*
X191587428Y-106203523D01*
X191539809Y-106155904D01*
X191492190Y-106060666D01*
X191444571Y-105870190D01*
X191396952Y-105774952D01*
X191349333Y-105727333D01*
X191254095Y-105679714D01*
X191158857Y-105679714D01*
X191063619Y-105727333D01*
X191016000Y-105774952D01*
X190968380Y-105870190D01*
X190968380Y-106108285D01*
X191016000Y-106251142D01*
X191968380Y-106679714D02*
X191301714Y-106679714D01*
X190968380Y-106679714D02*
X191016000Y-106632095D01*
X191063619Y-106679714D01*
X191016000Y-106727333D01*
X190968380Y-106679714D01*
X191063619Y-106679714D01*
X191301714Y-107584476D02*
X192111238Y-107584476D01*
X192206476Y-107536857D01*
X192254095Y-107489238D01*
X192301714Y-107394000D01*
X192301714Y-107251142D01*
X192254095Y-107155904D01*
X191920761Y-107584476D02*
X191968380Y-107489238D01*
X191968380Y-107298761D01*
X191920761Y-107203523D01*
X191873142Y-107155904D01*
X191777904Y-107108285D01*
X191492190Y-107108285D01*
X191396952Y-107155904D01*
X191349333Y-107203523D01*
X191301714Y-107298761D01*
X191301714Y-107489238D01*
X191349333Y-107584476D01*
X191301714Y-108060666D02*
X191968380Y-108060666D01*
X191396952Y-108060666D02*
X191349333Y-108108285D01*
X191301714Y-108203523D01*
X191301714Y-108346380D01*
X191349333Y-108441619D01*
X191444571Y-108489238D01*
X191968380Y-108489238D01*
X191968380Y-109394000D02*
X191444571Y-109394000D01*
X191349333Y-109346380D01*
X191301714Y-109251142D01*
X191301714Y-109060666D01*
X191349333Y-108965428D01*
X191920761Y-109394000D02*
X191968380Y-109298761D01*
X191968380Y-109060666D01*
X191920761Y-108965428D01*
X191825523Y-108917809D01*
X191730285Y-108917809D01*
X191635047Y-108965428D01*
X191587428Y-109060666D01*
X191587428Y-109298761D01*
X191539809Y-109394000D01*
X191968380Y-110013047D02*
X191920761Y-109917809D01*
X191825523Y-109870190D01*
X190968380Y-109870190D01*
X113553714Y-136088380D02*
X113553714Y-135088380D01*
X112982285Y-136088380D01*
X112982285Y-135088380D01*
X112506095Y-136088380D02*
X112506095Y-135088380D01*
X112506095Y-135564571D02*
X111934666Y-135564571D01*
X111934666Y-136088380D02*
X111934666Y-135088380D01*
X111553714Y-135088380D02*
X110934666Y-135088380D01*
X111268000Y-135469333D01*
X111125142Y-135469333D01*
X111029904Y-135516952D01*
X110982285Y-135564571D01*
X110934666Y-135659809D01*
X110934666Y-135897904D01*
X110982285Y-135993142D01*
X111029904Y-136040761D01*
X111125142Y-136088380D01*
X111410857Y-136088380D01*
X111506095Y-136040761D01*
X111553714Y-135993142D01*
X187602761Y-90090857D02*
X187650380Y-90233714D01*
X187650380Y-90471809D01*
X187602761Y-90567047D01*
X187555142Y-90614666D01*
X187459904Y-90662285D01*
X187364666Y-90662285D01*
X187269428Y-90614666D01*
X187221809Y-90567047D01*
X187174190Y-90471809D01*
X187126571Y-90281333D01*
X187078952Y-90186095D01*
X187031333Y-90138476D01*
X186936095Y-90090857D01*
X186840857Y-90090857D01*
X186745619Y-90138476D01*
X186698000Y-90186095D01*
X186650380Y-90281333D01*
X186650380Y-90519428D01*
X186698000Y-90662285D01*
X187602761Y-91471809D02*
X187650380Y-91376571D01*
X187650380Y-91186095D01*
X187602761Y-91090857D01*
X187507523Y-91043238D01*
X187126571Y-91043238D01*
X187031333Y-91090857D01*
X186983714Y-91186095D01*
X186983714Y-91376571D01*
X187031333Y-91471809D01*
X187126571Y-91519428D01*
X187221809Y-91519428D01*
X187317047Y-91043238D01*
X187650380Y-91948000D02*
X186983714Y-91948000D01*
X187174190Y-91948000D02*
X187078952Y-91995619D01*
X187031333Y-92043238D01*
X186983714Y-92138476D01*
X186983714Y-92233714D01*
X186983714Y-92471809D02*
X187650380Y-92709904D01*
X186983714Y-92948000D01*
X187650380Y-93471809D02*
X187602761Y-93376571D01*
X187555142Y-93328952D01*
X187459904Y-93281333D01*
X187174190Y-93281333D01*
X187078952Y-93328952D01*
X187031333Y-93376571D01*
X186983714Y-93471809D01*
X186983714Y-93614666D01*
X187031333Y-93709904D01*
X187078952Y-93757523D01*
X187174190Y-93805142D01*
X187459904Y-93805142D01*
X187555142Y-93757523D01*
X187602761Y-93709904D01*
X187650380Y-93614666D01*
X187650380Y-93471809D01*
X104132000Y-68325904D02*
X104179619Y-68421142D01*
X104179619Y-68564000D01*
X104132000Y-68706857D01*
X104036761Y-68802095D01*
X103941523Y-68849714D01*
X103751047Y-68897333D01*
X103608190Y-68897333D01*
X103417714Y-68849714D01*
X103322476Y-68802095D01*
X103227238Y-68706857D01*
X103179619Y-68564000D01*
X103179619Y-68468761D01*
X103227238Y-68325904D01*
X103274857Y-68278285D01*
X103608190Y-68278285D01*
X103608190Y-68468761D01*
X103179619Y-67849714D02*
X104179619Y-67849714D01*
X103179619Y-67278285D01*
X104179619Y-67278285D01*
X103179619Y-66802095D02*
X104179619Y-66802095D01*
X104179619Y-66564000D01*
X104132000Y-66421142D01*
X104036761Y-66325904D01*
X103941523Y-66278285D01*
X103751047Y-66230666D01*
X103608190Y-66230666D01*
X103417714Y-66278285D01*
X103322476Y-66325904D01*
X103227238Y-66421142D01*
X103179619Y-66564000D01*
X103179619Y-66802095D01*
X102941428Y-120848095D02*
X102941428Y-120514761D01*
X102417619Y-120371904D02*
X102417619Y-120848095D01*
X103417619Y-120848095D01*
X103417619Y-120371904D01*
X103084285Y-119943333D02*
X102417619Y-119943333D01*
X102989047Y-119943333D02*
X103036666Y-119895714D01*
X103084285Y-119800476D01*
X103084285Y-119657619D01*
X103036666Y-119562380D01*
X102941428Y-119514761D01*
X102417619Y-119514761D01*
X102465238Y-118610000D02*
X102417619Y-118705238D01*
X102417619Y-118895714D01*
X102465238Y-118990952D01*
X102512857Y-119038571D01*
X102608095Y-119086190D01*
X102893809Y-119086190D01*
X102989047Y-119038571D01*
X103036666Y-118990952D01*
X103084285Y-118895714D01*
X103084285Y-118705238D01*
X103036666Y-118610000D01*
X102417619Y-118038571D02*
X102465238Y-118133809D01*
X102512857Y-118181428D01*
X102608095Y-118229047D01*
X102893809Y-118229047D01*
X102989047Y-118181428D01*
X103036666Y-118133809D01*
X103084285Y-118038571D01*
X103084285Y-117895714D01*
X103036666Y-117800476D01*
X102989047Y-117752857D01*
X102893809Y-117705238D01*
X102608095Y-117705238D01*
X102512857Y-117752857D01*
X102465238Y-117800476D01*
X102417619Y-117895714D01*
X102417619Y-118038571D01*
X102417619Y-116848095D02*
X103417619Y-116848095D01*
X102465238Y-116848095D02*
X102417619Y-116943333D01*
X102417619Y-117133809D01*
X102465238Y-117229047D01*
X102512857Y-117276666D01*
X102608095Y-117324285D01*
X102893809Y-117324285D01*
X102989047Y-117276666D01*
X103036666Y-117229047D01*
X103084285Y-117133809D01*
X103084285Y-116943333D01*
X103036666Y-116848095D01*
X102465238Y-115990952D02*
X102417619Y-116086190D01*
X102417619Y-116276666D01*
X102465238Y-116371904D01*
X102560476Y-116419523D01*
X102941428Y-116419523D01*
X103036666Y-116371904D01*
X103084285Y-116276666D01*
X103084285Y-116086190D01*
X103036666Y-115990952D01*
X102941428Y-115943333D01*
X102846190Y-115943333D01*
X102750952Y-116419523D01*
X102417619Y-115514761D02*
X103084285Y-115514761D01*
X102893809Y-115514761D02*
X102989047Y-115467142D01*
X103036666Y-115419523D01*
X103084285Y-115324285D01*
X103084285Y-115229047D01*
X134500190Y-140025428D02*
X133738285Y-140025428D01*
X134119238Y-140406380D02*
X134119238Y-139644476D01*
X132833523Y-139311142D02*
X131976380Y-140596857D01*
X131071619Y-140025428D02*
X130309714Y-140025428D01*
X129404952Y-139311142D02*
X128547809Y-140596857D01*
X127785904Y-139406380D02*
X127214476Y-139406380D01*
X127500190Y-140406380D02*
X127500190Y-139406380D01*
X126976380Y-140406380D02*
X126452571Y-139739714D01*
X126976380Y-139739714D02*
X126452571Y-140406380D01*
X125643047Y-139311142D02*
X124785904Y-140596857D01*
X123309714Y-140406380D02*
X123643047Y-139930190D01*
X123881142Y-140406380D02*
X123881142Y-139406380D01*
X123500190Y-139406380D01*
X123404952Y-139454000D01*
X123357333Y-139501619D01*
X123309714Y-139596857D01*
X123309714Y-139739714D01*
X123357333Y-139834952D01*
X123404952Y-139882571D01*
X123500190Y-139930190D01*
X123881142Y-139930190D01*
X122976380Y-140406380D02*
X122452571Y-139739714D01*
X122976380Y-139739714D02*
X122452571Y-140406380D01*
X103687619Y-84518380D02*
X104687619Y-84518380D01*
X103973333Y-84185047D01*
X104687619Y-83851714D01*
X103687619Y-83851714D01*
X104068571Y-83375523D02*
X104068571Y-82613619D01*
X183506095Y-140025428D02*
X182744190Y-140025428D01*
X183125142Y-140406380D02*
X183125142Y-139644476D01*
X181839428Y-139311142D02*
X180982285Y-140596857D01*
X180077523Y-140025428D02*
X179315619Y-140025428D01*
X178410857Y-139311142D02*
X177553714Y-140596857D01*
X177410857Y-140406380D02*
X177410857Y-139406380D01*
X177077523Y-140120666D01*
X176744190Y-139406380D01*
X176744190Y-140406380D01*
X176268000Y-140406380D02*
X176268000Y-139406380D01*
X175839428Y-140358761D02*
X175696571Y-140406380D01*
X175458476Y-140406380D01*
X175363238Y-140358761D01*
X175315619Y-140311142D01*
X175268000Y-140215904D01*
X175268000Y-140120666D01*
X175315619Y-140025428D01*
X175363238Y-139977809D01*
X175458476Y-139930190D01*
X175648952Y-139882571D01*
X175744190Y-139834952D01*
X175791809Y-139787333D01*
X175839428Y-139692095D01*
X175839428Y-139596857D01*
X175791809Y-139501619D01*
X175744190Y-139454000D01*
X175648952Y-139406380D01*
X175410857Y-139406380D01*
X175268000Y-139454000D01*
X174648952Y-139406380D02*
X174458476Y-139406380D01*
X174363238Y-139454000D01*
X174268000Y-139549238D01*
X174220380Y-139739714D01*
X174220380Y-140073047D01*
X174268000Y-140263523D01*
X174363238Y-140358761D01*
X174458476Y-140406380D01*
X174648952Y-140406380D01*
X174744190Y-140358761D01*
X174839428Y-140263523D01*
X174887047Y-140073047D01*
X174887047Y-139739714D01*
X174839428Y-139549238D01*
X174744190Y-139454000D01*
X174648952Y-139406380D01*
X174125142Y-139311142D02*
X173268000Y-140596857D01*
X172553714Y-140311142D02*
X172601333Y-140358761D01*
X172744190Y-140406380D01*
X172839428Y-140406380D01*
X172982285Y-140358761D01*
X173077523Y-140263523D01*
X173125142Y-140168285D01*
X173172761Y-139977809D01*
X173172761Y-139834952D01*
X173125142Y-139644476D01*
X173077523Y-139549238D01*
X172982285Y-139454000D01*
X172839428Y-139406380D01*
X172744190Y-139406380D01*
X172601333Y-139454000D01*
X172553714Y-139501619D01*
X172172761Y-140358761D02*
X172029904Y-140406380D01*
X171791809Y-140406380D01*
X171696571Y-140358761D01*
X171648952Y-140311142D01*
X171601333Y-140215904D01*
X171601333Y-140120666D01*
X171648952Y-140025428D01*
X171696571Y-139977809D01*
X171791809Y-139930190D01*
X171982285Y-139882571D01*
X172077523Y-139834952D01*
X172125142Y-139787333D01*
X172172761Y-139692095D01*
X172172761Y-139596857D01*
X172125142Y-139501619D01*
X172077523Y-139454000D01*
X171982285Y-139406380D01*
X171744190Y-139406380D01*
X171601333Y-139454000D01*
X171506095Y-139311142D02*
X170648952Y-140596857D01*
X170553714Y-140358761D02*
X170410857Y-140406380D01*
X170172761Y-140406380D01*
X170077523Y-140358761D01*
X170029904Y-140311142D01*
X169982285Y-140215904D01*
X169982285Y-140120666D01*
X170029904Y-140025428D01*
X170077523Y-139977809D01*
X170172761Y-139930190D01*
X170363238Y-139882571D01*
X170458476Y-139834952D01*
X170506095Y-139787333D01*
X170553714Y-139692095D01*
X170553714Y-139596857D01*
X170506095Y-139501619D01*
X170458476Y-139454000D01*
X170363238Y-139406380D01*
X170125142Y-139406380D01*
X169982285Y-139454000D01*
X168982285Y-140311142D02*
X169029904Y-140358761D01*
X169172761Y-140406380D01*
X169268000Y-140406380D01*
X169410857Y-140358761D01*
X169506095Y-140263523D01*
X169553714Y-140168285D01*
X169601333Y-139977809D01*
X169601333Y-139834952D01*
X169553714Y-139644476D01*
X169506095Y-139549238D01*
X169410857Y-139454000D01*
X169268000Y-139406380D01*
X169172761Y-139406380D01*
X169029904Y-139454000D01*
X168982285Y-139501619D01*
X168553714Y-140406380D02*
X168553714Y-139406380D01*
X167982285Y-140406380D02*
X168410857Y-139834952D01*
X167982285Y-139406380D02*
X168553714Y-139977809D01*
X145097428Y-134834380D02*
X144906952Y-134834380D01*
X144811714Y-134882000D01*
X144716476Y-134977238D01*
X144668857Y-135167714D01*
X144668857Y-135501047D01*
X144716476Y-135691523D01*
X144811714Y-135786761D01*
X144906952Y-135834380D01*
X145097428Y-135834380D01*
X145192666Y-135786761D01*
X145287904Y-135691523D01*
X145335523Y-135501047D01*
X145335523Y-135167714D01*
X145287904Y-134977238D01*
X145192666Y-134882000D01*
X145097428Y-134834380D01*
X144287904Y-134929619D02*
X144240285Y-134882000D01*
X144145047Y-134834380D01*
X143906952Y-134834380D01*
X143811714Y-134882000D01*
X143764095Y-134929619D01*
X143716476Y-135024857D01*
X143716476Y-135120095D01*
X143764095Y-135262952D01*
X144335523Y-135834380D01*
X143716476Y-135834380D01*
X103687619Y-77152380D02*
X104687619Y-77152380D01*
X103973333Y-76819047D01*
X104687619Y-76485714D01*
X103687619Y-76485714D01*
X104068571Y-76009523D02*
X104068571Y-75247619D01*
X103687619Y-75628571D02*
X104449523Y-75628571D01*
X119688666Y-140025428D02*
X118926761Y-140025428D01*
X119307714Y-140406380D02*
X119307714Y-139644476D01*
X118022000Y-139311142D02*
X117164857Y-140596857D01*
X116260095Y-140025428D02*
X115498190Y-140025428D01*
X115879142Y-140406380D02*
X115879142Y-139644476D01*
X114593428Y-139311142D02*
X113736285Y-140596857D01*
X113593428Y-140406380D02*
X113593428Y-139406380D01*
X113593428Y-139882571D02*
X113022000Y-139882571D01*
X113022000Y-140406380D02*
X113022000Y-139406380D01*
X112164857Y-140358761D02*
X112260095Y-140406380D01*
X112450571Y-140406380D01*
X112545809Y-140358761D01*
X112593428Y-140263523D01*
X112593428Y-139882571D01*
X112545809Y-139787333D01*
X112450571Y-139739714D01*
X112260095Y-139739714D01*
X112164857Y-139787333D01*
X112117238Y-139882571D01*
X112117238Y-139977809D01*
X112593428Y-140073047D01*
X111260095Y-140406380D02*
X111260095Y-139882571D01*
X111307714Y-139787333D01*
X111402952Y-139739714D01*
X111593428Y-139739714D01*
X111688666Y-139787333D01*
X111260095Y-140358761D02*
X111355333Y-140406380D01*
X111593428Y-140406380D01*
X111688666Y-140358761D01*
X111736285Y-140263523D01*
X111736285Y-140168285D01*
X111688666Y-140073047D01*
X111593428Y-140025428D01*
X111355333Y-140025428D01*
X111260095Y-139977809D01*
X110926761Y-139739714D02*
X110545809Y-139739714D01*
X110783904Y-139406380D02*
X110783904Y-140263523D01*
X110736285Y-140358761D01*
X110641047Y-140406380D01*
X110545809Y-140406380D01*
X110545809Y-139311142D02*
X109688666Y-140596857D01*
X109593428Y-140358761D02*
X109450571Y-140406380D01*
X109212476Y-140406380D01*
X109117238Y-140358761D01*
X109069619Y-140311142D01*
X109022000Y-140215904D01*
X109022000Y-140120666D01*
X109069619Y-140025428D01*
X109117238Y-139977809D01*
X109212476Y-139930190D01*
X109402952Y-139882571D01*
X109498190Y-139834952D01*
X109545809Y-139787333D01*
X109593428Y-139692095D01*
X109593428Y-139596857D01*
X109545809Y-139501619D01*
X109498190Y-139454000D01*
X109402952Y-139406380D01*
X109164857Y-139406380D01*
X109022000Y-139454000D01*
X108593428Y-140406380D02*
X108593428Y-139739714D01*
X108593428Y-139406380D02*
X108641047Y-139454000D01*
X108593428Y-139501619D01*
X108545809Y-139454000D01*
X108593428Y-139406380D01*
X108593428Y-139501619D01*
X107688666Y-139739714D02*
X107688666Y-140549238D01*
X107736285Y-140644476D01*
X107783904Y-140692095D01*
X107879142Y-140739714D01*
X108022000Y-140739714D01*
X108117238Y-140692095D01*
X107688666Y-140358761D02*
X107783904Y-140406380D01*
X107974380Y-140406380D01*
X108069619Y-140358761D01*
X108117238Y-140311142D01*
X108164857Y-140215904D01*
X108164857Y-139930190D01*
X108117238Y-139834952D01*
X108069619Y-139787333D01*
X107974380Y-139739714D01*
X107783904Y-139739714D01*
X107688666Y-139787333D01*
X107212476Y-139739714D02*
X107212476Y-140406380D01*
X107212476Y-139834952D02*
X107164857Y-139787333D01*
X107069619Y-139739714D01*
X106926761Y-139739714D01*
X106831523Y-139787333D01*
X106783904Y-139882571D01*
X106783904Y-140406380D01*
X105879142Y-140406380D02*
X105879142Y-139882571D01*
X105926761Y-139787333D01*
X106022000Y-139739714D01*
X106212476Y-139739714D01*
X106307714Y-139787333D01*
X105879142Y-140358761D02*
X105974380Y-140406380D01*
X106212476Y-140406380D01*
X106307714Y-140358761D01*
X106355333Y-140263523D01*
X106355333Y-140168285D01*
X106307714Y-140073047D01*
X106212476Y-140025428D01*
X105974380Y-140025428D01*
X105879142Y-139977809D01*
X105260095Y-140406380D02*
X105355333Y-140358761D01*
X105402952Y-140263523D01*
X105402952Y-139406380D01*
X187396380Y-99354285D02*
X186396380Y-99354285D01*
X186396380Y-99735238D01*
X186444000Y-99830476D01*
X186491619Y-99878095D01*
X186586857Y-99925714D01*
X186729714Y-99925714D01*
X186824952Y-99878095D01*
X186872571Y-99830476D01*
X186920190Y-99735238D01*
X186920190Y-99354285D01*
X187396380Y-100354285D02*
X186396380Y-100354285D01*
X187396380Y-100782857D02*
X186872571Y-100782857D01*
X186777333Y-100735238D01*
X186729714Y-100640000D01*
X186729714Y-100497142D01*
X186777333Y-100401904D01*
X186824952Y-100354285D01*
X187396380Y-101401904D02*
X187348761Y-101306666D01*
X187301142Y-101259047D01*
X187205904Y-101211428D01*
X186920190Y-101211428D01*
X186824952Y-101259047D01*
X186777333Y-101306666D01*
X186729714Y-101401904D01*
X186729714Y-101544761D01*
X186777333Y-101640000D01*
X186824952Y-101687619D01*
X186920190Y-101735238D01*
X187205904Y-101735238D01*
X187301142Y-101687619D01*
X187348761Y-101640000D01*
X187396380Y-101544761D01*
X187396380Y-101401904D01*
X186729714Y-102020952D02*
X186729714Y-102401904D01*
X186396380Y-102163809D02*
X187253523Y-102163809D01*
X187348761Y-102211428D01*
X187396380Y-102306666D01*
X187396380Y-102401904D01*
X187396380Y-102878095D02*
X187348761Y-102782857D01*
X187301142Y-102735238D01*
X187205904Y-102687619D01*
X186920190Y-102687619D01*
X186824952Y-102735238D01*
X186777333Y-102782857D01*
X186729714Y-102878095D01*
X186729714Y-103020952D01*
X186777333Y-103116190D01*
X186824952Y-103163809D01*
X186920190Y-103211428D01*
X187205904Y-103211428D01*
X187301142Y-103163809D01*
X187348761Y-103116190D01*
X187396380Y-103020952D01*
X187396380Y-102878095D01*
X187396380Y-104068571D02*
X186396380Y-104068571D01*
X187348761Y-104068571D02*
X187396380Y-103973333D01*
X187396380Y-103782857D01*
X187348761Y-103687619D01*
X187301142Y-103640000D01*
X187205904Y-103592380D01*
X186920190Y-103592380D01*
X186824952Y-103640000D01*
X186777333Y-103687619D01*
X186729714Y-103782857D01*
X186729714Y-103973333D01*
X186777333Y-104068571D01*
X187396380Y-104544761D02*
X186729714Y-104544761D01*
X186396380Y-104544761D02*
X186444000Y-104497142D01*
X186491619Y-104544761D01*
X186444000Y-104592380D01*
X186396380Y-104544761D01*
X186491619Y-104544761D01*
X187396380Y-105163809D02*
X187348761Y-105068571D01*
X187301142Y-105020952D01*
X187205904Y-104973333D01*
X186920190Y-104973333D01*
X186824952Y-105020952D01*
X186777333Y-105068571D01*
X186729714Y-105163809D01*
X186729714Y-105306666D01*
X186777333Y-105401904D01*
X186824952Y-105449523D01*
X186920190Y-105497142D01*
X187205904Y-105497142D01*
X187301142Y-105449523D01*
X187348761Y-105401904D01*
X187396380Y-105306666D01*
X187396380Y-105163809D01*
X187396380Y-106354285D02*
X186396380Y-106354285D01*
X187348761Y-106354285D02*
X187396380Y-106259047D01*
X187396380Y-106068571D01*
X187348761Y-105973333D01*
X187301142Y-105925714D01*
X187205904Y-105878095D01*
X186920190Y-105878095D01*
X186824952Y-105925714D01*
X186777333Y-105973333D01*
X186729714Y-106068571D01*
X186729714Y-106259047D01*
X186777333Y-106354285D01*
X187348761Y-107211428D02*
X187396380Y-107116190D01*
X187396380Y-106925714D01*
X187348761Y-106830476D01*
X187253523Y-106782857D01*
X186872571Y-106782857D01*
X186777333Y-106830476D01*
X186729714Y-106925714D01*
X186729714Y-107116190D01*
X186777333Y-107211428D01*
X186872571Y-107259047D01*
X186967809Y-107259047D01*
X187063047Y-106782857D01*
X186491619Y-108401904D02*
X186444000Y-108449523D01*
X186396380Y-108544761D01*
X186396380Y-108782857D01*
X186444000Y-108878095D01*
X186491619Y-108925714D01*
X186586857Y-108973333D01*
X186682095Y-108973333D01*
X186824952Y-108925714D01*
X187396380Y-108354285D01*
X187396380Y-108973333D01*
X103433619Y-59801047D02*
X103433619Y-60372476D01*
X103433619Y-60086761D02*
X104433619Y-60086761D01*
X104290761Y-60182000D01*
X104195523Y-60277238D01*
X104147904Y-60372476D01*
X104338380Y-59420095D02*
X104386000Y-59372476D01*
X104433619Y-59277238D01*
X104433619Y-59039142D01*
X104386000Y-58943904D01*
X104338380Y-58896285D01*
X104243142Y-58848666D01*
X104147904Y-58848666D01*
X104005047Y-58896285D01*
X103433619Y-59467714D01*
X103433619Y-58848666D01*
X104433619Y-58562952D02*
X103433619Y-58229619D01*
X104433619Y-57896285D01*
X98226571Y-110083809D02*
X98226571Y-109321904D01*
X97845619Y-109702857D02*
X98607523Y-109702857D01*
X98940857Y-108417142D02*
X97655142Y-107560000D01*
X98226571Y-106655238D02*
X98226571Y-105893333D01*
X98940857Y-104988571D02*
X97655142Y-104131428D01*
X97845619Y-103321904D02*
X98512285Y-102798095D01*
X98512285Y-103321904D02*
X97845619Y-102798095D01*
X98940857Y-101988571D02*
X97655142Y-101131428D01*
X98750380Y-101036190D02*
X98798000Y-100988571D01*
X98845619Y-100893333D01*
X98845619Y-100655238D01*
X98798000Y-100560000D01*
X98750380Y-100512380D01*
X98655142Y-100464761D01*
X98559904Y-100464761D01*
X98417047Y-100512380D01*
X97845619Y-101083809D01*
X97845619Y-100464761D01*
X98845619Y-99607619D02*
X98845619Y-99798095D01*
X98798000Y-99893333D01*
X98750380Y-99940952D01*
X98607523Y-100036190D01*
X98417047Y-100083809D01*
X98036095Y-100083809D01*
X97940857Y-100036190D01*
X97893238Y-99988571D01*
X97845619Y-99893333D01*
X97845619Y-99702857D01*
X97893238Y-99607619D01*
X97940857Y-99560000D01*
X98036095Y-99512380D01*
X98274190Y-99512380D01*
X98369428Y-99560000D01*
X98417047Y-99607619D01*
X98464666Y-99702857D01*
X98464666Y-99893333D01*
X98417047Y-99988571D01*
X98369428Y-100036190D01*
X98274190Y-100083809D01*
X98845619Y-98893333D02*
X98845619Y-98798095D01*
X98798000Y-98702857D01*
X98750380Y-98655238D01*
X98655142Y-98607619D01*
X98464666Y-98560000D01*
X98226571Y-98560000D01*
X98036095Y-98607619D01*
X97940857Y-98655238D01*
X97893238Y-98702857D01*
X97845619Y-98798095D01*
X97845619Y-98893333D01*
X97893238Y-98988571D01*
X97940857Y-99036190D01*
X98036095Y-99083809D01*
X98226571Y-99131428D01*
X98464666Y-99131428D01*
X98655142Y-99083809D01*
X98750380Y-99036190D01*
X98798000Y-98988571D01*
X98845619Y-98893333D01*
X98940857Y-98464761D02*
X97655142Y-97607619D01*
X98750380Y-97512380D02*
X98798000Y-97464761D01*
X98845619Y-97369523D01*
X98845619Y-97131428D01*
X98798000Y-97036190D01*
X98750380Y-96988571D01*
X98655142Y-96940952D01*
X98559904Y-96940952D01*
X98417047Y-96988571D01*
X97845619Y-97560000D01*
X97845619Y-96940952D01*
X98845619Y-96607619D02*
X98845619Y-95940952D01*
X97845619Y-96369523D01*
X98845619Y-95083809D02*
X98845619Y-95560000D01*
X98369428Y-95607619D01*
X98417047Y-95560000D01*
X98464666Y-95464761D01*
X98464666Y-95226666D01*
X98417047Y-95131428D01*
X98369428Y-95083809D01*
X98274190Y-95036190D01*
X98036095Y-95036190D01*
X97940857Y-95083809D01*
X97893238Y-95131428D01*
X97845619Y-95226666D01*
X97845619Y-95464761D01*
X97893238Y-95560000D01*
X97940857Y-95607619D01*
X98940857Y-94940952D02*
X97655142Y-94083809D01*
X98750380Y-93988571D02*
X98798000Y-93940952D01*
X98845619Y-93845714D01*
X98845619Y-93607619D01*
X98798000Y-93512380D01*
X98750380Y-93464761D01*
X98655142Y-93417142D01*
X98559904Y-93417142D01*
X98417047Y-93464761D01*
X97845619Y-94036190D01*
X97845619Y-93417142D01*
X98417047Y-92845714D02*
X98464666Y-92940952D01*
X98512285Y-92988571D01*
X98607523Y-93036190D01*
X98655142Y-93036190D01*
X98750380Y-92988571D01*
X98798000Y-92940952D01*
X98845619Y-92845714D01*
X98845619Y-92655238D01*
X98798000Y-92560000D01*
X98750380Y-92512380D01*
X98655142Y-92464761D01*
X98607523Y-92464761D01*
X98512285Y-92512380D01*
X98464666Y-92560000D01*
X98417047Y-92655238D01*
X98417047Y-92845714D01*
X98369428Y-92940952D01*
X98321809Y-92988571D01*
X98226571Y-93036190D01*
X98036095Y-93036190D01*
X97940857Y-92988571D01*
X97893238Y-92940952D01*
X97845619Y-92845714D01*
X97845619Y-92655238D01*
X97893238Y-92560000D01*
X97940857Y-92512380D01*
X98036095Y-92464761D01*
X98226571Y-92464761D01*
X98321809Y-92512380D01*
X98369428Y-92560000D01*
X98417047Y-92655238D01*
X98845619Y-91845714D02*
X98845619Y-91750476D01*
X98798000Y-91655238D01*
X98750380Y-91607619D01*
X98655142Y-91560000D01*
X98464666Y-91512380D01*
X98226571Y-91512380D01*
X98036095Y-91560000D01*
X97940857Y-91607619D01*
X97893238Y-91655238D01*
X97845619Y-91750476D01*
X97845619Y-91845714D01*
X97893238Y-91940952D01*
X97940857Y-91988571D01*
X98036095Y-92036190D01*
X98226571Y-92083809D01*
X98464666Y-92083809D01*
X98655142Y-92036190D01*
X98750380Y-91988571D01*
X98798000Y-91940952D01*
X98845619Y-91845714D01*
X98940857Y-91417142D02*
X97655142Y-90560000D01*
X98845619Y-90512380D02*
X98845619Y-89893333D01*
X98464666Y-90226666D01*
X98464666Y-90083809D01*
X98417047Y-89988571D01*
X98369428Y-89940952D01*
X98274190Y-89893333D01*
X98036095Y-89893333D01*
X97940857Y-89940952D01*
X97893238Y-89988571D01*
X97845619Y-90083809D01*
X97845619Y-90369523D01*
X97893238Y-90464761D01*
X97940857Y-90512380D01*
X97845619Y-88940952D02*
X97845619Y-89512380D01*
X97845619Y-89226666D02*
X98845619Y-89226666D01*
X98702761Y-89321904D01*
X98607523Y-89417142D01*
X98559904Y-89512380D01*
X98845619Y-88036190D02*
X98845619Y-88512380D01*
X98369428Y-88560000D01*
X98417047Y-88512380D01*
X98464666Y-88417142D01*
X98464666Y-88179047D01*
X98417047Y-88083809D01*
X98369428Y-88036190D01*
X98274190Y-87988571D01*
X98036095Y-87988571D01*
X97940857Y-88036190D01*
X97893238Y-88083809D01*
X97845619Y-88179047D01*
X97845619Y-88417142D01*
X97893238Y-88512380D01*
X97940857Y-88560000D01*
X98226571Y-123887809D02*
X98226571Y-123125904D01*
X97845619Y-123506857D02*
X98607523Y-123506857D01*
X98940857Y-122221142D02*
X97655142Y-121364000D01*
X98226571Y-120459238D02*
X98226571Y-119697333D01*
X98940857Y-118792571D02*
X97655142Y-117935428D01*
X97893238Y-117078285D02*
X97845619Y-116935428D01*
X97845619Y-116697333D01*
X97893238Y-116602095D01*
X97940857Y-116554476D01*
X98036095Y-116506857D01*
X98131333Y-116506857D01*
X98226571Y-116554476D01*
X98274190Y-116602095D01*
X98321809Y-116697333D01*
X98369428Y-116887809D01*
X98417047Y-116983047D01*
X98464666Y-117030666D01*
X98559904Y-117078285D01*
X98655142Y-117078285D01*
X98750380Y-117030666D01*
X98798000Y-116983047D01*
X98845619Y-116887809D01*
X98845619Y-116649714D01*
X98798000Y-116506857D01*
X97845619Y-116078285D02*
X98512285Y-116078285D01*
X98845619Y-116078285D02*
X98798000Y-116125904D01*
X98750380Y-116078285D01*
X98798000Y-116030666D01*
X98845619Y-116078285D01*
X98750380Y-116078285D01*
X98512285Y-115173523D02*
X97702761Y-115173523D01*
X97607523Y-115221142D01*
X97559904Y-115268761D01*
X97512285Y-115364000D01*
X97512285Y-115506857D01*
X97559904Y-115602095D01*
X97893238Y-115173523D02*
X97845619Y-115268761D01*
X97845619Y-115459238D01*
X97893238Y-115554476D01*
X97940857Y-115602095D01*
X98036095Y-115649714D01*
X98321809Y-115649714D01*
X98417047Y-115602095D01*
X98464666Y-115554476D01*
X98512285Y-115459238D01*
X98512285Y-115268761D01*
X98464666Y-115173523D01*
X98512285Y-114697333D02*
X97845619Y-114697333D01*
X98417047Y-114697333D02*
X98464666Y-114649714D01*
X98512285Y-114554476D01*
X98512285Y-114411619D01*
X98464666Y-114316380D01*
X98369428Y-114268761D01*
X97845619Y-114268761D01*
X97845619Y-113364000D02*
X98369428Y-113364000D01*
X98464666Y-113411619D01*
X98512285Y-113506857D01*
X98512285Y-113697333D01*
X98464666Y-113792571D01*
X97893238Y-113364000D02*
X97845619Y-113459238D01*
X97845619Y-113697333D01*
X97893238Y-113792571D01*
X97988476Y-113840190D01*
X98083714Y-113840190D01*
X98178952Y-113792571D01*
X98226571Y-113697333D01*
X98226571Y-113459238D01*
X98274190Y-113364000D01*
X97845619Y-112744952D02*
X97893238Y-112840190D01*
X97988476Y-112887809D01*
X98845619Y-112887809D01*
X187396380Y-111546285D02*
X186396380Y-111546285D01*
X186396380Y-111927238D01*
X186444000Y-112022476D01*
X186491619Y-112070095D01*
X186586857Y-112117714D01*
X186729714Y-112117714D01*
X186824952Y-112070095D01*
X186872571Y-112022476D01*
X186920190Y-111927238D01*
X186920190Y-111546285D01*
X187396380Y-112546285D02*
X186396380Y-112546285D01*
X187396380Y-112974857D02*
X186872571Y-112974857D01*
X186777333Y-112927238D01*
X186729714Y-112832000D01*
X186729714Y-112689142D01*
X186777333Y-112593904D01*
X186824952Y-112546285D01*
X187396380Y-113593904D02*
X187348761Y-113498666D01*
X187301142Y-113451047D01*
X187205904Y-113403428D01*
X186920190Y-113403428D01*
X186824952Y-113451047D01*
X186777333Y-113498666D01*
X186729714Y-113593904D01*
X186729714Y-113736761D01*
X186777333Y-113832000D01*
X186824952Y-113879619D01*
X186920190Y-113927238D01*
X187205904Y-113927238D01*
X187301142Y-113879619D01*
X187348761Y-113832000D01*
X187396380Y-113736761D01*
X187396380Y-113593904D01*
X186729714Y-114212952D02*
X186729714Y-114593904D01*
X186396380Y-114355809D02*
X187253523Y-114355809D01*
X187348761Y-114403428D01*
X187396380Y-114498666D01*
X187396380Y-114593904D01*
X187396380Y-115070095D02*
X187348761Y-114974857D01*
X187301142Y-114927238D01*
X187205904Y-114879619D01*
X186920190Y-114879619D01*
X186824952Y-114927238D01*
X186777333Y-114974857D01*
X186729714Y-115070095D01*
X186729714Y-115212952D01*
X186777333Y-115308190D01*
X186824952Y-115355809D01*
X186920190Y-115403428D01*
X187205904Y-115403428D01*
X187301142Y-115355809D01*
X187348761Y-115308190D01*
X187396380Y-115212952D01*
X187396380Y-115070095D01*
X187396380Y-116260571D02*
X186396380Y-116260571D01*
X187348761Y-116260571D02*
X187396380Y-116165333D01*
X187396380Y-115974857D01*
X187348761Y-115879619D01*
X187301142Y-115832000D01*
X187205904Y-115784380D01*
X186920190Y-115784380D01*
X186824952Y-115832000D01*
X186777333Y-115879619D01*
X186729714Y-115974857D01*
X186729714Y-116165333D01*
X186777333Y-116260571D01*
X187396380Y-116736761D02*
X186729714Y-116736761D01*
X186396380Y-116736761D02*
X186444000Y-116689142D01*
X186491619Y-116736761D01*
X186444000Y-116784380D01*
X186396380Y-116736761D01*
X186491619Y-116736761D01*
X187396380Y-117355809D02*
X187348761Y-117260571D01*
X187301142Y-117212952D01*
X187205904Y-117165333D01*
X186920190Y-117165333D01*
X186824952Y-117212952D01*
X186777333Y-117260571D01*
X186729714Y-117355809D01*
X186729714Y-117498666D01*
X186777333Y-117593904D01*
X186824952Y-117641523D01*
X186920190Y-117689142D01*
X187205904Y-117689142D01*
X187301142Y-117641523D01*
X187348761Y-117593904D01*
X187396380Y-117498666D01*
X187396380Y-117355809D01*
X187396380Y-118546285D02*
X186396380Y-118546285D01*
X187348761Y-118546285D02*
X187396380Y-118451047D01*
X187396380Y-118260571D01*
X187348761Y-118165333D01*
X187301142Y-118117714D01*
X187205904Y-118070095D01*
X186920190Y-118070095D01*
X186824952Y-118117714D01*
X186777333Y-118165333D01*
X186729714Y-118260571D01*
X186729714Y-118451047D01*
X186777333Y-118546285D01*
X187348761Y-119403428D02*
X187396380Y-119308190D01*
X187396380Y-119117714D01*
X187348761Y-119022476D01*
X187253523Y-118974857D01*
X186872571Y-118974857D01*
X186777333Y-119022476D01*
X186729714Y-119117714D01*
X186729714Y-119308190D01*
X186777333Y-119403428D01*
X186872571Y-119451047D01*
X186967809Y-119451047D01*
X187063047Y-118974857D01*
X187396380Y-121165333D02*
X187396380Y-120593904D01*
X187396380Y-120879619D02*
X186396380Y-120879619D01*
X186539238Y-120784380D01*
X186634476Y-120689142D01*
X186682095Y-120593904D01*
M02*
