%TF.GenerationSoftware,KiCad,Pcbnew,(6.0.7)*%
%TF.CreationDate,2022-11-16T19:30:54-06:00*%
%TF.ProjectId,ScienceSensor,53636965-6e63-4655-9365-6e736f722e6b,rev?*%
%TF.SameCoordinates,Original*%
%TF.FileFunction,Legend,Top*%
%TF.FilePolarity,Positive*%
%FSLAX46Y46*%
G04 Gerber Fmt 4.6, Leading zero omitted, Abs format (unit mm)*
G04 Created by KiCad (PCBNEW (6.0.7)) date 2022-11-16 19:30:54*
%MOMM*%
%LPD*%
G01*
G04 APERTURE LIST*
%ADD10C,0.150000*%
%ADD11C,0.254000*%
%ADD12C,0.127000*%
%ADD13C,0.200000*%
%ADD14C,0.120000*%
%ADD15C,0.100000*%
G04 APERTURE END LIST*
D10*
X124341333Y-121610380D02*
X124341333Y-120610380D01*
X124674666Y-121324666D01*
X125008000Y-120610380D01*
X125008000Y-121610380D01*
X125484190Y-121610380D02*
X125484190Y-120943714D01*
X125484190Y-120610380D02*
X125436571Y-120658000D01*
X125484190Y-120705619D01*
X125531809Y-120658000D01*
X125484190Y-120610380D01*
X125484190Y-120705619D01*
X126388952Y-121562761D02*
X126293714Y-121610380D01*
X126103238Y-121610380D01*
X126008000Y-121562761D01*
X125960380Y-121515142D01*
X125912761Y-121419904D01*
X125912761Y-121134190D01*
X125960380Y-121038952D01*
X126008000Y-120991333D01*
X126103238Y-120943714D01*
X126293714Y-120943714D01*
X126388952Y-120991333D01*
X126817523Y-121610380D02*
X126817523Y-120943714D01*
X126817523Y-121134190D02*
X126865142Y-121038952D01*
X126912761Y-120991333D01*
X127008000Y-120943714D01*
X127103238Y-120943714D01*
X127579428Y-121610380D02*
X127484190Y-121562761D01*
X127436571Y-121515142D01*
X127388952Y-121419904D01*
X127388952Y-121134190D01*
X127436571Y-121038952D01*
X127484190Y-120991333D01*
X127579428Y-120943714D01*
X127722285Y-120943714D01*
X127817523Y-120991333D01*
X127865142Y-121038952D01*
X127912761Y-121134190D01*
X127912761Y-121419904D01*
X127865142Y-121515142D01*
X127817523Y-121562761D01*
X127722285Y-121610380D01*
X127579428Y-121610380D01*
X128912761Y-121610380D02*
X128579428Y-121134190D01*
X128341333Y-121610380D02*
X128341333Y-120610380D01*
X128722285Y-120610380D01*
X128817523Y-120658000D01*
X128865142Y-120705619D01*
X128912761Y-120800857D01*
X128912761Y-120943714D01*
X128865142Y-121038952D01*
X128817523Y-121086571D01*
X128722285Y-121134190D01*
X128341333Y-121134190D01*
X129198476Y-120610380D02*
X129531809Y-121610380D01*
X129865142Y-120610380D01*
X130150857Y-121562761D02*
X130293714Y-121610380D01*
X130531809Y-121610380D01*
X130627047Y-121562761D01*
X130674666Y-121515142D01*
X130722285Y-121419904D01*
X130722285Y-121324666D01*
X130674666Y-121229428D01*
X130627047Y-121181809D01*
X130531809Y-121134190D01*
X130341333Y-121086571D01*
X130246095Y-121038952D01*
X130198476Y-120991333D01*
X130150857Y-120896095D01*
X130150857Y-120800857D01*
X130198476Y-120705619D01*
X130246095Y-120658000D01*
X130341333Y-120610380D01*
X130579428Y-120610380D01*
X130722285Y-120658000D01*
X118141904Y-97337619D02*
X118189523Y-97290000D01*
X118284761Y-97242380D01*
X118522857Y-97242380D01*
X118618095Y-97290000D01*
X118665714Y-97337619D01*
X118713333Y-97432857D01*
X118713333Y-97528095D01*
X118665714Y-97670952D01*
X118094285Y-98242380D01*
X118713333Y-98242380D01*
X119284761Y-97670952D02*
X119189523Y-97623333D01*
X119141904Y-97575714D01*
X119094285Y-97480476D01*
X119094285Y-97432857D01*
X119141904Y-97337619D01*
X119189523Y-97290000D01*
X119284761Y-97242380D01*
X119475238Y-97242380D01*
X119570476Y-97290000D01*
X119618095Y-97337619D01*
X119665714Y-97432857D01*
X119665714Y-97480476D01*
X119618095Y-97575714D01*
X119570476Y-97623333D01*
X119475238Y-97670952D01*
X119284761Y-97670952D01*
X119189523Y-97718571D01*
X119141904Y-97766190D01*
X119094285Y-97861428D01*
X119094285Y-98051904D01*
X119141904Y-98147142D01*
X119189523Y-98194761D01*
X119284761Y-98242380D01*
X119475238Y-98242380D01*
X119570476Y-98194761D01*
X119618095Y-98147142D01*
X119665714Y-98051904D01*
X119665714Y-97861428D01*
X119618095Y-97766190D01*
X119570476Y-97718571D01*
X119475238Y-97670952D01*
X120284761Y-97242380D02*
X120380000Y-97242380D01*
X120475238Y-97290000D01*
X120522857Y-97337619D01*
X120570476Y-97432857D01*
X120618095Y-97623333D01*
X120618095Y-97861428D01*
X120570476Y-98051904D01*
X120522857Y-98147142D01*
X120475238Y-98194761D01*
X120380000Y-98242380D01*
X120284761Y-98242380D01*
X120189523Y-98194761D01*
X120141904Y-98147142D01*
X120094285Y-98051904D01*
X120046666Y-97861428D01*
X120046666Y-97623333D01*
X120094285Y-97432857D01*
X120141904Y-97337619D01*
X120189523Y-97290000D01*
X120284761Y-97242380D01*
X167704761Y-112274285D02*
X167752380Y-112131428D01*
X167752380Y-111893333D01*
X167704761Y-111798095D01*
X167657142Y-111750476D01*
X167561904Y-111702857D01*
X167466666Y-111702857D01*
X167371428Y-111750476D01*
X167323809Y-111798095D01*
X167276190Y-111893333D01*
X167228571Y-112083809D01*
X167180952Y-112179047D01*
X167133333Y-112226666D01*
X167038095Y-112274285D01*
X166942857Y-112274285D01*
X166847619Y-112226666D01*
X166800000Y-112179047D01*
X166752380Y-112083809D01*
X166752380Y-111845714D01*
X166800000Y-111702857D01*
X167704761Y-110845714D02*
X167752380Y-110940952D01*
X167752380Y-111131428D01*
X167704761Y-111226666D01*
X167657142Y-111274285D01*
X167561904Y-111321904D01*
X167276190Y-111321904D01*
X167180952Y-111274285D01*
X167133333Y-111226666D01*
X167085714Y-111131428D01*
X167085714Y-110940952D01*
X167133333Y-110845714D01*
X167752380Y-110417142D02*
X167085714Y-110417142D01*
X166752380Y-110417142D02*
X166800000Y-110464761D01*
X166847619Y-110417142D01*
X166800000Y-110369523D01*
X166752380Y-110417142D01*
X166847619Y-110417142D01*
X167704761Y-109560000D02*
X167752380Y-109655238D01*
X167752380Y-109845714D01*
X167704761Y-109940952D01*
X167609523Y-109988571D01*
X167228571Y-109988571D01*
X167133333Y-109940952D01*
X167085714Y-109845714D01*
X167085714Y-109655238D01*
X167133333Y-109560000D01*
X167228571Y-109512380D01*
X167323809Y-109512380D01*
X167419047Y-109988571D01*
X167085714Y-109083809D02*
X167752380Y-109083809D01*
X167180952Y-109083809D02*
X167133333Y-109036190D01*
X167085714Y-108940952D01*
X167085714Y-108798095D01*
X167133333Y-108702857D01*
X167228571Y-108655238D01*
X167752380Y-108655238D01*
X167704761Y-107750476D02*
X167752380Y-107845714D01*
X167752380Y-108036190D01*
X167704761Y-108131428D01*
X167657142Y-108179047D01*
X167561904Y-108226666D01*
X167276190Y-108226666D01*
X167180952Y-108179047D01*
X167133333Y-108131428D01*
X167085714Y-108036190D01*
X167085714Y-107845714D01*
X167133333Y-107750476D01*
X167704761Y-106940952D02*
X167752380Y-107036190D01*
X167752380Y-107226666D01*
X167704761Y-107321904D01*
X167609523Y-107369523D01*
X167228571Y-107369523D01*
X167133333Y-107321904D01*
X167085714Y-107226666D01*
X167085714Y-107036190D01*
X167133333Y-106940952D01*
X167228571Y-106893333D01*
X167323809Y-106893333D01*
X167419047Y-107369523D01*
X167704761Y-105750476D02*
X167752380Y-105607619D01*
X167752380Y-105369523D01*
X167704761Y-105274285D01*
X167657142Y-105226666D01*
X167561904Y-105179047D01*
X167466666Y-105179047D01*
X167371428Y-105226666D01*
X167323809Y-105274285D01*
X167276190Y-105369523D01*
X167228571Y-105560000D01*
X167180952Y-105655238D01*
X167133333Y-105702857D01*
X167038095Y-105750476D01*
X166942857Y-105750476D01*
X166847619Y-105702857D01*
X166800000Y-105655238D01*
X166752380Y-105560000D01*
X166752380Y-105321904D01*
X166800000Y-105179047D01*
X167704761Y-104369523D02*
X167752380Y-104464761D01*
X167752380Y-104655238D01*
X167704761Y-104750476D01*
X167609523Y-104798095D01*
X167228571Y-104798095D01*
X167133333Y-104750476D01*
X167085714Y-104655238D01*
X167085714Y-104464761D01*
X167133333Y-104369523D01*
X167228571Y-104321904D01*
X167323809Y-104321904D01*
X167419047Y-104798095D01*
X167085714Y-103893333D02*
X167752380Y-103893333D01*
X167180952Y-103893333D02*
X167133333Y-103845714D01*
X167085714Y-103750476D01*
X167085714Y-103607619D01*
X167133333Y-103512380D01*
X167228571Y-103464761D01*
X167752380Y-103464761D01*
X167704761Y-103036190D02*
X167752380Y-102940952D01*
X167752380Y-102750476D01*
X167704761Y-102655238D01*
X167609523Y-102607619D01*
X167561904Y-102607619D01*
X167466666Y-102655238D01*
X167419047Y-102750476D01*
X167419047Y-102893333D01*
X167371428Y-102988571D01*
X167276190Y-103036190D01*
X167228571Y-103036190D01*
X167133333Y-102988571D01*
X167085714Y-102893333D01*
X167085714Y-102750476D01*
X167133333Y-102655238D01*
X167752380Y-102036190D02*
X167704761Y-102131428D01*
X167657142Y-102179047D01*
X167561904Y-102226666D01*
X167276190Y-102226666D01*
X167180952Y-102179047D01*
X167133333Y-102131428D01*
X167085714Y-102036190D01*
X167085714Y-101893333D01*
X167133333Y-101798095D01*
X167180952Y-101750476D01*
X167276190Y-101702857D01*
X167561904Y-101702857D01*
X167657142Y-101750476D01*
X167704761Y-101798095D01*
X167752380Y-101893333D01*
X167752380Y-102036190D01*
X167752380Y-101274285D02*
X167085714Y-101274285D01*
X167276190Y-101274285D02*
X167180952Y-101226666D01*
X167133333Y-101179047D01*
X167085714Y-101083809D01*
X167085714Y-100988571D01*
X167228571Y-99560000D02*
X167276190Y-99417142D01*
X167323809Y-99369523D01*
X167419047Y-99321904D01*
X167561904Y-99321904D01*
X167657142Y-99369523D01*
X167704761Y-99417142D01*
X167752380Y-99512380D01*
X167752380Y-99893333D01*
X166752380Y-99893333D01*
X166752380Y-99560000D01*
X166800000Y-99464761D01*
X166847619Y-99417142D01*
X166942857Y-99369523D01*
X167038095Y-99369523D01*
X167133333Y-99417142D01*
X167180952Y-99464761D01*
X167228571Y-99560000D01*
X167228571Y-99893333D01*
X167752380Y-98750476D02*
X167704761Y-98845714D01*
X167657142Y-98893333D01*
X167561904Y-98940952D01*
X167276190Y-98940952D01*
X167180952Y-98893333D01*
X167133333Y-98845714D01*
X167085714Y-98750476D01*
X167085714Y-98607619D01*
X167133333Y-98512380D01*
X167180952Y-98464761D01*
X167276190Y-98417142D01*
X167561904Y-98417142D01*
X167657142Y-98464761D01*
X167704761Y-98512380D01*
X167752380Y-98607619D01*
X167752380Y-98750476D01*
X167752380Y-97560000D02*
X167228571Y-97560000D01*
X167133333Y-97607619D01*
X167085714Y-97702857D01*
X167085714Y-97893333D01*
X167133333Y-97988571D01*
X167704761Y-97560000D02*
X167752380Y-97655238D01*
X167752380Y-97893333D01*
X167704761Y-97988571D01*
X167609523Y-98036190D01*
X167514285Y-98036190D01*
X167419047Y-97988571D01*
X167371428Y-97893333D01*
X167371428Y-97655238D01*
X167323809Y-97560000D01*
X167752380Y-97083809D02*
X167085714Y-97083809D01*
X167276190Y-97083809D02*
X167180952Y-97036190D01*
X167133333Y-96988571D01*
X167085714Y-96893333D01*
X167085714Y-96798095D01*
X167752380Y-96036190D02*
X166752380Y-96036190D01*
X167704761Y-96036190D02*
X167752380Y-96131428D01*
X167752380Y-96321904D01*
X167704761Y-96417142D01*
X167657142Y-96464761D01*
X167561904Y-96512380D01*
X167276190Y-96512380D01*
X167180952Y-96464761D01*
X167133333Y-96417142D01*
X167085714Y-96321904D01*
X167085714Y-96131428D01*
X167133333Y-96036190D01*
X167704761Y-95512380D02*
X167752380Y-95512380D01*
X167847619Y-95560000D01*
X167895238Y-95607619D01*
X166847619Y-94369523D02*
X166800000Y-94321904D01*
X166752380Y-94226666D01*
X166752380Y-93988571D01*
X166800000Y-93893333D01*
X166847619Y-93845714D01*
X166942857Y-93798095D01*
X167038095Y-93798095D01*
X167180952Y-93845714D01*
X167752380Y-94417142D01*
X167752380Y-93798095D01*
X166752380Y-93179047D02*
X166752380Y-93083809D01*
X166800000Y-92988571D01*
X166847619Y-92940952D01*
X166942857Y-92893333D01*
X167133333Y-92845714D01*
X167371428Y-92845714D01*
X167561904Y-92893333D01*
X167657142Y-92940952D01*
X167704761Y-92988571D01*
X167752380Y-93083809D01*
X167752380Y-93179047D01*
X167704761Y-93274285D01*
X167657142Y-93321904D01*
X167561904Y-93369523D01*
X167371428Y-93417142D01*
X167133333Y-93417142D01*
X166942857Y-93369523D01*
X166847619Y-93321904D01*
X166800000Y-93274285D01*
X166752380Y-93179047D01*
X166847619Y-92464761D02*
X166800000Y-92417142D01*
X166752380Y-92321904D01*
X166752380Y-92083809D01*
X166800000Y-91988571D01*
X166847619Y-91940952D01*
X166942857Y-91893333D01*
X167038095Y-91893333D01*
X167180952Y-91940952D01*
X167752380Y-92512380D01*
X167752380Y-91893333D01*
X166752380Y-91560000D02*
X166752380Y-90940952D01*
X167133333Y-91274285D01*
X167133333Y-91131428D01*
X167180952Y-91036190D01*
X167228571Y-90988571D01*
X167323809Y-90940952D01*
X167561904Y-90940952D01*
X167657142Y-90988571D01*
X167704761Y-91036190D01*
X167752380Y-91131428D01*
X167752380Y-91417142D01*
X167704761Y-91512380D01*
X167657142Y-91560000D01*
X167752380Y-89179047D02*
X167276190Y-89512380D01*
X167752380Y-89750476D02*
X166752380Y-89750476D01*
X166752380Y-89369523D01*
X166800000Y-89274285D01*
X166847619Y-89226666D01*
X166942857Y-89179047D01*
X167085714Y-89179047D01*
X167180952Y-89226666D01*
X167228571Y-89274285D01*
X167276190Y-89369523D01*
X167276190Y-89750476D01*
X167704761Y-88369523D02*
X167752380Y-88464761D01*
X167752380Y-88655238D01*
X167704761Y-88750476D01*
X167609523Y-88798095D01*
X167228571Y-88798095D01*
X167133333Y-88750476D01*
X167085714Y-88655238D01*
X167085714Y-88464761D01*
X167133333Y-88369523D01*
X167228571Y-88321904D01*
X167323809Y-88321904D01*
X167419047Y-88798095D01*
X167085714Y-87988571D02*
X167752380Y-87750476D01*
X167085714Y-87512380D01*
X167752380Y-85845714D02*
X167752380Y-86417142D01*
X167752380Y-86131428D02*
X166752380Y-86131428D01*
X166895238Y-86226666D01*
X166990476Y-86321904D01*
X167038095Y-86417142D01*
X169362380Y-108179047D02*
X168362380Y-108179047D01*
X169076666Y-107845714D01*
X168362380Y-107512380D01*
X169362380Y-107512380D01*
X169362380Y-106607619D02*
X168838571Y-106607619D01*
X168743333Y-106655238D01*
X168695714Y-106750476D01*
X168695714Y-106940952D01*
X168743333Y-107036190D01*
X169314761Y-106607619D02*
X169362380Y-106702857D01*
X169362380Y-106940952D01*
X169314761Y-107036190D01*
X169219523Y-107083809D01*
X169124285Y-107083809D01*
X169029047Y-107036190D01*
X168981428Y-106940952D01*
X168981428Y-106702857D01*
X168933809Y-106607619D01*
X169362380Y-106131428D02*
X168695714Y-106131428D01*
X168886190Y-106131428D02*
X168790952Y-106083809D01*
X168743333Y-106036190D01*
X168695714Y-105940952D01*
X168695714Y-105845714D01*
X169314761Y-105560000D02*
X169362380Y-105464761D01*
X169362380Y-105274285D01*
X169314761Y-105179047D01*
X169219523Y-105131428D01*
X169171904Y-105131428D01*
X169076666Y-105179047D01*
X169029047Y-105274285D01*
X169029047Y-105417142D01*
X168981428Y-105512380D01*
X168886190Y-105560000D01*
X168838571Y-105560000D01*
X168743333Y-105512380D01*
X168695714Y-105417142D01*
X168695714Y-105274285D01*
X168743333Y-105179047D01*
X169362380Y-103369523D02*
X168886190Y-103702857D01*
X169362380Y-103940952D02*
X168362380Y-103940952D01*
X168362380Y-103560000D01*
X168410000Y-103464761D01*
X168457619Y-103417142D01*
X168552857Y-103369523D01*
X168695714Y-103369523D01*
X168790952Y-103417142D01*
X168838571Y-103464761D01*
X168886190Y-103560000D01*
X168886190Y-103940952D01*
X169362380Y-102798095D02*
X169314761Y-102893333D01*
X169267142Y-102940952D01*
X169171904Y-102988571D01*
X168886190Y-102988571D01*
X168790952Y-102940952D01*
X168743333Y-102893333D01*
X168695714Y-102798095D01*
X168695714Y-102655238D01*
X168743333Y-102560000D01*
X168790952Y-102512380D01*
X168886190Y-102464761D01*
X169171904Y-102464761D01*
X169267142Y-102512380D01*
X169314761Y-102560000D01*
X169362380Y-102655238D01*
X169362380Y-102798095D01*
X168695714Y-102131428D02*
X169362380Y-101893333D01*
X168695714Y-101655238D01*
X169314761Y-100893333D02*
X169362380Y-100988571D01*
X169362380Y-101179047D01*
X169314761Y-101274285D01*
X169219523Y-101321904D01*
X168838571Y-101321904D01*
X168743333Y-101274285D01*
X168695714Y-101179047D01*
X168695714Y-100988571D01*
X168743333Y-100893333D01*
X168838571Y-100845714D01*
X168933809Y-100845714D01*
X169029047Y-101321904D01*
X169362380Y-100417142D02*
X168695714Y-100417142D01*
X168886190Y-100417142D02*
X168790952Y-100369523D01*
X168743333Y-100321904D01*
X168695714Y-100226666D01*
X168695714Y-100131428D01*
X169362380Y-99036190D02*
X168362380Y-99036190D01*
X168362380Y-98798095D01*
X168410000Y-98655238D01*
X168505238Y-98560000D01*
X168600476Y-98512380D01*
X168790952Y-98464761D01*
X168933809Y-98464761D01*
X169124285Y-98512380D01*
X169219523Y-98560000D01*
X169314761Y-98655238D01*
X169362380Y-98798095D01*
X169362380Y-99036190D01*
X169314761Y-97655238D02*
X169362380Y-97750476D01*
X169362380Y-97940952D01*
X169314761Y-98036190D01*
X169219523Y-98083809D01*
X168838571Y-98083809D01*
X168743333Y-98036190D01*
X168695714Y-97940952D01*
X168695714Y-97750476D01*
X168743333Y-97655238D01*
X168838571Y-97607619D01*
X168933809Y-97607619D01*
X169029047Y-98083809D01*
X169314761Y-97226666D02*
X169362380Y-97131428D01*
X169362380Y-96940952D01*
X169314761Y-96845714D01*
X169219523Y-96798095D01*
X169171904Y-96798095D01*
X169076666Y-96845714D01*
X169029047Y-96940952D01*
X169029047Y-97083809D01*
X168981428Y-97179047D01*
X168886190Y-97226666D01*
X168838571Y-97226666D01*
X168743333Y-97179047D01*
X168695714Y-97083809D01*
X168695714Y-96940952D01*
X168743333Y-96845714D01*
X169362380Y-96369523D02*
X168695714Y-96369523D01*
X168362380Y-96369523D02*
X168410000Y-96417142D01*
X168457619Y-96369523D01*
X168410000Y-96321904D01*
X168362380Y-96369523D01*
X168457619Y-96369523D01*
X168695714Y-95464761D02*
X169505238Y-95464761D01*
X169600476Y-95512380D01*
X169648095Y-95560000D01*
X169695714Y-95655238D01*
X169695714Y-95798095D01*
X169648095Y-95893333D01*
X169314761Y-95464761D02*
X169362380Y-95560000D01*
X169362380Y-95750476D01*
X169314761Y-95845714D01*
X169267142Y-95893333D01*
X169171904Y-95940952D01*
X168886190Y-95940952D01*
X168790952Y-95893333D01*
X168743333Y-95845714D01*
X168695714Y-95750476D01*
X168695714Y-95560000D01*
X168743333Y-95464761D01*
X168695714Y-94988571D02*
X169362380Y-94988571D01*
X168790952Y-94988571D02*
X168743333Y-94940952D01*
X168695714Y-94845714D01*
X168695714Y-94702857D01*
X168743333Y-94607619D01*
X168838571Y-94560000D01*
X169362380Y-94560000D01*
X168362380Y-93464761D02*
X168362380Y-92893333D01*
X169362380Y-93179047D02*
X168362380Y-93179047D01*
X169314761Y-92179047D02*
X169362380Y-92274285D01*
X169362380Y-92464761D01*
X169314761Y-92560000D01*
X169219523Y-92607619D01*
X168838571Y-92607619D01*
X168743333Y-92560000D01*
X168695714Y-92464761D01*
X168695714Y-92274285D01*
X168743333Y-92179047D01*
X168838571Y-92131428D01*
X168933809Y-92131428D01*
X169029047Y-92607619D01*
X169362380Y-91274285D02*
X168838571Y-91274285D01*
X168743333Y-91321904D01*
X168695714Y-91417142D01*
X168695714Y-91607619D01*
X168743333Y-91702857D01*
X169314761Y-91274285D02*
X169362380Y-91369523D01*
X169362380Y-91607619D01*
X169314761Y-91702857D01*
X169219523Y-91750476D01*
X169124285Y-91750476D01*
X169029047Y-91702857D01*
X168981428Y-91607619D01*
X168981428Y-91369523D01*
X168933809Y-91274285D01*
X169362380Y-90798095D02*
X168695714Y-90798095D01*
X168790952Y-90798095D02*
X168743333Y-90750476D01*
X168695714Y-90655238D01*
X168695714Y-90512380D01*
X168743333Y-90417142D01*
X168838571Y-90369523D01*
X169362380Y-90369523D01*
X168838571Y-90369523D02*
X168743333Y-90321904D01*
X168695714Y-90226666D01*
X168695714Y-90083809D01*
X168743333Y-89988571D01*
X168838571Y-89940952D01*
X169362380Y-89940952D01*
X170686666Y-107083809D02*
X170686666Y-106607619D01*
X170972380Y-107179047D02*
X169972380Y-106845714D01*
X170972380Y-106512380D01*
X170877142Y-106179047D02*
X170924761Y-106131428D01*
X170972380Y-106179047D01*
X170924761Y-106226666D01*
X170877142Y-106179047D01*
X170972380Y-106179047D01*
X169972380Y-105417142D02*
X170686666Y-105417142D01*
X170829523Y-105464761D01*
X170924761Y-105560000D01*
X170972380Y-105702857D01*
X170972380Y-105798095D01*
X170972380Y-103702857D02*
X170972380Y-104179047D01*
X169972380Y-104179047D01*
X170924761Y-102988571D02*
X170972380Y-103083809D01*
X170972380Y-103274285D01*
X170924761Y-103369523D01*
X170829523Y-103417142D01*
X170448571Y-103417142D01*
X170353333Y-103369523D01*
X170305714Y-103274285D01*
X170305714Y-103083809D01*
X170353333Y-102988571D01*
X170448571Y-102940952D01*
X170543809Y-102940952D01*
X170639047Y-103417142D01*
X170924761Y-102131428D02*
X170972380Y-102226666D01*
X170972380Y-102417142D01*
X170924761Y-102512380D01*
X170829523Y-102560000D01*
X170448571Y-102560000D01*
X170353333Y-102512380D01*
X170305714Y-102417142D01*
X170305714Y-102226666D01*
X170353333Y-102131428D01*
X170448571Y-102083809D01*
X170543809Y-102083809D01*
X170639047Y-102560000D01*
X170924761Y-101607619D02*
X170972380Y-101607619D01*
X171067619Y-101655238D01*
X171115238Y-101702857D01*
X170924761Y-100464761D02*
X170972380Y-100321904D01*
X170972380Y-100083809D01*
X170924761Y-99988571D01*
X170877142Y-99940952D01*
X170781904Y-99893333D01*
X170686666Y-99893333D01*
X170591428Y-99940952D01*
X170543809Y-99988571D01*
X170496190Y-100083809D01*
X170448571Y-100274285D01*
X170400952Y-100369523D01*
X170353333Y-100417142D01*
X170258095Y-100464761D01*
X170162857Y-100464761D01*
X170067619Y-100417142D01*
X170020000Y-100369523D01*
X169972380Y-100274285D01*
X169972380Y-100036190D01*
X170020000Y-99893333D01*
X170924761Y-99083809D02*
X170972380Y-99179047D01*
X170972380Y-99369523D01*
X170924761Y-99464761D01*
X170829523Y-99512380D01*
X170448571Y-99512380D01*
X170353333Y-99464761D01*
X170305714Y-99369523D01*
X170305714Y-99179047D01*
X170353333Y-99083809D01*
X170448571Y-99036190D01*
X170543809Y-99036190D01*
X170639047Y-99512380D01*
X170972380Y-98179047D02*
X170448571Y-98179047D01*
X170353333Y-98226666D01*
X170305714Y-98321904D01*
X170305714Y-98512380D01*
X170353333Y-98607619D01*
X170924761Y-98179047D02*
X170972380Y-98274285D01*
X170972380Y-98512380D01*
X170924761Y-98607619D01*
X170829523Y-98655238D01*
X170734285Y-98655238D01*
X170639047Y-98607619D01*
X170591428Y-98512380D01*
X170591428Y-98274285D01*
X170543809Y-98179047D01*
X170305714Y-97702857D02*
X170972380Y-97702857D01*
X170400952Y-97702857D02*
X170353333Y-97655238D01*
X170305714Y-97560000D01*
X170305714Y-97417142D01*
X170353333Y-97321904D01*
X170448571Y-97274285D01*
X170972380Y-97274285D01*
X169972380Y-96179047D02*
X169972380Y-95607619D01*
X170972380Y-95893333D02*
X169972380Y-95893333D01*
X170972380Y-95274285D02*
X170305714Y-95274285D01*
X169972380Y-95274285D02*
X170020000Y-95321904D01*
X170067619Y-95274285D01*
X170020000Y-95226666D01*
X169972380Y-95274285D01*
X170067619Y-95274285D01*
X170972380Y-94655238D02*
X170924761Y-94750476D01*
X170829523Y-94798095D01*
X169972380Y-94798095D01*
X170972380Y-94131428D02*
X170924761Y-94226666D01*
X170829523Y-94274285D01*
X169972380Y-94274285D01*
X170972380Y-93750476D02*
X170305714Y-93750476D01*
X170400952Y-93750476D02*
X170353333Y-93702857D01*
X170305714Y-93607619D01*
X170305714Y-93464761D01*
X170353333Y-93369523D01*
X170448571Y-93321904D01*
X170972380Y-93321904D01*
X170448571Y-93321904D02*
X170353333Y-93274285D01*
X170305714Y-93179047D01*
X170305714Y-93036190D01*
X170353333Y-92940952D01*
X170448571Y-92893333D01*
X170972380Y-92893333D01*
X170972380Y-92274285D02*
X170924761Y-92369523D01*
X170877142Y-92417142D01*
X170781904Y-92464761D01*
X170496190Y-92464761D01*
X170400952Y-92417142D01*
X170353333Y-92369523D01*
X170305714Y-92274285D01*
X170305714Y-92131428D01*
X170353333Y-92036190D01*
X170400952Y-91988571D01*
X170496190Y-91940952D01*
X170781904Y-91940952D01*
X170877142Y-91988571D01*
X170924761Y-92036190D01*
X170972380Y-92131428D01*
X170972380Y-92274285D01*
X170305714Y-91512380D02*
X170972380Y-91512380D01*
X170400952Y-91512380D02*
X170353333Y-91464761D01*
X170305714Y-91369523D01*
X170305714Y-91226666D01*
X170353333Y-91131428D01*
X170448571Y-91083809D01*
X170972380Y-91083809D01*
X134215142Y-126007619D02*
X134262761Y-126055238D01*
X134310380Y-126198095D01*
X134310380Y-126293333D01*
X134262761Y-126436190D01*
X134167523Y-126531428D01*
X134072285Y-126579047D01*
X133881809Y-126626666D01*
X133738952Y-126626666D01*
X133548476Y-126579047D01*
X133453238Y-126531428D01*
X133358000Y-126436190D01*
X133310380Y-126293333D01*
X133310380Y-126198095D01*
X133358000Y-126055238D01*
X133405619Y-126007619D01*
X134310380Y-125579047D02*
X133310380Y-125579047D01*
X133786571Y-125579047D02*
X133786571Y-125007619D01*
X134310380Y-125007619D02*
X133310380Y-125007619D01*
X133643714Y-124102857D02*
X134310380Y-124102857D01*
X133262761Y-124340952D02*
X133977047Y-124579047D01*
X133977047Y-123960000D01*
X133310380Y-123721904D02*
X133310380Y-123150476D01*
X134310380Y-123436190D02*
X133310380Y-123436190D01*
X133310380Y-122912380D02*
X134310380Y-122245714D01*
X133310380Y-122245714D02*
X134310380Y-122912380D01*
X119229142Y-127142666D02*
X119276761Y-127190285D01*
X119324380Y-127333142D01*
X119324380Y-127428380D01*
X119276761Y-127571238D01*
X119181523Y-127666476D01*
X119086285Y-127714095D01*
X118895809Y-127761714D01*
X118752952Y-127761714D01*
X118562476Y-127714095D01*
X118467238Y-127666476D01*
X118372000Y-127571238D01*
X118324380Y-127428380D01*
X118324380Y-127333142D01*
X118372000Y-127190285D01*
X118419619Y-127142666D01*
X119324380Y-126714095D02*
X118324380Y-126714095D01*
X118800571Y-126714095D02*
X118800571Y-126142666D01*
X119324380Y-126142666D02*
X118324380Y-126142666D01*
X118657714Y-125237904D02*
X119324380Y-125237904D01*
X118276761Y-125476000D02*
X118991047Y-125714095D01*
X118991047Y-125095047D01*
X119324380Y-124142666D02*
X118848190Y-124476000D01*
X119324380Y-124714095D02*
X118324380Y-124714095D01*
X118324380Y-124333142D01*
X118372000Y-124237904D01*
X118419619Y-124190285D01*
X118514857Y-124142666D01*
X118657714Y-124142666D01*
X118752952Y-124190285D01*
X118800571Y-124237904D01*
X118848190Y-124333142D01*
X118848190Y-124714095D01*
X118324380Y-123809333D02*
X119324380Y-123142666D01*
X118324380Y-123142666D02*
X119324380Y-123809333D01*
X113252380Y-92146380D02*
X112776190Y-92146380D01*
X112776190Y-91146380D01*
X113585714Y-91622571D02*
X113919047Y-91622571D01*
X114061904Y-92146380D02*
X113585714Y-92146380D01*
X113585714Y-91146380D01*
X114061904Y-91146380D01*
X114490476Y-92146380D02*
X114490476Y-91146380D01*
X114728571Y-91146380D01*
X114871428Y-91194000D01*
X114966666Y-91289238D01*
X115014285Y-91384476D01*
X115061904Y-91574952D01*
X115061904Y-91717809D01*
X115014285Y-91908285D01*
X114966666Y-92003523D01*
X114871428Y-92098761D01*
X114728571Y-92146380D01*
X114490476Y-92146380D01*
X115442857Y-92098761D02*
X115538095Y-92146380D01*
X115728571Y-92146380D01*
X115823809Y-92098761D01*
X115871428Y-92003523D01*
X115871428Y-91955904D01*
X115823809Y-91860666D01*
X115728571Y-91813047D01*
X115585714Y-91813047D01*
X115490476Y-91765428D01*
X115442857Y-91670190D01*
X115442857Y-91622571D01*
X115490476Y-91527333D01*
X115585714Y-91479714D01*
X115728571Y-91479714D01*
X115823809Y-91527333D01*
X118816380Y-99345904D02*
X118864000Y-99393523D01*
X118911619Y-99488761D01*
X118911619Y-99726857D01*
X118864000Y-99822095D01*
X118816380Y-99869714D01*
X118721142Y-99917333D01*
X118625904Y-99917333D01*
X118483047Y-99869714D01*
X117911619Y-99298285D01*
X117911619Y-99917333D01*
X118911619Y-100250666D02*
X118911619Y-100917333D01*
X117911619Y-100488761D01*
X118911619Y-101774476D02*
X118911619Y-101298285D01*
X118435428Y-101250666D01*
X118483047Y-101298285D01*
X118530666Y-101393523D01*
X118530666Y-101631619D01*
X118483047Y-101726857D01*
X118435428Y-101774476D01*
X118340190Y-101822095D01*
X118102095Y-101822095D01*
X118006857Y-101774476D01*
X117959238Y-101726857D01*
X117911619Y-101631619D01*
X117911619Y-101393523D01*
X117959238Y-101298285D01*
X118006857Y-101250666D01*
X131127523Y-73366380D02*
X130651333Y-73366380D01*
X130603714Y-73842571D01*
X130651333Y-73794952D01*
X130746571Y-73747333D01*
X130984666Y-73747333D01*
X131079904Y-73794952D01*
X131127523Y-73842571D01*
X131175142Y-73937809D01*
X131175142Y-74175904D01*
X131127523Y-74271142D01*
X131079904Y-74318761D01*
X130984666Y-74366380D01*
X130746571Y-74366380D01*
X130651333Y-74318761D01*
X130603714Y-74271142D01*
X131460857Y-73366380D02*
X131794190Y-74366380D01*
X132127523Y-73366380D01*
X118816380Y-102647904D02*
X118864000Y-102695523D01*
X118911619Y-102790761D01*
X118911619Y-103028857D01*
X118864000Y-103124095D01*
X118816380Y-103171714D01*
X118721142Y-103219333D01*
X118625904Y-103219333D01*
X118483047Y-103171714D01*
X117911619Y-102600285D01*
X117911619Y-103219333D01*
X118911619Y-104076476D02*
X118911619Y-103886000D01*
X118864000Y-103790761D01*
X118816380Y-103743142D01*
X118673523Y-103647904D01*
X118483047Y-103600285D01*
X118102095Y-103600285D01*
X118006857Y-103647904D01*
X117959238Y-103695523D01*
X117911619Y-103790761D01*
X117911619Y-103981238D01*
X117959238Y-104076476D01*
X118006857Y-104124095D01*
X118102095Y-104171714D01*
X118340190Y-104171714D01*
X118435428Y-104124095D01*
X118483047Y-104076476D01*
X118530666Y-103981238D01*
X118530666Y-103790761D01*
X118483047Y-103695523D01*
X118435428Y-103647904D01*
X118340190Y-103600285D01*
X118911619Y-104790761D02*
X118911619Y-104886000D01*
X118864000Y-104981238D01*
X118816380Y-105028857D01*
X118721142Y-105076476D01*
X118530666Y-105124095D01*
X118292571Y-105124095D01*
X118102095Y-105076476D01*
X118006857Y-105028857D01*
X117959238Y-104981238D01*
X117911619Y-104886000D01*
X117911619Y-104790761D01*
X117959238Y-104695523D01*
X118006857Y-104647904D01*
X118102095Y-104600285D01*
X118292571Y-104552666D01*
X118530666Y-104552666D01*
X118721142Y-104600285D01*
X118816380Y-104647904D01*
X118864000Y-104695523D01*
X118911619Y-104790761D01*
X118094285Y-94194380D02*
X118713333Y-94194380D01*
X118380000Y-94575333D01*
X118522857Y-94575333D01*
X118618095Y-94622952D01*
X118665714Y-94670571D01*
X118713333Y-94765809D01*
X118713333Y-95003904D01*
X118665714Y-95099142D01*
X118618095Y-95146761D01*
X118522857Y-95194380D01*
X118237142Y-95194380D01*
X118141904Y-95146761D01*
X118094285Y-95099142D01*
X119665714Y-95194380D02*
X119094285Y-95194380D01*
X119380000Y-95194380D02*
X119380000Y-94194380D01*
X119284761Y-94337238D01*
X119189523Y-94432476D01*
X119094285Y-94480095D01*
X120570476Y-94194380D02*
X120094285Y-94194380D01*
X120046666Y-94670571D01*
X120094285Y-94622952D01*
X120189523Y-94575333D01*
X120427619Y-94575333D01*
X120522857Y-94622952D01*
X120570476Y-94670571D01*
X120618095Y-94765809D01*
X120618095Y-95003904D01*
X120570476Y-95099142D01*
X120522857Y-95146761D01*
X120427619Y-95194380D01*
X120189523Y-95194380D01*
X120094285Y-95146761D01*
X120046666Y-95099142D01*
%TO.C,U3*%
X140287380Y-107314904D02*
X141096904Y-107314904D01*
X141192142Y-107267285D01*
X141239761Y-107219666D01*
X141287380Y-107124428D01*
X141287380Y-106933952D01*
X141239761Y-106838714D01*
X141192142Y-106791095D01*
X141096904Y-106743476D01*
X140287380Y-106743476D01*
X140287380Y-106362523D02*
X140287380Y-105743476D01*
X140668333Y-106076809D01*
X140668333Y-105933952D01*
X140715952Y-105838714D01*
X140763571Y-105791095D01*
X140858809Y-105743476D01*
X141096904Y-105743476D01*
X141192142Y-105791095D01*
X141239761Y-105838714D01*
X141287380Y-105933952D01*
X141287380Y-106219666D01*
X141239761Y-106314904D01*
X141192142Y-106362523D01*
%TO.C,D9*%
X138199904Y-125420380D02*
X138199904Y-124420380D01*
X138438000Y-124420380D01*
X138580857Y-124468000D01*
X138676095Y-124563238D01*
X138723714Y-124658476D01*
X138771333Y-124848952D01*
X138771333Y-124991809D01*
X138723714Y-125182285D01*
X138676095Y-125277523D01*
X138580857Y-125372761D01*
X138438000Y-125420380D01*
X138199904Y-125420380D01*
X139247523Y-125420380D02*
X139438000Y-125420380D01*
X139533238Y-125372761D01*
X139580857Y-125325142D01*
X139676095Y-125182285D01*
X139723714Y-124991809D01*
X139723714Y-124610857D01*
X139676095Y-124515619D01*
X139628476Y-124468000D01*
X139533238Y-124420380D01*
X139342761Y-124420380D01*
X139247523Y-124468000D01*
X139199904Y-124515619D01*
X139152285Y-124610857D01*
X139152285Y-124848952D01*
X139199904Y-124944190D01*
X139247523Y-124991809D01*
X139342761Y-125039428D01*
X139533238Y-125039428D01*
X139628476Y-124991809D01*
X139676095Y-124944190D01*
X139723714Y-124848952D01*
%TO.C,C9*%
X130180142Y-96051666D02*
X130227761Y-96099285D01*
X130275380Y-96242142D01*
X130275380Y-96337380D01*
X130227761Y-96480238D01*
X130132523Y-96575476D01*
X130037285Y-96623095D01*
X129846809Y-96670714D01*
X129703952Y-96670714D01*
X129513476Y-96623095D01*
X129418238Y-96575476D01*
X129323000Y-96480238D01*
X129275380Y-96337380D01*
X129275380Y-96242142D01*
X129323000Y-96099285D01*
X129370619Y-96051666D01*
X130275380Y-95575476D02*
X130275380Y-95385000D01*
X130227761Y-95289761D01*
X130180142Y-95242142D01*
X130037285Y-95146904D01*
X129846809Y-95099285D01*
X129465857Y-95099285D01*
X129370619Y-95146904D01*
X129323000Y-95194523D01*
X129275380Y-95289761D01*
X129275380Y-95480238D01*
X129323000Y-95575476D01*
X129370619Y-95623095D01*
X129465857Y-95670714D01*
X129703952Y-95670714D01*
X129799190Y-95623095D01*
X129846809Y-95575476D01*
X129894428Y-95480238D01*
X129894428Y-95289761D01*
X129846809Y-95194523D01*
X129799190Y-95146904D01*
X129703952Y-95099285D01*
%TO.C,R27*%
X112133142Y-125641380D02*
X111799809Y-125165190D01*
X111561714Y-125641380D02*
X111561714Y-124641380D01*
X111942666Y-124641380D01*
X112037904Y-124689000D01*
X112085523Y-124736619D01*
X112133142Y-124831857D01*
X112133142Y-124974714D01*
X112085523Y-125069952D01*
X112037904Y-125117571D01*
X111942666Y-125165190D01*
X111561714Y-125165190D01*
X112514095Y-124736619D02*
X112561714Y-124689000D01*
X112656952Y-124641380D01*
X112895047Y-124641380D01*
X112990285Y-124689000D01*
X113037904Y-124736619D01*
X113085523Y-124831857D01*
X113085523Y-124927095D01*
X113037904Y-125069952D01*
X112466476Y-125641380D01*
X113085523Y-125641380D01*
X113418857Y-124641380D02*
X114085523Y-124641380D01*
X113656952Y-125641380D01*
%TO.C,R30*%
X132199866Y-98242380D02*
X131866533Y-97766190D01*
X131628438Y-98242380D02*
X131628438Y-97242380D01*
X132009390Y-97242380D01*
X132104628Y-97290000D01*
X132152247Y-97337619D01*
X132199866Y-97432857D01*
X132199866Y-97575714D01*
X132152247Y-97670952D01*
X132104628Y-97718571D01*
X132009390Y-97766190D01*
X131628438Y-97766190D01*
X132533200Y-97242380D02*
X133152247Y-97242380D01*
X132818914Y-97623333D01*
X132961771Y-97623333D01*
X133057009Y-97670952D01*
X133104628Y-97718571D01*
X133152247Y-97813809D01*
X133152247Y-98051904D01*
X133104628Y-98147142D01*
X133057009Y-98194761D01*
X132961771Y-98242380D01*
X132676057Y-98242380D01*
X132580819Y-98194761D01*
X132533200Y-98147142D01*
X133771295Y-97242380D02*
X133866533Y-97242380D01*
X133961771Y-97290000D01*
X134009390Y-97337619D01*
X134057009Y-97432857D01*
X134104628Y-97623333D01*
X134104628Y-97861428D01*
X134057009Y-98051904D01*
X134009390Y-98147142D01*
X133961771Y-98194761D01*
X133866533Y-98242380D01*
X133771295Y-98242380D01*
X133676057Y-98194761D01*
X133628438Y-98147142D01*
X133580819Y-98051904D01*
X133533200Y-97861428D01*
X133533200Y-97623333D01*
X133580819Y-97432857D01*
X133628438Y-97337619D01*
X133676057Y-97290000D01*
X133771295Y-97242380D01*
%TO.C,R19*%
X167932380Y-125737857D02*
X167456190Y-126071190D01*
X167932380Y-126309285D02*
X166932380Y-126309285D01*
X166932380Y-125928333D01*
X166980000Y-125833095D01*
X167027619Y-125785476D01*
X167122857Y-125737857D01*
X167265714Y-125737857D01*
X167360952Y-125785476D01*
X167408571Y-125833095D01*
X167456190Y-125928333D01*
X167456190Y-126309285D01*
X167932380Y-124785476D02*
X167932380Y-125356904D01*
X167932380Y-125071190D02*
X166932380Y-125071190D01*
X167075238Y-125166428D01*
X167170476Y-125261666D01*
X167218095Y-125356904D01*
X167932380Y-124309285D02*
X167932380Y-124118809D01*
X167884761Y-124023571D01*
X167837142Y-123975952D01*
X167694285Y-123880714D01*
X167503809Y-123833095D01*
X167122857Y-123833095D01*
X167027619Y-123880714D01*
X166980000Y-123928333D01*
X166932380Y-124023571D01*
X166932380Y-124214047D01*
X166980000Y-124309285D01*
X167027619Y-124356904D01*
X167122857Y-124404523D01*
X167360952Y-124404523D01*
X167456190Y-124356904D01*
X167503809Y-124309285D01*
X167551428Y-124214047D01*
X167551428Y-124023571D01*
X167503809Y-123928333D01*
X167456190Y-123880714D01*
X167360952Y-123833095D01*
%TO.C,R5*%
X172045333Y-116022380D02*
X171712000Y-115546190D01*
X171473904Y-116022380D02*
X171473904Y-115022380D01*
X171854857Y-115022380D01*
X171950095Y-115070000D01*
X171997714Y-115117619D01*
X172045333Y-115212857D01*
X172045333Y-115355714D01*
X171997714Y-115450952D01*
X171950095Y-115498571D01*
X171854857Y-115546190D01*
X171473904Y-115546190D01*
X172950095Y-115022380D02*
X172473904Y-115022380D01*
X172426285Y-115498571D01*
X172473904Y-115450952D01*
X172569142Y-115403333D01*
X172807238Y-115403333D01*
X172902476Y-115450952D01*
X172950095Y-115498571D01*
X172997714Y-115593809D01*
X172997714Y-115831904D01*
X172950095Y-115927142D01*
X172902476Y-115974761D01*
X172807238Y-116022380D01*
X172569142Y-116022380D01*
X172473904Y-115974761D01*
X172426285Y-115927142D01*
%TO.C,C4*%
X118594142Y-54014666D02*
X118641761Y-54062285D01*
X118689380Y-54205142D01*
X118689380Y-54300380D01*
X118641761Y-54443238D01*
X118546523Y-54538476D01*
X118451285Y-54586095D01*
X118260809Y-54633714D01*
X118117952Y-54633714D01*
X117927476Y-54586095D01*
X117832238Y-54538476D01*
X117737000Y-54443238D01*
X117689380Y-54300380D01*
X117689380Y-54205142D01*
X117737000Y-54062285D01*
X117784619Y-54014666D01*
X118022714Y-53157523D02*
X118689380Y-53157523D01*
X117641761Y-53395619D02*
X118356047Y-53633714D01*
X118356047Y-53014666D01*
%TO.C,Q8*%
X141231619Y-117546738D02*
X141184000Y-117641976D01*
X141088761Y-117737214D01*
X140945904Y-117880071D01*
X140898285Y-117975309D01*
X140898285Y-118070547D01*
X141136380Y-118022928D02*
X141088761Y-118118166D01*
X140993523Y-118213404D01*
X140803047Y-118261023D01*
X140469714Y-118261023D01*
X140279238Y-118213404D01*
X140184000Y-118118166D01*
X140136380Y-118022928D01*
X140136380Y-117832452D01*
X140184000Y-117737214D01*
X140279238Y-117641976D01*
X140469714Y-117594357D01*
X140803047Y-117594357D01*
X140993523Y-117641976D01*
X141088761Y-117737214D01*
X141136380Y-117832452D01*
X141136380Y-118022928D01*
X140564952Y-117022928D02*
X140517333Y-117118166D01*
X140469714Y-117165785D01*
X140374476Y-117213404D01*
X140326857Y-117213404D01*
X140231619Y-117165785D01*
X140184000Y-117118166D01*
X140136380Y-117022928D01*
X140136380Y-116832452D01*
X140184000Y-116737214D01*
X140231619Y-116689595D01*
X140326857Y-116641976D01*
X140374476Y-116641976D01*
X140469714Y-116689595D01*
X140517333Y-116737214D01*
X140564952Y-116832452D01*
X140564952Y-117022928D01*
X140612571Y-117118166D01*
X140660190Y-117165785D01*
X140755428Y-117213404D01*
X140945904Y-117213404D01*
X141041142Y-117165785D01*
X141088761Y-117118166D01*
X141136380Y-117022928D01*
X141136380Y-116832452D01*
X141088761Y-116737214D01*
X141041142Y-116689595D01*
X140945904Y-116641976D01*
X140755428Y-116641976D01*
X140660190Y-116689595D01*
X140612571Y-116737214D01*
X140564952Y-116832452D01*
%TO.C,D12*%
X128690380Y-75509285D02*
X127690380Y-75509285D01*
X127690380Y-75271190D01*
X127738000Y-75128333D01*
X127833238Y-75033095D01*
X127928476Y-74985476D01*
X128118952Y-74937857D01*
X128261809Y-74937857D01*
X128452285Y-74985476D01*
X128547523Y-75033095D01*
X128642761Y-75128333D01*
X128690380Y-75271190D01*
X128690380Y-75509285D01*
X128690380Y-73985476D02*
X128690380Y-74556904D01*
X128690380Y-74271190D02*
X127690380Y-74271190D01*
X127833238Y-74366428D01*
X127928476Y-74461666D01*
X127976095Y-74556904D01*
X127785619Y-73604523D02*
X127738000Y-73556904D01*
X127690380Y-73461666D01*
X127690380Y-73223571D01*
X127738000Y-73128333D01*
X127785619Y-73080714D01*
X127880857Y-73033095D01*
X127976095Y-73033095D01*
X128118952Y-73080714D01*
X128690380Y-73652142D01*
X128690380Y-73033095D01*
%TO.C,R17*%
X145326380Y-122666357D02*
X144850190Y-122999690D01*
X145326380Y-123237785D02*
X144326380Y-123237785D01*
X144326380Y-122856833D01*
X144374000Y-122761595D01*
X144421619Y-122713976D01*
X144516857Y-122666357D01*
X144659714Y-122666357D01*
X144754952Y-122713976D01*
X144802571Y-122761595D01*
X144850190Y-122856833D01*
X144850190Y-123237785D01*
X145326380Y-121713976D02*
X145326380Y-122285404D01*
X145326380Y-121999690D02*
X144326380Y-121999690D01*
X144469238Y-122094928D01*
X144564476Y-122190166D01*
X144612095Y-122285404D01*
X144326380Y-121380642D02*
X144326380Y-120713976D01*
X145326380Y-121142547D01*
%TO.C,R23*%
X154551142Y-125768380D02*
X154217809Y-125292190D01*
X153979714Y-125768380D02*
X153979714Y-124768380D01*
X154360666Y-124768380D01*
X154455904Y-124816000D01*
X154503523Y-124863619D01*
X154551142Y-124958857D01*
X154551142Y-125101714D01*
X154503523Y-125196952D01*
X154455904Y-125244571D01*
X154360666Y-125292190D01*
X153979714Y-125292190D01*
X154932095Y-124863619D02*
X154979714Y-124816000D01*
X155074952Y-124768380D01*
X155313047Y-124768380D01*
X155408285Y-124816000D01*
X155455904Y-124863619D01*
X155503523Y-124958857D01*
X155503523Y-125054095D01*
X155455904Y-125196952D01*
X154884476Y-125768380D01*
X155503523Y-125768380D01*
X155836857Y-124768380D02*
X156455904Y-124768380D01*
X156122571Y-125149333D01*
X156265428Y-125149333D01*
X156360666Y-125196952D01*
X156408285Y-125244571D01*
X156455904Y-125339809D01*
X156455904Y-125577904D01*
X156408285Y-125673142D01*
X156360666Y-125720761D01*
X156265428Y-125768380D01*
X155979714Y-125768380D01*
X155884476Y-125720761D01*
X155836857Y-125673142D01*
%TO.C,R9*%
X141516380Y-122213666D02*
X141040190Y-122547000D01*
X141516380Y-122785095D02*
X140516380Y-122785095D01*
X140516380Y-122404142D01*
X140564000Y-122308904D01*
X140611619Y-122261285D01*
X140706857Y-122213666D01*
X140849714Y-122213666D01*
X140944952Y-122261285D01*
X140992571Y-122308904D01*
X141040190Y-122404142D01*
X141040190Y-122785095D01*
X141516380Y-121737476D02*
X141516380Y-121547000D01*
X141468761Y-121451761D01*
X141421142Y-121404142D01*
X141278285Y-121308904D01*
X141087809Y-121261285D01*
X140706857Y-121261285D01*
X140611619Y-121308904D01*
X140564000Y-121356523D01*
X140516380Y-121451761D01*
X140516380Y-121642238D01*
X140564000Y-121737476D01*
X140611619Y-121785095D01*
X140706857Y-121832714D01*
X140944952Y-121832714D01*
X141040190Y-121785095D01*
X141087809Y-121737476D01*
X141135428Y-121642238D01*
X141135428Y-121451761D01*
X141087809Y-121356523D01*
X141040190Y-121308904D01*
X140944952Y-121261285D01*
%TO.C,Q6*%
X175521619Y-120745238D02*
X175474000Y-120840476D01*
X175378761Y-120935714D01*
X175235904Y-121078571D01*
X175188285Y-121173809D01*
X175188285Y-121269047D01*
X175426380Y-121221428D02*
X175378761Y-121316666D01*
X175283523Y-121411904D01*
X175093047Y-121459523D01*
X174759714Y-121459523D01*
X174569238Y-121411904D01*
X174474000Y-121316666D01*
X174426380Y-121221428D01*
X174426380Y-121030952D01*
X174474000Y-120935714D01*
X174569238Y-120840476D01*
X174759714Y-120792857D01*
X175093047Y-120792857D01*
X175283523Y-120840476D01*
X175378761Y-120935714D01*
X175426380Y-121030952D01*
X175426380Y-121221428D01*
X174426380Y-119935714D02*
X174426380Y-120126190D01*
X174474000Y-120221428D01*
X174521619Y-120269047D01*
X174664476Y-120364285D01*
X174854952Y-120411904D01*
X175235904Y-120411904D01*
X175331142Y-120364285D01*
X175378761Y-120316666D01*
X175426380Y-120221428D01*
X175426380Y-120030952D01*
X175378761Y-119935714D01*
X175331142Y-119888095D01*
X175235904Y-119840476D01*
X174997809Y-119840476D01*
X174902571Y-119888095D01*
X174854952Y-119935714D01*
X174807333Y-120030952D01*
X174807333Y-120221428D01*
X174854952Y-120316666D01*
X174902571Y-120364285D01*
X174997809Y-120411904D01*
%TO.C,R26*%
X123563142Y-125674380D02*
X123229809Y-125198190D01*
X122991714Y-125674380D02*
X122991714Y-124674380D01*
X123372666Y-124674380D01*
X123467904Y-124722000D01*
X123515523Y-124769619D01*
X123563142Y-124864857D01*
X123563142Y-125007714D01*
X123515523Y-125102952D01*
X123467904Y-125150571D01*
X123372666Y-125198190D01*
X122991714Y-125198190D01*
X123944095Y-124769619D02*
X123991714Y-124722000D01*
X124086952Y-124674380D01*
X124325047Y-124674380D01*
X124420285Y-124722000D01*
X124467904Y-124769619D01*
X124515523Y-124864857D01*
X124515523Y-124960095D01*
X124467904Y-125102952D01*
X123896476Y-125674380D01*
X124515523Y-125674380D01*
X125372666Y-124674380D02*
X125182190Y-124674380D01*
X125086952Y-124722000D01*
X125039333Y-124769619D01*
X124944095Y-124912476D01*
X124896476Y-125102952D01*
X124896476Y-125483904D01*
X124944095Y-125579142D01*
X124991714Y-125626761D01*
X125086952Y-125674380D01*
X125277428Y-125674380D01*
X125372666Y-125626761D01*
X125420285Y-125579142D01*
X125467904Y-125483904D01*
X125467904Y-125245809D01*
X125420285Y-125150571D01*
X125372666Y-125102952D01*
X125277428Y-125055333D01*
X125086952Y-125055333D01*
X124991714Y-125102952D01*
X124944095Y-125150571D01*
X124896476Y-125245809D01*
%TO.C,R8*%
X112101333Y-102560380D02*
X111768000Y-102084190D01*
X111529904Y-102560380D02*
X111529904Y-101560380D01*
X111910857Y-101560380D01*
X112006095Y-101608000D01*
X112053714Y-101655619D01*
X112101333Y-101750857D01*
X112101333Y-101893714D01*
X112053714Y-101988952D01*
X112006095Y-102036571D01*
X111910857Y-102084190D01*
X111529904Y-102084190D01*
X112672761Y-101988952D02*
X112577523Y-101941333D01*
X112529904Y-101893714D01*
X112482285Y-101798476D01*
X112482285Y-101750857D01*
X112529904Y-101655619D01*
X112577523Y-101608000D01*
X112672761Y-101560380D01*
X112863238Y-101560380D01*
X112958476Y-101608000D01*
X113006095Y-101655619D01*
X113053714Y-101750857D01*
X113053714Y-101798476D01*
X113006095Y-101893714D01*
X112958476Y-101941333D01*
X112863238Y-101988952D01*
X112672761Y-101988952D01*
X112577523Y-102036571D01*
X112529904Y-102084190D01*
X112482285Y-102179428D01*
X112482285Y-102369904D01*
X112529904Y-102465142D01*
X112577523Y-102512761D01*
X112672761Y-102560380D01*
X112863238Y-102560380D01*
X112958476Y-102512761D01*
X113006095Y-102465142D01*
X113053714Y-102369904D01*
X113053714Y-102179428D01*
X113006095Y-102084190D01*
X112958476Y-102036571D01*
X112863238Y-101988952D01*
%TO.C,D4*%
X177363380Y-79732095D02*
X176363380Y-79732095D01*
X176363380Y-79494000D01*
X176411000Y-79351142D01*
X176506238Y-79255904D01*
X176601476Y-79208285D01*
X176791952Y-79160666D01*
X176934809Y-79160666D01*
X177125285Y-79208285D01*
X177220523Y-79255904D01*
X177315761Y-79351142D01*
X177363380Y-79494000D01*
X177363380Y-79732095D01*
X176696714Y-78303523D02*
X177363380Y-78303523D01*
X176315761Y-78541619D02*
X177030047Y-78779714D01*
X177030047Y-78160666D01*
%TO.C,R32*%
X124085380Y-74937857D02*
X123609190Y-75271190D01*
X124085380Y-75509285D02*
X123085380Y-75509285D01*
X123085380Y-75128333D01*
X123133000Y-75033095D01*
X123180619Y-74985476D01*
X123275857Y-74937857D01*
X123418714Y-74937857D01*
X123513952Y-74985476D01*
X123561571Y-75033095D01*
X123609190Y-75128333D01*
X123609190Y-75509285D01*
X123085380Y-74604523D02*
X123085380Y-73985476D01*
X123466333Y-74318809D01*
X123466333Y-74175952D01*
X123513952Y-74080714D01*
X123561571Y-74033095D01*
X123656809Y-73985476D01*
X123894904Y-73985476D01*
X123990142Y-74033095D01*
X124037761Y-74080714D01*
X124085380Y-74175952D01*
X124085380Y-74461666D01*
X124037761Y-74556904D01*
X123990142Y-74604523D01*
X123180619Y-73604523D02*
X123133000Y-73556904D01*
X123085380Y-73461666D01*
X123085380Y-73223571D01*
X123133000Y-73128333D01*
X123180619Y-73080714D01*
X123275857Y-73033095D01*
X123371095Y-73033095D01*
X123513952Y-73080714D01*
X124085380Y-73652142D01*
X124085380Y-73033095D01*
%TO.C,C8*%
X126006333Y-106877142D02*
X125958714Y-106924761D01*
X125815857Y-106972380D01*
X125720619Y-106972380D01*
X125577761Y-106924761D01*
X125482523Y-106829523D01*
X125434904Y-106734285D01*
X125387285Y-106543809D01*
X125387285Y-106400952D01*
X125434904Y-106210476D01*
X125482523Y-106115238D01*
X125577761Y-106020000D01*
X125720619Y-105972380D01*
X125815857Y-105972380D01*
X125958714Y-106020000D01*
X126006333Y-106067619D01*
X126577761Y-106400952D02*
X126482523Y-106353333D01*
X126434904Y-106305714D01*
X126387285Y-106210476D01*
X126387285Y-106162857D01*
X126434904Y-106067619D01*
X126482523Y-106020000D01*
X126577761Y-105972380D01*
X126768238Y-105972380D01*
X126863476Y-106020000D01*
X126911095Y-106067619D01*
X126958714Y-106162857D01*
X126958714Y-106210476D01*
X126911095Y-106305714D01*
X126863476Y-106353333D01*
X126768238Y-106400952D01*
X126577761Y-106400952D01*
X126482523Y-106448571D01*
X126434904Y-106496190D01*
X126387285Y-106591428D01*
X126387285Y-106781904D01*
X126434904Y-106877142D01*
X126482523Y-106924761D01*
X126577761Y-106972380D01*
X126768238Y-106972380D01*
X126863476Y-106924761D01*
X126911095Y-106877142D01*
X126958714Y-106781904D01*
X126958714Y-106591428D01*
X126911095Y-106496190D01*
X126863476Y-106448571D01*
X126768238Y-106400952D01*
%TO.C,D3*%
X115085904Y-105514380D02*
X115085904Y-104514380D01*
X115324000Y-104514380D01*
X115466857Y-104562000D01*
X115562095Y-104657238D01*
X115609714Y-104752476D01*
X115657333Y-104942952D01*
X115657333Y-105085809D01*
X115609714Y-105276285D01*
X115562095Y-105371523D01*
X115466857Y-105466761D01*
X115324000Y-105514380D01*
X115085904Y-105514380D01*
X115990666Y-104514380D02*
X116609714Y-104514380D01*
X116276380Y-104895333D01*
X116419238Y-104895333D01*
X116514476Y-104942952D01*
X116562095Y-104990571D01*
X116609714Y-105085809D01*
X116609714Y-105323904D01*
X116562095Y-105419142D01*
X116514476Y-105466761D01*
X116419238Y-105514380D01*
X116133523Y-105514380D01*
X116038285Y-105466761D01*
X115990666Y-105419142D01*
%TO.C,R25*%
X136771142Y-127198380D02*
X136437809Y-126722190D01*
X136199714Y-127198380D02*
X136199714Y-126198380D01*
X136580666Y-126198380D01*
X136675904Y-126246000D01*
X136723523Y-126293619D01*
X136771142Y-126388857D01*
X136771142Y-126531714D01*
X136723523Y-126626952D01*
X136675904Y-126674571D01*
X136580666Y-126722190D01*
X136199714Y-126722190D01*
X137152095Y-126293619D02*
X137199714Y-126246000D01*
X137294952Y-126198380D01*
X137533047Y-126198380D01*
X137628285Y-126246000D01*
X137675904Y-126293619D01*
X137723523Y-126388857D01*
X137723523Y-126484095D01*
X137675904Y-126626952D01*
X137104476Y-127198380D01*
X137723523Y-127198380D01*
X138628285Y-126198380D02*
X138152095Y-126198380D01*
X138104476Y-126674571D01*
X138152095Y-126626952D01*
X138247333Y-126579333D01*
X138485428Y-126579333D01*
X138580666Y-126626952D01*
X138628285Y-126674571D01*
X138675904Y-126769809D01*
X138675904Y-127007904D01*
X138628285Y-127103142D01*
X138580666Y-127150761D01*
X138485428Y-127198380D01*
X138247333Y-127198380D01*
X138152095Y-127150761D01*
X138104476Y-127103142D01*
%TO.C,Conn5*%
X107638190Y-90465142D02*
X107590571Y-90512761D01*
X107447714Y-90560380D01*
X107352476Y-90560380D01*
X107209619Y-90512761D01*
X107114380Y-90417523D01*
X107066761Y-90322285D01*
X107019142Y-90131809D01*
X107019142Y-89988952D01*
X107066761Y-89798476D01*
X107114380Y-89703238D01*
X107209619Y-89608000D01*
X107352476Y-89560380D01*
X107447714Y-89560380D01*
X107590571Y-89608000D01*
X107638190Y-89655619D01*
X108209619Y-90560380D02*
X108114380Y-90512761D01*
X108066761Y-90465142D01*
X108019142Y-90369904D01*
X108019142Y-90084190D01*
X108066761Y-89988952D01*
X108114380Y-89941333D01*
X108209619Y-89893714D01*
X108352476Y-89893714D01*
X108447714Y-89941333D01*
X108495333Y-89988952D01*
X108542952Y-90084190D01*
X108542952Y-90369904D01*
X108495333Y-90465142D01*
X108447714Y-90512761D01*
X108352476Y-90560380D01*
X108209619Y-90560380D01*
X108971523Y-89893714D02*
X108971523Y-90560380D01*
X108971523Y-89988952D02*
X109019142Y-89941333D01*
X109114380Y-89893714D01*
X109257238Y-89893714D01*
X109352476Y-89941333D01*
X109400095Y-90036571D01*
X109400095Y-90560380D01*
X109876285Y-89893714D02*
X109876285Y-90560380D01*
X109876285Y-89988952D02*
X109923904Y-89941333D01*
X110019142Y-89893714D01*
X110162000Y-89893714D01*
X110257238Y-89941333D01*
X110304857Y-90036571D01*
X110304857Y-90560380D01*
X111257238Y-89560380D02*
X110781047Y-89560380D01*
X110733428Y-90036571D01*
X110781047Y-89988952D01*
X110876285Y-89941333D01*
X111114380Y-89941333D01*
X111209619Y-89988952D01*
X111257238Y-90036571D01*
X111304857Y-90131809D01*
X111304857Y-90369904D01*
X111257238Y-90465142D01*
X111209619Y-90512761D01*
X111114380Y-90560380D01*
X110876285Y-90560380D01*
X110781047Y-90512761D01*
X110733428Y-90465142D01*
%TO.C,R24*%
X146931142Y-127198380D02*
X146597809Y-126722190D01*
X146359714Y-127198380D02*
X146359714Y-126198380D01*
X146740666Y-126198380D01*
X146835904Y-126246000D01*
X146883523Y-126293619D01*
X146931142Y-126388857D01*
X146931142Y-126531714D01*
X146883523Y-126626952D01*
X146835904Y-126674571D01*
X146740666Y-126722190D01*
X146359714Y-126722190D01*
X147312095Y-126293619D02*
X147359714Y-126246000D01*
X147454952Y-126198380D01*
X147693047Y-126198380D01*
X147788285Y-126246000D01*
X147835904Y-126293619D01*
X147883523Y-126388857D01*
X147883523Y-126484095D01*
X147835904Y-126626952D01*
X147264476Y-127198380D01*
X147883523Y-127198380D01*
X148740666Y-126531714D02*
X148740666Y-127198380D01*
X148502571Y-126150761D02*
X148264476Y-126865047D01*
X148883523Y-126865047D01*
%TO.C,R2*%
X122372380Y-50331666D02*
X121896190Y-50665000D01*
X122372380Y-50903095D02*
X121372380Y-50903095D01*
X121372380Y-50522142D01*
X121420000Y-50426904D01*
X121467619Y-50379285D01*
X121562857Y-50331666D01*
X121705714Y-50331666D01*
X121800952Y-50379285D01*
X121848571Y-50426904D01*
X121896190Y-50522142D01*
X121896190Y-50903095D01*
X121467619Y-49950714D02*
X121420000Y-49903095D01*
X121372380Y-49807857D01*
X121372380Y-49569761D01*
X121420000Y-49474523D01*
X121467619Y-49426904D01*
X121562857Y-49379285D01*
X121658095Y-49379285D01*
X121800952Y-49426904D01*
X122372380Y-49998333D01*
X122372380Y-49379285D01*
%TO.C,R18*%
X159296380Y-122562857D02*
X158820190Y-122896190D01*
X159296380Y-123134285D02*
X158296380Y-123134285D01*
X158296380Y-122753333D01*
X158344000Y-122658095D01*
X158391619Y-122610476D01*
X158486857Y-122562857D01*
X158629714Y-122562857D01*
X158724952Y-122610476D01*
X158772571Y-122658095D01*
X158820190Y-122753333D01*
X158820190Y-123134285D01*
X159296380Y-121610476D02*
X159296380Y-122181904D01*
X159296380Y-121896190D02*
X158296380Y-121896190D01*
X158439238Y-121991428D01*
X158534476Y-122086666D01*
X158582095Y-122181904D01*
X158724952Y-121039047D02*
X158677333Y-121134285D01*
X158629714Y-121181904D01*
X158534476Y-121229523D01*
X158486857Y-121229523D01*
X158391619Y-121181904D01*
X158344000Y-121134285D01*
X158296380Y-121039047D01*
X158296380Y-120848571D01*
X158344000Y-120753333D01*
X158391619Y-120705714D01*
X158486857Y-120658095D01*
X158534476Y-120658095D01*
X158629714Y-120705714D01*
X158677333Y-120753333D01*
X158724952Y-120848571D01*
X158724952Y-121039047D01*
X158772571Y-121134285D01*
X158820190Y-121181904D01*
X158915428Y-121229523D01*
X159105904Y-121229523D01*
X159201142Y-121181904D01*
X159248761Y-121134285D01*
X159296380Y-121039047D01*
X159296380Y-120848571D01*
X159248761Y-120753333D01*
X159201142Y-120705714D01*
X159105904Y-120658095D01*
X158915428Y-120658095D01*
X158820190Y-120705714D01*
X158772571Y-120753333D01*
X158724952Y-120848571D01*
%TO.C,Q3*%
X122902761Y-94117619D02*
X122807523Y-94070000D01*
X122712285Y-93974761D01*
X122569428Y-93831904D01*
X122474190Y-93784285D01*
X122378952Y-93784285D01*
X122426571Y-94022380D02*
X122331333Y-93974761D01*
X122236095Y-93879523D01*
X122188476Y-93689047D01*
X122188476Y-93355714D01*
X122236095Y-93165238D01*
X122331333Y-93070000D01*
X122426571Y-93022380D01*
X122617047Y-93022380D01*
X122712285Y-93070000D01*
X122807523Y-93165238D01*
X122855142Y-93355714D01*
X122855142Y-93689047D01*
X122807523Y-93879523D01*
X122712285Y-93974761D01*
X122617047Y-94022380D01*
X122426571Y-94022380D01*
X123188476Y-93022380D02*
X123807523Y-93022380D01*
X123474190Y-93403333D01*
X123617047Y-93403333D01*
X123712285Y-93450952D01*
X123759904Y-93498571D01*
X123807523Y-93593809D01*
X123807523Y-93831904D01*
X123759904Y-93927142D01*
X123712285Y-93974761D01*
X123617047Y-94022380D01*
X123331333Y-94022380D01*
X123236095Y-93974761D01*
X123188476Y-93927142D01*
%TO.C,R14*%
X145915142Y-112696880D02*
X145581809Y-112220690D01*
X145343714Y-112696880D02*
X145343714Y-111696880D01*
X145724666Y-111696880D01*
X145819904Y-111744500D01*
X145867523Y-111792119D01*
X145915142Y-111887357D01*
X145915142Y-112030214D01*
X145867523Y-112125452D01*
X145819904Y-112173071D01*
X145724666Y-112220690D01*
X145343714Y-112220690D01*
X146867523Y-112696880D02*
X146296095Y-112696880D01*
X146581809Y-112696880D02*
X146581809Y-111696880D01*
X146486571Y-111839738D01*
X146391333Y-111934976D01*
X146296095Y-111982595D01*
X147724666Y-112030214D02*
X147724666Y-112696880D01*
X147486571Y-111649261D02*
X147248476Y-112363547D01*
X147867523Y-112363547D01*
%TO.C,Q11*%
X130046571Y-94117619D02*
X129951333Y-94070000D01*
X129856095Y-93974761D01*
X129713238Y-93831904D01*
X129618000Y-93784285D01*
X129522761Y-93784285D01*
X129570380Y-94022380D02*
X129475142Y-93974761D01*
X129379904Y-93879523D01*
X129332285Y-93689047D01*
X129332285Y-93355714D01*
X129379904Y-93165238D01*
X129475142Y-93070000D01*
X129570380Y-93022380D01*
X129760857Y-93022380D01*
X129856095Y-93070000D01*
X129951333Y-93165238D01*
X129998952Y-93355714D01*
X129998952Y-93689047D01*
X129951333Y-93879523D01*
X129856095Y-93974761D01*
X129760857Y-94022380D01*
X129570380Y-94022380D01*
X130951333Y-94022380D02*
X130379904Y-94022380D01*
X130665619Y-94022380D02*
X130665619Y-93022380D01*
X130570380Y-93165238D01*
X130475142Y-93260476D01*
X130379904Y-93308095D01*
X131903714Y-94022380D02*
X131332285Y-94022380D01*
X131618000Y-94022380D02*
X131618000Y-93022380D01*
X131522761Y-93165238D01*
X131427523Y-93260476D01*
X131332285Y-93308095D01*
%TO.C,Q1*%
X122967761Y-106817619D02*
X122872523Y-106770000D01*
X122777285Y-106674761D01*
X122634428Y-106531904D01*
X122539190Y-106484285D01*
X122443952Y-106484285D01*
X122491571Y-106722380D02*
X122396333Y-106674761D01*
X122301095Y-106579523D01*
X122253476Y-106389047D01*
X122253476Y-106055714D01*
X122301095Y-105865238D01*
X122396333Y-105770000D01*
X122491571Y-105722380D01*
X122682047Y-105722380D01*
X122777285Y-105770000D01*
X122872523Y-105865238D01*
X122920142Y-106055714D01*
X122920142Y-106389047D01*
X122872523Y-106579523D01*
X122777285Y-106674761D01*
X122682047Y-106722380D01*
X122491571Y-106722380D01*
X123872523Y-106722380D02*
X123301095Y-106722380D01*
X123586809Y-106722380D02*
X123586809Y-105722380D01*
X123491571Y-105865238D01*
X123396333Y-105960476D01*
X123301095Y-106008095D01*
%TO.C,R35*%
X108323142Y-125641380D02*
X107989809Y-125165190D01*
X107751714Y-125641380D02*
X107751714Y-124641380D01*
X108132666Y-124641380D01*
X108227904Y-124689000D01*
X108275523Y-124736619D01*
X108323142Y-124831857D01*
X108323142Y-124974714D01*
X108275523Y-125069952D01*
X108227904Y-125117571D01*
X108132666Y-125165190D01*
X107751714Y-125165190D01*
X108656476Y-124641380D02*
X109275523Y-124641380D01*
X108942190Y-125022333D01*
X109085047Y-125022333D01*
X109180285Y-125069952D01*
X109227904Y-125117571D01*
X109275523Y-125212809D01*
X109275523Y-125450904D01*
X109227904Y-125546142D01*
X109180285Y-125593761D01*
X109085047Y-125641380D01*
X108799333Y-125641380D01*
X108704095Y-125593761D01*
X108656476Y-125546142D01*
X110180285Y-124641380D02*
X109704095Y-124641380D01*
X109656476Y-125117571D01*
X109704095Y-125069952D01*
X109799333Y-125022333D01*
X110037428Y-125022333D01*
X110132666Y-125069952D01*
X110180285Y-125117571D01*
X110227904Y-125212809D01*
X110227904Y-125450904D01*
X110180285Y-125546142D01*
X110132666Y-125593761D01*
X110037428Y-125641380D01*
X109799333Y-125641380D01*
X109704095Y-125593761D01*
X109656476Y-125546142D01*
%TO.C,D7*%
X151328380Y-126468095D02*
X150328380Y-126468095D01*
X150328380Y-126230000D01*
X150376000Y-126087142D01*
X150471238Y-125991904D01*
X150566476Y-125944285D01*
X150756952Y-125896666D01*
X150899809Y-125896666D01*
X151090285Y-125944285D01*
X151185523Y-125991904D01*
X151280761Y-126087142D01*
X151328380Y-126230000D01*
X151328380Y-126468095D01*
X150328380Y-125563333D02*
X150328380Y-124896666D01*
X151328380Y-125325238D01*
%TO.C,R34*%
X131880142Y-85382380D02*
X131546809Y-84906190D01*
X131308714Y-85382380D02*
X131308714Y-84382380D01*
X131689666Y-84382380D01*
X131784904Y-84430000D01*
X131832523Y-84477619D01*
X131880142Y-84572857D01*
X131880142Y-84715714D01*
X131832523Y-84810952D01*
X131784904Y-84858571D01*
X131689666Y-84906190D01*
X131308714Y-84906190D01*
X132213476Y-84382380D02*
X132832523Y-84382380D01*
X132499190Y-84763333D01*
X132642047Y-84763333D01*
X132737285Y-84810952D01*
X132784904Y-84858571D01*
X132832523Y-84953809D01*
X132832523Y-85191904D01*
X132784904Y-85287142D01*
X132737285Y-85334761D01*
X132642047Y-85382380D01*
X132356333Y-85382380D01*
X132261095Y-85334761D01*
X132213476Y-85287142D01*
X133689666Y-84715714D02*
X133689666Y-85382380D01*
X133451571Y-84334761D02*
X133213476Y-85049047D01*
X133832523Y-85049047D01*
%TO.C,D6*%
X163680380Y-126468095D02*
X162680380Y-126468095D01*
X162680380Y-126230000D01*
X162728000Y-126087142D01*
X162823238Y-125991904D01*
X162918476Y-125944285D01*
X163108952Y-125896666D01*
X163251809Y-125896666D01*
X163442285Y-125944285D01*
X163537523Y-125991904D01*
X163632761Y-126087142D01*
X163680380Y-126230000D01*
X163680380Y-126468095D01*
X162680380Y-125039523D02*
X162680380Y-125230000D01*
X162728000Y-125325238D01*
X162775619Y-125372857D01*
X162918476Y-125468095D01*
X163108952Y-125515714D01*
X163489904Y-125515714D01*
X163585142Y-125468095D01*
X163632761Y-125420476D01*
X163680380Y-125325238D01*
X163680380Y-125134761D01*
X163632761Y-125039523D01*
X163585142Y-124991904D01*
X163489904Y-124944285D01*
X163251809Y-124944285D01*
X163156571Y-124991904D01*
X163108952Y-125039523D01*
X163061333Y-125134761D01*
X163061333Y-125325238D01*
X163108952Y-125420476D01*
X163156571Y-125468095D01*
X163251809Y-125515714D01*
%TO.C,R13*%
X176060380Y-125737857D02*
X175584190Y-126071190D01*
X176060380Y-126309285D02*
X175060380Y-126309285D01*
X175060380Y-125928333D01*
X175108000Y-125833095D01*
X175155619Y-125785476D01*
X175250857Y-125737857D01*
X175393714Y-125737857D01*
X175488952Y-125785476D01*
X175536571Y-125833095D01*
X175584190Y-125928333D01*
X175584190Y-126309285D01*
X176060380Y-124785476D02*
X176060380Y-125356904D01*
X176060380Y-125071190D02*
X175060380Y-125071190D01*
X175203238Y-125166428D01*
X175298476Y-125261666D01*
X175346095Y-125356904D01*
X175060380Y-124452142D02*
X175060380Y-123833095D01*
X175441333Y-124166428D01*
X175441333Y-124023571D01*
X175488952Y-123928333D01*
X175536571Y-123880714D01*
X175631809Y-123833095D01*
X175869904Y-123833095D01*
X175965142Y-123880714D01*
X176012761Y-123928333D01*
X176060380Y-124023571D01*
X176060380Y-124309285D01*
X176012761Y-124404523D01*
X175965142Y-124452142D01*
%TO.C,R22*%
X158107142Y-125674380D02*
X157773809Y-125198190D01*
X157535714Y-125674380D02*
X157535714Y-124674380D01*
X157916666Y-124674380D01*
X158011904Y-124722000D01*
X158059523Y-124769619D01*
X158107142Y-124864857D01*
X158107142Y-125007714D01*
X158059523Y-125102952D01*
X158011904Y-125150571D01*
X157916666Y-125198190D01*
X157535714Y-125198190D01*
X158488095Y-124769619D02*
X158535714Y-124722000D01*
X158630952Y-124674380D01*
X158869047Y-124674380D01*
X158964285Y-124722000D01*
X159011904Y-124769619D01*
X159059523Y-124864857D01*
X159059523Y-124960095D01*
X159011904Y-125102952D01*
X158440476Y-125674380D01*
X159059523Y-125674380D01*
X159440476Y-124769619D02*
X159488095Y-124722000D01*
X159583333Y-124674380D01*
X159821428Y-124674380D01*
X159916666Y-124722000D01*
X159964285Y-124769619D01*
X160011904Y-124864857D01*
X160011904Y-124960095D01*
X159964285Y-125102952D01*
X159392857Y-125674380D01*
X160011904Y-125674380D01*
%TO.C,D13*%
X129865380Y-119945285D02*
X128865380Y-119945285D01*
X128865380Y-119707190D01*
X128913000Y-119564333D01*
X129008238Y-119469095D01*
X129103476Y-119421476D01*
X129293952Y-119373857D01*
X129436809Y-119373857D01*
X129627285Y-119421476D01*
X129722523Y-119469095D01*
X129817761Y-119564333D01*
X129865380Y-119707190D01*
X129865380Y-119945285D01*
X129865380Y-118421476D02*
X129865380Y-118992904D01*
X129865380Y-118707190D02*
X128865380Y-118707190D01*
X129008238Y-118802428D01*
X129103476Y-118897666D01*
X129151095Y-118992904D01*
X128865380Y-118088142D02*
X128865380Y-117469095D01*
X129246333Y-117802428D01*
X129246333Y-117659571D01*
X129293952Y-117564333D01*
X129341571Y-117516714D01*
X129436809Y-117469095D01*
X129674904Y-117469095D01*
X129770142Y-117516714D01*
X129817761Y-117564333D01*
X129865380Y-117659571D01*
X129865380Y-117945285D01*
X129817761Y-118040523D01*
X129770142Y-118088142D01*
%TO.C,R6*%
X112101333Y-105514380D02*
X111768000Y-105038190D01*
X111529904Y-105514380D02*
X111529904Y-104514380D01*
X111910857Y-104514380D01*
X112006095Y-104562000D01*
X112053714Y-104609619D01*
X112101333Y-104704857D01*
X112101333Y-104847714D01*
X112053714Y-104942952D01*
X112006095Y-104990571D01*
X111910857Y-105038190D01*
X111529904Y-105038190D01*
X112958476Y-104514380D02*
X112768000Y-104514380D01*
X112672761Y-104562000D01*
X112625142Y-104609619D01*
X112529904Y-104752476D01*
X112482285Y-104942952D01*
X112482285Y-105323904D01*
X112529904Y-105419142D01*
X112577523Y-105466761D01*
X112672761Y-105514380D01*
X112863238Y-105514380D01*
X112958476Y-105466761D01*
X113006095Y-105419142D01*
X113053714Y-105323904D01*
X113053714Y-105085809D01*
X113006095Y-104990571D01*
X112958476Y-104942952D01*
X112863238Y-104895333D01*
X112672761Y-104895333D01*
X112577523Y-104942952D01*
X112529904Y-104990571D01*
X112482285Y-105085809D01*
%TO.C,R20*%
X111879142Y-96464380D02*
X111545809Y-95988190D01*
X111307714Y-96464380D02*
X111307714Y-95464380D01*
X111688666Y-95464380D01*
X111783904Y-95512000D01*
X111831523Y-95559619D01*
X111879142Y-95654857D01*
X111879142Y-95797714D01*
X111831523Y-95892952D01*
X111783904Y-95940571D01*
X111688666Y-95988190D01*
X111307714Y-95988190D01*
X112260095Y-95559619D02*
X112307714Y-95512000D01*
X112402952Y-95464380D01*
X112641047Y-95464380D01*
X112736285Y-95512000D01*
X112783904Y-95559619D01*
X112831523Y-95654857D01*
X112831523Y-95750095D01*
X112783904Y-95892952D01*
X112212476Y-96464380D01*
X112831523Y-96464380D01*
X113450571Y-95464380D02*
X113545809Y-95464380D01*
X113641047Y-95512000D01*
X113688666Y-95559619D01*
X113736285Y-95654857D01*
X113783904Y-95845333D01*
X113783904Y-96083428D01*
X113736285Y-96273904D01*
X113688666Y-96369142D01*
X113641047Y-96416761D01*
X113545809Y-96464380D01*
X113450571Y-96464380D01*
X113355333Y-96416761D01*
X113307714Y-96369142D01*
X113260095Y-96273904D01*
X113212476Y-96083428D01*
X113212476Y-95845333D01*
X113260095Y-95654857D01*
X113307714Y-95559619D01*
X113355333Y-95512000D01*
X113450571Y-95464380D01*
%TO.C,D8*%
X143787904Y-125420380D02*
X143787904Y-124420380D01*
X144026000Y-124420380D01*
X144168857Y-124468000D01*
X144264095Y-124563238D01*
X144311714Y-124658476D01*
X144359333Y-124848952D01*
X144359333Y-124991809D01*
X144311714Y-125182285D01*
X144264095Y-125277523D01*
X144168857Y-125372761D01*
X144026000Y-125420380D01*
X143787904Y-125420380D01*
X144930761Y-124848952D02*
X144835523Y-124801333D01*
X144787904Y-124753714D01*
X144740285Y-124658476D01*
X144740285Y-124610857D01*
X144787904Y-124515619D01*
X144835523Y-124468000D01*
X144930761Y-124420380D01*
X145121238Y-124420380D01*
X145216476Y-124468000D01*
X145264095Y-124515619D01*
X145311714Y-124610857D01*
X145311714Y-124658476D01*
X145264095Y-124753714D01*
X145216476Y-124801333D01*
X145121238Y-124848952D01*
X144930761Y-124848952D01*
X144835523Y-124896571D01*
X144787904Y-124944190D01*
X144740285Y-125039428D01*
X144740285Y-125229904D01*
X144787904Y-125325142D01*
X144835523Y-125372761D01*
X144930761Y-125420380D01*
X145121238Y-125420380D01*
X145216476Y-125372761D01*
X145264095Y-125325142D01*
X145311714Y-125229904D01*
X145311714Y-125039428D01*
X145264095Y-124944190D01*
X145216476Y-124896571D01*
X145121238Y-124848952D01*
%TO.C,D10*%
X114863714Y-99672380D02*
X114863714Y-98672380D01*
X115101809Y-98672380D01*
X115244666Y-98720000D01*
X115339904Y-98815238D01*
X115387523Y-98910476D01*
X115435142Y-99100952D01*
X115435142Y-99243809D01*
X115387523Y-99434285D01*
X115339904Y-99529523D01*
X115244666Y-99624761D01*
X115101809Y-99672380D01*
X114863714Y-99672380D01*
X116387523Y-99672380D02*
X115816095Y-99672380D01*
X116101809Y-99672380D02*
X116101809Y-98672380D01*
X116006571Y-98815238D01*
X115911333Y-98910476D01*
X115816095Y-98958095D01*
X117006571Y-98672380D02*
X117101809Y-98672380D01*
X117197047Y-98720000D01*
X117244666Y-98767619D01*
X117292285Y-98862857D01*
X117339904Y-99053333D01*
X117339904Y-99291428D01*
X117292285Y-99481904D01*
X117244666Y-99577142D01*
X117197047Y-99624761D01*
X117101809Y-99672380D01*
X117006571Y-99672380D01*
X116911333Y-99624761D01*
X116863714Y-99577142D01*
X116816095Y-99481904D01*
X116768476Y-99291428D01*
X116768476Y-99053333D01*
X116816095Y-98862857D01*
X116863714Y-98767619D01*
X116911333Y-98720000D01*
X117006571Y-98672380D01*
%TO.C,R16*%
X168267142Y-116022380D02*
X167933809Y-115546190D01*
X167695714Y-116022380D02*
X167695714Y-115022380D01*
X168076666Y-115022380D01*
X168171904Y-115070000D01*
X168219523Y-115117619D01*
X168267142Y-115212857D01*
X168267142Y-115355714D01*
X168219523Y-115450952D01*
X168171904Y-115498571D01*
X168076666Y-115546190D01*
X167695714Y-115546190D01*
X169219523Y-116022380D02*
X168648095Y-116022380D01*
X168933809Y-116022380D02*
X168933809Y-115022380D01*
X168838571Y-115165238D01*
X168743333Y-115260476D01*
X168648095Y-115308095D01*
X170076666Y-115022380D02*
X169886190Y-115022380D01*
X169790952Y-115070000D01*
X169743333Y-115117619D01*
X169648095Y-115260476D01*
X169600476Y-115450952D01*
X169600476Y-115831904D01*
X169648095Y-115927142D01*
X169695714Y-115974761D01*
X169790952Y-116022380D01*
X169981428Y-116022380D01*
X170076666Y-115974761D01*
X170124285Y-115927142D01*
X170171904Y-115831904D01*
X170171904Y-115593809D01*
X170124285Y-115498571D01*
X170076666Y-115450952D01*
X169981428Y-115403333D01*
X169790952Y-115403333D01*
X169695714Y-115450952D01*
X169648095Y-115498571D01*
X169600476Y-115593809D01*
%TO.C,R12*%
X175633142Y-116022380D02*
X175299809Y-115546190D01*
X175061714Y-116022380D02*
X175061714Y-115022380D01*
X175442666Y-115022380D01*
X175537904Y-115070000D01*
X175585523Y-115117619D01*
X175633142Y-115212857D01*
X175633142Y-115355714D01*
X175585523Y-115450952D01*
X175537904Y-115498571D01*
X175442666Y-115546190D01*
X175061714Y-115546190D01*
X176585523Y-116022380D02*
X176014095Y-116022380D01*
X176299809Y-116022380D02*
X176299809Y-115022380D01*
X176204571Y-115165238D01*
X176109333Y-115260476D01*
X176014095Y-115308095D01*
X176966476Y-115117619D02*
X177014095Y-115070000D01*
X177109333Y-115022380D01*
X177347428Y-115022380D01*
X177442666Y-115070000D01*
X177490285Y-115117619D01*
X177537904Y-115212857D01*
X177537904Y-115308095D01*
X177490285Y-115450952D01*
X176918857Y-116022380D01*
X177537904Y-116022380D01*
%TO.C,Q4*%
X145041619Y-117546738D02*
X144994000Y-117641976D01*
X144898761Y-117737214D01*
X144755904Y-117880071D01*
X144708285Y-117975309D01*
X144708285Y-118070547D01*
X144946380Y-118022928D02*
X144898761Y-118118166D01*
X144803523Y-118213404D01*
X144613047Y-118261023D01*
X144279714Y-118261023D01*
X144089238Y-118213404D01*
X143994000Y-118118166D01*
X143946380Y-118022928D01*
X143946380Y-117832452D01*
X143994000Y-117737214D01*
X144089238Y-117641976D01*
X144279714Y-117594357D01*
X144613047Y-117594357D01*
X144803523Y-117641976D01*
X144898761Y-117737214D01*
X144946380Y-117832452D01*
X144946380Y-118022928D01*
X144279714Y-116737214D02*
X144946380Y-116737214D01*
X143898761Y-116975309D02*
X144613047Y-117213404D01*
X144613047Y-116594357D01*
%TO.C,D15*%
X114863714Y-96718380D02*
X114863714Y-95718380D01*
X115101809Y-95718380D01*
X115244666Y-95766000D01*
X115339904Y-95861238D01*
X115387523Y-95956476D01*
X115435142Y-96146952D01*
X115435142Y-96289809D01*
X115387523Y-96480285D01*
X115339904Y-96575523D01*
X115244666Y-96670761D01*
X115101809Y-96718380D01*
X114863714Y-96718380D01*
X116387523Y-96718380D02*
X115816095Y-96718380D01*
X116101809Y-96718380D02*
X116101809Y-95718380D01*
X116006571Y-95861238D01*
X115911333Y-95956476D01*
X115816095Y-96004095D01*
X117292285Y-95718380D02*
X116816095Y-95718380D01*
X116768476Y-96194571D01*
X116816095Y-96146952D01*
X116911333Y-96099333D01*
X117149428Y-96099333D01*
X117244666Y-96146952D01*
X117292285Y-96194571D01*
X117339904Y-96289809D01*
X117339904Y-96527904D01*
X117292285Y-96623142D01*
X117244666Y-96670761D01*
X117149428Y-96718380D01*
X116911333Y-96718380D01*
X116816095Y-96670761D01*
X116768476Y-96623142D01*
%TO.C,D11*%
X121545380Y-114244285D02*
X120545380Y-114244285D01*
X120545380Y-114006190D01*
X120593000Y-113863333D01*
X120688238Y-113768095D01*
X120783476Y-113720476D01*
X120973952Y-113672857D01*
X121116809Y-113672857D01*
X121307285Y-113720476D01*
X121402523Y-113768095D01*
X121497761Y-113863333D01*
X121545380Y-114006190D01*
X121545380Y-114244285D01*
X121545380Y-112720476D02*
X121545380Y-113291904D01*
X121545380Y-113006190D02*
X120545380Y-113006190D01*
X120688238Y-113101428D01*
X120783476Y-113196666D01*
X120831095Y-113291904D01*
X121545380Y-111768095D02*
X121545380Y-112339523D01*
X121545380Y-112053809D02*
X120545380Y-112053809D01*
X120688238Y-112149047D01*
X120783476Y-112244285D01*
X120831095Y-112339523D01*
%TO.C,R1*%
X127341333Y-71064380D02*
X127008000Y-70588190D01*
X126769904Y-71064380D02*
X126769904Y-70064380D01*
X127150857Y-70064380D01*
X127246095Y-70112000D01*
X127293714Y-70159619D01*
X127341333Y-70254857D01*
X127341333Y-70397714D01*
X127293714Y-70492952D01*
X127246095Y-70540571D01*
X127150857Y-70588190D01*
X126769904Y-70588190D01*
X128293714Y-71064380D02*
X127722285Y-71064380D01*
X128008000Y-71064380D02*
X128008000Y-70064380D01*
X127912761Y-70207238D01*
X127817523Y-70302476D01*
X127722285Y-70350095D01*
%TO.C,Conn1*%
X107638190Y-73786142D02*
X107590571Y-73833761D01*
X107447714Y-73881380D01*
X107352476Y-73881380D01*
X107209619Y-73833761D01*
X107114380Y-73738523D01*
X107066761Y-73643285D01*
X107019142Y-73452809D01*
X107019142Y-73309952D01*
X107066761Y-73119476D01*
X107114380Y-73024238D01*
X107209619Y-72929000D01*
X107352476Y-72881380D01*
X107447714Y-72881380D01*
X107590571Y-72929000D01*
X107638190Y-72976619D01*
X108209619Y-73881380D02*
X108114380Y-73833761D01*
X108066761Y-73786142D01*
X108019142Y-73690904D01*
X108019142Y-73405190D01*
X108066761Y-73309952D01*
X108114380Y-73262333D01*
X108209619Y-73214714D01*
X108352476Y-73214714D01*
X108447714Y-73262333D01*
X108495333Y-73309952D01*
X108542952Y-73405190D01*
X108542952Y-73690904D01*
X108495333Y-73786142D01*
X108447714Y-73833761D01*
X108352476Y-73881380D01*
X108209619Y-73881380D01*
X108971523Y-73214714D02*
X108971523Y-73881380D01*
X108971523Y-73309952D02*
X109019142Y-73262333D01*
X109114380Y-73214714D01*
X109257238Y-73214714D01*
X109352476Y-73262333D01*
X109400095Y-73357571D01*
X109400095Y-73881380D01*
X109876285Y-73214714D02*
X109876285Y-73881380D01*
X109876285Y-73309952D02*
X109923904Y-73262333D01*
X110019142Y-73214714D01*
X110162000Y-73214714D01*
X110257238Y-73262333D01*
X110304857Y-73357571D01*
X110304857Y-73881380D01*
X111304857Y-73881380D02*
X110733428Y-73881380D01*
X111019142Y-73881380D02*
X111019142Y-72881380D01*
X110923904Y-73024238D01*
X110828666Y-73119476D01*
X110733428Y-73167095D01*
%TO.C,Q10*%
X171457619Y-121221428D02*
X171410000Y-121316666D01*
X171314761Y-121411904D01*
X171171904Y-121554761D01*
X171124285Y-121650000D01*
X171124285Y-121745238D01*
X171362380Y-121697619D02*
X171314761Y-121792857D01*
X171219523Y-121888095D01*
X171029047Y-121935714D01*
X170695714Y-121935714D01*
X170505238Y-121888095D01*
X170410000Y-121792857D01*
X170362380Y-121697619D01*
X170362380Y-121507142D01*
X170410000Y-121411904D01*
X170505238Y-121316666D01*
X170695714Y-121269047D01*
X171029047Y-121269047D01*
X171219523Y-121316666D01*
X171314761Y-121411904D01*
X171362380Y-121507142D01*
X171362380Y-121697619D01*
X171362380Y-120316666D02*
X171362380Y-120888095D01*
X171362380Y-120602380D02*
X170362380Y-120602380D01*
X170505238Y-120697619D01*
X170600476Y-120792857D01*
X170648095Y-120888095D01*
X170362380Y-119697619D02*
X170362380Y-119602380D01*
X170410000Y-119507142D01*
X170457619Y-119459523D01*
X170552857Y-119411904D01*
X170743333Y-119364285D01*
X170981428Y-119364285D01*
X171171904Y-119411904D01*
X171267142Y-119459523D01*
X171314761Y-119507142D01*
X171362380Y-119602380D01*
X171362380Y-119697619D01*
X171314761Y-119792857D01*
X171267142Y-119840476D01*
X171171904Y-119888095D01*
X170981428Y-119935714D01*
X170743333Y-119935714D01*
X170552857Y-119888095D01*
X170457619Y-119840476D01*
X170410000Y-119792857D01*
X170362380Y-119697619D01*
%TO.C,D16*%
X132786380Y-125674285D02*
X131786380Y-125674285D01*
X131786380Y-125436190D01*
X131834000Y-125293333D01*
X131929238Y-125198095D01*
X132024476Y-125150476D01*
X132214952Y-125102857D01*
X132357809Y-125102857D01*
X132548285Y-125150476D01*
X132643523Y-125198095D01*
X132738761Y-125293333D01*
X132786380Y-125436190D01*
X132786380Y-125674285D01*
X132786380Y-124150476D02*
X132786380Y-124721904D01*
X132786380Y-124436190D02*
X131786380Y-124436190D01*
X131929238Y-124531428D01*
X132024476Y-124626666D01*
X132072095Y-124721904D01*
X131786380Y-123293333D02*
X131786380Y-123483809D01*
X131834000Y-123579047D01*
X131881619Y-123626666D01*
X132024476Y-123721904D01*
X132214952Y-123769523D01*
X132595904Y-123769523D01*
X132691142Y-123721904D01*
X132738761Y-123674285D01*
X132786380Y-123579047D01*
X132786380Y-123388571D01*
X132738761Y-123293333D01*
X132691142Y-123245714D01*
X132595904Y-123198095D01*
X132357809Y-123198095D01*
X132262571Y-123245714D01*
X132214952Y-123293333D01*
X132167333Y-123388571D01*
X132167333Y-123579047D01*
X132214952Y-123674285D01*
X132262571Y-123721904D01*
X132357809Y-123769523D01*
%TO.C,R15*%
X158869142Y-113228380D02*
X158535809Y-112752190D01*
X158297714Y-113228380D02*
X158297714Y-112228380D01*
X158678666Y-112228380D01*
X158773904Y-112276000D01*
X158821523Y-112323619D01*
X158869142Y-112418857D01*
X158869142Y-112561714D01*
X158821523Y-112656952D01*
X158773904Y-112704571D01*
X158678666Y-112752190D01*
X158297714Y-112752190D01*
X159821523Y-113228380D02*
X159250095Y-113228380D01*
X159535809Y-113228380D02*
X159535809Y-112228380D01*
X159440571Y-112371238D01*
X159345333Y-112466476D01*
X159250095Y-112514095D01*
X160726285Y-112228380D02*
X160250095Y-112228380D01*
X160202476Y-112704571D01*
X160250095Y-112656952D01*
X160345333Y-112609333D01*
X160583428Y-112609333D01*
X160678666Y-112656952D01*
X160726285Y-112704571D01*
X160773904Y-112799809D01*
X160773904Y-113037904D01*
X160726285Y-113133142D01*
X160678666Y-113180761D01*
X160583428Y-113228380D01*
X160345333Y-113228380D01*
X160250095Y-113180761D01*
X160202476Y-113133142D01*
%TO.C,D2*%
X118006904Y-50076380D02*
X118006904Y-49076380D01*
X118245000Y-49076380D01*
X118387857Y-49124000D01*
X118483095Y-49219238D01*
X118530714Y-49314476D01*
X118578333Y-49504952D01*
X118578333Y-49647809D01*
X118530714Y-49838285D01*
X118483095Y-49933523D01*
X118387857Y-50028761D01*
X118245000Y-50076380D01*
X118006904Y-50076380D01*
X118959285Y-49171619D02*
X119006904Y-49124000D01*
X119102142Y-49076380D01*
X119340238Y-49076380D01*
X119435476Y-49124000D01*
X119483095Y-49171619D01*
X119530714Y-49266857D01*
X119530714Y-49362095D01*
X119483095Y-49504952D01*
X118911666Y-50076380D01*
X119530714Y-50076380D01*
%TO.C,C10*%
X127435142Y-86242142D02*
X127387523Y-86289761D01*
X127244666Y-86337380D01*
X127149428Y-86337380D01*
X127006571Y-86289761D01*
X126911333Y-86194523D01*
X126863714Y-86099285D01*
X126816095Y-85908809D01*
X126816095Y-85765952D01*
X126863714Y-85575476D01*
X126911333Y-85480238D01*
X127006571Y-85385000D01*
X127149428Y-85337380D01*
X127244666Y-85337380D01*
X127387523Y-85385000D01*
X127435142Y-85432619D01*
X128387523Y-86337380D02*
X127816095Y-86337380D01*
X128101809Y-86337380D02*
X128101809Y-85337380D01*
X128006571Y-85480238D01*
X127911333Y-85575476D01*
X127816095Y-85623095D01*
X129006571Y-85337380D02*
X129101809Y-85337380D01*
X129197047Y-85385000D01*
X129244666Y-85432619D01*
X129292285Y-85527857D01*
X129339904Y-85718333D01*
X129339904Y-85956428D01*
X129292285Y-86146904D01*
X129244666Y-86242142D01*
X129197047Y-86289761D01*
X129101809Y-86337380D01*
X129006571Y-86337380D01*
X128911333Y-86289761D01*
X128863714Y-86242142D01*
X128816095Y-86146904D01*
X128768476Y-85956428D01*
X128768476Y-85718333D01*
X128816095Y-85527857D01*
X128863714Y-85432619D01*
X128911333Y-85385000D01*
X129006571Y-85337380D01*
%TO.C,D5*%
X115085904Y-102560380D02*
X115085904Y-101560380D01*
X115324000Y-101560380D01*
X115466857Y-101608000D01*
X115562095Y-101703238D01*
X115609714Y-101798476D01*
X115657333Y-101988952D01*
X115657333Y-102131809D01*
X115609714Y-102322285D01*
X115562095Y-102417523D01*
X115466857Y-102512761D01*
X115324000Y-102560380D01*
X115085904Y-102560380D01*
X116562095Y-101560380D02*
X116085904Y-101560380D01*
X116038285Y-102036571D01*
X116085904Y-101988952D01*
X116181142Y-101941333D01*
X116419238Y-101941333D01*
X116514476Y-101988952D01*
X116562095Y-102036571D01*
X116609714Y-102131809D01*
X116609714Y-102369904D01*
X116562095Y-102465142D01*
X116514476Y-102512761D01*
X116419238Y-102560380D01*
X116181142Y-102560380D01*
X116085904Y-102512761D01*
X116038285Y-102465142D01*
%TO.C,R29*%
X124325142Y-98082380D02*
X123991809Y-97606190D01*
X123753714Y-98082380D02*
X123753714Y-97082380D01*
X124134666Y-97082380D01*
X124229904Y-97130000D01*
X124277523Y-97177619D01*
X124325142Y-97272857D01*
X124325142Y-97415714D01*
X124277523Y-97510952D01*
X124229904Y-97558571D01*
X124134666Y-97606190D01*
X123753714Y-97606190D01*
X124706095Y-97177619D02*
X124753714Y-97130000D01*
X124848952Y-97082380D01*
X125087047Y-97082380D01*
X125182285Y-97130000D01*
X125229904Y-97177619D01*
X125277523Y-97272857D01*
X125277523Y-97368095D01*
X125229904Y-97510952D01*
X124658476Y-98082380D01*
X125277523Y-98082380D01*
X125753714Y-98082380D02*
X125944190Y-98082380D01*
X126039428Y-98034761D01*
X126087047Y-97987142D01*
X126182285Y-97844285D01*
X126229904Y-97653809D01*
X126229904Y-97272857D01*
X126182285Y-97177619D01*
X126134666Y-97130000D01*
X126039428Y-97082380D01*
X125848952Y-97082380D01*
X125753714Y-97130000D01*
X125706095Y-97177619D01*
X125658476Y-97272857D01*
X125658476Y-97510952D01*
X125706095Y-97606190D01*
X125753714Y-97653809D01*
X125848952Y-97701428D01*
X126039428Y-97701428D01*
X126134666Y-97653809D01*
X126182285Y-97606190D01*
X126229904Y-97510952D01*
%TO.C,C2*%
X120720142Y-56554666D02*
X120767761Y-56602285D01*
X120815380Y-56745142D01*
X120815380Y-56840380D01*
X120767761Y-56983238D01*
X120672523Y-57078476D01*
X120577285Y-57126095D01*
X120386809Y-57173714D01*
X120243952Y-57173714D01*
X120053476Y-57126095D01*
X119958238Y-57078476D01*
X119863000Y-56983238D01*
X119815380Y-56840380D01*
X119815380Y-56745142D01*
X119863000Y-56602285D01*
X119910619Y-56554666D01*
X119910619Y-56173714D02*
X119863000Y-56126095D01*
X119815380Y-56030857D01*
X119815380Y-55792761D01*
X119863000Y-55697523D01*
X119910619Y-55649904D01*
X120005857Y-55602285D01*
X120101095Y-55602285D01*
X120243952Y-55649904D01*
X120815380Y-56221333D01*
X120815380Y-55602285D01*
%TO.C,Q7*%
X179617619Y-120745238D02*
X179570000Y-120840476D01*
X179474761Y-120935714D01*
X179331904Y-121078571D01*
X179284285Y-121173809D01*
X179284285Y-121269047D01*
X179522380Y-121221428D02*
X179474761Y-121316666D01*
X179379523Y-121411904D01*
X179189047Y-121459523D01*
X178855714Y-121459523D01*
X178665238Y-121411904D01*
X178570000Y-121316666D01*
X178522380Y-121221428D01*
X178522380Y-121030952D01*
X178570000Y-120935714D01*
X178665238Y-120840476D01*
X178855714Y-120792857D01*
X179189047Y-120792857D01*
X179379523Y-120840476D01*
X179474761Y-120935714D01*
X179522380Y-121030952D01*
X179522380Y-121221428D01*
X178522380Y-120459523D02*
X178522380Y-119792857D01*
X179522380Y-120221428D01*
%TO.C,R33*%
X124260142Y-85382380D02*
X123926809Y-84906190D01*
X123688714Y-85382380D02*
X123688714Y-84382380D01*
X124069666Y-84382380D01*
X124164904Y-84430000D01*
X124212523Y-84477619D01*
X124260142Y-84572857D01*
X124260142Y-84715714D01*
X124212523Y-84810952D01*
X124164904Y-84858571D01*
X124069666Y-84906190D01*
X123688714Y-84906190D01*
X124593476Y-84382380D02*
X125212523Y-84382380D01*
X124879190Y-84763333D01*
X125022047Y-84763333D01*
X125117285Y-84810952D01*
X125164904Y-84858571D01*
X125212523Y-84953809D01*
X125212523Y-85191904D01*
X125164904Y-85287142D01*
X125117285Y-85334761D01*
X125022047Y-85382380D01*
X124736333Y-85382380D01*
X124641095Y-85334761D01*
X124593476Y-85287142D01*
X125545857Y-84382380D02*
X126164904Y-84382380D01*
X125831571Y-84763333D01*
X125974428Y-84763333D01*
X126069666Y-84810952D01*
X126117285Y-84858571D01*
X126164904Y-84953809D01*
X126164904Y-85191904D01*
X126117285Y-85287142D01*
X126069666Y-85334761D01*
X125974428Y-85382380D01*
X125688714Y-85382380D01*
X125593476Y-85334761D01*
X125545857Y-85287142D01*
%TO.C,U1*%
X135382095Y-65746380D02*
X135382095Y-66555904D01*
X135429714Y-66651142D01*
X135477333Y-66698761D01*
X135572571Y-66746380D01*
X135763047Y-66746380D01*
X135858285Y-66698761D01*
X135905904Y-66651142D01*
X135953523Y-66555904D01*
X135953523Y-65746380D01*
X136953523Y-66746380D02*
X136382095Y-66746380D01*
X136667809Y-66746380D02*
X136667809Y-65746380D01*
X136572571Y-65889238D01*
X136477333Y-65984476D01*
X136382095Y-66032095D01*
%TO.C,R10*%
X155232380Y-122689857D02*
X154756190Y-123023190D01*
X155232380Y-123261285D02*
X154232380Y-123261285D01*
X154232380Y-122880333D01*
X154280000Y-122785095D01*
X154327619Y-122737476D01*
X154422857Y-122689857D01*
X154565714Y-122689857D01*
X154660952Y-122737476D01*
X154708571Y-122785095D01*
X154756190Y-122880333D01*
X154756190Y-123261285D01*
X155232380Y-121737476D02*
X155232380Y-122308904D01*
X155232380Y-122023190D02*
X154232380Y-122023190D01*
X154375238Y-122118428D01*
X154470476Y-122213666D01*
X154518095Y-122308904D01*
X154232380Y-121118428D02*
X154232380Y-121023190D01*
X154280000Y-120927952D01*
X154327619Y-120880333D01*
X154422857Y-120832714D01*
X154613333Y-120785095D01*
X154851428Y-120785095D01*
X155041904Y-120832714D01*
X155137142Y-120880333D01*
X155184761Y-120927952D01*
X155232380Y-121023190D01*
X155232380Y-121118428D01*
X155184761Y-121213666D01*
X155137142Y-121261285D01*
X155041904Y-121308904D01*
X154851428Y-121356523D01*
X154613333Y-121356523D01*
X154422857Y-121308904D01*
X154327619Y-121261285D01*
X154280000Y-121213666D01*
X154232380Y-121118428D01*
%TO.C,R28*%
X111625142Y-99512380D02*
X111291809Y-99036190D01*
X111053714Y-99512380D02*
X111053714Y-98512380D01*
X111434666Y-98512380D01*
X111529904Y-98560000D01*
X111577523Y-98607619D01*
X111625142Y-98702857D01*
X111625142Y-98845714D01*
X111577523Y-98940952D01*
X111529904Y-98988571D01*
X111434666Y-99036190D01*
X111053714Y-99036190D01*
X112006095Y-98607619D02*
X112053714Y-98560000D01*
X112148952Y-98512380D01*
X112387047Y-98512380D01*
X112482285Y-98560000D01*
X112529904Y-98607619D01*
X112577523Y-98702857D01*
X112577523Y-98798095D01*
X112529904Y-98940952D01*
X111958476Y-99512380D01*
X112577523Y-99512380D01*
X113148952Y-98940952D02*
X113053714Y-98893333D01*
X113006095Y-98845714D01*
X112958476Y-98750476D01*
X112958476Y-98702857D01*
X113006095Y-98607619D01*
X113053714Y-98560000D01*
X113148952Y-98512380D01*
X113339428Y-98512380D01*
X113434666Y-98560000D01*
X113482285Y-98607619D01*
X113529904Y-98702857D01*
X113529904Y-98750476D01*
X113482285Y-98845714D01*
X113434666Y-98893333D01*
X113339428Y-98940952D01*
X113148952Y-98940952D01*
X113053714Y-98988571D01*
X113006095Y-99036190D01*
X112958476Y-99131428D01*
X112958476Y-99321904D01*
X113006095Y-99417142D01*
X113053714Y-99464761D01*
X113148952Y-99512380D01*
X113339428Y-99512380D01*
X113434666Y-99464761D01*
X113482285Y-99417142D01*
X113529904Y-99321904D01*
X113529904Y-99131428D01*
X113482285Y-99036190D01*
X113434666Y-98988571D01*
X113339428Y-98940952D01*
%TO.C,Q9*%
X162821619Y-117570238D02*
X162774000Y-117665476D01*
X162678761Y-117760714D01*
X162535904Y-117903571D01*
X162488285Y-117998809D01*
X162488285Y-118094047D01*
X162726380Y-118046428D02*
X162678761Y-118141666D01*
X162583523Y-118236904D01*
X162393047Y-118284523D01*
X162059714Y-118284523D01*
X161869238Y-118236904D01*
X161774000Y-118141666D01*
X161726380Y-118046428D01*
X161726380Y-117855952D01*
X161774000Y-117760714D01*
X161869238Y-117665476D01*
X162059714Y-117617857D01*
X162393047Y-117617857D01*
X162583523Y-117665476D01*
X162678761Y-117760714D01*
X162726380Y-117855952D01*
X162726380Y-118046428D01*
X162726380Y-117141666D02*
X162726380Y-116951190D01*
X162678761Y-116855952D01*
X162631142Y-116808333D01*
X162488285Y-116713095D01*
X162297809Y-116665476D01*
X161916857Y-116665476D01*
X161821619Y-116713095D01*
X161774000Y-116760714D01*
X161726380Y-116855952D01*
X161726380Y-117046428D01*
X161774000Y-117141666D01*
X161821619Y-117189285D01*
X161916857Y-117236904D01*
X162154952Y-117236904D01*
X162250190Y-117189285D01*
X162297809Y-117141666D01*
X162345428Y-117046428D01*
X162345428Y-116855952D01*
X162297809Y-116760714D01*
X162250190Y-116713095D01*
X162154952Y-116665476D01*
%TO.C,R21*%
X127373142Y-125547380D02*
X127039809Y-125071190D01*
X126801714Y-125547380D02*
X126801714Y-124547380D01*
X127182666Y-124547380D01*
X127277904Y-124595000D01*
X127325523Y-124642619D01*
X127373142Y-124737857D01*
X127373142Y-124880714D01*
X127325523Y-124975952D01*
X127277904Y-125023571D01*
X127182666Y-125071190D01*
X126801714Y-125071190D01*
X127754095Y-124642619D02*
X127801714Y-124595000D01*
X127896952Y-124547380D01*
X128135047Y-124547380D01*
X128230285Y-124595000D01*
X128277904Y-124642619D01*
X128325523Y-124737857D01*
X128325523Y-124833095D01*
X128277904Y-124975952D01*
X127706476Y-125547380D01*
X128325523Y-125547380D01*
X129277904Y-125547380D02*
X128706476Y-125547380D01*
X128992190Y-125547380D02*
X128992190Y-124547380D01*
X128896952Y-124690238D01*
X128801714Y-124785476D01*
X128706476Y-124833095D01*
%TO.C,D1*%
X133373904Y-72842380D02*
X133373904Y-71842380D01*
X133612000Y-71842380D01*
X133754857Y-71890000D01*
X133850095Y-71985238D01*
X133897714Y-72080476D01*
X133945333Y-72270952D01*
X133945333Y-72413809D01*
X133897714Y-72604285D01*
X133850095Y-72699523D01*
X133754857Y-72794761D01*
X133612000Y-72842380D01*
X133373904Y-72842380D01*
X134897714Y-72842380D02*
X134326285Y-72842380D01*
X134612000Y-72842380D02*
X134612000Y-71842380D01*
X134516761Y-71985238D01*
X134421523Y-72080476D01*
X134326285Y-72128095D01*
%TO.C,R11*%
X179616380Y-125737857D02*
X179140190Y-126071190D01*
X179616380Y-126309285D02*
X178616380Y-126309285D01*
X178616380Y-125928333D01*
X178664000Y-125833095D01*
X178711619Y-125785476D01*
X178806857Y-125737857D01*
X178949714Y-125737857D01*
X179044952Y-125785476D01*
X179092571Y-125833095D01*
X179140190Y-125928333D01*
X179140190Y-126309285D01*
X179616380Y-124785476D02*
X179616380Y-125356904D01*
X179616380Y-125071190D02*
X178616380Y-125071190D01*
X178759238Y-125166428D01*
X178854476Y-125261666D01*
X178902095Y-125356904D01*
X179616380Y-123833095D02*
X179616380Y-124404523D01*
X179616380Y-124118809D02*
X178616380Y-124118809D01*
X178759238Y-124214047D01*
X178854476Y-124309285D01*
X178902095Y-124404523D01*
%TO.C,D14*%
X133610380Y-81224285D02*
X132610380Y-81224285D01*
X132610380Y-80986190D01*
X132658000Y-80843333D01*
X132753238Y-80748095D01*
X132848476Y-80700476D01*
X133038952Y-80652857D01*
X133181809Y-80652857D01*
X133372285Y-80700476D01*
X133467523Y-80748095D01*
X133562761Y-80843333D01*
X133610380Y-80986190D01*
X133610380Y-81224285D01*
X133610380Y-79700476D02*
X133610380Y-80271904D01*
X133610380Y-79986190D02*
X132610380Y-79986190D01*
X132753238Y-80081428D01*
X132848476Y-80176666D01*
X132896095Y-80271904D01*
X132943714Y-78843333D02*
X133610380Y-78843333D01*
X132562761Y-79081428D02*
X133277047Y-79319523D01*
X133277047Y-78700476D01*
%TO.C,R4*%
X155281333Y-113355380D02*
X154948000Y-112879190D01*
X154709904Y-113355380D02*
X154709904Y-112355380D01*
X155090857Y-112355380D01*
X155186095Y-112403000D01*
X155233714Y-112450619D01*
X155281333Y-112545857D01*
X155281333Y-112688714D01*
X155233714Y-112783952D01*
X155186095Y-112831571D01*
X155090857Y-112879190D01*
X154709904Y-112879190D01*
X156138476Y-112688714D02*
X156138476Y-113355380D01*
X155900380Y-112307761D02*
X155662285Y-113022047D01*
X156281333Y-113022047D01*
%TO.C,U2*%
X120516380Y-60158380D02*
X120706857Y-60158380D01*
X120802095Y-60206000D01*
X120897333Y-60301238D01*
X120944952Y-60491714D01*
X120944952Y-60825047D01*
X120897333Y-61015523D01*
X120802095Y-61110761D01*
X120706857Y-61158380D01*
X120516380Y-61158380D01*
X120421142Y-61110761D01*
X120325904Y-61015523D01*
X120278285Y-60825047D01*
X120278285Y-60491714D01*
X120325904Y-60301238D01*
X120421142Y-60206000D01*
X120516380Y-60158380D01*
X121373523Y-61158380D02*
X121373523Y-60158380D01*
X121944952Y-61158380D02*
X121516380Y-60586952D01*
X121944952Y-60158380D02*
X121373523Y-60729809D01*
X122373523Y-61158380D02*
X122373523Y-60158380D01*
X122849714Y-60777428D02*
X123611619Y-60777428D01*
X123992571Y-60158380D02*
X124659238Y-60158380D01*
X124230666Y-61158380D01*
X125183047Y-60586952D02*
X125087809Y-60539333D01*
X125040190Y-60491714D01*
X124992571Y-60396476D01*
X124992571Y-60348857D01*
X125040190Y-60253619D01*
X125087809Y-60206000D01*
X125183047Y-60158380D01*
X125373523Y-60158380D01*
X125468761Y-60206000D01*
X125516380Y-60253619D01*
X125564000Y-60348857D01*
X125564000Y-60396476D01*
X125516380Y-60491714D01*
X125468761Y-60539333D01*
X125373523Y-60586952D01*
X125183047Y-60586952D01*
X125087809Y-60634571D01*
X125040190Y-60682190D01*
X124992571Y-60777428D01*
X124992571Y-60967904D01*
X125040190Y-61063142D01*
X125087809Y-61110761D01*
X125183047Y-61158380D01*
X125373523Y-61158380D01*
X125468761Y-61110761D01*
X125516380Y-61063142D01*
X125564000Y-60967904D01*
X125564000Y-60777428D01*
X125516380Y-60682190D01*
X125468761Y-60634571D01*
X125373523Y-60586952D01*
X125944952Y-61110761D02*
X126087809Y-61158380D01*
X126325904Y-61158380D01*
X126421142Y-61110761D01*
X126468761Y-61063142D01*
X126516380Y-60967904D01*
X126516380Y-60872666D01*
X126468761Y-60777428D01*
X126421142Y-60729809D01*
X126325904Y-60682190D01*
X126135428Y-60634571D01*
X126040190Y-60586952D01*
X125992571Y-60539333D01*
X125944952Y-60444095D01*
X125944952Y-60348857D01*
X125992571Y-60253619D01*
X126040190Y-60206000D01*
X126135428Y-60158380D01*
X126373523Y-60158380D01*
X126516380Y-60206000D01*
X127516380Y-61158380D02*
X127183047Y-60682190D01*
X126944952Y-61158380D02*
X126944952Y-60158380D01*
X127325904Y-60158380D01*
X127421142Y-60206000D01*
X127468761Y-60253619D01*
X127516380Y-60348857D01*
X127516380Y-60491714D01*
X127468761Y-60586952D01*
X127421142Y-60634571D01*
X127325904Y-60682190D01*
X126944952Y-60682190D01*
X127944952Y-60777428D02*
X128706857Y-60777428D01*
X129087809Y-60158380D02*
X129706857Y-60158380D01*
X129373523Y-60539333D01*
X129516380Y-60539333D01*
X129611619Y-60586952D01*
X129659238Y-60634571D01*
X129706857Y-60729809D01*
X129706857Y-60967904D01*
X129659238Y-61063142D01*
X129611619Y-61110761D01*
X129516380Y-61158380D01*
X129230666Y-61158380D01*
X129135428Y-61110761D01*
X129087809Y-61063142D01*
X130135428Y-61063142D02*
X130183047Y-61110761D01*
X130135428Y-61158380D01*
X130087809Y-61110761D01*
X130135428Y-61063142D01*
X130135428Y-61158380D01*
X130516380Y-60158380D02*
X131135428Y-60158380D01*
X130802095Y-60539333D01*
X130944952Y-60539333D01*
X131040190Y-60586952D01*
X131087809Y-60634571D01*
X131135428Y-60729809D01*
X131135428Y-60967904D01*
X131087809Y-61063142D01*
X131040190Y-61110761D01*
X130944952Y-61158380D01*
X130659238Y-61158380D01*
X130564000Y-61110761D01*
X130516380Y-61063142D01*
X131325904Y-61253619D02*
X132087809Y-61253619D01*
X132849714Y-61158380D02*
X132278285Y-61158380D01*
X132564000Y-61158380D02*
X132564000Y-60158380D01*
X132468761Y-60301238D01*
X132373523Y-60396476D01*
X132278285Y-60444095D01*
X133278285Y-61063142D02*
X133325904Y-61110761D01*
X133278285Y-61158380D01*
X133230666Y-61110761D01*
X133278285Y-61063142D01*
X133278285Y-61158380D01*
X134230666Y-60158380D02*
X133754476Y-60158380D01*
X133706857Y-60634571D01*
X133754476Y-60586952D01*
X133849714Y-60539333D01*
X134087809Y-60539333D01*
X134183047Y-60586952D01*
X134230666Y-60634571D01*
X134278285Y-60729809D01*
X134278285Y-60967904D01*
X134230666Y-61063142D01*
X134183047Y-61110761D01*
X134087809Y-61158380D01*
X133849714Y-61158380D01*
X133754476Y-61110761D01*
X133706857Y-61063142D01*
X134706857Y-60777428D02*
X135468761Y-60777428D01*
X135849714Y-60158380D02*
X136087809Y-61158380D01*
X136278285Y-60444095D01*
X136468761Y-61158380D01*
X136706857Y-60158380D01*
X136992571Y-60158380D02*
X137611619Y-60158380D01*
X137278285Y-60539333D01*
X137421142Y-60539333D01*
X137516380Y-60586952D01*
X137564000Y-60634571D01*
X137611619Y-60729809D01*
X137611619Y-60967904D01*
X137564000Y-61063142D01*
X137516380Y-61110761D01*
X137421142Y-61158380D01*
X137135428Y-61158380D01*
X137040190Y-61110761D01*
X136992571Y-61063142D01*
X138468761Y-60158380D02*
X138278285Y-60158380D01*
X138183047Y-60206000D01*
X138135428Y-60253619D01*
X138040190Y-60396476D01*
X137992571Y-60586952D01*
X137992571Y-60967904D01*
X138040190Y-61063142D01*
X138087809Y-61110761D01*
X138183047Y-61158380D01*
X138373523Y-61158380D01*
X138468761Y-61110761D01*
X138516380Y-61063142D01*
X138564000Y-60967904D01*
X138564000Y-60729809D01*
X138516380Y-60634571D01*
X138468761Y-60586952D01*
X138373523Y-60539333D01*
X138183047Y-60539333D01*
X138087809Y-60586952D01*
X138040190Y-60634571D01*
X137992571Y-60729809D01*
X138992571Y-61158380D02*
X138992571Y-60158380D01*
X138992571Y-60634571D02*
X139564000Y-60634571D01*
X139564000Y-61158380D02*
X139564000Y-60158380D01*
X140040190Y-60777428D02*
X140802095Y-60777428D01*
X141849714Y-61063142D02*
X141802095Y-61110761D01*
X141659238Y-61158380D01*
X141564000Y-61158380D01*
X141421142Y-61110761D01*
X141325904Y-61015523D01*
X141278285Y-60920285D01*
X141230666Y-60729809D01*
X141230666Y-60586952D01*
X141278285Y-60396476D01*
X141325904Y-60301238D01*
X141421142Y-60206000D01*
X141564000Y-60158380D01*
X141659238Y-60158380D01*
X141802095Y-60206000D01*
X141849714Y-60253619D01*
%TO.C,J2*%
X191476380Y-74093333D02*
X192190666Y-74093333D01*
X192333523Y-74140952D01*
X192428761Y-74236190D01*
X192476380Y-74379047D01*
X192476380Y-74474285D01*
X191571619Y-73664761D02*
X191524000Y-73617142D01*
X191476380Y-73521904D01*
X191476380Y-73283809D01*
X191524000Y-73188571D01*
X191571619Y-73140952D01*
X191666857Y-73093333D01*
X191762095Y-73093333D01*
X191904952Y-73140952D01*
X192476380Y-73712380D01*
X192476380Y-73093333D01*
%TO.C,R31*%
X124593380Y-119373857D02*
X124117190Y-119707190D01*
X124593380Y-119945285D02*
X123593380Y-119945285D01*
X123593380Y-119564333D01*
X123641000Y-119469095D01*
X123688619Y-119421476D01*
X123783857Y-119373857D01*
X123926714Y-119373857D01*
X124021952Y-119421476D01*
X124069571Y-119469095D01*
X124117190Y-119564333D01*
X124117190Y-119945285D01*
X123593380Y-119040523D02*
X123593380Y-118421476D01*
X123974333Y-118754809D01*
X123974333Y-118611952D01*
X124021952Y-118516714D01*
X124069571Y-118469095D01*
X124164809Y-118421476D01*
X124402904Y-118421476D01*
X124498142Y-118469095D01*
X124545761Y-118516714D01*
X124593380Y-118611952D01*
X124593380Y-118897666D01*
X124545761Y-118992904D01*
X124498142Y-119040523D01*
X124593380Y-117469095D02*
X124593380Y-118040523D01*
X124593380Y-117754809D02*
X123593380Y-117754809D01*
X123736238Y-117850047D01*
X123831476Y-117945285D01*
X123879095Y-118040523D01*
%TO.C,U6*%
X130070380Y-113791904D02*
X130879904Y-113791904D01*
X130975142Y-113744285D01*
X131022761Y-113696666D01*
X131070380Y-113601428D01*
X131070380Y-113410952D01*
X131022761Y-113315714D01*
X130975142Y-113268095D01*
X130879904Y-113220476D01*
X130070380Y-113220476D01*
X130070380Y-112315714D02*
X130070380Y-112506190D01*
X130118000Y-112601428D01*
X130165619Y-112649047D01*
X130308476Y-112744285D01*
X130498952Y-112791904D01*
X130879904Y-112791904D01*
X130975142Y-112744285D01*
X131022761Y-112696666D01*
X131070380Y-112601428D01*
X131070380Y-112410952D01*
X131022761Y-112315714D01*
X130975142Y-112268095D01*
X130879904Y-112220476D01*
X130641809Y-112220476D01*
X130546571Y-112268095D01*
X130498952Y-112315714D01*
X130451333Y-112410952D01*
X130451333Y-112601428D01*
X130498952Y-112696666D01*
X130546571Y-112744285D01*
X130641809Y-112791904D01*
%TO.C,C1*%
X168691833Y-57472142D02*
X168644214Y-57519761D01*
X168501357Y-57567380D01*
X168406119Y-57567380D01*
X168263261Y-57519761D01*
X168168023Y-57424523D01*
X168120404Y-57329285D01*
X168072785Y-57138809D01*
X168072785Y-56995952D01*
X168120404Y-56805476D01*
X168168023Y-56710238D01*
X168263261Y-56615000D01*
X168406119Y-56567380D01*
X168501357Y-56567380D01*
X168644214Y-56615000D01*
X168691833Y-56662619D01*
X169644214Y-57567380D02*
X169072785Y-57567380D01*
X169358500Y-57567380D02*
X169358500Y-56567380D01*
X169263261Y-56710238D01*
X169168023Y-56805476D01*
X169072785Y-56853095D01*
%TO.C,R7*%
X177457380Y-82462666D02*
X176981190Y-82796000D01*
X177457380Y-83034095D02*
X176457380Y-83034095D01*
X176457380Y-82653142D01*
X176505000Y-82557904D01*
X176552619Y-82510285D01*
X176647857Y-82462666D01*
X176790714Y-82462666D01*
X176885952Y-82510285D01*
X176933571Y-82557904D01*
X176981190Y-82653142D01*
X176981190Y-83034095D01*
X176457380Y-82129333D02*
X176457380Y-81462666D01*
X177457380Y-81891238D01*
%TO.C,U7*%
X123085380Y-80771904D02*
X123894904Y-80771904D01*
X123990142Y-80724285D01*
X124037761Y-80676666D01*
X124085380Y-80581428D01*
X124085380Y-80390952D01*
X124037761Y-80295714D01*
X123990142Y-80248095D01*
X123894904Y-80200476D01*
X123085380Y-80200476D01*
X123085380Y-79819523D02*
X123085380Y-79152857D01*
X124085380Y-79581428D01*
%TO.C,Q2*%
X130587761Y-106817619D02*
X130492523Y-106770000D01*
X130397285Y-106674761D01*
X130254428Y-106531904D01*
X130159190Y-106484285D01*
X130063952Y-106484285D01*
X130111571Y-106722380D02*
X130016333Y-106674761D01*
X129921095Y-106579523D01*
X129873476Y-106389047D01*
X129873476Y-106055714D01*
X129921095Y-105865238D01*
X130016333Y-105770000D01*
X130111571Y-105722380D01*
X130302047Y-105722380D01*
X130397285Y-105770000D01*
X130492523Y-105865238D01*
X130540142Y-106055714D01*
X130540142Y-106389047D01*
X130492523Y-106579523D01*
X130397285Y-106674761D01*
X130302047Y-106722380D01*
X130111571Y-106722380D01*
X130921095Y-105817619D02*
X130968714Y-105770000D01*
X131063952Y-105722380D01*
X131302047Y-105722380D01*
X131397285Y-105770000D01*
X131444904Y-105817619D01*
X131492523Y-105912857D01*
X131492523Y-106008095D01*
X131444904Y-106150952D01*
X130873476Y-106722380D01*
X131492523Y-106722380D01*
D11*
%TO.C,Conn4*%
X102342571Y-102781238D02*
X102403047Y-102841714D01*
X102463523Y-103023142D01*
X102463523Y-103144095D01*
X102403047Y-103325523D01*
X102282095Y-103446476D01*
X102161142Y-103506952D01*
X101919238Y-103567428D01*
X101737809Y-103567428D01*
X101495904Y-103506952D01*
X101374952Y-103446476D01*
X101254000Y-103325523D01*
X101193523Y-103144095D01*
X101193523Y-103023142D01*
X101254000Y-102841714D01*
X101314476Y-102781238D01*
X102463523Y-102055523D02*
X102403047Y-102176476D01*
X102342571Y-102236952D01*
X102221619Y-102297428D01*
X101858761Y-102297428D01*
X101737809Y-102236952D01*
X101677333Y-102176476D01*
X101616857Y-102055523D01*
X101616857Y-101874095D01*
X101677333Y-101753142D01*
X101737809Y-101692666D01*
X101858761Y-101632190D01*
X102221619Y-101632190D01*
X102342571Y-101692666D01*
X102403047Y-101753142D01*
X102463523Y-101874095D01*
X102463523Y-102055523D01*
X101616857Y-101087904D02*
X102463523Y-101087904D01*
X101737809Y-101087904D02*
X101677333Y-101027428D01*
X101616857Y-100906476D01*
X101616857Y-100725047D01*
X101677333Y-100604095D01*
X101798285Y-100543619D01*
X102463523Y-100543619D01*
X101616857Y-99938857D02*
X102463523Y-99938857D01*
X101737809Y-99938857D02*
X101677333Y-99878380D01*
X101616857Y-99757428D01*
X101616857Y-99576000D01*
X101677333Y-99455047D01*
X101798285Y-99394571D01*
X102463523Y-99394571D01*
X101616857Y-98245523D02*
X102463523Y-98245523D01*
X101133047Y-98547904D02*
X102040190Y-98850285D01*
X102040190Y-98064095D01*
D10*
%TO.C,D17*%
X120594380Y-127071285D02*
X119594380Y-127071285D01*
X119594380Y-126833190D01*
X119642000Y-126690333D01*
X119737238Y-126595095D01*
X119832476Y-126547476D01*
X120022952Y-126499857D01*
X120165809Y-126499857D01*
X120356285Y-126547476D01*
X120451523Y-126595095D01*
X120546761Y-126690333D01*
X120594380Y-126833190D01*
X120594380Y-127071285D01*
X120594380Y-125547476D02*
X120594380Y-126118904D01*
X120594380Y-125833190D02*
X119594380Y-125833190D01*
X119737238Y-125928428D01*
X119832476Y-126023666D01*
X119880095Y-126118904D01*
X119594380Y-125214142D02*
X119594380Y-124547476D01*
X120594380Y-124976047D01*
%TO.C,J1*%
X168814666Y-72572380D02*
X168814666Y-73286666D01*
X168767047Y-73429523D01*
X168671809Y-73524761D01*
X168528952Y-73572380D01*
X168433714Y-73572380D01*
X169814666Y-73572380D02*
X169243238Y-73572380D01*
X169528952Y-73572380D02*
X169528952Y-72572380D01*
X169433714Y-72715238D01*
X169338476Y-72810476D01*
X169243238Y-72858095D01*
%TO.C,R3*%
X142581333Y-112720380D02*
X142248000Y-112244190D01*
X142009904Y-112720380D02*
X142009904Y-111720380D01*
X142390857Y-111720380D01*
X142486095Y-111768000D01*
X142533714Y-111815619D01*
X142581333Y-111910857D01*
X142581333Y-112053714D01*
X142533714Y-112148952D01*
X142486095Y-112196571D01*
X142390857Y-112244190D01*
X142009904Y-112244190D01*
X142914666Y-111720380D02*
X143533714Y-111720380D01*
X143200380Y-112101333D01*
X143343238Y-112101333D01*
X143438476Y-112148952D01*
X143486095Y-112196571D01*
X143533714Y-112291809D01*
X143533714Y-112529904D01*
X143486095Y-112625142D01*
X143438476Y-112672761D01*
X143343238Y-112720380D01*
X143057523Y-112720380D01*
X142962285Y-112672761D01*
X142914666Y-112625142D01*
%TO.C,Q5*%
X158757619Y-117697238D02*
X158710000Y-117792476D01*
X158614761Y-117887714D01*
X158471904Y-118030571D01*
X158424285Y-118125809D01*
X158424285Y-118221047D01*
X158662380Y-118173428D02*
X158614761Y-118268666D01*
X158519523Y-118363904D01*
X158329047Y-118411523D01*
X157995714Y-118411523D01*
X157805238Y-118363904D01*
X157710000Y-118268666D01*
X157662380Y-118173428D01*
X157662380Y-117982952D01*
X157710000Y-117887714D01*
X157805238Y-117792476D01*
X157995714Y-117744857D01*
X158329047Y-117744857D01*
X158519523Y-117792476D01*
X158614761Y-117887714D01*
X158662380Y-117982952D01*
X158662380Y-118173428D01*
X157662380Y-116840095D02*
X157662380Y-117316285D01*
X158138571Y-117363904D01*
X158090952Y-117316285D01*
X158043333Y-117221047D01*
X158043333Y-116982952D01*
X158090952Y-116887714D01*
X158138571Y-116840095D01*
X158233809Y-116792476D01*
X158471904Y-116792476D01*
X158567142Y-116840095D01*
X158614761Y-116887714D01*
X158662380Y-116982952D01*
X158662380Y-117221047D01*
X158614761Y-117316285D01*
X158567142Y-117363904D01*
D12*
%TO.C,U3*%
X142240000Y-48768000D02*
X160020000Y-48768000D01*
X147100000Y-109728000D02*
X147100000Y-110428000D01*
X155160000Y-109728000D02*
X155160000Y-110428000D01*
X142240000Y-109728000D02*
X142240000Y-48768000D01*
X142240000Y-109728000D02*
X147100000Y-109728000D01*
X160020000Y-48768000D02*
X160020000Y-109728000D01*
X155160000Y-110428000D02*
X147100000Y-110428000D01*
X160020000Y-109728000D02*
X155160000Y-109728000D01*
D13*
X160730000Y-103378000D02*
G75*
G03*
X160730000Y-103378000I-100000J0D01*
G01*
D14*
%TO.C,D9*%
X140072000Y-125703000D02*
X142532000Y-125703000D01*
X140072000Y-124233000D02*
X140072000Y-125703000D01*
X142532000Y-124233000D02*
X140072000Y-124233000D01*
%TO.C,C9*%
X130743000Y-96031267D02*
X130743000Y-95738733D01*
X131763000Y-96031267D02*
X131763000Y-95738733D01*
%TO.C,R27*%
X112521276Y-127141500D02*
X113030724Y-127141500D01*
X112521276Y-126096500D02*
X113030724Y-126096500D01*
D10*
%TO.C,Conn10*%
X169418000Y-127635000D02*
X182118000Y-127635000D01*
X169418000Y-130175000D02*
X167513000Y-130175000D01*
X184023000Y-142113000D02*
X167513000Y-142113000D01*
X177038000Y-136525000D02*
X177038000Y-133985000D01*
X179578000Y-137795000D02*
X179578000Y-136525000D01*
X182118000Y-127635000D02*
X182118000Y-130175000D01*
X171958000Y-137795000D02*
X171958000Y-141605000D01*
X171958000Y-141605000D02*
X171958000Y-142113000D01*
X184023000Y-130175000D02*
X184023000Y-142113000D01*
X169418000Y-130175000D02*
X169418000Y-127635000D01*
X179578000Y-142113000D02*
X179578000Y-141605000D01*
X177038000Y-133985000D02*
X174498000Y-133985000D01*
X182118000Y-130175000D02*
X169418000Y-130175000D01*
X179578000Y-136525000D02*
X171958000Y-136525000D01*
X179578000Y-137795000D02*
X179578000Y-141605000D01*
X182118000Y-130175000D02*
X184023000Y-130175000D01*
X167513000Y-130175000D02*
X167513000Y-142113000D01*
X171958000Y-136525000D02*
X171958000Y-137795000D01*
X174498000Y-133985000D02*
X174498000Y-136525000D01*
D14*
%TO.C,R30*%
X132333276Y-98537500D02*
X132842724Y-98537500D01*
X132333276Y-99582500D02*
X132842724Y-99582500D01*
D10*
%TO.C,Conn12*%
X188468000Y-93218000D02*
X188468000Y-90678000D01*
X182118000Y-97663000D02*
X194056000Y-97663000D01*
X182118000Y-95758000D02*
X179578000Y-95758000D01*
X189738000Y-90678000D02*
X188468000Y-90678000D01*
X182118000Y-97663000D02*
X182118000Y-88138000D01*
X182118000Y-88138000D02*
X182118000Y-86233000D01*
X194056000Y-93218000D02*
X188468000Y-93218000D01*
X194056000Y-97663000D02*
X194056000Y-86233000D01*
X189738000Y-90678000D02*
X193548000Y-90678000D01*
X182118000Y-86233000D02*
X194056000Y-86233000D01*
X194056000Y-90678000D02*
X193548000Y-90678000D01*
X179578000Y-95758000D02*
X179578000Y-88138000D01*
X179578000Y-88138000D02*
X182118000Y-88138000D01*
D14*
%TO.C,R19*%
X169432500Y-125349724D02*
X169432500Y-124840276D01*
X168387500Y-125349724D02*
X168387500Y-124840276D01*
%TO.C,R5*%
X173228724Y-117362500D02*
X172719276Y-117362500D01*
X173228724Y-116317500D02*
X172719276Y-116317500D01*
%TO.C,C4*%
X120652000Y-53701733D02*
X120652000Y-53994267D01*
X119632000Y-53701733D02*
X119632000Y-53994267D01*
%TO.C,Q8*%
X147474000Y-118313500D02*
X146804000Y-118313500D01*
X145804000Y-118313500D02*
X145144000Y-118313500D01*
X145144000Y-116903500D02*
X145144000Y-118313500D01*
X147464000Y-118313500D02*
X147464000Y-115578500D01*
%TO.C,D12*%
X126073000Y-72635000D02*
X126073000Y-75095000D01*
X127543000Y-75095000D02*
X127543000Y-72635000D01*
X127543000Y-72635000D02*
X126073000Y-72635000D01*
%TO.C,R17*%
X145781500Y-122278224D02*
X145781500Y-121768776D01*
X146826500Y-122278224D02*
X146826500Y-121768776D01*
%TO.C,R23*%
X154939276Y-127268500D02*
X155448724Y-127268500D01*
X154939276Y-126223500D02*
X155448724Y-126223500D01*
%TO.C,R9*%
X141971500Y-122301724D02*
X141971500Y-121792276D01*
X143016500Y-122301724D02*
X143016500Y-121792276D01*
%TO.C,Q6*%
X174134000Y-121385000D02*
X174134000Y-118650000D01*
X174144000Y-121385000D02*
X173474000Y-121385000D01*
X172474000Y-121385000D02*
X171814000Y-121385000D01*
X171814000Y-119975000D02*
X171814000Y-121385000D01*
%TO.C,R26*%
X123951276Y-126096500D02*
X124460724Y-126096500D01*
X123951276Y-127141500D02*
X124460724Y-127141500D01*
%TO.C,R8*%
X112522724Y-101106500D02*
X112013276Y-101106500D01*
X112522724Y-100061500D02*
X112013276Y-100061500D01*
D10*
%TO.C,Conn13*%
X119253000Y-142113000D02*
X105283000Y-142113000D01*
X107188000Y-130175000D02*
X107188000Y-127635000D01*
X107188000Y-127635000D02*
X117348000Y-127635000D01*
X114808000Y-142113000D02*
X114808000Y-141605000D01*
X114808000Y-137795000D02*
X114808000Y-141605000D01*
X105283000Y-130175000D02*
X105283000Y-142113000D01*
X114808000Y-137795000D02*
X114808000Y-136525000D01*
X110998000Y-133985000D02*
X113538000Y-133985000D01*
X113538000Y-136525000D02*
X113538000Y-133985000D01*
X117348000Y-127635000D02*
X117348000Y-130175000D01*
X117348000Y-130175000D02*
X119253000Y-130175000D01*
X119253000Y-130175000D02*
X119253000Y-142113000D01*
X109728000Y-142113000D02*
X109728000Y-136525000D01*
X110998000Y-136525000D02*
X110998000Y-133985000D01*
X114808000Y-136525000D02*
X109728000Y-136525000D01*
X117348000Y-130175000D02*
X105283000Y-130175000D01*
D14*
%TO.C,D4*%
X179170000Y-77080000D02*
X177700000Y-77080000D01*
X177700000Y-77080000D02*
X177700000Y-79540000D01*
X179170000Y-79540000D02*
X179170000Y-77080000D01*
%TO.C,R32*%
X125425500Y-74040276D02*
X125425500Y-74549724D01*
X124380500Y-74040276D02*
X124380500Y-74549724D01*
%TO.C,C8*%
X126026733Y-107440000D02*
X126319267Y-107440000D01*
X126026733Y-108460000D02*
X126319267Y-108460000D01*
%TO.C,D3*%
X117484000Y-102897000D02*
X115024000Y-102897000D01*
X117484000Y-104367000D02*
X117484000Y-102897000D01*
X115024000Y-104367000D02*
X117484000Y-104367000D01*
%TO.C,R25*%
X140716724Y-127268500D02*
X140207276Y-127268500D01*
X140716724Y-126223500D02*
X140207276Y-126223500D01*
D10*
%TO.C,Conn2*%
X179705000Y-100584000D02*
X182245000Y-100584000D01*
X182245000Y-108204000D02*
X179705000Y-108204000D01*
X182245000Y-98679000D02*
X194183000Y-98679000D01*
X189865000Y-103124000D02*
X188595000Y-103124000D01*
X182245000Y-110109000D02*
X194183000Y-110109000D01*
X179705000Y-108204000D02*
X179705000Y-100584000D01*
X189865000Y-103124000D02*
X193675000Y-103124000D01*
X194183000Y-110109000D02*
X194183000Y-98679000D01*
X194183000Y-105664000D02*
X188595000Y-105664000D01*
X188595000Y-105664000D02*
X188595000Y-103124000D01*
X182245000Y-100584000D02*
X182245000Y-98679000D01*
X194183000Y-103124000D02*
X193675000Y-103124000D01*
X182245000Y-110109000D02*
X182245000Y-100584000D01*
%TO.C,Conn5*%
X95383400Y-73321000D02*
X94164200Y-73321000D01*
X98812400Y-81195000D02*
X111106000Y-81195000D01*
X98787000Y-73321000D02*
X97694800Y-73321000D01*
X98812400Y-81195000D02*
X97669400Y-81195000D01*
X94215000Y-89069000D02*
X95383400Y-89069000D01*
X86468000Y-73321000D02*
X86468000Y-89069000D01*
X96526400Y-78909000D02*
X96526400Y-75632400D01*
X86493400Y-73321000D02*
X94240400Y-73321000D01*
X96526400Y-83481000D02*
X96526400Y-82338000D01*
X96526400Y-78909000D02*
X96526400Y-80052000D01*
X94240400Y-89069000D02*
X86493400Y-89069000D01*
X96526400Y-83481000D02*
X96526400Y-86783000D01*
X98812400Y-73321000D02*
X111106000Y-73321000D01*
X111106000Y-73321000D02*
X111106000Y-89069000D01*
X98812400Y-89069000D02*
X111106000Y-89069000D01*
X98837800Y-89069000D02*
X97644000Y-89069000D01*
X86493400Y-81169600D02*
X95383400Y-81169600D01*
X96526400Y-74464000D02*
X96526400Y-75632400D01*
X96526400Y-86757600D02*
X96526400Y-87926000D01*
X96526400Y-74464000D02*
G75*
G03*
X97669400Y-73321000I0J1143000D01*
G01*
X96526400Y-87951400D02*
G75*
G03*
X95408800Y-89069000I-2J-1117598D01*
G01*
X95383400Y-73321000D02*
G75*
G03*
X96526400Y-74464000I1143000J0D01*
G01*
X97644000Y-89069000D02*
G75*
G03*
X96526400Y-87951400I-1117598J2D01*
G01*
X97669400Y-81195000D02*
G75*
G03*
X97669400Y-81195000I-1143000J0D01*
G01*
D14*
%TO.C,R24*%
X144780724Y-127268500D02*
X144271276Y-127268500D01*
X144780724Y-126223500D02*
X144271276Y-126223500D01*
%TO.C,R2*%
X121270500Y-52577276D02*
X121270500Y-53086724D01*
X122315500Y-52577276D02*
X122315500Y-53086724D01*
%TO.C,R18*%
X159751500Y-122174724D02*
X159751500Y-121665276D01*
X160796500Y-122174724D02*
X160796500Y-121665276D01*
%TO.C,Q3*%
X122998000Y-92730000D02*
X126448000Y-92730000D01*
X122998000Y-87610000D02*
X121048000Y-87610000D01*
X122998000Y-92730000D02*
X121048000Y-92730000D01*
X122998000Y-87610000D02*
X124948000Y-87610000D01*
%TO.C,R14*%
X146558724Y-113246000D02*
X146049276Y-113246000D01*
X146558724Y-114291000D02*
X146049276Y-114291000D01*
%TO.C,Q11*%
X130618000Y-92730000D02*
X134068000Y-92730000D01*
X130618000Y-92730000D02*
X128668000Y-92730000D01*
X130618000Y-87610000D02*
X132568000Y-87610000D01*
X130618000Y-87610000D02*
X128668000Y-87610000D01*
%TO.C,Q1*%
X123063000Y-100310000D02*
X125013000Y-100310000D01*
X123063000Y-105430000D02*
X126513000Y-105430000D01*
X123063000Y-100310000D02*
X121113000Y-100310000D01*
X123063000Y-105430000D02*
X121113000Y-105430000D01*
%TO.C,R35*%
X108711276Y-126096500D02*
X109220724Y-126096500D01*
X108711276Y-127141500D02*
X109220724Y-127141500D01*
%TO.C,D7*%
X153135000Y-124070000D02*
X151665000Y-124070000D01*
X151665000Y-124070000D02*
X151665000Y-126530000D01*
X153135000Y-126530000D02*
X153135000Y-124070000D01*
%TO.C,R34*%
X132268276Y-85837500D02*
X132777724Y-85837500D01*
X132268276Y-86882500D02*
X132777724Y-86882500D01*
%TO.C,D6*%
X162533000Y-124070000D02*
X161063000Y-124070000D01*
X162533000Y-126530000D02*
X162533000Y-124070000D01*
X161063000Y-124070000D02*
X161063000Y-126530000D01*
%TO.C,R13*%
X176515500Y-125349724D02*
X176515500Y-124840276D01*
X177560500Y-125349724D02*
X177560500Y-124840276D01*
%TO.C,R22*%
X159258724Y-126223500D02*
X158749276Y-126223500D01*
X159258724Y-127268500D02*
X158749276Y-127268500D01*
%TO.C,D13*%
X126773000Y-120391000D02*
X128243000Y-120391000D01*
X126773000Y-117931000D02*
X126773000Y-120391000D01*
X128243000Y-120391000D02*
X128243000Y-117931000D01*
%TO.C,R6*%
X112522724Y-104154500D02*
X112013276Y-104154500D01*
X112522724Y-103109500D02*
X112013276Y-103109500D01*
D10*
%TO.C,V3*%
X192994283Y-137160000D02*
G75*
G03*
X192994283Y-137160000I-4018283J0D01*
G01*
D14*
%TO.C,R20*%
X112776724Y-94219500D02*
X112267276Y-94219500D01*
X112776724Y-95264500D02*
X112267276Y-95264500D01*
%TO.C,D8*%
X146266000Y-125703000D02*
X148726000Y-125703000D01*
X148726000Y-125703000D02*
X148726000Y-124233000D01*
X148726000Y-124233000D02*
X146266000Y-124233000D01*
D10*
%TO.C,V2*%
X192994283Y-50800000D02*
G75*
G03*
X192994283Y-50800000I-4018283J0D01*
G01*
D14*
%TO.C,D10*%
X115278000Y-98525000D02*
X117738000Y-98525000D01*
X117738000Y-98525000D02*
X117738000Y-97055000D01*
X117738000Y-97055000D02*
X115278000Y-97055000D01*
%TO.C,R16*%
X169164724Y-117362500D02*
X168655276Y-117362500D01*
X169164724Y-116317500D02*
X168655276Y-116317500D01*
%TO.C,R12*%
X177292724Y-116317500D02*
X176783276Y-116317500D01*
X177292724Y-117362500D02*
X176783276Y-117362500D01*
%TO.C,Q4*%
X141994000Y-118337000D02*
X141334000Y-118337000D01*
X143654000Y-118337000D02*
X143654000Y-115602000D01*
X143664000Y-118337000D02*
X142994000Y-118337000D01*
X141334000Y-116927000D02*
X141334000Y-118337000D01*
%TO.C,D15*%
X115278000Y-95477000D02*
X117738000Y-95477000D01*
X117738000Y-94007000D02*
X115278000Y-94007000D01*
X117738000Y-95477000D02*
X117738000Y-94007000D01*
%TO.C,D11*%
X123733000Y-113830000D02*
X123733000Y-111370000D01*
X122263000Y-111370000D02*
X122263000Y-113830000D01*
X123733000Y-111370000D02*
X122263000Y-111370000D01*
%TO.C,R1*%
X129793276Y-70089500D02*
X130302724Y-70089500D01*
X129793276Y-71134500D02*
X130302724Y-71134500D01*
D10*
%TO.C,V1*%
X104602283Y-50800000D02*
G75*
G03*
X104602283Y-50800000I-4018283J0D01*
G01*
%TO.C,Conn1*%
X98812400Y-56642000D02*
X111106000Y-56642000D01*
X96526400Y-66802000D02*
X96526400Y-65659000D01*
X98837800Y-72390000D02*
X97644000Y-72390000D01*
X98812400Y-72390000D02*
X111106000Y-72390000D01*
X94215000Y-72390000D02*
X95383400Y-72390000D01*
X86493400Y-64490600D02*
X95383400Y-64490600D01*
X96526400Y-62230000D02*
X96526400Y-58953400D01*
X86468000Y-56642000D02*
X86468000Y-72390000D01*
X94240400Y-72390000D02*
X86493400Y-72390000D01*
X86493400Y-56642000D02*
X94240400Y-56642000D01*
X98812400Y-64516000D02*
X97669400Y-64516000D01*
X96526400Y-62230000D02*
X96526400Y-63373000D01*
X96526400Y-66802000D02*
X96526400Y-70104000D01*
X96526400Y-70078600D02*
X96526400Y-71247000D01*
X96526400Y-57785000D02*
X96526400Y-58953400D01*
X98787000Y-56642000D02*
X97694800Y-56642000D01*
X95383400Y-56642000D02*
X94164200Y-56642000D01*
X111106000Y-56642000D02*
X111106000Y-72390000D01*
X98812400Y-64516000D02*
X111106000Y-64516000D01*
X97644000Y-72390000D02*
G75*
G03*
X96526400Y-71272400I-1117598J2D01*
G01*
X95383400Y-56642000D02*
G75*
G03*
X96526400Y-57785000I1143000J0D01*
G01*
X96526400Y-57785000D02*
G75*
G03*
X97669400Y-56642000I0J1143000D01*
G01*
X96526400Y-71272400D02*
G75*
G03*
X95408800Y-72390000I-2J-1117598D01*
G01*
X97669400Y-64516000D02*
G75*
G03*
X97669400Y-64516000I-1143000J0D01*
G01*
%TO.C,V4*%
X104602283Y-137160000D02*
G75*
G03*
X104602283Y-137160000I-4018283J0D01*
G01*
D14*
%TO.C,Q10*%
X170080000Y-121385000D02*
X169410000Y-121385000D01*
X168410000Y-121385000D02*
X167750000Y-121385000D01*
X170070000Y-121385000D02*
X170070000Y-118650000D01*
X167750000Y-119975000D02*
X167750000Y-121385000D01*
D10*
%TO.C,Conn6*%
X106807000Y-124079000D02*
X94869000Y-124079000D01*
X94869000Y-117094000D02*
X100457000Y-117094000D01*
X106807000Y-112649000D02*
X106807000Y-122174000D01*
X109347000Y-122174000D02*
X106807000Y-122174000D01*
X106807000Y-112649000D02*
X94869000Y-112649000D01*
X99187000Y-119634000D02*
X100457000Y-119634000D01*
X99187000Y-119634000D02*
X95377000Y-119634000D01*
X94869000Y-112649000D02*
X94869000Y-124079000D01*
X106807000Y-122174000D02*
X106807000Y-124079000D01*
X94869000Y-119634000D02*
X95377000Y-119634000D01*
X106807000Y-114554000D02*
X109347000Y-114554000D01*
X100457000Y-117094000D02*
X100457000Y-119634000D01*
X109347000Y-114554000D02*
X109347000Y-122174000D01*
D14*
%TO.C,D16*%
X131545000Y-122800000D02*
X130075000Y-122800000D01*
X131545000Y-125260000D02*
X131545000Y-122800000D01*
X130075000Y-122800000D02*
X130075000Y-125260000D01*
%TO.C,R15*%
X160528724Y-114187500D02*
X160019276Y-114187500D01*
X160528724Y-113142500D02*
X160019276Y-113142500D01*
%TO.C,D2*%
X117593000Y-52043000D02*
X120053000Y-52043000D01*
X120053000Y-50573000D02*
X117593000Y-50573000D01*
X117593000Y-50573000D02*
X117593000Y-52043000D01*
%TO.C,C10*%
X128224267Y-84965000D02*
X127931733Y-84965000D01*
X128224267Y-83945000D02*
X127931733Y-83945000D01*
%TO.C,D5*%
X115024000Y-101319000D02*
X117484000Y-101319000D01*
X117484000Y-99849000D02*
X115024000Y-99849000D01*
X117484000Y-101319000D02*
X117484000Y-99849000D01*
%TO.C,R29*%
X124713276Y-98537500D02*
X125222724Y-98537500D01*
X124713276Y-99582500D02*
X125222724Y-99582500D01*
D10*
%TO.C,Conn9*%
X147066000Y-137795000D02*
X147066000Y-141605000D01*
X149606000Y-130175000D02*
X151511000Y-130175000D01*
X149606000Y-127635000D02*
X149606000Y-130175000D01*
X147066000Y-136525000D02*
X141986000Y-136525000D01*
X147066000Y-137795000D02*
X147066000Y-136525000D01*
X143256000Y-133985000D02*
X145796000Y-133985000D01*
X151511000Y-130175000D02*
X151511000Y-142113000D01*
X143256000Y-136525000D02*
X143256000Y-133985000D01*
X151511000Y-142113000D02*
X137541000Y-142113000D01*
X141986000Y-142113000D02*
X141986000Y-136525000D01*
X147066000Y-142113000D02*
X147066000Y-141605000D01*
X139446000Y-130175000D02*
X139446000Y-127635000D01*
X145796000Y-136525000D02*
X145796000Y-133985000D01*
X137541000Y-130175000D02*
X137541000Y-142113000D01*
X149606000Y-130175000D02*
X137541000Y-130175000D01*
X139446000Y-127635000D02*
X149606000Y-127635000D01*
D14*
%TO.C,C2*%
X122303000Y-56534267D02*
X122303000Y-56241733D01*
X121283000Y-56534267D02*
X121283000Y-56241733D01*
%TO.C,Q7*%
X178208000Y-121385000D02*
X177538000Y-121385000D01*
X175878000Y-119975000D02*
X175878000Y-121385000D01*
X176538000Y-121385000D02*
X175878000Y-121385000D01*
X178198000Y-121385000D02*
X178198000Y-118650000D01*
%TO.C,R33*%
X124648276Y-85837500D02*
X125157724Y-85837500D01*
X124648276Y-86882500D02*
X125157724Y-86882500D01*
%TO.C,U1*%
X122065000Y-69904000D02*
X124395000Y-69904000D01*
X122065000Y-67454000D02*
X122065000Y-69904000D01*
X122395000Y-61724000D02*
X134335000Y-61724000D01*
X122395000Y-69574000D02*
X122395000Y-61724000D01*
X134335000Y-61724000D02*
X134335000Y-69574000D01*
X134335000Y-69574000D02*
X122395000Y-69574000D01*
%TO.C,R10*%
X156732500Y-122301724D02*
X156732500Y-121792276D01*
X155687500Y-122301724D02*
X155687500Y-121792276D01*
%TO.C,R28*%
X112522724Y-97267500D02*
X112013276Y-97267500D01*
X112522724Y-98312500D02*
X112013276Y-98312500D01*
%TO.C,Q9*%
X159774000Y-118210000D02*
X159114000Y-118210000D01*
X159114000Y-116800000D02*
X159114000Y-118210000D01*
X161444000Y-118210000D02*
X160774000Y-118210000D01*
X161434000Y-118210000D02*
X161434000Y-115475000D01*
%TO.C,R21*%
X128270724Y-127141500D02*
X127761276Y-127141500D01*
X128270724Y-126096500D02*
X127761276Y-126096500D01*
%TO.C,D1*%
X132978000Y-71655000D02*
X130518000Y-71655000D01*
X130518000Y-73125000D02*
X132978000Y-73125000D01*
X132978000Y-73125000D02*
X132978000Y-71655000D01*
%TO.C,R11*%
X172451500Y-125349724D02*
X172451500Y-124840276D01*
X173496500Y-125349724D02*
X173496500Y-124840276D01*
%TO.C,D14*%
X131988000Y-81670000D02*
X131988000Y-79210000D01*
X130518000Y-81670000D02*
X131988000Y-81670000D01*
X130518000Y-79210000D02*
X130518000Y-81670000D01*
%TO.C,R4*%
X156464724Y-114314500D02*
X155955276Y-114314500D01*
X156464724Y-113269500D02*
X155955276Y-113269500D01*
D10*
%TO.C,U2*%
X134239000Y-59690000D02*
X129159000Y-59690000D01*
X126619000Y-52070000D02*
X129159000Y-49530000D01*
X139319000Y-59690000D02*
X122809000Y-59690000D01*
X126619000Y-57150000D02*
X126619000Y-52070000D01*
X136779000Y-52070000D02*
X136779000Y-57150000D01*
X129159000Y-49530000D02*
X134239000Y-49530000D01*
X134239000Y-49530000D02*
X136779000Y-52070000D01*
X139319000Y-59690000D02*
X139319000Y-49530000D01*
X129159000Y-59690000D02*
X126619000Y-57150000D01*
X122809000Y-49530000D02*
X139319000Y-49530000D01*
X136779000Y-57150000D02*
X134239000Y-59690000D01*
X122809000Y-59690000D02*
X122809000Y-49530000D01*
%TO.C,Conn8*%
X166751000Y-142113000D02*
X152781000Y-142113000D01*
X152781000Y-130175000D02*
X152781000Y-142113000D01*
X166751000Y-130175000D02*
X166751000Y-142113000D01*
X157226000Y-142113000D02*
X157226000Y-136525000D01*
X154686000Y-127635000D02*
X164846000Y-127635000D01*
X161036000Y-136525000D02*
X161036000Y-133985000D01*
X162306000Y-142113000D02*
X162306000Y-141605000D01*
X158496000Y-133985000D02*
X161036000Y-133985000D01*
X154686000Y-130175000D02*
X154686000Y-127635000D01*
X164846000Y-130175000D02*
X152781000Y-130175000D01*
X162306000Y-137795000D02*
X162306000Y-136525000D01*
X164846000Y-130175000D02*
X166751000Y-130175000D01*
X164846000Y-127635000D02*
X164846000Y-130175000D01*
X158496000Y-136525000D02*
X158496000Y-133985000D01*
X162306000Y-137795000D02*
X162306000Y-141605000D01*
X162306000Y-136525000D02*
X157226000Y-136525000D01*
%TO.C,Conn7*%
X189865000Y-115062000D02*
X188595000Y-115062000D01*
X182245000Y-120142000D02*
X179705000Y-120142000D01*
X179705000Y-120142000D02*
X179705000Y-112522000D01*
X189865000Y-115062000D02*
X193675000Y-115062000D01*
X194183000Y-122047000D02*
X194183000Y-110617000D01*
X182245000Y-110617000D02*
X194183000Y-110617000D01*
X182245000Y-122047000D02*
X194183000Y-122047000D01*
X188595000Y-117602000D02*
X188595000Y-115062000D01*
X194183000Y-117602000D02*
X188595000Y-117602000D01*
X194183000Y-115062000D02*
X193675000Y-115062000D01*
X182245000Y-112522000D02*
X182245000Y-110617000D01*
X179705000Y-112522000D02*
X182245000Y-112522000D01*
X182245000Y-122047000D02*
X182245000Y-112522000D01*
%TO.C,Conn11*%
X131064000Y-142240000D02*
X131064000Y-141732000D01*
X131064000Y-137922000D02*
X131064000Y-136652000D01*
X123444000Y-127762000D02*
X133604000Y-127762000D01*
X133604000Y-130302000D02*
X121539000Y-130302000D01*
X129794000Y-136652000D02*
X129794000Y-134112000D01*
X135509000Y-142240000D02*
X121539000Y-142240000D01*
X135509000Y-130302000D02*
X135509000Y-142240000D01*
X121539000Y-130302000D02*
X121539000Y-142240000D01*
X127254000Y-136652000D02*
X127254000Y-134112000D01*
X131064000Y-136652000D02*
X125984000Y-136652000D01*
X123444000Y-130302000D02*
X123444000Y-127762000D01*
X133604000Y-127762000D02*
X133604000Y-130302000D01*
X127254000Y-134112000D02*
X129794000Y-134112000D01*
X133604000Y-130302000D02*
X135509000Y-130302000D01*
X131064000Y-137922000D02*
X131064000Y-141732000D01*
X125984000Y-142240000D02*
X125984000Y-136652000D01*
D14*
%TO.C,J2*%
X192864000Y-72766000D02*
X192864000Y-56516000D01*
X192864000Y-72766000D02*
X171314000Y-72766000D01*
X171314000Y-72766000D02*
X171314000Y-56516000D01*
X192864000Y-56516000D02*
X171314000Y-56516000D01*
%TO.C,R31*%
X126187500Y-118985724D02*
X126187500Y-118476276D01*
X125142500Y-118985724D02*
X125142500Y-118476276D01*
%TO.C,U6*%
X124248000Y-113030000D02*
X124248000Y-111080000D01*
X129368000Y-113030000D02*
X129368000Y-114980000D01*
X129368000Y-113030000D02*
X129368000Y-111080000D01*
X124248000Y-113030000D02*
X124248000Y-116480000D01*
%TO.C,C1*%
X168712233Y-59055000D02*
X169004767Y-59055000D01*
X168712233Y-58035000D02*
X169004767Y-58035000D01*
%TO.C,R7*%
X178957500Y-82550724D02*
X178957500Y-82041276D01*
X177912500Y-82550724D02*
X177912500Y-82041276D01*
%TO.C,U7*%
X124883000Y-80010000D02*
X124883000Y-78060000D01*
X130003000Y-80010000D02*
X130003000Y-76560000D01*
X124883000Y-80010000D02*
X124883000Y-81960000D01*
X130003000Y-80010000D02*
X130003000Y-81960000D01*
%TO.C,Q2*%
X130683000Y-100310000D02*
X132633000Y-100310000D01*
X130683000Y-105430000D02*
X128733000Y-105430000D01*
X130683000Y-100310000D02*
X128733000Y-100310000D01*
X130683000Y-105430000D02*
X134133000Y-105430000D01*
D13*
%TO.C,Conn4*%
X98350000Y-91303000D02*
X95010000Y-91303000D01*
X95010000Y-91303000D02*
X95010000Y-110388000D01*
X108600000Y-93388000D02*
X108600000Y-91303000D01*
X100350000Y-110373000D02*
X108600000Y-110373000D01*
X108600000Y-110373000D02*
X108600000Y-108388000D01*
D15*
X109450000Y-107188000D02*
X109450000Y-107188000D01*
D13*
X108600000Y-91303000D02*
X100350000Y-91303000D01*
X95010000Y-110388000D02*
X98150000Y-110373000D01*
D15*
X109350000Y-107188000D02*
X109350000Y-107188000D01*
X109450000Y-107188000D02*
G75*
G03*
X109350000Y-107188000I-50000J0D01*
G01*
X109350000Y-107188000D02*
G75*
G03*
X109450000Y-107188000I50000J0D01*
G01*
D10*
%TO.C,Conn3*%
X182118000Y-85725000D02*
X194056000Y-85725000D01*
X179578000Y-83820000D02*
X179578000Y-78740000D01*
X182118000Y-76835000D02*
X182118000Y-85725000D01*
X182118000Y-83820000D02*
X179578000Y-83820000D01*
X179578000Y-78740000D02*
X182118000Y-78740000D01*
X194056000Y-76835000D02*
X194056000Y-85725000D01*
X182118000Y-76835000D02*
X194056000Y-76835000D01*
D14*
%TO.C,D17*%
X122401000Y-124197000D02*
X120931000Y-124197000D01*
X120931000Y-124197000D02*
X120931000Y-126657000D01*
X122401000Y-126657000D02*
X122401000Y-124197000D01*
%TO.C,J1*%
X170970000Y-70580000D02*
X170970000Y-71640000D01*
X170970000Y-69580000D02*
X168910000Y-69580000D01*
X170970000Y-65520000D02*
X166850000Y-65520000D01*
X170970000Y-69580000D02*
X170970000Y-65520000D01*
X170970000Y-71640000D02*
X169910000Y-71640000D01*
X168910000Y-69580000D02*
X168910000Y-71640000D01*
X168910000Y-71640000D02*
X166850000Y-71640000D01*
X166850000Y-71640000D02*
X166850000Y-65520000D01*
%TO.C,R3*%
X142748724Y-113269500D02*
X142239276Y-113269500D01*
X142748724Y-114314500D02*
X142239276Y-114314500D01*
%TO.C,Q5*%
X155710000Y-118337000D02*
X155050000Y-118337000D01*
X157380000Y-118337000D02*
X156710000Y-118337000D01*
X157370000Y-118337000D02*
X157370000Y-115602000D01*
X155050000Y-116927000D02*
X155050000Y-118337000D01*
%TD*%
M02*
